<?xml version="1.0" encoding="UTF-8" standalone="no"?>
<!DOCTYPE svg PUBLIC "-//W3C//DTD SVG 1.1//EN"
 "http://www.w3.org/Graphics/SVG/1.1/DTD/svg11.dtd">
<!-- Generated by graphviz version 2.38.0 (20140413.2041)
 -->
<!-- Title: /home/travis/build/hypro/hypro/src/hypro/util/adaptions_eigen/adaptions_eigen_double.cpp Pages: 1 -->
<!--zoomable 363 -->
<svg id="main" version="1.1" xmlns="http://www.w3.org/2000/svg" xmlns:xlink="http://www.w3.org/1999/xlink" xml:space="preserve" onload="init(evt)">
<style type="text/css"><![CDATA[
.edge:hover path { stroke: red; }
.edge:hover polygon { stroke: red; fill: red; }
]]></style>
<script type="text/javascript"><![CDATA[
var edges = document.getElementsByTagName('g');
if (edges && edges.length) {
  for (var i=0;i<edges.length;i++) {
    if (edges[i].id.substr(0,4)=='edge') {
      edges[i].setAttribute('class','edge');
    }
  }
}
]]></script>
        <defs>
                <circle id="rim" cx="0" cy="0" r="7"/>
                <circle id="rim2" cx="0" cy="0" r="3.5"/>
                <g id="zoomPlus">
                        <use xlink:href="#rim" fill="#404040">
                                <set attributeName="fill" to="#808080" begin="zoomplus.mouseover" end="zoomplus.mouseout"/>
                        </use>
                        <path d="M-4,0h8M0,-4v8" fill="none" stroke="white" stroke-width="1.5" pointer-events="none"/>
                </g>
                <g id="zoomMin">
                        <use xlink:href="#rim" fill="#404040">
                                <set attributeName="fill" to="#808080" begin="zoomminus.mouseover" end="zoomminus.mouseout"/>
                        </use>
                        <path d="M-4,0h8" fill="none" stroke="white" stroke-width="1.5" pointer-events="none"/>
                </g>
                <g id="dirArrow">
                        <path fill="none" stroke="white" stroke-width="1.5" d="M0,-3.0v7 M-2.5,-0.5L0,-3.0L2.5,-0.5"/>
                </g>
               <g id="resetDef">
                       <use xlink:href="#rim2" fill="#404040">
                               <set attributeName="fill" to="#808080" begin="reset.mouseover" end="reset.mouseout"/>
                       </use>
               </g>
        </defs>

<script type="text/javascript">
var viewWidth = 1969;
var viewHeight = 363;
var sectionId = 'dynsection-0';
</script>
<script xlink:href="svgpan.js"/>
<svg id="graph" class="graph">
<g id="viewport">
<title>/home/travis/build/hypro/hypro/src/hypro/util/adaptions_eigen/adaptions_eigen_double.cpp</title>
<polygon fill="white" stroke="none" points="-4,4 -4,-359 1965,-359 1965,4 -4,4"/>
<!-- Node1 -->
<g id="node1" class="node"><title>Node1</title>
<polygon fill="#bfbfbf" stroke="black" points="1301,-302.5 1301,-354.5 1457,-354.5 1457,-302.5 1301,-302.5"/>
<text text-anchor="start" x="1309" y="-342.5" font-family="Helvetica,sans-Serif" font-size="10.00">/home/travis/build</text>
<text text-anchor="start" x="1309" y="-331.5" font-family="Helvetica,sans-Serif" font-size="10.00">/hypro/hypro/src/hypro</text>
<text text-anchor="start" x="1309" y="-320.5" font-family="Helvetica,sans-Serif" font-size="10.00">/util/adaptions_eigen</text>
<text text-anchor="middle" x="1379" y="-309.5" font-family="Helvetica,sans-Serif" font-size="10.00">/adaptions_eigen_double.cpp</text>
</g>
<!-- Node2 -->
<g id="node2" class="node"><title>Node2</title>
<g id="a_node2"><a xlink:href="adaptions__eigen_8h.html" target="_top" xlink:title="adaptions_eigen.h">
<polygon fill="white" stroke="black" points="1327,-246.5 1327,-265.5 1431,-265.5 1431,-246.5 1327,-246.5"/>
<text text-anchor="middle" x="1379" y="-253.5" font-family="Helvetica,sans-Serif" font-size="10.00">adaptions_eigen.h</text>
</a>
</g>
</g>
<!-- Node1&#45;&gt;Node2 -->
<g id="edge1" class="edge"><title>Node1&#45;&gt;Node2</title>
<path fill="none" stroke="midnightblue" d="M1379,-302.446C1379,-293.73 1379,-284.104 1379,-275.964"/>
<polygon fill="midnightblue" stroke="midnightblue" points="1382.5,-275.695 1379,-265.695 1375.5,-275.696 1382.5,-275.695"/>
</g>
<!-- Node3 -->
<g id="node3" class="node"><title>Node3</title>
<g id="a_node3"><a xlink:href="config_8h.html" target="_top" xlink:title="../../config.h">
<polygon fill="white" stroke="black" points="1112,-179.5 1112,-198.5 1184,-198.5 1184,-179.5 1112,-179.5"/>
<text text-anchor="middle" x="1148" y="-186.5" font-family="Helvetica,sans-Serif" font-size="10.00">../../config.h</text>
</a>
</g>
</g>
<!-- Node2&#45;&gt;Node3 -->
<g id="edge2" class="edge"><title>Node2&#45;&gt;Node3</title>
<path fill="none" stroke="midnightblue" d="M1348.32,-246.369C1307.14,-234.778 1233.87,-214.162 1188.28,-201.334"/>
<polygon fill="midnightblue" stroke="midnightblue" points="1189.01,-197.903 1178.43,-198.564 1187.11,-204.642 1189.01,-197.903"/>
</g>
<!-- Node6 -->
<g id="node6" class="node"><title>Node6</title>
<g id="a_node6"><a xlink:href="types_8h.html" target="_top" xlink:title="../types.h">
<polygon fill="white" stroke="black" points="220.5,-56.5 220.5,-75.5 281.5,-75.5 281.5,-56.5 220.5,-56.5"/>
<text text-anchor="middle" x="251" y="-63.5" font-family="Helvetica,sans-Serif" font-size="10.00">../types.h</text>
</a>
</g>
</g>
<!-- Node2&#45;&gt;Node6 -->
<g id="edge26" class="edge"><title>Node2&#45;&gt;Node6</title>
<path fill="none" stroke="midnightblue" d="M1326.85,-252.922C1139.91,-244.638 505.415,-210.536 321,-132 295.319,-121.064 271.397,-99.0586 258.834,-83.6964"/>
<polygon fill="midnightblue" stroke="midnightblue" points="261.577,-81.5196 252.823,-75.5529 255.946,-85.6769 261.577,-81.5196"/>
</g>
<!-- Node7 -->
<g id="node7" class="node"><title>Node7</title>
<polygon fill="white" stroke="#bfbfbf" points="0,-0.5 0,-19.5 134,-19.5 134,-0.5 0,-0.5"/>
<text text-anchor="middle" x="67" y="-7.5" font-family="Helvetica,sans-Serif" font-size="10.00">carl/numbers/numbers.h</text>
</g>
<!-- Node2&#45;&gt;Node7 -->
<g id="edge28" class="edge"><title>Node2&#45;&gt;Node7</title>
<path fill="none" stroke="midnightblue" d="M1326.79,-254.955C1158.66,-254.412 632.765,-249.516 468,-210 310.859,-172.312 144.448,-64.5688 87.4886,-25.4309"/>
<polygon fill="midnightblue" stroke="midnightblue" points="89.2263,-22.3768 79.0138,-19.5562 85.2384,-28.1297 89.2263,-22.3768"/>
</g>
<!-- Node10 -->
<g id="node10" class="node"><title>Node10</title>
<polygon fill="white" stroke="#bfbfbf" points="947,-0.5 947,-19.5 1059,-19.5 1059,-0.5 947,-0.5"/>
<text text-anchor="middle" x="1003" y="-7.5" font-family="Helvetica,sans-Serif" font-size="10.00">eigen3/Eigen/Dense</text>
</g>
<!-- Node2&#45;&gt;Node10 -->
<g id="edge29" class="edge"><title>Node2&#45;&gt;Node10</title>
<path fill="none" stroke="midnightblue" d="M1381.2,-246.283C1388.46,-215.313 1408.21,-109.586 1355,-56 1316.23,-16.9556 1160.2,-10.4887 1069.42,-10.1467"/>
<polygon fill="midnightblue" stroke="midnightblue" points="1069.23,-6.64656 1059.22,-10.133 1069.22,-13.6466 1069.23,-6.64656"/>
</g>
<!-- Node11 -->
<g id="node11" class="node"><title>Node11</title>
<polygon fill="white" stroke="#bfbfbf" points="507,-0.5 507,-19.5 553,-19.5 553,-0.5 507,-0.5"/>
<text text-anchor="middle" x="530" y="-7.5" font-family="Helvetica,sans-Serif" font-size="10.00">iosfwd</text>
</g>
<!-- Node2&#45;&gt;Node11 -->
<g id="edge32" class="edge"><title>Node2&#45;&gt;Node11</title>
<path fill="none" stroke="midnightblue" d="M1379.65,-246.381C1381.5,-214.828 1383.2,-104.914 1322,-56 1291.92,-31.9612 709.901,-15.5786 563.298,-11.8224"/>
<polygon fill="midnightblue" stroke="midnightblue" points="563.211,-8.31917 553.126,-11.5642 563.034,-15.3169 563.211,-8.31917"/>
</g>
<!-- Node23 -->
<g id="node23" class="node"><title>Node23</title>
<g id="a_node23"><a xlink:href="transformation_8h.html" target="_top" xlink:title="transformation.h">
<polygon fill="white" stroke="black" points="1407.5,-179.5 1407.5,-198.5 1504.5,-198.5 1504.5,-179.5 1407.5,-179.5"/>
<text text-anchor="middle" x="1456" y="-186.5" font-family="Helvetica,sans-Serif" font-size="10.00">transformation.h</text>
</a>
</g>
</g>
<!-- Node2&#45;&gt;Node23 -->
<g id="edge27" class="edge"><title>Node2&#45;&gt;Node23</title>
<path fill="none" stroke="midnightblue" d="M1389.38,-246.234C1401.85,-235.708 1422.97,-217.879 1438.09,-205.117"/>
<polygon fill="midnightblue" stroke="midnightblue" points="1440.4,-207.752 1445.78,-198.627 1435.88,-202.403 1440.4,-207.752"/>
</g>
<!-- Node24 -->
<g id="node24" class="node"><title>Node24</title>
<polygon fill="white" stroke="#bfbfbf" points="1523,-179.5 1523,-198.5 1661,-198.5 1661,-179.5 1523,-179.5"/>
<text text-anchor="middle" x="1592" y="-186.5" font-family="Helvetica,sans-Serif" font-size="10.00">eigen3/Eigen/Eigenvalues</text>
</g>
<!-- Node2&#45;&gt;Node24 -->
<g id="edge30" class="edge"><title>Node2&#45;&gt;Node24</title>
<path fill="none" stroke="midnightblue" d="M1407.28,-246.369C1445.11,-234.827 1512.25,-214.335 1554.33,-201.496"/>
<polygon fill="midnightblue" stroke="midnightblue" points="1555.39,-204.83 1563.94,-198.564 1553.35,-198.135 1555.39,-204.83"/>
</g>
<!-- Node25 -->
<g id="node25" class="node"><title>Node25</title>
<polygon fill="white" stroke="#bfbfbf" points="1679.5,-179.5 1679.5,-198.5 1742.5,-198.5 1742.5,-179.5 1679.5,-179.5"/>
<text text-anchor="middle" x="1711" y="-186.5" font-family="Helvetica,sans-Serif" font-size="10.00">functional</text>
</g>
<!-- Node2&#45;&gt;Node25 -->
<g id="edge31" class="edge"><title>Node2&#45;&gt;Node25</title>
<path fill="none" stroke="midnightblue" d="M1431.05,-251.677C1490.11,-246.83 1588.78,-235.449 1670,-210 1675.67,-208.224 1681.53,-205.772 1687,-203.193"/>
<polygon fill="midnightblue" stroke="midnightblue" points="1688.9,-206.152 1696.26,-198.53 1685.75,-199.9 1688.9,-206.152"/>
</g>
<!-- Node26 -->
<g id="node26" class="node"><title>Node26</title>
<polygon fill="white" stroke="#bfbfbf" points="1761,-179.5 1761,-198.5 1803,-198.5 1803,-179.5 1761,-179.5"/>
<text text-anchor="middle" x="1782" y="-186.5" font-family="Helvetica,sans-Serif" font-size="10.00">limits</text>
</g>
<!-- Node2&#45;&gt;Node26 -->
<g id="edge33" class="edge"><title>Node2&#45;&gt;Node26</title>
<path fill="none" stroke="midnightblue" d="M1431.09,-251.709C1519.36,-245.637 1694.34,-231.313 1752,-210 1755.92,-208.552 1759.83,-206.5 1763.48,-204.258"/>
<polygon fill="midnightblue" stroke="midnightblue" points="1765.57,-207.068 1771.83,-198.526 1761.61,-201.295 1765.57,-207.068"/>
</g>
<!-- Node27 -->
<g id="node27" class="node"><title>Node27</title>
<polygon fill="white" stroke="#bfbfbf" points="1821,-168.5 1821,-209.5 1961,-209.5 1961,-168.5 1821,-168.5"/>
<text text-anchor="start" x="1829" y="-197.5" font-family="Helvetica,sans-Serif" font-size="10.00">eigen3/unsupported</text>
<text text-anchor="start" x="1829" y="-186.5" font-family="Helvetica,sans-Serif" font-size="10.00">/Eigen/src/MatrixFunctions</text>
<text text-anchor="middle" x="1891" y="-175.5" font-family="Helvetica,sans-Serif" font-size="10.00">/MatrixExponential.h</text>
</g>
<!-- Node2&#45;&gt;Node27 -->
<g id="edge34" class="edge"><title>Node2&#45;&gt;Node27</title>
<path fill="none" stroke="midnightblue" d="M1431.33,-252.009C1511.16,-246.91 1668.24,-234.77 1810.67,-210.103"/>
<polygon fill="midnightblue" stroke="midnightblue" points="1811.66,-213.483 1820.9,-208.305 1810.45,-206.589 1811.66,-213.483"/>
</g>
<!-- Node4 -->
<g id="node4" class="node"><title>Node4</title>
<g id="a_node4"><a xlink:href="flags_8h.html" target="_top" xlink:title="flags.h">
<polygon fill="white" stroke="black" points="1265,-56.5 1265,-75.5 1313,-75.5 1313,-56.5 1265,-56.5"/>
<text text-anchor="middle" x="1289" y="-63.5" font-family="Helvetica,sans-Serif" font-size="10.00">flags.h</text>
</a>
</g>
</g>
<!-- Node3&#45;&gt;Node4 -->
<g id="edge3" class="edge"><title>Node3&#45;&gt;Node4</title>
<path fill="none" stroke="midnightblue" d="M1158.14,-179.298C1181.82,-158.978 1241.01,-108.186 1270.99,-82.4566"/>
<polygon fill="midnightblue" stroke="midnightblue" points="1273.64,-84.7916 1278.95,-75.6232 1269.08,-79.4795 1273.64,-84.7916"/>
</g>
<!-- Node5 -->
<g id="node5" class="node"><title>Node5</title>
<g id="a_node5"><a xlink:href="util_2convenienceOperators_8h.html" target="_top" xlink:title="util/convenienceOperators.h">
<polygon fill="white" stroke="black" points="339.5,-112.5 339.5,-131.5 490.5,-131.5 490.5,-112.5 339.5,-112.5"/>
<text text-anchor="middle" x="415" y="-119.5" font-family="Helvetica,sans-Serif" font-size="10.00">util/convenienceOperators.h</text>
</a>
</g>
</g>
<!-- Node3&#45;&gt;Node5 -->
<g id="edge4" class="edge"><title>Node3&#45;&gt;Node5</title>
<path fill="none" stroke="midnightblue" d="M1111.65,-184.777C1000.21,-174.894 661.197,-144.832 500.822,-130.61"/>
<polygon fill="midnightblue" stroke="midnightblue" points="500.791,-127.094 490.521,-129.697 500.172,-134.067 500.791,-127.094"/>
</g>
<!-- Node16 -->
<g id="node16" class="node"><title>Node16</title>
<g id="a_node16"><a xlink:href="Logger_8h.html" target="_top" xlink:title="util/logging/Logger.h">
<polygon fill="white" stroke="black" points="1019.5,-112.5 1019.5,-131.5 1132.5,-131.5 1132.5,-112.5 1019.5,-112.5"/>
<text text-anchor="middle" x="1076" y="-119.5" font-family="Helvetica,sans-Serif" font-size="10.00">util/logging/Logger.h</text>
</a>
</g>
</g>
<!-- Node3&#45;&gt;Node16 -->
<g id="edge18" class="edge"><title>Node3&#45;&gt;Node16</title>
<path fill="none" stroke="midnightblue" d="M1138.29,-179.234C1126.74,-168.805 1107.25,-151.209 1093.14,-138.473"/>
<polygon fill="midnightblue" stroke="midnightblue" points="1095.32,-135.73 1085.56,-131.627 1090.63,-140.926 1095.32,-135.73"/>
</g>
<!-- Node5&#45;&gt;Node6 -->
<g id="edge5" class="edge"><title>Node5&#45;&gt;Node6</title>
<path fill="none" stroke="midnightblue" d="M389.014,-112.444C361.304,-103.32 317.248,-88.8133 286.384,-78.6509"/>
<polygon fill="midnightblue" stroke="midnightblue" points="287.458,-75.3196 276.865,-75.5164 285.268,-81.9684 287.458,-75.3196"/>
</g>
<!-- Node5&#45;&gt;Node11 -->
<g id="edge13" class="edge"><title>Node5&#45;&gt;Node11</title>
<path fill="none" stroke="midnightblue" d="M449.177,-112.375C469.469,-105.609 494.234,-94.2143 510,-76 521.219,-63.0389 526.145,-43.8723 528.308,-29.7078"/>
<polygon fill="midnightblue" stroke="midnightblue" points="531.8,-29.9807 529.518,-19.6347 524.85,-29.1461 531.8,-29.9807"/>
</g>
<!-- Node12 -->
<g id="node12" class="node"><title>Node12</title>
<polygon fill="white" stroke="#bfbfbf" points="378,-0.5 378,-19.5 410,-19.5 410,-0.5 378,-0.5"/>
<text text-anchor="middle" x="394" y="-7.5" font-family="Helvetica,sans-Serif" font-size="10.00">set</text>
</g>
<!-- Node5&#45;&gt;Node12 -->
<g id="edge15" class="edge"><title>Node5&#45;&gt;Node12</title>
<path fill="none" stroke="midnightblue" d="M380.816,-112.493C362.007,-105.877 340.257,-94.5958 329,-76 315.634,-53.9217 345.094,-33.7987 368.607,-21.9712"/>
<polygon fill="midnightblue" stroke="midnightblue" points="370.331,-25.0269 377.859,-17.5715 367.325,-18.7053 370.331,-25.0269"/>
</g>
<!-- Node13 -->
<g id="node13" class="node"><title>Node13</title>
<polygon fill="white" stroke="#bfbfbf" points="338,-56.5 338,-75.5 376,-75.5 376,-56.5 338,-56.5"/>
<text text-anchor="middle" x="357" y="-63.5" font-family="Helvetica,sans-Serif" font-size="10.00">map</text>
</g>
<!-- Node5&#45;&gt;Node13 -->
<g id="edge14" class="edge"><title>Node5&#45;&gt;Node13</title>
<path fill="none" stroke="midnightblue" d="M405.681,-112.324C397.107,-104.341 384.188,-92.3128 373.812,-82.6529"/>
<polygon fill="midnightblue" stroke="midnightblue" points="376.192,-80.0865 366.488,-75.8339 371.422,-85.2098 376.192,-80.0865"/>
</g>
<!-- Node14 -->
<g id="node14" class="node"><title>Node14</title>
<polygon fill="white" stroke="#bfbfbf" points="394,-56.5 394,-75.5 436,-75.5 436,-56.5 394,-56.5"/>
<text text-anchor="middle" x="415" y="-63.5" font-family="Helvetica,sans-Serif" font-size="10.00">utility</text>
</g>
<!-- Node5&#45;&gt;Node14 -->
<g id="edge16" class="edge"><title>Node5&#45;&gt;Node14</title>
<path fill="none" stroke="midnightblue" d="M415,-112.083C415,-105.006 415,-94.8611 415,-85.9865"/>
<polygon fill="midnightblue" stroke="midnightblue" points="418.5,-85.751 415,-75.7511 411.5,-85.7511 418.5,-85.751"/>
</g>
<!-- Node15 -->
<g id="node15" class="node"><title>Node15</title>
<polygon fill="white" stroke="#bfbfbf" points="454.5,-56.5 454.5,-75.5 501.5,-75.5 501.5,-56.5 454.5,-56.5"/>
<text text-anchor="middle" x="478" y="-63.5" font-family="Helvetica,sans-Serif" font-size="10.00">vector</text>
</g>
<!-- Node5&#45;&gt;Node15 -->
<g id="edge17" class="edge"><title>Node5&#45;&gt;Node15</title>
<path fill="none" stroke="midnightblue" d="M425.122,-112.324C434.526,-104.263 448.744,-92.0765 460.069,-82.3695"/>
<polygon fill="midnightblue" stroke="midnightblue" points="462.379,-84.9993 467.694,-75.8339 457.823,-79.6844 462.379,-84.9993"/>
</g>
<!-- Node6&#45;&gt;Node2 -->
<g id="edge12" class="edge"><title>Node6&#45;&gt;Node2</title>
<path fill="none" stroke="midnightblue" d="M263.694,-75.5529C280.074,-89.9948 308.279,-118.917 339,-132 517.895,-208.185 1120.32,-242.557 1316.65,-252.108"/>
<polygon fill="midnightblue" stroke="midnightblue" points="1316.63,-255.612 1326.79,-252.597 1316.97,-248.62 1316.63,-255.612"/>
</g>
<!-- Node6&#45;&gt;Node7 -->
<g id="edge6" class="edge"><title>Node6&#45;&gt;Node7</title>
<path fill="none" stroke="midnightblue" d="M221.845,-56.4435C190.487,-47.2406 140.469,-32.5617 105.803,-22.3879"/>
<polygon fill="midnightblue" stroke="midnightblue" points="106.6,-18.9742 96.0189,-19.5164 104.629,-25.6909 106.6,-18.9742"/>
</g>
<!-- Node8 -->
<g id="node8" class="node"><title>Node8</title>
<polygon fill="white" stroke="#bfbfbf" points="152,-0.5 152,-19.5 238,-19.5 238,-0.5 152,-0.5"/>
<text text-anchor="middle" x="195" y="-7.5" font-family="Helvetica,sans-Serif" font-size="10.00">carl/util/hash.h</text>
</g>
<!-- Node6&#45;&gt;Node8 -->
<g id="edge7" class="edge"><title>Node6&#45;&gt;Node8</title>
<path fill="none" stroke="midnightblue" d="M242.003,-56.324C233.806,-48.4196 221.494,-36.5482 211.528,-26.9377"/>
<polygon fill="midnightblue" stroke="midnightblue" points="213.789,-24.2558 204.161,-19.8339 208.93,-29.2947 213.789,-24.2558"/>
</g>
<!-- Node9 -->
<g id="node9" class="node"><title>Node9</title>
<polygon fill="white" stroke="#bfbfbf" points="256,-0.5 256,-19.5 360,-19.5 360,-0.5 256,-0.5"/>
<text text-anchor="middle" x="308" y="-7.5" font-family="Helvetica,sans-Serif" font-size="10.00">eigen3/Eigen/Core</text>
</g>
<!-- Node6&#45;&gt;Node9 -->
<g id="edge8" class="edge"><title>Node6&#45;&gt;Node9</title>
<path fill="none" stroke="midnightblue" d="M260.158,-56.324C268.501,-48.4196 281.032,-36.5482 291.177,-26.9377"/>
<polygon fill="midnightblue" stroke="midnightblue" points="293.823,-29.2522 298.675,-19.8339 289.009,-24.1705 293.823,-29.2522"/>
</g>
<!-- Node6&#45;&gt;Node10 -->
<g id="edge9" class="edge"><title>Node6&#45;&gt;Node10</title>
<path fill="none" stroke="midnightblue" d="M281.713,-61.11C296.063,-59.3815 313.388,-57.421 329,-56 551.145,-35.78 815.26,-20.7649 936.345,-14.3825"/>
<polygon fill="midnightblue" stroke="midnightblue" points="936.761,-17.8656 946.563,-13.8465 936.394,-10.8752 936.761,-17.8656"/>
</g>
<!-- Node6&#45;&gt;Node11 -->
<g id="edge10" class="edge"><title>Node6&#45;&gt;Node11</title>
<path fill="none" stroke="midnightblue" d="M281.656,-59.0666C334.584,-48.8224 442.651,-27.9062 497.097,-17.3684"/>
<polygon fill="midnightblue" stroke="midnightblue" points="497.774,-20.8024 506.926,-15.4659 496.443,-13.93 497.774,-20.8024"/>
</g>
<!-- Node6&#45;&gt;Node12 -->
<g id="edge11" class="edge"><title>Node6&#45;&gt;Node12</title>
<path fill="none" stroke="midnightblue" d="M273.659,-56.4435C299.357,-46.7392 341.18,-30.946 368.136,-20.7668"/>
<polygon fill="midnightblue" stroke="midnightblue" points="369.556,-23.972 377.674,-17.1649 367.083,-17.4234 369.556,-23.972"/>
</g>
<!-- Node16&#45;&gt;Node4 -->
<g id="edge19" class="edge"><title>Node16&#45;&gt;Node4</title>
<path fill="none" stroke="midnightblue" d="M1111.24,-112.426C1145.58,-104.017 1199.52,-90.673 1255.19,-76.1732"/>
<polygon fill="midnightblue" stroke="midnightblue" points="1256.07,-79.5595 1264.87,-73.6458 1254.31,-72.7867 1256.07,-79.5595"/>
</g>
<!-- Node17 -->
<g id="node17" class="node"><title>Node17</title>
<polygon fill="white" stroke="#bfbfbf" points="941,-56.5 941,-75.5 1095,-75.5 1095,-56.5 941,-56.5"/>
<text text-anchor="middle" x="1018" y="-63.5" font-family="Helvetica,sans-Serif" font-size="10.00">carl/io/streamingOperators.h</text>
</g>
<!-- Node16&#45;&gt;Node17 -->
<g id="edge20" class="edge"><title>Node16&#45;&gt;Node17</title>
<path fill="none" stroke="midnightblue" d="M1066.68,-112.324C1058.11,-104.341 1045.19,-92.3128 1034.81,-82.6529"/>
<polygon fill="midnightblue" stroke="midnightblue" points="1037.19,-80.0865 1027.49,-75.8339 1032.42,-85.2098 1037.19,-80.0865"/>
</g>
<!-- Node18 -->
<g id="node18" class="node"><title>Node18</title>
<polygon fill="white" stroke="#bfbfbf" points="1113.5,-56.5 1113.5,-75.5 1172.5,-75.5 1172.5,-56.5 1113.5,-56.5"/>
<text text-anchor="middle" x="1143" y="-63.5" font-family="Helvetica,sans-Serif" font-size="10.00">iostream</text>
</g>
<!-- Node16&#45;&gt;Node18 -->
<g id="edge21" class="edge"><title>Node16&#45;&gt;Node18</title>
<path fill="none" stroke="midnightblue" d="M1086.76,-112.324C1096.77,-104.263 1111.89,-92.0765 1123.93,-82.3695"/>
<polygon fill="midnightblue" stroke="midnightblue" points="1126.45,-84.8343 1132.04,-75.8339 1122.06,-79.3841 1126.45,-84.8343"/>
</g>
<!-- Node19 -->
<g id="node19" class="node"><title>Node19</title>
<polygon fill="white" stroke="#bfbfbf" points="1191,-56.5 1191,-75.5 1247,-75.5 1247,-56.5 1191,-56.5"/>
<text text-anchor="middle" x="1219" y="-63.5" font-family="Helvetica,sans-Serif" font-size="10.00">sstream</text>
</g>
<!-- Node16&#45;&gt;Node19 -->
<g id="edge22" class="edge"><title>Node16&#45;&gt;Node19</title>
<path fill="none" stroke="midnightblue" d="M1098.66,-112.444C1122.4,-103.478 1159.91,-89.314 1186.74,-79.1827"/>
<polygon fill="midnightblue" stroke="midnightblue" points="1188.33,-82.3235 1196.45,-75.5164 1185.86,-75.7749 1188.33,-82.3235"/>
</g>
<!-- Node20 -->
<g id="node20" class="node"><title>Node20</title>
<polygon fill="white" stroke="#bfbfbf" points="558,-56.5 558,-75.5 606,-75.5 606,-56.5 558,-56.5"/>
<text text-anchor="middle" x="582" y="-63.5" font-family="Helvetica,sans-Serif" font-size="10.00">thread</text>
</g>
<!-- Node16&#45;&gt;Node20 -->
<g id="edge23" class="edge"><title>Node16&#45;&gt;Node20</title>
<path fill="none" stroke="midnightblue" d="M1019.15,-118.544C933.574,-114.168 766.517,-102.989 615.936,-75.8708"/>
<polygon fill="midnightblue" stroke="midnightblue" points="616.509,-72.4176 606.042,-74.0614 615.25,-79.3034 616.509,-72.4176"/>
</g>
<!-- Node21 -->
<g id="node21" class="node"><title>Node21</title>
<polygon fill="white" stroke="#bfbfbf" points="624.5,-56.5 624.5,-75.5 749.5,-75.5 749.5,-56.5 624.5,-56.5"/>
<text text-anchor="middle" x="687" y="-63.5" font-family="Helvetica,sans-Serif" font-size="10.00">carl/core/carlLogging.h</text>
</g>
<!-- Node16&#45;&gt;Node21 -->
<g id="edge24" class="edge"><title>Node16&#45;&gt;Node21</title>
<path fill="none" stroke="midnightblue" d="M1019.44,-113.148C950.507,-103.579 833.959,-87.4004 758.775,-76.9636"/>
<polygon fill="midnightblue" stroke="midnightblue" points="758.836,-73.4386 748.45,-75.5303 757.873,-80.3721 758.836,-73.4386"/>
</g>
<!-- Node22 -->
<g id="node22" class="node"><title>Node22</title>
<polygon fill="white" stroke="#bfbfbf" points="767.5,-56.5 767.5,-75.5 922.5,-75.5 922.5,-56.5 767.5,-56.5"/>
<text text-anchor="middle" x="845" y="-63.5" font-family="Helvetica,sans-Serif" font-size="10.00">carl/core/carlLoggingHelper.h</text>
</g>
<!-- Node16&#45;&gt;Node22 -->
<g id="edge25" class="edge"><title>Node16&#45;&gt;Node22</title>
<path fill="none" stroke="midnightblue" d="M1039.4,-112.444C999.269,-103.063 934.802,-87.9926 891.215,-77.8036"/>
<polygon fill="midnightblue" stroke="midnightblue" points="891.966,-74.3847 881.431,-75.5164 890.372,-81.2009 891.966,-74.3847"/>
</g>
</g>
</svg>
        <g id="navigator" transform="translate(0 0)" fill="#404254">
                <rect fill="#f2f5e9" fill-opacity="0.5" stroke="#606060" stroke-width=".5" x="0" y="0" width="60" height="60"/>
                <use id="zoomplus" xlink:href="#zoomPlus" x="17" y="9" onmousedown="handleZoom(evt,'in')"/>
                <use id="zoomminus" xlink:href="#zoomMin" x="42" y="9" onmousedown="handleZoom(evt,'out')"/>
                <use id="reset" xlink:href="#resetDef" x="30" y="36" onmousedown="handleReset()"/>
                <g id="arrowUp" xlink:href="#dirArrow" transform="translate(30 24)" onmousedown="handlePan(0,-1)">
                  <use xlink:href="#rim" fill="#404040">
                        <set attributeName="fill" to="#808080" begin="arrowUp.mouseover" end="arrowUp.mouseout"/>
                  </use>
                  <path fill="none" stroke="white" stroke-width="1.5" d="M0,-3.0v7 M-2.5,-0.5L0,-3.0L2.5,-0.5"/>
                </g>
                <g id="arrowRight" xlink:href="#dirArrow" transform="rotate(90) translate(36 -43)" onmousedown="handlePan(1,0)">
                  <use xlink:href="#rim" fill="#404040">
                        <set attributeName="fill" to="#808080" begin="arrowRight.mouseover" end="arrowRight.mouseout"/>
                  </use>
                  <path fill="none" stroke="white" stroke-width="1.5" d="M0,-3.0v7 M-2.5,-0.5L0,-3.0L2.5,-0.5"/>
                </g>
                <g id="arrowDown" xlink:href="#dirArrow" transform="rotate(180) translate(-30 -48)" onmousedown="handlePan(0,1)">
                  <use xlink:href="#rim" fill="#404040">
                        <set attributeName="fill" to="#808080" begin="arrowDown.mouseover" end="arrowDown.mouseout"/>
                  </use>
                  <path fill="none" stroke="white" stroke-width="1.5" d="M0,-3.0v7 M-2.5,-0.5L0,-3.0L2.5,-0.5"/>
                </g>
                <g id="arrowLeft" xlink:href="#dirArrow" transform="rotate(270) translate(-36 17)" onmousedown="handlePan(-1,0)">
                  <use xlink:href="#rim" fill="#404040">
                        <set attributeName="fill" to="#808080" begin="arrowLeft.mouseover" end="arrowLeft.mouseout"/>
                  </use>
                  <path fill="none" stroke="white" stroke-width="1.5" d="M0,-3.0v7 M-2.5,-0.5L0,-3.0L2.5,-0.5"/>
                </g>
        </g>
        <svg viewBox="0 0 15 15" width="100%" height="30px" preserveAspectRatio="xMaxYMin meet">
         <g id="arrow_out" transform="scale(0.3 0.3)">
          <a xlink:href="adaptions__eigen__double_8cpp__incl_org.svg" target="_base">
           <rect id="button" ry="5" rx="5" y="6" x="6" height="38" width="38"
                fill="#f2f5e9" fill-opacity="0.5" stroke="#606060" stroke-width="1.0"/>
           <path id="arrow"
             d="M 11.500037,31.436501 C 11.940474,20.09759 22.043105,11.32322 32.158766,21.979434 L 37.068811,17.246167 C 37.068811,17.246167 37.088388,32 37.088388,32 L 22.160133,31.978069 C 22.160133,31.978069 26.997745,27.140456 26.997745,27.140456 C 18.528582,18.264221 13.291696,25.230495 11.500037,31.436501 z"
             style="fill:#404040;"/>
          </a>
         </g>
        </svg>
</svg>
