<?xml version="1.0" encoding="UTF-8" standalone="no"?>
<!DOCTYPE svg PUBLIC "-//W3C//DTD SVG 1.1//EN"
 "http://www.w3.org/Graphics/SVG/1.1/DTD/svg11.dtd">
<!-- Generated by graphviz version 2.38.0 (20140413.2041)
 -->
<!-- Title: /home/travis/build/hypro/hypro/src/hypro/util/linearOptimization/smtrat/adaptions_smtrat.h Pages: 1 -->
<svg width="735pt" height="173pt"
 viewBox="0.00 0.00 735.00 173.00" xmlns="http://www.w3.org/2000/svg" xmlns:xlink="http://www.w3.org/1999/xlink">
<g id="graph0" class="graph" transform="scale(1 1) rotate(0) translate(4 169)">
<title>/home/travis/build/hypro/hypro/src/hypro/util/linearOptimization/smtrat/adaptions_smtrat.h</title>
<polygon fill="white" stroke="none" points="-4,4 -4,-169 731,-169 731,4 -4,4"/>
<!-- Node1 -->
<g id="node1" class="node"><title>Node1</title>
<polygon fill="#bfbfbf" stroke="black" points="258,-112.5 258,-164.5 407,-164.5 407,-112.5 258,-112.5"/>
<text text-anchor="start" x="266" y="-152.5" font-family="Helvetica,sans-Serif" font-size="10.00">/home/travis/build</text>
<text text-anchor="start" x="266" y="-141.5" font-family="Helvetica,sans-Serif" font-size="10.00">/hypro/hypro/src/hypro</text>
<text text-anchor="start" x="266" y="-130.5" font-family="Helvetica,sans-Serif" font-size="10.00">/util/linearOptimization</text>
<text text-anchor="middle" x="332.5" y="-119.5" font-family="Helvetica,sans-Serif" font-size="10.00">/smtrat/adaptions_smtrat.h</text>
</g>
<!-- Node1&#45;&gt;Node1 -->
<g id="edge16" class="edge"><title>Node1&#45;&gt;Node1</title>
<path fill="none" stroke="midnightblue" d="M407.264,-150.615C417.878,-148.655 425,-144.617 425,-138.5 425,-134.581 422.077,-131.516 417.186,-129.303"/>
<polygon fill="midnightblue" stroke="midnightblue" points="417.846,-125.849 407.264,-126.385 415.87,-132.565 417.846,-125.849"/>
</g>
<!-- Node2 -->
<g id="node2" class="node"><title>Node2</title>
<g id="a_node2"><a xlink:href="VariablePool_8h.html" target="_top" xlink:title="../../VariablePool.h">
<polygon fill="white" stroke="black" points="281.5,-56.5 281.5,-75.5 383.5,-75.5 383.5,-56.5 281.5,-56.5"/>
<text text-anchor="middle" x="332.5" y="-63.5" font-family="Helvetica,sans-Serif" font-size="10.00">../../VariablePool.h</text>
</a>
</g>
</g>
<!-- Node1&#45;&gt;Node2 -->
<g id="edge1" class="edge"><title>Node1&#45;&gt;Node2</title>
<path fill="none" stroke="midnightblue" d="M332.5,-112.446C332.5,-103.73 332.5,-94.1045 332.5,-85.9641"/>
<polygon fill="midnightblue" stroke="midnightblue" points="336,-85.6954 332.5,-75.6955 329,-85.6955 336,-85.6954"/>
</g>
<!-- Node11 -->
<g id="node11" class="node"><title>Node11</title>
<g id="a_node11"><a xlink:href="SimplexSolver_8h.html" target="_top" xlink:title="SimplexSolver.h">
<polygon fill="white" stroke="black" points="30,-56.5 30,-75.5 123,-75.5 123,-56.5 30,-56.5"/>
<text text-anchor="middle" x="76.5" y="-63.5" font-family="Helvetica,sans-Serif" font-size="10.00">SimplexSolver.h</text>
</a>
</g>
</g>
<!-- Node1&#45;&gt;Node11 -->
<g id="edge10" class="edge"><title>Node1&#45;&gt;Node11</title>
<path fill="none" stroke="midnightblue" d="M257.766,-116.919C212.035,-104.325 155.264,-88.6909 117.566,-78.3092"/>
<polygon fill="midnightblue" stroke="midnightblue" points="118.035,-74.808 107.464,-75.5272 116.176,-81.5568 118.035,-74.808"/>
</g>
<!-- Node12 -->
<g id="node12" class="node"><title>Node12</title>
<g id="a_node12"><a xlink:href="convenience_8h.html" target="_top" xlink:title="convenience.h">
<polygon fill="white" stroke="black" points="165.5,-56.5 165.5,-75.5 251.5,-75.5 251.5,-56.5 165.5,-56.5"/>
<text text-anchor="middle" x="208.5" y="-63.5" font-family="Helvetica,sans-Serif" font-size="10.00">convenience.h</text>
</a>
</g>
</g>
<!-- Node1&#45;&gt;Node12 -->
<g id="edge12" class="edge"><title>Node1&#45;&gt;Node12</title>
<path fill="none" stroke="midnightblue" d="M288.433,-112.446C269.64,-101.761 248.442,-89.709 232.6,-80.7021"/>
<polygon fill="midnightblue" stroke="midnightblue" points="233.921,-77.4269 223.498,-75.527 230.461,-83.5121 233.921,-77.4269"/>
</g>
<!-- Node13 -->
<g id="node13" class="node"><title>Node13</title>
<g id="a_node13"><a xlink:href="smtrat_2helper__methods_8h.html" target="_top" xlink:title="helper_methods.h">
<polygon fill="white" stroke="black" points="401.5,-56.5 401.5,-75.5 505.5,-75.5 505.5,-56.5 401.5,-56.5"/>
<text text-anchor="middle" x="453.5" y="-63.5" font-family="Helvetica,sans-Serif" font-size="10.00">helper_methods.h</text>
</a>
</g>
</g>
<!-- Node1&#45;&gt;Node13 -->
<g id="edge14" class="edge"><title>Node1&#45;&gt;Node13</title>
<path fill="none" stroke="midnightblue" d="M375.501,-112.446C393.839,-101.761 414.524,-89.709 429.983,-80.7021"/>
<polygon fill="midnightblue" stroke="midnightblue" points="431.987,-83.5854 438.865,-75.527 428.463,-77.5372 431.987,-83.5854"/>
</g>
<!-- Node14 -->
<g id="node14" class="node"><title>Node14</title>
<polygon fill="white" stroke="#bfbfbf" points="523.5,-56.5 523.5,-75.5 643.5,-75.5 643.5,-56.5 523.5,-56.5"/>
<text text-anchor="middle" x="583.5" y="-63.5" font-family="Helvetica,sans-Serif" font-size="10.00">adaptions_smtrat.tpp</text>
</g>
<!-- Node1&#45;&gt;Node14 -->
<g id="edge15" class="edge"><title>Node1&#45;&gt;Node14</title>
<path fill="none" stroke="midnightblue" d="M407.129,-116.539C451.775,-103.999 506.76,-88.5544 543.35,-78.2771"/>
<polygon fill="midnightblue" stroke="midnightblue" points="544.478,-81.5958 553.159,-75.522 542.585,-74.8566 544.478,-81.5958"/>
</g>
<!-- Node3 -->
<g id="node3" class="node"><title>Node3</title>
<g id="a_node3"><a xlink:href="flags_8h.html" target="_top" xlink:title="../flags.h">
<polygon fill="white" stroke="black" points="0,-0.5 0,-19.5 57,-19.5 57,-0.5 0,-0.5"/>
<text text-anchor="middle" x="28.5" y="-7.5" font-family="Helvetica,sans-Serif" font-size="10.00">../flags.h</text>
</a>
</g>
</g>
<!-- Node2&#45;&gt;Node3 -->
<g id="edge2" class="edge"><title>Node2&#45;&gt;Node3</title>
<path fill="none" stroke="midnightblue" d="M281.324,-57.3533C229.727,-49.4169 147.59,-36.1656 66.9185,-19.9708"/>
<polygon fill="midnightblue" stroke="midnightblue" points="67.5856,-16.535 57.0899,-17.9814 66.1968,-23.3958 67.5856,-16.535"/>
</g>
<!-- Node4 -->
<g id="node4" class="node"><title>Node4</title>
<polygon fill="white" stroke="#bfbfbf" points="75.5,-0.5 75.5,-19.5 137.5,-19.5 137.5,-0.5 75.5,-0.5"/>
<text text-anchor="middle" x="106.5" y="-7.5" font-family="Helvetica,sans-Serif" font-size="10.00">algorithm</text>
</g>
<!-- Node2&#45;&gt;Node4 -->
<g id="edge3" class="edge"><title>Node2&#45;&gt;Node4</title>
<path fill="none" stroke="midnightblue" d="M296.69,-56.4435C256.13,-46.7522 190.155,-30.9883 147.548,-20.8078"/>
<polygon fill="midnightblue" stroke="midnightblue" points="148.316,-17.3929 137.776,-18.473 146.689,-24.2012 148.316,-17.3929"/>
</g>
<!-- Node5 -->
<g id="node5" class="node"><title>Node5</title>
<polygon fill="white" stroke="#bfbfbf" points="155.5,-0.5 155.5,-19.5 263.5,-19.5 263.5,-0.5 155.5,-0.5"/>
<text text-anchor="middle" x="209.5" y="-7.5" font-family="Helvetica,sans-Serif" font-size="10.00">carl/core/Variable.h</text>
</g>
<!-- Node2&#45;&gt;Node5 -->
<g id="edge4" class="edge"><title>Node2&#45;&gt;Node5</title>
<path fill="none" stroke="midnightblue" d="M313.01,-56.4435C292.858,-47.5961 261.177,-33.6875 238.169,-23.5865"/>
<polygon fill="midnightblue" stroke="midnightblue" points="239.462,-20.3316 228.899,-19.5164 236.648,-26.7411 239.462,-20.3316"/>
</g>
<!-- Node6 -->
<g id="node6" class="node"><title>Node6</title>
<polygon fill="white" stroke="#bfbfbf" points="281.5,-0.5 281.5,-19.5 409.5,-19.5 409.5,-0.5 281.5,-0.5"/>
<text text-anchor="middle" x="345.5" y="-7.5" font-family="Helvetica,sans-Serif" font-size="10.00">carl/core/VariablePool.h</text>
</g>
<!-- Node2&#45;&gt;Node6 -->
<g id="edge5" class="edge"><title>Node2&#45;&gt;Node6</title>
<path fill="none" stroke="midnightblue" d="M334.647,-56.083C336.369,-48.9272 338.847,-38.6353 341,-29.6911"/>
<polygon fill="midnightblue" stroke="midnightblue" points="344.455,-30.2925 343.393,-19.7511 337.65,-28.6541 344.455,-30.2925"/>
</g>
<!-- Node7 -->
<g id="node7" class="node"><title>Node7</title>
<polygon fill="white" stroke="#bfbfbf" points="427.5,-0.5 427.5,-19.5 535.5,-19.5 535.5,-0.5 427.5,-0.5"/>
<text text-anchor="middle" x="481.5" y="-7.5" font-family="Helvetica,sans-Serif" font-size="10.00">carl/util/Singleton.h</text>
</g>
<!-- Node2&#45;&gt;Node7 -->
<g id="edge6" class="edge"><title>Node2&#45;&gt;Node7</title>
<path fill="none" stroke="midnightblue" d="M356.109,-56.4435C380.958,-47.4381 420.274,-33.1891 448.254,-23.049"/>
<polygon fill="midnightblue" stroke="midnightblue" points="449.792,-26.2144 458.001,-19.5164 447.407,-19.6332 449.792,-26.2144"/>
</g>
<!-- Node8 -->
<g id="node8" class="node"><title>Node8</title>
<polygon fill="white" stroke="#bfbfbf" points="553.5,-0.5 553.5,-19.5 605.5,-19.5 605.5,-0.5 553.5,-0.5"/>
<text text-anchor="middle" x="579.5" y="-7.5" font-family="Helvetica,sans-Serif" font-size="10.00">cassert</text>
</g>
<!-- Node2&#45;&gt;Node8 -->
<g id="edge7" class="edge"><title>Node2&#45;&gt;Node8</title>
<path fill="none" stroke="midnightblue" d="M375.255,-56.4808C416.061,-48.2255 479.5,-35.07 543.327,-20.2044"/>
<polygon fill="midnightblue" stroke="midnightblue" points="544.218,-23.5905 553.156,-17.902 542.622,-16.775 544.218,-23.5905"/>
</g>
<!-- Node9 -->
<g id="node9" class="node"><title>Node9</title>
<polygon fill="white" stroke="#bfbfbf" points="623.5,-0.5 623.5,-19.5 661.5,-19.5 661.5,-0.5 623.5,-0.5"/>
<text text-anchor="middle" x="642.5" y="-7.5" font-family="Helvetica,sans-Serif" font-size="10.00">map</text>
</g>
<!-- Node2&#45;&gt;Node9 -->
<g id="edge8" class="edge"><title>Node2&#45;&gt;Node9</title>
<path fill="none" stroke="midnightblue" d="M383.758,-57.2552C452.606,-46.7919 570.5,-28.6437 613.49,-19.779"/>
<polygon fill="midnightblue" stroke="midnightblue" points="614.329,-23.1777 623.33,-17.5879 612.808,-16.3451 614.329,-23.1777"/>
</g>
<!-- Node10 -->
<g id="node10" class="node"><title>Node10</title>
<polygon fill="white" stroke="#bfbfbf" points="680,-0.5 680,-19.5 727,-19.5 727,-0.5 680,-0.5"/>
<text text-anchor="middle" x="703.5" y="-7.5" font-family="Helvetica,sans-Serif" font-size="10.00">vector</text>
</g>
<!-- Node2&#45;&gt;Node10 -->
<g id="edge9" class="edge"><title>Node2&#45;&gt;Node10</title>
<path fill="none" stroke="midnightblue" d="M383.553,-57.2707C386.579,-56.8347 389.579,-56.4082 392.5,-56 512.756,-39.1962 546.629,-44.1741 669.974,-19.8445"/>
<polygon fill="midnightblue" stroke="midnightblue" points="670.679,-23.273 679.8,-17.8825 669.308,-16.4086 670.679,-23.273"/>
</g>
<!-- Node11&#45;&gt;Node3 -->
<g id="edge11" class="edge"><title>Node11&#45;&gt;Node3</title>
<path fill="none" stroke="midnightblue" d="M68.5738,-56.083C61.6539,-48.2982 51.4346,-36.8015 43.048,-27.3665"/>
<polygon fill="midnightblue" stroke="midnightblue" points="45.5383,-24.8999 36.2787,-19.7511 40.3065,-29.5505 45.5383,-24.8999"/>
</g>
<!-- Node12&#45;&gt;Node3 -->
<g id="edge13" class="edge"><title>Node12&#45;&gt;Node3</title>
<path fill="none" stroke="midnightblue" d="M179.978,-56.4435C149.434,-47.2801 100.792,-32.6876 66.8973,-22.5192"/>
<polygon fill="midnightblue" stroke="midnightblue" points="67.4721,-19.0376 56.8881,-19.5164 65.4606,-25.7424 67.4721,-19.0376"/>
</g>
</g>
</svg>
