<?xml version="1.0" encoding="UTF-8" standalone="no"?>
<!DOCTYPE svg PUBLIC "-//W3C//DTD SVG 1.1//EN"
 "http://www.w3.org/Graphics/SVG/1.1/DTD/svg11.dtd">
<!-- Generated by graphviz version 2.38.0 (20140413.2041)
 -->
<!-- Title: /home/travis/build/hypro/hypro/src/hypro/util/linearOptimization/z3/adaptions_z3.h Pages: 1 -->
<svg width="1725pt" height="497pt"
 viewBox="0.00 0.00 1725.00 497.00" xmlns="http://www.w3.org/2000/svg" xmlns:xlink="http://www.w3.org/1999/xlink">
<g id="graph0" class="graph" transform="scale(1 1) rotate(0) translate(4 493)">
<title>/home/travis/build/hypro/hypro/src/hypro/util/linearOptimization/z3/adaptions_z3.h</title>
<polygon fill="white" stroke="none" points="-4,4 -4,-493 1721,-493 1721,4 -4,4"/>
<!-- Node1 -->
<g id="node1" class="node"><title>Node1</title>
<polygon fill="#bfbfbf" stroke="black" points="651,-436.5 651,-488.5 775,-488.5 775,-436.5 651,-436.5"/>
<text text-anchor="start" x="659" y="-476.5" font-family="Helvetica,sans-Serif" font-size="10.00">/home/travis/build</text>
<text text-anchor="start" x="659" y="-465.5" font-family="Helvetica,sans-Serif" font-size="10.00">/hypro/hypro/src/hypro</text>
<text text-anchor="start" x="659" y="-454.5" font-family="Helvetica,sans-Serif" font-size="10.00">/util/linearOptimization</text>
<text text-anchor="middle" x="713" y="-443.5" font-family="Helvetica,sans-Serif" font-size="10.00">/z3/adaptions_z3.h</text>
</g>
<!-- Node1&#45;&gt;Node1 -->
<g id="edge58" class="edge"><title>Node1&#45;&gt;Node1</title>
<path fill="none" stroke="midnightblue" d="M775.055,-475.103C785.655,-473.381 793,-469.18 793,-462.5 793,-458.221 789.986,-454.959 785.032,-452.714"/>
<polygon fill="midnightblue" stroke="midnightblue" points="785.629,-449.246 775.055,-449.897 783.727,-455.983 785.629,-449.246"/>
</g>
<!-- Node2 -->
<g id="node2" class="node"><title>Node2</title>
<g id="a_node2"><a xlink:href="z3_2helper__methods_8h.html" target="_top" xlink:title="helper_methods.h">
<polygon fill="white" stroke="black" points="563,-380.5 563,-399.5 667,-399.5 667,-380.5 563,-380.5"/>
<text text-anchor="middle" x="615" y="-387.5" font-family="Helvetica,sans-Serif" font-size="10.00">helper_methods.h</text>
</a>
</g>
</g>
<!-- Node1&#45;&gt;Node2 -->
<g id="edge1" class="edge"><title>Node1&#45;&gt;Node2</title>
<path fill="none" stroke="midnightblue" d="M678.173,-436.446C663.829,-426.127 647.713,-414.533 635.348,-405.638"/>
<polygon fill="midnightblue" stroke="midnightblue" points="637.249,-402.694 627.087,-399.695 633.161,-408.376 637.249,-402.694"/>
</g>
<!-- Node3 -->
<g id="node3" class="node"><title>Node3</title>
<polygon fill="white" stroke="#bfbfbf" points="278.5,-324.5 278.5,-343.5 315.5,-343.5 315.5,-324.5 278.5,-324.5"/>
<text text-anchor="middle" x="297" y="-331.5" font-family="Helvetica,sans-Serif" font-size="10.00">z3.h</text>
</g>
<!-- Node1&#45;&gt;Node3 -->
<g id="edge56" class="edge"><title>Node1&#45;&gt;Node3</title>
<path fill="none" stroke="midnightblue" d="M650.721,-442.562C559.282,-414.756 392.338,-363.991 325.641,-343.709"/>
<polygon fill="midnightblue" stroke="midnightblue" points="326.41,-340.285 315.824,-340.724 324.373,-346.982 326.41,-340.285"/>
</g>
<!-- Node4 -->
<g id="node4" class="node"><title>Node4</title>
<g id="a_node4"><a xlink:href="z3Convenience_8h.html" target="_top" xlink:title="z3Convenience.h">
<polygon fill="white" stroke="black" points="762,-380.5 762,-399.5 860,-399.5 860,-380.5 762,-380.5"/>
<text text-anchor="middle" x="811" y="-387.5" font-family="Helvetica,sans-Serif" font-size="10.00">z3Convenience.h</text>
</a>
</g>
</g>
<!-- Node1&#45;&gt;Node4 -->
<g id="edge3" class="edge"><title>Node1&#45;&gt;Node4</title>
<path fill="none" stroke="midnightblue" d="M747.827,-436.446C762.171,-426.127 778.287,-414.533 790.652,-405.638"/>
<polygon fill="midnightblue" stroke="midnightblue" points="792.839,-408.376 798.913,-399.695 788.751,-402.694 792.839,-408.376"/>
</g>
<!-- Node41 -->
<g id="node41" class="node"><title>Node41</title>
<polygon fill="white" stroke="#bfbfbf" points="878.5,-380.5 878.5,-399.5 977.5,-399.5 977.5,-380.5 878.5,-380.5"/>
<text text-anchor="middle" x="928" y="-387.5" font-family="Helvetica,sans-Serif" font-size="10.00">adaptions_z3.tpp</text>
</g>
<!-- Node1&#45;&gt;Node41 -->
<g id="edge57" class="edge"><title>Node1&#45;&gt;Node41</title>
<path fill="none" stroke="midnightblue" d="M775.187,-441.108C813.124,-428.669 860.276,-413.207 892.091,-402.775"/>
<polygon fill="midnightblue" stroke="midnightblue" points="893.438,-406.016 901.85,-399.575 891.257,-399.365 893.438,-406.016"/>
</g>
<!-- Node2&#45;&gt;Node3 -->
<g id="edge2" class="edge"><title>Node2&#45;&gt;Node3</title>
<path fill="none" stroke="midnightblue" d="M562.939,-382.525C505.559,-374.984 410.689,-361.319 330,-344 328.548,-343.688 327.066,-343.352 325.572,-342.998"/>
<polygon fill="midnightblue" stroke="midnightblue" points="326.314,-339.576 315.76,-340.499 324.586,-346.359 326.314,-339.576"/>
</g>
<!-- Node5 -->
<g id="node5" class="node"><title>Node5</title>
<g id="a_node5"><a xlink:href="Point_8h.html" target="_top" xlink:title="datastructures/Point.h">
<polygon fill="white" stroke="black" points="788.5,-324.5 788.5,-343.5 911.5,-343.5 911.5,-324.5 788.5,-324.5"/>
<text text-anchor="middle" x="850" y="-331.5" font-family="Helvetica,sans-Serif" font-size="10.00">datastructures/Point.h</text>
</a>
</g>
</g>
<!-- Node4&#45;&gt;Node5 -->
<g id="edge4" class="edge"><title>Node4&#45;&gt;Node5</title>
<path fill="none" stroke="midnightblue" d="M817.44,-380.083C822.949,-372.455 831.031,-361.264 837.765,-351.941"/>
<polygon fill="midnightblue" stroke="midnightblue" points="840.662,-353.907 843.68,-343.751 834.987,-349.809 840.662,-353.907"/>
</g>
<!-- Node7 -->
<g id="node7" class="node"><title>Node7</title>
<g id="a_node7"><a xlink:href="flags_8h.html" target="_top" xlink:title="flags.h">
<polygon fill="white" stroke="black" points="0,-145.5 0,-164.5 48,-164.5 48,-145.5 0,-145.5"/>
<text text-anchor="middle" x="24" y="-152.5" font-family="Helvetica,sans-Serif" font-size="10.00">flags.h</text>
</a>
</g>
</g>
<!-- Node4&#45;&gt;Node7 -->
<g id="edge52" class="edge"><title>Node4&#45;&gt;Node7</title>
<path fill="none" stroke="midnightblue" d="M782.057,-380.431C660.151,-344.339 188.763,-204.78 57.8782,-166.03"/>
<polygon fill="midnightblue" stroke="midnightblue" points="58.5897,-162.591 48.0075,-163.108 56.6025,-169.303 58.5897,-162.591"/>
</g>
<!-- Node39 -->
<g id="node39" class="node"><title>Node39</title>
<polygon fill="white" stroke="#bfbfbf" points="968,-324.5 968,-343.5 1020,-343.5 1020,-324.5 968,-324.5"/>
<text text-anchor="middle" x="994" y="-331.5" font-family="Helvetica,sans-Serif" font-size="10.00">types.h</text>
</g>
<!-- Node4&#45;&gt;Node39 -->
<g id="edge53" class="edge"><title>Node4&#45;&gt;Node39</title>
<path fill="none" stroke="midnightblue" d="M839.997,-380.444C872.01,-370.997 923.576,-355.781 958.113,-345.59"/>
<polygon fill="midnightblue" stroke="midnightblue" points="959.207,-348.916 967.807,-342.729 957.225,-342.202 959.207,-348.916"/>
</g>
<!-- Node40 -->
<g id="node40" class="node"><title>Node40</title>
<g id="a_node40"><a xlink:href="EvaluationResult_8h.html" target="_top" xlink:title="util/linearOptimization\l/EvaluationResult.h">
<polygon fill="white" stroke="black" points="897.5,-257.5 897.5,-287.5 1018.5,-287.5 1018.5,-257.5 897.5,-257.5"/>
<text text-anchor="start" x="905.5" y="-275.5" font-family="Helvetica,sans-Serif" font-size="10.00">util/linearOptimization</text>
<text text-anchor="middle" x="958" y="-264.5" font-family="Helvetica,sans-Serif" font-size="10.00">/EvaluationResult.h</text>
</a>
</g>
</g>
<!-- Node4&#45;&gt;Node40 -->
<g id="edge54" class="edge"><title>Node4&#45;&gt;Node40</title>
<path fill="none" stroke="midnightblue" d="M848.306,-380.449C871.151,-373.672 899.782,-362.239 920,-344 933.925,-331.438 943.725,-312.544 949.881,-297.476"/>
<polygon fill="midnightblue" stroke="midnightblue" points="953.285,-298.372 953.567,-287.781 946.742,-295.885 953.285,-298.372"/>
</g>
<!-- Node6 -->
<g id="node6" class="node"><title>Node6</title>
<g id="a_node6"><a xlink:href="config_8h.html" target="_top" xlink:title="../config.h">
<polygon fill="white" stroke="black" points="739.5,-263 739.5,-282 802.5,-282 802.5,-263 739.5,-263"/>
<text text-anchor="middle" x="771" y="-270" font-family="Helvetica,sans-Serif" font-size="10.00">../config.h</text>
</a>
</g>
</g>
<!-- Node5&#45;&gt;Node6 -->
<g id="edge5" class="edge"><title>Node5&#45;&gt;Node6</title>
<path fill="none" stroke="midnightblue" d="M838.681,-324.475C826.127,-315.02 805.649,-299.596 790.501,-288.187"/>
<polygon fill="midnightblue" stroke="midnightblue" points="792.391,-285.23 782.298,-282.009 788.18,-290.821 792.391,-285.23"/>
</g>
<!-- Node9 -->
<g id="node9" class="node"><title>Node9</title>
<g id="a_node9"><a xlink:href="types_8h.html" target="_top" xlink:title="../types.h">
<polygon fill="white" stroke="black" points="811.5,-145.5 811.5,-164.5 872.5,-164.5 872.5,-145.5 811.5,-145.5"/>
<text text-anchor="middle" x="842" y="-152.5" font-family="Helvetica,sans-Serif" font-size="10.00">../types.h</text>
</a>
</g>
</g>
<!-- Node5&#45;&gt;Node9 -->
<g id="edge39" class="edge"><title>Node5&#45;&gt;Node9</title>
<path fill="none" stroke="midnightblue" d="M849.614,-324.463C848.392,-297.428 844.587,-213.239 842.864,-175.109"/>
<polygon fill="midnightblue" stroke="midnightblue" points="846.349,-174.7 842.401,-164.868 839.356,-175.016 846.349,-174.7"/>
</g>
<!-- Node15 -->
<g id="node15" class="node"><title>Node15</title>
<polygon fill="white" stroke="#bfbfbf" points="1063,-84 1063,-103 1095,-103 1095,-84 1063,-84"/>
<text text-anchor="middle" x="1079" y="-91" font-family="Helvetica,sans-Serif" font-size="10.00">set</text>
</g>
<!-- Node5&#45;&gt;Node15 -->
<g id="edge49" class="edge"><title>Node5&#45;&gt;Node15</title>
<path fill="none" stroke="midnightblue" d="M911.81,-330.518C948.915,-326.065 994.973,-314.943 1027,-288 1079.57,-243.773 1081.98,-152.615 1080.33,-113.265"/>
<polygon fill="midnightblue" stroke="midnightblue" points="1083.82,-113.01 1079.77,-103.221 1076.83,-113.401 1083.82,-113.01"/>
</g>
<!-- Node24 -->
<g id="node24" class="node"><title>Node24</title>
<polygon fill="white" stroke="#bfbfbf" points="1121.5,-145.5 1121.5,-164.5 1168.5,-164.5 1168.5,-145.5 1121.5,-145.5"/>
<text text-anchor="middle" x="1145" y="-152.5" font-family="Helvetica,sans-Serif" font-size="10.00">vector</text>
</g>
<!-- Node5&#45;&gt;Node24 -->
<g id="edge50" class="edge"><title>Node5&#45;&gt;Node24</title>
<path fill="none" stroke="midnightblue" d="M911.733,-325.652C983.086,-316.626 1092.62,-300.922 1107,-288 1139.43,-258.865 1144.92,-204.027 1145.41,-175.053"/>
<polygon fill="midnightblue" stroke="midnightblue" points="1148.91,-174.677 1145.38,-164.685 1141.91,-174.694 1148.91,-174.677"/>
</g>
<!-- Node32 -->
<g id="node32" class="node"><title>Node32</title>
<g id="a_node32"><a xlink:href="VariablePool_8h.html" target="_top" xlink:title="../util/VariablePool.h">
<polygon fill="white" stroke="black" points="1163,-201.5 1163,-220.5 1273,-220.5 1273,-201.5 1163,-201.5"/>
<text text-anchor="middle" x="1218" y="-208.5" font-family="Helvetica,sans-Serif" font-size="10.00">../util/VariablePool.h</text>
</a>
</g>
</g>
<!-- Node5&#45;&gt;Node32 -->
<g id="edge40" class="edge"><title>Node5&#45;&gt;Node32</title>
<path fill="none" stroke="midnightblue" d="M851.619,-324.216C855.11,-307.994 864.97,-273.488 888,-257 909.079,-241.909 1062.57,-225.878 1152.62,-217.629"/>
<polygon fill="midnightblue" stroke="midnightblue" points="1153.09,-221.101 1162.73,-216.711 1152.46,-214.13 1153.09,-221.101"/>
</g>
<!-- Node38 -->
<g id="node38" class="node"><title>Node38</title>
<polygon fill="white" stroke="#bfbfbf" points="1159.5,-263 1159.5,-282 1218.5,-282 1218.5,-263 1159.5,-263"/>
<text text-anchor="middle" x="1189" y="-270" font-family="Helvetica,sans-Serif" font-size="10.00">Point.tpp</text>
</g>
<!-- Node5&#45;&gt;Node38 -->
<g id="edge51" class="edge"><title>Node5&#45;&gt;Node38</title>
<path fill="none" stroke="midnightblue" d="M911.595,-326.64C971.678,-319.725 1065.39,-307.048 1145,-288 1148.47,-287.17 1152.06,-286.193 1155.62,-285.144"/>
<polygon fill="midnightblue" stroke="midnightblue" points="1156.96,-288.39 1165.46,-282.061 1154.87,-281.709 1156.96,-288.39"/>
</g>
<!-- Node6&#45;&gt;Node7 -->
<g id="edge6" class="edge"><title>Node6&#45;&gt;Node7</title>
<path fill="none" stroke="midnightblue" d="M739.15,-270.353C674.264,-267.323 522.615,-256.696 401,-221 380.776,-215.064 378.273,-206.768 358,-201 231.576,-165.03 191.205,-189.531 58.2151,-164.94"/>
<polygon fill="midnightblue" stroke="midnightblue" points="58.533,-161.438 48.054,-163 57.2201,-168.313 58.533,-161.438"/>
</g>
<!-- Node8 -->
<g id="node8" class="node"><title>Node8</title>
<g id="a_node8"><a xlink:href="util_2convenienceOperators_8h.html" target="_top" xlink:title="util/convenienceOperators.h">
<polygon fill="white" stroke="black" points="897.5,-201.5 897.5,-220.5 1048.5,-220.5 1048.5,-201.5 897.5,-201.5"/>
<text text-anchor="middle" x="973" y="-208.5" font-family="Helvetica,sans-Serif" font-size="10.00">util/convenienceOperators.h</text>
</a>
</g>
</g>
<!-- Node6&#45;&gt;Node8 -->
<g id="edge7" class="edge"><title>Node6&#45;&gt;Node8</title>
<path fill="none" stroke="midnightblue" d="M799.942,-262.975C835.267,-252.57 895.131,-234.937 934.365,-223.38"/>
<polygon fill="midnightblue" stroke="midnightblue" points="935.508,-226.692 944.112,-220.509 933.531,-219.977 935.508,-226.692"/>
</g>
<!-- Node25 -->
<g id="node25" class="node"><title>Node25</title>
<g id="a_node25"><a xlink:href="Logger_8h.html" target="_top" xlink:title="util/logging/Logger.h">
<polygon fill="white" stroke="black" points="410.5,-201.5 410.5,-220.5 523.5,-220.5 523.5,-201.5 410.5,-201.5"/>
<text text-anchor="middle" x="467" y="-208.5" font-family="Helvetica,sans-Serif" font-size="10.00">util/logging/Logger.h</text>
</a>
</g>
</g>
<!-- Node6&#45;&gt;Node25 -->
<g id="edge31" class="edge"><title>Node6&#45;&gt;Node25</title>
<path fill="none" stroke="midnightblue" d="M739.327,-265.301C687.433,-255.144 583.742,-234.849 520.35,-222.442"/>
<polygon fill="midnightblue" stroke="midnightblue" points="521.023,-219.007 510.537,-220.521 519.678,-225.877 521.023,-219.007"/>
</g>
<!-- Node8&#45;&gt;Node9 -->
<g id="edge8" class="edge"><title>Node8&#45;&gt;Node9</title>
<path fill="none" stroke="midnightblue" d="M952.243,-201.444C930.684,-192.557 896.737,-178.563 872.206,-168.451"/>
<polygon fill="midnightblue" stroke="midnightblue" points="873.239,-165.092 862.66,-164.516 870.572,-171.563 873.239,-165.092"/>
</g>
<!-- Node14 -->
<g id="node14" class="node"><title>Node14</title>
<polygon fill="white" stroke="#bfbfbf" points="1043,-11.5 1043,-30.5 1089,-30.5 1089,-11.5 1043,-11.5"/>
<text text-anchor="middle" x="1066" y="-18.5" font-family="Helvetica,sans-Serif" font-size="10.00">iosfwd</text>
</g>
<!-- Node8&#45;&gt;Node14 -->
<g id="edge26" class="edge"><title>Node8&#45;&gt;Node14</title>
<path fill="none" stroke="midnightblue" d="M965.214,-201.114C954.84,-188.136 939.001,-163.528 950,-145 967.056,-116.268 992.112,-132.362 1016,-109 1036.39,-89.062 1051.14,-59.052 1059.14,-40.0016"/>
<polygon fill="midnightblue" stroke="midnightblue" points="1062.4,-41.2634 1062.87,-30.6791 1055.9,-38.6589 1062.4,-41.2634"/>
</g>
<!-- Node8&#45;&gt;Node15 -->
<g id="edge28" class="edge"><title>Node8&#45;&gt;Node15</title>
<path fill="none" stroke="midnightblue" d="M966.994,-201.216C958.731,-187.931 946.15,-162.432 958,-145 982.452,-109.03 1009.17,-126.475 1049,-109 1050.57,-108.313 1052.17,-107.591 1053.78,-106.852"/>
<polygon fill="midnightblue" stroke="midnightblue" points="1055.36,-109.979 1062.91,-102.546 1052.37,-103.648 1055.36,-109.979"/>
</g>
<!-- Node22 -->
<g id="node22" class="node"><title>Node22</title>
<polygon fill="white" stroke="#bfbfbf" points="1027,-145.5 1027,-164.5 1065,-164.5 1065,-145.5 1027,-145.5"/>
<text text-anchor="middle" x="1046" y="-152.5" font-family="Helvetica,sans-Serif" font-size="10.00">map</text>
</g>
<!-- Node8&#45;&gt;Node22 -->
<g id="edge27" class="edge"><title>Node8&#45;&gt;Node22</title>
<path fill="none" stroke="midnightblue" d="M984.729,-201.324C995.837,-193.107 1012.74,-180.602 1025.98,-170.807"/>
<polygon fill="midnightblue" stroke="midnightblue" points="1028.1,-173.595 1034.06,-164.834 1023.94,-167.967 1028.1,-173.595"/>
</g>
<!-- Node23 -->
<g id="node23" class="node"><title>Node23</title>
<polygon fill="white" stroke="#bfbfbf" points="967,-145.5 967,-164.5 1009,-164.5 1009,-145.5 967,-145.5"/>
<text text-anchor="middle" x="988" y="-152.5" font-family="Helvetica,sans-Serif" font-size="10.00">utility</text>
</g>
<!-- Node8&#45;&gt;Node23 -->
<g id="edge29" class="edge"><title>Node8&#45;&gt;Node23</title>
<path fill="none" stroke="midnightblue" d="M975.477,-201.083C977.486,-193.849 980.386,-183.409 982.89,-174.397"/>
<polygon fill="midnightblue" stroke="midnightblue" points="986.265,-175.323 985.569,-164.751 979.52,-173.449 986.265,-175.323"/>
</g>
<!-- Node8&#45;&gt;Node24 -->
<g id="edge30" class="edge"><title>Node8&#45;&gt;Node24</title>
<path fill="none" stroke="midnightblue" d="M1000.25,-201.444C1030.43,-191.971 1079.08,-176.696 1111.54,-166.505"/>
<polygon fill="midnightblue" stroke="midnightblue" points="1112.97,-169.723 1121.47,-163.388 1110.88,-163.045 1112.97,-169.723"/>
</g>
<!-- Node10 -->
<g id="node10" class="node"><title>Node10</title>
<polygon fill="white" stroke="#bfbfbf" points="190,-11.5 190,-30.5 324,-30.5 324,-11.5 190,-11.5"/>
<text text-anchor="middle" x="257" y="-18.5" font-family="Helvetica,sans-Serif" font-size="10.00">carl/numbers/numbers.h</text>
</g>
<!-- Node9&#45;&gt;Node10 -->
<g id="edge9" class="edge"><title>Node9&#45;&gt;Node10</title>
<path fill="none" stroke="midnightblue" d="M811.399,-150.242C743.765,-141.828 583.337,-121.257 530,-109 441.144,-88.5812 339.587,-52.8059 289.061,-34.1289"/>
<polygon fill="midnightblue" stroke="midnightblue" points="290.247,-30.8362 279.655,-30.6311 287.808,-37.3972 290.247,-30.8362"/>
</g>
<!-- Node11 -->
<g id="node11" class="node"><title>Node11</title>
<polygon fill="white" stroke="#bfbfbf" points="799,-84 799,-103 885,-103 885,-84 799,-84"/>
<text text-anchor="middle" x="842" y="-91" font-family="Helvetica,sans-Serif" font-size="10.00">carl/util/hash.h</text>
</g>
<!-- Node9&#45;&gt;Node11 -->
<g id="edge10" class="edge"><title>Node9&#45;&gt;Node11</title>
<path fill="none" stroke="midnightblue" d="M842,-145.475C842,-137.08 842,-123.981 842,-113.163"/>
<polygon fill="midnightblue" stroke="midnightblue" points="845.5,-113.009 842,-103.009 838.5,-113.009 845.5,-113.009"/>
</g>
<!-- Node12 -->
<g id="node12" class="node"><title>Node12</title>
<polygon fill="white" stroke="#bfbfbf" points="903,-84 903,-103 1007,-103 1007,-84 903,-84"/>
<text text-anchor="middle" x="955" y="-91" font-family="Helvetica,sans-Serif" font-size="10.00">eigen3/Eigen/Core</text>
</g>
<!-- Node9&#45;&gt;Node12 -->
<g id="edge11" class="edge"><title>Node9&#45;&gt;Node12</title>
<path fill="none" stroke="midnightblue" d="M858.19,-145.475C876.902,-135.622 907.923,-119.288 929.799,-107.77"/>
<polygon fill="midnightblue" stroke="midnightblue" points="931.622,-110.765 938.84,-103.009 928.361,-104.571 931.622,-110.765"/>
</g>
<!-- Node13 -->
<g id="node13" class="node"><title>Node13</title>
<polygon fill="white" stroke="#bfbfbf" points="342,-11.5 342,-30.5 454,-30.5 454,-11.5 342,-11.5"/>
<text text-anchor="middle" x="398" y="-18.5" font-family="Helvetica,sans-Serif" font-size="10.00">eigen3/Eigen/Dense</text>
</g>
<!-- Node9&#45;&gt;Node13 -->
<g id="edge12" class="edge"><title>Node9&#45;&gt;Node13</title>
<path fill="none" stroke="midnightblue" d="M811.43,-149.527C768.242,-142.82 687.141,-128.798 620,-109 548.321,-87.8639 467.338,-53.2736 425.819,-34.7153"/>
<polygon fill="midnightblue" stroke="midnightblue" points="427.175,-31.4874 416.619,-30.5762 424.302,-37.8711 427.175,-31.4874"/>
</g>
<!-- Node9&#45;&gt;Node14 -->
<g id="edge13" class="edge"><title>Node9&#45;&gt;Node14</title>
<path fill="none" stroke="midnightblue" d="M828.446,-145.345C807.215,-130.751 770.464,-100.63 790,-78 825.816,-36.5119 982.562,-60.9248 1034,-42 1038.15,-40.4731 1042.34,-38.3609 1046.25,-36.0783"/>
<polygon fill="midnightblue" stroke="midnightblue" points="1048.21,-38.9776 1054.75,-30.638 1044.44,-33.0823 1048.21,-38.9776"/>
</g>
<!-- Node9&#45;&gt;Node15 -->
<g id="edge14" class="edge"><title>Node9&#45;&gt;Node15</title>
<path fill="none" stroke="midnightblue" d="M872.984,-146.221C920.045,-134.406 1008.71,-112.145 1052.78,-101.084"/>
<polygon fill="midnightblue" stroke="midnightblue" points="1053.87,-104.418 1062.72,-98.5882 1052.16,-97.6286 1053.87,-104.418"/>
</g>
<!-- Node16 -->
<g id="node16" class="node"><title>Node16</title>
<g id="a_node16"><a xlink:href="adaptions__eigen_8h.html" target="_top" xlink:title="util/adaptions_eigen\l/adaptions_eigen.h">
<polygon fill="white" stroke="black" points="629.5,-78.5 629.5,-108.5 742.5,-108.5 742.5,-78.5 629.5,-78.5"/>
<text text-anchor="start" x="637.5" y="-96.5" font-family="Helvetica,sans-Serif" font-size="10.00">util/adaptions_eigen</text>
<text text-anchor="middle" x="686" y="-85.5" font-family="Helvetica,sans-Serif" font-size="10.00">/adaptions_eigen.h</text>
</a>
</g>
</g>
<!-- Node9&#45;&gt;Node16 -->
<g id="edge15" class="edge"><title>Node9&#45;&gt;Node16</title>
<path fill="none" stroke="midnightblue" d="M814.748,-145.475C790.259,-136.852 754.188,-123.264 726.391,-112.285"/>
<polygon fill="midnightblue" stroke="midnightblue" points="727.522,-108.968 716.936,-108.523 724.934,-115.472 727.522,-108.968"/>
</g>
<!-- Node16&#45;&gt;Node6 -->
<g id="edge16" class="edge"><title>Node16&#45;&gt;Node6</title>
<path fill="none" stroke="midnightblue" d="M721.134,-108.696C736.705,-116.893 753.597,-128.831 763,-145 782.659,-178.804 778.88,-226.632 774.73,-252.725"/>
<polygon fill="midnightblue" stroke="midnightblue" points="771.249,-252.306 772.937,-262.766 778.14,-253.536 771.249,-252.306"/>
</g>
<!-- Node16&#45;&gt;Node9 -->
<g id="edge17" class="edge"><title>Node16&#45;&gt;Node9</title>
<path fill="none" stroke="midnightblue" d="M728.596,-108.523C756.203,-118.558 791.221,-131.942 815.068,-141.59"/>
<polygon fill="midnightblue" stroke="midnightblue" points="813.969,-144.922 824.55,-145.475 816.623,-138.445 813.969,-144.922"/>
</g>
<!-- Node16&#45;&gt;Node10 -->
<g id="edge19" class="edge"><title>Node16&#45;&gt;Node10</title>
<path fill="none" stroke="midnightblue" d="M629.411,-86.441C559.405,-78.4787 436.76,-63.0018 333,-42 321.002,-39.5716 308.08,-36.3888 296.354,-33.2787"/>
<polygon fill="midnightblue" stroke="midnightblue" points="296.978,-29.8217 286.41,-30.5851 295.147,-36.5782 296.978,-29.8217"/>
</g>
<!-- Node16&#45;&gt;Node13 -->
<g id="edge20" class="edge"><title>Node16&#45;&gt;Node13</title>
<path fill="none" stroke="midnightblue" d="M629.071,-80.9984C583.609,-71.4938 518.404,-57.1445 462,-42 452.67,-39.495 442.664,-36.5124 433.4,-33.6252"/>
<polygon fill="midnightblue" stroke="midnightblue" points="434.297,-30.2379 423.707,-30.5567 432.184,-36.9115 434.297,-30.2379"/>
</g>
<!-- Node16&#45;&gt;Node14 -->
<g id="edge23" class="edge"><title>Node16&#45;&gt;Node14</title>
<path fill="none" stroke="midnightblue" d="M742.513,-80.5755C747.405,-79.6596 752.284,-78.7869 757,-78 879.453,-57.5661 917.124,-83.8597 1034,-42 1038.16,-40.5089 1042.36,-38.4137 1046.27,-36.1366"/>
<polygon fill="midnightblue" stroke="midnightblue" points="1048.24,-39.0345 1054.77,-30.6919 1044.46,-33.1409 1048.24,-39.0345"/>
</g>
<!-- Node17 -->
<g id="node17" class="node"><title>Node17</title>
<g id="a_node17"><a xlink:href="transformation_8h.html" target="_top" xlink:title="transformation.h">
<polygon fill="white" stroke="black" points="471.5,-11.5 471.5,-30.5 568.5,-30.5 568.5,-11.5 471.5,-11.5"/>
<text text-anchor="middle" x="520" y="-18.5" font-family="Helvetica,sans-Serif" font-size="10.00">transformation.h</text>
</a>
</g>
</g>
<!-- Node16&#45;&gt;Node17 -->
<g id="edge18" class="edge"><title>Node16&#45;&gt;Node17</title>
<path fill="none" stroke="midnightblue" d="M652.806,-78.4027C622.676,-65.6063 578.649,-46.9083 549.669,-34.6004"/>
<polygon fill="midnightblue" stroke="midnightblue" points="550.666,-31.2212 540.093,-30.5336 547.929,-37.6642 550.666,-31.2212"/>
</g>
<!-- Node18 -->
<g id="node18" class="node"><title>Node18</title>
<polygon fill="white" stroke="#bfbfbf" points="587,-11.5 587,-30.5 725,-30.5 725,-11.5 587,-11.5"/>
<text text-anchor="middle" x="656" y="-18.5" font-family="Helvetica,sans-Serif" font-size="10.00">eigen3/Eigen/Eigenvalues</text>
</g>
<!-- Node16&#45;&gt;Node18 -->
<g id="edge21" class="edge"><title>Node16&#45;&gt;Node18</title>
<path fill="none" stroke="midnightblue" d="M679.929,-78.2333C675.268,-67.2793 668.798,-52.0749 663.761,-40.2375"/>
<polygon fill="midnightblue" stroke="midnightblue" points="666.92,-38.7242 659.784,-30.8932 660.479,-41.4652 666.92,-38.7242"/>
</g>
<!-- Node19 -->
<g id="node19" class="node"><title>Node19</title>
<polygon fill="white" stroke="#bfbfbf" points="743.5,-11.5 743.5,-30.5 806.5,-30.5 806.5,-11.5 743.5,-11.5"/>
<text text-anchor="middle" x="775" y="-18.5" font-family="Helvetica,sans-Serif" font-size="10.00">functional</text>
</g>
<!-- Node16&#45;&gt;Node19 -->
<g id="edge22" class="edge"><title>Node16&#45;&gt;Node19</title>
<path fill="none" stroke="midnightblue" d="M704.01,-78.2333C718.956,-66.3941 740.17,-49.5899 755.511,-37.4378"/>
<polygon fill="midnightblue" stroke="midnightblue" points="758.108,-39.846 763.773,-30.8932 753.761,-34.3589 758.108,-39.846"/>
</g>
<!-- Node20 -->
<g id="node20" class="node"><title>Node20</title>
<polygon fill="white" stroke="#bfbfbf" points="825,-11.5 825,-30.5 867,-30.5 867,-11.5 825,-11.5"/>
<text text-anchor="middle" x="846" y="-18.5" font-family="Helvetica,sans-Serif" font-size="10.00">limits</text>
</g>
<!-- Node16&#45;&gt;Node20 -->
<g id="edge24" class="edge"><title>Node16&#45;&gt;Node20</title>
<path fill="none" stroke="midnightblue" d="M728.172,-78.4047C753.831,-69.2418 786.953,-56.3545 815,-42 818.453,-40.2328 822.007,-38.1823 825.421,-36.0816"/>
<polygon fill="midnightblue" stroke="midnightblue" points="827.465,-38.9286 833.967,-30.5635 823.667,-33.0481 827.465,-38.9286"/>
</g>
<!-- Node21 -->
<g id="node21" class="node"><title>Node21</title>
<polygon fill="white" stroke="#bfbfbf" points="885,-0.5 885,-41.5 1025,-41.5 1025,-0.5 885,-0.5"/>
<text text-anchor="start" x="893" y="-29.5" font-family="Helvetica,sans-Serif" font-size="10.00">eigen3/unsupported</text>
<text text-anchor="start" x="893" y="-18.5" font-family="Helvetica,sans-Serif" font-size="10.00">/Eigen/src/MatrixFunctions</text>
<text text-anchor="middle" x="955" y="-7.5" font-family="Helvetica,sans-Serif" font-size="10.00">/MatrixExponential.h</text>
</g>
<!-- Node16&#45;&gt;Node21 -->
<g id="edge25" class="edge"><title>Node16&#45;&gt;Node21</title>
<path fill="none" stroke="midnightblue" d="M739.467,-78.4872C778.213,-68.3327 831.261,-54.4296 875.033,-42.9578"/>
<polygon fill="midnightblue" stroke="midnightblue" points="876.009,-46.3203 884.795,-40.3993 874.235,-39.5489 876.009,-46.3203"/>
</g>
<!-- Node25&#45;&gt;Node7 -->
<g id="edge32" class="edge"><title>Node25&#45;&gt;Node7</title>
<path fill="none" stroke="midnightblue" d="M410.431,-202.724C405.552,-202.129 400.69,-201.546 396,-201 248.737,-183.849 207.653,-192.625 58.0595,-164.916"/>
<polygon fill="midnightblue" stroke="midnightblue" points="58.5208,-161.441 48.0468,-163.037 57.2299,-168.321 58.5208,-161.441"/>
</g>
<!-- Node26 -->
<g id="node26" class="node"><title>Node26</title>
<polygon fill="white" stroke="#bfbfbf" points="66,-145.5 66,-164.5 220,-164.5 220,-145.5 66,-145.5"/>
<text text-anchor="middle" x="143" y="-152.5" font-family="Helvetica,sans-Serif" font-size="10.00">carl/io/streamingOperators.h</text>
</g>
<!-- Node25&#45;&gt;Node26 -->
<g id="edge33" class="edge"><title>Node25&#45;&gt;Node26</title>
<path fill="none" stroke="midnightblue" d="M415.661,-201.444C358.192,-191.865 265.133,-176.356 204,-166.167"/>
<polygon fill="midnightblue" stroke="midnightblue" points="204.538,-162.708 194.099,-164.516 203.387,-169.613 204.538,-162.708"/>
</g>
<!-- Node27 -->
<g id="node27" class="node"><title>Node27</title>
<polygon fill="white" stroke="#bfbfbf" points="238.5,-145.5 238.5,-164.5 297.5,-164.5 297.5,-145.5 238.5,-145.5"/>
<text text-anchor="middle" x="268" y="-152.5" font-family="Helvetica,sans-Serif" font-size="10.00">iostream</text>
</g>
<!-- Node25&#45;&gt;Node27 -->
<g id="edge34" class="edge"><title>Node25&#45;&gt;Node27</title>
<path fill="none" stroke="midnightblue" d="M435.468,-201.444C400.907,-192.065 345.389,-177 307.841,-166.811"/>
<polygon fill="midnightblue" stroke="midnightblue" points="308.327,-163.317 297.76,-164.075 306.494,-170.072 308.327,-163.317"/>
</g>
<!-- Node28 -->
<g id="node28" class="node"><title>Node28</title>
<polygon fill="white" stroke="#bfbfbf" points="316,-145.5 316,-164.5 372,-164.5 372,-145.5 316,-145.5"/>
<text text-anchor="middle" x="344" y="-152.5" font-family="Helvetica,sans-Serif" font-size="10.00">sstream</text>
</g>
<!-- Node25&#45;&gt;Node28 -->
<g id="edge35" class="edge"><title>Node25&#45;&gt;Node28</title>
<path fill="none" stroke="midnightblue" d="M447.51,-201.444C427.358,-192.596 395.677,-178.687 372.669,-168.586"/>
<polygon fill="midnightblue" stroke="midnightblue" points="373.962,-165.332 363.399,-164.516 371.148,-171.741 373.962,-165.332"/>
</g>
<!-- Node29 -->
<g id="node29" class="node"><title>Node29</title>
<polygon fill="white" stroke="#bfbfbf" points="390,-145.5 390,-164.5 438,-164.5 438,-145.5 390,-145.5"/>
<text text-anchor="middle" x="414" y="-152.5" font-family="Helvetica,sans-Serif" font-size="10.00">thread</text>
</g>
<!-- Node25&#45;&gt;Node29 -->
<g id="edge36" class="edge"><title>Node25&#45;&gt;Node29</title>
<path fill="none" stroke="midnightblue" d="M458.248,-201.083C450.53,-193.22 439.095,-181.569 429.783,-172.081"/>
<polygon fill="midnightblue" stroke="midnightblue" points="432.092,-169.436 422.589,-164.751 427.096,-174.34 432.092,-169.436"/>
</g>
<!-- Node30 -->
<g id="node30" class="node"><title>Node30</title>
<polygon fill="white" stroke="#bfbfbf" points="456.5,-145.5 456.5,-164.5 581.5,-164.5 581.5,-145.5 456.5,-145.5"/>
<text text-anchor="middle" x="519" y="-152.5" font-family="Helvetica,sans-Serif" font-size="10.00">carl/core/carlLogging.h</text>
</g>
<!-- Node25&#45;&gt;Node30 -->
<g id="edge37" class="edge"><title>Node25&#45;&gt;Node30</title>
<path fill="none" stroke="midnightblue" d="M475.587,-201.083C483.159,-193.22 494.378,-181.569 503.514,-172.081"/>
<polygon fill="midnightblue" stroke="midnightblue" points="506.158,-174.382 510.573,-164.751 501.115,-169.527 506.158,-174.382"/>
</g>
<!-- Node31 -->
<g id="node31" class="node"><title>Node31</title>
<polygon fill="white" stroke="#bfbfbf" points="599.5,-145.5 599.5,-164.5 754.5,-164.5 754.5,-145.5 599.5,-145.5"/>
<text text-anchor="middle" x="677" y="-152.5" font-family="Helvetica,sans-Serif" font-size="10.00">carl/core/carlLoggingHelper.h</text>
</g>
<!-- Node25&#45;&gt;Node31 -->
<g id="edge38" class="edge"><title>Node25&#45;&gt;Node31</title>
<path fill="none" stroke="midnightblue" d="M500.275,-201.444C536.448,-192.142 594.377,-177.246 633.981,-167.062"/>
<polygon fill="midnightblue" stroke="midnightblue" points="635.067,-170.397 643.881,-164.516 633.324,-163.617 635.067,-170.397"/>
</g>
<!-- Node32&#45;&gt;Node7 -->
<g id="edge41" class="edge"><title>Node32&#45;&gt;Node7</title>
<path fill="none" stroke="midnightblue" d="M1162.87,-206.647C1131.79,-204.825 1092.24,-202.619 1057,-201 616.099,-180.742 498.44,-231.178 58.1428,-164.775"/>
<polygon fill="midnightblue" stroke="midnightblue" points="58.4255,-161.278 48.013,-163.236 57.3735,-168.199 58.4255,-161.278"/>
</g>
<!-- Node32&#45;&gt;Node22 -->
<g id="edge47" class="edge"><title>Node32&#45;&gt;Node22</title>
<path fill="none" stroke="midnightblue" d="M1190.75,-201.444C1159.12,-191.515 1107.19,-175.211 1074.89,-165.069"/>
<polygon fill="midnightblue" stroke="midnightblue" points="1075.73,-161.665 1065.14,-162.008 1073.63,-168.343 1075.73,-161.665"/>
</g>
<!-- Node32&#45;&gt;Node24 -->
<g id="edge48" class="edge"><title>Node32&#45;&gt;Node24</title>
<path fill="none" stroke="midnightblue" d="M1206.27,-201.324C1195.16,-193.107 1178.26,-180.602 1165.02,-170.807"/>
<polygon fill="midnightblue" stroke="midnightblue" points="1167.06,-167.967 1156.94,-164.834 1162.9,-173.595 1167.06,-167.967"/>
</g>
<!-- Node33 -->
<g id="node33" class="node"><title>Node33</title>
<polygon fill="white" stroke="#bfbfbf" points="1187,-145.5 1187,-164.5 1249,-164.5 1249,-145.5 1187,-145.5"/>
<text text-anchor="middle" x="1218" y="-152.5" font-family="Helvetica,sans-Serif" font-size="10.00">algorithm</text>
</g>
<!-- Node32&#45;&gt;Node33 -->
<g id="edge42" class="edge"><title>Node32&#45;&gt;Node33</title>
<path fill="none" stroke="midnightblue" d="M1218,-201.083C1218,-194.006 1218,-183.861 1218,-174.986"/>
<polygon fill="midnightblue" stroke="midnightblue" points="1221.5,-174.751 1218,-164.751 1214.5,-174.751 1221.5,-174.751"/>
</g>
<!-- Node34 -->
<g id="node34" class="node"><title>Node34</title>
<polygon fill="white" stroke="#bfbfbf" points="1267,-145.5 1267,-164.5 1375,-164.5 1375,-145.5 1267,-145.5"/>
<text text-anchor="middle" x="1321" y="-152.5" font-family="Helvetica,sans-Serif" font-size="10.00">carl/core/Variable.h</text>
</g>
<!-- Node32&#45;&gt;Node34 -->
<g id="edge43" class="edge"><title>Node32&#45;&gt;Node34</title>
<path fill="none" stroke="midnightblue" d="M1234.55,-201.324C1250.99,-192.703 1276.43,-179.364 1295.47,-169.386"/>
<polygon fill="midnightblue" stroke="midnightblue" points="1297.26,-172.398 1304.49,-164.655 1294.01,-166.198 1297.26,-172.398"/>
</g>
<!-- Node35 -->
<g id="node35" class="node"><title>Node35</title>
<polygon fill="white" stroke="#bfbfbf" points="1393,-145.5 1393,-164.5 1521,-164.5 1521,-145.5 1393,-145.5"/>
<text text-anchor="middle" x="1457" y="-152.5" font-family="Helvetica,sans-Serif" font-size="10.00">carl/core/VariablePool.h</text>
</g>
<!-- Node32&#45;&gt;Node35 -->
<g id="edge44" class="edge"><title>Node32&#45;&gt;Node35</title>
<path fill="none" stroke="midnightblue" d="M1255.87,-201.444C1297.48,-192.043 1364.37,-176.929 1409.47,-166.739"/>
<polygon fill="midnightblue" stroke="midnightblue" points="1410.32,-170.134 1419.31,-164.516 1408.78,-163.306 1410.32,-170.134"/>
</g>
<!-- Node36 -->
<g id="node36" class="node"><title>Node36</title>
<polygon fill="white" stroke="#bfbfbf" points="1539,-145.5 1539,-164.5 1647,-164.5 1647,-145.5 1539,-145.5"/>
<text text-anchor="middle" x="1593" y="-152.5" font-family="Helvetica,sans-Serif" font-size="10.00">carl/util/Singleton.h</text>
</g>
<!-- Node32&#45;&gt;Node36 -->
<g id="edge45" class="edge"><title>Node32&#45;&gt;Node36</title>
<path fill="none" stroke="midnightblue" d="M1273.33,-202.032C1341.39,-192.231 1456.73,-175.623 1528.67,-165.263"/>
<polygon fill="midnightblue" stroke="midnightblue" points="1529.56,-168.671 1538.96,-163.781 1528.57,-161.742 1529.56,-168.671"/>
</g>
<!-- Node37 -->
<g id="node37" class="node"><title>Node37</title>
<polygon fill="white" stroke="#bfbfbf" points="1665,-145.5 1665,-164.5 1717,-164.5 1717,-145.5 1665,-145.5"/>
<text text-anchor="middle" x="1691" y="-152.5" font-family="Helvetica,sans-Serif" font-size="10.00">cassert</text>
</g>
<!-- Node32&#45;&gt;Node37 -->
<g id="edge46" class="edge"><title>Node32&#45;&gt;Node37</title>
<path fill="none" stroke="midnightblue" d="M1273.34,-206.972C1354.84,-201.928 1512.03,-189.978 1654.49,-165.026"/>
<polygon fill="midnightblue" stroke="midnightblue" points="1655.49,-168.403 1664.72,-163.207 1654.26,-161.511 1655.49,-168.403"/>
</g>
<!-- Node40&#45;&gt;Node9 -->
<g id="edge55" class="edge"><title>Node40&#45;&gt;Node9</title>
<path fill="none" stroke="midnightblue" d="M934.44,-257.323C920.099,-248.038 901.923,-235.05 888,-221 873.749,-206.618 860.748,-187.419 852.232,-173.62"/>
<polygon fill="midnightblue" stroke="midnightblue" points="855.013,-171.451 846.869,-164.674 849.009,-175.05 855.013,-171.451"/>
</g>
</g>
</svg>
