<?xml version="1.0" encoding="UTF-8" standalone="no"?>
<!DOCTYPE svg PUBLIC "-//W3C//DTD SVG 1.1//EN"
 "http://www.w3.org/Graphics/SVG/1.1/DTD/svg11.dtd">
<!-- Generated by graphviz version 2.38.0 (20140413.2041)
 -->
<!-- Title: /home/travis/build/hypro/hypro/src/hypro/util/linearOptimization/glpk/adaptions_glpk_double.cpp Pages: 1 -->
<svg width="1731pt" height="497pt"
 viewBox="0.00 0.00 1730.92 497.00" xmlns="http://www.w3.org/2000/svg" xmlns:xlink="http://www.w3.org/1999/xlink">
<g id="graph0" class="graph" transform="scale(1 1) rotate(0) translate(4 493)">
<title>/home/travis/build/hypro/hypro/src/hypro/util/linearOptimization/glpk/adaptions_glpk_double.cpp</title>
<polygon fill="white" stroke="none" points="-4,4 -4,-493 1726.92,-493 1726.92,4 -4,4"/>
<!-- Node1 -->
<g id="node1" class="node"><title>Node1</title>
<polygon fill="#bfbfbf" stroke="black" points="734.5,-436.5 734.5,-488.5 906.5,-488.5 906.5,-436.5 734.5,-436.5"/>
<text text-anchor="start" x="742.5" y="-476.5" font-family="Helvetica,sans-Serif" font-size="10.00">/home/travis/build</text>
<text text-anchor="start" x="742.5" y="-465.5" font-family="Helvetica,sans-Serif" font-size="10.00">/hypro/hypro/src/hypro</text>
<text text-anchor="start" x="742.5" y="-454.5" font-family="Helvetica,sans-Serif" font-size="10.00">/util/linearOptimization</text>
<text text-anchor="middle" x="820.5" y="-443.5" font-family="Helvetica,sans-Serif" font-size="10.00">/glpk/adaptions_glpk_double.cpp</text>
</g>
<!-- Node2 -->
<g id="node2" class="node"><title>Node2</title>
<g id="a_node2"><a xlink:href="adaptions__glpk_8h.html" target="_top" xlink:title="adaptions_glpk.h">
<polygon fill="white" stroke="black" points="771.5,-380.5 771.5,-399.5 869.5,-399.5 869.5,-380.5 771.5,-380.5"/>
<text text-anchor="middle" x="820.5" y="-387.5" font-family="Helvetica,sans-Serif" font-size="10.00">adaptions_glpk.h</text>
</a>
</g>
</g>
<!-- Node1&#45;&gt;Node2 -->
<g id="edge1" class="edge"><title>Node1&#45;&gt;Node2</title>
<path fill="none" stroke="midnightblue" d="M820.5,-436.446C820.5,-427.73 820.5,-418.104 820.5,-409.964"/>
<polygon fill="midnightblue" stroke="midnightblue" points="824,-409.695 820.5,-399.695 817,-409.696 824,-409.695"/>
</g>
<!-- Node3 -->
<g id="node3" class="node"><title>Node3</title>
<g id="a_node3"><a xlink:href="config_8h.html" target="_top" xlink:title="../../../config.h">
<polygon fill="white" stroke="black" points="731,-257.5 731,-276.5 812,-276.5 812,-257.5 731,-257.5"/>
<text text-anchor="middle" x="771.5" y="-264.5" font-family="Helvetica,sans-Serif" font-size="10.00">../../../config.h</text>
</a>
</g>
</g>
<!-- Node2&#45;&gt;Node3 -->
<g id="edge2" class="edge"><title>Node2&#45;&gt;Node3</title>
<path fill="none" stroke="midnightblue" d="M816.976,-380.298C809.03,-360.676 789.577,-312.638 778.868,-286.193"/>
<polygon fill="midnightblue" stroke="midnightblue" points="781.99,-284.578 774.992,-276.623 775.501,-287.206 781.99,-284.578"/>
</g>
<!-- Node29 -->
<g id="node29" class="node"><title>Node29</title>
<g id="a_node29"><a xlink:href="Point_8h.html" target="_top" xlink:title="../../../datastructures\l/Point.h">
<polygon fill="white" stroke="black" points="897.5,-313.5 897.5,-343.5 1011.5,-343.5 1011.5,-313.5 897.5,-313.5"/>
<text text-anchor="start" x="905.5" y="-331.5" font-family="Helvetica,sans-Serif" font-size="10.00">../../../datastructures</text>
<text text-anchor="middle" x="954.5" y="-320.5" font-family="Helvetica,sans-Serif" font-size="10.00">/Point.h</text>
</a>
</g>
</g>
<!-- Node2&#45;&gt;Node29 -->
<g id="edge36" class="edge"><title>Node2&#45;&gt;Node29</title>
<path fill="none" stroke="midnightblue" d="M839.699,-380.475C858.865,-371.965 888.92,-358.619 913.471,-347.718"/>
<polygon fill="midnightblue" stroke="midnightblue" points="915.2,-350.78 922.919,-343.523 912.359,-344.382 915.2,-350.78"/>
</g>
<!-- Node37 -->
<g id="node37" class="node"><title>Node37</title>
<g id="a_node37"><a xlink:href="EvaluationResult_8h.html" target="_top" xlink:title="../EvaluationResult.h">
<polygon fill="white" stroke="black" points="784,-201.5 784,-220.5 897,-220.5 897,-201.5 784,-201.5"/>
<text text-anchor="middle" x="840.5" y="-208.5" font-family="Helvetica,sans-Serif" font-size="10.00">../EvaluationResult.h</text>
</a>
</g>
</g>
<!-- Node2&#45;&gt;Node37 -->
<g id="edge51" class="edge"><title>Node2&#45;&gt;Node37</title>
<path fill="none" stroke="midnightblue" d="M821.465,-380.463C824.519,-353.428 834.032,-269.239 838.341,-231.109"/>
<polygon fill="midnightblue" stroke="midnightblue" points="841.853,-231.198 839.498,-220.868 834.897,-230.412 841.853,-231.198"/>
</g>
<!-- Node38 -->
<g id="node38" class="node"><title>Node38</title>
<g id="a_node38"><a xlink:href="glpk__context_8h.html" target="_top" xlink:title="../glpk_context.h">
<polygon fill="white" stroke="black" points="612,-319 612,-338 707,-338 707,-319 612,-319"/>
<text text-anchor="middle" x="659.5" y="-326" font-family="Helvetica,sans-Serif" font-size="10.00">../glpk_context.h</text>
</a>
</g>
</g>
<!-- Node2&#45;&gt;Node38 -->
<g id="edge53" class="edge"><title>Node2&#45;&gt;Node38</title>
<path fill="none" stroke="midnightblue" d="M797.433,-380.475C769.815,-370.269 723.38,-353.108 692.104,-341.549"/>
<polygon fill="midnightblue" stroke="midnightblue" points="693.118,-338.193 682.525,-338.009 690.691,-344.759 693.118,-338.193"/>
</g>
<!-- Node40 -->
<g id="node40" class="node"><title>Node40</title>
<polygon fill="white" stroke="#bfbfbf" points="668,-257.5 668,-276.5 713,-276.5 713,-257.5 668,-257.5"/>
<text text-anchor="middle" x="690.5" y="-264.5" font-family="Helvetica,sans-Serif" font-size="10.00">glpk.h</text>
</g>
<!-- Node2&#45;&gt;Node40 -->
<g id="edge57" class="edge"><title>Node2&#45;&gt;Node40</title>
<path fill="none" stroke="midnightblue" d="M811.151,-380.298C789.32,-359.978 734.75,-309.186 707.106,-283.457"/>
<polygon fill="midnightblue" stroke="midnightblue" points="709.469,-280.874 699.765,-276.623 704.7,-285.998 709.469,-280.874"/>
</g>
<!-- Node41 -->
<g id="node41" class="node"><title>Node41</title>
<polygon fill="white" stroke="#bfbfbf" points="1030,-319 1030,-338 1137,-338 1137,-319 1030,-319"/>
<text text-anchor="middle" x="1083.5" y="-326" font-family="Helvetica,sans-Serif" font-size="10.00">adaptions_glpk.tpp</text>
</g>
<!-- Node2&#45;&gt;Node41 -->
<g id="edge58" class="edge"><title>Node2&#45;&gt;Node41</title>
<path fill="none" stroke="midnightblue" d="M858.854,-380.429C899.124,-371.416 964.281,-356.794 1020.5,-344 1025.77,-342.801 1031.28,-341.541 1036.76,-340.285"/>
<polygon fill="midnightblue" stroke="midnightblue" points="1037.57,-343.69 1046.53,-338.041 1036,-336.868 1037.57,-343.69"/>
</g>
<!-- Node4 -->
<g id="node4" class="node"><title>Node4</title>
<g id="a_node4"><a xlink:href="flags_8h.html" target="_top" xlink:title="flags.h">
<polygon fill="white" stroke="black" points="745.5,-145.5 745.5,-164.5 793.5,-164.5 793.5,-145.5 745.5,-145.5"/>
<text text-anchor="middle" x="769.5" y="-152.5" font-family="Helvetica,sans-Serif" font-size="10.00">flags.h</text>
</a>
</g>
</g>
<!-- Node3&#45;&gt;Node4 -->
<g id="edge3" class="edge"><title>Node3&#45;&gt;Node4</title>
<path fill="none" stroke="midnightblue" d="M771.343,-257.368C771.02,-239.617 770.276,-198.666 769.838,-174.597"/>
<polygon fill="midnightblue" stroke="midnightblue" points="773.338,-174.526 769.656,-164.591 766.339,-174.653 773.338,-174.526"/>
</g>
<!-- Node5 -->
<g id="node5" class="node"><title>Node5</title>
<g id="a_node5"><a xlink:href="util_2convenienceOperators_8h.html" target="_top" xlink:title="util/convenienceOperators.h">
<polygon fill="white" stroke="black" points="954,-201.5 954,-220.5 1105,-220.5 1105,-201.5 954,-201.5"/>
<text text-anchor="middle" x="1029.5" y="-208.5" font-family="Helvetica,sans-Serif" font-size="10.00">util/convenienceOperators.h</text>
</a>
</g>
</g>
<!-- Node3&#45;&gt;Node5 -->
<g id="edge4" class="edge"><title>Node3&#45;&gt;Node5</title>
<path fill="none" stroke="midnightblue" d="M812.096,-257.503C857.141,-248.075 929.894,-232.848 978.685,-222.636"/>
<polygon fill="midnightblue" stroke="midnightblue" points="979.644,-226.011 988.715,-220.536 978.21,-219.159 979.644,-226.011"/>
</g>
<!-- Node22 -->
<g id="node22" class="node"><title>Node22</title>
<g id="a_node22"><a xlink:href="Logger_8h.html" target="_top" xlink:title="util/logging/Logger.h">
<polygon fill="white" stroke="black" points="465,-201.5 465,-220.5 578,-220.5 578,-201.5 465,-201.5"/>
<text text-anchor="middle" x="521.5" y="-208.5" font-family="Helvetica,sans-Serif" font-size="10.00">util/logging/Logger.h</text>
</a>
</g>
</g>
<!-- Node3&#45;&gt;Node22 -->
<g id="edge28" class="edge"><title>Node3&#45;&gt;Node22</title>
<path fill="none" stroke="midnightblue" d="M731.887,-257.444C688.275,-248.023 618.1,-232.866 570.922,-222.675"/>
<polygon fill="midnightblue" stroke="midnightblue" points="571.441,-219.207 560.928,-220.516 569.964,-226.049 571.441,-219.207"/>
</g>
<!-- Node6 -->
<g id="node6" class="node"><title>Node6</title>
<g id="a_node6"><a xlink:href="types_8h.html" target="_top" xlink:title="../types.h">
<polygon fill="white" stroke="black" points="812,-145.5 812,-164.5 873,-164.5 873,-145.5 812,-145.5"/>
<text text-anchor="middle" x="842.5" y="-152.5" font-family="Helvetica,sans-Serif" font-size="10.00">../types.h</text>
</a>
</g>
</g>
<!-- Node5&#45;&gt;Node6 -->
<g id="edge5" class="edge"><title>Node5&#45;&gt;Node6</title>
<path fill="none" stroke="midnightblue" d="M999.869,-201.444C968,-192.241 917.167,-177.562 881.936,-167.388"/>
<polygon fill="midnightblue" stroke="midnightblue" points="882.571,-163.928 871.992,-164.516 880.628,-170.653 882.571,-163.928"/>
</g>
<!-- Node11 -->
<g id="node11" class="node"><title>Node11</title>
<polygon fill="white" stroke="#bfbfbf" points="930.5,-11.5 930.5,-30.5 976.5,-30.5 976.5,-11.5 930.5,-11.5"/>
<text text-anchor="middle" x="953.5" y="-18.5" font-family="Helvetica,sans-Serif" font-size="10.00">iosfwd</text>
</g>
<!-- Node5&#45;&gt;Node11 -->
<g id="edge23" class="edge"><title>Node5&#45;&gt;Node11</title>
<path fill="none" stroke="midnightblue" d="M1026.04,-201.434C1014.44,-172.745 976.799,-79.6332 960.801,-40.0604"/>
<polygon fill="midnightblue" stroke="midnightblue" points="963.976,-38.5761 956.983,-30.6168 957.486,-41.1997 963.976,-38.5761"/>
</g>
<!-- Node12 -->
<g id="node12" class="node"><title>Node12</title>
<polygon fill="white" stroke="#bfbfbf" points="1019.5,-84 1019.5,-103 1051.5,-103 1051.5,-84 1019.5,-84"/>
<text text-anchor="middle" x="1035.5" y="-91" font-family="Helvetica,sans-Serif" font-size="10.00">set</text>
</g>
<!-- Node5&#45;&gt;Node12 -->
<g id="edge25" class="edge"><title>Node5&#45;&gt;Node12</title>
<path fill="none" stroke="midnightblue" d="M1029.95,-201.319C1030.92,-182.757 1033.2,-138.839 1034.51,-113.473"/>
<polygon fill="midnightblue" stroke="midnightblue" points="1038.02,-113.45 1035.04,-103.282 1031.03,-113.087 1038.02,-113.45"/>
</g>
<!-- Node19 -->
<g id="node19" class="node"><title>Node19</title>
<polygon fill="white" stroke="#bfbfbf" points="1057.5,-145.5 1057.5,-164.5 1095.5,-164.5 1095.5,-145.5 1057.5,-145.5"/>
<text text-anchor="middle" x="1076.5" y="-152.5" font-family="Helvetica,sans-Serif" font-size="10.00">map</text>
</g>
<!-- Node5&#45;&gt;Node19 -->
<g id="edge24" class="edge"><title>Node5&#45;&gt;Node19</title>
<path fill="none" stroke="midnightblue" d="M1037.26,-201.083C1044.04,-193.298 1054.04,-181.801 1062.26,-172.367"/>
<polygon fill="midnightblue" stroke="midnightblue" points="1064.96,-174.592 1068.88,-164.751 1059.68,-169.996 1064.96,-174.592"/>
</g>
<!-- Node20 -->
<g id="node20" class="node"><title>Node20</title>
<polygon fill="white" stroke="#bfbfbf" points="921.5,-145.5 921.5,-164.5 963.5,-164.5 963.5,-145.5 921.5,-145.5"/>
<text text-anchor="middle" x="942.5" y="-152.5" font-family="Helvetica,sans-Serif" font-size="10.00">utility</text>
</g>
<!-- Node5&#45;&gt;Node20 -->
<g id="edge26" class="edge"><title>Node5&#45;&gt;Node20</title>
<path fill="none" stroke="midnightblue" d="M1015.52,-201.324C1001.95,-192.9 981.12,-179.971 965.175,-170.074"/>
<polygon fill="midnightblue" stroke="midnightblue" points="966.786,-166.954 956.443,-164.655 963.094,-172.902 966.786,-166.954"/>
</g>
<!-- Node21 -->
<g id="node21" class="node"><title>Node21</title>
<polygon fill="white" stroke="#bfbfbf" points="1114,-145.5 1114,-164.5 1161,-164.5 1161,-145.5 1114,-145.5"/>
<text text-anchor="middle" x="1137.5" y="-152.5" font-family="Helvetica,sans-Serif" font-size="10.00">vector</text>
</g>
<!-- Node5&#45;&gt;Node21 -->
<g id="edge27" class="edge"><title>Node5&#45;&gt;Node21</title>
<path fill="none" stroke="midnightblue" d="M1046.85,-201.324C1064.17,-192.664 1091.02,-179.242 1111,-169.249"/>
<polygon fill="midnightblue" stroke="midnightblue" points="1112.81,-172.257 1120.19,-164.655 1109.68,-165.996 1112.81,-172.257"/>
</g>
<!-- Node7 -->
<g id="node7" class="node"><title>Node7</title>
<polygon fill="white" stroke="#bfbfbf" points="633.5,-11.5 633.5,-30.5 767.5,-30.5 767.5,-11.5 633.5,-11.5"/>
<text text-anchor="middle" x="700.5" y="-18.5" font-family="Helvetica,sans-Serif" font-size="10.00">carl/numbers/numbers.h</text>
</g>
<!-- Node6&#45;&gt;Node7 -->
<g id="edge6" class="edge"><title>Node6&#45;&gt;Node7</title>
<path fill="none" stroke="midnightblue" d="M811.997,-146.442C772.065,-136.243 706.313,-118.286 699.5,-109 684.942,-89.1568 689.32,-59.3315 694.427,-40.2678"/>
<polygon fill="midnightblue" stroke="midnightblue" points="697.782,-41.2636 697.302,-30.6796 691.077,-39.2529 697.782,-41.2636"/>
</g>
<!-- Node8 -->
<g id="node8" class="node"><title>Node8</title>
<polygon fill="white" stroke="#bfbfbf" points="717.5,-84 717.5,-103 803.5,-103 803.5,-84 717.5,-84"/>
<text text-anchor="middle" x="760.5" y="-91" font-family="Helvetica,sans-Serif" font-size="10.00">carl/util/hash.h</text>
</g>
<!-- Node6&#45;&gt;Node8 -->
<g id="edge7" class="edge"><title>Node6&#45;&gt;Node8</title>
<path fill="none" stroke="midnightblue" d="M830.751,-145.475C817.721,-136.02 796.464,-120.596 780.741,-109.187"/>
<polygon fill="midnightblue" stroke="midnightblue" points="782.376,-106.049 772.227,-103.009 778.265,-111.715 782.376,-106.049"/>
</g>
<!-- Node9 -->
<g id="node9" class="node"><title>Node9</title>
<polygon fill="white" stroke="#bfbfbf" points="821.5,-84 821.5,-103 925.5,-103 925.5,-84 821.5,-84"/>
<text text-anchor="middle" x="873.5" y="-91" font-family="Helvetica,sans-Serif" font-size="10.00">eigen3/Eigen/Core</text>
</g>
<!-- Node6&#45;&gt;Node9 -->
<g id="edge8" class="edge"><title>Node6&#45;&gt;Node9</title>
<path fill="none" stroke="midnightblue" d="M846.942,-145.475C851.453,-136.815 858.574,-123.149 864.307,-112.145"/>
<polygon fill="midnightblue" stroke="midnightblue" points="867.55,-113.495 869.067,-103.009 861.342,-110.26 867.55,-113.495"/>
</g>
<!-- Node10 -->
<g id="node10" class="node"><title>Node10</title>
<polygon fill="white" stroke="#bfbfbf" points="785.5,-11.5 785.5,-30.5 897.5,-30.5 897.5,-11.5 785.5,-11.5"/>
<text text-anchor="middle" x="841.5" y="-18.5" font-family="Helvetica,sans-Serif" font-size="10.00">eigen3/Eigen/Dense</text>
</g>
<!-- Node6&#45;&gt;Node10 -->
<g id="edge9" class="edge"><title>Node6&#45;&gt;Node10</title>
<path fill="none" stroke="midnightblue" d="M811.981,-145.775C774.397,-135.341 714.732,-117.667 708.5,-109 700.456,-97.8139 700.879,-89.478 708.5,-78 714.352,-69.1866 770.38,-47.6251 807.825,-33.9743"/>
<polygon fill="midnightblue" stroke="midnightblue" points="809.158,-37.2141 817.369,-30.519 806.775,-30.6322 809.158,-37.2141"/>
</g>
<!-- Node6&#45;&gt;Node11 -->
<g id="edge10" class="edge"><title>Node6&#45;&gt;Node11</title>
<path fill="none" stroke="midnightblue" d="M873.023,-146.576C893.429,-140.038 919.241,-128.442 934.5,-109 949.907,-89.3695 953.439,-59.9063 953.945,-40.8141"/>
<polygon fill="midnightblue" stroke="midnightblue" points="957.445,-40.6889 953.955,-30.6855 950.445,-40.6822 957.445,-40.6889"/>
</g>
<!-- Node6&#45;&gt;Node12 -->
<g id="edge11" class="edge"><title>Node6&#45;&gt;Node12</title>
<path fill="none" stroke="midnightblue" d="M870.152,-145.475C907.34,-134.011 972.99,-113.771 1009.38,-102.553"/>
<polygon fill="midnightblue" stroke="midnightblue" points="1010.72,-105.803 1019.24,-99.5121 1008.66,-99.1135 1010.72,-105.803"/>
</g>
<!-- Node13 -->
<g id="node13" class="node"><title>Node13</title>
<g id="a_node13"><a xlink:href="adaptions__eigen_8h.html" target="_top" xlink:title="util/adaptions_eigen\l/adaptions_eigen.h">
<polygon fill="white" stroke="black" points="510,-78.5 510,-108.5 623,-108.5 623,-78.5 510,-78.5"/>
<text text-anchor="start" x="518" y="-96.5" font-family="Helvetica,sans-Serif" font-size="10.00">util/adaptions_eigen</text>
<text text-anchor="middle" x="566.5" y="-85.5" font-family="Helvetica,sans-Serif" font-size="10.00">/adaptions_eigen.h</text>
</a>
</g>
</g>
<!-- Node6&#45;&gt;Node13 -->
<g id="edge12" class="edge"><title>Node6&#45;&gt;Node13</title>
<path fill="none" stroke="midnightblue" d="M811.821,-149.007C805.654,-147.691 799.34,-146.282 793.5,-145 739.472,-133.142 678.407,-120.084 633.165,-110.218"/>
<polygon fill="midnightblue" stroke="midnightblue" points="633.698,-106.752 623.181,-108.036 632.203,-113.59 633.698,-106.752"/>
</g>
<!-- Node13&#45;&gt;Node3 -->
<g id="edge13" class="edge"><title>Node13&#45;&gt;Node3</title>
<path fill="none" stroke="midnightblue" d="M623.003,-107.453C647.845,-115.247 676.157,-127.207 697.5,-145 731.578,-173.409 754.343,-221.766 764.839,-247.92"/>
<polygon fill="midnightblue" stroke="midnightblue" points="761.613,-249.283 768.476,-257.355 768.145,-246.766 761.613,-249.283"/>
</g>
<!-- Node13&#45;&gt;Node6 -->
<g id="edge14" class="edge"><title>Node13&#45;&gt;Node6</title>
<path fill="none" stroke="midnightblue" d="M623.181,-104.989C670.607,-114.605 740.058,-129.368 803.831,-143.321"/>
<polygon fill="midnightblue" stroke="midnightblue" points="803.086,-146.741 813.604,-145.463 804.585,-139.903 803.086,-146.741"/>
</g>
<!-- Node13&#45;&gt;Node7 -->
<g id="edge16" class="edge"><title>Node13&#45;&gt;Node7</title>
<path fill="none" stroke="midnightblue" d="M593.295,-78.4027C617.192,-65.8298 651.918,-47.5597 675.313,-35.2511"/>
<polygon fill="midnightblue" stroke="midnightblue" points="677.06,-38.2872 684.28,-30.5336 673.801,-32.0922 677.06,-38.2872"/>
</g>
<!-- Node13&#45;&gt;Node10 -->
<g id="edge17" class="edge"><title>Node13&#45;&gt;Node10</title>
<path fill="none" stroke="midnightblue" d="M623.343,-79.8433C665.733,-70.1596 724.963,-56.1108 776.5,-42 785.866,-39.4355 795.924,-36.4544 805.262,-33.589"/>
<polygon fill="midnightblue" stroke="midnightblue" points="806.533,-36.8592 815.045,-30.5505 804.456,-30.1742 806.533,-36.8592"/>
</g>
<!-- Node13&#45;&gt;Node11 -->
<g id="edge20" class="edge"><title>Node13&#45;&gt;Node11</title>
<path fill="none" stroke="midnightblue" d="M623.223,-85.8523C705.67,-75.887 854.45,-56.6795 906.5,-42 913.109,-40.136 920.02,-37.5697 926.446,-34.8965"/>
<polygon fill="midnightblue" stroke="midnightblue" points="928.279,-37.9148 936.031,-30.6934 925.468,-31.504 928.279,-37.9148"/>
</g>
<!-- Node14 -->
<g id="node14" class="node"><title>Node14</title>
<g id="a_node14"><a xlink:href="transformation_8h.html" target="_top" xlink:title="transformation.h">
<polygon fill="white" stroke="black" points="518,-11.5 518,-30.5 615,-30.5 615,-11.5 518,-11.5"/>
<text text-anchor="middle" x="566.5" y="-18.5" font-family="Helvetica,sans-Serif" font-size="10.00">transformation.h</text>
</a>
</g>
</g>
<!-- Node13&#45;&gt;Node14 -->
<g id="edge15" class="edge"><title>Node13&#45;&gt;Node14</title>
<path fill="none" stroke="midnightblue" d="M566.5,-78.2333C566.5,-67.5006 566.5,-52.6875 566.5,-40.959"/>
<polygon fill="midnightblue" stroke="midnightblue" points="570,-40.8931 566.5,-30.8932 563,-40.8932 570,-40.8931"/>
</g>
<!-- Node15 -->
<g id="node15" class="node"><title>Node15</title>
<polygon fill="white" stroke="#bfbfbf" points="61.5,-11.5 61.5,-30.5 199.5,-30.5 199.5,-11.5 61.5,-11.5"/>
<text text-anchor="middle" x="130.5" y="-18.5" font-family="Helvetica,sans-Serif" font-size="10.00">eigen3/Eigen/Eigenvalues</text>
</g>
<!-- Node13&#45;&gt;Node15 -->
<g id="edge18" class="edge"><title>Node13&#45;&gt;Node15</title>
<path fill="none" stroke="midnightblue" d="M509.749,-86.4634C438.878,-78.4737 314.095,-62.9186 208.5,-42 196.072,-39.5381 182.669,-36.3128 170.538,-33.1732"/>
<polygon fill="midnightblue" stroke="midnightblue" points="171.258,-29.7436 160.696,-30.5748 169.471,-36.5117 171.258,-29.7436"/>
</g>
<!-- Node16 -->
<g id="node16" class="node"><title>Node16</title>
<polygon fill="white" stroke="#bfbfbf" points="218,-11.5 218,-30.5 281,-30.5 281,-11.5 218,-11.5"/>
<text text-anchor="middle" x="249.5" y="-18.5" font-family="Helvetica,sans-Serif" font-size="10.00">functional</text>
</g>
<!-- Node13&#45;&gt;Node16 -->
<g id="edge19" class="edge"><title>Node13&#45;&gt;Node16</title>
<path fill="none" stroke="midnightblue" d="M509.879,-86.7196C453.289,-79.8851 364.315,-66.2492 290.5,-42 284.951,-40.1771 279.196,-37.7446 273.815,-35.205"/>
<polygon fill="midnightblue" stroke="midnightblue" points="275.167,-31.9679 264.657,-30.6268 272.037,-38.2291 275.167,-31.9679"/>
</g>
<!-- Node17 -->
<g id="node17" class="node"><title>Node17</title>
<polygon fill="white" stroke="#bfbfbf" points="299.5,-11.5 299.5,-30.5 341.5,-30.5 341.5,-11.5 299.5,-11.5"/>
<text text-anchor="middle" x="320.5" y="-18.5" font-family="Helvetica,sans-Serif" font-size="10.00">limits</text>
</g>
<!-- Node13&#45;&gt;Node17 -->
<g id="edge21" class="edge"><title>Node13&#45;&gt;Node17</title>
<path fill="none" stroke="midnightblue" d="M509.708,-84.9219C465.093,-77.6345 402.092,-64.3524 350.5,-42 346.899,-40.44 343.263,-38.4448 339.825,-36.321"/>
<polygon fill="midnightblue" stroke="midnightblue" points="341.595,-33.2934 331.346,-30.6096 337.684,-39.0992 341.595,-33.2934"/>
</g>
<!-- Node18 -->
<g id="node18" class="node"><title>Node18</title>
<polygon fill="white" stroke="#bfbfbf" points="359.5,-0.5 359.5,-41.5 499.5,-41.5 499.5,-0.5 359.5,-0.5"/>
<text text-anchor="start" x="367.5" y="-29.5" font-family="Helvetica,sans-Serif" font-size="10.00">eigen3/unsupported</text>
<text text-anchor="start" x="367.5" y="-18.5" font-family="Helvetica,sans-Serif" font-size="10.00">/Eigen/src/MatrixFunctions</text>
<text text-anchor="middle" x="429.5" y="-7.5" font-family="Helvetica,sans-Serif" font-size="10.00">/MatrixExponential.h</text>
</g>
<!-- Node13&#45;&gt;Node18 -->
<g id="edge22" class="edge"><title>Node13&#45;&gt;Node18</title>
<path fill="none" stroke="midnightblue" d="M539.105,-78.4027C521.216,-69.1969 497.391,-56.9367 476.524,-46.1987"/>
<polygon fill="midnightblue" stroke="midnightblue" points="477.977,-43.01 467.484,-41.5464 474.774,-49.2342 477.977,-43.01"/>
</g>
<!-- Node22&#45;&gt;Node4 -->
<g id="edge29" class="edge"><title>Node22&#45;&gt;Node4</title>
<path fill="none" stroke="midnightblue" d="M560.796,-201.444C608.946,-190.959 689.736,-173.368 735.389,-163.427"/>
<polygon fill="midnightblue" stroke="midnightblue" points="736.36,-166.798 745.386,-161.251 734.87,-159.958 736.36,-166.798"/>
</g>
<!-- Node23 -->
<g id="node23" class="node"><title>Node23</title>
<polygon fill="white" stroke="#bfbfbf" points="173.5,-145.5 173.5,-164.5 327.5,-164.5 327.5,-145.5 173.5,-145.5"/>
<text text-anchor="middle" x="250.5" y="-152.5" font-family="Helvetica,sans-Serif" font-size="10.00">carl/io/streamingOperators.h</text>
</g>
<!-- Node22&#45;&gt;Node23 -->
<g id="edge30" class="edge"><title>Node22&#45;&gt;Node23</title>
<path fill="none" stroke="midnightblue" d="M478.559,-201.444C430.987,-191.964 354.256,-176.675 303.111,-166.483"/>
<polygon fill="midnightblue" stroke="midnightblue" points="303.731,-163.038 293.24,-164.516 302.363,-169.903 303.731,-163.038"/>
</g>
<!-- Node24 -->
<g id="node24" class="node"><title>Node24</title>
<polygon fill="white" stroke="#bfbfbf" points="346,-145.5 346,-164.5 405,-164.5 405,-145.5 346,-145.5"/>
<text text-anchor="middle" x="375.5" y="-152.5" font-family="Helvetica,sans-Serif" font-size="10.00">iostream</text>
</g>
<!-- Node22&#45;&gt;Node24 -->
<g id="edge31" class="edge"><title>Node22&#45;&gt;Node24</title>
<path fill="none" stroke="midnightblue" d="M498.366,-201.444C474.018,-192.438 435.493,-178.189 408.077,-168.049"/>
<polygon fill="midnightblue" stroke="midnightblue" points="409.119,-164.703 398.526,-164.516 406.691,-171.268 409.119,-164.703"/>
</g>
<!-- Node25 -->
<g id="node25" class="node"><title>Node25</title>
<polygon fill="white" stroke="#bfbfbf" points="423.5,-145.5 423.5,-164.5 479.5,-164.5 479.5,-145.5 423.5,-145.5"/>
<text text-anchor="middle" x="451.5" y="-152.5" font-family="Helvetica,sans-Serif" font-size="10.00">sstream</text>
</g>
<!-- Node22&#45;&gt;Node25 -->
<g id="edge32" class="edge"><title>Node22&#45;&gt;Node25</title>
<path fill="none" stroke="midnightblue" d="M510.253,-201.324C499.703,-193.185 483.699,-180.839 471.058,-171.087"/>
<polygon fill="midnightblue" stroke="midnightblue" points="473.007,-168.171 462.951,-164.834 468.731,-173.713 473.007,-168.171"/>
</g>
<!-- Node26 -->
<g id="node26" class="node"><title>Node26</title>
<polygon fill="white" stroke="#bfbfbf" points="497.5,-145.5 497.5,-164.5 545.5,-164.5 545.5,-145.5 497.5,-145.5"/>
<text text-anchor="middle" x="521.5" y="-152.5" font-family="Helvetica,sans-Serif" font-size="10.00">thread</text>
</g>
<!-- Node22&#45;&gt;Node26 -->
<g id="edge33" class="edge"><title>Node22&#45;&gt;Node26</title>
<path fill="none" stroke="midnightblue" d="M521.5,-201.083C521.5,-194.006 521.5,-183.861 521.5,-174.986"/>
<polygon fill="midnightblue" stroke="midnightblue" points="525,-174.751 521.5,-164.751 518,-174.751 525,-174.751"/>
</g>
<!-- Node27 -->
<g id="node27" class="node"><title>Node27</title>
<polygon fill="white" stroke="#bfbfbf" points="564,-145.5 564,-164.5 689,-164.5 689,-145.5 564,-145.5"/>
<text text-anchor="middle" x="626.5" y="-152.5" font-family="Helvetica,sans-Serif" font-size="10.00">carl/core/carlLogging.h</text>
</g>
<!-- Node22&#45;&gt;Node27 -->
<g id="edge34" class="edge"><title>Node22&#45;&gt;Node27</title>
<path fill="none" stroke="midnightblue" d="M538.37,-201.324C555.209,-192.664 581.307,-179.242 600.738,-169.249"/>
<polygon fill="midnightblue" stroke="midnightblue" points="602.38,-172.341 609.672,-164.655 599.178,-166.116 602.38,-172.341"/>
</g>
<!-- Node28 -->
<g id="node28" class="node"><title>Node28</title>
<polygon fill="white" stroke="#bfbfbf" points="0,-145.5 0,-164.5 155,-164.5 155,-145.5 0,-145.5"/>
<text text-anchor="middle" x="77.5" y="-152.5" font-family="Helvetica,sans-Serif" font-size="10.00">carl/core/carlLoggingHelper.h</text>
</g>
<!-- Node22&#45;&gt;Node28 -->
<g id="edge35" class="edge"><title>Node22&#45;&gt;Node28</title>
<path fill="none" stroke="midnightblue" d="M464.816,-203.106C386.929,-193.633 246.409,-176.543 157.746,-165.76"/>
<polygon fill="midnightblue" stroke="midnightblue" points="158.082,-162.275 147.732,-164.542 157.237,-169.224 158.082,-162.275"/>
</g>
<!-- Node29&#45;&gt;Node3 -->
<g id="edge37" class="edge"><title>Node29&#45;&gt;Node3</title>
<path fill="none" stroke="midnightblue" d="M911.132,-313.399C879.51,-303.118 837.167,-289.351 807.429,-279.682"/>
<polygon fill="midnightblue" stroke="midnightblue" points="808.453,-276.335 797.861,-276.571 806.289,-282.992 808.453,-276.335"/>
</g>
<!-- Node29&#45;&gt;Node6 -->
<g id="edge38" class="edge"><title>Node29&#45;&gt;Node6</title>
<path fill="none" stroke="midnightblue" d="M951.796,-313.267C946.494,-288.356 932.793,-236.164 905.5,-201 895.552,-188.184 880.98,-177.449 868.355,-169.683"/>
<polygon fill="midnightblue" stroke="midnightblue" points="870,-166.59 859.6,-164.564 866.467,-172.633 870,-166.59"/>
</g>
<!-- Node29&#45;&gt;Node12 -->
<g id="edge48" class="edge"><title>Node29&#45;&gt;Node12</title>
<path fill="none" stroke="midnightblue" d="M1011.73,-314.899C1014.7,-314.255 1017.63,-313.619 1020.5,-313 1330.48,-246.087 1518.87,-411.398 1718.5,-165 1724.1,-158.093 1724.55,-151.513 1718.5,-145 1673.09,-96.1059 1182.1,-94.1303 1061.93,-94.3847"/>
<polygon fill="midnightblue" stroke="midnightblue" points="1061.77,-90.885 1051.78,-94.4137 1061.79,-97.885 1061.77,-90.885"/>
</g>
<!-- Node29&#45;&gt;Node21 -->
<g id="edge49" class="edge"><title>Node29&#45;&gt;Node21</title>
<path fill="none" stroke="midnightblue" d="M986.662,-313.485C1022.31,-296.436 1079.27,-264.457 1113.5,-221 1124.19,-207.429 1130.44,-188.629 1133.87,-174.737"/>
<polygon fill="midnightblue" stroke="midnightblue" points="1137.31,-175.361 1136.04,-164.842 1130.47,-173.858 1137.31,-175.361"/>
</g>
<!-- Node30 -->
<g id="node30" class="node"><title>Node30</title>
<g id="a_node30"><a xlink:href="VariablePool_8h.html" target="_top" xlink:title="../util/VariablePool.h">
<polygon fill="white" stroke="black" points="1161.5,-201.5 1161.5,-220.5 1271.5,-220.5 1271.5,-201.5 1161.5,-201.5"/>
<text text-anchor="middle" x="1216.5" y="-208.5" font-family="Helvetica,sans-Serif" font-size="10.00">../util/VariablePool.h</text>
</a>
</g>
</g>
<!-- Node29&#45;&gt;Node30 -->
<g id="edge39" class="edge"><title>Node29&#45;&gt;Node30</title>
<path fill="none" stroke="midnightblue" d="M1011.94,-313.997C1064.37,-301.423 1135.49,-283.649 1147.5,-277 1169.89,-264.603 1190.53,-243.288 1203.29,-228.46"/>
<polygon fill="midnightblue" stroke="midnightblue" points="1206.14,-230.518 1209.85,-220.596 1200.76,-226.035 1206.14,-230.518"/>
</g>
<!-- Node36 -->
<g id="node36" class="node"><title>Node36</title>
<polygon fill="white" stroke="#bfbfbf" points="954,-257.5 954,-276.5 1013,-276.5 1013,-257.5 954,-257.5"/>
<text text-anchor="middle" x="983.5" y="-264.5" font-family="Helvetica,sans-Serif" font-size="10.00">Point.tpp</text>
</g>
<!-- Node29&#45;&gt;Node36 -->
<g id="edge50" class="edge"><title>Node29&#45;&gt;Node36</title>
<path fill="none" stroke="midnightblue" d="M961.373,-313.399C965.413,-305.11 970.558,-294.554 974.869,-285.708"/>
<polygon fill="midnightblue" stroke="midnightblue" points="978.045,-287.18 979.28,-276.658 971.753,-284.113 978.045,-287.18"/>
</g>
<!-- Node30&#45;&gt;Node4 -->
<g id="edge40" class="edge"><title>Node30&#45;&gt;Node4</title>
<path fill="none" stroke="midnightblue" d="M1161.21,-205.084C1068.78,-196.691 885.719,-179.276 803.526,-164.862"/>
<polygon fill="midnightblue" stroke="midnightblue" points="804.016,-161.394 793.548,-163.03 802.752,-168.279 804.016,-161.394"/>
</g>
<!-- Node30&#45;&gt;Node19 -->
<g id="edge46" class="edge"><title>Node30&#45;&gt;Node19</title>
<path fill="none" stroke="midnightblue" d="M1194.32,-201.444C1170.25,-192.161 1131.74,-177.308 1105.34,-167.125"/>
<polygon fill="midnightblue" stroke="midnightblue" points="1106.46,-163.806 1095.87,-163.473 1103.94,-170.337 1106.46,-163.806"/>
</g>
<!-- Node30&#45;&gt;Node21 -->
<g id="edge47" class="edge"><title>Node30&#45;&gt;Node21</title>
<path fill="none" stroke="midnightblue" d="M1203.81,-201.324C1191.6,-192.979 1172.92,-180.212 1158.5,-170.352"/>
<polygon fill="midnightblue" stroke="midnightblue" points="1160.39,-167.408 1150.16,-164.655 1156.44,-173.187 1160.39,-167.408"/>
</g>
<!-- Node31 -->
<g id="node31" class="node"><title>Node31</title>
<polygon fill="white" stroke="#bfbfbf" points="1179.5,-145.5 1179.5,-164.5 1241.5,-164.5 1241.5,-145.5 1179.5,-145.5"/>
<text text-anchor="middle" x="1210.5" y="-152.5" font-family="Helvetica,sans-Serif" font-size="10.00">algorithm</text>
</g>
<!-- Node30&#45;&gt;Node31 -->
<g id="edge41" class="edge"><title>Node30&#45;&gt;Node31</title>
<path fill="none" stroke="midnightblue" d="M1215.51,-201.083C1214.71,-193.927 1213.57,-183.635 1212.58,-174.691"/>
<polygon fill="midnightblue" stroke="midnightblue" points="1216.06,-174.303 1211.47,-164.751 1209.1,-175.076 1216.06,-174.303"/>
</g>
<!-- Node32 -->
<g id="node32" class="node"><title>Node32</title>
<polygon fill="white" stroke="#bfbfbf" points="1259.5,-145.5 1259.5,-164.5 1367.5,-164.5 1367.5,-145.5 1259.5,-145.5"/>
<text text-anchor="middle" x="1313.5" y="-152.5" font-family="Helvetica,sans-Serif" font-size="10.00">carl/core/Variable.h</text>
</g>
<!-- Node30&#45;&gt;Node32 -->
<g id="edge42" class="edge"><title>Node30&#45;&gt;Node32</title>
<path fill="none" stroke="midnightblue" d="M1232.08,-201.324C1247.5,-192.743 1271.31,-179.486 1289.21,-169.522"/>
<polygon fill="midnightblue" stroke="midnightblue" points="1290.92,-172.577 1297.95,-164.655 1287.51,-166.461 1290.92,-172.577"/>
</g>
<!-- Node33 -->
<g id="node33" class="node"><title>Node33</title>
<polygon fill="white" stroke="#bfbfbf" points="1385.5,-145.5 1385.5,-164.5 1513.5,-164.5 1513.5,-145.5 1385.5,-145.5"/>
<text text-anchor="middle" x="1449.5" y="-152.5" font-family="Helvetica,sans-Serif" font-size="10.00">carl/core/VariablePool.h</text>
</g>
<!-- Node30&#45;&gt;Node33 -->
<g id="edge43" class="edge"><title>Node30&#45;&gt;Node33</title>
<path fill="none" stroke="midnightblue" d="M1253.42,-201.444C1293.9,-192.063 1358.92,-176.993 1402.88,-166.804"/>
<polygon fill="midnightblue" stroke="midnightblue" points="1403.8,-170.184 1412.75,-164.516 1402.22,-163.365 1403.8,-170.184"/>
</g>
<!-- Node34 -->
<g id="node34" class="node"><title>Node34</title>
<polygon fill="white" stroke="#bfbfbf" points="1531.5,-145.5 1531.5,-164.5 1639.5,-164.5 1639.5,-145.5 1531.5,-145.5"/>
<text text-anchor="middle" x="1585.5" y="-152.5" font-family="Helvetica,sans-Serif" font-size="10.00">carl/util/Singleton.h</text>
</g>
<!-- Node30&#45;&gt;Node34 -->
<g id="edge44" class="edge"><title>Node30&#45;&gt;Node34</title>
<path fill="none" stroke="midnightblue" d="M1271.74,-201.916C1338.53,-192.143 1450.71,-175.725 1521.28,-165.398"/>
<polygon fill="midnightblue" stroke="midnightblue" points="1522,-168.831 1531.38,-163.92 1520.98,-161.904 1522,-168.831"/>
</g>
<!-- Node35 -->
<g id="node35" class="node"><title>Node35</title>
<polygon fill="white" stroke="#bfbfbf" points="1657.5,-145.5 1657.5,-164.5 1709.5,-164.5 1709.5,-145.5 1657.5,-145.5"/>
<text text-anchor="middle" x="1683.5" y="-152.5" font-family="Helvetica,sans-Serif" font-size="10.00">cassert</text>
</g>
<!-- Node30&#45;&gt;Node35 -->
<g id="edge45" class="edge"><title>Node30&#45;&gt;Node35</title>
<path fill="none" stroke="midnightblue" d="M1271.76,-206.868C1352.34,-201.724 1506.89,-189.68 1647.15,-165.001"/>
<polygon fill="midnightblue" stroke="midnightblue" points="1647.99,-168.406 1657.22,-163.203 1646.76,-161.515 1647.99,-168.406"/>
</g>
<!-- Node37&#45;&gt;Node6 -->
<g id="edge52" class="edge"><title>Node37&#45;&gt;Node6</title>
<path fill="none" stroke="midnightblue" d="M840.83,-201.083C841.092,-194.006 841.468,-183.861 841.797,-174.986"/>
<polygon fill="midnightblue" stroke="midnightblue" points="845.303,-174.874 842.176,-164.751 838.308,-174.615 845.303,-174.874"/>
</g>
<!-- Node38&#45;&gt;Node22 -->
<g id="edge54" class="edge"><title>Node38&#45;&gt;Node22</title>
<path fill="none" stroke="midnightblue" d="M656.489,-318.539C651.161,-303.896 638.783,-274.699 619.5,-257 603.174,-242.015 580.994,-231.267 561.864,-224.041"/>
<polygon fill="midnightblue" stroke="midnightblue" points="562.78,-220.652 552.185,-220.58 560.423,-227.243 562.78,-220.652"/>
</g>
<!-- Node39 -->
<g id="node39" class="node"><title>Node39</title>
<polygon fill="white" stroke="#bfbfbf" points="504,-257.5 504,-276.5 611,-276.5 611,-257.5 504,-257.5"/>
<text text-anchor="middle" x="557.5" y="-264.5" font-family="Helvetica,sans-Serif" font-size="10.00">carl/core/Relation.h</text>
</g>
<!-- Node38&#45;&gt;Node39 -->
<g id="edge55" class="edge"><title>Node38&#45;&gt;Node39</title>
<path fill="none" stroke="midnightblue" d="M644.886,-318.975C628.147,-309.211 600.496,-293.081 580.781,-281.581"/>
<polygon fill="midnightblue" stroke="midnightblue" points="582.488,-278.525 572.087,-276.509 578.961,-284.571 582.488,-278.525"/>
</g>
<!-- Node38&#45;&gt;Node40 -->
<g id="edge56" class="edge"><title>Node38&#45;&gt;Node40</title>
<path fill="none" stroke="midnightblue" d="M663.942,-318.975C668.453,-310.315 675.574,-296.649 681.307,-285.645"/>
<polygon fill="midnightblue" stroke="midnightblue" points="684.55,-286.995 686.067,-276.509 678.342,-283.76 684.55,-286.995"/>
</g>
</g>
</svg>
