<?xml version="1.0" encoding="UTF-8" standalone="no"?>
<!DOCTYPE svg PUBLIC "-//W3C//DTD SVG 1.1//EN"
 "http://www.w3.org/Graphics/SVG/1.1/DTD/svg11.dtd">
<!-- Generated by graphviz version 2.38.0 (20140413.2041)
 -->
<!-- Title: /home/travis/build/hypro/hypro/src/hypro/util/adaptions_eigen/adaptions_eigen.h Pages: 1 -->
<svg width="1969pt" height="307pt"
 viewBox="0.00 0.00 1969.00 307.00" xmlns="http://www.w3.org/2000/svg" xmlns:xlink="http://www.w3.org/1999/xlink">
<g id="graph0" class="graph" transform="scale(1 1) rotate(0) translate(4 303)">
<title>/home/travis/build/hypro/hypro/src/hypro/util/adaptions_eigen/adaptions_eigen.h</title>
<polygon fill="white" stroke="none" points="-4,4 -4,-303 1965,-303 1965,4 -4,4"/>
<!-- Node1 -->
<g id="node1" class="node"><title>Node1</title>
<polygon fill="#bfbfbf" stroke="black" points="1317,-246.5 1317,-298.5 1441,-298.5 1441,-246.5 1317,-246.5"/>
<text text-anchor="start" x="1325" y="-286.5" font-family="Helvetica,sans-Serif" font-size="10.00">/home/travis/build</text>
<text text-anchor="start" x="1325" y="-275.5" font-family="Helvetica,sans-Serif" font-size="10.00">/hypro/hypro/src/hypro</text>
<text text-anchor="start" x="1325" y="-264.5" font-family="Helvetica,sans-Serif" font-size="10.00">/util/adaptions_eigen</text>
<text text-anchor="middle" x="1379" y="-253.5" font-family="Helvetica,sans-Serif" font-size="10.00">/adaptions_eigen.h</text>
</g>
<!-- Node2 -->
<g id="node2" class="node"><title>Node2</title>
<g id="a_node2"><a xlink:href="config_8h.html" target="_top" xlink:title="../../config.h">
<polygon fill="white" stroke="black" points="1112,-179.5 1112,-198.5 1184,-198.5 1184,-179.5 1112,-179.5"/>
<text text-anchor="middle" x="1148" y="-186.5" font-family="Helvetica,sans-Serif" font-size="10.00">../../config.h</text>
</a>
</g>
</g>
<!-- Node1&#45;&gt;Node2 -->
<g id="edge1" class="edge"><title>Node1&#45;&gt;Node2</title>
<path fill="none" stroke="midnightblue" d="M1316.79,-249.552C1273.49,-234.276 1217.4,-214.485 1182.04,-202.011"/>
<polygon fill="midnightblue" stroke="midnightblue" points="1182.81,-198.569 1172.21,-198.542 1180.48,-205.17 1182.81,-198.569"/>
</g>
<!-- Node5 -->
<g id="node5" class="node"><title>Node5</title>
<g id="a_node5"><a xlink:href="types_8h.html" target="_top" xlink:title="../types.h">
<polygon fill="white" stroke="black" points="220.5,-56.5 220.5,-75.5 281.5,-75.5 281.5,-56.5 220.5,-56.5"/>
<text text-anchor="middle" x="251" y="-63.5" font-family="Helvetica,sans-Serif" font-size="10.00">../types.h</text>
</a>
</g>
</g>
<!-- Node1&#45;&gt;Node5 -->
<g id="edge25" class="edge"><title>Node1&#45;&gt;Node5</title>
<path fill="none" stroke="midnightblue" d="M1316.82,-267.953C1118.19,-255.579 501.999,-210.742 321,-132 295.405,-120.865 271.463,-98.9053 258.872,-83.6076"/>
<polygon fill="midnightblue" stroke="midnightblue" points="261.62,-81.4379 252.844,-75.5026 256.004,-85.6154 261.62,-81.4379"/>
</g>
<!-- Node6 -->
<g id="node6" class="node"><title>Node6</title>
<polygon fill="white" stroke="#bfbfbf" points="0,-0.5 0,-19.5 134,-19.5 134,-0.5 0,-0.5"/>
<text text-anchor="middle" x="67" y="-7.5" font-family="Helvetica,sans-Serif" font-size="10.00">carl/numbers/numbers.h</text>
</g>
<!-- Node1&#45;&gt;Node6 -->
<g id="edge27" class="edge"><title>Node1&#45;&gt;Node6</title>
<path fill="none" stroke="midnightblue" d="M1316.85,-270.506C1136.7,-267.132 616.728,-253.765 453,-210 301.896,-169.61 142.211,-64.0018 87.0786,-25.3985"/>
<polygon fill="midnightblue" stroke="midnightblue" points="89.0502,-22.5061 78.8625,-19.5972 85.0126,-28.2244 89.0502,-22.5061"/>
</g>
<!-- Node9 -->
<g id="node9" class="node"><title>Node9</title>
<polygon fill="white" stroke="#bfbfbf" points="947,-0.5 947,-19.5 1059,-19.5 1059,-0.5 947,-0.5"/>
<text text-anchor="middle" x="1003" y="-7.5" font-family="Helvetica,sans-Serif" font-size="10.00">eigen3/Eigen/Dense</text>
</g>
<!-- Node1&#45;&gt;Node9 -->
<g id="edge28" class="edge"><title>Node1&#45;&gt;Node9</title>
<path fill="none" stroke="midnightblue" d="M1384.97,-246.436C1394.03,-201.49 1405.3,-107.119 1355,-56 1316.41,-16.7794 1160.31,-10.3822 1069.47,-10.0984"/>
<polygon fill="midnightblue" stroke="midnightblue" points="1069.27,-6.59838 1059.27,-10.0913 1069.26,-13.5984 1069.27,-6.59838"/>
</g>
<!-- Node10 -->
<g id="node10" class="node"><title>Node10</title>
<polygon fill="white" stroke="#bfbfbf" points="507,-0.5 507,-19.5 553,-19.5 553,-0.5 507,-0.5"/>
<text text-anchor="middle" x="530" y="-7.5" font-family="Helvetica,sans-Serif" font-size="10.00">iosfwd</text>
</g>
<!-- Node1&#45;&gt;Node10 -->
<g id="edge31" class="edge"><title>Node1&#45;&gt;Node10</title>
<path fill="none" stroke="midnightblue" d="M1380.9,-246.277C1382.83,-200.2 1379.42,-102.858 1322,-56 1292.17,-31.6559 709.964,-15.5015 563.31,-11.8078"/>
<polygon fill="midnightblue" stroke="midnightblue" points="563.218,-8.3045 553.134,-11.554 563.043,-15.3023 563.218,-8.3045"/>
</g>
<!-- Node22 -->
<g id="node22" class="node"><title>Node22</title>
<g id="a_node22"><a xlink:href="transformation_8h.html" target="_top" xlink:title="transformation.h">
<polygon fill="white" stroke="black" points="1407.5,-179.5 1407.5,-198.5 1504.5,-198.5 1504.5,-179.5 1407.5,-179.5"/>
<text text-anchor="middle" x="1456" y="-186.5" font-family="Helvetica,sans-Serif" font-size="10.00">transformation.h</text>
</a>
</g>
</g>
<!-- Node1&#45;&gt;Node22 -->
<g id="edge26" class="edge"><title>Node1&#45;&gt;Node22</title>
<path fill="none" stroke="midnightblue" d="M1402.94,-246.16C1415.3,-233.074 1430.02,-217.503 1440.81,-206.08"/>
<polygon fill="midnightblue" stroke="midnightblue" points="1443.56,-208.262 1447.88,-198.589 1438.47,-203.455 1443.56,-208.262"/>
</g>
<!-- Node23 -->
<g id="node23" class="node"><title>Node23</title>
<polygon fill="white" stroke="#bfbfbf" points="1523,-179.5 1523,-198.5 1661,-198.5 1661,-179.5 1523,-179.5"/>
<text text-anchor="middle" x="1592" y="-186.5" font-family="Helvetica,sans-Serif" font-size="10.00">eigen3/Eigen/Eigenvalues</text>
</g>
<!-- Node1&#45;&gt;Node23 -->
<g id="edge29" class="edge"><title>Node1&#45;&gt;Node23</title>
<path fill="none" stroke="midnightblue" d="M1441.18,-247.708C1480.18,-232.784 1528.84,-214.168 1560.16,-202.184"/>
<polygon fill="midnightblue" stroke="midnightblue" points="1561.59,-205.382 1569.68,-198.539 1559.09,-198.844 1561.59,-205.382"/>
</g>
<!-- Node24 -->
<g id="node24" class="node"><title>Node24</title>
<polygon fill="white" stroke="#bfbfbf" points="1679.5,-179.5 1679.5,-198.5 1742.5,-198.5 1742.5,-179.5 1679.5,-179.5"/>
<text text-anchor="middle" x="1711" y="-186.5" font-family="Helvetica,sans-Serif" font-size="10.00">functional</text>
</g>
<!-- Node1&#45;&gt;Node24 -->
<g id="edge30" class="edge"><title>Node1&#45;&gt;Node24</title>
<path fill="none" stroke="midnightblue" d="M1441.22,-262.889C1500.96,-253.567 1593.21,-236.393 1670,-210 1675.52,-208.101 1681.27,-205.637 1686.65,-203.09"/>
<polygon fill="midnightblue" stroke="midnightblue" points="1688.42,-206.116 1695.81,-198.521 1685.3,-199.852 1688.42,-206.116"/>
</g>
<!-- Node25 -->
<g id="node25" class="node"><title>Node25</title>
<polygon fill="white" stroke="#bfbfbf" points="1761,-179.5 1761,-198.5 1803,-198.5 1803,-179.5 1761,-179.5"/>
<text text-anchor="middle" x="1782" y="-186.5" font-family="Helvetica,sans-Serif" font-size="10.00">limits</text>
</g>
<!-- Node1&#45;&gt;Node25 -->
<g id="edge32" class="edge"><title>Node1&#45;&gt;Node25</title>
<path fill="none" stroke="midnightblue" d="M1441.19,-269.242C1517.01,-264.707 1647.9,-251.06 1752,-210 1755.82,-208.493 1759.65,-206.444 1763.24,-204.23"/>
<polygon fill="midnightblue" stroke="midnightblue" points="1765.21,-207.123 1771.51,-198.603 1761.28,-201.336 1765.21,-207.123"/>
</g>
<!-- Node26 -->
<g id="node26" class="node"><title>Node26</title>
<polygon fill="white" stroke="#bfbfbf" points="1821,-168.5 1821,-209.5 1961,-209.5 1961,-168.5 1821,-168.5"/>
<text text-anchor="start" x="1829" y="-197.5" font-family="Helvetica,sans-Serif" font-size="10.00">eigen3/unsupported</text>
<text text-anchor="start" x="1829" y="-186.5" font-family="Helvetica,sans-Serif" font-size="10.00">/Eigen/src/MatrixFunctions</text>
<text text-anchor="middle" x="1891" y="-175.5" font-family="Helvetica,sans-Serif" font-size="10.00">/MatrixExponential.h</text>
</g>
<!-- Node1&#45;&gt;Node26 -->
<g id="edge33" class="edge"><title>Node1&#45;&gt;Node26</title>
<path fill="none" stroke="midnightblue" d="M1441.02,-264.804C1523.42,-255.438 1673.64,-236.734 1811.01,-210.098"/>
<polygon fill="midnightblue" stroke="midnightblue" points="1811.74,-213.522 1820.88,-208.167 1810.39,-206.653 1811.74,-213.522"/>
</g>
<!-- Node3 -->
<g id="node3" class="node"><title>Node3</title>
<g id="a_node3"><a xlink:href="flags_8h.html" target="_top" xlink:title="flags.h">
<polygon fill="white" stroke="black" points="1265,-56.5 1265,-75.5 1313,-75.5 1313,-56.5 1265,-56.5"/>
<text text-anchor="middle" x="1289" y="-63.5" font-family="Helvetica,sans-Serif" font-size="10.00">flags.h</text>
</a>
</g>
</g>
<!-- Node2&#45;&gt;Node3 -->
<g id="edge2" class="edge"><title>Node2&#45;&gt;Node3</title>
<path fill="none" stroke="midnightblue" d="M1158.14,-179.298C1181.82,-158.978 1241.01,-108.186 1270.99,-82.4566"/>
<polygon fill="midnightblue" stroke="midnightblue" points="1273.64,-84.7916 1278.95,-75.6232 1269.08,-79.4795 1273.64,-84.7916"/>
</g>
<!-- Node4 -->
<g id="node4" class="node"><title>Node4</title>
<g id="a_node4"><a xlink:href="util_2convenienceOperators_8h.html" target="_top" xlink:title="util/convenienceOperators.h">
<polygon fill="white" stroke="black" points="339.5,-112.5 339.5,-131.5 490.5,-131.5 490.5,-112.5 339.5,-112.5"/>
<text text-anchor="middle" x="415" y="-119.5" font-family="Helvetica,sans-Serif" font-size="10.00">util/convenienceOperators.h</text>
</a>
</g>
</g>
<!-- Node2&#45;&gt;Node4 -->
<g id="edge3" class="edge"><title>Node2&#45;&gt;Node4</title>
<path fill="none" stroke="midnightblue" d="M1111.65,-184.777C1000.21,-174.894 661.197,-144.832 500.822,-130.61"/>
<polygon fill="midnightblue" stroke="midnightblue" points="500.791,-127.094 490.521,-129.697 500.172,-134.067 500.791,-127.094"/>
</g>
<!-- Node15 -->
<g id="node15" class="node"><title>Node15</title>
<g id="a_node15"><a xlink:href="Logger_8h.html" target="_top" xlink:title="util/logging/Logger.h">
<polygon fill="white" stroke="black" points="1019.5,-112.5 1019.5,-131.5 1132.5,-131.5 1132.5,-112.5 1019.5,-112.5"/>
<text text-anchor="middle" x="1076" y="-119.5" font-family="Helvetica,sans-Serif" font-size="10.00">util/logging/Logger.h</text>
</a>
</g>
</g>
<!-- Node2&#45;&gt;Node15 -->
<g id="edge17" class="edge"><title>Node2&#45;&gt;Node15</title>
<path fill="none" stroke="midnightblue" d="M1138.29,-179.234C1126.74,-168.805 1107.25,-151.209 1093.14,-138.473"/>
<polygon fill="midnightblue" stroke="midnightblue" points="1095.32,-135.73 1085.56,-131.627 1090.63,-140.926 1095.32,-135.73"/>
</g>
<!-- Node4&#45;&gt;Node5 -->
<g id="edge4" class="edge"><title>Node4&#45;&gt;Node5</title>
<path fill="none" stroke="midnightblue" d="M389.014,-112.444C361.304,-103.32 317.248,-88.8133 286.384,-78.6509"/>
<polygon fill="midnightblue" stroke="midnightblue" points="287.458,-75.3196 276.865,-75.5164 285.268,-81.9684 287.458,-75.3196"/>
</g>
<!-- Node4&#45;&gt;Node10 -->
<g id="edge12" class="edge"><title>Node4&#45;&gt;Node10</title>
<path fill="none" stroke="midnightblue" d="M449.177,-112.375C469.469,-105.609 494.234,-94.2143 510,-76 521.219,-63.0389 526.145,-43.8723 528.308,-29.7078"/>
<polygon fill="midnightblue" stroke="midnightblue" points="531.8,-29.9807 529.518,-19.6347 524.85,-29.1461 531.8,-29.9807"/>
</g>
<!-- Node11 -->
<g id="node11" class="node"><title>Node11</title>
<polygon fill="white" stroke="#bfbfbf" points="378,-0.5 378,-19.5 410,-19.5 410,-0.5 378,-0.5"/>
<text text-anchor="middle" x="394" y="-7.5" font-family="Helvetica,sans-Serif" font-size="10.00">set</text>
</g>
<!-- Node4&#45;&gt;Node11 -->
<g id="edge14" class="edge"><title>Node4&#45;&gt;Node11</title>
<path fill="none" stroke="midnightblue" d="M380.816,-112.493C362.007,-105.877 340.257,-94.5958 329,-76 315.634,-53.9217 345.094,-33.7987 368.607,-21.9712"/>
<polygon fill="midnightblue" stroke="midnightblue" points="370.331,-25.0269 377.859,-17.5715 367.325,-18.7053 370.331,-25.0269"/>
</g>
<!-- Node12 -->
<g id="node12" class="node"><title>Node12</title>
<polygon fill="white" stroke="#bfbfbf" points="338,-56.5 338,-75.5 376,-75.5 376,-56.5 338,-56.5"/>
<text text-anchor="middle" x="357" y="-63.5" font-family="Helvetica,sans-Serif" font-size="10.00">map</text>
</g>
<!-- Node4&#45;&gt;Node12 -->
<g id="edge13" class="edge"><title>Node4&#45;&gt;Node12</title>
<path fill="none" stroke="midnightblue" d="M405.681,-112.324C397.107,-104.341 384.188,-92.3128 373.812,-82.6529"/>
<polygon fill="midnightblue" stroke="midnightblue" points="376.192,-80.0865 366.488,-75.8339 371.422,-85.2098 376.192,-80.0865"/>
</g>
<!-- Node13 -->
<g id="node13" class="node"><title>Node13</title>
<polygon fill="white" stroke="#bfbfbf" points="394,-56.5 394,-75.5 436,-75.5 436,-56.5 394,-56.5"/>
<text text-anchor="middle" x="415" y="-63.5" font-family="Helvetica,sans-Serif" font-size="10.00">utility</text>
</g>
<!-- Node4&#45;&gt;Node13 -->
<g id="edge15" class="edge"><title>Node4&#45;&gt;Node13</title>
<path fill="none" stroke="midnightblue" d="M415,-112.083C415,-105.006 415,-94.8611 415,-85.9865"/>
<polygon fill="midnightblue" stroke="midnightblue" points="418.5,-85.751 415,-75.7511 411.5,-85.7511 418.5,-85.751"/>
</g>
<!-- Node14 -->
<g id="node14" class="node"><title>Node14</title>
<polygon fill="white" stroke="#bfbfbf" points="454.5,-56.5 454.5,-75.5 501.5,-75.5 501.5,-56.5 454.5,-56.5"/>
<text text-anchor="middle" x="478" y="-63.5" font-family="Helvetica,sans-Serif" font-size="10.00">vector</text>
</g>
<!-- Node4&#45;&gt;Node14 -->
<g id="edge16" class="edge"><title>Node4&#45;&gt;Node14</title>
<path fill="none" stroke="midnightblue" d="M425.122,-112.324C434.526,-104.263 448.744,-92.0765 460.069,-82.3695"/>
<polygon fill="midnightblue" stroke="midnightblue" points="462.379,-84.9993 467.694,-75.8339 457.823,-79.6844 462.379,-84.9993"/>
</g>
<!-- Node5&#45;&gt;Node1 -->
<g id="edge11" class="edge"><title>Node5&#45;&gt;Node1</title>
<path fill="none" stroke="midnightblue" d="M263.715,-75.5026C280.129,-89.8686 308.381,-118.68 339,-132 514.716,-208.444 1100.59,-252.933 1306.64,-266.786"/>
<polygon fill="midnightblue" stroke="midnightblue" points="1306.54,-270.287 1316.75,-267.462 1307,-263.303 1306.54,-270.287"/>
</g>
<!-- Node5&#45;&gt;Node6 -->
<g id="edge5" class="edge"><title>Node5&#45;&gt;Node6</title>
<path fill="none" stroke="midnightblue" d="M221.845,-56.4435C190.487,-47.2406 140.469,-32.5617 105.803,-22.3879"/>
<polygon fill="midnightblue" stroke="midnightblue" points="106.6,-18.9742 96.0189,-19.5164 104.629,-25.6909 106.6,-18.9742"/>
</g>
<!-- Node7 -->
<g id="node7" class="node"><title>Node7</title>
<polygon fill="white" stroke="#bfbfbf" points="152,-0.5 152,-19.5 238,-19.5 238,-0.5 152,-0.5"/>
<text text-anchor="middle" x="195" y="-7.5" font-family="Helvetica,sans-Serif" font-size="10.00">carl/util/hash.h</text>
</g>
<!-- Node5&#45;&gt;Node7 -->
<g id="edge6" class="edge"><title>Node5&#45;&gt;Node7</title>
<path fill="none" stroke="midnightblue" d="M242.003,-56.324C233.806,-48.4196 221.494,-36.5482 211.528,-26.9377"/>
<polygon fill="midnightblue" stroke="midnightblue" points="213.789,-24.2558 204.161,-19.8339 208.93,-29.2947 213.789,-24.2558"/>
</g>
<!-- Node8 -->
<g id="node8" class="node"><title>Node8</title>
<polygon fill="white" stroke="#bfbfbf" points="256,-0.5 256,-19.5 360,-19.5 360,-0.5 256,-0.5"/>
<text text-anchor="middle" x="308" y="-7.5" font-family="Helvetica,sans-Serif" font-size="10.00">eigen3/Eigen/Core</text>
</g>
<!-- Node5&#45;&gt;Node8 -->
<g id="edge7" class="edge"><title>Node5&#45;&gt;Node8</title>
<path fill="none" stroke="midnightblue" d="M260.158,-56.324C268.501,-48.4196 281.032,-36.5482 291.177,-26.9377"/>
<polygon fill="midnightblue" stroke="midnightblue" points="293.823,-29.2522 298.675,-19.8339 289.009,-24.1705 293.823,-29.2522"/>
</g>
<!-- Node5&#45;&gt;Node9 -->
<g id="edge8" class="edge"><title>Node5&#45;&gt;Node9</title>
<path fill="none" stroke="midnightblue" d="M281.713,-61.11C296.063,-59.3815 313.388,-57.421 329,-56 551.145,-35.78 815.26,-20.7649 936.345,-14.3825"/>
<polygon fill="midnightblue" stroke="midnightblue" points="936.761,-17.8656 946.563,-13.8465 936.394,-10.8752 936.761,-17.8656"/>
</g>
<!-- Node5&#45;&gt;Node10 -->
<g id="edge9" class="edge"><title>Node5&#45;&gt;Node10</title>
<path fill="none" stroke="midnightblue" d="M281.656,-59.0666C334.584,-48.8224 442.651,-27.9062 497.097,-17.3684"/>
<polygon fill="midnightblue" stroke="midnightblue" points="497.774,-20.8024 506.926,-15.4659 496.443,-13.93 497.774,-20.8024"/>
</g>
<!-- Node5&#45;&gt;Node11 -->
<g id="edge10" class="edge"><title>Node5&#45;&gt;Node11</title>
<path fill="none" stroke="midnightblue" d="M273.659,-56.4435C299.357,-46.7392 341.18,-30.946 368.136,-20.7668"/>
<polygon fill="midnightblue" stroke="midnightblue" points="369.556,-23.972 377.674,-17.1649 367.083,-17.4234 369.556,-23.972"/>
</g>
<!-- Node15&#45;&gt;Node3 -->
<g id="edge18" class="edge"><title>Node15&#45;&gt;Node3</title>
<path fill="none" stroke="midnightblue" d="M1111.24,-112.426C1145.58,-104.017 1199.52,-90.673 1255.19,-76.1732"/>
<polygon fill="midnightblue" stroke="midnightblue" points="1256.07,-79.5595 1264.87,-73.6458 1254.31,-72.7867 1256.07,-79.5595"/>
</g>
<!-- Node16 -->
<g id="node16" class="node"><title>Node16</title>
<polygon fill="white" stroke="#bfbfbf" points="941,-56.5 941,-75.5 1095,-75.5 1095,-56.5 941,-56.5"/>
<text text-anchor="middle" x="1018" y="-63.5" font-family="Helvetica,sans-Serif" font-size="10.00">carl/io/streamingOperators.h</text>
</g>
<!-- Node15&#45;&gt;Node16 -->
<g id="edge19" class="edge"><title>Node15&#45;&gt;Node16</title>
<path fill="none" stroke="midnightblue" d="M1066.68,-112.324C1058.11,-104.341 1045.19,-92.3128 1034.81,-82.6529"/>
<polygon fill="midnightblue" stroke="midnightblue" points="1037.19,-80.0865 1027.49,-75.8339 1032.42,-85.2098 1037.19,-80.0865"/>
</g>
<!-- Node17 -->
<g id="node17" class="node"><title>Node17</title>
<polygon fill="white" stroke="#bfbfbf" points="1113.5,-56.5 1113.5,-75.5 1172.5,-75.5 1172.5,-56.5 1113.5,-56.5"/>
<text text-anchor="middle" x="1143" y="-63.5" font-family="Helvetica,sans-Serif" font-size="10.00">iostream</text>
</g>
<!-- Node15&#45;&gt;Node17 -->
<g id="edge20" class="edge"><title>Node15&#45;&gt;Node17</title>
<path fill="none" stroke="midnightblue" d="M1086.76,-112.324C1096.77,-104.263 1111.89,-92.0765 1123.93,-82.3695"/>
<polygon fill="midnightblue" stroke="midnightblue" points="1126.45,-84.8343 1132.04,-75.8339 1122.06,-79.3841 1126.45,-84.8343"/>
</g>
<!-- Node18 -->
<g id="node18" class="node"><title>Node18</title>
<polygon fill="white" stroke="#bfbfbf" points="1191,-56.5 1191,-75.5 1247,-75.5 1247,-56.5 1191,-56.5"/>
<text text-anchor="middle" x="1219" y="-63.5" font-family="Helvetica,sans-Serif" font-size="10.00">sstream</text>
</g>
<!-- Node15&#45;&gt;Node18 -->
<g id="edge21" class="edge"><title>Node15&#45;&gt;Node18</title>
<path fill="none" stroke="midnightblue" d="M1098.66,-112.444C1122.4,-103.478 1159.91,-89.314 1186.74,-79.1827"/>
<polygon fill="midnightblue" stroke="midnightblue" points="1188.33,-82.3235 1196.45,-75.5164 1185.86,-75.7749 1188.33,-82.3235"/>
</g>
<!-- Node19 -->
<g id="node19" class="node"><title>Node19</title>
<polygon fill="white" stroke="#bfbfbf" points="558,-56.5 558,-75.5 606,-75.5 606,-56.5 558,-56.5"/>
<text text-anchor="middle" x="582" y="-63.5" font-family="Helvetica,sans-Serif" font-size="10.00">thread</text>
</g>
<!-- Node15&#45;&gt;Node19 -->
<g id="edge22" class="edge"><title>Node15&#45;&gt;Node19</title>
<path fill="none" stroke="midnightblue" d="M1019.15,-118.544C933.574,-114.168 766.517,-102.989 615.936,-75.8708"/>
<polygon fill="midnightblue" stroke="midnightblue" points="616.509,-72.4176 606.042,-74.0614 615.25,-79.3034 616.509,-72.4176"/>
</g>
<!-- Node20 -->
<g id="node20" class="node"><title>Node20</title>
<polygon fill="white" stroke="#bfbfbf" points="624.5,-56.5 624.5,-75.5 749.5,-75.5 749.5,-56.5 624.5,-56.5"/>
<text text-anchor="middle" x="687" y="-63.5" font-family="Helvetica,sans-Serif" font-size="10.00">carl/core/carlLogging.h</text>
</g>
<!-- Node15&#45;&gt;Node20 -->
<g id="edge23" class="edge"><title>Node15&#45;&gt;Node20</title>
<path fill="none" stroke="midnightblue" d="M1019.44,-113.148C950.507,-103.579 833.959,-87.4004 758.775,-76.9636"/>
<polygon fill="midnightblue" stroke="midnightblue" points="758.836,-73.4386 748.45,-75.5303 757.873,-80.3721 758.836,-73.4386"/>
</g>
<!-- Node21 -->
<g id="node21" class="node"><title>Node21</title>
<polygon fill="white" stroke="#bfbfbf" points="767.5,-56.5 767.5,-75.5 922.5,-75.5 922.5,-56.5 767.5,-56.5"/>
<text text-anchor="middle" x="845" y="-63.5" font-family="Helvetica,sans-Serif" font-size="10.00">carl/core/carlLoggingHelper.h</text>
</g>
<!-- Node15&#45;&gt;Node21 -->
<g id="edge24" class="edge"><title>Node15&#45;&gt;Node21</title>
<path fill="none" stroke="midnightblue" d="M1039.4,-112.444C999.269,-103.063 934.802,-87.9926 891.215,-77.8036"/>
<polygon fill="midnightblue" stroke="midnightblue" points="891.966,-74.3847 881.431,-75.5164 890.372,-81.2009 891.966,-74.3847"/>
</g>
</g>
</svg>
