<?xml version="1.0" encoding="UTF-8" standalone="no"?>
<!DOCTYPE svg PUBLIC "-//W3C//DTD SVG 1.1//EN"
 "http://www.w3.org/Graphics/SVG/1.1/DTD/svg11.dtd">
<!-- Generated by graphviz version 2.38.0 (20140413.2041)
 -->
<!-- Title: /home/travis/build/hypro/hypro/src/hypro/util/linearOptimization/z3/adaptions_z3_double.cpp Pages: 1 -->
<svg width="163pt" height="117pt"
 viewBox="0.00 0.00 163.00 117.00" xmlns="http://www.w3.org/2000/svg" xmlns:xlink="http://www.w3.org/1999/xlink">
<g id="graph0" class="graph" transform="scale(1 1) rotate(0) translate(4 113)">
<title>/home/travis/build/hypro/hypro/src/hypro/util/linearOptimization/z3/adaptions_z3_double.cpp</title>
<polygon fill="white" stroke="none" points="-4,4 -4,-113 159,-113 159,4 -4,4"/>
<!-- Node1 -->
<g id="node1" class="node"><title>Node1</title>
<polygon fill="#bfbfbf" stroke="black" points="0,-56.5 0,-108.5 155,-108.5 155,-56.5 0,-56.5"/>
<text text-anchor="start" x="8" y="-96.5" font-family="Helvetica,sans-Serif" font-size="10.00">/home/travis/build</text>
<text text-anchor="start" x="8" y="-85.5" font-family="Helvetica,sans-Serif" font-size="10.00">/hypro/hypro/src/hypro</text>
<text text-anchor="start" x="8" y="-74.5" font-family="Helvetica,sans-Serif" font-size="10.00">/util/linearOptimization</text>
<text text-anchor="middle" x="77.5" y="-63.5" font-family="Helvetica,sans-Serif" font-size="10.00">/z3/adaptions_z3_double.cpp</text>
</g>
<!-- Node2 -->
<g id="node2" class="node"><title>Node2</title>
<g id="a_node2"><a xlink:href="flags_8h.html" target="_top" xlink:title="flags.h">
<polygon fill="white" stroke="black" points="53.5,-0.5 53.5,-19.5 101.5,-19.5 101.5,-0.5 53.5,-0.5"/>
<text text-anchor="middle" x="77.5" y="-7.5" font-family="Helvetica,sans-Serif" font-size="10.00">flags.h</text>
</a>
</g>
</g>
<!-- Node1&#45;&gt;Node2 -->
<g id="edge1" class="edge"><title>Node1&#45;&gt;Node2</title>
<path fill="none" stroke="midnightblue" d="M77.5,-56.4458C77.5,-47.7301 77.5,-38.1045 77.5,-29.9641"/>
<polygon fill="midnightblue" stroke="midnightblue" points="81.0001,-29.6954 77.5,-19.6955 74.0001,-29.6955 81.0001,-29.6954"/>
</g>
</g>
</svg>
