<?xml version="1.0" encoding="UTF-8" standalone="no"?>
<!DOCTYPE svg PUBLIC "-//W3C//DTD SVG 1.1//EN"
 "http://www.w3.org/Graphics/SVG/1.1/DTD/svg11.dtd">
<!-- Generated by graphviz version 2.38.0 (20140413.2041)
 -->
<!-- Title: /home/travis/build/hypro/hypro/src/hypro/util/linearOptimization/soplex/adaptions_soplex.h Pages: 1 -->
<svg width="202pt" height="117pt"
 viewBox="0.00 0.00 201.50 117.00" xmlns="http://www.w3.org/2000/svg" xmlns:xlink="http://www.w3.org/1999/xlink">
<g id="graph0" class="graph" transform="scale(1 1) rotate(0) translate(4 113)">
<title>/home/travis/build/hypro/hypro/src/hypro/util/linearOptimization/soplex/adaptions_soplex.h</title>
<polygon fill="white" stroke="none" points="-4,4 -4,-113 197.5,-113 197.5,4 -4,4"/>
<!-- Node1 -->
<g id="node1" class="node"><title>Node1</title>
<polygon fill="#bfbfbf" stroke="black" points="8,-56.5 8,-108.5 154,-108.5 154,-56.5 8,-56.5"/>
<text text-anchor="start" x="16" y="-96.5" font-family="Helvetica,sans-Serif" font-size="10.00">/home/travis/build</text>
<text text-anchor="start" x="16" y="-85.5" font-family="Helvetica,sans-Serif" font-size="10.00">/hypro/hypro/src/hypro</text>
<text text-anchor="start" x="16" y="-74.5" font-family="Helvetica,sans-Serif" font-size="10.00">/util/linearOptimization</text>
<text text-anchor="middle" x="81" y="-63.5" font-family="Helvetica,sans-Serif" font-size="10.00">/soplex/adaptions_soplex.h</text>
</g>
<!-- Node1&#45;&gt;Node1 -->
<g id="edge3" class="edge"><title>Node1&#45;&gt;Node1</title>
<path fill="none" stroke="midnightblue" d="M154.19,-94.6816C164.831,-92.748 172,-88.6875 172,-82.5 172,-78.5361 169.058,-75.4452 164.146,-73.2271"/>
<polygon fill="midnightblue" stroke="midnightblue" points="164.771,-69.7634 154.19,-70.3184 162.808,-76.4825 164.771,-69.7634"/>
</g>
<!-- Node2 -->
<g id="node2" class="node"><title>Node2</title>
<polygon fill="white" stroke="#bfbfbf" points="0,-0.5 0,-19.5 56,-19.5 56,-0.5 0,-0.5"/>
<text text-anchor="middle" x="28" y="-7.5" font-family="Helvetica,sans-Serif" font-size="10.00">soplex.h</text>
</g>
<!-- Node1&#45;&gt;Node2 -->
<g id="edge1" class="edge"><title>Node1&#45;&gt;Node2</title>
<path fill="none" stroke="midnightblue" d="M62.165,-56.4458C55.0102,-46.9287 47.0398,-36.3266 40.5982,-27.758"/>
<polygon fill="midnightblue" stroke="midnightblue" points="43.3438,-25.5855 34.537,-19.6955 37.7485,-29.7919 43.3438,-25.5855"/>
</g>
<!-- Node3 -->
<g id="node3" class="node"><title>Node3</title>
<polygon fill="white" stroke="#bfbfbf" points="74.5,-0.5 74.5,-19.5 193.5,-19.5 193.5,-0.5 74.5,-0.5"/>
<text text-anchor="middle" x="134" y="-7.5" font-family="Helvetica,sans-Serif" font-size="10.00">adaptions_soplex.tpp</text>
</g>
<!-- Node1&#45;&gt;Node3 -->
<g id="edge2" class="edge"><title>Node1&#45;&gt;Node3</title>
<path fill="none" stroke="midnightblue" d="M99.835,-56.4458C106.99,-46.9287 114.96,-36.3266 121.402,-27.758"/>
<polygon fill="midnightblue" stroke="midnightblue" points="124.251,-29.7919 127.463,-19.6955 118.656,-25.5855 124.251,-29.7919"/>
</g>
</g>
</svg>
