<?xml version="1.0" encoding="UTF-8" standalone="no"?>
<!DOCTYPE svg PUBLIC "-//W3C//DTD SVG 1.1//EN"
 "http://www.w3.org/Graphics/SVG/1.1/DTD/svg11.dtd">
<!-- Generated by graphviz version 2.38.0 (20140413.2041)
 -->
<!-- Title: /home/travis/build/hypro/hypro/src/hypro/datastructures/HybridAutomaton/flow/affine.h Pages: 1 -->
<svg width="1767pt" height="430pt"
 viewBox="0.00 0.00 1766.50 430.00" xmlns="http://www.w3.org/2000/svg" xmlns:xlink="http://www.w3.org/1999/xlink">
<g id="graph0" class="graph" transform="scale(1 1) rotate(0) translate(4 426)">
<title>/home/travis/build/hypro/hypro/src/hypro/datastructures/HybridAutomaton/flow/affine.h</title>
<polygon fill="white" stroke="none" points="-4,4 -4,-426 1762.5,-426 1762.5,4 -4,4"/>
<!-- Node1 -->
<g id="node1" class="node"><title>Node1</title>
<polygon fill="#bfbfbf" stroke="black" points="114,-369.5 114,-421.5 292,-421.5 292,-369.5 114,-369.5"/>
<text text-anchor="start" x="122" y="-409.5" font-family="Helvetica,sans-Serif" font-size="10.00">/home/travis/build</text>
<text text-anchor="start" x="122" y="-398.5" font-family="Helvetica,sans-Serif" font-size="10.00">/hypro/hypro/src/hypro</text>
<text text-anchor="start" x="122" y="-387.5" font-family="Helvetica,sans-Serif" font-size="10.00">/datastructures/HybridAutomaton</text>
<text text-anchor="middle" x="203" y="-376.5" font-family="Helvetica,sans-Serif" font-size="10.00">/flow/affine.h</text>
</g>
<!-- Node2 -->
<g id="node2" class="node"><title>Node2</title>
<g id="a_node2"><a xlink:href="types_8h.html" target="_top" xlink:title="../../../types.h">
<polygon fill="white" stroke="black" points="367.5,-257.5 367.5,-276.5 446.5,-276.5 446.5,-257.5 367.5,-257.5"/>
<text text-anchor="middle" x="407" y="-264.5" font-family="Helvetica,sans-Serif" font-size="10.00">../../../types.h</text>
</a>
</g>
</g>
<!-- Node1&#45;&gt;Node2 -->
<g id="edge1" class="edge"><title>Node1&#45;&gt;Node2</title>
<path fill="none" stroke="midnightblue" d="M243.792,-369.205C286.092,-342.975 350.679,-302.925 384.525,-281.937"/>
<polygon fill="midnightblue" stroke="midnightblue" points="386.558,-284.794 393.212,-276.55 382.869,-278.845 386.558,-284.794"/>
</g>
<!-- Node7 -->
<g id="node7" class="node"><title>Node7</title>
<polygon fill="white" stroke="#bfbfbf" points="53,-0.5 53,-19.5 99,-19.5 99,-0.5 53,-0.5"/>
<text text-anchor="middle" x="76" y="-7.5" font-family="Helvetica,sans-Serif" font-size="10.00">iosfwd</text>
</g>
<!-- Node1&#45;&gt;Node7 -->
<g id="edge38" class="edge"><title>Node1&#45;&gt;Node7</title>
<path fill="none" stroke="midnightblue" d="M113.961,-375.364C59.4177,-357.822 0,-325.513 0,-268 0,-268 0,-268 0,-132 0,-88.4754 35.699,-47.7746 58.1634,-26.4715"/>
<polygon fill="midnightblue" stroke="midnightblue" points="60.7341,-28.8634 65.7503,-19.5313 56.0094,-23.6984 60.7341,-28.8634"/>
</g>
<!-- Node28 -->
<g id="node28" class="node"><title>Node28</title>
<g id="a_node28"><a xlink:href="linear_8h.html" target="_top" xlink:title="linear.h">
<polygon fill="white" stroke="black" points="177.5,-313.5 177.5,-332.5 228.5,-332.5 228.5,-313.5 177.5,-313.5"/>
<text text-anchor="middle" x="203" y="-320.5" font-family="Helvetica,sans-Serif" font-size="10.00">linear.h</text>
</a>
</g>
</g>
<!-- Node1&#45;&gt;Node28 -->
<g id="edge35" class="edge"><title>Node1&#45;&gt;Node28</title>
<path fill="none" stroke="midnightblue" d="M203,-369.446C203,-360.73 203,-351.104 203,-342.964"/>
<polygon fill="midnightblue" stroke="midnightblue" points="206.5,-342.695 203,-332.695 199.5,-342.696 206.5,-342.695"/>
</g>
<!-- Node3 -->
<g id="node3" class="node"><title>Node3</title>
<polygon fill="white" stroke="#bfbfbf" points="142,-123.5 142,-142.5 276,-142.5 276,-123.5 142,-123.5"/>
<text text-anchor="middle" x="209" y="-130.5" font-family="Helvetica,sans-Serif" font-size="10.00">carl/numbers/numbers.h</text>
</g>
<!-- Node2&#45;&gt;Node3 -->
<g id="edge2" class="edge"><title>Node2&#45;&gt;Node3</title>
<path fill="none" stroke="midnightblue" d="M394.009,-257.339C360.575,-235.05 271.313,-175.542 230.231,-148.154"/>
<polygon fill="midnightblue" stroke="midnightblue" points="232.044,-145.156 221.782,-142.521 228.161,-150.98 232.044,-145.156"/>
</g>
<!-- Node4 -->
<g id="node4" class="node"><title>Node4</title>
<polygon fill="white" stroke="#bfbfbf" points="482,-196 482,-215 568,-215 568,-196 482,-196"/>
<text text-anchor="middle" x="525" y="-203" font-family="Helvetica,sans-Serif" font-size="10.00">carl/util/hash.h</text>
</g>
<!-- Node2&#45;&gt;Node4 -->
<g id="edge3" class="edge"><title>Node2&#45;&gt;Node4</title>
<path fill="none" stroke="midnightblue" d="M423.907,-257.475C443.534,-247.578 476.131,-231.142 498.99,-219.615"/>
<polygon fill="midnightblue" stroke="midnightblue" points="500.772,-222.637 508.125,-215.009 497.62,-216.386 500.772,-222.637"/>
</g>
<!-- Node5 -->
<g id="node5" class="node"><title>Node5</title>
<polygon fill="white" stroke="#bfbfbf" points="586,-196 586,-215 690,-215 690,-196 586,-196"/>
<text text-anchor="middle" x="638" y="-203" font-family="Helvetica,sans-Serif" font-size="10.00">eigen3/Eigen/Core</text>
</g>
<!-- Node2&#45;&gt;Node5 -->
<g id="edge4" class="edge"><title>Node2&#45;&gt;Node5</title>
<path fill="none" stroke="midnightblue" d="M440.097,-257.475C480.922,-246.959 550.408,-229.062 595.239,-217.514"/>
<polygon fill="midnightblue" stroke="midnightblue" points="596.154,-220.893 604.965,-215.009 594.408,-214.114 596.154,-220.893"/>
</g>
<!-- Node6 -->
<g id="node6" class="node"><title>Node6</title>
<polygon fill="white" stroke="#bfbfbf" points="994,-123.5 994,-142.5 1106,-142.5 1106,-123.5 994,-123.5"/>
<text text-anchor="middle" x="1050" y="-130.5" font-family="Helvetica,sans-Serif" font-size="10.00">eigen3/Eigen/Dense</text>
</g>
<!-- Node2&#45;&gt;Node6 -->
<g id="edge5" class="edge"><title>Node2&#45;&gt;Node6</title>
<path fill="none" stroke="midnightblue" d="M446.841,-260.853C503.21,-253.346 609.368,-238.379 699,-221 827.166,-196.15 858.981,-188.106 985,-154 994.374,-151.463 1004.43,-148.492 1013.77,-145.627"/>
<polygon fill="midnightblue" stroke="midnightblue" points="1015.04,-148.897 1023.55,-142.586 1012.97,-142.212 1015.04,-148.897"/>
</g>
<!-- Node2&#45;&gt;Node7 -->
<g id="edge6" class="edge"><title>Node2&#45;&gt;Node7</title>
<path fill="none" stroke="midnightblue" d="M367.408,-263.425C303.715,-258.587 182.176,-246.266 148,-221 85.8279,-175.037 76.8821,-72.1556 75.9216,-29.7853"/>
<polygon fill="midnightblue" stroke="midnightblue" points="79.4212,-29.7131 75.8239,-19.7477 72.4215,-29.7813 79.4212,-29.7131"/>
</g>
<!-- Node8 -->
<g id="node8" class="node"><title>Node8</title>
<polygon fill="white" stroke="#bfbfbf" points="844,-0.5 844,-19.5 876,-19.5 876,-0.5 844,-0.5"/>
<text text-anchor="middle" x="860" y="-7.5" font-family="Helvetica,sans-Serif" font-size="10.00">set</text>
</g>
<!-- Node2&#45;&gt;Node8 -->
<g id="edge7" class="edge"><title>Node2&#45;&gt;Node8</title>
<path fill="none" stroke="midnightblue" d="M446.747,-266.271C583.343,-266.265 1029.81,-258.157 1115,-154 1183.13,-70.695 963.484,-27.2883 886.017,-14.8344"/>
<polygon fill="midnightblue" stroke="midnightblue" points="886.494,-11.3666 876.074,-13.2816 885.414,-18.2828 886.494,-11.3666"/>
</g>
<!-- Node9 -->
<g id="node9" class="node"><title>Node9</title>
<g id="a_node9"><a xlink:href="adaptions__eigen_8h.html" target="_top" xlink:title="util/adaptions_eigen\l/adaptions_eigen.h">
<polygon fill="white" stroke="black" points="350.5,-190.5 350.5,-220.5 463.5,-220.5 463.5,-190.5 350.5,-190.5"/>
<text text-anchor="start" x="358.5" y="-208.5" font-family="Helvetica,sans-Serif" font-size="10.00">util/adaptions_eigen</text>
<text text-anchor="middle" x="407" y="-197.5" font-family="Helvetica,sans-Serif" font-size="10.00">/adaptions_eigen.h</text>
</a>
</g>
</g>
<!-- Node2&#45;&gt;Node9 -->
<g id="edge8" class="edge"><title>Node2&#45;&gt;Node9</title>
<path fill="none" stroke="midnightblue" d="M402.099,-257.475C400.572,-250.471 399.991,-240.192 400.356,-230.696"/>
<polygon fill="midnightblue" stroke="midnightblue" points="403.861,-230.77 401.17,-220.523 396.883,-230.212 403.861,-230.77"/>
</g>
<!-- Node9&#45;&gt;Node2 -->
<g id="edge26" class="edge"><title>Node9&#45;&gt;Node2</title>
<path fill="none" stroke="midnightblue" d="M412.83,-220.523C413.873,-228.586 414.029,-238.813 413.299,-247.526"/>
<polygon fill="midnightblue" stroke="midnightblue" points="409.827,-247.085 411.901,-257.475 416.759,-248.06 409.827,-247.085"/>
</g>
<!-- Node9&#45;&gt;Node3 -->
<g id="edge28" class="edge"><title>Node9&#45;&gt;Node3</title>
<path fill="none" stroke="midnightblue" d="M367.408,-190.403C330.841,-177.383 277.116,-158.253 242.594,-145.961"/>
<polygon fill="midnightblue" stroke="midnightblue" points="243.561,-142.591 232.967,-142.534 241.213,-149.185 243.561,-142.591"/>
</g>
<!-- Node9&#45;&gt;Node6 -->
<g id="edge29" class="edge"><title>Node9&#45;&gt;Node6</title>
<path fill="none" stroke="midnightblue" d="M463.785,-191.473C466.894,-190.932 469.981,-190.435 473,-190 698.781,-157.439 760.748,-195.815 985,-154 995.62,-152.02 1006.95,-148.9 1017.13,-145.708"/>
<polygon fill="midnightblue" stroke="midnightblue" points="1018.44,-148.964 1026.86,-142.532 1016.26,-142.31 1018.44,-148.964"/>
</g>
<!-- Node9&#45;&gt;Node7 -->
<g id="edge32" class="edge"><title>Node9&#45;&gt;Node7</title>
<path fill="none" stroke="midnightblue" d="M379.178,-190.476C362.138,-181.249 340.347,-168.268 323,-154 303.559,-138.009 305.15,-127.089 285,-112 228.589,-69.7569 151.719,-38.0963 108.666,-22.2726"/>
<polygon fill="midnightblue" stroke="midnightblue" points="109.841,-18.9756 99.2463,-18.8656 107.46,-25.5583 109.841,-18.9756"/>
</g>
<!-- Node10 -->
<g id="node10" class="node"><title>Node10</title>
<g id="a_node10"><a xlink:href="config_8h.html" target="_top" xlink:title="../../config.h">
<polygon fill="white" stroke="black" points="904,-123.5 904,-142.5 976,-142.5 976,-123.5 904,-123.5"/>
<text text-anchor="middle" x="940" y="-130.5" font-family="Helvetica,sans-Serif" font-size="10.00">../../config.h</text>
</a>
</g>
</g>
<!-- Node9&#45;&gt;Node10 -->
<g id="edge9" class="edge"><title>Node9&#45;&gt;Node10</title>
<path fill="none" stroke="midnightblue" d="M463.793,-191.527C466.9,-190.972 469.984,-190.458 473,-190 659.104,-161.743 712.693,-200.874 895,-154 901.629,-152.296 908.513,-149.701 914.845,-146.94"/>
<polygon fill="midnightblue" stroke="midnightblue" points="916.638,-149.966 924.222,-142.568 913.68,-143.621 916.638,-149.966"/>
</g>
<!-- Node23 -->
<g id="node23" class="node"><title>Node23</title>
<g id="a_node23"><a xlink:href="transformation_8h.html" target="_top" xlink:title="transformation.h">
<polygon fill="white" stroke="black" points="550.5,-123.5 550.5,-142.5 647.5,-142.5 647.5,-123.5 550.5,-123.5"/>
<text text-anchor="middle" x="599" y="-130.5" font-family="Helvetica,sans-Serif" font-size="10.00">transformation.h</text>
</a>
</g>
</g>
<!-- Node9&#45;&gt;Node23 -->
<g id="edge27" class="edge"><title>Node9&#45;&gt;Node23</title>
<path fill="none" stroke="midnightblue" d="M445.393,-190.403C480.699,-177.439 532.502,-158.417 565.992,-146.12"/>
<polygon fill="midnightblue" stroke="midnightblue" points="567.579,-149.266 575.76,-142.534 565.166,-142.695 567.579,-149.266"/>
</g>
<!-- Node24 -->
<g id="node24" class="node"><title>Node24</title>
<polygon fill="white" stroke="#bfbfbf" points="666,-123.5 666,-142.5 804,-142.5 804,-123.5 666,-123.5"/>
<text text-anchor="middle" x="735" y="-130.5" font-family="Helvetica,sans-Serif" font-size="10.00">eigen3/Eigen/Eigenvalues</text>
</g>
<!-- Node9&#45;&gt;Node24 -->
<g id="edge30" class="edge"><title>Node9&#45;&gt;Node24</title>
<path fill="none" stroke="midnightblue" d="M463.507,-191.996C466.717,-191.313 469.899,-190.644 473,-190 554.588,-173.059 575.719,-172.356 657,-154 668.812,-151.332 681.562,-148.18 693.261,-145.177"/>
<polygon fill="midnightblue" stroke="midnightblue" points="694.423,-148.491 703.223,-142.591 692.664,-141.716 694.423,-148.491"/>
</g>
<!-- Node25 -->
<g id="node25" class="node"><title>Node25</title>
<polygon fill="white" stroke="#bfbfbf" points="822.5,-123.5 822.5,-142.5 885.5,-142.5 885.5,-123.5 822.5,-123.5"/>
<text text-anchor="middle" x="854" y="-130.5" font-family="Helvetica,sans-Serif" font-size="10.00">functional</text>
</g>
<!-- Node9&#45;&gt;Node25 -->
<g id="edge31" class="edge"><title>Node9&#45;&gt;Node25</title>
<path fill="none" stroke="midnightblue" d="M463.805,-191.601C466.909,-191.028 469.989,-190.489 473,-190 622.994,-165.659 666.948,-195.945 813,-154 818.949,-152.291 825.087,-149.762 830.745,-147.072"/>
<polygon fill="midnightblue" stroke="midnightblue" points="832.373,-150.17 839.693,-142.51 829.194,-143.934 832.373,-150.17"/>
</g>
<!-- Node26 -->
<g id="node26" class="node"><title>Node26</title>
<polygon fill="white" stroke="#bfbfbf" points="332,-123.5 332,-142.5 374,-142.5 374,-123.5 332,-123.5"/>
<text text-anchor="middle" x="353" y="-130.5" font-family="Helvetica,sans-Serif" font-size="10.00">limits</text>
</g>
<!-- Node9&#45;&gt;Node26 -->
<g id="edge33" class="edge"><title>Node9&#45;&gt;Node26</title>
<path fill="none" stroke="midnightblue" d="M396.072,-190.233C387.428,-178.947 375.327,-163.15 366.152,-151.171"/>
<polygon fill="midnightblue" stroke="midnightblue" points="368.671,-148.704 359.812,-142.893 363.114,-152.96 368.671,-148.704"/>
</g>
<!-- Node27 -->
<g id="node27" class="node"><title>Node27</title>
<polygon fill="white" stroke="#bfbfbf" points="392,-112.5 392,-153.5 532,-153.5 532,-112.5 392,-112.5"/>
<text text-anchor="start" x="400" y="-141.5" font-family="Helvetica,sans-Serif" font-size="10.00">eigen3/unsupported</text>
<text text-anchor="start" x="400" y="-130.5" font-family="Helvetica,sans-Serif" font-size="10.00">/Eigen/src/MatrixFunctions</text>
<text text-anchor="middle" x="462" y="-119.5" font-family="Helvetica,sans-Serif" font-size="10.00">/MatrixExponential.h</text>
</g>
<!-- Node9&#45;&gt;Node27 -->
<g id="edge34" class="edge"><title>Node9&#45;&gt;Node27</title>
<path fill="none" stroke="midnightblue" d="M418.13,-190.233C424.555,-181.998 432.854,-171.359 440.502,-161.556"/>
<polygon fill="midnightblue" stroke="midnightblue" points="443.327,-163.626 446.718,-153.588 437.808,-159.32 443.327,-163.626"/>
</g>
<!-- Node11 -->
<g id="node11" class="node"><title>Node11</title>
<g id="a_node11"><a xlink:href="flags_8h.html" target="_top" xlink:title="flags.h">
<polygon fill="white" stroke="black" points="1004,-0.5 1004,-19.5 1052,-19.5 1052,-0.5 1004,-0.5"/>
<text text-anchor="middle" x="1028" y="-7.5" font-family="Helvetica,sans-Serif" font-size="10.00">flags.h</text>
</a>
</g>
</g>
<!-- Node10&#45;&gt;Node11 -->
<g id="edge10" class="edge"><title>Node10&#45;&gt;Node11</title>
<path fill="none" stroke="midnightblue" d="M946.329,-123.298C960.853,-103.327 996.785,-53.9212 1015.78,-27.8036"/>
<polygon fill="midnightblue" stroke="midnightblue" points="1018.68,-29.7692 1021.73,-19.6232 1013.02,-25.6519 1018.68,-29.7692"/>
</g>
<!-- Node12 -->
<g id="node12" class="node"><title>Node12</title>
<g id="a_node12"><a xlink:href="util_2convenienceOperators_8h.html" target="_top" xlink:title="util/convenienceOperators.h">
<polygon fill="white" stroke="black" points="443.5,-56.5 443.5,-75.5 594.5,-75.5 594.5,-56.5 443.5,-56.5"/>
<text text-anchor="middle" x="519" y="-63.5" font-family="Helvetica,sans-Serif" font-size="10.00">util/convenienceOperators.h</text>
</a>
</g>
</g>
<!-- Node10&#45;&gt;Node12 -->
<g id="edge11" class="edge"><title>Node10&#45;&gt;Node12</title>
<path fill="none" stroke="midnightblue" d="M923.768,-123.369C915.397,-119.288 904.891,-114.723 895,-112 797.79,-85.2355 682.108,-74.3888 604.975,-69.9935"/>
<polygon fill="midnightblue" stroke="midnightblue" points="605,-66.4898 594.824,-69.4397 604.618,-73.4794 605,-66.4898"/>
</g>
<!-- Node16 -->
<g id="node16" class="node"><title>Node16</title>
<g id="a_node16"><a xlink:href="Logger_8h.html" target="_top" xlink:title="util/logging/Logger.h">
<polygon fill="white" stroke="black" points="1253.5,-56.5 1253.5,-75.5 1366.5,-75.5 1366.5,-56.5 1253.5,-56.5"/>
<text text-anchor="middle" x="1310" y="-63.5" font-family="Helvetica,sans-Serif" font-size="10.00">util/logging/Logger.h</text>
</a>
</g>
</g>
<!-- Node10&#45;&gt;Node16 -->
<g id="edge18" class="edge"><title>Node10&#45;&gt;Node16</title>
<path fill="none" stroke="midnightblue" d="M956.254,-123.447C964.63,-119.385 975.134,-114.815 985,-112 1032.15,-98.55 1162.83,-82.8416 1243.4,-73.9933"/>
<polygon fill="midnightblue" stroke="midnightblue" points="1243.89,-77.4607 1253.45,-72.8963 1243.13,-70.502 1243.89,-77.4607"/>
</g>
<!-- Node12&#45;&gt;Node2 -->
<g id="edge12" class="edge"><title>Node12&#45;&gt;Node2</title>
<path fill="none" stroke="midnightblue" d="M443.364,-70.4998C336.834,-76.2159 153.243,-89.26 133,-112 61.8636,-191.911 260.404,-239.749 357.273,-257.769"/>
<polygon fill="midnightblue" stroke="midnightblue" points="356.694,-261.221 367.159,-259.57 357.949,-254.334 356.694,-261.221"/>
</g>
<!-- Node12&#45;&gt;Node7 -->
<g id="edge13" class="edge"><title>Node12&#45;&gt;Node7</title>
<path fill="none" stroke="midnightblue" d="M448.805,-56.4435C352.036,-44.6478 181.464,-23.8557 109.512,-15.085"/>
<polygon fill="midnightblue" stroke="midnightblue" points="109.584,-11.5679 99.2339,-13.8321 108.737,-18.5165 109.584,-11.5679"/>
</g>
<!-- Node12&#45;&gt;Node8 -->
<g id="edge15" class="edge"><title>Node12&#45;&gt;Node8</title>
<path fill="none" stroke="midnightblue" d="M573.032,-56.4435C647.33,-44.6779 778.148,-23.9619 833.778,-15.1524"/>
<polygon fill="midnightblue" stroke="midnightblue" points="834.533,-18.5766 843.863,-13.5555 833.438,-11.6627 834.533,-18.5766"/>
</g>
<!-- Node13 -->
<g id="node13" class="node"><title>Node13</title>
<polygon fill="white" stroke="#bfbfbf" points="442,-0.5 442,-19.5 480,-19.5 480,-0.5 442,-0.5"/>
<text text-anchor="middle" x="461" y="-7.5" font-family="Helvetica,sans-Serif" font-size="10.00">map</text>
</g>
<!-- Node12&#45;&gt;Node13 -->
<g id="edge14" class="edge"><title>Node12&#45;&gt;Node13</title>
<path fill="none" stroke="midnightblue" d="M509.681,-56.324C501.107,-48.3414 488.188,-36.3128 477.812,-26.6529"/>
<polygon fill="midnightblue" stroke="midnightblue" points="480.192,-24.0865 470.488,-19.8339 475.422,-29.2098 480.192,-24.0865"/>
</g>
<!-- Node14 -->
<g id="node14" class="node"><title>Node14</title>
<polygon fill="white" stroke="#bfbfbf" points="498,-0.5 498,-19.5 540,-19.5 540,-0.5 498,-0.5"/>
<text text-anchor="middle" x="519" y="-7.5" font-family="Helvetica,sans-Serif" font-size="10.00">utility</text>
</g>
<!-- Node12&#45;&gt;Node14 -->
<g id="edge16" class="edge"><title>Node12&#45;&gt;Node14</title>
<path fill="none" stroke="midnightblue" d="M519,-56.083C519,-49.0059 519,-38.8611 519,-29.9865"/>
<polygon fill="midnightblue" stroke="midnightblue" points="522.5,-29.751 519,-19.7511 515.5,-29.7511 522.5,-29.751"/>
</g>
<!-- Node15 -->
<g id="node15" class="node"><title>Node15</title>
<polygon fill="white" stroke="#bfbfbf" points="558.5,-0.5 558.5,-19.5 605.5,-19.5 605.5,-0.5 558.5,-0.5"/>
<text text-anchor="middle" x="582" y="-7.5" font-family="Helvetica,sans-Serif" font-size="10.00">vector</text>
</g>
<!-- Node12&#45;&gt;Node15 -->
<g id="edge17" class="edge"><title>Node12&#45;&gt;Node15</title>
<path fill="none" stroke="midnightblue" d="M529.122,-56.324C538.526,-48.2631 552.744,-36.0765 564.069,-26.3695"/>
<polygon fill="midnightblue" stroke="midnightblue" points="566.379,-28.9993 571.694,-19.8339 561.823,-23.6844 566.379,-28.9993"/>
</g>
<!-- Node16&#45;&gt;Node11 -->
<g id="edge19" class="edge"><title>Node16&#45;&gt;Node11</title>
<path fill="none" stroke="midnightblue" d="M1254.83,-56.4513C1206.46,-48.6355 1134.06,-36.1622 1062.22,-20.1186"/>
<polygon fill="midnightblue" stroke="midnightblue" points="1062.61,-16.6197 1052.09,-17.8312 1061.07,-23.4478 1062.61,-16.6197"/>
</g>
<!-- Node17 -->
<g id="node17" class="node"><title>Node17</title>
<polygon fill="white" stroke="#bfbfbf" points="1070,-0.5 1070,-19.5 1224,-19.5 1224,-0.5 1070,-0.5"/>
<text text-anchor="middle" x="1147" y="-7.5" font-family="Helvetica,sans-Serif" font-size="10.00">carl/io/streamingOperators.h</text>
</g>
<!-- Node16&#45;&gt;Node17 -->
<g id="edge20" class="edge"><title>Node16&#45;&gt;Node17</title>
<path fill="none" stroke="midnightblue" d="M1284.17,-56.4435C1256.75,-47.3591 1213.22,-32.9388 1182.57,-22.7831"/>
<polygon fill="midnightblue" stroke="midnightblue" points="1183.3,-19.3389 1172.71,-19.5164 1181.1,-25.9837 1183.3,-19.3389"/>
</g>
<!-- Node18 -->
<g id="node18" class="node"><title>Node18</title>
<polygon fill="white" stroke="#bfbfbf" points="1242.5,-0.5 1242.5,-19.5 1301.5,-19.5 1301.5,-0.5 1242.5,-0.5"/>
<text text-anchor="middle" x="1272" y="-7.5" font-family="Helvetica,sans-Serif" font-size="10.00">iostream</text>
</g>
<!-- Node16&#45;&gt;Node18 -->
<g id="edge21" class="edge"><title>Node16&#45;&gt;Node18</title>
<path fill="none" stroke="midnightblue" d="M1303.73,-56.083C1298.36,-48.4554 1290.48,-37.2645 1283.92,-27.9408"/>
<polygon fill="midnightblue" stroke="midnightblue" points="1286.78,-25.9149 1278.16,-19.7511 1281.05,-29.9434 1286.78,-25.9149"/>
</g>
<!-- Node19 -->
<g id="node19" class="node"><title>Node19</title>
<polygon fill="white" stroke="#bfbfbf" points="1320,-0.5 1320,-19.5 1376,-19.5 1376,-0.5 1320,-0.5"/>
<text text-anchor="middle" x="1348" y="-7.5" font-family="Helvetica,sans-Serif" font-size="10.00">sstream</text>
</g>
<!-- Node16&#45;&gt;Node19 -->
<g id="edge22" class="edge"><title>Node16&#45;&gt;Node19</title>
<path fill="none" stroke="midnightblue" d="M1316.27,-56.083C1321.64,-48.4554 1329.52,-37.2645 1336.08,-27.9408"/>
<polygon fill="midnightblue" stroke="midnightblue" points="1338.95,-29.9434 1341.84,-19.7511 1333.22,-25.9149 1338.95,-29.9434"/>
</g>
<!-- Node20 -->
<g id="node20" class="node"><title>Node20</title>
<polygon fill="white" stroke="#bfbfbf" points="1394,-0.5 1394,-19.5 1442,-19.5 1442,-0.5 1394,-0.5"/>
<text text-anchor="middle" x="1418" y="-7.5" font-family="Helvetica,sans-Serif" font-size="10.00">thread</text>
</g>
<!-- Node16&#45;&gt;Node20 -->
<g id="edge23" class="edge"><title>Node16&#45;&gt;Node20</title>
<path fill="none" stroke="midnightblue" d="M1327.35,-56.324C1344.67,-47.6641 1371.52,-34.2424 1391.5,-24.249"/>
<polygon fill="midnightblue" stroke="midnightblue" points="1393.31,-27.2572 1400.69,-19.6545 1390.18,-20.9962 1393.31,-27.2572"/>
</g>
<!-- Node21 -->
<g id="node21" class="node"><title>Node21</title>
<polygon fill="white" stroke="#bfbfbf" points="1460.5,-0.5 1460.5,-19.5 1585.5,-19.5 1585.5,-0.5 1460.5,-0.5"/>
<text text-anchor="middle" x="1523" y="-7.5" font-family="Helvetica,sans-Serif" font-size="10.00">carl/core/carlLogging.h</text>
</g>
<!-- Node16&#45;&gt;Node21 -->
<g id="edge24" class="edge"><title>Node16&#45;&gt;Node21</title>
<path fill="none" stroke="midnightblue" d="M1343.75,-56.4435C1380.52,-47.1221 1439.45,-32.1828 1479.62,-21.9972"/>
<polygon fill="midnightblue" stroke="midnightblue" points="1480.57,-25.3666 1489.41,-19.5164 1478.85,-18.5813 1480.57,-25.3666"/>
</g>
<!-- Node22 -->
<g id="node22" class="node"><title>Node22</title>
<polygon fill="white" stroke="#bfbfbf" points="1603.5,-0.5 1603.5,-19.5 1758.5,-19.5 1758.5,-0.5 1603.5,-0.5"/>
<text text-anchor="middle" x="1681" y="-7.5" font-family="Helvetica,sans-Serif" font-size="10.00">carl/core/carlLoggingHelper.h</text>
</g>
<!-- Node16&#45;&gt;Node22 -->
<g id="edge25" class="edge"><title>Node16&#45;&gt;Node22</title>
<path fill="none" stroke="midnightblue" d="M1366.75,-56.7398C1432.72,-47.1372 1541.57,-31.2944 1612.27,-21.0034"/>
<polygon fill="midnightblue" stroke="midnightblue" points="1613.03,-24.4307 1622.42,-19.5268 1612.02,-17.5037 1613.03,-24.4307"/>
</g>
<!-- Node28&#45;&gt;Node2 -->
<g id="edge36" class="edge"><title>Node28&#45;&gt;Node2</title>
<path fill="none" stroke="midnightblue" d="M228.837,-315.161C263.107,-306.089 324.028,-289.963 364.965,-279.127"/>
<polygon fill="midnightblue" stroke="midnightblue" points="365.887,-282.504 374.658,-276.561 364.095,-275.737 365.887,-282.504"/>
</g>
<!-- Node28&#45;&gt;Node7 -->
<g id="edge37" class="edge"><title>Node28&#45;&gt;Node7</title>
<path fill="none" stroke="midnightblue" d="M177.219,-316.541C130.812,-305.037 38,-273.636 38,-206.5 38,-206.5 38,-206.5 38,-132 38,-93.8116 55.4417,-51.8296 66.692,-28.7224"/>
<polygon fill="midnightblue" stroke="midnightblue" points="69.9579,-30.0195 71.3405,-19.5153 63.7091,-26.8646 69.9579,-30.0195"/>
</g>
</g>
</svg>
