<?xml version="1.0" encoding="UTF-8" standalone="no"?>
<!DOCTYPE svg PUBLIC "-//W3C//DTD SVG 1.1//EN"
 "http://www.w3.org/Graphics/SVG/1.1/DTD/svg11.dtd">
<!-- Generated by graphviz version 2.38.0 (20140413.2041)
 -->
<!-- Title: /home/travis/build/hypro/hypro/src/hypro/representations/SupportFunction/BallSupportFunction.h Pages: 1 -->
<svg width="1744pt" height="441pt"
 viewBox="0.00 0.00 1743.50 441.00" xmlns="http://www.w3.org/2000/svg" xmlns:xlink="http://www.w3.org/1999/xlink">
<g id="graph0" class="graph" transform="scale(1 1) rotate(0) translate(4 437)">
<title>/home/travis/build/hypro/hypro/src/hypro/representations/SupportFunction/BallSupportFunction.h</title>
<polygon fill="white" stroke="none" points="-4,4 -4,-437 1739.5,-437 1739.5,4 -4,4"/>
<!-- Node1 -->
<g id="node1" class="node"><title>Node1</title>
<polygon fill="#bfbfbf" stroke="black" points="878,-380.5 878,-432.5 1054,-432.5 1054,-380.5 878,-380.5"/>
<text text-anchor="start" x="886" y="-420.5" font-family="Helvetica,sans-Serif" font-size="10.00">/home/travis/build</text>
<text text-anchor="start" x="886" y="-409.5" font-family="Helvetica,sans-Serif" font-size="10.00">/hypro/hypro/src/hypro</text>
<text text-anchor="start" x="886" y="-398.5" font-family="Helvetica,sans-Serif" font-size="10.00">/representations/SupportFunction</text>
<text text-anchor="middle" x="966" y="-387.5" font-family="Helvetica,sans-Serif" font-size="10.00">/BallSupportFunction.h</text>
</g>
<!-- Node2 -->
<g id="node2" class="node"><title>Node2</title>
<g id="a_node2"><a xlink:href="config_8h.html" target="_top" xlink:title="../../config.h">
<polygon fill="white" stroke="black" points="954,-257.5 954,-276.5 1026,-276.5 1026,-257.5 954,-257.5"/>
<text text-anchor="middle" x="990" y="-264.5" font-family="Helvetica,sans-Serif" font-size="10.00">../../config.h</text>
</a>
</g>
</g>
<!-- Node1&#45;&gt;Node2 -->
<g id="edge1" class="edge"><title>Node1&#45;&gt;Node2</title>
<path fill="none" stroke="midnightblue" d="M970.402,-380.28C975.122,-353.241 982.505,-310.94 986.733,-286.716"/>
<polygon fill="midnightblue" stroke="midnightblue" points="990.21,-287.152 988.482,-276.699 983.314,-285.948 990.21,-287.152"/>
</g>
<!-- Node28 -->
<g id="node28" class="node"><title>Node28</title>
<g id="a_node28"><a xlink:href="Point_8h.html" target="_top" xlink:title="../../datastructures\l/Point.h">
<polygon fill="white" stroke="black" points="627.5,-313.5 627.5,-343.5 732.5,-343.5 732.5,-313.5 627.5,-313.5"/>
<text text-anchor="start" x="635.5" y="-331.5" font-family="Helvetica,sans-Serif" font-size="10.00">../../datastructures</text>
<text text-anchor="middle" x="680" y="-320.5" font-family="Helvetica,sans-Serif" font-size="10.00">/Point.h</text>
</a>
</g>
</g>
<!-- Node1&#45;&gt;Node28 -->
<g id="edge35" class="edge"><title>Node1&#45;&gt;Node28</title>
<path fill="none" stroke="midnightblue" d="M877.857,-382.077C834.13,-370.458 782.336,-356.694 742.711,-346.164"/>
<polygon fill="midnightblue" stroke="midnightblue" points="743.475,-342.746 732.911,-343.56 741.677,-349.511 743.475,-342.746"/>
</g>
<!-- Node36 -->
<g id="node36" class="node"><title>Node36</title>
<g id="a_node36"><a xlink:href="representations_2SupportFunction_2util_8h.html" target="_top" xlink:title="util.h">
<polygon fill="white" stroke="black" points="922,-319 922,-338 962,-338 962,-319 922,-319"/>
<text text-anchor="middle" x="942" y="-326" font-family="Helvetica,sans-Serif" font-size="10.00">util.h</text>
</a>
</g>
</g>
<!-- Node1&#45;&gt;Node36 -->
<g id="edge50" class="edge"><title>Node1&#45;&gt;Node36</title>
<path fill="none" stroke="midnightblue" d="M958.008,-380.193C954.679,-369.652 950.886,-357.638 947.827,-347.952"/>
<polygon fill="midnightblue" stroke="midnightblue" points="951.099,-346.691 944.75,-338.209 944.424,-348.799 951.099,-346.691"/>
</g>
<!-- Node37 -->
<g id="node37" class="node"><title>Node37</title>
<polygon fill="white" stroke="#bfbfbf" points="1018.5,-319 1018.5,-338 1149.5,-338 1149.5,-319 1018.5,-319"/>
<text text-anchor="middle" x="1084" y="-326" font-family="Helvetica,sans-Serif" font-size="10.00">BallSupportFunction.tpp</text>
</g>
<!-- Node1&#45;&gt;Node37 -->
<g id="edge54" class="edge"><title>Node1&#45;&gt;Node37</title>
<path fill="none" stroke="midnightblue" d="M1004.96,-380.404C1023.93,-368.188 1046.03,-353.952 1062.04,-343.647"/>
<polygon fill="midnightblue" stroke="midnightblue" points="1064.17,-346.435 1070.68,-338.078 1060.38,-340.55 1064.17,-346.435"/>
</g>
<!-- Node3 -->
<g id="node3" class="node"><title>Node3</title>
<g id="a_node3"><a xlink:href="flags_8h.html" target="_top" xlink:title="flags.h">
<polygon fill="white" stroke="black" points="925,-145.5 925,-164.5 973,-164.5 973,-145.5 925,-145.5"/>
<text text-anchor="middle" x="949" y="-152.5" font-family="Helvetica,sans-Serif" font-size="10.00">flags.h</text>
</a>
</g>
</g>
<!-- Node2&#45;&gt;Node3 -->
<g id="edge2" class="edge"><title>Node2&#45;&gt;Node3</title>
<path fill="none" stroke="midnightblue" d="M986.783,-257.368C980.136,-239.537 964.765,-198.295 955.81,-174.272"/>
<polygon fill="midnightblue" stroke="midnightblue" points="958.974,-172.739 952.202,-164.591 952.415,-175.184 958.974,-172.739"/>
</g>
<!-- Node4 -->
<g id="node4" class="node"><title>Node4</title>
<g id="a_node4"><a xlink:href="util_2convenienceOperators_8h.html" target="_top" xlink:title="util/convenienceOperators.h">
<polygon fill="white" stroke="black" points="708.5,-201.5 708.5,-220.5 859.5,-220.5 859.5,-201.5 708.5,-201.5"/>
<text text-anchor="middle" x="784" y="-208.5" font-family="Helvetica,sans-Serif" font-size="10.00">util/convenienceOperators.h</text>
</a>
</g>
</g>
<!-- Node2&#45;&gt;Node4 -->
<g id="edge3" class="edge"><title>Node2&#45;&gt;Node4</title>
<path fill="none" stroke="midnightblue" d="M957.359,-257.444C921.95,-248.162 865.291,-233.309 826.447,-223.127"/>
<polygon fill="midnightblue" stroke="midnightblue" points="827.049,-219.667 816.489,-220.516 825.274,-226.438 827.049,-219.667"/>
</g>
<!-- Node21 -->
<g id="node21" class="node"><title>Node21</title>
<g id="a_node21"><a xlink:href="Logger_8h.html" target="_top" xlink:title="util/logging/Logger.h">
<polygon fill="white" stroke="black" points="1174.5,-201.5 1174.5,-220.5 1287.5,-220.5 1287.5,-201.5 1174.5,-201.5"/>
<text text-anchor="middle" x="1231" y="-208.5" font-family="Helvetica,sans-Serif" font-size="10.00">util/logging/Logger.h</text>
</a>
</g>
</g>
<!-- Node2&#45;&gt;Node21 -->
<g id="edge27" class="edge"><title>Node2&#45;&gt;Node21</title>
<path fill="none" stroke="midnightblue" d="M1026.08,-257.916C1067.8,-248.569 1136.64,-233.143 1182.88,-222.781"/>
<polygon fill="midnightblue" stroke="midnightblue" points="1183.69,-226.188 1192.68,-220.587 1182.16,-219.358 1183.69,-226.188"/>
</g>
<!-- Node5 -->
<g id="node5" class="node"><title>Node5</title>
<g id="a_node5"><a xlink:href="types_8h.html" target="_top" xlink:title="../types.h">
<polygon fill="white" stroke="black" points="845.5,-145.5 845.5,-164.5 906.5,-164.5 906.5,-145.5 845.5,-145.5"/>
<text text-anchor="middle" x="876" y="-152.5" font-family="Helvetica,sans-Serif" font-size="10.00">../types.h</text>
</a>
</g>
</g>
<!-- Node4&#45;&gt;Node5 -->
<g id="edge4" class="edge"><title>Node4&#45;&gt;Node5</title>
<path fill="none" stroke="midnightblue" d="M798.781,-201.324C813.267,-192.822 835.573,-179.729 852.493,-169.797"/>
<polygon fill="midnightblue" stroke="midnightblue" points="854.403,-172.735 861.255,-164.655 850.859,-166.698 854.403,-172.735"/>
</g>
<!-- Node10 -->
<g id="node10" class="node"><title>Node10</title>
<polygon fill="white" stroke="#bfbfbf" points="783,-11.5 783,-30.5 829,-30.5 829,-11.5 783,-11.5"/>
<text text-anchor="middle" x="806" y="-18.5" font-family="Helvetica,sans-Serif" font-size="10.00">iosfwd</text>
</g>
<!-- Node4&#45;&gt;Node10 -->
<g id="edge22" class="edge"><title>Node4&#45;&gt;Node10</title>
<path fill="none" stroke="midnightblue" d="M769.922,-201.259C758.647,-193.355 743.654,-180.584 737,-165 721.816,-129.44 720.373,-112.909 737,-78 745.762,-59.6033 763.85,-45.2831 779.308,-35.7299"/>
<polygon fill="midnightblue" stroke="midnightblue" points="781.134,-38.7171 788.015,-30.6613 777.612,-32.6674 781.134,-38.7171"/>
</g>
<!-- Node11 -->
<g id="node11" class="node"><title>Node11</title>
<polygon fill="white" stroke="#bfbfbf" points="746,-84 746,-103 778,-103 778,-84 746,-84"/>
<text text-anchor="middle" x="762" y="-91" font-family="Helvetica,sans-Serif" font-size="10.00">set</text>
</g>
<!-- Node4&#45;&gt;Node11 -->
<g id="edge24" class="edge"><title>Node4&#45;&gt;Node11</title>
<path fill="none" stroke="midnightblue" d="M788.391,-201.443C794.243,-188.874 803.182,-164.771 797,-145 793.052,-132.372 784.714,-120.126 777.166,-110.857"/>
<polygon fill="midnightblue" stroke="midnightblue" points="779.789,-108.539 770.605,-103.255 774.489,-113.112 779.789,-108.539"/>
</g>
<!-- Node18 -->
<g id="node18" class="node"><title>Node18</title>
<polygon fill="white" stroke="#bfbfbf" points="548,-145.5 548,-164.5 586,-164.5 586,-145.5 548,-145.5"/>
<text text-anchor="middle" x="567" y="-152.5" font-family="Helvetica,sans-Serif" font-size="10.00">map</text>
</g>
<!-- Node4&#45;&gt;Node18 -->
<g id="edge23" class="edge"><title>Node4&#45;&gt;Node18</title>
<path fill="none" stroke="midnightblue" d="M744.315,-201.488C708.013,-193.493 652.637,-180.778 596.05,-165.137"/>
<polygon fill="midnightblue" stroke="midnightblue" points="596.793,-161.711 586.221,-162.394 594.912,-168.453 596.793,-161.711"/>
</g>
<!-- Node19 -->
<g id="node19" class="node"><title>Node19</title>
<polygon fill="white" stroke="#bfbfbf" points="746,-145.5 746,-164.5 788,-164.5 788,-145.5 746,-145.5"/>
<text text-anchor="middle" x="767" y="-152.5" font-family="Helvetica,sans-Serif" font-size="10.00">utility</text>
</g>
<!-- Node4&#45;&gt;Node19 -->
<g id="edge25" class="edge"><title>Node4&#45;&gt;Node19</title>
<path fill="none" stroke="midnightblue" d="M781.193,-201.083C778.915,-193.849 775.629,-183.409 772.792,-174.397"/>
<polygon fill="midnightblue" stroke="midnightblue" points="776.096,-173.239 769.755,-164.751 769.419,-175.341 776.096,-173.239"/>
</g>
<!-- Node20 -->
<g id="node20" class="node"><title>Node20</title>
<polygon fill="white" stroke="#bfbfbf" points="604.5,-145.5 604.5,-164.5 651.5,-164.5 651.5,-145.5 604.5,-145.5"/>
<text text-anchor="middle" x="628" y="-152.5" font-family="Helvetica,sans-Serif" font-size="10.00">vector</text>
</g>
<!-- Node4&#45;&gt;Node20 -->
<g id="edge26" class="edge"><title>Node4&#45;&gt;Node20</title>
<path fill="none" stroke="midnightblue" d="M759.281,-201.444C732.844,-192.292 690.764,-177.726 661.394,-167.559"/>
<polygon fill="midnightblue" stroke="midnightblue" points="662.177,-164.127 651.582,-164.163 659.887,-170.742 662.177,-164.127"/>
</g>
<!-- Node6 -->
<g id="node6" class="node"><title>Node6</title>
<polygon fill="white" stroke="#bfbfbf" points="900,-11.5 900,-30.5 1034,-30.5 1034,-11.5 900,-11.5"/>
<text text-anchor="middle" x="967" y="-18.5" font-family="Helvetica,sans-Serif" font-size="10.00">carl/numbers/numbers.h</text>
</g>
<!-- Node5&#45;&gt;Node6 -->
<g id="edge5" class="edge"><title>Node5&#45;&gt;Node6</title>
<path fill="none" stroke="midnightblue" d="M906.797,-146.586C956.412,-134.573 1048.75,-111.897 1051,-109 1073.01,-80.6095 1028.07,-51.3037 995.846,-34.9897"/>
<polygon fill="midnightblue" stroke="midnightblue" points="997.273,-31.7916 986.751,-30.5516 994.204,-38.0826 997.273,-31.7916"/>
</g>
<!-- Node7 -->
<g id="node7" class="node"><title>Node7</title>
<polygon fill="white" stroke="#bfbfbf" points="834,-84 834,-103 920,-103 920,-84 834,-84"/>
<text text-anchor="middle" x="877" y="-91" font-family="Helvetica,sans-Serif" font-size="10.00">carl/util/hash.h</text>
</g>
<!-- Node5&#45;&gt;Node7 -->
<g id="edge6" class="edge"><title>Node5&#45;&gt;Node7</title>
<path fill="none" stroke="midnightblue" d="M876.143,-145.475C876.284,-137.08 876.505,-123.981 876.686,-113.163"/>
<polygon fill="midnightblue" stroke="midnightblue" points="880.188,-113.067 876.857,-103.009 873.189,-112.949 880.188,-113.067"/>
</g>
<!-- Node8 -->
<g id="node8" class="node"><title>Node8</title>
<polygon fill="white" stroke="#bfbfbf" points="938,-84 938,-103 1042,-103 1042,-84 938,-84"/>
<text text-anchor="middle" x="990" y="-91" font-family="Helvetica,sans-Serif" font-size="10.00">eigen3/Eigen/Core</text>
</g>
<!-- Node5&#45;&gt;Node8 -->
<g id="edge7" class="edge"><title>Node5&#45;&gt;Node8</title>
<path fill="none" stroke="midnightblue" d="M892.333,-145.475C911.211,-135.622 942.507,-119.288 964.576,-107.77"/>
<polygon fill="midnightblue" stroke="midnightblue" points="966.451,-110.739 973.697,-103.009 963.212,-104.533 966.451,-110.739"/>
</g>
<!-- Node9 -->
<g id="node9" class="node"><title>Node9</title>
<polygon fill="white" stroke="#bfbfbf" points="1052,-11.5 1052,-30.5 1164,-30.5 1164,-11.5 1052,-11.5"/>
<text text-anchor="middle" x="1108" y="-18.5" font-family="Helvetica,sans-Serif" font-size="10.00">eigen3/Eigen/Dense</text>
</g>
<!-- Node5&#45;&gt;Node9 -->
<g id="edge8" class="edge"><title>Node5&#45;&gt;Node9</title>
<path fill="none" stroke="midnightblue" d="M906.542,-147.02C960.318,-134.706 1066.42,-110.293 1068,-109 1089.19,-91.6863 1099.67,-60.6675 1104.45,-40.727"/>
<polygon fill="midnightblue" stroke="midnightblue" points="1107.92,-41.211 1106.6,-30.6997 1101.08,-39.7448 1107.92,-41.211"/>
</g>
<!-- Node5&#45;&gt;Node10 -->
<g id="edge9" class="edge"><title>Node5&#45;&gt;Node10</title>
<path fill="none" stroke="midnightblue" d="M862.091,-145.415C850.37,-137.436 834.095,-124.473 825,-109 812.543,-87.8084 808.231,-59.3798 806.751,-40.8788"/>
<polygon fill="midnightblue" stroke="midnightblue" points="810.239,-40.569 806.148,-30.7956 803.251,-40.9867 810.239,-40.569"/>
</g>
<!-- Node5&#45;&gt;Node11 -->
<g id="edge10" class="edge"><title>Node5&#45;&gt;Node11</title>
<path fill="none" stroke="midnightblue" d="M859.667,-145.475C840.789,-135.622 809.493,-119.288 787.424,-107.77"/>
<polygon fill="midnightblue" stroke="midnightblue" points="788.788,-104.533 778.303,-103.009 785.549,-110.739 788.788,-104.533"/>
</g>
<!-- Node12 -->
<g id="node12" class="node"><title>Node12</title>
<g id="a_node12"><a xlink:href="adaptions__eigen_8h.html" target="_top" xlink:title="util/adaptions_eigen\l/adaptions_eigen.h">
<polygon fill="white" stroke="black" points="1201.5,-78.5 1201.5,-108.5 1314.5,-108.5 1314.5,-78.5 1201.5,-78.5"/>
<text text-anchor="start" x="1209.5" y="-96.5" font-family="Helvetica,sans-Serif" font-size="10.00">util/adaptions_eigen</text>
<text text-anchor="middle" x="1258" y="-85.5" font-family="Helvetica,sans-Serif" font-size="10.00">/adaptions_eigen.h</text>
</a>
</g>
</g>
<!-- Node5&#45;&gt;Node12 -->
<g id="edge11" class="edge"><title>Node5&#45;&gt;Node12</title>
<path fill="none" stroke="midnightblue" d="M904.457,-145.483C905.311,-145.318 906.16,-145.156 907,-145 1005.14,-126.74 1120.12,-110.891 1191.09,-102.027"/>
<polygon fill="midnightblue" stroke="midnightblue" points="1191.75,-105.473 1201.24,-100.771 1190.89,-98.5265 1191.75,-105.473"/>
</g>
<!-- Node12&#45;&gt;Node2 -->
<g id="edge12" class="edge"><title>Node12&#45;&gt;Node2</title>
<path fill="none" stroke="midnightblue" d="M1314.61,-94.8664C1442.53,-96.708 1739.07,-107.18 1689,-165 1603.75,-263.457 1178.65,-268.059 1036.43,-266.775"/>
<polygon fill="midnightblue" stroke="midnightblue" points="1036.33,-263.273 1026.3,-266.668 1036.26,-270.273 1036.33,-263.273"/>
</g>
<!-- Node12&#45;&gt;Node5 -->
<g id="edge13" class="edge"><title>Node12&#45;&gt;Node5</title>
<path fill="none" stroke="midnightblue" d="M1201.37,-102.402C1134.91,-111.334 1021.77,-126.995 925,-145 922.245,-145.513 919.39,-146.081 916.5,-146.675"/>
<polygon fill="midnightblue" stroke="midnightblue" points="915.693,-143.268 906.628,-148.752 917.134,-150.118 915.693,-143.268"/>
</g>
<!-- Node12&#45;&gt;Node6 -->
<g id="edge15" class="edge"><title>Node12&#45;&gt;Node6</title>
<path fill="none" stroke="midnightblue" d="M1201.32,-79.6194C1157.91,-69.6504 1096.58,-55.3393 1043,-42 1031.85,-39.2239 1019.81,-36.1098 1008.67,-33.1806"/>
<polygon fill="midnightblue" stroke="midnightblue" points="1009.31,-29.7297 998.752,-30.5574 1007.53,-36.4972 1009.31,-29.7297"/>
</g>
<!-- Node12&#45;&gt;Node9 -->
<g id="edge16" class="edge"><title>Node12&#45;&gt;Node9</title>
<path fill="none" stroke="midnightblue" d="M1228.01,-78.4027C1201.02,-65.7181 1161.69,-47.2344 1135.5,-34.9243"/>
<polygon fill="midnightblue" stroke="midnightblue" points="1136.7,-31.6196 1126.16,-30.5336 1133.72,-37.9548 1136.7,-31.6196"/>
</g>
<!-- Node12&#45;&gt;Node10 -->
<g id="edge19" class="edge"><title>Node12&#45;&gt;Node10</title>
<path fill="none" stroke="midnightblue" d="M1201.46,-86.3983C1129.16,-78.2111 1000.23,-62.3192 891,-42 873.761,-38.7932 854.748,-34.4015 839.084,-30.5502"/>
<polygon fill="midnightblue" stroke="midnightblue" points="839.875,-27.1405 829.325,-28.1152 838.18,-33.9322 839.875,-27.1405"/>
</g>
<!-- Node13 -->
<g id="node13" class="node"><title>Node13</title>
<g id="a_node13"><a xlink:href="transformation_8h.html" target="_top" xlink:title="transformation.h">
<polygon fill="white" stroke="black" points="1400.5,-11.5 1400.5,-30.5 1497.5,-30.5 1497.5,-11.5 1400.5,-11.5"/>
<text text-anchor="middle" x="1449" y="-18.5" font-family="Helvetica,sans-Serif" font-size="10.00">transformation.h</text>
</a>
</g>
</g>
<!-- Node12&#45;&gt;Node13 -->
<g id="edge14" class="edge"><title>Node12&#45;&gt;Node13</title>
<path fill="none" stroke="midnightblue" d="M1296.19,-78.4027C1331.32,-65.4387 1382.85,-46.4174 1416.16,-34.12"/>
<polygon fill="midnightblue" stroke="midnightblue" points="1417.71,-37.2798 1425.88,-30.5336 1415.29,-30.7129 1417.71,-37.2798"/>
</g>
<!-- Node14 -->
<g id="node14" class="node"><title>Node14</title>
<polygon fill="white" stroke="#bfbfbf" points="1516,-11.5 1516,-30.5 1654,-30.5 1654,-11.5 1516,-11.5"/>
<text text-anchor="middle" x="1585" y="-18.5" font-family="Helvetica,sans-Serif" font-size="10.00">eigen3/Eigen/Eigenvalues</text>
</g>
<!-- Node12&#45;&gt;Node14 -->
<g id="edge17" class="edge"><title>Node12&#45;&gt;Node14</title>
<path fill="none" stroke="midnightblue" d="M1314.8,-81.7232C1365.17,-71.9781 1440.67,-56.9118 1506,-42 1518.07,-39.2451 1531.12,-36.0369 1543.06,-33.0072"/>
<polygon fill="midnightblue" stroke="midnightblue" points="1543.98,-36.3869 1552.8,-30.518 1542.24,-29.6053 1543.98,-36.3869"/>
</g>
<!-- Node15 -->
<g id="node15" class="node"><title>Node15</title>
<polygon fill="white" stroke="#bfbfbf" points="1672.5,-11.5 1672.5,-30.5 1735.5,-30.5 1735.5,-11.5 1672.5,-11.5"/>
<text text-anchor="middle" x="1704" y="-18.5" font-family="Helvetica,sans-Serif" font-size="10.00">functional</text>
</g>
<!-- Node12&#45;&gt;Node15 -->
<g id="edge18" class="edge"><title>Node12&#45;&gt;Node15</title>
<path fill="none" stroke="midnightblue" d="M1314.55,-91.2888C1393.94,-88.2856 1542.27,-77.8882 1663,-42 1668.69,-40.3075 1674.57,-37.8901 1680.03,-35.3178"/>
<polygon fill="midnightblue" stroke="midnightblue" points="1681.94,-38.2743 1689.29,-30.6434 1678.79,-32.0253 1681.94,-38.2743"/>
</g>
<!-- Node16 -->
<g id="node16" class="node"><title>Node16</title>
<polygon fill="white" stroke="#bfbfbf" points="1182,-11.5 1182,-30.5 1224,-30.5 1224,-11.5 1182,-11.5"/>
<text text-anchor="middle" x="1203" y="-18.5" font-family="Helvetica,sans-Serif" font-size="10.00">limits</text>
</g>
<!-- Node12&#45;&gt;Node16 -->
<g id="edge20" class="edge"><title>Node12&#45;&gt;Node16</title>
<path fill="none" stroke="midnightblue" d="M1246.87,-78.2333C1237.98,-66.8367 1225.5,-50.8393 1216.12,-38.8197"/>
<polygon fill="midnightblue" stroke="midnightblue" points="1218.85,-36.6248 1209.94,-30.8932 1213.33,-40.9305 1218.85,-36.6248"/>
</g>
<!-- Node17 -->
<g id="node17" class="node"><title>Node17</title>
<polygon fill="white" stroke="#bfbfbf" points="1242,-0.5 1242,-41.5 1382,-41.5 1382,-0.5 1242,-0.5"/>
<text text-anchor="start" x="1250" y="-29.5" font-family="Helvetica,sans-Serif" font-size="10.00">eigen3/unsupported</text>
<text text-anchor="start" x="1250" y="-18.5" font-family="Helvetica,sans-Serif" font-size="10.00">/Eigen/src/MatrixFunctions</text>
<text text-anchor="middle" x="1312" y="-7.5" font-family="Helvetica,sans-Serif" font-size="10.00">/MatrixExponential.h</text>
</g>
<!-- Node12&#45;&gt;Node17 -->
<g id="edge21" class="edge"><title>Node12&#45;&gt;Node17</title>
<path fill="none" stroke="midnightblue" d="M1268.93,-78.2333C1275.24,-69.9977 1283.38,-59.3595 1290.89,-49.556"/>
<polygon fill="midnightblue" stroke="midnightblue" points="1293.69,-51.6555 1297,-41.5884 1288.14,-47.3989 1293.69,-51.6555"/>
</g>
<!-- Node21&#45;&gt;Node3 -->
<g id="edge28" class="edge"><title>Node21&#45;&gt;Node3</title>
<path fill="none" stroke="midnightblue" d="M1175.83,-201.451C1127.46,-193.635 1055.06,-181.162 983.22,-165.119"/>
<polygon fill="midnightblue" stroke="midnightblue" points="983.615,-161.62 973.09,-162.831 982.073,-168.448 983.615,-161.62"/>
</g>
<!-- Node22 -->
<g id="node22" class="node"><title>Node22</title>
<polygon fill="white" stroke="#bfbfbf" points="991,-145.5 991,-164.5 1145,-164.5 1145,-145.5 991,-145.5"/>
<text text-anchor="middle" x="1068" y="-152.5" font-family="Helvetica,sans-Serif" font-size="10.00">carl/io/streamingOperators.h</text>
</g>
<!-- Node21&#45;&gt;Node22 -->
<g id="edge29" class="edge"><title>Node21&#45;&gt;Node22</title>
<path fill="none" stroke="midnightblue" d="M1205.17,-201.444C1177.75,-192.359 1134.22,-177.939 1103.57,-167.783"/>
<polygon fill="midnightblue" stroke="midnightblue" points="1104.3,-164.339 1093.71,-164.516 1102.1,-170.984 1104.3,-164.339"/>
</g>
<!-- Node23 -->
<g id="node23" class="node"><title>Node23</title>
<polygon fill="white" stroke="#bfbfbf" points="1163.5,-145.5 1163.5,-164.5 1222.5,-164.5 1222.5,-145.5 1163.5,-145.5"/>
<text text-anchor="middle" x="1193" y="-152.5" font-family="Helvetica,sans-Serif" font-size="10.00">iostream</text>
</g>
<!-- Node21&#45;&gt;Node23 -->
<g id="edge30" class="edge"><title>Node21&#45;&gt;Node23</title>
<path fill="none" stroke="midnightblue" d="M1224.73,-201.083C1219.36,-193.455 1211.48,-182.264 1204.92,-172.941"/>
<polygon fill="midnightblue" stroke="midnightblue" points="1207.78,-170.915 1199.16,-164.751 1202.05,-174.943 1207.78,-170.915"/>
</g>
<!-- Node24 -->
<g id="node24" class="node"><title>Node24</title>
<polygon fill="white" stroke="#bfbfbf" points="1241,-145.5 1241,-164.5 1297,-164.5 1297,-145.5 1241,-145.5"/>
<text text-anchor="middle" x="1269" y="-152.5" font-family="Helvetica,sans-Serif" font-size="10.00">sstream</text>
</g>
<!-- Node21&#45;&gt;Node24 -->
<g id="edge31" class="edge"><title>Node21&#45;&gt;Node24</title>
<path fill="none" stroke="midnightblue" d="M1237.27,-201.083C1242.64,-193.455 1250.52,-182.264 1257.08,-172.941"/>
<polygon fill="midnightblue" stroke="midnightblue" points="1259.95,-174.943 1262.84,-164.751 1254.22,-170.915 1259.95,-174.943"/>
</g>
<!-- Node25 -->
<g id="node25" class="node"><title>Node25</title>
<polygon fill="white" stroke="#bfbfbf" points="1315,-145.5 1315,-164.5 1363,-164.5 1363,-145.5 1315,-145.5"/>
<text text-anchor="middle" x="1339" y="-152.5" font-family="Helvetica,sans-Serif" font-size="10.00">thread</text>
</g>
<!-- Node21&#45;&gt;Node25 -->
<g id="edge32" class="edge"><title>Node21&#45;&gt;Node25</title>
<path fill="none" stroke="midnightblue" d="M1248.35,-201.324C1265.67,-192.664 1292.52,-179.242 1312.5,-169.249"/>
<polygon fill="midnightblue" stroke="midnightblue" points="1314.31,-172.257 1321.69,-164.655 1311.18,-165.996 1314.31,-172.257"/>
</g>
<!-- Node26 -->
<g id="node26" class="node"><title>Node26</title>
<polygon fill="white" stroke="#bfbfbf" points="1381.5,-145.5 1381.5,-164.5 1506.5,-164.5 1506.5,-145.5 1381.5,-145.5"/>
<text text-anchor="middle" x="1444" y="-152.5" font-family="Helvetica,sans-Serif" font-size="10.00">carl/core/carlLogging.h</text>
</g>
<!-- Node21&#45;&gt;Node26 -->
<g id="edge33" class="edge"><title>Node21&#45;&gt;Node26</title>
<path fill="none" stroke="midnightblue" d="M1264.75,-201.444C1301.52,-192.122 1360.45,-177.183 1400.62,-166.997"/>
<polygon fill="midnightblue" stroke="midnightblue" points="1401.57,-170.367 1410.41,-164.516 1399.85,-163.581 1401.57,-170.367"/>
</g>
<!-- Node27 -->
<g id="node27" class="node"><title>Node27</title>
<polygon fill="white" stroke="#bfbfbf" points="1524.5,-145.5 1524.5,-164.5 1679.5,-164.5 1679.5,-145.5 1524.5,-145.5"/>
<text text-anchor="middle" x="1602" y="-152.5" font-family="Helvetica,sans-Serif" font-size="10.00">carl/core/carlLoggingHelper.h</text>
</g>
<!-- Node21&#45;&gt;Node27 -->
<g id="edge34" class="edge"><title>Node21&#45;&gt;Node27</title>
<path fill="none" stroke="midnightblue" d="M1287.75,-201.74C1353.72,-192.137 1462.57,-176.294 1533.27,-166.003"/>
<polygon fill="midnightblue" stroke="midnightblue" points="1534.03,-169.431 1543.42,-164.527 1533.02,-162.504 1534.03,-169.431"/>
</g>
<!-- Node28&#45;&gt;Node2 -->
<g id="edge36" class="edge"><title>Node28&#45;&gt;Node2</title>
<path fill="none" stroke="midnightblue" d="M732.587,-317.407C791.781,-306.045 887.045,-287.761 943.582,-276.909"/>
<polygon fill="midnightblue" stroke="midnightblue" points="944.51,-280.295 953.671,-274.973 943.19,-273.421 944.51,-280.295"/>
</g>
<!-- Node28&#45;&gt;Node5 -->
<g id="edge37" class="edge"><title>Node28&#45;&gt;Node5</title>
<path fill="none" stroke="midnightblue" d="M729.617,-313.426C773.596,-298.192 835.703,-269.349 868,-221 876.98,-207.557 878.453,-188.995 877.987,-175.148"/>
<polygon fill="midnightblue" stroke="midnightblue" points="881.455,-174.57 877.262,-164.84 874.472,-175.061 881.455,-174.57"/>
</g>
<!-- Node28&#45;&gt;Node11 -->
<g id="edge47" class="edge"><title>Node28&#45;&gt;Node11</title>
<path fill="none" stroke="midnightblue" d="M680.365,-313.412C681.362,-289.592 685.087,-240.129 699,-201 711.171,-166.772 734.751,-131.294 749.358,-111.152"/>
<polygon fill="midnightblue" stroke="midnightblue" points="752.229,-113.156 755.364,-103.036 746.602,-108.992 752.229,-113.156"/>
</g>
<!-- Node28&#45;&gt;Node20 -->
<g id="edge48" class="edge"><title>Node28&#45;&gt;Node20</title>
<path fill="none" stroke="midnightblue" d="M629.617,-313.416C611.691,-305.711 593.391,-294.124 583,-277 562.083,-242.528 592.789,-196.749 612.892,-172.579"/>
<polygon fill="midnightblue" stroke="midnightblue" points="615.803,-174.565 619.703,-164.714 610.511,-169.982 615.803,-174.565"/>
</g>
<!-- Node29 -->
<g id="node29" class="node"><title>Node29</title>
<g id="a_node29"><a xlink:href="VariablePool_8h.html" target="_top" xlink:title="../util/VariablePool.h">
<polygon fill="white" stroke="black" points="411,-201.5 411,-220.5 521,-220.5 521,-201.5 411,-201.5"/>
<text text-anchor="middle" x="466" y="-208.5" font-family="Helvetica,sans-Serif" font-size="10.00">../util/VariablePool.h</text>
</a>
</g>
</g>
<!-- Node28&#45;&gt;Node29 -->
<g id="edge38" class="edge"><title>Node28&#45;&gt;Node29</title>
<path fill="none" stroke="midnightblue" d="M634.629,-313.482C608.972,-304.68 576.768,-292.133 550,-277 524.849,-262.781 499.018,-241.618 482.761,-227.337"/>
<polygon fill="midnightblue" stroke="midnightblue" points="484.976,-224.623 475.187,-220.57 480.312,-229.843 484.976,-224.623"/>
</g>
<!-- Node35 -->
<g id="node35" class="node"><title>Node35</title>
<polygon fill="white" stroke="#bfbfbf" points="592.5,-257.5 592.5,-276.5 651.5,-276.5 651.5,-257.5 592.5,-257.5"/>
<text text-anchor="middle" x="622" y="-264.5" font-family="Helvetica,sans-Serif" font-size="10.00">Point.tpp</text>
</g>
<!-- Node28&#45;&gt;Node35 -->
<g id="edge49" class="edge"><title>Node28&#45;&gt;Node35</title>
<path fill="none" stroke="midnightblue" d="M666.255,-313.399C657.653,-304.575 646.548,-293.183 637.614,-284.018"/>
<polygon fill="midnightblue" stroke="midnightblue" points="639.926,-281.375 630.44,-276.658 634.914,-286.262 639.926,-281.375"/>
</g>
<!-- Node29&#45;&gt;Node3 -->
<g id="edge39" class="edge"><title>Node29&#45;&gt;Node3</title>
<path fill="none" stroke="midnightblue" d="M521.343,-207.289C606.492,-202.481 774.512,-190.467 915,-165 915.101,-164.982 915.203,-164.963 915.305,-164.944"/>
<polygon fill="midnightblue" stroke="midnightblue" points="915.919,-168.392 924.96,-162.869 914.448,-161.549 915.919,-168.392"/>
</g>
<!-- Node29&#45;&gt;Node18 -->
<g id="edge45" class="edge"><title>Node29&#45;&gt;Node18</title>
<path fill="none" stroke="midnightblue" d="M482.227,-201.324C498.351,-192.703 523.3,-179.364 541.964,-169.386"/>
<polygon fill="midnightblue" stroke="midnightblue" points="543.644,-172.456 550.813,-164.655 540.344,-166.283 543.644,-172.456"/>
</g>
<!-- Node29&#45;&gt;Node20 -->
<g id="edge46" class="edge"><title>Node29&#45;&gt;Node20</title>
<path fill="none" stroke="midnightblue" d="M491.669,-201.444C519.484,-192.172 563.972,-177.343 594.516,-167.161"/>
<polygon fill="midnightblue" stroke="midnightblue" points="595.915,-170.384 604.295,-163.902 593.702,-163.743 595.915,-170.384"/>
</g>
<!-- Node30 -->
<g id="node30" class="node"><title>Node30</title>
<polygon fill="white" stroke="#bfbfbf" points="196,-145.5 196,-164.5 258,-164.5 258,-145.5 196,-145.5"/>
<text text-anchor="middle" x="227" y="-152.5" font-family="Helvetica,sans-Serif" font-size="10.00">algorithm</text>
</g>
<!-- Node29&#45;&gt;Node30 -->
<g id="edge40" class="edge"><title>Node29&#45;&gt;Node30</title>
<path fill="none" stroke="midnightblue" d="M428.13,-201.444C384.536,-191.594 313.179,-175.471 268.219,-165.313"/>
<polygon fill="midnightblue" stroke="midnightblue" points="268.745,-161.844 258.219,-163.054 267.202,-168.672 268.745,-161.844"/>
</g>
<!-- Node31 -->
<g id="node31" class="node"><title>Node31</title>
<polygon fill="white" stroke="#bfbfbf" points="276,-145.5 276,-164.5 384,-164.5 384,-145.5 276,-145.5"/>
<text text-anchor="middle" x="330" y="-152.5" font-family="Helvetica,sans-Serif" font-size="10.00">carl/core/Variable.h</text>
</g>
<!-- Node29&#45;&gt;Node31 -->
<g id="edge41" class="edge"><title>Node29&#45;&gt;Node31</title>
<path fill="none" stroke="midnightblue" d="M444.45,-201.444C421.969,-192.517 386.512,-178.439 361.02,-168.317"/>
<polygon fill="midnightblue" stroke="midnightblue" points="362.035,-164.954 351.449,-164.516 359.451,-171.46 362.035,-164.954"/>
</g>
<!-- Node32 -->
<g id="node32" class="node"><title>Node32</title>
<polygon fill="white" stroke="#bfbfbf" points="402,-145.5 402,-164.5 530,-164.5 530,-145.5 402,-145.5"/>
<text text-anchor="middle" x="466" y="-152.5" font-family="Helvetica,sans-Serif" font-size="10.00">carl/core/VariablePool.h</text>
</g>
<!-- Node29&#45;&gt;Node32 -->
<g id="edge42" class="edge"><title>Node29&#45;&gt;Node32</title>
<path fill="none" stroke="midnightblue" d="M466,-201.083C466,-194.006 466,-183.861 466,-174.986"/>
<polygon fill="midnightblue" stroke="midnightblue" points="469.5,-174.751 466,-164.751 462.5,-174.751 469.5,-174.751"/>
</g>
<!-- Node33 -->
<g id="node33" class="node"><title>Node33</title>
<polygon fill="white" stroke="#bfbfbf" points="0,-145.5 0,-164.5 108,-164.5 108,-145.5 0,-145.5"/>
<text text-anchor="middle" x="54" y="-152.5" font-family="Helvetica,sans-Serif" font-size="10.00">carl/util/Singleton.h</text>
</g>
<!-- Node29&#45;&gt;Node33 -->
<g id="edge43" class="edge"><title>Node29&#45;&gt;Node33</title>
<path fill="none" stroke="midnightblue" d="M410.963,-203.139C344.181,-194.762 227.883,-180.005 118.201,-165.149"/>
<polygon fill="midnightblue" stroke="midnightblue" points="118.669,-161.68 108.29,-163.804 117.728,-168.617 118.669,-161.68"/>
</g>
<!-- Node34 -->
<g id="node34" class="node"><title>Node34</title>
<polygon fill="white" stroke="#bfbfbf" points="126,-145.5 126,-164.5 178,-164.5 178,-145.5 126,-145.5"/>
<text text-anchor="middle" x="152" y="-152.5" font-family="Helvetica,sans-Serif" font-size="10.00">cassert</text>
</g>
<!-- Node29&#45;&gt;Node34 -->
<g id="edge44" class="edge"><title>Node29&#45;&gt;Node34</title>
<path fill="none" stroke="midnightblue" d="M410.934,-202.64C356.611,-195.038 271.031,-182.146 188.143,-165.088"/>
<polygon fill="midnightblue" stroke="midnightblue" points="188.816,-161.653 178.313,-163.042 187.39,-168.506 188.816,-161.653"/>
</g>
<!-- Node36&#45;&gt;Node2 -->
<g id="edge51" class="edge"><title>Node36&#45;&gt;Node2</title>
<path fill="none" stroke="midnightblue" d="M948.877,-318.975C956.149,-309.962 967.795,-295.525 976.841,-284.312"/>
<polygon fill="midnightblue" stroke="midnightblue" points="979.581,-286.49 983.136,-276.509 974.133,-282.095 979.581,-286.49"/>
</g>
<!-- Node36&#45;&gt;Node5 -->
<g id="edge52" class="edge"><title>Node36&#45;&gt;Node5</title>
<path fill="none" stroke="midnightblue" d="M939.991,-318.981C934.96,-298.26 920.856,-243.788 902,-201 897.816,-191.505 892.144,-181.46 887.166,-173.275"/>
<polygon fill="midnightblue" stroke="midnightblue" points="890.046,-171.28 881.77,-164.665 884.115,-174.997 890.046,-171.28"/>
</g>
<!-- Node36&#45;&gt;Node12 -->
<g id="edge53" class="edge"><title>Node36&#45;&gt;Node12</title>
<path fill="none" stroke="midnightblue" d="M962.163,-322.784C975.428,-319.769 993.196,-315.895 1009,-313 1164.54,-284.509 1630.39,-304.415 1705,-165 1709.19,-157.163 1710.92,-151.629 1705,-145 1680.13,-117.164 1443.12,-102.74 1324.68,-97.2197"/>
<polygon fill="midnightblue" stroke="midnightblue" points="1324.79,-93.7209 1314.64,-96.7596 1324.47,-100.714 1324.79,-93.7209"/>
</g>
</g>
</svg>
