<?xml version="1.0" encoding="UTF-8" standalone="no"?>
<!DOCTYPE svg PUBLIC "-//W3C//DTD SVG 1.1//EN"
 "http://www.w3.org/Graphics/SVG/1.1/DTD/svg11.dtd">
<!-- Generated by graphviz version 2.38.0 (20140413.2041)
 -->
<!-- Title: /home/travis/build/hypro/hypro/src/hypro/representations/SupportFunction/BoxSupportFunction.h Pages: 1 -->
<svg width="1423pt" height="441pt"
 viewBox="0.00 0.00 1422.50 441.00" xmlns="http://www.w3.org/2000/svg" xmlns:xlink="http://www.w3.org/1999/xlink">
<g id="graph0" class="graph" transform="scale(1 1) rotate(0) translate(4 437)">
<title>/home/travis/build/hypro/hypro/src/hypro/representations/SupportFunction/BoxSupportFunction.h</title>
<polygon fill="white" stroke="none" points="-4,4 -4,-437 1418.5,-437 1418.5,4 -4,4"/>
<!-- Node1 -->
<g id="node1" class="node"><title>Node1</title>
<polygon fill="#bfbfbf" stroke="black" points="858,-380.5 858,-432.5 1034,-432.5 1034,-380.5 858,-380.5"/>
<text text-anchor="start" x="866" y="-420.5" font-family="Helvetica,sans-Serif" font-size="10.00">/home/travis/build</text>
<text text-anchor="start" x="866" y="-409.5" font-family="Helvetica,sans-Serif" font-size="10.00">/hypro/hypro/src/hypro</text>
<text text-anchor="start" x="866" y="-398.5" font-family="Helvetica,sans-Serif" font-size="10.00">/representations/SupportFunction</text>
<text text-anchor="middle" x="946" y="-387.5" font-family="Helvetica,sans-Serif" font-size="10.00">/BoxSupportFunction.h</text>
</g>
<!-- Node2 -->
<g id="node2" class="node"><title>Node2</title>
<g id="a_node2"><a xlink:href="Permutator_8h.html" target="_top" xlink:title="../../util/Permutator.h">
<polygon fill="white" stroke="black" points="888.5,-319 888.5,-338 1003.5,-338 1003.5,-319 888.5,-319"/>
<text text-anchor="middle" x="946" y="-326" font-family="Helvetica,sans-Serif" font-size="10.00">../../util/Permutator.h</text>
</a>
</g>
</g>
<!-- Node1&#45;&gt;Node2 -->
<g id="edge1" class="edge"><title>Node1&#45;&gt;Node2</title>
<path fill="none" stroke="midnightblue" d="M946,-380.193C946,-369.765 946,-357.896 946,-348.266"/>
<polygon fill="midnightblue" stroke="midnightblue" points="949.5,-348.209 946,-338.209 942.5,-348.209 949.5,-348.209"/>
</g>
<!-- Node19 -->
<g id="node19" class="node"><title>Node19</title>
<polygon fill="white" stroke="#bfbfbf" points="1171,-145.5 1171,-164.5 1209,-164.5 1209,-145.5 1171,-145.5"/>
<text text-anchor="middle" x="1190" y="-152.5" font-family="Helvetica,sans-Serif" font-size="10.00">map</text>
</g>
<!-- Node1&#45;&gt;Node19 -->
<g id="edge45" class="edge"><title>Node1&#45;&gt;Node19</title>
<path fill="none" stroke="midnightblue" d="M973.657,-380.444C985.611,-369.432 999.658,-356.244 1012,-344 1074.1,-282.395 1144.65,-205.809 1174.91,-172.621"/>
<polygon fill="midnightblue" stroke="midnightblue" points="1177.89,-174.556 1182.03,-164.805 1172.71,-169.844 1177.89,-174.556"/>
</g>
<!-- Node22 -->
<g id="node22" class="node"><title>Node22</title>
<g id="a_node22"><a xlink:href="Logger_8h.html" target="_top" xlink:title="util/logging/Logger.h">
<polygon fill="white" stroke="black" points="477.5,-201.5 477.5,-220.5 590.5,-220.5 590.5,-201.5 477.5,-201.5"/>
<text text-anchor="middle" x="534" y="-208.5" font-family="Helvetica,sans-Serif" font-size="10.00">util/logging/Logger.h</text>
</a>
</g>
</g>
<!-- Node1&#45;&gt;Node22 -->
<g id="edge36" class="edge"><title>Node1&#45;&gt;Node22</title>
<path fill="none" stroke="midnightblue" d="M857.903,-394.605C804.814,-385.747 736.887,-370.269 681,-344 622.205,-316.364 569.942,-257.365 546.731,-228.539"/>
<polygon fill="midnightblue" stroke="midnightblue" points="549.429,-226.309 540.485,-220.631 543.936,-230.648 549.429,-226.309"/>
</g>
<!-- Node29 -->
<g id="node29" class="node"><title>Node29</title>
<g id="a_node29"><a xlink:href="statistics_8h.html" target="_top" xlink:title="../../util/statistics\l/statistics.h">
<polygon fill="white" stroke="black" points="690.5,-313.5 690.5,-343.5 785.5,-343.5 785.5,-313.5 690.5,-313.5"/>
<text text-anchor="start" x="698.5" y="-331.5" font-family="Helvetica,sans-Serif" font-size="10.00">../../util/statistics</text>
<text text-anchor="middle" x="738" y="-320.5" font-family="Helvetica,sans-Serif" font-size="10.00">/statistics.h</text>
</a>
</g>
</g>
<!-- Node1&#45;&gt;Node29 -->
<g id="edge37" class="edge"><title>Node1&#45;&gt;Node29</title>
<path fill="none" stroke="midnightblue" d="M877.317,-380.404C847.491,-369.506 813.269,-357.002 786.207,-347.114"/>
<polygon fill="midnightblue" stroke="midnightblue" points="787.175,-343.742 776.582,-343.597 784.773,-350.317 787.175,-343.742"/>
</g>
<!-- Node31 -->
<g id="node31" class="node"><title>Node31</title>
<g id="a_node31"><a xlink:href="representations_2SupportFunction_2util_8h.html" target="_top" xlink:title="util.h">
<polygon fill="white" stroke="black" points="830,-319 830,-338 870,-338 870,-319 830,-319"/>
<text text-anchor="middle" x="850" y="-326" font-family="Helvetica,sans-Serif" font-size="10.00">util.h</text>
</a>
</g>
</g>
<!-- Node1&#45;&gt;Node31 -->
<g id="edge40" class="edge"><title>Node1&#45;&gt;Node31</title>
<path fill="none" stroke="midnightblue" d="M914.3,-380.404C899.39,-368.601 882.099,-354.912 869.206,-344.705"/>
<polygon fill="midnightblue" stroke="midnightblue" points="871.078,-341.723 861.065,-338.26 866.733,-347.211 871.078,-341.723"/>
</g>
<!-- Node32 -->
<g id="node32" class="node"><title>Node32</title>
<polygon fill="white" stroke="#bfbfbf" points="1146.5,-319 1146.5,-338 1265.5,-338 1265.5,-319 1146.5,-319"/>
<text text-anchor="middle" x="1206" y="-326" font-family="Helvetica,sans-Serif" font-size="10.00">carl/interval/Interval.h</text>
</g>
<!-- Node1&#45;&gt;Node32 -->
<g id="edge44" class="edge"><title>Node1&#45;&gt;Node32</title>
<path fill="none" stroke="midnightblue" d="M1031.85,-380.404C1077.36,-367.103 1131.05,-351.409 1166.66,-340.999"/>
<polygon fill="midnightblue" stroke="midnightblue" points="1168.04,-344.243 1176.65,-338.078 1166.07,-337.524 1168.04,-344.243"/>
</g>
<!-- Node33 -->
<g id="node33" class="node"><title>Node33</title>
<polygon fill="white" stroke="#bfbfbf" points="1283.5,-319 1283.5,-338 1414.5,-338 1414.5,-319 1283.5,-319"/>
<text text-anchor="middle" x="1349" y="-326" font-family="Helvetica,sans-Serif" font-size="10.00">BoxSupportFunction.tpp</text>
</g>
<!-- Node1&#45;&gt;Node33 -->
<g id="edge46" class="edge"><title>Node1&#45;&gt;Node33</title>
<path fill="none" stroke="midnightblue" d="M1034.01,-389.263C1100.3,-376.982 1193.39,-359.623 1275,-344 1281.65,-342.727 1288.64,-341.376 1295.55,-340.031"/>
<polygon fill="midnightblue" stroke="midnightblue" points="1296.43,-343.424 1305.58,-338.074 1295.09,-336.554 1296.43,-343.424"/>
</g>
<!-- Node3 -->
<g id="node3" class="node"><title>Node3</title>
<g id="a_node3"><a xlink:href="config_8h.html" target="_top" xlink:title="../config.h">
<polygon fill="white" stroke="black" points="818.5,-257.5 818.5,-276.5 881.5,-276.5 881.5,-257.5 818.5,-257.5"/>
<text text-anchor="middle" x="850" y="-264.5" font-family="Helvetica,sans-Serif" font-size="10.00">../config.h</text>
</a>
</g>
</g>
<!-- Node2&#45;&gt;Node3 -->
<g id="edge2" class="edge"><title>Node2&#45;&gt;Node3</title>
<path fill="none" stroke="midnightblue" d="M932.246,-318.975C916.634,-309.299 890.937,-293.372 872.417,-281.894"/>
<polygon fill="midnightblue" stroke="midnightblue" points="874.073,-278.802 863.729,-276.509 870.385,-284.752 874.073,-278.802"/>
</g>
<!-- Node4 -->
<g id="node4" class="node"><title>Node4</title>
<g id="a_node4"><a xlink:href="flags_8h.html" target="_top" xlink:title="flags.h">
<polygon fill="white" stroke="black" points="707,-145.5 707,-164.5 755,-164.5 755,-145.5 707,-145.5"/>
<text text-anchor="middle" x="731" y="-152.5" font-family="Helvetica,sans-Serif" font-size="10.00">flags.h</text>
</a>
</g>
</g>
<!-- Node3&#45;&gt;Node4 -->
<g id="edge3" class="edge"><title>Node3&#45;&gt;Node4</title>
<path fill="none" stroke="midnightblue" d="M840.662,-257.368C820.589,-238.814 773.097,-194.913 747.701,-171.438"/>
<polygon fill="midnightblue" stroke="midnightblue" points="750.013,-168.809 740.294,-164.591 745.262,-173.95 750.013,-168.809"/>
</g>
<!-- Node5 -->
<g id="node5" class="node"><title>Node5</title>
<g id="a_node5"><a xlink:href="util_2convenienceOperators_8h.html" target="_top" xlink:title="util/convenienceOperators.h">
<polygon fill="white" stroke="black" points="938.5,-201.5 938.5,-220.5 1089.5,-220.5 1089.5,-201.5 938.5,-201.5"/>
<text text-anchor="middle" x="1014" y="-208.5" font-family="Helvetica,sans-Serif" font-size="10.00">util/convenienceOperators.h</text>
</a>
</g>
</g>
<!-- Node3&#45;&gt;Node5 -->
<g id="edge4" class="edge"><title>Node3&#45;&gt;Node5</title>
<path fill="none" stroke="midnightblue" d="M875.986,-257.444C903.696,-248.32 947.752,-233.813 978.616,-223.651"/>
<polygon fill="midnightblue" stroke="midnightblue" points="979.732,-226.968 988.135,-220.516 977.542,-220.32 979.732,-226.968"/>
</g>
<!-- Node3&#45;&gt;Node22 -->
<g id="edge28" class="edge"><title>Node3&#45;&gt;Node22</title>
<path fill="none" stroke="midnightblue" d="M818.254,-260.575C765.852,-251.62 660.431,-233.605 593.74,-222.209"/>
<polygon fill="midnightblue" stroke="midnightblue" points="594.235,-218.743 583.788,-220.508 593.055,-225.643 594.235,-218.743"/>
</g>
<!-- Node6 -->
<g id="node6" class="node"><title>Node6</title>
<g id="a_node6"><a xlink:href="types_8h.html" target="_top" xlink:title="../types.h">
<polygon fill="white" stroke="black" points="887.5,-145.5 887.5,-164.5 948.5,-164.5 948.5,-145.5 887.5,-145.5"/>
<text text-anchor="middle" x="918" y="-152.5" font-family="Helvetica,sans-Serif" font-size="10.00">../types.h</text>
</a>
</g>
</g>
<!-- Node5&#45;&gt;Node6 -->
<g id="edge5" class="edge"><title>Node5&#45;&gt;Node6</title>
<path fill="none" stroke="midnightblue" d="M998.576,-201.324C983.46,-192.822 960.185,-179.729 942.529,-169.797"/>
<polygon fill="midnightblue" stroke="midnightblue" points="943.817,-166.507 933.386,-164.655 940.386,-172.608 943.817,-166.507"/>
</g>
<!-- Node11 -->
<g id="node11" class="node"><title>Node11</title>
<polygon fill="white" stroke="#bfbfbf" points="1065,-11.5 1065,-30.5 1111,-30.5 1111,-11.5 1065,-11.5"/>
<text text-anchor="middle" x="1088" y="-18.5" font-family="Helvetica,sans-Serif" font-size="10.00">iosfwd</text>
</g>
<!-- Node5&#45;&gt;Node11 -->
<g id="edge23" class="edge"><title>Node5&#45;&gt;Node11</title>
<path fill="none" stroke="midnightblue" d="M1042.31,-201.469C1061.42,-194.422 1085.98,-182.674 1102,-165 1128.78,-135.446 1135.24,-116.267 1124,-78 1119.73,-63.4451 1110.37,-49.0947 1102.27,-38.5649"/>
<polygon fill="midnightblue" stroke="midnightblue" points="1104.91,-36.266 1095.9,-30.698 1099.47,-40.6717 1104.91,-36.266"/>
</g>
<!-- Node12 -->
<g id="node12" class="node"><title>Node12</title>
<polygon fill="white" stroke="#bfbfbf" points="1083,-84 1083,-103 1115,-103 1115,-84 1083,-84"/>
<text text-anchor="middle" x="1099" y="-91" font-family="Helvetica,sans-Serif" font-size="10.00">set</text>
</g>
<!-- Node5&#45;&gt;Node12 -->
<g id="edge25" class="edge"><title>Node5&#45;&gt;Node12</title>
<path fill="none" stroke="midnightblue" d="M1035.31,-201.403C1050.87,-194.029 1071.24,-181.903 1083,-165 1093.63,-149.731 1097.31,-128.51 1098.53,-113.348"/>
<polygon fill="midnightblue" stroke="midnightblue" points="1102.04,-113.3 1099.06,-103.133 1095.05,-112.94 1102.04,-113.3"/>
</g>
<!-- Node5&#45;&gt;Node19 -->
<g id="edge24" class="edge"><title>Node5&#45;&gt;Node19</title>
<path fill="none" stroke="midnightblue" d="M1041.89,-201.444C1074.42,-191.461 1127.96,-175.035 1160.98,-164.905"/>
<polygon fill="midnightblue" stroke="midnightblue" points="1162.39,-168.133 1170.92,-161.854 1160.33,-161.441 1162.39,-168.133"/>
</g>
<!-- Node20 -->
<g id="node20" class="node"><title>Node20</title>
<polygon fill="white" stroke="#bfbfbf" points="1032,-145.5 1032,-164.5 1074,-164.5 1074,-145.5 1032,-145.5"/>
<text text-anchor="middle" x="1053" y="-152.5" font-family="Helvetica,sans-Serif" font-size="10.00">utility</text>
</g>
<!-- Node5&#45;&gt;Node20 -->
<g id="edge26" class="edge"><title>Node5&#45;&gt;Node20</title>
<path fill="none" stroke="midnightblue" d="M1020.44,-201.083C1025.95,-193.455 1034.03,-182.264 1040.76,-172.941"/>
<polygon fill="midnightblue" stroke="midnightblue" points="1043.66,-174.907 1046.68,-164.751 1037.99,-170.809 1043.66,-174.907"/>
</g>
<!-- Node21 -->
<g id="node21" class="node"><title>Node21</title>
<polygon fill="white" stroke="#bfbfbf" points="966.5,-145.5 966.5,-164.5 1013.5,-164.5 1013.5,-145.5 966.5,-145.5"/>
<text text-anchor="middle" x="990" y="-152.5" font-family="Helvetica,sans-Serif" font-size="10.00">vector</text>
</g>
<!-- Node5&#45;&gt;Node21 -->
<g id="edge27" class="edge"><title>Node5&#45;&gt;Node21</title>
<path fill="none" stroke="midnightblue" d="M1010.04,-201.083C1006.79,-193.77 1002.08,-183.181 998.046,-174.103"/>
<polygon fill="midnightblue" stroke="midnightblue" points="1001.15,-172.468 993.889,-164.751 994.752,-175.311 1001.15,-172.468"/>
</g>
<!-- Node7 -->
<g id="node7" class="node"><title>Node7</title>
<polygon fill="white" stroke="#bfbfbf" points="783,-11.5 783,-30.5 917,-30.5 917,-11.5 783,-11.5"/>
<text text-anchor="middle" x="850" y="-18.5" font-family="Helvetica,sans-Serif" font-size="10.00">carl/numbers/numbers.h</text>
</g>
<!-- Node6&#45;&gt;Node7 -->
<g id="edge6" class="edge"><title>Node6&#45;&gt;Node7</title>
<path fill="none" stroke="midnightblue" d="M887.207,-146.572C846.476,-136.441 778.99,-118.469 772,-109 751.473,-81.1938 792.817,-51.8646 822.77,-35.3556"/>
<polygon fill="midnightblue" stroke="midnightblue" points="824.427,-38.439 831.619,-30.6596 821.145,-32.2557 824.427,-38.439"/>
</g>
<!-- Node8 -->
<g id="node8" class="node"><title>Node8</title>
<polygon fill="white" stroke="#bfbfbf" points="781,-84 781,-103 867,-103 867,-84 781,-84"/>
<text text-anchor="middle" x="824" y="-91" font-family="Helvetica,sans-Serif" font-size="10.00">carl/util/hash.h</text>
</g>
<!-- Node6&#45;&gt;Node8 -->
<g id="edge7" class="edge"><title>Node6&#45;&gt;Node8</title>
<path fill="none" stroke="midnightblue" d="M904.532,-145.475C889.315,-135.843 864.313,-120.017 846.199,-108.552"/>
<polygon fill="midnightblue" stroke="midnightblue" points="847.764,-105.4 837.443,-103.009 844.021,-111.315 847.764,-105.4"/>
</g>
<!-- Node9 -->
<g id="node9" class="node"><title>Node9</title>
<polygon fill="white" stroke="#bfbfbf" points="885,-84 885,-103 989,-103 989,-84 885,-84"/>
<text text-anchor="middle" x="937" y="-91" font-family="Helvetica,sans-Serif" font-size="10.00">eigen3/Eigen/Core</text>
</g>
<!-- Node6&#45;&gt;Node9 -->
<g id="edge8" class="edge"><title>Node6&#45;&gt;Node9</title>
<path fill="none" stroke="midnightblue" d="M920.722,-145.475C923.431,-136.992 927.674,-123.704 931.149,-112.822"/>
<polygon fill="midnightblue" stroke="midnightblue" points="934.575,-113.6 934.283,-103.009 927.907,-111.47 934.575,-113.6"/>
</g>
<!-- Node10 -->
<g id="node10" class="node"><title>Node10</title>
<polygon fill="white" stroke="#bfbfbf" points="935,-11.5 935,-30.5 1047,-30.5 1047,-11.5 935,-11.5"/>
<text text-anchor="middle" x="991" y="-18.5" font-family="Helvetica,sans-Serif" font-size="10.00">eigen3/Eigen/Dense</text>
</g>
<!-- Node6&#45;&gt;Node10 -->
<g id="edge9" class="edge"><title>Node6&#45;&gt;Node10</title>
<path fill="none" stroke="midnightblue" d="M948.247,-145.488C966.125,-138.726 987.3,-127.295 998,-109 1010.28,-88.0063 1004.41,-59.1396 998.322,-40.5239"/>
<polygon fill="midnightblue" stroke="midnightblue" points="1001.53,-39.1058 994.848,-30.8849 994.946,-41.4793 1001.53,-39.1058"/>
</g>
<!-- Node6&#45;&gt;Node11 -->
<g id="edge10" class="edge"><title>Node6&#45;&gt;Node11</title>
<path fill="none" stroke="midnightblue" d="M944.725,-145.437C965.496,-137.945 994.322,-125.65 1016,-109 1041.8,-89.1802 1064.41,-58.4944 1077.12,-39.3608"/>
<polygon fill="midnightblue" stroke="midnightblue" points="1080.19,-41.058 1082.68,-30.7603 1074.31,-37.2565 1080.19,-41.058"/>
</g>
<!-- Node6&#45;&gt;Node12 -->
<g id="edge11" class="edge"><title>Node6&#45;&gt;Node12</title>
<path fill="none" stroke="midnightblue" d="M948.562,-146.438C979.411,-138.446 1028.19,-124.824 1069,-109 1070.42,-108.451 1071.86,-107.862 1073.3,-107.247"/>
<polygon fill="midnightblue" stroke="midnightblue" points="1075.06,-110.294 1082.71,-102.962 1072.15,-103.924 1075.06,-110.294"/>
</g>
<!-- Node13 -->
<g id="node13" class="node"><title>Node13</title>
<g id="a_node13"><a xlink:href="adaptions__eigen_8h.html" target="_top" xlink:title="util/adaptions_eigen\l/adaptions_eigen.h">
<polygon fill="white" stroke="black" points="611.5,-78.5 611.5,-108.5 724.5,-108.5 724.5,-78.5 611.5,-78.5"/>
<text text-anchor="start" x="619.5" y="-96.5" font-family="Helvetica,sans-Serif" font-size="10.00">util/adaptions_eigen</text>
<text text-anchor="middle" x="668" y="-85.5" font-family="Helvetica,sans-Serif" font-size="10.00">/adaptions_eigen.h</text>
</a>
</g>
</g>
<!-- Node6&#45;&gt;Node13 -->
<g id="edge12" class="edge"><title>Node6&#45;&gt;Node13</title>
<path fill="none" stroke="midnightblue" d="M887.379,-147.745C848.506,-139.074 780.763,-123.091 730.765,-110.891"/>
<polygon fill="midnightblue" stroke="midnightblue" points="731.561,-107.483 721.016,-108.505 729.897,-114.282 731.561,-107.483"/>
</g>
<!-- Node13&#45;&gt;Node3 -->
<g id="edge13" class="edge"><title>Node13&#45;&gt;Node3</title>
<path fill="none" stroke="midnightblue" d="M724.793,-106.34C749.488,-113.909 777.232,-126.001 797,-145 826.528,-173.378 840.65,-221.042 846.491,-247.278"/>
<polygon fill="midnightblue" stroke="midnightblue" points="843.126,-248.292 848.564,-257.385 849.984,-246.886 843.126,-248.292"/>
</g>
<!-- Node13&#45;&gt;Node6 -->
<g id="edge14" class="edge"><title>Node13&#45;&gt;Node6</title>
<path fill="none" stroke="midnightblue" d="M724.593,-106.645C771.194,-117.344 836.019,-132.789 877.557,-143.098"/>
<polygon fill="midnightblue" stroke="midnightblue" points="876.783,-146.513 887.333,-145.538 878.478,-139.721 876.783,-146.513"/>
</g>
<!-- Node13&#45;&gt;Node7 -->
<g id="edge16" class="edge"><title>Node13&#45;&gt;Node7</title>
<path fill="none" stroke="midnightblue" d="M704.393,-78.4027C737.716,-65.4946 786.542,-46.5812 818.3,-34.2794"/>
<polygon fill="midnightblue" stroke="midnightblue" points="819.91,-37.4094 827.97,-30.5336 817.381,-30.882 819.91,-37.4094"/>
</g>
<!-- Node13&#45;&gt;Node10 -->
<g id="edge17" class="edge"><title>Node13&#45;&gt;Node10</title>
<path fill="none" stroke="midnightblue" d="M724.747,-83.1624C777.276,-74.1014 857.383,-59.221 926,-42 935.774,-39.5469 946.256,-36.5064 955.887,-33.5429"/>
<polygon fill="midnightblue" stroke="midnightblue" points="957.058,-36.8439 965.551,-30.5102 954.962,-30.1651 957.058,-36.8439"/>
</g>
<!-- Node13&#45;&gt;Node11 -->
<g id="edge20" class="edge"><title>Node13&#45;&gt;Node11</title>
<path fill="none" stroke="midnightblue" d="M724.657,-84.4704C740.014,-82.3295 756.64,-80.0442 772,-78 898.12,-61.2151 936.151,-84.7113 1056,-42 1060.17,-40.5155 1064.36,-38.4234 1068.28,-36.1473"/>
<polygon fill="midnightblue" stroke="midnightblue" points="1070.24,-39.0449 1076.77,-30.7018 1066.46,-33.1516 1070.24,-39.0449"/>
</g>
<!-- Node14 -->
<g id="node14" class="node"><title>Node14</title>
<g id="a_node14"><a xlink:href="transformation_8h.html" target="_top" xlink:title="transformation.h">
<polygon fill="white" stroke="black" points="211.5,-11.5 211.5,-30.5 308.5,-30.5 308.5,-11.5 211.5,-11.5"/>
<text text-anchor="middle" x="260" y="-18.5" font-family="Helvetica,sans-Serif" font-size="10.00">transformation.h</text>
</a>
</g>
</g>
<!-- Node13&#45;&gt;Node14 -->
<g id="edge15" class="edge"><title>Node13&#45;&gt;Node14</title>
<path fill="none" stroke="midnightblue" d="M611.305,-87.6405C541.562,-80.9047 419.882,-66.6816 318,-42 309.22,-39.8731 299.892,-36.9603 291.342,-34.0157"/>
<polygon fill="midnightblue" stroke="midnightblue" points="292.337,-30.6547 281.743,-30.5897 289.984,-37.2474 292.337,-30.6547"/>
</g>
<!-- Node15 -->
<g id="node15" class="node"><title>Node15</title>
<polygon fill="white" stroke="#bfbfbf" points="327,-11.5 327,-30.5 465,-30.5 465,-11.5 327,-11.5"/>
<text text-anchor="middle" x="396" y="-18.5" font-family="Helvetica,sans-Serif" font-size="10.00">eigen3/Eigen/Eigenvalues</text>
</g>
<!-- Node13&#45;&gt;Node15 -->
<g id="edge18" class="edge"><title>Node13&#45;&gt;Node15</title>
<path fill="none" stroke="midnightblue" d="M613.936,-78.4872C562.552,-65.1688 486.289,-45.4021 438.941,-33.1298"/>
<polygon fill="midnightblue" stroke="midnightblue" points="439.565,-29.676 429.006,-30.555 437.808,-36.4521 439.565,-29.676"/>
</g>
<!-- Node16 -->
<g id="node16" class="node"><title>Node16</title>
<polygon fill="white" stroke="#bfbfbf" points="483.5,-11.5 483.5,-30.5 546.5,-30.5 546.5,-11.5 483.5,-11.5"/>
<text text-anchor="middle" x="515" y="-18.5" font-family="Helvetica,sans-Serif" font-size="10.00">functional</text>
</g>
<!-- Node13&#45;&gt;Node16 -->
<g id="edge19" class="edge"><title>Node13&#45;&gt;Node16</title>
<path fill="none" stroke="midnightblue" d="M636.02,-78.3887C613.553,-68.3999 582.84,-54.594 556,-42 551.402,-39.8427 546.536,-37.5113 541.823,-35.2283"/>
<polygon fill="midnightblue" stroke="midnightblue" points="543.024,-31.9199 532.501,-30.6816 539.955,-38.2114 543.024,-31.9199"/>
</g>
<!-- Node17 -->
<g id="node17" class="node"><title>Node17</title>
<polygon fill="white" stroke="#bfbfbf" points="565,-11.5 565,-30.5 607,-30.5 607,-11.5 565,-11.5"/>
<text text-anchor="middle" x="586" y="-18.5" font-family="Helvetica,sans-Serif" font-size="10.00">limits</text>
</g>
<!-- Node13&#45;&gt;Node17 -->
<g id="edge21" class="edge"><title>Node13&#45;&gt;Node17</title>
<path fill="none" stroke="midnightblue" d="M651.406,-78.2333C637.636,-66.3941 618.09,-49.5899 603.956,-37.4378"/>
<polygon fill="midnightblue" stroke="midnightblue" points="606.208,-34.7585 596.344,-30.8932 601.645,-40.0665 606.208,-34.7585"/>
</g>
<!-- Node18 -->
<g id="node18" class="node"><title>Node18</title>
<polygon fill="white" stroke="#bfbfbf" points="625,-0.5 625,-41.5 765,-41.5 765,-0.5 625,-0.5"/>
<text text-anchor="start" x="633" y="-29.5" font-family="Helvetica,sans-Serif" font-size="10.00">eigen3/unsupported</text>
<text text-anchor="start" x="633" y="-18.5" font-family="Helvetica,sans-Serif" font-size="10.00">/Eigen/src/MatrixFunctions</text>
<text text-anchor="middle" x="695" y="-7.5" font-family="Helvetica,sans-Serif" font-size="10.00">/MatrixExponential.h</text>
</g>
<!-- Node13&#45;&gt;Node18 -->
<g id="edge22" class="edge"><title>Node13&#45;&gt;Node18</title>
<path fill="none" stroke="midnightblue" d="M673.464,-78.2333C676.46,-70.4095 680.287,-60.4173 683.881,-51.0324"/>
<polygon fill="midnightblue" stroke="midnightblue" points="687.19,-52.1788 687.498,-41.5884 680.653,-49.6752 687.19,-52.1788"/>
</g>
<!-- Node22&#45;&gt;Node4 -->
<g id="edge29" class="edge"><title>Node22&#45;&gt;Node4</title>
<path fill="none" stroke="midnightblue" d="M565.215,-201.444C601.115,-191.603 659.855,-175.502 696.92,-165.342"/>
<polygon fill="midnightblue" stroke="midnightblue" points="698.043,-168.663 706.762,-162.644 696.193,-161.912 698.043,-168.663"/>
</g>
<!-- Node23 -->
<g id="node23" class="node"><title>Node23</title>
<polygon fill="white" stroke="#bfbfbf" points="457,-145.5 457,-164.5 611,-164.5 611,-145.5 457,-145.5"/>
<text text-anchor="middle" x="534" y="-152.5" font-family="Helvetica,sans-Serif" font-size="10.00">carl/io/streamingOperators.h</text>
</g>
<!-- Node22&#45;&gt;Node23 -->
<g id="edge30" class="edge"><title>Node22&#45;&gt;Node23</title>
<path fill="none" stroke="midnightblue" d="M534,-201.083C534,-194.006 534,-183.861 534,-174.986"/>
<polygon fill="midnightblue" stroke="midnightblue" points="537.5,-174.751 534,-164.751 530.5,-174.751 537.5,-174.751"/>
</g>
<!-- Node24 -->
<g id="node24" class="node"><title>Node24</title>
<polygon fill="white" stroke="#bfbfbf" points="629.5,-145.5 629.5,-164.5 688.5,-164.5 688.5,-145.5 629.5,-145.5"/>
<text text-anchor="middle" x="659" y="-152.5" font-family="Helvetica,sans-Serif" font-size="10.00">iostream</text>
</g>
<!-- Node22&#45;&gt;Node24 -->
<g id="edge31" class="edge"><title>Node22&#45;&gt;Node24</title>
<path fill="none" stroke="midnightblue" d="M553.807,-201.444C574.287,-192.596 606.483,-178.687 629.865,-168.586"/>
<polygon fill="midnightblue" stroke="midnightblue" points="631.494,-171.695 639.286,-164.516 628.718,-165.269 631.494,-171.695"/>
</g>
<!-- Node25 -->
<g id="node25" class="node"><title>Node25</title>
<polygon fill="white" stroke="#bfbfbf" points="0,-145.5 0,-164.5 56,-164.5 56,-145.5 0,-145.5"/>
<text text-anchor="middle" x="28" y="-152.5" font-family="Helvetica,sans-Serif" font-size="10.00">sstream</text>
</g>
<!-- Node22&#45;&gt;Node25 -->
<g id="edge32" class="edge"><title>Node22&#45;&gt;Node25</title>
<path fill="none" stroke="midnightblue" d="M477.347,-207.184C390.742,-202.304 220.136,-190.427 66.303,-164.993"/>
<polygon fill="midnightblue" stroke="midnightblue" points="66.6367,-161.5 56.1956,-163.298 65.479,-168.404 66.6367,-161.5"/>
</g>
<!-- Node26 -->
<g id="node26" class="node"><title>Node26</title>
<polygon fill="white" stroke="#bfbfbf" points="74,-145.5 74,-164.5 122,-164.5 122,-145.5 74,-145.5"/>
<text text-anchor="middle" x="98" y="-152.5" font-family="Helvetica,sans-Serif" font-size="10.00">thread</text>
</g>
<!-- Node22&#45;&gt;Node26 -->
<g id="edge33" class="edge"><title>Node22&#45;&gt;Node26</title>
<path fill="none" stroke="midnightblue" d="M477.188,-206.444C400.771,-201.045 260.571,-188.978 132.068,-164.926"/>
<polygon fill="midnightblue" stroke="midnightblue" points="132.527,-161.451 122.05,-163.022 131.22,-168.328 132.527,-161.451"/>
</g>
<!-- Node27 -->
<g id="node27" class="node"><title>Node27</title>
<polygon fill="white" stroke="#bfbfbf" points="140.5,-145.5 140.5,-164.5 265.5,-164.5 265.5,-145.5 140.5,-145.5"/>
<text text-anchor="middle" x="203" y="-152.5" font-family="Helvetica,sans-Serif" font-size="10.00">carl/core/carlLogging.h</text>
</g>
<!-- Node22&#45;&gt;Node27 -->
<g id="edge34" class="edge"><title>Node22&#45;&gt;Node27</title>
<path fill="none" stroke="midnightblue" d="M481.552,-201.444C422.842,-191.865 327.772,-176.356 265.318,-166.167"/>
<polygon fill="midnightblue" stroke="midnightblue" points="265.636,-162.672 255.203,-164.516 264.509,-169.581 265.636,-162.672"/>
</g>
<!-- Node28 -->
<g id="node28" class="node"><title>Node28</title>
<polygon fill="white" stroke="#bfbfbf" points="283.5,-145.5 283.5,-164.5 438.5,-164.5 438.5,-145.5 283.5,-145.5"/>
<text text-anchor="middle" x="361" y="-152.5" font-family="Helvetica,sans-Serif" font-size="10.00">carl/core/carlLoggingHelper.h</text>
</g>
<!-- Node22&#45;&gt;Node28 -->
<g id="edge35" class="edge"><title>Node22&#45;&gt;Node28</title>
<path fill="none" stroke="midnightblue" d="M506.588,-201.444C477.231,-192.28 430.481,-177.688 397.904,-167.519"/>
<polygon fill="midnightblue" stroke="midnightblue" points="398.873,-164.155 388.284,-164.516 396.787,-170.837 398.873,-164.155"/>
</g>
<!-- Node29&#45;&gt;Node4 -->
<g id="edge38" class="edge"><title>Node29&#45;&gt;Node4</title>
<path fill="none" stroke="midnightblue" d="M737.427,-313.465C736.172,-282.704 733.177,-209.329 731.763,-174.7"/>
<polygon fill="midnightblue" stroke="midnightblue" points="735.254,-174.409 731.349,-164.56 728.26,-174.694 735.254,-174.409"/>
</g>
<!-- Node30 -->
<g id="node30" class="node"><title>Node30</title>
<polygon fill="white" stroke="#bfbfbf" points="602,-257.5 602,-276.5 710,-276.5 710,-257.5 602,-257.5"/>
<text text-anchor="middle" x="656" y="-264.5" font-family="Helvetica,sans-Serif" font-size="10.00">carl/util/Singleton.h</text>
</g>
<!-- Node29&#45;&gt;Node30 -->
<g id="edge39" class="edge"><title>Node29&#45;&gt;Node30</title>
<path fill="none" stroke="midnightblue" d="M718.567,-313.399C705.792,-304.129 689.111,-292.025 676.186,-282.647"/>
<polygon fill="midnightblue" stroke="midnightblue" points="678.081,-279.698 667.932,-276.658 673.97,-285.364 678.081,-279.698"/>
</g>
<!-- Node31&#45;&gt;Node3 -->
<g id="edge41" class="edge"><title>Node31&#45;&gt;Node3</title>
<path fill="none" stroke="midnightblue" d="M850,-318.975C850,-310.58 850,-297.481 850,-286.663"/>
<polygon fill="midnightblue" stroke="midnightblue" points="853.5,-286.509 850,-276.509 846.5,-286.509 853.5,-286.509"/>
</g>
<!-- Node31&#45;&gt;Node6 -->
<g id="edge42" class="edge"><title>Node31&#45;&gt;Node6</title>
<path fill="none" stroke="midnightblue" d="M859.04,-318.677C868.21,-309.212 882.141,-293.326 890,-277 906.309,-243.121 913.392,-199.252 916.25,-174.724"/>
<polygon fill="midnightblue" stroke="midnightblue" points="919.745,-174.953 917.31,-164.642 912.783,-174.221 919.745,-174.953"/>
</g>
<!-- Node31&#45;&gt;Node13 -->
<g id="edge43" class="edge"><title>Node31&#45;&gt;Node13</title>
<path fill="none" stroke="midnightblue" d="M841.394,-318.901C832.27,-309.374 817.964,-293.207 809,-277 778.999,-222.762 804.286,-192.104 764,-145 752.233,-131.242 735.766,-120.695 719.789,-112.889"/>
<polygon fill="midnightblue" stroke="midnightblue" points="721.024,-109.605 710.477,-108.605 718.099,-115.964 721.024,-109.605"/>
</g>
</g>
</svg>
