<?xml version="1.0" encoding="UTF-8" standalone="no"?>
<!DOCTYPE svg PUBLIC "-//W3C//DTD SVG 1.1//EN"
 "http://www.w3.org/Graphics/SVG/1.1/DTD/svg11.dtd">
<!-- Generated by graphviz version 2.38.0 (20140413.2041)
 -->
<!-- Title: /home/travis/build/hypro/hypro/src/hypro/representations/Polytopes/Cone.h Pages: 1 -->
<!--zoomable 441 -->
<svg id="main" version="1.1" xmlns="http://www.w3.org/2000/svg" xmlns:xlink="http://www.w3.org/1999/xlink" xml:space="preserve" onload="init(evt)">
<style type="text/css"><![CDATA[
.edge:hover path { stroke: red; }
.edge:hover polygon { stroke: red; fill: red; }
]]></style>
<script type="text/javascript"><![CDATA[
var edges = document.getElementsByTagName('g');
if (edges && edges.length) {
  for (var i=0;i<edges.length;i++) {
    if (edges[i].id.substr(0,4)=='edge') {
      edges[i].setAttribute('class','edge');
    }
  }
}
]]></script>
        <defs>
                <circle id="rim" cx="0" cy="0" r="7"/>
                <circle id="rim2" cx="0" cy="0" r="3.5"/>
                <g id="zoomPlus">
                        <use xlink:href="#rim" fill="#404040">
                                <set attributeName="fill" to="#808080" begin="zoomplus.mouseover" end="zoomplus.mouseout"/>
                        </use>
                        <path d="M-4,0h8M0,-4v8" fill="none" stroke="white" stroke-width="1.5" pointer-events="none"/>
                </g>
                <g id="zoomMin">
                        <use xlink:href="#rim" fill="#404040">
                                <set attributeName="fill" to="#808080" begin="zoomminus.mouseover" end="zoomminus.mouseout"/>
                        </use>
                        <path d="M-4,0h8" fill="none" stroke="white" stroke-width="1.5" pointer-events="none"/>
                </g>
                <g id="dirArrow">
                        <path fill="none" stroke="white" stroke-width="1.5" d="M0,-3.0v7 M-2.5,-0.5L0,-3.0L2.5,-0.5"/>
                </g>
               <g id="resetDef">
                       <use xlink:href="#rim2" fill="#404040">
                               <set attributeName="fill" to="#808080" begin="reset.mouseover" end="reset.mouseout"/>
                       </use>
               </g>
        </defs>

<script type="text/javascript">
var viewWidth = 1958;
var viewHeight = 441;
var sectionId = 'dynsection-0';
</script>
<script xlink:href="svgpan.js"/>
<svg id="graph" class="graph">
<g id="viewport">
<title>/home/travis/build/hypro/hypro/src/hypro/representations/Polytopes/Cone.h</title>
<polygon fill="white" stroke="none" points="-4,4 -4,-437 1953.51,-437 1953.51,4 -4,4"/>
<!-- Node1 -->
<g id="node1" class="node"><title>Node1</title>
<polygon fill="#bfbfbf" stroke="black" points="1741.01,-380.5 1741.01,-432.5 1886.01,-432.5 1886.01,-380.5 1741.01,-380.5"/>
<text text-anchor="start" x="1749.01" y="-420.5" font-family="Helvetica,sans-Serif" font-size="10.00">/home/travis/build</text>
<text text-anchor="start" x="1749.01" y="-409.5" font-family="Helvetica,sans-Serif" font-size="10.00">/hypro/hypro/src/hypro</text>
<text text-anchor="start" x="1749.01" y="-398.5" font-family="Helvetica,sans-Serif" font-size="10.00">/representations/Polytopes</text>
<text text-anchor="middle" x="1813.51" y="-387.5" font-family="Helvetica,sans-Serif" font-size="10.00">/Cone.h</text>
</g>
<!-- Node2 -->
<g id="node2" class="node"><title>Node2</title>
<g id="a_node2"><a xlink:href="Halfspace_8h.html" target="_top" xlink:title="../../datastructures\l/Halfspace.h">
<polygon fill="white" stroke="black" points="984.013,-313.5 984.013,-343.5 1089.01,-343.5 1089.01,-313.5 984.013,-313.5"/>
<text text-anchor="start" x="992.013" y="-331.5" font-family="Helvetica,sans-Serif" font-size="10.00">../../datastructures</text>
<text text-anchor="middle" x="1036.51" y="-320.5" font-family="Helvetica,sans-Serif" font-size="10.00">/Halfspace.h</text>
</a>
</g>
</g>
<!-- Node1&#45;&gt;Node2 -->
<g id="edge1" class="edge"><title>Node1&#45;&gt;Node2</title>
<path fill="none" stroke="midnightblue" d="M1740.76,-398.384C1589.31,-383.57 1242.39,-349.638 1099.65,-335.675"/>
<polygon fill="midnightblue" stroke="midnightblue" points="1099.61,-332.155 1089.32,-334.665 1098.93,-339.122 1099.61,-332.155"/>
</g>
<!-- Node12 -->
<g id="node12" class="node"><title>Node12</title>
<polygon fill="white" stroke="#bfbfbf" points="1705.01,-56.5 1705.01,-75.5 1752.01,-75.5 1752.01,-56.5 1705.01,-56.5"/>
<text text-anchor="middle" x="1728.51" y="-63.5" font-family="Helvetica,sans-Serif" font-size="10.00">vector</text>
</g>
<!-- Node1&#45;&gt;Node12 -->
<g id="edge59" class="edge"><title>Node1&#45;&gt;Node12</title>
<path fill="none" stroke="midnightblue" d="M1805.56,-380.475C1797.29,-352.155 1785.51,-304.494 1785.51,-262.5 1785.51,-262.5 1785.51,-262.5 1785.51,-188 1785.51,-147.59 1759.17,-106.206 1742.3,-83.8451"/>
<polygon fill="midnightblue" stroke="midnightblue" points="1744.88,-81.4597 1735.96,-75.7384 1739.37,-85.7719 1744.88,-81.4597"/>
</g>
<!-- Node41 -->
<g id="node41" class="node"><title>Node41</title>
<polygon fill="white" stroke="#bfbfbf" points="1814.01,-319 1814.01,-338 1871.01,-338 1871.01,-319 1814.01,-319"/>
<text text-anchor="middle" x="1842.51" y="-326" font-family="Helvetica,sans-Serif" font-size="10.00">memory</text>
</g>
<!-- Node1&#45;&gt;Node41 -->
<g id="edge58" class="edge"><title>Node1&#45;&gt;Node41</title>
<path fill="none" stroke="midnightblue" d="M1823.17,-380.193C1827.24,-369.538 1831.88,-357.379 1835.59,-347.641"/>
<polygon fill="midnightblue" stroke="midnightblue" points="1838.89,-348.8 1839.19,-338.209 1832.35,-346.304 1838.89,-348.8"/>
</g>
<!-- Node42 -->
<g id="node42" class="node"><title>Node42</title>
<polygon fill="white" stroke="#bfbfbf" points="1889.51,-319 1889.51,-338 1949.51,-338 1949.51,-319 1889.51,-319"/>
<text text-anchor="middle" x="1919.51" y="-326" font-family="Helvetica,sans-Serif" font-size="10.00">Cone.tpp</text>
</g>
<!-- Node1&#45;&gt;Node42 -->
<g id="edge60" class="edge"><title>Node1&#45;&gt;Node42</title>
<path fill="none" stroke="midnightblue" d="M1848.52,-380.404C1865.29,-368.374 1884.81,-354.385 1899.12,-344.12"/>
<polygon fill="midnightblue" stroke="midnightblue" points="1901.21,-346.931 1907.3,-338.26 1897.13,-341.242 1901.21,-346.931"/>
</g>
<!-- Node3 -->
<g id="node3" class="node"><title>Node3</title>
<g id="a_node3"><a xlink:href="representations_2types_8h.html" target="_top" xlink:title="../representations\l/types.h">
<polygon fill="white" stroke="black" points="1178.01,-246.5 1178.01,-276.5 1279.01,-276.5 1279.01,-246.5 1178.01,-246.5"/>
<text text-anchor="start" x="1186.01" y="-264.5" font-family="Helvetica,sans-Serif" font-size="10.00">../representations</text>
<text text-anchor="middle" x="1228.51" y="-253.5" font-family="Helvetica,sans-Serif" font-size="10.00">/types.h</text>
</a>
</g>
</g>
<!-- Node2&#45;&gt;Node3 -->
<g id="edge2" class="edge"><title>Node2&#45;&gt;Node3</title>
<path fill="none" stroke="midnightblue" d="M1078.17,-313.396C1107.23,-303.558 1146.2,-290.367 1177.18,-279.879"/>
<polygon fill="midnightblue" stroke="midnightblue" points="1178.58,-283.098 1186.93,-276.577 1176.34,-276.468 1178.58,-283.098"/>
</g>
<!-- Node4 -->
<g id="node4" class="node"><title>Node4</title>
<g id="a_node4"><a xlink:href="VariablePool_8h.html" target="_top" xlink:title="../util/VariablePool.h">
<polygon fill="white" stroke="black" points="1221.51,-179.5 1221.51,-198.5 1331.51,-198.5 1331.51,-179.5 1221.51,-179.5"/>
<text text-anchor="middle" x="1276.51" y="-186.5" font-family="Helvetica,sans-Serif" font-size="10.00">../util/VariablePool.h</text>
</a>
</g>
</g>
<!-- Node2&#45;&gt;Node4 -->
<g id="edge3" class="edge"><title>Node2&#45;&gt;Node4</title>
<path fill="none" stroke="midnightblue" d="M1023.1,-313.48C1008.12,-296.09 987.994,-266.266 1004.51,-246 1030.06,-214.655 1138.92,-200.344 1210.94,-194.202"/>
<polygon fill="midnightblue" stroke="midnightblue" points="1211.6,-197.659 1221.28,-193.354 1211.03,-190.682 1211.6,-197.659"/>
</g>
<!-- Node10 -->
<g id="node10" class="node"><title>Node10</title>
<polygon fill="white" stroke="#bfbfbf" points="1113.51,-112.5 1113.51,-131.5 1165.51,-131.5 1165.51,-112.5 1113.51,-112.5"/>
<text text-anchor="middle" x="1139.51" y="-119.5" font-family="Helvetica,sans-Serif" font-size="10.00">cassert</text>
</g>
<!-- Node2&#45;&gt;Node10 -->
<g id="edge55" class="edge"><title>Node2&#45;&gt;Node10</title>
<path fill="none" stroke="midnightblue" d="M1020.1,-313.397C1010.64,-304.14 999.63,-291.156 994.513,-277 989.829,-264.043 988.724,-258.502 994.513,-246 1018.79,-193.566 1077.66,-155.33 1112.47,-136.391"/>
<polygon fill="midnightblue" stroke="midnightblue" points="1114.39,-139.333 1121.6,-131.565 1111.12,-133.144 1114.39,-139.333"/>
</g>
<!-- Node13 -->
<g id="node13" class="node"><title>Node13</title>
<g id="a_node13"><a xlink:href="adaptions__eigen_8h.html" target="_top" xlink:title="../util/adaptions_eigen\l/adaptions_eigen.h">
<polygon fill="white" stroke="black" points="402.513,-246.5 402.513,-276.5 524.513,-276.5 524.513,-246.5 402.513,-246.5"/>
<text text-anchor="start" x="410.513" y="-264.5" font-family="Helvetica,sans-Serif" font-size="10.00">../util/adaptions_eigen</text>
<text text-anchor="middle" x="463.513" y="-253.5" font-family="Helvetica,sans-Serif" font-size="10.00">/adaptions_eigen.h</text>
</a>
</g>
</g>
<!-- Node2&#45;&gt;Node13 -->
<g id="edge12" class="edge"><title>Node2&#45;&gt;Node13</title>
<path fill="none" stroke="midnightblue" d="M983.889,-321.53C880.763,-309.832 651.982,-283.88 535.167,-270.628"/>
<polygon fill="midnightblue" stroke="midnightblue" points="535.233,-267.113 524.902,-269.464 534.444,-274.069 535.233,-267.113"/>
</g>
<!-- Node36 -->
<g id="node36" class="node"><title>Node36</title>
<g id="a_node36"><a xlink:href="EvaluationResult_8h.html" target="_top" xlink:title="../util/linearOptimization\l/EvaluationResult.h">
<polygon fill="white" stroke="black" points="789.513,-246.5 789.513,-276.5 919.513,-276.5 919.513,-246.5 789.513,-246.5"/>
<text text-anchor="start" x="797.513" y="-264.5" font-family="Helvetica,sans-Serif" font-size="10.00">../util/linearOptimization</text>
<text text-anchor="middle" x="854.513" y="-253.5" font-family="Helvetica,sans-Serif" font-size="10.00">/EvaluationResult.h</text>
</a>
</g>
</g>
<!-- Node2&#45;&gt;Node36 -->
<g id="edge46" class="edge"><title>Node2&#45;&gt;Node36</title>
<path fill="none" stroke="midnightblue" d="M997.022,-313.396C969.595,-303.601 932.86,-290.481 903.556,-280.015"/>
<polygon fill="midnightblue" stroke="midnightblue" points="904.522,-276.644 893.927,-276.577 902.168,-283.236 904.522,-276.644"/>
</g>
<!-- Node37 -->
<g id="node37" class="node"><title>Node37</title>
<g id="a_node37"><a xlink:href="Point_8h.html" target="_top" xlink:title="Point.h">
<polygon fill="white" stroke="black" points="1297.51,-252 1297.51,-271 1347.51,-271 1347.51,-252 1297.51,-252"/>
<text text-anchor="middle" x="1322.51" y="-259" font-family="Helvetica,sans-Serif" font-size="10.00">Point.h</text>
</a>
</g>
</g>
<!-- Node2&#45;&gt;Node37 -->
<g id="edge48" class="edge"><title>Node2&#45;&gt;Node37</title>
<path fill="none" stroke="midnightblue" d="M1089.16,-319.961C1140.46,-311.903 1220.33,-297.463 1287.51,-277 1289.8,-276.305 1292.13,-275.515 1294.47,-274.672"/>
<polygon fill="midnightblue" stroke="midnightblue" points="1295.82,-277.902 1303.87,-271.01 1293.28,-271.379 1295.82,-277.902"/>
</g>
<!-- Node39 -->
<g id="node39" class="node"><title>Node39</title>
<polygon fill="white" stroke="#bfbfbf" points="1014.01,-252 1014.01,-271 1059.01,-271 1059.01,-252 1014.01,-252"/>
<text text-anchor="middle" x="1036.51" y="-259" font-family="Helvetica,sans-Serif" font-size="10.00">glpk.h</text>
</g>
<!-- Node2&#45;&gt;Node39 -->
<g id="edge56" class="edge"><title>Node2&#45;&gt;Node39</title>
<path fill="none" stroke="midnightblue" d="M1036.51,-313.396C1036.51,-304.064 1036.51,-291.714 1036.51,-281.517"/>
<polygon fill="midnightblue" stroke="midnightblue" points="1040.01,-281.195 1036.51,-271.195 1033.01,-281.195 1040.01,-281.195"/>
</g>
<!-- Node40 -->
<g id="node40" class="node"><title>Node40</title>
<polygon fill="white" stroke="#bfbfbf" points="1077.01,-252 1077.01,-271 1160.01,-271 1160.01,-252 1077.01,-252"/>
<text text-anchor="middle" x="1118.51" y="-259" font-family="Helvetica,sans-Serif" font-size="10.00">Halfspace.tpp</text>
</g>
<!-- Node2&#45;&gt;Node40 -->
<g id="edge57" class="edge"><title>Node2&#45;&gt;Node40</title>
<path fill="none" stroke="midnightblue" d="M1054.31,-313.396C1067.6,-302.86 1085.74,-288.477 1099.35,-277.689"/>
<polygon fill="midnightblue" stroke="midnightblue" points="1101.88,-280.149 1107.54,-271.195 1097.53,-274.664 1101.88,-280.149"/>
</g>
<!-- Node5 -->
<g id="node5" class="node"><title>Node5</title>
<g id="a_node5"><a xlink:href="flags_8h.html" target="_top" xlink:title="../flags.h">
<polygon fill="white" stroke="black" points="810.013,-56.5 810.013,-75.5 867.013,-75.5 867.013,-56.5 810.013,-56.5"/>
<text text-anchor="middle" x="838.513" y="-63.5" font-family="Helvetica,sans-Serif" font-size="10.00">../flags.h</text>
</a>
</g>
</g>
<!-- Node4&#45;&gt;Node5 -->
<g id="edge4" class="edge"><title>Node4&#45;&gt;Node5</title>
<path fill="none" stroke="midnightblue" d="M1221.27,-186.228C1152,-182.39 1030.66,-170.264 934.513,-132 904.46,-120.04 874.308,-97.4815 856.024,-82.3438"/>
<polygon fill="midnightblue" stroke="midnightblue" points="857.946,-79.3842 848.054,-75.5876 853.419,-84.7238 857.946,-79.3842"/>
</g>
<!-- Node6 -->
<g id="node6" class="node"><title>Node6</title>
<polygon fill="white" stroke="#bfbfbf" points="1221.51,-112.5 1221.51,-131.5 1283.51,-131.5 1283.51,-112.5 1221.51,-112.5"/>
<text text-anchor="middle" x="1252.51" y="-119.5" font-family="Helvetica,sans-Serif" font-size="10.00">algorithm</text>
</g>
<!-- Node4&#45;&gt;Node6 -->
<g id="edge5" class="edge"><title>Node4&#45;&gt;Node6</title>
<path fill="none" stroke="midnightblue" d="M1273.28,-179.234C1269.68,-169.488 1263.77,-153.481 1259.17,-141.032"/>
<polygon fill="midnightblue" stroke="midnightblue" points="1262.45,-139.796 1255.7,-131.627 1255.88,-142.221 1262.45,-139.796"/>
</g>
<!-- Node7 -->
<g id="node7" class="node"><title>Node7</title>
<polygon fill="white" stroke="#bfbfbf" points="1301.51,-112.5 1301.51,-131.5 1409.51,-131.5 1409.51,-112.5 1301.51,-112.5"/>
<text text-anchor="middle" x="1355.51" y="-119.5" font-family="Helvetica,sans-Serif" font-size="10.00">carl/core/Variable.h</text>
</g>
<!-- Node4&#45;&gt;Node7 -->
<g id="edge6" class="edge"><title>Node4&#45;&gt;Node7</title>
<path fill="none" stroke="midnightblue" d="M1287.17,-179.234C1299.96,-168.708 1321.63,-150.879 1337.14,-138.117"/>
<polygon fill="midnightblue" stroke="midnightblue" points="1339.53,-140.684 1345.03,-131.627 1335.08,-135.278 1339.53,-140.684"/>
</g>
<!-- Node8 -->
<g id="node8" class="node"><title>Node8</title>
<polygon fill="white" stroke="#bfbfbf" points="1427.51,-112.5 1427.51,-131.5 1555.51,-131.5 1555.51,-112.5 1427.51,-112.5"/>
<text text-anchor="middle" x="1491.51" y="-119.5" font-family="Helvetica,sans-Serif" font-size="10.00">carl/core/VariablePool.h</text>
</g>
<!-- Node4&#45;&gt;Node8 -->
<g id="edge7" class="edge"><title>Node4&#45;&gt;Node8</title>
<path fill="none" stroke="midnightblue" d="M1305.06,-179.369C1343.24,-167.827 1411.02,-147.335 1453.49,-134.496"/>
<polygon fill="midnightblue" stroke="midnightblue" points="1454.63,-137.808 1463.19,-131.564 1452.6,-131.107 1454.63,-137.808"/>
</g>
<!-- Node9 -->
<g id="node9" class="node"><title>Node9</title>
<polygon fill="white" stroke="#bfbfbf" points="1573.51,-112.5 1573.51,-131.5 1681.51,-131.5 1681.51,-112.5 1573.51,-112.5"/>
<text text-anchor="middle" x="1627.51" y="-119.5" font-family="Helvetica,sans-Serif" font-size="10.00">carl/util/Singleton.h</text>
</g>
<!-- Node4&#45;&gt;Node9 -->
<g id="edge8" class="edge"><title>Node4&#45;&gt;Node9</title>
<path fill="none" stroke="midnightblue" d="M1322.76,-179.436C1386.77,-167.582 1502.25,-146.196 1571.2,-133.428"/>
<polygon fill="midnightblue" stroke="midnightblue" points="1572.25,-136.794 1581.44,-131.532 1570.97,-129.911 1572.25,-136.794"/>
</g>
<!-- Node4&#45;&gt;Node10 -->
<g id="edge9" class="edge"><title>Node4&#45;&gt;Node10</title>
<path fill="none" stroke="midnightblue" d="M1258.32,-179.369C1234.98,-168.296 1194.28,-148.986 1167.12,-136.098"/>
<polygon fill="midnightblue" stroke="midnightblue" points="1168.32,-132.792 1157.78,-131.667 1165.32,-139.116 1168.32,-132.792"/>
</g>
<!-- Node11 -->
<g id="node11" class="node"><title>Node11</title>
<polygon fill="white" stroke="#bfbfbf" points="1145.51,-56.5 1145.51,-75.5 1183.51,-75.5 1183.51,-56.5 1145.51,-56.5"/>
<text text-anchor="middle" x="1164.51" y="-63.5" font-family="Helvetica,sans-Serif" font-size="10.00">map</text>
</g>
<!-- Node4&#45;&gt;Node11 -->
<g id="edge10" class="edge"><title>Node4&#45;&gt;Node11</title>
<path fill="none" stroke="midnightblue" d="M1264.98,-179.167C1251.62,-168.664 1229.31,-150.249 1212.51,-132 1198.62,-116.905 1184.93,-97.8432 1175.75,-84.2734"/>
<polygon fill="midnightblue" stroke="midnightblue" points="1178.62,-82.2641 1170.17,-75.8727 1172.79,-86.1385 1178.62,-82.2641"/>
</g>
<!-- Node4&#45;&gt;Node12 -->
<g id="edge11" class="edge"><title>Node4&#45;&gt;Node12</title>
<path fill="none" stroke="midnightblue" d="M1331.88,-186.435C1430.79,-182.687 1632.88,-170.428 1690.51,-132 1706.79,-121.146 1717.02,-100.765 1722.72,-85.7075"/>
<polygon fill="midnightblue" stroke="midnightblue" points="1726.15,-86.4911 1726.08,-75.8964 1719.53,-84.2206 1726.15,-86.4911"/>
</g>
<!-- Node14 -->
<g id="node14" class="node"><title>Node14</title>
<g id="a_node14"><a xlink:href="config_8h.html" target="_top" xlink:title="../../config.h">
<polygon fill="white" stroke="black" points="777.513,-179.5 777.513,-198.5 849.513,-198.5 849.513,-179.5 777.513,-179.5"/>
<text text-anchor="middle" x="813.513" y="-186.5" font-family="Helvetica,sans-Serif" font-size="10.00">../../config.h</text>
</a>
</g>
</g>
<!-- Node13&#45;&gt;Node14 -->
<g id="edge13" class="edge"><title>Node13&#45;&gt;Node14</title>
<path fill="none" stroke="midnightblue" d="M524.777,-254.789C586.888,-247.966 685.294,-234.3 767.513,-210 773.98,-208.089 780.744,-205.504 787.033,-202.827"/>
<polygon fill="midnightblue" stroke="midnightblue" points="788.715,-205.909 796.414,-198.63 785.857,-199.519 788.715,-205.909"/>
</g>
<!-- Node16 -->
<g id="node16" class="node"><title>Node16</title>
<g id="a_node16"><a xlink:href="types_8h.html" target="_top" xlink:title="../types.h">
<polygon fill="white" stroke="black" points="885.013,-56.5 885.013,-75.5 946.013,-75.5 946.013,-56.5 885.013,-56.5"/>
<text text-anchor="middle" x="915.513" y="-63.5" font-family="Helvetica,sans-Serif" font-size="10.00">../types.h</text>
</a>
</g>
</g>
<!-- Node13&#45;&gt;Node16 -->
<g id="edge37" class="edge"><title>Node13&#45;&gt;Node16</title>
<path fill="none" stroke="midnightblue" d="M501.959,-246.477C527.087,-237.673 560.034,-225.126 587.513,-210 614.768,-194.997 616.287,-183.054 643.513,-168 720.881,-125.222 820.106,-92.5013 874.922,-76.9614"/>
<polygon fill="midnightblue" stroke="midnightblue" points="875.93,-80.314 884.626,-74.2611 874.053,-73.5703 875.93,-80.314"/>
</g>
<!-- Node17 -->
<g id="node17" class="node"><title>Node17</title>
<polygon fill="white" stroke="#bfbfbf" points="499.513,-0.5 499.513,-19.5 633.513,-19.5 633.513,-0.5 499.513,-0.5"/>
<text text-anchor="middle" x="566.513" y="-7.5" font-family="Helvetica,sans-Serif" font-size="10.00">carl/numbers/numbers.h</text>
</g>
<!-- Node13&#45;&gt;Node17 -->
<g id="edge39" class="edge"><title>Node13&#45;&gt;Node17</title>
<path fill="none" stroke="midnightblue" d="M402.231,-257.219C295.043,-250.849 82.7337,-235.179 60.5132,-210 15.2243,-158.682 14.309,-106.496 60.5132,-56 88.8365,-25.046 354.638,-15.2458 489.218,-12.2542"/>
<polygon fill="midnightblue" stroke="midnightblue" points="489.54,-15.7482 499.463,-12.034 489.39,-8.7498 489.54,-15.7482"/>
</g>
<!-- Node20 -->
<g id="node20" class="node"><title>Node20</title>
<polygon fill="white" stroke="#bfbfbf" points="90.5132,-0.5 90.5132,-19.5 202.513,-19.5 202.513,-0.5 90.5132,-0.5"/>
<text text-anchor="middle" x="146.513" y="-7.5" font-family="Helvetica,sans-Serif" font-size="10.00">eigen3/Eigen/Dense</text>
</g>
<!-- Node13&#45;&gt;Node20 -->
<g id="edge40" class="edge"><title>Node13&#45;&gt;Node20</title>
<path fill="none" stroke="midnightblue" d="M402.409,-257.554C289.24,-251.5 56.1546,-236 30.5132,-210 -17.6926,-161.12 -4.41939,-106.104 42.5132,-56 57.3552,-40.155 78.7271,-29.6086 98.2411,-22.7371"/>
<polygon fill="midnightblue" stroke="midnightblue" points="99.5195,-26.0013 107.932,-19.5611 97.3395,-19.3494 99.5195,-26.0013"/>
</g>
<!-- Node21 -->
<g id="node21" class="node"><title>Node21</title>
<polygon fill="white" stroke="#bfbfbf" points="790.513,-0.5 790.513,-19.5 836.513,-19.5 836.513,-0.5 790.513,-0.5"/>
<text text-anchor="middle" x="813.513" y="-7.5" font-family="Helvetica,sans-Serif" font-size="10.00">iosfwd</text>
</g>
<!-- Node13&#45;&gt;Node21 -->
<g id="edge43" class="edge"><title>Node13&#45;&gt;Node21</title>
<path fill="none" stroke="midnightblue" d="M402.294,-258.276C319.931,-254.077 179.28,-242.275 140.513,-210 85.5172,-164.213 44.5155,-108.156 93.5132,-56 99.4746,-49.6544 638.745,-20.3576 779.972,-12.7887"/>
<polygon fill="midnightblue" stroke="midnightblue" points="780.384,-16.2717 790.182,-12.2421 780.01,-9.28171 780.384,-16.2717"/>
</g>
<!-- Node31 -->
<g id="node31" class="node"><title>Node31</title>
<g id="a_node31"><a xlink:href="transformation_8h.html" target="_top" xlink:title="transformation.h">
<polygon fill="white" stroke="black" points="662.013,-179.5 662.013,-198.5 759.013,-198.5 759.013,-179.5 662.013,-179.5"/>
<text text-anchor="middle" x="710.513" y="-186.5" font-family="Helvetica,sans-Serif" font-size="10.00">transformation.h</text>
</a>
</g>
</g>
<!-- Node13&#45;&gt;Node31 -->
<g id="edge38" class="edge"><title>Node13&#45;&gt;Node31</title>
<path fill="none" stroke="midnightblue" d="M516.814,-246.469C553.634,-236.63 603.678,-222.968 647.513,-210 656.388,-207.375 665.923,-204.418 674.822,-201.601"/>
<polygon fill="midnightblue" stroke="midnightblue" points="676.068,-204.877 684.53,-198.503 673.94,-198.208 676.068,-204.877"/>
</g>
<!-- Node32 -->
<g id="node32" class="node"><title>Node32</title>
<polygon fill="white" stroke="#bfbfbf" points="149.513,-179.5 149.513,-198.5 287.513,-198.5 287.513,-179.5 149.513,-179.5"/>
<text text-anchor="middle" x="218.513" y="-186.5" font-family="Helvetica,sans-Serif" font-size="10.00">eigen3/Eigen/Eigenvalues</text>
</g>
<!-- Node13&#45;&gt;Node32 -->
<g id="edge41" class="edge"><title>Node13&#45;&gt;Node32</title>
<path fill="none" stroke="midnightblue" d="M414.816,-246.487C368.824,-233.253 300.703,-213.65 257.999,-201.362"/>
<polygon fill="midnightblue" stroke="midnightblue" points="258.821,-197.957 248.243,-198.555 256.885,-204.684 258.821,-197.957"/>
</g>
<!-- Node33 -->
<g id="node33" class="node"><title>Node33</title>
<polygon fill="white" stroke="#bfbfbf" points="306.013,-179.5 306.013,-198.5 369.013,-198.5 369.013,-179.5 306.013,-179.5"/>
<text text-anchor="middle" x="337.513" y="-186.5" font-family="Helvetica,sans-Serif" font-size="10.00">functional</text>
</g>
<!-- Node13&#45;&gt;Node33 -->
<g id="edge42" class="edge"><title>Node13&#45;&gt;Node33</title>
<path fill="none" stroke="midnightblue" d="M438.318,-246.403C416.047,-233.942 383.774,-215.884 361.785,-203.581"/>
<polygon fill="midnightblue" stroke="midnightblue" points="363.201,-200.362 352.765,-198.534 359.782,-206.471 363.201,-200.362"/>
</g>
<!-- Node34 -->
<g id="node34" class="node"><title>Node34</title>
<polygon fill="white" stroke="#bfbfbf" points="387.513,-179.5 387.513,-198.5 429.513,-198.5 429.513,-179.5 387.513,-179.5"/>
<text text-anchor="middle" x="408.513" y="-186.5" font-family="Helvetica,sans-Serif" font-size="10.00">limits</text>
</g>
<!-- Node13&#45;&gt;Node34 -->
<g id="edge44" class="edge"><title>Node13&#45;&gt;Node34</title>
<path fill="none" stroke="midnightblue" d="M452.383,-246.233C443.492,-234.837 431.012,-218.839 421.635,-206.82"/>
<polygon fill="midnightblue" stroke="midnightblue" points="424.362,-204.625 415.451,-198.893 418.843,-208.931 424.362,-204.625"/>
</g>
<!-- Node35 -->
<g id="node35" class="node"><title>Node35</title>
<polygon fill="white" stroke="#bfbfbf" points="447.513,-168.5 447.513,-209.5 587.513,-209.5 587.513,-168.5 447.513,-168.5"/>
<text text-anchor="start" x="455.513" y="-197.5" font-family="Helvetica,sans-Serif" font-size="10.00">eigen3/unsupported</text>
<text text-anchor="start" x="455.513" y="-186.5" font-family="Helvetica,sans-Serif" font-size="10.00">/Eigen/src/MatrixFunctions</text>
<text text-anchor="middle" x="517.513" y="-175.5" font-family="Helvetica,sans-Serif" font-size="10.00">/MatrixExponential.h</text>
</g>
<!-- Node13&#45;&gt;Node35 -->
<g id="edge45" class="edge"><title>Node13&#45;&gt;Node35</title>
<path fill="none" stroke="midnightblue" d="M474.441,-246.233C480.749,-237.998 488.897,-227.359 496.406,-217.556"/>
<polygon fill="midnightblue" stroke="midnightblue" points="499.207,-219.656 502.509,-209.588 493.65,-215.399 499.207,-219.656"/>
</g>
<!-- Node14&#45;&gt;Node5 -->
<g id="edge14" class="edge"><title>Node14&#45;&gt;Node5</title>
<path fill="none" stroke="midnightblue" d="M814.56,-179.04C816.311,-164.757 820.175,-135.992 825.513,-112 827.502,-103.059 830.258,-93.2737 832.72,-85.1185"/>
<polygon fill="midnightblue" stroke="midnightblue" points="836.07,-86.133 835.699,-75.5446 829.386,-84.0532 836.07,-86.133"/>
</g>
<!-- Node15 -->
<g id="node15" class="node"><title>Node15</title>
<g id="a_node15"><a xlink:href="util_2convenienceOperators_8h.html" target="_top" xlink:title="util/convenienceOperators.h">
<polygon fill="white" stroke="black" points="944.013,-112.5 944.013,-131.5 1095.01,-131.5 1095.01,-112.5 944.013,-112.5"/>
<text text-anchor="middle" x="1019.51" y="-119.5" font-family="Helvetica,sans-Serif" font-size="10.00">util/convenienceOperators.h</text>
</a>
</g>
</g>
<!-- Node14&#45;&gt;Node15 -->
<g id="edge15" class="edge"><title>Node14&#45;&gt;Node15</title>
<path fill="none" stroke="midnightblue" d="M840.868,-179.369C877.369,-167.851 942.115,-147.422 982.823,-134.577"/>
<polygon fill="midnightblue" stroke="midnightblue" points="983.89,-137.911 992.373,-131.564 981.783,-131.235 983.89,-137.911"/>
</g>
<!-- Node24 -->
<g id="node24" class="node"><title>Node24</title>
<g id="a_node24"><a xlink:href="Logger_8h.html" target="_top" xlink:title="util/logging/Logger.h">
<polygon fill="white" stroke="black" points="474.013,-112.5 474.013,-131.5 587.013,-131.5 587.013,-112.5 474.013,-112.5"/>
<text text-anchor="middle" x="530.513" y="-119.5" font-family="Helvetica,sans-Serif" font-size="10.00">util/logging/Logger.h</text>
</a>
</g>
</g>
<!-- Node14&#45;&gt;Node24 -->
<g id="edge29" class="edge"><title>Node14&#45;&gt;Node24</title>
<path fill="none" stroke="midnightblue" d="M796.384,-179.468C787.874,-175.511 777.333,-171.026 767.513,-168 711.277,-150.673 645.378,-138.81 597.364,-131.633"/>
<polygon fill="midnightblue" stroke="midnightblue" points="597.801,-128.16 587.399,-130.172 596.786,-135.086 597.801,-128.16"/>
</g>
<!-- Node15&#45;&gt;Node11 -->
<g id="edge25" class="edge"><title>Node15&#45;&gt;Node11</title>
<path fill="none" stroke="midnightblue" d="M1042.49,-112.444C1067.81,-103.014 1108.56,-87.8364 1135.93,-77.6458"/>
<polygon fill="midnightblue" stroke="midnightblue" points="1137.2,-80.9068 1145.35,-74.1368 1134.76,-74.3469 1137.2,-80.9068"/>
</g>
<!-- Node15&#45;&gt;Node12 -->
<g id="edge28" class="edge"><title>Node15&#45;&gt;Node12</title>
<path fill="none" stroke="midnightblue" d="M1095.04,-112.87C1098.24,-112.568 1101.41,-112.276 1104.51,-112 1329.79,-91.9566 1601.42,-74.7476 1694.96,-69.0226"/>
<polygon fill="midnightblue" stroke="midnightblue" points="1695.21,-72.5145 1704.97,-68.4123 1694.78,-65.5275 1695.21,-72.5145"/>
</g>
<!-- Node15&#45;&gt;Node16 -->
<g id="edge16" class="edge"><title>Node15&#45;&gt;Node16</title>
<path fill="none" stroke="midnightblue" d="M1002.8,-112.324C986.201,-103.703 960.511,-90.3643 941.293,-80.3855"/>
<polygon fill="midnightblue" stroke="midnightblue" points="942.669,-77.1565 932.181,-75.6545 939.443,-83.3689 942.669,-77.1565"/>
</g>
<!-- Node15&#45;&gt;Node21 -->
<g id="edge24" class="edge"><title>Node15&#45;&gt;Node21</title>
<path fill="none" stroke="midnightblue" d="M1012.93,-112.093C1002.2,-98.1727 979.591,-71.2774 954.513,-56 945.121,-50.2782 885.231,-32.0839 846.585,-20.6581"/>
<polygon fill="midnightblue" stroke="midnightblue" points="847.366,-17.2396 836.785,-17.7709 845.388,-23.9543 847.366,-17.2396"/>
</g>
<!-- Node22 -->
<g id="node22" class="node"><title>Node22</title>
<polygon fill="white" stroke="#bfbfbf" points="1080.51,-0.5 1080.51,-19.5 1112.51,-19.5 1112.51,-0.5 1080.51,-0.5"/>
<text text-anchor="middle" x="1096.51" y="-7.5" font-family="Helvetica,sans-Serif" font-size="10.00">set</text>
</g>
<!-- Node15&#45;&gt;Node22 -->
<g id="edge26" class="edge"><title>Node15&#45;&gt;Node22</title>
<path fill="none" stroke="midnightblue" d="M1026.19,-112.492C1033.17,-103.53 1044.35,-88.9493 1053.51,-76 1064.83,-60.0012 1077.11,-41.2984 1085.63,-28.073"/>
<polygon fill="midnightblue" stroke="midnightblue" points="1088.66,-29.8354 1091.11,-19.5279 1082.77,-26.0572 1088.66,-29.8354"/>
</g>
<!-- Node23 -->
<g id="node23" class="node"><title>Node23</title>
<polygon fill="white" stroke="#bfbfbf" points="1002.51,-56.5 1002.51,-75.5 1044.51,-75.5 1044.51,-56.5 1002.51,-56.5"/>
<text text-anchor="middle" x="1023.51" y="-63.5" font-family="Helvetica,sans-Serif" font-size="10.00">utility</text>
</g>
<!-- Node15&#45;&gt;Node23 -->
<g id="edge27" class="edge"><title>Node15&#45;&gt;Node23</title>
<path fill="none" stroke="midnightblue" d="M1020.17,-112.083C1020.7,-105.006 1021.45,-94.8611 1022.11,-85.9865"/>
<polygon fill="midnightblue" stroke="midnightblue" points="1025.62,-85.9823 1022.86,-75.7511 1018.64,-85.4652 1025.62,-85.9823"/>
</g>
<!-- Node16&#45;&gt;Node13 -->
<g id="edge23" class="edge"><title>Node16&#45;&gt;Node13</title>
<path fill="none" stroke="midnightblue" d="M891.057,-75.5307C844.441,-90.4297 741.342,-123.861 661.513,-168 634.287,-183.054 632.768,-194.997 605.513,-210 581.254,-223.354 552.734,-234.697 527.581,-243.229"/>
<polygon fill="midnightblue" stroke="midnightblue" points="526.156,-240.014 517.761,-246.477 528.354,-246.66 526.156,-240.014"/>
</g>
<!-- Node16&#45;&gt;Node17 -->
<g id="edge17" class="edge"><title>Node16&#45;&gt;Node17</title>
<path fill="none" stroke="midnightblue" d="M884.988,-57.8786C881.796,-57.2097 878.593,-56.5698 875.513,-56 796.992,-41.471 706.53,-28.7634 643.864,-20.5913"/>
<polygon fill="midnightblue" stroke="midnightblue" points="644.031,-17.0837 633.664,-19.2691 643.131,-24.0256 644.031,-17.0837"/>
</g>
<!-- Node18 -->
<g id="node18" class="node"><title>Node18</title>
<polygon fill="white" stroke="#bfbfbf" points="976.513,-0.5 976.513,-19.5 1062.51,-19.5 1062.51,-0.5 976.513,-0.5"/>
<text text-anchor="middle" x="1019.51" y="-7.5" font-family="Helvetica,sans-Serif" font-size="10.00">carl/util/hash.h</text>
</g>
<!-- Node16&#45;&gt;Node18 -->
<g id="edge18" class="edge"><title>Node16&#45;&gt;Node18</title>
<path fill="none" stroke="midnightblue" d="M932.223,-56.324C948.825,-47.7034 974.515,-34.3643 993.734,-24.3855"/>
<polygon fill="midnightblue" stroke="midnightblue" points="995.583,-27.3689 1002.85,-19.6545 992.357,-21.1565 995.583,-27.3689"/>
</g>
<!-- Node19 -->
<g id="node19" class="node"><title>Node19</title>
<polygon fill="white" stroke="#bfbfbf" points="854.513,-0.5 854.513,-19.5 958.513,-19.5 958.513,-0.5 854.513,-0.5"/>
<text text-anchor="middle" x="906.513" y="-7.5" font-family="Helvetica,sans-Serif" font-size="10.00">eigen3/Eigen/Core</text>
</g>
<!-- Node16&#45;&gt;Node19 -->
<g id="edge19" class="edge"><title>Node16&#45;&gt;Node19</title>
<path fill="none" stroke="midnightblue" d="M914.027,-56.083C912.834,-48.9272 911.119,-38.6353 909.628,-29.6911"/>
<polygon fill="midnightblue" stroke="midnightblue" points="913.068,-29.0396 907.972,-19.7511 906.163,-30.1904 913.068,-29.0396"/>
</g>
<!-- Node16&#45;&gt;Node20 -->
<g id="edge20" class="edge"><title>Node16&#45;&gt;Node20</title>
<path fill="none" stroke="midnightblue" d="M884.595,-57.531C881.538,-56.947 878.473,-56.4216 875.513,-56 632.894,-21.4428 341.115,-13.4158 212.681,-11.5569"/>
<polygon fill="midnightblue" stroke="midnightblue" points="212.657,-8.05633 202.61,-11.419 212.562,-15.0557 212.657,-8.05633"/>
</g>
<!-- Node16&#45;&gt;Node21 -->
<g id="edge21" class="edge"><title>Node16&#45;&gt;Node21</title>
<path fill="none" stroke="midnightblue" d="M899.125,-56.324C882.842,-47.7034 857.646,-34.3643 838.797,-24.3855"/>
<polygon fill="midnightblue" stroke="midnightblue" points="840.336,-21.2402 829.861,-19.6545 837.061,-27.4267 840.336,-21.2402"/>
</g>
<!-- Node16&#45;&gt;Node22 -->
<g id="edge22" class="edge"><title>Node16&#45;&gt;Node22</title>
<path fill="none" stroke="midnightblue" d="M946.181,-56.7849C975.794,-48.7141 1022.09,-35.7347 1070.68,-20.1209"/>
<polygon fill="midnightblue" stroke="midnightblue" points="1071.99,-23.3756 1080.43,-16.9637 1069.84,-16.7164 1071.99,-23.3756"/>
</g>
<!-- Node24&#45;&gt;Node5 -->
<g id="edge30" class="edge"><title>Node24&#45;&gt;Node5</title>
<path fill="none" stroke="midnightblue" d="M587.083,-112.707C639.606,-104.751 720.197,-91.8943 799.728,-76.0396"/>
<polygon fill="midnightblue" stroke="midnightblue" points="800.811,-79.3919 809.925,-73.989 799.431,-72.5293 800.811,-79.3919"/>
</g>
<!-- Node25 -->
<g id="node25" class="node"><title>Node25</title>
<polygon fill="white" stroke="#bfbfbf" points="419.513,-56.5 419.513,-75.5 573.513,-75.5 573.513,-56.5 419.513,-56.5"/>
<text text-anchor="middle" x="496.513" y="-63.5" font-family="Helvetica,sans-Serif" font-size="10.00">carl/io/streamingOperators.h</text>
</g>
<!-- Node24&#45;&gt;Node25 -->
<g id="edge31" class="edge"><title>Node24&#45;&gt;Node25</title>
<path fill="none" stroke="midnightblue" d="M524.899,-112.083C520.146,-104.534 513.195,-93.4948 507.362,-84.2298"/>
<polygon fill="midnightblue" stroke="midnightblue" points="510.313,-82.3486 502.023,-75.7511 504.389,-86.0783 510.313,-82.3486"/>
</g>
<!-- Node26 -->
<g id="node26" class="node"><title>Node26</title>
<polygon fill="white" stroke="#bfbfbf" points="592.013,-56.5 592.013,-75.5 651.013,-75.5 651.013,-56.5 592.013,-56.5"/>
<text text-anchor="middle" x="621.513" y="-63.5" font-family="Helvetica,sans-Serif" font-size="10.00">iostream</text>
</g>
<!-- Node24&#45;&gt;Node26 -->
<g id="edge32" class="edge"><title>Node24&#45;&gt;Node26</title>
<path fill="none" stroke="midnightblue" d="M545.134,-112.324C559.462,-103.822 581.526,-90.7288 598.262,-80.7975"/>
<polygon fill="midnightblue" stroke="midnightblue" points="600.115,-83.7677 606.929,-75.6545 596.543,-77.7478 600.115,-83.7677"/>
</g>
<!-- Node27 -->
<g id="node27" class="node"><title>Node27</title>
<polygon fill="white" stroke="#bfbfbf" points="669.513,-56.5 669.513,-75.5 725.513,-75.5 725.513,-56.5 669.513,-56.5"/>
<text text-anchor="middle" x="697.513" y="-63.5" font-family="Helvetica,sans-Serif" font-size="10.00">sstream</text>
</g>
<!-- Node24&#45;&gt;Node27 -->
<g id="edge33" class="edge"><title>Node24&#45;&gt;Node27</title>
<path fill="none" stroke="midnightblue" d="M556.975,-112.444C585.191,-103.32 630.054,-88.8133 661.482,-78.6509"/>
<polygon fill="midnightblue" stroke="midnightblue" points="662.737,-81.9234 671.175,-75.5164 660.584,-75.263 662.737,-81.9234"/>
</g>
<!-- Node28 -->
<g id="node28" class="node"><title>Node28</title>
<polygon fill="white" stroke="#bfbfbf" points="743.513,-56.5 743.513,-75.5 791.513,-75.5 791.513,-56.5 743.513,-56.5"/>
<text text-anchor="middle" x="767.513" y="-63.5" font-family="Helvetica,sans-Serif" font-size="10.00">thread</text>
</g>
<!-- Node24&#45;&gt;Node28 -->
<g id="edge34" class="edge"><title>Node24&#45;&gt;Node28</title>
<path fill="none" stroke="midnightblue" d="M572.067,-112.459C611.29,-104.257 671.969,-91.2113 733.516,-76.1567"/>
<polygon fill="midnightblue" stroke="midnightblue" points="734.525,-79.5129 743.398,-73.7237 732.851,-72.7158 734.525,-79.5129"/>
</g>
<!-- Node29 -->
<g id="node29" class="node"><title>Node29</title>
<polygon fill="white" stroke="#bfbfbf" points="103.013,-56.5 103.013,-75.5 228.013,-75.5 228.013,-56.5 103.013,-56.5"/>
<text text-anchor="middle" x="165.513" y="-63.5" font-family="Helvetica,sans-Serif" font-size="10.00">carl/core/carlLogging.h</text>
</g>
<!-- Node24&#45;&gt;Node29 -->
<g id="edge35" class="edge"><title>Node24&#45;&gt;Node29</title>
<path fill="none" stroke="midnightblue" d="M473.882,-112.622C408.897,-103.008 302.398,-87.2514 233.123,-77.0025"/>
<polygon fill="midnightblue" stroke="midnightblue" points="233.586,-73.533 223.181,-75.5317 232.561,-80.4576 233.586,-73.533"/>
</g>
<!-- Node30 -->
<g id="node30" class="node"><title>Node30</title>
<polygon fill="white" stroke="#bfbfbf" points="246.013,-56.5 246.013,-75.5 401.013,-75.5 401.013,-56.5 246.013,-56.5"/>
<text text-anchor="middle" x="323.513" y="-63.5" font-family="Helvetica,sans-Serif" font-size="10.00">carl/core/carlLoggingHelper.h</text>
</g>
<!-- Node24&#45;&gt;Node30 -->
<g id="edge36" class="edge"><title>Node24&#45;&gt;Node30</title>
<path fill="none" stroke="midnightblue" d="M497.713,-112.444C462.133,-103.162 405.199,-88.3093 366.167,-78.127"/>
<polygon fill="midnightblue" stroke="midnightblue" points="366.719,-74.6541 356.159,-75.5164 364.952,-81.4274 366.719,-74.6541"/>
</g>
<!-- Node36&#45;&gt;Node16 -->
<g id="edge47" class="edge"><title>Node36&#45;&gt;Node16</title>
<path fill="none" stroke="midnightblue" d="M858.999,-246.271C869.867,-211.796 897.604,-123.812 909.712,-85.4028"/>
<polygon fill="midnightblue" stroke="midnightblue" points="913.141,-86.1665 912.809,-75.5769 906.465,-84.0619 913.141,-86.1665"/>
</g>
<!-- Node37&#45;&gt;Node4 -->
<g id="edge51" class="edge"><title>Node37&#45;&gt;Node4</title>
<path fill="none" stroke="midnightblue" d="M1316.87,-251.855C1309.63,-240.756 1296.9,-221.242 1287.67,-207.095"/>
<polygon fill="midnightblue" stroke="midnightblue" points="1290.6,-205.178 1282.2,-198.715 1284.73,-209.003 1290.6,-205.178"/>
</g>
<!-- Node37&#45;&gt;Node12 -->
<g id="edge53" class="edge"><title>Node37&#45;&gt;Node12</title>
<path fill="none" stroke="midnightblue" d="M1347.52,-259.265C1431.87,-254.849 1702.12,-238.559 1727.51,-210 1758.22,-175.467 1744.8,-115.55 1735.19,-85.42"/>
<polygon fill="midnightblue" stroke="midnightblue" points="1738.44,-84.1112 1731.91,-75.7695 1731.82,-86.3639 1738.44,-84.1112"/>
</g>
<!-- Node37&#45;&gt;Node14 -->
<g id="edge49" class="edge"><title>Node37&#45;&gt;Node14</title>
<path fill="none" stroke="midnightblue" d="M1304.68,-251.986C1299.27,-249.714 1293.24,-247.482 1287.51,-246 1150.66,-210.605 1111.86,-226.876 971.513,-210 933.901,-205.477 891.291,-200.067 859.807,-196.014"/>
<polygon fill="midnightblue" stroke="midnightblue" points="859.945,-192.503 849.58,-194.695 859.05,-199.446 859.945,-192.503"/>
</g>
<!-- Node37&#45;&gt;Node16 -->
<g id="edge50" class="edge"><title>Node37&#45;&gt;Node16</title>
<path fill="none" stroke="midnightblue" d="M1302.63,-251.939C1297.72,-249.914 1292.45,-247.817 1287.51,-246 1132.79,-189.07 1049.45,-250.199 934.513,-132 922.613,-119.762 918.1,-100.498 916.422,-86.1144"/>
<polygon fill="midnightblue" stroke="midnightblue" points="919.887,-85.5398 915.598,-75.8522 912.91,-86.1004 919.887,-85.5398"/>
</g>
<!-- Node37&#45;&gt;Node22 -->
<g id="edge52" class="edge"><title>Node37&#45;&gt;Node22</title>
<path fill="none" stroke="midnightblue" d="M1347.72,-254.215C1424.14,-234.858 1651.85,-174.862 1714.51,-132 1747.1,-109.708 1787.47,-84.8472 1760.51,-56 1716.33,-8.72118 1240.99,-9.72862 1122.94,-10.7179"/>
<polygon fill="midnightblue" stroke="midnightblue" points="1122.62,-7.22059 1112.65,-10.812 1122.68,-14.2203 1122.62,-7.22059"/>
</g>
<!-- Node38 -->
<g id="node38" class="node"><title>Node38</title>
<polygon fill="white" stroke="#bfbfbf" points="1660.01,-179.5 1660.01,-198.5 1719.01,-198.5 1719.01,-179.5 1660.01,-179.5"/>
<text text-anchor="middle" x="1689.51" y="-186.5" font-family="Helvetica,sans-Serif" font-size="10.00">Point.tpp</text>
</g>
<!-- Node37&#45;&gt;Node38 -->
<g id="edge54" class="edge"><title>Node37&#45;&gt;Node38</title>
<path fill="none" stroke="midnightblue" d="M1347.74,-258.891C1402.83,-254.876 1537.58,-242.309 1645.51,-210 1651.59,-208.181 1657.91,-205.692 1663.81,-203.088"/>
<polygon fill="midnightblue" stroke="midnightblue" points="1665.63,-206.1 1673.21,-198.694 1662.67,-199.759 1665.63,-206.1"/>
</g>
</g>
</svg>
        <g id="navigator" transform="translate(0 0)" fill="#404254">
                <rect fill="#f2f5e9" fill-opacity="0.5" stroke="#606060" stroke-width=".5" x="0" y="0" width="60" height="60"/>
                <use id="zoomplus" xlink:href="#zoomPlus" x="17" y="9" onmousedown="handleZoom(evt,'in')"/>
                <use id="zoomminus" xlink:href="#zoomMin" x="42" y="9" onmousedown="handleZoom(evt,'out')"/>
                <use id="reset" xlink:href="#resetDef" x="30" y="36" onmousedown="handleReset()"/>
                <g id="arrowUp" xlink:href="#dirArrow" transform="translate(30 24)" onmousedown="handlePan(0,-1)">
                  <use xlink:href="#rim" fill="#404040">
                        <set attributeName="fill" to="#808080" begin="arrowUp.mouseover" end="arrowUp.mouseout"/>
                  </use>
                  <path fill="none" stroke="white" stroke-width="1.5" d="M0,-3.0v7 M-2.5,-0.5L0,-3.0L2.5,-0.5"/>
                </g>
                <g id="arrowRight" xlink:href="#dirArrow" transform="rotate(90) translate(36 -43)" onmousedown="handlePan(1,0)">
                  <use xlink:href="#rim" fill="#404040">
                        <set attributeName="fill" to="#808080" begin="arrowRight.mouseover" end="arrowRight.mouseout"/>
                  </use>
                  <path fill="none" stroke="white" stroke-width="1.5" d="M0,-3.0v7 M-2.5,-0.5L0,-3.0L2.5,-0.5"/>
                </g>
                <g id="arrowDown" xlink:href="#dirArrow" transform="rotate(180) translate(-30 -48)" onmousedown="handlePan(0,1)">
                  <use xlink:href="#rim" fill="#404040">
                        <set attributeName="fill" to="#808080" begin="arrowDown.mouseover" end="arrowDown.mouseout"/>
                  </use>
                  <path fill="none" stroke="white" stroke-width="1.5" d="M0,-3.0v7 M-2.5,-0.5L0,-3.0L2.5,-0.5"/>
                </g>
                <g id="arrowLeft" xlink:href="#dirArrow" transform="rotate(270) translate(-36 17)" onmousedown="handlePan(-1,0)">
                  <use xlink:href="#rim" fill="#404040">
                        <set attributeName="fill" to="#808080" begin="arrowLeft.mouseover" end="arrowLeft.mouseout"/>
                  </use>
                  <path fill="none" stroke="white" stroke-width="1.5" d="M0,-3.0v7 M-2.5,-0.5L0,-3.0L2.5,-0.5"/>
                </g>
        </g>
        <svg viewBox="0 0 15 15" width="100%" height="30px" preserveAspectRatio="xMaxYMin meet">
         <g id="arrow_out" transform="scale(0.3 0.3)">
          <a xlink:href="Cone_8h__incl_org.svg" target="_base">
           <rect id="button" ry="5" rx="5" y="6" x="6" height="38" width="38"
                fill="#f2f5e9" fill-opacity="0.5" stroke="#606060" stroke-width="1.0"/>
           <path id="arrow"
             d="M 11.500037,31.436501 C 11.940474,20.09759 22.043105,11.32322 32.158766,21.979434 L 37.068811,17.246167 C 37.068811,17.246167 37.088388,32 37.088388,32 L 22.160133,31.978069 C 22.160133,31.978069 26.997745,27.140456 26.997745,27.140456 C 18.528582,18.264221 13.291696,25.230495 11.500037,31.436501 z"
             style="fill:#404040;"/>
          </a>
         </g>
        </svg>
</svg>
