<?xml version="1.0" encoding="UTF-8" standalone="no"?>
<!DOCTYPE svg PUBLIC "-//W3C//DTD SVG 1.1//EN"
 "http://www.w3.org/Graphics/SVG/1.1/DTD/svg11.dtd">
<!-- Generated by graphviz version 2.38.0 (20140413.2041)
 -->
<!-- Title: /home/travis/build/hypro/hypro/src/hypro/representations/TaylorModel/continuous.h Pages: 1 -->
<svg width="796pt" height="173pt"
 viewBox="0.00 0.00 796.00 173.00" xmlns="http://www.w3.org/2000/svg" xmlns:xlink="http://www.w3.org/1999/xlink">
<g id="graph0" class="graph" transform="scale(1 1) rotate(0) translate(4 169)">
<title>/home/travis/build/hypro/hypro/src/hypro/representations/TaylorModel/continuous.h</title>
<polygon fill="white" stroke="none" points="-4,4 -4,-169 792,-169 792,4 -4,4"/>
<!-- Node1 -->
<g id="node1" class="node"><title>Node1</title>
<polygon fill="#bfbfbf" stroke="black" points="396.5,-112.5 396.5,-164.5 550.5,-164.5 550.5,-112.5 396.5,-112.5"/>
<text text-anchor="start" x="404.5" y="-152.5" font-family="Helvetica,sans-Serif" font-size="10.00">/home/travis/build</text>
<text text-anchor="start" x="404.5" y="-141.5" font-family="Helvetica,sans-Serif" font-size="10.00">/hypro/hypro/src/hypro</text>
<text text-anchor="start" x="404.5" y="-130.5" font-family="Helvetica,sans-Serif" font-size="10.00">/representations/TaylorModel</text>
<text text-anchor="middle" x="473.5" y="-119.5" font-family="Helvetica,sans-Serif" font-size="10.00">/continuous.h</text>
</g>
<!-- Node1&#45;&gt;Node1 -->
<g id="edge10" class="edge"><title>Node1&#45;&gt;Node1</title>
<path fill="none" stroke="midnightblue" d="M550.659,-150.547C561.353,-148.562 568.5,-144.547 568.5,-138.5 568.5,-134.532 565.422,-131.438 560.283,-129.22"/>
<polygon fill="midnightblue" stroke="midnightblue" points="561.237,-125.852 550.659,-126.453 559.303,-132.58 561.237,-125.852"/>
</g>
<!-- Node2 -->
<g id="node2" class="node"><title>Node2</title>
<g id="a_node2"><a xlink:href="ContinuousSetting_8h.html" target="_top" xlink:title="ContinuousSetting.h">
<polygon fill="white" stroke="black" points="300.5,-56.5 300.5,-75.5 414.5,-75.5 414.5,-56.5 300.5,-56.5"/>
<text text-anchor="middle" x="357.5" y="-63.5" font-family="Helvetica,sans-Serif" font-size="10.00">ContinuousSetting.h</text>
</a>
</g>
</g>
<!-- Node1&#45;&gt;Node2 -->
<g id="edge1" class="edge"><title>Node1&#45;&gt;Node2</title>
<path fill="none" stroke="midnightblue" d="M432.276,-112.446C414.861,-101.862 395.239,-89.9362 380.466,-80.9578"/>
<polygon fill="midnightblue" stroke="midnightblue" points="381.894,-77.7297 371.53,-75.527 378.258,-83.7116 381.894,-77.7297"/>
</g>
<!-- Node3 -->
<g id="node3" class="node"><title>Node3</title>
<g id="a_node3"><a xlink:href="TaylorModel_8h.html" target="_top" xlink:title="TaylorModel.h">
<polygon fill="white" stroke="black" points="433,-56.5 433,-75.5 514,-75.5 514,-56.5 433,-56.5"/>
<text text-anchor="middle" x="473.5" y="-63.5" font-family="Helvetica,sans-Serif" font-size="10.00">TaylorModel.h</text>
</a>
</g>
</g>
<!-- Node1&#45;&gt;Node3 -->
<g id="edge2" class="edge"><title>Node1&#45;&gt;Node3</title>
<path fill="none" stroke="midnightblue" d="M473.5,-112.446C473.5,-103.73 473.5,-94.1045 473.5,-85.9641"/>
<polygon fill="midnightblue" stroke="midnightblue" points="477,-85.6954 473.5,-75.6955 470,-85.6955 477,-85.6954"/>
</g>
<!-- Node10 -->
<g id="node10" class="node"><title>Node10</title>
<polygon fill="white" stroke="#bfbfbf" points="532.5,-56.5 532.5,-75.5 620.5,-75.5 620.5,-56.5 532.5,-56.5"/>
<text text-anchor="middle" x="576.5" y="-63.5" font-family="Helvetica,sans-Serif" font-size="10.00">continuous.tpp</text>
</g>
<!-- Node1&#45;&gt;Node10 -->
<g id="edge9" class="edge"><title>Node1&#45;&gt;Node10</title>
<path fill="none" stroke="midnightblue" d="M510.104,-112.446C525.326,-102.027 542.447,-90.308 555.491,-81.3801"/>
<polygon fill="midnightblue" stroke="midnightblue" points="557.521,-84.232 563.796,-75.6955 553.567,-78.4556 557.521,-84.232"/>
</g>
<!-- Node4 -->
<g id="node4" class="node"><title>Node4</title>
<polygon fill="white" stroke="#bfbfbf" points="0,-0.5 0,-19.5 177,-19.5 177,-0.5 0,-0.5"/>
<text text-anchor="middle" x="88.5" y="-7.5" font-family="Helvetica,sans-Serif" font-size="10.00">carl/core/MultivariatePolynomial.h</text>
</g>
<!-- Node3&#45;&gt;Node4 -->
<g id="edge3" class="edge"><title>Node3&#45;&gt;Node4</title>
<path fill="none" stroke="midnightblue" d="M432.866,-57.5297C429.7,-56.9953 426.55,-56.479 423.5,-56 336.791,-42.3794 237.047,-29.3135 169.099,-20.8036"/>
<polygon fill="midnightblue" stroke="midnightblue" points="169.248,-17.2952 158.892,-19.5296 168.381,-24.2413 169.248,-17.2952"/>
</g>
<!-- Node5 -->
<g id="node5" class="node"><title>Node5</title>
<polygon fill="white" stroke="#bfbfbf" points="195.5,-0.5 195.5,-19.5 323.5,-19.5 323.5,-0.5 195.5,-0.5"/>
<text text-anchor="middle" x="259.5" y="-7.5" font-family="Helvetica,sans-Serif" font-size="10.00">carl/core/VariablePool.h</text>
</g>
<!-- Node3&#45;&gt;Node5 -->
<g id="edge4" class="edge"><title>Node3&#45;&gt;Node5</title>
<path fill="none" stroke="midnightblue" d="M439.591,-56.4435C402.651,-47.1221 343.446,-32.1828 303.082,-21.9972"/>
<polygon fill="midnightblue" stroke="midnightblue" points="303.803,-18.5695 293.25,-19.5164 302.09,-25.3568 303.803,-18.5695"/>
</g>
<!-- Node6 -->
<g id="node6" class="node"><title>Node6</title>
<polygon fill="white" stroke="#bfbfbf" points="342,-0.5 342,-19.5 461,-19.5 461,-0.5 342,-0.5"/>
<text text-anchor="middle" x="401.5" y="-7.5" font-family="Helvetica,sans-Serif" font-size="10.00">carl/interval/Interval.h</text>
</g>
<!-- Node3&#45;&gt;Node6 -->
<g id="edge5" class="edge"><title>Node3&#45;&gt;Node6</title>
<path fill="none" stroke="midnightblue" d="M461.932,-56.324C451.08,-48.1849 434.619,-35.8395 421.617,-26.0874"/>
<polygon fill="midnightblue" stroke="midnightblue" points="423.379,-23.0339 413.279,-19.8339 419.179,-28.6339 423.379,-23.0339"/>
</g>
<!-- Node7 -->
<g id="node7" class="node"><title>Node7</title>
<polygon fill="white" stroke="#bfbfbf" points="479.5,-0.5 479.5,-19.5 613.5,-19.5 613.5,-0.5 479.5,-0.5"/>
<text text-anchor="middle" x="546.5" y="-7.5" font-family="Helvetica,sans-Serif" font-size="10.00">carl/interval/set_theory.h</text>
</g>
<!-- Node3&#45;&gt;Node7 -->
<g id="edge6" class="edge"><title>Node3&#45;&gt;Node7</title>
<path fill="none" stroke="midnightblue" d="M485.229,-56.324C496.337,-48.1066 513.242,-35.6017 526.483,-25.8069"/>
<polygon fill="midnightblue" stroke="midnightblue" points="528.6,-28.5948 534.558,-19.8339 524.437,-22.9671 528.6,-28.5948"/>
</g>
<!-- Node8 -->
<g id="node8" class="node"><title>Node8</title>
<polygon fill="white" stroke="#bfbfbf" points="632,-0.5 632,-19.5 679,-19.5 679,-0.5 632,-0.5"/>
<text text-anchor="middle" x="655.5" y="-7.5" font-family="Helvetica,sans-Serif" font-size="10.00">vector</text>
</g>
<!-- Node3&#45;&gt;Node8 -->
<g id="edge7" class="edge"><title>Node3&#45;&gt;Node8</title>
<path fill="none" stroke="midnightblue" d="M502.338,-56.4435C534.767,-46.8219 587.369,-31.2147 621.701,-21.0283"/>
<polygon fill="midnightblue" stroke="midnightblue" points="623.135,-24.2537 631.726,-18.0537 621.144,-17.5428 623.135,-24.2537"/>
</g>
<!-- Node9 -->
<g id="node9" class="node"><title>Node9</title>
<polygon fill="white" stroke="#bfbfbf" points="697,-0.5 697,-19.5 788,-19.5 788,-0.5 697,-0.5"/>
<text text-anchor="middle" x="742.5" y="-7.5" font-family="Helvetica,sans-Serif" font-size="10.00">TaylorModel.tpp</text>
</g>
<!-- Node3&#45;&gt;Node9 -->
<g id="edge8" class="edge"><title>Node3&#45;&gt;Node9</title>
<path fill="none" stroke="midnightblue" d="M514.063,-56.8572C560.985,-47.438 638.37,-31.9033 689.885,-21.5622"/>
<polygon fill="midnightblue" stroke="midnightblue" points="690.71,-24.9664 699.826,-19.5666 689.332,-18.1033 690.71,-24.9664"/>
</g>
</g>
</svg>
