<?xml version="1.0" encoding="UTF-8" standalone="no"?>
<!DOCTYPE svg PUBLIC "-//W3C//DTD SVG 1.1//EN"
 "http://www.w3.org/Graphics/SVG/1.1/DTD/svg11.dtd">
<!-- Generated by graphviz version 2.38.0 (20140413.2041)
 -->
<!-- Title: /home/travis/build/hypro/hypro/src/hypro/util/linearOptimization/smtrat/convenience.h Pages: 1 -->
<svg width="157pt" height="150pt"
 viewBox="0.00 0.00 157.00 150.00" xmlns="http://www.w3.org/2000/svg" xmlns:xlink="http://www.w3.org/1999/xlink">
<g id="graph0" class="graph" transform="scale(1 1) rotate(0) translate(4 146)">
<title>/home/travis/build/hypro/hypro/src/hypro/util/linearOptimization/smtrat/convenience.h</title>
<polygon fill="white" stroke="none" points="-4,4 -4,-146 153,-146 153,4 -4,4"/>
<!-- Node1 -->
<g id="node1" class="node"><title>Node1</title>
<polygon fill="#bfbfbf" stroke="black" points="12.5,-89.5 12.5,-141.5 136.5,-141.5 136.5,-89.5 12.5,-89.5"/>
<text text-anchor="start" x="20.5" y="-129.5" font-family="Helvetica,sans-Serif" font-size="10.00">/home/travis/build</text>
<text text-anchor="start" x="20.5" y="-118.5" font-family="Helvetica,sans-Serif" font-size="10.00">/hypro/hypro/src/hypro</text>
<text text-anchor="start" x="20.5" y="-107.5" font-family="Helvetica,sans-Serif" font-size="10.00">/util/linearOptimization</text>
<text text-anchor="middle" x="74.5" y="-96.5" font-family="Helvetica,sans-Serif" font-size="10.00">/smtrat/convenience.h</text>
</g>
<!-- Node2 -->
<g id="node2" class="node"><title>Node2</title>
<g id="a_node2"><a xlink:href="adaptions__smtrat_8h.html" target="_top" xlink:title="/home/travis/build\l/hypro/hypro/src/hypro\l/util/linearOptimization\l/smtrat/adaptions_smtrat.h">
<polygon fill="white" stroke="black" points="-1.42109e-14,-0.5 -1.42109e-14,-52.5 149,-52.5 149,-0.5 -1.42109e-14,-0.5"/>
<text text-anchor="start" x="8" y="-40.5" font-family="Helvetica,sans-Serif" font-size="10.00">/home/travis/build</text>
<text text-anchor="start" x="8" y="-29.5" font-family="Helvetica,sans-Serif" font-size="10.00">/hypro/hypro/src/hypro</text>
<text text-anchor="start" x="8" y="-18.5" font-family="Helvetica,sans-Serif" font-size="10.00">/util/linearOptimization</text>
<text text-anchor="middle" x="74.5" y="-7.5" font-family="Helvetica,sans-Serif" font-size="10.00">/smtrat/adaptions_smtrat.h</text>
</a>
</g>
</g>
<!-- Node1&#45;&gt;Node2 -->
<g id="edge1" class="edge"><title>Node1&#45;&gt;Node2</title>
<path fill="none" stroke="midnightblue" d="M74.5,-79.1908C74.5,-70.2824 74.5,-60.8986 74.5,-52.6075"/>
<polygon fill="midnightblue" stroke="midnightblue" points="71.0001,-79.336 74.5,-89.336 78.0001,-79.336 71.0001,-79.336"/>
</g>
</g>
</svg>
