<?xml version="1.0" encoding="UTF-8" standalone="no"?>
<!DOCTYPE svg PUBLIC "-//W3C//DTD SVG 1.1//EN"
 "http://www.w3.org/Graphics/SVG/1.1/DTD/svg11.dtd">
<!-- Generated by graphviz version 2.38.0 (20140413.2041)
 -->
<!-- Title: /home/travis/build/hypro/hypro/src/hypro/util/linearOptimization/smtrat/convenience.h Pages: 1 -->
<svg width="132pt" height="117pt"
 viewBox="0.00 0.00 132.00 117.00" xmlns="http://www.w3.org/2000/svg" xmlns:xlink="http://www.w3.org/1999/xlink">
<g id="graph0" class="graph" transform="scale(1 1) rotate(0) translate(4 113)">
<title>/home/travis/build/hypro/hypro/src/hypro/util/linearOptimization/smtrat/convenience.h</title>
<polygon fill="white" stroke="none" points="-4,4 -4,-113 128,-113 128,4 -4,4"/>
<!-- Node1 -->
<g id="node1" class="node"><title>Node1</title>
<polygon fill="#bfbfbf" stroke="black" points="-7.10543e-15,-56.5 -7.10543e-15,-108.5 124,-108.5 124,-56.5 -7.10543e-15,-56.5"/>
<text text-anchor="start" x="8" y="-96.5" font-family="Helvetica,sans-Serif" font-size="10.00">/home/travis/build</text>
<text text-anchor="start" x="8" y="-85.5" font-family="Helvetica,sans-Serif" font-size="10.00">/hypro/hypro/src/hypro</text>
<text text-anchor="start" x="8" y="-74.5" font-family="Helvetica,sans-Serif" font-size="10.00">/util/linearOptimization</text>
<text text-anchor="middle" x="62" y="-63.5" font-family="Helvetica,sans-Serif" font-size="10.00">/smtrat/convenience.h</text>
</g>
<!-- Node2 -->
<g id="node2" class="node"><title>Node2</title>
<g id="a_node2"><a xlink:href="flags_8h.html" target="_top" xlink:title="../../../flags.h">
<polygon fill="white" stroke="black" points="24.5,-0.5 24.5,-19.5 99.5,-19.5 99.5,-0.5 24.5,-0.5"/>
<text text-anchor="middle" x="62" y="-7.5" font-family="Helvetica,sans-Serif" font-size="10.00">../../../flags.h</text>
</a>
</g>
</g>
<!-- Node1&#45;&gt;Node2 -->
<g id="edge1" class="edge"><title>Node1&#45;&gt;Node2</title>
<path fill="none" stroke="midnightblue" d="M62,-56.4458C62,-47.7301 62,-38.1045 62,-29.9641"/>
<polygon fill="midnightblue" stroke="midnightblue" points="65.5001,-29.6954 62,-19.6955 58.5001,-29.6955 65.5001,-29.6954"/>
</g>
</g>
</svg>
