<?xml version="1.0" encoding="UTF-8" standalone="no"?>
<!DOCTYPE svg PUBLIC "-//W3C//DTD SVG 1.1//EN"
 "http://www.w3.org/Graphics/SVG/1.1/DTD/svg11.dtd">
<!-- Generated by graphviz version 2.38.0 (20140413.2041)
 -->
<!-- Title: /home/travis/build/hypro/hypro/src/hypro/util/convexHull.h Pages: 1 -->
<svg width="2170pt" height="598pt"
 viewBox="0.00 0.00 2170.03 598.00" xmlns="http://www.w3.org/2000/svg" xmlns:xlink="http://www.w3.org/1999/xlink">
<g id="graph0" class="graph" transform="scale(1 1) rotate(0) translate(4 594)">
<title>/home/travis/build/hypro/hypro/src/hypro/util/convexHull.h</title>
<polygon fill="white" stroke="none" points="-4,4 -4,-594 2166.03,-594 2166.03,4 -4,4"/>
<!-- Node1 -->
<g id="node1" class="node"><title>Node1</title>
<polygon fill="#bfbfbf" stroke="black" points="657,-548.5 657,-589.5 781,-589.5 781,-548.5 657,-548.5"/>
<text text-anchor="start" x="665" y="-577.5" font-family="Helvetica,sans-Serif" font-size="10.00">/home/travis/build</text>
<text text-anchor="start" x="665" y="-566.5" font-family="Helvetica,sans-Serif" font-size="10.00">/hypro/hypro/src/hypro</text>
<text text-anchor="middle" x="719" y="-555.5" font-family="Helvetica,sans-Serif" font-size="10.00">/util/convexHull.h</text>
</g>
<!-- Node2 -->
<g id="node2" class="node"><title>Node2</title>
<g id="a_node2"><a xlink:href="Facet_8h.html" target="_top" xlink:title="../datastructures/Facet.h">
<polygon fill="white" stroke="black" points="787,-436.5 787,-455.5 921,-455.5 921,-436.5 787,-436.5"/>
<text text-anchor="middle" x="854" y="-443.5" font-family="Helvetica,sans-Serif" font-size="10.00">../datastructures/Facet.h</text>
</a>
</g>
</g>
<!-- Node1&#45;&gt;Node2 -->
<g id="edge1" class="edge"><title>Node1&#45;&gt;Node2</title>
<path fill="none" stroke="midnightblue" d="M748.564,-548.281C763.084,-538.089 780.524,-525.07 795,-512 811.703,-496.92 828.766,-477.612 840.217,-463.969"/>
<polygon fill="midnightblue" stroke="midnightblue" points="843.195,-465.861 846.871,-455.924 837.801,-461.399 843.195,-465.861"/>
</g>
<!-- Node29 -->
<g id="node29" class="node"><title>Node29</title>
<g id="a_node29"><a xlink:href="Halfspace_8h.html" target="_top" xlink:title="Halfspace.h">
<polygon fill="white" stroke="black" points="917.5,-380.5 917.5,-399.5 990.5,-399.5 990.5,-380.5 917.5,-380.5"/>
<text text-anchor="middle" x="954" y="-387.5" font-family="Helvetica,sans-Serif" font-size="10.00">Halfspace.h</text>
</a>
</g>
</g>
<!-- Node1&#45;&gt;Node29 -->
<g id="edge60" class="edge"><title>Node1&#45;&gt;Node29</title>
<path fill="none" stroke="midnightblue" d="M676.86,-548.403C652.239,-534.122 628.596,-513.57 643,-492 672.757,-447.44 827.738,-413.677 907.081,-399.018"/>
<polygon fill="midnightblue" stroke="midnightblue" points="908.081,-402.394 917.293,-397.16 906.828,-395.507 908.081,-402.394"/>
</g>
<!-- Node38 -->
<g id="node38" class="node"><title>Node38</title>
<g id="a_node38"><a xlink:href="Point_8h.html" target="_top" xlink:title="Point.h">
<polygon fill="white" stroke="black" points="811,-319 811,-338 861,-338 861,-319 811,-319"/>
<text text-anchor="middle" x="836" y="-326" font-family="Helvetica,sans-Serif" font-size="10.00">Point.h</text>
</a>
</g>
</g>
<!-- Node1&#45;&gt;Node38 -->
<g id="edge61" class="edge"><title>Node1&#45;&gt;Node38</title>
<path fill="none" stroke="midnightblue" d="M671.549,-548.479C647.122,-535.188 624.46,-515.724 635,-492 668.835,-415.845 759.353,-364.666 806.511,-342.302"/>
<polygon fill="midnightblue" stroke="midnightblue" points="808.003,-345.468 815.608,-338.091 805.063,-339.116 808.003,-345.468"/>
</g>
<!-- Node42 -->
<g id="node42" class="node"><title>Node42</title>
<g id="a_node42"><a xlink:href="Ridge_8h.html" target="_top" xlink:title="../datastructures/Ridge.h">
<polygon fill="white" stroke="black" points="652,-492.5 652,-511.5 786,-511.5 786,-492.5 652,-492.5"/>
<text text-anchor="middle" x="719" y="-499.5" font-family="Helvetica,sans-Serif" font-size="10.00">../datastructures/Ridge.h</text>
</a>
</g>
</g>
<!-- Node1&#45;&gt;Node42 -->
<g id="edge62" class="edge"><title>Node1&#45;&gt;Node42</title>
<path fill="none" stroke="midnightblue" d="M719,-548.498C719,-540.065 719,-530.235 719,-521.874"/>
<polygon fill="midnightblue" stroke="midnightblue" points="722.5,-521.652 719,-511.652 715.5,-521.653 722.5,-521.652"/>
</g>
<!-- Node43 -->
<g id="node43" class="node"><title>Node43</title>
<polygon fill="white" stroke="#bfbfbf" points="842.5,-492.5 842.5,-511.5 889.5,-511.5 889.5,-492.5 842.5,-492.5"/>
<text text-anchor="middle" x="866" y="-499.5" font-family="Helvetica,sans-Serif" font-size="10.00">queue</text>
</g>
<!-- Node1&#45;&gt;Node43 -->
<g id="edge65" class="edge"><title>Node1&#45;&gt;Node43</title>
<path fill="none" stroke="midnightblue" d="M763.105,-548.498C787.051,-537.909 815.982,-525.117 837.06,-515.797"/>
<polygon fill="midnightblue" stroke="midnightblue" points="838.702,-518.898 846.432,-511.652 835.871,-512.496 838.702,-518.898"/>
</g>
<!-- Node3 -->
<g id="node3" class="node"><title>Node3</title>
<g id="a_node3"><a xlink:href="types_8h.html" target="_top" xlink:title="../types.h">
<polygon fill="white" stroke="black" points="1711.5,-257.5 1711.5,-276.5 1772.5,-276.5 1772.5,-257.5 1711.5,-257.5"/>
<text text-anchor="middle" x="1742" y="-264.5" font-family="Helvetica,sans-Serif" font-size="10.00">../types.h</text>
</a>
</g>
</g>
<!-- Node2&#45;&gt;Node3 -->
<g id="edge2" class="edge"><title>Node2&#45;&gt;Node3</title>
<path fill="none" stroke="midnightblue" d="M921.249,-441.543C1114.76,-430.998 1662.98,-396.718 1723,-344 1739.09,-329.863 1742.58,-304.354 1742.87,-286.817"/>
<polygon fill="midnightblue" stroke="midnightblue" points="1746.37,-286.586 1742.71,-276.644 1739.37,-286.699 1746.37,-286.586"/>
</g>
<!-- Node2&#45;&gt;Node29 -->
<g id="edge36" class="edge"><title>Node2&#45;&gt;Node29</title>
<path fill="none" stroke="midnightblue" d="M870.067,-436.324C885.958,-427.743 910.507,-414.486 928.958,-404.522"/>
<polygon fill="midnightblue" stroke="midnightblue" points="930.837,-407.486 937.973,-399.655 927.511,-401.326 930.837,-407.486"/>
</g>
<!-- Node4 -->
<g id="node4" class="node"><title>Node4</title>
<polygon fill="white" stroke="#bfbfbf" points="1792,-123.5 1792,-142.5 1926,-142.5 1926,-123.5 1792,-123.5"/>
<text text-anchor="middle" x="1859" y="-130.5" font-family="Helvetica,sans-Serif" font-size="10.00">carl/numbers/numbers.h</text>
</g>
<!-- Node3&#45;&gt;Node4 -->
<g id="edge3" class="edge"><title>Node3&#45;&gt;Node4</title>
<path fill="none" stroke="midnightblue" d="M1742.04,-257.076C1742.55,-241.815 1745.56,-210.381 1761,-190 1776.49,-169.547 1801.78,-155.365 1822.78,-146.391"/>
<polygon fill="midnightblue" stroke="midnightblue" points="1824.12,-149.625 1832.08,-142.631 1821.5,-143.135 1824.12,-149.625"/>
</g>
<!-- Node5 -->
<g id="node5" class="node"><title>Node5</title>
<polygon fill="white" stroke="#bfbfbf" points="1770,-196 1770,-215 1856,-215 1856,-196 1770,-196"/>
<text text-anchor="middle" x="1813" y="-203" font-family="Helvetica,sans-Serif" font-size="10.00">carl/util/hash.h</text>
</g>
<!-- Node3&#45;&gt;Node5 -->
<g id="edge4" class="edge"><title>Node3&#45;&gt;Node5</title>
<path fill="none" stroke="midnightblue" d="M1752.17,-257.475C1763.35,-248.108 1781.52,-232.884 1795.09,-221.508"/>
<polygon fill="midnightblue" stroke="midnightblue" points="1797.43,-224.115 1802.85,-215.009 1792.93,-218.75 1797.43,-224.115"/>
</g>
<!-- Node6 -->
<g id="node6" class="node"><title>Node6</title>
<polygon fill="white" stroke="#bfbfbf" points="2028,-196 2028,-215 2132,-215 2132,-196 2028,-196"/>
<text text-anchor="middle" x="2080" y="-203" font-family="Helvetica,sans-Serif" font-size="10.00">eigen3/Eigen/Core</text>
</g>
<!-- Node3&#45;&gt;Node6 -->
<g id="edge5" class="edge"><title>Node3&#45;&gt;Node6</title>
<path fill="none" stroke="midnightblue" d="M1772.69,-261.459C1823.16,-253.869 1926.81,-237.778 2014,-221 2020.12,-219.822 2026.55,-218.507 2032.89,-217.165"/>
<polygon fill="midnightblue" stroke="midnightblue" points="2033.68,-220.574 2042.72,-215.046 2032.21,-213.731 2033.68,-220.574"/>
</g>
<!-- Node7 -->
<g id="node7" class="node"><title>Node7</title>
<polygon fill="white" stroke="#bfbfbf" points="1944,-123.5 1944,-142.5 2056,-142.5 2056,-123.5 1944,-123.5"/>
<text text-anchor="middle" x="2000" y="-130.5" font-family="Helvetica,sans-Serif" font-size="10.00">eigen3/Eigen/Dense</text>
</g>
<!-- Node3&#45;&gt;Node7 -->
<g id="edge6" class="edge"><title>Node3&#45;&gt;Node7</title>
<path fill="none" stroke="midnightblue" d="M1771.08,-257.375C1796.49,-249.371 1834.05,-236.393 1865,-221 1908.32,-199.449 1954.95,-167.137 1980.49,-148.557"/>
<polygon fill="midnightblue" stroke="midnightblue" points="1982.61,-151.338 1988.6,-142.598 1978.47,-145.696 1982.61,-151.338"/>
</g>
<!-- Node8 -->
<g id="node8" class="node"><title>Node8</title>
<polygon fill="white" stroke="#bfbfbf" points="1741,-0.5 1741,-19.5 1787,-19.5 1787,-0.5 1741,-0.5"/>
<text text-anchor="middle" x="1764" y="-7.5" font-family="Helvetica,sans-Serif" font-size="10.00">iosfwd</text>
</g>
<!-- Node3&#45;&gt;Node8 -->
<g id="edge7" class="edge"><title>Node3&#45;&gt;Node8</title>
<path fill="none" stroke="midnightblue" d="M1772.7,-264.846C1861.94,-261.18 2116.53,-248.388 2141,-221 2248.72,-100.446 1906.97,-33.9181 1796.96,-15.9928"/>
<polygon fill="midnightblue" stroke="midnightblue" points="1797.48,-12.5327 1787.05,-14.4097 1796.38,-19.4449 1797.48,-12.5327"/>
</g>
<!-- Node9 -->
<g id="node9" class="node"><title>Node9</title>
<polygon fill="white" stroke="#bfbfbf" points="1100,-0.5 1100,-19.5 1132,-19.5 1132,-0.5 1100,-0.5"/>
<text text-anchor="middle" x="1116" y="-7.5" font-family="Helvetica,sans-Serif" font-size="10.00">set</text>
</g>
<!-- Node3&#45;&gt;Node9 -->
<g id="edge8" class="edge"><title>Node3&#45;&gt;Node9</title>
<path fill="none" stroke="midnightblue" d="M1772.69,-260.203C1846.74,-245.511 2031.56,-204.377 2065,-154 2075.32,-138.448 2077.48,-125.88 2065,-112 2001.43,-41.3064 1289.02,-16.1889 1142.32,-11.7492"/>
<polygon fill="midnightblue" stroke="midnightblue" points="1142.13,-8.24203 1132.03,-11.4439 1141.92,-15.239 1142.13,-8.24203"/>
</g>
<!-- Node10 -->
<g id="node10" class="node"><title>Node10</title>
<g id="a_node10"><a xlink:href="adaptions__eigen_8h.html" target="_top" xlink:title="util/adaptions_eigen\l/adaptions_eigen.h">
<polygon fill="white" stroke="black" points="1590.5,-190.5 1590.5,-220.5 1703.5,-220.5 1703.5,-190.5 1590.5,-190.5"/>
<text text-anchor="start" x="1598.5" y="-208.5" font-family="Helvetica,sans-Serif" font-size="10.00">util/adaptions_eigen</text>
<text text-anchor="middle" x="1647" y="-197.5" font-family="Helvetica,sans-Serif" font-size="10.00">/adaptions_eigen.h</text>
</a>
</g>
</g>
<!-- Node3&#45;&gt;Node10 -->
<g id="edge9" class="edge"><title>Node3&#45;&gt;Node10</title>
<path fill="none" stroke="midnightblue" d="M1723.49,-257.475C1708.73,-249.341 1688.19,-236.791 1672.03,-226.179"/>
<polygon fill="midnightblue" stroke="midnightblue" points="1673.82,-223.168 1663.56,-220.523 1669.93,-228.988 1673.82,-223.168"/>
</g>
<!-- Node10&#45;&gt;Node3 -->
<g id="edge27" class="edge"><title>Node10&#45;&gt;Node3</title>
<path fill="none" stroke="midnightblue" d="M1675.22,-220.523C1691.46,-229.93 1711.19,-242.282 1725.09,-251.739"/>
<polygon fill="midnightblue" stroke="midnightblue" points="1723.09,-254.61 1733.29,-257.475 1727.1,-248.875 1723.09,-254.61"/>
</g>
<!-- Node10&#45;&gt;Node4 -->
<g id="edge29" class="edge"><title>Node10&#45;&gt;Node4</title>
<path fill="none" stroke="midnightblue" d="M1689.14,-190.487C1728.43,-177.42 1786.39,-158.146 1823.42,-145.832"/>
<polygon fill="midnightblue" stroke="midnightblue" points="1824.89,-149.032 1833.27,-142.555 1822.68,-142.389 1824.89,-149.032"/>
</g>
<!-- Node10&#45;&gt;Node7 -->
<g id="edge30" class="edge"><title>Node10&#45;&gt;Node7</title>
<path fill="none" stroke="midnightblue" d="M1703.72,-196.694C1762.11,-188.159 1855.54,-173.113 1935,-154 1944.88,-151.623 1955.47,-148.583 1965.17,-145.594"/>
<polygon fill="midnightblue" stroke="midnightblue" points="1966.41,-148.874 1974.89,-142.528 1964.3,-142.198 1966.41,-148.874"/>
</g>
<!-- Node10&#45;&gt;Node8 -->
<g id="edge33" class="edge"><title>Node10&#45;&gt;Node8</title>
<path fill="none" stroke="midnightblue" d="M1695.2,-190.435C1713.62,-182.637 1733.04,-170.979 1745,-154 1771.48,-116.399 1769.75,-59.1663 1766.65,-29.8103"/>
<polygon fill="midnightblue" stroke="midnightblue" points="1770.1,-29.2031 1765.41,-19.7047 1763.16,-30.0569 1770.1,-29.2031"/>
</g>
<!-- Node11 -->
<g id="node11" class="node"><title>Node11</title>
<g id="a_node11"><a xlink:href="config_8h.html" target="_top" xlink:title="../../config.h">
<polygon fill="white" stroke="black" points="631,-123.5 631,-142.5 703,-142.5 703,-123.5 631,-123.5"/>
<text text-anchor="middle" x="667" y="-130.5" font-family="Helvetica,sans-Serif" font-size="10.00">../../config.h</text>
</a>
</g>
</g>
<!-- Node10&#45;&gt;Node11 -->
<g id="edge10" class="edge"><title>Node10&#45;&gt;Node11</title>
<path fill="none" stroke="midnightblue" d="M1590.43,-200.431C1413.84,-187.727 874.924,-148.958 713.297,-137.331"/>
<polygon fill="midnightblue" stroke="midnightblue" points="713.43,-133.831 703.205,-136.605 712.928,-140.813 713.43,-133.831"/>
</g>
<!-- Node24 -->
<g id="node24" class="node"><title>Node24</title>
<g id="a_node24"><a xlink:href="transformation_8h.html" target="_top" xlink:title="transformation.h">
<polygon fill="white" stroke="black" points="1340.5,-123.5 1340.5,-142.5 1437.5,-142.5 1437.5,-123.5 1340.5,-123.5"/>
<text text-anchor="middle" x="1389" y="-130.5" font-family="Helvetica,sans-Serif" font-size="10.00">transformation.h</text>
</a>
</g>
</g>
<!-- Node10&#45;&gt;Node24 -->
<g id="edge28" class="edge"><title>Node10&#45;&gt;Node24</title>
<path fill="none" stroke="midnightblue" d="M1590.19,-191.51C1549.96,-181.984 1494.88,-168.271 1447,-154 1438.8,-151.556 1430.03,-148.676 1421.87,-145.875"/>
<polygon fill="midnightblue" stroke="midnightblue" points="1422.87,-142.519 1412.28,-142.531 1420.57,-149.129 1422.87,-142.519"/>
</g>
<!-- Node25 -->
<g id="node25" class="node"><title>Node25</title>
<polygon fill="white" stroke="#bfbfbf" points="1456,-123.5 1456,-142.5 1594,-142.5 1594,-123.5 1456,-123.5"/>
<text text-anchor="middle" x="1525" y="-130.5" font-family="Helvetica,sans-Serif" font-size="10.00">eigen3/Eigen/Eigenvalues</text>
</g>
<!-- Node10&#45;&gt;Node25 -->
<g id="edge31" class="edge"><title>Node10&#45;&gt;Node25</title>
<path fill="none" stroke="midnightblue" d="M1622.6,-190.403C1601.04,-177.942 1569.79,-159.884 1548.5,-147.581"/>
<polygon fill="midnightblue" stroke="midnightblue" points="1550.18,-144.507 1539.77,-142.534 1546.67,-150.567 1550.18,-144.507"/>
</g>
<!-- Node26 -->
<g id="node26" class="node"><title>Node26</title>
<polygon fill="white" stroke="#bfbfbf" points="1612.5,-123.5 1612.5,-142.5 1675.5,-142.5 1675.5,-123.5 1612.5,-123.5"/>
<text text-anchor="middle" x="1644" y="-130.5" font-family="Helvetica,sans-Serif" font-size="10.00">functional</text>
</g>
<!-- Node10&#45;&gt;Node26 -->
<g id="edge32" class="edge"><title>Node10&#45;&gt;Node26</title>
<path fill="none" stroke="midnightblue" d="M1646.39,-190.233C1645.94,-179.501 1645.31,-164.687 1644.81,-152.959"/>
<polygon fill="midnightblue" stroke="midnightblue" points="1648.3,-152.735 1644.38,-142.893 1641.31,-153.033 1648.3,-152.735"/>
</g>
<!-- Node27 -->
<g id="node27" class="node"><title>Node27</title>
<polygon fill="white" stroke="#bfbfbf" points="1694,-123.5 1694,-142.5 1736,-142.5 1736,-123.5 1694,-123.5"/>
<text text-anchor="middle" x="1715" y="-130.5" font-family="Helvetica,sans-Serif" font-size="10.00">limits</text>
</g>
<!-- Node10&#45;&gt;Node27 -->
<g id="edge34" class="edge"><title>Node10&#45;&gt;Node27</title>
<path fill="none" stroke="midnightblue" d="M1660.76,-190.233C1671.97,-178.615 1687.78,-162.216 1699.45,-150.124"/>
<polygon fill="midnightblue" stroke="midnightblue" points="1702,-152.521 1706.42,-142.893 1696.96,-147.661 1702,-152.521"/>
</g>
<!-- Node28 -->
<g id="node28" class="node"><title>Node28</title>
<polygon fill="white" stroke="#bfbfbf" points="1182,-112.5 1182,-153.5 1322,-153.5 1322,-112.5 1182,-112.5"/>
<text text-anchor="start" x="1190" y="-141.5" font-family="Helvetica,sans-Serif" font-size="10.00">eigen3/unsupported</text>
<text text-anchor="start" x="1190" y="-130.5" font-family="Helvetica,sans-Serif" font-size="10.00">/Eigen/src/MatrixFunctions</text>
<text text-anchor="middle" x="1252" y="-119.5" font-family="Helvetica,sans-Serif" font-size="10.00">/MatrixExponential.h</text>
</g>
<!-- Node10&#45;&gt;Node28 -->
<g id="edge35" class="edge"><title>Node10&#45;&gt;Node28</title>
<path fill="none" stroke="midnightblue" d="M1590.5,-197.026C1529.17,-188.564 1428.17,-173.619 1332.02,-154.127"/>
<polygon fill="midnightblue" stroke="midnightblue" points="1332.63,-150.679 1322.14,-152.103 1331.23,-157.537 1332.63,-150.679"/>
</g>
<!-- Node12 -->
<g id="node12" class="node"><title>Node12</title>
<g id="a_node12"><a xlink:href="flags_8h.html" target="_top" xlink:title="flags.h">
<polygon fill="white" stroke="black" points="707,-0.5 707,-19.5 755,-19.5 755,-0.5 707,-0.5"/>
<text text-anchor="middle" x="731" y="-7.5" font-family="Helvetica,sans-Serif" font-size="10.00">flags.h</text>
</a>
</g>
</g>
<!-- Node11&#45;&gt;Node12 -->
<g id="edge11" class="edge"><title>Node11&#45;&gt;Node12</title>
<path fill="none" stroke="midnightblue" d="M671.603,-123.298C682.074,-103.502 707.843,-54.782 721.747,-28.4932"/>
<polygon fill="midnightblue" stroke="midnightblue" points="724.857,-30.0993 726.439,-19.6232 718.67,-26.8264 724.857,-30.0993"/>
</g>
<!-- Node13 -->
<g id="node13" class="node"><title>Node13</title>
<g id="a_node13"><a xlink:href="util_2convenienceOperators_8h.html" target="_top" xlink:title="util/convenienceOperators.h">
<polygon fill="white" stroke="black" points="915.5,-56.5 915.5,-75.5 1066.5,-75.5 1066.5,-56.5 915.5,-56.5"/>
<text text-anchor="middle" x="991" y="-63.5" font-family="Helvetica,sans-Serif" font-size="10.00">util/convenienceOperators.h</text>
</a>
</g>
</g>
<!-- Node11&#45;&gt;Node13 -->
<g id="edge12" class="edge"><title>Node11&#45;&gt;Node13</title>
<path fill="none" stroke="midnightblue" d="M703.224,-124.733C760.514,-113.239 872.299,-90.8135 938.42,-77.5484"/>
<polygon fill="midnightblue" stroke="midnightblue" points="939.509,-80.8999 948.625,-75.5012 938.132,-74.0366 939.509,-80.8999"/>
</g>
<!-- Node17 -->
<g id="node17" class="node"><title>Node17</title>
<g id="a_node17"><a xlink:href="Logger_8h.html" target="_top" xlink:title="util/logging/Logger.h">
<polygon fill="white" stroke="black" points="343.5,-56.5 343.5,-75.5 456.5,-75.5 456.5,-56.5 343.5,-56.5"/>
<text text-anchor="middle" x="400" y="-63.5" font-family="Helvetica,sans-Serif" font-size="10.00">util/logging/Logger.h</text>
</a>
</g>
</g>
<!-- Node11&#45;&gt;Node17 -->
<g id="edge19" class="edge"><title>Node11&#45;&gt;Node17</title>
<path fill="none" stroke="midnightblue" d="M631.82,-123.436C583.795,-111.744 497.68,-90.7797 445.006,-77.9566"/>
<polygon fill="midnightblue" stroke="midnightblue" points="445.802,-74.5482 435.258,-75.5834 444.146,-81.3495 445.802,-74.5482"/>
</g>
<!-- Node13&#45;&gt;Node3 -->
<g id="edge13" class="edge"><title>Node13&#45;&gt;Node3</title>
<path fill="none" stroke="midnightblue" d="M1005.57,-75.5372C1035.77,-92.8766 1107.84,-132.399 1173,-154 1198.45,-162.436 1575.49,-234.377 1701.41,-258.3"/>
<polygon fill="midnightblue" stroke="midnightblue" points="1700.94,-261.774 1711.42,-260.201 1702.25,-254.896 1700.94,-261.774"/>
</g>
<!-- Node13&#45;&gt;Node8 -->
<g id="edge14" class="edge"><title>Node13&#45;&gt;Node8</title>
<path fill="none" stroke="midnightblue" d="M1066.53,-59.7239C1230.83,-48.246 1615.24,-21.3921 1730.66,-13.3293"/>
<polygon fill="midnightblue" stroke="midnightblue" points="1730.93,-16.8186 1740.66,-12.6301 1730.45,-9.83561 1730.93,-16.8186"/>
</g>
<!-- Node13&#45;&gt;Node9 -->
<g id="edge16" class="edge"><title>Node13&#45;&gt;Node9</title>
<path fill="none" stroke="midnightblue" d="M1010.81,-56.4435C1032.37,-47.1277 1066.92,-32.2006 1090.5,-22.0155"/>
<polygon fill="midnightblue" stroke="midnightblue" points="1092.07,-25.1498 1099.86,-17.971 1089.3,-18.7238 1092.07,-25.1498"/>
</g>
<!-- Node14 -->
<g id="node14" class="node"><title>Node14</title>
<polygon fill="white" stroke="#bfbfbf" points="882,-0.5 882,-19.5 920,-19.5 920,-0.5 882,-0.5"/>
<text text-anchor="middle" x="901" y="-7.5" font-family="Helvetica,sans-Serif" font-size="10.00">map</text>
</g>
<!-- Node13&#45;&gt;Node14 -->
<g id="edge15" class="edge"><title>Node13&#45;&gt;Node14</title>
<path fill="none" stroke="midnightblue" d="M976.54,-56.324C962.5,-47.9002 940.952,-34.9709 924.457,-25.0741"/>
<polygon fill="midnightblue" stroke="midnightblue" points="925.8,-21.7983 915.424,-19.6545 922.198,-27.8007 925.8,-21.7983"/>
</g>
<!-- Node15 -->
<g id="node15" class="node"><title>Node15</title>
<polygon fill="white" stroke="#bfbfbf" points="970,-0.5 970,-19.5 1012,-19.5 1012,-0.5 970,-0.5"/>
<text text-anchor="middle" x="991" y="-7.5" font-family="Helvetica,sans-Serif" font-size="10.00">utility</text>
</g>
<!-- Node13&#45;&gt;Node15 -->
<g id="edge17" class="edge"><title>Node13&#45;&gt;Node15</title>
<path fill="none" stroke="midnightblue" d="M991,-56.083C991,-49.0059 991,-38.8611 991,-29.9865"/>
<polygon fill="midnightblue" stroke="midnightblue" points="994.5,-29.751 991,-19.7511 987.5,-29.7511 994.5,-29.751"/>
</g>
<!-- Node16 -->
<g id="node16" class="node"><title>Node16</title>
<polygon fill="white" stroke="#bfbfbf" points="783.5,-0.5 783.5,-19.5 830.5,-19.5 830.5,-0.5 783.5,-0.5"/>
<text text-anchor="middle" x="807" y="-7.5" font-family="Helvetica,sans-Serif" font-size="10.00">vector</text>
</g>
<!-- Node13&#45;&gt;Node16 -->
<g id="edge18" class="edge"><title>Node13&#45;&gt;Node16</title>
<path fill="none" stroke="midnightblue" d="M961.845,-56.4435C928.826,-46.7534 875.121,-30.9921 840.432,-20.8115"/>
<polygon fill="midnightblue" stroke="midnightblue" points="841.334,-17.4287 830.753,-17.971 839.363,-24.1454 841.334,-17.4287"/>
</g>
<!-- Node17&#45;&gt;Node12 -->
<g id="edge20" class="edge"><title>Node17&#45;&gt;Node12</title>
<path fill="none" stroke="midnightblue" d="M456.709,-58.266C516.718,-50.7073 614.022,-37.2158 697,-20 697.101,-19.9791 697.202,-19.958 697.303,-19.9369"/>
<polygon fill="midnightblue" stroke="midnightblue" points="697.973,-23.3743 706.931,-17.7164 696.4,-16.5534 697.973,-23.3743"/>
</g>
<!-- Node18 -->
<g id="node18" class="node"><title>Node18</title>
<polygon fill="white" stroke="#bfbfbf" points="0,-0.5 0,-19.5 154,-19.5 154,-0.5 0,-0.5"/>
<text text-anchor="middle" x="77" y="-7.5" font-family="Helvetica,sans-Serif" font-size="10.00">carl/io/streamingOperators.h</text>
</g>
<!-- Node17&#45;&gt;Node18 -->
<g id="edge21" class="edge"><title>Node17&#45;&gt;Node18</title>
<path fill="none" stroke="midnightblue" d="M348.82,-56.4435C291.528,-46.8654 198.756,-31.3556 137.812,-21.1667"/>
<polygon fill="midnightblue" stroke="midnightblue" points="138.381,-17.7134 127.941,-19.5164 137.227,-24.6175 138.381,-17.7134"/>
</g>
<!-- Node19 -->
<g id="node19" class="node"><title>Node19</title>
<polygon fill="white" stroke="#bfbfbf" points="172.5,-0.5 172.5,-19.5 231.5,-19.5 231.5,-0.5 172.5,-0.5"/>
<text text-anchor="middle" x="202" y="-7.5" font-family="Helvetica,sans-Serif" font-size="10.00">iostream</text>
</g>
<!-- Node17&#45;&gt;Node19 -->
<g id="edge22" class="edge"><title>Node17&#45;&gt;Node19</title>
<path fill="none" stroke="midnightblue" d="M368.626,-56.4435C334.239,-47.0652 279,-32.0001 241.641,-21.8112"/>
<polygon fill="midnightblue" stroke="midnightblue" points="242.179,-18.33 231.61,-19.0755 240.337,-25.0834 242.179,-18.33"/>
</g>
<!-- Node20 -->
<g id="node20" class="node"><title>Node20</title>
<polygon fill="white" stroke="#bfbfbf" points="250,-0.5 250,-19.5 306,-19.5 306,-0.5 250,-0.5"/>
<text text-anchor="middle" x="278" y="-7.5" font-family="Helvetica,sans-Serif" font-size="10.00">sstream</text>
</g>
<!-- Node17&#45;&gt;Node20 -->
<g id="edge23" class="edge"><title>Node17&#45;&gt;Node20</title>
<path fill="none" stroke="midnightblue" d="M380.669,-56.4435C360.68,-47.5961 329.257,-33.6875 306.436,-23.5865"/>
<polygon fill="midnightblue" stroke="midnightblue" points="307.802,-20.3635 297.241,-19.5164 304.968,-26.7645 307.802,-20.3635"/>
</g>
<!-- Node21 -->
<g id="node21" class="node"><title>Node21</title>
<polygon fill="white" stroke="#bfbfbf" points="324,-0.5 324,-19.5 372,-19.5 372,-0.5 324,-0.5"/>
<text text-anchor="middle" x="348" y="-7.5" font-family="Helvetica,sans-Serif" font-size="10.00">thread</text>
</g>
<!-- Node17&#45;&gt;Node21 -->
<g id="edge24" class="edge"><title>Node17&#45;&gt;Node21</title>
<path fill="none" stroke="midnightblue" d="M391.413,-56.083C383.841,-48.2195 372.622,-36.5688 363.486,-27.0813"/>
<polygon fill="midnightblue" stroke="midnightblue" points="365.885,-24.5266 356.427,-19.7511 360.842,-29.3821 365.885,-24.5266"/>
</g>
<!-- Node22 -->
<g id="node22" class="node"><title>Node22</title>
<polygon fill="white" stroke="#bfbfbf" points="390.5,-0.5 390.5,-19.5 515.5,-19.5 515.5,-0.5 390.5,-0.5"/>
<text text-anchor="middle" x="453" y="-7.5" font-family="Helvetica,sans-Serif" font-size="10.00">carl/core/carlLogging.h</text>
</g>
<!-- Node17&#45;&gt;Node22 -->
<g id="edge25" class="edge"><title>Node17&#45;&gt;Node22</title>
<path fill="none" stroke="midnightblue" d="M408.752,-56.083C416.47,-48.2195 427.905,-36.5688 437.217,-27.0813"/>
<polygon fill="midnightblue" stroke="midnightblue" points="439.904,-29.3396 444.411,-19.7511 434.908,-24.4363 439.904,-29.3396"/>
</g>
<!-- Node23 -->
<g id="node23" class="node"><title>Node23</title>
<polygon fill="white" stroke="#bfbfbf" points="533.5,-0.5 533.5,-19.5 688.5,-19.5 688.5,-0.5 533.5,-0.5"/>
<text text-anchor="middle" x="611" y="-7.5" font-family="Helvetica,sans-Serif" font-size="10.00">carl/core/carlLoggingHelper.h</text>
</g>
<!-- Node17&#45;&gt;Node23 -->
<g id="edge26" class="edge"><title>Node17&#45;&gt;Node23</title>
<path fill="none" stroke="midnightblue" d="M433.434,-56.4435C469.856,-47.1221 528.23,-32.1828 568.029,-21.9972"/>
<polygon fill="midnightblue" stroke="midnightblue" points="568.903,-25.3866 577.723,-19.5164 567.167,-18.6051 568.903,-25.3866"/>
</g>
<!-- Node29&#45;&gt;Node10 -->
<g id="edge47" class="edge"><title>Node29&#45;&gt;Node10</title>
<path fill="none" stroke="midnightblue" d="M986.495,-380.442C1094.1,-352.106 1440.07,-260.994 1583.64,-223.186"/>
<polygon fill="midnightblue" stroke="midnightblue" points="1584.84,-226.488 1593.62,-220.557 1583.06,-219.719 1584.84,-226.488"/>
</g>
<!-- Node30 -->
<g id="node30" class="node"><title>Node30</title>
<g id="a_node30"><a xlink:href="representations_2types_8h.html" target="_top" xlink:title="../representations\l/types.h">
<polygon fill="white" stroke="black" points="942.5,-313.5 942.5,-343.5 1043.5,-343.5 1043.5,-313.5 942.5,-313.5"/>
<text text-anchor="start" x="950.5" y="-331.5" font-family="Helvetica,sans-Serif" font-size="10.00">../representations</text>
<text text-anchor="middle" x="993" y="-320.5" font-family="Helvetica,sans-Serif" font-size="10.00">/types.h</text>
</a>
</g>
</g>
<!-- Node29&#45;&gt;Node30 -->
<g id="edge37" class="edge"><title>Node29&#45;&gt;Node30</title>
<path fill="none" stroke="midnightblue" d="M959.588,-380.475C964.425,-373.094 971.647,-362.077 978.14,-352.171"/>
<polygon fill="midnightblue" stroke="midnightblue" points="981.254,-353.805 983.808,-343.523 975.399,-349.968 981.254,-353.805"/>
</g>
<!-- Node31 -->
<g id="node31" class="node"><title>Node31</title>
<g id="a_node31"><a xlink:href="VariablePool_8h.html" target="_top" xlink:title="../util/VariablePool.h">
<polygon fill="white" stroke="black" points="859,-257.5 859,-276.5 969,-276.5 969,-257.5 859,-257.5"/>
<text text-anchor="middle" x="914" y="-264.5" font-family="Helvetica,sans-Serif" font-size="10.00">../util/VariablePool.h</text>
</a>
</g>
</g>
<!-- Node29&#45;&gt;Node31 -->
<g id="edge38" class="edge"><title>Node29&#45;&gt;Node31</title>
<path fill="none" stroke="midnightblue" d="M949.301,-380.246C944.661,-371.329 937.611,-357.001 933,-344 926.196,-324.815 920.853,-302.084 917.589,-286.512"/>
<polygon fill="midnightblue" stroke="midnightblue" points="920.996,-285.702 915.588,-276.592 914.134,-287.086 920.996,-285.702"/>
</g>
<!-- Node36 -->
<g id="node36" class="node"><title>Node36</title>
<polygon fill="white" stroke="#bfbfbf" points="613,-196 613,-215 665,-215 665,-196 613,-196"/>
<text text-anchor="middle" x="639" y="-203" font-family="Helvetica,sans-Serif" font-size="10.00">cassert</text>
</g>
<!-- Node29&#45;&gt;Node36 -->
<g id="edge57" class="edge"><title>Node29&#45;&gt;Node36</title>
<path fill="none" stroke="midnightblue" d="M917.308,-381.286C885.837,-373.938 839.734,-361.41 802,-344 752.413,-321.122 740.013,-313.059 699,-277 680.408,-260.654 662.467,-238.455 651.125,-223.365"/>
<polygon fill="midnightblue" stroke="midnightblue" points="653.717,-220.981 644.969,-215.003 648.08,-225.131 653.717,-220.981"/>
</g>
<!-- Node37 -->
<g id="node37" class="node"><title>Node37</title>
<g id="a_node37"><a xlink:href="EvaluationResult_8h.html" target="_top" xlink:title="../util/linearOptimization\l/EvaluationResult.h">
<polygon fill="white" stroke="black" points="1584,-313.5 1584,-343.5 1714,-343.5 1714,-313.5 1584,-313.5"/>
<text text-anchor="start" x="1592" y="-331.5" font-family="Helvetica,sans-Serif" font-size="10.00">../util/linearOptimization</text>
<text text-anchor="middle" x="1649" y="-320.5" font-family="Helvetica,sans-Serif" font-size="10.00">/EvaluationResult.h</text>
</a>
</g>
</g>
<!-- Node29&#45;&gt;Node37 -->
<g id="edge48" class="edge"><title>Node29&#45;&gt;Node37</title>
<path fill="none" stroke="midnightblue" d="M990.843,-387.85C1085.68,-384.565 1346.09,-373.494 1573.51,-343.942"/>
<polygon fill="midnightblue" stroke="midnightblue" points="1574.17,-347.385 1583.63,-342.612 1573.26,-340.445 1574.17,-347.385"/>
</g>
<!-- Node29&#45;&gt;Node38 -->
<g id="edge50" class="edge"><title>Node29&#45;&gt;Node38</title>
<path fill="none" stroke="midnightblue" d="M937.093,-380.475C917.466,-370.578 884.869,-354.142 862.01,-342.615"/>
<polygon fill="midnightblue" stroke="midnightblue" points="863.38,-339.386 852.875,-338.009 860.228,-345.637 863.38,-339.386"/>
</g>
<!-- Node40 -->
<g id="node40" class="node"><title>Node40</title>
<polygon fill="white" stroke="#bfbfbf" points="1419.5,-319 1419.5,-338 1464.5,-338 1464.5,-319 1419.5,-319"/>
<text text-anchor="middle" x="1442" y="-326" font-family="Helvetica,sans-Serif" font-size="10.00">glpk.h</text>
</g>
<!-- Node29&#45;&gt;Node40 -->
<g id="edge58" class="edge"><title>Node29&#45;&gt;Node40</title>
<path fill="none" stroke="midnightblue" d="M990.515,-388.723C1067.99,-387.405 1254.11,-380.362 1405,-344 1407.83,-343.318 1410.73,-342.467 1413.6,-341.521"/>
<polygon fill="midnightblue" stroke="midnightblue" points="1414.92,-344.766 1423.12,-338.049 1412.52,-338.19 1414.92,-344.766"/>
</g>
<!-- Node41 -->
<g id="node41" class="node"><title>Node41</title>
<polygon fill="white" stroke="#bfbfbf" points="1482.5,-319 1482.5,-338 1565.5,-338 1565.5,-319 1482.5,-319"/>
<text text-anchor="middle" x="1524" y="-326" font-family="Helvetica,sans-Serif" font-size="10.00">Halfspace.tpp</text>
</g>
<!-- Node29&#45;&gt;Node41 -->
<g id="edge59" class="edge"><title>Node29&#45;&gt;Node41</title>
<path fill="none" stroke="midnightblue" d="M990.816,-388.211C1076.23,-385.86 1294.21,-376.858 1473,-344 1477.78,-343.121 1482.77,-341.987 1487.66,-340.74"/>
<polygon fill="midnightblue" stroke="midnightblue" points="1488.76,-344.069 1497.49,-338.07 1486.93,-337.314 1488.76,-344.069"/>
</g>
<!-- Node31&#45;&gt;Node12 -->
<g id="edge39" class="edge"><title>Node31&#45;&gt;Node12</title>
<path fill="none" stroke="midnightblue" d="M890.198,-257.357C872.563,-249.959 848.924,-237.824 833,-221 777.853,-162.737 747.008,-69.0352 735.852,-29.5218"/>
<polygon fill="midnightblue" stroke="midnightblue" points="739.178,-28.4162 733.171,-19.6889 732.425,-30.2575 739.178,-28.4162"/>
</g>
<!-- Node31&#45;&gt;Node14 -->
<g id="edge45" class="edge"><title>Node31&#45;&gt;Node14</title>
<path fill="none" stroke="midnightblue" d="M899.048,-257.474C887.068,-249.702 871.127,-237.002 864,-221 834.401,-154.54 872.051,-66.3623 891.144,-28.9767"/>
<polygon fill="midnightblue" stroke="midnightblue" points="894.394,-30.3169 895.965,-19.8393 888.203,-27.0501 894.394,-30.3169"/>
</g>
<!-- Node31&#45;&gt;Node16 -->
<g id="edge46" class="edge"><title>Node31&#45;&gt;Node16</title>
<path fill="none" stroke="midnightblue" d="M895.653,-257.385C881.526,-249.791 862.666,-237.386 852,-221 812.183,-159.83 806.947,-69.4228 806.688,-30.2561"/>
<polygon fill="midnightblue" stroke="midnightblue" points="810.19,-29.8506 806.735,-19.835 803.19,-29.8192 810.19,-29.8506"/>
</g>
<!-- Node32 -->
<g id="node32" class="node"><title>Node32</title>
<polygon fill="white" stroke="#bfbfbf" points="1145,-196 1145,-215 1207,-215 1207,-196 1145,-196"/>
<text text-anchor="middle" x="1176" y="-203" font-family="Helvetica,sans-Serif" font-size="10.00">algorithm</text>
</g>
<!-- Node31&#45;&gt;Node32 -->
<g id="edge40" class="edge"><title>Node31&#45;&gt;Node32</title>
<path fill="none" stroke="midnightblue" d="M967.455,-257.45C1012.75,-249.662 1079.21,-236.954 1136,-221 1138.8,-220.213 1141.69,-219.326 1144.56,-218.387"/>
<polygon fill="midnightblue" stroke="midnightblue" points="1145.87,-221.638 1154.18,-215.068 1143.59,-215.02 1145.87,-221.638"/>
</g>
<!-- Node33 -->
<g id="node33" class="node"><title>Node33</title>
<polygon fill="white" stroke="#bfbfbf" points="1225,-196 1225,-215 1333,-215 1333,-196 1225,-196"/>
<text text-anchor="middle" x="1279" y="-203" font-family="Helvetica,sans-Serif" font-size="10.00">carl/core/Variable.h</text>
</g>
<!-- Node31&#45;&gt;Node33 -->
<g id="edge41" class="edge"><title>Node31&#45;&gt;Node33</title>
<path fill="none" stroke="midnightblue" d="M969.049,-259.115C1029.75,-251.216 1130.19,-237.242 1216,-221 1221.86,-219.89 1228.01,-218.616 1234.07,-217.293"/>
<polygon fill="midnightblue" stroke="midnightblue" points="1235.12,-220.644 1244.11,-215.042 1233.59,-213.813 1235.12,-220.644"/>
</g>
<!-- Node34 -->
<g id="node34" class="node"><title>Node34</title>
<polygon fill="white" stroke="#bfbfbf" points="873,-196 873,-215 1001,-215 1001,-196 873,-196"/>
<text text-anchor="middle" x="937" y="-203" font-family="Helvetica,sans-Serif" font-size="10.00">carl/core/VariablePool.h</text>
</g>
<!-- Node31&#45;&gt;Node34 -->
<g id="edge42" class="edge"><title>Node31&#45;&gt;Node34</title>
<path fill="none" stroke="midnightblue" d="M917.295,-257.475C920.609,-248.904 925.818,-235.427 930.049,-224.483"/>
<polygon fill="midnightblue" stroke="midnightblue" points="933.37,-225.598 933.711,-215.009 926.841,-223.075 933.37,-225.598"/>
</g>
<!-- Node35 -->
<g id="node35" class="node"><title>Node35</title>
<polygon fill="white" stroke="#bfbfbf" points="1019,-196 1019,-215 1127,-215 1127,-196 1019,-196"/>
<text text-anchor="middle" x="1073" y="-203" font-family="Helvetica,sans-Serif" font-size="10.00">carl/util/Singleton.h</text>
</g>
<!-- Node31&#45;&gt;Node35 -->
<g id="edge43" class="edge"><title>Node31&#45;&gt;Node35</title>
<path fill="none" stroke="midnightblue" d="M936.781,-257.475C964.055,-247.269 1009.91,-230.108 1040.8,-218.549"/>
<polygon fill="midnightblue" stroke="midnightblue" points="1042.12,-221.792 1050.26,-215.009 1039.67,-215.236 1042.12,-221.792"/>
</g>
<!-- Node31&#45;&gt;Node36 -->
<g id="edge44" class="edge"><title>Node31&#45;&gt;Node36</title>
<path fill="none" stroke="midnightblue" d="M874.599,-257.475C821.245,-245.931 726.772,-225.491 675.151,-214.322"/>
<polygon fill="midnightblue" stroke="midnightblue" points="675.633,-210.845 665.119,-212.151 674.153,-217.687 675.633,-210.845"/>
</g>
<!-- Node37&#45;&gt;Node3 -->
<g id="edge49" class="edge"><title>Node37&#45;&gt;Node3</title>
<path fill="none" stroke="midnightblue" d="M1671.04,-313.399C1685.81,-303.951 1705.18,-291.559 1719.95,-282.109"/>
<polygon fill="midnightblue" stroke="midnightblue" points="1721.93,-284.995 1728.47,-276.658 1718.16,-279.099 1721.93,-284.995"/>
</g>
<!-- Node38&#45;&gt;Node3 -->
<g id="edge52" class="edge"><title>Node38&#45;&gt;Node3</title>
<path fill="none" stroke="midnightblue" d="M861.042,-323.103C880.581,-319.831 908.439,-315.513 933,-313 1226.75,-282.94 1582.71,-271.921 1701.35,-268.927"/>
<polygon fill="midnightblue" stroke="midnightblue" points="1701.52,-272.424 1711.43,-268.678 1701.35,-265.426 1701.52,-272.424"/>
</g>
<!-- Node38&#45;&gt;Node9 -->
<g id="edge54" class="edge"><title>Node38&#45;&gt;Node9</title>
<path fill="none" stroke="midnightblue" d="M861.251,-323.092C961.456,-305.487 1326.39,-240.235 1342,-221 1350.68,-210.301 1350.67,-200.709 1342,-190 1293.68,-130.307 1231.7,-203.514 1173,-154 1134.96,-121.913 1122.1,-60.8454 1117.92,-29.9342"/>
<polygon fill="midnightblue" stroke="midnightblue" points="1121.36,-29.2062 1116.7,-19.687 1114.4,-30.0292 1121.36,-29.2062"/>
</g>
<!-- Node38&#45;&gt;Node11 -->
<g id="edge51" class="edge"><title>Node38&#45;&gt;Node11</title>
<path fill="none" stroke="midnightblue" d="M810.691,-323.028C783.927,-317.029 742.167,-303.858 717,-277 683.82,-241.591 672.495,-182.94 668.757,-152.944"/>
<polygon fill="midnightblue" stroke="midnightblue" points="672.197,-152.198 667.637,-142.634 665.238,-152.954 672.197,-152.198"/>
</g>
<!-- Node38&#45;&gt;Node16 -->
<g id="edge55" class="edge"><title>Node38&#45;&gt;Node16</title>
<path fill="none" stroke="midnightblue" d="M817.541,-318.853C802.187,-310.532 781.384,-296.359 772,-277 730.618,-191.634 777.236,-73.7315 798.024,-29.0982"/>
<polygon fill="midnightblue" stroke="midnightblue" points="801.3,-30.3612 802.466,-19.8309 794.987,-27.3352 801.3,-30.3612"/>
</g>
<!-- Node38&#45;&gt;Node31 -->
<g id="edge53" class="edge"><title>Node38&#45;&gt;Node31</title>
<path fill="none" stroke="midnightblue" d="M847.175,-318.975C859.571,-309.52 879.79,-294.096 894.746,-282.687"/>
<polygon fill="midnightblue" stroke="midnightblue" points="897.017,-285.357 902.845,-276.509 892.772,-279.791 897.017,-285.357"/>
</g>
<!-- Node39 -->
<g id="node39" class="node"><title>Node39</title>
<polygon fill="white" stroke="#bfbfbf" points="781.5,-257.5 781.5,-276.5 840.5,-276.5 840.5,-257.5 781.5,-257.5"/>
<text text-anchor="middle" x="811" y="-264.5" font-family="Helvetica,sans-Serif" font-size="10.00">Point.tpp</text>
</g>
<!-- Node38&#45;&gt;Node39 -->
<g id="edge56" class="edge"><title>Node38&#45;&gt;Node39</title>
<path fill="none" stroke="midnightblue" d="M832.418,-318.975C828.817,-310.404 823.154,-296.927 818.556,-285.983"/>
<polygon fill="midnightblue" stroke="midnightblue" points="821.676,-284.373 814.575,-276.509 815.222,-287.084 821.676,-284.373"/>
</g>
<!-- Node42&#45;&gt;Node2 -->
<g id="edge64" class="edge"><title>Node42&#45;&gt;Node2</title>
<path fill="none" stroke="midnightblue" d="M740.391,-492.444C762.707,-483.517 797.903,-469.439 823.208,-459.317"/>
<polygon fill="midnightblue" stroke="midnightblue" points="824.724,-462.48 832.709,-455.516 822.124,-455.981 824.724,-462.48"/>
</g>
<!-- Node42&#45;&gt;Node11 -->
<g id="edge63" class="edge"><title>Node42&#45;&gt;Node11</title>
<path fill="none" stroke="midnightblue" d="M713.884,-492.22C694.601,-458.549 626.284,-333.91 604,-221 601.332,-207.483 598.356,-202.569 604,-190 611.993,-172.201 628.749,-157.752 642.972,-147.992"/>
<polygon fill="midnightblue" stroke="midnightblue" points="644.909,-150.907 651.399,-142.532 641.103,-145.032 644.909,-150.907"/>
</g>
</g>
</svg>
