<?xml version="1.0" encoding="UTF-8" standalone="no"?>
<!DOCTYPE svg PUBLIC "-//W3C//DTD SVG 1.1//EN"
 "http://www.w3.org/Graphics/SVG/1.1/DTD/svg11.dtd">
<!-- Generated by graphviz version 2.38.0 (20140413.2041)
 -->
<!-- Title: /home/travis/build/hypro/hypro/src/hypro/util/statistics/CounterRepository.h Pages: 1 -->
<svg width="446pt" height="173pt"
 viewBox="0.00 0.00 446.00 173.00" xmlns="http://www.w3.org/2000/svg" xmlns:xlink="http://www.w3.org/1999/xlink">
<g id="graph0" class="graph" transform="scale(1 1) rotate(0) translate(4 169)">
<title>/home/travis/build/hypro/hypro/src/hypro/util/statistics/CounterRepository.h</title>
<polygon fill="white" stroke="none" points="-4,4 -4,-169 442,-169 442,4 -4,4"/>
<!-- Node1 -->
<g id="node1" class="node"><title>Node1</title>
<polygon fill="#bfbfbf" stroke="black" points="173,-123.5 173,-164.5 351,-164.5 351,-123.5 173,-123.5"/>
<text text-anchor="start" x="181" y="-152.5" font-family="Helvetica,sans-Serif" font-size="10.00">/home/travis/build</text>
<text text-anchor="start" x="181" y="-141.5" font-family="Helvetica,sans-Serif" font-size="10.00">/hypro/hypro/src/hypro</text>
<text text-anchor="middle" x="262" y="-130.5" font-family="Helvetica,sans-Serif" font-size="10.00">/util/statistics/CounterRepository.h</text>
</g>
<!-- Node2 -->
<g id="node2" class="node"><title>Node2</title>
<g id="a_node2"><a xlink:href="flags_8h.html" target="_top" xlink:title="../../flags.h">
<polygon fill="white" stroke="black" points="0,-0.5 0,-19.5 66,-19.5 66,-0.5 0,-0.5"/>
<text text-anchor="middle" x="33" y="-7.5" font-family="Helvetica,sans-Serif" font-size="10.00">../../flags.h</text>
</a>
</g>
</g>
<!-- Node1&#45;&gt;Node2 -->
<g id="edge1" class="edge"><title>Node1&#45;&gt;Node2</title>
<path fill="none" stroke="midnightblue" d="M172.773,-134.791C109.08,-126.869 31.2439,-112.258 11,-87 -2.62677,-69.998 9.08022,-44.8864 19.9578,-28.2429"/>
<polygon fill="midnightblue" stroke="midnightblue" points="22.8798,-30.1718 25.7494,-19.9729 17.1461,-26.1563 22.8798,-30.1718"/>
</g>
<!-- Node3 -->
<g id="node3" class="node"><title>Node3</title>
<g id="a_node3"><a xlink:href="ScopedLock_8h.html" target="_top" xlink:title="../multithreading/Scoped\lLock.h">
<polygon fill="white" stroke="black" points="148,-56.5 148,-86.5 282,-86.5 282,-56.5 148,-56.5"/>
<text text-anchor="start" x="156" y="-74.5" font-family="Helvetica,sans-Serif" font-size="10.00">../multithreading/Scoped</text>
<text text-anchor="middle" x="215" y="-63.5" font-family="Helvetica,sans-Serif" font-size="10.00">Lock.h</text>
</a>
</g>
</g>
<!-- Node1&#45;&gt;Node3 -->
<g id="edge2" class="edge"><title>Node1&#45;&gt;Node3</title>
<path fill="none" stroke="midnightblue" d="M248.908,-123.362C243.122,-114.684 236.282,-104.423 230.266,-95.3992"/>
<polygon fill="midnightblue" stroke="midnightblue" points="233.054,-93.2706 224.594,-86.8916 227.229,-97.1536 233.054,-93.2706"/>
</g>
<!-- Node4 -->
<g id="node4" class="node"><title>Node4</title>
<polygon fill="white" stroke="#bfbfbf" points="238.5,-0.5 238.5,-19.5 285.5,-19.5 285.5,-0.5 238.5,-0.5"/>
<text text-anchor="middle" x="262" y="-7.5" font-family="Helvetica,sans-Serif" font-size="10.00">mutex</text>
</g>
<!-- Node1&#45;&gt;Node4 -->
<g id="edge7" class="edge"><title>Node1&#45;&gt;Node4</title>
<path fill="none" stroke="midnightblue" d="M275.646,-123.431C286.176,-105.88 297.878,-79.3684 291,-56 287.988,-45.7645 281.845,-35.6599 275.986,-27.627"/>
<polygon fill="midnightblue" stroke="midnightblue" points="278.586,-25.2694 269.673,-19.5413 273.068,-29.5773 278.586,-25.2694"/>
</g>
<!-- Node5 -->
<g id="node5" class="node"><title>Node5</title>
<g id="a_node5"><a xlink:href="OperationCounter_8h.html" target="_top" xlink:title="OperationCounter.h">
<polygon fill="white" stroke="black" points="20,-62 20,-81 130,-81 130,-62 20,-62"/>
<text text-anchor="middle" x="75" y="-69" font-family="Helvetica,sans-Serif" font-size="10.00">OperationCounter.h</text>
</a>
</g>
</g>
<!-- Node1&#45;&gt;Node5 -->
<g id="edge4" class="edge"><title>Node1&#45;&gt;Node5</title>
<path fill="none" stroke="midnightblue" d="M209.91,-123.362C177.042,-110.97 135.617,-95.3531 107.4,-84.7151"/>
<polygon fill="midnightblue" stroke="midnightblue" points="108.598,-81.4261 98.006,-81.1734 106.128,-87.9761 108.598,-81.4261"/>
</g>
<!-- Node6 -->
<g id="node6" class="node"><title>Node6</title>
<polygon fill="white" stroke="#bfbfbf" points="338,-62 338,-81 376,-81 376,-62 338,-62"/>
<text text-anchor="middle" x="357" y="-69" font-family="Helvetica,sans-Serif" font-size="10.00">map</text>
</g>
<!-- Node1&#45;&gt;Node6 -->
<g id="edge6" class="edge"><title>Node1&#45;&gt;Node6</title>
<path fill="none" stroke="midnightblue" d="M288.463,-123.362C303.921,-111.89 323.105,-97.654 337.241,-87.1632"/>
<polygon fill="midnightblue" stroke="midnightblue" points="339.368,-89.9434 345.312,-81.1734 335.196,-84.3221 339.368,-89.9434"/>
</g>
<!-- Node7 -->
<g id="node7" class="node"><title>Node7</title>
<polygon fill="white" stroke="#bfbfbf" points="394,-62 394,-81 438,-81 438,-62 394,-62"/>
<text text-anchor="middle" x="416" y="-69" font-family="Helvetica,sans-Serif" font-size="10.00">string</text>
</g>
<!-- Node1&#45;&gt;Node7 -->
<g id="edge8" class="edge"><title>Node1&#45;&gt;Node7</title>
<path fill="none" stroke="midnightblue" d="M305.312,-123.412C328.899,-112.711 358.583,-99.1914 385,-87 386.153,-86.4678 387.33,-85.9234 388.518,-85.3726"/>
<polygon fill="midnightblue" stroke="midnightblue" points="390.067,-88.5123 397.655,-81.1185 387.112,-82.1663 390.067,-88.5123"/>
</g>
<!-- Node3&#45;&gt;Node4 -->
<g id="edge3" class="edge"><title>Node3&#45;&gt;Node4</title>
<path fill="none" stroke="midnightblue" d="M226.138,-56.3993C232.968,-47.7533 241.745,-36.642 248.906,-27.576"/>
<polygon fill="midnightblue" stroke="midnightblue" points="251.709,-29.6745 255.161,-19.6578 246.216,-25.3354 251.709,-29.6745"/>
</g>
<!-- Node5&#45;&gt;Node2 -->
<g id="edge5" class="edge"><title>Node5&#45;&gt;Node2</title>
<path fill="none" stroke="midnightblue" d="M68.9824,-61.9751C62.7448,-53.1384 52.8273,-39.0886 44.9824,-27.975"/>
<polygon fill="midnightblue" stroke="midnightblue" points="47.6327,-25.6604 39.0064,-19.5091 41.9139,-29.6972 47.6327,-25.6604"/>
</g>
</g>
</svg>
