<?xml version="1.0" encoding="UTF-8" standalone="no"?>
<!DOCTYPE svg PUBLIC "-//W3C//DTD SVG 1.1//EN"
 "http://www.w3.org/Graphics/SVG/1.1/DTD/svg11.dtd">
<!-- Generated by graphviz version 2.38.0 (20140413.2041)
 -->
<!-- Title: /home/travis/build/hypro/hypro/src/hypro/datastructures/reachability/Strategy.h Pages: 1 -->
<!--zoomable 1162 -->
<svg id="main" version="1.1" xmlns="http://www.w3.org/2000/svg" xmlns:xlink="http://www.w3.org/1999/xlink" xml:space="preserve" onload="init(evt)">
<style type="text/css"><![CDATA[
.edge:hover path { stroke: red; }
.edge:hover polygon { stroke: red; fill: red; }
]]></style>
<script type="text/javascript"><![CDATA[
var edges = document.getElementsByTagName('g');
if (edges && edges.length) {
  for (var i=0;i<edges.length;i++) {
    if (edges[i].id.substr(0,4)=='edge') {
      edges[i].setAttribute('class','edge');
    }
  }
}
]]></script>
        <defs>
                <circle id="rim" cx="0" cy="0" r="7"/>
                <circle id="rim2" cx="0" cy="0" r="3.5"/>
                <g id="zoomPlus">
                        <use xlink:href="#rim" fill="#404040">
                                <set attributeName="fill" to="#808080" begin="zoomplus.mouseover" end="zoomplus.mouseout"/>
                        </use>
                        <path d="M-4,0h8M0,-4v8" fill="none" stroke="white" stroke-width="1.5" pointer-events="none"/>
                </g>
                <g id="zoomMin">
                        <use xlink:href="#rim" fill="#404040">
                                <set attributeName="fill" to="#808080" begin="zoomminus.mouseover" end="zoomminus.mouseout"/>
                        </use>
                        <path d="M-4,0h8" fill="none" stroke="white" stroke-width="1.5" pointer-events="none"/>
                </g>
                <g id="dirArrow">
                        <path fill="none" stroke="white" stroke-width="1.5" d="M0,-3.0v7 M-2.5,-0.5L0,-3.0L2.5,-0.5"/>
                </g>
               <g id="resetDef">
                       <use xlink:href="#rim2" fill="#404040">
                               <set attributeName="fill" to="#808080" begin="reset.mouseover" end="reset.mouseout"/>
                       </use>
               </g>
        </defs>

<script type="text/javascript">
var viewWidth = 1332;
var viewHeight = 1162;
var sectionId = 'dynsection-1';
</script>
<script xlink:href="svgpan.js"/>
<svg id="graph" class="graph">
<g id="viewport">
<title>/home/travis/build/hypro/hypro/src/hypro/datastructures/reachability/Strategy.h</title>
<polygon fill="white" stroke="none" points="-4,4 -4,-1158 1328,-1158 1328,4 -4,4"/>
<!-- Node1 -->
<g id="node1" class="node"><title>Node1</title>
<polygon fill="#bfbfbf" stroke="black" points="234,-1101.5 234,-1153.5 382,-1153.5 382,-1101.5 234,-1101.5"/>
<text text-anchor="start" x="242" y="-1141.5" font-family="Helvetica,sans-Serif" font-size="10.00">/home/travis/build</text>
<text text-anchor="start" x="242" y="-1130.5" font-family="Helvetica,sans-Serif" font-size="10.00">/hypro/hypro/src/hypro</text>
<text text-anchor="start" x="242" y="-1119.5" font-family="Helvetica,sans-Serif" font-size="10.00">/datastructures/reachability</text>
<text text-anchor="middle" x="308" y="-1108.5" font-family="Helvetica,sans-Serif" font-size="10.00">/Strategy.h</text>
</g>
<!-- Node2 -->
<g id="node2" class="node"><title>Node2</title>
<g id="a_node2"><a xlink:href="ContextFactory_8h.html" target="_top" xlink:title="/home/travis/build\l/hypro/hypro/src/hypro\l/algorithms/reachability\l/contexts/ContextFactory.h">
<polygon fill="white" stroke="black" points="834.5,-178.5 834.5,-230.5 977.5,-230.5 977.5,-178.5 834.5,-178.5"/>
<text text-anchor="start" x="842.5" y="-218.5" font-family="Helvetica,sans-Serif" font-size="10.00">/home/travis/build</text>
<text text-anchor="start" x="842.5" y="-207.5" font-family="Helvetica,sans-Serif" font-size="10.00">/hypro/hypro/src/hypro</text>
<text text-anchor="start" x="842.5" y="-196.5" font-family="Helvetica,sans-Serif" font-size="10.00">/algorithms/reachability</text>
<text text-anchor="middle" x="906" y="-185.5" font-family="Helvetica,sans-Serif" font-size="10.00">/contexts/ContextFactory.h</text>
</a>
</g>
</g>
<!-- Node1&#45;&gt;Node2 -->
<g id="edge1" class="edge"><title>Node1&#45;&gt;Node2</title>
<path fill="none" stroke="midnightblue" d="M223.762,-1113.85C132.572,-1094.83 0,-1049.24 0,-945 0,-945 0,-945 0,-843 0,-435.745 619.862,-266.05 834.15,-219.553"/>
<polygon fill="midnightblue" stroke="midnightblue" points="223.34,-1117.34 233.834,-1115.88 224.723,-1110.47 223.34,-1117.34"/>
</g>
<!-- Node6 -->
<g id="node6" class="node"><title>Node6</title>
<g id="a_node6"><a xlink:href="SettingsProvider_8h.html" target="_top" xlink:title="/home/travis/build\l/hypro/hypro/src/hypro\l/datastructures/reachability\l/SettingsProvider.h">
<polygon fill="white" stroke="black" points="455,-1012.5 455,-1064.5 603,-1064.5 603,-1012.5 455,-1012.5"/>
<text text-anchor="start" x="463" y="-1052.5" font-family="Helvetica,sans-Serif" font-size="10.00">/home/travis/build</text>
<text text-anchor="start" x="463" y="-1041.5" font-family="Helvetica,sans-Serif" font-size="10.00">/hypro/hypro/src/hypro</text>
<text text-anchor="start" x="463" y="-1030.5" font-family="Helvetica,sans-Serif" font-size="10.00">/datastructures/reachability</text>
<text text-anchor="middle" x="529" y="-1019.5" font-family="Helvetica,sans-Serif" font-size="10.00">/SettingsProvider.h</text>
</a>
</g>
</g>
<!-- Node1&#45;&gt;Node6 -->
<g id="edge5" class="edge"><title>Node1&#45;&gt;Node6</title>
<path fill="none" stroke="midnightblue" d="M381.115,-1097.72C408.385,-1086.98 439.099,-1074.89 465.441,-1064.52"/>
<polygon fill="midnightblue" stroke="midnightblue" points="379.649,-1094.53 371.626,-1101.45 382.213,-1101.05 379.649,-1094.53"/>
</g>
<!-- Node10 -->
<g id="node10" class="node"><title>Node10</title>
<g id="a_node10"><a xlink:href="LTIContext_8h.html" target="_top" xlink:title="/home/travis/build\l/hypro/hypro/src/hypro\l/algorithms/reachability\l/contexts/LTIContext.h">
<polygon fill="white" stroke="black" points="573,-356.5 573,-408.5 701,-408.5 701,-356.5 573,-356.5"/>
<text text-anchor="start" x="581" y="-396.5" font-family="Helvetica,sans-Serif" font-size="10.00">/home/travis/build</text>
<text text-anchor="start" x="581" y="-385.5" font-family="Helvetica,sans-Serif" font-size="10.00">/hypro/hypro/src/hypro</text>
<text text-anchor="start" x="581" y="-374.5" font-family="Helvetica,sans-Serif" font-size="10.00">/algorithms/reachability</text>
<text text-anchor="middle" x="637" y="-363.5" font-family="Helvetica,sans-Serif" font-size="10.00">/contexts/LTIContext.h</text>
</a>
</g>
</g>
<!-- Node1&#45;&gt;Node10 -->
<g id="edge57" class="edge"><title>Node1&#45;&gt;Node10</title>
<path fill="none" stroke="midnightblue" d="M281.649,-1093.12C259.287,-1063.61 227.498,-1018.73 206,-976 153.128,-870.915 152.26,-824.39 187,-712 228.829,-576.676 238.938,-516.854 361,-445 426.68,-406.336 514.203,-391.949 572.921,-386.613"/>
<polygon fill="midnightblue" stroke="midnightblue" points="279.122,-1095.57 287.977,-1101.39 284.682,-1091.32 279.122,-1095.57"/>
</g>
<!-- Node11 -->
<g id="node11" class="node"><title>Node11</title>
<g id="a_node11"><a xlink:href="TimedContext_8h.html" target="_top" xlink:title="/home/travis/build\l/hypro/hypro/src/hypro\l/algorithms/reachability\l/contexts/TimedContext.h">
<polygon fill="white" stroke="black" points="928,-267.5 928,-319.5 1068,-319.5 1068,-267.5 928,-267.5"/>
<text text-anchor="start" x="936" y="-307.5" font-family="Helvetica,sans-Serif" font-size="10.00">/home/travis/build</text>
<text text-anchor="start" x="936" y="-296.5" font-family="Helvetica,sans-Serif" font-size="10.00">/hypro/hypro/src/hypro</text>
<text text-anchor="start" x="936" y="-285.5" font-family="Helvetica,sans-Serif" font-size="10.00">/algorithms/reachability</text>
<text text-anchor="middle" x="998" y="-274.5" font-family="Helvetica,sans-Serif" font-size="10.00">/contexts/TimedContext.h</text>
</a>
</g>
</g>
<!-- Node1&#45;&gt;Node11 -->
<g id="edge58" class="edge"><title>Node1&#45;&gt;Node11</title>
<path fill="none" stroke="midnightblue" d="M392.018,-1124.92C541.028,-1119.04 858.094,-1092.59 1094,-976 1153.82,-946.433 1167.94,-930.815 1206,-876 1248.73,-814.458 1258.23,-785.744 1245,-712 1223.52,-592.288 1074.04,-366.187 1066,-356 1055.65,-342.879 1042.35,-330.175 1030.26,-319.753"/>
<polygon fill="midnightblue" stroke="midnightblue" points="391.878,-1121.42 382.015,-1125.29 392.139,-1128.41 391.878,-1121.42"/>
</g>
<!-- Node3 -->
<g id="node3" class="node"><title>Node3</title>
<g id="a_node3"><a xlink:href="ContextBasedReachabilityWorker_8h.html" target="_top" xlink:title="/home/travis/build\l/hypro/hypro/src/hypro\l/algorithms/reachability\l/workers/ContextBasedReachability\lWorker.h">
<polygon fill="white" stroke="black" points="843.5,-78.5 843.5,-141.5 1026.5,-141.5 1026.5,-78.5 843.5,-78.5"/>
<text text-anchor="start" x="851.5" y="-129.5" font-family="Helvetica,sans-Serif" font-size="10.00">/home/travis/build</text>
<text text-anchor="start" x="851.5" y="-118.5" font-family="Helvetica,sans-Serif" font-size="10.00">/hypro/hypro/src/hypro</text>
<text text-anchor="start" x="851.5" y="-107.5" font-family="Helvetica,sans-Serif" font-size="10.00">/algorithms/reachability</text>
<text text-anchor="start" x="851.5" y="-96.5" font-family="Helvetica,sans-Serif" font-size="10.00">/workers/ContextBasedReachability</text>
<text text-anchor="middle" x="935" y="-85.5" font-family="Helvetica,sans-Serif" font-size="10.00">Worker.h</text>
</a>
</g>
</g>
<!-- Node2&#45;&gt;Node3 -->
<g id="edge2" class="edge"><title>Node2&#45;&gt;Node3</title>
<path fill="none" stroke="midnightblue" d="M916.967,-168.519C919.753,-159.633 922.724,-150.156 925.434,-141.512"/>
<polygon fill="midnightblue" stroke="midnightblue" points="913.576,-167.635 913.924,-178.224 920.256,-169.729 913.576,-167.635"/>
</g>
<!-- Node4 -->
<g id="node4" class="node"><title>Node4</title>
<g id="a_node4"><a xlink:href="example__rectangularReachability_8cpp.html" target="_top" xlink:title="/home/travis/build\l/hypro/hypro/examples\l/example_rectangularReachability.cpp">
<polygon fill="white" stroke="black" points="130,-0.5 130,-41.5 326,-41.5 326,-0.5 130,-0.5"/>
<text text-anchor="start" x="138" y="-29.5" font-family="Helvetica,sans-Serif" font-size="10.00">/home/travis/build</text>
<text text-anchor="start" x="138" y="-18.5" font-family="Helvetica,sans-Serif" font-size="10.00">/hypro/hypro/examples</text>
<text text-anchor="middle" x="228" y="-7.5" font-family="Helvetica,sans-Serif" font-size="10.00">/example_rectangularReachability.cpp</text>
</a>
</g>
</g>
<!-- Node3&#45;&gt;Node4 -->
<g id="edge3" class="edge"><title>Node3&#45;&gt;Node4</title>
<path fill="none" stroke="midnightblue" d="M833.321,-96.4879C697.835,-79.8156 459.702,-50.5122 326.068,-34.0678"/>
<polygon fill="midnightblue" stroke="midnightblue" points="832.944,-99.9678 843.297,-97.7155 833.799,-93.0202 832.944,-99.9678"/>
</g>
<!-- Node5 -->
<g id="node5" class="node"><title>Node5</title>
<g id="a_node5"><a xlink:href="example__worker_8cpp.html" target="_top" xlink:title="/home/travis/build\l/hypro/hypro/examples\l/example_worker.cpp">
<polygon fill="white" stroke="black" points="872,-0.5 872,-41.5 998,-41.5 998,-0.5 872,-0.5"/>
<text text-anchor="start" x="880" y="-29.5" font-family="Helvetica,sans-Serif" font-size="10.00">/home/travis/build</text>
<text text-anchor="start" x="880" y="-18.5" font-family="Helvetica,sans-Serif" font-size="10.00">/hypro/hypro/examples</text>
<text text-anchor="middle" x="935" y="-7.5" font-family="Helvetica,sans-Serif" font-size="10.00">/example_worker.cpp</text>
</a>
</g>
</g>
<!-- Node3&#45;&gt;Node5 -->
<g id="edge4" class="edge"><title>Node3&#45;&gt;Node5</title>
<path fill="none" stroke="midnightblue" d="M935,-67.913C935,-58.7761 935,-49.4967 935,-41.6941"/>
<polygon fill="midnightblue" stroke="midnightblue" points="931.5,-68.0821 935,-78.0821 938.5,-68.0821 931.5,-68.0821"/>
</g>
<!-- Node6&#45;&gt;Node4 -->
<g id="edge55" class="edge"><title>Node6&#45;&gt;Node4</title>
<path fill="none" stroke="midnightblue" d="M444.599,-1029.23C362.195,-1019.8 243.844,-1002.2 206,-976 72.1533,-883.325 38,-813.299 38,-650.5 38,-650.5 38,-650.5 38,-203.5 38,-142.952 47.9396,-120.566 91,-78 107.446,-61.7425 129.262,-49.9947 150.638,-41.5951"/>
<polygon fill="midnightblue" stroke="midnightblue" points="444.385,-1032.73 454.714,-1030.37 445.168,-1025.78 444.385,-1032.73"/>
</g>
<!-- Node6&#45;&gt;Node5 -->
<g id="edge56" class="edge"><title>Node6&#45;&gt;Node5</title>
<path fill="none" stroke="midnightblue" d="M613.33,-1031.18C760.127,-1019.75 1051.14,-995.071 1094,-976 1286.49,-890.354 1324,-772.183 1324,-561.5 1324,-561.5 1324,-561.5 1324,-203.5 1324,-138.521 1302.47,-114.921 1249,-78 1209.24,-50.5482 1077.79,-34.5014 998.122,-27.0665"/>
<polygon fill="midnightblue" stroke="midnightblue" points="612.714,-1027.71 603.015,-1031.98 613.256,-1034.69 612.714,-1027.71"/>
</g>
<!-- Node7 -->
<g id="node7" class="node"><title>Node7</title>
<g id="a_node7"><a xlink:href="ReachTreeNode_8h.html" target="_top" xlink:title="/home/travis/build\l/hypro/hypro/src/hypro\l/datastructures/reachability\l/ReachTreeNode.h">
<polygon fill="white" stroke="black" points="868,-918 868,-970 1016,-970 1016,-918 868,-918"/>
<text text-anchor="start" x="876" y="-958" font-family="Helvetica,sans-Serif" font-size="10.00">/home/travis/build</text>
<text text-anchor="start" x="876" y="-947" font-family="Helvetica,sans-Serif" font-size="10.00">/hypro/hypro/src/hypro</text>
<text text-anchor="start" x="876" y="-936" font-family="Helvetica,sans-Serif" font-size="10.00">/datastructures/reachability</text>
<text text-anchor="middle" x="942" y="-925" font-family="Helvetica,sans-Serif" font-size="10.00">/ReachTreeNode.h</text>
</a>
</g>
</g>
<!-- Node6&#45;&gt;Node7 -->
<g id="edge6" class="edge"><title>Node6&#45;&gt;Node7</title>
<path fill="none" stroke="midnightblue" d="M613.183,-1018.65C688.011,-1001.89 796.343,-977.623 867.936,-961.588"/>
<polygon fill="midnightblue" stroke="midnightblue" points="612.306,-1015.25 603.313,-1020.86 613.836,-1022.09 612.306,-1015.25"/>
</g>
<!-- Node6&#45;&gt;Node10 -->
<g id="edge37" class="edge"><title>Node6&#45;&gt;Node10</title>
<path fill="none" stroke="midnightblue" d="M444.884,-1010.47C416.837,-1000.61 385.692,-988.733 358,-976 276.26,-938.416 227.252,-953.758 182,-876 167.693,-851.416 176.281,-839.864 182,-812 200.375,-722.477 216.905,-701.913 263,-623 288.108,-580.016 296.875,-570.243 331,-534 372.474,-489.952 381.005,-474.185 434,-445 477.386,-421.107 531.218,-405.344 572.543,-395.764"/>
<polygon fill="midnightblue" stroke="midnightblue" points="444.07,-1013.9 454.665,-1013.87 446.369,-1007.28 444.07,-1013.9"/>
</g>
<!-- Node6&#45;&gt;Node11 -->
<g id="edge54" class="edge"><title>Node6&#45;&gt;Node11</title>
<path fill="none" stroke="midnightblue" d="M613.263,-1033.6C735.279,-1026.86 954.294,-1010.32 1025,-976 1138.66,-920.832 1178.36,-892.6 1227,-776 1237.95,-749.748 1234.1,-739.545 1227,-712 1211.17,-650.55 1188.06,-642.887 1158,-587 1103.1,-484.927 1094.97,-456.358 1037,-356 1029.98,-343.848 1021.72,-330.672 1014.61,-319.644"/>
<polygon fill="midnightblue" stroke="midnightblue" points="613.004,-1030.11 603.208,-1034.15 613.383,-1037.1 613.004,-1030.11"/>
</g>
<!-- Node18 -->
<g id="node18" class="node"><title>Node18</title>
<g id="a_node18"><a xlink:href="EventTimingProvider_8h.html" target="_top" xlink:title="/home/travis/build\l/hypro/hypro/src/hypro\l/datastructures/reachability\l/timing/EventTimingProvider.h">
<polygon fill="white" stroke="black" points="191,-818 191,-870 349,-870 349,-818 191,-818"/>
<text text-anchor="start" x="199" y="-858" font-family="Helvetica,sans-Serif" font-size="10.00">/home/travis/build</text>
<text text-anchor="start" x="199" y="-847" font-family="Helvetica,sans-Serif" font-size="10.00">/hypro/hypro/src/hypro</text>
<text text-anchor="start" x="199" y="-836" font-family="Helvetica,sans-Serif" font-size="10.00">/datastructures/reachability</text>
<text text-anchor="middle" x="270" y="-825" font-family="Helvetica,sans-Serif" font-size="10.00">/timing/EventTimingProvider.h</text>
</a>
</g>
</g>
<!-- Node6&#45;&gt;Node18 -->
<g id="edge38" class="edge"><title>Node6&#45;&gt;Node18</title>
<path fill="none" stroke="midnightblue" d="M486.947,-1006.24C435.918,-968.318 350.892,-905.122 303.868,-870.172"/>
<polygon fill="midnightblue" stroke="midnightblue" points="485.026,-1009.18 495.14,-1012.33 489.202,-1003.56 485.026,-1009.18"/>
</g>
<!-- Node20 -->
<g id="node20" class="node"><title>Node20</title>
<g id="a_node20"><a xlink:href="ltiGuardHandler_8h.html" target="_top" xlink:title="/home/travis/build\l/hypro/hypro/src/hypro\l/algorithms/reachability\l/handlers/guardHandlers\l/ltiGuardHandler.h">
<polygon fill="white" stroke="black" points="462,-912.5 462,-975.5 596,-975.5 596,-912.5 462,-912.5"/>
<text text-anchor="start" x="470" y="-963.5" font-family="Helvetica,sans-Serif" font-size="10.00">/home/travis/build</text>
<text text-anchor="start" x="470" y="-952.5" font-family="Helvetica,sans-Serif" font-size="10.00">/hypro/hypro/src/hypro</text>
<text text-anchor="start" x="470" y="-941.5" font-family="Helvetica,sans-Serif" font-size="10.00">/algorithms/reachability</text>
<text text-anchor="start" x="470" y="-930.5" font-family="Helvetica,sans-Serif" font-size="10.00">/handlers/guardHandlers</text>
<text text-anchor="middle" x="529" y="-919.5" font-family="Helvetica,sans-Serif" font-size="10.00">/ltiGuardHandler.h</text>
</a>
</g>
</g>
<!-- Node6&#45;&gt;Node20 -->
<g id="edge44" class="edge"><title>Node6&#45;&gt;Node20</title>
<path fill="none" stroke="midnightblue" d="M529,-1001.94C529,-993.226 529,-983.97 529,-975.512"/>
<polygon fill="midnightblue" stroke="midnightblue" points="525.5,-1002.22 529,-1012.22 532.5,-1002.22 525.5,-1002.22"/>
</g>
<!-- Node24 -->
<g id="node24" class="node"><title>Node24</title>
<g id="a_node24"><a xlink:href="rectangularGuardHandler_8h.html" target="_top" xlink:title="/home/travis/build\l/hypro/hypro/src/hypro\l/algorithms/reachability\l/handlers/guardHandlers\l/rectangularGuardHandler.h">
<polygon fill="white" stroke="black" points="629.5,-912.5 629.5,-975.5 778.5,-975.5 778.5,-912.5 629.5,-912.5"/>
<text text-anchor="start" x="637.5" y="-963.5" font-family="Helvetica,sans-Serif" font-size="10.00">/home/travis/build</text>
<text text-anchor="start" x="637.5" y="-952.5" font-family="Helvetica,sans-Serif" font-size="10.00">/hypro/hypro/src/hypro</text>
<text text-anchor="start" x="637.5" y="-941.5" font-family="Helvetica,sans-Serif" font-size="10.00">/algorithms/reachability</text>
<text text-anchor="start" x="637.5" y="-930.5" font-family="Helvetica,sans-Serif" font-size="10.00">/handlers/guardHandlers</text>
<text text-anchor="middle" x="704" y="-919.5" font-family="Helvetica,sans-Serif" font-size="10.00">/rectangularGuardHandler.h</text>
</a>
</g>
</g>
<!-- Node6&#45;&gt;Node24 -->
<g id="edge52" class="edge"><title>Node6&#45;&gt;Node24</title>
<path fill="none" stroke="midnightblue" d="M585.372,-1007.7C604.754,-997.459 626.479,-985.975 645.99,-975.663"/>
<polygon fill="midnightblue" stroke="midnightblue" points="583.563,-1004.7 576.358,-1012.47 586.834,-1010.89 583.563,-1004.7"/>
</g>
<!-- Node8 -->
<g id="node8" class="node"><title>Node8</title>
<g id="a_node8"><a xlink:href="Task_8h.html" target="_top" xlink:title="/home/travis/build\l/hypro/hypro/src/hypro\l/datastructures/reachability\l/Task.h">
<polygon fill="white" stroke="black" points="1070,-718 1070,-770 1218,-770 1218,-718 1070,-718"/>
<text text-anchor="start" x="1078" y="-758" font-family="Helvetica,sans-Serif" font-size="10.00">/home/travis/build</text>
<text text-anchor="start" x="1078" y="-747" font-family="Helvetica,sans-Serif" font-size="10.00">/hypro/hypro/src/hypro</text>
<text text-anchor="start" x="1078" y="-736" font-family="Helvetica,sans-Serif" font-size="10.00">/datastructures/reachability</text>
<text text-anchor="middle" x="1144" y="-725" font-family="Helvetica,sans-Serif" font-size="10.00">/Task.h</text>
</a>
</g>
</g>
<!-- Node7&#45;&gt;Node8 -->
<g id="edge7" class="edge"><title>Node7&#45;&gt;Node8</title>
<path fill="none" stroke="midnightblue" d="M1004.76,-912.832C1022.47,-902.605 1040.98,-890.138 1056,-876 1089.31,-844.634 1116.61,-798.444 1131.57,-770.118"/>
<polygon fill="midnightblue" stroke="midnightblue" points="1002.6,-910.028 995.592,-917.972 1006.03,-916.133 1002.6,-910.028"/>
</g>
<!-- Node12 -->
<g id="node12" class="node"><title>Node12</title>
<g id="a_node12"><a xlink:href="ltiJumpHandler_8h.html" target="_top" xlink:title="/home/travis/build\l/hypro/hypro/src/hypro\l/algorithms/reachability\l/handlers/jumpHandlers/ltiJumpHandler.h">
<polygon fill="white" stroke="black" points="596,-623.5 596,-675.5 808,-675.5 808,-623.5 596,-623.5"/>
<text text-anchor="start" x="604" y="-663.5" font-family="Helvetica,sans-Serif" font-size="10.00">/home/travis/build</text>
<text text-anchor="start" x="604" y="-652.5" font-family="Helvetica,sans-Serif" font-size="10.00">/hypro/hypro/src/hypro</text>
<text text-anchor="start" x="604" y="-641.5" font-family="Helvetica,sans-Serif" font-size="10.00">/algorithms/reachability</text>
<text text-anchor="middle" x="702" y="-630.5" font-family="Helvetica,sans-Serif" font-size="10.00">/handlers/jumpHandlers/ltiJumpHandler.h</text>
</a>
</g>
</g>
<!-- Node7&#45;&gt;Node12 -->
<g id="edge34" class="edge"><title>Node7&#45;&gt;Node12</title>
<path fill="none" stroke="midnightblue" d="M971.556,-909.954C1011.18,-861.559 1071.15,-770.789 1022,-712 993.034,-677.355 866.314,-684.694 822,-676 817.506,-675.118 812.921,-674.205 808.292,-673.271"/>
<polygon fill="midnightblue" stroke="midnightblue" points="968.633,-907.995 964.91,-917.914 974.006,-912.482 968.633,-907.995"/>
</g>
<!-- Node15 -->
<g id="node15" class="node"><title>Node15</title>
<g id="a_node15"><a xlink:href="ReachTree_8h.html" target="_top" xlink:title="/home/travis/build\l/hypro/hypro/src/hypro\l/datastructures/reachability\l/ReachTree.h">
<polygon fill="white" stroke="black" points="747,-818 747,-870 895,-870 895,-818 747,-818"/>
<text text-anchor="start" x="755" y="-858" font-family="Helvetica,sans-Serif" font-size="10.00">/home/travis/build</text>
<text text-anchor="start" x="755" y="-847" font-family="Helvetica,sans-Serif" font-size="10.00">/hypro/hypro/src/hypro</text>
<text text-anchor="start" x="755" y="-836" font-family="Helvetica,sans-Serif" font-size="10.00">/datastructures/reachability</text>
<text text-anchor="middle" x="821" y="-825" font-family="Helvetica,sans-Serif" font-size="10.00">/ReachTree.h</text>
</a>
</g>
</g>
<!-- Node7&#45;&gt;Node15 -->
<g id="edge28" class="edge"><title>Node7&#45;&gt;Node15</title>
<path fill="none" stroke="midnightblue" d="M902.97,-911.389C886.489,-898.041 867.565,-882.714 852.055,-870.152"/>
<polygon fill="midnightblue" stroke="midnightblue" points="900.866,-914.189 910.839,-917.763 905.271,-908.749 900.866,-914.189"/>
</g>
<!-- Node16 -->
<g id="node16" class="node"><title>Node16</title>
<g id="a_node16"><a xlink:href="NodeManager_8h.html" target="_top" xlink:title="/home/travis/build\l/hypro/hypro/src/hypro\l/datastructures/reachability\l/NodeManager.h">
<polygon fill="white" stroke="black" points="690,-718 690,-770 838,-770 838,-718 690,-718"/>
<text text-anchor="start" x="698" y="-758" font-family="Helvetica,sans-Serif" font-size="10.00">/home/travis/build</text>
<text text-anchor="start" x="698" y="-747" font-family="Helvetica,sans-Serif" font-size="10.00">/hypro/hypro/src/hypro</text>
<text text-anchor="start" x="698" y="-736" font-family="Helvetica,sans-Serif" font-size="10.00">/datastructures/reachability</text>
<text text-anchor="middle" x="764" y="-725" font-family="Helvetica,sans-Serif" font-size="10.00">/NodeManager.h</text>
</a>
</g>
</g>
<!-- Node7&#45;&gt;Node16 -->
<g id="edge33" class="edge"><title>Node7&#45;&gt;Node16</title>
<path fill="none" stroke="midnightblue" d="M939.64,-907.938C936.027,-879.208 926.918,-839.023 904,-812 893.238,-799.31 860.277,-783.271 829.041,-770.068"/>
<polygon fill="midnightblue" stroke="midnightblue" points="936.17,-908.4 940.738,-917.959 943.128,-907.638 936.17,-908.4"/>
</g>
<!-- Node17 -->
<g id="node17" class="node"><title>Node17</title>
<g id="a_node17"><a xlink:href="algorithms_2reachability_2handlers_2jumpHandlers_2util_8h.html" target="_top" xlink:title="/home/travis/build\l/hypro/hypro/src/hypro\l/algorithms/reachability\l/handlers/jumpHandlers/util.h">
<polygon fill="white" stroke="black" points="856.5,-718 856.5,-770 1013.5,-770 1013.5,-718 856.5,-718"/>
<text text-anchor="start" x="864.5" y="-758" font-family="Helvetica,sans-Serif" font-size="10.00">/home/travis/build</text>
<text text-anchor="start" x="864.5" y="-747" font-family="Helvetica,sans-Serif" font-size="10.00">/hypro/hypro/src/hypro</text>
<text text-anchor="start" x="864.5" y="-736" font-family="Helvetica,sans-Serif" font-size="10.00">/algorithms/reachability</text>
<text text-anchor="middle" x="935" y="-725" font-family="Helvetica,sans-Serif" font-size="10.00">/handlers/jumpHandlers/util.h</text>
</a>
</g>
</g>
<!-- Node7&#45;&gt;Node17 -->
<g id="edge35" class="edge"><title>Node7&#45;&gt;Node17</title>
<path fill="none" stroke="midnightblue" d="M940.751,-907.68C939.353,-868.133 937.122,-805.036 935.89,-770.185"/>
<polygon fill="midnightblue" stroke="midnightblue" points="937.262,-908.053 941.113,-917.923 944.258,-907.806 937.262,-908.053"/>
</g>
<!-- Node8&#45;&gt;Node2 -->
<g id="edge8" class="edge"><title>Node8&#45;&gt;Node2</title>
<path fill="none" stroke="midnightblue" d="M1150.22,-707.793C1163.28,-621.855 1184.15,-398.773 1077,-267 1052.72,-237.137 1012.74,-221.769 977.548,-213.864"/>
<polygon fill="midnightblue" stroke="midnightblue" points="1146.74,-707.39 1148.63,-717.814 1153.65,-708.483 1146.74,-707.39"/>
</g>
<!-- Node8&#45;&gt;Node3 -->
<g id="edge25" class="edge"><title>Node8&#45;&gt;Node3</title>
<path fill="none" stroke="midnightblue" d="M1164.48,-708.937C1183.86,-673.426 1210,-615.517 1210,-561.5 1210,-561.5 1210,-561.5 1210,-292.5 1210,-202.69 1106.57,-154.773 1026.57,-131.143"/>
<polygon fill="midnightblue" stroke="midnightblue" points="1161.3,-707.465 1159.47,-717.902 1167.41,-710.88 1161.3,-707.465"/>
</g>
<!-- Node8&#45;&gt;Node4 -->
<g id="edge26" class="edge"><title>Node8&#45;&gt;Node4</title>
<path fill="none" stroke="midnightblue" d="M1072.76,-713.545C1051.33,-703.158 1028.37,-690.424 1009,-676 852.876,-559.76 857.275,-483.266 710,-356 553.626,-220.872 342.17,-90.0295 261.317,-41.6444"/>
<polygon fill="midnightblue" stroke="midnightblue" points="1071.31,-716.727 1081.84,-717.85 1074.31,-710.403 1071.31,-716.727"/>
</g>
<!-- Node8&#45;&gt;Node5 -->
<g id="edge27" class="edge"><title>Node8&#45;&gt;Node5</title>
<path fill="none" stroke="midnightblue" d="M1190.15,-711.629C1231.61,-679.335 1286,-624.888 1286,-561.5 1286,-561.5 1286,-561.5 1286,-203.5 1286,-75.3851 1099.21,-37.601 998.157,-26.534"/>
<polygon fill="midnightblue" stroke="midnightblue" points="1187.89,-708.949 1182.05,-717.788 1192.13,-714.521 1187.89,-708.949"/>
</g>
<!-- Node9 -->
<g id="node9" class="node"><title>Node9</title>
<g id="a_node9"><a xlink:href="IWorker_8h.html" target="_top" xlink:title="/home/travis/build\l/hypro/hypro/src/hypro\l/algorithms/reachability\l/workers/IWorker.h">
<polygon fill="white" stroke="black" points="902,-445.5 902,-497.5 1030,-497.5 1030,-445.5 902,-445.5"/>
<text text-anchor="start" x="910" y="-485.5" font-family="Helvetica,sans-Serif" font-size="10.00">/home/travis/build</text>
<text text-anchor="start" x="910" y="-474.5" font-family="Helvetica,sans-Serif" font-size="10.00">/hypro/hypro/src/hypro</text>
<text text-anchor="start" x="910" y="-463.5" font-family="Helvetica,sans-Serif" font-size="10.00">/algorithms/reachability</text>
<text text-anchor="middle" x="966" y="-452.5" font-family="Helvetica,sans-Serif" font-size="10.00">/workers/IWorker.h</text>
</a>
</g>
</g>
<!-- Node8&#45;&gt;Node9 -->
<g id="edge9" class="edge"><title>Node8&#45;&gt;Node9</title>
<path fill="none" stroke="midnightblue" d="M1085.15,-712.227C1070.2,-702.251 1055.22,-690.067 1044,-676 1000.24,-621.129 978.941,-538.929 970.531,-497.816"/>
<polygon fill="midnightblue" stroke="midnightblue" points="1083.61,-715.396 1093.92,-717.843 1087.39,-709.502 1083.61,-715.396"/>
</g>
<!-- Node8&#45;&gt;Node10 -->
<g id="edge17" class="edge"><title>Node8&#45;&gt;Node10</title>
<path fill="none" stroke="midnightblue" d="M1060.1,-715.768C1055.35,-714.441 1050.62,-713.174 1046,-712 964.391,-691.268 922.702,-732.198 860,-676 810.798,-631.902 851.627,-589.643 816,-534 781.19,-479.634 720.57,-434.744 679.629,-408.531"/>
<polygon fill="midnightblue" stroke="midnightblue" points="1059.3,-719.18 1069.88,-718.566 1061.23,-712.45 1059.3,-719.18"/>
</g>
<!-- Node8&#45;&gt;Node11 -->
<g id="edge24" class="edge"><title>Node8&#45;&gt;Node11</title>
<path fill="none" stroke="midnightblue" d="M1129.07,-708.299C1115.84,-676.926 1096.44,-629.309 1082,-587 1064.63,-536.124 1021.8,-381.302 1004.96,-319.94"/>
<polygon fill="midnightblue" stroke="midnightblue" points="1126,-710.046 1133.13,-717.887 1132.45,-707.314 1126,-710.046"/>
</g>
<!-- Node8&#45;&gt;Node12 -->
<g id="edge18" class="edge"><title>Node8&#45;&gt;Node12</title>
<path fill="none" stroke="midnightblue" d="M1067.5,-715.105C1063.63,-713.992 1059.78,-712.948 1056,-712 953.936,-686.409 925.504,-694.943 822,-676 817.496,-675.176 812.901,-674.31 808.264,-673.415"/>
<polygon fill="midnightblue" stroke="midnightblue" points="1066.54,-718.473 1077.13,-717.999 1068.56,-711.769 1066.54,-718.473"/>
</g>
<!-- Node9&#45;&gt;Node2 -->
<g id="edge10" class="edge"><title>Node9&#45;&gt;Node2</title>
<path fill="none" stroke="midnightblue" d="M953.058,-435.688C942.337,-405.5 927.527,-360.427 919,-320 912.6,-289.658 909.184,-254.083 907.485,-230.736"/>
<polygon fill="midnightblue" stroke="midnightblue" points="949.846,-437.099 956.521,-445.326 956.433,-434.732 949.846,-437.099"/>
</g>
<!-- Node9&#45;&gt;Node3 -->
<g id="edge16" class="edge"><title>Node9&#45;&gt;Node3</title>
<path fill="none" stroke="midnightblue" d="M1003.92,-438.257C1045.01,-399.165 1101.61,-330.599 1077,-267 1056.91,-215.084 1010.62,-169.822 976.318,-141.615"/>
<polygon fill="midnightblue" stroke="midnightblue" points="1001.39,-435.831 996.453,-445.205 1006.16,-440.956 1001.39,-435.831"/>
</g>
<!-- Node9&#45;&gt;Node10 -->
<g id="edge11" class="edge"><title>Node9&#45;&gt;Node10</title>
<path fill="none" stroke="midnightblue" d="M892.041,-450.943C834.615,-435.757 755.807,-414.917 701.054,-400.438"/>
<polygon fill="midnightblue" stroke="midnightblue" points="891.222,-454.346 901.784,-453.519 893.012,-447.579 891.222,-454.346"/>
</g>
<!-- Node9&#45;&gt;Node11 -->
<g id="edge15" class="edge"><title>Node9&#45;&gt;Node11</title>
<path fill="none" stroke="midnightblue" d="M972.409,-435.249C978.629,-401.038 987.915,-349.969 993.424,-319.67"/>
<polygon fill="midnightblue" stroke="midnightblue" points="968.93,-434.819 970.585,-445.283 975.817,-436.071 968.93,-434.819"/>
</g>
<!-- Node10&#45;&gt;Node2 -->
<g id="edge12" class="edge"><title>Node10&#45;&gt;Node2</title>
<path fill="none" stroke="midnightblue" d="M683.646,-350.981C735.689,-316.93 818.93,-262.468 867.441,-230.728"/>
<polygon fill="midnightblue" stroke="midnightblue" points="681.707,-348.067 675.255,-356.47 685.54,-353.924 681.707,-348.067"/>
</g>
<!-- Node10&#45;&gt;Node11 -->
<g id="edge13" class="edge"><title>Node10&#45;&gt;Node11</title>
<path fill="none" stroke="midnightblue" d="M711.067,-363.65C774.539,-348.354 865.325,-326.474 927.688,-311.445"/>
<polygon fill="midnightblue" stroke="midnightblue" points="710.025,-360.301 701.124,-366.046 711.665,-367.106 710.025,-360.301"/>
</g>
<!-- Node11&#45;&gt;Node2 -->
<g id="edge14" class="edge"><title>Node11&#45;&gt;Node2</title>
<path fill="none" stroke="midnightblue" d="M964.016,-260.363C953.631,-250.542 942.366,-239.89 932.55,-230.607"/>
<polygon fill="midnightblue" stroke="midnightblue" points="961.719,-263.008 971.39,-267.336 966.529,-257.922 961.719,-263.008"/>
</g>
<!-- Node13 -->
<g id="node13" class="node"><title>Node13</title>
<g id="a_node13"><a xlink:href="JumpHandlers_8h.html" target="_top" xlink:title="/home/travis/build\l/hypro/hypro/src/hypro\l/algorithms/reachability\l/handlers/jumpHandlers/JumpHandlers.h">
<polygon fill="white" stroke="black" points="598.5,-534.5 598.5,-586.5 807.5,-586.5 807.5,-534.5 598.5,-534.5"/>
<text text-anchor="start" x="606.5" y="-574.5" font-family="Helvetica,sans-Serif" font-size="10.00">/home/travis/build</text>
<text text-anchor="start" x="606.5" y="-563.5" font-family="Helvetica,sans-Serif" font-size="10.00">/hypro/hypro/src/hypro</text>
<text text-anchor="start" x="606.5" y="-552.5" font-family="Helvetica,sans-Serif" font-size="10.00">/algorithms/reachability</text>
<text text-anchor="middle" x="703" y="-541.5" font-family="Helvetica,sans-Serif" font-size="10.00">/handlers/jumpHandlers/JumpHandlers.h</text>
</a>
</g>
</g>
<!-- Node12&#45;&gt;Node13 -->
<g id="edge19" class="edge"><title>Node12&#45;&gt;Node13</title>
<path fill="none" stroke="midnightblue" d="M702.406,-613.191C702.508,-604.282 702.616,-594.899 702.711,-586.607"/>
<polygon fill="midnightblue" stroke="midnightblue" points="698.905,-613.296 702.289,-623.336 705.904,-613.377 698.905,-613.296"/>
</g>
<!-- Node14 -->
<g id="node14" class="node"><title>Node14</title>
<g id="a_node14"><a xlink:href="HandlerFactory_8h.html" target="_top" xlink:title="/home/travis/build\l/hypro/hypro/src/hypro\l/algorithms/reachability\l/handlers/HandlerFactory.h">
<polygon fill="white" stroke="black" points="565.5,-445.5 565.5,-497.5 708.5,-497.5 708.5,-445.5 565.5,-445.5"/>
<text text-anchor="start" x="573.5" y="-485.5" font-family="Helvetica,sans-Serif" font-size="10.00">/home/travis/build</text>
<text text-anchor="start" x="573.5" y="-474.5" font-family="Helvetica,sans-Serif" font-size="10.00">/hypro/hypro/src/hypro</text>
<text text-anchor="start" x="573.5" y="-463.5" font-family="Helvetica,sans-Serif" font-size="10.00">/algorithms/reachability</text>
<text text-anchor="middle" x="637" y="-452.5" font-family="Helvetica,sans-Serif" font-size="10.00">/handlers/HandlerFactory.h</text>
</a>
</g>
</g>
<!-- Node13&#45;&gt;Node14 -->
<g id="edge20" class="edge"><title>Node13&#45;&gt;Node14</title>
<path fill="none" stroke="midnightblue" d="M677.749,-526.215C670.544,-516.717 662.815,-506.529 656.047,-497.607"/>
<polygon fill="midnightblue" stroke="midnightblue" points="675.078,-528.484 683.91,-534.336 680.655,-524.254 675.078,-528.484"/>
</g>
<!-- Node14&#45;&gt;Node10 -->
<g id="edge21" class="edge"><title>Node14&#45;&gt;Node10</title>
<path fill="none" stroke="midnightblue" d="M637,-435.191C637,-426.282 637,-416.899 637,-408.607"/>
<polygon fill="midnightblue" stroke="midnightblue" points="633.5,-435.336 637,-445.336 640.5,-435.336 633.5,-435.336"/>
</g>
<!-- Node14&#45;&gt;Node11 -->
<g id="edge23" class="edge"><title>Node14&#45;&gt;Node11</title>
<path fill="none" stroke="midnightblue" d="M697.466,-441.021C767.251,-406.998 880.821,-351.629 946.546,-319.586"/>
<polygon fill="midnightblue" stroke="midnightblue" points="695.794,-437.942 688.339,-445.47 698.862,-444.234 695.794,-437.942"/>
</g>
<!-- Node14&#45;&gt;Node12 -->
<g id="edge22" class="edge"><title>Node14&#45;&gt;Node12</title>
<path fill="none" stroke="midnightblue" d="M604.838,-505.596C598.357,-514.198 592.473,-523.906 589,-534 581.337,-556.274 576.966,-566.75 589,-587 598.242,-602.553 612.949,-614.42 628.736,-623.378"/>
<polygon fill="midnightblue" stroke="midnightblue" points="607.639,-507.697 611.176,-497.71 602.183,-503.312 607.639,-507.697"/>
</g>
<!-- Node15&#45;&gt;Node4 -->
<g id="edge31" class="edge"><title>Node15&#45;&gt;Node4</title>
<path fill="none" stroke="midnightblue" d="M737.124,-815.396C692.945,-800.305 646.214,-783.246 638,-776 614,-754.829 626.118,-736.046 605,-712 586.451,-690.88 571.938,-696.772 553,-676 369.445,-474.677 346.784,-397.421 252,-142 239.36,-107.939 232.898,-65.8395 230,-41.6379"/>
<polygon fill="midnightblue" stroke="midnightblue" points="736.196,-818.777 746.791,-818.681 738.449,-812.15 736.196,-818.777"/>
</g>
<!-- Node15&#45;&gt;Node5 -->
<g id="edge32" class="edge"><title>Node15&#45;&gt;Node5</title>
<path fill="none" stroke="midnightblue" d="M741.15,-813.734C720.203,-803.757 698.58,-791.196 681,-776 655.074,-753.591 661.95,-736.509 638,-712 618.609,-692.156 601.838,-699.444 587,-676 510.742,-555.516 504.53,-485.595 564,-356 635.836,-199.457 697.211,-182.664 834,-78 852.152,-64.1107 874.166,-51.4866 893.003,-41.7551"/>
<polygon fill="midnightblue" stroke="midnightblue" points="739.843,-816.985 750.39,-817.993 742.774,-810.628 739.843,-816.985"/>
</g>
<!-- Node15&#45;&gt;Node16 -->
<g id="edge29" class="edge"><title>Node15&#45;&gt;Node16</title>
<path fill="none" stroke="midnightblue" d="M801.119,-808.818C793.722,-796.101 785.471,-781.914 778.629,-770.152"/>
<polygon fill="midnightblue" stroke="midnightblue" points="798.268,-810.878 806.321,-817.763 804.319,-807.359 798.268,-810.878"/>
</g>
<!-- Node16&#45;&gt;Node12 -->
<g id="edge30" class="edge"><title>Node16&#45;&gt;Node12</title>
<path fill="none" stroke="midnightblue" d="M741.305,-709.14C733.904,-698.099 725.822,-686.041 718.921,-675.745"/>
<polygon fill="midnightblue" stroke="midnightblue" points="738.583,-711.366 747.058,-717.724 744.398,-707.469 738.583,-711.366"/>
</g>
<!-- Node17&#45;&gt;Node12 -->
<g id="edge36" class="edge"><title>Node17&#45;&gt;Node12</title>
<path fill="none" stroke="midnightblue" d="M862.44,-714.194C831.258,-701.815 795.156,-687.483 765.104,-675.552"/>
<polygon fill="midnightblue" stroke="midnightblue" points="861.361,-717.531 871.947,-717.968 863.944,-711.025 861.361,-717.531"/>
</g>
<!-- Node18&#45;&gt;Node4 -->
<g id="edge42" class="edge"><title>Node18&#45;&gt;Node4</title>
<path fill="none" stroke="midnightblue" d="M191.392,-813.446C172.292,-803.63 153.057,-791.221 138,-776 94.2477,-731.771 76,-712.713 76,-650.5 76,-650.5 76,-650.5 76,-203.5 76,-130.135 149.899,-70.8382 194.643,-41.6597"/>
<polygon fill="midnightblue" stroke="midnightblue" points="189.924,-816.625 200.44,-817.916 193.024,-810.349 189.924,-816.625"/>
</g>
<!-- Node18&#45;&gt;Node5 -->
<g id="edge43" class="edge"><title>Node18&#45;&gt;Node5</title>
<path fill="none" stroke="midnightblue" d="M234.838,-810.789C200.061,-775.247 152,-714.543 152,-650.5 152,-650.5 152,-650.5 152,-559.5 152,-210.976 685.813,-71.5505 871.918,-33.5327"/>
<polygon fill="midnightblue" stroke="midnightblue" points="232.489,-813.389 242.036,-817.983 237.438,-808.438 232.489,-813.389"/>
</g>
<!-- Node18&#45;&gt;Node10 -->
<g id="edge39" class="edge"><title>Node18&#45;&gt;Node10</title>
<path fill="none" stroke="midnightblue" d="M253.512,-808.4C242.99,-781.234 233.614,-742.957 247,-712 312.966,-559.442 491.944,-453.964 582.687,-408.566"/>
<polygon fill="midnightblue" stroke="midnightblue" points="250.365,-809.95 257.4,-817.872 256.841,-807.292 250.365,-809.95"/>
</g>
<!-- Node19 -->
<g id="node19" class="node"><title>Node19</title>
<g id="a_node19"><a xlink:href="timingUtil_8h.html" target="_top" xlink:title="/home/travis/build\l/hypro/hypro/src/hypro\l/algorithms/reachability\l/handlers/jumpHandlers/timingUtil.h">
<polygon fill="white" stroke="black" points="256,-718 256,-770 444,-770 444,-718 256,-718"/>
<text text-anchor="start" x="264" y="-758" font-family="Helvetica,sans-Serif" font-size="10.00">/home/travis/build</text>
<text text-anchor="start" x="264" y="-747" font-family="Helvetica,sans-Serif" font-size="10.00">/hypro/hypro/src/hypro</text>
<text text-anchor="start" x="264" y="-736" font-family="Helvetica,sans-Serif" font-size="10.00">/algorithms/reachability</text>
<text text-anchor="middle" x="350" y="-725" font-family="Helvetica,sans-Serif" font-size="10.00">/handlers/jumpHandlers/timingUtil.h</text>
</a>
</g>
</g>
<!-- Node18&#45;&gt;Node19 -->
<g id="edge40" class="edge"><title>Node18&#45;&gt;Node19</title>
<path fill="none" stroke="midnightblue" d="M297,-809.925C307.609,-796.93 319.586,-782.257 329.468,-770.152"/>
<polygon fill="midnightblue" stroke="midnightblue" points="294.214,-807.803 290.602,-817.763 299.637,-812.229 294.214,-807.803"/>
</g>
<!-- Node19&#45;&gt;Node12 -->
<g id="edge41" class="edge"><title>Node19&#45;&gt;Node12</title>
<path fill="none" stroke="midnightblue" d="M441.594,-715.175C445.443,-714.088 449.257,-713.025 453,-712 499.705,-699.212 551.664,-686.191 595.984,-675.442"/>
<polygon fill="midnightblue" stroke="midnightblue" points="440.63,-711.811 431.976,-717.923 442.552,-718.541 440.63,-711.811"/>
</g>
<!-- Node21 -->
<g id="node21" class="node"><title>Node21</title>
<g id="a_node21"><a xlink:href="discreteGuardHandler_8h.html" target="_top" xlink:title="/home/travis/build\l/hypro/hypro/src/hypro\l/algorithms/reachability\l/handlers/guardHandlers\l/discreteGuardHandler.h">
<polygon fill="white" stroke="black" points="557,-812.5 557,-875.5 691,-875.5 691,-812.5 557,-812.5"/>
<text text-anchor="start" x="565" y="-863.5" font-family="Helvetica,sans-Serif" font-size="10.00">/home/travis/build</text>
<text text-anchor="start" x="565" y="-852.5" font-family="Helvetica,sans-Serif" font-size="10.00">/hypro/hypro/src/hypro</text>
<text text-anchor="start" x="565" y="-841.5" font-family="Helvetica,sans-Serif" font-size="10.00">/algorithms/reachability</text>
<text text-anchor="start" x="565" y="-830.5" font-family="Helvetica,sans-Serif" font-size="10.00">/handlers/guardHandlers</text>
<text text-anchor="middle" x="624" y="-819.5" font-family="Helvetica,sans-Serif" font-size="10.00">/discreteGuardHandler.h</text>
</a>
</g>
</g>
<!-- Node20&#45;&gt;Node21 -->
<g id="edge45" class="edge"><title>Node20&#45;&gt;Node21</title>
<path fill="none" stroke="midnightblue" d="M565.862,-904.974C575.285,-895.253 585.296,-884.926 594.308,-875.63"/>
<polygon fill="midnightblue" stroke="midnightblue" points="563.245,-902.645 558.798,-912.261 568.271,-907.517 563.245,-902.645"/>
</g>
<!-- Node22 -->
<g id="node22" class="node"><title>Node22</title>
<g id="a_node22"><a xlink:href="GuardHandlers_8h.html" target="_top" xlink:title="/home/travis/build\l/hypro/hypro/src/hypro\l/algorithms/reachability\l/handlers/guardHandlers\l/GuardHandlers.h">
<polygon fill="white" stroke="black" points="462,-712.5 462,-775.5 596,-775.5 596,-712.5 462,-712.5"/>
<text text-anchor="start" x="470" y="-763.5" font-family="Helvetica,sans-Serif" font-size="10.00">/home/travis/build</text>
<text text-anchor="start" x="470" y="-752.5" font-family="Helvetica,sans-Serif" font-size="10.00">/hypro/hypro/src/hypro</text>
<text text-anchor="start" x="470" y="-741.5" font-family="Helvetica,sans-Serif" font-size="10.00">/algorithms/reachability</text>
<text text-anchor="start" x="470" y="-730.5" font-family="Helvetica,sans-Serif" font-size="10.00">/handlers/guardHandlers</text>
<text text-anchor="middle" x="529" y="-719.5" font-family="Helvetica,sans-Serif" font-size="10.00">/GuardHandlers.h</text>
</a>
</g>
</g>
<!-- Node20&#45;&gt;Node22 -->
<g id="edge49" class="edge"><title>Node20&#45;&gt;Node22</title>
<path fill="none" stroke="midnightblue" d="M529,-902.375C529,-864.729 529,-809.563 529,-775.538"/>
<polygon fill="midnightblue" stroke="midnightblue" points="525.5,-902.496 529,-912.496 532.5,-902.496 525.5,-902.496"/>
</g>
<!-- Node23 -->
<g id="node23" class="node"><title>Node23</title>
<g id="a_node23"><a xlink:href="timedGuardHandler_8h.html" target="_top" xlink:title="/home/travis/build\l/hypro/hypro/src/hypro\l/algorithms/reachability\l/handlers/guardHandlers\l/timedGuardHandler.h">
<polygon fill="white" stroke="black" points="367,-812.5 367,-875.5 501,-875.5 501,-812.5 367,-812.5"/>
<text text-anchor="start" x="375" y="-863.5" font-family="Helvetica,sans-Serif" font-size="10.00">/home/travis/build</text>
<text text-anchor="start" x="375" y="-852.5" font-family="Helvetica,sans-Serif" font-size="10.00">/hypro/hypro/src/hypro</text>
<text text-anchor="start" x="375" y="-841.5" font-family="Helvetica,sans-Serif" font-size="10.00">/algorithms/reachability</text>
<text text-anchor="start" x="375" y="-830.5" font-family="Helvetica,sans-Serif" font-size="10.00">/handlers/guardHandlers</text>
<text text-anchor="middle" x="434" y="-819.5" font-family="Helvetica,sans-Serif" font-size="10.00">/timedGuardHandler.h</text>
</a>
</g>
</g>
<!-- Node20&#45;&gt;Node23 -->
<g id="edge50" class="edge"><title>Node20&#45;&gt;Node23</title>
<path fill="none" stroke="midnightblue" d="M492.138,-904.974C482.715,-895.253 472.704,-884.926 463.692,-875.63"/>
<polygon fill="midnightblue" stroke="midnightblue" points="489.729,-907.517 499.202,-912.261 494.755,-902.645 489.729,-907.517"/>
</g>
<!-- Node21&#45;&gt;Node22 -->
<g id="edge46" class="edge"><title>Node21&#45;&gt;Node22</title>
<path fill="none" stroke="midnightblue" d="M587.138,-804.974C577.715,-795.253 567.704,-784.926 558.692,-775.63"/>
<polygon fill="midnightblue" stroke="midnightblue" points="584.729,-807.517 594.202,-812.261 589.755,-802.645 584.729,-807.517"/>
</g>
<!-- Node22&#45;&gt;Node10 -->
<g id="edge48" class="edge"><title>Node22&#45;&gt;Node10</title>
<path fill="none" stroke="midnightblue" d="M522.406,-702.199C514.762,-641.602 508.646,-526.247 556,-445 564.447,-430.508 577.779,-418.303 591.207,-408.683"/>
<polygon fill="midnightblue" stroke="midnightblue" points="518.942,-702.702 523.738,-712.149 525.88,-701.773 518.942,-702.702"/>
</g>
<!-- Node22&#45;&gt;Node14 -->
<g id="edge47" class="edge"><title>Node22&#45;&gt;Node14</title>
<path fill="none" stroke="midnightblue" d="M532.107,-702.496C536.879,-658.66 548.775,-587.819 578,-534 585.273,-520.607 596.244,-508.036 606.76,-497.793"/>
<polygon fill="midnightblue" stroke="midnightblue" points="528.62,-702.192 531.092,-712.495 535.584,-702.9 528.62,-702.192"/>
</g>
<!-- Node23&#45;&gt;Node22 -->
<g id="edge51" class="edge"><title>Node23&#45;&gt;Node22</title>
<path fill="none" stroke="midnightblue" d="M470.862,-804.974C480.285,-795.253 490.296,-784.926 499.308,-775.63"/>
<polygon fill="midnightblue" stroke="midnightblue" points="468.245,-802.645 463.798,-812.261 473.271,-807.517 468.245,-802.645"/>
</g>
<!-- Node24&#45;&gt;Node22 -->
<g id="edge53" class="edge"><title>Node24&#45;&gt;Node22</title>
<path fill="none" stroke="midnightblue" d="M713.6,-902.619C717.829,-874.685 718.329,-838.006 700,-812 699.162,-810.811 643.661,-789.186 596.12,-770.822"/>
<polygon fill="midnightblue" stroke="midnightblue" points="710.15,-902.03 711.901,-912.479 717.048,-903.219 710.15,-902.03"/>
</g>
</g>
</svg>
        <g id="navigator" transform="translate(0 0)" fill="#404254">
                <rect fill="#f2f5e9" fill-opacity="0.5" stroke="#606060" stroke-width=".5" x="0" y="0" width="60" height="60"/>
                <use id="zoomplus" xlink:href="#zoomPlus" x="17" y="9" onmousedown="handleZoom(evt,'in')"/>
                <use id="zoomminus" xlink:href="#zoomMin" x="42" y="9" onmousedown="handleZoom(evt,'out')"/>
                <use id="reset" xlink:href="#resetDef" x="30" y="36" onmousedown="handleReset()"/>
                <g id="arrowUp" xlink:href="#dirArrow" transform="translate(30 24)" onmousedown="handlePan(0,-1)">
                  <use xlink:href="#rim" fill="#404040">
                        <set attributeName="fill" to="#808080" begin="arrowUp.mouseover" end="arrowUp.mouseout"/>
                  </use>
                  <path fill="none" stroke="white" stroke-width="1.5" d="M0,-3.0v7 M-2.5,-0.5L0,-3.0L2.5,-0.5"/>
                </g>
                <g id="arrowRight" xlink:href="#dirArrow" transform="rotate(90) translate(36 -43)" onmousedown="handlePan(1,0)">
                  <use xlink:href="#rim" fill="#404040">
                        <set attributeName="fill" to="#808080" begin="arrowRight.mouseover" end="arrowRight.mouseout"/>
                  </use>
                  <path fill="none" stroke="white" stroke-width="1.5" d="M0,-3.0v7 M-2.5,-0.5L0,-3.0L2.5,-0.5"/>
                </g>
                <g id="arrowDown" xlink:href="#dirArrow" transform="rotate(180) translate(-30 -48)" onmousedown="handlePan(0,1)">
                  <use xlink:href="#rim" fill="#404040">
                        <set attributeName="fill" to="#808080" begin="arrowDown.mouseover" end="arrowDown.mouseout"/>
                  </use>
                  <path fill="none" stroke="white" stroke-width="1.5" d="M0,-3.0v7 M-2.5,-0.5L0,-3.0L2.5,-0.5"/>
                </g>
                <g id="arrowLeft" xlink:href="#dirArrow" transform="rotate(270) translate(-36 17)" onmousedown="handlePan(-1,0)">
                  <use xlink:href="#rim" fill="#404040">
                        <set attributeName="fill" to="#808080" begin="arrowLeft.mouseover" end="arrowLeft.mouseout"/>
                  </use>
                  <path fill="none" stroke="white" stroke-width="1.5" d="M0,-3.0v7 M-2.5,-0.5L0,-3.0L2.5,-0.5"/>
                </g>
        </g>
        <svg viewBox="0 0 15 15" width="100%" height="30px" preserveAspectRatio="xMaxYMin meet">
         <g id="arrow_out" transform="scale(0.3 0.3)">
          <a xlink:href="datastructures_2reachability_2Strategy_8h__dep__incl_org.svg" target="_base">
           <rect id="button" ry="5" rx="5" y="6" x="6" height="38" width="38"
                fill="#f2f5e9" fill-opacity="0.5" stroke="#606060" stroke-width="1.0"/>
           <path id="arrow"
             d="M 11.500037,31.436501 C 11.940474,20.09759 22.043105,11.32322 32.158766,21.979434 L 37.068811,17.246167 C 37.068811,17.246167 37.088388,32 37.088388,32 L 22.160133,31.978069 C 22.160133,31.978069 26.997745,27.140456 26.997745,27.140456 C 18.528582,18.264221 13.291696,25.230495 11.500037,31.436501 z"
             style="fill:#404040;"/>
          </a>
         </g>
        </svg>
</svg>
