<?xml version="1.0" encoding="UTF-8" standalone="no"?>
<!DOCTYPE svg PUBLIC "-//W3C//DTD SVG 1.1//EN"
 "http://www.w3.org/Graphics/SVG/1.1/DTD/svg11.dtd">
<!-- Generated by graphviz version 2.38.0 (20140413.2041)
 -->
<!-- Title: /home/travis/build/hypro/hypro/src/hypro/datastructures/HybridAutomaton/flow/typetraits.h Pages: 1 -->
<svg width="2072pt" height="486pt"
 viewBox="0.00 0.00 2072.00 486.00" xmlns="http://www.w3.org/2000/svg" xmlns:xlink="http://www.w3.org/1999/xlink">
<g id="graph0" class="graph" transform="scale(1 1) rotate(0) translate(4 482)">
<title>/home/travis/build/hypro/hypro/src/hypro/datastructures/HybridAutomaton/flow/typetraits.h</title>
<polygon fill="white" stroke="none" points="-4,4 -4,-482 2068,-482 2068,4 -4,4"/>
<!-- Node1 -->
<g id="node1" class="node"><title>Node1</title>
<polygon fill="#bfbfbf" stroke="black" points="1731.5,-425.5 1731.5,-477.5 1909.5,-477.5 1909.5,-425.5 1731.5,-425.5"/>
<text text-anchor="start" x="1739.5" y="-465.5" font-family="Helvetica,sans-Serif" font-size="10.00">/home/travis/build</text>
<text text-anchor="start" x="1739.5" y="-454.5" font-family="Helvetica,sans-Serif" font-size="10.00">/hypro/hypro/src/hypro</text>
<text text-anchor="start" x="1739.5" y="-443.5" font-family="Helvetica,sans-Serif" font-size="10.00">/datastructures/HybridAutomaton</text>
<text text-anchor="middle" x="1820.5" y="-432.5" font-family="Helvetica,sans-Serif" font-size="10.00">/flow/typetraits.h</text>
</g>
<!-- Node2 -->
<g id="node2" class="node"><title>Node2</title>
<g id="a_node2"><a xlink:href="affine_8h.html" target="_top" xlink:title="affine.h">
<polygon fill="white" stroke="black" points="1721.5,-369.5 1721.5,-388.5 1773.5,-388.5 1773.5,-369.5 1721.5,-369.5"/>
<text text-anchor="middle" x="1747.5" y="-376.5" font-family="Helvetica,sans-Serif" font-size="10.00">affine.h</text>
</a>
</g>
</g>
<!-- Node1&#45;&gt;Node2 -->
<g id="edge1" class="edge"><title>Node1&#45;&gt;Node2</title>
<path fill="none" stroke="midnightblue" d="M1794.56,-425.446C1784.29,-415.528 1772.8,-404.432 1763.74,-395.687"/>
<polygon fill="midnightblue" stroke="midnightblue" points="1766.13,-393.125 1756.5,-388.695 1761.27,-398.16 1766.13,-393.125"/>
</g>
<!-- Node29 -->
<g id="node29" class="node"><title>Node29</title>
<g id="a_node29"><a xlink:href="linear_8h.html" target="_top" xlink:title="linear.h">
<polygon fill="white" stroke="black" points="1722,-313.5 1722,-332.5 1773,-332.5 1773,-313.5 1722,-313.5"/>
<text text-anchor="middle" x="1747.5" y="-320.5" font-family="Helvetica,sans-Serif" font-size="10.00">linear.h</text>
</a>
</g>
</g>
<!-- Node1&#45;&gt;Node29 -->
<g id="edge40" class="edge"><title>Node1&#45;&gt;Node29</title>
<path fill="none" stroke="midnightblue" d="M1810.42,-425.141C1803.46,-408.663 1793.49,-386.982 1782.5,-369 1776.37,-358.972 1768.4,-348.565 1761.61,-340.287"/>
<polygon fill="midnightblue" stroke="midnightblue" points="1764.21,-337.938 1755.09,-332.538 1758.85,-342.444 1764.21,-337.938"/>
</g>
<!-- Node30 -->
<g id="node30" class="node"><title>Node30</title>
<g id="a_node30"><a xlink:href="rectangular_8h.html" target="_top" xlink:title="rectangular.h">
<polygon fill="white" stroke="black" points="1829.5,-56.5 1829.5,-75.5 1909.5,-75.5 1909.5,-56.5 1829.5,-56.5"/>
<text text-anchor="middle" x="1869.5" y="-63.5" font-family="Helvetica,sans-Serif" font-size="10.00">rectangular.h</text>
</a>
</g>
</g>
<!-- Node1&#45;&gt;Node30 -->
<g id="edge41" class="edge"><title>Node1&#45;&gt;Node30</title>
<path fill="none" stroke="midnightblue" d="M1826.51,-425.465C1832.08,-400.064 1839.5,-359.533 1839.5,-324 1839.5,-324 1839.5,-324 1839.5,-204.5 1839.5,-160.887 1854.09,-111.244 1862.92,-85.1838"/>
<polygon fill="midnightblue" stroke="midnightblue" points="1866.29,-86.1401 1866.29,-75.5453 1859.68,-83.8279 1866.29,-86.1401"/>
</g>
<!-- Node33 -->
<g id="node33" class="node"><title>Node33</title>
<polygon fill="white" stroke="#bfbfbf" points="1867.5,-369.5 1867.5,-388.5 1935.5,-388.5 1935.5,-369.5 1867.5,-369.5"/>
<text text-anchor="middle" x="1901.5" y="-376.5" font-family="Helvetica,sans-Serif" font-size="10.00">type_traits</text>
</g>
<!-- Node1&#45;&gt;Node33 -->
<g id="edge46" class="edge"><title>Node1&#45;&gt;Node33</title>
<path fill="none" stroke="midnightblue" d="M1849.29,-425.446C1860.8,-415.428 1873.69,-404.208 1883.78,-395.422"/>
<polygon fill="midnightblue" stroke="midnightblue" points="1886.26,-397.901 1891.51,-388.695 1881.67,-392.621 1886.26,-397.901"/>
</g>
<!-- Node3 -->
<g id="node3" class="node"><title>Node3</title>
<g id="a_node3"><a xlink:href="types_8h.html" target="_top" xlink:title="../../../types.h">
<polygon fill="white" stroke="black" points="1422,-257.5 1422,-276.5 1501,-276.5 1501,-257.5 1422,-257.5"/>
<text text-anchor="middle" x="1461.5" y="-264.5" font-family="Helvetica,sans-Serif" font-size="10.00">../../../types.h</text>
</a>
</g>
</g>
<!-- Node2&#45;&gt;Node3 -->
<g id="edge2" class="edge"><title>Node2&#45;&gt;Node3</title>
<path fill="none" stroke="midnightblue" d="M1725.06,-369.368C1674.52,-349.93 1551.65,-302.674 1493.29,-280.228"/>
<polygon fill="midnightblue" stroke="midnightblue" points="1494.43,-276.915 1483.84,-276.591 1491.91,-283.448 1494.43,-276.915"/>
</g>
<!-- Node8 -->
<g id="node8" class="node"><title>Node8</title>
<polygon fill="white" stroke="#bfbfbf" points="1698.5,-0.5 1698.5,-19.5 1744.5,-19.5 1744.5,-0.5 1698.5,-0.5"/>
<text text-anchor="middle" x="1721.5" y="-7.5" font-family="Helvetica,sans-Serif" font-size="10.00">iosfwd</text>
</g>
<!-- Node2&#45;&gt;Node8 -->
<g id="edge39" class="edge"><title>Node2&#45;&gt;Node8</title>
<path fill="none" stroke="midnightblue" d="M1755.54,-369.321C1763.16,-360.687 1774.46,-346.774 1781.5,-333 1795.26,-306.09 1801.5,-298.225 1801.5,-268 1801.5,-268 1801.5,-268 1801.5,-132 1801.5,-87.8468 1763.98,-47.4169 1740.33,-26.3206"/>
<polygon fill="midnightblue" stroke="midnightblue" points="1742.49,-23.5617 1732.62,-19.6904 1737.92,-28.8669 1742.49,-23.5617"/>
</g>
<!-- Node2&#45;&gt;Node29 -->
<g id="edge36" class="edge"><title>Node2&#45;&gt;Node29</title>
<path fill="none" stroke="midnightblue" d="M1747.5,-369.083C1747.5,-362.006 1747.5,-351.861 1747.5,-342.986"/>
<polygon fill="midnightblue" stroke="midnightblue" points="1751,-342.751 1747.5,-332.751 1744,-342.751 1751,-342.751"/>
</g>
<!-- Node4 -->
<g id="node4" class="node"><title>Node4</title>
<polygon fill="white" stroke="#bfbfbf" points="785.5,-123.5 785.5,-142.5 919.5,-142.5 919.5,-123.5 785.5,-123.5"/>
<text text-anchor="middle" x="852.5" y="-130.5" font-family="Helvetica,sans-Serif" font-size="10.00">carl/numbers/numbers.h</text>
</g>
<!-- Node3&#45;&gt;Node4 -->
<g id="edge3" class="edge"><title>Node3&#45;&gt;Node4</title>
<path fill="none" stroke="midnightblue" d="M1421.85,-266.264C1314.32,-266.412 1019.53,-262.88 933.5,-221 901.784,-205.56 876.31,-171.952 862.882,-151.321"/>
<polygon fill="midnightblue" stroke="midnightblue" points="865.706,-149.236 857.432,-142.619 859.774,-152.952 865.706,-149.236"/>
</g>
<!-- Node5 -->
<g id="node5" class="node"><title>Node5</title>
<polygon fill="white" stroke="#bfbfbf" points="1527.5,-196 1527.5,-215 1613.5,-215 1613.5,-196 1527.5,-196"/>
<text text-anchor="middle" x="1570.5" y="-203" font-family="Helvetica,sans-Serif" font-size="10.00">carl/util/hash.h</text>
</g>
<!-- Node3&#45;&gt;Node5 -->
<g id="edge4" class="edge"><title>Node3&#45;&gt;Node5</title>
<path fill="none" stroke="midnightblue" d="M1477.12,-257.475C1495.09,-247.666 1524.82,-231.435 1545.91,-219.925"/>
<polygon fill="midnightblue" stroke="midnightblue" points="1547.81,-222.873 1554.91,-215.009 1544.46,-216.728 1547.81,-222.873"/>
</g>
<!-- Node6 -->
<g id="node6" class="node"><title>Node6</title>
<polygon fill="white" stroke="#bfbfbf" points="1631.5,-196 1631.5,-215 1735.5,-215 1735.5,-196 1631.5,-196"/>
<text text-anchor="middle" x="1683.5" y="-203" font-family="Helvetica,sans-Serif" font-size="10.00">eigen3/Eigen/Core</text>
</g>
<!-- Node3&#45;&gt;Node6 -->
<g id="edge5" class="edge"><title>Node3&#45;&gt;Node6</title>
<path fill="none" stroke="midnightblue" d="M1493.31,-257.475C1532.38,-247.004 1598.76,-229.212 1641.86,-217.66"/>
<polygon fill="midnightblue" stroke="midnightblue" points="1643,-220.979 1651.75,-215.009 1641.19,-214.217 1643,-220.979"/>
</g>
<!-- Node7 -->
<g id="node7" class="node"><title>Node7</title>
<polygon fill="white" stroke="#bfbfbf" points="1585.5,-123.5 1585.5,-142.5 1697.5,-142.5 1697.5,-123.5 1585.5,-123.5"/>
<text text-anchor="middle" x="1641.5" y="-130.5" font-family="Helvetica,sans-Serif" font-size="10.00">eigen3/Eigen/Dense</text>
</g>
<!-- Node3&#45;&gt;Node7 -->
<g id="edge6" class="edge"><title>Node3&#45;&gt;Node7</title>
<path fill="none" stroke="midnightblue" d="M1461.83,-257.228C1462.88,-241.633 1467.27,-208.946 1485.5,-190 1494.01,-181.15 1560.54,-159.203 1603.92,-145.56"/>
<polygon fill="midnightblue" stroke="midnightblue" points="1605.1,-148.859 1613.6,-142.534 1603.01,-142.178 1605.1,-148.859"/>
</g>
<!-- Node3&#45;&gt;Node8 -->
<g id="edge7" class="edge"><title>Node3&#45;&gt;Node8</title>
<path fill="none" stroke="midnightblue" d="M1465.37,-257.27C1473.01,-241.137 1491.64,-206.774 1518.5,-190 1590.66,-144.936 1648.94,-216.649 1706.5,-154 1737.8,-119.933 1731.64,-60.2484 1725.86,-29.89"/>
<polygon fill="midnightblue" stroke="midnightblue" points="1729.22,-28.8714 1723.74,-19.8053 1722.37,-30.3115 1729.22,-28.8714"/>
</g>
<!-- Node9 -->
<g id="node9" class="node"><title>Node9</title>
<polygon fill="white" stroke="#bfbfbf" points="819.5,-0.5 819.5,-19.5 851.5,-19.5 851.5,-0.5 819.5,-0.5"/>
<text text-anchor="middle" x="835.5" y="-7.5" font-family="Helvetica,sans-Serif" font-size="10.00">set</text>
</g>
<!-- Node3&#45;&gt;Node9 -->
<g id="edge8" class="edge"><title>Node3&#45;&gt;Node9</title>
<path fill="none" stroke="midnightblue" d="M1421.74,-265.158C1309.29,-262.414 990.74,-252.042 891.5,-221 835.045,-203.341 805.976,-205.286 776.5,-154 751.517,-110.53 794.348,-54.4132 819.372,-27.2122"/>
<polygon fill="midnightblue" stroke="midnightblue" points="822.118,-29.4037 826.472,-19.7448 817.045,-24.5804 822.118,-29.4037"/>
</g>
<!-- Node10 -->
<g id="node10" class="node"><title>Node10</title>
<g id="a_node10"><a xlink:href="adaptions__eigen_8h.html" target="_top" xlink:title="util/adaptions_eigen\l/adaptions_eigen.h">
<polygon fill="white" stroke="black" points="1224,-190.5 1224,-220.5 1337,-220.5 1337,-190.5 1224,-190.5"/>
<text text-anchor="start" x="1232" y="-208.5" font-family="Helvetica,sans-Serif" font-size="10.00">util/adaptions_eigen</text>
<text text-anchor="middle" x="1280.5" y="-197.5" font-family="Helvetica,sans-Serif" font-size="10.00">/adaptions_eigen.h</text>
</a>
</g>
</g>
<!-- Node3&#45;&gt;Node10 -->
<g id="edge9" class="edge"><title>Node3&#45;&gt;Node10</title>
<path fill="none" stroke="midnightblue" d="M1430.67,-257.475C1402.19,-248.739 1359.68,-234.907 1327.09,-223.855"/>
<polygon fill="midnightblue" stroke="midnightblue" points="1327.92,-220.44 1317.33,-220.523 1325.66,-227.065 1327.92,-220.44"/>
</g>
<!-- Node10&#45;&gt;Node3 -->
<g id="edge27" class="edge"><title>Node10&#45;&gt;Node3</title>
<path fill="none" stroke="midnightblue" d="M1328.99,-220.523C1361.38,-230.737 1402.91,-244.422 1430.84,-254.103"/>
<polygon fill="midnightblue" stroke="midnightblue" points="1429.87,-257.474 1440.47,-257.475 1432.19,-250.867 1429.87,-257.474"/>
</g>
<!-- Node10&#45;&gt;Node4 -->
<g id="edge29" class="edge"><title>Node10&#45;&gt;Node4</title>
<path fill="none" stroke="midnightblue" d="M1223.74,-195.619C1160.81,-185.717 1056.34,-169.105 966.5,-154 948.194,-150.922 928.254,-147.461 910.243,-144.294"/>
<polygon fill="midnightblue" stroke="midnightblue" points="910.631,-140.809 900.175,-142.52 909.415,-147.703 910.631,-140.809"/>
</g>
<!-- Node10&#45;&gt;Node7 -->
<g id="edge30" class="edge"><title>Node10&#45;&gt;Node7</title>
<path fill="none" stroke="midnightblue" d="M1337.2,-196.938C1396.91,-188.476 1493.45,-173.375 1575.5,-154 1585.64,-151.606 1596.51,-148.529 1606.44,-145.511"/>
<polygon fill="midnightblue" stroke="midnightblue" points="1607.49,-148.85 1616,-142.538 1605.41,-142.165 1607.49,-148.85"/>
</g>
<!-- Node10&#45;&gt;Node8 -->
<g id="edge33" class="edge"><title>Node10&#45;&gt;Node8</title>
<path fill="none" stroke="midnightblue" d="M1255.91,-190.295C1243.41,-181.585 1229.41,-169.189 1222.5,-154 1214.77,-137.011 1210.68,-126.449 1222.5,-112 1281.95,-39.3111 1586.48,-17.7068 1688.29,-12.4621"/>
<polygon fill="midnightblue" stroke="midnightblue" points="1688.51,-15.9559 1698.32,-11.9652 1688.16,-8.96449 1688.51,-15.9559"/>
</g>
<!-- Node11 -->
<g id="node11" class="node"><title>Node11</title>
<g id="a_node11"><a xlink:href="config_8h.html" target="_top" xlink:title="../../config.h">
<polygon fill="white" stroke="black" points="657.5,-123.5 657.5,-142.5 729.5,-142.5 729.5,-123.5 657.5,-123.5"/>
<text text-anchor="middle" x="693.5" y="-130.5" font-family="Helvetica,sans-Serif" font-size="10.00">../../config.h</text>
</a>
</g>
</g>
<!-- Node10&#45;&gt;Node11 -->
<g id="edge10" class="edge"><title>Node10&#45;&gt;Node11</title>
<path fill="none" stroke="midnightblue" d="M1223.85,-201.355C1130.23,-195.591 937.541,-181.339 776.5,-154 762.643,-151.648 747.663,-148.294 734.293,-145.003"/>
<polygon fill="midnightblue" stroke="midnightblue" points="734.981,-141.567 724.429,-142.517 733.27,-148.355 734.981,-141.567"/>
</g>
<!-- Node24 -->
<g id="node24" class="node"><title>Node24</title>
<g id="a_node24"><a xlink:href="transformation_8h.html" target="_top" xlink:title="transformation.h">
<polygon fill="white" stroke="black" points="1232,-123.5 1232,-142.5 1329,-142.5 1329,-123.5 1232,-123.5"/>
<text text-anchor="middle" x="1280.5" y="-130.5" font-family="Helvetica,sans-Serif" font-size="10.00">transformation.h</text>
</a>
</g>
</g>
<!-- Node10&#45;&gt;Node24 -->
<g id="edge28" class="edge"><title>Node10&#45;&gt;Node24</title>
<path fill="none" stroke="midnightblue" d="M1280.5,-190.233C1280.5,-179.501 1280.5,-164.687 1280.5,-152.959"/>
<polygon fill="midnightblue" stroke="midnightblue" points="1284,-152.893 1280.5,-142.893 1277,-152.893 1284,-152.893"/>
</g>
<!-- Node25 -->
<g id="node25" class="node"><title>Node25</title>
<polygon fill="white" stroke="#bfbfbf" points="1347.5,-123.5 1347.5,-142.5 1485.5,-142.5 1485.5,-123.5 1347.5,-123.5"/>
<text text-anchor="middle" x="1416.5" y="-130.5" font-family="Helvetica,sans-Serif" font-size="10.00">eigen3/Eigen/Eigenvalues</text>
</g>
<!-- Node10&#45;&gt;Node25 -->
<g id="edge31" class="edge"><title>Node10&#45;&gt;Node25</title>
<path fill="none" stroke="midnightblue" d="M1307.69,-190.403C1331.95,-177.83 1367.19,-159.56 1390.94,-147.251"/>
<polygon fill="midnightblue" stroke="midnightblue" points="1392.77,-150.243 1400.04,-142.534 1389.55,-144.029 1392.77,-150.243"/>
</g>
<!-- Node26 -->
<g id="node26" class="node"><title>Node26</title>
<polygon fill="white" stroke="#bfbfbf" points="1504,-123.5 1504,-142.5 1567,-142.5 1567,-123.5 1504,-123.5"/>
<text text-anchor="middle" x="1535.5" y="-130.5" font-family="Helvetica,sans-Serif" font-size="10.00">functional</text>
</g>
<!-- Node10&#45;&gt;Node26 -->
<g id="edge32" class="edge"><title>Node10&#45;&gt;Node26</title>
<path fill="none" stroke="midnightblue" d="M1337.36,-194.657C1381.06,-186.24 1442.55,-172.54 1494.5,-154 1499.91,-152.07 1505.54,-149.629 1510.84,-147.122"/>
<polygon fill="midnightblue" stroke="midnightblue" points="1512.49,-150.211 1519.89,-142.632 1509.38,-143.94 1512.49,-150.211"/>
</g>
<!-- Node27 -->
<g id="node27" class="node"><title>Node27</title>
<polygon fill="white" stroke="#bfbfbf" points="975.5,-123.5 975.5,-142.5 1017.5,-142.5 1017.5,-123.5 975.5,-123.5"/>
<text text-anchor="middle" x="996.5" y="-130.5" font-family="Helvetica,sans-Serif" font-size="10.00">limits</text>
</g>
<!-- Node10&#45;&gt;Node27 -->
<g id="edge34" class="edge"><title>Node10&#45;&gt;Node27</title>
<path fill="none" stroke="midnightblue" d="M1223.92,-199.644C1171.2,-193.652 1091.21,-180.761 1026.5,-154 1022.7,-152.43 1018.88,-150.351 1015.3,-148.126"/>
<polygon fill="midnightblue" stroke="midnightblue" points="1017.27,-145.231 1007.03,-142.506 1013.33,-151.021 1017.27,-145.231"/>
</g>
<!-- Node28 -->
<g id="node28" class="node"><title>Node28</title>
<polygon fill="white" stroke="#bfbfbf" points="1035.5,-112.5 1035.5,-153.5 1175.5,-153.5 1175.5,-112.5 1035.5,-112.5"/>
<text text-anchor="start" x="1043.5" y="-141.5" font-family="Helvetica,sans-Serif" font-size="10.00">eigen3/unsupported</text>
<text text-anchor="start" x="1043.5" y="-130.5" font-family="Helvetica,sans-Serif" font-size="10.00">/Eigen/src/MatrixFunctions</text>
<text text-anchor="middle" x="1105.5" y="-119.5" font-family="Helvetica,sans-Serif" font-size="10.00">/MatrixExponential.h</text>
</g>
<!-- Node10&#45;&gt;Node28 -->
<g id="edge35" class="edge"><title>Node10&#45;&gt;Node28</title>
<path fill="none" stroke="midnightblue" d="M1245.51,-190.403C1222.04,-180.949 1190.58,-168.275 1163.42,-157.335"/>
<polygon fill="midnightblue" stroke="midnightblue" points="1164.6,-154.037 1154.02,-153.546 1161.99,-160.53 1164.6,-154.037"/>
</g>
<!-- Node12 -->
<g id="node12" class="node"><title>Node12</title>
<g id="a_node12"><a xlink:href="flags_8h.html" target="_top" xlink:title="flags.h">
<polygon fill="white" stroke="black" points="706.5,-0.5 706.5,-19.5 754.5,-19.5 754.5,-0.5 706.5,-0.5"/>
<text text-anchor="middle" x="730.5" y="-7.5" font-family="Helvetica,sans-Serif" font-size="10.00">flags.h</text>
</a>
</g>
</g>
<!-- Node11&#45;&gt;Node12 -->
<g id="edge11" class="edge"><title>Node11&#45;&gt;Node12</title>
<path fill="none" stroke="midnightblue" d="M696.161,-123.298C702.161,-103.676 716.85,-55.6382 724.937,-29.1933"/>
<polygon fill="midnightblue" stroke="midnightblue" points="728.286,-30.2096 727.863,-19.6232 721.592,-28.1626 728.286,-30.2096"/>
</g>
<!-- Node13 -->
<g id="node13" class="node"><title>Node13</title>
<g id="a_node13"><a xlink:href="util_2convenienceOperators_8h.html" target="_top" xlink:title="util/convenienceOperators.h">
<polygon fill="white" stroke="black" points="872,-56.5 872,-75.5 1023,-75.5 1023,-56.5 872,-56.5"/>
<text text-anchor="middle" x="947.5" y="-63.5" font-family="Helvetica,sans-Serif" font-size="10.00">util/convenienceOperators.h</text>
</a>
</g>
</g>
<!-- Node11&#45;&gt;Node13 -->
<g id="edge12" class="edge"><title>Node11&#45;&gt;Node13</title>
<path fill="none" stroke="midnightblue" d="M726.967,-123.436C772.463,-111.793 853.895,-90.9539 904.058,-78.117"/>
<polygon fill="midnightblue" stroke="midnightblue" points="905.139,-81.4534 913.959,-75.5834 903.403,-74.6719 905.139,-81.4534"/>
</g>
<!-- Node17 -->
<g id="node17" class="node"><title>Node17</title>
<g id="a_node17"><a xlink:href="Logger_8h.html" target="_top" xlink:title="util/logging/Logger.h">
<polygon fill="white" stroke="black" points="303,-56.5 303,-75.5 416,-75.5 416,-56.5 303,-56.5"/>
<text text-anchor="middle" x="359.5" y="-63.5" font-family="Helvetica,sans-Serif" font-size="10.00">util/logging/Logger.h</text>
</a>
</g>
</g>
<!-- Node11&#45;&gt;Node17 -->
<g id="edge19" class="edge"><title>Node11&#45;&gt;Node17</title>
<path fill="none" stroke="midnightblue" d="M657.439,-124.982C598.716,-113.554 482.107,-90.8606 413.478,-77.5047"/>
<polygon fill="midnightblue" stroke="midnightblue" points="413.787,-73.9993 403.303,-75.5245 412.45,-80.8704 413.787,-73.9993"/>
</g>
<!-- Node13&#45;&gt;Node3 -->
<g id="edge13" class="edge"><title>Node13&#45;&gt;Node3</title>
<path fill="none" stroke="midnightblue" d="M946.681,-75.7463C945.568,-93.1171 945.71,-132.168 966.5,-154 1027.63,-218.195 1298.48,-250.669 1411.6,-261.628"/>
<polygon fill="midnightblue" stroke="midnightblue" points="1411.43,-265.128 1421.72,-262.591 1412.1,-258.159 1411.43,-265.128"/>
</g>
<!-- Node13&#45;&gt;Node8 -->
<g id="edge14" class="edge"><title>Node13&#45;&gt;Node8</title>
<path fill="none" stroke="midnightblue" d="M1023.12,-59.7239C1187.66,-48.2447 1572.63,-21.3861 1688.15,-13.3266"/>
<polygon fill="midnightblue" stroke="midnightblue" points="1688.74,-16.794 1698.47,-12.6064 1688.26,-9.81099 1688.74,-16.794"/>
</g>
<!-- Node13&#45;&gt;Node9 -->
<g id="edge16" class="edge"><title>Node13&#45;&gt;Node9</title>
<path fill="none" stroke="midnightblue" d="M929.505,-56.324C910.929,-47.3673 881.787,-33.317 860.875,-23.2341"/>
<polygon fill="midnightblue" stroke="midnightblue" points="862.16,-19.9686 851.633,-18.7782 859.12,-26.2739 862.16,-19.9686"/>
</g>
<!-- Node14 -->
<g id="node14" class="node"><title>Node14</title>
<polygon fill="white" stroke="#bfbfbf" points="1762.5,-0.5 1762.5,-19.5 1800.5,-19.5 1800.5,-0.5 1762.5,-0.5"/>
<text text-anchor="middle" x="1781.5" y="-7.5" font-family="Helvetica,sans-Serif" font-size="10.00">map</text>
</g>
<!-- Node13&#45;&gt;Node14 -->
<g id="edge15" class="edge"><title>Node13&#45;&gt;Node14</title>
<path fill="none" stroke="midnightblue" d="M1023.3,-63.2344C1192.37,-58.9054 1596.96,-46.2758 1752.51,-19.6297"/>
<polygon fill="midnightblue" stroke="midnightblue" points="1753.16,-23.0678 1762.39,-17.8542 1751.92,-16.1781 1753.16,-23.0678"/>
</g>
<!-- Node15 -->
<g id="node15" class="node"><title>Node15</title>
<polygon fill="white" stroke="#bfbfbf" points="958.5,-0.5 958.5,-19.5 1000.5,-19.5 1000.5,-0.5 958.5,-0.5"/>
<text text-anchor="middle" x="979.5" y="-7.5" font-family="Helvetica,sans-Serif" font-size="10.00">utility</text>
</g>
<!-- Node13&#45;&gt;Node15 -->
<g id="edge17" class="edge"><title>Node13&#45;&gt;Node15</title>
<path fill="none" stroke="midnightblue" d="M952.784,-56.083C957.211,-48.6127 963.663,-37.7244 969.118,-28.5199"/>
<polygon fill="midnightblue" stroke="midnightblue" points="972.227,-30.1383 974.314,-19.7511 966.205,-26.5697 972.227,-30.1383"/>
</g>
<!-- Node16 -->
<g id="node16" class="node"><title>Node16</title>
<polygon fill="white" stroke="#bfbfbf" points="893,-0.5 893,-19.5 940,-19.5 940,-0.5 893,-0.5"/>
<text text-anchor="middle" x="916.5" y="-7.5" font-family="Helvetica,sans-Serif" font-size="10.00">vector</text>
</g>
<!-- Node13&#45;&gt;Node16 -->
<g id="edge18" class="edge"><title>Node13&#45;&gt;Node16</title>
<path fill="none" stroke="midnightblue" d="M942.381,-56.083C938.092,-48.6127 931.842,-37.7244 926.558,-28.5199"/>
<polygon fill="midnightblue" stroke="midnightblue" points="929.538,-26.6811 921.524,-19.7511 923.467,-30.1662 929.538,-26.6811"/>
</g>
<!-- Node17&#45;&gt;Node12 -->
<g id="edge20" class="edge"><title>Node17&#45;&gt;Node12</title>
<path fill="none" stroke="midnightblue" d="M416.1,-59.8038C481.436,-53.2847 592.239,-40.6305 696.383,-19.9851"/>
<polygon fill="midnightblue" stroke="midnightblue" points="697.325,-23.3657 706.439,-17.9622 695.945,-16.5032 697.325,-23.3657"/>
</g>
<!-- Node18 -->
<g id="node18" class="node"><title>Node18</title>
<polygon fill="white" stroke="#bfbfbf" points="534.5,-0.5 534.5,-19.5 688.5,-19.5 688.5,-0.5 534.5,-0.5"/>
<text text-anchor="middle" x="611.5" y="-7.5" font-family="Helvetica,sans-Serif" font-size="10.00">carl/io/streamingOperators.h</text>
</g>
<!-- Node17&#45;&gt;Node18 -->
<g id="edge21" class="edge"><title>Node17&#45;&gt;Node18</title>
<path fill="none" stroke="midnightblue" d="M399.43,-56.4435C443.391,-47.0234 514.127,-31.8656 561.683,-21.6752"/>
<polygon fill="midnightblue" stroke="midnightblue" points="562.712,-25.0341 571.757,-19.5164 561.245,-18.1895 562.712,-25.0341"/>
</g>
<!-- Node19 -->
<g id="node19" class="node"><title>Node19</title>
<polygon fill="white" stroke="#bfbfbf" points="0,-0.5 0,-19.5 59,-19.5 59,-0.5 0,-0.5"/>
<text text-anchor="middle" x="29.5" y="-7.5" font-family="Helvetica,sans-Serif" font-size="10.00">iostream</text>
</g>
<!-- Node17&#45;&gt;Node19 -->
<g id="edge22" class="edge"><title>Node17&#45;&gt;Node19</title>
<path fill="none" stroke="midnightblue" d="M302.958,-57.5091C246.35,-49.7274 156.545,-36.6196 69.3325,-20.0377"/>
<polygon fill="midnightblue" stroke="midnightblue" points="69.7432,-16.5527 59.2627,-18.1051 68.4238,-23.4272 69.7432,-16.5527"/>
</g>
<!-- Node20 -->
<g id="node20" class="node"><title>Node20</title>
<polygon fill="white" stroke="#bfbfbf" points="77.5,-0.5 77.5,-19.5 133.5,-19.5 133.5,-0.5 77.5,-0.5"/>
<text text-anchor="middle" x="105.5" y="-7.5" font-family="Helvetica,sans-Serif" font-size="10.00">sstream</text>
</g>
<!-- Node17&#45;&gt;Node20 -->
<g id="edge23" class="edge"><title>Node17&#45;&gt;Node20</title>
<path fill="none" stroke="midnightblue" d="M316.176,-56.4684C274.449,-48.1503 209.306,-34.9003 143.84,-20.2462"/>
<polygon fill="midnightblue" stroke="midnightblue" points="144.283,-16.7584 133.758,-17.9788 142.747,-23.5878 144.283,-16.7584"/>
</g>
<!-- Node21 -->
<g id="node21" class="node"><title>Node21</title>
<polygon fill="white" stroke="#bfbfbf" points="151.5,-0.5 151.5,-19.5 199.5,-19.5 199.5,-0.5 151.5,-0.5"/>
<text text-anchor="middle" x="175.5" y="-7.5" font-family="Helvetica,sans-Serif" font-size="10.00">thread</text>
</g>
<!-- Node17&#45;&gt;Node21 -->
<g id="edge24" class="edge"><title>Node17&#45;&gt;Node21</title>
<path fill="none" stroke="midnightblue" d="M330.345,-56.4435C297.419,-46.7805 243.921,-31.0801 209.223,-20.8969"/>
<polygon fill="midnightblue" stroke="midnightblue" points="210.116,-17.5114 199.535,-18.0537 208.145,-24.2282 210.116,-17.5114"/>
</g>
<!-- Node22 -->
<g id="node22" class="node"><title>Node22</title>
<polygon fill="white" stroke="#bfbfbf" points="218,-0.5 218,-19.5 343,-19.5 343,-0.5 218,-0.5"/>
<text text-anchor="middle" x="280.5" y="-7.5" font-family="Helvetica,sans-Serif" font-size="10.00">carl/core/carlLogging.h</text>
</g>
<!-- Node17&#45;&gt;Node22 -->
<g id="edge25" class="edge"><title>Node17&#45;&gt;Node22</title>
<path fill="none" stroke="midnightblue" d="M346.807,-56.324C334.599,-47.979 315.922,-35.2122 301.497,-25.3524"/>
<polygon fill="midnightblue" stroke="midnightblue" points="303.392,-22.4082 293.161,-19.6545 299.442,-28.1871 303.392,-22.4082"/>
</g>
<!-- Node23 -->
<g id="node23" class="node"><title>Node23</title>
<polygon fill="white" stroke="#bfbfbf" points="361,-0.5 361,-19.5 516,-19.5 516,-0.5 361,-0.5"/>
<text text-anchor="middle" x="438.5" y="-7.5" font-family="Helvetica,sans-Serif" font-size="10.00">carl/core/carlLoggingHelper.h</text>
</g>
<!-- Node17&#45;&gt;Node23 -->
<g id="edge26" class="edge"><title>Node17&#45;&gt;Node23</title>
<path fill="none" stroke="midnightblue" d="M372.193,-56.324C384.401,-47.979 403.078,-35.2122 417.503,-25.3524"/>
<polygon fill="midnightblue" stroke="midnightblue" points="419.558,-28.1871 425.839,-19.6545 415.608,-22.4082 419.558,-28.1871"/>
</g>
<!-- Node29&#45;&gt;Node3 -->
<g id="edge37" class="edge"><title>Node29&#45;&gt;Node3</title>
<path fill="none" stroke="midnightblue" d="M1721.87,-317.16C1674.46,-308.21 1572.35,-288.929 1511.03,-277.352"/>
<polygon fill="midnightblue" stroke="midnightblue" points="1511.66,-273.91 1501.19,-275.494 1510.36,-280.788 1511.66,-273.91"/>
</g>
<!-- Node29&#45;&gt;Node8 -->
<g id="edge38" class="edge"><title>Node29&#45;&gt;Node8</title>
<path fill="none" stroke="midnightblue" d="M1749.53,-313.363C1753.83,-294.232 1763.5,-246.785 1763.5,-206.5 1763.5,-206.5 1763.5,-206.5 1763.5,-132 1763.5,-93.4536 1744.24,-51.6291 1731.81,-28.6402"/>
<polygon fill="midnightblue" stroke="midnightblue" points="1734.76,-26.7546 1726.82,-19.7435 1728.66,-30.1778 1734.76,-26.7546"/>
</g>
<!-- Node30&#45;&gt;Node8 -->
<g id="edge44" class="edge"><title>Node30&#45;&gt;Node8</title>
<path fill="none" stroke="midnightblue" d="M1846.05,-56.4435C1821.37,-47.4381 1782.31,-33.1891 1754.52,-23.049"/>
<polygon fill="midnightblue" stroke="midnightblue" points="1755.44,-19.6561 1744.84,-19.5164 1753.04,-26.2321 1755.44,-19.6561"/>
</g>
<!-- Node30&#45;&gt;Node14 -->
<g id="edge45" class="edge"><title>Node30&#45;&gt;Node14</title>
<path fill="none" stroke="midnightblue" d="M1855.36,-56.324C1841.63,-47.9002 1820.56,-34.9709 1804.44,-25.0741"/>
<polygon fill="midnightblue" stroke="midnightblue" points="1805.96,-21.9016 1795.6,-19.6545 1802.3,-27.8678 1805.96,-21.9016"/>
</g>
<!-- Node31 -->
<g id="node31" class="node"><title>Node31</title>
<polygon fill="white" stroke="#bfbfbf" points="1818.5,-0.5 1818.5,-19.5 1926.5,-19.5 1926.5,-0.5 1818.5,-0.5"/>
<text text-anchor="middle" x="1872.5" y="-7.5" font-family="Helvetica,sans-Serif" font-size="10.00">carl/core/Variable.h</text>
</g>
<!-- Node30&#45;&gt;Node31 -->
<g id="edge42" class="edge"><title>Node30&#45;&gt;Node31</title>
<path fill="none" stroke="midnightblue" d="M1870,-56.083C1870.39,-49.0059 1870.95,-38.8611 1871.45,-29.9865"/>
<polygon fill="midnightblue" stroke="midnightblue" points="1874.95,-29.9299 1872.01,-19.7511 1867.96,-29.5415 1874.95,-29.9299"/>
</g>
<!-- Node32 -->
<g id="node32" class="node"><title>Node32</title>
<polygon fill="white" stroke="#bfbfbf" points="1945,-0.5 1945,-19.5 2064,-19.5 2064,-0.5 1945,-0.5"/>
<text text-anchor="middle" x="2004.5" y="-7.5" font-family="Helvetica,sans-Serif" font-size="10.00">carl/interval/Interval.h</text>
</g>
<!-- Node30&#45;&gt;Node32 -->
<g id="edge43" class="edge"><title>Node30&#45;&gt;Node32</title>
<path fill="none" stroke="midnightblue" d="M1890.89,-56.4435C1913.21,-47.5171 1948.4,-33.4387 1973.71,-23.3168"/>
<polygon fill="midnightblue" stroke="midnightblue" points="1975.22,-26.4801 1983.21,-19.5164 1972.62,-19.9807 1975.22,-26.4801"/>
</g>
</g>
</svg>
