<?xml version="1.0" encoding="UTF-8" standalone="no"?>
<!DOCTYPE svg PUBLIC "-//W3C//DTD SVG 1.1//EN"
 "http://www.w3.org/Graphics/SVG/1.1/DTD/svg11.dtd">
<!-- Generated by graphviz version 2.38.0 (20140413.2041)
 -->
<!-- Title: /home/travis/build/hypro/hypro/src/hypro/datastructures/HybridAutomaton/decomposition/DecisionEntity.h Pages: 1 -->
<svg width="1330pt" height="1162pt"
 viewBox="0.00 0.00 1330.00 1162.00" xmlns="http://www.w3.org/2000/svg" xmlns:xlink="http://www.w3.org/1999/xlink">
<g id="graph0" class="graph" transform="scale(1 1) rotate(0) translate(4 1158)">
<title>/home/travis/build/hypro/hypro/src/hypro/datastructures/HybridAutomaton/decomposition/DecisionEntity.h</title>
<polygon fill="white" stroke="none" points="-4,4 -4,-1158 1326,-1158 1326,4 -4,4"/>
<!-- Node1 -->
<g id="node1" class="node"><title>Node1</title>
<polygon fill="#bfbfbf" stroke="black" points="782,-1101.5 782,-1153.5 960,-1153.5 960,-1101.5 782,-1101.5"/>
<text text-anchor="start" x="790" y="-1141.5" font-family="Helvetica,sans-Serif" font-size="10.00">/home/travis/build</text>
<text text-anchor="start" x="790" y="-1130.5" font-family="Helvetica,sans-Serif" font-size="10.00">/hypro/hypro/src/hypro</text>
<text text-anchor="start" x="790" y="-1119.5" font-family="Helvetica,sans-Serif" font-size="10.00">/datastructures/HybridAutomaton</text>
<text text-anchor="middle" x="871" y="-1108.5" font-family="Helvetica,sans-Serif" font-size="10.00">/decomposition/DecisionEntity.h</text>
</g>
<!-- Node2 -->
<g id="node2" class="node"><title>Node2</title>
<g id="a_node2"><a xlink:href="SettingsProvider_8h.html" target="_top" xlink:title="/home/travis/build\l/hypro/hypro/src/hypro\l/datastructures/reachability\l/SettingsProvider.h">
<polygon fill="white" stroke="black" points="498,-1012.5 498,-1064.5 646,-1064.5 646,-1012.5 498,-1012.5"/>
<text text-anchor="start" x="506" y="-1052.5" font-family="Helvetica,sans-Serif" font-size="10.00">/home/travis/build</text>
<text text-anchor="start" x="506" y="-1041.5" font-family="Helvetica,sans-Serif" font-size="10.00">/hypro/hypro/src/hypro</text>
<text text-anchor="start" x="506" y="-1030.5" font-family="Helvetica,sans-Serif" font-size="10.00">/datastructures/reachability</text>
<text text-anchor="middle" x="572" y="-1019.5" font-family="Helvetica,sans-Serif" font-size="10.00">/SettingsProvider.h</text>
</a>
</g>
</g>
<!-- Node1&#45;&gt;Node2 -->
<g id="edge1" class="edge"><title>Node1&#45;&gt;Node2</title>
<path fill="none" stroke="midnightblue" d="M775.285,-1098.65C733.531,-1086.5 685.317,-1072.47 646.326,-1061.13"/>
<polygon fill="midnightblue" stroke="midnightblue" points="774.338,-1102.02 784.918,-1101.45 776.294,-1095.3 774.338,-1102.02"/>
</g>
<!-- Node6 -->
<g id="node6" class="node"><title>Node6</title>
<g id="a_node6"><a xlink:href="ContextBasedReachabilityWorker_8h.html" target="_top" xlink:title="/home/travis/build\l/hypro/hypro/src/hypro\l/algorithms/reachability\l/workers/ContextBasedReachability\lWorker.h">
<polygon fill="white" stroke="black" points="753.5,-78.5 753.5,-141.5 936.5,-141.5 936.5,-78.5 753.5,-78.5"/>
<text text-anchor="start" x="761.5" y="-129.5" font-family="Helvetica,sans-Serif" font-size="10.00">/home/travis/build</text>
<text text-anchor="start" x="761.5" y="-118.5" font-family="Helvetica,sans-Serif" font-size="10.00">/hypro/hypro/src/hypro</text>
<text text-anchor="start" x="761.5" y="-107.5" font-family="Helvetica,sans-Serif" font-size="10.00">/algorithms/reachability</text>
<text text-anchor="start" x="761.5" y="-96.5" font-family="Helvetica,sans-Serif" font-size="10.00">/workers/ContextBasedReachability</text>
<text text-anchor="middle" x="845" y="-85.5" font-family="Helvetica,sans-Serif" font-size="10.00">Worker.h</text>
</a>
</g>
</g>
<!-- Node1&#45;&gt;Node6 -->
<g id="edge58" class="edge"><title>Node1&#45;&gt;Node6</title>
<path fill="none" stroke="midnightblue" d="M970.242,-1124.56C1092.44,-1116.29 1284,-1081.55 1284,-945 1284,-945 1284,-945 1284,-843 1284,-626.457 1122,-600.043 1122,-383.5 1122,-383.5 1122,-383.5 1122,-292.5 1122,-202.09 1017.48,-154.268 936.852,-130.827"/>
<polygon fill="midnightblue" stroke="midnightblue" points="969.867,-1121.08 960.106,-1125.2 970.306,-1128.06 969.867,-1121.08"/>
</g>
<!-- Node10 -->
<g id="node10" class="node"><title>Node10</title>
<g id="a_node10"><a xlink:href="LTIContext_8h.html" target="_top" xlink:title="/home/travis/build\l/hypro/hypro/src/hypro\l/algorithms/reachability\l/contexts/LTIContext.h">
<polygon fill="white" stroke="black" points="294,-356.5 294,-408.5 422,-408.5 422,-356.5 294,-356.5"/>
<text text-anchor="start" x="302" y="-396.5" font-family="Helvetica,sans-Serif" font-size="10.00">/home/travis/build</text>
<text text-anchor="start" x="302" y="-385.5" font-family="Helvetica,sans-Serif" font-size="10.00">/hypro/hypro/src/hypro</text>
<text text-anchor="start" x="302" y="-374.5" font-family="Helvetica,sans-Serif" font-size="10.00">/algorithms/reachability</text>
<text text-anchor="middle" x="358" y="-363.5" font-family="Helvetica,sans-Serif" font-size="10.00">/contexts/LTIContext.h</text>
</a>
</g>
</g>
<!-- Node1&#45;&gt;Node10 -->
<g id="edge56" class="edge"><title>Node1&#45;&gt;Node10</title>
<path fill="none" stroke="midnightblue" d="M771.571,-1126.51C543.071,-1123.85 0,-1101.12 0,-945 0,-945 0,-945 0,-559.5 0,-429.988 191.023,-395.774 293.997,-386.739"/>
<polygon fill="midnightblue" stroke="midnightblue" points="771.845,-1130.01 781.881,-1126.62 771.918,-1123.01 771.845,-1130.01"/>
</g>
<!-- Node11 -->
<g id="node11" class="node"><title>Node11</title>
<g id="a_node11"><a xlink:href="TimedContext_8h.html" target="_top" xlink:title="/home/travis/build\l/hypro/hypro/src/hypro\l/algorithms/reachability\l/contexts/TimedContext.h">
<polygon fill="white" stroke="black" points="670,-267.5 670,-319.5 810,-319.5 810,-267.5 670,-267.5"/>
<text text-anchor="start" x="678" y="-307.5" font-family="Helvetica,sans-Serif" font-size="10.00">/home/travis/build</text>
<text text-anchor="start" x="678" y="-296.5" font-family="Helvetica,sans-Serif" font-size="10.00">/hypro/hypro/src/hypro</text>
<text text-anchor="start" x="678" y="-285.5" font-family="Helvetica,sans-Serif" font-size="10.00">/algorithms/reachability</text>
<text text-anchor="middle" x="740" y="-274.5" font-family="Helvetica,sans-Serif" font-size="10.00">/contexts/TimedContext.h</text>
</a>
</g>
</g>
<!-- Node1&#45;&gt;Node11 -->
<g id="edge57" class="edge"><title>Node1&#45;&gt;Node11</title>
<path fill="none" stroke="midnightblue" d="M970.244,-1108.92C1057.27,-1087.12 1170,-1040.45 1170,-945 1170,-945 1170,-945 1170,-843 1170,-654.585 1155.84,-579.606 1024,-445 979.997,-400.073 968.884,-386.7 914,-356 881.564,-337.856 842.797,-323.528 810.096,-313.283"/>
<polygon fill="midnightblue" stroke="midnightblue" points="969.198,-1105.57 960.305,-1111.33 970.848,-1112.37 969.198,-1105.57"/>
</g>
<!-- Node3 -->
<g id="node3" class="node"><title>Node3</title>
<g id="a_node3"><a xlink:href="ReachTreeNode_8h.html" target="_top" xlink:title="/home/travis/build\l/hypro/hypro/src/hypro\l/datastructures/reachability\l/ReachTreeNode.h">
<polygon fill="white" stroke="black" points="714,-918 714,-970 862,-970 862,-918 714,-918"/>
<text text-anchor="start" x="722" y="-958" font-family="Helvetica,sans-Serif" font-size="10.00">/home/travis/build</text>
<text text-anchor="start" x="722" y="-947" font-family="Helvetica,sans-Serif" font-size="10.00">/hypro/hypro/src/hypro</text>
<text text-anchor="start" x="722" y="-936" font-family="Helvetica,sans-Serif" font-size="10.00">/datastructures/reachability</text>
<text text-anchor="middle" x="788" y="-925" font-family="Helvetica,sans-Serif" font-size="10.00">/ReachTreeNode.h</text>
</a>
</g>
</g>
<!-- Node2&#45;&gt;Node3 -->
<g id="edge2" class="edge"><title>Node2&#45;&gt;Node3</title>
<path fill="none" stroke="midnightblue" d="M640.015,-1008.37C668.749,-996.068 701.881,-981.88 729.501,-970.052"/>
<polygon fill="midnightblue" stroke="midnightblue" points="638.267,-1005.31 630.453,-1012.47 641.023,-1011.75 638.267,-1005.31"/>
</g>
<!-- Node7 -->
<g id="node7" class="node"><title>Node7</title>
<g id="a_node7"><a xlink:href="example__rectangularReachability_8cpp.html" target="_top" xlink:title="/home/travis/build\l/hypro/hypro/examples\l/example_rectangularReachability.cpp">
<polygon fill="white" stroke="black" points="352,-0.5 352,-41.5 548,-41.5 548,-0.5 352,-0.5"/>
<text text-anchor="start" x="360" y="-29.5" font-family="Helvetica,sans-Serif" font-size="10.00">/home/travis/build</text>
<text text-anchor="start" x="360" y="-18.5" font-family="Helvetica,sans-Serif" font-size="10.00">/hypro/hypro/examples</text>
<text text-anchor="middle" x="450" y="-7.5" font-family="Helvetica,sans-Serif" font-size="10.00">/example_rectangularReachability.cpp</text>
</a>
</g>
</g>
<!-- Node2&#45;&gt;Node7 -->
<g id="edge54" class="edge"><title>Node2&#45;&gt;Node7</title>
<path fill="none" stroke="midnightblue" d="M487.888,-1032.62C351.82,-1023.94 95.4863,-1004.07 65,-976 21.2667,-935.736 38,-904.446 38,-845 38,-845 38,-845 38,-203.5 38,-66.9138 229.978,-32.2269 351.839,-23.9674"/>
<polygon fill="midnightblue" stroke="midnightblue" points="487.671,-1036.11 497.872,-1033.25 488.113,-1029.12 487.671,-1036.11"/>
</g>
<!-- Node8 -->
<g id="node8" class="node"><title>Node8</title>
<g id="a_node8"><a xlink:href="example__worker_8cpp.html" target="_top" xlink:title="/home/travis/build\l/hypro/hypro/examples\l/example_worker.cpp">
<polygon fill="white" stroke="black" points="1097,-0.5 1097,-41.5 1223,-41.5 1223,-0.5 1097,-0.5"/>
<text text-anchor="start" x="1105" y="-29.5" font-family="Helvetica,sans-Serif" font-size="10.00">/home/travis/build</text>
<text text-anchor="start" x="1105" y="-18.5" font-family="Helvetica,sans-Serif" font-size="10.00">/hypro/hypro/examples</text>
<text text-anchor="middle" x="1160" y="-7.5" font-family="Helvetica,sans-Serif" font-size="10.00">/example_worker.cpp</text>
</a>
</g>
</g>
<!-- Node2&#45;&gt;Node8 -->
<g id="edge55" class="edge"><title>Node2&#45;&gt;Node8</title>
<path fill="none" stroke="midnightblue" d="M656.279,-1032.76C852.246,-1016.73 1322,-947.355 1322,-650.5 1322,-650.5 1322,-650.5 1322,-203.5 1322,-139.848 1297.12,-123.885 1253,-78 1238.76,-63.1911 1219.79,-50.8406 1202.69,-41.5399"/>
<polygon fill="midnightblue" stroke="midnightblue" points="656.003,-1029.27 646.31,-1033.55 656.555,-1036.25 656.003,-1029.27"/>
</g>
<!-- Node2&#45;&gt;Node10 -->
<g id="edge36" class="edge"><title>Node2&#45;&gt;Node10</title>
<path fill="none" stroke="midnightblue" d="M487.681,-1038.34C369.129,-1037.57 162.028,-1028.5 112,-976 30.8848,-890.885 57.4535,-823.42 95,-712 140.143,-578.036 267.301,-458.908 326.699,-408.725"/>
<polygon fill="midnightblue" stroke="midnightblue" points="487.799,-1041.84 497.815,-1038.38 487.831,-1034.84 487.799,-1041.84"/>
</g>
<!-- Node2&#45;&gt;Node11 -->
<g id="edge53" class="edge"><title>Node2&#45;&gt;Node11</title>
<path fill="none" stroke="midnightblue" d="M656.035,-1036.68C719.743,-1032.38 806.961,-1018.24 871,-976 945.1,-927.122 912.689,-863.488 985,-812 1033.14,-777.723 1077.32,-823.106 1113,-776 1153.48,-722.564 1107.89,-597.958 1064,-534 993.846,-431.771 865.515,-356.29 793.2,-319.526"/>
<polygon fill="midnightblue" stroke="midnightblue" points="655.788,-1033.19 646.019,-1037.29 656.213,-1040.18 655.788,-1033.19"/>
</g>
<!-- Node18 -->
<g id="node18" class="node"><title>Node18</title>
<g id="a_node18"><a xlink:href="EventTimingProvider_8h.html" target="_top" xlink:title="/home/travis/build\l/hypro/hypro/src/hypro\l/datastructures/reachability\l/timing/EventTimingProvider.h">
<polygon fill="white" stroke="black" points="493,-818 493,-870 651,-870 651,-818 493,-818"/>
<text text-anchor="start" x="501" y="-858" font-family="Helvetica,sans-Serif" font-size="10.00">/home/travis/build</text>
<text text-anchor="start" x="501" y="-847" font-family="Helvetica,sans-Serif" font-size="10.00">/hypro/hypro/src/hypro</text>
<text text-anchor="start" x="501" y="-836" font-family="Helvetica,sans-Serif" font-size="10.00">/datastructures/reachability</text>
<text text-anchor="middle" x="572" y="-825" font-family="Helvetica,sans-Serif" font-size="10.00">/timing/EventTimingProvider.h</text>
</a>
</g>
</g>
<!-- Node2&#45;&gt;Node18 -->
<g id="edge37" class="edge"><title>Node2&#45;&gt;Node18</title>
<path fill="none" stroke="midnightblue" d="M572,-1002.17C572,-963.922 572,-903.897 572,-870.172"/>
<polygon fill="midnightblue" stroke="midnightblue" points="568.5,-1002.33 572,-1012.33 575.5,-1002.33 568.5,-1002.33"/>
</g>
<!-- Node20 -->
<g id="node20" class="node"><title>Node20</title>
<g id="a_node20"><a xlink:href="ltiGuardHandler_8h.html" target="_top" xlink:title="/home/travis/build\l/hypro/hypro/src/hypro\l/algorithms/reachability\l/handlers/guardHandlers\l/ltiGuardHandler.h">
<polygon fill="white" stroke="black" points="306,-912.5 306,-975.5 440,-975.5 440,-912.5 306,-912.5"/>
<text text-anchor="start" x="314" y="-963.5" font-family="Helvetica,sans-Serif" font-size="10.00">/home/travis/build</text>
<text text-anchor="start" x="314" y="-952.5" font-family="Helvetica,sans-Serif" font-size="10.00">/hypro/hypro/src/hypro</text>
<text text-anchor="start" x="314" y="-941.5" font-family="Helvetica,sans-Serif" font-size="10.00">/algorithms/reachability</text>
<text text-anchor="start" x="314" y="-930.5" font-family="Helvetica,sans-Serif" font-size="10.00">/handlers/guardHandlers</text>
<text text-anchor="middle" x="373" y="-919.5" font-family="Helvetica,sans-Serif" font-size="10.00">/ltiGuardHandler.h</text>
</a>
</g>
</g>
<!-- Node2&#45;&gt;Node20 -->
<g id="edge43" class="edge"><title>Node2&#45;&gt;Node20</title>
<path fill="none" stroke="midnightblue" d="M508.793,-1008.12C486.528,-997.771 461.453,-986.115 438.966,-975.663"/>
<polygon fill="midnightblue" stroke="midnightblue" points="507.604,-1011.43 518.148,-1012.47 510.555,-1005.08 507.604,-1011.43"/>
</g>
<!-- Node24 -->
<g id="node24" class="node"><title>Node24</title>
<g id="a_node24"><a xlink:href="rectangularGuardHandler_8h.html" target="_top" xlink:title="/home/travis/build\l/hypro/hypro/src/hypro\l/algorithms/reachability\l/handlers/guardHandlers\l/rectangularGuardHandler.h">
<polygon fill="white" stroke="black" points="121.5,-912.5 121.5,-975.5 270.5,-975.5 270.5,-912.5 121.5,-912.5"/>
<text text-anchor="start" x="129.5" y="-963.5" font-family="Helvetica,sans-Serif" font-size="10.00">/home/travis/build</text>
<text text-anchor="start" x="129.5" y="-952.5" font-family="Helvetica,sans-Serif" font-size="10.00">/hypro/hypro/src/hypro</text>
<text text-anchor="start" x="129.5" y="-941.5" font-family="Helvetica,sans-Serif" font-size="10.00">/algorithms/reachability</text>
<text text-anchor="start" x="129.5" y="-930.5" font-family="Helvetica,sans-Serif" font-size="10.00">/handlers/guardHandlers</text>
<text text-anchor="middle" x="196" y="-919.5" font-family="Helvetica,sans-Serif" font-size="10.00">/rectangularGuardHandler.h</text>
</a>
</g>
</g>
<!-- Node2&#45;&gt;Node24 -->
<g id="edge51" class="edge"><title>Node2&#45;&gt;Node24</title>
<path fill="none" stroke="midnightblue" d="M487.809,-1020.45C433.164,-1008.94 360.553,-992.832 297,-976 288.401,-973.722 279.434,-971.195 270.549,-968.595"/>
<polygon fill="midnightblue" stroke="midnightblue" points="487.292,-1023.91 497.797,-1022.54 488.728,-1017.06 487.292,-1023.91"/>
</g>
<!-- Node4 -->
<g id="node4" class="node"><title>Node4</title>
<g id="a_node4"><a xlink:href="Task_8h.html" target="_top" xlink:title="/home/travis/build\l/hypro/hypro/src/hypro\l/datastructures/reachability\l/Task.h">
<polygon fill="white" stroke="black" points="370,-718 370,-770 518,-770 518,-718 370,-718"/>
<text text-anchor="start" x="378" y="-758" font-family="Helvetica,sans-Serif" font-size="10.00">/home/travis/build</text>
<text text-anchor="start" x="378" y="-747" font-family="Helvetica,sans-Serif" font-size="10.00">/hypro/hypro/src/hypro</text>
<text text-anchor="start" x="378" y="-736" font-family="Helvetica,sans-Serif" font-size="10.00">/datastructures/reachability</text>
<text text-anchor="middle" x="444" y="-725" font-family="Helvetica,sans-Serif" font-size="10.00">/Task.h</text>
</a>
</g>
</g>
<!-- Node3&#45;&gt;Node4 -->
<g id="edge3" class="edge"><title>Node3&#45;&gt;Node4</title>
<path fill="none" stroke="midnightblue" d="M763.975,-909.791C740.656,-879.921 702.615,-837.007 660,-812 607.184,-781.007 585.302,-794.734 527,-776 521.289,-774.165 515.391,-772.169 509.497,-770.105"/>
<polygon fill="midnightblue" stroke="midnightblue" points="761.29,-912.04 770.154,-917.844 766.844,-907.779 761.29,-912.04"/>
</g>
<!-- Node12 -->
<g id="node12" class="node"><title>Node12</title>
<g id="a_node12"><a xlink:href="ltiJumpHandler_8h.html" target="_top" xlink:title="/home/travis/build\l/hypro/hypro/src/hypro\l/algorithms/reachability\l/handlers/jumpHandlers/ltiJumpHandler.h">
<polygon fill="white" stroke="black" points="846,-623.5 846,-675.5 1058,-675.5 1058,-623.5 846,-623.5"/>
<text text-anchor="start" x="854" y="-663.5" font-family="Helvetica,sans-Serif" font-size="10.00">/home/travis/build</text>
<text text-anchor="start" x="854" y="-652.5" font-family="Helvetica,sans-Serif" font-size="10.00">/hypro/hypro/src/hypro</text>
<text text-anchor="start" x="854" y="-641.5" font-family="Helvetica,sans-Serif" font-size="10.00">/algorithms/reachability</text>
<text text-anchor="middle" x="952" y="-630.5" font-family="Helvetica,sans-Serif" font-size="10.00">/handlers/jumpHandlers/ltiJumpHandler.h</text>
</a>
</g>
</g>
<!-- Node3&#45;&gt;Node12 -->
<g id="edge33" class="edge"><title>Node3&#45;&gt;Node12</title>
<path fill="none" stroke="midnightblue" d="M772.836,-908.505C754.008,-859.827 729.154,-770.414 771,-712 780.954,-698.106 812.198,-685.436 845.99,-675.255"/>
<polygon fill="midnightblue" stroke="midnightblue" points="769.655,-909.976 776.618,-917.962 776.155,-907.377 769.655,-909.976"/>
</g>
<!-- Node15 -->
<g id="node15" class="node"><title>Node15</title>
<g id="a_node15"><a xlink:href="ReachTree_8h.html" target="_top" xlink:title="/home/travis/build\l/hypro/hypro/src/hypro\l/datastructures/reachability\l/ReachTree.h">
<polygon fill="white" stroke="black" points="994,-818 994,-870 1142,-870 1142,-818 994,-818"/>
<text text-anchor="start" x="1002" y="-858" font-family="Helvetica,sans-Serif" font-size="10.00">/home/travis/build</text>
<text text-anchor="start" x="1002" y="-847" font-family="Helvetica,sans-Serif" font-size="10.00">/hypro/hypro/src/hypro</text>
<text text-anchor="start" x="1002" y="-836" font-family="Helvetica,sans-Serif" font-size="10.00">/datastructures/reachability</text>
<text text-anchor="middle" x="1068" y="-825" font-family="Helvetica,sans-Serif" font-size="10.00">/ReachTree.h</text>
</a>
</g>
</g>
<!-- Node3&#45;&gt;Node15 -->
<g id="edge27" class="edge"><title>Node3&#45;&gt;Node15</title>
<path fill="none" stroke="midnightblue" d="M869.258,-914.56C909.487,-900.48 957.622,-883.632 996.443,-870.045"/>
<polygon fill="midnightblue" stroke="midnightblue" points="868.026,-911.283 859.743,-917.89 870.338,-917.89 868.026,-911.283"/>
</g>
<!-- Node16 -->
<g id="node16" class="node"><title>Node16</title>
<g id="a_node16"><a xlink:href="NodeManager_8h.html" target="_top" xlink:title="/home/travis/build\l/hypro/hypro/src/hypro\l/datastructures/reachability\l/NodeManager.h">
<polygon fill="white" stroke="black" points="956,-718 956,-770 1104,-770 1104,-718 956,-718"/>
<text text-anchor="start" x="964" y="-758" font-family="Helvetica,sans-Serif" font-size="10.00">/home/travis/build</text>
<text text-anchor="start" x="964" y="-747" font-family="Helvetica,sans-Serif" font-size="10.00">/hypro/hypro/src/hypro</text>
<text text-anchor="start" x="964" y="-736" font-family="Helvetica,sans-Serif" font-size="10.00">/datastructures/reachability</text>
<text text-anchor="middle" x="1030" y="-725" font-family="Helvetica,sans-Serif" font-size="10.00">/NodeManager.h</text>
</a>
</g>
</g>
<!-- Node3&#45;&gt;Node16 -->
<g id="edge32" class="edge"><title>Node3&#45;&gt;Node16</title>
<path fill="none" stroke="midnightblue" d="M826.622,-911.4C874.535,-872.198 955.26,-806.151 999.218,-770.185"/>
<polygon fill="midnightblue" stroke="midnightblue" points="824.173,-908.882 818.649,-917.923 828.605,-914.3 824.173,-908.882"/>
</g>
<!-- Node17 -->
<g id="node17" class="node"><title>Node17</title>
<g id="a_node17"><a xlink:href="algorithms_2reachability_2handlers_2jumpHandlers_2util_8h.html" target="_top" xlink:title="/home/travis/build\l/hypro/hypro/src/hypro\l/algorithms/reachability\l/handlers/jumpHandlers/util.h">
<polygon fill="white" stroke="black" points="780.5,-718 780.5,-770 937.5,-770 937.5,-718 780.5,-718"/>
<text text-anchor="start" x="788.5" y="-758" font-family="Helvetica,sans-Serif" font-size="10.00">/home/travis/build</text>
<text text-anchor="start" x="788.5" y="-747" font-family="Helvetica,sans-Serif" font-size="10.00">/hypro/hypro/src/hypro</text>
<text text-anchor="start" x="788.5" y="-736" font-family="Helvetica,sans-Serif" font-size="10.00">/algorithms/reachability</text>
<text text-anchor="middle" x="859" y="-725" font-family="Helvetica,sans-Serif" font-size="10.00">/handlers/jumpHandlers/util.h</text>
</a>
</g>
</g>
<!-- Node3&#45;&gt;Node17 -->
<g id="edge34" class="edge"><title>Node3&#45;&gt;Node17</title>
<path fill="none" stroke="midnightblue" d="M800.394,-908.436C814.556,-868.942 837.392,-805.259 849.969,-770.185"/>
<polygon fill="midnightblue" stroke="midnightblue" points="797.073,-907.329 796.992,-917.923 803.662,-909.691 797.073,-907.329"/>
</g>
<!-- Node5 -->
<g id="node5" class="node"><title>Node5</title>
<g id="a_node5"><a xlink:href="ContextFactory_8h.html" target="_top" xlink:title="/home/travis/build\l/hypro/hypro/src/hypro\l/algorithms/reachability\l/contexts/ContextFactory.h">
<polygon fill="white" stroke="black" points="478.5,-178.5 478.5,-230.5 621.5,-230.5 621.5,-178.5 478.5,-178.5"/>
<text text-anchor="start" x="486.5" y="-218.5" font-family="Helvetica,sans-Serif" font-size="10.00">/home/travis/build</text>
<text text-anchor="start" x="486.5" y="-207.5" font-family="Helvetica,sans-Serif" font-size="10.00">/hypro/hypro/src/hypro</text>
<text text-anchor="start" x="486.5" y="-196.5" font-family="Helvetica,sans-Serif" font-size="10.00">/algorithms/reachability</text>
<text text-anchor="middle" x="550" y="-185.5" font-family="Helvetica,sans-Serif" font-size="10.00">/contexts/ContextFactory.h</text>
</a>
</g>
</g>
<!-- Node4&#45;&gt;Node5 -->
<g id="edge4" class="edge"><title>Node4&#45;&gt;Node5</title>
<path fill="none" stroke="midnightblue" d="M469.555,-709.479C493.621,-674.51 526,-617.123 526,-561.5 526,-561.5 526,-561.5 526,-381.5 526,-327.379 537.279,-264.747 544.373,-230.71"/>
<polygon fill="midnightblue" stroke="midnightblue" points="466.54,-707.682 463.641,-717.872 472.262,-711.714 466.54,-707.682"/>
</g>
<!-- Node4&#45;&gt;Node6 -->
<g id="edge24" class="edge"><title>Node4&#45;&gt;Node6</title>
<path fill="none" stroke="midnightblue" d="M519.643,-714.528C522.121,-713.666 524.578,-712.821 527,-712 578.929,-694.399 596.027,-700.659 645,-676 739.797,-628.268 748.512,-592.606 837,-534 863.246,-516.617 882.39,-525.338 898,-498 965.253,-380.219 895.074,-210.265 861.153,-141.546"/>
<polygon fill="midnightblue" stroke="midnightblue" points="518.278,-711.298 510.013,-717.928 520.608,-717.899 518.278,-711.298"/>
</g>
<!-- Node4&#45;&gt;Node7 -->
<g id="edge25" class="edge"><title>Node4&#45;&gt;Node7</title>
<path fill="none" stroke="midnightblue" d="M445.862,-707.604C447.624,-671.032 450,-612.29 450,-561.5 450,-561.5 450,-561.5 450,-203.5 450,-144.576 450,-74.8904 450,-41.6065"/>
<polygon fill="midnightblue" stroke="midnightblue" points="442.359,-707.597 445.361,-717.757 449.35,-707.942 442.359,-707.597"/>
</g>
<!-- Node4&#45;&gt;Node8 -->
<g id="edge26" class="edge"><title>Node4&#45;&gt;Node8</title>
<path fill="none" stroke="midnightblue" d="M517.571,-714.859C520.744,-713.855 523.897,-712.897 527,-712 602.449,-690.197 624.68,-698.243 700,-676 762.613,-657.51 773.962,-639.986 837,-623 935.632,-596.423 975.108,-637.327 1064,-587 1121.79,-554.282 1160,-538.909 1160,-472.5 1160,-472.5 1160,-472.5 1160,-203.5 1160,-144.576 1160,-74.8904 1160,-41.6065"/>
<polygon fill="midnightblue" stroke="midnightblue" points="516.432,-711.549 508.02,-717.989 518.612,-718.2 516.432,-711.549"/>
</g>
<!-- Node9 -->
<g id="node9" class="node"><title>Node9</title>
<g id="a_node9"><a xlink:href="IWorker_8h.html" target="_top" xlink:title="/home/travis/build\l/hypro/hypro/src/hypro\l/algorithms/reachability\l/workers/IWorker.h">
<polygon fill="white" stroke="black" points="554,-445.5 554,-497.5 682,-497.5 682,-445.5 554,-445.5"/>
<text text-anchor="start" x="562" y="-485.5" font-family="Helvetica,sans-Serif" font-size="10.00">/home/travis/build</text>
<text text-anchor="start" x="562" y="-474.5" font-family="Helvetica,sans-Serif" font-size="10.00">/hypro/hypro/src/hypro</text>
<text text-anchor="start" x="562" y="-463.5" font-family="Helvetica,sans-Serif" font-size="10.00">/algorithms/reachability</text>
<text text-anchor="middle" x="618" y="-452.5" font-family="Helvetica,sans-Serif" font-size="10.00">/workers/IWorker.h</text>
</a>
</g>
</g>
<!-- Node4&#45;&gt;Node9 -->
<g id="edge8" class="edge"><title>Node4&#45;&gt;Node9</title>
<path fill="none" stroke="midnightblue" d="M500.063,-712.143C514.551,-702.11 529.114,-689.918 540,-676 583.24,-620.715 604.77,-538.701 613.349,-497.721"/>
<polygon fill="midnightblue" stroke="midnightblue" points="497.954,-709.342 491.569,-717.798 501.833,-715.169 497.954,-709.342"/>
</g>
<!-- Node4&#45;&gt;Node10 -->
<g id="edge16" class="edge"><title>Node4&#45;&gt;Node10</title>
<path fill="none" stroke="midnightblue" d="M435.563,-707.73C418.251,-635.365 379.084,-471.635 364.041,-408.751"/>
<polygon fill="midnightblue" stroke="midnightblue" points="432.222,-708.809 437.953,-717.721 439.03,-707.181 432.222,-708.809"/>
</g>
<!-- Node4&#45;&gt;Node11 -->
<g id="edge23" class="edge"><title>Node4&#45;&gt;Node11</title>
<path fill="none" stroke="midnightblue" d="M511.618,-713.751C592.754,-676.452 718,-610.879 718,-561.5 718,-561.5 718,-561.5 718,-470.5 718,-416.458 728.339,-353.797 734.842,-319.733"/>
<polygon fill="midnightblue" stroke="midnightblue" points="510.09,-710.601 502.444,-717.935 512.995,-716.97 510.09,-710.601"/>
</g>
<!-- Node4&#45;&gt;Node12 -->
<g id="edge17" class="edge"><title>Node4&#45;&gt;Node12</title>
<path fill="none" stroke="midnightblue" d="M516.151,-714.894C519.796,-713.839 523.426,-712.865 527,-712 659.666,-679.89 697.322,-698.209 832,-676 836.518,-675.255 841.124,-674.455 845.77,-673.615"/>
<polygon fill="midnightblue" stroke="midnightblue" points="515.03,-711.576 506.497,-717.855 517.084,-718.268 515.03,-711.576"/>
</g>
<!-- Node5&#45;&gt;Node6 -->
<g id="edge5" class="edge"><title>Node5&#45;&gt;Node6</title>
<path fill="none" stroke="midnightblue" d="M631.717,-177.877C669.434,-166.05 714.369,-151.961 753.246,-139.77"/>
<polygon fill="midnightblue" stroke="midnightblue" points="630.283,-174.659 621.788,-180.99 632.377,-181.338 630.283,-174.659"/>
</g>
<!-- Node6&#45;&gt;Node7 -->
<g id="edge6" class="edge"><title>Node6&#45;&gt;Node7</title>
<path fill="none" stroke="midnightblue" d="M743.383,-86.6185C680.09,-72.6781 599.451,-54.9171 538.738,-41.5448"/>
<polygon fill="midnightblue" stroke="midnightblue" points="742.867,-90.0888 753.386,-88.8218 744.373,-83.2526 742.867,-90.0888"/>
</g>
<!-- Node6&#45;&gt;Node8 -->
<g id="edge7" class="edge"><title>Node6&#45;&gt;Node8</title>
<path fill="none" stroke="midnightblue" d="M946.3,-81.0219C995.731,-67.3695 1053.66,-51.3694 1096.73,-39.4748"/>
<polygon fill="midnightblue" stroke="midnightblue" points="945.241,-77.6831 936.534,-83.7191 947.105,-84.4305 945.241,-77.6831"/>
</g>
<!-- Node9&#45;&gt;Node5 -->
<g id="edge9" class="edge"><title>Node9&#45;&gt;Node5</title>
<path fill="none" stroke="midnightblue" d="M608.95,-435.232C595.029,-380.982 568.696,-278.358 556.5,-230.832"/>
<polygon fill="midnightblue" stroke="midnightblue" points="605.604,-436.274 611.48,-445.091 612.384,-434.535 605.604,-436.274"/>
</g>
<!-- Node9&#45;&gt;Node6 -->
<g id="edge15" class="edge"><title>Node9&#45;&gt;Node6</title>
<path fill="none" stroke="midnightblue" d="M618.628,-435.293C620.852,-392.626 629.448,-319.888 661,-267 693.078,-213.231 750.441,-169.06 792.617,-141.615"/>
<polygon fill="midnightblue" stroke="midnightblue" points="615.124,-435.32 618.19,-445.462 622.117,-435.622 615.124,-435.32"/>
</g>
<!-- Node9&#45;&gt;Node10 -->
<g id="edge10" class="edge"><title>Node9&#45;&gt;Node10</title>
<path fill="none" stroke="midnightblue" d="M544.16,-445.792C505.788,-432.952 459.335,-417.408 422.431,-405.06"/>
<polygon fill="midnightblue" stroke="midnightblue" points="543.136,-449.14 553.73,-448.994 545.358,-442.502 543.136,-449.14"/>
</g>
<!-- Node9&#45;&gt;Node11 -->
<g id="edge14" class="edge"><title>Node9&#45;&gt;Node11</title>
<path fill="none" stroke="midnightblue" d="M641.219,-437.003C664.925,-402.805 701.188,-350.492 722.553,-319.67"/>
<polygon fill="midnightblue" stroke="midnightblue" points="638.3,-435.071 635.48,-445.283 644.053,-439.059 638.3,-435.071"/>
</g>
<!-- Node10&#45;&gt;Node5 -->
<g id="edge11" class="edge"><title>Node10&#45;&gt;Node5</title>
<path fill="none" stroke="midnightblue" d="M393.129,-349.299C430.394,-315.138 488.491,-261.884 522.542,-230.67"/>
<polygon fill="midnightblue" stroke="midnightblue" points="390.515,-346.946 385.509,-356.283 395.246,-352.106 390.515,-346.946"/>
</g>
<!-- Node10&#45;&gt;Node11 -->
<g id="edge12" class="edge"><title>Node10&#45;&gt;Node11</title>
<path fill="none" stroke="midnightblue" d="M432.266,-364.586C501.005,-348.931 602.465,-325.823 669.856,-310.475"/>
<polygon fill="midnightblue" stroke="midnightblue" points="431.342,-361.207 422.369,-366.84 432.897,-368.032 431.342,-361.207"/>
</g>
<!-- Node11&#45;&gt;Node5 -->
<g id="edge13" class="edge"><title>Node11&#45;&gt;Node5</title>
<path fill="none" stroke="midnightblue" d="M675.91,-263.153C652.775,-252.56 626.895,-240.71 604.644,-230.521"/>
<polygon fill="midnightblue" stroke="midnightblue" points="674.75,-266.472 685.299,-267.453 677.664,-260.107 674.75,-266.472"/>
</g>
<!-- Node13 -->
<g id="node13" class="node"><title>Node13</title>
<g id="a_node13"><a xlink:href="JumpHandlers_8h.html" target="_top" xlink:title="/home/travis/build\l/hypro/hypro/src/hypro\l/algorithms/reachability\l/handlers/jumpHandlers/JumpHandlers.h">
<polygon fill="white" stroke="black" points="846.5,-534.5 846.5,-586.5 1055.5,-586.5 1055.5,-534.5 846.5,-534.5"/>
<text text-anchor="start" x="854.5" y="-574.5" font-family="Helvetica,sans-Serif" font-size="10.00">/home/travis/build</text>
<text text-anchor="start" x="854.5" y="-563.5" font-family="Helvetica,sans-Serif" font-size="10.00">/hypro/hypro/src/hypro</text>
<text text-anchor="start" x="854.5" y="-552.5" font-family="Helvetica,sans-Serif" font-size="10.00">/algorithms/reachability</text>
<text text-anchor="middle" x="951" y="-541.5" font-family="Helvetica,sans-Serif" font-size="10.00">/handlers/jumpHandlers/JumpHandlers.h</text>
</a>
</g>
</g>
<!-- Node12&#45;&gt;Node13 -->
<g id="edge18" class="edge"><title>Node12&#45;&gt;Node13</title>
<path fill="none" stroke="midnightblue" d="M951.594,-613.191C951.492,-604.282 951.384,-594.899 951.289,-586.607"/>
<polygon fill="midnightblue" stroke="midnightblue" points="948.096,-613.377 951.711,-623.336 955.095,-613.296 948.096,-613.377"/>
</g>
<!-- Node14 -->
<g id="node14" class="node"><title>Node14</title>
<g id="a_node14"><a xlink:href="HandlerFactory_8h.html" target="_top" xlink:title="/home/travis/build\l/hypro/hypro/src/hypro\l/algorithms/reachability\l/handlers/HandlerFactory.h">
<polygon fill="white" stroke="black" points="746.5,-445.5 746.5,-497.5 889.5,-497.5 889.5,-445.5 746.5,-445.5"/>
<text text-anchor="start" x="754.5" y="-485.5" font-family="Helvetica,sans-Serif" font-size="10.00">/home/travis/build</text>
<text text-anchor="start" x="754.5" y="-474.5" font-family="Helvetica,sans-Serif" font-size="10.00">/hypro/hypro/src/hypro</text>
<text text-anchor="start" x="754.5" y="-463.5" font-family="Helvetica,sans-Serif" font-size="10.00">/algorithms/reachability</text>
<text text-anchor="middle" x="818" y="-452.5" font-family="Helvetica,sans-Serif" font-size="10.00">/handlers/HandlerFactory.h</text>
</a>
</g>
</g>
<!-- Node13&#45;&gt;Node14 -->
<g id="edge19" class="edge"><title>Node13&#45;&gt;Node14</title>
<path fill="none" stroke="midnightblue" d="M904.048,-528.787C888.443,-518.579 871.262,-507.341 856.383,-497.607"/>
<polygon fill="midnightblue" stroke="midnightblue" points="902.246,-531.791 912.531,-534.336 906.078,-525.933 902.246,-531.791"/>
</g>
<!-- Node14&#45;&gt;Node10 -->
<g id="edge20" class="edge"><title>Node14&#45;&gt;Node10</title>
<path fill="none" stroke="midnightblue" d="M736.359,-453.913C721.284,-450.906 705.673,-447.828 691,-445 597.625,-427.004 489.306,-407.198 422.205,-395.052"/>
<polygon fill="midnightblue" stroke="midnightblue" points="735.68,-457.346 746.173,-455.876 737.053,-450.482 735.68,-457.346"/>
</g>
<!-- Node14&#45;&gt;Node11 -->
<g id="edge22" class="edge"><title>Node14&#45;&gt;Node11</title>
<path fill="none" stroke="midnightblue" d="M802.768,-436.13C787.607,-401.92 764.699,-350.231 751.155,-319.67"/>
<polygon fill="midnightblue" stroke="midnightblue" points="799.573,-437.559 806.825,-445.283 805.973,-434.723 799.573,-437.559"/>
</g>
<!-- Node14&#45;&gt;Node12 -->
<g id="edge21" class="edge"><title>Node14&#45;&gt;Node12</title>
<path fill="none" stroke="midnightblue" d="M816.047,-507.928C816.457,-532.266 820.635,-564.177 837,-587 848.082,-602.456 864.274,-614.39 881.028,-623.45"/>
<polygon fill="midnightblue" stroke="midnightblue" points="819.548,-507.688 816.086,-497.675 812.548,-507.662 819.548,-507.688"/>
</g>
<!-- Node15&#45;&gt;Node7 -->
<g id="edge30" class="edge"><title>Node15&#45;&gt;Node7</title>
<path fill="none" stroke="midnightblue" d="M1106.69,-810.848C1117.08,-800.611 1127.5,-788.636 1135,-776 1185.7,-690.551 1198,-660.86 1198,-561.5 1198,-561.5 1198,-561.5 1198,-203.5 1198,-71.2904 751.107,-35.0262 548.172,-25.3742"/>
<polygon fill="midnightblue" stroke="midnightblue" points="1104.01,-808.558 1099.17,-817.979 1108.83,-813.638 1104.01,-808.558"/>
</g>
<!-- Node15&#45;&gt;Node8 -->
<g id="edge31" class="edge"><title>Node15&#45;&gt;Node8</title>
<path fill="none" stroke="midnightblue" d="M1151.66,-822.505C1177.48,-812.396 1203.87,-797.565 1222,-776 1285.13,-700.918 1274,-659.595 1274,-561.5 1274,-561.5 1274,-561.5 1274,-203.5 1274,-135.777 1216.38,-72.6117 1183.07,-41.753"/>
<polygon fill="midnightblue" stroke="midnightblue" points="1150.34,-819.259 1142.18,-826.019 1152.78,-825.822 1150.34,-819.259"/>
</g>
<!-- Node15&#45;&gt;Node16 -->
<g id="edge28" class="edge"><title>Node15&#45;&gt;Node16</title>
<path fill="none" stroke="midnightblue" d="M1054.46,-808.076C1049.6,-795.551 1044.23,-781.686 1039.75,-770.152"/>
<polygon fill="midnightblue" stroke="midnightblue" points="1051.34,-809.704 1058.21,-817.763 1057.86,-807.174 1051.34,-809.704"/>
</g>
<!-- Node16&#45;&gt;Node12 -->
<g id="edge29" class="edge"><title>Node16&#45;&gt;Node12</title>
<path fill="none" stroke="midnightblue" d="M1002,-709.795C992.541,-698.577 982.141,-686.245 973.288,-675.745"/>
<polygon fill="midnightblue" stroke="midnightblue" points="999.564,-712.335 1008.69,-717.724 1004.92,-707.823 999.564,-712.335"/>
</g>
<!-- Node17&#45;&gt;Node12 -->
<g id="edge35" class="edge"><title>Node17&#45;&gt;Node12</title>
<path fill="none" stroke="midnightblue" d="M891.729,-710.447C903.181,-699.057 915.857,-686.448 926.618,-675.745"/>
<polygon fill="midnightblue" stroke="midnightblue" points="889.035,-708.19 884.413,-717.724 893.971,-713.154 889.035,-708.19"/>
</g>
<!-- Node18&#45;&gt;Node7 -->
<g id="edge41" class="edge"><title>Node18&#45;&gt;Node7</title>
<path fill="none" stroke="midnightblue" d="M494.302,-814.904C490.834,-813.88 487.389,-812.905 484,-812 399.278,-789.363 356.045,-833.692 290,-776 236.52,-729.284 190,-543.511 190,-472.5 190,-472.5 190,-472.5 190,-203.5 190,-141.287 204.169,-117.782 252,-78 280.083,-54.6426 317.32,-41.01 351.918,-33.06"/>
<polygon fill="midnightblue" stroke="midnightblue" points="493.521,-818.325 504.107,-817.911 495.573,-811.633 493.521,-818.325"/>
</g>
<!-- Node18&#45;&gt;Node8 -->
<g id="edge42" class="edge"><title>Node18&#45;&gt;Node8</title>
<path fill="none" stroke="midnightblue" d="M493.449,-814.877C490.266,-813.881 487.107,-812.917 484,-812 418.247,-792.584 380.903,-826.005 334,-776 212.881,-646.87 266,-560.543 266,-383.5 266,-383.5 266,-383.5 266,-203.5 266,-33.7422 892.911,-21.02 1096.78,-21.3709"/>
<polygon fill="midnightblue" stroke="midnightblue" points="492.454,-818.234 503.045,-817.953 494.591,-811.568 492.454,-818.234"/>
</g>
<!-- Node18&#45;&gt;Node10 -->
<g id="edge38" class="edge"><title>Node18&#45;&gt;Node10</title>
<path fill="none" stroke="midnightblue" d="M492.351,-814.727C489.536,-813.797 486.746,-812.885 484,-812 429.785,-794.531 398.48,-818.892 361,-776 323.88,-733.52 342,-706.913 342,-650.5 342,-650.5 342,-650.5 342,-559.5 342,-505.5 349.562,-442.563 354.289,-408.5"/>
<polygon fill="midnightblue" stroke="midnightblue" points="491.393,-818.098 501.987,-817.953 493.615,-811.46 491.393,-818.098"/>
</g>
<!-- Node19 -->
<g id="node19" class="node"><title>Node19</title>
<g id="a_node19"><a xlink:href="timingUtil_8h.html" target="_top" xlink:title="/home/travis/build\l/hypro/hypro/src/hypro\l/algorithms/reachability\l/handlers/jumpHandlers/timingUtil.h">
<polygon fill="white" stroke="black" points="536,-718 536,-770 724,-770 724,-718 536,-718"/>
<text text-anchor="start" x="544" y="-758" font-family="Helvetica,sans-Serif" font-size="10.00">/home/travis/build</text>
<text text-anchor="start" x="544" y="-747" font-family="Helvetica,sans-Serif" font-size="10.00">/hypro/hypro/src/hypro</text>
<text text-anchor="start" x="544" y="-736" font-family="Helvetica,sans-Serif" font-size="10.00">/algorithms/reachability</text>
<text text-anchor="middle" x="630" y="-725" font-family="Helvetica,sans-Serif" font-size="10.00">/handlers/jumpHandlers/timingUtil.h</text>
</a>
</g>
</g>
<!-- Node18&#45;&gt;Node19 -->
<g id="edge39" class="edge"><title>Node18&#45;&gt;Node19</title>
<path fill="none" stroke="midnightblue" d="M592.23,-808.818C599.756,-796.101 608.153,-781.914 615.114,-770.152"/>
<polygon fill="midnightblue" stroke="midnightblue" points="589.018,-807.374 586.936,-817.763 595.042,-810.939 589.018,-807.374"/>
</g>
<!-- Node19&#45;&gt;Node12 -->
<g id="edge40" class="edge"><title>Node19&#45;&gt;Node12</title>
<path fill="none" stroke="midnightblue" d="M726.947,-715.15C770.782,-702.558 822.186,-687.791 864.793,-675.552"/>
<polygon fill="midnightblue" stroke="midnightblue" points="725.783,-711.843 717.138,-717.968 727.716,-718.571 725.783,-711.843"/>
</g>
<!-- Node21 -->
<g id="node21" class="node"><title>Node21</title>
<g id="a_node21"><a xlink:href="discreteGuardHandler_8h.html" target="_top" xlink:title="/home/travis/build\l/hypro/hypro/src/hypro\l/algorithms/reachability\l/handlers/guardHandlers\l/discreteGuardHandler.h">
<polygon fill="white" stroke="black" points="341,-812.5 341,-875.5 475,-875.5 475,-812.5 341,-812.5"/>
<text text-anchor="start" x="349" y="-863.5" font-family="Helvetica,sans-Serif" font-size="10.00">/home/travis/build</text>
<text text-anchor="start" x="349" y="-852.5" font-family="Helvetica,sans-Serif" font-size="10.00">/hypro/hypro/src/hypro</text>
<text text-anchor="start" x="349" y="-841.5" font-family="Helvetica,sans-Serif" font-size="10.00">/algorithms/reachability</text>
<text text-anchor="start" x="349" y="-830.5" font-family="Helvetica,sans-Serif" font-size="10.00">/handlers/guardHandlers</text>
<text text-anchor="middle" x="408" y="-819.5" font-family="Helvetica,sans-Serif" font-size="10.00">/discreteGuardHandler.h</text>
</a>
</g>
</g>
<!-- Node20&#45;&gt;Node21 -->
<g id="edge44" class="edge"><title>Node20&#45;&gt;Node21</title>
<path fill="none" stroke="midnightblue" d="M387.401,-902.676C390.629,-893.64 394.001,-884.197 397.061,-875.63"/>
<polygon fill="midnightblue" stroke="midnightblue" points="384.046,-901.666 383.978,-912.261 390.638,-904.021 384.046,-901.666"/>
</g>
<!-- Node22 -->
<g id="node22" class="node"><title>Node22</title>
<g id="a_node22"><a xlink:href="GuardHandlers_8h.html" target="_top" xlink:title="/home/travis/build\l/hypro/hypro/src/hypro\l/algorithms/reachability\l/handlers/guardHandlers\l/GuardHandlers.h">
<polygon fill="white" stroke="black" points="104,-712.5 104,-775.5 238,-775.5 238,-712.5 104,-712.5"/>
<text text-anchor="start" x="112" y="-763.5" font-family="Helvetica,sans-Serif" font-size="10.00">/home/travis/build</text>
<text text-anchor="start" x="112" y="-752.5" font-family="Helvetica,sans-Serif" font-size="10.00">/hypro/hypro/src/hypro</text>
<text text-anchor="start" x="112" y="-741.5" font-family="Helvetica,sans-Serif" font-size="10.00">/algorithms/reachability</text>
<text text-anchor="start" x="112" y="-730.5" font-family="Helvetica,sans-Serif" font-size="10.00">/handlers/guardHandlers</text>
<text text-anchor="middle" x="171" y="-719.5" font-family="Helvetica,sans-Serif" font-size="10.00">/GuardHandlers.h</text>
</a>
</g>
</g>
<!-- Node20&#45;&gt;Node22 -->
<g id="edge48" class="edge"><title>Node20&#45;&gt;Node22</title>
<path fill="none" stroke="midnightblue" d="M296.169,-917.392C243.191,-899.565 181.945,-878.545 180,-876 158.196,-847.474 159.814,-804.463 164.288,-775.588"/>
<polygon fill="midnightblue" stroke="midnightblue" points="295.355,-920.811 305.949,-920.679 297.585,-914.175 295.355,-920.811"/>
</g>
<!-- Node23 -->
<g id="node23" class="node"><title>Node23</title>
<g id="a_node23"><a xlink:href="timedGuardHandler_8h.html" target="_top" xlink:title="/home/travis/build\l/hypro/hypro/src/hypro\l/algorithms/reachability\l/handlers/guardHandlers\l/timedGuardHandler.h">
<polygon fill="white" stroke="black" points="189,-812.5 189,-875.5 323,-875.5 323,-812.5 189,-812.5"/>
<text text-anchor="start" x="197" y="-863.5" font-family="Helvetica,sans-Serif" font-size="10.00">/home/travis/build</text>
<text text-anchor="start" x="197" y="-852.5" font-family="Helvetica,sans-Serif" font-size="10.00">/hypro/hypro/src/hypro</text>
<text text-anchor="start" x="197" y="-841.5" font-family="Helvetica,sans-Serif" font-size="10.00">/algorithms/reachability</text>
<text text-anchor="start" x="197" y="-830.5" font-family="Helvetica,sans-Serif" font-size="10.00">/handlers/guardHandlers</text>
<text text-anchor="middle" x="256" y="-819.5" font-family="Helvetica,sans-Serif" font-size="10.00">/timedGuardHandler.h</text>
</a>
</g>
</g>
<!-- Node20&#45;&gt;Node23 -->
<g id="edge49" class="edge"><title>Node20&#45;&gt;Node23</title>
<path fill="none" stroke="midnightblue" d="M328.623,-905.83C316.723,-895.862 303.993,-885.199 292.568,-875.63"/>
<polygon fill="midnightblue" stroke="midnightblue" points="326.388,-908.523 336.301,-912.261 330.883,-903.157 326.388,-908.523"/>
</g>
<!-- Node21&#45;&gt;Node22 -->
<g id="edge45" class="edge"><title>Node21&#45;&gt;Node22</title>
<path fill="none" stroke="midnightblue" d="M331.131,-811.214C301.121,-798.805 267.029,-784.708 238.038,-772.721"/>
<polygon fill="midnightblue" stroke="midnightblue" points="330.141,-814.592 340.719,-815.179 332.816,-808.124 330.141,-814.592"/>
</g>
<!-- Node22&#45;&gt;Node10 -->
<g id="edge47" class="edge"><title>Node22&#45;&gt;Node10</title>
<path fill="none" stroke="midnightblue" d="M191.665,-703.272C230.391,-628.823 312.861,-470.277 344.895,-408.694"/>
<polygon fill="midnightblue" stroke="midnightblue" points="188.453,-701.862 186.944,-712.349 194.663,-705.093 188.453,-701.862"/>
</g>
<!-- Node22&#45;&gt;Node14 -->
<g id="edge46" class="edge"><title>Node22&#45;&gt;Node14</title>
<path fill="none" stroke="midnightblue" d="M247.631,-710.962C377.858,-656.516 639.689,-547.049 757.788,-497.674"/>
<polygon fill="midnightblue" stroke="midnightblue" points="245.982,-707.858 238.106,-714.944 248.682,-714.316 245.982,-707.858"/>
</g>
<!-- Node23&#45;&gt;Node22 -->
<g id="edge50" class="edge"><title>Node23&#45;&gt;Node22</title>
<path fill="none" stroke="midnightblue" d="M222.77,-804.687C214.412,-795.051 205.551,-784.835 197.567,-775.63"/>
<polygon fill="midnightblue" stroke="midnightblue" points="220.142,-807 229.339,-812.261 225.43,-802.413 220.142,-807"/>
</g>
<!-- Node24&#45;&gt;Node22 -->
<g id="edge52" class="edge"><title>Node24&#45;&gt;Node22</title>
<path fill="none" stroke="midnightblue" d="M161.256,-903.931C155.397,-895.277 150.188,-885.76 147,-876 136.087,-842.592 146.594,-802.674 156.932,-775.753"/>
<polygon fill="midnightblue" stroke="midnightblue" points="158.588,-906.215 167.279,-912.273 164.263,-902.117 158.588,-906.215"/>
</g>
</g>
</svg>
