<?xml version="1.0" encoding="UTF-8" standalone="no"?>
<!DOCTYPE svg PUBLIC "-//W3C//DTD SVG 1.1//EN"
 "http://www.w3.org/Graphics/SVG/1.1/DTD/svg11.dtd">
<!-- Generated by graphviz version 2.38.0 (20140413.2041)
 -->
<!-- Title: /home/travis/build/hypro/hypro/src/hypro/datastructures/HybridAutomaton/decomposition/decomposeConstraintSet.h Pages: 1 -->
<!--zoomable 374 -->
<svg id="main" version="1.1" xmlns="http://www.w3.org/2000/svg" xmlns:xlink="http://www.w3.org/1999/xlink" xml:space="preserve" onload="init(evt)">
<style type="text/css"><![CDATA[
.edge:hover path { stroke: red; }
.edge:hover polygon { stroke: red; fill: red; }
]]></style>
<script type="text/javascript"><![CDATA[
var edges = document.getElementsByTagName('g');
if (edges && edges.length) {
  for (var i=0;i<edges.length;i++) {
    if (edges[i].id.substr(0,4)=='edge') {
      edges[i].setAttribute('class','edge');
    }
  }
}
]]></script>
        <defs>
                <circle id="rim" cx="0" cy="0" r="7"/>
                <circle id="rim2" cx="0" cy="0" r="3.5"/>
                <g id="zoomPlus">
                        <use xlink:href="#rim" fill="#404040">
                                <set attributeName="fill" to="#808080" begin="zoomplus.mouseover" end="zoomplus.mouseout"/>
                        </use>
                        <path d="M-4,0h8M0,-4v8" fill="none" stroke="white" stroke-width="1.5" pointer-events="none"/>
                </g>
                <g id="zoomMin">
                        <use xlink:href="#rim" fill="#404040">
                                <set attributeName="fill" to="#808080" begin="zoomminus.mouseover" end="zoomminus.mouseout"/>
                        </use>
                        <path d="M-4,0h8" fill="none" stroke="white" stroke-width="1.5" pointer-events="none"/>
                </g>
                <g id="dirArrow">
                        <path fill="none" stroke="white" stroke-width="1.5" d="M0,-3.0v7 M-2.5,-0.5L0,-3.0L2.5,-0.5"/>
                </g>
               <g id="resetDef">
                       <use xlink:href="#rim2" fill="#404040">
                               <set attributeName="fill" to="#808080" begin="reset.mouseover" end="reset.mouseout"/>
                       </use>
               </g>
        </defs>

<script type="text/javascript">
var viewWidth = 1202;
var viewHeight = 374;
var sectionId = 'dynsection-0';
</script>
<script xlink:href="svgpan.js"/>
<svg id="graph" class="graph">
<g id="viewport">
<title>/home/travis/build/hypro/hypro/src/hypro/datastructures/HybridAutomaton/decomposition/decomposeConstraintSet.h</title>
<polygon fill="white" stroke="none" points="-4,4 -4,-370 1197.5,-370 1197.5,4 -4,4"/>
<!-- Node1 -->
<g id="node1" class="node"><title>Node1</title>
<polygon fill="#bfbfbf" stroke="black" points="127.5,-313.5 127.5,-365.5 351.5,-365.5 351.5,-313.5 127.5,-313.5"/>
<text text-anchor="start" x="135.5" y="-353.5" font-family="Helvetica,sans-Serif" font-size="10.00">/home/travis/build</text>
<text text-anchor="start" x="135.5" y="-342.5" font-family="Helvetica,sans-Serif" font-size="10.00">/hypro/hypro/src/hypro</text>
<text text-anchor="start" x="135.5" y="-331.5" font-family="Helvetica,sans-Serif" font-size="10.00">/datastructures/HybridAutomaton</text>
<text text-anchor="middle" x="239.5" y="-320.5" font-family="Helvetica,sans-Serif" font-size="10.00">/decomposition/decomposeConstraintSet.h</text>
</g>
<!-- Node2 -->
<g id="node2" class="node"><title>Node2</title>
<g id="a_node2"><a xlink:href="types_8h.html" target="_top" xlink:title="../../../types.h">
<polygon fill="white" stroke="black" points="289,-257.5 289,-276.5 368,-276.5 368,-257.5 289,-257.5"/>
<text text-anchor="middle" x="328.5" y="-264.5" font-family="Helvetica,sans-Serif" font-size="10.00">../../../types.h</text>
</a>
</g>
</g>
<!-- Node1&#45;&gt;Node2 -->
<g id="edge1" class="edge"><title>Node1&#45;&gt;Node2</title>
<path fill="none" stroke="midnightblue" d="M271.129,-313.446C283.902,-303.328 298.224,-291.983 309.362,-283.16"/>
<polygon fill="midnightblue" stroke="midnightblue" points="311.857,-285.648 317.523,-276.695 307.511,-280.161 311.857,-285.648"/>
</g>
<!-- Node28 -->
<g id="node28" class="node"><title>Node28</title>
<g id="a_node28"><a xlink:href="Decomposition_8h.html" target="_top" xlink:title="Decomposition.h">
<polygon fill="white" stroke="black" points="101.5,-257.5 101.5,-276.5 199.5,-276.5 199.5,-257.5 101.5,-257.5"/>
<text text-anchor="middle" x="150.5" y="-264.5" font-family="Helvetica,sans-Serif" font-size="10.00">Decomposition.h</text>
</a>
</g>
</g>
<!-- Node1&#45;&gt;Node28 -->
<g id="edge35" class="edge"><title>Node1&#45;&gt;Node28</title>
<path fill="none" stroke="midnightblue" d="M207.871,-313.446C195.098,-303.328 180.776,-291.983 169.638,-283.16"/>
<polygon fill="midnightblue" stroke="midnightblue" points="171.489,-280.161 161.477,-276.695 167.143,-285.648 171.489,-280.161"/>
</g>
<!-- Node3 -->
<g id="node3" class="node"><title>Node3</title>
<polygon fill="white" stroke="#bfbfbf" points="1059.5,-123.5 1059.5,-142.5 1193.5,-142.5 1193.5,-123.5 1059.5,-123.5"/>
<text text-anchor="middle" x="1126.5" y="-130.5" font-family="Helvetica,sans-Serif" font-size="10.00">carl/numbers/numbers.h</text>
</g>
<!-- Node2&#45;&gt;Node3 -->
<g id="edge2" class="edge"><title>Node2&#45;&gt;Node3</title>
<path fill="none" stroke="midnightblue" d="M368.283,-261.298C477.769,-248.041 792.527,-207.802 1050.5,-154 1062.48,-151.501 1075.4,-148.297 1087.13,-145.189"/>
<polygon fill="midnightblue" stroke="midnightblue" points="1088.33,-148.49 1097.07,-142.503 1086.51,-141.732 1088.33,-148.49"/>
</g>
<!-- Node4 -->
<g id="node4" class="node"><title>Node4</title>
<polygon fill="white" stroke="#bfbfbf" points="229.5,-196 229.5,-215 315.5,-215 315.5,-196 229.5,-196"/>
<text text-anchor="middle" x="272.5" y="-203" font-family="Helvetica,sans-Serif" font-size="10.00">carl/util/hash.h</text>
</g>
<!-- Node2&#45;&gt;Node4 -->
<g id="edge3" class="edge"><title>Node2&#45;&gt;Node4</title>
<path fill="none" stroke="midnightblue" d="M320.477,-257.475C311.91,-248.373 298.139,-233.741 287.543,-222.483"/>
<polygon fill="midnightblue" stroke="midnightblue" points="289.911,-219.892 280.509,-215.009 284.814,-224.69 289.911,-219.892"/>
</g>
<!-- Node5 -->
<g id="node5" class="node"><title>Node5</title>
<polygon fill="white" stroke="#bfbfbf" points="333.5,-196 333.5,-215 437.5,-215 437.5,-196 333.5,-196"/>
<text text-anchor="middle" x="385.5" y="-203" font-family="Helvetica,sans-Serif" font-size="10.00">eigen3/Eigen/Core</text>
</g>
<!-- Node2&#45;&gt;Node5 -->
<g id="edge4" class="edge"><title>Node2&#45;&gt;Node5</title>
<path fill="none" stroke="midnightblue" d="M336.667,-257.475C345.386,-248.373 359.404,-233.741 370.189,-222.483"/>
<polygon fill="midnightblue" stroke="midnightblue" points="372.958,-224.651 377.348,-215.009 367.903,-219.809 372.958,-224.651"/>
</g>
<!-- Node6 -->
<g id="node6" class="node"><title>Node6</title>
<polygon fill="white" stroke="#bfbfbf" points="229.5,-123.5 229.5,-142.5 341.5,-142.5 341.5,-123.5 229.5,-123.5"/>
<text text-anchor="middle" x="285.5" y="-130.5" font-family="Helvetica,sans-Serif" font-size="10.00">eigen3/Eigen/Dense</text>
</g>
<!-- Node2&#45;&gt;Node6 -->
<g id="edge5" class="edge"><title>Node2&#45;&gt;Node6</title>
<path fill="none" stroke="midnightblue" d="M368.213,-262.277C395.188,-257.445 429.024,-246.368 446.5,-221 454.316,-209.654 454.483,-201.229 446.5,-190 442.746,-184.719 368.766,-160.451 322.41,-145.649"/>
<polygon fill="midnightblue" stroke="midnightblue" points="323.282,-142.253 312.691,-142.555 321.158,-148.923 323.282,-142.253"/>
</g>
<!-- Node7 -->
<g id="node7" class="node"><title>Node7</title>
<polygon fill="white" stroke="#bfbfbf" points="244.5,-0.5 244.5,-19.5 290.5,-19.5 290.5,-0.5 244.5,-0.5"/>
<text text-anchor="middle" x="267.5" y="-7.5" font-family="Helvetica,sans-Serif" font-size="10.00">iosfwd</text>
</g>
<!-- Node2&#45;&gt;Node7 -->
<g id="edge6" class="edge"><title>Node2&#45;&gt;Node7</title>
<path fill="none" stroke="midnightblue" d="M288.851,-260.574C264.697,-254.999 235.655,-243.732 220.5,-221 193.628,-180.692 205.181,-157.958 220.5,-112 226.825,-93.0263 238.424,-93.8223 247.5,-76 255.034,-61.2045 260.326,-43.0502 263.566,-29.6916"/>
<polygon fill="midnightblue" stroke="midnightblue" points="267.016,-30.3033 265.808,-19.7775 260.188,-28.7588 267.016,-30.3033"/>
</g>
<!-- Node8 -->
<g id="node8" class="node"><title>Node8</title>
<polygon fill="white" stroke="#bfbfbf" points="72.5,-0.5 72.5,-19.5 104.5,-19.5 104.5,-0.5 72.5,-0.5"/>
<text text-anchor="middle" x="88.5" y="-7.5" font-family="Helvetica,sans-Serif" font-size="10.00">set</text>
</g>
<!-- Node2&#45;&gt;Node8 -->
<g id="edge7" class="edge"><title>Node2&#45;&gt;Node8</title>
<path fill="none" stroke="midnightblue" d="M288.908,-263.186C253.681,-258.91 202.337,-248.138 166.5,-221 106.403,-175.491 98.8061,-148.598 78.5,-76 74.1751,-60.5376 77.6191,-42.4491 81.602,-29.2853"/>
<polygon fill="midnightblue" stroke="midnightblue" points="85.0061,-30.1462 84.9155,-19.5518 78.3795,-27.8903 85.0061,-30.1462"/>
</g>
<!-- Node9 -->
<g id="node9" class="node"><title>Node9</title>
<g id="a_node9"><a xlink:href="adaptions__eigen_8h.html" target="_top" xlink:title="util/adaptions_eigen\l/adaptions_eigen.h">
<polygon fill="white" stroke="black" points="494,-190.5 494,-220.5 607,-220.5 607,-190.5 494,-190.5"/>
<text text-anchor="start" x="502" y="-208.5" font-family="Helvetica,sans-Serif" font-size="10.00">util/adaptions_eigen</text>
<text text-anchor="middle" x="550.5" y="-197.5" font-family="Helvetica,sans-Serif" font-size="10.00">/adaptions_eigen.h</text>
</a>
</g>
</g>
<!-- Node2&#45;&gt;Node9 -->
<g id="edge8" class="edge"><title>Node2&#45;&gt;Node9</title>
<path fill="none" stroke="midnightblue" d="M355.407,-257.475C387.139,-248.442 440.768,-233.962 483.82,-222.739"/>
<polygon fill="midnightblue" stroke="midnightblue" points="484.874,-226.082 493.673,-220.18 483.114,-219.307 484.874,-226.082"/>
</g>
<!-- Node9&#45;&gt;Node2 -->
<g id="edge26" class="edge"><title>Node9&#45;&gt;Node2</title>
<path fill="none" stroke="midnightblue" d="M504.009,-220.523C466.092,-231.05 412.906,-245.265 374.986,-254.983"/>
<polygon fill="midnightblue" stroke="midnightblue" points="374.034,-251.614 365.208,-257.475 375.762,-258.397 374.034,-251.614"/>
</g>
<!-- Node9&#45;&gt;Node3 -->
<g id="edge28" class="edge"><title>Node9&#45;&gt;Node3</title>
<path fill="none" stroke="midnightblue" d="M607.14,-201.675C700.254,-196.386 891.242,-182.814 1050.5,-154 1062.98,-151.742 1076.42,-148.486 1088.48,-145.255"/>
<polygon fill="midnightblue" stroke="midnightblue" points="1089.51,-148.6 1098.23,-142.569 1087.66,-141.851 1089.51,-148.6"/>
</g>
<!-- Node9&#45;&gt;Node6 -->
<g id="edge29" class="edge"><title>Node9&#45;&gt;Node6</title>
<path fill="none" stroke="midnightblue" d="M493.83,-191.01C453.674,-181.251 398.609,-167.466 350.5,-154 341.232,-151.406 331.276,-148.436 322.009,-145.593"/>
<polygon fill="midnightblue" stroke="midnightblue" points="322.878,-142.198 312.29,-142.581 320.806,-148.884 322.878,-142.198"/>
</g>
<!-- Node9&#45;&gt;Node7 -->
<g id="edge32" class="edge"><title>Node9&#45;&gt;Node7</title>
<path fill="none" stroke="midnightblue" d="M524.484,-190.391C508.246,-181.037 487.309,-167.951 470.5,-154 450.898,-137.731 451.191,-128.16 431.5,-112 386.8,-75.3169 327.656,-42.1059 293.978,-24.415"/>
<polygon fill="midnightblue" stroke="midnightblue" points="295.276,-21.145 284.788,-19.6414 292.049,-27.3569 295.276,-21.145"/>
</g>
<!-- Node10 -->
<g id="node10" class="node"><title>Node10</title>
<g id="a_node10"><a xlink:href="config_8h.html" target="_top" xlink:title="../../config.h">
<polygon fill="white" stroke="black" points="969.5,-123.5 969.5,-142.5 1041.5,-142.5 1041.5,-123.5 969.5,-123.5"/>
<text text-anchor="middle" x="1005.5" y="-130.5" font-family="Helvetica,sans-Serif" font-size="10.00">../../config.h</text>
</a>
</g>
</g>
<!-- Node9&#45;&gt;Node10 -->
<g id="edge9" class="edge"><title>Node9&#45;&gt;Node10</title>
<path fill="none" stroke="midnightblue" d="M607.231,-202.789C687.316,-199.193 837.479,-188.098 960.5,-154 966.988,-152.202 973.743,-149.617 979.986,-146.9"/>
<polygon fill="midnightblue" stroke="midnightblue" points="981.652,-149.986 989.264,-142.616 978.718,-143.631 981.652,-149.986"/>
</g>
<!-- Node23 -->
<g id="node23" class="node"><title>Node23</title>
<g id="a_node23"><a xlink:href="transformation_8h.html" target="_top" xlink:title="transformation.h">
<polygon fill="white" stroke="black" points="698,-123.5 698,-142.5 795,-142.5 795,-123.5 698,-123.5"/>
<text text-anchor="middle" x="746.5" y="-130.5" font-family="Helvetica,sans-Serif" font-size="10.00">transformation.h</text>
</a>
</g>
</g>
<!-- Node9&#45;&gt;Node23 -->
<g id="edge27" class="edge"><title>Node9&#45;&gt;Node23</title>
<path fill="none" stroke="midnightblue" d="M589.692,-190.403C625.89,-177.383 679.072,-158.253 713.246,-145.961"/>
<polygon fill="midnightblue" stroke="midnightblue" points="714.55,-149.212 722.775,-142.534 712.181,-142.625 714.55,-149.212"/>
</g>
<!-- Node24 -->
<g id="node24" class="node"><title>Node24</title>
<polygon fill="white" stroke="#bfbfbf" points="813.5,-123.5 813.5,-142.5 951.5,-142.5 951.5,-123.5 813.5,-123.5"/>
<text text-anchor="middle" x="882.5" y="-130.5" font-family="Helvetica,sans-Serif" font-size="10.00">eigen3/Eigen/Eigenvalues</text>
</g>
<!-- Node9&#45;&gt;Node24 -->
<g id="edge30" class="edge"><title>Node9&#45;&gt;Node24</title>
<path fill="none" stroke="midnightblue" d="M607.182,-194.151C658.782,-184.511 736.985,-169.355 804.5,-154 816.308,-151.314 829.056,-148.156 840.756,-145.153"/>
<polygon fill="midnightblue" stroke="midnightblue" points="841.917,-148.468 850.718,-142.569 840.159,-141.692 841.917,-148.468"/>
</g>
<!-- Node25 -->
<g id="node25" class="node"><title>Node25</title>
<polygon fill="white" stroke="#bfbfbf" points="360,-123.5 360,-142.5 423,-142.5 423,-123.5 360,-123.5"/>
<text text-anchor="middle" x="391.5" y="-130.5" font-family="Helvetica,sans-Serif" font-size="10.00">functional</text>
</g>
<!-- Node9&#45;&gt;Node25 -->
<g id="edge31" class="edge"><title>Node9&#45;&gt;Node25</title>
<path fill="none" stroke="midnightblue" d="M518.706,-190.403C489.846,-177.606 447.676,-158.908 419.918,-146.6"/>
<polygon fill="midnightblue" stroke="midnightblue" points="421.306,-143.387 410.746,-142.534 418.469,-149.787 421.306,-143.387"/>
</g>
<!-- Node26 -->
<g id="node26" class="node"><title>Node26</title>
<polygon fill="white" stroke="#bfbfbf" points="479.5,-123.5 479.5,-142.5 521.5,-142.5 521.5,-123.5 479.5,-123.5"/>
<text text-anchor="middle" x="500.5" y="-130.5" font-family="Helvetica,sans-Serif" font-size="10.00">limits</text>
</g>
<!-- Node9&#45;&gt;Node26 -->
<g id="edge33" class="edge"><title>Node9&#45;&gt;Node26</title>
<path fill="none" stroke="midnightblue" d="M540.382,-190.233C532.378,-178.947 521.173,-163.15 512.678,-151.171"/>
<polygon fill="midnightblue" stroke="midnightblue" points="515.447,-149.025 506.807,-142.893 509.737,-153.075 515.447,-149.025"/>
</g>
<!-- Node27 -->
<g id="node27" class="node"><title>Node27</title>
<polygon fill="white" stroke="#bfbfbf" points="539.5,-112.5 539.5,-153.5 679.5,-153.5 679.5,-112.5 539.5,-112.5"/>
<text text-anchor="start" x="547.5" y="-141.5" font-family="Helvetica,sans-Serif" font-size="10.00">eigen3/unsupported</text>
<text text-anchor="start" x="547.5" y="-130.5" font-family="Helvetica,sans-Serif" font-size="10.00">/Eigen/src/MatrixFunctions</text>
<text text-anchor="middle" x="609.5" y="-119.5" font-family="Helvetica,sans-Serif" font-size="10.00">/MatrixExponential.h</text>
</g>
<!-- Node9&#45;&gt;Node27 -->
<g id="edge34" class="edge"><title>Node9&#45;&gt;Node27</title>
<path fill="none" stroke="midnightblue" d="M562.44,-190.233C569.401,-181.915 578.413,-171.146 586.685,-161.262"/>
<polygon fill="midnightblue" stroke="midnightblue" points="589.373,-163.504 593.107,-153.588 584.005,-159.011 589.373,-163.504"/>
</g>
<!-- Node11 -->
<g id="node11" class="node"><title>Node11</title>
<g id="a_node11"><a xlink:href="flags_8h.html" target="_top" xlink:title="flags.h">
<polygon fill="white" stroke="black" points="1051.5,-0.5 1051.5,-19.5 1099.5,-19.5 1099.5,-0.5 1051.5,-0.5"/>
<text text-anchor="middle" x="1075.5" y="-7.5" font-family="Helvetica,sans-Serif" font-size="10.00">flags.h</text>
</a>
</g>
</g>
<!-- Node10&#45;&gt;Node11 -->
<g id="edge10" class="edge"><title>Node10&#45;&gt;Node11</title>
<path fill="none" stroke="midnightblue" d="M1010.53,-123.298C1021.99,-103.502 1050.17,-54.782 1065.38,-28.4932"/>
<polygon fill="midnightblue" stroke="midnightblue" points="1068.53,-30.0317 1070.51,-19.6232 1062.47,-26.5264 1068.53,-30.0317"/>
</g>
<!-- Node12 -->
<g id="node12" class="node"><title>Node12</title>
<g id="a_node12"><a xlink:href="util_2convenienceOperators_8h.html" target="_top" xlink:title="util/convenienceOperators.h">
<polygon fill="white" stroke="black" points="88,-56.5 88,-75.5 239,-75.5 239,-56.5 88,-56.5"/>
<text text-anchor="middle" x="163.5" y="-63.5" font-family="Helvetica,sans-Serif" font-size="10.00">util/convenienceOperators.h</text>
</a>
</g>
</g>
<!-- Node10&#45;&gt;Node12 -->
<g id="edge11" class="edge"><title>Node10&#45;&gt;Node12</title>
<path fill="none" stroke="midnightblue" d="M989.752,-123.313C981.333,-119.109 970.638,-114.452 960.5,-112 827.7,-79.8796 426.674,-70.5431 249.379,-67.9483"/>
<polygon fill="midnightblue" stroke="midnightblue" points="249.359,-64.4477 239.31,-67.8046 249.259,-71.447 249.359,-64.4477"/>
</g>
<!-- Node16 -->
<g id="node16" class="node"><title>Node16</title>
<g id="a_node16"><a xlink:href="Logger_8h.html" target="_top" xlink:title="util/logging/Logger.h">
<polygon fill="white" stroke="black" points="845,-56.5 845,-75.5 958,-75.5 958,-56.5 845,-56.5"/>
<text text-anchor="middle" x="901.5" y="-63.5" font-family="Helvetica,sans-Serif" font-size="10.00">util/logging/Logger.h</text>
</a>
</g>
</g>
<!-- Node10&#45;&gt;Node16 -->
<g id="edge18" class="edge"><title>Node10&#45;&gt;Node16</title>
<path fill="none" stroke="midnightblue" d="M991.474,-123.234C974.165,-112.416 944.513,-93.8832 924.005,-81.0659"/>
<polygon fill="midnightblue" stroke="midnightblue" points="925.639,-77.9593 915.304,-75.6273 921.929,-83.8953 925.639,-77.9593"/>
</g>
<!-- Node12&#45;&gt;Node2 -->
<g id="edge12" class="edge"><title>Node12&#45;&gt;Node2</title>
<path fill="none" stroke="midnightblue" d="M162.021,-75.5828C158.139,-101.137 150.361,-177.636 187.5,-221 210.026,-247.301 247.91,-258.382 278.74,-262.978"/>
<polygon fill="midnightblue" stroke="midnightblue" points="278.524,-266.479 288.893,-264.301 279.429,-259.538 278.524,-266.479"/>
</g>
<!-- Node12&#45;&gt;Node7 -->
<g id="edge13" class="edge"><title>Node12&#45;&gt;Node7</title>
<path fill="none" stroke="midnightblue" d="M180.209,-56.324C196.812,-47.7034 222.502,-34.3643 241.72,-24.3855"/>
<polygon fill="midnightblue" stroke="midnightblue" points="243.57,-27.3689 250.832,-19.6545 240.344,-21.1565 243.57,-27.3689"/>
</g>
<!-- Node12&#45;&gt;Node8 -->
<g id="edge15" class="edge"><title>Node12&#45;&gt;Node8</title>
<path fill="none" stroke="midnightblue" d="M151.45,-56.324C140.037,-48.1066 122.669,-35.6017 109.065,-25.8069"/>
<polygon fill="midnightblue" stroke="midnightblue" points="110.93,-22.8366 100.769,-19.8339 106.84,-28.5174 110.93,-22.8366"/>
</g>
<!-- Node13 -->
<g id="node13" class="node"><title>Node13</title>
<polygon fill="white" stroke="#bfbfbf" points="186.5,-0.5 186.5,-19.5 224.5,-19.5 224.5,-0.5 186.5,-0.5"/>
<text text-anchor="middle" x="205.5" y="-7.5" font-family="Helvetica,sans-Serif" font-size="10.00">map</text>
</g>
<!-- Node12&#45;&gt;Node13 -->
<g id="edge14" class="edge"><title>Node12&#45;&gt;Node13</title>
<path fill="none" stroke="midnightblue" d="M170.435,-56.083C176.429,-48.3768 185.252,-37.0333 192.548,-27.6531"/>
<polygon fill="midnightblue" stroke="midnightblue" points="195.317,-29.7934 198.694,-19.7511 189.791,-25.4958 195.317,-29.7934"/>
</g>
<!-- Node14 -->
<g id="node14" class="node"><title>Node14</title>
<polygon fill="white" stroke="#bfbfbf" points="126.5,-0.5 126.5,-19.5 168.5,-19.5 168.5,-0.5 126.5,-0.5"/>
<text text-anchor="middle" x="147.5" y="-7.5" font-family="Helvetica,sans-Serif" font-size="10.00">utility</text>
</g>
<!-- Node12&#45;&gt;Node14 -->
<g id="edge16" class="edge"><title>Node12&#45;&gt;Node14</title>
<path fill="none" stroke="midnightblue" d="M160.858,-56.083C158.714,-48.8486 155.621,-38.4087 152.951,-29.3968"/>
<polygon fill="midnightblue" stroke="midnightblue" points="156.29,-28.3447 150.093,-19.7511 149.578,-30.3334 156.29,-28.3447"/>
</g>
<!-- Node15 -->
<g id="node15" class="node"><title>Node15</title>
<polygon fill="white" stroke="#bfbfbf" points="0,-0.5 0,-19.5 47,-19.5 47,-0.5 0,-0.5"/>
<text text-anchor="middle" x="23.5" y="-7.5" font-family="Helvetica,sans-Serif" font-size="10.00">vector</text>
</g>
<!-- Node12&#45;&gt;Node15 -->
<g id="edge17" class="edge"><title>Node12&#45;&gt;Node15</title>
<path fill="none" stroke="midnightblue" d="M141.317,-56.4435C118.072,-47.4776 81.3512,-33.314 55.0848,-23.1827"/>
<polygon fill="midnightblue" stroke="midnightblue" points="56.1692,-19.8497 45.5796,-19.5164 53.6501,-26.3807 56.1692,-19.8497"/>
</g>
<!-- Node16&#45;&gt;Node11 -->
<g id="edge19" class="edge"><title>Node16&#45;&gt;Node11</title>
<path fill="none" stroke="midnightblue" d="M929.071,-56.4435C959.64,-46.9567 1008.96,-31.6507 1041.8,-21.4595"/>
<polygon fill="midnightblue" stroke="midnightblue" points="1042.91,-24.7798 1051.42,-18.473 1040.83,-18.0944 1042.91,-24.7798"/>
</g>
<!-- Node17 -->
<g id="node17" class="node"><title>Node17</title>
<polygon fill="white" stroke="#bfbfbf" points="661.5,-0.5 661.5,-19.5 815.5,-19.5 815.5,-0.5 661.5,-0.5"/>
<text text-anchor="middle" x="738.5" y="-7.5" font-family="Helvetica,sans-Serif" font-size="10.00">carl/io/streamingOperators.h</text>
</g>
<!-- Node16&#45;&gt;Node17 -->
<g id="edge20" class="edge"><title>Node16&#45;&gt;Node17</title>
<path fill="none" stroke="midnightblue" d="M875.672,-56.4435C848.251,-47.3591 804.723,-32.9388 774.068,-22.7831"/>
<polygon fill="midnightblue" stroke="midnightblue" points="774.8,-19.3389 764.207,-19.5164 772.599,-25.9837 774.8,-19.3389"/>
</g>
<!-- Node18 -->
<g id="node18" class="node"><title>Node18</title>
<polygon fill="white" stroke="#bfbfbf" points="834,-0.5 834,-19.5 893,-19.5 893,-0.5 834,-0.5"/>
<text text-anchor="middle" x="863.5" y="-7.5" font-family="Helvetica,sans-Serif" font-size="10.00">iostream</text>
</g>
<!-- Node16&#45;&gt;Node18 -->
<g id="edge21" class="edge"><title>Node16&#45;&gt;Node18</title>
<path fill="none" stroke="midnightblue" d="M895.225,-56.083C889.858,-48.4554 881.982,-37.2645 875.421,-27.9408"/>
<polygon fill="midnightblue" stroke="midnightblue" points="878.275,-25.9149 869.658,-19.7511 872.551,-29.9434 878.275,-25.9149"/>
</g>
<!-- Node19 -->
<g id="node19" class="node"><title>Node19</title>
<polygon fill="white" stroke="#bfbfbf" points="911.5,-0.5 911.5,-19.5 967.5,-19.5 967.5,-0.5 911.5,-0.5"/>
<text text-anchor="middle" x="939.5" y="-7.5" font-family="Helvetica,sans-Serif" font-size="10.00">sstream</text>
</g>
<!-- Node16&#45;&gt;Node19 -->
<g id="edge22" class="edge"><title>Node16&#45;&gt;Node19</title>
<path fill="none" stroke="midnightblue" d="M907.775,-56.083C913.142,-48.4554 921.018,-37.2645 927.579,-27.9408"/>
<polygon fill="midnightblue" stroke="midnightblue" points="930.449,-29.9434 933.342,-19.7511 924.725,-25.9149 930.449,-29.9434"/>
</g>
<!-- Node20 -->
<g id="node20" class="node"><title>Node20</title>
<polygon fill="white" stroke="#bfbfbf" points="985.5,-0.5 985.5,-19.5 1033.5,-19.5 1033.5,-0.5 985.5,-0.5"/>
<text text-anchor="middle" x="1009.5" y="-7.5" font-family="Helvetica,sans-Serif" font-size="10.00">thread</text>
</g>
<!-- Node16&#45;&gt;Node20 -->
<g id="edge23" class="edge"><title>Node16&#45;&gt;Node20</title>
<path fill="none" stroke="midnightblue" d="M918.852,-56.324C936.172,-47.6641 963.015,-34.2424 983.002,-24.249"/>
<polygon fill="midnightblue" stroke="midnightblue" points="984.812,-27.2572 992.191,-19.6545 981.681,-20.9962 984.812,-27.2572"/>
</g>
<!-- Node21 -->
<g id="node21" class="node"><title>Node21</title>
<polygon fill="white" stroke="#bfbfbf" points="345,-0.5 345,-19.5 470,-19.5 470,-0.5 345,-0.5"/>
<text text-anchor="middle" x="407.5" y="-7.5" font-family="Helvetica,sans-Serif" font-size="10.00">carl/core/carlLogging.h</text>
</g>
<!-- Node16&#45;&gt;Node21 -->
<g id="edge24" class="edge"><title>Node16&#45;&gt;Node21</title>
<path fill="none" stroke="midnightblue" d="M844.672,-59.3208C765.417,-51.3191 616.915,-36.0319 480.434,-20.2077"/>
<polygon fill="midnightblue" stroke="midnightblue" points="480.549,-16.6975 470.212,-19.0188 479.74,-23.6507 480.549,-16.6975"/>
</g>
<!-- Node22 -->
<g id="node22" class="node"><title>Node22</title>
<polygon fill="white" stroke="#bfbfbf" points="488,-0.5 488,-19.5 643,-19.5 643,-0.5 488,-0.5"/>
<text text-anchor="middle" x="565.5" y="-7.5" font-family="Helvetica,sans-Serif" font-size="10.00">carl/core/carlLoggingHelper.h</text>
</g>
<!-- Node16&#45;&gt;Node22 -->
<g id="edge25" class="edge"><title>Node16&#45;&gt;Node22</title>
<path fill="none" stroke="midnightblue" d="M848.26,-56.4435C788.54,-46.8456 691.759,-31.2916 628.368,-21.1037"/>
<polygon fill="midnightblue" stroke="midnightblue" points="628.92,-17.6476 618.491,-19.5164 627.809,-24.559 628.92,-17.6476"/>
</g>
<!-- Node28&#45;&gt;Node15 -->
<g id="edge36" class="edge"><title>Node28&#45;&gt;Node15</title>
<path fill="none" stroke="midnightblue" d="M104.502,-257.454C83.1752,-251.058 59.5023,-239.998 45.5,-221 2.54521,-162.718 12.775,-69.3708 19.6928,-29.7539"/>
<polygon fill="midnightblue" stroke="midnightblue" points="23.1791,-30.153 21.5902,-19.678 16.3,-28.8575 23.1791,-30.153"/>
</g>
</g>
</svg>
        <g id="navigator" transform="translate(0 0)" fill="#404254">
                <rect fill="#f2f5e9" fill-opacity="0.5" stroke="#606060" stroke-width=".5" x="0" y="0" width="60" height="60"/>
                <use id="zoomplus" xlink:href="#zoomPlus" x="17" y="9" onmousedown="handleZoom(evt,'in')"/>
                <use id="zoomminus" xlink:href="#zoomMin" x="42" y="9" onmousedown="handleZoom(evt,'out')"/>
                <use id="reset" xlink:href="#resetDef" x="30" y="36" onmousedown="handleReset()"/>
                <g id="arrowUp" xlink:href="#dirArrow" transform="translate(30 24)" onmousedown="handlePan(0,-1)">
                  <use xlink:href="#rim" fill="#404040">
                        <set attributeName="fill" to="#808080" begin="arrowUp.mouseover" end="arrowUp.mouseout"/>
                  </use>
                  <path fill="none" stroke="white" stroke-width="1.5" d="M0,-3.0v7 M-2.5,-0.5L0,-3.0L2.5,-0.5"/>
                </g>
                <g id="arrowRight" xlink:href="#dirArrow" transform="rotate(90) translate(36 -43)" onmousedown="handlePan(1,0)">
                  <use xlink:href="#rim" fill="#404040">
                        <set attributeName="fill" to="#808080" begin="arrowRight.mouseover" end="arrowRight.mouseout"/>
                  </use>
                  <path fill="none" stroke="white" stroke-width="1.5" d="M0,-3.0v7 M-2.5,-0.5L0,-3.0L2.5,-0.5"/>
                </g>
                <g id="arrowDown" xlink:href="#dirArrow" transform="rotate(180) translate(-30 -48)" onmousedown="handlePan(0,1)">
                  <use xlink:href="#rim" fill="#404040">
                        <set attributeName="fill" to="#808080" begin="arrowDown.mouseover" end="arrowDown.mouseout"/>
                  </use>
                  <path fill="none" stroke="white" stroke-width="1.5" d="M0,-3.0v7 M-2.5,-0.5L0,-3.0L2.5,-0.5"/>
                </g>
                <g id="arrowLeft" xlink:href="#dirArrow" transform="rotate(270) translate(-36 17)" onmousedown="handlePan(-1,0)">
                  <use xlink:href="#rim" fill="#404040">
                        <set attributeName="fill" to="#808080" begin="arrowLeft.mouseover" end="arrowLeft.mouseout"/>
                  </use>
                  <path fill="none" stroke="white" stroke-width="1.5" d="M0,-3.0v7 M-2.5,-0.5L0,-3.0L2.5,-0.5"/>
                </g>
        </g>
        <svg viewBox="0 0 15 15" width="100%" height="30px" preserveAspectRatio="xMaxYMin meet">
         <g id="arrow_out" transform="scale(0.3 0.3)">
          <a xlink:href="decomposeConstraintSet_8h__incl_org.svg" target="_base">
           <rect id="button" ry="5" rx="5" y="6" x="6" height="38" width="38"
                fill="#f2f5e9" fill-opacity="0.5" stroke="#606060" stroke-width="1.0"/>
           <path id="arrow"
             d="M 11.500037,31.436501 C 11.940474,20.09759 22.043105,11.32322 32.158766,21.979434 L 37.068811,17.246167 C 37.068811,17.246167 37.088388,32 37.088388,32 L 22.160133,31.978069 C 22.160133,31.978069 26.997745,27.140456 26.997745,27.140456 C 18.528582,18.264221 13.291696,25.230495 11.500037,31.436501 z"
             style="fill:#404040;"/>
          </a>
         </g>
        </svg>
</svg>
