<?xml version="1.0" encoding="UTF-8" standalone="no"?>
<!DOCTYPE svg PUBLIC "-//W3C//DTD SVG 1.1//EN"
 "http://www.w3.org/Graphics/SVG/1.1/DTD/svg11.dtd">
<!-- Generated by graphviz version 2.38.0 (20140413.2041)
 -->
<!-- Title: /home/travis/build/hypro/hypro/src/hypro/datastructures/reachability/timing Pages: 1 -->
<svg width="130pt" height="223pt"
 viewBox="0.00 0.00 129.50 223.00" xmlns="http://www.w3.org/2000/svg" xmlns:xlink="http://www.w3.org/1999/xlink">
<g id="graph0" class="graph" transform="scale(1 1) rotate(0) translate(4 219)">
<title>/home/travis/build/hypro/hypro/src/hypro/datastructures/reachability/timing</title>
<polygon fill="white" stroke="none" points="-4,4 -4,-219 125.5,-219 125.5,4 -4,4"/>
<g id="clust1" class="cluster"><title>clusterdir_f695c0e486b1567b2450488137a0ccfa</title>
<g id="a_clust1"><a xlink:href="dir_f695c0e486b1567b2450488137a0ccfa.html" target="_top" xlink:title="reachability">
<polygon fill="#ddddee" stroke="black" points="42.5,-136 42.5,-207 113.5,-207 113.5,-136 42.5,-136"/>
<text text-anchor="middle" x="78" y="-195" font-family="Helvetica,sans-Serif" font-size="10.00">reachability</text>
</a>
</g>
</g>
<!-- dir_6ddbc195065ff24a50313c8ded16f5fe -->
<g id="node1" class="node"><title>dir_6ddbc195065ff24a50313c8ded16f5fe</title>
<g id="a_node1"><a xlink:href="dir_6ddbc195065ff24a50313c8ded16f5fe.html" target="_top" xlink:title="timing">
<polygon fill="#eeeeff" stroke="black" points="104.5,-180 50.5,-180 50.5,-144 104.5,-144 104.5,-180"/>
<text text-anchor="middle" x="77.5" y="-159.5" font-family="Helvetica,sans-Serif" font-size="10.00">timing</text>
</a>
</g>
</g>
<!-- dir_879d833e0dfbe8f31a5e860bb94efb50 -->
<g id="node2" class="node"><title>dir_879d833e0dfbe8f31a5e860bb94efb50</title>
<g id="a_node2"><a xlink:href="dir_879d833e0dfbe8f31a5e860bb94efb50.html" target="_top" xlink:title="util">
<polygon fill="white" stroke="red" points="77.5,-108 23.5,-108 23.5,-72 77.5,-72 77.5,-108"/>
<text text-anchor="middle" x="50.5" y="-87.5" font-family="Helvetica,sans-Serif" font-size="10.00">util</text>
</a>
</g>
</g>
<!-- dir_6ddbc195065ff24a50313c8ded16f5fe&#45;&gt;dir_879d833e0dfbe8f31a5e860bb94efb50 -->
<g id="edge2" class="edge"><title>dir_6ddbc195065ff24a50313c8ded16f5fe&#45;&gt;dir_879d833e0dfbe8f31a5e860bb94efb50</title>
<path fill="none" stroke="black" d="M70.8258,-143.697C67.7851,-135.813 64.1173,-126.304 60.7393,-117.546"/>
<polygon fill="black" stroke="black" points="63.9617,-116.175 57.0974,-108.104 57.4307,-118.694 63.9617,-116.175"/>
<g id="a_edge2&#45;headlabel"><a xlink:href="dir_000032_000028.html" target="_top" xlink:title="6">
<text text-anchor="middle" x="67.9043" y="-116.007" font-family="Helvetica,sans-Serif" font-size="10.00">6</text>
</a>
</g>
</g>
<!-- dir_fc0efe5d2249fba2a29c6d003d9b04e9 -->
<g id="node3" class="node"><title>dir_fc0efe5d2249fba2a29c6d003d9b04e9</title>
<g id="a_node3"><a xlink:href="dir_fc0efe5d2249fba2a29c6d003d9b04e9.html" target="_top" xlink:title="HybridAutomaton">
<polygon fill="white" stroke="red" points="101,-36 0,-36 0,-0 101,-0 101,-36"/>
<text text-anchor="middle" x="50.5" y="-15.5" font-family="Helvetica,sans-Serif" font-size="10.00">HybridAutomaton</text>
</a>
</g>
</g>
<!-- dir_6ddbc195065ff24a50313c8ded16f5fe&#45;&gt;dir_fc0efe5d2249fba2a29c6d003d9b04e9 -->
<g id="edge3" class="edge"><title>dir_6ddbc195065ff24a50313c8ded16f5fe&#45;&gt;dir_fc0efe5d2249fba2a29c6d003d9b04e9</title>
<path fill="none" stroke="black" d="M83.1461,-143.877C88.2573,-125.661 93.9405,-96.196 86.5,-72 83.4911,-62.2153 77.993,-52.6161 72.1843,-44.3336"/>
<polygon fill="black" stroke="black" points="74.9072,-42.1306 66.1099,-36.2264 69.3052,-46.3279 74.9072,-42.1306"/>
<g id="a_edge3&#45;headlabel"><a xlink:href="dir_000032_000025.html" target="_top" xlink:title="3">
<text text-anchor="middle" x="79.3348" y="-40.8048" font-family="Helvetica,sans-Serif" font-size="10.00">3</text>
</a>
</g>
</g>
<!-- dir_879d833e0dfbe8f31a5e860bb94efb50&#45;&gt;dir_fc0efe5d2249fba2a29c6d003d9b04e9 -->
<g id="edge1" class="edge"><title>dir_879d833e0dfbe8f31a5e860bb94efb50&#45;&gt;dir_fc0efe5d2249fba2a29c6d003d9b04e9</title>
<path fill="none" stroke="black" d="M44.5843,-71.6966C43.7886,-63.9827 43.5621,-54.7125 43.9047,-46.1124"/>
<polygon fill="black" stroke="black" points="47.3984,-46.3243 44.605,-36.1043 40.4154,-45.8356 47.3984,-46.3243"/>
<g id="a_edge1&#45;headlabel"><a xlink:href="dir_000028_000025.html" target="_top" xlink:title="1">
<text text-anchor="middle" x="49.9799" y="-47.6083" font-family="Helvetica,sans-Serif" font-size="10.00">1</text>
</a>
</g>
</g>
<!-- dir_fc0efe5d2249fba2a29c6d003d9b04e9&#45;&gt;dir_879d833e0dfbe8f31a5e860bb94efb50 -->
<g id="edge4" class="edge"><title>dir_fc0efe5d2249fba2a29c6d003d9b04e9&#45;&gt;dir_879d833e0dfbe8f31a5e860bb94efb50</title>
<path fill="none" stroke="black" d="M56.395,-36.1043C57.2005,-43.7913 57.4369,-53.0537 57.104,-61.6651"/>
<polygon fill="black" stroke="black" points="53.6085,-61.4805 56.4157,-71.6966 60.5921,-61.9597 53.6085,-61.4805"/>
<g id="a_edge4&#45;headlabel"><a xlink:href="dir_000025_000028.html" target="_top" xlink:title="3">
<text text-anchor="middle" x="51.0219" y="-55.2" font-family="Helvetica,sans-Serif" font-size="10.00">3</text>
</a>
</g>
</g>
</g>
</svg>
