<?xml version="1.0" encoding="UTF-8" standalone="no"?>
<!DOCTYPE svg PUBLIC "-//W3C//DTD SVG 1.1//EN"
 "http://www.w3.org/Graphics/SVG/1.1/DTD/svg11.dtd">
<!-- Generated by graphviz version 2.38.0 (20140413.2041)
 -->
<!-- Title: /home/travis/build/hypro/hypro/src/hypro/util/statistics Pages: 1 -->
<svg width="204pt" height="151pt"
 viewBox="0.00 0.00 204.00 151.00" xmlns="http://www.w3.org/2000/svg" xmlns:xlink="http://www.w3.org/1999/xlink">
<g id="graph0" class="graph" transform="scale(1 1) rotate(0) translate(4 147)">
<title>/home/travis/build/hypro/hypro/src/hypro/util/statistics</title>
<polygon fill="white" stroke="none" points="-4,4 -4,-147 200,-147 200,4 -4,4"/>
<g id="clust1" class="cluster"><title>clusterdir_879d833e0dfbe8f31a5e860bb94efb50</title>
<g id="a_clust1"><a xlink:href="dir_879d833e0dfbe8f31a5e860bb94efb50.html" target="_top" xlink:title="util">
<polygon fill="#ddddee" stroke="black" points="58,-64 58,-135 134,-135 134,-64 58,-64"/>
<text text-anchor="middle" x="96" y="-123" font-family="Helvetica,sans-Serif" font-size="10.00">util</text>
</a>
</g>
</g>
<!-- dir_57790bb148fd18efc2431dd25a248521 -->
<g id="node1" class="node"><title>dir_57790bb148fd18efc2431dd25a248521</title>
<g id="a_node1"><a xlink:href="dir_57790bb148fd18efc2431dd25a248521.html" target="_top" xlink:title="statistics">
<polygon fill="#eeeeff" stroke="black" points="125.5,-108 66.5,-108 66.5,-72 125.5,-72 125.5,-108"/>
<text text-anchor="middle" x="96" y="-87.5" font-family="Helvetica,sans-Serif" font-size="10.00">statistics</text>
</a>
</g>
</g>
<!-- dir_7ca2da3d0bdc47450f74c631953a3473 -->
<g id="node2" class="node"><title>dir_7ca2da3d0bdc47450f74c631953a3473</title>
<g id="a_node2"><a xlink:href="dir_7ca2da3d0bdc47450f74c631953a3473.html" target="_top" xlink:title="multithreading">
<polygon fill="none" stroke="black" points="86,-36 0,-36 0,-0 86,-0 86,-36"/>
<text text-anchor="middle" x="43" y="-15.5" font-family="Helvetica,sans-Serif" font-size="10.00">multithreading</text>
</a>
</g>
</g>
<!-- dir_57790bb148fd18efc2431dd25a248521&#45;&gt;dir_7ca2da3d0bdc47450f74c631953a3473 -->
<g id="edge1" class="edge"><title>dir_57790bb148fd18efc2431dd25a248521&#45;&gt;dir_7ca2da3d0bdc47450f74c631953a3473</title>
<path fill="none" stroke="black" d="M82.8989,-71.6966C76.6091,-63.3893 68.9526,-53.2771 62.0351,-44.1407"/>
<polygon fill="black" stroke="black" points="64.7773,-41.9642 55.9504,-36.1043 59.1964,-46.1897 64.7773,-41.9642"/>
<g id="a_edge1&#45;headlabel"><a xlink:href="dir_000060_000057.html" target="_top" xlink:title="1">
<text text-anchor="middle" x="69.2107" y="-40.6161" font-family="Helvetica,sans-Serif" font-size="10.00">1</text>
</a>
</g>
</g>
<!-- dir_7fa927d8fbf9dfbeef69af27f63bc81b -->
<g id="node3" class="node"><title>dir_7fa927d8fbf9dfbeef69af27f63bc81b</title>
<g id="a_node3"><a xlink:href="dir_7fa927d8fbf9dfbeef69af27f63bc81b.html" target="_top" xlink:title="representations">
<polygon fill="white" stroke="red" points="196,-36 104,-36 104,-0 196,-0 196,-36"/>
<text text-anchor="middle" x="150" y="-15.5" font-family="Helvetica,sans-Serif" font-size="10.00">representations</text>
</a>
</g>
</g>
<!-- dir_57790bb148fd18efc2431dd25a248521&#45;&gt;dir_7fa927d8fbf9dfbeef69af27f63bc81b -->
<g id="edge2" class="edge"><title>dir_57790bb148fd18efc2431dd25a248521&#45;&gt;dir_7fa927d8fbf9dfbeef69af27f63bc81b</title>
<path fill="none" stroke="black" d="M109.348,-71.6966C115.757,-63.3893 123.558,-53.2771 130.606,-44.1407"/>
<polygon fill="black" stroke="black" points="133.468,-46.16 136.805,-36.1043 127.926,-41.8844 133.468,-46.16"/>
<g id="a_edge2&#45;headlabel"><a xlink:href="dir_000060_000015.html" target="_top" xlink:title="1">
<text text-anchor="middle" x="133.521" y="-48.2404" font-family="Helvetica,sans-Serif" font-size="10.00">1</text>
</a>
</g>
</g>
</g>
</svg>
