<?xml version="1.0" encoding="UTF-8" standalone="no"?>
<!DOCTYPE svg PUBLIC "-//W3C//DTD SVG 1.1//EN"
 "http://www.w3.org/Graphics/SVG/1.1/DTD/svg11.dtd">
<!-- Generated by graphviz version 2.38.0 (20140413.2041)
 -->
<!-- Title: /home/travis/build/hypro/hypro/src/hypro/representations/Polytopes/carlPolytope Pages: 1 -->
<svg width="157pt" height="295pt"
 viewBox="0.00 0.00 157.00 295.00" xmlns="http://www.w3.org/2000/svg" xmlns:xlink="http://www.w3.org/1999/xlink">
<g id="graph0" class="graph" transform="scale(1 1) rotate(0) translate(4 291)">
<title>/home/travis/build/hypro/hypro/src/hypro/representations/Polytopes/carlPolytope</title>
<polygon fill="white" stroke="none" points="-4,4 -4,-291 153,-291 153,4 -4,4"/>
<g id="clust1" class="cluster"><title>clusterdir_ad938787f25f17484dcf7b42a899a1a5</title>
<g id="a_clust1"><a xlink:href="dir_ad938787f25f17484dcf7b42a899a1a5.html" target="_top" xlink:title="Polytopes">
<polygon fill="#ddddee" stroke="black" points="8,-208 8,-279 98,-279 98,-208 8,-208"/>
<text text-anchor="middle" x="53" y="-267" font-family="Helvetica,sans-Serif" font-size="10.00">Polytopes</text>
</a>
</g>
</g>
<!-- dir_1af6716d628c86fbaf49b4d06740528b -->
<g id="node1" class="node"><title>dir_1af6716d628c86fbaf49b4d06740528b</title>
<g id="a_node1"><a xlink:href="dir_1af6716d628c86fbaf49b4d06740528b.html" target="_top" xlink:title="carlPolytope">
<polygon fill="#eeeeff" stroke="black" points="90.5,-252 15.5,-252 15.5,-216 90.5,-216 90.5,-252"/>
<text text-anchor="middle" x="53" y="-231.5" font-family="Helvetica,sans-Serif" font-size="10.00">carlPolytope</text>
</a>
</g>
</g>
<!-- dir_879d833e0dfbe8f31a5e860bb94efb50 -->
<g id="node2" class="node"><title>dir_879d833e0dfbe8f31a5e860bb94efb50</title>
<g id="a_node2"><a xlink:href="dir_879d833e0dfbe8f31a5e860bb94efb50.html" target="_top" xlink:title="util">
<polygon fill="white" stroke="red" points="92,-108 38,-108 38,-72 92,-72 92,-108"/>
<text text-anchor="middle" x="65" y="-87.5" font-family="Helvetica,sans-Serif" font-size="10.00">util</text>
</a>
</g>
</g>
<!-- dir_1af6716d628c86fbaf49b4d06740528b&#45;&gt;dir_879d833e0dfbe8f31a5e860bb94efb50 -->
<g id="edge1" class="edge"><title>dir_1af6716d628c86fbaf49b4d06740528b&#45;&gt;dir_879d833e0dfbe8f31a5e860bb94efb50</title>
<path fill="none" stroke="black" d="M54.4475,-215.871C56.4927,-191.67 60.2498,-147.211 62.6851,-118.393"/>
<polygon fill="black" stroke="black" points="66.1928,-118.449 63.5474,-108.189 59.2177,-117.859 66.1928,-118.449"/>
<g id="a_edge1&#45;headlabel"><a xlink:href="dir_000018_000028.html" target="_top" xlink:title="4">
<text text-anchor="middle" x="68.7194" y="-119.769" font-family="Helvetica,sans-Serif" font-size="10.00">4</text>
</a>
</g>
</g>
<!-- dir_bce2075adec303dcb2f0c4fbfcbc8493 -->
<g id="node3" class="node"><title>dir_bce2075adec303dcb2f0c4fbfcbc8493</title>
<g id="a_node3"><a xlink:href="dir_bce2075adec303dcb2f0c4fbfcbc8493.html" target="_top" xlink:title="datastructures">
<polygon fill="white" stroke="red" points="108.5,-36 21.5,-36 21.5,-0 108.5,-0 108.5,-36"/>
<text text-anchor="middle" x="65" y="-15.5" font-family="Helvetica,sans-Serif" font-size="10.00">datastructures</text>
</a>
</g>
</g>
<!-- dir_1af6716d628c86fbaf49b4d06740528b&#45;&gt;dir_bce2075adec303dcb2f0c4fbfcbc8493 -->
<g id="edge2" class="edge"><title>dir_1af6716d628c86fbaf49b4d06740528b&#45;&gt;dir_bce2075adec303dcb2f0c4fbfcbc8493</title>
<path fill="none" stroke="black" d="M45.5141,-215.705C33.6474,-185.807 13.384,-122.782 29,-72 32.0089,-62.2153 37.507,-52.6161 43.3157,-44.3336"/>
<polygon fill="black" stroke="black" points="46.1948,-46.3279 49.3901,-36.2264 40.5928,-42.1306 46.1948,-46.3279"/>
<g id="a_edge2&#45;headlabel"><a xlink:href="dir_000018_000024.html" target="_top" xlink:title="2">
<text text-anchor="middle" x="46.3117" y="-48.4071" font-family="Helvetica,sans-Serif" font-size="10.00">2</text>
</a>
</g>
</g>
<!-- dir_55730fee9a0c1f12da77eb14a8325c4c -->
<g id="node4" class="node"><title>dir_55730fee9a0c1f12da77eb14a8325c4c</title>
<g id="a_node4"><a xlink:href="dir_55730fee9a0c1f12da77eb14a8325c4c.html" target="_top" xlink:title="algorithms">
<polygon fill="white" stroke="red" points="149,-180 81,-180 81,-144 149,-144 149,-180"/>
<text text-anchor="middle" x="115" y="-159.5" font-family="Helvetica,sans-Serif" font-size="10.00">algorithms</text>
</a>
</g>
</g>
<!-- dir_1af6716d628c86fbaf49b4d06740528b&#45;&gt;dir_55730fee9a0c1f12da77eb14a8325c4c -->
<g id="edge3" class="edge"><title>dir_1af6716d628c86fbaf49b4d06740528b&#45;&gt;dir_55730fee9a0c1f12da77eb14a8325c4c</title>
<path fill="none" stroke="black" d="M68.3258,-215.697C75.7588,-207.305 84.8233,-197.07 92.98,-187.861"/>
<polygon fill="black" stroke="black" points="95.8401,-189.911 99.8504,-180.104 90.6,-185.27 95.8401,-189.911"/>
<g id="a_edge3&#45;headlabel"><a xlink:href="dir_000018_000003.html" target="_top" xlink:title="1">
<text text-anchor="middle" x="95.5822" y="-191.984" font-family="Helvetica,sans-Serif" font-size="10.00">1</text>
</a>
</g>
</g>
<!-- dir_879d833e0dfbe8f31a5e860bb94efb50&#45;&gt;dir_bce2075adec303dcb2f0c4fbfcbc8493 -->
<g id="edge4" class="edge"><title>dir_879d833e0dfbe8f31a5e860bb94efb50&#45;&gt;dir_bce2075adec303dcb2f0c4fbfcbc8493</title>
<path fill="none" stroke="black" d="M59.0843,-71.6966C58.2886,-63.9827 58.0621,-54.7125 58.4047,-46.1124"/>
<polygon fill="black" stroke="black" points="61.8984,-46.3243 59.105,-36.1043 54.9154,-45.8356 61.8984,-46.3243"/>
<g id="a_edge4&#45;headlabel"><a xlink:href="dir_000028_000024.html" target="_top" xlink:title="12">
<text text-anchor="middle" x="64.4799" y="-47.6083" font-family="Helvetica,sans-Serif" font-size="10.00">12</text>
</a>
</g>
</g>
<!-- dir_bce2075adec303dcb2f0c4fbfcbc8493&#45;&gt;dir_879d833e0dfbe8f31a5e860bb94efb50 -->
<g id="edge5" class="edge"><title>dir_bce2075adec303dcb2f0c4fbfcbc8493&#45;&gt;dir_879d833e0dfbe8f31a5e860bb94efb50</title>
<path fill="none" stroke="black" d="M70.895,-36.1043C71.7005,-43.7913 71.9369,-53.0537 71.604,-61.6651"/>
<polygon fill="black" stroke="black" points="68.1085,-61.4805 70.9157,-71.6966 75.0921,-61.9597 68.1085,-61.4805"/>
<g id="a_edge5&#45;headlabel"><a xlink:href="dir_000024_000028.html" target="_top" xlink:title="25">
<text text-anchor="middle" x="65.5219" y="-55.2" font-family="Helvetica,sans-Serif" font-size="10.00">25</text>
</a>
</g>
</g>
<!-- dir_55730fee9a0c1f12da77eb14a8325c4c&#45;&gt;dir_879d833e0dfbe8f31a5e860bb94efb50 -->
<g id="edge6" class="edge"><title>dir_55730fee9a0c1f12da77eb14a8325c4c&#45;&gt;dir_879d833e0dfbe8f31a5e860bb94efb50</title>
<path fill="none" stroke="black" d="M102.64,-143.697C96.7672,-135.474 89.6309,-125.483 83.1576,-116.421"/>
<polygon fill="black" stroke="black" points="85.8779,-114.207 77.2174,-108.104 80.1817,-118.276 85.8779,-114.207"/>
<g id="a_edge6&#45;headlabel"><a xlink:href="dir_000003_000028.html" target="_top" xlink:title="11">
<text text-anchor="middle" x="90.2776" y="-112.982" font-family="Helvetica,sans-Serif" font-size="10.00">11</text>
</a>
</g>
</g>
<!-- dir_55730fee9a0c1f12da77eb14a8325c4c&#45;&gt;dir_bce2075adec303dcb2f0c4fbfcbc8493 -->
<g id="edge7" class="edge"><title>dir_55730fee9a0c1f12da77eb14a8325c4c&#45;&gt;dir_bce2075adec303dcb2f0c4fbfcbc8493</title>
<path fill="none" stroke="black" d="M114.509,-143.685C113.484,-125.309 110.37,-95.7112 101,-72 97.177,-62.326 91.3432,-52.6473 85.4778,-44.2584"/>
<polygon fill="black" stroke="black" points="88.1788,-42.0232 79.437,-36.0373 82.5379,-46.1682 88.1788,-42.0232"/>
<g id="a_edge7&#45;headlabel"><a xlink:href="dir_000003_000024.html" target="_top" xlink:title="64">
<text text-anchor="middle" x="92.5952" y="-40.7387" font-family="Helvetica,sans-Serif" font-size="10.00">64</text>
</a>
</g>
</g>
</g>
</svg>
