<?xml version="1.0" encoding="UTF-8" standalone="no"?>
<!DOCTYPE svg PUBLIC "-//W3C//DTD SVG 1.1//EN"
 "http://www.w3.org/Graphics/SVG/1.1/DTD/svg11.dtd">
<!-- Generated by graphviz version 2.38.0 (20140413.2041)
 -->
<!-- Title: /home/travis/build/hypro/hypro/src/hypro/algorithms Pages: 1 -->
<!--zoomable 257 -->
<svg id="main" version="1.1" xmlns="http://www.w3.org/2000/svg" xmlns:xlink="http://www.w3.org/1999/xlink" xml:space="preserve" onload="init(evt)">
<style type="text/css"><![CDATA[
.edge:hover path { stroke: red; }
.edge:hover polygon { stroke: red; fill: red; }
]]></style>
<script type="text/javascript"><![CDATA[
var edges = document.getElementsByTagName('g');
if (edges && edges.length) {
  for (var i=0;i<edges.length;i++) {
    if (edges[i].id.substr(0,4)=='edge') {
      edges[i].setAttribute('class','edge');
    }
  }
}
]]></script>
        <defs>
                <circle id="rim" cx="0" cy="0" r="7"/>
                <circle id="rim2" cx="0" cy="0" r="3.5"/>
                <g id="zoomPlus">
                        <use xlink:href="#rim" fill="#404040">
                                <set attributeName="fill" to="#808080" begin="zoomplus.mouseover" end="zoomplus.mouseout"/>
                        </use>
                        <path d="M-4,0h8M0,-4v8" fill="none" stroke="white" stroke-width="1.5" pointer-events="none"/>
                </g>
                <g id="zoomMin">
                        <use xlink:href="#rim" fill="#404040">
                                <set attributeName="fill" to="#808080" begin="zoomminus.mouseover" end="zoomminus.mouseout"/>
                        </use>
                        <path d="M-4,0h8" fill="none" stroke="white" stroke-width="1.5" pointer-events="none"/>
                </g>
                <g id="dirArrow">
                        <path fill="none" stroke="white" stroke-width="1.5" d="M0,-3.0v7 M-2.5,-0.5L0,-3.0L2.5,-0.5"/>
                </g>
               <g id="resetDef">
                       <use xlink:href="#rim2" fill="#404040">
                               <set attributeName="fill" to="#808080" begin="reset.mouseover" end="reset.mouseout"/>
                       </use>
               </g>
        </defs>

<script type="text/javascript">
var viewWidth = 617;
var viewHeight = 257;
var sectionId = 'dynsection-0';
</script>
<script xlink:href="svgpan.js"/>
<svg id="graph" class="graph">
<g id="viewport">
<title>/home/travis/build/hypro/hypro/src/hypro/algorithms</title>
<polygon fill="white" stroke="none" points="-4,4 -4,-252.632 613,-252.632 613,4 -4,4"/>
<g id="clust1" class="cluster"><title>clusterdir_2ce0cb9797b50c8d842bc50008b46cdd</title>
<g id="a_clust1"><a xlink:href="dir_2ce0cb9797b50c8d842bc50008b46cdd.html" target="_top" xlink:title="hypro">
<polygon fill="#ddddee" stroke="black" points="8,-128 8,-215 547,-215 547,-128 8,-128"/>
<text text-anchor="middle" x="277.5" y="-203" font-family="Helvetica,sans-Serif" font-size="10.00">hypro</text>
</a>
</g>
</g>
<g id="clust2" class="cluster"><title>clusterdir_55730fee9a0c1f12da77eb14a8325c4c</title>
<g id="a_clust2"><a xlink:href="dir_55730fee9a0c1f12da77eb14a8325c4c.html" target="_top">
<polygon fill="#eeeeff" stroke="black" points="16,-136 16,-188 539,-188 539,-136 16,-136"/>
</a>
</g>
</g>
<!-- dir_55730fee9a0c1f12da77eb14a8325c4c -->
<g id="node1" class="node"><title>dir_55730fee9a0c1f12da77eb14a8325c4c</title>
<text text-anchor="middle" x="497" y="-159.5" font-family="Helvetica,sans-Serif" font-size="10.00">algorithms</text>
</g>
<!-- dir_3595f83f5be0d6a3539bc1ea5a059474 -->
<g id="node2" class="node"><title>dir_3595f83f5be0d6a3539bc1ea5a059474</title>
<g id="a_node2"><a xlink:href="dir_3595f83f5be0d6a3539bc1ea5a059474.html" target="_top" xlink:title="convexHull">
<polygon fill="white" stroke="black" points="313,-180 245,-180 245,-144 313,-144 313,-180"/>
<text text-anchor="middle" x="279" y="-159.5" font-family="Helvetica,sans-Serif" font-size="10.00">convexHull</text>
</a>
</g>
</g>
<!-- dir_879d833e0dfbe8f31a5e860bb94efb50 -->
<g id="node6" class="node"><title>dir_879d833e0dfbe8f31a5e860bb94efb50</title>
<g id="a_node6"><a xlink:href="dir_879d833e0dfbe8f31a5e860bb94efb50.html" target="_top" xlink:title="util">
<polygon fill="white" stroke="red" points="609,-180 555,-180 555,-144 609,-144 609,-180"/>
<text text-anchor="middle" x="582" y="-159.5" font-family="Helvetica,sans-Serif" font-size="10.00">util</text>
</a>
</g>
</g>
<!-- dir_3595f83f5be0d6a3539bc1ea5a059474&#45;&gt;dir_879d833e0dfbe8f31a5e860bb94efb50 -->
<g id="edge10" class="edge"><title>dir_3595f83f5be0d6a3539bc1ea5a059474&#45;&gt;dir_879d833e0dfbe8f31a5e860bb94efb50</title>
<path fill="none" stroke="black" d="M286.407,-180.123C294.522,-197.285 309.334,-222.012 331,-233 371.233,-253.403 494.158,-254.157 534,-233 551.303,-223.812 563.505,-205.292 571.276,-189.471"/>
<polygon fill="black" stroke="black" points="574.594,-190.629 575.548,-180.077 568.222,-187.731 574.594,-190.629"/>
<g id="a_edge10&#45;headlabel"><a xlink:href="dir_000004_000028.html" target="_top" xlink:title="1">
<text text-anchor="middle" x="575.691" y="-192.576" font-family="Helvetica,sans-Serif" font-size="10.00">1</text>
</a>
</g>
</g>
<!-- dir_bce2075adec303dcb2f0c4fbfcbc8493 -->
<g id="node7" class="node"><title>dir_bce2075adec303dcb2f0c4fbfcbc8493</title>
<g id="a_node7"><a xlink:href="dir_bce2075adec303dcb2f0c4fbfcbc8493.html" target="_top" xlink:title="datastructures">
<polygon fill="white" stroke="red" points="321.5,-108 234.5,-108 234.5,-72 321.5,-72 321.5,-108"/>
<text text-anchor="middle" x="278" y="-87.5" font-family="Helvetica,sans-Serif" font-size="10.00">datastructures</text>
</a>
</g>
</g>
<!-- dir_3595f83f5be0d6a3539bc1ea5a059474&#45;&gt;dir_bce2075adec303dcb2f0c4fbfcbc8493 -->
<g id="edge11" class="edge"><title>dir_3595f83f5be0d6a3539bc1ea5a059474&#45;&gt;dir_bce2075adec303dcb2f0c4fbfcbc8493</title>
<path fill="none" stroke="black" d="M278.753,-143.697C278.643,-135.983 278.51,-126.712 278.387,-118.112"/>
<polygon fill="black" stroke="black" points="281.887,-118.053 278.244,-108.104 274.888,-118.153 281.887,-118.053"/>
<g id="a_edge11&#45;headlabel"><a xlink:href="dir_000004_000024.html" target="_top" xlink:title="4">
<text text-anchor="middle" x="284.777" y="-119.107" font-family="Helvetica,sans-Serif" font-size="10.00">4</text>
</a>
</g>
</g>
<!-- dir_633a5d29f60255dcee3b171168087cee -->
<g id="node3" class="node"><title>dir_633a5d29f60255dcee3b171168087cee</title>
<g id="a_node3"><a xlink:href="dir_633a5d29f60255dcee3b171168087cee.html" target="_top" xlink:title="eigendecomposition">
<polygon fill="white" stroke="black" points="137.5,-180 24.5,-180 24.5,-144 137.5,-144 137.5,-180"/>
<text text-anchor="middle" x="81" y="-159.5" font-family="Helvetica,sans-Serif" font-size="10.00">eigendecomposition</text>
</a>
</g>
</g>
<!-- dir_633a5d29f60255dcee3b171168087cee&#45;&gt;dir_bce2075adec303dcb2f0c4fbfcbc8493 -->
<g id="edge1" class="edge"><title>dir_633a5d29f60255dcee3b171168087cee&#45;&gt;dir_bce2075adec303dcb2f0c4fbfcbc8493</title>
<path fill="none" stroke="black" d="M111.51,-143.951C122.21,-138.394 134.444,-132.503 146,-128 171.338,-118.128 200.353,-109.697 224.715,-103.388"/>
<polygon fill="black" stroke="black" points="225.668,-106.758 234.498,-100.903 223.944,-99.973 225.668,-106.758"/>
<g id="a_edge1&#45;headlabel"><a xlink:href="dir_000005_000024.html" target="_top" xlink:title="2">
<text text-anchor="middle" x="222.883" y="-107.894" font-family="Helvetica,sans-Serif" font-size="10.00">2</text>
</a>
</g>
</g>
<!-- dir_7fa927d8fbf9dfbeef69af27f63bc81b -->
<g id="node8" class="node"><title>dir_7fa927d8fbf9dfbeef69af27f63bc81b</title>
<g id="a_node8"><a xlink:href="dir_7fa927d8fbf9dfbeef69af27f63bc81b.html" target="_top" xlink:title="representations">
<polygon fill="white" stroke="red" points="360,-36 268,-36 268,-0 360,-0 360,-36"/>
<text text-anchor="middle" x="314" y="-15.5" font-family="Helvetica,sans-Serif" font-size="10.00">representations</text>
</a>
</g>
</g>
<!-- dir_633a5d29f60255dcee3b171168087cee&#45;&gt;dir_7fa927d8fbf9dfbeef69af27f63bc81b -->
<g id="edge2" class="edge"><title>dir_633a5d29f60255dcee3b171168087cee&#45;&gt;dir_7fa927d8fbf9dfbeef69af27f63bc81b</title>
<path fill="none" stroke="black" d="M101.359,-143.92C124.551,-124.944 164.033,-94.0763 201,-72 220.674,-60.2509 243.376,-49.1645 263.248,-40.1982"/>
<polygon fill="black" stroke="black" points="264.739,-43.3658 272.453,-36.1035 261.894,-36.97 264.739,-43.3658"/>
<g id="a_edge2&#45;headlabel"><a xlink:href="dir_000005_000015.html" target="_top" xlink:title="1">
<text text-anchor="middle" x="262.609" y="-44.9209" font-family="Helvetica,sans-Serif" font-size="10.00">1</text>
</a>
</g>
</g>
<!-- dir_8e1cf8159583139d36cb634ef41645c7 -->
<g id="node4" class="node"><title>dir_8e1cf8159583139d36cb634ef41645c7</title>
<g id="a_node4"><a xlink:href="dir_8e1cf8159583139d36cb634ef41645c7.html" target="_top" xlink:title="quantifierElimination">
<polygon fill="white" stroke="black" points="445,-180 331,-180 331,-144 445,-144 445,-180"/>
<text text-anchor="middle" x="388" y="-159.5" font-family="Helvetica,sans-Serif" font-size="10.00">quantifierElimination</text>
</a>
</g>
</g>
<!-- dir_6a6edf7123c81d000975d26367682a7a -->
<g id="node5" class="node"><title>dir_6a6edf7123c81d000975d26367682a7a</title>
<g id="a_node5"><a xlink:href="dir_6a6edf7123c81d000975d26367682a7a.html" target="_top" xlink:title="reachability">
<polygon fill="white" stroke="red" points="226.5,-180 155.5,-180 155.5,-144 226.5,-144 226.5,-180"/>
<text text-anchor="middle" x="191" y="-159.5" font-family="Helvetica,sans-Serif" font-size="10.00">reachability</text>
</a>
</g>
</g>
<!-- dir_6a6edf7123c81d000975d26367682a7a&#45;&gt;dir_879d833e0dfbe8f31a5e860bb94efb50 -->
<g id="edge7" class="edge"><title>dir_6a6edf7123c81d000975d26367682a7a&#45;&gt;dir_879d833e0dfbe8f31a5e860bb94efb50</title>
<path fill="none" stroke="black" d="M198.881,-180.145C207.451,-197.322 222.939,-222.062 245,-233 273.769,-247.264 505.64,-248.06 534,-233 551.303,-223.812 563.505,-205.292 571.276,-189.471"/>
<polygon fill="black" stroke="black" points="574.594,-190.629 575.548,-180.077 568.222,-187.731 574.594,-190.629"/>
<g id="a_edge7&#45;headlabel"><a xlink:href="dir_000007_000028.html" target="_top" xlink:title="10">
<text text-anchor="middle" x="575.691" y="-192.576" font-family="Helvetica,sans-Serif" font-size="10.00">10</text>
</a>
</g>
</g>
<!-- dir_6a6edf7123c81d000975d26367682a7a&#45;&gt;dir_bce2075adec303dcb2f0c4fbfcbc8493 -->
<g id="edge8" class="edge"><title>dir_6a6edf7123c81d000975d26367682a7a&#45;&gt;dir_bce2075adec303dcb2f0c4fbfcbc8493</title>
<path fill="none" stroke="black" d="M212.506,-143.697C223.463,-134.881 236.946,-124.032 248.825,-114.474"/>
<polygon fill="black" stroke="black" points="251.145,-117.1 256.742,-108.104 246.756,-111.646 251.145,-117.1"/>
<g id="a_edge8&#45;headlabel"><a xlink:href="dir_000007_000024.html" target="_top" xlink:title="58">
<text text-anchor="middle" x="250.124" y="-119.066" font-family="Helvetica,sans-Serif" font-size="10.00">58</text>
</a>
</g>
</g>
<!-- dir_6a6edf7123c81d000975d26367682a7a&#45;&gt;dir_7fa927d8fbf9dfbeef69af27f63bc81b -->
<g id="edge9" class="edge"><title>dir_6a6edf7123c81d000975d26367682a7a&#45;&gt;dir_7fa927d8fbf9dfbeef69af27f63bc81b</title>
<path fill="none" stroke="black" d="M194.024,-143.874C198.168,-124.573 207.22,-93.1394 225,-72 235.54,-59.4684 249.842,-49.1463 263.896,-41.0473"/>
<polygon fill="black" stroke="black" points="265.955,-43.9107 273.053,-36.0453 262.6,-37.7673 265.955,-43.9107"/>
<g id="a_edge9&#45;headlabel"><a xlink:href="dir_000007_000015.html" target="_top" xlink:title="6">
<text text-anchor="middle" x="264.161" y="-45.6255" font-family="Helvetica,sans-Serif" font-size="10.00">6</text>
</a>
</g>
</g>
<!-- dir_879d833e0dfbe8f31a5e860bb94efb50&#45;&gt;dir_bce2075adec303dcb2f0c4fbfcbc8493 -->
<g id="edge3" class="edge"><title>dir_879d833e0dfbe8f31a5e860bb94efb50&#45;&gt;dir_bce2075adec303dcb2f0c4fbfcbc8493</title>
<path fill="none" stroke="black" d="M557.589,-143.896C550.436,-137.918 542.421,-131.765 534,-128 498.499,-112.126 396.083,-101.189 331.983,-95.5216"/>
<polygon fill="black" stroke="black" points="331.917,-92.0028 321.652,-94.6242 331.311,-98.9766 331.917,-92.0028"/>
<g id="a_edge3&#45;headlabel"><a xlink:href="dir_000028_000024.html" target="_top" xlink:title="12">
<text text-anchor="middle" x="335.744" y="-86.9852" font-family="Helvetica,sans-Serif" font-size="10.00">12</text>
</a>
</g>
</g>
<!-- dir_879d833e0dfbe8f31a5e860bb94efb50&#45;&gt;dir_7fa927d8fbf9dfbeef69af27f63bc81b -->
<g id="edge4" class="edge"><title>dir_879d833e0dfbe8f31a5e860bb94efb50&#45;&gt;dir_7fa927d8fbf9dfbeef69af27f63bc81b</title>
<path fill="none" stroke="black" d="M555.198,-143.853C548.426,-138.413 541.154,-132.618 534,-128 477.534,-91.5475 406.99,-59.813 361.138,-40.13"/>
<polygon fill="black" stroke="black" points="362.314,-36.8262 351.743,-36.1154 359.563,-43.2632 362.314,-36.8262"/>
<g id="a_edge4&#45;headlabel"><a xlink:href="dir_000028_000015.html" target="_top" xlink:title="2">
<text text-anchor="middle" x="366.735" y="-33.1277" font-family="Helvetica,sans-Serif" font-size="10.00">2</text>
</a>
</g>
</g>
<!-- dir_bce2075adec303dcb2f0c4fbfcbc8493&#45;&gt;dir_879d833e0dfbe8f31a5e860bb94efb50 -->
<g id="edge5" class="edge"><title>dir_bce2075adec303dcb2f0c4fbfcbc8493&#45;&gt;dir_879d833e0dfbe8f31a5e860bb94efb50</title>
<path fill="none" stroke="black" d="M321.691,-93.7112C388.567,-98.6379 512.244,-110.223 552,-128 557.263,-130.353 562.368,-133.639 566.908,-137.232"/>
<polygon fill="black" stroke="black" points="564.589,-139.854 574.382,-143.896 569.247,-134.629 564.589,-139.854"/>
<g id="a_edge5&#45;headlabel"><a xlink:href="dir_000024_000028.html" target="_top" xlink:title="25">
<text text-anchor="middle" x="560.016" y="-137.081" font-family="Helvetica,sans-Serif" font-size="10.00">25</text>
</a>
</g>
</g>
<!-- dir_bce2075adec303dcb2f0c4fbfcbc8493&#45;&gt;dir_7fa927d8fbf9dfbeef69af27f63bc81b -->
<g id="edge6" class="edge"><title>dir_bce2075adec303dcb2f0c4fbfcbc8493&#45;&gt;dir_7fa927d8fbf9dfbeef69af27f63bc81b</title>
<path fill="none" stroke="black" d="M280.983,-71.6966C284.294,-63.6436 289.098,-53.8945 294.091,-44.9824"/>
<polygon fill="black" stroke="black" points="297.259,-46.4991 299.308,-36.1043 291.224,-42.9523 297.259,-46.4991"/>
<g id="a_edge6&#45;headlabel"><a xlink:href="dir_000024_000015.html" target="_top" xlink:title="12">
<text text-anchor="middle" x="297.886" y="-48.5367" font-family="Helvetica,sans-Serif" font-size="10.00">12</text>
</a>
</g>
</g>
<!-- dir_7fa927d8fbf9dfbeef69af27f63bc81b&#45;&gt;dir_3595f83f5be0d6a3539bc1ea5a059474 -->
<g id="edge15" class="edge"><title>dir_7fa927d8fbf9dfbeef69af27f63bc81b&#45;&gt;dir_3595f83f5be0d6a3539bc1ea5a059474</title>
<path fill="none" stroke="black" d="M322.587,-36.3059C330.463,-54.6737 339.565,-84.2653 330,-108 325.651,-118.791 317.938,-128.614 309.806,-136.791"/>
<polygon fill="black" stroke="black" points="307.21,-134.428 302.305,-143.819 311.996,-139.536 307.21,-134.428"/>
<g id="a_edge15&#45;headlabel"><a xlink:href="dir_000015_000004.html" target="_top" xlink:title="2">
<text text-anchor="middle" x="307.892" y="-127.398" font-family="Helvetica,sans-Serif" font-size="10.00">2</text>
</a>
</g>
</g>
<!-- dir_7fa927d8fbf9dfbeef69af27f63bc81b&#45;&gt;dir_8e1cf8159583139d36cb634ef41645c7 -->
<g id="edge14" class="edge"><title>dir_7fa927d8fbf9dfbeef69af27f63bc81b&#45;&gt;dir_8e1cf8159583139d36cb634ef41645c7</title>
<path fill="none" stroke="black" d="M325.563,-36.3399C332.168,-46.5365 340.418,-59.7865 347,-72 358.1,-92.5964 369.107,-116.75 376.917,-134.694"/>
<polygon fill="black" stroke="black" points="373.738,-136.161 380.907,-143.962 380.167,-133.393 373.738,-136.161"/>
<g id="a_edge14&#45;headlabel"><a xlink:href="dir_000015_000006.html" target="_top" xlink:title="1">
<text text-anchor="middle" x="369.709" y="-131.482" font-family="Helvetica,sans-Serif" font-size="10.00">1</text>
</a>
</g>
</g>
<!-- dir_7fa927d8fbf9dfbeef69af27f63bc81b&#45;&gt;dir_879d833e0dfbe8f31a5e860bb94efb50 -->
<g id="edge12" class="edge"><title>dir_7fa927d8fbf9dfbeef69af27f63bc81b&#45;&gt;dir_879d833e0dfbe8f31a5e860bb94efb50</title>
<path fill="none" stroke="black" d="M360.118,-34.2264C409.709,-53.0657 489.483,-87.6412 552,-128 556.247,-130.742 560.537,-133.899 564.54,-137.15"/>
<polygon fill="black" stroke="black" points="562.406,-139.933 572.248,-143.853 566.999,-134.65 562.406,-139.933"/>
<g id="a_edge12&#45;headlabel"><a xlink:href="dir_000015_000028.html" target="_top" xlink:title="43">
<text text-anchor="middle" x="557.83" y="-137.216" font-family="Helvetica,sans-Serif" font-size="10.00">43</text>
</a>
</g>
</g>
<!-- dir_7fa927d8fbf9dfbeef69af27f63bc81b&#45;&gt;dir_bce2075adec303dcb2f0c4fbfcbc8493 -->
<g id="edge13" class="edge"><title>dir_7fa927d8fbf9dfbeef69af27f63bc81b&#45;&gt;dir_bce2075adec303dcb2f0c4fbfcbc8493</title>
<path fill="none" stroke="black" d="M311.099,-36.1043C307.812,-44.1291 303.023,-53.871 298.033,-62.7967"/>
<polygon fill="black" stroke="black" points="294.853,-61.2998 292.815,-71.6966 300.892,-64.8403 294.853,-61.2998"/>
<g id="a_edge13&#45;headlabel"><a xlink:href="dir_000015_000024.html" target="_top" xlink:title="25">
<text text-anchor="middle" x="294.222" y="-54.2628" font-family="Helvetica,sans-Serif" font-size="10.00">25</text>
</a>
</g>
</g>
</g>
</svg>
        <g id="navigator" transform="translate(0 0)" fill="#404254">
                <rect fill="#f2f5e9" fill-opacity="0.5" stroke="#606060" stroke-width=".5" x="0" y="0" width="60" height="60"/>
                <use id="zoomplus" xlink:href="#zoomPlus" x="17" y="9" onmousedown="handleZoom(evt,'in')"/>
                <use id="zoomminus" xlink:href="#zoomMin" x="42" y="9" onmousedown="handleZoom(evt,'out')"/>
                <use id="reset" xlink:href="#resetDef" x="30" y="36" onmousedown="handleReset()"/>
                <g id="arrowUp" xlink:href="#dirArrow" transform="translate(30 24)" onmousedown="handlePan(0,-1)">
                  <use xlink:href="#rim" fill="#404040">
                        <set attributeName="fill" to="#808080" begin="arrowUp.mouseover" end="arrowUp.mouseout"/>
                  </use>
                  <path fill="none" stroke="white" stroke-width="1.5" d="M0,-3.0v7 M-2.5,-0.5L0,-3.0L2.5,-0.5"/>
                </g>
                <g id="arrowRight" xlink:href="#dirArrow" transform="rotate(90) translate(36 -43)" onmousedown="handlePan(1,0)">
                  <use xlink:href="#rim" fill="#404040">
                        <set attributeName="fill" to="#808080" begin="arrowRight.mouseover" end="arrowRight.mouseout"/>
                  </use>
                  <path fill="none" stroke="white" stroke-width="1.5" d="M0,-3.0v7 M-2.5,-0.5L0,-3.0L2.5,-0.5"/>
                </g>
                <g id="arrowDown" xlink:href="#dirArrow" transform="rotate(180) translate(-30 -48)" onmousedown="handlePan(0,1)">
                  <use xlink:href="#rim" fill="#404040">
                        <set attributeName="fill" to="#808080" begin="arrowDown.mouseover" end="arrowDown.mouseout"/>
                  </use>
                  <path fill="none" stroke="white" stroke-width="1.5" d="M0,-3.0v7 M-2.5,-0.5L0,-3.0L2.5,-0.5"/>
                </g>
                <g id="arrowLeft" xlink:href="#dirArrow" transform="rotate(270) translate(-36 17)" onmousedown="handlePan(-1,0)">
                  <use xlink:href="#rim" fill="#404040">
                        <set attributeName="fill" to="#808080" begin="arrowLeft.mouseover" end="arrowLeft.mouseout"/>
                  </use>
                  <path fill="none" stroke="white" stroke-width="1.5" d="M0,-3.0v7 M-2.5,-0.5L0,-3.0L2.5,-0.5"/>
                </g>
        </g>
        <svg viewBox="0 0 15 15" width="100%" height="30px" preserveAspectRatio="xMaxYMin meet">
         <g id="arrow_out" transform="scale(0.3 0.3)">
          <a xlink:href="dir_55730fee9a0c1f12da77eb14a8325c4c_dep_org.svg" target="_base">
           <rect id="button" ry="5" rx="5" y="6" x="6" height="38" width="38"
                fill="#f2f5e9" fill-opacity="0.5" stroke="#606060" stroke-width="1.0"/>
           <path id="arrow"
             d="M 11.500037,31.436501 C 11.940474,20.09759 22.043105,11.32322 32.158766,21.979434 L 37.068811,17.246167 C 37.068811,17.246167 37.088388,32 37.088388,32 L 22.160133,31.978069 C 22.160133,31.978069 26.997745,27.140456 26.997745,27.140456 C 18.528582,18.264221 13.291696,25.230495 11.500037,31.436501 z"
             style="fill:#404040;"/>
          </a>
         </g>
        </svg>
</svg>
