<?xml version="1.0" encoding="UTF-8" standalone="no"?>
<!DOCTYPE svg PUBLIC "-//W3C//DTD SVG 1.1//EN"
 "http://www.w3.org/Graphics/SVG/1.1/DTD/svg11.dtd">
<!-- Generated by graphviz version 2.38.0 (20140413.2041)
 -->
<!-- Title: /home/travis/build/hypro/hypro/src/hypro/representations/Polytopes Pages: 1 -->
<svg width="378pt" height="303pt"
 viewBox="0.00 0.00 378.00 303.00" xmlns="http://www.w3.org/2000/svg" xmlns:xlink="http://www.w3.org/1999/xlink">
<g id="graph0" class="graph" transform="scale(1 1) rotate(0) translate(4 299)">
<title>/home/travis/build/hypro/hypro/src/hypro/representations/Polytopes</title>
<polygon fill="white" stroke="none" points="-4,4 -4,-299 374,-299 374,4 -4,4"/>
<g id="clust1" class="cluster"><title>clusterdir_7fa927d8fbf9dfbeef69af27f63bc81b</title>
<g id="a_clust1"><a xlink:href="dir_7fa927d8fbf9dfbeef69af27f63bc81b.html" target="_top" xlink:title="representations">
<polygon fill="#ddddee" stroke="black" points="8,-200 8,-287 362,-287 362,-200 8,-200"/>
<text text-anchor="middle" x="185" y="-275" font-family="Helvetica,sans-Serif" font-size="10.00">representations</text>
</a>
</g>
</g>
<g id="clust2" class="cluster"><title>clusterdir_ad938787f25f17484dcf7b42a899a1a5</title>
<g id="a_clust2"><a xlink:href="dir_ad938787f25f17484dcf7b42a899a1a5.html" target="_top">
<polygon fill="#eeeeff" stroke="black" points="16,-208 16,-260 354,-260 354,-208 16,-208"/>
</a>
</g>
</g>
<!-- dir_ad938787f25f17484dcf7b42a899a1a5 -->
<g id="node1" class="node"><title>dir_ad938787f25f17484dcf7b42a899a1a5</title>
<text text-anchor="middle" x="314" y="-231.5" font-family="Helvetica,sans-Serif" font-size="10.00">Polytopes</text>
</g>
<!-- dir_1af6716d628c86fbaf49b4d06740528b -->
<g id="node2" class="node"><title>dir_1af6716d628c86fbaf49b4d06740528b</title>
<g id="a_node2"><a xlink:href="dir_1af6716d628c86fbaf49b4d06740528b.html" target="_top" xlink:title="carlPolytope">
<polygon fill="white" stroke="black" points="98.5,-252 23.5,-252 23.5,-216 98.5,-216 98.5,-252"/>
<text text-anchor="middle" x="61" y="-231.5" font-family="Helvetica,sans-Serif" font-size="10.00">carlPolytope</text>
</a>
</g>
</g>
<!-- dir_879d833e0dfbe8f31a5e860bb94efb50 -->
<g id="node5" class="node"><title>dir_879d833e0dfbe8f31a5e860bb94efb50</title>
<g id="a_node5"><a xlink:href="dir_879d833e0dfbe8f31a5e860bb94efb50.html" target="_top" xlink:title="util">
<polygon fill="white" stroke="red" points="210,-108 156,-108 156,-72 210,-72 210,-108"/>
<text text-anchor="middle" x="183" y="-87.5" font-family="Helvetica,sans-Serif" font-size="10.00">util</text>
</a>
</g>
</g>
<!-- dir_1af6716d628c86fbaf49b4d06740528b&#45;&gt;dir_879d833e0dfbe8f31a5e860bb94efb50 -->
<g id="edge1" class="edge"><title>dir_1af6716d628c86fbaf49b4d06740528b&#45;&gt;dir_879d833e0dfbe8f31a5e860bb94efb50</title>
<path fill="none" stroke="black" d="M61.6736,-215.809C63.2586,-196.449 68.4203,-164.961 85,-144 100.539,-124.355 125.432,-111.024 146.241,-102.645"/>
<polygon fill="black" stroke="black" points="147.658,-105.85 155.766,-99.0309 145.175,-99.3055 147.658,-105.85"/>
<g id="a_edge1&#45;headlabel"><a xlink:href="dir_000018_000028.html" target="_top" xlink:title="4">
<text text-anchor="middle" x="145.304" y="-107.28" font-family="Helvetica,sans-Serif" font-size="10.00">4</text>
</a>
</g>
</g>
<!-- dir_bce2075adec303dcb2f0c4fbfcbc8493 -->
<g id="node6" class="node"><title>dir_bce2075adec303dcb2f0c4fbfcbc8493</title>
<g id="a_node6"><a xlink:href="dir_bce2075adec303dcb2f0c4fbfcbc8493.html" target="_top" xlink:title="datastructures">
<polygon fill="white" stroke="red" points="226.5,-36 139.5,-36 139.5,-0 226.5,-0 226.5,-36"/>
<text text-anchor="middle" x="183" y="-15.5" font-family="Helvetica,sans-Serif" font-size="10.00">datastructures</text>
</a>
</g>
</g>
<!-- dir_1af6716d628c86fbaf49b4d06740528b&#45;&gt;dir_bce2075adec303dcb2f0c4fbfcbc8493 -->
<g id="edge2" class="edge"><title>dir_1af6716d628c86fbaf49b4d06740528b&#45;&gt;dir_bce2075adec303dcb2f0c4fbfcbc8493</title>
<path fill="none" stroke="black" d="M58.1012,-215.845C55.7517,-197.344 54.2371,-167.4 64,-144 81.7987,-101.34 121.361,-64.7014 149.993,-42.3192"/>
<polygon fill="black" stroke="black" points="152.295,-44.9651 158.121,-36.1157 148.048,-39.4006 152.295,-44.9651"/>
<g id="a_edge2&#45;headlabel"><a xlink:href="dir_000018_000024.html" target="_top" xlink:title="2">
<text text-anchor="middle" x="151.16" y="-46.9029" font-family="Helvetica,sans-Serif" font-size="10.00">2</text>
</a>
</g>
</g>
<!-- dir_55730fee9a0c1f12da77eb14a8325c4c -->
<g id="node7" class="node"><title>dir_55730fee9a0c1f12da77eb14a8325c4c</title>
<g id="a_node7"><a xlink:href="dir_55730fee9a0c1f12da77eb14a8325c4c.html" target="_top" xlink:title="algorithms">
<polygon fill="white" stroke="red" points="162,-180 94,-180 94,-144 162,-144 162,-180"/>
<text text-anchor="middle" x="128" y="-159.5" font-family="Helvetica,sans-Serif" font-size="10.00">algorithms</text>
</a>
</g>
</g>
<!-- dir_1af6716d628c86fbaf49b4d06740528b&#45;&gt;dir_55730fee9a0c1f12da77eb14a8325c4c -->
<g id="edge3" class="edge"><title>dir_1af6716d628c86fbaf49b4d06740528b&#45;&gt;dir_55730fee9a0c1f12da77eb14a8325c4c</title>
<path fill="none" stroke="black" d="M77.5618,-215.697C85.6753,-207.22 95.5877,-196.864 104.471,-187.583"/>
<polygon fill="black" stroke="black" points="107.243,-189.749 111.629,-180.104 102.186,-184.908 107.243,-189.749"/>
<g id="a_edge3&#45;headlabel"><a xlink:href="dir_000018_000003.html" target="_top" xlink:title="1">
<text text-anchor="middle" x="106.808" y="-191.809" font-family="Helvetica,sans-Serif" font-size="10.00">1</text>
</a>
</g>
</g>
<!-- dir_19f7ed9a1a9707d41c15619f6b9af49c -->
<g id="node3" class="node"><title>dir_19f7ed9a1a9707d41c15619f6b9af49c</title>
<g id="a_node3"><a xlink:href="dir_19f7ed9a1a9707d41c15619f6b9af49c.html" target="_top" xlink:title="HPolytope">
<polygon fill="white" stroke="black" points="181.5,-252 116.5,-252 116.5,-216 181.5,-216 181.5,-252"/>
<text text-anchor="middle" x="149" y="-231.5" font-family="Helvetica,sans-Serif" font-size="10.00">HPolytope</text>
</a>
</g>
</g>
<!-- dir_19f7ed9a1a9707d41c15619f6b9af49c&#45;&gt;dir_879d833e0dfbe8f31a5e860bb94efb50 -->
<g id="edge5" class="edge"><title>dir_19f7ed9a1a9707d41c15619f6b9af49c&#45;&gt;dir_879d833e0dfbe8f31a5e860bb94efb50</title>
<path fill="none" stroke="black" d="M157.507,-215.733C162.176,-205.561 167.676,-192.311 171,-180 176.478,-159.711 179.515,-136.115 181.161,-118.318"/>
<polygon fill="black" stroke="black" points="184.652,-118.581 181.998,-108.324 177.676,-117.997 184.652,-118.581"/>
<g id="a_edge5&#45;headlabel"><a xlink:href="dir_000046_000028.html" target="_top" xlink:title="4">
<text text-anchor="middle" x="187.181" y="-119.899" font-family="Helvetica,sans-Serif" font-size="10.00">4</text>
</a>
</g>
</g>
<!-- dir_19f7ed9a1a9707d41c15619f6b9af49c&#45;&gt;dir_55730fee9a0c1f12da77eb14a8325c4c -->
<g id="edge6" class="edge"><title>dir_19f7ed9a1a9707d41c15619f6b9af49c&#45;&gt;dir_55730fee9a0c1f12da77eb14a8325c4c</title>
<path fill="none" stroke="black" d="M143.809,-215.697C141.469,-207.898 138.653,-198.509 136.049,-189.829"/>
<polygon fill="black" stroke="black" points="139.357,-188.677 133.131,-180.104 132.652,-190.688 139.357,-188.677"/>
<g id="a_edge6&#45;headlabel"><a xlink:href="dir_000046_000003.html" target="_top" xlink:title="1">
<text text-anchor="middle" x="143.11" y="-188.804" font-family="Helvetica,sans-Serif" font-size="10.00">1</text>
</a>
</g>
</g>
<!-- dir_7ca784a8a47198f8f271993b816bdc67 -->
<g id="node4" class="node"><title>dir_7ca784a8a47198f8f271993b816bdc67</title>
<g id="a_node4"><a xlink:href="dir_7ca784a8a47198f8f271993b816bdc67.html" target="_top" xlink:title="VPolytope">
<polygon fill="white" stroke="black" points="264.5,-252 199.5,-252 199.5,-216 264.5,-216 264.5,-252"/>
<text text-anchor="middle" x="232" y="-231.5" font-family="Helvetica,sans-Serif" font-size="10.00">VPolytope</text>
</a>
</g>
</g>
<!-- dir_7ca784a8a47198f8f271993b816bdc67&#45;&gt;dir_879d833e0dfbe8f31a5e860bb94efb50 -->
<g id="edge10" class="edge"><title>dir_7ca784a8a47198f8f271993b816bdc67&#45;&gt;dir_879d833e0dfbe8f31a5e860bb94efb50</title>
<path fill="none" stroke="black" d="M226.089,-215.871C217.702,-191.564 202.261,-146.819 192.321,-118.013"/>
<polygon fill="black" stroke="black" points="195.502,-116.501 188.932,-108.189 188.885,-118.784 195.502,-116.501"/>
<g id="a_edge10&#45;headlabel"><a xlink:href="dir_000019_000028.html" target="_top" xlink:title="5">
<text text-anchor="middle" x="199.359" y="-116.472" font-family="Helvetica,sans-Serif" font-size="10.00">5</text>
</a>
</g>
</g>
<!-- dir_7ca784a8a47198f8f271993b816bdc67&#45;&gt;dir_bce2075adec303dcb2f0c4fbfcbc8493 -->
<g id="edge11" class="edge"><title>dir_7ca784a8a47198f8f271993b816bdc67&#45;&gt;dir_bce2075adec303dcb2f0c4fbfcbc8493</title>
<path fill="none" stroke="black" d="M233.413,-215.961C235.301,-185.921 236.606,-121.99 219,-72 215.599,-62.3444 209.991,-52.7815 204.202,-44.4925"/>
<polygon fill="black" stroke="black" points="206.951,-42.3223 198.189,-36.3652 201.323,-46.4858 206.951,-42.3223"/>
<g id="a_edge11&#45;headlabel"><a xlink:href="dir_000019_000024.html" target="_top" xlink:title="3">
<text text-anchor="middle" x="211.371" y="-41.0232" font-family="Helvetica,sans-Serif" font-size="10.00">3</text>
</a>
</g>
</g>
<!-- dir_7ca784a8a47198f8f271993b816bdc67&#45;&gt;dir_55730fee9a0c1f12da77eb14a8325c4c -->
<g id="edge12" class="edge"><title>dir_7ca784a8a47198f8f271993b816bdc67&#45;&gt;dir_55730fee9a0c1f12da77eb14a8325c4c</title>
<path fill="none" stroke="black" d="M211.031,-215.671C204.433,-210.452 197.032,-204.831 190,-200 182.797,-195.051 174.919,-190.053 167.268,-185.401"/>
<polygon fill="black" stroke="black" points="168.822,-182.252 158.444,-180.121 165.228,-188.259 168.822,-182.252"/>
<g id="a_edge12&#45;headlabel"><a xlink:href="dir_000019_000003.html" target="_top" xlink:title="1">
<text text-anchor="middle" x="173.365" y="-179.161" font-family="Helvetica,sans-Serif" font-size="10.00">1</text>
</a>
</g>
</g>
<!-- dir_879d833e0dfbe8f31a5e860bb94efb50&#45;&gt;dir_bce2075adec303dcb2f0c4fbfcbc8493 -->
<g id="edge4" class="edge"><title>dir_879d833e0dfbe8f31a5e860bb94efb50&#45;&gt;dir_bce2075adec303dcb2f0c4fbfcbc8493</title>
<path fill="none" stroke="black" d="M177.084,-71.6966C176.289,-63.9827 176.062,-54.7125 176.405,-46.1124"/>
<polygon fill="black" stroke="black" points="179.898,-46.3243 177.105,-36.1043 172.915,-45.8356 179.898,-46.3243"/>
<g id="a_edge4&#45;headlabel"><a xlink:href="dir_000028_000024.html" target="_top" xlink:title="12">
<text text-anchor="middle" x="182.48" y="-47.6083" font-family="Helvetica,sans-Serif" font-size="10.00">12</text>
</a>
</g>
</g>
<!-- dir_bce2075adec303dcb2f0c4fbfcbc8493&#45;&gt;dir_879d833e0dfbe8f31a5e860bb94efb50 -->
<g id="edge7" class="edge"><title>dir_bce2075adec303dcb2f0c4fbfcbc8493&#45;&gt;dir_879d833e0dfbe8f31a5e860bb94efb50</title>
<path fill="none" stroke="black" d="M188.895,-36.1043C189.701,-43.7913 189.937,-53.0537 189.604,-61.6651"/>
<polygon fill="black" stroke="black" points="186.109,-61.4805 188.916,-71.6966 193.092,-61.9597 186.109,-61.4805"/>
<g id="a_edge7&#45;headlabel"><a xlink:href="dir_000024_000028.html" target="_top" xlink:title="25">
<text text-anchor="middle" x="183.522" y="-55.2" font-family="Helvetica,sans-Serif" font-size="10.00">25</text>
</a>
</g>
</g>
<!-- dir_55730fee9a0c1f12da77eb14a8325c4c&#45;&gt;dir_879d833e0dfbe8f31a5e860bb94efb50 -->
<g id="edge8" class="edge"><title>dir_55730fee9a0c1f12da77eb14a8325c4c&#45;&gt;dir_879d833e0dfbe8f31a5e860bb94efb50</title>
<path fill="none" stroke="black" d="M141.596,-143.697C148.123,-135.389 156.068,-125.277 163.247,-116.141"/>
<polygon fill="black" stroke="black" points="166.135,-118.13 169.561,-108.104 160.631,-113.805 166.135,-118.13"/>
<g id="a_edge8&#45;headlabel"><a xlink:href="dir_000003_000028.html" target="_top" xlink:title="11">
<text text-anchor="middle" x="166.147" y="-120.211" font-family="Helvetica,sans-Serif" font-size="10.00">11</text>
</a>
</g>
</g>
<!-- dir_55730fee9a0c1f12da77eb14a8325c4c&#45;&gt;dir_bce2075adec303dcb2f0c4fbfcbc8493 -->
<g id="edge9" class="edge"><title>dir_55730fee9a0c1f12da77eb14a8325c4c&#45;&gt;dir_bce2075adec303dcb2f0c4fbfcbc8493</title>
<path fill="none" stroke="black" d="M129.697,-143.674C131.95,-125.29 136.888,-95.6852 147,-72 151.084,-62.4333 156.988,-52.7836 162.838,-44.3881"/>
<polygon fill="black" stroke="black" points="165.78,-46.2938 168.835,-36.1492 160.12,-42.1741 165.78,-46.2938"/>
<g id="a_edge9&#45;headlabel"><a xlink:href="dir_000003_000024.html" target="_top" xlink:title="64">
<text text-anchor="middle" x="165.96" y="-48.371" font-family="Helvetica,sans-Serif" font-size="10.00">64</text>
</a>
</g>
</g>
</g>
</svg>
