<?xml version="1.0" encoding="UTF-8" standalone="no"?>
<!DOCTYPE svg PUBLIC "-//W3C//DTD SVG 1.1//EN"
 "http://www.w3.org/Graphics/SVG/1.1/DTD/svg11.dtd">
<!-- Generated by graphviz version 2.38.0 (20140413.2041)
 -->
<!-- Title: /home/travis/build/hypro/hypro/src/hypro/algorithms/reachability/handlers Pages: 1 -->
<svg width="870pt" height="303pt"
 viewBox="0.00 0.00 870.00 303.00" xmlns="http://www.w3.org/2000/svg" xmlns:xlink="http://www.w3.org/1999/xlink">
<g id="graph0" class="graph" transform="scale(1 1) rotate(0) translate(4 299)">
<title>/home/travis/build/hypro/hypro/src/hypro/algorithms/reachability/handlers</title>
<polygon fill="white" stroke="none" points="-4,4 -4,-299 866,-299 866,4 -4,4"/>
<g id="clust1" class="cluster"><title>clusterdir_6a6edf7123c81d000975d26367682a7a</title>
<g id="a_clust1"><a xlink:href="dir_6a6edf7123c81d000975d26367682a7a.html" target="_top" xlink:title="reachability">
<polygon fill="#ddddee" stroke="black" points="8,-128 8,-287 854,-287 854,-128 8,-128"/>
<text text-anchor="middle" x="431" y="-275" font-family="Helvetica,sans-Serif" font-size="10.00">reachability</text>
</a>
</g>
</g>
<g id="clust2" class="cluster"><title>clusterdir_32033642301c2effdf6af876d53153c1</title>
<g id="a_clust2"><a xlink:href="dir_32033642301c2effdf6af876d53153c1.html" target="_top">
<polygon fill="#eeeeff" stroke="black" points="16,-136 16,-260 846,-260 846,-136 16,-136"/>
</a>
</g>
</g>
<!-- dir_32033642301c2effdf6af876d53153c1 -->
<g id="node1" class="node"><title>dir_32033642301c2effdf6af876d53153c1</title>
<text text-anchor="middle" x="403" y="-231.5" font-family="Helvetica,sans-Serif" font-size="10.00">handlers</text>
</g>
<!-- dir_cb03ff1ba0e8c822ef16378580a83205 -->
<g id="node2" class="node"><title>dir_cb03ff1ba0e8c822ef16378580a83205</title>
<g id="a_node2"><a xlink:href="dir_cb03ff1ba0e8c822ef16378580a83205.html" target="_top" xlink:title="badStateHandlers">
<polygon fill="white" stroke="black" points="128,-180 24,-180 24,-144 128,-144 128,-180"/>
<text text-anchor="middle" x="76" y="-159.5" font-family="Helvetica,sans-Serif" font-size="10.00">badStateHandlers</text>
</a>
</g>
</g>
<!-- dir_32033642301c2effdf6af876d53153c1&#45;&gt;dir_cb03ff1ba0e8c822ef16378580a83205 -->
<g id="edge2" class="edge"><title>dir_32033642301c2effdf6af876d53153c1&#45;&gt;dir_cb03ff1ba0e8c822ef16378580a83205</title>
<path fill="none" stroke="black" d="M373.717,-227.909C326.285,-219.502 229.537,-201.693 138.143,-180.184"/>
<polygon fill="black" stroke="black" points="138.714,-176.723 128.176,-177.819 137.098,-183.534 138.714,-176.723"/>
<g id="a_edge2&#45;headlabel"><a xlink:href="dir_000009_000010.html" target="_top" xlink:title="1">
<text text-anchor="middle" x="142.868" y="-172.29" font-family="Helvetica,sans-Serif" font-size="10.00">1</text>
</a>
</g>
</g>
<!-- dir_68bcb6b1c85a445267426edd88bf35d3 -->
<g id="node3" class="node"><title>dir_68bcb6b1c85a445267426edd88bf35d3</title>
<g id="a_node3"><a xlink:href="dir_68bcb6b1c85a445267426edd88bf35d3.html" target="_top" xlink:title="firstSegmentHandlers">
<polygon fill="white" stroke="black" points="838,-180 716,-180 716,-144 838,-144 838,-180"/>
<text text-anchor="middle" x="777" y="-159.5" font-family="Helvetica,sans-Serif" font-size="10.00">firstSegmentHandlers</text>
</a>
</g>
</g>
<!-- dir_32033642301c2effdf6af876d53153c1&#45;&gt;dir_68bcb6b1c85a445267426edd88bf35d3 -->
<g id="edge3" class="edge"><title>dir_32033642301c2effdf6af876d53153c1&#45;&gt;dir_68bcb6b1c85a445267426edd88bf35d3</title>
<path fill="none" stroke="black" d="M432.042,-228.587C484.637,-220.457 599.341,-202.085 706.006,-180.137"/>
<polygon fill="black" stroke="black" points="706.889,-183.529 715.97,-178.071 705.468,-176.674 706.889,-183.529"/>
<g id="a_edge3&#45;headlabel"><a xlink:href="dir_000009_000011.html" target="_top" xlink:title="1">
<text text-anchor="middle" x="703.945" y="-184.538" font-family="Helvetica,sans-Serif" font-size="10.00">1</text>
</a>
</g>
</g>
<!-- dir_a04391d0a8ca3c775462bdbc219a9fe8 -->
<g id="node4" class="node"><title>dir_a04391d0a8ca3c775462bdbc219a9fe8</title>
<g id="a_node4"><a xlink:href="dir_a04391d0a8ca3c775462bdbc219a9fe8.html" target="_top" xlink:title="guardHandlers">
<polygon fill="white" stroke="black" points="233.5,-180 146.5,-180 146.5,-144 233.5,-144 233.5,-180"/>
<text text-anchor="middle" x="190" y="-159.5" font-family="Helvetica,sans-Serif" font-size="10.00">guardHandlers</text>
</a>
</g>
</g>
<!-- dir_32033642301c2effdf6af876d53153c1&#45;&gt;dir_a04391d0a8ca3c775462bdbc219a9fe8 -->
<g id="edge1" class="edge"><title>dir_32033642301c2effdf6af876d53153c1&#45;&gt;dir_a04391d0a8ca3c775462bdbc219a9fe8</title>
<path fill="none" stroke="black" d="M373.83,-223.414C340.287,-212.39 284.54,-194.07 243.214,-180.488"/>
<polygon fill="black" stroke="black" points="244.164,-177.116 233.571,-177.319 241.979,-183.766 244.164,-177.116"/>
<g id="a_edge1&#45;headlabel"><a xlink:href="dir_000009_000012.html" target="_top" xlink:title="1">
<text text-anchor="middle" x="248.466" y="-173.041" font-family="Helvetica,sans-Serif" font-size="10.00">1</text>
</a>
</g>
</g>
<!-- dir_50eabc8add9abcddc8f4875304878de8 -->
<g id="node5" class="node"><title>dir_50eabc8add9abcddc8f4875304878de8</title>
<g id="a_node5"><a xlink:href="dir_50eabc8add9abcddc8f4875304878de8.html" target="_top" xlink:title="invariantHandlers">
<polygon fill="white" stroke="black" points="453.5,-180 352.5,-180 352.5,-144 453.5,-144 453.5,-180"/>
<text text-anchor="middle" x="403" y="-159.5" font-family="Helvetica,sans-Serif" font-size="10.00">invariantHandlers</text>
</a>
</g>
</g>
<!-- dir_32033642301c2effdf6af876d53153c1&#45;&gt;dir_50eabc8add9abcddc8f4875304878de8 -->
<g id="edge5" class="edge"><title>dir_32033642301c2effdf6af876d53153c1&#45;&gt;dir_50eabc8add9abcddc8f4875304878de8</title>
<path fill="none" stroke="black" d="M403,-215.697C403,-207.983 403,-198.712 403,-190.112"/>
<polygon fill="black" stroke="black" points="406.5,-190.104 403,-180.104 399.5,-190.104 406.5,-190.104"/>
<g id="a_edge5&#45;headlabel"><a xlink:href="dir_000009_000013.html" target="_top" xlink:title="1">
<text text-anchor="middle" x="409.339" y="-191.199" font-family="Helvetica,sans-Serif" font-size="10.00">1</text>
</a>
</g>
</g>
<!-- dir_b22059ad2ad3604da29eff8b301e1502 -->
<g id="node6" class="node"><title>dir_b22059ad2ad3604da29eff8b301e1502</title>
<g id="a_node6"><a xlink:href="dir_b22059ad2ad3604da29eff8b301e1502.html" target="_top" xlink:title="jumpHandlers">
<polygon fill="white" stroke="black" points="334.5,-180 251.5,-180 251.5,-144 334.5,-144 334.5,-180"/>
<text text-anchor="middle" x="293" y="-159.5" font-family="Helvetica,sans-Serif" font-size="10.00">jumpHandlers</text>
</a>
</g>
</g>
<!-- dir_32033642301c2effdf6af876d53153c1&#45;&gt;dir_b22059ad2ad3604da29eff8b301e1502 -->
<g id="edge7" class="edge"><title>dir_32033642301c2effdf6af876d53153c1&#45;&gt;dir_b22059ad2ad3604da29eff8b301e1502</title>
<path fill="none" stroke="black" d="M376.091,-215.876C361.842,-206.808 344.154,-195.552 328.764,-185.759"/>
<polygon fill="black" stroke="black" points="330.328,-182.606 320.012,-180.19 326.57,-188.511 330.328,-182.606"/>
<g id="a_edge7&#45;headlabel"><a xlink:href="dir_000009_000014.html" target="_top" xlink:title="1">
<text text-anchor="middle" x="334.885" y="-179.64" font-family="Helvetica,sans-Serif" font-size="10.00">1</text>
</a>
</g>
</g>
<!-- dir_5b1ead7e91c1179ccb075fffb42ab9bb -->
<g id="node7" class="node"><title>dir_5b1ead7e91c1179ccb075fffb42ab9bb</title>
<g id="a_node7"><a xlink:href="dir_5b1ead7e91c1179ccb075fffb42ab9bb.html" target="_top" xlink:title="resetHandlers">
<polygon fill="white" stroke="black" points="698,-180 614,-180 614,-144 698,-144 698,-180"/>
<text text-anchor="middle" x="656" y="-159.5" font-family="Helvetica,sans-Serif" font-size="10.00">resetHandlers</text>
</a>
</g>
</g>
<!-- dir_32033642301c2effdf6af876d53153c1&#45;&gt;dir_5b1ead7e91c1179ccb075fffb42ab9bb -->
<g id="edge6" class="edge"><title>dir_32033642301c2effdf6af876d53153c1&#45;&gt;dir_5b1ead7e91c1179ccb075fffb42ab9bb</title>
<path fill="none" stroke="black" d="M432.094,-226.106C469.82,-217.015 537.835,-200.109 604.036,-180.504"/>
<polygon fill="black" stroke="black" points="605.206,-183.807 613.787,-177.592 603.203,-177.1 605.206,-183.807"/>
<g id="a_edge6&#45;headlabel"><a xlink:href="dir_000009_000021.html" target="_top" xlink:title="1">
<text text-anchor="middle" x="602.574" y="-185.056" font-family="Helvetica,sans-Serif" font-size="10.00">1</text>
</a>
</g>
</g>
<!-- dir_ef995a9e9de1f5efa58d910d136f921c -->
<g id="node8" class="node"><title>dir_ef995a9e9de1f5efa58d910d136f921c</title>
<g id="a_node8"><a xlink:href="dir_ef995a9e9de1f5efa58d910d136f921c.html" target="_top" xlink:title="timeEvolutionHandlers">
<polygon fill="white" stroke="black" points="596.5,-180 471.5,-180 471.5,-144 596.5,-144 596.5,-180"/>
<text text-anchor="middle" x="534" y="-159.5" font-family="Helvetica,sans-Serif" font-size="10.00">timeEvolutionHandlers</text>
</a>
</g>
</g>
<!-- dir_32033642301c2effdf6af876d53153c1&#45;&gt;dir_ef995a9e9de1f5efa58d910d136f921c -->
<g id="edge4" class="edge"><title>dir_32033642301c2effdf6af876d53153c1&#45;&gt;dir_ef995a9e9de1f5efa58d910d136f921c</title>
<path fill="none" stroke="black" d="M432.073,-217.465C449.903,-207.937 473.013,-195.588 492.719,-185.058"/>
<polygon fill="black" stroke="black" points="494.621,-188.011 501.791,-180.211 491.322,-181.837 494.621,-188.011"/>
<g id="a_edge4&#45;headlabel"><a xlink:href="dir_000009_000022.html" target="_top" xlink:title="1">
<text text-anchor="middle" x="492.789" y="-189.709" font-family="Helvetica,sans-Serif" font-size="10.00">1</text>
</a>
</g>
</g>
<!-- dir_bce2075adec303dcb2f0c4fbfcbc8493 -->
<g id="node9" class="node"><title>dir_bce2075adec303dcb2f0c4fbfcbc8493</title>
<g id="a_node9"><a xlink:href="dir_bce2075adec303dcb2f0c4fbfcbc8493.html" target="_top" xlink:title="datastructures">
<polygon fill="white" stroke="red" points="577.5,-108 490.5,-108 490.5,-72 577.5,-72 577.5,-108"/>
<text text-anchor="middle" x="534" y="-87.5" font-family="Helvetica,sans-Serif" font-size="10.00">datastructures</text>
</a>
</g>
</g>
<!-- dir_68bcb6b1c85a445267426edd88bf35d3&#45;&gt;dir_bce2075adec303dcb2f0c4fbfcbc8493 -->
<g id="edge9" class="edge"><title>dir_68bcb6b1c85a445267426edd88bf35d3&#45;&gt;dir_bce2075adec303dcb2f0c4fbfcbc8493</title>
<path fill="none" stroke="black" d="M744.88,-143.96C733.195,-138.273 719.73,-132.298 707,-128 667.934,-114.81 622.265,-105.279 587.662,-99.1962"/>
<polygon fill="black" stroke="black" points="588.204,-95.738 577.756,-97.4955 587.019,-102.637 588.204,-95.738"/>
<g id="a_edge9&#45;headlabel"><a xlink:href="dir_000011_000024.html" target="_top" xlink:title="1">
<text text-anchor="middle" x="592.227" y="-91.0478" font-family="Helvetica,sans-Serif" font-size="10.00">1</text>
</a>
</g>
</g>
<!-- dir_7fa927d8fbf9dfbeef69af27f63bc81b -->
<g id="node10" class="node"><title>dir_7fa927d8fbf9dfbeef69af27f63bc81b</title>
<g id="a_node10"><a xlink:href="dir_7fa927d8fbf9dfbeef69af27f63bc81b.html" target="_top" xlink:title="representations">
<polygon fill="white" stroke="red" points="580,-36 488,-36 488,-0 580,-0 580,-36"/>
<text text-anchor="middle" x="534" y="-15.5" font-family="Helvetica,sans-Serif" font-size="10.00">representations</text>
</a>
</g>
</g>
<!-- dir_68bcb6b1c85a445267426edd88bf35d3&#45;&gt;dir_7fa927d8fbf9dfbeef69af27f63bc81b -->
<g id="edge10" class="edge"><title>dir_68bcb6b1c85a445267426edd88bf35d3&#45;&gt;dir_7fa927d8fbf9dfbeef69af27f63bc81b</title>
<path fill="none" stroke="black" d="M747.689,-143.871C703.719,-118.178 620.675,-69.6498 572.073,-41.2482"/>
<polygon fill="black" stroke="black" points="573.815,-38.2128 563.415,-36.1893 570.283,-44.2565 573.815,-38.2128"/>
<g id="a_edge10&#45;headlabel"><a xlink:href="dir_000011_000015.html" target="_top" xlink:title="1">
<text text-anchor="middle" x="578.351" y="-35.0749" font-family="Helvetica,sans-Serif" font-size="10.00">1</text>
</a>
</g>
</g>
<!-- dir_a04391d0a8ca3c775462bdbc219a9fe8&#45;&gt;dir_bce2075adec303dcb2f0c4fbfcbc8493 -->
<g id="edge8" class="edge"><title>dir_a04391d0a8ca3c775462bdbc219a9fe8&#45;&gt;dir_bce2075adec303dcb2f0c4fbfcbc8493</title>
<path fill="none" stroke="black" d="M212.162,-143.9C220.995,-137.922 231.538,-131.769 242,-128 321.367,-99.4094 419.803,-92.3065 479.707,-90.8674"/>
<polygon fill="black" stroke="black" points="480.138,-94.3598 490.068,-90.666 480.002,-87.3611 480.138,-94.3598"/>
<g id="a_edge8&#45;headlabel"><a xlink:href="dir_000012_000024.html" target="_top" xlink:title="2">
<text text-anchor="middle" x="476.599" y="-94.7683" font-family="Helvetica,sans-Serif" font-size="10.00">2</text>
</a>
</g>
</g>
<!-- dir_b22059ad2ad3604da29eff8b301e1502&#45;&gt;dir_bce2075adec303dcb2f0c4fbfcbc8493 -->
<g id="edge13" class="edge"><title>dir_b22059ad2ad3604da29eff8b301e1502&#45;&gt;dir_bce2075adec303dcb2f0c4fbfcbc8493</title>
<path fill="none" stroke="black" d="M315.332,-143.909C323.901,-138.079 334.024,-132.023 344,-128 388.06,-110.232 441.398,-100.805 480.331,-95.9247"/>
<polygon fill="black" stroke="black" points="480.891,-99.3827 490.406,-94.7226 480.062,-92.432 480.891,-99.3827"/>
<g id="a_edge13&#45;headlabel"><a xlink:href="dir_000014_000024.html" target="_top" xlink:title="8">
<text text-anchor="middle" x="477.658" y="-100.128" font-family="Helvetica,sans-Serif" font-size="10.00">8</text>
</a>
</g>
</g>
<!-- dir_ef995a9e9de1f5efa58d910d136f921c&#45;&gt;dir_bce2075adec303dcb2f0c4fbfcbc8493 -->
<g id="edge12" class="edge"><title>dir_ef995a9e9de1f5efa58d910d136f921c&#45;&gt;dir_bce2075adec303dcb2f0c4fbfcbc8493</title>
<path fill="none" stroke="black" d="M534,-143.697C534,-135.983 534,-126.712 534,-118.112"/>
<polygon fill="black" stroke="black" points="537.5,-118.104 534,-108.104 530.5,-118.104 537.5,-118.104"/>
<g id="a_edge12&#45;headlabel"><a xlink:href="dir_000022_000024.html" target="_top" xlink:title="7">
<text text-anchor="middle" x="540.339" y="-119.199" font-family="Helvetica,sans-Serif" font-size="10.00">7</text>
</a>
</g>
</g>
<!-- dir_bce2075adec303dcb2f0c4fbfcbc8493&#45;&gt;dir_7fa927d8fbf9dfbeef69af27f63bc81b -->
<g id="edge11" class="edge"><title>dir_bce2075adec303dcb2f0c4fbfcbc8493&#45;&gt;dir_7fa927d8fbf9dfbeef69af27f63bc81b</title>
<path fill="none" stroke="black" d="M528.084,-71.6966C527.289,-63.9827 527.062,-54.7125 527.405,-46.1124"/>
<polygon fill="black" stroke="black" points="530.898,-46.3243 528.105,-36.1043 523.915,-45.8356 530.898,-46.3243"/>
<g id="a_edge11&#45;headlabel"><a xlink:href="dir_000024_000015.html" target="_top" xlink:title="12">
<text text-anchor="middle" x="533.48" y="-47.6083" font-family="Helvetica,sans-Serif" font-size="10.00">12</text>
</a>
</g>
</g>
<!-- dir_7fa927d8fbf9dfbeef69af27f63bc81b&#45;&gt;dir_bce2075adec303dcb2f0c4fbfcbc8493 -->
<g id="edge14" class="edge"><title>dir_7fa927d8fbf9dfbeef69af27f63bc81b&#45;&gt;dir_bce2075adec303dcb2f0c4fbfcbc8493</title>
<path fill="none" stroke="black" d="M539.895,-36.1043C540.701,-43.7913 540.937,-53.0537 540.604,-61.6651"/>
<polygon fill="black" stroke="black" points="537.109,-61.4805 539.916,-71.6966 544.092,-61.9597 537.109,-61.4805"/>
<g id="a_edge14&#45;headlabel"><a xlink:href="dir_000015_000024.html" target="_top" xlink:title="25">
<text text-anchor="middle" x="534.522" y="-55.2" font-family="Helvetica,sans-Serif" font-size="10.00">25</text>
</a>
</g>
</g>
</g>
</svg>
