<?xml version="1.0" encoding="UTF-8" standalone="no"?>
<!DOCTYPE svg PUBLIC "-//W3C//DTD SVG 1.1//EN"
 "http://www.w3.org/Graphics/SVG/1.1/DTD/svg11.dtd">
<!-- Generated by graphviz version 2.38.0 (20140413.2041)
 -->
<!-- Title: /home/travis/build/hypro/hypro/src/hypro/algorithms/reachability/handlers/firstSegmentHandlers Pages: 1 -->
<svg width="167pt" height="223pt"
 viewBox="0.00 0.00 167.00 223.00" xmlns="http://www.w3.org/2000/svg" xmlns:xlink="http://www.w3.org/1999/xlink">
<g id="graph0" class="graph" transform="scale(1 1) rotate(0) translate(4 219)">
<title>/home/travis/build/hypro/hypro/src/hypro/algorithms/reachability/handlers/firstSegmentHandlers</title>
<polygon fill="white" stroke="none" points="-4,4 -4,-219 163,-219 163,4 -4,4"/>
<g id="clust1" class="cluster"><title>clusterdir_32033642301c2effdf6af876d53153c1</title>
<g id="a_clust1"><a xlink:href="dir_32033642301c2effdf6af876d53153c1.html" target="_top" xlink:title="handlers">
<polygon fill="#ddddee" stroke="black" points="13,-136 13,-207 151,-207 151,-136 13,-136"/>
<text text-anchor="middle" x="82" y="-195" font-family="Helvetica,sans-Serif" font-size="10.00">handlers</text>
</a>
</g>
</g>
<!-- dir_68bcb6b1c85a445267426edd88bf35d3 -->
<g id="node1" class="node"><title>dir_68bcb6b1c85a445267426edd88bf35d3</title>
<g id="a_node1"><a xlink:href="dir_68bcb6b1c85a445267426edd88bf35d3.html" target="_top" xlink:title="firstSegmentHandlers">
<polygon fill="#eeeeff" stroke="black" points="143,-180 21,-180 21,-144 143,-144 143,-180"/>
<text text-anchor="middle" x="82" y="-159.5" font-family="Helvetica,sans-Serif" font-size="10.00">firstSegmentHandlers</text>
</a>
</g>
</g>
<!-- dir_bce2075adec303dcb2f0c4fbfcbc8493 -->
<g id="node2" class="node"><title>dir_bce2075adec303dcb2f0c4fbfcbc8493</title>
<g id="a_node2"><a xlink:href="dir_bce2075adec303dcb2f0c4fbfcbc8493.html" target="_top" xlink:title="datastructures">
<polygon fill="white" stroke="red" points="89.5,-108 2.5,-108 2.5,-72 89.5,-72 89.5,-108"/>
<text text-anchor="middle" x="46" y="-87.5" font-family="Helvetica,sans-Serif" font-size="10.00">datastructures</text>
</a>
</g>
</g>
<!-- dir_68bcb6b1c85a445267426edd88bf35d3&#45;&gt;dir_bce2075adec303dcb2f0c4fbfcbc8493 -->
<g id="edge1" class="edge"><title>dir_68bcb6b1c85a445267426edd88bf35d3&#45;&gt;dir_bce2075adec303dcb2f0c4fbfcbc8493</title>
<path fill="none" stroke="black" d="M73.1011,-143.697C69.0032,-135.728 64.0512,-126.1 59.5073,-117.264"/>
<polygon fill="black" stroke="black" points="62.4826,-115.396 54.7965,-108.104 56.2575,-118.598 62.4826,-115.396"/>
<g id="a_edge1&#45;headlabel"><a xlink:href="dir_000011_000024.html" target="_top" xlink:title="1">
<text text-anchor="middle" x="66.6514" y="-114.795" font-family="Helvetica,sans-Serif" font-size="10.00">1</text>
</a>
</g>
</g>
<!-- dir_7fa927d8fbf9dfbeef69af27f63bc81b -->
<g id="node3" class="node"><title>dir_7fa927d8fbf9dfbeef69af27f63bc81b</title>
<g id="a_node3"><a xlink:href="dir_7fa927d8fbf9dfbeef69af27f63bc81b.html" target="_top" xlink:title="representations">
<polygon fill="white" stroke="red" points="92,-36 0,-36 0,-0 92,-0 92,-36"/>
<text text-anchor="middle" x="46" y="-15.5" font-family="Helvetica,sans-Serif" font-size="10.00">representations</text>
</a>
</g>
</g>
<!-- dir_68bcb6b1c85a445267426edd88bf35d3&#45;&gt;dir_7fa927d8fbf9dfbeef69af27f63bc81b -->
<g id="edge2" class="edge"><title>dir_68bcb6b1c85a445267426edd88bf35d3&#45;&gt;dir_7fa927d8fbf9dfbeef69af27f63bc81b</title>
<path fill="none" stroke="black" d="M90.9855,-143.676C99.2374,-125.293 108.812,-95.6893 99,-72 94.4552,-61.0279 86.4148,-51.1429 77.9488,-42.9644"/>
<polygon fill="black" stroke="black" points="80.2487,-40.3255 70.4766,-36.2321 75.5631,-45.5261 80.2487,-40.3255"/>
<g id="a_edge2&#45;headlabel"><a xlink:href="dir_000011_000015.html" target="_top" xlink:title="1">
<text text-anchor="middle" x="84.8197" y="-38.1222" font-family="Helvetica,sans-Serif" font-size="10.00">1</text>
</a>
</g>
</g>
<!-- dir_bce2075adec303dcb2f0c4fbfcbc8493&#45;&gt;dir_7fa927d8fbf9dfbeef69af27f63bc81b -->
<g id="edge3" class="edge"><title>dir_bce2075adec303dcb2f0c4fbfcbc8493&#45;&gt;dir_7fa927d8fbf9dfbeef69af27f63bc81b</title>
<path fill="none" stroke="black" d="M40.0843,-71.6966C39.2886,-63.9827 39.0621,-54.7125 39.4047,-46.1124"/>
<polygon fill="black" stroke="black" points="42.8984,-46.3243 40.105,-36.1043 35.9154,-45.8356 42.8984,-46.3243"/>
<g id="a_edge3&#45;headlabel"><a xlink:href="dir_000024_000015.html" target="_top" xlink:title="12">
<text text-anchor="middle" x="45.4799" y="-47.6083" font-family="Helvetica,sans-Serif" font-size="10.00">12</text>
</a>
</g>
</g>
<!-- dir_7fa927d8fbf9dfbeef69af27f63bc81b&#45;&gt;dir_bce2075adec303dcb2f0c4fbfcbc8493 -->
<g id="edge4" class="edge"><title>dir_7fa927d8fbf9dfbeef69af27f63bc81b&#45;&gt;dir_bce2075adec303dcb2f0c4fbfcbc8493</title>
<path fill="none" stroke="black" d="M51.895,-36.1043C52.7005,-43.7913 52.9369,-53.0537 52.604,-61.6651"/>
<polygon fill="black" stroke="black" points="49.1085,-61.4805 51.9157,-71.6966 56.0921,-61.9597 49.1085,-61.4805"/>
<g id="a_edge4&#45;headlabel"><a xlink:href="dir_000015_000024.html" target="_top" xlink:title="25">
<text text-anchor="middle" x="46.5219" y="-55.2" font-family="Helvetica,sans-Serif" font-size="10.00">25</text>
</a>
</g>
</g>
</g>
</svg>
