<?xml version="1.0" encoding="UTF-8" standalone="no"?>
<!DOCTYPE svg PUBLIC "-//W3C//DTD SVG 1.1//EN"
 "http://www.w3.org/Graphics/SVG/1.1/DTD/svg11.dtd">
<!-- Generated by graphviz version 2.38.0 (20140413.2041)
 -->
<!-- Title: /home/travis/build/hypro/hypro/src/hypro/datastructures Pages: 1 -->
<svg width="336pt" height="231pt"
 viewBox="0.00 0.00 336.00 231.00" xmlns="http://www.w3.org/2000/svg" xmlns:xlink="http://www.w3.org/1999/xlink">
<g id="graph0" class="graph" transform="scale(1 1) rotate(0) translate(4 227)">
<title>/home/travis/build/hypro/hypro/src/hypro/datastructures</title>
<polygon fill="white" stroke="none" points="-4,4 -4,-227 332,-227 332,4 -4,4"/>
<g id="clust1" class="cluster"><title>clusterdir_2ce0cb9797b50c8d842bc50008b46cdd</title>
<g id="a_clust1"><a xlink:href="dir_2ce0cb9797b50c8d842bc50008b46cdd.html" target="_top" xlink:title="hypro">
<polygon fill="#ddddee" stroke="black" points="8,-56 8,-215 247,-215 247,-56 8,-56"/>
<text text-anchor="middle" x="127.5" y="-203" font-family="Helvetica,sans-Serif" font-size="10.00">hypro</text>
</a>
</g>
</g>
<g id="clust2" class="cluster"><title>clusterdir_bce2075adec303dcb2f0c4fbfcbc8493</title>
<g id="a_clust2"><a xlink:href="dir_bce2075adec303dcb2f0c4fbfcbc8493.html" target="_top">
<polygon fill="#eeeeff" stroke="black" points="16,-64 16,-188 239,-188 239,-64 16,-64"/>
</a>
</g>
</g>
<!-- dir_bce2075adec303dcb2f0c4fbfcbc8493 -->
<g id="node1" class="node"><title>dir_bce2075adec303dcb2f0c4fbfcbc8493</title>
<text text-anchor="middle" x="187" y="-159.5" font-family="Helvetica,sans-Serif" font-size="10.00">datastructures</text>
</g>
<!-- dir_879d833e0dfbe8f31a5e860bb94efb50 -->
<g id="node4" class="node"><title>dir_879d833e0dfbe8f31a5e860bb94efb50</title>
<g id="a_node4"><a xlink:href="dir_879d833e0dfbe8f31a5e860bb94efb50.html" target="_top" xlink:title="util">
<polygon fill="white" stroke="red" points="309,-108 255,-108 255,-72 309,-72 309,-108"/>
<text text-anchor="middle" x="282" y="-87.5" font-family="Helvetica,sans-Serif" font-size="10.00">util</text>
</a>
</g>
</g>
<!-- dir_bce2075adec303dcb2f0c4fbfcbc8493&#45;&gt;dir_879d833e0dfbe8f31a5e860bb94efb50 -->
<g id="edge6" class="edge"><title>dir_bce2075adec303dcb2f0c4fbfcbc8493&#45;&gt;dir_879d833e0dfbe8f31a5e860bb94efb50</title>
<path fill="none" stroke="black" d="M210.483,-143.697C222.563,-134.796 237.454,-123.823 250.516,-114.199"/>
<polygon fill="black" stroke="black" points="252.813,-116.854 258.787,-108.104 248.66,-111.219 252.813,-116.854"/>
<g id="a_edge6&#45;headlabel"><a xlink:href="dir_000024_000028.html" target="_top" xlink:title="25">
<text text-anchor="middle" x="251.603" y="-118.772" font-family="Helvetica,sans-Serif" font-size="10.00">25</text>
</a>
</g>
</g>
<!-- dir_7fa927d8fbf9dfbeef69af27f63bc81b -->
<g id="node5" class="node"><title>dir_7fa927d8fbf9dfbeef69af27f63bc81b</title>
<g id="a_node5"><a xlink:href="dir_7fa927d8fbf9dfbeef69af27f63bc81b.html" target="_top" xlink:title="representations">
<polygon fill="white" stroke="red" points="328,-36 236,-36 236,-0 328,-0 328,-36"/>
<text text-anchor="middle" x="282" y="-15.5" font-family="Helvetica,sans-Serif" font-size="10.00">representations</text>
</a>
</g>
</g>
<!-- dir_bce2075adec303dcb2f0c4fbfcbc8493&#45;&gt;dir_7fa927d8fbf9dfbeef69af27f63bc81b -->
<g id="edge7" class="edge"><title>dir_bce2075adec303dcb2f0c4fbfcbc8493&#45;&gt;dir_7fa927d8fbf9dfbeef69af27f63bc81b</title>
<path fill="none" stroke="black" d="M230.53,-155.952C260.618,-149.941 298.594,-136.785 318,-108 330.919,-88.8369 326.698,-77.412 318,-56 316.245,-51.6796 313.716,-47.5869 310.801,-43.808"/>
<polygon fill="black" stroke="black" points="313.2,-41.2376 303.951,-36.0695 307.958,-45.8773 313.2,-41.2376"/>
<g id="a_edge7&#45;headlabel"><a xlink:href="dir_000024_000015.html" target="_top" xlink:title="12">
<text text-anchor="middle" x="317.708" y="-39.5473" font-family="Helvetica,sans-Serif" font-size="10.00">12</text>
</a>
</g>
</g>
<!-- dir_fc0efe5d2249fba2a29c6d003d9b04e9 -->
<g id="node2" class="node"><title>dir_fc0efe5d2249fba2a29c6d003d9b04e9</title>
<g id="a_node2"><a xlink:href="dir_fc0efe5d2249fba2a29c6d003d9b04e9.html" target="_top" xlink:title="HybridAutomaton">
<polygon fill="white" stroke="red" points="125.5,-180 24.5,-180 24.5,-144 125.5,-144 125.5,-180"/>
<text text-anchor="middle" x="75" y="-159.5" font-family="Helvetica,sans-Serif" font-size="10.00">HybridAutomaton</text>
</a>
</g>
</g>
<!-- dir_f695c0e486b1567b2450488137a0ccfa -->
<g id="node3" class="node"><title>dir_f695c0e486b1567b2450488137a0ccfa</title>
<g id="a_node3"><a xlink:href="dir_f695c0e486b1567b2450488137a0ccfa.html" target="_top" xlink:title="reachability">
<polygon fill="white" stroke="red" points="132.5,-108 61.5,-108 61.5,-72 132.5,-72 132.5,-108"/>
<text text-anchor="middle" x="97" y="-87.5" font-family="Helvetica,sans-Serif" font-size="10.00">reachability</text>
</a>
</g>
</g>
<!-- dir_fc0efe5d2249fba2a29c6d003d9b04e9&#45;&gt;dir_f695c0e486b1567b2450488137a0ccfa -->
<g id="edge8" class="edge"><title>dir_fc0efe5d2249fba2a29c6d003d9b04e9&#45;&gt;dir_f695c0e486b1567b2450488137a0ccfa</title>
<path fill="none" stroke="black" d="M74.5225,-143.697C76.1869,-135.813 78.9568,-126.304 82.085,-117.546"/>
<polygon fill="black" stroke="black" points="85.3937,-118.694 85.7293,-108.104 78.8632,-116.173 85.3937,-118.694"/>
<g id="a_edge8&#45;headlabel"><a xlink:href="dir_000025_000030.html" target="_top" xlink:title="1">
<text text-anchor="middle" x="86.7482" y="-120.57" font-family="Helvetica,sans-Serif" font-size="10.00">1</text>
</a>
</g>
</g>
<!-- dir_fc0efe5d2249fba2a29c6d003d9b04e9&#45;&gt;dir_879d833e0dfbe8f31a5e860bb94efb50 -->
<g id="edge9" class="edge"><title>dir_fc0efe5d2249fba2a29c6d003d9b04e9&#45;&gt;dir_879d833e0dfbe8f31a5e860bb94efb50</title>
<path fill="none" stroke="black" d="M124.093,-143.877C162.8,-131.527 213.378,-115.723 234,-108 237.631,-106.64 241.414,-105.123 245.21,-103.57"/>
<polygon fill="black" stroke="black" points="246.681,-106.75 254.596,-99.7069 244.017,-100.277 246.681,-106.75"/>
<g id="a_edge9&#45;headlabel"><a xlink:href="dir_000025_000028.html" target="_top" xlink:title="3">
<text text-anchor="middle" x="244.437" y="-108.243" font-family="Helvetica,sans-Serif" font-size="10.00">3</text>
</a>
</g>
</g>
<!-- dir_fc0efe5d2249fba2a29c6d003d9b04e9&#45;&gt;dir_7fa927d8fbf9dfbeef69af27f63bc81b -->
<g id="edge10" class="edge"><title>dir_fc0efe5d2249fba2a29c6d003d9b04e9&#45;&gt;dir_7fa927d8fbf9dfbeef69af27f63bc81b</title>
<path fill="none" stroke="black" d="M99.969,-143.871C137.113,-118.391 206.994,-70.4536 248.531,-41.9594"/>
<polygon fill="black" stroke="black" points="250.676,-44.7323 256.942,-36.1893 246.716,-38.96 250.676,-44.7323"/>
<g id="a_edge10&#45;headlabel"><a xlink:href="dir_000025_000015.html" target="_top" xlink:title="8">
<text text-anchor="middle" x="249.318" y="-46.607" font-family="Helvetica,sans-Serif" font-size="10.00">8</text>
</a>
</g>
</g>
<!-- dir_f695c0e486b1567b2450488137a0ccfa&#45;&gt;dir_fc0efe5d2249fba2a29c6d003d9b04e9 -->
<g id="edge2" class="edge"><title>dir_f695c0e486b1567b2450488137a0ccfa&#45;&gt;dir_fc0efe5d2249fba2a29c6d003d9b04e9</title>
<path fill="none" stroke="black" d="M97.5194,-108.104C95.8736,-115.96 93.1162,-125.462 89.9941,-134.232"/>
<polygon fill="black" stroke="black" points="86.6769,-133.107 86.3539,-143.697 93.2104,-135.62 86.6769,-133.107"/>
<g id="a_edge2&#45;headlabel"><a xlink:href="dir_000030_000025.html" target="_top" xlink:title="16">
<text text-anchor="middle" x="85.3172" y="-126.232" font-family="Helvetica,sans-Serif" font-size="10.00">16</text>
</a>
</g>
</g>
<!-- dir_f695c0e486b1567b2450488137a0ccfa&#45;&gt;dir_879d833e0dfbe8f31a5e860bb94efb50 -->
<g id="edge1" class="edge"><title>dir_f695c0e486b1567b2450488137a0ccfa&#45;&gt;dir_879d833e0dfbe8f31a5e860bb94efb50</title>
<path fill="none" stroke="black" d="M132.771,-90C170.14,-90 207.508,-90 244.876,-90"/>
<polygon fill="black" stroke="black" points="244.894,-93.5001 254.894,-90 244.894,-86.5001 244.894,-93.5001"/>
<g id="a_edge1&#45;headlabel"><a xlink:href="dir_000030_000028.html" target="_top" xlink:title="16">
<text text-anchor="middle" x="241.299" y="-93.8393" font-family="Helvetica,sans-Serif" font-size="10.00">16</text>
</a>
</g>
</g>
<!-- dir_f695c0e486b1567b2450488137a0ccfa&#45;&gt;dir_7fa927d8fbf9dfbeef69af27f63bc81b -->
<g id="edge3" class="edge"><title>dir_f695c0e486b1567b2450488137a0ccfa&#45;&gt;dir_7fa927d8fbf9dfbeef69af27f63bc81b</title>
<path fill="none" stroke="black" d="M132.18,-71.9103C143.785,-66.5334 156.836,-60.7614 169,-56 187.413,-48.7928 207.866,-41.799 226.256,-35.8679"/>
<polygon fill="black" stroke="black" points="227.483,-39.1504 235.947,-32.778 225.356,-32.4812 227.483,-39.1504"/>
<g id="a_edge3&#45;headlabel"><a xlink:href="dir_000030_000015.html" target="_top" xlink:title="3">
<text text-anchor="middle" x="224.921" y="-40.4474" font-family="Helvetica,sans-Serif" font-size="10.00">3</text>
</a>
</g>
</g>
<!-- dir_879d833e0dfbe8f31a5e860bb94efb50&#45;&gt;dir_fc0efe5d2249fba2a29c6d003d9b04e9 -->
<g id="edge4" class="edge"><title>dir_879d833e0dfbe8f31a5e860bb94efb50&#45;&gt;dir_fc0efe5d2249fba2a29c6d003d9b04e9</title>
<path fill="none" stroke="black" d="M254.932,-106.881C253.947,-107.264 252.968,-107.637 252,-108 230.809,-115.936 177.986,-132.405 135.44,-144.892"/>
<polygon fill="black" stroke="black" points="134.325,-141.571 125.705,-147.731 136.285,-148.291 134.325,-141.571"/>
<g id="a_edge4&#45;headlabel"><a xlink:href="dir_000028_000025.html" target="_top" xlink:title="1">
<text text-anchor="middle" x="136.98" y="-135.339" font-family="Helvetica,sans-Serif" font-size="10.00">1</text>
</a>
</g>
</g>
<!-- dir_879d833e0dfbe8f31a5e860bb94efb50&#45;&gt;dir_7fa927d8fbf9dfbeef69af27f63bc81b -->
<g id="edge5" class="edge"><title>dir_879d833e0dfbe8f31a5e860bb94efb50&#45;&gt;dir_7fa927d8fbf9dfbeef69af27f63bc81b</title>
<path fill="none" stroke="black" d="M276.084,-71.6966C275.289,-63.9827 275.062,-54.7125 275.405,-46.1124"/>
<polygon fill="black" stroke="black" points="278.898,-46.3243 276.105,-36.1043 271.915,-45.8356 278.898,-46.3243"/>
<g id="a_edge5&#45;headlabel"><a xlink:href="dir_000028_000015.html" target="_top" xlink:title="2">
<text text-anchor="middle" x="281.48" y="-47.6083" font-family="Helvetica,sans-Serif" font-size="10.00">2</text>
</a>
</g>
</g>
<!-- dir_7fa927d8fbf9dfbeef69af27f63bc81b&#45;&gt;dir_879d833e0dfbe8f31a5e860bb94efb50 -->
<g id="edge11" class="edge"><title>dir_7fa927d8fbf9dfbeef69af27f63bc81b&#45;&gt;dir_879d833e0dfbe8f31a5e860bb94efb50</title>
<path fill="none" stroke="black" d="M287.895,-36.1043C288.701,-43.7913 288.937,-53.0537 288.604,-61.6651"/>
<polygon fill="black" stroke="black" points="285.109,-61.4805 287.916,-71.6966 292.092,-61.9597 285.109,-61.4805"/>
<g id="a_edge11&#45;headlabel"><a xlink:href="dir_000015_000028.html" target="_top" xlink:title="43">
<text text-anchor="middle" x="282.522" y="-55.2" font-family="Helvetica,sans-Serif" font-size="10.00">43</text>
</a>
</g>
</g>
</g>
</svg>
