<?xml version="1.0" encoding="UTF-8" standalone="no"?>
<!DOCTYPE svg PUBLIC "-//W3C//DTD SVG 1.1//EN"
 "http://www.w3.org/Graphics/SVG/1.1/DTD/svg11.dtd">
<!-- Generated by graphviz version 2.38.0 (20140413.2041)
 -->
<!-- Title: /home/travis/build/hypro/hypro/src/hypro/representations/OrthogonalPolyhedron Pages: 1 -->
<svg width="290pt" height="231pt"
 viewBox="0.00 0.00 290.00 231.00" xmlns="http://www.w3.org/2000/svg" xmlns:xlink="http://www.w3.org/1999/xlink">
<g id="graph0" class="graph" transform="scale(1 1) rotate(0) translate(4 227)">
<title>/home/travis/build/hypro/hypro/src/hypro/representations/OrthogonalPolyhedron</title>
<polygon fill="white" stroke="none" points="-4,4 -4,-227 286,-227 286,4 -4,4"/>
<g id="clust1" class="cluster"><title>clusterdir_7fa927d8fbf9dfbeef69af27f63bc81b</title>
<g id="a_clust1"><a xlink:href="dir_7fa927d8fbf9dfbeef69af27f63bc81b.html" target="_top" xlink:title="representations">
<polygon fill="#ddddee" stroke="black" points="8,-128 8,-215 274,-215 274,-128 8,-128"/>
<text text-anchor="middle" x="141" y="-203" font-family="Helvetica,sans-Serif" font-size="10.00">representations</text>
</a>
</g>
</g>
<g id="clust2" class="cluster"><title>clusterdir_c3a99445e85233736dff89b095acd8fe</title>
<g id="a_clust2"><a xlink:href="dir_c3a99445e85233736dff89b095acd8fe.html" target="_top">
<polygon fill="#eeeeff" stroke="black" points="16,-136 16,-188 266,-188 266,-136 16,-136"/>
</a>
</g>
</g>
<!-- dir_c3a99445e85233736dff89b095acd8fe -->
<g id="node1" class="node"><title>dir_c3a99445e85233736dff89b095acd8fe</title>
<text text-anchor="middle" x="196" y="-159.5" font-family="Helvetica,sans-Serif" font-size="10.00">OrthogonalPolyhedron</text>
</g>
<!-- dir_bce2075adec303dcb2f0c4fbfcbc8493 -->
<g id="node3" class="node"><title>dir_bce2075adec303dcb2f0c4fbfcbc8493</title>
<g id="a_node3"><a xlink:href="dir_bce2075adec303dcb2f0c4fbfcbc8493.html" target="_top" xlink:title="datastructures">
<polygon fill="white" stroke="red" points="239.5,-36 152.5,-36 152.5,-0 239.5,-0 239.5,-36"/>
<text text-anchor="middle" x="196" y="-15.5" font-family="Helvetica,sans-Serif" font-size="10.00">datastructures</text>
</a>
</g>
</g>
<!-- dir_c3a99445e85233736dff89b095acd8fe&#45;&gt;dir_bce2075adec303dcb2f0c4fbfcbc8493 -->
<g id="edge1" class="edge"><title>dir_c3a99445e85233736dff89b095acd8fe&#45;&gt;dir_bce2075adec303dcb2f0c4fbfcbc8493</title>
<path fill="none" stroke="black" d="M192.752,-143.888C190.954,-133.542 188.905,-120.063 188,-108 186.803,-92.0449 186.803,-87.9551 188,-72 188.637,-63.5179 189.838,-54.3361 191.121,-46.0356"/>
<polygon fill="black" stroke="black" points="194.584,-46.5472 192.752,-36.1119 187.676,-45.412 194.584,-46.5472"/>
<g id="a_edge1&#45;headlabel"><a xlink:href="dir_000044_000024.html" target="_top" xlink:title="6">
<text text-anchor="middle" x="196.802" y="-48.0546" font-family="Helvetica,sans-Serif" font-size="10.00">6</text>
</a>
</g>
</g>
<!-- dir_2a022a7dd5883d249fd19381a9acb7ca -->
<g id="node4" class="node"><title>dir_2a022a7dd5883d249fd19381a9acb7ca</title>
<g id="a_node4"><a xlink:href="dir_2a022a7dd5883d249fd19381a9acb7ca.html" target="_top" xlink:title="Box">
<polygon fill="none" stroke="black" points="251,-108 197,-108 197,-72 251,-72 251,-108"/>
<text text-anchor="middle" x="224" y="-87.5" font-family="Helvetica,sans-Serif" font-size="10.00">Box</text>
</a>
</g>
</g>
<!-- dir_c3a99445e85233736dff89b095acd8fe&#45;&gt;dir_2a022a7dd5883d249fd19381a9acb7ca -->
<g id="edge2" class="edge"><title>dir_c3a99445e85233736dff89b095acd8fe&#45;&gt;dir_2a022a7dd5883d249fd19381a9acb7ca</title>
<path fill="none" stroke="black" d="M202.921,-143.697C206.075,-135.813 209.878,-126.304 213.381,-117.546"/>
<polygon fill="black" stroke="black" points="216.694,-118.689 217.158,-108.104 210.195,-116.089 216.694,-118.689"/>
<g id="a_edge2&#45;headlabel"><a xlink:href="dir_000044_000037.html" target="_top" xlink:title="1">
<text text-anchor="middle" x="217.995" y="-120.581" font-family="Helvetica,sans-Serif" font-size="10.00">1</text>
</a>
</g>
</g>
<!-- dir_8703207402ea7a15c36e60a5729bd4a9 -->
<g id="node2" class="node"><title>dir_8703207402ea7a15c36e60a5729bd4a9</title>
<g id="a_node2"><a xlink:href="dir_8703207402ea7a15c36e60a5729bd4a9.html" target="_top" xlink:title="representations">
<polygon fill="white" stroke="black" points="116,-180 24,-180 24,-144 116,-144 116,-180"/>
<text text-anchor="middle" x="70" y="-159.5" font-family="Helvetica,sans-Serif" font-size="10.00">representations</text>
</a>
</g>
</g>
<!-- dir_2a022a7dd5883d249fd19381a9acb7ca&#45;&gt;dir_bce2075adec303dcb2f0c4fbfcbc8493 -->
<g id="edge3" class="edge"><title>dir_2a022a7dd5883d249fd19381a9acb7ca&#45;&gt;dir_bce2075adec303dcb2f0c4fbfcbc8493</title>
<path fill="none" stroke="black" d="M217.079,-71.6966C213.925,-63.8132 210.122,-54.3042 206.619,-45.5464"/>
<polygon fill="black" stroke="black" points="209.805,-44.0892 202.842,-36.1043 203.306,-46.689 209.805,-44.0892"/>
<g id="a_edge3&#45;headlabel"><a xlink:href="dir_000037_000024.html" target="_top" xlink:title="3">
<text text-anchor="middle" x="213.777" y="-43.8723" font-family="Helvetica,sans-Serif" font-size="10.00">3</text>
</a>
</g>
</g>
</g>
</svg>
