<?xml version="1.0" encoding="UTF-8" standalone="no"?>
<!DOCTYPE svg PUBLIC "-//W3C//DTD SVG 1.1//EN"
 "http://www.w3.org/Graphics/SVG/1.1/DTD/svg11.dtd">
<!-- Generated by graphviz version 2.38.0 (20140413.2041)
 -->
<!-- Title: /home/travis/build/hypro/hypro/src/hypro Pages: 1 -->
<svg width="268pt" height="327pt"
 viewBox="0.00 0.00 268.00 327.00" xmlns="http://www.w3.org/2000/svg" xmlns:xlink="http://www.w3.org/1999/xlink">
<g id="graph0" class="graph" transform="scale(1 1) rotate(0) translate(4 323)">
<title>/home/travis/build/hypro/hypro/src/hypro</title>
<polygon fill="white" stroke="none" points="-4,4 -4,-323 264,-323 264,4 -4,4"/>
<g id="clust1" class="cluster"><title>clusterdir_68267d1309a1af8e8297ef4c3efbcdba</title>
<g id="a_clust1"><a xlink:href="dir_68267d1309a1af8e8297ef4c3efbcdba.html" target="_top" xlink:title="src">
<polygon fill="#ddddee" stroke="black" points="8,-8 8,-311 252,-311 252,-8 8,-8"/>
<text text-anchor="middle" x="130" y="-299" font-family="Helvetica,sans-Serif" font-size="10.00">src</text>
</a>
</g>
</g>
<g id="clust2" class="cluster"><title>clusterdir_2ce0cb9797b50c8d842bc50008b46cdd</title>
<g id="a_clust2"><a xlink:href="dir_2ce0cb9797b50c8d842bc50008b46cdd.html" target="_top">
<polygon fill="#eeeeff" stroke="black" points="16,-16 16,-284 244,-284 244,-16 16,-16"/>
</a>
</g>
</g>
<!-- dir_2ce0cb9797b50c8d842bc50008b46cdd -->
<g id="node1" class="node"><title>dir_2ce0cb9797b50c8d842bc50008b46cdd</title>
<text text-anchor="middle" x="209" y="-255.5" font-family="Helvetica,sans-Serif" font-size="10.00">hypro</text>
</g>
<!-- dir_55730fee9a0c1f12da77eb14a8325c4c -->
<g id="node2" class="node"><title>dir_55730fee9a0c1f12da77eb14a8325c4c</title>
<g id="a_node2"><a xlink:href="dir_55730fee9a0c1f12da77eb14a8325c4c.html" target="_top" xlink:title="algorithms">
<polygon fill="white" stroke="red" points="164,-276 96,-276 96,-240 164,-240 164,-276"/>
<text text-anchor="middle" x="130" y="-255.5" font-family="Helvetica,sans-Serif" font-size="10.00">algorithms</text>
</a>
</g>
</g>
<!-- dir_bce2075adec303dcb2f0c4fbfcbc8493 -->
<g id="node3" class="node"><title>dir_bce2075adec303dcb2f0c4fbfcbc8493</title>
<g id="a_node3"><a xlink:href="dir_bce2075adec303dcb2f0c4fbfcbc8493.html" target="_top" xlink:title="datastructures">
<polygon fill="white" stroke="red" points="131.5,-204 44.5,-204 44.5,-168 131.5,-168 131.5,-204"/>
<text text-anchor="middle" x="88" y="-183.5" font-family="Helvetica,sans-Serif" font-size="10.00">datastructures</text>
</a>
</g>
</g>
<!-- dir_55730fee9a0c1f12da77eb14a8325c4c&#45;&gt;dir_bce2075adec303dcb2f0c4fbfcbc8493 -->
<g id="edge6" class="edge"><title>dir_55730fee9a0c1f12da77eb14a8325c4c&#45;&gt;dir_bce2075adec303dcb2f0c4fbfcbc8493</title>
<path fill="none" stroke="black" d="M119.618,-239.697C114.735,-231.559 108.813,-221.689 103.421,-212.701"/>
<polygon fill="black" stroke="black" points="106.409,-210.879 98.2626,-204.104 100.406,-214.48 106.409,-210.879"/>
<g id="a_edge6&#45;headlabel"><a xlink:href="dir_000003_000024.html" target="_top" xlink:title="64">
<text text-anchor="middle" x="110.693" y="-210" font-family="Helvetica,sans-Serif" font-size="10.00">64</text>
</a>
</g>
</g>
<!-- dir_7fa927d8fbf9dfbeef69af27f63bc81b -->
<g id="node5" class="node"><title>dir_7fa927d8fbf9dfbeef69af27f63bc81b</title>
<g id="a_node5"><a xlink:href="dir_7fa927d8fbf9dfbeef69af27f63bc81b.html" target="_top" xlink:title="representations">
<polygon fill="white" stroke="red" points="159,-132 67,-132 67,-96 159,-96 159,-132"/>
<text text-anchor="middle" x="113" y="-111.5" font-family="Helvetica,sans-Serif" font-size="10.00">representations</text>
</a>
</g>
</g>
<!-- dir_55730fee9a0c1f12da77eb14a8325c4c&#45;&gt;dir_7fa927d8fbf9dfbeef69af27f63bc81b -->
<g id="edge7" class="edge"><title>dir_55730fee9a0c1f12da77eb14a8325c4c&#45;&gt;dir_7fa927d8fbf9dfbeef69af27f63bc81b</title>
<path fill="none" stroke="black" d="M128.713,-239.72C131.313,-221.627 136.879,-192.493 131,-168 128.817,-158.906 124.8,-149.614 120.917,-141.401"/>
<polygon fill="black" stroke="black" points="124.039,-139.817 116.54,-132.333 117.735,-142.86 124.039,-139.817"/>
<g id="a_edge7&#45;headlabel"><a xlink:href="dir_000003_000015.html" target="_top" xlink:title="7">
<text text-anchor="middle" x="128.159" y="-139.32" font-family="Helvetica,sans-Serif" font-size="10.00">7</text>
</a>
</g>
</g>
<!-- dir_879d833e0dfbe8f31a5e860bb94efb50 -->
<g id="node6" class="node"><title>dir_879d833e0dfbe8f31a5e860bb94efb50</title>
<g id="a_node6"><a xlink:href="dir_879d833e0dfbe8f31a5e860bb94efb50.html" target="_top" xlink:title="util">
<polygon fill="white" stroke="red" points="109,-60 55,-60 55,-24 109,-24 109,-60"/>
<text text-anchor="middle" x="82" y="-39.5" font-family="Helvetica,sans-Serif" font-size="10.00">util</text>
</a>
</g>
</g>
<!-- dir_55730fee9a0c1f12da77eb14a8325c4c&#45;&gt;dir_879d833e0dfbe8f31a5e860bb94efb50 -->
<g id="edge5" class="edge"><title>dir_55730fee9a0c1f12da77eb14a8325c4c&#45;&gt;dir_879d833e0dfbe8f31a5e860bb94efb50</title>
<path fill="none" stroke="black" d="M141.579,-239.914C160.785,-209.252 194.602,-143.643 168,-96 157.37,-76.9619 136.781,-63.9151 118.413,-55.5305"/>
<polygon fill="black" stroke="black" points="119.648,-52.2522 109.075,-51.5638 116.911,-58.695 119.648,-52.2522"/>
<g id="a_edge5&#45;headlabel"><a xlink:href="dir_000003_000028.html" target="_top" xlink:title="11">
<text text-anchor="middle" x="124.066" y="-48.5443" font-family="Helvetica,sans-Serif" font-size="10.00">11</text>
</a>
</g>
</g>
<!-- dir_bce2075adec303dcb2f0c4fbfcbc8493&#45;&gt;dir_7fa927d8fbf9dfbeef69af27f63bc81b -->
<g id="edge4" class="edge"><title>dir_bce2075adec303dcb2f0c4fbfcbc8493&#45;&gt;dir_7fa927d8fbf9dfbeef69af27f63bc81b</title>
<path fill="none" stroke="black" d="M88.2641,-167.697C90.2664,-159.813 93.4437,-150.304 96.9473,-141.546"/>
<polygon fill="black" stroke="black" points="100.272,-142.674 100.996,-132.104 93.8383,-139.916 100.272,-142.674"/>
<g id="a_edge4&#45;headlabel"><a xlink:href="dir_000024_000015.html" target="_top" xlink:title="12">
<text text-anchor="middle" x="101.465" y="-144.597" font-family="Helvetica,sans-Serif" font-size="10.00">12</text>
</a>
</g>
</g>
<!-- dir_bce2075adec303dcb2f0c4fbfcbc8493&#45;&gt;dir_879d833e0dfbe8f31a5e860bb94efb50 -->
<g id="edge3" class="edge"><title>dir_bce2075adec303dcb2f0c4fbfcbc8493&#45;&gt;dir_879d833e0dfbe8f31a5e860bb94efb50</title>
<path fill="none" stroke="black" d="M67.3466,-167.845C59.7136,-157.923 52.3932,-144.883 49,-132 44.9248,-116.528 45.6239,-111.64 49,-96 50.9821,-86.8177 54.6915,-77.3124 59.043,-68.9305"/>
<polygon fill="black" stroke="black" points="62.2157,-70.4344 64.1711,-60.0215 56.149,-66.9423 62.2157,-70.4344"/>
<g id="a_edge3&#45;headlabel"><a xlink:href="dir_000024_000028.html" target="_top" xlink:title="25">
<text text-anchor="middle" x="62.8833" y="-72.4661" font-family="Helvetica,sans-Serif" font-size="10.00">25</text>
</a>
</g>
</g>
<!-- dir_2c8758a5fdbf28946c502b471e14bb83 -->
<g id="node4" class="node"><title>dir_2c8758a5fdbf28946c502b471e14bb83</title>
<g id="a_node4"><a xlink:href="dir_2c8758a5fdbf28946c502b471e14bb83.html" target="_top" xlink:title="parser">
<polygon fill="white" stroke="red" points="78,-276 24,-276 24,-240 78,-240 78,-276"/>
<text text-anchor="middle" x="51" y="-255.5" font-family="Helvetica,sans-Serif" font-size="10.00">parser</text>
</a>
</g>
</g>
<!-- dir_2c8758a5fdbf28946c502b471e14bb83&#45;&gt;dir_bce2075adec303dcb2f0c4fbfcbc8493 -->
<g id="edge9" class="edge"><title>dir_2c8758a5fdbf28946c502b471e14bb83&#45;&gt;dir_bce2075adec303dcb2f0c4fbfcbc8493</title>
<path fill="none" stroke="black" d="M60.1461,-239.697C64.4026,-231.644 69.5558,-221.894 74.2664,-212.982"/>
<polygon fill="black" stroke="black" points="77.3803,-214.581 78.9591,-204.104 71.1917,-211.31 77.3803,-214.581"/>
<g id="a_edge9&#45;headlabel"><a xlink:href="dir_000034_000024.html" target="_top" xlink:title="17">
<text text-anchor="middle" x="78.2108" y="-216.586" font-family="Helvetica,sans-Serif" font-size="10.00">17</text>
</a>
</g>
</g>
<!-- dir_2c8758a5fdbf28946c502b471e14bb83&#45;&gt;dir_879d833e0dfbe8f31a5e860bb94efb50 -->
<g id="edge8" class="edge"><title>dir_2c8758a5fdbf28946c502b471e14bb83&#45;&gt;dir_879d833e0dfbe8f31a5e860bb94efb50</title>
<path fill="none" stroke="black" d="M44.3478,-239.628C40.7971,-229.421 36.7971,-216.171 35,-204 32.6629,-188.172 33.1492,-183.893 35,-168 38.8033,-135.341 40.0039,-126.613 52,-96 55.6261,-86.7463 60.6341,-77.1425 65.5203,-68.6933"/>
<polygon fill="black" stroke="black" points="68.5624,-70.4257 70.7033,-60.0494 62.559,-66.8259 68.5624,-70.4257"/>
<g id="a_edge8&#45;headlabel"><a xlink:href="dir_000034_000028.html" target="_top" xlink:title="3">
<text text-anchor="middle" x="69.149" y="-72.4687" font-family="Helvetica,sans-Serif" font-size="10.00">3</text>
</a>
</g>
</g>
<!-- dir_7fa927d8fbf9dfbeef69af27f63bc81b&#45;&gt;dir_55730fee9a0c1f12da77eb14a8325c4c -->
<g id="edge12" class="edge"><title>dir_7fa927d8fbf9dfbeef69af27f63bc81b&#45;&gt;dir_55730fee9a0c1f12da77eb14a8325c4c</title>
<path fill="none" stroke="black" d="M132.394,-132.333C139.375,-142.311 145.963,-155.348 149,-168 153.938,-188.57 150.802,-212.414 145.43,-230.242"/>
<polygon fill="black" stroke="black" points="142.112,-229.126 142.152,-239.72 148.728,-231.413 142.112,-229.126"/>
<g id="a_edge12&#45;headlabel"><a xlink:href="dir_000015_000003.html" target="_top" xlink:title="3">
<text text-anchor="middle" x="140.604" y="-222.301" font-family="Helvetica,sans-Serif" font-size="10.00">3</text>
</a>
</g>
</g>
<!-- dir_7fa927d8fbf9dfbeef69af27f63bc81b&#45;&gt;dir_bce2075adec303dcb2f0c4fbfcbc8493 -->
<g id="edge11" class="edge"><title>dir_7fa927d8fbf9dfbeef69af27f63bc81b&#45;&gt;dir_bce2075adec303dcb2f0c4fbfcbc8493</title>
<path fill="none" stroke="black" d="M112.786,-132.104C110.804,-139.96 107.639,-149.462 104.141,-158.232"/>
<polygon fill="black" stroke="black" points="100.808,-157.126 100.096,-167.697 107.244,-159.877 100.808,-157.126"/>
<g id="a_edge11&#45;headlabel"><a xlink:href="dir_000015_000024.html" target="_top" xlink:title="25">
<text text-anchor="middle" x="99.6099" y="-150.204" font-family="Helvetica,sans-Serif" font-size="10.00">25</text>
</a>
</g>
</g>
<!-- dir_7fa927d8fbf9dfbeef69af27f63bc81b&#45;&gt;dir_879d833e0dfbe8f31a5e860bb94efb50 -->
<g id="edge10" class="edge"><title>dir_7fa927d8fbf9dfbeef69af27f63bc81b&#45;&gt;dir_879d833e0dfbe8f31a5e860bb94efb50</title>
<path fill="none" stroke="black" d="M99.4214,-95.6966C95.1169,-87.8132 90.6871,-78.3042 87.1844,-69.5464"/>
<polygon fill="black" stroke="black" points="90.4408,-68.2614 83.6797,-60.1043 83.8783,-70.6973 90.4408,-68.2614"/>
<g id="a_edge10&#45;headlabel"><a xlink:href="dir_000015_000028.html" target="_top" xlink:title="43">
<text text-anchor="middle" x="94.3534" y="-68.1434" font-family="Helvetica,sans-Serif" font-size="10.00">43</text>
</a>
</g>
</g>
<!-- dir_879d833e0dfbe8f31a5e860bb94efb50&#45;&gt;dir_bce2075adec303dcb2f0c4fbfcbc8493 -->
<g id="edge1" class="edge"><title>dir_879d833e0dfbe8f31a5e860bb94efb50&#45;&gt;dir_bce2075adec303dcb2f0c4fbfcbc8493</title>
<path fill="none" stroke="black" d="M79.9211,-60.0215C75.7281,-70.112 69.7281,-83.362 67,-96 63.6239,-111.64 62.9248,-116.528 67,-132 69.4388,-141.26 73.9065,-150.601 78.264,-158.807"/>
<polygon fill="black" stroke="black" points="75.3355,-160.747 83.2004,-167.845 81.479,-157.391 75.3355,-160.747"/>
<g id="a_edge1&#45;headlabel"><a xlink:href="dir_000028_000024.html" target="_top" xlink:title="12">
<text text-anchor="middle" x="71.1207" y="-156.453" font-family="Helvetica,sans-Serif" font-size="10.00">12</text>
</a>
</g>
</g>
<!-- dir_879d833e0dfbe8f31a5e860bb94efb50&#45;&gt;dir_7fa927d8fbf9dfbeef69af27f63bc81b -->
<g id="edge2" class="edge"><title>dir_879d833e0dfbe8f31a5e860bb94efb50&#45;&gt;dir_7fa927d8fbf9dfbeef69af27f63bc81b</title>
<path fill="none" stroke="black" d="M95.4698,-60.1043C99.772,-67.9602 104.209,-77.4616 107.727,-86.232"/>
<polygon fill="black" stroke="black" points="104.482,-87.5477 111.253,-95.6966 111.042,-85.1039 104.482,-87.5477"/>
<g id="a_edge2&#45;headlabel"><a xlink:href="dir_000028_000015.html" target="_top" xlink:title="2">
<text text-anchor="middle" x="100.566" y="-82.6704" font-family="Helvetica,sans-Serif" font-size="10.00">2</text>
</a>
</g>
</g>
</g>
</svg>
