<?xml version="1.0" encoding="UTF-8" standalone="no"?>
<!DOCTYPE svg PUBLIC "-//W3C//DTD SVG 1.1//EN"
 "http://www.w3.org/Graphics/SVG/1.1/DTD/svg11.dtd">
<!-- Generated by graphviz version 2.38.0 (20140413.2041)
 -->
<!-- Title: /home/travis/build/hypro/hypro/src/hypro/datastructures/HybridAutomaton/decomposition Pages: 1 -->
<svg width="167pt" height="223pt"
 viewBox="0.00 0.00 167.00 223.00" xmlns="http://www.w3.org/2000/svg" xmlns:xlink="http://www.w3.org/1999/xlink">
<g id="graph0" class="graph" transform="scale(1 1) rotate(0) translate(4 219)">
<title>/home/travis/build/hypro/hypro/src/hypro/datastructures/HybridAutomaton/decomposition</title>
<polygon fill="white" stroke="none" points="-4,4 -4,-219 163,-219 163,4 -4,4"/>
<g id="clust1" class="cluster"><title>clusterdir_fc0efe5d2249fba2a29c6d003d9b04e9</title>
<g id="a_clust1"><a xlink:href="dir_fc0efe5d2249fba2a29c6d003d9b04e9.html" target="_top" xlink:title="HybridAutomaton">
<polygon fill="#ddddee" stroke="black" points="47,-136 47,-207 151,-207 151,-136 47,-136"/>
<text text-anchor="middle" x="99" y="-195" font-family="Helvetica,sans-Serif" font-size="10.00">HybridAutomaton</text>
</a>
</g>
</g>
<!-- dir_1f675ff36096041079ce357a072edb84 -->
<g id="node1" class="node"><title>dir_1f675ff36096041079ce357a072edb84</title>
<g id="a_node1"><a xlink:href="dir_1f675ff36096041079ce357a072edb84.html" target="_top" xlink:title="decomposition">
<polygon fill="#eeeeff" stroke="black" points="142.5,-180 55.5,-180 55.5,-144 142.5,-144 142.5,-180"/>
<text text-anchor="middle" x="99" y="-159.5" font-family="Helvetica,sans-Serif" font-size="10.00">decomposition</text>
</a>
</g>
</g>
<!-- dir_9089fdb40e74f746acd9799dde4f03e8 -->
<g id="node2" class="node"><title>dir_9089fdb40e74f746acd9799dde4f03e8</title>
<g id="a_node2"><a xlink:href="dir_9089fdb40e74f746acd9799dde4f03e8.html" target="_top" xlink:title="flow">
<polygon fill="none" stroke="black" points="54,-108 0,-108 0,-72 54,-72 54,-108"/>
<text text-anchor="middle" x="27" y="-87.5" font-family="Helvetica,sans-Serif" font-size="10.00">flow</text>
</a>
</g>
</g>
<!-- dir_1f675ff36096041079ce357a072edb84&#45;&gt;dir_9089fdb40e74f746acd9799dde4f03e8 -->
<g id="edge2" class="edge"><title>dir_1f675ff36096041079ce357a072edb84&#45;&gt;dir_9089fdb40e74f746acd9799dde4f03e8</title>
<path fill="none" stroke="black" d="M81.2022,-143.697C72.396,-135.135 61.6179,-124.656 51.9989,-115.304"/>
<polygon fill="black" stroke="black" points="54.2028,-112.566 44.593,-108.104 49.3232,-117.585 54.2028,-112.566"/>
<g id="a_edge2&#45;headlabel"><a xlink:href="dir_000026_000027.html" target="_top" xlink:title="1">
<text text-anchor="middle" x="58.7593" y="-110.536" font-family="Helvetica,sans-Serif" font-size="10.00">1</text>
</a>
</g>
</g>
<!-- dir_879d833e0dfbe8f31a5e860bb94efb50 -->
<g id="node3" class="node"><title>dir_879d833e0dfbe8f31a5e860bb94efb50</title>
<g id="a_node3"><a xlink:href="dir_879d833e0dfbe8f31a5e860bb94efb50.html" target="_top" xlink:title="util">
<polygon fill="white" stroke="red" points="126,-108 72,-108 72,-72 126,-72 126,-108"/>
<text text-anchor="middle" x="99" y="-87.5" font-family="Helvetica,sans-Serif" font-size="10.00">util</text>
</a>
</g>
</g>
<!-- dir_1f675ff36096041079ce357a072edb84&#45;&gt;dir_879d833e0dfbe8f31a5e860bb94efb50 -->
<g id="edge3" class="edge"><title>dir_1f675ff36096041079ce357a072edb84&#45;&gt;dir_879d833e0dfbe8f31a5e860bb94efb50</title>
<path fill="none" stroke="black" d="M99,-143.697C99,-135.983 99,-126.712 99,-118.112"/>
<polygon fill="black" stroke="black" points="102.5,-118.104 99,-108.104 95.5001,-118.104 102.5,-118.104"/>
<g id="a_edge3&#45;headlabel"><a xlink:href="dir_000026_000028.html" target="_top" xlink:title="1">
<text text-anchor="middle" x="105.339" y="-119.199" font-family="Helvetica,sans-Serif" font-size="10.00">1</text>
</a>
</g>
</g>
<!-- dir_7fa927d8fbf9dfbeef69af27f63bc81b -->
<g id="node4" class="node"><title>dir_7fa927d8fbf9dfbeef69af27f63bc81b</title>
<g id="a_node4"><a xlink:href="dir_7fa927d8fbf9dfbeef69af27f63bc81b.html" target="_top" xlink:title="representations">
<polygon fill="white" stroke="red" points="145,-36 53,-36 53,-0 145,-0 145,-36"/>
<text text-anchor="middle" x="99" y="-15.5" font-family="Helvetica,sans-Serif" font-size="10.00">representations</text>
</a>
</g>
</g>
<!-- dir_1f675ff36096041079ce357a072edb84&#45;&gt;dir_7fa927d8fbf9dfbeef69af27f63bc81b -->
<g id="edge4" class="edge"><title>dir_1f675ff36096041079ce357a072edb84&#45;&gt;dir_7fa927d8fbf9dfbeef69af27f63bc81b</title>
<path fill="none" stroke="black" d="M114.61,-143.774C122.373,-134.03 130.946,-121.184 135,-108 139.703,-92.7067 139.703,-87.2933 135,-72 131.991,-62.2153 126.493,-52.6161 120.684,-44.3336"/>
<polygon fill="black" stroke="black" points="123.407,-42.1306 114.61,-36.2264 117.805,-46.3279 123.407,-42.1306"/>
<g id="a_edge4&#45;headlabel"><a xlink:href="dir_000026_000015.html" target="_top" xlink:title="1">
<text text-anchor="middle" x="127.835" y="-40.8048" font-family="Helvetica,sans-Serif" font-size="10.00">1</text>
</a>
</g>
</g>
<!-- dir_879d833e0dfbe8f31a5e860bb94efb50&#45;&gt;dir_7fa927d8fbf9dfbeef69af27f63bc81b -->
<g id="edge1" class="edge"><title>dir_879d833e0dfbe8f31a5e860bb94efb50&#45;&gt;dir_7fa927d8fbf9dfbeef69af27f63bc81b</title>
<path fill="none" stroke="black" d="M93.0843,-71.6966C92.2886,-63.9827 92.0621,-54.7125 92.4047,-46.1124"/>
<polygon fill="black" stroke="black" points="95.8984,-46.3243 93.105,-36.1043 88.9154,-45.8356 95.8984,-46.3243"/>
<g id="a_edge1&#45;headlabel"><a xlink:href="dir_000028_000015.html" target="_top" xlink:title="2">
<text text-anchor="middle" x="98.4799" y="-47.6083" font-family="Helvetica,sans-Serif" font-size="10.00">2</text>
</a>
</g>
</g>
<!-- dir_7fa927d8fbf9dfbeef69af27f63bc81b&#45;&gt;dir_879d833e0dfbe8f31a5e860bb94efb50 -->
<g id="edge5" class="edge"><title>dir_7fa927d8fbf9dfbeef69af27f63bc81b&#45;&gt;dir_879d833e0dfbe8f31a5e860bb94efb50</title>
<path fill="none" stroke="black" d="M104.895,-36.1043C105.701,-43.7913 105.937,-53.0537 105.604,-61.6651"/>
<polygon fill="black" stroke="black" points="102.109,-61.4805 104.916,-71.6966 109.092,-61.9597 102.109,-61.4805"/>
<g id="a_edge5&#45;headlabel"><a xlink:href="dir_000015_000028.html" target="_top" xlink:title="43">
<text text-anchor="middle" x="99.5219" y="-55.2" font-family="Helvetica,sans-Serif" font-size="10.00">43</text>
</a>
</g>
</g>
</g>
</svg>
