<?xml version="1.0" encoding="UTF-8" standalone="no"?>
<!DOCTYPE svg PUBLIC "-//W3C//DTD SVG 1.1//EN"
 "http://www.w3.org/Graphics/SVG/1.1/DTD/svg11.dtd">
<!-- Generated by graphviz version 2.38.0 (20140413.2041)
 -->
<!-- Title: /home/travis/build/hypro/hypro/src/hypro/algorithms/reachability/handlers/jumpHandlers Pages: 1 -->
<svg width="124pt" height="151pt"
 viewBox="0.00 0.00 124.00 151.00" xmlns="http://www.w3.org/2000/svg" xmlns:xlink="http://www.w3.org/1999/xlink">
<g id="graph0" class="graph" transform="scale(1 1) rotate(0) translate(4 147)">
<title>/home/travis/build/hypro/hypro/src/hypro/algorithms/reachability/handlers/jumpHandlers</title>
<polygon fill="white" stroke="none" points="-4,4 -4,-147 120,-147 120,4 -4,4"/>
<g id="clust1" class="cluster"><title>clusterdir_32033642301c2effdf6af876d53153c1</title>
<g id="a_clust1"><a xlink:href="dir_32033642301c2effdf6af876d53153c1.html" target="_top" xlink:title="handlers">
<polygon fill="#ddddee" stroke="black" points="8,-64 8,-135 108,-135 108,-64 8,-64"/>
<text text-anchor="middle" x="58" y="-123" font-family="Helvetica,sans-Serif" font-size="10.00">handlers</text>
</a>
</g>
</g>
<!-- dir_b22059ad2ad3604da29eff8b301e1502 -->
<g id="node1" class="node"><title>dir_b22059ad2ad3604da29eff8b301e1502</title>
<g id="a_node1"><a xlink:href="dir_b22059ad2ad3604da29eff8b301e1502.html" target="_top" xlink:title="jumpHandlers">
<polygon fill="#eeeeff" stroke="black" points="99.5,-108 16.5,-108 16.5,-72 99.5,-72 99.5,-108"/>
<text text-anchor="middle" x="58" y="-87.5" font-family="Helvetica,sans-Serif" font-size="10.00">jumpHandlers</text>
</a>
</g>
</g>
<!-- dir_bce2075adec303dcb2f0c4fbfcbc8493 -->
<g id="node2" class="node"><title>dir_bce2075adec303dcb2f0c4fbfcbc8493</title>
<g id="a_node2"><a xlink:href="dir_bce2075adec303dcb2f0c4fbfcbc8493.html" target="_top" xlink:title="datastructures">
<polygon fill="white" stroke="red" points="101.5,-36 14.5,-36 14.5,-0 101.5,-0 101.5,-36"/>
<text text-anchor="middle" x="58" y="-15.5" font-family="Helvetica,sans-Serif" font-size="10.00">datastructures</text>
</a>
</g>
</g>
<!-- dir_b22059ad2ad3604da29eff8b301e1502&#45;&gt;dir_bce2075adec303dcb2f0c4fbfcbc8493 -->
<g id="edge1" class="edge"><title>dir_b22059ad2ad3604da29eff8b301e1502&#45;&gt;dir_bce2075adec303dcb2f0c4fbfcbc8493</title>
<path fill="none" stroke="black" d="M58,-71.6966C58,-63.9827 58,-54.7125 58,-46.1124"/>
<polygon fill="black" stroke="black" points="61.5001,-46.1043 58,-36.1043 54.5001,-46.1044 61.5001,-46.1043"/>
<g id="a_edge1&#45;headlabel"><a xlink:href="dir_000014_000024.html" target="_top" xlink:title="8">
<text text-anchor="middle" x="64.3393" y="-47.199" font-family="Helvetica,sans-Serif" font-size="10.00">8</text>
</a>
</g>
</g>
</g>
</svg>
