<?xml version="1.0" encoding="UTF-8" standalone="no"?>
<!DOCTYPE svg PUBLIC "-//W3C//DTD SVG 1.1//EN"
 "http://www.w3.org/Graphics/SVG/1.1/DTD/svg11.dtd">
<!-- Generated by graphviz version 2.38.0 (20140413.2041)
 -->
<!-- Title: /home/travis/build/hypro/hypro/src/hypro/parser Pages: 1 -->
<svg width="291pt" height="231pt"
 viewBox="0.00 0.00 291.00 231.00" xmlns="http://www.w3.org/2000/svg" xmlns:xlink="http://www.w3.org/1999/xlink">
<g id="graph0" class="graph" transform="scale(1 1) rotate(0) translate(4 227)">
<title>/home/travis/build/hypro/hypro/src/hypro/parser</title>
<polygon fill="white" stroke="none" points="-4,4 -4,-227 287,-227 287,4 -4,4"/>
<g id="clust1" class="cluster"><title>clusterdir_2ce0cb9797b50c8d842bc50008b46cdd</title>
<g id="a_clust1"><a xlink:href="dir_2ce0cb9797b50c8d842bc50008b46cdd.html" target="_top" xlink:title="hypro">
<polygon fill="#ddddee" stroke="black" points="8,-128 8,-215 275,-215 275,-128 8,-128"/>
<text text-anchor="middle" x="141.5" y="-203" font-family="Helvetica,sans-Serif" font-size="10.00">hypro</text>
</a>
</g>
</g>
<g id="clust2" class="cluster"><title>clusterdir_2c8758a5fdbf28946c502b471e14bb83</title>
<g id="a_clust2"><a xlink:href="dir_2c8758a5fdbf28946c502b471e14bb83.html" target="_top">
<polygon fill="#eeeeff" stroke="black" points="16,-136 16,-188 267,-188 267,-136 16,-136"/>
</a>
</g>
</g>
<!-- dir_2c8758a5fdbf28946c502b471e14bb83 -->
<g id="node1" class="node"><title>dir_2c8758a5fdbf28946c502b471e14bb83</title>
<text text-anchor="middle" x="232" y="-159.5" font-family="Helvetica,sans-Serif" font-size="10.00">parser</text>
</g>
<!-- dir_293cf7ffd2d1ce76fb1a113fdef90fd7 -->
<g id="node2" class="node"><title>dir_293cf7ffd2d1ce76fb1a113fdef90fd7</title>
<g id="a_node2"><a xlink:href="dir_293cf7ffd2d1ce76fb1a113fdef90fd7.html" target="_top" xlink:title="antlr4&#45;cif">
<polygon fill="white" stroke="black" points="83.5,-180 24.5,-180 24.5,-144 83.5,-144 83.5,-180"/>
<text text-anchor="middle" x="54" y="-159.5" font-family="Helvetica,sans-Serif" font-size="10.00">antlr4&#45;cif</text>
</a>
</g>
</g>
<!-- dir_bce2075adec303dcb2f0c4fbfcbc8493 -->
<g id="node5" class="node"><title>dir_bce2075adec303dcb2f0c4fbfcbc8493</title>
<g id="a_node5"><a xlink:href="dir_bce2075adec303dcb2f0c4fbfcbc8493.html" target="_top" xlink:title="datastructures">
<polygon fill="white" stroke="red" points="115.5,-108 28.5,-108 28.5,-72 115.5,-72 115.5,-108"/>
<text text-anchor="middle" x="72" y="-87.5" font-family="Helvetica,sans-Serif" font-size="10.00">datastructures</text>
</a>
</g>
</g>
<!-- dir_293cf7ffd2d1ce76fb1a113fdef90fd7&#45;&gt;dir_bce2075adec303dcb2f0c4fbfcbc8493 -->
<g id="edge5" class="edge"><title>dir_293cf7ffd2d1ce76fb1a113fdef90fd7&#45;&gt;dir_bce2075adec303dcb2f0c4fbfcbc8493</title>
<path fill="none" stroke="black" d="M58.4494,-143.697C60.4548,-135.898 62.8692,-126.509 65.1011,-117.829"/>
<polygon fill="black" stroke="black" points="68.501,-118.661 67.6017,-108.104 61.7215,-116.918 68.501,-118.661"/>
<g id="a_edge5&#45;headlabel"><a xlink:href="dir_000035_000024.html" target="_top" xlink:title="5">
<text text-anchor="middle" x="70.3557" y="-120.349" font-family="Helvetica,sans-Serif" font-size="10.00">5</text>
</a>
</g>
</g>
<!-- dir_d21d851d43d9af6e0004f77727cc1ce2 -->
<g id="node3" class="node"><title>dir_d21d851d43d9af6e0004f77727cc1ce2</title>
<g id="a_node3"><a xlink:href="dir_d21d851d43d9af6e0004f77727cc1ce2.html" target="_top" xlink:title="antlr4&#45;flowstar">
<polygon fill="white" stroke="black" points="186.5,-180 101.5,-180 101.5,-144 186.5,-144 186.5,-180"/>
<text text-anchor="middle" x="144" y="-159.5" font-family="Helvetica,sans-Serif" font-size="10.00">antlr4&#45;flowstar</text>
</a>
</g>
</g>
<!-- dir_879d833e0dfbe8f31a5e860bb94efb50 -->
<g id="node4" class="node"><title>dir_879d833e0dfbe8f31a5e860bb94efb50</title>
<g id="a_node4"><a xlink:href="dir_879d833e0dfbe8f31a5e860bb94efb50.html" target="_top" xlink:title="util">
<polygon fill="white" stroke="red" points="99,-36 45,-36 45,-0 99,-0 99,-36"/>
<text text-anchor="middle" x="72" y="-15.5" font-family="Helvetica,sans-Serif" font-size="10.00">util</text>
</a>
</g>
</g>
<!-- dir_d21d851d43d9af6e0004f77727cc1ce2&#45;&gt;dir_879d833e0dfbe8f31a5e860bb94efb50 -->
<g id="edge2" class="edge"><title>dir_d21d851d43d9af6e0004f77727cc1ce2&#45;&gt;dir_879d833e0dfbe8f31a5e860bb94efb50</title>
<path fill="none" stroke="black" d="M142.951,-143.958C141.19,-125.289 136.492,-94.951 124,-72 118.185,-61.3166 109.592,-51.3083 101.059,-42.9288"/>
<polygon fill="black" stroke="black" points="103.345,-40.2747 93.6469,-36.0083 98.5676,-45.3911 103.345,-40.2747"/>
<g id="a_edge2&#45;headlabel"><a xlink:href="dir_000036_000028.html" target="_top" xlink:title="3">
<text text-anchor="middle" x="107.91" y="-38.1525" font-family="Helvetica,sans-Serif" font-size="10.00">3</text>
</a>
</g>
</g>
<!-- dir_d21d851d43d9af6e0004f77727cc1ce2&#45;&gt;dir_bce2075adec303dcb2f0c4fbfcbc8493 -->
<g id="edge3" class="edge"><title>dir_d21d851d43d9af6e0004f77727cc1ce2&#45;&gt;dir_bce2075adec303dcb2f0c4fbfcbc8493</title>
<path fill="none" stroke="black" d="M126.202,-143.697C117.396,-135.135 106.618,-124.656 96.9989,-115.304"/>
<polygon fill="black" stroke="black" points="99.2028,-112.566 89.593,-108.104 94.3232,-117.585 99.2028,-112.566"/>
<g id="a_edge3&#45;headlabel"><a xlink:href="dir_000036_000024.html" target="_top" xlink:title="12">
<text text-anchor="middle" x="103.759" y="-110.536" font-family="Helvetica,sans-Serif" font-size="10.00">12</text>
</a>
</g>
</g>
<!-- dir_879d833e0dfbe8f31a5e860bb94efb50&#45;&gt;dir_bce2075adec303dcb2f0c4fbfcbc8493 -->
<g id="edge1" class="edge"><title>dir_879d833e0dfbe8f31a5e860bb94efb50&#45;&gt;dir_bce2075adec303dcb2f0c4fbfcbc8493</title>
<path fill="none" stroke="black" d="M77.895,-36.1043C78.7005,-43.7913 78.9369,-53.0537 78.604,-61.6651"/>
<polygon fill="black" stroke="black" points="75.1085,-61.4805 77.9157,-71.6966 82.0921,-61.9597 75.1085,-61.4805"/>
<g id="a_edge1&#45;headlabel"><a xlink:href="dir_000028_000024.html" target="_top" xlink:title="12">
<text text-anchor="middle" x="72.5219" y="-55.2" font-family="Helvetica,sans-Serif" font-size="10.00">12</text>
</a>
</g>
</g>
<!-- dir_bce2075adec303dcb2f0c4fbfcbc8493&#45;&gt;dir_879d833e0dfbe8f31a5e860bb94efb50 -->
<g id="edge4" class="edge"><title>dir_bce2075adec303dcb2f0c4fbfcbc8493&#45;&gt;dir_879d833e0dfbe8f31a5e860bb94efb50</title>
<path fill="none" stroke="black" d="M66.0843,-71.6966C65.2886,-63.9827 65.0621,-54.7125 65.4047,-46.1124"/>
<polygon fill="black" stroke="black" points="68.8984,-46.3243 66.105,-36.1043 61.9154,-45.8356 68.8984,-46.3243"/>
<g id="a_edge4&#45;headlabel"><a xlink:href="dir_000024_000028.html" target="_top" xlink:title="25">
<text text-anchor="middle" x="71.4799" y="-47.6083" font-family="Helvetica,sans-Serif" font-size="10.00">25</text>
</a>
</g>
</g>
</g>
</svg>
