<?xml version="1.0" encoding="UTF-8" standalone="no"?>
<!DOCTYPE svg PUBLIC "-//W3C//DTD SVG 1.1//EN"
 "http://www.w3.org/Graphics/SVG/1.1/DTD/svg11.dtd">
<!-- Generated by graphviz version 2.38.0 (20140413.2041)
 -->
<!-- Title: /home/travis/build/hypro/hypro/src/hypro/representations/Zonotope Pages: 1 -->
<svg width="133pt" height="223pt"
 viewBox="0.00 0.00 132.50 223.00" xmlns="http://www.w3.org/2000/svg" xmlns:xlink="http://www.w3.org/1999/xlink">
<g id="graph0" class="graph" transform="scale(1 1) rotate(0) translate(4 219)">
<title>/home/travis/build/hypro/hypro/src/hypro/representations/Zonotope</title>
<polygon fill="white" stroke="none" points="-4,4 -4,-219 128.5,-219 128.5,4 -4,4"/>
<g id="clust1" class="cluster"><title>clusterdir_7fa927d8fbf9dfbeef69af27f63bc81b</title>
<g id="a_clust1"><a xlink:href="dir_7fa927d8fbf9dfbeef69af27f63bc81b.html" target="_top" xlink:title="representations">
<polygon fill="#ddddee" stroke="black" points="24.5,-136 24.5,-207 116.5,-207 116.5,-136 24.5,-136"/>
<text text-anchor="middle" x="70.5" y="-195" font-family="Helvetica,sans-Serif" font-size="10.00">representations</text>
</a>
</g>
</g>
<!-- dir_97de49a5bc6f4f4b12a8405ff97bd656 -->
<g id="node1" class="node"><title>dir_97de49a5bc6f4f4b12a8405ff97bd656</title>
<g id="a_node1"><a xlink:href="dir_97de49a5bc6f4f4b12a8405ff97bd656.html" target="_top" xlink:title="Zonotope">
<polygon fill="#eeeeff" stroke="black" points="102.5,-180 38.5,-180 38.5,-144 102.5,-144 102.5,-180"/>
<text text-anchor="middle" x="70.5" y="-159.5" font-family="Helvetica,sans-Serif" font-size="10.00">Zonotope</text>
</a>
</g>
</g>
<!-- dir_879d833e0dfbe8f31a5e860bb94efb50 -->
<g id="node2" class="node"><title>dir_879d833e0dfbe8f31a5e860bb94efb50</title>
<g id="a_node2"><a xlink:href="dir_879d833e0dfbe8f31a5e860bb94efb50.html" target="_top" xlink:title="util">
<polygon fill="white" stroke="red" points="70.5,-108 16.5,-108 16.5,-72 70.5,-72 70.5,-108"/>
<text text-anchor="middle" x="43.5" y="-87.5" font-family="Helvetica,sans-Serif" font-size="10.00">util</text>
</a>
</g>
</g>
<!-- dir_97de49a5bc6f4f4b12a8405ff97bd656&#45;&gt;dir_879d833e0dfbe8f31a5e860bb94efb50 -->
<g id="edge2" class="edge"><title>dir_97de49a5bc6f4f4b12a8405ff97bd656&#45;&gt;dir_879d833e0dfbe8f31a5e860bb94efb50</title>
<path fill="none" stroke="black" d="M63.8258,-143.697C60.7851,-135.813 57.1173,-126.304 53.7393,-117.546"/>
<polygon fill="black" stroke="black" points="56.9617,-116.175 50.0974,-108.104 50.4307,-118.694 56.9617,-116.175"/>
<g id="a_edge2&#45;headlabel"><a xlink:href="dir_000049_000028.html" target="_top" xlink:title="2">
<text text-anchor="middle" x="60.9043" y="-116.007" font-family="Helvetica,sans-Serif" font-size="10.00">2</text>
</a>
</g>
</g>
<!-- dir_bce2075adec303dcb2f0c4fbfcbc8493 -->
<g id="node3" class="node"><title>dir_bce2075adec303dcb2f0c4fbfcbc8493</title>
<g id="a_node3"><a xlink:href="dir_bce2075adec303dcb2f0c4fbfcbc8493.html" target="_top" xlink:title="datastructures">
<polygon fill="white" stroke="red" points="87,-36 0,-36 0,-0 87,-0 87,-36"/>
<text text-anchor="middle" x="43.5" y="-15.5" font-family="Helvetica,sans-Serif" font-size="10.00">datastructures</text>
</a>
</g>
</g>
<!-- dir_97de49a5bc6f4f4b12a8405ff97bd656&#45;&gt;dir_bce2075adec303dcb2f0c4fbfcbc8493 -->
<g id="edge3" class="edge"><title>dir_97de49a5bc6f4f4b12a8405ff97bd656&#45;&gt;dir_bce2075adec303dcb2f0c4fbfcbc8493</title>
<path fill="none" stroke="black" d="M76.1461,-143.877C81.2573,-125.661 86.9405,-96.196 79.5,-72 76.4911,-62.2153 70.993,-52.6161 65.1843,-44.3336"/>
<polygon fill="black" stroke="black" points="67.9072,-42.1306 59.1099,-36.2264 62.3052,-46.3279 67.9072,-42.1306"/>
<g id="a_edge3&#45;headlabel"><a xlink:href="dir_000049_000024.html" target="_top" xlink:title="1">
<text text-anchor="middle" x="72.3348" y="-40.8048" font-family="Helvetica,sans-Serif" font-size="10.00">1</text>
</a>
</g>
</g>
<!-- dir_879d833e0dfbe8f31a5e860bb94efb50&#45;&gt;dir_bce2075adec303dcb2f0c4fbfcbc8493 -->
<g id="edge1" class="edge"><title>dir_879d833e0dfbe8f31a5e860bb94efb50&#45;&gt;dir_bce2075adec303dcb2f0c4fbfcbc8493</title>
<path fill="none" stroke="black" d="M37.5843,-71.6966C36.7886,-63.9827 36.5621,-54.7125 36.9047,-46.1124"/>
<polygon fill="black" stroke="black" points="40.3984,-46.3243 37.605,-36.1043 33.4154,-45.8356 40.3984,-46.3243"/>
<g id="a_edge1&#45;headlabel"><a xlink:href="dir_000028_000024.html" target="_top" xlink:title="12">
<text text-anchor="middle" x="42.9799" y="-47.6083" font-family="Helvetica,sans-Serif" font-size="10.00">12</text>
</a>
</g>
</g>
<!-- dir_bce2075adec303dcb2f0c4fbfcbc8493&#45;&gt;dir_879d833e0dfbe8f31a5e860bb94efb50 -->
<g id="edge4" class="edge"><title>dir_bce2075adec303dcb2f0c4fbfcbc8493&#45;&gt;dir_879d833e0dfbe8f31a5e860bb94efb50</title>
<path fill="none" stroke="black" d="M49.395,-36.1043C50.2005,-43.7913 50.4369,-53.0537 50.104,-61.6651"/>
<polygon fill="black" stroke="black" points="46.6085,-61.4805 49.4157,-71.6966 53.5921,-61.9597 46.6085,-61.4805"/>
<g id="a_edge4&#45;headlabel"><a xlink:href="dir_000024_000028.html" target="_top" xlink:title="25">
<text text-anchor="middle" x="44.0219" y="-55.2" font-family="Helvetica,sans-Serif" font-size="10.00">25</text>
</a>
</g>
</g>
</g>
</svg>
