<?xml version="1.0" encoding="UTF-8" standalone="no"?>
<!DOCTYPE svg PUBLIC "-//W3C//DTD SVG 1.1//EN"
 "http://www.w3.org/Graphics/SVG/1.1/DTD/svg11.dtd">
<!-- Generated by graphviz version 2.38.0 (20140413.2041)
 -->
<!-- Title: /home/travis/build/hypro/hypro/src/hypro/util Pages: 1 -->
<svg width="780pt" height="291pt"
 viewBox="0.00 0.00 779.70 291.00" xmlns="http://www.w3.org/2000/svg" xmlns:xlink="http://www.w3.org/1999/xlink">
<g id="graph0" class="graph" transform="scale(1 1) rotate(0) translate(4 287)">
<title>/home/travis/build/hypro/hypro/src/hypro/util</title>
<polygon fill="white" stroke="none" points="-4,4 -4,-287 775.702,-287 775.702,4 -4,4"/>
<g id="clust1" class="cluster"><title>clusterdir_2ce0cb9797b50c8d842bc50008b46cdd</title>
<g id="a_clust1"><a xlink:href="dir_2ce0cb9797b50c8d842bc50008b46cdd.html" target="_top" xlink:title="hypro">
<polygon fill="#ddddee" stroke="black" points="8,-8 8,-239 594,-239 594,-8 8,-8"/>
<text text-anchor="middle" x="301" y="-227" font-family="Helvetica,sans-Serif" font-size="10.00">hypro</text>
</a>
</g>
</g>
<g id="clust2" class="cluster"><title>clusterdir_879d833e0dfbe8f31a5e860bb94efb50</title>
<g id="a_clust2"><a xlink:href="dir_879d833e0dfbe8f31a5e860bb94efb50.html" target="_top">
<polygon fill="#eeeeff" stroke="black" points="16,-16 16,-212 586,-212 586,-16 16,-16"/>
</a>
</g>
</g>
<!-- dir_879d833e0dfbe8f31a5e860bb94efb50 -->
<g id="node1" class="node"><title>dir_879d833e0dfbe8f31a5e860bb94efb50</title>
<text text-anchor="middle" x="365" y="-183.5" font-family="Helvetica,sans-Serif" font-size="10.00">util</text>
</g>
<!-- dir_24cbef118a2511338dada52e6e2bd544 -->
<g id="node2" class="node"><title>dir_24cbef118a2511338dada52e6e2bd544</title>
<g id="a_node2"><a xlink:href="dir_24cbef118a2511338dada52e6e2bd544.html" target="_top" xlink:title="adaptions_eigen">
<polygon fill="white" stroke="black" points="319.5,-204 224.5,-204 224.5,-168 319.5,-168 319.5,-204"/>
<text text-anchor="middle" x="272" y="-183.5" font-family="Helvetica,sans-Serif" font-size="10.00">adaptions_eigen</text>
</a>
</g>
</g>
<!-- dir_3100e148cb0b6b745355fdee31bcb5c6 -->
<g id="node3" class="node"><title>dir_3100e148cb0b6b745355fdee31bcb5c6</title>
<g id="a_node3"><a xlink:href="dir_3100e148cb0b6b745355fdee31bcb5c6.html" target="_top" xlink:title="linearOptimization">
<polygon fill="white" stroke="red" points="206,-204 102,-204 102,-168 206,-168 206,-204"/>
<text text-anchor="middle" x="154" y="-183.5" font-family="Helvetica,sans-Serif" font-size="10.00">linearOptimization</text>
</a>
</g>
</g>
<!-- dir_e44977c2db40c89968aef6d4236fe8a8 -->
<g id="node4" class="node"><title>dir_e44977c2db40c89968aef6d4236fe8a8</title>
<g id="a_node4"><a xlink:href="dir_e44977c2db40c89968aef6d4236fe8a8.html" target="_top" xlink:title="logging">
<polygon fill="white" stroke="black" points="500,-132 446,-132 446,-96 500,-96 500,-132"/>
<text text-anchor="middle" x="473" y="-111.5" font-family="Helvetica,sans-Serif" font-size="10.00">logging</text>
</a>
</g>
</g>
<!-- dir_3100e148cb0b6b745355fdee31bcb5c6&#45;&gt;dir_e44977c2db40c89968aef6d4236fe8a8 -->
<g id="edge3" class="edge"><title>dir_3100e148cb0b6b745355fdee31bcb5c6&#45;&gt;dir_e44977c2db40c89968aef6d4236fe8a8</title>
<path fill="none" stroke="black" d="M206.033,-170.472C209.4,-169.613 212.744,-168.781 216,-168 293.753,-149.343 385.695,-131.356 435.821,-121.89"/>
<polygon fill="black" stroke="black" points="436.681,-125.289 445.863,-120.002 435.388,-118.41 436.681,-125.289"/>
<g id="a_edge3&#45;headlabel"><a xlink:href="dir_000031_000056.html" target="_top" xlink:title="2">
<text text-anchor="middle" x="433.673" y="-126.244" font-family="Helvetica,sans-Serif" font-size="10.00">2</text>
</a>
</g>
</g>
<!-- dir_57790bb148fd18efc2431dd25a248521 -->
<g id="node8" class="node"><title>dir_57790bb148fd18efc2431dd25a248521</title>
<g id="a_node8"><a xlink:href="dir_57790bb148fd18efc2431dd25a248521.html" target="_top" xlink:title="statistics">
<polygon fill="white" stroke="black" points="577.5,-132 518.5,-132 518.5,-96 577.5,-96 577.5,-132"/>
<text text-anchor="middle" x="548" y="-111.5" font-family="Helvetica,sans-Serif" font-size="10.00">statistics</text>
</a>
</g>
</g>
<!-- dir_3100e148cb0b6b745355fdee31bcb5c6&#45;&gt;dir_57790bb148fd18efc2431dd25a248521 -->
<g id="edge2" class="edge"><title>dir_3100e148cb0b6b745355fdee31bcb5c6&#45;&gt;dir_57790bb148fd18efc2431dd25a248521</title>
<path fill="none" stroke="black" d="M206.303,-170.084C209.573,-169.33 212.825,-168.627 216,-168 341.574,-143.206 380.54,-165.431 508.316,-131.703"/>
<polygon fill="black" stroke="black" points="509.338,-135.052 518.078,-129.064 507.511,-128.295 509.338,-135.052"/>
<g id="a_edge2&#45;headlabel"><a xlink:href="dir_000031_000060.html" target="_top" xlink:title="1">
<text text-anchor="middle" x="506.609" y="-136.231" font-family="Helvetica,sans-Serif" font-size="10.00">1</text>
</a>
</g>
</g>
<!-- dir_bce2075adec303dcb2f0c4fbfcbc8493 -->
<g id="node10" class="node"><title>dir_bce2075adec303dcb2f0c4fbfcbc8493</title>
<g id="a_node10"><a xlink:href="dir_bce2075adec303dcb2f0c4fbfcbc8493.html" target="_top" xlink:title="datastructures">
<polygon fill="white" stroke="red" points="594.5,-283 507.5,-283 507.5,-247 594.5,-247 594.5,-283"/>
<text text-anchor="middle" x="551" y="-262.5" font-family="Helvetica,sans-Serif" font-size="10.00">datastructures</text>
</a>
</g>
</g>
<!-- dir_3100e148cb0b6b745355fdee31bcb5c6&#45;&gt;dir_bce2075adec303dcb2f0c4fbfcbc8493 -->
<g id="edge1" class="edge"><title>dir_3100e148cb0b6b745355fdee31bcb5c6&#45;&gt;dir_bce2075adec303dcb2f0c4fbfcbc8493</title>
<path fill="none" stroke="black" d="M161.267,-204.028C171.225,-216.094 188.39,-231.433 207,-239 257.631,-259.587 413.701,-263.43 497.205,-264.011"/>
<polygon fill="black" stroke="black" points="497.242,-267.511 507.262,-264.068 497.282,-260.511 497.242,-267.511"/>
<g id="a_edge1&#45;headlabel"><a xlink:href="dir_000031_000024.html" target="_top" xlink:title="3">
<text text-anchor="middle" x="493.632" y="-267.83" font-family="Helvetica,sans-Serif" font-size="10.00">3</text>
</a>
</g>
</g>
<!-- dir_7ca2da3d0bdc47450f74c631953a3473 -->
<g id="node5" class="node"><title>dir_7ca2da3d0bdc47450f74c631953a3473</title>
<g id="a_node5"><a xlink:href="dir_7ca2da3d0bdc47450f74c631953a3473.html" target="_top" xlink:title="multithreading">
<polygon fill="white" stroke="black" points="578,-60 492,-60 492,-24 578,-24 578,-60"/>
<text text-anchor="middle" x="535" y="-39.5" font-family="Helvetica,sans-Serif" font-size="10.00">multithreading</text>
</a>
</g>
</g>
<!-- dir_e44977c2db40c89968aef6d4236fe8a8&#45;&gt;dir_7ca2da3d0bdc47450f74c631953a3473 -->
<g id="edge16" class="edge"><title>dir_e44977c2db40c89968aef6d4236fe8a8&#45;&gt;dir_7ca2da3d0bdc47450f74c631953a3473</title>
<path fill="none" stroke="black" d="M488.326,-95.6966C495.759,-87.3046 504.823,-77.0705 512.98,-67.8613"/>
<polygon fill="black" stroke="black" points="515.84,-69.9109 519.85,-60.1043 510.6,-65.2696 515.84,-69.9109"/>
<g id="a_edge16&#45;headlabel"><a xlink:href="dir_000056_000057.html" target="_top" xlink:title="1">
<text text-anchor="middle" x="515.582" y="-71.9843" font-family="Helvetica,sans-Serif" font-size="10.00">1</text>
</a>
</g>
</g>
<!-- dir_88175a59a487d6ac58f6c5607ce909d5 -->
<g id="node6" class="node"><title>dir_88175a59a487d6ac58f6c5607ce909d5</title>
<g id="a_node6"><a xlink:href="dir_88175a59a487d6ac58f6c5607ce909d5.html" target="_top" xlink:title="plotting">
<polygon fill="white" stroke="black" points="578,-204 524,-204 524,-168 578,-168 578,-204"/>
<text text-anchor="middle" x="551" y="-183.5" font-family="Helvetica,sans-Serif" font-size="10.00">plotting</text>
</a>
</g>
</g>
<!-- dir_88175a59a487d6ac58f6c5607ce909d5&#45;&gt;dir_bce2075adec303dcb2f0c4fbfcbc8493 -->
<g id="edge17" class="edge"><title>dir_88175a59a487d6ac58f6c5607ce909d5&#45;&gt;dir_bce2075adec303dcb2f0c4fbfcbc8493</title>
<path fill="none" stroke="black" d="M545.285,-204.041C544.251,-213.603 543.992,-225.759 544.507,-236.622"/>
<polygon fill="black" stroke="black" points="541.04,-237.202 545.28,-246.911 548.021,-236.677 541.04,-237.202"/>
<g id="a_edge17&#45;headlabel"><a xlink:href="dir_000058_000024.html" target="_top" xlink:title="3">
<text text-anchor="middle" x="537.94" y="-231.33" font-family="Helvetica,sans-Serif" font-size="10.00">3</text>
</a>
</g>
</g>
<!-- dir_7fa927d8fbf9dfbeef69af27f63bc81b -->
<g id="node11" class="node"><title>dir_7fa927d8fbf9dfbeef69af27f63bc81b</title>
<g id="a_node11"><a xlink:href="dir_7fa927d8fbf9dfbeef69af27f63bc81b.html" target="_top" xlink:title="representations">
<polygon fill="white" stroke="red" points="726,-204 634,-204 634,-168 726,-168 726,-204"/>
<text text-anchor="middle" x="680" y="-183.5" font-family="Helvetica,sans-Serif" font-size="10.00">representations</text>
</a>
</g>
</g>
<!-- dir_88175a59a487d6ac58f6c5607ce909d5&#45;&gt;dir_7fa927d8fbf9dfbeef69af27f63bc81b -->
<g id="edge18" class="edge"><title>dir_88175a59a487d6ac58f6c5607ce909d5&#45;&gt;dir_7fa927d8fbf9dfbeef69af27f63bc81b</title>
<path fill="none" stroke="black" d="M578.211,-186C593.432,-186 608.653,-186 623.874,-186"/>
<polygon fill="black" stroke="black" points="623.877,-189.5 633.877,-186 623.877,-182.5 623.877,-189.5"/>
<g id="a_edge18&#45;headlabel"><a xlink:href="dir_000058_000015.html" target="_top" xlink:title="1">
<text text-anchor="middle" x="620.282" y="-189.839" font-family="Helvetica,sans-Serif" font-size="10.00">1</text>
</a>
</g>
</g>
<!-- dir_d93f25bb6eeed2fcb95055e30f52c726 -->
<g id="node7" class="node"><title>dir_d93f25bb6eeed2fcb95055e30f52c726</title>
<g id="a_node7"><a xlink:href="dir_d93f25bb6eeed2fcb95055e30f52c726.html" target="_top" xlink:title="sampling">
<polygon fill="white" stroke="black" points="84,-204 24,-204 24,-168 84,-168 84,-204"/>
<text text-anchor="middle" x="54" y="-183.5" font-family="Helvetica,sans-Serif" font-size="10.00">sampling</text>
</a>
</g>
</g>
<!-- dir_d93f25bb6eeed2fcb95055e30f52c726&#45;&gt;dir_e44977c2db40c89968aef6d4236fe8a8 -->
<g id="edge15" class="edge"><title>dir_d93f25bb6eeed2fcb95055e30f52c726&#45;&gt;dir_e44977c2db40c89968aef6d4236fe8a8</title>
<path fill="none" stroke="black" d="M84.3679,-170.828C87.2493,-169.768 90.1564,-168.802 93,-168 215.32,-133.511 366.384,-120.992 435.405,-116.851"/>
<polygon fill="black" stroke="black" points="435.978,-120.324 445.761,-116.257 435.577,-113.336 435.978,-120.324"/>
<g id="a_edge15&#45;headlabel"><a xlink:href="dir_000059_000056.html" target="_top" xlink:title="1">
<text text-anchor="middle" x="432.552" y="-120.865" font-family="Helvetica,sans-Serif" font-size="10.00">1</text>
</a>
</g>
</g>
<!-- dir_57790bb148fd18efc2431dd25a248521&#45;&gt;dir_7ca2da3d0bdc47450f74c631953a3473 -->
<g id="edge13" class="edge"><title>dir_57790bb148fd18efc2431dd25a248521&#45;&gt;dir_7ca2da3d0bdc47450f74c631953a3473</title>
<path fill="none" stroke="black" d="M544.787,-95.6966C543.354,-87.9827 541.632,-78.7125 540.035,-70.1124"/>
<polygon fill="black" stroke="black" points="543.444,-69.2971 538.177,-60.1043 536.561,-70.5753 543.444,-69.2971"/>
<g id="a_edge13&#45;headlabel"><a xlink:href="dir_000060_000057.html" target="_top" xlink:title="1">
<text text-anchor="middle" x="546.891" y="-69.8129" font-family="Helvetica,sans-Serif" font-size="10.00">1</text>
</a>
</g>
</g>
<!-- dir_57790bb148fd18efc2431dd25a248521&#45;&gt;dir_7fa927d8fbf9dfbeef69af27f63bc81b -->
<g id="edge14" class="edge"><title>dir_57790bb148fd18efc2431dd25a248521&#45;&gt;dir_7fa927d8fbf9dfbeef69af27f63bc81b</title>
<path fill="none" stroke="black" d="M574.511,-132.19C591.214,-141.565 613.145,-153.265 632.719,-163.267"/>
<polygon fill="black" stroke="black" points="631.31,-166.477 641.812,-167.876 634.475,-160.233 631.31,-166.477"/>
<g id="a_edge14&#45;headlabel"><a xlink:href="dir_000060_000015.html" target="_top" xlink:title="1">
<text text-anchor="middle" x="626.82" y="-164.884" font-family="Helvetica,sans-Serif" font-size="10.00">1</text>
</a>
</g>
</g>
<!-- dir_3a35ee46332157846b55808bff5bb8c8 -->
<g id="node9" class="node"><title>dir_3a35ee46332157846b55808bff5bb8c8</title>
<g id="a_node9"><a xlink:href="dir_3a35ee46332157846b55808bff5bb8c8.html" target="_top" xlink:title="tuple_expansion">
<polygon fill="white" stroke="black" points="505.5,-204 410.5,-204 410.5,-168 505.5,-168 505.5,-204"/>
<text text-anchor="middle" x="458" y="-183.5" font-family="Helvetica,sans-Serif" font-size="10.00">tuple_expansion</text>
</a>
</g>
</g>
<!-- dir_bce2075adec303dcb2f0c4fbfcbc8493&#45;&gt;dir_879d833e0dfbe8f31a5e860bb94efb50 -->
<g id="edge6" class="edge"><title>dir_bce2075adec303dcb2f0c4fbfcbc8493&#45;&gt;dir_879d833e0dfbe8f31a5e860bb94efb50</title>
<path fill="none" stroke="black" d="M507.405,-260.397C469.89,-256.631 419.175,-249.751 402,-239 392.036,-232.763 383.976,-222.764 377.953,-213.193"/>
<polygon fill="black" stroke="black" points="380.84,-211.193 372.807,-204.285 374.778,-214.695 380.84,-211.193"/>
<g id="a_edge6&#45;headlabel"><a xlink:href="dir_000024_000028.html" target="_top" xlink:title="25">
<text text-anchor="middle" x="385.096" y="-210.386" font-family="Helvetica,sans-Serif" font-size="10.00">25</text>
</a>
</g>
</g>
<!-- dir_bce2075adec303dcb2f0c4fbfcbc8493&#45;&gt;dir_24cbef118a2511338dada52e6e2bd544 -->
<g id="edge9" class="edge"><title>dir_bce2075adec303dcb2f0c4fbfcbc8493&#45;&gt;dir_24cbef118a2511338dada52e6e2bd544</title>
<path fill="none" stroke="black" d="M507.196,-262.262C451.771,-259.517 359.818,-252.979 329,-239 315.196,-232.739 302.459,-221.853 292.542,-211.654"/>
<polygon fill="black" stroke="black" points="294.896,-209.044 285.538,-204.077 289.756,-213.796 294.896,-209.044"/>
<g id="a_edge9&#45;headlabel"><a xlink:href="dir_000024_000050.html" target="_top" xlink:title="3">
<text text-anchor="middle" x="299.421" y="-207.256" font-family="Helvetica,sans-Serif" font-size="10.00">3</text>
</a>
</g>
</g>
<!-- dir_bce2075adec303dcb2f0c4fbfcbc8493&#45;&gt;dir_3100e148cb0b6b745355fdee31bcb5c6 -->
<g id="edge7" class="edge"><title>dir_bce2075adec303dcb2f0c4fbfcbc8493&#45;&gt;dir_3100e148cb0b6b745355fdee31bcb5c6</title>
<path fill="none" stroke="black" d="M507.302,-264.005C430.566,-263.402 275.447,-259.512 225,-239 209.734,-232.793 195.441,-221.356 183.568,-210.785"/>
<polygon fill="black" stroke="black" points="185.884,-208.161 176.129,-204.028 181.178,-213.342 185.884,-208.161"/>
<g id="a_edge7&#45;headlabel"><a xlink:href="dir_000024_000031.html" target="_top" xlink:title="1">
<text text-anchor="middle" x="190.454" y="-205.977" font-family="Helvetica,sans-Serif" font-size="10.00">1</text>
</a>
</g>
</g>
<!-- dir_bce2075adec303dcb2f0c4fbfcbc8493&#45;&gt;dir_e44977c2db40c89968aef6d4236fe8a8 -->
<g id="edge10" class="edge"><title>dir_bce2075adec303dcb2f0c4fbfcbc8493&#45;&gt;dir_e44977c2db40c89968aef6d4236fe8a8</title>
<path fill="none" stroke="black" d="M581.306,-246.735C583.555,-244.408 585.519,-241.832 587,-239 601.625,-211.038 603.97,-194.604 587,-168 586.709,-167.543 542.901,-147.254 509.684,-131.916"/>
<polygon fill="black" stroke="black" points="510.755,-128.555 500.209,-127.542 507.821,-134.911 510.755,-128.555"/>
<g id="a_edge10&#45;headlabel"><a xlink:href="dir_000024_000056.html" target="_top" xlink:title="11">
<text text-anchor="middle" x="515.208" y="-124.984" font-family="Helvetica,sans-Serif" font-size="10.00">11</text>
</a>
</g>
</g>
<!-- dir_bce2075adec303dcb2f0c4fbfcbc8493&#45;&gt;dir_7ca2da3d0bdc47450f74c631953a3473 -->
<g id="edge4" class="edge"><title>dir_bce2075adec303dcb2f0c4fbfcbc8493&#45;&gt;dir_7ca2da3d0bdc47450f74c631953a3473</title>
<path fill="none" stroke="black" d="M594.513,-261.721C651.51,-258.282 745.482,-250.878 756,-239 819.753,-167 671.524,-95.3135 587.663,-62.1143"/>
<polygon fill="black" stroke="black" points="588.858,-58.8236 578.27,-58.4495 586.314,-65.3449 588.858,-58.8236"/>
<g id="a_edge4&#45;headlabel"><a xlink:href="dir_000024_000057.html" target="_top" xlink:title="1">
<text text-anchor="middle" x="593.239" y="-54.985" font-family="Helvetica,sans-Serif" font-size="10.00">1</text>
</a>
</g>
</g>
<!-- dir_bce2075adec303dcb2f0c4fbfcbc8493&#45;&gt;dir_88175a59a487d6ac58f6c5607ce909d5 -->
<g id="edge11" class="edge"><title>dir_bce2075adec303dcb2f0c4fbfcbc8493&#45;&gt;dir_88175a59a487d6ac58f6c5607ce909d5</title>
<path fill="none" stroke="black" d="M556.72,-246.911C557.751,-237.341 558.008,-225.183 557.491,-214.323"/>
<polygon fill="black" stroke="black" points="560.957,-213.749 556.715,-204.041 553.977,-214.276 560.957,-213.749"/>
<g id="a_edge11&#45;headlabel"><a xlink:href="dir_000024_000058.html" target="_top" xlink:title="1">
<text text-anchor="middle" x="564.059" y="-214.62" font-family="Helvetica,sans-Serif" font-size="10.00">1</text>
</a>
</g>
</g>
<!-- dir_bce2075adec303dcb2f0c4fbfcbc8493&#45;&gt;dir_57790bb148fd18efc2431dd25a248521 -->
<g id="edge8" class="edge"><title>dir_bce2075adec303dcb2f0c4fbfcbc8493&#45;&gt;dir_57790bb148fd18efc2431dd25a248521</title>
<path fill="none" stroke="black" d="M594.532,-264.404C643.072,-263.815 717.134,-259.457 735,-239 755.757,-215.232 754.029,-193.172 735,-168 717.285,-144.566 637.163,-128.491 587.72,-120.606"/>
<polygon fill="black" stroke="black" points="588.087,-117.121 577.669,-119.048 587.014,-124.038 588.087,-117.121"/>
<g id="a_edge8&#45;headlabel"><a xlink:href="dir_000024_000060.html" target="_top" xlink:title="1">
<text text-anchor="middle" x="592.074" y="-112.366" font-family="Helvetica,sans-Serif" font-size="10.00">1</text>
</a>
</g>
</g>
<!-- dir_bce2075adec303dcb2f0c4fbfcbc8493&#45;&gt;dir_3a35ee46332157846b55808bff5bb8c8 -->
<g id="edge5" class="edge"><title>dir_bce2075adec303dcb2f0c4fbfcbc8493&#45;&gt;dir_3a35ee46332157846b55808bff5bb8c8</title>
<path fill="none" stroke="black" d="M525.514,-246.931C521.928,-244.348 518.331,-241.657 515,-239 504.093,-230.3 492.625,-220.072 482.859,-210.999"/>
<polygon fill="black" stroke="black" points="485.119,-208.319 475.435,-204.021 480.325,-213.42 485.119,-208.319"/>
<g id="a_edge5&#45;headlabel"><a xlink:href="dir_000024_000061.html" target="_top" xlink:title="1">
<text text-anchor="middle" x="489.683" y="-206.212" font-family="Helvetica,sans-Serif" font-size="10.00">1</text>
</a>
</g>
</g>
<!-- dir_bce2075adec303dcb2f0c4fbfcbc8493&#45;&gt;dir_7fa927d8fbf9dfbeef69af27f63bc81b -->
<g id="edge12" class="edge"><title>dir_bce2075adec303dcb2f0c4fbfcbc8493&#45;&gt;dir_7fa927d8fbf9dfbeef69af27f63bc81b</title>
<path fill="none" stroke="black" d="M594.606,-247.281C600.242,-244.793 605.836,-242.032 611,-239 624.105,-231.307 637.05,-220.596 648.261,-210.894"/>
<polygon fill="black" stroke="black" points="650.857,-213.274 656.095,-204.065 646.257,-207.997 650.857,-213.274"/>
<g id="a_edge12&#45;headlabel"><a xlink:href="dir_000024_000015.html" target="_top" xlink:title="12">
<text text-anchor="middle" x="650.013" y="-215.276" font-family="Helvetica,sans-Serif" font-size="10.00">12</text>
</a>
</g>
</g>
<!-- dir_7fa927d8fbf9dfbeef69af27f63bc81b&#45;&gt;dir_24cbef118a2511338dada52e6e2bd544 -->
<g id="edge22" class="edge"><title>dir_7fa927d8fbf9dfbeef69af27f63bc81b&#45;&gt;dir_24cbef118a2511338dada52e6e2bd544</title>
<path fill="none" stroke="black" d="M666.528,-204.151C654.097,-218.922 634.103,-238.097 611,-243 596.164,-246.148 352.836,-246.148 338,-243 319.358,-239.044 303.091,-225.197 291.372,-212.143"/>
<polygon fill="black" stroke="black" points="293.805,-209.599 284.682,-204.213 288.455,-214.113 293.805,-209.599"/>
<g id="a_edge22&#45;headlabel"><a xlink:href="dir_000015_000050.html" target="_top" xlink:title="4">
<text text-anchor="middle" x="298.293" y="-208.016" font-family="Helvetica,sans-Serif" font-size="10.00">4</text>
</a>
</g>
</g>
<!-- dir_7fa927d8fbf9dfbeef69af27f63bc81b&#45;&gt;dir_3100e148cb0b6b745355fdee31bcb5c6 -->
<g id="edge19" class="edge"><title>dir_7fa927d8fbf9dfbeef69af27f63bc81b&#45;&gt;dir_3100e148cb0b6b745355fdee31bcb5c6</title>
<path fill="none" stroke="black" d="M666.528,-204.151C654.097,-218.922 634.103,-238.097 611,-243 590.023,-247.452 245.977,-247.452 225,-243 205.353,-238.831 187.718,-224.758 174.938,-211.64"/>
<polygon fill="black" stroke="black" points="177.347,-209.089 167.996,-204.109 172.2,-213.834 177.347,-209.089"/>
<g id="a_edge19&#45;headlabel"><a xlink:href="dir_000015_000031.html" target="_top" xlink:title="10">
<text text-anchor="middle" x="181.871" y="-207.308" font-family="Helvetica,sans-Serif" font-size="10.00">10</text>
</a>
</g>
</g>
<!-- dir_7fa927d8fbf9dfbeef69af27f63bc81b&#45;&gt;dir_e44977c2db40c89968aef6d4236fe8a8 -->
<g id="edge23" class="edge"><title>dir_7fa927d8fbf9dfbeef69af27f63bc81b&#45;&gt;dir_e44977c2db40c89968aef6d4236fe8a8</title>
<path fill="none" stroke="black" d="M633.959,-171.373C591.838,-158.774 532.729,-140.723 510,-132 509.901,-131.962 509.802,-131.924 509.703,-131.886"/>
<polygon fill="black" stroke="black" points="510.891,-128.59 500.311,-128.023 508.229,-135.064 510.891,-128.59"/>
<g id="a_edge23&#45;headlabel"><a xlink:href="dir_000015_000056.html" target="_top" xlink:title="7">
<text text-anchor="middle" x="515.296" y="-124.831" font-family="Helvetica,sans-Serif" font-size="10.00">7</text>
</a>
</g>
</g>
<!-- dir_7fa927d8fbf9dfbeef69af27f63bc81b&#45;&gt;dir_57790bb148fd18efc2431dd25a248521 -->
<g id="edge21" class="edge"><title>dir_7fa927d8fbf9dfbeef69af27f63bc81b&#45;&gt;dir_57790bb148fd18efc2431dd25a248521</title>
<path fill="none" stroke="black" d="M653.606,-167.876C634.516,-157.158 608.554,-143.382 587.092,-132.579"/>
<polygon fill="black" stroke="black" points="588.408,-129.324 577.896,-127.997 585.286,-135.589 588.408,-129.324"/>
<g id="a_edge21&#45;headlabel"><a xlink:href="dir_000015_000060.html" target="_top" xlink:title="3">
<text text-anchor="middle" x="592.891" y="-125.885" font-family="Helvetica,sans-Serif" font-size="10.00">3</text>
</a>
</g>
</g>
<!-- dir_7fa927d8fbf9dfbeef69af27f63bc81b&#45;&gt;dir_bce2075adec303dcb2f0c4fbfcbc8493 -->
<g id="edge20" class="edge"><title>dir_7fa927d8fbf9dfbeef69af27f63bc81b&#45;&gt;dir_bce2075adec303dcb2f0c4fbfcbc8493</title>
<path fill="none" stroke="black" d="M671.116,-204.31C661.09,-215.427 645.167,-229.509 629,-239 621.416,-243.452 612.905,-247.321 604.343,-250.597"/>
<polygon fill="black" stroke="black" points="602.939,-247.382 594.7,-254.044 605.295,-253.974 602.939,-247.382"/>
<g id="a_edge20&#45;headlabel"><a xlink:href="dir_000015_000024.html" target="_top" xlink:title="25">
<text text-anchor="middle" x="605.368" y="-240.999" font-family="Helvetica,sans-Serif" font-size="10.00">25</text>
</a>
</g>
</g>
</g>
</svg>
