<?xml version="1.0" encoding="UTF-8" standalone="no"?>
<!DOCTYPE svg PUBLIC "-//W3C//DTD SVG 1.1//EN"
 "http://www.w3.org/Graphics/SVG/1.1/DTD/svg11.dtd">
<!-- Generated by graphviz version 2.38.0 (20140413.2041)
 -->
<!-- Title: /home/travis/build/hypro/hypro/src/hypro/algorithms/reachability/workers Pages: 1 -->
<svg width="154pt" height="223pt"
 viewBox="0.00 0.00 154.00 223.00" xmlns="http://www.w3.org/2000/svg" xmlns:xlink="http://www.w3.org/1999/xlink">
<g id="graph0" class="graph" transform="scale(1 1) rotate(0) translate(4 219)">
<title>/home/travis/build/hypro/hypro/src/hypro/algorithms/reachability/workers</title>
<polygon fill="white" stroke="none" points="-4,4 -4,-219 150,-219 150,4 -4,4"/>
<g id="clust1" class="cluster"><title>clusterdir_6a6edf7123c81d000975d26367682a7a</title>
<g id="a_clust1"><a xlink:href="dir_6a6edf7123c81d000975d26367682a7a.html" target="_top" xlink:title="reachability">
<polygon fill="#ddddee" stroke="black" points="8,-136 8,-207 79,-207 79,-136 8,-136"/>
<text text-anchor="middle" x="43.5" y="-195" font-family="Helvetica,sans-Serif" font-size="10.00">reachability</text>
</a>
</g>
</g>
<!-- dir_519994d85a4cf46cf1798a8eeb04af9e -->
<g id="node1" class="node"><title>dir_519994d85a4cf46cf1798a8eeb04af9e</title>
<g id="a_node1"><a xlink:href="dir_519994d85a4cf46cf1798a8eeb04af9e.html" target="_top" xlink:title="workers">
<polygon fill="#eeeeff" stroke="black" points="70,-180 16,-180 16,-144 70,-144 70,-180"/>
<text text-anchor="middle" x="43" y="-159.5" font-family="Helvetica,sans-Serif" font-size="10.00">workers</text>
</a>
</g>
</g>
<!-- dir_1d177bd438e269a304e1f07d1a6d36f2 -->
<g id="node2" class="node"><title>dir_1d177bd438e269a304e1f07d1a6d36f2</title>
<g id="a_node2"><a xlink:href="dir_1d177bd438e269a304e1f07d1a6d36f2.html" target="_top" xlink:title="contexts">
<polygon fill="none" stroke="black" points="146,-180 88,-180 88,-144 146,-144 146,-180"/>
<text text-anchor="middle" x="117" y="-159.5" font-family="Helvetica,sans-Serif" font-size="10.00">contexts</text>
</a>
</g>
</g>
<!-- dir_519994d85a4cf46cf1798a8eeb04af9e&#45;&gt;dir_1d177bd438e269a304e1f07d1a6d36f2 -->
<g id="edge6" class="edge"><title>dir_519994d85a4cf46cf1798a8eeb04af9e&#45;&gt;dir_1d177bd438e269a304e1f07d1a6d36f2</title>
<path fill="none" stroke="black" d="M70.1719,-162C72.6413,-162 75.1108,-162 77.5802,-162"/>
<polygon fill="black" stroke="black" points="77.7325,-165.5 87.7324,-162 77.7324,-158.5 77.7325,-165.5"/>
<g id="a_edge6&#45;headlabel"><a xlink:href="dir_000023_000008.html" target="_top" xlink:title="3">
<text text-anchor="middle" x="74.1378" y="-165.839" font-family="Helvetica,sans-Serif" font-size="10.00">3</text>
</a>
</g>
</g>
<!-- dir_879d833e0dfbe8f31a5e860bb94efb50 -->
<g id="node3" class="node"><title>dir_879d833e0dfbe8f31a5e860bb94efb50</title>
<g id="a_node3"><a xlink:href="dir_879d833e0dfbe8f31a5e860bb94efb50.html" target="_top" xlink:title="util">
<polygon fill="white" stroke="red" points="107,-108 53,-108 53,-72 107,-72 107,-108"/>
<text text-anchor="middle" x="80" y="-87.5" font-family="Helvetica,sans-Serif" font-size="10.00">util</text>
</a>
</g>
</g>
<!-- dir_519994d85a4cf46cf1798a8eeb04af9e&#45;&gt;dir_879d833e0dfbe8f31a5e860bb94efb50 -->
<g id="edge7" class="edge"><title>dir_519994d85a4cf46cf1798a8eeb04af9e&#45;&gt;dir_879d833e0dfbe8f31a5e860bb94efb50</title>
<path fill="none" stroke="black" d="M52.1461,-143.697C56.4026,-135.644 61.5558,-125.894 66.2664,-116.982"/>
<polygon fill="black" stroke="black" points="69.3803,-118.581 70.9591,-108.104 63.1917,-115.31 69.3803,-118.581"/>
<g id="a_edge7&#45;headlabel"><a xlink:href="dir_000023_000028.html" target="_top" xlink:title="2">
<text text-anchor="middle" x="70.2108" y="-120.586" font-family="Helvetica,sans-Serif" font-size="10.00">2</text>
</a>
</g>
</g>
<!-- dir_bce2075adec303dcb2f0c4fbfcbc8493 -->
<g id="node4" class="node"><title>dir_bce2075adec303dcb2f0c4fbfcbc8493</title>
<g id="a_node4"><a xlink:href="dir_bce2075adec303dcb2f0c4fbfcbc8493.html" target="_top" xlink:title="datastructures">
<polygon fill="white" stroke="red" points="123.5,-36 36.5,-36 36.5,-0 123.5,-0 123.5,-36"/>
<text text-anchor="middle" x="80" y="-15.5" font-family="Helvetica,sans-Serif" font-size="10.00">datastructures</text>
</a>
</g>
</g>
<!-- dir_519994d85a4cf46cf1798a8eeb04af9e&#45;&gt;dir_bce2075adec303dcb2f0c4fbfcbc8493 -->
<g id="edge8" class="edge"><title>dir_519994d85a4cf46cf1798a8eeb04af9e&#45;&gt;dir_bce2075adec303dcb2f0c4fbfcbc8493</title>
<path fill="none" stroke="black" d="M40.3155,-143.812C38.1175,-125.543 36.4617,-96.0328 44,-72 47.0638,-62.2323 52.5773,-52.6379 58.3833,-44.3546"/>
<polygon fill="black" stroke="black" points="61.2623,-46.3489 64.4491,-36.2447 55.6568,-42.1562 61.2623,-46.3489"/>
<g id="a_edge8&#45;headlabel"><a xlink:href="dir_000023_000024.html" target="_top" xlink:title="9">
<text text-anchor="middle" x="61.3829" y="-48.428" font-family="Helvetica,sans-Serif" font-size="10.00">9</text>
</a>
</g>
</g>
<!-- dir_1d177bd438e269a304e1f07d1a6d36f2&#45;&gt;dir_519994d85a4cf46cf1798a8eeb04af9e -->
<g id="edge3" class="edge"><title>dir_1d177bd438e269a304e1f07d1a6d36f2&#45;&gt;dir_519994d85a4cf46cf1798a8eeb04af9e</title>
<path fill="none" stroke="black" d="M87.7324,-162C85.263,-162 82.7935,-162 80.3241,-162"/>
<polygon fill="black" stroke="black" points="80.1719,-158.5 70.1719,-162 80.1718,-165.5 80.1719,-158.5"/>
<g id="a_edge3&#45;headlabel"><a xlink:href="dir_000008_000023.html" target="_top" xlink:title="3">
<text text-anchor="middle" x="83.7665" y="-153.161" font-family="Helvetica,sans-Serif" font-size="10.00">3</text>
</a>
</g>
</g>
<!-- dir_1d177bd438e269a304e1f07d1a6d36f2&#45;&gt;dir_879d833e0dfbe8f31a5e860bb94efb50 -->
<g id="edge1" class="edge"><title>dir_1d177bd438e269a304e1f07d1a6d36f2&#45;&gt;dir_879d833e0dfbe8f31a5e860bb94efb50</title>
<path fill="none" stroke="black" d="M107.854,-143.697C103.597,-135.644 98.4442,-125.894 93.7336,-116.982"/>
<polygon fill="black" stroke="black" points="96.8083,-115.31 89.0409,-108.104 90.6197,-118.581 96.8083,-115.31"/>
<g id="a_edge1&#45;headlabel"><a xlink:href="dir_000008_000028.html" target="_top" xlink:title="6">
<text text-anchor="middle" x="100.998" y="-114.661" font-family="Helvetica,sans-Serif" font-size="10.00">6</text>
</a>
</g>
</g>
<!-- dir_1d177bd438e269a304e1f07d1a6d36f2&#45;&gt;dir_bce2075adec303dcb2f0c4fbfcbc8493 -->
<g id="edge2" class="edge"><title>dir_1d177bd438e269a304e1f07d1a6d36f2&#45;&gt;dir_bce2075adec303dcb2f0c4fbfcbc8493</title>
<path fill="none" stroke="black" d="M119.685,-143.812C121.882,-125.543 123.538,-96.0328 116,-72 112.936,-62.2323 107.423,-52.6379 101.617,-44.3546"/>
<polygon fill="black" stroke="black" points="104.343,-42.1562 95.5509,-36.2447 98.7377,-46.3489 104.343,-42.1562"/>
<g id="a_edge2&#45;headlabel"><a xlink:href="dir_000008_000024.html" target="_top" xlink:title="19">
<text text-anchor="middle" x="108.77" y="-40.8341" font-family="Helvetica,sans-Serif" font-size="10.00">19</text>
</a>
</g>
</g>
<!-- dir_879d833e0dfbe8f31a5e860bb94efb50&#45;&gt;dir_bce2075adec303dcb2f0c4fbfcbc8493 -->
<g id="edge4" class="edge"><title>dir_879d833e0dfbe8f31a5e860bb94efb50&#45;&gt;dir_bce2075adec303dcb2f0c4fbfcbc8493</title>
<path fill="none" stroke="black" d="M74.0843,-71.6966C73.2886,-63.9827 73.0621,-54.7125 73.4047,-46.1124"/>
<polygon fill="black" stroke="black" points="76.8984,-46.3243 74.105,-36.1043 69.9154,-45.8356 76.8984,-46.3243"/>
<g id="a_edge4&#45;headlabel"><a xlink:href="dir_000028_000024.html" target="_top" xlink:title="12">
<text text-anchor="middle" x="79.4799" y="-47.6083" font-family="Helvetica,sans-Serif" font-size="10.00">12</text>
</a>
</g>
</g>
<!-- dir_bce2075adec303dcb2f0c4fbfcbc8493&#45;&gt;dir_879d833e0dfbe8f31a5e860bb94efb50 -->
<g id="edge5" class="edge"><title>dir_bce2075adec303dcb2f0c4fbfcbc8493&#45;&gt;dir_879d833e0dfbe8f31a5e860bb94efb50</title>
<path fill="none" stroke="black" d="M85.895,-36.1043C86.7005,-43.7913 86.9369,-53.0537 86.604,-61.6651"/>
<polygon fill="black" stroke="black" points="83.1085,-61.4805 85.9157,-71.6966 90.0921,-61.9597 83.1085,-61.4805"/>
<g id="a_edge5&#45;headlabel"><a xlink:href="dir_000024_000028.html" target="_top" xlink:title="25">
<text text-anchor="middle" x="80.5219" y="-55.2" font-family="Helvetica,sans-Serif" font-size="10.00">25</text>
</a>
</g>
</g>
</g>
</svg>
