<?xml version="1.0" encoding="UTF-8" standalone="no"?>
<!DOCTYPE svg PUBLIC "-//W3C//DTD SVG 1.1//EN"
 "http://www.w3.org/Graphics/SVG/1.1/DTD/svg11.dtd">
<!-- Generated by graphviz version 2.38.0 (20140413.2041)
 -->
<!-- Title: /home/travis/build/hypro/hypro/src/hypro/representations/Polytopes/VPolytope Pages: 1 -->
<svg width="153pt" height="295pt"
 viewBox="0.00 0.00 153.00 295.00" xmlns="http://www.w3.org/2000/svg" xmlns:xlink="http://www.w3.org/1999/xlink">
<g id="graph0" class="graph" transform="scale(1 1) rotate(0) translate(4 291)">
<title>/home/travis/build/hypro/hypro/src/hypro/representations/Polytopes/VPolytope</title>
<polygon fill="white" stroke="none" points="-4,4 -4,-291 149,-291 149,4 -4,4"/>
<g id="clust1" class="cluster"><title>clusterdir_ad938787f25f17484dcf7b42a899a1a5</title>
<g id="a_clust1"><a xlink:href="dir_ad938787f25f17484dcf7b42a899a1a5.html" target="_top" xlink:title="Polytopes">
<polygon fill="#ddddee" stroke="black" points="8,-208 8,-279 90,-279 90,-208 8,-208"/>
<text text-anchor="middle" x="49" y="-267" font-family="Helvetica,sans-Serif" font-size="10.00">Polytopes</text>
</a>
</g>
</g>
<!-- dir_7ca784a8a47198f8f271993b816bdc67 -->
<g id="node1" class="node"><title>dir_7ca784a8a47198f8f271993b816bdc67</title>
<g id="a_node1"><a xlink:href="dir_7ca784a8a47198f8f271993b816bdc67.html" target="_top" xlink:title="VPolytope">
<polygon fill="#eeeeff" stroke="black" points="81.5,-252 16.5,-252 16.5,-216 81.5,-216 81.5,-252"/>
<text text-anchor="middle" x="49" y="-231.5" font-family="Helvetica,sans-Serif" font-size="10.00">VPolytope</text>
</a>
</g>
</g>
<!-- dir_879d833e0dfbe8f31a5e860bb94efb50 -->
<g id="node2" class="node"><title>dir_879d833e0dfbe8f31a5e860bb94efb50</title>
<g id="a_node2"><a xlink:href="dir_879d833e0dfbe8f31a5e860bb94efb50.html" target="_top" xlink:title="util">
<polygon fill="white" stroke="red" points="88,-108 34,-108 34,-72 88,-72 88,-108"/>
<text text-anchor="middle" x="61" y="-87.5" font-family="Helvetica,sans-Serif" font-size="10.00">util</text>
</a>
</g>
</g>
<!-- dir_7ca784a8a47198f8f271993b816bdc67&#45;&gt;dir_879d833e0dfbe8f31a5e860bb94efb50 -->
<g id="edge5" class="edge"><title>dir_7ca784a8a47198f8f271993b816bdc67&#45;&gt;dir_879d833e0dfbe8f31a5e860bb94efb50</title>
<path fill="none" stroke="black" d="M50.4475,-215.871C52.4927,-191.67 56.2498,-147.211 58.6851,-118.393"/>
<polygon fill="black" stroke="black" points="62.1928,-118.449 59.5474,-108.189 55.2177,-117.859 62.1928,-118.449"/>
<g id="a_edge5&#45;headlabel"><a xlink:href="dir_000019_000028.html" target="_top" xlink:title="5">
<text text-anchor="middle" x="64.7194" y="-119.769" font-family="Helvetica,sans-Serif" font-size="10.00">5</text>
</a>
</g>
</g>
<!-- dir_bce2075adec303dcb2f0c4fbfcbc8493 -->
<g id="node3" class="node"><title>dir_bce2075adec303dcb2f0c4fbfcbc8493</title>
<g id="a_node3"><a xlink:href="dir_bce2075adec303dcb2f0c4fbfcbc8493.html" target="_top" xlink:title="datastructures">
<polygon fill="white" stroke="red" points="104.5,-36 17.5,-36 17.5,-0 104.5,-0 104.5,-36"/>
<text text-anchor="middle" x="61" y="-15.5" font-family="Helvetica,sans-Serif" font-size="10.00">datastructures</text>
</a>
</g>
</g>
<!-- dir_7ca784a8a47198f8f271993b816bdc67&#45;&gt;dir_bce2075adec303dcb2f0c4fbfcbc8493 -->
<g id="edge6" class="edge"><title>dir_7ca784a8a47198f8f271993b816bdc67&#45;&gt;dir_bce2075adec303dcb2f0c4fbfcbc8493</title>
<path fill="none" stroke="black" d="M41.5141,-215.705C29.6474,-185.807 9.38401,-122.782 25,-72 28.0089,-62.2153 33.507,-52.6161 39.3157,-44.3336"/>
<polygon fill="black" stroke="black" points="42.1948,-46.3279 45.3901,-36.2264 36.5928,-42.1306 42.1948,-46.3279"/>
<g id="a_edge6&#45;headlabel"><a xlink:href="dir_000019_000024.html" target="_top" xlink:title="3">
<text text-anchor="middle" x="42.3117" y="-48.4071" font-family="Helvetica,sans-Serif" font-size="10.00">3</text>
</a>
</g>
</g>
<!-- dir_55730fee9a0c1f12da77eb14a8325c4c -->
<g id="node4" class="node"><title>dir_55730fee9a0c1f12da77eb14a8325c4c</title>
<g id="a_node4"><a xlink:href="dir_55730fee9a0c1f12da77eb14a8325c4c.html" target="_top" xlink:title="algorithms">
<polygon fill="white" stroke="red" points="145,-180 77,-180 77,-144 145,-144 145,-180"/>
<text text-anchor="middle" x="111" y="-159.5" font-family="Helvetica,sans-Serif" font-size="10.00">algorithms</text>
</a>
</g>
</g>
<!-- dir_7ca784a8a47198f8f271993b816bdc67&#45;&gt;dir_55730fee9a0c1f12da77eb14a8325c4c -->
<g id="edge7" class="edge"><title>dir_7ca784a8a47198f8f271993b816bdc67&#45;&gt;dir_55730fee9a0c1f12da77eb14a8325c4c</title>
<path fill="none" stroke="black" d="M64.3258,-215.697C71.7588,-207.305 80.8233,-197.07 88.98,-187.861"/>
<polygon fill="black" stroke="black" points="91.8401,-189.911 95.8504,-180.104 86.6,-185.27 91.8401,-189.911"/>
<g id="a_edge7&#45;headlabel"><a xlink:href="dir_000019_000003.html" target="_top" xlink:title="1">
<text text-anchor="middle" x="91.5822" y="-191.984" font-family="Helvetica,sans-Serif" font-size="10.00">1</text>
</a>
</g>
</g>
<!-- dir_879d833e0dfbe8f31a5e860bb94efb50&#45;&gt;dir_bce2075adec303dcb2f0c4fbfcbc8493 -->
<g id="edge1" class="edge"><title>dir_879d833e0dfbe8f31a5e860bb94efb50&#45;&gt;dir_bce2075adec303dcb2f0c4fbfcbc8493</title>
<path fill="none" stroke="black" d="M55.0843,-71.6966C54.2886,-63.9827 54.0621,-54.7125 54.4047,-46.1124"/>
<polygon fill="black" stroke="black" points="57.8984,-46.3243 55.105,-36.1043 50.9154,-45.8356 57.8984,-46.3243"/>
<g id="a_edge1&#45;headlabel"><a xlink:href="dir_000028_000024.html" target="_top" xlink:title="12">
<text text-anchor="middle" x="60.4799" y="-47.6083" font-family="Helvetica,sans-Serif" font-size="10.00">12</text>
</a>
</g>
</g>
<!-- dir_bce2075adec303dcb2f0c4fbfcbc8493&#45;&gt;dir_879d833e0dfbe8f31a5e860bb94efb50 -->
<g id="edge2" class="edge"><title>dir_bce2075adec303dcb2f0c4fbfcbc8493&#45;&gt;dir_879d833e0dfbe8f31a5e860bb94efb50</title>
<path fill="none" stroke="black" d="M66.895,-36.1043C67.7005,-43.7913 67.9369,-53.0537 67.604,-61.6651"/>
<polygon fill="black" stroke="black" points="64.1085,-61.4805 66.9157,-71.6966 71.0921,-61.9597 64.1085,-61.4805"/>
<g id="a_edge2&#45;headlabel"><a xlink:href="dir_000024_000028.html" target="_top" xlink:title="25">
<text text-anchor="middle" x="61.5219" y="-55.2" font-family="Helvetica,sans-Serif" font-size="10.00">25</text>
</a>
</g>
</g>
<!-- dir_55730fee9a0c1f12da77eb14a8325c4c&#45;&gt;dir_879d833e0dfbe8f31a5e860bb94efb50 -->
<g id="edge3" class="edge"><title>dir_55730fee9a0c1f12da77eb14a8325c4c&#45;&gt;dir_879d833e0dfbe8f31a5e860bb94efb50</title>
<path fill="none" stroke="black" d="M98.6404,-143.697C92.7672,-135.474 85.6309,-125.483 79.1576,-116.421"/>
<polygon fill="black" stroke="black" points="81.8779,-114.207 73.2174,-108.104 76.1817,-118.276 81.8779,-114.207"/>
<g id="a_edge3&#45;headlabel"><a xlink:href="dir_000003_000028.html" target="_top" xlink:title="11">
<text text-anchor="middle" x="86.2776" y="-112.982" font-family="Helvetica,sans-Serif" font-size="10.00">11</text>
</a>
</g>
</g>
<!-- dir_55730fee9a0c1f12da77eb14a8325c4c&#45;&gt;dir_bce2075adec303dcb2f0c4fbfcbc8493 -->
<g id="edge4" class="edge"><title>dir_55730fee9a0c1f12da77eb14a8325c4c&#45;&gt;dir_bce2075adec303dcb2f0c4fbfcbc8493</title>
<path fill="none" stroke="black" d="M110.509,-143.685C109.484,-125.309 106.37,-95.7112 97,-72 93.177,-62.326 87.3432,-52.6473 81.4778,-44.2584"/>
<polygon fill="black" stroke="black" points="84.1788,-42.0232 75.437,-36.0373 78.5379,-46.1682 84.1788,-42.0232"/>
<g id="a_edge4&#45;headlabel"><a xlink:href="dir_000003_000024.html" target="_top" xlink:title="64">
<text text-anchor="middle" x="88.5952" y="-40.7387" font-family="Helvetica,sans-Serif" font-size="10.00">64</text>
</a>
</g>
</g>
</g>
</svg>
