<?xml version="1.0" encoding="UTF-8" standalone="no"?>
<!DOCTYPE svg PUBLIC "-//W3C//DTD SVG 1.1//EN"
 "http://www.w3.org/Graphics/SVG/1.1/DTD/svg11.dtd">
<!-- Generated by graphviz version 2.38.0 (20140413.2041)
 -->
<!-- Title: /home/travis/build/hypro/hypro/src/hypro/datastructures/reachability Pages: 1 -->
<svg width="216pt" height="375pt"
 viewBox="0.00 0.00 216.00 375.00" xmlns="http://www.w3.org/2000/svg" xmlns:xlink="http://www.w3.org/1999/xlink">
<g id="graph0" class="graph" transform="scale(1 1) rotate(0) translate(4 371)">
<title>/home/travis/build/hypro/hypro/src/hypro/datastructures/reachability</title>
<polygon fill="white" stroke="none" points="-4,4 -4,-371 212,-371 212,4 -4,4"/>
<g id="clust1" class="cluster"><title>clusterdir_bce2075adec303dcb2f0c4fbfcbc8493</title>
<g id="a_clust1"><a xlink:href="dir_bce2075adec303dcb2f0c4fbfcbc8493.html" target="_top" xlink:title="datastructures">
<polygon fill="#ddddee" stroke="black" points="8,-200 8,-359 200,-359 200,-200 8,-200"/>
<text text-anchor="middle" x="104" y="-347" font-family="Helvetica,sans-Serif" font-size="10.00">datastructures</text>
</a>
</g>
</g>
<g id="clust2" class="cluster"><title>clusterdir_f695c0e486b1567b2450488137a0ccfa</title>
<g id="a_clust2"><a xlink:href="dir_f695c0e486b1567b2450488137a0ccfa.html" target="_top">
<polygon fill="#eeeeff" stroke="black" points="16,-208 16,-332 192,-332 192,-208 16,-208"/>
</a>
</g>
</g>
<!-- dir_f695c0e486b1567b2450488137a0ccfa -->
<g id="node1" class="node"><title>dir_f695c0e486b1567b2450488137a0ccfa</title>
<text text-anchor="middle" x="60" y="-303.5" font-family="Helvetica,sans-Serif" font-size="10.00">reachability</text>
</g>
<!-- dir_6ddbc195065ff24a50313c8ded16f5fe -->
<g id="node2" class="node"><title>dir_6ddbc195065ff24a50313c8ded16f5fe</title>
<g id="a_node2"><a xlink:href="dir_6ddbc195065ff24a50313c8ded16f5fe.html" target="_top" xlink:title="timing">
<polygon fill="white" stroke="black" points="83,-252 29,-252 29,-216 83,-216 83,-252"/>
<text text-anchor="middle" x="56" y="-231.5" font-family="Helvetica,sans-Serif" font-size="10.00">timing</text>
</a>
</g>
</g>
<!-- dir_f695c0e486b1567b2450488137a0ccfa&#45;&gt;dir_6ddbc195065ff24a50313c8ded16f5fe -->
<g id="edge2" class="edge"><title>dir_f695c0e486b1567b2450488137a0ccfa&#45;&gt;dir_6ddbc195065ff24a50313c8ded16f5fe</title>
<path fill="none" stroke="black" d="M59.0112,-287.697C58.5704,-279.983 58.0407,-270.712 57.5493,-262.112"/>
<polygon fill="black" stroke="black" points="61.0423,-261.888 56.9774,-252.104 54.0537,-262.288 61.0423,-261.888"/>
<g id="a_edge2&#45;headlabel"><a xlink:href="dir_000030_000032.html" target="_top" xlink:title="1">
<text text-anchor="middle" x="64.0819" y="-262.815" font-family="Helvetica,sans-Serif" font-size="10.00">1</text>
</a>
</g>
</g>
<!-- dir_879d833e0dfbe8f31a5e860bb94efb50 -->
<g id="node4" class="node"><title>dir_879d833e0dfbe8f31a5e860bb94efb50</title>
<g id="a_node4"><a xlink:href="dir_879d833e0dfbe8f31a5e860bb94efb50.html" target="_top" xlink:title="util">
<polygon fill="white" stroke="red" points="138,-180 84,-180 84,-144 138,-144 138,-180"/>
<text text-anchor="middle" x="111" y="-159.5" font-family="Helvetica,sans-Serif" font-size="10.00">util</text>
</a>
</g>
</g>
<!-- dir_f695c0e486b1567b2450488137a0ccfa&#45;&gt;dir_879d833e0dfbe8f31a5e860bb94efb50 -->
<g id="edge1" class="edge"><title>dir_f695c0e486b1567b2450488137a0ccfa&#45;&gt;dir_879d833e0dfbe8f31a5e860bb94efb50</title>
<path fill="none" stroke="black" d="M72.5203,-287.621C79.1876,-277.629 87.0174,-264.593 92,-252 99.8834,-232.075 104.746,-208.283 107.577,-190.313"/>
<polygon fill="black" stroke="black" points="111.069,-190.623 109.051,-180.222 104.142,-189.611 111.069,-190.623"/>
<g id="a_edge1&#45;headlabel"><a xlink:href="dir_000030_000028.html" target="_top" xlink:title="16">
<text text-anchor="middle" x="113.359" y="-192.09" font-family="Helvetica,sans-Serif" font-size="10.00">16</text>
</a>
</g>
</g>
<!-- dir_fc0efe5d2249fba2a29c6d003d9b04e9 -->
<g id="node5" class="node"><title>dir_fc0efe5d2249fba2a29c6d003d9b04e9</title>
<g id="a_node5"><a xlink:href="dir_fc0efe5d2249fba2a29c6d003d9b04e9.html" target="_top" xlink:title="HybridAutomaton">
<polygon fill="white" stroke="red" points="102.5,-108 1.5,-108 1.5,-72 102.5,-72 102.5,-108"/>
<text text-anchor="middle" x="52" y="-87.5" font-family="Helvetica,sans-Serif" font-size="10.00">HybridAutomaton</text>
</a>
</g>
</g>
<!-- dir_f695c0e486b1567b2450488137a0ccfa&#45;&gt;dir_fc0efe5d2249fba2a29c6d003d9b04e9 -->
<g id="edge3" class="edge"><title>dir_f695c0e486b1567b2450488137a0ccfa&#45;&gt;dir_fc0efe5d2249fba2a29c6d003d9b04e9</title>
<path fill="none" stroke="black" d="M42.2669,-287.599C33.7614,-277.998 24.4675,-265.336 20,-252 4.57661,-205.961 23.8563,-149.891 38.4787,-117.534"/>
<polygon fill="black" stroke="black" points="41.737,-118.83 42.8236,-108.291 35.402,-115.852 41.737,-118.83"/>
<g id="a_edge3&#45;headlabel"><a xlink:href="dir_000030_000025.html" target="_top" xlink:title="16">
<text text-anchor="middle" x="42.7774" y="-120.791" font-family="Helvetica,sans-Serif" font-size="10.00">16</text>
</a>
</g>
</g>
<!-- dir_7fa927d8fbf9dfbeef69af27f63bc81b -->
<g id="node6" class="node"><title>dir_7fa927d8fbf9dfbeef69af27f63bc81b</title>
<g id="a_node6"><a xlink:href="dir_7fa927d8fbf9dfbeef69af27f63bc81b.html" target="_top" xlink:title="representations">
<polygon fill="white" stroke="red" points="186,-36 94,-36 94,-0 186,-0 186,-36"/>
<text text-anchor="middle" x="140" y="-15.5" font-family="Helvetica,sans-Serif" font-size="10.00">representations</text>
</a>
</g>
</g>
<!-- dir_f695c0e486b1567b2450488137a0ccfa&#45;&gt;dir_7fa927d8fbf9dfbeef69af27f63bc81b -->
<g id="edge4" class="edge"><title>dir_f695c0e486b1567b2450488137a0ccfa&#45;&gt;dir_7fa927d8fbf9dfbeef69af27f63bc81b</title>
<path fill="none" stroke="black" d="M80.3343,-287.783C90.9879,-278.042 103.713,-265.195 113,-252 133.368,-223.061 138.778,-214.42 147,-180 157.979,-134.037 151.423,-78.6388 145.692,-46.2647"/>
<polygon fill="black" stroke="black" points="149.09,-45.3982 143.806,-36.2152 142.21,-46.6892 149.09,-45.3982"/>
<g id="a_edge4&#45;headlabel"><a xlink:href="dir_000030_000015.html" target="_top" xlink:title="3">
<text text-anchor="middle" x="152.544" y="-45.9076" font-family="Helvetica,sans-Serif" font-size="10.00">3</text>
</a>
</g>
</g>
<!-- dir_6ddbc195065ff24a50313c8ded16f5fe&#45;&gt;dir_879d833e0dfbe8f31a5e860bb94efb50 -->
<g id="edge7" class="edge"><title>dir_6ddbc195065ff24a50313c8ded16f5fe&#45;&gt;dir_879d833e0dfbe8f31a5e860bb94efb50</title>
<path fill="none" stroke="black" d="M69.5955,-215.697C76.1227,-207.389 84.068,-197.277 91.2466,-188.141"/>
<polygon fill="black" stroke="black" points="94.1347,-190.13 97.5609,-180.104 88.6305,-185.805 94.1347,-190.13"/>
<g id="a_edge7&#45;headlabel"><a xlink:href="dir_000032_000028.html" target="_top" xlink:title="6">
<text text-anchor="middle" x="94.1465" y="-192.211" font-family="Helvetica,sans-Serif" font-size="10.00">6</text>
</a>
</g>
</g>
<!-- dir_6ddbc195065ff24a50313c8ded16f5fe&#45;&gt;dir_fc0efe5d2249fba2a29c6d003d9b04e9 -->
<g id="edge8" class="edge"><title>dir_6ddbc195065ff24a50313c8ded16f5fe&#45;&gt;dir_fc0efe5d2249fba2a29c6d003d9b04e9</title>
<path fill="none" stroke="black" d="M55.5175,-215.871C54.8358,-191.67 53.5834,-147.211 52.7716,-118.393"/>
<polygon fill="black" stroke="black" points="56.2645,-118.087 52.4842,-108.189 49.2673,-118.284 56.2645,-118.087"/>
<g id="a_edge8&#45;headlabel"><a xlink:href="dir_000032_000025.html" target="_top" xlink:title="3">
<text text-anchor="middle" x="59.2038" y="-119.1" font-family="Helvetica,sans-Serif" font-size="10.00">3</text>
</a>
</g>
</g>
<!-- dir_cd26ada81136b69cef2727f805d38fd4 -->
<g id="node3" class="node"><title>dir_cd26ada81136b69cef2727f805d38fd4</title>
<g id="a_node3"><a xlink:href="dir_cd26ada81136b69cef2727f805d38fd4.html" target="_top" xlink:title="workQueue">
<polygon fill="white" stroke="black" points="184,-324 114,-324 114,-288 184,-288 184,-324"/>
<text text-anchor="middle" x="149" y="-303.5" font-family="Helvetica,sans-Serif" font-size="10.00">workQueue</text>
</a>
</g>
</g>
<!-- dir_cd26ada81136b69cef2727f805d38fd4&#45;&gt;dir_879d833e0dfbe8f31a5e860bb94efb50 -->
<g id="edge9" class="edge"><title>dir_cd26ada81136b69cef2727f805d38fd4&#45;&gt;dir_879d833e0dfbe8f31a5e860bb94efb50</title>
<path fill="none" stroke="black" d="M145.805,-287.716C141.757,-266.749 134.188,-230.432 125,-200 123.976,-196.61 122.797,-193.084 121.567,-189.615"/>
<polygon fill="black" stroke="black" points="124.813,-188.303 118.049,-180.149 118.251,-190.742 124.813,-188.303"/>
<g id="a_edge9&#45;headlabel"><a xlink:href="dir_000033_000028.html" target="_top" xlink:title="4">
<text text-anchor="middle" x="128.726" y="-188.184" font-family="Helvetica,sans-Serif" font-size="10.00">4</text>
</a>
</g>
</g>
<!-- dir_879d833e0dfbe8f31a5e860bb94efb50&#45;&gt;dir_fc0efe5d2249fba2a29c6d003d9b04e9 -->
<g id="edge5" class="edge"><title>dir_879d833e0dfbe8f31a5e860bb94efb50&#45;&gt;dir_fc0efe5d2249fba2a29c6d003d9b04e9</title>
<path fill="none" stroke="black" d="M90.5,-143.697C82.6412,-135.389 73.9212,-125.277 66.6839,-116.141"/>
<polygon fill="black" stroke="black" points="69.384,-113.91 60.5215,-108.104 63.8292,-118.17 69.384,-113.91"/>
<g id="a_edge5&#45;headlabel"><a xlink:href="dir_000028_000025.html" target="_top" xlink:title="1">
<text text-anchor="middle" x="73.8244" y="-112.535" font-family="Helvetica,sans-Serif" font-size="10.00">1</text>
</a>
</g>
</g>
<!-- dir_879d833e0dfbe8f31a5e860bb94efb50&#45;&gt;dir_7fa927d8fbf9dfbeef69af27f63bc81b -->
<g id="edge6" class="edge"><title>dir_879d833e0dfbe8f31a5e860bb94efb50&#45;&gt;dir_7fa927d8fbf9dfbeef69af27f63bc81b</title>
<path fill="none" stroke="black" d="M109.914,-143.871C112.308,-119.564 121.164,-74.8187 129.05,-46.0132"/>
<polygon fill="black" stroke="black" points="132.476,-46.7684 131.899,-36.1893 125.752,-44.8192 132.476,-46.7684"/>
<g id="a_edge6&#45;headlabel"><a xlink:href="dir_000028_000015.html" target="_top" xlink:title="2">
<text text-anchor="middle" x="134.202" y="-48.5114" font-family="Helvetica,sans-Serif" font-size="10.00">2</text>
</a>
</g>
</g>
<!-- dir_fc0efe5d2249fba2a29c6d003d9b04e9&#45;&gt;dir_879d833e0dfbe8f31a5e860bb94efb50 -->
<g id="edge10" class="edge"><title>dir_fc0efe5d2249fba2a29c6d003d9b04e9&#45;&gt;dir_879d833e0dfbe8f31a5e860bb94efb50</title>
<path fill="none" stroke="black" d="M72.3115,-108.104C80.1564,-116.383 88.8812,-126.488 96.1421,-135.64"/>
<polygon fill="black" stroke="black" points="93.4638,-137.899 102.331,-143.697 99.0149,-133.634 93.4638,-137.899"/>
<g id="a_edge10&#45;headlabel"><a xlink:href="dir_000025_000028.html" target="_top" xlink:title="3">
<text text-anchor="middle" x="89.0224" y="-134.278" font-family="Helvetica,sans-Serif" font-size="10.00">3</text>
</a>
</g>
</g>
<!-- dir_fc0efe5d2249fba2a29c6d003d9b04e9&#45;&gt;dir_7fa927d8fbf9dfbeef69af27f63bc81b -->
<g id="edge11" class="edge"><title>dir_fc0efe5d2249fba2a29c6d003d9b04e9&#45;&gt;dir_7fa927d8fbf9dfbeef69af27f63bc81b</title>
<path fill="none" stroke="black" d="M73.7528,-71.6966C84.8357,-62.8807 98.474,-52.0321 110.49,-42.4742"/>
<polygon fill="black" stroke="black" points="112.85,-45.0687 118.497,-36.1043 108.493,-39.5905 112.85,-45.0687"/>
<g id="a_edge11&#45;headlabel"><a xlink:href="dir_000025_000015.html" target="_top" xlink:title="8">
<text text-anchor="middle" x="111.805" y="-47.0284" font-family="Helvetica,sans-Serif" font-size="10.00">8</text>
</a>
</g>
</g>
<!-- dir_7fa927d8fbf9dfbeef69af27f63bc81b&#45;&gt;dir_879d833e0dfbe8f31a5e860bb94efb50 -->
<g id="edge12" class="edge"><title>dir_7fa927d8fbf9dfbeef69af27f63bc81b&#45;&gt;dir_879d833e0dfbe8f31a5e860bb94efb50</title>
<path fill="none" stroke="black" d="M141.08,-36.1893C138.675,-60.5311 129.815,-105.28 121.93,-134.059"/>
<polygon fill="black" stroke="black" points="118.508,-133.292 119.083,-143.871 125.231,-135.243 118.508,-133.292"/>
<g id="a_edge12&#45;headlabel"><a xlink:href="dir_000015_000028.html" target="_top" xlink:title="43">
<text text-anchor="middle" x="116.783" y="-126.549" font-family="Helvetica,sans-Serif" font-size="10.00">43</text>
</a>
</g>
</g>
</g>
</svg>
