<?xml version="1.0" encoding="UTF-8" standalone="no"?>
<!DOCTYPE svg PUBLIC "-//W3C//DTD SVG 1.1//EN"
 "http://www.w3.org/Graphics/SVG/1.1/DTD/svg11.dtd">
<!-- Generated by graphviz version 2.38.0 (20140413.2041)
 -->
<!-- Title: /home/travis/build/hypro/hypro/src/hypro/representations/Ellipsoids Pages: 1 -->
<svg width="116pt" height="151pt"
 viewBox="0.00 0.00 116.00 151.00" xmlns="http://www.w3.org/2000/svg" xmlns:xlink="http://www.w3.org/1999/xlink">
<g id="graph0" class="graph" transform="scale(1 1) rotate(0) translate(4 147)">
<title>/home/travis/build/hypro/hypro/src/hypro/representations/Ellipsoids</title>
<polygon fill="white" stroke="none" points="-4,4 -4,-147 112,-147 112,4 -4,4"/>
<g id="clust1" class="cluster"><title>clusterdir_7fa927d8fbf9dfbeef69af27f63bc81b</title>
<g id="a_clust1"><a xlink:href="dir_7fa927d8fbf9dfbeef69af27f63bc81b.html" target="_top" xlink:title="representations">
<polygon fill="#ddddee" stroke="black" points="8,-64 8,-135 100,-135 100,-64 8,-64"/>
<text text-anchor="middle" x="54" y="-123" font-family="Helvetica,sans-Serif" font-size="10.00">representations</text>
</a>
</g>
</g>
<!-- dir_d2e0e2e7c131de54c32d81549b14c3d5 -->
<g id="node1" class="node"><title>dir_d2e0e2e7c131de54c32d81549b14c3d5</title>
<g id="a_node1"><a xlink:href="dir_d2e0e2e7c131de54c32d81549b14c3d5.html" target="_top" xlink:title="Ellipsoids">
<polygon fill="#eeeeff" stroke="black" points="84,-108 24,-108 24,-72 84,-72 84,-108"/>
<text text-anchor="middle" x="54" y="-87.5" font-family="Helvetica,sans-Serif" font-size="10.00">Ellipsoids</text>
</a>
</g>
</g>
<!-- dir_bce2075adec303dcb2f0c4fbfcbc8493 -->
<g id="node2" class="node"><title>dir_bce2075adec303dcb2f0c4fbfcbc8493</title>
<g id="a_node2"><a xlink:href="dir_bce2075adec303dcb2f0c4fbfcbc8493.html" target="_top" xlink:title="datastructures">
<polygon fill="white" stroke="red" points="97.5,-36 10.5,-36 10.5,-0 97.5,-0 97.5,-36"/>
<text text-anchor="middle" x="54" y="-15.5" font-family="Helvetica,sans-Serif" font-size="10.00">datastructures</text>
</a>
</g>
</g>
<!-- dir_d2e0e2e7c131de54c32d81549b14c3d5&#45;&gt;dir_bce2075adec303dcb2f0c4fbfcbc8493 -->
<g id="edge1" class="edge"><title>dir_d2e0e2e7c131de54c32d81549b14c3d5&#45;&gt;dir_bce2075adec303dcb2f0c4fbfcbc8493</title>
<path fill="none" stroke="black" d="M54,-71.6966C54,-63.9827 54,-54.7125 54,-46.1124"/>
<polygon fill="black" stroke="black" points="57.5001,-46.1043 54,-36.1043 50.5001,-46.1044 57.5001,-46.1043"/>
<g id="a_edge1&#45;headlabel"><a xlink:href="dir_000041_000024.html" target="_top" xlink:title="1">
<text text-anchor="middle" x="60.3393" y="-47.199" font-family="Helvetica,sans-Serif" font-size="10.00">1</text>
</a>
</g>
</g>
</g>
</svg>
