<?xml version="1.0" encoding="UTF-8" standalone="no"?>
<!DOCTYPE svg PUBLIC "-//W3C//DTD SVG 1.1//EN"
 "http://www.w3.org/Graphics/SVG/1.1/DTD/svg11.dtd">
<!-- Generated by graphviz version 2.38.0 (20140413.2041)
 -->
<!-- Title: /home/travis/build/hypro/hypro/src/hypro/util/linearOptimization Pages: 1 -->
<svg width="536pt" height="231pt"
 viewBox="0.00 0.00 535.50 231.00" xmlns="http://www.w3.org/2000/svg" xmlns:xlink="http://www.w3.org/1999/xlink">
<g id="graph0" class="graph" transform="scale(1 1) rotate(0) translate(4 227)">
<title>/home/travis/build/hypro/hypro/src/hypro/util/linearOptimization</title>
<polygon fill="white" stroke="none" points="-4,4 -4,-227 531.5,-227 531.5,4 -4,4"/>
<g id="clust1" class="cluster"><title>clusterdir_879d833e0dfbe8f31a5e860bb94efb50</title>
<g id="a_clust1"><a xlink:href="dir_879d833e0dfbe8f31a5e860bb94efb50.html" target="_top" xlink:title="util">
<polygon fill="#ddddee" stroke="black" points="8,-56 8,-215 432,-215 432,-56 8,-56"/>
<text text-anchor="middle" x="220" y="-203" font-family="Helvetica,sans-Serif" font-size="10.00">util</text>
</a>
</g>
</g>
<g id="clust2" class="cluster"><title>clusterdir_3100e148cb0b6b745355fdee31bcb5c6</title>
<g id="a_clust2"><a xlink:href="dir_3100e148cb0b6b745355fdee31bcb5c6.html" target="_top">
<polygon fill="#eeeeff" stroke="black" points="16,-64 16,-188 424,-188 424,-64 16,-64"/>
</a>
</g>
</g>
<!-- dir_3100e148cb0b6b745355fdee31bcb5c6 -->
<g id="node1" class="node"><title>dir_3100e148cb0b6b745355fdee31bcb5c6</title>
<text text-anchor="middle" x="76" y="-159.5" font-family="Helvetica,sans-Serif" font-size="10.00">linearOptimization</text>
</g>
<!-- dir_6a5e837390fbd392226c1c2e9854e767 -->
<g id="node3" class="node"><title>dir_6a5e837390fbd392226c1c2e9854e767</title>
<g id="a_node3"><a xlink:href="dir_6a5e837390fbd392226c1c2e9854e767.html" target="_top" xlink:title="glpk">
<polygon fill="white" stroke="black" points="123,-108 69,-108 69,-72 123,-72 123,-108"/>
<text text-anchor="middle" x="96" y="-87.5" font-family="Helvetica,sans-Serif" font-size="10.00">glpk</text>
</a>
</g>
</g>
<!-- dir_3100e148cb0b6b745355fdee31bcb5c6&#45;&gt;dir_6a5e837390fbd392226c1c2e9854e767 -->
<g id="edge3" class="edge"><title>dir_3100e148cb0b6b745355fdee31bcb5c6&#45;&gt;dir_6a5e837390fbd392226c1c2e9854e767</title>
<path fill="none" stroke="black" d="M80.9438,-143.697C83.172,-135.898 85.8547,-126.509 88.3345,-117.829"/>
<polygon fill="black" stroke="black" points="91.7311,-118.681 91.113,-108.104 85.0004,-116.758 91.7311,-118.681"/>
<g id="a_edge3&#45;headlabel"><a xlink:href="dir_000031_000052.html" target="_top" xlink:title="1">
<text text-anchor="middle" x="93.4737" y="-120.417" font-family="Helvetica,sans-Serif" font-size="10.00">1</text>
</a>
</g>
</g>
<!-- dir_57790bb148fd18efc2431dd25a248521 -->
<g id="node8" class="node"><title>dir_57790bb148fd18efc2431dd25a248521</title>
<g id="a_node8"><a xlink:href="dir_57790bb148fd18efc2431dd25a248521.html" target="_top" xlink:title="statistics">
<polygon fill="none" stroke="black" points="493.5,-36 434.5,-36 434.5,-0 493.5,-0 493.5,-36"/>
<text text-anchor="middle" x="464" y="-15.5" font-family="Helvetica,sans-Serif" font-size="10.00">statistics</text>
</a>
</g>
</g>
<!-- dir_3100e148cb0b6b745355fdee31bcb5c6&#45;&gt;dir_57790bb148fd18efc2431dd25a248521 -->
<g id="edge1" class="edge"><title>dir_3100e148cb0b6b745355fdee31bcb5c6&#45;&gt;dir_57790bb148fd18efc2431dd25a248521</title>
<path fill="none" stroke="black" d="M128.244,-145.53C161.341,-135.456 204.929,-121.685 243,-108 307.413,-84.846 380.898,-54.4367 424.81,-35.8274"/>
<polygon fill="black" stroke="black" points="426.415,-38.9484 434.249,-31.8158 423.677,-32.5061 426.415,-38.9484"/>
<g id="a_edge1&#45;headlabel"><a xlink:href="dir_000031_000060.html" target="_top" xlink:title="1">
<text text-anchor="middle" x="424.217" y="-40.4674" font-family="Helvetica,sans-Serif" font-size="10.00">1</text>
</a>
</g>
</g>
<!-- dir_e44977c2db40c89968aef6d4236fe8a8 -->
<g id="node9" class="node"><title>dir_e44977c2db40c89968aef6d4236fe8a8</title>
<g id="a_node9"><a xlink:href="dir_e44977c2db40c89968aef6d4236fe8a8.html" target="_top" xlink:title="logging">
<polygon fill="none" stroke="black" points="377,-36 323,-36 323,-0 377,-0 377,-36"/>
<text text-anchor="middle" x="350" y="-15.5" font-family="Helvetica,sans-Serif" font-size="10.00">logging</text>
</a>
</g>
</g>
<!-- dir_3100e148cb0b6b745355fdee31bcb5c6&#45;&gt;dir_e44977c2db40c89968aef6d4236fe8a8 -->
<g id="edge2" class="edge"><title>dir_3100e148cb0b6b745355fdee31bcb5c6&#45;&gt;dir_e44977c2db40c89968aef6d4236fe8a8</title>
<path fill="none" stroke="black" d="M109.051,-143.871C160.746,-117.081 260.344,-65.4639 313.872,-37.7234"/>
<polygon fill="black" stroke="black" points="315.727,-40.7043 322.995,-32.9955 312.506,-34.4893 315.727,-40.7043"/>
<g id="a_edge2&#45;headlabel"><a xlink:href="dir_000031_000056.html" target="_top" xlink:title="2">
<text text-anchor="middle" x="313.842" y="-42.3791" font-family="Helvetica,sans-Serif" font-size="10.00">2</text>
</a>
</g>
</g>
<!-- dir_77666a7731f4755b46246b106520c6f1 -->
<g id="node2" class="node"><title>dir_77666a7731f4755b46246b106520c6f1</title>
<g id="a_node2"><a xlink:href="dir_77666a7731f4755b46246b106520c6f1.html" target="_top" xlink:title="clp">
<polygon fill="white" stroke="black" points="344,-180 290,-180 290,-144 344,-144 344,-180"/>
<text text-anchor="middle" x="317" y="-159.5" font-family="Helvetica,sans-Serif" font-size="10.00">clp</text>
</a>
</g>
</g>
<!-- dir_bce2075adec303dcb2f0c4fbfcbc8493 -->
<g id="node7" class="node"><title>dir_bce2075adec303dcb2f0c4fbfcbc8493</title>
<g id="a_node7"><a xlink:href="dir_bce2075adec303dcb2f0c4fbfcbc8493.html" target="_top" xlink:title="datastructures">
<polygon fill="white" stroke="red" points="527.5,-108 440.5,-108 440.5,-72 527.5,-72 527.5,-108"/>
<text text-anchor="middle" x="484" y="-87.5" font-family="Helvetica,sans-Serif" font-size="10.00">datastructures</text>
</a>
</g>
</g>
<!-- dir_6a5e837390fbd392226c1c2e9854e767&#45;&gt;dir_bce2075adec303dcb2f0c4fbfcbc8493 -->
<g id="edge7" class="edge"><title>dir_6a5e837390fbd392226c1c2e9854e767&#45;&gt;dir_bce2075adec303dcb2f0c4fbfcbc8493</title>
<path fill="none" stroke="black" d="M123.281,-90C225.555,-90 327.829,-90 430.102,-90"/>
<polygon fill="black" stroke="black" points="430.319,-93.5001 440.319,-90 430.319,-86.5001 430.319,-93.5001"/>
<g id="a_edge7&#45;headlabel"><a xlink:href="dir_000052_000024.html" target="_top" xlink:title="1">
<text text-anchor="middle" x="426.725" y="-93.8393" font-family="Helvetica,sans-Serif" font-size="10.00">1</text>
</a>
</g>
</g>
<!-- dir_390abfd5d68d503b469591b35069a435 -->
<g id="node4" class="node"><title>dir_390abfd5d68d503b469591b35069a435</title>
<g id="a_node4"><a xlink:href="dir_390abfd5d68d503b469591b35069a435.html" target="_top" xlink:title="smtrat">
<polygon fill="white" stroke="black" points="272,-180 218,-180 218,-144 272,-144 272,-180"/>
<text text-anchor="middle" x="245" y="-159.5" font-family="Helvetica,sans-Serif" font-size="10.00">smtrat</text>
</a>
</g>
</g>
<!-- dir_a938320afa8b4ed01722153f3c100ea6 -->
<g id="node5" class="node"><title>dir_a938320afa8b4ed01722153f3c100ea6</title>
<g id="a_node5"><a xlink:href="dir_a938320afa8b4ed01722153f3c100ea6.html" target="_top" xlink:title="soplex">
<polygon fill="white" stroke="black" points="200,-180 146,-180 146,-144 200,-144 200,-180"/>
<text text-anchor="middle" x="173" y="-159.5" font-family="Helvetica,sans-Serif" font-size="10.00">soplex</text>
</a>
</g>
</g>
<!-- dir_41e6b291ceaca213b8048a0ff55a26ee -->
<g id="node6" class="node"><title>dir_41e6b291ceaca213b8048a0ff55a26ee</title>
<g id="a_node6"><a xlink:href="dir_41e6b291ceaca213b8048a0ff55a26ee.html" target="_top" xlink:title="z3">
<polygon fill="white" stroke="black" points="416,-180 362,-180 362,-144 416,-144 416,-180"/>
<text text-anchor="middle" x="389" y="-159.5" font-family="Helvetica,sans-Serif" font-size="10.00">z3</text>
</a>
</g>
</g>
<!-- dir_41e6b291ceaca213b8048a0ff55a26ee&#45;&gt;dir_bce2075adec303dcb2f0c4fbfcbc8493 -->
<g id="edge8" class="edge"><title>dir_41e6b291ceaca213b8048a0ff55a26ee&#45;&gt;dir_bce2075adec303dcb2f0c4fbfcbc8493</title>
<path fill="none" stroke="black" d="M412.483,-143.697C424.563,-134.796 439.454,-123.823 452.516,-114.199"/>
<polygon fill="black" stroke="black" points="454.813,-116.854 460.787,-108.104 450.66,-111.219 454.813,-116.854"/>
<g id="a_edge8&#45;headlabel"><a xlink:href="dir_000054_000024.html" target="_top" xlink:title="1">
<text text-anchor="middle" x="453.603" y="-118.772" font-family="Helvetica,sans-Serif" font-size="10.00">1</text>
</a>
</g>
</g>
<!-- dir_bce2075adec303dcb2f0c4fbfcbc8493&#45;&gt;dir_3100e148cb0b6b745355fdee31bcb5c6 -->
<g id="edge4" class="edge"><title>dir_bce2075adec303dcb2f0c4fbfcbc8493&#45;&gt;dir_3100e148cb0b6b745355fdee31bcb5c6</title>
<path fill="none" stroke="black" d="M440.472,-105.003C436.281,-106.113 432.075,-107.136 428,-108 303.627,-134.367 266.587,-119.221 137.952,-143.989"/>
<polygon fill="black" stroke="black" points="137.256,-140.559 128.12,-145.925 138.608,-147.427 137.256,-140.559"/>
<g id="a_edge4&#45;headlabel"><a xlink:href="dir_000024_000031.html" target="_top" xlink:title="1">
<text text-anchor="middle" x="140.234" y="-134.579" font-family="Helvetica,sans-Serif" font-size="10.00">1</text>
</a>
</g>
</g>
<!-- dir_bce2075adec303dcb2f0c4fbfcbc8493&#45;&gt;dir_57790bb148fd18efc2431dd25a248521 -->
<g id="edge5" class="edge"><title>dir_bce2075adec303dcb2f0c4fbfcbc8493&#45;&gt;dir_57790bb148fd18efc2431dd25a248521</title>
<path fill="none" stroke="black" d="M479.056,-71.6966C476.828,-63.8979 474.145,-54.5085 471.665,-45.8292"/>
<polygon fill="black" stroke="black" points="475,-44.758 468.887,-36.1043 468.269,-46.6811 475,-44.758"/>
<g id="a_edge5&#45;headlabel"><a xlink:href="dir_000024_000060.html" target="_top" xlink:title="1">
<text text-anchor="middle" x="478.717" y="-44.9344" font-family="Helvetica,sans-Serif" font-size="10.00">1</text>
</a>
</g>
</g>
<!-- dir_bce2075adec303dcb2f0c4fbfcbc8493&#45;&gt;dir_e44977c2db40c89968aef6d4236fe8a8 -->
<g id="edge6" class="edge"><title>dir_bce2075adec303dcb2f0c4fbfcbc8493&#45;&gt;dir_e44977c2db40c89968aef6d4236fe8a8</title>
<path fill="none" stroke="black" d="M456.078,-71.8825C447.197,-66.6178 437.271,-60.9179 428,-56 414.575,-48.8788 399.549,-41.5946 386.296,-35.3935"/>
<polygon fill="black" stroke="black" points="387.552,-32.1179 377.008,-31.0873 384.608,-38.4687 387.552,-32.1179"/>
<g id="a_edge6&#45;headlabel"><a xlink:href="dir_000024_000056.html" target="_top" xlink:title="11">
<text text-anchor="middle" x="392.008" y="-28.5538" font-family="Helvetica,sans-Serif" font-size="10.00">11</text>
</a>
</g>
</g>
</g>
</svg>
