<?xml version="1.0" encoding="UTF-8" standalone="no"?>
<!DOCTYPE svg PUBLIC "-//W3C//DTD SVG 1.1//EN"
 "http://www.w3.org/Graphics/SVG/1.1/DTD/svg11.dtd">
<!-- Generated by graphviz version 2.38.0 (20140413.2041)
 -->
<!-- Title: /home/travis/build/hypro/hypro/src/hypro/util/linearOptimization/z3 Pages: 1 -->
<svg width="128pt" height="151pt"
 viewBox="0.00 0.00 128.00 151.00" xmlns="http://www.w3.org/2000/svg" xmlns:xlink="http://www.w3.org/1999/xlink">
<g id="graph0" class="graph" transform="scale(1 1) rotate(0) translate(4 147)">
<title>/home/travis/build/hypro/hypro/src/hypro/util/linearOptimization/z3</title>
<polygon fill="white" stroke="none" points="-4,4 -4,-147 124,-147 124,4 -4,4"/>
<g id="clust1" class="cluster"><title>clusterdir_3100e148cb0b6b745355fdee31bcb5c6</title>
<g id="a_clust1"><a xlink:href="dir_3100e148cb0b6b745355fdee31bcb5c6.html" target="_top" xlink:title="linearOptimization">
<polygon fill="#ddddee" stroke="black" points="8,-64 8,-135 112,-135 112,-64 8,-64"/>
<text text-anchor="middle" x="60" y="-123" font-family="Helvetica,sans-Serif" font-size="10.00">linearOptimization</text>
</a>
</g>
</g>
<!-- dir_41e6b291ceaca213b8048a0ff55a26ee -->
<g id="node1" class="node"><title>dir_41e6b291ceaca213b8048a0ff55a26ee</title>
<g id="a_node1"><a xlink:href="dir_41e6b291ceaca213b8048a0ff55a26ee.html" target="_top" xlink:title="z3">
<polygon fill="#eeeeff" stroke="black" points="87,-108 33,-108 33,-72 87,-72 87,-108"/>
<text text-anchor="middle" x="60" y="-87.5" font-family="Helvetica,sans-Serif" font-size="10.00">z3</text>
</a>
</g>
</g>
<!-- dir_bce2075adec303dcb2f0c4fbfcbc8493 -->
<g id="node2" class="node"><title>dir_bce2075adec303dcb2f0c4fbfcbc8493</title>
<g id="a_node2"><a xlink:href="dir_bce2075adec303dcb2f0c4fbfcbc8493.html" target="_top" xlink:title="datastructures">
<polygon fill="white" stroke="red" points="103.5,-36 16.5,-36 16.5,-0 103.5,-0 103.5,-36"/>
<text text-anchor="middle" x="60" y="-15.5" font-family="Helvetica,sans-Serif" font-size="10.00">datastructures</text>
</a>
</g>
</g>
<!-- dir_41e6b291ceaca213b8048a0ff55a26ee&#45;&gt;dir_bce2075adec303dcb2f0c4fbfcbc8493 -->
<g id="edge1" class="edge"><title>dir_41e6b291ceaca213b8048a0ff55a26ee&#45;&gt;dir_bce2075adec303dcb2f0c4fbfcbc8493</title>
<path fill="none" stroke="black" d="M60,-71.6966C60,-63.9827 60,-54.7125 60,-46.1124"/>
<polygon fill="black" stroke="black" points="63.5001,-46.1043 60,-36.1043 56.5001,-46.1044 63.5001,-46.1043"/>
<g id="a_edge1&#45;headlabel"><a xlink:href="dir_000054_000024.html" target="_top" xlink:title="1">
<text text-anchor="middle" x="66.3393" y="-47.199" font-family="Helvetica,sans-Serif" font-size="10.00">1</text>
</a>
</g>
</g>
</g>
</svg>
