<?xml version="1.0" encoding="UTF-8" standalone="no"?>
<!DOCTYPE svg PUBLIC "-//W3C//DTD SVG 1.1//EN"
 "http://www.w3.org/Graphics/SVG/1.1/DTD/svg11.dtd">
<!-- Generated by graphviz version 2.38.0 (20140413.2041)
 -->
<!-- Title: /home/travis/build/hypro/hypro/src/hypro/representations/ConstraintSet Pages: 1 -->
<svg width="199pt" height="223pt"
 viewBox="0.00 0.00 199.00 223.00" xmlns="http://www.w3.org/2000/svg" xmlns:xlink="http://www.w3.org/1999/xlink">
<g id="graph0" class="graph" transform="scale(1 1) rotate(0) translate(4 219)">
<title>/home/travis/build/hypro/hypro/src/hypro/representations/ConstraintSet</title>
<polygon fill="white" stroke="none" points="-4,4 -4,-219 195,-219 195,4 -4,4"/>
<g id="clust1" class="cluster"><title>clusterdir_7fa927d8fbf9dfbeef69af27f63bc81b</title>
<g id="a_clust1"><a xlink:href="dir_7fa927d8fbf9dfbeef69af27f63bc81b.html" target="_top" xlink:title="representations">
<polygon fill="#ddddee" stroke="black" points="83,-136 83,-207 183,-207 183,-136 83,-136"/>
<text text-anchor="middle" x="133" y="-195" font-family="Helvetica,sans-Serif" font-size="10.00">representations</text>
</a>
</g>
</g>
<!-- dir_c69b7163a8becb19bca702fdae1c2050 -->
<g id="node1" class="node"><title>dir_c69b7163a8becb19bca702fdae1c2050</title>
<g id="a_node1"><a xlink:href="dir_c69b7163a8becb19bca702fdae1c2050.html" target="_top" xlink:title="ConstraintSet">
<polygon fill="#eeeeff" stroke="black" points="174.5,-180 91.5,-180 91.5,-144 174.5,-144 174.5,-180"/>
<text text-anchor="middle" x="133" y="-159.5" font-family="Helvetica,sans-Serif" font-size="10.00">ConstraintSet</text>
</a>
</g>
</g>
<!-- dir_347b12423904bd932c4239ca1a522dfa -->
<g id="node2" class="node"><title>dir_347b12423904bd932c4239ca1a522dfa</title>
<g id="a_node2"><a xlink:href="dir_347b12423904bd932c4239ca1a522dfa.html" target="_top" xlink:title="helperMethods">
<polygon fill="none" stroke="black" points="88,-108 7.10543e-15,-108 7.10543e-15,-72 88,-72 88,-108"/>
<text text-anchor="middle" x="44" y="-87.5" font-family="Helvetica,sans-Serif" font-size="10.00">helperMethods</text>
</a>
</g>
</g>
<!-- dir_c69b7163a8becb19bca702fdae1c2050&#45;&gt;dir_347b12423904bd932c4239ca1a522dfa -->
<g id="edge1" class="edge"><title>dir_c69b7163a8becb19bca702fdae1c2050&#45;&gt;dir_347b12423904bd932c4239ca1a522dfa</title>
<path fill="none" stroke="black" d="M111,-143.697C99.7912,-134.881 85.9979,-124.032 73.8458,-114.474"/>
<polygon fill="black" stroke="black" points="75.7708,-111.535 65.7469,-108.104 71.4433,-117.038 75.7708,-111.535"/>
<g id="a_edge1&#45;headlabel"><a xlink:href="dir_000038_000043.html" target="_top" xlink:title="1">
<text text-anchor="middle" x="80.3515" y="-109.026" font-family="Helvetica,sans-Serif" font-size="10.00">1</text>
</a>
</g>
</g>
<!-- dir_879d833e0dfbe8f31a5e860bb94efb50 -->
<g id="node3" class="node"><title>dir_879d833e0dfbe8f31a5e860bb94efb50</title>
<g id="a_node3"><a xlink:href="dir_879d833e0dfbe8f31a5e860bb94efb50.html" target="_top" xlink:title="util">
<polygon fill="white" stroke="red" points="160,-108 106,-108 106,-72 160,-72 160,-108"/>
<text text-anchor="middle" x="133" y="-87.5" font-family="Helvetica,sans-Serif" font-size="10.00">util</text>
</a>
</g>
</g>
<!-- dir_c69b7163a8becb19bca702fdae1c2050&#45;&gt;dir_879d833e0dfbe8f31a5e860bb94efb50 -->
<g id="edge2" class="edge"><title>dir_c69b7163a8becb19bca702fdae1c2050&#45;&gt;dir_879d833e0dfbe8f31a5e860bb94efb50</title>
<path fill="none" stroke="black" d="M133,-143.697C133,-135.983 133,-126.712 133,-118.112"/>
<polygon fill="black" stroke="black" points="136.5,-118.104 133,-108.104 129.5,-118.104 136.5,-118.104"/>
<g id="a_edge2&#45;headlabel"><a xlink:href="dir_000038_000028.html" target="_top" xlink:title="1">
<text text-anchor="middle" x="139.339" y="-119.199" font-family="Helvetica,sans-Serif" font-size="10.00">1</text>
</a>
</g>
</g>
<!-- dir_bce2075adec303dcb2f0c4fbfcbc8493 -->
<g id="node4" class="node"><title>dir_bce2075adec303dcb2f0c4fbfcbc8493</title>
<g id="a_node4"><a xlink:href="dir_bce2075adec303dcb2f0c4fbfcbc8493.html" target="_top" xlink:title="datastructures">
<polygon fill="white" stroke="red" points="176.5,-36 89.5,-36 89.5,-0 176.5,-0 176.5,-36"/>
<text text-anchor="middle" x="133" y="-15.5" font-family="Helvetica,sans-Serif" font-size="10.00">datastructures</text>
</a>
</g>
</g>
<!-- dir_c69b7163a8becb19bca702fdae1c2050&#45;&gt;dir_bce2075adec303dcb2f0c4fbfcbc8493 -->
<g id="edge3" class="edge"><title>dir_c69b7163a8becb19bca702fdae1c2050&#45;&gt;dir_bce2075adec303dcb2f0c4fbfcbc8493</title>
<path fill="none" stroke="black" d="M148.61,-143.774C156.373,-134.03 164.946,-121.184 169,-108 173.703,-92.7067 173.703,-87.2933 169,-72 165.991,-62.2153 160.493,-52.6161 154.684,-44.3336"/>
<polygon fill="black" stroke="black" points="157.407,-42.1306 148.61,-36.2264 151.805,-46.3279 157.407,-42.1306"/>
<g id="a_edge3&#45;headlabel"><a xlink:href="dir_000038_000024.html" target="_top" xlink:title="2">
<text text-anchor="middle" x="161.835" y="-40.8048" font-family="Helvetica,sans-Serif" font-size="10.00">2</text>
</a>
</g>
</g>
<!-- dir_879d833e0dfbe8f31a5e860bb94efb50&#45;&gt;dir_bce2075adec303dcb2f0c4fbfcbc8493 -->
<g id="edge4" class="edge"><title>dir_879d833e0dfbe8f31a5e860bb94efb50&#45;&gt;dir_bce2075adec303dcb2f0c4fbfcbc8493</title>
<path fill="none" stroke="black" d="M127.084,-71.6966C126.289,-63.9827 126.062,-54.7125 126.405,-46.1124"/>
<polygon fill="black" stroke="black" points="129.898,-46.3243 127.105,-36.1043 122.915,-45.8356 129.898,-46.3243"/>
<g id="a_edge4&#45;headlabel"><a xlink:href="dir_000028_000024.html" target="_top" xlink:title="12">
<text text-anchor="middle" x="132.48" y="-47.6083" font-family="Helvetica,sans-Serif" font-size="10.00">12</text>
</a>
</g>
</g>
<!-- dir_bce2075adec303dcb2f0c4fbfcbc8493&#45;&gt;dir_879d833e0dfbe8f31a5e860bb94efb50 -->
<g id="edge5" class="edge"><title>dir_bce2075adec303dcb2f0c4fbfcbc8493&#45;&gt;dir_879d833e0dfbe8f31a5e860bb94efb50</title>
<path fill="none" stroke="black" d="M138.895,-36.1043C139.701,-43.7913 139.937,-53.0537 139.604,-61.6651"/>
<polygon fill="black" stroke="black" points="136.109,-61.4805 138.916,-71.6966 143.092,-61.9597 136.109,-61.4805"/>
<g id="a_edge5&#45;headlabel"><a xlink:href="dir_000024_000028.html" target="_top" xlink:title="25">
<text text-anchor="middle" x="133.522" y="-55.2" font-family="Helvetica,sans-Serif" font-size="10.00">25</text>
</a>
</g>
</g>
</g>
</svg>
