<?xml version="1.0" encoding="UTF-8" standalone="no"?>
<!DOCTYPE svg PUBLIC "-//W3C//DTD SVG 1.1//EN"
 "http://www.w3.org/Graphics/SVG/1.1/DTD/svg11.dtd">
<!-- Generated by graphviz version 2.38.0 (20140413.2041)
 -->
<!-- Title: /home/travis/build/hypro/hypro/src/hypro/algorithms/reachability Pages: 1 -->
<svg width="233pt" height="375pt"
 viewBox="0.00 0.00 233.00 375.00" xmlns="http://www.w3.org/2000/svg" xmlns:xlink="http://www.w3.org/1999/xlink">
<g id="graph0" class="graph" transform="scale(1 1) rotate(0) translate(4 371)">
<title>/home/travis/build/hypro/hypro/src/hypro/algorithms/reachability</title>
<polygon fill="white" stroke="none" points="-4,4 -4,-371 229,-371 229,4 -4,4"/>
<g id="clust1" class="cluster"><title>clusterdir_55730fee9a0c1f12da77eb14a8325c4c</title>
<g id="a_clust1"><a xlink:href="dir_55730fee9a0c1f12da77eb14a8325c4c.html" target="_top" xlink:title="algorithms">
<polygon fill="#ddddee" stroke="black" points="37,-200 37,-359 217,-359 217,-200 37,-200"/>
<text text-anchor="middle" x="127" y="-347" font-family="Helvetica,sans-Serif" font-size="10.00">algorithms</text>
</a>
</g>
</g>
<g id="clust2" class="cluster"><title>clusterdir_6a6edf7123c81d000975d26367682a7a</title>
<g id="a_clust2"><a xlink:href="dir_6a6edf7123c81d000975d26367682a7a.html" target="_top">
<polygon fill="#eeeeff" stroke="black" points="45,-208 45,-332 209,-332 209,-208 45,-208"/>
</a>
</g>
</g>
<!-- dir_6a6edf7123c81d000975d26367682a7a -->
<g id="node1" class="node"><title>dir_6a6edf7123c81d000975d26367682a7a</title>
<text text-anchor="middle" x="165" y="-303.5" font-family="Helvetica,sans-Serif" font-size="10.00">reachability</text>
</g>
<!-- dir_1d177bd438e269a304e1f07d1a6d36f2 -->
<g id="node2" class="node"><title>dir_1d177bd438e269a304e1f07d1a6d36f2</title>
<g id="a_node2"><a xlink:href="dir_1d177bd438e269a304e1f07d1a6d36f2.html" target="_top" xlink:title="contexts">
<polygon fill="white" stroke="black" points="111,-324 53,-324 53,-288 111,-288 111,-324"/>
<text text-anchor="middle" x="82" y="-303.5" font-family="Helvetica,sans-Serif" font-size="10.00">contexts</text>
</a>
</g>
</g>
<!-- dir_32033642301c2effdf6af876d53153c1 -->
<g id="node3" class="node"><title>dir_32033642301c2effdf6af876d53153c1</title>
<g id="a_node3"><a xlink:href="dir_32033642301c2effdf6af876d53153c1.html" target="_top" xlink:title="handlers">
<polygon fill="white" stroke="red" points="185,-252 127,-252 127,-216 185,-216 185,-252"/>
<text text-anchor="middle" x="156" y="-231.5" font-family="Helvetica,sans-Serif" font-size="10.00">handlers</text>
</a>
</g>
</g>
<!-- dir_1d177bd438e269a304e1f07d1a6d36f2&#45;&gt;dir_32033642301c2effdf6af876d53153c1 -->
<g id="edge3" class="edge"><title>dir_1d177bd438e269a304e1f07d1a6d36f2&#45;&gt;dir_32033642301c2effdf6af876d53153c1</title>
<path fill="none" stroke="black" d="M100.292,-287.697C109.433,-279.05 120.64,-268.449 130.6,-259.027"/>
<polygon fill="black" stroke="black" points="133.059,-261.519 137.918,-252.104 128.248,-256.434 133.059,-261.519"/>
<g id="a_edge3&#45;headlabel"><a xlink:href="dir_000008_000009.html" target="_top" xlink:title="5">
<text text-anchor="middle" x="132.399" y="-263.552" font-family="Helvetica,sans-Serif" font-size="10.00">5</text>
</a>
</g>
</g>
<!-- dir_519994d85a4cf46cf1798a8eeb04af9e -->
<g id="node4" class="node"><title>dir_519994d85a4cf46cf1798a8eeb04af9e</title>
<g id="a_node4"><a xlink:href="dir_519994d85a4cf46cf1798a8eeb04af9e.html" target="_top" xlink:title="workers">
<polygon fill="white" stroke="black" points="109,-252 55,-252 55,-216 109,-216 109,-252"/>
<text text-anchor="middle" x="82" y="-231.5" font-family="Helvetica,sans-Serif" font-size="10.00">workers</text>
</a>
</g>
</g>
<!-- dir_1d177bd438e269a304e1f07d1a6d36f2&#45;&gt;dir_519994d85a4cf46cf1798a8eeb04af9e -->
<g id="edge6" class="edge"><title>dir_1d177bd438e269a304e1f07d1a6d36f2&#45;&gt;dir_519994d85a4cf46cf1798a8eeb04af9e</title>
<path fill="none" stroke="black" d="M76.0843,-287.697C75.2886,-279.983 75.0621,-270.712 75.4047,-262.112"/>
<polygon fill="black" stroke="black" points="78.8984,-262.324 76.105,-252.104 71.9154,-261.836 78.8984,-262.324"/>
<g id="a_edge6&#45;headlabel"><a xlink:href="dir_000008_000023.html" target="_top" xlink:title="3">
<text text-anchor="middle" x="81.4799" y="-263.608" font-family="Helvetica,sans-Serif" font-size="10.00">3</text>
</a>
</g>
</g>
<!-- dir_879d833e0dfbe8f31a5e860bb94efb50 -->
<g id="node5" class="node"><title>dir_879d833e0dfbe8f31a5e860bb94efb50</title>
<g id="a_node5"><a xlink:href="dir_879d833e0dfbe8f31a5e860bb94efb50.html" target="_top" xlink:title="util">
<polygon fill="white" stroke="red" points="54,-180 0,-180 0,-144 54,-144 54,-180"/>
<text text-anchor="middle" x="27" y="-159.5" font-family="Helvetica,sans-Serif" font-size="10.00">util</text>
</a>
</g>
</g>
<!-- dir_1d177bd438e269a304e1f07d1a6d36f2&#45;&gt;dir_879d833e0dfbe8f31a5e860bb94efb50 -->
<g id="edge4" class="edge"><title>dir_1d177bd438e269a304e1f07d1a6d36f2&#45;&gt;dir_879d833e0dfbe8f31a5e860bb94efb50</title>
<path fill="none" stroke="black" d="M67.8353,-287.851C60.3098,-277.93 51.5029,-264.89 46,-252 37.5868,-232.293 32.7553,-208.488 30.0717,-190.458"/>
<polygon fill="black" stroke="black" points="33.5097,-189.764 28.6972,-180.326 26.5733,-190.705 33.5097,-189.764"/>
<g id="a_edge4&#45;headlabel"><a xlink:href="dir_000008_000028.html" target="_top" xlink:title="6">
<text text-anchor="middle" x="36.8063" y="-190.445" font-family="Helvetica,sans-Serif" font-size="10.00">6</text>
</a>
</g>
</g>
<!-- dir_bce2075adec303dcb2f0c4fbfcbc8493 -->
<g id="node6" class="node"><title>dir_bce2075adec303dcb2f0c4fbfcbc8493</title>
<g id="a_node6"><a xlink:href="dir_bce2075adec303dcb2f0c4fbfcbc8493.html" target="_top" xlink:title="datastructures">
<polygon fill="white" stroke="red" points="142.5,-108 55.5,-108 55.5,-72 142.5,-72 142.5,-108"/>
<text text-anchor="middle" x="99" y="-87.5" font-family="Helvetica,sans-Serif" font-size="10.00">datastructures</text>
</a>
</g>
</g>
<!-- dir_1d177bd438e269a304e1f07d1a6d36f2&#45;&gt;dir_bce2075adec303dcb2f0c4fbfcbc8493 -->
<g id="edge5" class="edge"><title>dir_1d177bd438e269a304e1f07d1a6d36f2&#45;&gt;dir_bce2075adec303dcb2f0c4fbfcbc8493</title>
<path fill="none" stroke="black" d="M111.013,-291.729C143.789,-276.669 192.777,-253.931 194,-252 224.47,-203.872 168.504,-146.058 130.301,-114.463"/>
<polygon fill="black" stroke="black" points="132.436,-111.689 122.456,-108.132 128.04,-117.136 132.436,-111.689"/>
<g id="a_edge5&#45;headlabel"><a xlink:href="dir_000008_000024.html" target="_top" xlink:title="19">
<text text-anchor="middle" x="137.017" y="-109.237" font-family="Helvetica,sans-Serif" font-size="10.00">19</text>
</a>
</g>
</g>
<!-- dir_32033642301c2effdf6af876d53153c1&#45;&gt;dir_bce2075adec303dcb2f0c4fbfcbc8493 -->
<g id="edge1" class="edge"><title>dir_32033642301c2effdf6af876d53153c1&#45;&gt;dir_bce2075adec303dcb2f0c4fbfcbc8493</title>
<path fill="none" stroke="black" d="M149.124,-215.871C139.324,-191.457 121.248,-146.426 109.692,-117.635"/>
<polygon fill="black" stroke="black" points="112.873,-116.166 105.9,-108.189 106.377,-118.773 112.873,-116.166"/>
<g id="a_edge1&#45;headlabel"><a xlink:href="dir_000009_000024.html" target="_top" xlink:title="22">
<text text-anchor="middle" x="116.847" y="-115.944" font-family="Helvetica,sans-Serif" font-size="10.00">22</text>
</a>
</g>
</g>
<!-- dir_7fa927d8fbf9dfbeef69af27f63bc81b -->
<g id="node7" class="node"><title>dir_7fa927d8fbf9dfbeef69af27f63bc81b</title>
<g id="a_node7"><a xlink:href="dir_7fa927d8fbf9dfbeef69af27f63bc81b.html" target="_top" xlink:title="representations">
<polygon fill="white" stroke="red" points="145,-36 53,-36 53,-0 145,-0 145,-36"/>
<text text-anchor="middle" x="99" y="-15.5" font-family="Helvetica,sans-Serif" font-size="10.00">representations</text>
</a>
</g>
</g>
<!-- dir_32033642301c2effdf6af876d53153c1&#45;&gt;dir_7fa927d8fbf9dfbeef69af27f63bc81b -->
<g id="edge2" class="edge"><title>dir_32033642301c2effdf6af876d53153c1&#45;&gt;dir_7fa927d8fbf9dfbeef69af27f63bc81b</title>
<path fill="none" stroke="black" d="M159.416,-215.677C164.587,-185.199 171.75,-120.61 151,-72 146.342,-61.0883 138.312,-51.1719 129.936,-42.9456"/>
<polygon fill="black" stroke="black" points="132.294,-40.3591 122.563,-36.169 127.557,-45.5129 132.294,-40.3591"/>
<g id="a_edge2&#45;headlabel"><a xlink:href="dir_000009_000015.html" target="_top" xlink:title="1">
<text text-anchor="middle" x="136.862" y="-38.2011" font-family="Helvetica,sans-Serif" font-size="10.00">1</text>
</a>
</g>
</g>
<!-- dir_519994d85a4cf46cf1798a8eeb04af9e&#45;&gt;dir_1d177bd438e269a304e1f07d1a6d36f2 -->
<g id="edge11" class="edge"><title>dir_519994d85a4cf46cf1798a8eeb04af9e&#45;&gt;dir_1d177bd438e269a304e1f07d1a6d36f2</title>
<path fill="none" stroke="black" d="M87.895,-252.104C88.7005,-259.791 88.9369,-269.054 88.604,-277.665"/>
<polygon fill="black" stroke="black" points="85.1085,-277.48 87.9157,-287.697 92.0921,-277.96 85.1085,-277.48"/>
<g id="a_edge11&#45;headlabel"><a xlink:href="dir_000023_000008.html" target="_top" xlink:title="3">
<text text-anchor="middle" x="82.5219" y="-271.2" font-family="Helvetica,sans-Serif" font-size="10.00">3</text>
</a>
</g>
</g>
<!-- dir_519994d85a4cf46cf1798a8eeb04af9e&#45;&gt;dir_879d833e0dfbe8f31a5e860bb94efb50 -->
<g id="edge12" class="edge"><title>dir_519994d85a4cf46cf1798a8eeb04af9e&#45;&gt;dir_879d833e0dfbe8f31a5e860bb94efb50</title>
<path fill="none" stroke="black" d="M68.4045,-215.697C61.8773,-207.389 53.932,-197.277 46.7534,-188.141"/>
<polygon fill="black" stroke="black" points="49.3695,-185.805 40.4391,-180.104 43.8653,-190.13 49.3695,-185.805"/>
<g id="a_edge12&#45;headlabel"><a xlink:href="dir_000023_000028.html" target="_top" xlink:title="2">
<text text-anchor="middle" x="53.8229" y="-184.377" font-family="Helvetica,sans-Serif" font-size="10.00">2</text>
</a>
</g>
</g>
<!-- dir_519994d85a4cf46cf1798a8eeb04af9e&#45;&gt;dir_bce2075adec303dcb2f0c4fbfcbc8493 -->
<g id="edge13" class="edge"><title>dir_519994d85a4cf46cf1798a8eeb04af9e&#45;&gt;dir_bce2075adec303dcb2f0c4fbfcbc8493</title>
<path fill="none" stroke="black" d="M84.0506,-215.871C86.9479,-191.67 92.2705,-147.211 95.7205,-118.393"/>
<polygon fill="black" stroke="black" points="99.2285,-118.534 96.9421,-108.189 92.2782,-117.702 99.2285,-118.534"/>
<g id="a_edge13&#45;headlabel"><a xlink:href="dir_000023_000024.html" target="_top" xlink:title="9">
<text text-anchor="middle" x="101.62" y="-119.941" font-family="Helvetica,sans-Serif" font-size="10.00">9</text>
</a>
</g>
</g>
<!-- dir_879d833e0dfbe8f31a5e860bb94efb50&#45;&gt;dir_bce2075adec303dcb2f0c4fbfcbc8493 -->
<g id="edge7" class="edge"><title>dir_879d833e0dfbe8f31a5e860bb94efb50&#45;&gt;dir_bce2075adec303dcb2f0c4fbfcbc8493</title>
<path fill="none" stroke="black" d="M38.882,-143.697C46.8836,-135.05 57.6114,-124.449 67.8404,-115.027"/>
<polygon fill="black" stroke="black" points="70.4326,-117.402 75.5119,-108.104 65.743,-112.205 70.4326,-117.402"/>
<g id="a_edge7&#45;headlabel"><a xlink:href="dir_000028_000024.html" target="_top" xlink:title="12">
<text text-anchor="middle" x="69.6661" y="-119.418" font-family="Helvetica,sans-Serif" font-size="10.00">12</text>
</a>
</g>
</g>
<!-- dir_879d833e0dfbe8f31a5e860bb94efb50&#45;&gt;dir_7fa927d8fbf9dfbeef69af27f63bc81b -->
<g id="edge8" class="edge"><title>dir_879d833e0dfbe8f31a5e860bb94efb50&#45;&gt;dir_7fa927d8fbf9dfbeef69af27f63bc81b</title>
<path fill="none" stroke="black" d="M21.1861,-143.94C20.2563,-125.256 24.5507,-94.9046 37,-72 42.8744,-61.1922 51.6372,-51.1394 60.8074,-42.7577"/>
<polygon fill="black" stroke="black" points="63.2297,-45.2915 68.5517,-36.1303 58.6783,-39.9731 63.2297,-45.2915"/>
<g id="a_edge8&#45;headlabel"><a xlink:href="dir_000028_000015.html" target="_top" xlink:title="2">
<text text-anchor="middle" x="62.3447" y="-47.2858" font-family="Helvetica,sans-Serif" font-size="10.00">2</text>
</a>
</g>
</g>
<!-- dir_bce2075adec303dcb2f0c4fbfcbc8493&#45;&gt;dir_879d833e0dfbe8f31a5e860bb94efb50 -->
<g id="edge9" class="edge"><title>dir_bce2075adec303dcb2f0c4fbfcbc8493&#45;&gt;dir_879d833e0dfbe8f31a5e860bb94efb50</title>
<path fill="none" stroke="black" d="M87.302,-108.104C79.3426,-116.72 68.6321,-127.316 58.3956,-136.755"/>
<polygon fill="black" stroke="black" points="55.7869,-134.395 50.7135,-143.697 60.4798,-139.589 55.7869,-134.395"/>
<g id="a_edge9&#45;headlabel"><a xlink:href="dir_000024_000028.html" target="_top" xlink:title="25">
<text text-anchor="middle" x="56.5505" y="-127.379" font-family="Helvetica,sans-Serif" font-size="10.00">25</text>
</a>
</g>
</g>
<!-- dir_bce2075adec303dcb2f0c4fbfcbc8493&#45;&gt;dir_7fa927d8fbf9dfbeef69af27f63bc81b -->
<g id="edge10" class="edge"><title>dir_bce2075adec303dcb2f0c4fbfcbc8493&#45;&gt;dir_7fa927d8fbf9dfbeef69af27f63bc81b</title>
<path fill="none" stroke="black" d="M93.0843,-71.6966C92.2886,-63.9827 92.0621,-54.7125 92.4047,-46.1124"/>
<polygon fill="black" stroke="black" points="95.8984,-46.3243 93.105,-36.1043 88.9154,-45.8356 95.8984,-46.3243"/>
<g id="a_edge10&#45;headlabel"><a xlink:href="dir_000024_000015.html" target="_top" xlink:title="12">
<text text-anchor="middle" x="98.4799" y="-47.6083" font-family="Helvetica,sans-Serif" font-size="10.00">12</text>
</a>
</g>
</g>
<!-- dir_7fa927d8fbf9dfbeef69af27f63bc81b&#45;&gt;dir_879d833e0dfbe8f31a5e860bb94efb50 -->
<g id="edge14" class="edge"><title>dir_7fa927d8fbf9dfbeef69af27f63bc81b&#45;&gt;dir_879d833e0dfbe8f31a5e860bb94efb50</title>
<path fill="none" stroke="black" d="M84.4056,-36.365C74.5686,-45.7773 62.457,-58.2803 55,-72 44.5931,-91.1468 39.8849,-115.498 36.348,-133.886"/>
<polygon fill="black" stroke="black" points="32.8663,-133.452 34.3666,-143.94 39.7342,-134.806 32.8663,-133.452"/>
<g id="a_edge14&#45;headlabel"><a xlink:href="dir_000015_000028.html" target="_top" xlink:title="43">
<text text-anchor="middle" x="30.7756" y="-126.876" font-family="Helvetica,sans-Serif" font-size="10.00">43</text>
</a>
</g>
</g>
<!-- dir_7fa927d8fbf9dfbeef69af27f63bc81b&#45;&gt;dir_bce2075adec303dcb2f0c4fbfcbc8493 -->
<g id="edge15" class="edge"><title>dir_7fa927d8fbf9dfbeef69af27f63bc81b&#45;&gt;dir_bce2075adec303dcb2f0c4fbfcbc8493</title>
<path fill="none" stroke="black" d="M104.895,-36.1043C105.701,-43.7913 105.937,-53.0537 105.604,-61.6651"/>
<polygon fill="black" stroke="black" points="102.109,-61.4805 104.916,-71.6966 109.092,-61.9597 102.109,-61.4805"/>
<g id="a_edge15&#45;headlabel"><a xlink:href="dir_000015_000024.html" target="_top" xlink:title="25">
<text text-anchor="middle" x="99.5219" y="-55.2" font-family="Helvetica,sans-Serif" font-size="10.00">25</text>
</a>
</g>
</g>
</g>
</svg>
