<?xml version="1.0" encoding="UTF-8" standalone="no"?>
<!DOCTYPE svg PUBLIC "-//W3C//DTD SVG 1.1//EN"
 "http://www.w3.org/Graphics/SVG/1.1/DTD/svg11.dtd">
<!-- Generated by graphviz version 2.38.0 (20140413.2041)
 -->
<!-- Title: /home/travis/build/hypro/hypro/src/hypro/representations/conversion Pages: 1 -->
<!--zoomable 295 -->
<svg id="main" version="1.1" xmlns="http://www.w3.org/2000/svg" xmlns:xlink="http://www.w3.org/1999/xlink" xml:space="preserve" onload="init(evt)">
<style type="text/css"><![CDATA[
.edge:hover path { stroke: red; }
.edge:hover polygon { stroke: red; fill: red; }
]]></style>
<script type="text/javascript"><![CDATA[
var edges = document.getElementsByTagName('g');
if (edges && edges.length) {
  for (var i=0;i<edges.length;i++) {
    if (edges[i].id.substr(0,4)=='edge') {
      edges[i].setAttribute('class','edge');
    }
  }
}
]]></script>
        <defs>
                <circle id="rim" cx="0" cy="0" r="7"/>
                <circle id="rim2" cx="0" cy="0" r="3.5"/>
                <g id="zoomPlus">
                        <use xlink:href="#rim" fill="#404040">
                                <set attributeName="fill" to="#808080" begin="zoomplus.mouseover" end="zoomplus.mouseout"/>
                        </use>
                        <path d="M-4,0h8M0,-4v8" fill="none" stroke="white" stroke-width="1.5" pointer-events="none"/>
                </g>
                <g id="zoomMin">
                        <use xlink:href="#rim" fill="#404040">
                                <set attributeName="fill" to="#808080" begin="zoomminus.mouseover" end="zoomminus.mouseout"/>
                        </use>
                        <path d="M-4,0h8" fill="none" stroke="white" stroke-width="1.5" pointer-events="none"/>
                </g>
                <g id="dirArrow">
                        <path fill="none" stroke="white" stroke-width="1.5" d="M0,-3.0v7 M-2.5,-0.5L0,-3.0L2.5,-0.5"/>
                </g>
               <g id="resetDef">
                       <use xlink:href="#rim2" fill="#404040">
                               <set attributeName="fill" to="#808080" begin="reset.mouseover" end="reset.mouseout"/>
                       </use>
               </g>
        </defs>

<script type="text/javascript">
var viewWidth = 1106;
var viewHeight = 295;
var sectionId = 'dynsection-0';
</script>
<script xlink:href="svgpan.js"/>
<svg id="graph" class="graph">
<g id="viewport">
<title>/home/travis/build/hypro/hypro/src/hypro/representations/conversion</title>
<polygon fill="white" stroke="none" points="-4,4 -4,-291 1101.5,-291 1101.5,4 -4,4"/>
<g id="clust1" class="cluster"><title>clusterdir_7fa927d8fbf9dfbeef69af27f63bc81b</title>
<g id="a_clust1"><a xlink:href="dir_7fa927d8fbf9dfbeef69af27f63bc81b.html" target="_top" xlink:title="representations">
<polygon fill="#ddddee" stroke="black" points="461.5,-208 461.5,-279 553.5,-279 553.5,-208 461.5,-208"/>
<text text-anchor="middle" x="507.5" y="-267" font-family="Helvetica,sans-Serif" font-size="10.00">representations</text>
</a>
</g>
</g>
<!-- dir_9daea738ba0665232cd58b81f5fd3268 -->
<g id="node1" class="node"><title>dir_9daea738ba0665232cd58b81f5fd3268</title>
<g id="a_node1"><a xlink:href="dir_9daea738ba0665232cd58b81f5fd3268.html" target="_top" xlink:title="conversion">
<polygon fill="#eeeeff" stroke="black" points="541.5,-252 473.5,-252 473.5,-216 541.5,-216 541.5,-252"/>
<text text-anchor="middle" x="507.5" y="-231.5" font-family="Helvetica,sans-Serif" font-size="10.00">conversion</text>
</a>
</g>
</g>
<!-- dir_c69b7163a8becb19bca702fdae1c2050 -->
<g id="node2" class="node"><title>dir_c69b7163a8becb19bca702fdae1c2050</title>
<g id="a_node2"><a xlink:href="dir_c69b7163a8becb19bca702fdae1c2050.html" target="_top" xlink:title="ConstraintSet">
<polygon fill="none" stroke="black" points="83,-180 0,-180 0,-144 83,-144 83,-180"/>
<text text-anchor="middle" x="41.5" y="-159.5" font-family="Helvetica,sans-Serif" font-size="10.00">ConstraintSet</text>
</a>
</g>
</g>
<!-- dir_9daea738ba0665232cd58b81f5fd3268&#45;&gt;dir_c69b7163a8becb19bca702fdae1c2050 -->
<g id="edge1" class="edge"><title>dir_9daea738ba0665232cd58b81f5fd3268&#45;&gt;dir_c69b7163a8becb19bca702fdae1c2050</title>
<path fill="none" stroke="black" d="M473.427,-230.522C402.731,-224.959 235.211,-209.589 97.5,-180 96.041,-179.687 94.5651,-179.353 93.079,-179.003"/>
<polygon fill="black" stroke="black" points="93.7493,-175.562 83.1948,-176.486 92.0216,-182.345 93.7493,-175.562"/>
<g id="a_edge1&#45;headlabel"><a xlink:href="dir_000039_000038.html" target="_top" xlink:title="1">
<text text-anchor="middle" x="97.9335" y="-171.198" font-family="Helvetica,sans-Serif" font-size="10.00">1</text>
</a>
</g>
</g>
<!-- dir_879d833e0dfbe8f31a5e860bb94efb50 -->
<g id="node3" class="node"><title>dir_879d833e0dfbe8f31a5e860bb94efb50</title>
<g id="a_node3"><a xlink:href="dir_879d833e0dfbe8f31a5e860bb94efb50.html" target="_top" xlink:title="util">
<polygon fill="white" stroke="red" points="527.5,-36 473.5,-36 473.5,-0 527.5,-0 527.5,-36"/>
<text text-anchor="middle" x="500.5" y="-15.5" font-family="Helvetica,sans-Serif" font-size="10.00">util</text>
</a>
</g>
</g>
<!-- dir_9daea738ba0665232cd58b81f5fd3268&#45;&gt;dir_879d833e0dfbe8f31a5e860bb94efb50 -->
<g id="edge2" class="edge"><title>dir_9daea738ba0665232cd58b81f5fd3268&#45;&gt;dir_879d833e0dfbe8f31a5e860bb94efb50</title>
<path fill="none" stroke="black" d="M473.25,-233.621C388.912,-234.343 174.837,-231.006 130.5,-180 32.9963,-67.8301 351.219,-31.0034 463.079,-21.6792"/>
<polygon fill="black" stroke="black" points="463.553,-25.1525 473.24,-20.8612 462.991,-18.1751 463.553,-25.1525"/>
<g id="a_edge2&#45;headlabel"><a xlink:href="dir_000039_000028.html" target="_top" xlink:title="2">
<text text-anchor="middle" x="460.198" y="-25.7711" font-family="Helvetica,sans-Serif" font-size="10.00">2</text>
</a>
</g>
</g>
<!-- dir_97de49a5bc6f4f4b12a8405ff97bd656 -->
<g id="node4" class="node"><title>dir_97de49a5bc6f4f4b12a8405ff97bd656</title>
<g id="a_node4"><a xlink:href="dir_97de49a5bc6f4f4b12a8405ff97bd656.html" target="_top" xlink:title="Zonotope">
<polygon fill="none" stroke="black" points="203.5,-180 139.5,-180 139.5,-144 203.5,-144 203.5,-180"/>
<text text-anchor="middle" x="171.5" y="-159.5" font-family="Helvetica,sans-Serif" font-size="10.00">Zonotope</text>
</a>
</g>
</g>
<!-- dir_9daea738ba0665232cd58b81f5fd3268&#45;&gt;dir_97de49a5bc6f4f4b12a8405ff97bd656 -->
<g id="edge3" class="edge"><title>dir_9daea738ba0665232cd58b81f5fd3268&#45;&gt;dir_97de49a5bc6f4f4b12a8405ff97bd656</title>
<path fill="none" stroke="black" d="M473.328,-229.286C419.585,-222.924 312.09,-208.1 213.738,-180.041"/>
<polygon fill="black" stroke="black" points="214.525,-176.625 203.946,-177.194 212.571,-183.347 214.525,-176.625"/>
<g id="a_edge3&#45;headlabel"><a xlink:href="dir_000039_000049.html" target="_top" xlink:title="1">
<text text-anchor="middle" x="218.77" y="-172.402" font-family="Helvetica,sans-Serif" font-size="10.00">1</text>
</a>
</g>
</g>
<!-- dir_cf451874352f123b92a8eb670c7ebe66 -->
<g id="node5" class="node"><title>dir_cf451874352f123b92a8eb670c7ebe66</title>
<g id="a_node5"><a xlink:href="dir_cf451874352f123b92a8eb670c7ebe66.html" target="_top" xlink:title="DifferenceBounds">
<polygon fill="none" stroke="black" points="323,-180 222,-180 222,-144 323,-144 323,-180"/>
<text text-anchor="middle" x="272.5" y="-159.5" font-family="Helvetica,sans-Serif" font-size="10.00">DifferenceBounds</text>
</a>
</g>
</g>
<!-- dir_9daea738ba0665232cd58b81f5fd3268&#45;&gt;dir_cf451874352f123b92a8eb670c7ebe66 -->
<g id="edge4" class="edge"><title>dir_9daea738ba0665232cd58b81f5fd3268&#45;&gt;dir_cf451874352f123b92a8eb670c7ebe66</title>
<path fill="none" stroke="black" d="M473.329,-222.821C436.641,-211.893 377.623,-194.313 333.039,-181.033"/>
<polygon fill="black" stroke="black" points="333.769,-177.599 323.186,-178.098 331.771,-184.307 333.769,-177.599"/>
<g id="a_edge4&#45;headlabel"><a xlink:href="dir_000039_000040.html" target="_top" xlink:title="1">
<text text-anchor="middle" x="338.025" y="-173.404" font-family="Helvetica,sans-Serif" font-size="10.00">1</text>
</a>
</g>
</g>
<!-- dir_ad938787f25f17484dcf7b42a899a1a5 -->
<g id="node6" class="node"><title>dir_ad938787f25f17484dcf7b42a899a1a5</title>
<g id="a_node6"><a xlink:href="dir_ad938787f25f17484dcf7b42a899a1a5.html" target="_top" xlink:title="Polytopes">
<polygon fill="white" stroke="red" points="404,-180 341,-180 341,-144 404,-144 404,-180"/>
<text text-anchor="middle" x="372.5" y="-159.5" font-family="Helvetica,sans-Serif" font-size="10.00">Polytopes</text>
</a>
</g>
</g>
<!-- dir_9daea738ba0665232cd58b81f5fd3268&#45;&gt;dir_ad938787f25f17484dcf7b42a899a1a5 -->
<g id="edge5" class="edge"><title>dir_9daea738ba0665232cd58b81f5fd3268&#45;&gt;dir_ad938787f25f17484dcf7b42a899a1a5</title>
<path fill="none" stroke="black" d="M474.475,-215.876C456.011,-206.302 432.842,-194.289 413.257,-184.133"/>
<polygon fill="black" stroke="black" points="414.743,-180.961 404.254,-179.465 411.521,-187.175 414.743,-180.961"/>
<g id="a_edge5&#45;headlabel"><a xlink:href="dir_000039_000017.html" target="_top" xlink:title="3">
<text text-anchor="middle" x="419.241" y="-177.595" font-family="Helvetica,sans-Serif" font-size="10.00">3</text>
</a>
</g>
</g>
<!-- dir_d2e0e2e7c131de54c32d81549b14c3d5 -->
<g id="node7" class="node"><title>dir_d2e0e2e7c131de54c32d81549b14c3d5</title>
<g id="a_node7"><a xlink:href="dir_d2e0e2e7c131de54c32d81549b14c3d5.html" target="_top" xlink:title="Ellipsoids">
<polygon fill="none" stroke="black" points="482.5,-180 422.5,-180 422.5,-144 482.5,-144 482.5,-180"/>
<text text-anchor="middle" x="452.5" y="-159.5" font-family="Helvetica,sans-Serif" font-size="10.00">Ellipsoids</text>
</a>
</g>
</g>
<!-- dir_9daea738ba0665232cd58b81f5fd3268&#45;&gt;dir_d2e0e2e7c131de54c32d81549b14c3d5 -->
<g id="edge6" class="edge"><title>dir_9daea738ba0665232cd58b81f5fd3268&#45;&gt;dir_d2e0e2e7c131de54c32d81549b14c3d5</title>
<path fill="none" stroke="black" d="M493.904,-215.697C487.377,-207.389 479.432,-197.277 472.253,-188.141"/>
<polygon fill="black" stroke="black" points="474.869,-185.805 465.939,-180.104 469.365,-190.13 474.869,-185.805"/>
<g id="a_edge6&#45;headlabel"><a xlink:href="dir_000039_000041.html" target="_top" xlink:title="1">
<text text-anchor="middle" x="479.323" y="-184.377" font-family="Helvetica,sans-Serif" font-size="10.00">1</text>
</a>
</g>
</g>
<!-- dir_c3a99445e85233736dff89b095acd8fe -->
<g id="node8" class="node"><title>dir_c3a99445e85233736dff89b095acd8fe</title>
<g id="a_node8"><a xlink:href="dir_c3a99445e85233736dff89b095acd8fe.html" target="_top" xlink:title="OrthogonalPolyhedron">
<polygon fill="white" stroke="red" points="624,-180 501,-180 501,-144 624,-144 624,-180"/>
<text text-anchor="middle" x="562.5" y="-159.5" font-family="Helvetica,sans-Serif" font-size="10.00">OrthogonalPolyhedron</text>
</a>
</g>
</g>
<!-- dir_9daea738ba0665232cd58b81f5fd3268&#45;&gt;dir_c3a99445e85233736dff89b095acd8fe -->
<g id="edge7" class="edge"><title>dir_9daea738ba0665232cd58b81f5fd3268&#45;&gt;dir_c3a99445e85233736dff89b095acd8fe</title>
<path fill="none" stroke="black" d="M521.096,-215.697C527.623,-207.389 535.568,-197.277 542.747,-188.141"/>
<polygon fill="black" stroke="black" points="545.635,-190.13 549.061,-180.104 540.131,-185.805 545.635,-190.13"/>
<g id="a_edge7&#45;headlabel"><a xlink:href="dir_000039_000044.html" target="_top" xlink:title="1">
<text text-anchor="middle" x="545.647" y="-192.211" font-family="Helvetica,sans-Serif" font-size="10.00">1</text>
</a>
</g>
</g>
<!-- dir_dbbb4b37ecf24276c0f25796d6496cf7 -->
<g id="node9" class="node"><title>dir_dbbb4b37ecf24276c0f25796d6496cf7</title>
<g id="a_node9"><a xlink:href="dir_dbbb4b37ecf24276c0f25796d6496cf7.html" target="_top" xlink:title="Polytope">
<polygon fill="none" stroke="black" points="700.5,-180 642.5,-180 642.5,-144 700.5,-144 700.5,-180"/>
<text text-anchor="middle" x="671.5" y="-159.5" font-family="Helvetica,sans-Serif" font-size="10.00">Polytope</text>
</a>
</g>
</g>
<!-- dir_9daea738ba0665232cd58b81f5fd3268&#45;&gt;dir_dbbb4b37ecf24276c0f25796d6496cf7 -->
<g id="edge8" class="edge"><title>dir_9daea738ba0665232cd58b81f5fd3268&#45;&gt;dir_dbbb4b37ecf24276c0f25796d6496cf7</title>
<path fill="none" stroke="black" d="M541.76,-218.583C566.901,-207.977 601.858,-193.174 632.5,-180 632.598,-179.958 632.695,-179.916 632.793,-179.874"/>
<polygon fill="black" stroke="black" points="634.335,-183.021 642.126,-175.841 631.558,-176.595 634.335,-183.021"/>
<g id="a_edge8&#45;headlabel"><a xlink:href="dir_000039_000016.html" target="_top" xlink:title="1">
<text text-anchor="middle" x="632.161" y="-184.553" font-family="Helvetica,sans-Serif" font-size="10.00">1</text>
</a>
</g>
</g>
<!-- dir_2a022a7dd5883d249fd19381a9acb7ca -->
<g id="node10" class="node"><title>dir_2a022a7dd5883d249fd19381a9acb7ca</title>
<g id="a_node10"><a xlink:href="dir_2a022a7dd5883d249fd19381a9acb7ca.html" target="_top" xlink:title="Box">
<polygon fill="none" stroke="black" points="589.5,-108 535.5,-108 535.5,-72 589.5,-72 589.5,-108"/>
<text text-anchor="middle" x="562.5" y="-87.5" font-family="Helvetica,sans-Serif" font-size="10.00">Box</text>
</a>
</g>
</g>
<!-- dir_9daea738ba0665232cd58b81f5fd3268&#45;&gt;dir_2a022a7dd5883d249fd19381a9acb7ca -->
<g id="edge9" class="edge"><title>dir_9daea738ba0665232cd58b81f5fd3268&#45;&gt;dir_2a022a7dd5883d249fd19381a9acb7ca</title>
<path fill="none" stroke="black" d="M541.613,-229.048C593.686,-222.236 689.125,-206.41 709.5,-180 719.273,-167.332 718.697,-157.093 709.5,-144 684.91,-108.995 634.839,-97.0046 600.008,-92.9581"/>
<polygon fill="black" stroke="black" points="600.029,-89.4431 589.733,-91.9406 599.339,-96.409 600.029,-89.4431"/>
<g id="a_edge9&#45;headlabel"><a xlink:href="dir_000039_000037.html" target="_top" xlink:title="1">
<text text-anchor="middle" x="603.886" y="-84.4718" font-family="Helvetica,sans-Serif" font-size="10.00">1</text>
</a>
</g>
</g>
<!-- dir_ed1721d58ff6a73f1e36256aaa069f62 -->
<g id="node11" class="node"><title>dir_ed1721d58ff6a73f1e36256aaa069f62</title>
<g id="a_node11"><a xlink:href="dir_ed1721d58ff6a73f1e36256aaa069f62.html" target="_top" xlink:title="SupportFunctionNew">
<polygon fill="none" stroke="black" points="872,-180 757,-180 757,-144 872,-144 872,-180"/>
<text text-anchor="middle" x="814.5" y="-159.5" font-family="Helvetica,sans-Serif" font-size="10.00">SupportFunctionNew</text>
</a>
</g>
</g>
<!-- dir_9daea738ba0665232cd58b81f5fd3268&#45;&gt;dir_ed1721d58ff6a73f1e36256aaa069f62 -->
<g id="edge10" class="edge"><title>dir_9daea738ba0665232cd58b81f5fd3268&#45;&gt;dir_ed1721d58ff6a73f1e36256aaa069f62</title>
<path fill="none" stroke="black" d="M541.773,-225.384C587.555,-215.184 671.184,-196.461 742.5,-180 743.947,-179.666 745.41,-179.328 746.885,-178.986"/>
<polygon fill="black" stroke="black" points="747.797,-182.367 756.743,-176.691 746.21,-175.549 747.797,-182.367"/>
<g id="a_edge10&#45;headlabel"><a xlink:href="dir_000039_000047.html" target="_top" xlink:title="1">
<text text-anchor="middle" x="744.94" y="-183.447" font-family="Helvetica,sans-Serif" font-size="10.00">1</text>
</a>
</g>
</g>
<!-- dir_5cc8785239517cfd59e944398d6252f9 -->
<g id="node12" class="node"><title>dir_5cc8785239517cfd59e944398d6252f9</title>
<g id="a_node12"><a xlink:href="dir_5cc8785239517cfd59e944398d6252f9.html" target="_top" xlink:title="SupportFunction">
<polygon fill="none" stroke="black" points="985,-180 890,-180 890,-144 985,-144 985,-180"/>
<text text-anchor="middle" x="937.5" y="-159.5" font-family="Helvetica,sans-Serif" font-size="10.00">SupportFunction</text>
</a>
</g>
</g>
<!-- dir_9daea738ba0665232cd58b81f5fd3268&#45;&gt;dir_5cc8785239517cfd59e944398d6252f9 -->
<g id="edge11" class="edge"><title>dir_9daea738ba0665232cd58b81f5fd3268&#45;&gt;dir_5cc8785239517cfd59e944398d6252f9</title>
<path fill="none" stroke="black" d="M541.593,-229.943C606.037,-223.784 750.195,-208.197 879.869,-180.186"/>
<polygon fill="black" stroke="black" points="880.954,-183.532 889.973,-177.972 879.456,-176.694 880.954,-183.532"/>
<g id="a_edge11&#45;headlabel"><a xlink:href="dir_000039_000020.html" target="_top" xlink:title="1">
<text text-anchor="middle" x="878.051" y="-184.575" font-family="Helvetica,sans-Serif" font-size="10.00">1</text>
</a>
</g>
</g>
<!-- dir_7a672da45aa9da1947d7ca7dad2e8885 -->
<g id="node13" class="node"><title>dir_7a672da45aa9da1947d7ca7dad2e8885</title>
<g id="a_node13"><a xlink:href="dir_7a672da45aa9da1947d7ca7dad2e8885.html" target="_top" xlink:title="GeneralizedStar">
<polygon fill="none" stroke="black" points="1097.5,-180 1003.5,-180 1003.5,-144 1097.5,-144 1097.5,-180"/>
<text text-anchor="middle" x="1050.5" y="-159.5" font-family="Helvetica,sans-Serif" font-size="10.00">GeneralizedStar</text>
</a>
</g>
</g>
<!-- dir_9daea738ba0665232cd58b81f5fd3268&#45;&gt;dir_7a672da45aa9da1947d7ca7dad2e8885 -->
<g id="edge12" class="edge"><title>dir_9daea738ba0665232cd58b81f5fd3268&#45;&gt;dir_7a672da45aa9da1947d7ca7dad2e8885</title>
<path fill="none" stroke="black" d="M541.787,-231.466C620.319,-227.487 819.242,-214.751 993.45,-179.998"/>
<polygon fill="black" stroke="black" points="994.196,-183.418 1003.3,-178.003 992.807,-176.557 994.196,-183.418"/>
<g id="a_edge12&#45;headlabel"><a xlink:href="dir_000039_000042.html" target="_top" xlink:title="1">
<text text-anchor="middle" x="991.236" y="-184.414" font-family="Helvetica,sans-Serif" font-size="10.00">1</text>
</a>
</g>
</g>
<!-- dir_c69b7163a8becb19bca702fdae1c2050&#45;&gt;dir_879d833e0dfbe8f31a5e860bb94efb50 -->
<g id="edge13" class="edge"><title>dir_c69b7163a8becb19bca702fdae1c2050&#45;&gt;dir_879d833e0dfbe8f31a5e860bb94efb50</title>
<path fill="none" stroke="black" d="M47.229,-143.651C55.0608,-122.896 71.2178,-88.8449 97.5,-72 157.732,-33.3962 375.355,-22.6957 463.272,-19.9145"/>
<polygon fill="black" stroke="black" points="463.44,-23.4112 473.331,-19.6133 463.231,-16.4143 463.44,-23.4112"/>
<g id="a_edge13&#45;headlabel"><a xlink:href="dir_000038_000028.html" target="_top" xlink:title="1">
<text text-anchor="middle" x="459.932" y="-23.8567" font-family="Helvetica,sans-Serif" font-size="10.00">1</text>
</a>
</g>
</g>
<!-- dir_97de49a5bc6f4f4b12a8405ff97bd656&#45;&gt;dir_879d833e0dfbe8f31a5e860bb94efb50 -->
<g id="edge14" class="edge"><title>dir_97de49a5bc6f4f4b12a8405ff97bd656&#45;&gt;dir_879d833e0dfbe8f31a5e860bb94efb50</title>
<path fill="none" stroke="black" d="M203.645,-147.126C265.163,-120.574 399.176,-62.7324 463.972,-34.7659"/>
<polygon fill="black" stroke="black" points="465.59,-37.8797 473.384,-30.7035 462.816,-31.4528 465.59,-37.8797"/>
<g id="a_edge14&#45;headlabel"><a xlink:href="dir_000049_000028.html" target="_top" xlink:title="2">
<text text-anchor="middle" x="463.415" y="-39.411" font-family="Helvetica,sans-Serif" font-size="10.00">2</text>
</a>
</g>
</g>
<!-- dir_ad938787f25f17484dcf7b42a899a1a5&#45;&gt;dir_879d833e0dfbe8f31a5e860bb94efb50 -->
<g id="edge15" class="edge"><title>dir_ad938787f25f17484dcf7b42a899a1a5&#45;&gt;dir_879d833e0dfbe8f31a5e860bb94efb50</title>
<path fill="none" stroke="black" d="M387.94,-143.871C410.428,-118.924 452.32,-72.4495 478.169,-43.7729"/>
<polygon fill="black" stroke="black" points="480.91,-45.9604 485.005,-36.1893 475.71,-41.2736 480.91,-45.9604"/>
<g id="a_edge15&#45;headlabel"><a xlink:href="dir_000017_000028.html" target="_top" xlink:title="14">
<text text-anchor="middle" x="480.612" y="-48.0314" font-family="Helvetica,sans-Serif" font-size="10.00">14</text>
</a>
</g>
</g>
<!-- dir_c3a99445e85233736dff89b095acd8fe&#45;&gt;dir_2a022a7dd5883d249fd19381a9acb7ca -->
<g id="edge16" class="edge"><title>dir_c3a99445e85233736dff89b095acd8fe&#45;&gt;dir_2a022a7dd5883d249fd19381a9acb7ca</title>
<path fill="none" stroke="black" d="M562.5,-143.697C562.5,-135.983 562.5,-126.712 562.5,-118.112"/>
<polygon fill="black" stroke="black" points="566,-118.104 562.5,-108.104 559,-118.104 566,-118.104"/>
<g id="a_edge16&#45;headlabel"><a xlink:href="dir_000044_000037.html" target="_top" xlink:title="1">
<text text-anchor="middle" x="568.839" y="-119.199" font-family="Helvetica,sans-Serif" font-size="10.00">1</text>
</a>
</g>
</g>
<!-- dir_2a022a7dd5883d249fd19381a9acb7ca&#45;&gt;dir_879d833e0dfbe8f31a5e860bb94efb50 -->
<g id="edge17" class="edge"><title>dir_2a022a7dd5883d249fd19381a9acb7ca&#45;&gt;dir_879d833e0dfbe8f31a5e860bb94efb50</title>
<path fill="none" stroke="black" d="M547.174,-71.6966C539.741,-63.3046 530.677,-53.0705 522.52,-43.8613"/>
<polygon fill="black" stroke="black" points="524.9,-41.2696 515.65,-36.1043 519.66,-45.9109 524.9,-41.2696"/>
<g id="a_edge17&#45;headlabel"><a xlink:href="dir_000037_000028.html" target="_top" xlink:title="4">
<text text-anchor="middle" x="529.409" y="-39.5779" font-family="Helvetica,sans-Serif" font-size="10.00">4</text>
</a>
</g>
</g>
<!-- dir_ed1721d58ff6a73f1e36256aaa069f62&#45;&gt;dir_879d833e0dfbe8f31a5e860bb94efb50 -->
<g id="edge18" class="edge"><title>dir_ed1721d58ff6a73f1e36256aaa069f62&#45;&gt;dir_879d833e0dfbe8f31a5e860bb94efb50</title>
<path fill="none" stroke="black" d="M776.624,-143.871C715.901,-116.411 597.502,-62.8669 537.402,-35.688"/>
<polygon fill="black" stroke="black" points="538.48,-32.3345 527.926,-31.403 535.596,-38.7126 538.48,-32.3345"/>
<g id="a_edge18&#45;headlabel"><a xlink:href="dir_000047_000028.html" target="_top" xlink:title="4">
<text text-anchor="middle" x="542.925" y="-28.7286" font-family="Helvetica,sans-Serif" font-size="10.00">4</text>
</a>
</g>
</g>
<!-- dir_5cc8785239517cfd59e944398d6252f9&#45;&gt;dir_879d833e0dfbe8f31a5e860bb94efb50 -->
<g id="edge19" class="edge"><title>dir_5cc8785239517cfd59e944398d6252f9&#45;&gt;dir_879d833e0dfbe8f31a5e860bb94efb50</title>
<path fill="none" stroke="black" d="M889.746,-144.56C836.778,-126.419 748.725,-96.5399 672.5,-72 626.073,-57.0534 572.317,-40.6296 537.43,-30.0868"/>
<polygon fill="black" stroke="black" points="538.26,-26.6815 527.675,-27.1437 536.238,-33.3831 538.26,-26.6815"/>
<g id="a_edge19&#45;headlabel"><a xlink:href="dir_000020_000028.html" target="_top" xlink:title="12">
<text text-anchor="middle" x="542.521" y="-22.5015" font-family="Helvetica,sans-Serif" font-size="10.00">12</text>
</a>
</g>
</g>
<!-- dir_7a672da45aa9da1947d7ca7dad2e8885&#45;&gt;dir_879d833e0dfbe8f31a5e860bb94efb50 -->
<g id="edge20" class="edge"><title>dir_7a672da45aa9da1947d7ca7dad2e8885&#45;&gt;dir_879d833e0dfbe8f31a5e860bb94efb50</title>
<path fill="none" stroke="black" d="M1003.47,-146.646C1000.43,-145.744 997.426,-144.855 994.5,-144 881.057,-110.832 853.115,-100.856 738.5,-72 667.896,-54.2243 584.735,-36.4108 537.758,-26.6337"/>
<polygon fill="black" stroke="black" points="538.244,-23.1601 527.741,-24.5568 536.822,-30.0143 538.244,-23.1601"/>
<g id="a_edge20&#45;headlabel"><a xlink:href="dir_000042_000028.html" target="_top" xlink:title="2">
<text text-anchor="middle" x="542.34" y="-18.6097" font-family="Helvetica,sans-Serif" font-size="10.00">2</text>
</a>
</g>
</g>
</g>
</svg>
        <g id="navigator" transform="translate(0 0)" fill="#404254">
                <rect fill="#f2f5e9" fill-opacity="0.5" stroke="#606060" stroke-width=".5" x="0" y="0" width="60" height="60"/>
                <use id="zoomplus" xlink:href="#zoomPlus" x="17" y="9" onmousedown="handleZoom(evt,'in')"/>
                <use id="zoomminus" xlink:href="#zoomMin" x="42" y="9" onmousedown="handleZoom(evt,'out')"/>
                <use id="reset" xlink:href="#resetDef" x="30" y="36" onmousedown="handleReset()"/>
                <g id="arrowUp" xlink:href="#dirArrow" transform="translate(30 24)" onmousedown="handlePan(0,-1)">
                  <use xlink:href="#rim" fill="#404040">
                        <set attributeName="fill" to="#808080" begin="arrowUp.mouseover" end="arrowUp.mouseout"/>
                  </use>
                  <path fill="none" stroke="white" stroke-width="1.5" d="M0,-3.0v7 M-2.5,-0.5L0,-3.0L2.5,-0.5"/>
                </g>
                <g id="arrowRight" xlink:href="#dirArrow" transform="rotate(90) translate(36 -43)" onmousedown="handlePan(1,0)">
                  <use xlink:href="#rim" fill="#404040">
                        <set attributeName="fill" to="#808080" begin="arrowRight.mouseover" end="arrowRight.mouseout"/>
                  </use>
                  <path fill="none" stroke="white" stroke-width="1.5" d="M0,-3.0v7 M-2.5,-0.5L0,-3.0L2.5,-0.5"/>
                </g>
                <g id="arrowDown" xlink:href="#dirArrow" transform="rotate(180) translate(-30 -48)" onmousedown="handlePan(0,1)">
                  <use xlink:href="#rim" fill="#404040">
                        <set attributeName="fill" to="#808080" begin="arrowDown.mouseover" end="arrowDown.mouseout"/>
                  </use>
                  <path fill="none" stroke="white" stroke-width="1.5" d="M0,-3.0v7 M-2.5,-0.5L0,-3.0L2.5,-0.5"/>
                </g>
                <g id="arrowLeft" xlink:href="#dirArrow" transform="rotate(270) translate(-36 17)" onmousedown="handlePan(-1,0)">
                  <use xlink:href="#rim" fill="#404040">
                        <set attributeName="fill" to="#808080" begin="arrowLeft.mouseover" end="arrowLeft.mouseout"/>
                  </use>
                  <path fill="none" stroke="white" stroke-width="1.5" d="M0,-3.0v7 M-2.5,-0.5L0,-3.0L2.5,-0.5"/>
                </g>
        </g>
        <svg viewBox="0 0 15 15" width="100%" height="30px" preserveAspectRatio="xMaxYMin meet">
         <g id="arrow_out" transform="scale(0.3 0.3)">
          <a xlink:href="dir_9daea738ba0665232cd58b81f5fd3268_dep_org.svg" target="_base">
           <rect id="button" ry="5" rx="5" y="6" x="6" height="38" width="38"
                fill="#f2f5e9" fill-opacity="0.5" stroke="#606060" stroke-width="1.0"/>
           <path id="arrow"
             d="M 11.500037,31.436501 C 11.940474,20.09759 22.043105,11.32322 32.158766,21.979434 L 37.068811,17.246167 C 37.068811,17.246167 37.088388,32 37.088388,32 L 22.160133,31.978069 C 22.160133,31.978069 26.997745,27.140456 26.997745,27.140456 C 18.528582,18.264221 13.291696,25.230495 11.500037,31.436501 z"
             style="fill:#404040;"/>
          </a>
         </g>
        </svg>
</svg>
