<?xml version="1.0" encoding="UTF-8" standalone="no"?>
<!DOCTYPE svg PUBLIC "-//W3C//DTD SVG 1.1//EN"
 "http://www.w3.org/Graphics/SVG/1.1/DTD/svg11.dtd">
<!-- Generated by graphviz version 2.38.0 (20140413.2041)
 -->
<!-- Title: /home/travis/build/hypro/hypro/src/hypro/representations Pages: 1 -->
<svg width="1157pt" height="447pt"
 viewBox="0.00 0.00 1157.00 447.00" xmlns="http://www.w3.org/2000/svg" xmlns:xlink="http://www.w3.org/1999/xlink">
<g id="graph0" class="graph" transform="scale(1 1) rotate(0) translate(4 443)">
<title>/home/travis/build/hypro/hypro/src/hypro/representations</title>
<polygon fill="white" stroke="none" points="-4,4 -4,-443 1153,-443 1153,4 -4,4"/>
<g id="clust1" class="cluster"><title>clusterdir_2ce0cb9797b50c8d842bc50008b46cdd</title>
<g id="a_clust1"><a xlink:href="dir_2ce0cb9797b50c8d842bc50008b46cdd.html" target="_top" xlink:title="hypro">
<polygon fill="#ddddee" stroke="black" points="8,-56 8,-431 793,-431 793,-56 8,-56"/>
<text text-anchor="middle" x="400.5" y="-419" font-family="Helvetica,sans-Serif" font-size="10.00">hypro</text>
</a>
</g>
</g>
<g id="clust2" class="cluster"><title>clusterdir_7fa927d8fbf9dfbeef69af27f63bc81b</title>
<g id="a_clust2"><a xlink:href="dir_7fa927d8fbf9dfbeef69af27f63bc81b.html" target="_top">
<polygon fill="#eeeeff" stroke="black" points="16,-64 16,-404 785,-404 785,-64 16,-64"/>
</a>
</g>
</g>
<!-- dir_7fa927d8fbf9dfbeef69af27f63bc81b -->
<g id="node1" class="node"><title>dir_7fa927d8fbf9dfbeef69af27f63bc81b</title>
<text text-anchor="middle" x="598" y="-375.5" font-family="Helvetica,sans-Serif" font-size="10.00">representations</text>
</g>
<!-- dir_9daea738ba0665232cd58b81f5fd3268 -->
<g id="node4" class="node"><title>dir_9daea738ba0665232cd58b81f5fd3268</title>
<g id="a_node4"><a xlink:href="dir_9daea738ba0665232cd58b81f5fd3268.html" target="_top" xlink:title="conversion">
<polygon fill="white" stroke="black" points="444,-324 376,-324 376,-288 444,-288 444,-324"/>
<text text-anchor="middle" x="410" y="-303.5" font-family="Helvetica,sans-Serif" font-size="10.00">conversion</text>
</a>
</g>
</g>
<!-- dir_7fa927d8fbf9dfbeef69af27f63bc81b&#45;&gt;dir_9daea738ba0665232cd58b81f5fd3268 -->
<g id="edge44" class="edge"><title>dir_7fa927d8fbf9dfbeef69af27f63bc81b&#45;&gt;dir_9daea738ba0665232cd58b81f5fd3268</title>
<path fill="none" stroke="black" d="M552.01,-359.876C522.027,-348.712 483.136,-334.231 453.635,-323.247"/>
<polygon fill="black" stroke="black" points="454.61,-319.875 444.017,-319.666 452.167,-326.435 454.61,-319.875"/>
<g id="a_edge44&#45;headlabel"><a xlink:href="dir_000015_000039.html" target="_top" xlink:title="1">
<text text-anchor="middle" x="458.969" y="-315.969" font-family="Helvetica,sans-Serif" font-size="10.00">1</text>
</a>
</g>
</g>
<!-- dir_2a022a7dd5883d249fd19381a9acb7ca -->
<g id="node2" class="node"><title>dir_2a022a7dd5883d249fd19381a9acb7ca</title>
<g id="a_node2"><a xlink:href="dir_2a022a7dd5883d249fd19381a9acb7ca.html" target="_top" xlink:title="Box">
<polygon fill="white" stroke="black" points="589,-180 535,-180 535,-144 589,-144 589,-180"/>
<text text-anchor="middle" x="562" y="-159.5" font-family="Helvetica,sans-Serif" font-size="10.00">Box</text>
</a>
</g>
</g>
<!-- dir_347b12423904bd932c4239ca1a522dfa -->
<g id="node8" class="node"><title>dir_347b12423904bd932c4239ca1a522dfa</title>
<g id="a_node8"><a xlink:href="dir_347b12423904bd932c4239ca1a522dfa.html" target="_top" xlink:title="helperMethods">
<polygon fill="white" stroke="black" points="504,-108 416,-108 416,-72 504,-72 504,-108"/>
<text text-anchor="middle" x="460" y="-87.5" font-family="Helvetica,sans-Serif" font-size="10.00">helperMethods</text>
</a>
</g>
</g>
<!-- dir_2a022a7dd5883d249fd19381a9acb7ca&#45;&gt;dir_347b12423904bd932c4239ca1a522dfa -->
<g id="edge34" class="edge"><title>dir_2a022a7dd5883d249fd19381a9acb7ca&#45;&gt;dir_347b12423904bd932c4239ca1a522dfa</title>
<path fill="none" stroke="black" d="M537.048,-143.876C523.958,-134.893 507.74,-123.763 493.564,-114.034"/>
<polygon fill="black" stroke="black" points="495.274,-110.962 485.048,-108.19 491.313,-116.734 495.274,-110.962"/>
<g id="a_edge34&#45;headlabel"><a xlink:href="dir_000037_000043.html" target="_top" xlink:title="1">
<text text-anchor="middle" x="499.844" y="-108.155" font-family="Helvetica,sans-Serif" font-size="10.00">1</text>
</a>
</g>
</g>
<!-- dir_879d833e0dfbe8f31a5e860bb94efb50 -->
<g id="node16" class="node"><title>dir_879d833e0dfbe8f31a5e860bb94efb50</title>
<g id="a_node16"><a xlink:href="dir_879d833e0dfbe8f31a5e860bb94efb50.html" target="_top" xlink:title="util">
<polygon fill="white" stroke="red" points="855,-108 801,-108 801,-72 855,-72 855,-108"/>
<text text-anchor="middle" x="828" y="-87.5" font-family="Helvetica,sans-Serif" font-size="10.00">util</text>
</a>
</g>
</g>
<!-- dir_2a022a7dd5883d249fd19381a9acb7ca&#45;&gt;dir_879d833e0dfbe8f31a5e860bb94efb50 -->
<g id="edge35" class="edge"><title>dir_2a022a7dd5883d249fd19381a9acb7ca&#45;&gt;dir_879d833e0dfbe8f31a5e860bb94efb50</title>
<path fill="none" stroke="black" d="M589.224,-147.265C592.145,-146.057 595.107,-144.939 598,-144 680.167,-117.341 706.441,-133.419 789,-108 789.715,-107.78 790.434,-107.551 791.156,-107.313"/>
<polygon fill="black" stroke="black" points="792.407,-110.583 800.594,-103.858 790,-104.009 792.407,-110.583"/>
<g id="a_edge35&#45;headlabel"><a xlink:href="dir_000037_000028.html" target="_top" xlink:title="4">
<text text-anchor="middle" x="790.008" y="-111.985" font-family="Helvetica,sans-Serif" font-size="10.00">4</text>
</a>
</g>
</g>
<!-- dir_bce2075adec303dcb2f0c4fbfcbc8493 -->
<g id="node17" class="node"><title>dir_bce2075adec303dcb2f0c4fbfcbc8493</title>
<g id="a_node17"><a xlink:href="dir_bce2075adec303dcb2f0c4fbfcbc8493.html" target="_top" xlink:title="datastructures">
<polygon fill="white" stroke="red" points="898.5,-36 811.5,-36 811.5,-0 898.5,-0 898.5,-36"/>
<text text-anchor="middle" x="855" y="-15.5" font-family="Helvetica,sans-Serif" font-size="10.00">datastructures</text>
</a>
</g>
</g>
<!-- dir_2a022a7dd5883d249fd19381a9acb7ca&#45;&gt;dir_bce2075adec303dcb2f0c4fbfcbc8493 -->
<g id="edge36" class="edge"><title>dir_2a022a7dd5883d249fd19381a9acb7ca&#45;&gt;dir_bce2075adec303dcb2f0c4fbfcbc8493</title>
<path fill="none" stroke="black" d="M589.393,-147.404C608.804,-137.37 635.17,-122.918 657,-108 686.976,-87.5163 687.776,-72.7257 720,-56 745.325,-42.8548 775.818,-33.9844 801.411,-28.2327"/>
<polygon fill="black" stroke="black" points="802.278,-31.6264 811.32,-26.1044 800.808,-24.7825 802.278,-31.6264"/>
<g id="a_edge36&#45;headlabel"><a xlink:href="dir_000037_000024.html" target="_top" xlink:title="3">
<text text-anchor="middle" x="799.36" y="-32.6571" font-family="Helvetica,sans-Serif" font-size="10.00">3</text>
</a>
</g>
</g>
<!-- dir_c69b7163a8becb19bca702fdae1c2050 -->
<g id="node3" class="node"><title>dir_c69b7163a8becb19bca702fdae1c2050</title>
<g id="a_node3"><a xlink:href="dir_c69b7163a8becb19bca702fdae1c2050.html" target="_top" xlink:title="ConstraintSet">
<polygon fill="white" stroke="black" points="383.5,-180 300.5,-180 300.5,-144 383.5,-144 383.5,-180"/>
<text text-anchor="middle" x="342" y="-159.5" font-family="Helvetica,sans-Serif" font-size="10.00">ConstraintSet</text>
</a>
</g>
</g>
<!-- dir_c69b7163a8becb19bca702fdae1c2050&#45;&gt;dir_347b12423904bd932c4239ca1a522dfa -->
<g id="edge13" class="edge"><title>dir_c69b7163a8becb19bca702fdae1c2050&#45;&gt;dir_347b12423904bd932c4239ca1a522dfa</title>
<path fill="none" stroke="black" d="M370.866,-143.876C386.295,-134.724 405.481,-123.342 422.097,-113.485"/>
<polygon fill="black" stroke="black" points="424.208,-116.302 431.023,-108.19 420.637,-110.282 424.208,-116.302"/>
<g id="a_edge13&#45;headlabel"><a xlink:href="dir_000038_000043.html" target="_top" xlink:title="1">
<text text-anchor="middle" x="422.565" y="-118.078" font-family="Helvetica,sans-Serif" font-size="10.00">1</text>
</a>
</g>
</g>
<!-- dir_c69b7163a8becb19bca702fdae1c2050&#45;&gt;dir_879d833e0dfbe8f31a5e860bb94efb50 -->
<g id="edge14" class="edge"><title>dir_c69b7163a8becb19bca702fdae1c2050&#45;&gt;dir_879d833e0dfbe8f31a5e860bb94efb50</title>
<path fill="none" stroke="black" d="M383.535,-146.055C386.379,-145.286 389.22,-144.59 392,-144 565.31,-107.226 617.372,-151.961 789,-108 789.724,-107.814 790.453,-107.617 791.183,-107.409"/>
<polygon fill="black" stroke="black" points="792.334,-110.714 800.691,-104.201 790.097,-104.082 792.334,-110.714"/>
<g id="a_edge14&#45;headlabel"><a xlink:href="dir_000038_000028.html" target="_top" xlink:title="1">
<text text-anchor="middle" x="789.836" y="-112.054" font-family="Helvetica,sans-Serif" font-size="10.00">1</text>
</a>
</g>
</g>
<!-- dir_c69b7163a8becb19bca702fdae1c2050&#45;&gt;dir_bce2075adec303dcb2f0c4fbfcbc8493 -->
<g id="edge15" class="edge"><title>dir_c69b7163a8becb19bca702fdae1c2050&#45;&gt;dir_bce2075adec303dcb2f0c4fbfcbc8493</title>
<path fill="none" stroke="black" d="M383.702,-146.687C386.506,-145.766 389.292,-144.863 392,-144 445.459,-126.966 463.094,-133.64 513,-108 546.528,-90.7747 545.236,-70.5702 580,-56 618.826,-39.7275 732.818,-28.428 801.244,-22.8961"/>
<polygon fill="black" stroke="black" points="801.713,-26.3699 811.405,-22.0898 801.16,-19.3918 801.713,-26.3699"/>
<g id="a_edge15&#45;headlabel"><a xlink:href="dir_000038_000024.html" target="_top" xlink:title="2">
<text text-anchor="middle" x="798.354" y="-26.9845" font-family="Helvetica,sans-Serif" font-size="10.00">2</text>
</a>
</g>
</g>
<!-- dir_9daea738ba0665232cd58b81f5fd3268&#45;&gt;dir_2a022a7dd5883d249fd19381a9acb7ca -->
<g id="edge9" class="edge"><title>dir_9daea738ba0665232cd58b81f5fd3268&#45;&gt;dir_2a022a7dd5883d249fd19381a9acb7ca</title>
<path fill="none" stroke="black" d="M375.989,-297.835C323.54,-285.314 232.487,-256.834 268,-216 305.844,-172.485 469.656,-196.21 525,-180 525.102,-179.97 525.204,-179.94 525.306,-179.91"/>
<polygon fill="black" stroke="black" points="526.595,-183.166 534.864,-176.542 524.269,-176.564 526.595,-183.166"/>
<g id="a_edge9&#45;headlabel"><a xlink:href="dir_000039_000037.html" target="_top" xlink:title="1">
<text text-anchor="middle" x="524.148" y="-184.539" font-family="Helvetica,sans-Serif" font-size="10.00">1</text>
</a>
</g>
</g>
<!-- dir_9daea738ba0665232cd58b81f5fd3268&#45;&gt;dir_c69b7163a8becb19bca702fdae1c2050 -->
<g id="edge1" class="edge"><title>dir_9daea738ba0665232cd58b81f5fd3268&#45;&gt;dir_c69b7163a8becb19bca702fdae1c2050</title>
<path fill="none" stroke="black" d="M375.655,-305.624C335.011,-304.274 268.845,-295.062 237,-252 227.487,-239.136 228.614,-229.626 237,-216 248.918,-196.633 270.337,-184.087 290.736,-176.091"/>
<polygon fill="black" stroke="black" points="292.097,-179.321 300.309,-172.626 289.714,-172.739 292.097,-179.321"/>
<g id="a_edge1&#45;headlabel"><a xlink:href="dir_000039_000038.html" target="_top" xlink:title="1">
<text text-anchor="middle" x="289.683" y="-180.714" font-family="Helvetica,sans-Serif" font-size="10.00">1</text>
</a>
</g>
</g>
<!-- dir_cf451874352f123b92a8eb670c7ebe66 -->
<g id="node5" class="node"><title>dir_cf451874352f123b92a8eb670c7ebe66</title>
<g id="a_node5"><a xlink:href="dir_cf451874352f123b92a8eb670c7ebe66.html" target="_top" xlink:title="DifferenceBounds">
<polygon fill="white" stroke="black" points="617.5,-252 516.5,-252 516.5,-216 617.5,-216 617.5,-252"/>
<text text-anchor="middle" x="567" y="-231.5" font-family="Helvetica,sans-Serif" font-size="10.00">DifferenceBounds</text>
</a>
</g>
</g>
<!-- dir_9daea738ba0665232cd58b81f5fd3268&#45;&gt;dir_cf451874352f123b92a8eb670c7ebe66 -->
<g id="edge4" class="edge"><title>dir_9daea738ba0665232cd58b81f5fd3268&#45;&gt;dir_cf451874352f123b92a8eb670c7ebe66</title>
<path fill="none" stroke="black" d="M444.067,-289.811C466.121,-279.978 495.151,-267.035 519.463,-256.195"/>
<polygon fill="black" stroke="black" points="521.16,-259.27 528.868,-252.002 518.309,-252.877 521.16,-259.27"/>
<g id="a_edge4&#45;headlabel"><a xlink:href="dir_000039_000040.html" target="_top" xlink:title="1">
<text text-anchor="middle" x="519.033" y="-260.827" font-family="Helvetica,sans-Serif" font-size="10.00">1</text>
</a>
</g>
</g>
<!-- dir_d2e0e2e7c131de54c32d81549b14c3d5 -->
<g id="node6" class="node"><title>dir_d2e0e2e7c131de54c32d81549b14c3d5</title>
<g id="a_node6"><a xlink:href="dir_d2e0e2e7c131de54c32d81549b14c3d5.html" target="_top" xlink:title="Ellipsoids">
<polygon fill="white" stroke="black" points="777,-252 717,-252 717,-216 777,-216 777,-252"/>
<text text-anchor="middle" x="747" y="-231.5" font-family="Helvetica,sans-Serif" font-size="10.00">Ellipsoids</text>
</a>
</g>
</g>
<!-- dir_9daea738ba0665232cd58b81f5fd3268&#45;&gt;dir_d2e0e2e7c131de54c32d81549b14c3d5 -->
<g id="edge6" class="edge"><title>dir_9daea738ba0665232cd58b81f5fd3268&#45;&gt;dir_d2e0e2e7c131de54c32d81549b14c3d5</title>
<path fill="none" stroke="black" d="M444.432,-301.409C500.382,-295.008 614.127,-279.637 707,-252 707.099,-251.97 707.199,-251.941 707.299,-251.911"/>
<polygon fill="black" stroke="black" points="708.345,-255.252 716.686,-248.718 706.091,-248.625 708.345,-255.252"/>
<g id="a_edge6&#45;headlabel"><a xlink:href="dir_000039_000041.html" target="_top" xlink:title="1">
<text text-anchor="middle" x="705.856" y="-256.597" font-family="Helvetica,sans-Serif" font-size="10.00">1</text>
</a>
</g>
</g>
<!-- dir_7a672da45aa9da1947d7ca7dad2e8885 -->
<g id="node7" class="node"><title>dir_7a672da45aa9da1947d7ca7dad2e8885</title>
<g id="a_node7"><a xlink:href="dir_7a672da45aa9da1947d7ca7dad2e8885.html" target="_top" xlink:title="GeneralizedStar">
<polygon fill="white" stroke="black" points="118,-252 24,-252 24,-216 118,-216 118,-252"/>
<text text-anchor="middle" x="71" y="-231.5" font-family="Helvetica,sans-Serif" font-size="10.00">GeneralizedStar</text>
</a>
</g>
</g>
<!-- dir_9daea738ba0665232cd58b81f5fd3268&#45;&gt;dir_7a672da45aa9da1947d7ca7dad2e8885 -->
<g id="edge12" class="edge"><title>dir_9daea738ba0665232cd58b81f5fd3268&#45;&gt;dir_7a672da45aa9da1947d7ca7dad2e8885</title>
<path fill="none" stroke="black" d="M375.764,-299.832C324.064,-291.758 222.864,-274.906 128.004,-252.113"/>
<polygon fill="black" stroke="black" points="128.8,-248.704 118.256,-249.743 127.146,-255.506 128.8,-248.704"/>
<g id="a_edge12&#45;headlabel"><a xlink:href="dir_000039_000042.html" target="_top" xlink:title="1">
<text text-anchor="middle" x="132.963" y="-244.294" font-family="Helvetica,sans-Serif" font-size="10.00">1</text>
</a>
</g>
</g>
<!-- dir_c3a99445e85233736dff89b095acd8fe -->
<g id="node9" class="node"><title>dir_c3a99445e85233736dff89b095acd8fe</title>
<g id="a_node9"><a xlink:href="dir_c3a99445e85233736dff89b095acd8fe.html" target="_top" xlink:title="OrthogonalPolyhedron">
<polygon fill="white" stroke="red" points="415.5,-252 292.5,-252 292.5,-216 415.5,-216 415.5,-252"/>
<text text-anchor="middle" x="354" y="-231.5" font-family="Helvetica,sans-Serif" font-size="10.00">OrthogonalPolyhedron</text>
</a>
</g>
</g>
<!-- dir_9daea738ba0665232cd58b81f5fd3268&#45;&gt;dir_c3a99445e85233736dff89b095acd8fe -->
<g id="edge7" class="edge"><title>dir_9daea738ba0665232cd58b81f5fd3268&#45;&gt;dir_c3a99445e85233736dff89b095acd8fe</title>
<path fill="none" stroke="black" d="M396.157,-287.697C389.511,-279.389 381.422,-269.277 374.113,-260.141"/>
<polygon fill="black" stroke="black" points="376.664,-257.727 367.683,-252.104 371.197,-262.099 376.664,-257.727"/>
<g id="a_edge7&#45;headlabel"><a xlink:href="dir_000039_000044.html" target="_top" xlink:title="1">
<text text-anchor="middle" x="381.126" y="-256.26" font-family="Helvetica,sans-Serif" font-size="10.00">1</text>
</a>
</g>
</g>
<!-- dir_dbbb4b37ecf24276c0f25796d6496cf7 -->
<g id="node10" class="node"><title>dir_dbbb4b37ecf24276c0f25796d6496cf7</title>
<g id="a_node10"><a xlink:href="dir_dbbb4b37ecf24276c0f25796d6496cf7.html" target="_top" xlink:title="Polytope">
<polygon fill="white" stroke="black" points="194,-252 136,-252 136,-216 194,-216 194,-252"/>
<text text-anchor="middle" x="165" y="-231.5" font-family="Helvetica,sans-Serif" font-size="10.00">Polytope</text>
</a>
</g>
</g>
<!-- dir_9daea738ba0665232cd58b81f5fd3268&#45;&gt;dir_dbbb4b37ecf24276c0f25796d6496cf7 -->
<g id="edge8" class="edge"><title>dir_9daea738ba0665232cd58b81f5fd3268&#45;&gt;dir_dbbb4b37ecf24276c0f25796d6496cf7</title>
<path fill="none" stroke="black" d="M375.683,-297.322C335.2,-287.961 266.057,-271.017 208,-252 206.756,-251.592 205.495,-251.168 204.226,-250.73"/>
<polygon fill="black" stroke="black" points="205.032,-247.299 194.438,-247.177 202.643,-253.879 205.032,-247.299"/>
<g id="a_edge8&#45;headlabel"><a xlink:href="dir_000039_000016.html" target="_top" xlink:title="1">
<text text-anchor="middle" x="209.38" y="-243.357" font-family="Helvetica,sans-Serif" font-size="10.00">1</text>
</a>
</g>
</g>
<!-- dir_ad938787f25f17484dcf7b42a899a1a5 -->
<g id="node11" class="node"><title>dir_ad938787f25f17484dcf7b42a899a1a5</title>
<g id="a_node11"><a xlink:href="dir_ad938787f25f17484dcf7b42a899a1a5.html" target="_top" xlink:title="Polytopes">
<polygon fill="white" stroke="red" points="698.5,-252 635.5,-252 635.5,-216 698.5,-216 698.5,-252"/>
<text text-anchor="middle" x="667" y="-231.5" font-family="Helvetica,sans-Serif" font-size="10.00">Polytopes</text>
</a>
</g>
</g>
<!-- dir_9daea738ba0665232cd58b81f5fd3268&#45;&gt;dir_ad938787f25f17484dcf7b42a899a1a5 -->
<g id="edge5" class="edge"><title>dir_9daea738ba0665232cd58b81f5fd3268&#45;&gt;dir_ad938787f25f17484dcf7b42a899a1a5</title>
<path fill="none" stroke="black" d="M444.122,-298.309C485.15,-289.9 556.147,-274.186 625.608,-251.858"/>
<polygon fill="black" stroke="black" points="626.975,-255.094 635.396,-248.664 624.803,-248.439 626.975,-255.094"/>
<g id="a_edge5&#45;headlabel"><a xlink:href="dir_000039_000017.html" target="_top" xlink:title="3">
<text text-anchor="middle" x="624.439" y="-256.408" font-family="Helvetica,sans-Serif" font-size="10.00">3</text>
</a>
</g>
</g>
<!-- dir_5cc8785239517cfd59e944398d6252f9 -->
<g id="node12" class="node"><title>dir_5cc8785239517cfd59e944398d6252f9</title>
<g id="a_node12"><a xlink:href="dir_5cc8785239517cfd59e944398d6252f9.html" target="_top" xlink:title="SupportFunction">
<polygon fill="white" stroke="black" points="702.5,-180 607.5,-180 607.5,-144 702.5,-144 702.5,-180"/>
<text text-anchor="middle" x="655" y="-159.5" font-family="Helvetica,sans-Serif" font-size="10.00">SupportFunction</text>
</a>
</g>
</g>
<!-- dir_9daea738ba0665232cd58b81f5fd3268&#45;&gt;dir_5cc8785239517cfd59e944398d6252f9 -->
<g id="edge11" class="edge"><title>dir_9daea738ba0665232cd58b81f5fd3268&#45;&gt;dir_5cc8785239517cfd59e944398d6252f9</title>
<path fill="none" stroke="black" d="M375.882,-301.151C345.759,-295.747 303.533,-282.818 283,-252 274.129,-238.685 272.348,-227.939 283,-216 328.028,-165.533 513.277,-191.798 597.294,-179.633"/>
<polygon fill="black" stroke="black" points="598.008,-183.062 607.261,-177.902 596.81,-176.165 598.008,-183.062"/>
<g id="a_edge11&#45;headlabel"><a xlink:href="dir_000039_000020.html" target="_top" xlink:title="1">
<text text-anchor="middle" x="594.952" y="-183.975" font-family="Helvetica,sans-Serif" font-size="10.00">1</text>
</a>
</g>
</g>
<!-- dir_ed1721d58ff6a73f1e36256aaa069f62 -->
<g id="node13" class="node"><title>dir_ed1721d58ff6a73f1e36256aaa069f62</title>
<g id="a_node13"><a xlink:href="dir_ed1721d58ff6a73f1e36256aaa069f62.html" target="_top" xlink:title="SupportFunctionNew">
<polygon fill="white" stroke="black" points="516.5,-180 401.5,-180 401.5,-144 516.5,-144 516.5,-180"/>
<text text-anchor="middle" x="459" y="-159.5" font-family="Helvetica,sans-Serif" font-size="10.00">SupportFunctionNew</text>
</a>
</g>
</g>
<!-- dir_9daea738ba0665232cd58b81f5fd3268&#45;&gt;dir_ed1721d58ff6a73f1e36256aaa069f62 -->
<g id="edge10" class="edge"><title>dir_9daea738ba0665232cd58b81f5fd3268&#45;&gt;dir_ed1721d58ff6a73f1e36256aaa069f62</title>
<path fill="none" stroke="black" d="M375.767,-299.886C317.889,-289.805 210.478,-264.058 248,-216 286.695,-166.44 324.329,-193.287 391.181,-179.939"/>
<polygon fill="black" stroke="black" points="392.276,-183.28 401.26,-177.664 390.735,-176.452 392.276,-183.28"/>
<g id="a_edge10&#45;headlabel"><a xlink:href="dir_000039_000047.html" target="_top" xlink:title="1">
<text text-anchor="middle" x="389.394" y="-184.341" font-family="Helvetica,sans-Serif" font-size="10.00">1</text>
</a>
</g>
</g>
<!-- dir_97de49a5bc6f4f4b12a8405ff97bd656 -->
<g id="node15" class="node"><title>dir_97de49a5bc6f4f4b12a8405ff97bd656</title>
<g id="a_node15"><a xlink:href="dir_97de49a5bc6f4f4b12a8405ff97bd656.html" target="_top" xlink:title="Zonotope">
<polygon fill="white" stroke="black" points="498,-252 434,-252 434,-216 498,-216 498,-252"/>
<text text-anchor="middle" x="466" y="-231.5" font-family="Helvetica,sans-Serif" font-size="10.00">Zonotope</text>
</a>
</g>
</g>
<!-- dir_9daea738ba0665232cd58b81f5fd3268&#45;&gt;dir_97de49a5bc6f4f4b12a8405ff97bd656 -->
<g id="edge3" class="edge"><title>dir_9daea738ba0665232cd58b81f5fd3268&#45;&gt;dir_97de49a5bc6f4f4b12a8405ff97bd656</title>
<path fill="none" stroke="black" d="M423.843,-287.697C430.489,-279.389 438.578,-269.277 445.887,-260.141"/>
<polygon fill="black" stroke="black" points="448.803,-262.099 452.317,-252.104 443.336,-257.727 448.803,-262.099"/>
<g id="a_edge3&#45;headlabel"><a xlink:href="dir_000039_000049.html" target="_top" xlink:title="1">
<text text-anchor="middle" x="448.774" y="-264.18" font-family="Helvetica,sans-Serif" font-size="10.00">1</text>
</a>
</g>
</g>
<!-- dir_9daea738ba0665232cd58b81f5fd3268&#45;&gt;dir_879d833e0dfbe8f31a5e860bb94efb50 -->
<g id="edge2" class="edge"><title>dir_9daea738ba0665232cd58b81f5fd3268&#45;&gt;dir_879d833e0dfbe8f31a5e860bb94efb50</title>
<path fill="none" stroke="black" d="M444.147,-304.65C526.757,-303.119 734.398,-294.984 786,-252 825.122,-219.411 830.282,-155.372 829.701,-118.642"/>
<polygon fill="black" stroke="black" points="833.184,-118.068 829.367,-108.185 826.188,-118.291 833.184,-118.068"/>
<g id="a_edge2&#45;headlabel"><a xlink:href="dir_000039_000028.html" target="_top" xlink:title="2">
<text text-anchor="middle" x="836.136" y="-119.07" font-family="Helvetica,sans-Serif" font-size="10.00">2</text>
</a>
</g>
</g>
<!-- dir_cf451874352f123b92a8eb670c7ebe66&#45;&gt;dir_bce2075adec303dcb2f0c4fbfcbc8493 -->
<g id="edge22" class="edge"><title>dir_cf451874352f123b92a8eb670c7ebe66&#45;&gt;dir_bce2075adec303dcb2f0c4fbfcbc8493</title>
<path fill="none" stroke="black" d="M617.718,-217.812C620.509,-217.156 623.283,-216.546 626,-216 693.777,-202.384 889.032,-231.634 935,-180 971.645,-138.837 964.684,-102.434 935,-56 928.625,-46.028 918.8,-38.7043 908.191,-33.3388"/>
<polygon fill="black" stroke="black" points="909.291,-29.9969 898.734,-29.1105 906.434,-36.3873 909.291,-29.9969"/>
<g id="a_edge22&#45;headlabel"><a xlink:href="dir_000040_000024.html" target="_top" xlink:title="1">
<text text-anchor="middle" x="913.732" y="-26.3719" font-family="Helvetica,sans-Serif" font-size="10.00">1</text>
</a>
</g>
</g>
<!-- dir_d2e0e2e7c131de54c32d81549b14c3d5&#45;&gt;dir_bce2075adec303dcb2f0c4fbfcbc8493 -->
<g id="edge26" class="edge"><title>dir_d2e0e2e7c131de54c32d81549b14c3d5&#45;&gt;dir_bce2075adec303dcb2f0c4fbfcbc8493</title>
<path fill="none" stroke="black" d="M777.474,-231.556C840.5,-227.866 981.746,-215.711 1011,-180 1045.92,-137.368 1045.18,-99.2329 1011,-56 998.269,-39.8964 948.421,-30.0666 908.453,-24.6271"/>
<polygon fill="black" stroke="black" points="908.901,-21.156 898.533,-23.3376 907.999,-28.0976 908.901,-21.156"/>
<g id="a_edge26&#45;headlabel"><a xlink:href="dir_000041_000024.html" target="_top" xlink:title="1">
<text text-anchor="middle" x="912.832" y="-16.3037" font-family="Helvetica,sans-Serif" font-size="10.00">1</text>
</a>
</g>
</g>
<!-- dir_7a672da45aa9da1947d7ca7dad2e8885&#45;&gt;dir_879d833e0dfbe8f31a5e860bb94efb50 -->
<g id="edge43" class="edge"><title>dir_7a672da45aa9da1947d7ca7dad2e8885&#45;&gt;dir_879d833e0dfbe8f31a5e860bb94efb50</title>
<path fill="none" stroke="black" d="M118.167,-217.837C121.139,-217.144 124.1,-216.522 127,-216 254.966,-192.959 593.237,-235.119 711,-180 730.933,-170.671 728.042,-158.028 745,-144 759.536,-131.975 776.962,-120.47 792.085,-111.27"/>
<polygon fill="black" stroke="black" points="793.894,-114.266 800.684,-106.133 790.304,-108.257 793.894,-114.266"/>
<g id="a_edge43&#45;headlabel"><a xlink:href="dir_000042_000028.html" target="_top" xlink:title="2">
<text text-anchor="middle" x="792.264" y="-116.047" font-family="Helvetica,sans-Serif" font-size="10.00">2</text>
</a>
</g>
</g>
<!-- dir_c3a99445e85233736dff89b095acd8fe&#45;&gt;dir_2a022a7dd5883d249fd19381a9acb7ca -->
<g id="edge33" class="edge"><title>dir_c3a99445e85233736dff89b095acd8fe&#45;&gt;dir_2a022a7dd5883d249fd19381a9acb7ca</title>
<path fill="none" stroke="black" d="M415.598,-216.016C448.428,-206.437 489.298,-193.668 525,-180 525.099,-179.962 525.198,-179.924 525.297,-179.886"/>
<polygon fill="black" stroke="black" points="526.77,-183.065 534.691,-176.028 524.111,-176.59 526.77,-183.065"/>
<g id="a_edge33&#45;headlabel"><a xlink:href="dir_000044_000037.html" target="_top" xlink:title="1">
<text text-anchor="middle" x="524.523" y="-184.557" font-family="Helvetica,sans-Serif" font-size="10.00">1</text>
</a>
</g>
</g>
<!-- dir_c3a99445e85233736dff89b095acd8fe&#45;&gt;dir_bce2075adec303dcb2f0c4fbfcbc8493 -->
<g id="edge32" class="edge"><title>dir_c3a99445e85233736dff89b095acd8fe&#45;&gt;dir_bce2075adec303dcb2f0c4fbfcbc8493</title>
<path fill="none" stroke="black" d="M415.863,-217.718C418.946,-217.104 422.004,-216.527 425,-216 564.652,-191.446 607.543,-225.023 742,-180 801.702,-160.008 832.781,-162.675 864,-108 874.721,-89.2243 871.12,-64.5487 865.603,-45.943"/>
<polygon fill="black" stroke="black" points="868.88,-44.7046 862.42,-36.3071 862.233,-46.9003 868.88,-44.7046"/>
<g id="a_edge32&#45;headlabel"><a xlink:href="dir_000044_000024.html" target="_top" xlink:title="6">
<text text-anchor="middle" x="872.703" y="-44.7272" font-family="Helvetica,sans-Serif" font-size="10.00">6</text>
</a>
</g>
</g>
<!-- dir_ad938787f25f17484dcf7b42a899a1a5&#45;&gt;dir_879d833e0dfbe8f31a5e860bb94efb50 -->
<g id="edge23" class="edge"><title>dir_ad938787f25f17484dcf7b42a899a1a5&#45;&gt;dir_879d833e0dfbe8f31a5e860bb94efb50</title>
<path fill="none" stroke="black" d="M698.641,-219.822C730.689,-206.273 776.455,-186.291 783,-180 800.858,-162.835 812.81,-137.06 819.88,-117.659"/>
<polygon fill="black" stroke="black" points="823.2,-118.769 823.138,-108.174 816.579,-116.495 823.2,-118.769"/>
<g id="a_edge23&#45;headlabel"><a xlink:href="dir_000017_000028.html" target="_top" xlink:title="14">
<text text-anchor="middle" x="824.717" y="-120.591" font-family="Helvetica,sans-Serif" font-size="10.00">14</text>
</a>
</g>
</g>
<!-- dir_ad938787f25f17484dcf7b42a899a1a5&#45;&gt;dir_bce2075adec303dcb2f0c4fbfcbc8493 -->
<g id="edge24" class="edge"><title>dir_ad938787f25f17484dcf7b42a899a1a5&#45;&gt;dir_bce2075adec303dcb2f0c4fbfcbc8493</title>
<path fill="none" stroke="black" d="M698.502,-218.993C701.673,-217.87 704.876,-216.845 708,-216 765.37,-200.49 933.907,-224.762 973,-180 1009.25,-138.49 1005.62,-100.418 973,-56 958.154,-35.7868 932.288,-26.3164 908.55,-21.9935"/>
<polygon fill="black" stroke="black" points="908.964,-18.5159 898.545,-20.4397 907.889,-25.4329 908.964,-18.5159"/>
<g id="a_edge24&#45;headlabel"><a xlink:href="dir_000017_000024.html" target="_top" xlink:title="7">
<text text-anchor="middle" x="912.951" y="-13.7618" font-family="Helvetica,sans-Serif" font-size="10.00">7</text>
</a>
</g>
</g>
<!-- dir_55730fee9a0c1f12da77eb14a8325c4c -->
<g id="node18" class="node"><title>dir_55730fee9a0c1f12da77eb14a8325c4c</title>
<g id="a_node18"><a xlink:href="dir_55730fee9a0c1f12da77eb14a8325c4c.html" target="_top" xlink:title="algorithms">
<polygon fill="white" stroke="red" points="869,-324 801,-324 801,-288 869,-288 869,-324"/>
<text text-anchor="middle" x="835" y="-303.5" font-family="Helvetica,sans-Serif" font-size="10.00">algorithms</text>
</a>
</g>
</g>
<!-- dir_ad938787f25f17484dcf7b42a899a1a5&#45;&gt;dir_55730fee9a0c1f12da77eb14a8325c4c -->
<g id="edge25" class="edge"><title>dir_ad938787f25f17484dcf7b42a899a1a5&#45;&gt;dir_55730fee9a0c1f12da77eb14a8325c4c</title>
<path fill="none" stroke="black" d="M698.519,-248.133C724.636,-259.015 762.044,-274.602 791.094,-286.706"/>
<polygon fill="black" stroke="black" points="790.02,-290.05 800.597,-290.666 792.713,-283.589 790.02,-290.05"/>
<g id="a_edge25&#45;headlabel"><a xlink:href="dir_000017_000003.html" target="_top" xlink:title="3">
<text text-anchor="middle" x="785.61" y="-288.788" font-family="Helvetica,sans-Serif" font-size="10.00">3</text>
</a>
</g>
</g>
<!-- dir_5cc8785239517cfd59e944398d6252f9&#45;&gt;dir_347b12423904bd932c4239ca1a522dfa -->
<g id="edge40" class="edge"><title>dir_5cc8785239517cfd59e944398d6252f9&#45;&gt;dir_347b12423904bd932c4239ca1a522dfa</title>
<path fill="none" stroke="black" d="M607.298,-143.876C579.035,-133.73 543.14,-120.845 513.861,-110.335"/>
<polygon fill="black" stroke="black" points="514.8,-106.953 504.206,-106.869 512.435,-113.542 514.8,-106.953"/>
<g id="a_edge40&#45;headlabel"><a xlink:href="dir_000020_000043.html" target="_top" xlink:title="1">
<text text-anchor="middle" x="519.143" y="-102.995" font-family="Helvetica,sans-Serif" font-size="10.00">1</text>
</a>
</g>
</g>
<!-- dir_5cc8785239517cfd59e944398d6252f9&#45;&gt;dir_879d833e0dfbe8f31a5e860bb94efb50 -->
<g id="edge41" class="edge"><title>dir_5cc8785239517cfd59e944398d6252f9&#45;&gt;dir_879d833e0dfbe8f31a5e860bb94efb50</title>
<path fill="none" stroke="black" d="M699.211,-143.954C725.406,-133.746 759.198,-120.385 789,-108 789.836,-107.653 790.68,-107.3 791.532,-106.943"/>
<polygon fill="black" stroke="black" points="792.945,-110.145 800.776,-103.009 790.204,-103.704 792.945,-110.145"/>
<g id="a_edge41&#45;headlabel"><a xlink:href="dir_000020_000028.html" target="_top" xlink:title="12">
<text text-anchor="middle" x="790.749" y="-111.665" font-family="Helvetica,sans-Serif" font-size="10.00">12</text>
</a>
</g>
</g>
<!-- dir_5cc8785239517cfd59e944398d6252f9&#45;&gt;dir_bce2075adec303dcb2f0c4fbfcbc8493 -->
<g id="edge42" class="edge"><title>dir_5cc8785239517cfd59e944398d6252f9&#45;&gt;dir_bce2075adec303dcb2f0c4fbfcbc8493</title>
<path fill="none" stroke="black" d="M675.76,-143.801C702.096,-122.287 749.242,-84.7827 792,-56 799.416,-51.008 807.523,-45.9604 815.379,-41.2661"/>
<polygon fill="black" stroke="black" points="817.249,-44.2267 824.092,-36.1381 813.699,-38.194 817.249,-44.2267"/>
<g id="a_edge42&#45;headlabel"><a xlink:href="dir_000020_000024.html" target="_top" xlink:title="3">
<text text-anchor="middle" x="815.592" y="-45.9969" font-family="Helvetica,sans-Serif" font-size="10.00">3</text>
</a>
</g>
</g>
<!-- dir_ed1721d58ff6a73f1e36256aaa069f62&#45;&gt;dir_347b12423904bd932c4239ca1a522dfa -->
<g id="edge37" class="edge"><title>dir_ed1721d58ff6a73f1e36256aaa069f62&#45;&gt;dir_347b12423904bd932c4239ca1a522dfa</title>
<path fill="none" stroke="black" d="M459.247,-143.697C459.357,-135.983 459.49,-126.712 459.613,-118.112"/>
<polygon fill="black" stroke="black" points="463.112,-118.153 459.756,-108.104 456.113,-118.053 463.112,-118.153"/>
<g id="a_edge37&#45;headlabel"><a xlink:href="dir_000047_000043.html" target="_top" xlink:title="1">
<text text-anchor="middle" x="465.9" y="-119.288" font-family="Helvetica,sans-Serif" font-size="10.00">1</text>
</a>
</g>
</g>
<!-- dir_ed1721d58ff6a73f1e36256aaa069f62&#45;&gt;dir_879d833e0dfbe8f31a5e860bb94efb50 -->
<g id="edge38" class="edge"><title>dir_ed1721d58ff6a73f1e36256aaa069f62&#45;&gt;dir_879d833e0dfbe8f31a5e860bb94efb50</title>
<path fill="none" stroke="black" d="M516.651,-145.934C519.806,-145.247 522.937,-144.596 526,-144 641.805,-121.457 675.408,-139.872 789,-108 789.72,-107.798 790.444,-107.585 791.171,-107.363"/>
<polygon fill="black" stroke="black" points="792.37,-110.652 800.647,-104.037 790.052,-104.047 792.37,-110.652"/>
<g id="a_edge38&#45;headlabel"><a xlink:href="dir_000047_000028.html" target="_top" xlink:title="4">
<text text-anchor="middle" x="789.919" y="-112.021" font-family="Helvetica,sans-Serif" font-size="10.00">4</text>
</a>
</g>
</g>
<!-- dir_ed1721d58ff6a73f1e36256aaa069f62&#45;&gt;dir_bce2075adec303dcb2f0c4fbfcbc8493 -->
<g id="edge39" class="edge"><title>dir_ed1721d58ff6a73f1e36256aaa069f62&#45;&gt;dir_bce2075adec303dcb2f0c4fbfcbc8493</title>
<path fill="none" stroke="black" d="M515.447,-143.955C550.687,-132.738 592.252,-118.282 608,-108 634.59,-90.6394 629.131,-71.2219 657,-56 701.703,-31.5838 759.634,-22.9738 801.27,-20.0878"/>
<polygon fill="black" stroke="black" points="801.715,-23.5674 811.486,-19.4712 801.293,-16.5801 801.715,-23.5674"/>
<g id="a_edge39&#45;headlabel"><a xlink:href="dir_000047_000024.html" target="_top" xlink:title="1">
<text text-anchor="middle" x="798.298" y="-24.1179" font-family="Helvetica,sans-Serif" font-size="10.00">1</text>
</a>
</g>
</g>
<!-- dir_f299c51bddf4791e0a4b318d117b72c2 -->
<g id="node14" class="node"><title>dir_f299c51bddf4791e0a4b318d117b72c2</title>
<g id="a_node14"><a xlink:href="dir_f299c51bddf4791e0a4b318d117b72c2.html" target="_top" xlink:title="TaylorModel">
<polygon fill="white" stroke="black" points="437,-396 365,-396 365,-360 437,-360 437,-396"/>
<text text-anchor="middle" x="401" y="-375.5" font-family="Helvetica,sans-Serif" font-size="10.00">TaylorModel</text>
</a>
</g>
</g>
<!-- dir_97de49a5bc6f4f4b12a8405ff97bd656&#45;&gt;dir_879d833e0dfbe8f31a5e860bb94efb50 -->
<g id="edge17" class="edge"><title>dir_97de49a5bc6f4f4b12a8405ff97bd656&#45;&gt;dir_879d833e0dfbe8f31a5e860bb94efb50</title>
<path fill="none" stroke="black" d="M498.421,-218.721C501.292,-217.712 504.179,-216.786 507,-216 610.06,-187.301 650.366,-229.894 745,-180 752.631,-175.977 784.308,-140.862 806.243,-115.965"/>
<polygon fill="black" stroke="black" points="809.012,-118.116 812.98,-108.293 803.752,-113.498 809.012,-118.116"/>
<g id="a_edge17&#45;headlabel"><a xlink:href="dir_000049_000028.html" target="_top" xlink:title="2">
<text text-anchor="middle" x="808.774" y="-120.191" font-family="Helvetica,sans-Serif" font-size="10.00">2</text>
</a>
</g>
</g>
<!-- dir_97de49a5bc6f4f4b12a8405ff97bd656&#45;&gt;dir_bce2075adec303dcb2f0c4fbfcbc8493 -->
<g id="edge18" class="edge"><title>dir_97de49a5bc6f4f4b12a8405ff97bd656&#45;&gt;dir_bce2075adec303dcb2f0c4fbfcbc8493</title>
<path fill="none" stroke="black" d="M498.374,-218.543C501.256,-217.572 504.158,-216.703 507,-216 591.487,-195.096 838.353,-244.309 897,-180 934.135,-139.279 919.688,-106.224 897,-56 894.957,-51.478 892.058,-47.2878 888.726,-43.4771"/>
<polygon fill="black" stroke="black" points="890.972,-40.7739 881.413,-36.2031 886.035,-45.7368 890.972,-40.7739"/>
<g id="a_edge18&#45;headlabel"><a xlink:href="dir_000049_000024.html" target="_top" xlink:title="1">
<text text-anchor="middle" x="895.522" y="-38.7959" font-family="Helvetica,sans-Serif" font-size="10.00">1</text>
</a>
</g>
</g>
<!-- dir_879d833e0dfbe8f31a5e860bb94efb50&#45;&gt;dir_bce2075adec303dcb2f0c4fbfcbc8493 -->
<g id="edge16" class="edge"><title>dir_879d833e0dfbe8f31a5e860bb94efb50&#45;&gt;dir_bce2075adec303dcb2f0c4fbfcbc8493</title>
<path fill="none" stroke="black" d="M828.758,-71.6966C831.01,-63.7284 834.509,-54.0995 838.31,-45.2641"/>
<polygon fill="black" stroke="black" points="841.523,-46.6534 842.508,-36.1043 835.16,-43.7371 841.523,-46.6534"/>
<g id="a_edge16&#45;headlabel"><a xlink:href="dir_000028_000024.html" target="_top" xlink:title="12">
<text text-anchor="middle" x="842.607" y="-48.604" font-family="Helvetica,sans-Serif" font-size="10.00">12</text>
</a>
</g>
</g>
<!-- dir_bce2075adec303dcb2f0c4fbfcbc8493&#45;&gt;dir_7fa927d8fbf9dfbeef69af27f63bc81b -->
<g id="edge21" class="edge"><title>dir_bce2075adec303dcb2f0c4fbfcbc8493&#45;&gt;dir_7fa927d8fbf9dfbeef69af27f63bc81b</title>
<path fill="none" stroke="black" d="M898.697,-20.6242C980.597,-26.2517 1149,-51.1759 1149,-161 1149,-235 1149,-235 1149,-235 1149,-336.433 794.426,-366.507 654.15,-374.436"/>
<polygon fill="black" stroke="black" points="653.824,-370.949 644.03,-374.991 654.207,-377.938 653.824,-370.949"/>
<g id="a_edge21&#45;headlabel"><a xlink:href="dir_000024_000015.html" target="_top" xlink:title="12">
<text text-anchor="middle" x="657.258" y="-365.417" font-family="Helvetica,sans-Serif" font-size="10.00">12</text>
</a>
</g>
</g>
<!-- dir_bce2075adec303dcb2f0c4fbfcbc8493&#45;&gt;dir_c69b7163a8becb19bca702fdae1c2050 -->
<g id="edge19" class="edge"><title>dir_bce2075adec303dcb2f0c4fbfcbc8493&#45;&gt;dir_c69b7163a8becb19bca702fdae1c2050</title>
<path fill="none" stroke="black" d="M811.455,-21.99C750.232,-26.7865 642.343,-37.5814 608,-56 580.547,-70.7236 587.99,-92.4435 561,-108 497.193,-144.777 468.434,-125.367 393.502,-143.85"/>
<polygon fill="black" stroke="black" points="392.414,-140.517 383.628,-146.437 394.188,-147.288 392.414,-140.517"/>
<g id="a_edge19&#45;headlabel"><a xlink:href="dir_000024_000038.html" target="_top" xlink:title="2">
<text text-anchor="middle" x="395.172" y="-134.359" font-family="Helvetica,sans-Serif" font-size="10.00">2</text>
</a>
</g>
</g>
<!-- dir_bce2075adec303dcb2f0c4fbfcbc8493&#45;&gt;dir_879d833e0dfbe8f31a5e860bb94efb50 -->
<g id="edge20" class="edge"><title>dir_bce2075adec303dcb2f0c4fbfcbc8493&#45;&gt;dir_879d833e0dfbe8f31a5e860bb94efb50</title>
<path fill="none" stroke="black" d="M854.298,-36.1043C852.067,-44.0447 848.581,-53.6661 844.785,-62.5146"/>
<polygon fill="black" stroke="black" points="841.562,-61.1465 840.59,-71.6966 847.929,-64.0555 841.562,-61.1465"/>
<g id="a_edge20&#45;headlabel"><a xlink:href="dir_000024_000028.html" target="_top" xlink:title="25">
<text text-anchor="middle" x="840.473" y="-54.1971" font-family="Helvetica,sans-Serif" font-size="10.00">25</text>
</a>
</g>
</g>
<!-- dir_55730fee9a0c1f12da77eb14a8325c4c&#45;&gt;dir_9daea738ba0665232cd58b81f5fd3268 -->
<g id="edge27" class="edge"><title>dir_55730fee9a0c1f12da77eb14a8325c4c&#45;&gt;dir_9daea738ba0665232cd58b81f5fd3268</title>
<path fill="none" stroke="black" d="M800.638,-306C685.136,-306 569.634,-306 454.132,-306"/>
<polygon fill="black" stroke="black" points="454.033,-302.5 444.033,-306 454.033,-309.5 454.033,-302.5"/>
<g id="a_edge27&#45;headlabel"><a xlink:href="dir_000003_000039.html" target="_top" xlink:title="1">
<text text-anchor="middle" x="457.628" y="-297.161" font-family="Helvetica,sans-Serif" font-size="10.00">1</text>
</a>
</g>
</g>
<!-- dir_55730fee9a0c1f12da77eb14a8325c4c&#45;&gt;dir_d2e0e2e7c131de54c32d81549b14c3d5 -->
<g id="edge30" class="edge"><title>dir_55730fee9a0c1f12da77eb14a8325c4c&#45;&gt;dir_d2e0e2e7c131de54c32d81549b14c3d5</title>
<path fill="none" stroke="black" d="M813.247,-287.697C802.164,-278.881 788.526,-268.032 776.51,-258.474"/>
<polygon fill="black" stroke="black" points="778.507,-255.59 768.503,-252.104 774.15,-261.069 778.507,-255.59"/>
<g id="a_edge30&#45;headlabel"><a xlink:href="dir_000003_000041.html" target="_top" xlink:title="1">
<text text-anchor="middle" x="783.088" y="-253.106" font-family="Helvetica,sans-Serif" font-size="10.00">1</text>
</a>
</g>
</g>
<!-- dir_55730fee9a0c1f12da77eb14a8325c4c&#45;&gt;dir_5cc8785239517cfd59e944398d6252f9 -->
<g id="edge31" class="edge"><title>dir_55730fee9a0c1f12da77eb14a8325c4c&#45;&gt;dir_5cc8785239517cfd59e944398d6252f9</title>
<path fill="none" stroke="black" d="M829.466,-287.654C822.338,-267.854 808.161,-235.672 786,-216 765.186,-197.523 737.095,-185.015 712.263,-176.813"/>
<polygon fill="black" stroke="black" points="713.161,-173.426 702.572,-173.77 711.064,-180.105 713.161,-173.426"/>
<g id="a_edge31&#45;headlabel"><a xlink:href="dir_000003_000020.html" target="_top" xlink:title="1">
<text text-anchor="middle" x="717.441" y="-169.294" font-family="Helvetica,sans-Serif" font-size="10.00">1</text>
</a>
</g>
</g>
<!-- dir_55730fee9a0c1f12da77eb14a8325c4c&#45;&gt;dir_879d833e0dfbe8f31a5e860bb94efb50 -->
<g id="edge28" class="edge"><title>dir_55730fee9a0c1f12da77eb14a8325c4c&#45;&gt;dir_879d833e0dfbe8f31a5e860bb94efb50</title>
<path fill="none" stroke="black" d="M844.954,-287.978C850.272,-277.888 856.272,-264.638 859,-252 869.128,-205.081 871.554,-190.329 859,-144 856.42,-134.48 851.655,-124.917 846.622,-116.587"/>
<polygon fill="black" stroke="black" points="849.506,-114.601 841.146,-108.092 843.622,-118.393 849.506,-114.601"/>
<g id="a_edge28&#45;headlabel"><a xlink:href="dir_000003_000028.html" target="_top" xlink:title="11">
<text text-anchor="middle" x="853.84" y="-113.583" font-family="Helvetica,sans-Serif" font-size="10.00">11</text>
</a>
</g>
</g>
<!-- dir_55730fee9a0c1f12da77eb14a8325c4c&#45;&gt;dir_bce2075adec303dcb2f0c4fbfcbc8493 -->
<g id="edge29" class="edge"><title>dir_55730fee9a0c1f12da77eb14a8325c4c&#45;&gt;dir_bce2075adec303dcb2f0c4fbfcbc8493</title>
<path fill="none" stroke="black" d="M863.734,-287.939C910.522,-258.264 1001.51,-192.183 1037,-108 1045.98,-86.7039 1051.62,-73.896 1037,-56 1021.03,-36.4609 956.559,-26.9833 908.86,-22.5679"/>
<polygon fill="black" stroke="black" points="908.924,-19.0602 898.657,-21.6757 908.314,-26.0336 908.924,-19.0602"/>
<g id="a_edge29&#45;headlabel"><a xlink:href="dir_000003_000024.html" target="_top" xlink:title="64">
<text text-anchor="middle" x="912.752" y="-14.0447" font-family="Helvetica,sans-Serif" font-size="10.00">64</text>
</a>
</g>
</g>
</g>
</svg>
