<?xml version="1.0" encoding="UTF-8" standalone="no"?>
<!DOCTYPE svg PUBLIC "-//W3C//DTD SVG 1.1//EN"
 "http://www.w3.org/Graphics/SVG/1.1/DTD/svg11.dtd">
<!-- Generated by graphviz version 2.38.0 (20140413.2041)
 -->
<!-- Title: /home/travis/build/hypro/hypro/src/hypro/datastructures/HybridAutomaton Pages: 1 -->
<svg width="303pt" height="329pt"
 viewBox="0.00 0.00 303.00 329.15" xmlns="http://www.w3.org/2000/svg" xmlns:xlink="http://www.w3.org/1999/xlink">
<g id="graph0" class="graph" transform="scale(1 1) rotate(0) translate(4 325.147)">
<title>/home/travis/build/hypro/hypro/src/hypro/datastructures/HybridAutomaton</title>
<polygon fill="white" stroke="none" points="-4,4 -4,-325.147 299,-325.147 299,4 -4,4"/>
<g id="clust1" class="cluster"><title>clusterdir_bce2075adec303dcb2f0c4fbfcbc8493</title>
<g id="a_clust1"><a xlink:href="dir_bce2075adec303dcb2f0c4fbfcbc8493.html" target="_top" xlink:title="datastructures">
<polygon fill="#ddddee" stroke="black" points="8,-56 8,-287 214,-287 214,-56 8,-56"/>
<text text-anchor="middle" x="111" y="-275" font-family="Helvetica,sans-Serif" font-size="10.00">datastructures</text>
</a>
</g>
</g>
<g id="clust2" class="cluster"><title>clusterdir_fc0efe5d2249fba2a29c6d003d9b04e9</title>
<g id="a_clust2"><a xlink:href="dir_fc0efe5d2249fba2a29c6d003d9b04e9.html" target="_top">
<polygon fill="#eeeeff" stroke="black" points="16,-64 16,-260 206,-260 206,-64 16,-64"/>
</a>
</g>
</g>
<!-- dir_fc0efe5d2249fba2a29c6d003d9b04e9 -->
<g id="node1" class="node"><title>dir_fc0efe5d2249fba2a29c6d003d9b04e9</title>
<text text-anchor="middle" x="147" y="-231.5" font-family="Helvetica,sans-Serif" font-size="10.00">HybridAutomaton</text>
</g>
<!-- dir_1f675ff36096041079ce357a072edb84 -->
<g id="node2" class="node"><title>dir_1f675ff36096041079ce357a072edb84</title>
<g id="a_node2"><a xlink:href="dir_1f675ff36096041079ce357a072edb84.html" target="_top" xlink:title="decomposition">
<polygon fill="white" stroke="black" points="197.5,-180 110.5,-180 110.5,-144 197.5,-144 197.5,-180"/>
<text text-anchor="middle" x="154" y="-159.5" font-family="Helvetica,sans-Serif" font-size="10.00">decomposition</text>
</a>
</g>
</g>
<!-- dir_fc0efe5d2249fba2a29c6d003d9b04e9&#45;&gt;dir_1f675ff36096041079ce357a072edb84 -->
<g id="edge10" class="edge"><title>dir_fc0efe5d2249fba2a29c6d003d9b04e9&#45;&gt;dir_1f675ff36096041079ce357a072edb84</title>
<path fill="none" stroke="black" d="M148.73,-215.697C149.502,-207.983 150.429,-198.712 151.289,-190.112"/>
<polygon fill="black" stroke="black" points="154.777,-190.403 152.29,-180.104 147.812,-189.706 154.777,-190.403"/>
<g id="a_edge10&#45;headlabel"><a xlink:href="dir_000025_000026.html" target="_top" xlink:title="6">
<text text-anchor="middle" x="157.245" y="-191.762" font-family="Helvetica,sans-Serif" font-size="10.00">6</text>
</a>
</g>
</g>
<!-- dir_9089fdb40e74f746acd9799dde4f03e8 -->
<g id="node3" class="node"><title>dir_9089fdb40e74f746acd9799dde4f03e8</title>
<g id="a_node3"><a xlink:href="dir_9089fdb40e74f746acd9799dde4f03e8.html" target="_top" xlink:title="flow">
<polygon fill="white" stroke="black" points="166,-108 112,-108 112,-72 166,-72 166,-108"/>
<text text-anchor="middle" x="139" y="-87.5" font-family="Helvetica,sans-Serif" font-size="10.00">flow</text>
</a>
</g>
</g>
<!-- dir_1f675ff36096041079ce357a072edb84&#45;&gt;dir_9089fdb40e74f746acd9799dde4f03e8 -->
<g id="edge7" class="edge"><title>dir_1f675ff36096041079ce357a072edb84&#45;&gt;dir_9089fdb40e74f746acd9799dde4f03e8</title>
<path fill="none" stroke="black" d="M150.292,-143.697C148.639,-135.983 146.653,-126.712 144.81,-118.112"/>
<polygon fill="black" stroke="black" points="148.183,-117.149 142.665,-108.104 141.338,-118.616 148.183,-117.149"/>
<g id="a_edge7&#45;headlabel"><a xlink:href="dir_000026_000027.html" target="_top" xlink:title="1">
<text text-anchor="middle" x="151.712" y="-117.569" font-family="Helvetica,sans-Serif" font-size="10.00">1</text>
</a>
</g>
</g>
<!-- dir_879d833e0dfbe8f31a5e860bb94efb50 -->
<g id="node6" class="node"><title>dir_879d833e0dfbe8f31a5e860bb94efb50</title>
<g id="a_node6"><a xlink:href="dir_879d833e0dfbe8f31a5e860bb94efb50.html" target="_top" xlink:title="util">
<polygon fill="white" stroke="red" points="276,-108 222,-108 222,-72 276,-72 276,-108"/>
<text text-anchor="middle" x="249" y="-87.5" font-family="Helvetica,sans-Serif" font-size="10.00">util</text>
</a>
</g>
</g>
<!-- dir_1f675ff36096041079ce357a072edb84&#45;&gt;dir_879d833e0dfbe8f31a5e860bb94efb50 -->
<g id="edge8" class="edge"><title>dir_1f675ff36096041079ce357a072edb84&#45;&gt;dir_879d833e0dfbe8f31a5e860bb94efb50</title>
<path fill="none" stroke="black" d="M177.483,-143.697C189.563,-134.796 204.454,-123.823 217.516,-114.199"/>
<polygon fill="black" stroke="black" points="219.813,-116.854 225.787,-108.104 215.66,-111.219 219.813,-116.854"/>
<g id="a_edge8&#45;headlabel"><a xlink:href="dir_000026_000028.html" target="_top" xlink:title="1">
<text text-anchor="middle" x="218.603" y="-118.772" font-family="Helvetica,sans-Serif" font-size="10.00">1</text>
</a>
</g>
</g>
<!-- dir_7fa927d8fbf9dfbeef69af27f63bc81b -->
<g id="node7" class="node"><title>dir_7fa927d8fbf9dfbeef69af27f63bc81b</title>
<g id="a_node7"><a xlink:href="dir_7fa927d8fbf9dfbeef69af27f63bc81b.html" target="_top" xlink:title="representations">
<polygon fill="white" stroke="red" points="295,-36 203,-36 203,-0 295,-0 295,-36"/>
<text text-anchor="middle" x="249" y="-15.5" font-family="Helvetica,sans-Serif" font-size="10.00">representations</text>
</a>
</g>
</g>
<!-- dir_1f675ff36096041079ce357a072edb84&#45;&gt;dir_7fa927d8fbf9dfbeef69af27f63bc81b -->
<g id="edge9" class="edge"><title>dir_1f675ff36096041079ce357a072edb84&#45;&gt;dir_7fa927d8fbf9dfbeef69af27f63bc81b</title>
<path fill="none" stroke="black" d="M161.934,-143.809C172.237,-122.304 191.469,-84.8082 213,-56 216.139,-51.8003 219.723,-47.5879 223.385,-43.5878"/>
<polygon fill="black" stroke="black" points="226.05,-45.8651 230.427,-36.2166 220.988,-41.0298 226.05,-45.8651"/>
<g id="a_edge9&#45;headlabel"><a xlink:href="dir_000026_000015.html" target="_top" xlink:title="1">
<text text-anchor="middle" x="225.62" y="-47.9256" font-family="Helvetica,sans-Serif" font-size="10.00">1</text>
</a>
</g>
</g>
<!-- dir_f8eeed5867fcfb10b0a82b230e717047 -->
<g id="node4" class="node"><title>dir_f8eeed5867fcfb10b0a82b230e717047</title>
<g id="a_node4"><a xlink:href="dir_f8eeed5867fcfb10b0a82b230e717047.html" target="_top" xlink:title="output">
<polygon fill="white" stroke="black" points="78,-252 24,-252 24,-216 78,-216 78,-252"/>
<text text-anchor="middle" x="51" y="-231.5" font-family="Helvetica,sans-Serif" font-size="10.00">output</text>
</a>
</g>
</g>
<!-- dir_f695c0e486b1567b2450488137a0ccfa -->
<g id="node5" class="node"><title>dir_f695c0e486b1567b2450488137a0ccfa</title>
<g id="a_node5"><a xlink:href="dir_f695c0e486b1567b2450488137a0ccfa.html" target="_top" xlink:title="reachability">
<polygon fill="white" stroke="red" points="293.5,-252 222.5,-252 222.5,-216 293.5,-216 293.5,-252"/>
<text text-anchor="middle" x="258" y="-231.5" font-family="Helvetica,sans-Serif" font-size="10.00">reachability</text>
</a>
</g>
</g>
<!-- dir_f8eeed5867fcfb10b0a82b230e717047&#45;&gt;dir_f695c0e486b1567b2450488137a0ccfa -->
<g id="edge5" class="edge"><title>dir_f8eeed5867fcfb10b0a82b230e717047&#45;&gt;dir_f695c0e486b1567b2450488137a0ccfa</title>
<path fill="none" stroke="black" d="M56.7294,-252.038C63.2342,-269.135 75.6695,-293.816 96,-305 136.888,-327.494 158.922,-325.179 201,-305 219.944,-295.915 234.582,-277.125 244.279,-261.156"/>
<polygon fill="black" stroke="black" points="247.488,-262.593 249.412,-252.175 241.411,-259.12 247.488,-262.593"/>
<g id="a_edge5&#45;headlabel"><a xlink:href="dir_000029_000030.html" target="_top" xlink:title="1">
<text text-anchor="middle" x="248.17" y="-264.623" font-family="Helvetica,sans-Serif" font-size="10.00">1</text>
</a>
</g>
</g>
<!-- dir_f695c0e486b1567b2450488137a0ccfa&#45;&gt;dir_fc0efe5d2249fba2a29c6d003d9b04e9 -->
<g id="edge3" class="edge"><title>dir_f695c0e486b1567b2450488137a0ccfa&#45;&gt;dir_fc0efe5d2249fba2a29c6d003d9b04e9</title>
<path fill="none" stroke="black" d="M222.215,-234C217.497,-234 212.778,-234 208.06,-234"/>
<polygon fill="black" stroke="black" points="207.731,-230.5 197.73,-234 207.73,-237.5 207.731,-230.5"/>
<g id="a_edge3&#45;headlabel"><a xlink:href="dir_000030_000025.html" target="_top" xlink:title="16">
<text text-anchor="middle" x="211.325" y="-225.161" font-family="Helvetica,sans-Serif" font-size="10.00">16</text>
</a>
</g>
</g>
<!-- dir_f695c0e486b1567b2450488137a0ccfa&#45;&gt;dir_1f675ff36096041079ce357a072edb84 -->
<g id="edge2" class="edge"><title>dir_f695c0e486b1567b2450488137a0ccfa&#45;&gt;dir_1f675ff36096041079ce357a072edb84</title>
<path fill="none" stroke="black" d="M232.559,-215.876C219.213,-206.893 202.676,-195.763 188.222,-186.034"/>
<polygon fill="black" stroke="black" points="189.789,-182.87 179.539,-180.19 185.881,-188.677 189.789,-182.87"/>
<g id="a_edge2&#45;headlabel"><a xlink:href="dir_000030_000026.html" target="_top" xlink:title="2">
<text text-anchor="middle" x="194.357" y="-180.022" font-family="Helvetica,sans-Serif" font-size="10.00">2</text>
</a>
</g>
</g>
<!-- dir_f695c0e486b1567b2450488137a0ccfa&#45;&gt;dir_879d833e0dfbe8f31a5e860bb94efb50 -->
<g id="edge1" class="edge"><title>dir_f695c0e486b1567b2450488137a0ccfa&#45;&gt;dir_879d833e0dfbe8f31a5e860bb94efb50</title>
<path fill="none" stroke="black" d="M256.914,-215.871C255.381,-191.67 252.563,-147.211 250.736,-118.393"/>
<polygon fill="black" stroke="black" points="254.215,-117.948 250.089,-108.189 247.229,-118.391 254.215,-117.948"/>
<g id="a_edge1&#45;headlabel"><a xlink:href="dir_000030_000028.html" target="_top" xlink:title="16">
<text text-anchor="middle" x="257.276" y="-118.856" font-family="Helvetica,sans-Serif" font-size="10.00">16</text>
</a>
</g>
</g>
<!-- dir_f695c0e486b1567b2450488137a0ccfa&#45;&gt;dir_7fa927d8fbf9dfbeef69af27f63bc81b -->
<g id="edge4" class="edge"><title>dir_f695c0e486b1567b2450488137a0ccfa&#45;&gt;dir_7fa927d8fbf9dfbeef69af27f63bc81b</title>
<path fill="none" stroke="black" d="M266.43,-215.711C281.043,-183.21 307.461,-111.295 285,-56 283.245,-51.6796 280.716,-47.5869 277.801,-43.808"/>
<polygon fill="black" stroke="black" points="280.2,-41.2376 270.951,-36.0695 274.958,-45.8773 280.2,-41.2376"/>
<g id="a_edge4&#45;headlabel"><a xlink:href="dir_000030_000015.html" target="_top" xlink:title="3">
<text text-anchor="middle" x="284.708" y="-39.5473" font-family="Helvetica,sans-Serif" font-size="10.00">3</text>
</a>
</g>
</g>
<!-- dir_879d833e0dfbe8f31a5e860bb94efb50&#45;&gt;dir_7fa927d8fbf9dfbeef69af27f63bc81b -->
<g id="edge6" class="edge"><title>dir_879d833e0dfbe8f31a5e860bb94efb50&#45;&gt;dir_7fa927d8fbf9dfbeef69af27f63bc81b</title>
<path fill="none" stroke="black" d="M243.084,-71.6966C242.289,-63.9827 242.062,-54.7125 242.405,-46.1124"/>
<polygon fill="black" stroke="black" points="245.898,-46.3243 243.105,-36.1043 238.915,-45.8356 245.898,-46.3243"/>
<g id="a_edge6&#45;headlabel"><a xlink:href="dir_000028_000015.html" target="_top" xlink:title="2">
<text text-anchor="middle" x="248.48" y="-47.6083" font-family="Helvetica,sans-Serif" font-size="10.00">2</text>
</a>
</g>
</g>
<!-- dir_7fa927d8fbf9dfbeef69af27f63bc81b&#45;&gt;dir_879d833e0dfbe8f31a5e860bb94efb50 -->
<g id="edge11" class="edge"><title>dir_7fa927d8fbf9dfbeef69af27f63bc81b&#45;&gt;dir_879d833e0dfbe8f31a5e860bb94efb50</title>
<path fill="none" stroke="black" d="M254.895,-36.1043C255.701,-43.7913 255.937,-53.0537 255.604,-61.6651"/>
<polygon fill="black" stroke="black" points="252.109,-61.4805 254.916,-71.6966 259.092,-61.9597 252.109,-61.4805"/>
<g id="a_edge11&#45;headlabel"><a xlink:href="dir_000015_000028.html" target="_top" xlink:title="43">
<text text-anchor="middle" x="249.522" y="-55.2" font-family="Helvetica,sans-Serif" font-size="10.00">43</text>
</a>
</g>
</g>
</g>
</svg>
