<?xml version="1.0" encoding="UTF-8" standalone="no"?>
<!DOCTYPE svg PUBLIC "-//W3C//DTD SVG 1.1//EN"
 "http://www.w3.org/Graphics/SVG/1.1/DTD/svg11.dtd">
<!-- Generated by graphviz version 2.38.0 (20140413.2041)
 -->
<!-- Title: /home/travis/build/hypro/hypro/src/hypro/algorithms/reachability/contexts Pages: 1 -->
<svg width="192pt" height="295pt"
 viewBox="0.00 0.00 192.27 295.00" xmlns="http://www.w3.org/2000/svg" xmlns:xlink="http://www.w3.org/1999/xlink">
<g id="graph0" class="graph" transform="scale(1 1) rotate(0) translate(4 291)">
<title>/home/travis/build/hypro/hypro/src/hypro/algorithms/reachability/contexts</title>
<polygon fill="white" stroke="none" points="-4,4 -4,-291 188.272,-291 188.272,4 -4,4"/>
<g id="clust1" class="cluster"><title>clusterdir_6a6edf7123c81d000975d26367682a7a</title>
<g id="a_clust1"><a xlink:href="dir_6a6edf7123c81d000975d26367682a7a.html" target="_top" xlink:title="reachability">
<polygon fill="#ddddee" stroke="black" points="76,-208 76,-279 150,-279 150,-208 76,-208"/>
<text text-anchor="middle" x="113" y="-267" font-family="Helvetica,sans-Serif" font-size="10.00">reachability</text>
</a>
</g>
</g>
<!-- dir_1d177bd438e269a304e1f07d1a6d36f2 -->
<g id="node1" class="node"><title>dir_1d177bd438e269a304e1f07d1a6d36f2</title>
<g id="a_node1"><a xlink:href="dir_1d177bd438e269a304e1f07d1a6d36f2.html" target="_top" xlink:title="contexts">
<polygon fill="#eeeeff" stroke="black" points="142,-252 84,-252 84,-216 142,-216 142,-252"/>
<text text-anchor="middle" x="113" y="-231.5" font-family="Helvetica,sans-Serif" font-size="10.00">contexts</text>
</a>
</g>
</g>
<!-- dir_32033642301c2effdf6af876d53153c1 -->
<g id="node2" class="node"><title>dir_32033642301c2effdf6af876d53153c1</title>
<g id="a_node2"><a xlink:href="dir_32033642301c2effdf6af876d53153c1.html" target="_top" xlink:title="handlers">
<polygon fill="white" stroke="red" points="58,-180 3.55271e-15,-180 3.55271e-15,-144 58,-144 58,-180"/>
<text text-anchor="middle" x="29" y="-159.5" font-family="Helvetica,sans-Serif" font-size="10.00">handlers</text>
</a>
</g>
</g>
<!-- dir_1d177bd438e269a304e1f07d1a6d36f2&#45;&gt;dir_32033642301c2effdf6af876d53153c1 -->
<g id="edge2" class="edge"><title>dir_1d177bd438e269a304e1f07d1a6d36f2&#45;&gt;dir_32033642301c2effdf6af876d53153c1</title>
<path fill="none" stroke="black" d="M92.2359,-215.697C81.7586,-206.965 68.8886,-196.24 57.5003,-186.75"/>
<polygon fill="black" stroke="black" points="59.4481,-183.817 49.5252,-180.104 54.9668,-189.195 59.4481,-183.817"/>
<g id="a_edge2&#45;headlabel"><a xlink:href="dir_000008_000009.html" target="_top" xlink:title="5">
<text text-anchor="middle" x="64.0272" y="-181.437" font-family="Helvetica,sans-Serif" font-size="10.00">5</text>
</a>
</g>
</g>
<!-- dir_879d833e0dfbe8f31a5e860bb94efb50 -->
<g id="node3" class="node"><title>dir_879d833e0dfbe8f31a5e860bb94efb50</title>
<g id="a_node3"><a xlink:href="dir_879d833e0dfbe8f31a5e860bb94efb50.html" target="_top" xlink:title="util">
<polygon fill="white" stroke="red" points="149,-36 95,-36 95,-0 149,-0 149,-36"/>
<text text-anchor="middle" x="122" y="-15.5" font-family="Helvetica,sans-Serif" font-size="10.00">util</text>
</a>
</g>
</g>
<!-- dir_1d177bd438e269a304e1f07d1a6d36f2&#45;&gt;dir_879d833e0dfbe8f31a5e860bb94efb50 -->
<g id="edge3" class="edge"><title>dir_1d177bd438e269a304e1f07d1a6d36f2&#45;&gt;dir_879d833e0dfbe8f31a5e860bb94efb50</title>
<path fill="none" stroke="black" d="M142.093,-217.057C155.352,-208.08 169.694,-195.535 177,-180 198.692,-133.871 166.143,-76.7688 142.625,-44.4518"/>
<polygon fill="black" stroke="black" points="145.387,-42.3005 136.582,-36.4074 139.79,-46.5049 145.387,-42.3005"/>
<g id="a_edge3&#45;headlabel"><a xlink:href="dir_000008_000028.html" target="_top" xlink:title="6">
<text text-anchor="middle" x="149.816" y="-40.9692" font-family="Helvetica,sans-Serif" font-size="10.00">6</text>
</a>
</g>
</g>
<!-- dir_bce2075adec303dcb2f0c4fbfcbc8493 -->
<g id="node4" class="node"><title>dir_bce2075adec303dcb2f0c4fbfcbc8493</title>
<g id="a_node4"><a xlink:href="dir_bce2075adec303dcb2f0c4fbfcbc8493.html" target="_top" xlink:title="datastructures">
<polygon fill="white" stroke="red" points="129.5,-108 42.5,-108 42.5,-72 129.5,-72 129.5,-108"/>
<text text-anchor="middle" x="86" y="-87.5" font-family="Helvetica,sans-Serif" font-size="10.00">datastructures</text>
</a>
</g>
</g>
<!-- dir_1d177bd438e269a304e1f07d1a6d36f2&#45;&gt;dir_bce2075adec303dcb2f0c4fbfcbc8493 -->
<g id="edge4" class="edge"><title>dir_1d177bd438e269a304e1f07d1a6d36f2&#45;&gt;dir_bce2075adec303dcb2f0c4fbfcbc8493</title>
<path fill="none" stroke="black" d="M109.743,-215.871C105.142,-191.67 96.688,-147.211 91.2086,-118.393"/>
<polygon fill="black" stroke="black" points="94.5748,-117.359 89.2684,-108.189 87.698,-118.667 94.5748,-117.359"/>
<g id="a_edge4&#45;headlabel"><a xlink:href="dir_000008_000024.html" target="_top" xlink:title="19">
<text text-anchor="middle" x="98.0355" y="-117.86" font-family="Helvetica,sans-Serif" font-size="10.00">19</text>
</a>
</g>
</g>
<!-- dir_519994d85a4cf46cf1798a8eeb04af9e -->
<g id="node5" class="node"><title>dir_519994d85a4cf46cf1798a8eeb04af9e</title>
<g id="a_node5"><a xlink:href="dir_519994d85a4cf46cf1798a8eeb04af9e.html" target="_top" xlink:title="workers">
<polygon fill="none" stroke="black" points="168,-180 114,-180 114,-144 168,-144 168,-180"/>
<text text-anchor="middle" x="141" y="-159.5" font-family="Helvetica,sans-Serif" font-size="10.00">workers</text>
</a>
</g>
</g>
<!-- dir_1d177bd438e269a304e1f07d1a6d36f2&#45;&gt;dir_519994d85a4cf46cf1798a8eeb04af9e -->
<g id="edge5" class="edge"><title>dir_1d177bd438e269a304e1f07d1a6d36f2&#45;&gt;dir_519994d85a4cf46cf1798a8eeb04af9e</title>
<path fill="none" stroke="black" d="M114.006,-215.697C116.371,-207.728 120.008,-198.1 123.935,-189.264"/>
<polygon fill="black" stroke="black" points="127.155,-190.641 128.263,-180.104 120.826,-187.65 127.155,-190.641"/>
<g id="a_edge5&#45;headlabel"><a xlink:href="dir_000008_000023.html" target="_top" xlink:title="3">
<text text-anchor="middle" x="128.187" y="-192.604" font-family="Helvetica,sans-Serif" font-size="10.00">3</text>
</a>
</g>
</g>
<!-- dir_32033642301c2effdf6af876d53153c1&#45;&gt;dir_bce2075adec303dcb2f0c4fbfcbc8493 -->
<g id="edge1" class="edge"><title>dir_32033642301c2effdf6af876d53153c1&#45;&gt;dir_bce2075adec303dcb2f0c4fbfcbc8493</title>
<path fill="none" stroke="black" d="M43.0899,-143.697C49.9234,-135.305 58.2569,-125.07 65.7558,-115.861"/>
<polygon fill="black" stroke="black" points="68.4719,-118.069 72.0722,-108.104 63.0439,-113.649 68.4719,-118.069"/>
<g id="a_edge1&#45;headlabel"><a xlink:href="dir_000009_000024.html" target="_top" xlink:title="22">
<text text-anchor="middle" x="68.4039" y="-120.149" font-family="Helvetica,sans-Serif" font-size="10.00">22</text>
</a>
</g>
</g>
<!-- dir_879d833e0dfbe8f31a5e860bb94efb50&#45;&gt;dir_bce2075adec303dcb2f0c4fbfcbc8493 -->
<g id="edge6" class="edge"><title>dir_879d833e0dfbe8f31a5e860bb94efb50&#45;&gt;dir_bce2075adec303dcb2f0c4fbfcbc8493</title>
<path fill="none" stroke="black" d="M119.099,-36.1043C115.812,-44.1291 111.023,-53.871 106.033,-62.7967"/>
<polygon fill="black" stroke="black" points="102.853,-61.2998 100.815,-71.6966 108.892,-64.8403 102.853,-61.2998"/>
<g id="a_edge6&#45;headlabel"><a xlink:href="dir_000028_000024.html" target="_top" xlink:title="12">
<text text-anchor="middle" x="102.222" y="-54.2628" font-family="Helvetica,sans-Serif" font-size="10.00">12</text>
</a>
</g>
</g>
<!-- dir_bce2075adec303dcb2f0c4fbfcbc8493&#45;&gt;dir_879d833e0dfbe8f31a5e860bb94efb50 -->
<g id="edge7" class="edge"><title>dir_bce2075adec303dcb2f0c4fbfcbc8493&#45;&gt;dir_879d833e0dfbe8f31a5e860bb94efb50</title>
<path fill="none" stroke="black" d="M88.9832,-71.6966C92.294,-63.6436 97.0975,-53.8945 102.091,-44.9824"/>
<polygon fill="black" stroke="black" points="105.259,-46.4991 107.308,-36.1043 99.2242,-42.9523 105.259,-46.4991"/>
<g id="a_edge7&#45;headlabel"><a xlink:href="dir_000024_000028.html" target="_top" xlink:title="25">
<text text-anchor="middle" x="105.886" y="-48.5367" font-family="Helvetica,sans-Serif" font-size="10.00">25</text>
</a>
</g>
</g>
<!-- dir_519994d85a4cf46cf1798a8eeb04af9e&#45;&gt;dir_1d177bd438e269a304e1f07d1a6d36f2 -->
<g id="edge8" class="edge"><title>dir_519994d85a4cf46cf1798a8eeb04af9e&#45;&gt;dir_1d177bd438e269a304e1f07d1a6d36f2</title>
<path fill="none" stroke="black" d="M140.053,-180.104C137.709,-188.045 134.085,-197.666 130.163,-206.515"/>
<polygon fill="black" stroke="black" points="126.933,-205.159 125.837,-215.697 133.266,-208.142 126.933,-205.159"/>
<g id="a_edge8&#45;headlabel"><a xlink:href="dir_000023_000008.html" target="_top" xlink:title="3">
<text text-anchor="middle" x="125.897" y="-198.197" font-family="Helvetica,sans-Serif" font-size="10.00">3</text>
</a>
</g>
</g>
<!-- dir_519994d85a4cf46cf1798a8eeb04af9e&#45;&gt;dir_879d833e0dfbe8f31a5e860bb94efb50 -->
<g id="edge9" class="edge"><title>dir_519994d85a4cf46cf1798a8eeb04af9e&#45;&gt;dir_879d833e0dfbe8f31a5e860bb94efb50</title>
<path fill="none" stroke="black" d="M141.732,-143.809C142.194,-125.788 142.075,-96.7117 138,-72 136.577,-63.3701 134.144,-54.1785 131.598,-45.915"/>
<polygon fill="black" stroke="black" points="134.923,-44.8207 128.499,-36.3959 128.267,-46.9882 134.923,-44.8207"/>
<g id="a_edge9&#45;headlabel"><a xlink:href="dir_000023_000028.html" target="_top" xlink:title="2">
<text text-anchor="middle" x="138.736" y="-44.8595" font-family="Helvetica,sans-Serif" font-size="10.00">2</text>
</a>
</g>
</g>
<!-- dir_519994d85a4cf46cf1798a8eeb04af9e&#45;&gt;dir_bce2075adec303dcb2f0c4fbfcbc8493 -->
<g id="edge10" class="edge"><title>dir_519994d85a4cf46cf1798a8eeb04af9e&#45;&gt;dir_bce2075adec303dcb2f0c4fbfcbc8493</title>
<path fill="none" stroke="black" d="M127.404,-143.697C120.877,-135.389 112.932,-125.277 105.753,-116.141"/>
<polygon fill="black" stroke="black" points="108.369,-113.805 99.4391,-108.104 102.865,-118.13 108.369,-113.805"/>
<g id="a_edge10&#45;headlabel"><a xlink:href="dir_000023_000024.html" target="_top" xlink:title="9">
<text text-anchor="middle" x="112.823" y="-112.377" font-family="Helvetica,sans-Serif" font-size="10.00">9</text>
</a>
</g>
</g>
</g>
</svg>
