<?xml version="1.0" encoding="UTF-8" standalone="no"?>
<!DOCTYPE svg PUBLIC "-//W3C//DTD SVG 1.1//EN"
 "http://www.w3.org/Graphics/SVG/1.1/DTD/svg11.dtd">
<!-- Generated by graphviz version 2.38.0 (20140413.2041)
 -->
<!-- Title: /home/travis/build/hypro/hypro/src/hypro/representations/Polytopes/HPolytope Pages: 1 -->
<svg width="122pt" height="223pt"
 viewBox="0.00 0.00 122.00 223.00" xmlns="http://www.w3.org/2000/svg" xmlns:xlink="http://www.w3.org/1999/xlink">
<g id="graph0" class="graph" transform="scale(1 1) rotate(0) translate(4 219)">
<title>/home/travis/build/hypro/hypro/src/hypro/representations/Polytopes/HPolytope</title>
<polygon fill="white" stroke="none" points="-4,4 -4,-219 118,-219 118,4 -4,4"/>
<g id="clust1" class="cluster"><title>clusterdir_ad938787f25f17484dcf7b42a899a1a5</title>
<g id="a_clust1"><a xlink:href="dir_ad938787f25f17484dcf7b42a899a1a5.html" target="_top" xlink:title="Polytopes">
<polygon fill="#ddddee" stroke="black" points="8,-136 8,-207 90,-207 90,-136 8,-136"/>
<text text-anchor="middle" x="49" y="-195" font-family="Helvetica,sans-Serif" font-size="10.00">Polytopes</text>
</a>
</g>
</g>
<!-- dir_19f7ed9a1a9707d41c15619f6b9af49c -->
<g id="node1" class="node"><title>dir_19f7ed9a1a9707d41c15619f6b9af49c</title>
<g id="a_node1"><a xlink:href="dir_19f7ed9a1a9707d41c15619f6b9af49c.html" target="_top" xlink:title="HPolytope">
<polygon fill="#eeeeff" stroke="black" points="81.5,-180 16.5,-180 16.5,-144 81.5,-144 81.5,-180"/>
<text text-anchor="middle" x="49" y="-159.5" font-family="Helvetica,sans-Serif" font-size="10.00">HPolytope</text>
</a>
</g>
</g>
<!-- dir_879d833e0dfbe8f31a5e860bb94efb50 -->
<g id="node2" class="node"><title>dir_879d833e0dfbe8f31a5e860bb94efb50</title>
<g id="a_node2"><a xlink:href="dir_879d833e0dfbe8f31a5e860bb94efb50.html" target="_top" xlink:title="util">
<polygon fill="white" stroke="red" points="76,-36 22,-36 22,-0 76,-0 76,-36"/>
<text text-anchor="middle" x="49" y="-15.5" font-family="Helvetica,sans-Serif" font-size="10.00">util</text>
</a>
</g>
</g>
<!-- dir_19f7ed9a1a9707d41c15619f6b9af49c&#45;&gt;dir_879d833e0dfbe8f31a5e860bb94efb50 -->
<g id="edge1" class="edge"><title>dir_19f7ed9a1a9707d41c15619f6b9af49c&#45;&gt;dir_879d833e0dfbe8f31a5e860bb94efb50</title>
<path fill="none" stroke="black" d="M44.1309,-143.979C41.4358,-133.665 38.3626,-120.189 37,-108 35.2224,-92.0991 35.2224,-87.9009 37,-72 37.9581,-63.4299 39.7618,-54.2228 41.6852,-45.9264"/>
<polygon fill="black" stroke="black" points="45.1318,-46.5684 44.1309,-36.0209 38.3358,-44.8904 45.1318,-46.5684"/>
<g id="a_edge1&#45;headlabel"><a xlink:href="dir_000046_000028.html" target="_top" xlink:title="4">
<text text-anchor="middle" x="47.0267" y="-48.2387" font-family="Helvetica,sans-Serif" font-size="10.00">4</text>
</a>
</g>
</g>
<!-- dir_55730fee9a0c1f12da77eb14a8325c4c -->
<g id="node3" class="node"><title>dir_55730fee9a0c1f12da77eb14a8325c4c</title>
<g id="a_node3"><a xlink:href="dir_55730fee9a0c1f12da77eb14a8325c4c.html" target="_top" xlink:title="algorithms">
<polygon fill="white" stroke="red" points="114,-108 46,-108 46,-72 114,-72 114,-108"/>
<text text-anchor="middle" x="80" y="-87.5" font-family="Helvetica,sans-Serif" font-size="10.00">algorithms</text>
</a>
</g>
</g>
<!-- dir_19f7ed9a1a9707d41c15619f6b9af49c&#45;&gt;dir_55730fee9a0c1f12da77eb14a8325c4c -->
<g id="edge2" class="edge"><title>dir_19f7ed9a1a9707d41c15619f6b9af49c&#45;&gt;dir_55730fee9a0c1f12da77eb14a8325c4c</title>
<path fill="none" stroke="black" d="M56.6629,-143.697C60.1917,-135.728 64.4559,-126.1 68.3687,-117.264"/>
<polygon fill="black" stroke="black" points="71.5761,-118.665 72.4252,-108.104 65.1757,-115.831 71.5761,-118.665"/>
<g id="a_edge2&#45;headlabel"><a xlink:href="dir_000046_000003.html" target="_top" xlink:title="1">
<text text-anchor="middle" x="72.7167" y="-120.602" font-family="Helvetica,sans-Serif" font-size="10.00">1</text>
</a>
</g>
</g>
<!-- dir_55730fee9a0c1f12da77eb14a8325c4c&#45;&gt;dir_879d833e0dfbe8f31a5e860bb94efb50 -->
<g id="edge3" class="edge"><title>dir_55730fee9a0c1f12da77eb14a8325c4c&#45;&gt;dir_879d833e0dfbe8f31a5e860bb94efb50</title>
<path fill="none" stroke="black" d="M72.3371,-71.6966C68.8083,-63.7284 64.5441,-54.0995 60.6313,-45.2641"/>
<polygon fill="black" stroke="black" points="63.8243,-43.8306 56.5748,-36.1043 57.4239,-46.6651 63.8243,-43.8306"/>
<g id="a_edge3&#45;headlabel"><a xlink:href="dir_000003_000028.html" target="_top" xlink:title="11">
<text text-anchor="middle" x="67.8759" y="-43.4676" font-family="Helvetica,sans-Serif" font-size="10.00">11</text>
</a>
</g>
</g>
</g>
</svg>
