<?xml version="1.0" encoding="UTF-8" standalone="no"?>
<!DOCTYPE svg PUBLIC "-//W3C//DTD SVG 1.1//EN"
 "http://www.w3.org/Graphics/SVG/1.1/DTD/svg11.dtd">
<!-- Generated by graphviz version 2.38.0 (20140413.2041)
 -->
<!-- Title: /home/travis/build/hypro/hypro/src/hypro/representations/SupportFunction/EllipsoidSupportFunction.h Pages: 1 -->
<svg width="1808pt" height="430pt"
 viewBox="0.00 0.00 1808.00 430.00" xmlns="http://www.w3.org/2000/svg" xmlns:xlink="http://www.w3.org/1999/xlink">
<g id="graph0" class="graph" transform="scale(1 1) rotate(0) translate(4 426)">
<title>/home/travis/build/hypro/hypro/src/hypro/representations/SupportFunction/EllipsoidSupportFunction.h</title>
<polygon fill="white" stroke="none" points="-4,4 -4,-426 1804,-426 1804,4 -4,4"/>
<!-- Node1 -->
<g id="node1" class="node"><title>Node1</title>
<polygon fill="#bfbfbf" stroke="black" points="1071.5,-369.5 1071.5,-421.5 1247.5,-421.5 1247.5,-369.5 1071.5,-369.5"/>
<text text-anchor="start" x="1079.5" y="-409.5" font-family="Helvetica,sans-Serif" font-size="10.00">/home/travis/build</text>
<text text-anchor="start" x="1079.5" y="-398.5" font-family="Helvetica,sans-Serif" font-size="10.00">/hypro/hypro/src/hypro</text>
<text text-anchor="start" x="1079.5" y="-387.5" font-family="Helvetica,sans-Serif" font-size="10.00">/representations/SupportFunction</text>
<text text-anchor="middle" x="1159.5" y="-376.5" font-family="Helvetica,sans-Serif" font-size="10.00">/EllipsoidSupportFunction.h</text>
</g>
<!-- Node2 -->
<g id="node2" class="node"><title>Node2</title>
<g id="a_node2"><a xlink:href="config_8h.html" target="_top" xlink:title="../../config.h">
<polygon fill="white" stroke="black" points="931.5,-257.5 931.5,-276.5 1003.5,-276.5 1003.5,-257.5 931.5,-257.5"/>
<text text-anchor="middle" x="967.5" y="-264.5" font-family="Helvetica,sans-Serif" font-size="10.00">../../config.h</text>
</a>
</g>
</g>
<!-- Node1&#45;&gt;Node2 -->
<g id="edge1" class="edge"><title>Node1&#45;&gt;Node2</title>
<path fill="none" stroke="midnightblue" d="M1121.11,-369.205C1081.47,-343.087 1021.03,-303.267 989.063,-282.207"/>
<polygon fill="midnightblue" stroke="midnightblue" points="990.753,-279.129 980.477,-276.55 986.902,-284.974 990.753,-279.129"/>
</g>
<!-- Node28 -->
<g id="node28" class="node"><title>Node28</title>
<g id="a_node28"><a xlink:href="representations_2SupportFunction_2util_8h.html" target="_top" xlink:title="util.h">
<polygon fill="white" stroke="black" points="1139.5,-313.5 1139.5,-332.5 1179.5,-332.5 1179.5,-313.5 1139.5,-313.5"/>
<text text-anchor="middle" x="1159.5" y="-320.5" font-family="Helvetica,sans-Serif" font-size="10.00">util.h</text>
</a>
</g>
</g>
<!-- Node1&#45;&gt;Node28 -->
<g id="edge35" class="edge"><title>Node1&#45;&gt;Node28</title>
<path fill="none" stroke="midnightblue" d="M1159.5,-369.446C1159.5,-360.73 1159.5,-351.104 1159.5,-342.964"/>
<polygon fill="midnightblue" stroke="midnightblue" points="1163,-342.695 1159.5,-332.695 1156,-342.696 1163,-342.695"/>
</g>
<!-- Node29 -->
<g id="node29" class="node"><title>Node29</title>
<polygon fill="white" stroke="#bfbfbf" points="1197.5,-313.5 1197.5,-332.5 1349.5,-332.5 1349.5,-313.5 1197.5,-313.5"/>
<text text-anchor="middle" x="1273.5" y="-320.5" font-family="Helvetica,sans-Serif" font-size="10.00">EllipsoidSupportFunction.tpp</text>
</g>
<!-- Node1&#45;&gt;Node29 -->
<g id="edge39" class="edge"><title>Node1&#45;&gt;Node29</title>
<path fill="none" stroke="midnightblue" d="M1200.01,-369.446C1217.13,-358.862 1236.41,-346.936 1250.93,-337.958"/>
<polygon fill="midnightblue" stroke="midnightblue" points="1253.05,-340.763 1259.71,-332.527 1249.37,-334.81 1253.05,-340.763"/>
</g>
<!-- Node3 -->
<g id="node3" class="node"><title>Node3</title>
<g id="a_node3"><a xlink:href="flags_8h.html" target="_top" xlink:title="flags.h">
<polygon fill="white" stroke="black" points="706.5,-145.5 706.5,-164.5 754.5,-164.5 754.5,-145.5 706.5,-145.5"/>
<text text-anchor="middle" x="730.5" y="-152.5" font-family="Helvetica,sans-Serif" font-size="10.00">flags.h</text>
</a>
</g>
</g>
<!-- Node2&#45;&gt;Node3 -->
<g id="edge2" class="edge"><title>Node2&#45;&gt;Node3</title>
<path fill="none" stroke="midnightblue" d="M945.152,-257.368C922.963,-248.658 888.079,-234.591 858.5,-221 822.152,-204.299 781.07,-182.991 755.475,-169.416"/>
<polygon fill="midnightblue" stroke="midnightblue" points="756.938,-166.23 746.467,-164.618 753.648,-172.408 756.938,-166.23"/>
</g>
<!-- Node4 -->
<g id="node4" class="node"><title>Node4</title>
<g id="a_node4"><a xlink:href="util_2convenienceOperators_8h.html" target="_top" xlink:title="util/convenienceOperators.h">
<polygon fill="white" stroke="black" points="868,-201.5 868,-220.5 1019,-220.5 1019,-201.5 868,-201.5"/>
<text text-anchor="middle" x="943.5" y="-208.5" font-family="Helvetica,sans-Serif" font-size="10.00">util/convenienceOperators.h</text>
</a>
</g>
</g>
<!-- Node2&#45;&gt;Node4 -->
<g id="edge3" class="edge"><title>Node2&#45;&gt;Node4</title>
<path fill="none" stroke="midnightblue" d="M963.537,-257.083C960.287,-249.77 955.581,-239.181 951.546,-230.103"/>
<polygon fill="midnightblue" stroke="midnightblue" points="954.649,-228.468 947.389,-220.751 948.252,-231.311 954.649,-228.468"/>
</g>
<!-- Node21 -->
<g id="node21" class="node"><title>Node21</title>
<g id="a_node21"><a xlink:href="Logger_8h.html" target="_top" xlink:title="util/logging/Logger.h">
<polygon fill="white" stroke="black" points="500,-201.5 500,-220.5 613,-220.5 613,-201.5 500,-201.5"/>
<text text-anchor="middle" x="556.5" y="-208.5" font-family="Helvetica,sans-Serif" font-size="10.00">util/logging/Logger.h</text>
</a>
</g>
</g>
<!-- Node2&#45;&gt;Node21 -->
<g id="edge27" class="edge"><title>Node2&#45;&gt;Node21</title>
<path fill="none" stroke="midnightblue" d="M931.387,-261.255C862.424,-252.194 711.048,-232.306 623.203,-220.764"/>
<polygon fill="midnightblue" stroke="midnightblue" points="623.447,-217.266 613.077,-219.433 622.535,-224.206 623.447,-217.266"/>
</g>
<!-- Node5 -->
<g id="node5" class="node"><title>Node5</title>
<g id="a_node5"><a xlink:href="types_8h.html" target="_top" xlink:title="../types.h">
<polygon fill="white" stroke="black" points="1057,-145.5 1057,-164.5 1118,-164.5 1118,-145.5 1057,-145.5"/>
<text text-anchor="middle" x="1087.5" y="-152.5" font-family="Helvetica,sans-Serif" font-size="10.00">../types.h</text>
</a>
</g>
</g>
<!-- Node4&#45;&gt;Node5 -->
<g id="edge4" class="edge"><title>Node4&#45;&gt;Node5</title>
<path fill="none" stroke="midnightblue" d="M966.317,-201.444C990.332,-192.438 1028.33,-178.189 1055.37,-168.049"/>
<polygon fill="midnightblue" stroke="midnightblue" points="1056.66,-171.305 1064.79,-164.516 1054.2,-164.751 1056.66,-171.305"/>
</g>
<!-- Node10 -->
<g id="node10" class="node"><title>Node10</title>
<polygon fill="white" stroke="#bfbfbf" points="900.5,-11.5 900.5,-30.5 946.5,-30.5 946.5,-11.5 900.5,-11.5"/>
<text text-anchor="middle" x="923.5" y="-18.5" font-family="Helvetica,sans-Serif" font-size="10.00">iosfwd</text>
</g>
<!-- Node4&#45;&gt;Node10 -->
<g id="edge22" class="edge"><title>Node4&#45;&gt;Node10</title>
<path fill="none" stroke="midnightblue" d="M889.032,-201.427C864.887,-195.068 837.853,-184.048 819.5,-165 801.36,-146.174 805.549,-134.828 801.5,-109 799.366,-95.3885 794.062,-89.5978 801.5,-78 820.884,-47.7732 861.129,-33.6458 890.102,-27.1878"/>
<polygon fill="midnightblue" stroke="midnightblue" points="891.101,-30.5566 900.206,-25.14 889.71,-23.6961 891.101,-30.5566"/>
</g>
<!-- Node11 -->
<g id="node11" class="node"><title>Node11</title>
<polygon fill="white" stroke="#bfbfbf" points="810.5,-84 810.5,-103 842.5,-103 842.5,-84 810.5,-84"/>
<text text-anchor="middle" x="826.5" y="-91" font-family="Helvetica,sans-Serif" font-size="10.00">set</text>
</g>
<!-- Node4&#45;&gt;Node11 -->
<g id="edge24" class="edge"><title>Node4&#45;&gt;Node11</title>
<path fill="none" stroke="midnightblue" d="M934.706,-201.319C915.141,-182.004 867.766,-135.237 842.69,-110.483"/>
<polygon fill="midnightblue" stroke="midnightblue" points="844.971,-107.817 835.396,-103.282 840.054,-112.798 844.971,-107.817"/>
</g>
<!-- Node18 -->
<g id="node18" class="node"><title>Node18</title>
<polygon fill="white" stroke="#bfbfbf" points="828.5,-145.5 828.5,-164.5 866.5,-164.5 866.5,-145.5 828.5,-145.5"/>
<text text-anchor="middle" x="847.5" y="-152.5" font-family="Helvetica,sans-Serif" font-size="10.00">map</text>
</g>
<!-- Node4&#45;&gt;Node18 -->
<g id="edge23" class="edge"><title>Node4&#45;&gt;Node18</title>
<path fill="none" stroke="midnightblue" d="M928.076,-201.324C912.96,-192.822 889.685,-179.729 872.029,-169.797"/>
<polygon fill="midnightblue" stroke="midnightblue" points="873.317,-166.507 862.886,-164.655 869.886,-172.608 873.317,-166.507"/>
</g>
<!-- Node19 -->
<g id="node19" class="node"><title>Node19</title>
<polygon fill="white" stroke="#bfbfbf" points="922.5,-145.5 922.5,-164.5 964.5,-164.5 964.5,-145.5 922.5,-145.5"/>
<text text-anchor="middle" x="943.5" y="-152.5" font-family="Helvetica,sans-Serif" font-size="10.00">utility</text>
</g>
<!-- Node4&#45;&gt;Node19 -->
<g id="edge25" class="edge"><title>Node4&#45;&gt;Node19</title>
<path fill="none" stroke="midnightblue" d="M943.5,-201.083C943.5,-194.006 943.5,-183.861 943.5,-174.986"/>
<polygon fill="midnightblue" stroke="midnightblue" points="947,-174.751 943.5,-164.751 940,-174.751 947,-174.751"/>
</g>
<!-- Node20 -->
<g id="node20" class="node"><title>Node20</title>
<polygon fill="white" stroke="#bfbfbf" points="983,-145.5 983,-164.5 1030,-164.5 1030,-145.5 983,-145.5"/>
<text text-anchor="middle" x="1006.5" y="-152.5" font-family="Helvetica,sans-Serif" font-size="10.00">vector</text>
</g>
<!-- Node4&#45;&gt;Node20 -->
<g id="edge26" class="edge"><title>Node4&#45;&gt;Node20</title>
<path fill="none" stroke="midnightblue" d="M953.622,-201.324C963.026,-193.263 977.244,-181.077 988.569,-171.369"/>
<polygon fill="midnightblue" stroke="midnightblue" points="990.879,-173.999 996.194,-164.834 986.323,-168.684 990.879,-173.999"/>
</g>
<!-- Node6 -->
<g id="node6" class="node"><title>Node6</title>
<polygon fill="white" stroke="#bfbfbf" points="1094.5,-11.5 1094.5,-30.5 1228.5,-30.5 1228.5,-11.5 1094.5,-11.5"/>
<text text-anchor="middle" x="1161.5" y="-18.5" font-family="Helvetica,sans-Serif" font-size="10.00">carl/numbers/numbers.h</text>
</g>
<!-- Node5&#45;&gt;Node6 -->
<g id="edge5" class="edge"><title>Node5&#45;&gt;Node6</title>
<path fill="none" stroke="midnightblue" d="M1096.8,-145.457C1105.66,-136.924 1118.87,-123.083 1127.5,-109 1141.03,-86.909 1150.92,-58.5104 1156.43,-40.2786"/>
<polygon fill="midnightblue" stroke="midnightblue" points="1159.81,-41.1947 1159.24,-30.6155 1153.09,-39.2446 1159.81,-41.1947"/>
</g>
<!-- Node7 -->
<g id="node7" class="node"><title>Node7</title>
<polygon fill="white" stroke="#bfbfbf" points="860.5,-84 860.5,-103 946.5,-103 946.5,-84 860.5,-84"/>
<text text-anchor="middle" x="903.5" y="-91" font-family="Helvetica,sans-Serif" font-size="10.00">carl/util/hash.h</text>
</g>
<!-- Node5&#45;&gt;Node7 -->
<g id="edge6" class="edge"><title>Node5&#45;&gt;Node7</title>
<path fill="none" stroke="midnightblue" d="M1061.14,-145.475C1029.16,-135.136 975.124,-117.661 939.378,-106.102"/>
<polygon fill="midnightblue" stroke="midnightblue" points="940.406,-102.756 929.814,-103.009 938.252,-109.416 940.406,-102.756"/>
</g>
<!-- Node8 -->
<g id="node8" class="node"><title>Node8</title>
<polygon fill="white" stroke="#bfbfbf" points="964.5,-84 964.5,-103 1068.5,-103 1068.5,-84 964.5,-84"/>
<text text-anchor="middle" x="1016.5" y="-91" font-family="Helvetica,sans-Serif" font-size="10.00">eigen3/Eigen/Core</text>
</g>
<!-- Node5&#45;&gt;Node8 -->
<g id="edge7" class="edge"><title>Node5&#45;&gt;Node8</title>
<path fill="none" stroke="midnightblue" d="M1077.33,-145.475C1066.15,-136.108 1047.98,-120.884 1034.41,-109.508"/>
<polygon fill="midnightblue" stroke="midnightblue" points="1036.57,-106.75 1026.65,-103.009 1032.07,-112.115 1036.57,-106.75"/>
</g>
<!-- Node9 -->
<g id="node9" class="node"><title>Node9</title>
<polygon fill="white" stroke="#bfbfbf" points="964.5,-11.5 964.5,-30.5 1076.5,-30.5 1076.5,-11.5 964.5,-11.5"/>
<text text-anchor="middle" x="1020.5" y="-18.5" font-family="Helvetica,sans-Serif" font-size="10.00">eigen3/Eigen/Dense</text>
</g>
<!-- Node5&#45;&gt;Node9 -->
<g id="edge8" class="edge"><title>Node5&#45;&gt;Node9</title>
<path fill="none" stroke="midnightblue" d="M1094.51,-145.088C1105.17,-130.378 1122.95,-100.414 1110.5,-78 1099.06,-57.4012 1076.54,-43.3985 1056.9,-34.5468"/>
<polygon fill="midnightblue" stroke="midnightblue" points="1058.12,-31.2638 1047.55,-30.6089 1055.4,-37.7153 1058.12,-31.2638"/>
</g>
<!-- Node5&#45;&gt;Node10 -->
<g id="edge9" class="edge"><title>Node5&#45;&gt;Node10</title>
<path fill="none" stroke="midnightblue" d="M1089.13,-145.283C1091.48,-129.774 1093.93,-97.2193 1077.5,-78 1040.76,-35.0293 1007.06,-65.195 955.5,-42 951.71,-40.2948 947.833,-38.2066 944.146,-36.0299"/>
<polygon fill="midnightblue" stroke="midnightblue" points="945.853,-32.969 935.525,-30.6046 942.124,-38.8934 945.853,-32.969"/>
</g>
<!-- Node5&#45;&gt;Node11 -->
<g id="edge10" class="edge"><title>Node5&#45;&gt;Node11</title>
<path fill="none" stroke="midnightblue" d="M1056.92,-148.306C994.169,-136.606 856.324,-110.799 851.5,-109 850.466,-108.614 849.425,-108.188 848.385,-107.73"/>
<polygon fill="midnightblue" stroke="midnightblue" points="849.814,-104.529 839.324,-103.044 846.599,-110.747 849.814,-104.529"/>
</g>
<!-- Node12 -->
<g id="node12" class="node"><title>Node12</title>
<g id="a_node12"><a xlink:href="adaptions__eigen_8h.html" target="_top" xlink:title="util/adaptions_eigen\l/adaptions_eigen.h">
<polygon fill="white" stroke="black" points="1201,-78.5 1201,-108.5 1314,-108.5 1314,-78.5 1201,-78.5"/>
<text text-anchor="start" x="1209" y="-96.5" font-family="Helvetica,sans-Serif" font-size="10.00">util/adaptions_eigen</text>
<text text-anchor="middle" x="1257.5" y="-85.5" font-family="Helvetica,sans-Serif" font-size="10.00">/adaptions_eigen.h</text>
</a>
</g>
</g>
<!-- Node5&#45;&gt;Node12 -->
<g id="edge11" class="edge"><title>Node5&#45;&gt;Node12</title>
<path fill="none" stroke="midnightblue" d="M1106.96,-145.475C1130.01,-136.739 1169.1,-122.907 1201.71,-111.855"/>
<polygon fill="midnightblue" stroke="midnightblue" points="1203.25,-115.033 1211.6,-108.523 1201.01,-108.399 1203.25,-115.033"/>
</g>
<!-- Node12&#45;&gt;Node2 -->
<g id="edge12" class="edge"><title>Node12&#45;&gt;Node2</title>
<path fill="none" stroke="midnightblue" d="M1233.78,-108.53C1179.13,-140.848 1044.91,-220.219 990.739,-252.257"/>
<polygon fill="midnightblue" stroke="midnightblue" points="988.707,-249.392 981.881,-257.495 992.27,-255.418 988.707,-249.392"/>
</g>
<!-- Node12&#45;&gt;Node5 -->
<g id="edge13" class="edge"><title>Node12&#45;&gt;Node5</title>
<path fill="none" stroke="midnightblue" d="M1223.26,-108.523C1195.28,-118.782 1155.86,-132.542 1126.63,-142.23"/>
<polygon fill="midnightblue" stroke="midnightblue" points="1125.17,-139.029 1116.76,-145.475 1127.35,-145.679 1125.17,-139.029"/>
</g>
<!-- Node12&#45;&gt;Node6 -->
<g id="edge15" class="edge"><title>Node12&#45;&gt;Node6</title>
<path fill="none" stroke="midnightblue" d="M1238.07,-78.2333C1221.71,-66.2156 1198.38,-49.0819 1181.78,-36.8912"/>
<polygon fill="midnightblue" stroke="midnightblue" points="1183.47,-33.7892 1173.33,-30.6911 1179.32,-39.4312 1183.47,-33.7892"/>
</g>
<!-- Node12&#45;&gt;Node9 -->
<g id="edge16" class="edge"><title>Node12&#45;&gt;Node9</title>
<path fill="none" stroke="midnightblue" d="M1208.89,-78.4093C1174.41,-68.3718 1127.08,-54.4993 1085.5,-42 1076.45,-39.279 1066.7,-36.3042 1057.58,-33.5004"/>
<polygon fill="midnightblue" stroke="midnightblue" points="1058.58,-30.1453 1047.99,-30.5451 1056.52,-36.8349 1058.58,-30.1453"/>
</g>
<!-- Node12&#45;&gt;Node10 -->
<g id="edge19" class="edge"><title>Node12&#45;&gt;Node10</title>
<path fill="none" stroke="midnightblue" d="M1200.91,-85.7228C1126.3,-76.3276 999.37,-58.6201 955.5,-42 951.365,-40.4333 947.185,-38.3024 943.273,-36.0136"/>
<polygon fill="midnightblue" stroke="midnightblue" points="945.084,-33.0173 934.773,-30.5781 941.312,-38.9145 945.084,-33.0173"/>
</g>
<!-- Node13 -->
<g id="node13" class="node"><title>Node13</title>
<g id="a_node13"><a xlink:href="transformation_8h.html" target="_top" xlink:title="transformation.h">
<polygon fill="white" stroke="black" points="1465,-11.5 1465,-30.5 1562,-30.5 1562,-11.5 1465,-11.5"/>
<text text-anchor="middle" x="1513.5" y="-18.5" font-family="Helvetica,sans-Serif" font-size="10.00">transformation.h</text>
</a>
</g>
</g>
<!-- Node12&#45;&gt;Node13 -->
<g id="edge14" class="edge"><title>Node12&#45;&gt;Node13</title>
<path fill="none" stroke="midnightblue" d="M1314.17,-79.3592C1353.95,-69.8155 1408.26,-56.1427 1455.5,-42 1463.7,-39.5458 1472.46,-36.6624 1480.63,-33.8608"/>
<polygon fill="midnightblue" stroke="midnightblue" points="1481.93,-37.1148 1490.22,-30.5184 1479.62,-30.5048 1481.93,-37.1148"/>
</g>
<!-- Node14 -->
<g id="node14" class="node"><title>Node14</title>
<polygon fill="white" stroke="#bfbfbf" points="1580.5,-11.5 1580.5,-30.5 1718.5,-30.5 1718.5,-11.5 1580.5,-11.5"/>
<text text-anchor="middle" x="1649.5" y="-18.5" font-family="Helvetica,sans-Serif" font-size="10.00">eigen3/Eigen/Eigenvalues</text>
</g>
<!-- Node12&#45;&gt;Node14 -->
<g id="edge17" class="edge"><title>Node12&#45;&gt;Node14</title>
<path fill="none" stroke="midnightblue" d="M1314.22,-84.9711C1377.33,-76.2256 1482.17,-60.5946 1571.5,-42 1583.8,-39.4404 1597.07,-36.214 1609.12,-33.1041"/>
<polygon fill="midnightblue" stroke="midnightblue" points="1610.12,-36.46 1618.9,-30.5365 1608.34,-29.6893 1610.12,-36.46"/>
</g>
<!-- Node15 -->
<g id="node15" class="node"><title>Node15</title>
<polygon fill="white" stroke="#bfbfbf" points="1737,-11.5 1737,-30.5 1800,-30.5 1800,-11.5 1737,-11.5"/>
<text text-anchor="middle" x="1768.5" y="-18.5" font-family="Helvetica,sans-Serif" font-size="10.00">functional</text>
</g>
<!-- Node12&#45;&gt;Node15 -->
<g id="edge18" class="edge"><title>Node12&#45;&gt;Node15</title>
<path fill="none" stroke="midnightblue" d="M1314.05,-92.6766C1403.56,-91.5765 1582.59,-83.7376 1727.5,-42 1733.45,-40.2868 1739.59,-37.7555 1745.24,-35.0654"/>
<polygon fill="midnightblue" stroke="midnightblue" points="1746.87,-38.1639 1754.19,-30.5045 1743.69,-31.9272 1746.87,-38.1639"/>
</g>
<!-- Node16 -->
<g id="node16" class="node"><title>Node16</title>
<polygon fill="white" stroke="#bfbfbf" points="1246.5,-11.5 1246.5,-30.5 1288.5,-30.5 1288.5,-11.5 1246.5,-11.5"/>
<text text-anchor="middle" x="1267.5" y="-18.5" font-family="Helvetica,sans-Serif" font-size="10.00">limits</text>
</g>
<!-- Node12&#45;&gt;Node16 -->
<g id="edge20" class="edge"><title>Node12&#45;&gt;Node16</title>
<path fill="none" stroke="midnightblue" d="M1259.52,-78.2333C1261.05,-67.5006 1263.15,-52.6875 1264.81,-40.959"/>
<polygon fill="midnightblue" stroke="midnightblue" points="1268.3,-41.2856 1266.24,-30.8932 1261.37,-40.3025 1268.3,-41.2856"/>
</g>
<!-- Node17 -->
<g id="node17" class="node"><title>Node17</title>
<polygon fill="white" stroke="#bfbfbf" points="1306.5,-0.5 1306.5,-41.5 1446.5,-41.5 1446.5,-0.5 1306.5,-0.5"/>
<text text-anchor="start" x="1314.5" y="-29.5" font-family="Helvetica,sans-Serif" font-size="10.00">eigen3/unsupported</text>
<text text-anchor="start" x="1314.5" y="-18.5" font-family="Helvetica,sans-Serif" font-size="10.00">/Eigen/src/MatrixFunctions</text>
<text text-anchor="middle" x="1376.5" y="-7.5" font-family="Helvetica,sans-Serif" font-size="10.00">/MatrixExponential.h</text>
</g>
<!-- Node12&#45;&gt;Node17 -->
<g id="edge21" class="edge"><title>Node12&#45;&gt;Node17</title>
<path fill="none" stroke="midnightblue" d="M1281.3,-78.4027C1296.43,-69.4375 1316.45,-57.5755 1334.23,-47.0437"/>
<polygon fill="midnightblue" stroke="midnightblue" points="1336.46,-49.7882 1343.28,-41.6799 1332.89,-43.7658 1336.46,-49.7882"/>
</g>
<!-- Node21&#45;&gt;Node3 -->
<g id="edge28" class="edge"><title>Node21&#45;&gt;Node3</title>
<path fill="none" stroke="midnightblue" d="M584.071,-201.444C614.64,-191.957 663.959,-176.651 696.797,-166.46"/>
<polygon fill="midnightblue" stroke="midnightblue" points="697.907,-169.78 706.42,-163.473 695.832,-163.094 697.907,-169.78"/>
</g>
<!-- Node22 -->
<g id="node22" class="node"><title>Node22</title>
<polygon fill="white" stroke="#bfbfbf" points="316.5,-145.5 316.5,-164.5 470.5,-164.5 470.5,-145.5 316.5,-145.5"/>
<text text-anchor="middle" x="393.5" y="-152.5" font-family="Helvetica,sans-Serif" font-size="10.00">carl/io/streamingOperators.h</text>
</g>
<!-- Node21&#45;&gt;Node22 -->
<g id="edge29" class="edge"><title>Node21&#45;&gt;Node22</title>
<path fill="none" stroke="midnightblue" d="M530.672,-201.444C503.251,-192.359 459.723,-177.939 429.068,-167.783"/>
<polygon fill="midnightblue" stroke="midnightblue" points="429.8,-164.339 419.207,-164.516 427.599,-170.984 429.8,-164.339"/>
</g>
<!-- Node23 -->
<g id="node23" class="node"><title>Node23</title>
<polygon fill="white" stroke="#bfbfbf" points="489,-145.5 489,-164.5 548,-164.5 548,-145.5 489,-145.5"/>
<text text-anchor="middle" x="518.5" y="-152.5" font-family="Helvetica,sans-Serif" font-size="10.00">iostream</text>
</g>
<!-- Node21&#45;&gt;Node23 -->
<g id="edge30" class="edge"><title>Node21&#45;&gt;Node23</title>
<path fill="none" stroke="midnightblue" d="M550.225,-201.083C544.858,-193.455 536.982,-182.264 530.421,-172.941"/>
<polygon fill="midnightblue" stroke="midnightblue" points="533.275,-170.915 524.658,-164.751 527.551,-174.943 533.275,-170.915"/>
</g>
<!-- Node24 -->
<g id="node24" class="node"><title>Node24</title>
<polygon fill="white" stroke="#bfbfbf" points="566.5,-145.5 566.5,-164.5 622.5,-164.5 622.5,-145.5 566.5,-145.5"/>
<text text-anchor="middle" x="594.5" y="-152.5" font-family="Helvetica,sans-Serif" font-size="10.00">sstream</text>
</g>
<!-- Node21&#45;&gt;Node24 -->
<g id="edge31" class="edge"><title>Node21&#45;&gt;Node24</title>
<path fill="none" stroke="midnightblue" d="M562.775,-201.083C568.142,-193.455 576.018,-182.264 582.579,-172.941"/>
<polygon fill="midnightblue" stroke="midnightblue" points="585.449,-174.943 588.342,-164.751 579.725,-170.915 585.449,-174.943"/>
</g>
<!-- Node25 -->
<g id="node25" class="node"><title>Node25</title>
<polygon fill="white" stroke="#bfbfbf" points="640.5,-145.5 640.5,-164.5 688.5,-164.5 688.5,-145.5 640.5,-145.5"/>
<text text-anchor="middle" x="664.5" y="-152.5" font-family="Helvetica,sans-Serif" font-size="10.00">thread</text>
</g>
<!-- Node21&#45;&gt;Node25 -->
<g id="edge32" class="edge"><title>Node21&#45;&gt;Node25</title>
<path fill="none" stroke="midnightblue" d="M573.852,-201.324C591.172,-192.664 618.015,-179.242 638.002,-169.249"/>
<polygon fill="midnightblue" stroke="midnightblue" points="639.812,-172.257 647.191,-164.655 636.681,-165.996 639.812,-172.257"/>
</g>
<!-- Node26 -->
<g id="node26" class="node"><title>Node26</title>
<polygon fill="white" stroke="#bfbfbf" points="0,-145.5 0,-164.5 125,-164.5 125,-145.5 0,-145.5"/>
<text text-anchor="middle" x="62.5" y="-152.5" font-family="Helvetica,sans-Serif" font-size="10.00">carl/core/carlLogging.h</text>
</g>
<!-- Node21&#45;&gt;Node26 -->
<g id="edge33" class="edge"><title>Node21&#45;&gt;Node26</title>
<path fill="none" stroke="midnightblue" d="M499.672,-204.321C420.417,-196.319 271.915,-181.032 135.434,-165.208"/>
<polygon fill="midnightblue" stroke="midnightblue" points="135.549,-161.698 125.212,-164.019 134.74,-168.651 135.549,-161.698"/>
</g>
<!-- Node27 -->
<g id="node27" class="node"><title>Node27</title>
<polygon fill="white" stroke="#bfbfbf" points="143,-145.5 143,-164.5 298,-164.5 298,-145.5 143,-145.5"/>
<text text-anchor="middle" x="220.5" y="-152.5" font-family="Helvetica,sans-Serif" font-size="10.00">carl/core/carlLoggingHelper.h</text>
</g>
<!-- Node21&#45;&gt;Node27 -->
<g id="edge34" class="edge"><title>Node21&#45;&gt;Node27</title>
<path fill="none" stroke="midnightblue" d="M503.26,-201.444C443.54,-191.846 346.759,-176.292 283.368,-166.104"/>
<polygon fill="midnightblue" stroke="midnightblue" points="283.92,-162.648 273.491,-164.516 282.809,-169.559 283.92,-162.648"/>
</g>
<!-- Node28&#45;&gt;Node2 -->
<g id="edge36" class="edge"><title>Node28&#45;&gt;Node2</title>
<path fill="none" stroke="midnightblue" d="M1139.32,-316.323C1108.16,-307.561 1047.76,-290.573 1007.52,-279.257"/>
<polygon fill="midnightblue" stroke="midnightblue" points="1008.33,-275.848 997.758,-276.51 1006.44,-282.587 1008.33,-275.848"/>
</g>
<!-- Node28&#45;&gt;Node5 -->
<g id="edge37" class="edge"><title>Node28&#45;&gt;Node5</title>
<path fill="none" stroke="midnightblue" d="M1155.63,-313.075C1144.25,-286.832 1110.72,-209.545 1095.36,-174.117"/>
<polygon fill="midnightblue" stroke="midnightblue" points="1098.41,-172.35 1091.22,-164.568 1091.98,-175.135 1098.41,-172.35"/>
</g>
<!-- Node28&#45;&gt;Node12 -->
<g id="edge38" class="edge"><title>Node28&#45;&gt;Node12</title>
<path fill="none" stroke="midnightblue" d="M1163.22,-313.36C1177.09,-281.164 1226.06,-167.488 1247.42,-117.91"/>
<polygon fill="midnightblue" stroke="midnightblue" points="1250.67,-119.193 1251.42,-108.624 1244.25,-116.423 1250.67,-119.193"/>
</g>
</g>
</svg>
