<?xml version="1.0" encoding="UTF-8" standalone="no"?>
<!DOCTYPE svg PUBLIC "-//W3C//DTD SVG 1.1//EN"
 "http://www.w3.org/Graphics/SVG/1.1/DTD/svg11.dtd">
<!-- Generated by graphviz version 2.38.0 (20140413.2041)
 -->
<!-- Title: /home/travis/build/hypro/hypro/src/hypro/representations/Ellipsoids/Ellipsoid.h Pages: 1 -->
<svg width="1965pt" height="441pt"
 viewBox="0.00 0.00 1964.68 441.00" xmlns="http://www.w3.org/2000/svg" xmlns:xlink="http://www.w3.org/1999/xlink">
<g id="graph0" class="graph" transform="scale(1 1) rotate(0) translate(4 437)">
<title>/home/travis/build/hypro/hypro/src/hypro/representations/Ellipsoids/Ellipsoid.h</title>
<polygon fill="white" stroke="none" points="-4,4 -4,-437 1960.68,-437 1960.68,4 -4,4"/>
<!-- Node1 -->
<g id="node1" class="node"><title>Node1</title>
<polygon fill="#bfbfbf" stroke="black" points="577.681,-380.5 577.681,-432.5 719.681,-432.5 719.681,-380.5 577.681,-380.5"/>
<text text-anchor="start" x="585.681" y="-420.5" font-family="Helvetica,sans-Serif" font-size="10.00">/home/travis/build</text>
<text text-anchor="start" x="585.681" y="-409.5" font-family="Helvetica,sans-Serif" font-size="10.00">/hypro/hypro/src/hypro</text>
<text text-anchor="start" x="585.681" y="-398.5" font-family="Helvetica,sans-Serif" font-size="10.00">/representations/Ellipsoids</text>
<text text-anchor="middle" x="648.681" y="-387.5" font-family="Helvetica,sans-Serif" font-size="10.00">/Ellipsoid.h</text>
</g>
<!-- Node2 -->
<g id="node2" class="node"><title>Node2</title>
<g id="a_node2"><a xlink:href="Halfspace_8h.html" target="_top" xlink:title="../../datastructures\l/Halfspace.h">
<polygon fill="white" stroke="black" points="1006.18,-313.5 1006.18,-343.5 1111.18,-343.5 1111.18,-313.5 1006.18,-313.5"/>
<text text-anchor="start" x="1014.18" y="-331.5" font-family="Helvetica,sans-Serif" font-size="10.00">../../datastructures</text>
<text text-anchor="middle" x="1058.68" y="-320.5" font-family="Helvetica,sans-Serif" font-size="10.00">/Halfspace.h</text>
</a>
</g>
</g>
<!-- Node1&#45;&gt;Node2 -->
<g id="edge1" class="edge"><title>Node1&#45;&gt;Node2</title>
<path fill="none" stroke="midnightblue" d="M720.098,-392.262C797.996,-377.822 921.475,-354.933 995.824,-341.152"/>
<polygon fill="midnightblue" stroke="midnightblue" points="996.785,-344.533 1005.98,-339.269 995.509,-337.65 996.785,-344.533"/>
</g>
<!-- Node10 -->
<g id="node10" class="node"><title>Node10</title>
<polygon fill="white" stroke="#bfbfbf" points="28.6813,-112.5 28.6813,-131.5 80.6813,-131.5 80.6813,-112.5 28.6813,-112.5"/>
<text text-anchor="middle" x="54.6813" y="-119.5" font-family="Helvetica,sans-Serif" font-size="10.00">cassert</text>
</g>
<!-- Node1&#45;&gt;Node10 -->
<g id="edge58" class="edge"><title>Node1&#45;&gt;Node10</title>
<path fill="none" stroke="midnightblue" d="M595.968,-380.43C473.648,-322.256 173.954,-179.725 81.9748,-135.981"/>
<polygon fill="midnightblue" stroke="midnightblue" points="83.3003,-132.735 72.7663,-131.601 80.2938,-139.057 83.3003,-132.735"/>
</g>
<!-- Node11 -->
<g id="node11" class="node"><title>Node11</title>
<polygon fill="white" stroke="#bfbfbf" points="89.6813,-56.5 89.6813,-75.5 127.681,-75.5 127.681,-56.5 89.6813,-56.5"/>
<text text-anchor="middle" x="108.681" y="-63.5" font-family="Helvetica,sans-Serif" font-size="10.00">map</text>
</g>
<!-- Node1&#45;&gt;Node11 -->
<g id="edge59" class="edge"><title>Node1&#45;&gt;Node11</title>
<path fill="none" stroke="midnightblue" d="M577.48,-404.7C409.148,-400.889 0.681303,-379.579 0.681303,-262.5 0.681303,-262.5 0.681303,-262.5 0.681303,-188 0.681303,-153.183 -2.04391,-139.208 19.6813,-112 34.7693,-93.1045 59.8822,-81.4329 79.5919,-74.727"/>
<polygon fill="midnightblue" stroke="midnightblue" points="80.8384,-78.0039 89.3246,-71.6608 78.735,-71.3274 80.8384,-78.0039"/>
</g>
<!-- Node41 -->
<g id="node41" class="node"><title>Node41</title>
<polygon fill="white" stroke="#bfbfbf" points="1129.68,-319 1129.68,-338 1203.68,-338 1203.68,-319 1129.68,-319"/>
<text text-anchor="middle" x="1166.68" y="-326" font-family="Helvetica,sans-Serif" font-size="10.00">Ellipsoid.tpp</text>
</g>
<!-- Node1&#45;&gt;Node41 -->
<g id="edge60" class="edge"><title>Node1&#45;&gt;Node41</title>
<path fill="none" stroke="midnightblue" d="M719.944,-399.981C812.756,-391.932 979.683,-374.505 1119.68,-344 1123.61,-343.145 1127.67,-342.115 1131.7,-341.002"/>
<polygon fill="midnightblue" stroke="midnightblue" points="1132.91,-344.295 1141.52,-338.122 1130.94,-337.578 1132.91,-344.295"/>
</g>
<!-- Node3 -->
<g id="node3" class="node"><title>Node3</title>
<g id="a_node3"><a xlink:href="representations_2types_8h.html" target="_top" xlink:title="../representations\l/types.h">
<polygon fill="white" stroke="black" points="1699.18,-246.5 1699.18,-276.5 1800.18,-276.5 1800.18,-246.5 1699.18,-246.5"/>
<text text-anchor="start" x="1707.18" y="-264.5" font-family="Helvetica,sans-Serif" font-size="10.00">../representations</text>
<text text-anchor="middle" x="1749.68" y="-253.5" font-family="Helvetica,sans-Serif" font-size="10.00">/types.h</text>
</a>
</g>
</g>
<!-- Node2&#45;&gt;Node3 -->
<g id="edge2" class="edge"><title>Node2&#45;&gt;Node3</title>
<path fill="none" stroke="midnightblue" d="M1111.33,-314.557C1114.49,-313.978 1117.62,-313.452 1120.68,-313 1368.49,-276.457 1437.95,-314.415 1688.8,-277.112"/>
<polygon fill="midnightblue" stroke="midnightblue" points="1689.58,-280.532 1698.95,-275.576 1688.54,-273.611 1689.58,-280.532"/>
</g>
<!-- Node4 -->
<g id="node4" class="node"><title>Node4</title>
<g id="a_node4"><a xlink:href="VariablePool_8h.html" target="_top" xlink:title="../util/VariablePool.h">
<polygon fill="white" stroke="black" points="448.681,-179.5 448.681,-198.5 558.681,-198.5 558.681,-179.5 448.681,-179.5"/>
<text text-anchor="middle" x="503.681" y="-186.5" font-family="Helvetica,sans-Serif" font-size="10.00">../util/VariablePool.h</text>
</a>
</g>
</g>
<!-- Node2&#45;&gt;Node4 -->
<g id="edge3" class="edge"><title>Node2&#45;&gt;Node4</title>
<path fill="none" stroke="midnightblue" d="M1006.01,-320.183C949.037,-311.777 855.736,-296.585 776.681,-277 688.637,-255.188 587.513,-220.31 536.61,-202.045"/>
<polygon fill="midnightblue" stroke="midnightblue" points="537.712,-198.722 527.118,-198.622 535.338,-205.307 537.712,-198.722"/>
</g>
<!-- Node2&#45;&gt;Node10 -->
<g id="edge55" class="edge"><title>Node2&#45;&gt;Node10</title>
<path fill="none" stroke="midnightblue" d="M1006.02,-322.899C930.451,-315.803 787.064,-300.499 666.681,-277 479.936,-240.546 437.477,-213.313 252.681,-168 196.267,-154.167 130.445,-139.498 90.699,-130.8"/>
<polygon fill="midnightblue" stroke="midnightblue" points="91.2099,-127.33 80.6935,-128.617 89.7171,-134.169 91.2099,-127.33"/>
</g>
<!-- Node13 -->
<g id="node13" class="node"><title>Node13</title>
<g id="a_node13"><a xlink:href="adaptions__eigen_8h.html" target="_top" xlink:title="../util/adaptions_eigen\l/adaptions_eigen.h">
<polygon fill="white" stroke="black" points="1245.68,-246.5 1245.68,-276.5 1367.68,-276.5 1367.68,-246.5 1245.68,-246.5"/>
<text text-anchor="start" x="1253.68" y="-264.5" font-family="Helvetica,sans-Serif" font-size="10.00">../util/adaptions_eigen</text>
<text text-anchor="middle" x="1306.68" y="-253.5" font-family="Helvetica,sans-Serif" font-size="10.00">/adaptions_eigen.h</text>
</a>
</g>
</g>
<!-- Node2&#45;&gt;Node13 -->
<g id="edge12" class="edge"><title>Node2&#45;&gt;Node13</title>
<path fill="none" stroke="midnightblue" d="M1111.28,-313.715C1149.76,-303.628 1202.17,-289.892 1243.02,-279.185"/>
<polygon fill="midnightblue" stroke="midnightblue" points="1244.09,-282.523 1252.88,-276.602 1242.32,-275.751 1244.09,-282.523"/>
</g>
<!-- Node36 -->
<g id="node36" class="node"><title>Node36</title>
<g id="a_node36"><a xlink:href="EvaluationResult_8h.html" target="_top" xlink:title="../util/linearOptimization\l/EvaluationResult.h">
<polygon fill="white" stroke="black" points="1449.68,-246.5 1449.68,-276.5 1579.68,-276.5 1579.68,-246.5 1449.68,-246.5"/>
<text text-anchor="start" x="1457.68" y="-264.5" font-family="Helvetica,sans-Serif" font-size="10.00">../util/linearOptimization</text>
<text text-anchor="middle" x="1514.68" y="-253.5" font-family="Helvetica,sans-Serif" font-size="10.00">/EvaluationResult.h</text>
</a>
</g>
</g>
<!-- Node2&#45;&gt;Node36 -->
<g id="edge46" class="edge"><title>Node2&#45;&gt;Node36</title>
<path fill="none" stroke="midnightblue" d="M1111.36,-314.736C1114.51,-314.112 1117.63,-313.527 1120.68,-313 1258.12,-289.258 1296.91,-298.133 1439.31,-276.964"/>
<polygon fill="midnightblue" stroke="midnightblue" points="1439.92,-280.411 1449.29,-275.457 1438.88,-273.489 1439.92,-280.411"/>
</g>
<!-- Node37 -->
<g id="node37" class="node"><title>Node37</title>
<g id="a_node37"><a xlink:href="Point_8h.html" target="_top" xlink:title="Point.h">
<polygon fill="white" stroke="black" points="785.681,-252 785.681,-271 835.681,-271 835.681,-252 785.681,-252"/>
<text text-anchor="middle" x="810.681" y="-259" font-family="Helvetica,sans-Serif" font-size="10.00">Point.h</text>
</a>
</g>
</g>
<!-- Node2&#45;&gt;Node37 -->
<g id="edge48" class="edge"><title>Node2&#45;&gt;Node37</title>
<path fill="none" stroke="midnightblue" d="M1006.09,-313.715C957.749,-301.046 887.45,-282.621 845.666,-271.669"/>
<polygon fill="midnightblue" stroke="midnightblue" points="846.501,-268.27 835.941,-269.12 844.727,-275.041 846.501,-268.27"/>
</g>
<!-- Node39 -->
<g id="node39" class="node"><title>Node39</title>
<polygon fill="white" stroke="#bfbfbf" points="1386.18,-252 1386.18,-271 1431.18,-271 1431.18,-252 1386.18,-252"/>
<text text-anchor="middle" x="1408.68" y="-259" font-family="Helvetica,sans-Serif" font-size="10.00">glpk.h</text>
</g>
<!-- Node2&#45;&gt;Node39 -->
<g id="edge56" class="edge"><title>Node2&#45;&gt;Node39</title>
<path fill="none" stroke="midnightblue" d="M1111.38,-314.835C1114.52,-314.186 1117.64,-313.569 1120.68,-313 1233.62,-291.896 1266.34,-309.037 1376.68,-277 1378.61,-276.439 1380.58,-275.781 1382.54,-275.062"/>
<polygon fill="midnightblue" stroke="midnightblue" points="1384.19,-278.167 1392.09,-271.104 1381.51,-271.701 1384.19,-278.167"/>
</g>
<!-- Node40 -->
<g id="node40" class="node"><title>Node40</title>
<polygon fill="white" stroke="#bfbfbf" points="1598.18,-252 1598.18,-271 1681.18,-271 1681.18,-252 1598.18,-252"/>
<text text-anchor="middle" x="1639.68" y="-259" font-family="Helvetica,sans-Serif" font-size="10.00">Halfspace.tpp</text>
</g>
<!-- Node2&#45;&gt;Node40 -->
<g id="edge57" class="edge"><title>Node2&#45;&gt;Node40</title>
<path fill="none" stroke="midnightblue" d="M1111.34,-314.607C1114.49,-314.015 1117.62,-313.473 1120.68,-313 1326.85,-281.153 1383.32,-313.709 1588.68,-277 1593.52,-276.134 1598.57,-274.998 1603.52,-273.743"/>
<polygon fill="midnightblue" stroke="midnightblue" points="1604.71,-277.044 1613.45,-271.045 1602.88,-270.289 1604.71,-277.044"/>
</g>
<!-- Node5 -->
<g id="node5" class="node"><title>Node5</title>
<g id="a_node5"><a xlink:href="flags_8h.html" target="_top" xlink:title="../flags.h">
<polygon fill="white" stroke="black" points="849.181,-56.5 849.181,-75.5 906.181,-75.5 906.181,-56.5 849.181,-56.5"/>
<text text-anchor="middle" x="877.681" y="-63.5" font-family="Helvetica,sans-Serif" font-size="10.00">../flags.h</text>
</a>
</g>
</g>
<!-- Node4&#45;&gt;Node5 -->
<g id="edge4" class="edge"><title>Node4&#45;&gt;Node5</title>
<path fill="none" stroke="midnightblue" d="M559.068,-183.91C660.439,-175.86 867.415,-156.583 888.681,-132 899.876,-119.06 894.244,-99.0657 887.621,-84.6697"/>
<polygon fill="midnightblue" stroke="midnightblue" points="890.734,-83.0703 883.072,-75.7532 884.499,-86.2515 890.734,-83.0703"/>
</g>
<!-- Node6 -->
<g id="node6" class="node"><title>Node6</title>
<polygon fill="white" stroke="#bfbfbf" points="572.681,-112.5 572.681,-131.5 634.681,-131.5 634.681,-112.5 572.681,-112.5"/>
<text text-anchor="middle" x="603.681" y="-119.5" font-family="Helvetica,sans-Serif" font-size="10.00">algorithm</text>
</g>
<!-- Node4&#45;&gt;Node6 -->
<g id="edge5" class="edge"><title>Node4&#45;&gt;Node6</title>
<path fill="none" stroke="midnightblue" d="M517.168,-179.234C533.736,-168.464 562.066,-150.05 581.774,-137.239"/>
<polygon fill="midnightblue" stroke="midnightblue" points="583.932,-140.012 590.409,-131.627 580.117,-134.143 583.932,-140.012"/>
</g>
<!-- Node7 -->
<g id="node7" class="node"><title>Node7</title>
<polygon fill="white" stroke="#bfbfbf" points="136.681,-112.5 136.681,-131.5 244.681,-131.5 244.681,-112.5 136.681,-112.5"/>
<text text-anchor="middle" x="190.681" y="-119.5" font-family="Helvetica,sans-Serif" font-size="10.00">carl/core/Variable.h</text>
</g>
<!-- Node4&#45;&gt;Node7 -->
<g id="edge6" class="edge"><title>Node4&#45;&gt;Node7</title>
<path fill="none" stroke="midnightblue" d="M462.44,-179.436C405.674,-167.647 303.508,-146.43 241.909,-133.638"/>
<polygon fill="midnightblue" stroke="midnightblue" points="242.517,-130.19 232.014,-131.583 241.093,-137.044 242.517,-130.19"/>
</g>
<!-- Node8 -->
<g id="node8" class="node"><title>Node8</title>
<polygon fill="white" stroke="#bfbfbf" points="262.681,-112.5 262.681,-131.5 390.681,-131.5 390.681,-112.5 262.681,-112.5"/>
<text text-anchor="middle" x="326.681" y="-119.5" font-family="Helvetica,sans-Serif" font-size="10.00">carl/core/VariablePool.h</text>
</g>
<!-- Node4&#45;&gt;Node8 -->
<g id="edge7" class="edge"><title>Node4&#45;&gt;Node8</title>
<path fill="none" stroke="midnightblue" d="M480.177,-179.369C449.279,-168.022 394.825,-148.025 359.773,-135.152"/>
<polygon fill="midnightblue" stroke="midnightblue" points="360.594,-131.725 350.001,-131.564 358.181,-138.296 360.594,-131.725"/>
</g>
<!-- Node9 -->
<g id="node9" class="node"><title>Node9</title>
<polygon fill="white" stroke="#bfbfbf" points="408.681,-112.5 408.681,-131.5 516.681,-131.5 516.681,-112.5 408.681,-112.5"/>
<text text-anchor="middle" x="462.681" y="-119.5" font-family="Helvetica,sans-Serif" font-size="10.00">carl/util/Singleton.h</text>
</g>
<!-- Node4&#45;&gt;Node9 -->
<g id="edge8" class="edge"><title>Node4&#45;&gt;Node9</title>
<path fill="none" stroke="midnightblue" d="M498.152,-179.234C491.881,-169.293 481.502,-152.838 473.587,-140.289"/>
<polygon fill="midnightblue" stroke="midnightblue" points="476.419,-138.218 468.123,-131.627 470.498,-141.953 476.419,-138.218"/>
</g>
<!-- Node4&#45;&gt;Node10 -->
<g id="edge9" class="edge"><title>Node4&#45;&gt;Node10</title>
<path fill="none" stroke="midnightblue" d="M448.374,-181.022C353.003,-168.89 161.419,-144.054 94.6813,-132 93.4205,-131.772 92.1392,-131.532 90.8465,-131.282"/>
<polygon fill="midnightblue" stroke="midnightblue" points="91.3666,-127.816 80.8662,-129.227 89.9549,-134.672 91.3666,-127.816"/>
</g>
<!-- Node4&#45;&gt;Node11 -->
<g id="edge10" class="edge"><title>Node4&#45;&gt;Node11</title>
<path fill="none" stroke="midnightblue" d="M448.36,-181.348C346.759,-168.911 139.666,-142.451 127.681,-132 114.547,-120.547 110.253,-100.567 108.965,-85.7732"/>
<polygon fill="midnightblue" stroke="midnightblue" points="112.456,-85.5142 108.469,-75.6983 105.465,-85.8582 112.456,-85.5142"/>
</g>
<!-- Node12 -->
<g id="node12" class="node"><title>Node12</title>
<polygon fill="white" stroke="#bfbfbf" points="609.181,-56.5 609.181,-75.5 656.181,-75.5 656.181,-56.5 609.181,-56.5"/>
<text text-anchor="middle" x="632.681" y="-63.5" font-family="Helvetica,sans-Serif" font-size="10.00">vector</text>
</g>
<!-- Node4&#45;&gt;Node12 -->
<g id="edge11" class="edge"><title>Node4&#45;&gt;Node12</title>
<path fill="none" stroke="midnightblue" d="M509.193,-179.274C518.927,-164.311 540.347,-133.315 563.681,-112 576.979,-99.8526 593.892,-88.7665 607.645,-80.6373"/>
<polygon fill="midnightblue" stroke="midnightblue" points="609.651,-83.5215 616.578,-75.505 606.164,-77.4519 609.651,-83.5215"/>
</g>
<!-- Node14 -->
<g id="node14" class="node"><title>Node14</title>
<g id="a_node14"><a xlink:href="config_8h.html" target="_top" xlink:title="../../config.h">
<polygon fill="white" stroke="black" points="910.681,-179.5 910.681,-198.5 982.681,-198.5 982.681,-179.5 910.681,-179.5"/>
<text text-anchor="middle" x="946.681" y="-186.5" font-family="Helvetica,sans-Serif" font-size="10.00">../../config.h</text>
</a>
</g>
</g>
<!-- Node13&#45;&gt;Node14 -->
<g id="edge13" class="edge"><title>Node13&#45;&gt;Node14</title>
<path fill="none" stroke="midnightblue" d="M1245.61,-248.541C1174.02,-234.52 1056.98,-211.6 992.643,-199.001"/>
<polygon fill="midnightblue" stroke="midnightblue" points="993.272,-195.558 982.785,-197.07 991.926,-202.427 993.272,-195.558"/>
</g>
<!-- Node16 -->
<g id="node16" class="node"><title>Node16</title>
<g id="a_node16"><a xlink:href="types_8h.html" target="_top" xlink:title="../types.h">
<polygon fill="white" stroke="black" points="1670.18,-56.5 1670.18,-75.5 1731.18,-75.5 1731.18,-56.5 1670.18,-56.5"/>
<text text-anchor="middle" x="1700.68" y="-63.5" font-family="Helvetica,sans-Serif" font-size="10.00">../types.h</text>
</a>
</g>
</g>
<!-- Node13&#45;&gt;Node16 -->
<g id="edge37" class="edge"><title>Node13&#45;&gt;Node16</title>
<path fill="none" stroke="midnightblue" d="M1364.72,-246.488C1365.71,-246.321 1366.7,-246.158 1367.68,-246 1435.71,-235.001 1627.07,-258.847 1675.68,-210 1708.49,-177.026 1702.04,-116.362 1699.54,-85.7364"/>
<polygon fill="midnightblue" stroke="midnightblue" points="1703.02,-85.3368 1698.87,-75.5901 1696.04,-85.7996 1703.02,-85.3368"/>
</g>
<!-- Node17 -->
<g id="node17" class="node"><title>Node17</title>
<polygon fill="white" stroke="#bfbfbf" points="1692.68,-0.5 1692.68,-19.5 1826.68,-19.5 1826.68,-0.5 1692.68,-0.5"/>
<text text-anchor="middle" x="1759.68" y="-7.5" font-family="Helvetica,sans-Serif" font-size="10.00">carl/numbers/numbers.h</text>
</g>
<!-- Node13&#45;&gt;Node17 -->
<g id="edge39" class="edge"><title>Node13&#45;&gt;Node17</title>
<path fill="none" stroke="midnightblue" d="M1367.7,-247.489C1370.73,-246.959 1373.74,-246.459 1376.68,-246 1451.97,-234.258 1661.1,-261.041 1717.68,-210 1769.57,-163.187 1766.33,-69.8053 1762.19,-29.848"/>
<polygon fill="midnightblue" stroke="midnightblue" points="1765.66,-29.3972 1761.02,-19.8748 1758.71,-30.2154 1765.66,-29.3972"/>
</g>
<!-- Node20 -->
<g id="node20" class="node"><title>Node20</title>
<polygon fill="white" stroke="#bfbfbf" points="1844.68,-0.5 1844.68,-19.5 1956.68,-19.5 1956.68,-0.5 1844.68,-0.5"/>
<text text-anchor="middle" x="1900.68" y="-7.5" font-family="Helvetica,sans-Serif" font-size="10.00">eigen3/Eigen/Dense</text>
</g>
<!-- Node13&#45;&gt;Node20 -->
<g id="edge40" class="edge"><title>Node13&#45;&gt;Node20</title>
<path fill="none" stroke="midnightblue" d="M1367.7,-247.461C1370.73,-246.938 1373.74,-246.447 1376.68,-246 1458.14,-233.626 1673.5,-249.727 1745.68,-210 1822.62,-167.653 1874.13,-69.5325 1892.84,-29.0082"/>
<polygon fill="midnightblue" stroke="midnightblue" points="1896.07,-30.3654 1896.98,-19.8096 1889.69,-27.4953 1896.07,-30.3654"/>
</g>
<!-- Node21 -->
<g id="node21" class="node"><title>Node21</title>
<polygon fill="white" stroke="#bfbfbf" points="1402.68,-0.5 1402.68,-19.5 1448.68,-19.5 1448.68,-0.5 1402.68,-0.5"/>
<text text-anchor="middle" x="1425.68" y="-7.5" font-family="Helvetica,sans-Serif" font-size="10.00">iosfwd</text>
</g>
<!-- Node13&#45;&gt;Node21 -->
<g id="edge43" class="edge"><title>Node13&#45;&gt;Node21</title>
<path fill="none" stroke="midnightblue" d="M1245.65,-252.783C1195.08,-244.989 1128.96,-231.064 1112.68,-210 1101.26,-195.231 1100.71,-182.323 1112.68,-168 1260.38,8.73061 1474.98,-252.731 1622.68,-76 1657.54,-34.2873 1643.34,-65.0977 1458.51,-20.0712"/>
<polygon fill="midnightblue" stroke="midnightblue" points="1459.26,-16.6516 1448.71,-17.653 1457.58,-23.4476 1459.26,-16.6516"/>
</g>
<!-- Node31 -->
<g id="node31" class="node"><title>Node31</title>
<g id="a_node31"><a xlink:href="transformation_8h.html" target="_top" xlink:title="transformation.h">
<polygon fill="white" stroke="black" points="1122.18,-179.5 1122.18,-198.5 1219.18,-198.5 1219.18,-179.5 1122.18,-179.5"/>
<text text-anchor="middle" x="1170.68" y="-186.5" font-family="Helvetica,sans-Serif" font-size="10.00">transformation.h</text>
</a>
</g>
</g>
<!-- Node13&#45;&gt;Node31 -->
<g id="edge38" class="edge"><title>Node13&#45;&gt;Node31</title>
<path fill="none" stroke="midnightblue" d="M1279.49,-246.403C1255.23,-233.83 1219.99,-215.56 1196.24,-203.251"/>
<polygon fill="midnightblue" stroke="midnightblue" points="1197.63,-200.029 1187.14,-198.534 1194.41,-206.243 1197.63,-200.029"/>
</g>
<!-- Node32 -->
<g id="node32" class="node"><title>Node32</title>
<polygon fill="white" stroke="#bfbfbf" points="1237.68,-179.5 1237.68,-198.5 1375.68,-198.5 1375.68,-179.5 1237.68,-179.5"/>
<text text-anchor="middle" x="1306.68" y="-186.5" font-family="Helvetica,sans-Serif" font-size="10.00">eigen3/Eigen/Eigenvalues</text>
</g>
<!-- Node13&#45;&gt;Node32 -->
<g id="edge41" class="edge"><title>Node13&#45;&gt;Node32</title>
<path fill="none" stroke="midnightblue" d="M1306.68,-246.233C1306.68,-235.501 1306.68,-220.687 1306.68,-208.959"/>
<polygon fill="midnightblue" stroke="midnightblue" points="1310.18,-208.893 1306.68,-198.893 1303.18,-208.893 1310.18,-208.893"/>
</g>
<!-- Node33 -->
<g id="node33" class="node"><title>Node33</title>
<polygon fill="white" stroke="#bfbfbf" points="1394.18,-179.5 1394.18,-198.5 1457.18,-198.5 1457.18,-179.5 1394.18,-179.5"/>
<text text-anchor="middle" x="1425.68" y="-186.5" font-family="Helvetica,sans-Serif" font-size="10.00">functional</text>
</g>
<!-- Node13&#45;&gt;Node33 -->
<g id="edge42" class="edge"><title>Node13&#45;&gt;Node33</title>
<path fill="none" stroke="midnightblue" d="M1330.48,-246.403C1351.42,-233.997 1381.72,-216.046 1402.48,-203.747"/>
<polygon fill="midnightblue" stroke="midnightblue" points="1404.46,-206.642 1411.28,-198.534 1400.89,-200.619 1404.46,-206.642"/>
</g>
<!-- Node34 -->
<g id="node34" class="node"><title>Node34</title>
<polygon fill="white" stroke="#bfbfbf" points="1475.68,-179.5 1475.68,-198.5 1517.68,-198.5 1517.68,-179.5 1475.68,-179.5"/>
<text text-anchor="middle" x="1496.68" y="-186.5" font-family="Helvetica,sans-Serif" font-size="10.00">limits</text>
</g>
<!-- Node13&#45;&gt;Node34 -->
<g id="edge44" class="edge"><title>Node13&#45;&gt;Node34</title>
<path fill="none" stroke="midnightblue" d="M1363.25,-246.483C1394.25,-237.831 1432.93,-225.429 1465.68,-210 1469.25,-208.318 1472.9,-206.287 1476.38,-204.172"/>
<polygon fill="midnightblue" stroke="midnightblue" points="1478.55,-206.937 1485.04,-198.561 1474.74,-201.063 1478.55,-206.937"/>
</g>
<!-- Node35 -->
<g id="node35" class="node"><title>Node35</title>
<polygon fill="white" stroke="#bfbfbf" points="1535.68,-168.5 1535.68,-209.5 1675.68,-209.5 1675.68,-168.5 1535.68,-168.5"/>
<text text-anchor="start" x="1543.68" y="-197.5" font-family="Helvetica,sans-Serif" font-size="10.00">eigen3/unsupported</text>
<text text-anchor="start" x="1543.68" y="-186.5" font-family="Helvetica,sans-Serif" font-size="10.00">/Eigen/src/MatrixFunctions</text>
<text text-anchor="middle" x="1605.68" y="-175.5" font-family="Helvetica,sans-Serif" font-size="10.00">/MatrixExponential.h</text>
</g>
<!-- Node13&#45;&gt;Node35 -->
<g id="edge45" class="edge"><title>Node13&#45;&gt;Node35</title>
<path fill="none" stroke="midnightblue" d="M1367.93,-246.824C1409.79,-237.391 1466.77,-224.376 1525.64,-210.229"/>
<polygon fill="midnightblue" stroke="midnightblue" points="1526.59,-213.601 1535.49,-207.856 1524.95,-206.796 1526.59,-213.601"/>
</g>
<!-- Node14&#45;&gt;Node5 -->
<g id="edge14" class="edge"><title>Node14&#45;&gt;Node5</title>
<path fill="none" stroke="midnightblue" d="M945.358,-179.468C942.796,-164.8 936.181,-134.236 922.681,-112 915.921,-100.865 905.842,-90.4409 896.936,-82.4353"/>
<polygon fill="midnightblue" stroke="midnightblue" points="899.084,-79.6665 889.215,-75.8121 894.526,-84.9795 899.084,-79.6665"/>
</g>
<!-- Node15 -->
<g id="node15" class="node"><title>Node15</title>
<g id="a_node15"><a xlink:href="util_2convenienceOperators_8h.html" target="_top" xlink:title="util/convenienceOperators.h">
<polygon fill="white" stroke="black" points="729.181,-112.5 729.181,-131.5 880.181,-131.5 880.181,-112.5 729.181,-112.5"/>
<text text-anchor="middle" x="804.681" y="-119.5" font-family="Helvetica,sans-Serif" font-size="10.00">util/convenienceOperators.h</text>
</a>
</g>
</g>
<!-- Node14&#45;&gt;Node15 -->
<g id="edge15" class="edge"><title>Node14&#45;&gt;Node15</title>
<path fill="none" stroke="midnightblue" d="M927.825,-179.369C903.53,-168.248 861.081,-148.817 832.925,-135.929"/>
<polygon fill="midnightblue" stroke="midnightblue" points="834.165,-132.647 823.616,-131.667 831.252,-139.012 834.165,-132.647"/>
</g>
<!-- Node24 -->
<g id="node24" class="node"><title>Node24</title>
<g id="a_node24"><a xlink:href="Logger_8h.html" target="_top" xlink:title="util/logging/Logger.h">
<polygon fill="white" stroke="black" points="975.181,-112.5 975.181,-131.5 1088.18,-131.5 1088.18,-112.5 975.181,-112.5"/>
<text text-anchor="middle" x="1031.68" y="-119.5" font-family="Helvetica,sans-Serif" font-size="10.00">util/logging/Logger.h</text>
</a>
</g>
</g>
<!-- Node14&#45;&gt;Node24 -->
<g id="edge29" class="edge"><title>Node14&#45;&gt;Node24</title>
<path fill="none" stroke="midnightblue" d="M958.145,-179.234C972.037,-168.611 995.656,-150.549 1012.37,-137.764"/>
<polygon fill="midnightblue" stroke="midnightblue" points="1014.58,-140.482 1020.4,-131.627 1010.33,-134.922 1014.58,-140.482"/>
</g>
<!-- Node15&#45;&gt;Node11 -->
<g id="edge25" class="edge"><title>Node15&#45;&gt;Node11</title>
<path fill="none" stroke="midnightblue" d="M728.872,-115.118C576.582,-103.303 239.396,-77.1417 138.05,-69.2786"/>
<polygon fill="midnightblue" stroke="midnightblue" points="138.172,-65.7777 127.931,-68.4935 137.631,-72.7567 138.172,-65.7777"/>
</g>
<!-- Node15&#45;&gt;Node12 -->
<g id="edge28" class="edge"><title>Node15&#45;&gt;Node12</title>
<path fill="none" stroke="midnightblue" d="M777.427,-112.444C747.255,-102.971 698.602,-87.6961 666.141,-77.5048"/>
<polygon fill="midnightblue" stroke="midnightblue" points="666.804,-74.0446 656.215,-74.3884 664.707,-80.7232 666.804,-74.0446"/>
</g>
<!-- Node15&#45;&gt;Node16 -->
<g id="edge16" class="edge"><title>Node15&#45;&gt;Node16</title>
<path fill="none" stroke="midnightblue" d="M880.44,-116.748C907.355,-115.242 937.869,-113.539 965.681,-112 1257.67,-95.839 1331.29,-100.771 1622.68,-76 1634.76,-74.973 1647.86,-73.5732 1659.82,-72.1836"/>
<polygon fill="midnightblue" stroke="midnightblue" points="1660.46,-75.6322 1669.98,-70.9747 1659.63,-68.6813 1660.46,-75.6322"/>
</g>
<!-- Node15&#45;&gt;Node21 -->
<g id="edge24" class="edge"><title>Node15&#45;&gt;Node21</title>
<path fill="none" stroke="midnightblue" d="M806.503,-112.459C810.076,-98.0351 819.484,-69.1392 839.681,-56 886.076,-25.8185 1274.79,-14.4721 1392.22,-11.7142"/>
<polygon fill="midnightblue" stroke="midnightblue" points="1392.49,-15.2091 1402.4,-11.4807 1392.33,-8.2109 1392.49,-15.2091"/>
</g>
<!-- Node22 -->
<g id="node22" class="node"><title>Node22</title>
<polygon fill="white" stroke="#bfbfbf" points="706.681,-0.5 706.681,-19.5 738.681,-19.5 738.681,-0.5 706.681,-0.5"/>
<text text-anchor="middle" x="722.681" y="-7.5" font-family="Helvetica,sans-Serif" font-size="10.00">set</text>
</g>
<!-- Node15&#45;&gt;Node22 -->
<g id="edge26" class="edge"><title>Node15&#45;&gt;Node22</title>
<path fill="none" stroke="midnightblue" d="M786.654,-112.391C772.456,-104.726 753.199,-92.2196 741.681,-76 732.003,-62.3699 727.214,-43.8287 724.869,-30.0367"/>
<polygon fill="midnightblue" stroke="midnightblue" points="728.285,-29.1926 723.421,-19.7804 721.354,-30.1716 728.285,-29.1926"/>
</g>
<!-- Node23 -->
<g id="node23" class="node"><title>Node23</title>
<polygon fill="white" stroke="#bfbfbf" points="750.681,-56.5 750.681,-75.5 792.681,-75.5 792.681,-56.5 750.681,-56.5"/>
<text text-anchor="middle" x="771.681" y="-63.5" font-family="Helvetica,sans-Serif" font-size="10.00">utility</text>
</g>
<!-- Node15&#45;&gt;Node23 -->
<g id="edge27" class="edge"><title>Node15&#45;&gt;Node23</title>
<path fill="none" stroke="midnightblue" d="M799.232,-112.083C794.667,-104.613 788.013,-93.7244 782.388,-84.5199"/>
<polygon fill="midnightblue" stroke="midnightblue" points="785.23,-82.4588 777.029,-75.7511 779.257,-86.109 785.23,-82.4588"/>
</g>
<!-- Node16&#45;&gt;Node13 -->
<g id="edge23" class="edge"><title>Node16&#45;&gt;Node13</title>
<path fill="none" stroke="midnightblue" d="M1706.93,-75.5901C1717.75,-100.41 1730.69,-172.813 1693.68,-210 1645.07,-258.847 1453.71,-235.001 1385.68,-246 1383.16,-246.407 1380.6,-246.843 1378,-247.299"/>
<polygon fill="midnightblue" stroke="midnightblue" points="1377.11,-243.905 1367.9,-249.149 1378.37,-250.791 1377.11,-243.905"/>
</g>
<!-- Node16&#45;&gt;Node17 -->
<g id="edge17" class="edge"><title>Node16&#45;&gt;Node17</title>
<path fill="none" stroke="midnightblue" d="M1710.16,-56.324C1718.88,-48.3414 1732.02,-36.3128 1742.58,-26.6529"/>
<polygon fill="midnightblue" stroke="midnightblue" points="1745.02,-29.1674 1750.03,-19.8339 1740.29,-24.0036 1745.02,-29.1674"/>
</g>
<!-- Node18 -->
<g id="node18" class="node"><title>Node18</title>
<polygon fill="white" stroke="#bfbfbf" points="1588.68,-0.5 1588.68,-19.5 1674.68,-19.5 1674.68,-0.5 1588.68,-0.5"/>
<text text-anchor="middle" x="1631.68" y="-7.5" font-family="Helvetica,sans-Serif" font-size="10.00">carl/util/hash.h</text>
</g>
<!-- Node16&#45;&gt;Node18 -->
<g id="edge18" class="edge"><title>Node16&#45;&gt;Node18</title>
<path fill="none" stroke="midnightblue" d="M1689.6,-56.324C1679.2,-48.1849 1663.42,-35.8395 1650.96,-26.0874"/>
<polygon fill="midnightblue" stroke="midnightblue" points="1653,-23.2407 1642.97,-19.8339 1648.69,-28.7533 1653,-23.2407"/>
</g>
<!-- Node19 -->
<g id="node19" class="node"><title>Node19</title>
<polygon fill="white" stroke="#bfbfbf" points="1466.68,-0.5 1466.68,-19.5 1570.68,-19.5 1570.68,-0.5 1466.68,-0.5"/>
<text text-anchor="middle" x="1518.68" y="-7.5" font-family="Helvetica,sans-Serif" font-size="10.00">eigen3/Eigen/Core</text>
</g>
<!-- Node16&#45;&gt;Node19 -->
<g id="edge19" class="edge"><title>Node16&#45;&gt;Node19</title>
<path fill="none" stroke="midnightblue" d="M1671.84,-56.4435C1640.83,-47.2406 1591.35,-32.5617 1557.06,-22.3879"/>
<polygon fill="midnightblue" stroke="midnightblue" points="1557.97,-19.0055 1547.38,-19.5164 1555.98,-25.7164 1557.97,-19.0055"/>
</g>
<!-- Node16&#45;&gt;Node20 -->
<g id="edge20" class="edge"><title>Node16&#45;&gt;Node20</title>
<path fill="none" stroke="midnightblue" d="M1731.49,-56.6808C1765.79,-47.42 1821.39,-32.408 1859.43,-22.1388"/>
<polygon fill="midnightblue" stroke="midnightblue" points="1860.43,-25.4926 1869.17,-19.5069 1858.61,-18.7346 1860.43,-25.4926"/>
</g>
<!-- Node16&#45;&gt;Node21 -->
<g id="edge21" class="edge"><title>Node16&#45;&gt;Node21</title>
<path fill="none" stroke="midnightblue" d="M1669.71,-58.7316C1665.01,-57.8023 1660.22,-56.8665 1655.68,-56 1570.91,-39.8184 1546.53,-40.0889 1458.56,-20.026"/>
<polygon fill="midnightblue" stroke="midnightblue" points="1459.22,-16.5855 1448.69,-17.7502 1457.64,-23.4067 1459.22,-16.5855"/>
</g>
<!-- Node16&#45;&gt;Node22 -->
<g id="edge22" class="edge"><title>Node16&#45;&gt;Node22</title>
<path fill="none" stroke="midnightblue" d="M1669.98,-60.9913C1655.63,-59.2378 1638.3,-57.2905 1622.68,-56 1277.84,-27.5146 857.076,-14.6606 748.974,-11.6903"/>
<polygon fill="midnightblue" stroke="midnightblue" points="748.78,-8.1839 738.689,-11.4119 748.59,-15.1813 748.78,-8.1839"/>
</g>
<!-- Node24&#45;&gt;Node5 -->
<g id="edge30" class="edge"><title>Node24&#45;&gt;Node5</title>
<path fill="none" stroke="midnightblue" d="M1007.28,-112.444C981.485,-103.399 940.605,-89.064 911.664,-78.9158"/>
<polygon fill="midnightblue" stroke="midnightblue" points="912.564,-75.5226 901.969,-75.5164 910.247,-82.1283 912.564,-75.5226"/>
</g>
<!-- Node25 -->
<g id="node25" class="node"><title>Node25</title>
<polygon fill="white" stroke="#bfbfbf" points="1097.68,-56.5 1097.68,-75.5 1251.68,-75.5 1251.68,-56.5 1097.68,-56.5"/>
<text text-anchor="middle" x="1174.68" y="-63.5" font-family="Helvetica,sans-Serif" font-size="10.00">carl/io/streamingOperators.h</text>
</g>
<!-- Node24&#45;&gt;Node25 -->
<g id="edge31" class="edge"><title>Node24&#45;&gt;Node25</title>
<path fill="none" stroke="midnightblue" d="M1054.34,-112.444C1078.08,-103.478 1115.59,-89.314 1142.42,-79.1827"/>
<polygon fill="midnightblue" stroke="midnightblue" points="1144.01,-82.3235 1152.13,-75.5164 1141.54,-75.7749 1144.01,-82.3235"/>
</g>
<!-- Node26 -->
<g id="node26" class="node"><title>Node26</title>
<polygon fill="white" stroke="#bfbfbf" points="1270.18,-56.5 1270.18,-75.5 1329.18,-75.5 1329.18,-56.5 1270.18,-56.5"/>
<text text-anchor="middle" x="1299.68" y="-63.5" font-family="Helvetica,sans-Serif" font-size="10.00">iostream</text>
</g>
<!-- Node24&#45;&gt;Node26 -->
<g id="edge32" class="edge"><title>Node24&#45;&gt;Node26</title>
<path fill="none" stroke="midnightblue" d="M1077.39,-112.474C1121.6,-104.126 1190.73,-90.8045 1260.1,-76.0683"/>
<polygon fill="midnightblue" stroke="midnightblue" points="1260.84,-79.4895 1269.89,-73.9799 1259.38,-72.6435 1260.84,-79.4895"/>
</g>
<!-- Node27 -->
<g id="node27" class="node"><title>Node27</title>
<polygon fill="white" stroke="#bfbfbf" points="1347.68,-56.5 1347.68,-75.5 1403.68,-75.5 1403.68,-56.5 1347.68,-56.5"/>
<text text-anchor="middle" x="1375.68" y="-63.5" font-family="Helvetica,sans-Serif" font-size="10.00">sstream</text>
</g>
<!-- Node24&#45;&gt;Node27 -->
<g id="edge33" class="edge"><title>Node24&#45;&gt;Node27</title>
<path fill="none" stroke="midnightblue" d="M1088.42,-113.256C1163.32,-102.928 1291.14,-84.9162 1337.68,-76 1337.78,-75.9809 1337.88,-75.9616 1337.98,-75.9423"/>
<polygon fill="midnightblue" stroke="midnightblue" points="1338.44,-79.4217 1347.52,-73.9568 1337.01,-72.5687 1338.44,-79.4217"/>
</g>
<!-- Node28 -->
<g id="node28" class="node"><title>Node28</title>
<polygon fill="white" stroke="#bfbfbf" points="1421.68,-56.5 1421.68,-75.5 1469.68,-75.5 1469.68,-56.5 1421.68,-56.5"/>
<text text-anchor="middle" x="1445.68" y="-63.5" font-family="Helvetica,sans-Serif" font-size="10.00">thread</text>
</g>
<!-- Node24&#45;&gt;Node28 -->
<g id="edge34" class="edge"><title>Node24&#45;&gt;Node28</title>
<path fill="none" stroke="midnightblue" d="M1088.26,-113.774C1093.13,-113.168 1097.99,-112.569 1102.68,-112 1237.15,-95.6704 1274.75,-102.005 1411.6,-75.9428"/>
<polygon fill="midnightblue" stroke="midnightblue" points="1412.47,-79.3394 1421.63,-74.0096 1411.15,-72.466 1412.47,-79.3394"/>
</g>
<!-- Node29 -->
<g id="node29" class="node"><title>Node29</title>
<polygon fill="white" stroke="#bfbfbf" points="1488.18,-56.5 1488.18,-75.5 1613.18,-75.5 1613.18,-56.5 1488.18,-56.5"/>
<text text-anchor="middle" x="1550.68" y="-63.5" font-family="Helvetica,sans-Serif" font-size="10.00">carl/core/carlLogging.h</text>
</g>
<!-- Node24&#45;&gt;Node29 -->
<g id="edge35" class="edge"><title>Node24&#45;&gt;Node29</title>
<path fill="none" stroke="midnightblue" d="M1088.24,-113.671C1093.12,-113.087 1097.99,-112.522 1102.68,-112 1266.27,-93.8048 1310.12,-94.3826 1477.7,-76.0772"/>
<polygon fill="midnightblue" stroke="midnightblue" points="1478.31,-79.5318 1487.87,-74.9605 1477.54,-72.5736 1478.31,-79.5318"/>
</g>
<!-- Node30 -->
<g id="node30" class="node"><title>Node30</title>
<polygon fill="white" stroke="#bfbfbf" points="924.181,-56.5 924.181,-75.5 1079.18,-75.5 1079.18,-56.5 924.181,-56.5"/>
<text text-anchor="middle" x="1001.68" y="-63.5" font-family="Helvetica,sans-Serif" font-size="10.00">carl/core/carlLoggingHelper.h</text>
</g>
<!-- Node24&#45;&gt;Node30 -->
<g id="edge36" class="edge"><title>Node24&#45;&gt;Node30</title>
<path fill="none" stroke="midnightblue" d="M1026.73,-112.083C1022.58,-104.613 1016.53,-93.7244 1011.41,-84.5199"/>
<polygon fill="midnightblue" stroke="midnightblue" points="1014.46,-82.7929 1006.54,-75.7511 1008.34,-86.1924 1014.46,-82.7929"/>
</g>
<!-- Node36&#45;&gt;Node16 -->
<g id="edge47" class="edge"><title>Node36&#45;&gt;Node16</title>
<path fill="none" stroke="midnightblue" d="M1579.89,-247.654C1643.26,-234.857 1730.71,-216.241 1735.68,-210 1762.83,-175.943 1749.82,-153.198 1735.68,-112 1731.96,-101.161 1724.45,-90.9216 1717.33,-82.9566"/>
<polygon fill="midnightblue" stroke="midnightblue" points="1719.68,-80.3498 1710.24,-75.5497 1714.63,-85.1922 1719.68,-80.3498"/>
</g>
<!-- Node37&#45;&gt;Node4 -->
<g id="edge51" class="edge"><title>Node37&#45;&gt;Node4</title>
<path fill="none" stroke="midnightblue" d="M785.558,-254.731C734.312,-242.962 617.001,-216.023 551.01,-200.869"/>
<polygon fill="midnightblue" stroke="midnightblue" points="551.407,-197.369 540.877,-198.542 549.84,-204.191 551.407,-197.369"/>
</g>
<!-- Node37&#45;&gt;Node12 -->
<g id="edge53" class="edge"><title>Node37&#45;&gt;Node12</title>
<path fill="none" stroke="midnightblue" d="M785.466,-256.41C757.756,-250.663 713.613,-237.633 686.681,-210 668.798,-191.651 647.169,-119.62 637.62,-85.3325"/>
<polygon fill="midnightblue" stroke="midnightblue" points="640.983,-84.3615 634.964,-75.6422 634.232,-86.2117 640.983,-84.3615"/>
</g>
<!-- Node37&#45;&gt;Node14 -->
<g id="edge49" class="edge"><title>Node37&#45;&gt;Node14</title>
<path fill="none" stroke="midnightblue" d="M827.086,-251.996C850.469,-239.875 893.597,-217.518 921.172,-203.224"/>
<polygon fill="midnightblue" stroke="midnightblue" points="922.951,-206.244 930.218,-198.534 919.729,-200.029 922.951,-206.244"/>
</g>
<!-- Node37&#45;&gt;Node16 -->
<g id="edge50" class="edge"><title>Node37&#45;&gt;Node16</title>
<path fill="none" stroke="midnightblue" d="M835.711,-254.042C870.771,-244.877 936.414,-227.284 991.681,-210 1046.01,-193.009 1057.56,-182.199 1112.68,-168 1314.98,-115.89 1563.49,-83.1985 1659.83,-71.6726"/>
<polygon fill="midnightblue" stroke="midnightblue" points="1660.5,-75.1185 1670.01,-70.4657 1659.67,-68.1672 1660.5,-75.1185"/>
</g>
<!-- Node37&#45;&gt;Node22 -->
<g id="edge52" class="edge"><title>Node37&#45;&gt;Node22</title>
<path fill="none" stroke="midnightblue" d="M801.501,-251.969C781.689,-232.833 735.446,-184.066 719.681,-132 709.115,-97.1022 714.251,-53.9219 718.657,-29.72"/>
<polygon fill="midnightblue" stroke="midnightblue" points="722.121,-30.2472 720.631,-19.7577 715.254,-28.887 722.121,-30.2472"/>
</g>
<!-- Node38 -->
<g id="node38" class="node"><title>Node38</title>
<polygon fill="white" stroke="#bfbfbf" points="781.181,-179.5 781.181,-198.5 840.181,-198.5 840.181,-179.5 781.181,-179.5"/>
<text text-anchor="middle" x="810.681" y="-186.5" font-family="Helvetica,sans-Serif" font-size="10.00">Point.tpp</text>
</g>
<!-- Node37&#45;&gt;Node38 -->
<g id="edge54" class="edge"><title>Node37&#45;&gt;Node38</title>
<path fill="none" stroke="midnightblue" d="M810.681,-251.855C810.681,-241.179 810.681,-222.717 810.681,-208.734"/>
<polygon fill="midnightblue" stroke="midnightblue" points="814.181,-208.715 810.681,-198.715 807.181,-208.715 814.181,-208.715"/>
</g>
</g>
</svg>
