<?xml version="1.0" encoding="UTF-8" standalone="no"?>
<!DOCTYPE svg PUBLIC "-//W3C//DTD SVG 1.1//EN"
 "http://www.w3.org/Graphics/SVG/1.1/DTD/svg11.dtd">
<!-- Generated by graphviz version 2.38.0 (20140413.2041)
 -->
<!-- Title: /home/travis/build/hypro/hypro/src/hypro/parser/antlr4&#45;flowstar/ErrorListener.h Pages: 1 -->
<svg width="274pt" height="150pt"
 viewBox="0.00 0.00 274.00 150.00" xmlns="http://www.w3.org/2000/svg" xmlns:xlink="http://www.w3.org/1999/xlink">
<g id="graph0" class="graph" transform="scale(1 1) rotate(0) translate(4 146)">
<title>/home/travis/build/hypro/hypro/src/hypro/parser/antlr4&#45;flowstar/ErrorListener.h</title>
<polygon fill="white" stroke="none" points="-4,4 -4,-146 270,-146 270,4 -4,4"/>
<!-- Node1 -->
<g id="node1" class="node"><title>Node1</title>
<polygon fill="#bfbfbf" stroke="black" points="71,-89.5 71,-141.5 195,-141.5 195,-89.5 71,-89.5"/>
<text text-anchor="start" x="79" y="-129.5" font-family="Helvetica,sans-Serif" font-size="10.00">/home/travis/build</text>
<text text-anchor="start" x="79" y="-118.5" font-family="Helvetica,sans-Serif" font-size="10.00">/hypro/hypro/src/hypro</text>
<text text-anchor="start" x="79" y="-107.5" font-family="Helvetica,sans-Serif" font-size="10.00">/parser/antlr4&#45;flowstar</text>
<text text-anchor="middle" x="133" y="-96.5" font-family="Helvetica,sans-Serif" font-size="10.00">/ErrorListener.h</text>
</g>
<!-- Node2 -->
<g id="node2" class="node"><title>Node2</title>
<g id="a_node2"><a xlink:href="ErrorListener_8cpp.html" target="_top" xlink:title="/home/travis/build\l/hypro/hypro/src/hypro\l/parser/antlr4&#45;flowstar\l/ErrorListener.cpp">
<polygon fill="white" stroke="black" points="0,-0.5 0,-52.5 124,-52.5 124,-0.5 0,-0.5"/>
<text text-anchor="start" x="8" y="-40.5" font-family="Helvetica,sans-Serif" font-size="10.00">/home/travis/build</text>
<text text-anchor="start" x="8" y="-29.5" font-family="Helvetica,sans-Serif" font-size="10.00">/hypro/hypro/src/hypro</text>
<text text-anchor="start" x="8" y="-18.5" font-family="Helvetica,sans-Serif" font-size="10.00">/parser/antlr4&#45;flowstar</text>
<text text-anchor="middle" x="62" y="-7.5" font-family="Helvetica,sans-Serif" font-size="10.00">/ErrorListener.cpp</text>
</a>
</g>
</g>
<!-- Node1&#45;&gt;Node2 -->
<g id="edge1" class="edge"><title>Node1&#45;&gt;Node2</title>
<path fill="none" stroke="midnightblue" d="M106.071,-81.5029C98.253,-71.9226 89.8447,-61.6196 82.49,-52.6075"/>
<polygon fill="midnightblue" stroke="midnightblue" points="103.43,-83.8014 112.464,-89.336 108.853,-79.3755 103.43,-83.8014"/>
</g>
<!-- Node3 -->
<g id="node3" class="node"><title>Node3</title>
<g id="a_node3"><a xlink:href="ParserWrapper_8cpp.html" target="_top" xlink:title="/home/travis/build\l/hypro/hypro/src/hypro\l/parser/antlr4&#45;flowstar\l/ParserWrapper.cpp">
<polygon fill="white" stroke="black" points="142,-0.5 142,-52.5 266,-52.5 266,-0.5 142,-0.5"/>
<text text-anchor="start" x="150" y="-40.5" font-family="Helvetica,sans-Serif" font-size="10.00">/home/travis/build</text>
<text text-anchor="start" x="150" y="-29.5" font-family="Helvetica,sans-Serif" font-size="10.00">/hypro/hypro/src/hypro</text>
<text text-anchor="start" x="150" y="-18.5" font-family="Helvetica,sans-Serif" font-size="10.00">/parser/antlr4&#45;flowstar</text>
<text text-anchor="middle" x="204" y="-7.5" font-family="Helvetica,sans-Serif" font-size="10.00">/ParserWrapper.cpp</text>
</a>
</g>
</g>
<!-- Node1&#45;&gt;Node3 -->
<g id="edge2" class="edge"><title>Node1&#45;&gt;Node3</title>
<path fill="none" stroke="midnightblue" d="M159.929,-81.5029C167.747,-71.9226 176.155,-61.6196 183.51,-52.6075"/>
<polygon fill="midnightblue" stroke="midnightblue" points="157.147,-79.3755 153.536,-89.336 162.57,-83.8014 157.147,-79.3755"/>
</g>
</g>
</svg>
