<?xml version="1.0" encoding="UTF-8" standalone="no"?>
<!DOCTYPE svg PUBLIC "-//W3C//DTD SVG 1.1//EN"
 "http://www.w3.org/Graphics/SVG/1.1/DTD/svg11.dtd">
<!-- Generated by graphviz version 2.38.0 (20140413.2041)
 -->
<!-- Title: /home/travis/build/hypro/hypro/src/hypro/datastructures/reachability/timing/ETC_util.h Pages: 1 -->
<!--zoomable 862 -->
<svg id="main" version="1.1" xmlns="http://www.w3.org/2000/svg" xmlns:xlink="http://www.w3.org/1999/xlink" xml:space="preserve" onload="init(evt)">
<style type="text/css"><![CDATA[
.edge:hover path { stroke: red; }
.edge:hover polygon { stroke: red; fill: red; }
]]></style>
<script type="text/javascript"><![CDATA[
var edges = document.getElementsByTagName('g');
if (edges && edges.length) {
  for (var i=0;i<edges.length;i++) {
    if (edges[i].id.substr(0,4)=='edge') {
      edges[i].setAttribute('class','edge');
    }
  }
}
]]></script>
        <defs>
                <circle id="rim" cx="0" cy="0" r="7"/>
                <circle id="rim2" cx="0" cy="0" r="3.5"/>
                <g id="zoomPlus">
                        <use xlink:href="#rim" fill="#404040">
                                <set attributeName="fill" to="#808080" begin="zoomplus.mouseover" end="zoomplus.mouseout"/>
                        </use>
                        <path d="M-4,0h8M0,-4v8" fill="none" stroke="white" stroke-width="1.5" pointer-events="none"/>
                </g>
                <g id="zoomMin">
                        <use xlink:href="#rim" fill="#404040">
                                <set attributeName="fill" to="#808080" begin="zoomminus.mouseover" end="zoomminus.mouseout"/>
                        </use>
                        <path d="M-4,0h8" fill="none" stroke="white" stroke-width="1.5" pointer-events="none"/>
                </g>
                <g id="dirArrow">
                        <path fill="none" stroke="white" stroke-width="1.5" d="M0,-3.0v7 M-2.5,-0.5L0,-3.0L2.5,-0.5"/>
                </g>
               <g id="resetDef">
                       <use xlink:href="#rim2" fill="#404040">
                               <set attributeName="fill" to="#808080" begin="reset.mouseover" end="reset.mouseout"/>
                       </use>
               </g>
        </defs>

<script type="text/javascript">
var viewWidth = 1396;
var viewHeight = 862;
var sectionId = 'dynsection-1';
</script>
<script xlink:href="svgpan.js"/>
<svg id="graph" class="graph">
<g id="viewport">
<title>/home/travis/build/hypro/hypro/src/hypro/datastructures/reachability/timing/ETC_util.h</title>
<polygon fill="white" stroke="none" points="-4,4 -4,-858 1392.23,-858 1392.23,4 -4,4"/>
<!-- Node1 -->
<g id="node1" class="node"><title>Node1</title>
<polygon fill="#bfbfbf" stroke="black" points="201.148,-801.5 201.148,-853.5 349.148,-853.5 349.148,-801.5 201.148,-801.5"/>
<text text-anchor="start" x="209.148" y="-841.5" font-family="Helvetica,sans-Serif" font-size="10.00">/home/travis/build</text>
<text text-anchor="start" x="209.148" y="-830.5" font-family="Helvetica,sans-Serif" font-size="10.00">/hypro/hypro/src/hypro</text>
<text text-anchor="start" x="209.148" y="-819.5" font-family="Helvetica,sans-Serif" font-size="10.00">/datastructures/reachability</text>
<text text-anchor="middle" x="275.148" y="-808.5" font-family="Helvetica,sans-Serif" font-size="10.00">/timing/ETC_util.h</text>
</g>
<!-- Node2 -->
<g id="node2" class="node"><title>Node2</title>
<g id="a_node2"><a xlink:href="EventTimingContainer_8h.html" target="_top" xlink:title="/home/travis/build\l/hypro/hypro/src/hypro\l/datastructures/reachability\l/timing/EventTimingContainer.h">
<polygon fill="white" stroke="black" points="192.148,-712.5 192.148,-764.5 358.148,-764.5 358.148,-712.5 192.148,-712.5"/>
<text text-anchor="start" x="200.148" y="-752.5" font-family="Helvetica,sans-Serif" font-size="10.00">/home/travis/build</text>
<text text-anchor="start" x="200.148" y="-741.5" font-family="Helvetica,sans-Serif" font-size="10.00">/hypro/hypro/src/hypro</text>
<text text-anchor="start" x="200.148" y="-730.5" font-family="Helvetica,sans-Serif" font-size="10.00">/datastructures/reachability</text>
<text text-anchor="middle" x="275.148" y="-719.5" font-family="Helvetica,sans-Serif" font-size="10.00">/timing/EventTimingContainer.h</text>
</a>
</g>
</g>
<!-- Node1&#45;&gt;Node2 -->
<g id="edge1" class="edge"><title>Node1&#45;&gt;Node2</title>
<path fill="none" stroke="midnightblue" d="M268.505,-791.191C268.269,-782.282 268.422,-772.899 268.965,-764.607"/>
<polygon fill="midnightblue" stroke="midnightblue" points="265.015,-791.503 268.962,-801.336 272.008,-791.189 265.015,-791.503"/>
</g>
<!-- Node22 -->
<g id="node22" class="node"><title>Node22</title>
<g id="a_node22"><a xlink:href="ETC__util_8cpp.html" target="_top" xlink:title="/home/travis/build\l/hypro/hypro/src/hypro\l/datastructures/reachability\l/timing/ETC_util.cpp">
<polygon fill="white" stroke="black" points="376.148,-712.5 376.148,-764.5 524.148,-764.5 524.148,-712.5 376.148,-712.5"/>
<text text-anchor="start" x="384.148" y="-752.5" font-family="Helvetica,sans-Serif" font-size="10.00">/home/travis/build</text>
<text text-anchor="start" x="384.148" y="-741.5" font-family="Helvetica,sans-Serif" font-size="10.00">/hypro/hypro/src/hypro</text>
<text text-anchor="start" x="384.148" y="-730.5" font-family="Helvetica,sans-Serif" font-size="10.00">/datastructures/reachability</text>
<text text-anchor="middle" x="450.148" y="-719.5" font-family="Helvetica,sans-Serif" font-size="10.00">/timing/ETC_util.cpp</text>
</a>
</g>
</g>
<!-- Node1&#45;&gt;Node22 -->
<g id="edge51" class="edge"><title>Node1&#45;&gt;Node22</title>
<path fill="none" stroke="midnightblue" d="M334.937,-796.776C355.991,-786.309 379.432,-774.656 399.644,-764.607"/>
<polygon fill="midnightblue" stroke="midnightblue" points="333.161,-793.75 325.765,-801.336 336.277,-800.018 333.161,-793.75"/>
</g>
<!-- Node2&#45;&gt;Node1 -->
<g id="edge36" class="edge"><title>Node2&#45;&gt;Node1</title>
<path fill="none" stroke="midnightblue" d="M281.788,-774.749C282.027,-783.655 281.875,-793.04 281.334,-801.336"/>
<polygon fill="midnightblue" stroke="midnightblue" points="285.278,-774.439 281.33,-764.607 278.285,-774.755 285.278,-774.439"/>
</g>
<!-- Node3 -->
<g id="node3" class="node"><title>Node3</title>
<g id="a_node3"><a xlink:href="ReachTreeNode_8h.html" target="_top" xlink:title="/home/travis/build\l/hypro/hypro/src/hypro\l/datastructures/reachability\l/ReachTreeNode.h">
<polygon fill="white" stroke="black" points="932.148,-623.5 932.148,-675.5 1080.15,-675.5 1080.15,-623.5 932.148,-623.5"/>
<text text-anchor="start" x="940.148" y="-663.5" font-family="Helvetica,sans-Serif" font-size="10.00">/home/travis/build</text>
<text text-anchor="start" x="940.148" y="-652.5" font-family="Helvetica,sans-Serif" font-size="10.00">/hypro/hypro/src/hypro</text>
<text text-anchor="start" x="940.148" y="-641.5" font-family="Helvetica,sans-Serif" font-size="10.00">/datastructures/reachability</text>
<text text-anchor="middle" x="1006.15" y="-630.5" font-family="Helvetica,sans-Serif" font-size="10.00">/ReachTreeNode.h</text>
</a>
</g>
</g>
<!-- Node2&#45;&gt;Node3 -->
<g id="edge2" class="edge"><title>Node2&#45;&gt;Node3</title>
<path fill="none" stroke="midnightblue" d="M368.314,-711.93C548.482,-680.01 597.843,-693.729 776.148,-676 828.319,-670.813 887.068,-664.287 932.131,-659.136"/>
<polygon fill="midnightblue" stroke="midnightblue" points="367.459,-708.527 358.235,-713.738 368.696,-715.417 367.459,-708.527"/>
</g>
<!-- Node10 -->
<g id="node10" class="node"><title>Node10</title>
<g id="a_node10"><a xlink:href="LTIContext_8h.html" target="_top" xlink:title="/home/travis/build\l/hypro/hypro/src/hypro\l/algorithms/reachability\l/contexts/LTIContext.h">
<polygon fill="white" stroke="black" points="126.148,-356.5 126.148,-408.5 254.148,-408.5 254.148,-356.5 126.148,-356.5"/>
<text text-anchor="start" x="134.148" y="-396.5" font-family="Helvetica,sans-Serif" font-size="10.00">/home/travis/build</text>
<text text-anchor="start" x="134.148" y="-385.5" font-family="Helvetica,sans-Serif" font-size="10.00">/hypro/hypro/src/hypro</text>
<text text-anchor="start" x="134.148" y="-374.5" font-family="Helvetica,sans-Serif" font-size="10.00">/algorithms/reachability</text>
<text text-anchor="middle" x="190.148" y="-363.5" font-family="Helvetica,sans-Serif" font-size="10.00">/contexts/LTIContext.h</text>
</a>
</g>
</g>
<!-- Node2&#45;&gt;Node10 -->
<g id="edge37" class="edge"><title>Node2&#45;&gt;Node10</title>
<path fill="none" stroke="midnightblue" d="M231.22,-706.193C197.246,-679.062 152.794,-636.451 133.148,-587 108.425,-524.773 147.919,-447.847 172.636,-408.804"/>
<polygon fill="midnightblue" stroke="midnightblue" points="229.139,-709.009 239.171,-712.415 233.453,-703.496 229.139,-709.009"/>
</g>
<!-- Node11 -->
<g id="node11" class="node"><title>Node11</title>
<g id="a_node11"><a xlink:href="TimedContext_8h.html" target="_top" xlink:title="/home/travis/build\l/hypro/hypro/src/hypro\l/algorithms/reachability\l/contexts/TimedContext.h">
<polygon fill="white" stroke="black" points="142.148,-267.5 142.148,-319.5 282.148,-319.5 282.148,-267.5 142.148,-267.5"/>
<text text-anchor="start" x="150.148" y="-307.5" font-family="Helvetica,sans-Serif" font-size="10.00">/home/travis/build</text>
<text text-anchor="start" x="150.148" y="-296.5" font-family="Helvetica,sans-Serif" font-size="10.00">/hypro/hypro/src/hypro</text>
<text text-anchor="start" x="150.148" y="-285.5" font-family="Helvetica,sans-Serif" font-size="10.00">/algorithms/reachability</text>
<text text-anchor="middle" x="212.148" y="-274.5" font-family="Helvetica,sans-Serif" font-size="10.00">/contexts/TimedContext.h</text>
</a>
</g>
</g>
<!-- Node2&#45;&gt;Node11 -->
<g id="edge50" class="edge"><title>Node2&#45;&gt;Node11</title>
<path fill="none" stroke="midnightblue" d="M190.676,-707.706C175.604,-699.333 161.207,-688.888 150.148,-676 123.144,-644.531 129.018,-627.894 122.148,-587 105.134,-485.728 68.083,-446.211 117.148,-356 125.408,-340.811 139.215,-328.798 153.78,-319.571"/>
<polygon fill="midnightblue" stroke="midnightblue" points="189.127,-710.845 199.607,-712.398 192.383,-704.649 189.127,-710.845"/>
</g>
<!-- Node18 -->
<g id="node18" class="node"><title>Node18</title>
<g id="a_node18"><a xlink:href="EventTimingProvider_8h.html" target="_top" xlink:title="/home/travis/build\l/hypro/hypro/src/hypro\l/datastructures/reachability\l/timing/EventTimingProvider.h">
<polygon fill="white" stroke="black" points="142.148,-534.5 142.148,-586.5 300.148,-586.5 300.148,-534.5 142.148,-534.5"/>
<text text-anchor="start" x="150.148" y="-574.5" font-family="Helvetica,sans-Serif" font-size="10.00">/home/travis/build</text>
<text text-anchor="start" x="150.148" y="-563.5" font-family="Helvetica,sans-Serif" font-size="10.00">/hypro/hypro/src/hypro</text>
<text text-anchor="start" x="150.148" y="-552.5" font-family="Helvetica,sans-Serif" font-size="10.00">/datastructures/reachability</text>
<text text-anchor="middle" x="221.148" y="-541.5" font-family="Helvetica,sans-Serif" font-size="10.00">/timing/EventTimingProvider.h</text>
</a>
</g>
</g>
<!-- Node2&#45;&gt;Node18 -->
<g id="edge38" class="edge"><title>Node2&#45;&gt;Node18</title>
<path fill="none" stroke="midnightblue" d="M256.597,-703.265C252.394,-694.551 248.259,-685.078 245.148,-676 234.874,-646.028 228.209,-610.066 224.57,-586.544"/>
<polygon fill="midnightblue" stroke="midnightblue" points="253.543,-704.983 261.139,-712.368 259.807,-701.858 253.543,-704.983"/>
</g>
<!-- Node19 -->
<g id="node19" class="node"><title>Node19</title>
<g id="a_node19"><a xlink:href="timingUtil_8h.html" target="_top" xlink:title="/home/travis/build\l/hypro/hypro/src/hypro\l/algorithms/reachability\l/handlers/jumpHandlers/timingUtil.h">
<polygon fill="white" stroke="black" points="716.148,-445.5 716.148,-497.5 904.148,-497.5 904.148,-445.5 716.148,-445.5"/>
<text text-anchor="start" x="724.148" y="-485.5" font-family="Helvetica,sans-Serif" font-size="10.00">/home/travis/build</text>
<text text-anchor="start" x="724.148" y="-474.5" font-family="Helvetica,sans-Serif" font-size="10.00">/hypro/hypro/src/hypro</text>
<text text-anchor="start" x="724.148" y="-463.5" font-family="Helvetica,sans-Serif" font-size="10.00">/algorithms/reachability</text>
<text text-anchor="middle" x="810.148" y="-452.5" font-family="Helvetica,sans-Serif" font-size="10.00">/handlers/jumpHandlers/timingUtil.h</text>
</a>
</g>
</g>
<!-- Node2&#45;&gt;Node19 -->
<g id="edge49" class="edge"><title>Node2&#45;&gt;Node19</title>
<path fill="none" stroke="midnightblue" d="M368.122,-709.412C474.079,-676.497 639.75,-622.014 695.148,-587 733.729,-562.615 769.533,-523.24 790.624,-497.613"/>
<polygon fill="midnightblue" stroke="midnightblue" points="366.895,-706.128 358.378,-712.43 368.966,-712.814 366.895,-706.128"/>
</g>
<!-- Node20 -->
<g id="node20" class="node"><title>Node20</title>
<g id="a_node20"><a xlink:href="EventTimingNode_8h.html" target="_top" xlink:title="/home/travis/build\l/hypro/hypro/src/hypro\l/datastructures/reachability\l/timing/EventTimingNode.h">
<polygon fill="white" stroke="black" points="254.148,-623.5 254.148,-675.5 402.148,-675.5 402.148,-623.5 254.148,-623.5"/>
<text text-anchor="start" x="262.148" y="-663.5" font-family="Helvetica,sans-Serif" font-size="10.00">/home/travis/build</text>
<text text-anchor="start" x="262.148" y="-652.5" font-family="Helvetica,sans-Serif" font-size="10.00">/hypro/hypro/src/hypro</text>
<text text-anchor="start" x="262.148" y="-641.5" font-family="Helvetica,sans-Serif" font-size="10.00">/datastructures/reachability</text>
<text text-anchor="middle" x="328.148" y="-630.5" font-family="Helvetica,sans-Serif" font-size="10.00">/timing/EventTimingNode.h</text>
</a>
</g>
</g>
<!-- Node2&#45;&gt;Node20 -->
<g id="edge44" class="edge"><title>Node2&#45;&gt;Node20</title>
<path fill="none" stroke="midnightblue" d="M295.776,-703.639C301.461,-694.306 307.527,-684.349 312.852,-675.607"/>
<polygon fill="midnightblue" stroke="midnightblue" points="292.691,-701.975 290.477,-712.336 298.669,-705.617 292.691,-701.975"/>
</g>
<!-- Node4 -->
<g id="node4" class="node"><title>Node4</title>
<g id="a_node4"><a xlink:href="Task_8h.html" target="_top" xlink:title="/home/travis/build\l/hypro/hypro/src/hypro\l/datastructures/reachability\l/Task.h">
<polygon fill="white" stroke="black" points="538.148,-534.5 538.148,-586.5 686.148,-586.5 686.148,-534.5 538.148,-534.5"/>
<text text-anchor="start" x="546.148" y="-574.5" font-family="Helvetica,sans-Serif" font-size="10.00">/home/travis/build</text>
<text text-anchor="start" x="546.148" y="-563.5" font-family="Helvetica,sans-Serif" font-size="10.00">/hypro/hypro/src/hypro</text>
<text text-anchor="start" x="546.148" y="-552.5" font-family="Helvetica,sans-Serif" font-size="10.00">/datastructures/reachability</text>
<text text-anchor="middle" x="612.148" y="-541.5" font-family="Helvetica,sans-Serif" font-size="10.00">/Task.h</text>
</a>
</g>
</g>
<!-- Node3&#45;&gt;Node4 -->
<g id="edge3" class="edge"><title>Node3&#45;&gt;Node4</title>
<path fill="none" stroke="midnightblue" d="M921.927,-629.903C851.931,-614.447 753.291,-592.666 686.258,-577.864"/>
<polygon fill="midnightblue" stroke="midnightblue" points="921.52,-633.397 932.039,-632.136 923.029,-626.562 921.52,-633.397"/>
</g>
<!-- Node12 -->
<g id="node12" class="node"><title>Node12</title>
<g id="a_node12"><a xlink:href="ltiJumpHandler_8h.html" target="_top" xlink:title="/home/travis/build\l/hypro/hypro/src/hypro\l/algorithms/reachability\l/handlers/jumpHandlers/ltiJumpHandler.h">
<polygon fill="white" stroke="black" points="826.148,-356.5 826.148,-408.5 1038.15,-408.5 1038.15,-356.5 826.148,-356.5"/>
<text text-anchor="start" x="834.148" y="-396.5" font-family="Helvetica,sans-Serif" font-size="10.00">/home/travis/build</text>
<text text-anchor="start" x="834.148" y="-385.5" font-family="Helvetica,sans-Serif" font-size="10.00">/hypro/hypro/src/hypro</text>
<text text-anchor="start" x="834.148" y="-374.5" font-family="Helvetica,sans-Serif" font-size="10.00">/algorithms/reachability</text>
<text text-anchor="middle" x="932.148" y="-363.5" font-family="Helvetica,sans-Serif" font-size="10.00">/handlers/jumpHandlers/ltiJumpHandler.h</text>
</a>
</g>
</g>
<!-- Node3&#45;&gt;Node12 -->
<g id="edge33" class="edge"><title>Node3&#45;&gt;Node12</title>
<path fill="none" stroke="midnightblue" d="M996.299,-613.232C981.15,-558.982 952.493,-456.358 939.221,-408.832"/>
<polygon fill="midnightblue" stroke="midnightblue" points="992.991,-614.401 999.052,-623.091 999.733,-612.518 992.991,-614.401"/>
</g>
<!-- Node15 -->
<g id="node15" class="node"><title>Node15</title>
<g id="a_node15"><a xlink:href="ReachTree_8h.html" target="_top" xlink:title="/home/travis/build\l/hypro/hypro/src/hypro\l/datastructures/reachability\l/ReachTree.h">
<polygon fill="white" stroke="black" points="1225.15,-534.5 1225.15,-586.5 1373.15,-586.5 1373.15,-534.5 1225.15,-534.5"/>
<text text-anchor="start" x="1233.15" y="-574.5" font-family="Helvetica,sans-Serif" font-size="10.00">/home/travis/build</text>
<text text-anchor="start" x="1233.15" y="-563.5" font-family="Helvetica,sans-Serif" font-size="10.00">/hypro/hypro/src/hypro</text>
<text text-anchor="start" x="1233.15" y="-552.5" font-family="Helvetica,sans-Serif" font-size="10.00">/datastructures/reachability</text>
<text text-anchor="middle" x="1299.15" y="-541.5" font-family="Helvetica,sans-Serif" font-size="10.00">/ReachTree.h</text>
</a>
</g>
</g>
<!-- Node3&#45;&gt;Node15 -->
<g id="edge27" class="edge"><title>Node3&#45;&gt;Node15</title>
<path fill="none" stroke="midnightblue" d="M1090.23,-623.533C1132.74,-610.911 1183.87,-595.728 1224.91,-583.543"/>
<polygon fill="midnightblue" stroke="midnightblue" points="1089.05,-620.232 1080.46,-626.434 1091.05,-626.942 1089.05,-620.232"/>
</g>
<!-- Node16 -->
<g id="node16" class="node"><title>Node16</title>
<g id="a_node16"><a xlink:href="NodeManager_8h.html" target="_top" xlink:title="/home/travis/build\l/hypro/hypro/src/hypro\l/datastructures/reachability\l/NodeManager.h">
<polygon fill="white" stroke="black" points="1174.15,-445.5 1174.15,-497.5 1322.15,-497.5 1322.15,-445.5 1174.15,-445.5"/>
<text text-anchor="start" x="1182.15" y="-485.5" font-family="Helvetica,sans-Serif" font-size="10.00">/home/travis/build</text>
<text text-anchor="start" x="1182.15" y="-474.5" font-family="Helvetica,sans-Serif" font-size="10.00">/hypro/hypro/src/hypro</text>
<text text-anchor="start" x="1182.15" y="-463.5" font-family="Helvetica,sans-Serif" font-size="10.00">/datastructures/reachability</text>
<text text-anchor="middle" x="1248.15" y="-452.5" font-family="Helvetica,sans-Serif" font-size="10.00">/NodeManager.h</text>
</a>
</g>
</g>
<!-- Node3&#45;&gt;Node16 -->
<g id="edge32" class="edge"><title>Node3&#45;&gt;Node16</title>
<path fill="none" stroke="midnightblue" d="M1048.69,-617.559C1095.55,-583.481 1170,-529.337 1213.46,-497.728"/>
<polygon fill="midnightblue" stroke="midnightblue" points="1046.59,-614.758 1040.56,-623.47 1050.71,-620.419 1046.59,-614.758"/>
</g>
<!-- Node17 -->
<g id="node17" class="node"><title>Node17</title>
<g id="a_node17"><a xlink:href="algorithms_2reachability_2handlers_2jumpHandlers_2util_8h.html" target="_top" xlink:title="/home/travis/build\l/hypro/hypro/src/hypro\l/algorithms/reachability\l/handlers/jumpHandlers/util.h">
<polygon fill="white" stroke="black" points="998.648,-445.5 998.648,-497.5 1155.65,-497.5 1155.65,-445.5 998.648,-445.5"/>
<text text-anchor="start" x="1006.65" y="-485.5" font-family="Helvetica,sans-Serif" font-size="10.00">/home/travis/build</text>
<text text-anchor="start" x="1006.65" y="-474.5" font-family="Helvetica,sans-Serif" font-size="10.00">/hypro/hypro/src/hypro</text>
<text text-anchor="start" x="1006.65" y="-463.5" font-family="Helvetica,sans-Serif" font-size="10.00">/algorithms/reachability</text>
<text text-anchor="middle" x="1077.15" y="-452.5" font-family="Helvetica,sans-Serif" font-size="10.00">/handlers/jumpHandlers/util.h</text>
</a>
</g>
</g>
<!-- Node3&#45;&gt;Node17 -->
<g id="edge34" class="edge"><title>Node3&#45;&gt;Node17</title>
<path fill="none" stroke="midnightblue" d="M1020.19,-613.69C1033.99,-579.478 1054.72,-528.1 1066.99,-497.67"/>
<polygon fill="midnightblue" stroke="midnightblue" points="1016.82,-612.7 1016.32,-623.283 1023.31,-615.319 1016.82,-612.7"/>
</g>
<!-- Node5 -->
<g id="node5" class="node"><title>Node5</title>
<g id="a_node5"><a xlink:href="ContextFactory_8h.html" target="_top" xlink:title="/home/travis/build\l/hypro/hypro/src/hypro\l/algorithms/reachability\l/contexts/ContextFactory.h">
<polygon fill="white" stroke="black" points="238.648,-178.5 238.648,-230.5 381.648,-230.5 381.648,-178.5 238.648,-178.5"/>
<text text-anchor="start" x="246.648" y="-218.5" font-family="Helvetica,sans-Serif" font-size="10.00">/home/travis/build</text>
<text text-anchor="start" x="246.648" y="-207.5" font-family="Helvetica,sans-Serif" font-size="10.00">/hypro/hypro/src/hypro</text>
<text text-anchor="start" x="246.648" y="-196.5" font-family="Helvetica,sans-Serif" font-size="10.00">/algorithms/reachability</text>
<text text-anchor="middle" x="310.148" y="-185.5" font-family="Helvetica,sans-Serif" font-size="10.00">/contexts/ContextFactory.h</text>
</a>
</g>
</g>
<!-- Node4&#45;&gt;Node5 -->
<g id="edge4" class="edge"><title>Node4&#45;&gt;Node5</title>
<path fill="none" stroke="midnightblue" d="M598.751,-525.119C588.65,-501.416 573.43,-469.832 555.148,-445 521.228,-398.929 510.534,-386.526 462.148,-356 423.96,-331.908 400.626,-350.297 367.148,-320 353.029,-307.223 332.246,-260.178 320.064,-230.513"/>
<polygon fill="midnightblue" stroke="midnightblue" points="595.553,-526.544 602.629,-534.43 602.014,-523.853 595.553,-526.544"/>
</g>
<!-- Node6 -->
<g id="node6" class="node"><title>Node6</title>
<g id="a_node6"><a xlink:href="ContextBasedReachabilityWorker_8h.html" target="_top" xlink:title="/home/travis/build\l/hypro/hypro/src/hypro\l/algorithms/reachability\l/workers/ContextBasedReachability\lWorker.h">
<polygon fill="white" stroke="black" points="560.648,-78.5 560.648,-141.5 743.648,-141.5 743.648,-78.5 560.648,-78.5"/>
<text text-anchor="start" x="568.648" y="-129.5" font-family="Helvetica,sans-Serif" font-size="10.00">/home/travis/build</text>
<text text-anchor="start" x="568.648" y="-118.5" font-family="Helvetica,sans-Serif" font-size="10.00">/hypro/hypro/src/hypro</text>
<text text-anchor="start" x="568.648" y="-107.5" font-family="Helvetica,sans-Serif" font-size="10.00">/algorithms/reachability</text>
<text text-anchor="start" x="568.648" y="-96.5" font-family="Helvetica,sans-Serif" font-size="10.00">/workers/ContextBasedReachability</text>
<text text-anchor="middle" x="652.148" y="-85.5" font-family="Helvetica,sans-Serif" font-size="10.00">Worker.h</text>
</a>
</g>
</g>
<!-- Node4&#45;&gt;Node6 -->
<g id="edge24" class="edge"><title>Node4&#45;&gt;Node6</title>
<path fill="none" stroke="midnightblue" d="M621.023,-524.47C622.955,-515.86 624.816,-506.634 626.148,-498 644.296,-380.322 641.273,-349.87 648.148,-231 649.905,-200.617 650.959,-165.859 651.54,-141.598"/>
<polygon fill="midnightblue" stroke="midnightblue" points="617.611,-523.688 618.751,-534.222 624.429,-525.277 617.611,-523.688"/>
</g>
<!-- Node7 -->
<g id="node7" class="node"><title>Node7</title>
<g id="a_node7"><a xlink:href="example__rectangularReachability_8cpp.html" target="_top" xlink:title="/home/travis/build\l/hypro/hypro/examples\l/example_rectangularReachability.cpp">
<polygon fill="white" stroke="black" points="430.148,-0.5 430.148,-41.5 626.148,-41.5 626.148,-0.5 430.148,-0.5"/>
<text text-anchor="start" x="438.148" y="-29.5" font-family="Helvetica,sans-Serif" font-size="10.00">/home/travis/build</text>
<text text-anchor="start" x="438.148" y="-18.5" font-family="Helvetica,sans-Serif" font-size="10.00">/hypro/hypro/examples</text>
<text text-anchor="middle" x="528.148" y="-7.5" font-family="Helvetica,sans-Serif" font-size="10.00">/example_rectangularReachability.cpp</text>
</a>
</g>
</g>
<!-- Node4&#45;&gt;Node7 -->
<g id="edge25" class="edge"><title>Node4&#45;&gt;Node7</title>
<path fill="none" stroke="midnightblue" d="M613.021,-524.163C613.71,-468.779 612.334,-358.412 594.148,-267 582.683,-209.379 566.271,-198.771 551.148,-142 541.865,-107.154 534.768,-65.6703 531.048,-41.731"/>
<polygon fill="midnightblue" stroke="midnightblue" points="609.521,-524.113 612.866,-534.166 616.521,-524.221 609.521,-524.113"/>
</g>
<!-- Node8 -->
<g id="node8" class="node"><title>Node8</title>
<g id="a_node8"><a xlink:href="example__worker_8cpp.html" target="_top" xlink:title="/home/travis/build\l/hypro/hypro/examples\l/example_worker.cpp">
<polygon fill="white" stroke="black" points="712.148,-0.5 712.148,-41.5 838.148,-41.5 838.148,-0.5 712.148,-0.5"/>
<text text-anchor="start" x="720.148" y="-29.5" font-family="Helvetica,sans-Serif" font-size="10.00">/home/travis/build</text>
<text text-anchor="start" x="720.148" y="-18.5" font-family="Helvetica,sans-Serif" font-size="10.00">/hypro/hypro/examples</text>
<text text-anchor="middle" x="775.148" y="-7.5" font-family="Helvetica,sans-Serif" font-size="10.00">/example_worker.cpp</text>
</a>
</g>
</g>
<!-- Node4&#45;&gt;Node8 -->
<g id="edge26" class="edge"><title>Node4&#45;&gt;Node8</title>
<path fill="none" stroke="midnightblue" d="M631.44,-525.16C635.936,-516.448 640.477,-507.003 644.148,-498 706.575,-344.895 712.531,-302.527 752.148,-142 760.788,-106.989 768.095,-65.5596 772.03,-41.6752"/>
<polygon fill="midnightblue" stroke="midnightblue" points="628.204,-523.793 626.623,-534.269 634.392,-527.065 628.204,-523.793"/>
</g>
<!-- Node9 -->
<g id="node9" class="node"><title>Node9</title>
<g id="a_node9"><a xlink:href="IWorker_8h.html" target="_top" xlink:title="/home/travis/build\l/hypro/hypro/src/hypro\l/algorithms/reachability\l/workers/IWorker.h">
<polygon fill="white" stroke="black" points="418.148,-445.5 418.148,-497.5 546.148,-497.5 546.148,-445.5 418.148,-445.5"/>
<text text-anchor="start" x="426.148" y="-485.5" font-family="Helvetica,sans-Serif" font-size="10.00">/home/travis/build</text>
<text text-anchor="start" x="426.148" y="-474.5" font-family="Helvetica,sans-Serif" font-size="10.00">/hypro/hypro/src/hypro</text>
<text text-anchor="start" x="426.148" y="-463.5" font-family="Helvetica,sans-Serif" font-size="10.00">/algorithms/reachability</text>
<text text-anchor="middle" x="482.148" y="-452.5" font-family="Helvetica,sans-Serif" font-size="10.00">/workers/IWorker.h</text>
</a>
</g>
</g>
<!-- Node4&#45;&gt;Node9 -->
<g id="edge8" class="edge"><title>Node4&#45;&gt;Node9</title>
<path fill="none" stroke="midnightblue" d="M565.831,-528.503C550.691,-518.371 534.073,-507.25 519.664,-497.607"/>
<polygon fill="midnightblue" stroke="midnightblue" points="564.289,-531.683 574.546,-534.336 568.182,-525.865 564.289,-531.683"/>
</g>
<!-- Node4&#45;&gt;Node10 -->
<g id="edge16" class="edge"><title>Node4&#45;&gt;Node10</title>
<path fill="none" stroke="midnightblue" d="M528.247,-537.063C523.153,-535.958 518.091,-534.925 513.148,-534 446.281,-521.488 258.357,-544.97 209.148,-498 185.388,-475.322 184.182,-435.104 186.441,-408.875"/>
<polygon fill="midnightblue" stroke="midnightblue" points="527.534,-540.49 538.059,-539.268 529.07,-533.66 527.534,-540.49"/>
</g>
<!-- Node4&#45;&gt;Node11 -->
<g id="edge23" class="edge"><title>Node4&#45;&gt;Node11</title>
<path fill="none" stroke="midnightblue" d="M528.191,-536.757C476.995,-522.421 419.459,-505.288 409.148,-498 385.265,-481.12 388.886,-467.454 370.148,-445 335.298,-403.24 325.802,-393.228 286.148,-356 272.873,-343.537 257.487,-330.538 244.194,-319.719"/>
<polygon fill="midnightblue" stroke="midnightblue" points="527.424,-540.177 537.996,-539.491 529.303,-533.434 527.424,-540.177"/>
</g>
<!-- Node4&#45;&gt;Node12 -->
<g id="edge17" class="edge"><title>Node4&#45;&gt;Node12</title>
<path fill="none" stroke="midnightblue" d="M696.567,-552.834C774.92,-544.836 883.75,-528.509 913.148,-498 935.798,-474.493 937.39,-434.886 935.505,-408.968"/>
<polygon fill="midnightblue" stroke="midnightblue" points="695.813,-549.391 686.207,-553.861 696.504,-556.357 695.813,-549.391"/>
</g>
<!-- Node5&#45;&gt;Node6 -->
<g id="edge5" class="edge"><title>Node5&#45;&gt;Node6</title>
<path fill="none" stroke="midnightblue" d="M391.635,-182.898C437.178,-171.225 494.916,-156.163 546.148,-142 550.86,-140.697 555.685,-139.346 560.555,-137.97"/>
<polygon fill="midnightblue" stroke="midnightblue" points="390.634,-179.541 381.814,-185.411 392.37,-186.323 390.634,-179.541"/>
</g>
<!-- Node6&#45;&gt;Node7 -->
<g id="edge6" class="edge"><title>Node6&#45;&gt;Node7</title>
<path fill="none" stroke="midnightblue" d="M600.127,-72.5019C584.989,-61.8807 569.036,-50.6876 556.006,-41.5457"/>
<polygon fill="midnightblue" stroke="midnightblue" points="598.233,-75.4487 608.43,-78.3271 602.254,-69.7184 598.233,-75.4487"/>
</g>
<!-- Node6&#45;&gt;Node8 -->
<g id="edge7" class="edge"><title>Node6&#45;&gt;Node8</title>
<path fill="none" stroke="midnightblue" d="M703.748,-72.5019C718.764,-61.8807 734.589,-50.6876 747.514,-41.5457"/>
<polygon fill="midnightblue" stroke="midnightblue" points="701.656,-69.6949 695.513,-78.3271 705.698,-75.4098 701.656,-69.6949"/>
</g>
<!-- Node9&#45;&gt;Node5 -->
<g id="edge9" class="edge"><title>Node9&#45;&gt;Node5</title>
<path fill="none" stroke="midnightblue" d="M474.279,-435.387C466.98,-410.238 453.743,-377.201 431.148,-356 397.613,-324.535 364.157,-354.842 334.148,-320 312.807,-295.223 308.817,-256.324 308.793,-230.865"/>
<polygon fill="midnightblue" stroke="midnightblue" points="470.968,-436.548 476.967,-445.281 477.723,-434.713 470.968,-436.548"/>
</g>
<!-- Node9&#45;&gt;Node6 -->
<g id="edge15" class="edge"><title>Node9&#45;&gt;Node6</title>
<path fill="none" stroke="midnightblue" d="M512.393,-437.503C537.527,-408.49 572.55,-364.119 594.148,-320 623.369,-260.306 639.867,-183.577 647.296,-141.678"/>
<polygon fill="midnightblue" stroke="midnightblue" points="509.547,-435.44 505.586,-445.266 514.811,-440.055 509.547,-435.44"/>
</g>
<!-- Node9&#45;&gt;Node10 -->
<g id="edge10" class="edge"><title>Node9&#45;&gt;Node10</title>
<path fill="none" stroke="midnightblue" d="M408.456,-448.544C360.966,-434.395 299.823,-416.177 254.33,-402.623"/>
<polygon fill="midnightblue" stroke="midnightblue" points="407.484,-451.906 418.067,-451.407 409.483,-445.198 407.484,-451.906"/>
</g>
<!-- Node9&#45;&gt;Node11 -->
<g id="edge14" class="edge"><title>Node9&#45;&gt;Node11</title>
<path fill="none" stroke="midnightblue" d="M459.673,-436.994C439.288,-407.451 410.065,-367.38 394.148,-356 384.516,-349.114 329.572,-330.945 282.547,-316.129"/>
<polygon fill="midnightblue" stroke="midnightblue" points="456.891,-439.126 465.43,-445.397 462.665,-435.17 456.891,-439.126"/>
</g>
<!-- Node10&#45;&gt;Node5 -->
<g id="edge11" class="edge"><title>Node10&#45;&gt;Node5</title>
<path fill="none" stroke="midnightblue" d="M151.614,-348.759C144.085,-340.24 137.257,-330.48 133.148,-320 124.548,-298.07 119.496,-286.196 133.148,-267 156.998,-233.464 200.496,-218.054 238.401,-211.046"/>
<polygon fill="midnightblue" stroke="midnightblue" points="149.254,-351.357 158.667,-356.219 154.34,-346.548 149.254,-351.357"/>
</g>
<!-- Node10&#45;&gt;Node11 -->
<g id="edge12" class="edge"><title>Node10&#45;&gt;Node11</title>
<path fill="none" stroke="midnightblue" d="M199.003,-346.481C201.277,-337.487 203.679,-327.989 205.799,-319.607"/>
<polygon fill="midnightblue" stroke="midnightblue" points="195.569,-345.783 196.511,-356.336 202.356,-347.499 195.569,-345.783"/>
</g>
<!-- Node11&#45;&gt;Node5 -->
<g id="edge13" class="edge"><title>Node11&#45;&gt;Node5</title>
<path fill="none" stroke="midnightblue" d="M248.026,-260.649C259.177,-250.749 271.308,-239.98 281.866,-230.607"/>
<polygon fill="midnightblue" stroke="midnightblue" points="245.648,-258.08 240.493,-267.336 250.295,-263.314 245.648,-258.08"/>
</g>
<!-- Node13 -->
<g id="node13" class="node"><title>Node13</title>
<g id="a_node13"><a xlink:href="JumpHandlers_8h.html" target="_top" xlink:title="/home/travis/build\l/hypro/hypro/src/hypro\l/algorithms/reachability\l/handlers/jumpHandlers/JumpHandlers.h">
<polygon fill="white" stroke="black" points="376.648,-267.5 376.648,-319.5 585.648,-319.5 585.648,-267.5 376.648,-267.5"/>
<text text-anchor="start" x="384.648" y="-307.5" font-family="Helvetica,sans-Serif" font-size="10.00">/home/travis/build</text>
<text text-anchor="start" x="384.648" y="-296.5" font-family="Helvetica,sans-Serif" font-size="10.00">/hypro/hypro/src/hypro</text>
<text text-anchor="start" x="384.648" y="-285.5" font-family="Helvetica,sans-Serif" font-size="10.00">/algorithms/reachability</text>
<text text-anchor="middle" x="481.148" y="-274.5" font-family="Helvetica,sans-Serif" font-size="10.00">/handlers/jumpHandlers/JumpHandlers.h</text>
</a>
</g>
</g>
<!-- Node12&#45;&gt;Node13 -->
<g id="edge18" class="edge"><title>Node12&#45;&gt;Node13</title>
<path fill="none" stroke="midnightblue" d="M816.214,-359.136C745.055,-345.409 654.665,-327.972 585.705,-314.67"/>
<polygon fill="midnightblue" stroke="midnightblue" points="815.641,-362.59 826.123,-361.047 816.967,-355.717 815.641,-362.59"/>
</g>
<!-- Node14 -->
<g id="node14" class="node"><title>Node14</title>
<g id="a_node14"><a xlink:href="HandlerFactory_8h.html" target="_top" xlink:title="/home/travis/build\l/hypro/hypro/src/hypro\l/algorithms/reachability\l/handlers/HandlerFactory.h">
<polygon fill="white" stroke="black" points="218.648,-445.5 218.648,-497.5 361.648,-497.5 361.648,-445.5 218.648,-445.5"/>
<text text-anchor="start" x="226.648" y="-485.5" font-family="Helvetica,sans-Serif" font-size="10.00">/home/travis/build</text>
<text text-anchor="start" x="226.648" y="-474.5" font-family="Helvetica,sans-Serif" font-size="10.00">/hypro/hypro/src/hypro</text>
<text text-anchor="start" x="226.648" y="-463.5" font-family="Helvetica,sans-Serif" font-size="10.00">/algorithms/reachability</text>
<text text-anchor="middle" x="290.148" y="-452.5" font-family="Helvetica,sans-Serif" font-size="10.00">/handlers/HandlerFactory.h</text>
</a>
</g>
</g>
<!-- Node13&#45;&gt;Node14 -->
<g id="edge19" class="edge"><title>Node13&#45;&gt;Node14</title>
<path fill="none" stroke="midnightblue" d="M446.257,-326.65C409.206,-360.791 351.411,-414.048 317.513,-445.283"/>
<polygon fill="midnightblue" stroke="midnightblue" points="448.85,-329.02 453.833,-319.67 444.107,-323.872 448.85,-329.02"/>
</g>
<!-- Node14&#45;&gt;Node10 -->
<g id="edge20" class="edge"><title>Node14&#45;&gt;Node10</title>
<path fill="none" stroke="midnightblue" d="M253.537,-438.649C242.158,-428.749 229.78,-417.98 219.007,-408.607"/>
<polygon fill="midnightblue" stroke="midnightblue" points="251.382,-441.413 261.223,-445.336 255.976,-436.132 251.382,-441.413"/>
</g>
<!-- Node14&#45;&gt;Node11 -->
<g id="edge22" class="edge"><title>Node14&#45;&gt;Node11</title>
<path fill="none" stroke="midnightblue" d="M286.084,-435.077C282.389,-411.693 275.541,-380.892 263.148,-356 256.594,-342.838 246.724,-330.032 237.408,-319.543"/>
<polygon fill="midnightblue" stroke="midnightblue" points="282.661,-435.862 287.569,-445.251 289.588,-434.851 282.661,-435.862"/>
</g>
<!-- Node14&#45;&gt;Node12 -->
<g id="edge21" class="edge"><title>Node14&#45;&gt;Node12</title>
<path fill="none" stroke="midnightblue" d="M371.642,-451.977C384.166,-449.438 396.976,-447.015 409.148,-445 552.785,-421.219 720.104,-403.226 826.057,-393.023"/>
<polygon fill="midnightblue" stroke="midnightblue" points="370.763,-448.584 361.677,-454.033 372.178,-455.44 370.763,-448.584"/>
</g>
<!-- Node15&#45;&gt;Node7 -->
<g id="edge30" class="edge"><title>Node15&#45;&gt;Node7</title>
<path fill="none" stroke="midnightblue" d="M1321.86,-525.16C1334.41,-501.552 1344.94,-470.065 1331.15,-445 1184.3,-178.053 1032.18,-198.035 752.148,-78 712.356,-60.9435 666.272,-48.3117 626.286,-39.4068"/>
<polygon fill="midnightblue" stroke="midnightblue" points="1318.68,-523.683 1316.81,-534.112 1324.77,-527.124 1318.68,-523.683"/>
</g>
<!-- Node15&#45;&gt;Node8 -->
<g id="edge31" class="edge"><title>Node15&#45;&gt;Node8</title>
<path fill="none" stroke="midnightblue" d="M1340.84,-527.287C1349.7,-518.646 1358.17,-508.699 1364.15,-498 1389.52,-452.618 1388.15,-435.495 1388.15,-383.5 1388.15,-383.5 1388.15,-383.5 1388.15,-203.5 1388.15,-89.6654 994.581,-41.7262 838.154,-27.168"/>
<polygon fill="midnightblue" stroke="midnightblue" points="1338.31,-524.86 1333.36,-534.226 1343.07,-529.993 1338.31,-524.86"/>
</g>
<!-- Node15&#45;&gt;Node16 -->
<g id="edge28" class="edge"><title>Node15&#45;&gt;Node16</title>
<path fill="none" stroke="midnightblue" d="M1279.3,-525.639C1273.83,-516.306 1267.99,-506.349 1262.87,-497.607"/>
<polygon fill="midnightblue" stroke="midnightblue" points="1276.32,-527.479 1284.4,-534.336 1282.36,-523.939 1276.32,-527.479"/>
</g>
<!-- Node16&#45;&gt;Node12 -->
<g id="edge29" class="edge"><title>Node16&#45;&gt;Node12</title>
<path fill="none" stroke="midnightblue" d="M1164.11,-444.74C1115,-430.8 1069.5,-418.678 1030.45,-408.515"/>
<polygon fill="midnightblue" stroke="midnightblue" points="1163.4,-448.178 1173.98,-447.553 1165.32,-441.446 1163.4,-448.178"/>
</g>
<!-- Node17&#45;&gt;Node12 -->
<g id="edge35" class="edge"><title>Node17&#45;&gt;Node12</title>
<path fill="none" stroke="midnightblue" d="M1026.43,-440.07C1009.29,-429.788 990.365,-418.431 973.993,-408.607"/>
<polygon fill="midnightblue" stroke="midnightblue" points="1024.83,-443.192 1035.21,-445.336 1028.43,-437.19 1024.83,-443.192"/>
</g>
<!-- Node18&#45;&gt;Node7 -->
<g id="edge42" class="edge"><title>Node18&#45;&gt;Node7</title>
<path fill="none" stroke="midnightblue" d="M132.361,-540.876C106.802,-531.695 80.8162,-518.091 62.1475,-498 -2.21285,-428.738 0.147524,-389.049 0.147524,-294.5 0.147524,-294.5 0.147524,-294.5 0.147524,-203.5 0.147524,-113.596 277.379,-58.6845 430.072,-35.2585"/>
<polygon fill="midnightblue" stroke="midnightblue" points="131.526,-544.288 142.12,-544.182 133.772,-537.658 131.526,-544.288"/>
</g>
<!-- Node18&#45;&gt;Node8 -->
<g id="edge43" class="edge"><title>Node18&#45;&gt;Node8</title>
<path fill="none" stroke="midnightblue" d="M190.868,-526.705C183.102,-517.681 175.011,-507.7 168.148,-498 107.629,-412.477 74.332,-360.729 121.148,-267 214.429,-80.2432 350.124,-134.295 551.148,-78 605.189,-62.8663 667.114,-47.537 712.139,-36.7522"/>
<polygon fill="midnightblue" stroke="midnightblue" points="188.348,-529.141 197.569,-534.359 193.615,-524.53 188.348,-529.141"/>
</g>
<!-- Node18&#45;&gt;Node10 -->
<g id="edge39" class="edge"><title>Node18&#45;&gt;Node10</title>
<path fill="none" stroke="midnightblue" d="M190.957,-526.121C184.887,-517.533 179.384,-507.903 176.148,-498 166.443,-468.304 173.765,-432.282 180.966,-408.671"/>
<polygon fill="midnightblue" stroke="midnightblue" points="188.335,-528.458 197.152,-534.333 193.924,-524.242 188.335,-528.458"/>
</g>
<!-- Node18&#45;&gt;Node19 -->
<g id="edge40" class="edge"><title>Node18&#45;&gt;Node19</title>
<path fill="none" stroke="midnightblue" d="M310.187,-540.701C322.577,-538.313 335.163,-536.006 347.148,-534 474.308,-512.712 622.117,-494.144 715.872,-483.129"/>
<polygon fill="midnightblue" stroke="midnightblue" points="309.453,-537.278 300.308,-542.629 310.794,-544.148 309.453,-537.278"/>
</g>
<!-- Node19&#45;&gt;Node12 -->
<g id="edge41" class="edge"><title>Node19&#45;&gt;Node12</title>
<path fill="none" stroke="midnightblue" d="M853.614,-439.503C867.822,-429.371 883.417,-418.25 896.939,-408.607"/>
<polygon fill="midnightblue" stroke="midnightblue" points="851.545,-436.68 845.435,-445.336 855.609,-442.38 851.545,-436.68"/>
</g>
<!-- Node20&#45;&gt;Node14 -->
<g id="edge48" class="edge"><title>Node20&#45;&gt;Node14</title>
<path fill="none" stroke="midnightblue" d="M323.532,-613.079C320.258,-590.331 315.348,-560.24 309.148,-534 306.295,-521.928 302.344,-508.763 298.784,-497.721"/>
<polygon fill="midnightblue" stroke="midnightblue" points="320.108,-613.872 324.963,-623.289 327.041,-612.9 320.108,-613.872"/>
</g>
<!-- Node20&#45;&gt;Node18 -->
<g id="edge45" class="edge"><title>Node20&#45;&gt;Node18</title>
<path fill="none" stroke="midnightblue" d="M289.325,-616.934C277.053,-606.956 263.665,-596.07 252.027,-586.607"/>
<polygon fill="midnightblue" stroke="midnightblue" points="287.232,-619.743 297.199,-623.336 291.648,-614.312 287.232,-619.743"/>
</g>
<!-- Node21 -->
<g id="node21" class="node"><title>Node21</title>
<g id="a_node21"><a xlink:href="ETN__util_8h.html" target="_top" xlink:title="/home/travis/build\l/hypro/hypro/src/hypro\l/datastructures/reachability\l/timing/ETN_util.h">
<polygon fill="white" stroke="black" points="356.148,-534.5 356.148,-586.5 504.148,-586.5 504.148,-534.5 356.148,-534.5"/>
<text text-anchor="start" x="364.148" y="-574.5" font-family="Helvetica,sans-Serif" font-size="10.00">/home/travis/build</text>
<text text-anchor="start" x="364.148" y="-563.5" font-family="Helvetica,sans-Serif" font-size="10.00">/hypro/hypro/src/hypro</text>
<text text-anchor="start" x="364.148" y="-552.5" font-family="Helvetica,sans-Serif" font-size="10.00">/datastructures/reachability</text>
<text text-anchor="middle" x="430.148" y="-541.5" font-family="Helvetica,sans-Serif" font-size="10.00">/timing/ETN_util.h</text>
</a>
</g>
</g>
<!-- Node20&#45;&gt;Node21 -->
<g id="edge46" class="edge"><title>Node20&#45;&gt;Node21</title>
<path fill="none" stroke="midnightblue" d="M358.96,-616.649C370.185,-606.749 382.926,-595.98 394.529,-586.607"/>
<polygon fill="midnightblue" stroke="midnightblue" points="356.596,-614.067 351.464,-623.336 361.256,-619.291 356.596,-614.067"/>
</g>
<!-- Node21&#45;&gt;Node20 -->
<g id="edge47" class="edge"><title>Node21&#45;&gt;Node20</title>
<path fill="none" stroke="midnightblue" d="M399.403,-593.291C388.184,-603.188 375.443,-613.958 363.836,-623.336"/>
<polygon fill="midnightblue" stroke="midnightblue" points="401.762,-595.877 406.893,-586.607 397.102,-590.654 401.762,-595.877"/>
</g>
</g>
</svg>
        <g id="navigator" transform="translate(0 0)" fill="#404254">
                <rect fill="#f2f5e9" fill-opacity="0.5" stroke="#606060" stroke-width=".5" x="0" y="0" width="60" height="60"/>
                <use id="zoomplus" xlink:href="#zoomPlus" x="17" y="9" onmousedown="handleZoom(evt,'in')"/>
                <use id="zoomminus" xlink:href="#zoomMin" x="42" y="9" onmousedown="handleZoom(evt,'out')"/>
                <use id="reset" xlink:href="#resetDef" x="30" y="36" onmousedown="handleReset()"/>
                <g id="arrowUp" xlink:href="#dirArrow" transform="translate(30 24)" onmousedown="handlePan(0,-1)">
                  <use xlink:href="#rim" fill="#404040">
                        <set attributeName="fill" to="#808080" begin="arrowUp.mouseover" end="arrowUp.mouseout"/>
                  </use>
                  <path fill="none" stroke="white" stroke-width="1.5" d="M0,-3.0v7 M-2.5,-0.5L0,-3.0L2.5,-0.5"/>
                </g>
                <g id="arrowRight" xlink:href="#dirArrow" transform="rotate(90) translate(36 -43)" onmousedown="handlePan(1,0)">
                  <use xlink:href="#rim" fill="#404040">
                        <set attributeName="fill" to="#808080" begin="arrowRight.mouseover" end="arrowRight.mouseout"/>
                  </use>
                  <path fill="none" stroke="white" stroke-width="1.5" d="M0,-3.0v7 M-2.5,-0.5L0,-3.0L2.5,-0.5"/>
                </g>
                <g id="arrowDown" xlink:href="#dirArrow" transform="rotate(180) translate(-30 -48)" onmousedown="handlePan(0,1)">
                  <use xlink:href="#rim" fill="#404040">
                        <set attributeName="fill" to="#808080" begin="arrowDown.mouseover" end="arrowDown.mouseout"/>
                  </use>
                  <path fill="none" stroke="white" stroke-width="1.5" d="M0,-3.0v7 M-2.5,-0.5L0,-3.0L2.5,-0.5"/>
                </g>
                <g id="arrowLeft" xlink:href="#dirArrow" transform="rotate(270) translate(-36 17)" onmousedown="handlePan(-1,0)">
                  <use xlink:href="#rim" fill="#404040">
                        <set attributeName="fill" to="#808080" begin="arrowLeft.mouseover" end="arrowLeft.mouseout"/>
                  </use>
                  <path fill="none" stroke="white" stroke-width="1.5" d="M0,-3.0v7 M-2.5,-0.5L0,-3.0L2.5,-0.5"/>
                </g>
        </g>
        <svg viewBox="0 0 15 15" width="100%" height="30px" preserveAspectRatio="xMaxYMin meet">
         <g id="arrow_out" transform="scale(0.3 0.3)">
          <a xlink:href="ETC__util_8h__dep__incl_org.svg" target="_base">
           <rect id="button" ry="5" rx="5" y="6" x="6" height="38" width="38"
                fill="#f2f5e9" fill-opacity="0.5" stroke="#606060" stroke-width="1.0"/>
           <path id="arrow"
             d="M 11.500037,31.436501 C 11.940474,20.09759 22.043105,11.32322 32.158766,21.979434 L 37.068811,17.246167 C 37.068811,17.246167 37.088388,32 37.088388,32 L 22.160133,31.978069 C 22.160133,31.978069 26.997745,27.140456 26.997745,27.140456 C 18.528582,18.264221 13.291696,25.230495 11.500037,31.436501 z"
             style="fill:#404040;"/>
          </a>
         </g>
        </svg>
</svg>
