<?xml version="1.0" encoding="UTF-8" standalone="no"?>
<!DOCTYPE svg PUBLIC "-//W3C//DTD SVG 1.1//EN"
 "http://www.w3.org/Graphics/SVG/1.1/DTD/svg11.dtd">
<!-- Generated by graphviz version 2.38.0 (20140413.2041)
 -->
<!-- Title: /home/travis/build/hypro/hypro/src/hypro/datastructures/reachability/timing/ETN_util.h Pages: 1 -->
<svg width="652pt" height="684pt"
 viewBox="0.00 0.00 651.50 684.00" xmlns="http://www.w3.org/2000/svg" xmlns:xlink="http://www.w3.org/1999/xlink">
<g id="graph0" class="graph" transform="scale(1 1) rotate(0) translate(4 680)">
<title>/home/travis/build/hypro/hypro/src/hypro/datastructures/reachability/timing/ETN_util.h</title>
<polygon fill="white" stroke="none" points="-4,4 -4,-680 647.5,-680 647.5,4 -4,4"/>
<!-- Node1 -->
<g id="node1" class="node"><title>Node1</title>
<polygon fill="#bfbfbf" stroke="black" points="281,-623.5 281,-675.5 429,-675.5 429,-623.5 281,-623.5"/>
<text text-anchor="start" x="289" y="-663.5" font-family="Helvetica,sans-Serif" font-size="10.00">/home/travis/build</text>
<text text-anchor="start" x="289" y="-652.5" font-family="Helvetica,sans-Serif" font-size="10.00">/hypro/hypro/src/hypro</text>
<text text-anchor="start" x="289" y="-641.5" font-family="Helvetica,sans-Serif" font-size="10.00">/datastructures/reachability</text>
<text text-anchor="middle" x="355" y="-630.5" font-family="Helvetica,sans-Serif" font-size="10.00">/timing/ETN_util.h</text>
</g>
<!-- Node2 -->
<g id="node2" class="node"><title>Node2</title>
<g id="a_node2"><a xlink:href="EventTimingNode_8h.html" target="_top" xlink:title="/home/travis/build\l/hypro/hypro/src/hypro\l/datastructures/reachability\l/timing/EventTimingNode.h">
<polygon fill="white" stroke="black" points="281,-534.5 281,-586.5 429,-586.5 429,-534.5 281,-534.5"/>
<text text-anchor="start" x="289" y="-574.5" font-family="Helvetica,sans-Serif" font-size="10.00">/home/travis/build</text>
<text text-anchor="start" x="289" y="-563.5" font-family="Helvetica,sans-Serif" font-size="10.00">/hypro/hypro/src/hypro</text>
<text text-anchor="start" x="289" y="-552.5" font-family="Helvetica,sans-Serif" font-size="10.00">/datastructures/reachability</text>
<text text-anchor="middle" x="355" y="-541.5" font-family="Helvetica,sans-Serif" font-size="10.00">/timing/EventTimingNode.h</text>
</a>
</g>
</g>
<!-- Node1&#45;&gt;Node2 -->
<g id="edge1" class="edge"><title>Node1&#45;&gt;Node2</title>
<path fill="none" stroke="midnightblue" d="M348.358,-613.191C348.121,-604.282 348.275,-594.899 348.818,-586.607"/>
<polygon fill="midnightblue" stroke="midnightblue" points="344.868,-613.503 348.814,-623.336 351.861,-613.189 344.868,-613.503"/>
</g>
<!-- Node2&#45;&gt;Node1 -->
<g id="edge19" class="edge"><title>Node2&#45;&gt;Node1</title>
<path fill="none" stroke="midnightblue" d="M361.641,-596.749C361.879,-605.655 361.727,-615.04 361.186,-623.336"/>
<polygon fill="midnightblue" stroke="midnightblue" points="365.131,-596.439 361.182,-586.607 358.138,-596.755 365.131,-596.439"/>
</g>
<!-- Node3 -->
<g id="node3" class="node"><title>Node3</title>
<g id="a_node3"><a xlink:href="EventTimingProvider_8h.html" target="_top" xlink:title="/home/travis/build\l/hypro/hypro/src/hypro\l/datastructures/reachability\l/timing/EventTimingProvider.h">
<polygon fill="white" stroke="black" points="127,-445.5 127,-497.5 285,-497.5 285,-445.5 127,-445.5"/>
<text text-anchor="start" x="135" y="-485.5" font-family="Helvetica,sans-Serif" font-size="10.00">/home/travis/build</text>
<text text-anchor="start" x="135" y="-474.5" font-family="Helvetica,sans-Serif" font-size="10.00">/hypro/hypro/src/hypro</text>
<text text-anchor="start" x="135" y="-463.5" font-family="Helvetica,sans-Serif" font-size="10.00">/datastructures/reachability</text>
<text text-anchor="middle" x="206" y="-452.5" font-family="Helvetica,sans-Serif" font-size="10.00">/timing/EventTimingProvider.h</text>
</a>
</g>
</g>
<!-- Node2&#45;&gt;Node3 -->
<g id="edge2" class="edge"><title>Node2&#45;&gt;Node3</title>
<path fill="none" stroke="midnightblue" d="M302.885,-529.07C285.274,-518.788 265.824,-507.431 249,-497.607"/>
<polygon fill="midnightblue" stroke="midnightblue" points="301.503,-532.316 311.903,-534.336 305.032,-526.271 301.503,-532.316"/>
</g>
<!-- Node13 -->
<g id="node13" class="node"><title>Node13</title>
<g id="a_node13"><a xlink:href="HandlerFactory_8h.html" target="_top" xlink:title="/home/travis/build\l/hypro/hypro/src/hypro\l/algorithms/reachability\l/handlers/HandlerFactory.h">
<polygon fill="white" stroke="black" points="432.5,-445.5 432.5,-497.5 575.5,-497.5 575.5,-445.5 432.5,-445.5"/>
<text text-anchor="start" x="440.5" y="-485.5" font-family="Helvetica,sans-Serif" font-size="10.00">/home/travis/build</text>
<text text-anchor="start" x="440.5" y="-474.5" font-family="Helvetica,sans-Serif" font-size="10.00">/hypro/hypro/src/hypro</text>
<text text-anchor="start" x="440.5" y="-463.5" font-family="Helvetica,sans-Serif" font-size="10.00">/algorithms/reachability</text>
<text text-anchor="middle" x="504" y="-452.5" font-family="Helvetica,sans-Serif" font-size="10.00">/handlers/HandlerFactory.h</text>
</a>
</g>
</g>
<!-- Node2&#45;&gt;Node13 -->
<g id="edge20" class="edge"><title>Node2&#45;&gt;Node13</title>
<path fill="none" stroke="midnightblue" d="M407.115,-529.07C424.726,-518.788 444.176,-507.431 461,-497.607"/>
<polygon fill="midnightblue" stroke="midnightblue" points="404.968,-526.271 398.097,-534.336 408.497,-532.316 404.968,-526.271"/>
</g>
<!-- Node4 -->
<g id="node4" class="node"><title>Node4</title>
<g id="a_node4"><a xlink:href="LTIContext_8h.html" target="_top" xlink:title="/home/travis/build\l/hypro/hypro/src/hypro\l/algorithms/reachability\l/contexts/LTIContext.h">
<polygon fill="white" stroke="black" points="142,-356.5 142,-408.5 270,-408.5 270,-356.5 142,-356.5"/>
<text text-anchor="start" x="150" y="-396.5" font-family="Helvetica,sans-Serif" font-size="10.00">/home/travis/build</text>
<text text-anchor="start" x="150" y="-385.5" font-family="Helvetica,sans-Serif" font-size="10.00">/hypro/hypro/src/hypro</text>
<text text-anchor="start" x="150" y="-374.5" font-family="Helvetica,sans-Serif" font-size="10.00">/algorithms/reachability</text>
<text text-anchor="middle" x="206" y="-363.5" font-family="Helvetica,sans-Serif" font-size="10.00">/contexts/LTIContext.h</text>
</a>
</g>
</g>
<!-- Node3&#45;&gt;Node4 -->
<g id="edge3" class="edge"><title>Node3&#45;&gt;Node4</title>
<path fill="none" stroke="midnightblue" d="M206,-435.191C206,-426.282 206,-416.899 206,-408.607"/>
<polygon fill="midnightblue" stroke="midnightblue" points="202.5,-435.336 206,-445.336 209.5,-435.336 202.5,-435.336"/>
</g>
<!-- Node7 -->
<g id="node7" class="node"><title>Node7</title>
<g id="a_node7"><a xlink:href="example__rectangularReachability_8cpp.html" target="_top" xlink:title="/home/travis/build\l/hypro/hypro/examples\l/example_rectangularReachability.cpp">
<polygon fill="white" stroke="black" points="144,-0.5 144,-41.5 340,-41.5 340,-0.5 144,-0.5"/>
<text text-anchor="start" x="152" y="-29.5" font-family="Helvetica,sans-Serif" font-size="10.00">/home/travis/build</text>
<text text-anchor="start" x="152" y="-18.5" font-family="Helvetica,sans-Serif" font-size="10.00">/hypro/hypro/examples</text>
<text text-anchor="middle" x="242" y="-7.5" font-family="Helvetica,sans-Serif" font-size="10.00">/example_rectangularReachability.cpp</text>
</a>
</g>
</g>
<!-- Node3&#45;&gt;Node7 -->
<g id="edge17" class="edge"><title>Node3&#45;&gt;Node7</title>
<path fill="none" stroke="midnightblue" d="M158.223,-438.718C148.511,-430.156 139.34,-420.136 133,-409 107.478,-364.172 114,-346.085 114,-294.5 114,-294.5 114,-294.5 114,-203.5 114,-146.711 104.41,-123.789 138,-78 149.705,-62.0439 167.363,-50.16 184.823,-41.5454"/>
<polygon fill="midnightblue" stroke="midnightblue" points="156.161,-441.555 166.085,-445.265 160.641,-436.176 156.161,-441.555"/>
</g>
<!-- Node8 -->
<g id="node8" class="node"><title>Node8</title>
<g id="a_node8"><a xlink:href="example__worker_8cpp.html" target="_top" xlink:title="/home/travis/build\l/hypro/hypro/examples\l/example_worker.cpp">
<polygon fill="white" stroke="black" points="0,-0.5 0,-41.5 126,-41.5 126,-0.5 0,-0.5"/>
<text text-anchor="start" x="8" y="-29.5" font-family="Helvetica,sans-Serif" font-size="10.00">/home/travis/build</text>
<text text-anchor="start" x="8" y="-18.5" font-family="Helvetica,sans-Serif" font-size="10.00">/hypro/hypro/examples</text>
<text text-anchor="middle" x="63" y="-7.5" font-family="Helvetica,sans-Serif" font-size="10.00">/example_worker.cpp</text>
</a>
</g>
</g>
<!-- Node3&#45;&gt;Node8 -->
<g id="edge18" class="edge"><title>Node3&#45;&gt;Node8</title>
<path fill="none" stroke="midnightblue" d="M146.118,-439.833C133.286,-431.19 120.691,-420.854 111,-409 76.391,-366.669 66,-349.178 66,-294.5 66,-294.5 66,-294.5 66,-203.5 66,-144.567 64.3992,-74.8861 63.5363,-41.6047"/>
<polygon fill="midnightblue" stroke="midnightblue" points="144.254,-442.796 154.556,-445.268 148.044,-436.911 144.254,-442.796"/>
</g>
<!-- Node10 -->
<g id="node10" class="node"><title>Node10</title>
<g id="a_node10"><a xlink:href="timingUtil_8h.html" target="_top" xlink:title="/home/travis/build\l/hypro/hypro/src/hypro\l/algorithms/reachability\l/handlers/jumpHandlers/timingUtil.h">
<polygon fill="white" stroke="black" points="288,-356.5 288,-408.5 476,-408.5 476,-356.5 288,-356.5"/>
<text text-anchor="start" x="296" y="-396.5" font-family="Helvetica,sans-Serif" font-size="10.00">/home/travis/build</text>
<text text-anchor="start" x="296" y="-385.5" font-family="Helvetica,sans-Serif" font-size="10.00">/hypro/hypro/src/hypro</text>
<text text-anchor="start" x="296" y="-374.5" font-family="Helvetica,sans-Serif" font-size="10.00">/algorithms/reachability</text>
<text text-anchor="middle" x="382" y="-363.5" font-family="Helvetica,sans-Serif" font-size="10.00">/handlers/jumpHandlers/timingUtil.h</text>
</a>
</g>
</g>
<!-- Node3&#45;&gt;Node10 -->
<g id="edge10" class="edge"><title>Node3&#45;&gt;Node10</title>
<path fill="none" stroke="midnightblue" d="M266.131,-440.776C287.305,-430.309 310.88,-418.656 331.208,-408.607"/>
<polygon fill="midnightblue" stroke="midnightblue" points="264.32,-437.767 256.906,-445.336 267.422,-444.042 264.32,-437.767"/>
</g>
<!-- Node5 -->
<g id="node5" class="node"><title>Node5</title>
<g id="a_node5"><a xlink:href="ContextFactory_8h.html" target="_top" xlink:title="/home/travis/build\l/hypro/hypro/src/hypro\l/algorithms/reachability\l/contexts/ContextFactory.h">
<polygon fill="white" stroke="black" points="167.5,-178.5 167.5,-230.5 310.5,-230.5 310.5,-178.5 167.5,-178.5"/>
<text text-anchor="start" x="175.5" y="-218.5" font-family="Helvetica,sans-Serif" font-size="10.00">/home/travis/build</text>
<text text-anchor="start" x="175.5" y="-207.5" font-family="Helvetica,sans-Serif" font-size="10.00">/hypro/hypro/src/hypro</text>
<text text-anchor="start" x="175.5" y="-196.5" font-family="Helvetica,sans-Serif" font-size="10.00">/algorithms/reachability</text>
<text text-anchor="middle" x="239" y="-185.5" font-family="Helvetica,sans-Serif" font-size="10.00">/contexts/ContextFactory.h</text>
</a>
</g>
</g>
<!-- Node4&#45;&gt;Node5 -->
<g id="edge4" class="edge"><title>Node4&#45;&gt;Node5</title>
<path fill="none" stroke="midnightblue" d="M197.688,-346.361C193.73,-323.335 191.339,-292.83 199,-267 202.839,-254.056 210.357,-241.288 217.849,-230.768"/>
<polygon fill="midnightblue" stroke="midnightblue" points="194.284,-347.198 199.586,-356.37 201.161,-345.893 194.284,-347.198"/>
</g>
<!-- Node9 -->
<g id="node9" class="node"><title>Node9</title>
<g id="a_node9"><a xlink:href="TimedContext_8h.html" target="_top" xlink:title="/home/travis/build\l/hypro/hypro/src/hypro\l/algorithms/reachability\l/contexts/TimedContext.h">
<polygon fill="white" stroke="black" points="208,-267.5 208,-319.5 348,-319.5 348,-267.5 208,-267.5"/>
<text text-anchor="start" x="216" y="-307.5" font-family="Helvetica,sans-Serif" font-size="10.00">/home/travis/build</text>
<text text-anchor="start" x="216" y="-296.5" font-family="Helvetica,sans-Serif" font-size="10.00">/hypro/hypro/src/hypro</text>
<text text-anchor="start" x="216" y="-285.5" font-family="Helvetica,sans-Serif" font-size="10.00">/algorithms/reachability</text>
<text text-anchor="middle" x="278" y="-274.5" font-family="Helvetica,sans-Serif" font-size="10.00">/contexts/TimedContext.h</text>
</a>
</g>
</g>
<!-- Node4&#45;&gt;Node9 -->
<g id="edge8" class="edge"><title>Node4&#45;&gt;Node9</title>
<path fill="none" stroke="midnightblue" d="M233.308,-348.503C241.236,-338.923 249.763,-328.62 257.221,-319.607"/>
<polygon fill="midnightblue" stroke="midnightblue" points="230.505,-346.401 226.825,-356.336 235.897,-350.864 230.505,-346.401"/>
</g>
<!-- Node6 -->
<g id="node6" class="node"><title>Node6</title>
<g id="a_node6"><a xlink:href="ContextBasedReachabilityWorker_8h.html" target="_top" xlink:title="/home/travis/build\l/hypro/hypro/src/hypro\l/algorithms/reachability\l/workers/ContextBasedReachability\lWorker.h">
<polygon fill="white" stroke="black" points="147.5,-78.5 147.5,-141.5 330.5,-141.5 330.5,-78.5 147.5,-78.5"/>
<text text-anchor="start" x="155.5" y="-129.5" font-family="Helvetica,sans-Serif" font-size="10.00">/home/travis/build</text>
<text text-anchor="start" x="155.5" y="-118.5" font-family="Helvetica,sans-Serif" font-size="10.00">/hypro/hypro/src/hypro</text>
<text text-anchor="start" x="155.5" y="-107.5" font-family="Helvetica,sans-Serif" font-size="10.00">/algorithms/reachability</text>
<text text-anchor="start" x="155.5" y="-96.5" font-family="Helvetica,sans-Serif" font-size="10.00">/workers/ContextBasedReachability</text>
<text text-anchor="middle" x="239" y="-85.5" font-family="Helvetica,sans-Serif" font-size="10.00">Worker.h</text>
</a>
</g>
</g>
<!-- Node5&#45;&gt;Node6 -->
<g id="edge5" class="edge"><title>Node5&#45;&gt;Node6</title>
<path fill="none" stroke="midnightblue" d="M239,-167.945C239,-159.226 239,-149.97 239,-141.512"/>
<polygon fill="midnightblue" stroke="midnightblue" points="235.5,-168.224 239,-178.224 242.5,-168.224 235.5,-168.224"/>
</g>
<!-- Node6&#45;&gt;Node7 -->
<g id="edge6" class="edge"><title>Node6&#45;&gt;Node7</title>
<path fill="none" stroke="midnightblue" d="M240.417,-67.913C240.732,-58.7761 241.052,-49.4967 241.321,-41.6941"/>
<polygon fill="midnightblue" stroke="midnightblue" points="236.913,-67.9674 240.066,-78.0821 243.909,-68.2087 236.913,-67.9674"/>
</g>
<!-- Node6&#45;&gt;Node8 -->
<g id="edge7" class="edge"><title>Node6&#45;&gt;Node8</title>
<path fill="none" stroke="midnightblue" d="M167.844,-73.8264C145.572,-62.8171 121.805,-51.0686 102.541,-41.5457"/>
<polygon fill="midnightblue" stroke="midnightblue" points="166.433,-77.0333 176.949,-78.3271 169.535,-70.7581 166.433,-77.0333"/>
</g>
<!-- Node9&#45;&gt;Node5 -->
<g id="edge9" class="edge"><title>Node9&#45;&gt;Node5</title>
<path fill="none" stroke="midnightblue" d="M262.562,-258.061C258.453,-248.896 254.093,-239.169 250.255,-230.607"/>
<polygon fill="midnightblue" stroke="midnightblue" points="259.435,-259.643 266.72,-267.336 265.823,-256.779 259.435,-259.643"/>
</g>
<!-- Node11 -->
<g id="node11" class="node"><title>Node11</title>
<g id="a_node11"><a xlink:href="ltiJumpHandler_8h.html" target="_top" xlink:title="/home/travis/build\l/hypro/hypro/src/hypro\l/algorithms/reachability\l/handlers/jumpHandlers/ltiJumpHandler.h">
<polygon fill="white" stroke="black" points="366,-267.5 366,-319.5 578,-319.5 578,-267.5 366,-267.5"/>
<text text-anchor="start" x="374" y="-307.5" font-family="Helvetica,sans-Serif" font-size="10.00">/home/travis/build</text>
<text text-anchor="start" x="374" y="-296.5" font-family="Helvetica,sans-Serif" font-size="10.00">/hypro/hypro/src/hypro</text>
<text text-anchor="start" x="374" y="-285.5" font-family="Helvetica,sans-Serif" font-size="10.00">/algorithms/reachability</text>
<text text-anchor="middle" x="472" y="-274.5" font-family="Helvetica,sans-Serif" font-size="10.00">/handlers/jumpHandlers/ltiJumpHandler.h</text>
</a>
</g>
</g>
<!-- Node10&#45;&gt;Node11 -->
<g id="edge11" class="edge"><title>Node10&#45;&gt;Node11</title>
<path fill="none" stroke="midnightblue" d="M415.245,-349.363C425.405,-339.542 436.424,-328.89 446.027,-319.607"/>
<polygon fill="midnightblue" stroke="midnightblue" points="412.789,-346.869 408.032,-356.336 417.654,-351.902 412.789,-346.869"/>
</g>
<!-- Node12 -->
<g id="node12" class="node"><title>Node12</title>
<g id="a_node12"><a xlink:href="JumpHandlers_8h.html" target="_top" xlink:title="/home/travis/build\l/hypro/hypro/src/hypro\l/algorithms/reachability\l/handlers/jumpHandlers/JumpHandlers.h">
<polygon fill="white" stroke="black" points="434.5,-178.5 434.5,-230.5 643.5,-230.5 643.5,-178.5 434.5,-178.5"/>
<text text-anchor="start" x="442.5" y="-218.5" font-family="Helvetica,sans-Serif" font-size="10.00">/home/travis/build</text>
<text text-anchor="start" x="442.5" y="-207.5" font-family="Helvetica,sans-Serif" font-size="10.00">/hypro/hypro/src/hypro</text>
<text text-anchor="start" x="442.5" y="-196.5" font-family="Helvetica,sans-Serif" font-size="10.00">/algorithms/reachability</text>
<text text-anchor="middle" x="539" y="-185.5" font-family="Helvetica,sans-Serif" font-size="10.00">/handlers/jumpHandlers/JumpHandlers.h</text>
</a>
</g>
</g>
<!-- Node11&#45;&gt;Node12 -->
<g id="edge12" class="edge"><title>Node11&#45;&gt;Node12</title>
<path fill="none" stroke="midnightblue" d="M497.633,-259.215C504.948,-249.717 512.793,-239.529 519.664,-230.607"/>
<polygon fill="midnightblue" stroke="midnightblue" points="494.708,-257.278 491.379,-267.336 500.254,-261.549 494.708,-257.278"/>
</g>
<!-- Node12&#45;&gt;Node13 -->
<g id="edge13" class="edge"><title>Node12&#45;&gt;Node13</title>
<path fill="none" stroke="midnightblue" d="M571.162,-238.596C577.643,-247.198 583.527,-256.906 587,-267 594.663,-289.274 592.873,-297.188 587,-320 574.687,-367.823 543.605,-416.713 523.168,-445.303"/>
<polygon fill="midnightblue" stroke="midnightblue" points="573.817,-236.312 564.824,-230.71 568.361,-240.697 573.817,-236.312"/>
</g>
<!-- Node13&#45;&gt;Node4 -->
<g id="edge14" class="edge"><title>Node13&#45;&gt;Node4</title>
<path fill="none" stroke="midnightblue" d="M422.614,-449.71C379.688,-438.378 326.265,-423.695 279,-409 276.052,-408.083 273.044,-407.125 270.011,-406.141"/>
<polygon fill="midnightblue" stroke="midnightblue" points="421.885,-453.137 432.447,-452.295 423.666,-446.367 421.885,-453.137"/>
</g>
<!-- Node13&#45;&gt;Node9 -->
<g id="edge16" class="edge"><title>Node13&#45;&gt;Node9</title>
<path fill="none" stroke="midnightblue" d="M507.413,-435.151C507.837,-410.094 504.059,-377.274 485,-356 445.567,-311.984 413.574,-337.08 357,-320 354.103,-319.125 351.149,-318.222 348.168,-317.302"/>
<polygon fill="midnightblue" stroke="midnightblue" points="503.907,-435.227 507.006,-445.358 510.902,-435.506 503.907,-435.227"/>
</g>
<!-- Node13&#45;&gt;Node11 -->
<g id="edge15" class="edge"><title>Node13&#45;&gt;Node11</title>
<path fill="none" stroke="midnightblue" d="M516.026,-435.59C522.115,-412.494 526.589,-381.823 518,-356 513.581,-342.716 505.049,-329.982 496.521,-319.583"/>
<polygon fill="midnightblue" stroke="midnightblue" points="512.632,-434.729 513.253,-445.306 519.363,-436.65 512.632,-434.729"/>
</g>
</g>
</svg>
