<?xml version="1.0" encoding="UTF-8" standalone="no"?>
<!DOCTYPE svg PUBLIC "-//W3C//DTD SVG 1.1//EN"
 "http://www.w3.org/Graphics/SVG/1.1/DTD/svg11.dtd">
<!-- Generated by graphviz version 2.38.0 (20140413.2041)
 -->
<!-- Title: /home/travis/build/hypro/hypro/src/hypro/datastructures/reachability/timing/EventTimingContainer.h Pages: 1 -->
<!--zoomable 430 -->
<svg id="main" version="1.1" xmlns="http://www.w3.org/2000/svg" xmlns:xlink="http://www.w3.org/1999/xlink" xml:space="preserve" onload="init(evt)">
<style type="text/css"><![CDATA[
.edge:hover path { stroke: red; }
.edge:hover polygon { stroke: red; fill: red; }
]]></style>
<script type="text/javascript"><![CDATA[
var edges = document.getElementsByTagName('g');
if (edges && edges.length) {
  for (var i=0;i<edges.length;i++) {
    if (edges[i].id.substr(0,4)=='edge') {
      edges[i].setAttribute('class','edge');
    }
  }
}
]]></script>
        <defs>
                <circle id="rim" cx="0" cy="0" r="7"/>
                <circle id="rim2" cx="0" cy="0" r="3.5"/>
                <g id="zoomPlus">
                        <use xlink:href="#rim" fill="#404040">
                                <set attributeName="fill" to="#808080" begin="zoomplus.mouseover" end="zoomplus.mouseout"/>
                        </use>
                        <path d="M-4,0h8M0,-4v8" fill="none" stroke="white" stroke-width="1.5" pointer-events="none"/>
                </g>
                <g id="zoomMin">
                        <use xlink:href="#rim" fill="#404040">
                                <set attributeName="fill" to="#808080" begin="zoomminus.mouseover" end="zoomminus.mouseout"/>
                        </use>
                        <path d="M-4,0h8" fill="none" stroke="white" stroke-width="1.5" pointer-events="none"/>
                </g>
                <g id="dirArrow">
                        <path fill="none" stroke="white" stroke-width="1.5" d="M0,-3.0v7 M-2.5,-0.5L0,-3.0L2.5,-0.5"/>
                </g>
               <g id="resetDef">
                       <use xlink:href="#rim2" fill="#404040">
                               <set attributeName="fill" to="#808080" begin="reset.mouseover" end="reset.mouseout"/>
                       </use>
               </g>
        </defs>

<script type="text/javascript">
var viewWidth = 1811;
var viewHeight = 430;
var sectionId = 'dynsection-0';
</script>
<script xlink:href="svgpan.js"/>
<svg id="graph" class="graph">
<g id="viewport">
<title>/home/travis/build/hypro/hypro/src/hypro/datastructures/reachability/timing/EventTimingContainer.h</title>
<polygon fill="white" stroke="none" points="-4,4 -4,-426 1806.5,-426 1806.5,4 -4,4"/>
<!-- Node1 -->
<g id="node1" class="node"><title>Node1</title>
<polygon fill="#bfbfbf" stroke="black" points="898,-369.5 898,-421.5 1064,-421.5 1064,-369.5 898,-369.5"/>
<text text-anchor="start" x="906" y="-409.5" font-family="Helvetica,sans-Serif" font-size="10.00">/home/travis/build</text>
<text text-anchor="start" x="906" y="-398.5" font-family="Helvetica,sans-Serif" font-size="10.00">/hypro/hypro/src/hypro</text>
<text text-anchor="start" x="906" y="-387.5" font-family="Helvetica,sans-Serif" font-size="10.00">/datastructures/reachability</text>
<text text-anchor="middle" x="981" y="-376.5" font-family="Helvetica,sans-Serif" font-size="10.00">/timing/EventTimingContainer.h</text>
</g>
<!-- Node2 -->
<g id="node2" class="node"><title>Node2</title>
<g id="a_node2"><a xlink:href="HierarchicalIntervalVector_8h.html" target="_top" xlink:title="HierarchicalIntervalVector.h">
<polygon fill="white" stroke="black" points="229.5,-313.5 229.5,-332.5 376.5,-332.5 376.5,-313.5 229.5,-313.5"/>
<text text-anchor="middle" x="303" y="-320.5" font-family="Helvetica,sans-Serif" font-size="10.00">HierarchicalIntervalVector.h</text>
</a>
</g>
</g>
<!-- Node1&#45;&gt;Node2 -->
<g id="edge1" class="edge"><title>Node1&#45;&gt;Node2</title>
<path fill="none" stroke="midnightblue" d="M897.864,-385.855C767.681,-372.319 517.144,-346.267 386.647,-332.698"/>
<polygon fill="midnightblue" stroke="midnightblue" points="387.005,-329.216 376.697,-331.663 386.281,-336.179 387.005,-329.216"/>
</g>
<!-- Node29 -->
<g id="node29" class="node"><title>Node29</title>
<polygon fill="white" stroke="#bfbfbf" points="1382.5,-257.5 1382.5,-276.5 1501.5,-276.5 1501.5,-257.5 1382.5,-257.5"/>
<text text-anchor="middle" x="1442" y="-264.5" font-family="Helvetica,sans-Serif" font-size="10.00">carl/interval/Interval.h</text>
</g>
<!-- Node1&#45;&gt;Node29 -->
<g id="edge45" class="edge"><title>Node1&#45;&gt;Node29</title>
<path fill="none" stroke="midnightblue" d="M954.606,-369.47C939.43,-352.097 926.067,-329.245 941,-313 973.222,-277.947 1320.64,-281.875 1368,-277 1369.3,-276.866 1370.62,-276.728 1371.95,-276.588"/>
<polygon fill="midnightblue" stroke="midnightblue" points="1372.69,-280.027 1382.25,-275.459 1371.93,-273.069 1372.69,-280.027"/>
</g>
<!-- Node33 -->
<g id="node33" class="node"><title>Node33</title>
<g id="a_node33"><a xlink:href="ETC__util_8h.html" target="_top" xlink:title="ETC_util.h">
<polygon fill="white" stroke="black" points="950,-313.5 950,-332.5 1012,-332.5 1012,-313.5 950,-313.5"/>
<text text-anchor="middle" x="981" y="-320.5" font-family="Helvetica,sans-Serif" font-size="10.00">ETC_util.h</text>
</a>
</g>
</g>
<!-- Node1&#45;&gt;Node33 -->
<g id="edge46" class="edge"><title>Node1&#45;&gt;Node33</title>
<path fill="none" stroke="midnightblue" d="M974.507,-369.446C974.05,-360.63 974.202,-350.883 974.962,-342.684"/>
<polygon fill="midnightblue" stroke="midnightblue" points="978.439,-343.087 976.375,-332.695 971.508,-342.106 978.439,-343.087"/>
</g>
<!-- Node34 -->
<g id="node34" class="node"><title>Node34</title>
<polygon fill="white" stroke="#bfbfbf" points="1030,-313.5 1030,-332.5 1170,-332.5 1170,-313.5 1030,-313.5"/>
<text text-anchor="middle" x="1100" y="-320.5" font-family="Helvetica,sans-Serif" font-size="10.00">EventTimingContainer.tpp</text>
</g>
<!-- Node1&#45;&gt;Node34 -->
<g id="edge48" class="edge"><title>Node1&#45;&gt;Node34</title>
<path fill="none" stroke="midnightblue" d="M1023.29,-369.446C1041.33,-358.761 1061.67,-346.709 1076.87,-337.702"/>
<polygon fill="midnightblue" stroke="midnightblue" points="1078.79,-340.635 1085.61,-332.527 1075.22,-334.613 1078.79,-340.635"/>
</g>
<!-- Node3 -->
<g id="node3" class="node"><title>Node3</title>
<g id="a_node3"><a xlink:href="types_8h.html" target="_top" xlink:title="../../../types.h">
<polygon fill="white" stroke="black" points="527.5,-257.5 527.5,-276.5 606.5,-276.5 606.5,-257.5 527.5,-257.5"/>
<text text-anchor="middle" x="567" y="-264.5" font-family="Helvetica,sans-Serif" font-size="10.00">../../../types.h</text>
</a>
</g>
</g>
<!-- Node2&#45;&gt;Node3 -->
<g id="edge2" class="edge"><title>Node2&#45;&gt;Node3</title>
<path fill="none" stroke="midnightblue" d="M344.832,-313.444C391.623,-303.873 467.37,-288.379 517.184,-278.19"/>
<polygon fill="midnightblue" stroke="midnightblue" points="517.997,-281.596 527.092,-276.163 516.594,-274.738 517.997,-281.596"/>
</g>
<!-- Node13 -->
<g id="node13" class="node"><title>Node13</title>
<g id="a_node13"><a xlink:href="util_2convenienceOperators_8h.html" target="_top" xlink:title="util/convenienceOperators.h">
<polygon fill="white" stroke="black" points="154.5,-56.5 154.5,-75.5 305.5,-75.5 305.5,-56.5 154.5,-56.5"/>
<text text-anchor="middle" x="230" y="-63.5" font-family="Helvetica,sans-Serif" font-size="10.00">util/convenienceOperators.h</text>
</a>
</g>
</g>
<!-- Node2&#45;&gt;Node13 -->
<g id="edge36" class="edge"><title>Node2&#45;&gt;Node13</title>
<path fill="none" stroke="midnightblue" d="M229.375,-314.187C181.714,-307.436 125.861,-295.747 111,-277 58.1755,-210.363 163.865,-117.421 209.962,-81.7454"/>
<polygon fill="midnightblue" stroke="midnightblue" points="212.228,-84.4195 218.074,-75.5835 207.994,-78.8454 212.228,-84.4195"/>
</g>
<!-- Node15 -->
<g id="node15" class="node"><title>Node15</title>
<polygon fill="white" stroke="#bfbfbf" points="0,-0.5 0,-19.5 42,-19.5 42,-0.5 0,-0.5"/>
<text text-anchor="middle" x="21" y="-7.5" font-family="Helvetica,sans-Serif" font-size="10.00">utility</text>
</g>
<!-- Node2&#45;&gt;Node15 -->
<g id="edge40" class="edge"><title>Node2&#45;&gt;Node15</title>
<path fill="none" stroke="midnightblue" d="M229.354,-320.604C181.487,-316.709 119.402,-305.799 72,-277 37.8016,-256.222 16,-246.515 16,-206.5 16,-206.5 16,-206.5 16,-132 16,-95.6828 18.2764,-53.2865 19.7572,-29.5491"/>
<polygon fill="midnightblue" stroke="midnightblue" points="23.2541,-29.7086 20.4068,-19.5036 16.2687,-29.2568 23.2541,-29.7086"/>
</g>
<!-- Node16 -->
<g id="node16" class="node"><title>Node16</title>
<polygon fill="white" stroke="#bfbfbf" points="80.5,-0.5 80.5,-19.5 127.5,-19.5 127.5,-0.5 80.5,-0.5"/>
<text text-anchor="middle" x="104" y="-7.5" font-family="Helvetica,sans-Serif" font-size="10.00">vector</text>
</g>
<!-- Node2&#45;&gt;Node16 -->
<g id="edge41" class="edge"><title>Node2&#45;&gt;Node16</title>
<path fill="none" stroke="midnightblue" d="M229.302,-318.213C155.878,-309.995 54,-284.532 54,-206.5 54,-206.5 54,-206.5 54,-132 54,-92.4217 77.132,-50.7045 91.9283,-28.0685"/>
<polygon fill="midnightblue" stroke="midnightblue" points="94.956,-29.8395 97.6675,-19.5975 89.1608,-25.9132 94.956,-29.8395"/>
</g>
<!-- Node17 -->
<g id="node17" class="node"><title>Node17</title>
<g id="a_node17"><a xlink:href="Logger_8h.html" target="_top" xlink:title="util/logging/Logger.h">
<polygon fill="white" stroke="black" points="1297.5,-56.5 1297.5,-75.5 1410.5,-75.5 1410.5,-56.5 1297.5,-56.5"/>
<text text-anchor="middle" x="1354" y="-63.5" font-family="Helvetica,sans-Serif" font-size="10.00">util/logging/Logger.h</text>
</a>
</g>
</g>
<!-- Node2&#45;&gt;Node17 -->
<g id="edge37" class="edge"><title>Node2&#45;&gt;Node17</title>
<path fill="none" stroke="midnightblue" d="M365.523,-313.468C428.565,-304.752 528.638,-290.602 615,-277 935.683,-226.491 1100.25,-378.234 1335,-154 1353.32,-136.504 1355.97,-105.766 1355.51,-85.9036"/>
<polygon fill="midnightblue" stroke="midnightblue" points="1358.99,-85.4506 1354.97,-75.6478 1352,-85.8174 1358.99,-85.4506"/>
</g>
<!-- Node2&#45;&gt;Node29 -->
<g id="edge38" class="edge"><title>Node2&#45;&gt;Node29</title>
<path fill="none" stroke="midnightblue" d="M376.72,-320.884C549.945,-317.825 996.344,-307.405 1368,-277 1369.31,-276.893 1370.62,-276.781 1371.95,-276.663"/>
<polygon fill="midnightblue" stroke="midnightblue" points="1372.65,-280.113 1382.27,-275.674 1371.98,-273.145 1372.65,-280.113"/>
</g>
<!-- Node30 -->
<g id="node30" class="node"><title>Node30</title>
<polygon fill="white" stroke="#bfbfbf" points="120,-257.5 120,-276.5 254,-276.5 254,-257.5 120,-257.5"/>
<text text-anchor="middle" x="187" y="-264.5" font-family="Helvetica,sans-Serif" font-size="10.00">carl/interval/set_theory.h</text>
</g>
<!-- Node2&#45;&gt;Node30 -->
<g id="edge39" class="edge"><title>Node2&#45;&gt;Node30</title>
<path fill="none" stroke="midnightblue" d="M284.619,-313.444C265.784,-304.675 236.269,-290.935 214.621,-280.858"/>
<polygon fill="midnightblue" stroke="midnightblue" points="215.838,-277.564 205.295,-276.516 212.883,-283.91 215.838,-277.564"/>
</g>
<!-- Node31 -->
<g id="node31" class="node"><title>Node31</title>
<g id="a_node31"><a xlink:href="HIV__util_8h.html" target="_top" xlink:title="HIV_util.h">
<polygon fill="white" stroke="black" points="272,-257.5 272,-276.5 334,-276.5 334,-257.5 272,-257.5"/>
<text text-anchor="middle" x="303" y="-264.5" font-family="Helvetica,sans-Serif" font-size="10.00">HIV_util.h</text>
</a>
</g>
</g>
<!-- Node2&#45;&gt;Node31 -->
<g id="edge42" class="edge"><title>Node2&#45;&gt;Node31</title>
<path fill="none" stroke="midnightblue" d="M297.834,-313.083C296.324,-305.927 295.894,-295.635 296.542,-286.691"/>
<polygon fill="midnightblue" stroke="midnightblue" points="300.015,-287.126 297.869,-276.751 293.077,-286.2 300.015,-287.126"/>
</g>
<!-- Node32 -->
<g id="node32" class="node"><title>Node32</title>
<polygon fill="white" stroke="#bfbfbf" points="352.5,-257.5 352.5,-276.5 509.5,-276.5 509.5,-257.5 352.5,-257.5"/>
<text text-anchor="middle" x="431" y="-264.5" font-family="Helvetica,sans-Serif" font-size="10.00">HierarchicalIntervalVector.tpp</text>
</g>
<!-- Node2&#45;&gt;Node32 -->
<g id="edge44" class="edge"><title>Node2&#45;&gt;Node32</title>
<path fill="none" stroke="midnightblue" d="M323.282,-313.444C344.347,-304.557 377.517,-290.563 401.486,-280.451"/>
<polygon fill="midnightblue" stroke="midnightblue" points="402.96,-283.628 410.813,-276.516 400.239,-277.179 402.96,-283.628"/>
</g>
<!-- Node4 -->
<g id="node4" class="node"><title>Node4</title>
<polygon fill="white" stroke="#bfbfbf" points="362,-123.5 362,-142.5 496,-142.5 496,-123.5 362,-123.5"/>
<text text-anchor="middle" x="429" y="-130.5" font-family="Helvetica,sans-Serif" font-size="10.00">carl/numbers/numbers.h</text>
</g>
<!-- Node3&#45;&gt;Node4 -->
<g id="edge3" class="edge"><title>Node3&#45;&gt;Node4</title>
<path fill="none" stroke="midnightblue" d="M561.524,-257.359C551.869,-242.525 530.683,-211.717 508,-190 490.889,-173.618 468.681,-158.304 452.171,-147.846"/>
<polygon fill="midnightblue" stroke="midnightblue" points="453.995,-144.859 443.653,-142.559 450.304,-150.806 453.995,-144.859"/>
</g>
<!-- Node5 -->
<g id="node5" class="node"><title>Node5</title>
<polygon fill="white" stroke="#bfbfbf" points="258,-196 258,-215 344,-215 344,-196 258,-196"/>
<text text-anchor="middle" x="301" y="-203" font-family="Helvetica,sans-Serif" font-size="10.00">carl/util/hash.h</text>
</g>
<!-- Node3&#45;&gt;Node5 -->
<g id="edge4" class="edge"><title>Node3&#45;&gt;Node5</title>
<path fill="none" stroke="midnightblue" d="M527.385,-258.467C484.299,-250.088 413.484,-235.776 353,-221 348.852,-219.987 344.533,-218.875 340.236,-217.731"/>
<polygon fill="midnightblue" stroke="midnightblue" points="340.906,-214.287 330.338,-215.038 339.068,-221.041 340.906,-214.287"/>
</g>
<!-- Node6 -->
<g id="node6" class="node"><title>Node6</title>
<polygon fill="white" stroke="#bfbfbf" points="362,-196 362,-215 466,-215 466,-196 362,-196"/>
<text text-anchor="middle" x="414" y="-203" font-family="Helvetica,sans-Serif" font-size="10.00">eigen3/Eigen/Core</text>
</g>
<!-- Node3&#45;&gt;Node6 -->
<g id="edge5" class="edge"><title>Node3&#45;&gt;Node6</title>
<path fill="none" stroke="midnightblue" d="M545.079,-257.475C518.948,-247.313 475.088,-230.256 445.37,-218.7"/>
<polygon fill="midnightblue" stroke="midnightblue" points="446.469,-215.372 435.881,-215.009 443.932,-221.896 446.469,-215.372"/>
</g>
<!-- Node7 -->
<g id="node7" class="node"><title>Node7</title>
<polygon fill="white" stroke="#bfbfbf" points="514,-123.5 514,-142.5 626,-142.5 626,-123.5 514,-123.5"/>
<text text-anchor="middle" x="570" y="-130.5" font-family="Helvetica,sans-Serif" font-size="10.00">eigen3/Eigen/Dense</text>
</g>
<!-- Node3&#45;&gt;Node7 -->
<g id="edge6" class="edge"><title>Node3&#45;&gt;Node7</title>
<path fill="none" stroke="midnightblue" d="M567.197,-257.339C567.678,-236.174 568.922,-181.448 569.579,-152.533"/>
<polygon fill="midnightblue" stroke="midnightblue" points="573.078,-152.598 569.806,-142.521 566.08,-152.439 573.078,-152.598"/>
</g>
<!-- Node8 -->
<g id="node8" class="node"><title>Node8</title>
<polygon fill="white" stroke="#bfbfbf" points="311,-0.5 311,-19.5 357,-19.5 357,-0.5 311,-0.5"/>
<text text-anchor="middle" x="334" y="-7.5" font-family="Helvetica,sans-Serif" font-size="10.00">iosfwd</text>
</g>
<!-- Node3&#45;&gt;Node8 -->
<g id="edge7" class="edge"><title>Node3&#45;&gt;Node8</title>
<path fill="none" stroke="midnightblue" d="M554.967,-257.383C542.842,-248.571 523.727,-234.324 508,-221 492.646,-207.992 492.458,-200.008 475,-190 425.954,-161.883 389.764,-196.947 353,-154 322.817,-118.74 326.377,-59.5901 330.643,-29.6174"/>
<polygon fill="midnightblue" stroke="midnightblue" points="334.111,-30.0984 332.244,-19.6694 327.2,-28.9863 334.111,-30.0984"/>
</g>
<!-- Node9 -->
<g id="node9" class="node"><title>Node9</title>
<polygon fill="white" stroke="#bfbfbf" points="156,-0.5 156,-19.5 188,-19.5 188,-0.5 156,-0.5"/>
<text text-anchor="middle" x="172" y="-7.5" font-family="Helvetica,sans-Serif" font-size="10.00">set</text>
</g>
<!-- Node3&#45;&gt;Node9 -->
<g id="edge8" class="edge"><title>Node3&#45;&gt;Node9</title>
<path fill="none" stroke="midnightblue" d="M527.453,-258.531C524.259,-257.99 521.078,-257.473 518,-257 453.595,-247.11 281.158,-257.231 227,-221 165.464,-179.834 163.843,-147.598 145,-76 142.738,-67.4038 142.627,-64.5664 145,-56 147.792,-45.9205 153.509,-35.832 158.967,-27.7694"/>
<polygon fill="midnightblue" stroke="midnightblue" points="161.825,-29.7899 164.849,-19.6357 156.153,-25.6881 161.825,-29.7899"/>
</g>
<!-- Node10 -->
<g id="node10" class="node"><title>Node10</title>
<g id="a_node10"><a xlink:href="adaptions__eigen_8h.html" target="_top" xlink:title="util/adaptions_eigen\l/adaptions_eigen.h">
<polygon fill="white" stroke="black" points="674.5,-190.5 674.5,-220.5 787.5,-220.5 787.5,-190.5 674.5,-190.5"/>
<text text-anchor="start" x="682.5" y="-208.5" font-family="Helvetica,sans-Serif" font-size="10.00">util/adaptions_eigen</text>
<text text-anchor="middle" x="731" y="-197.5" font-family="Helvetica,sans-Serif" font-size="10.00">/adaptions_eigen.h</text>
</a>
</g>
</g>
<!-- Node3&#45;&gt;Node10 -->
<g id="edge9" class="edge"><title>Node3&#45;&gt;Node10</title>
<path fill="none" stroke="midnightblue" d="M585.597,-257.475C607.771,-248.739 645.462,-234.907 676.965,-223.855"/>
<polygon fill="midnightblue" stroke="midnightblue" points="678.229,-227.121 686.519,-220.523 675.924,-220.511 678.229,-227.121"/>
</g>
<!-- Node10&#45;&gt;Node3 -->
<g id="edge27" class="edge"><title>Node10&#45;&gt;Node3</title>
<path fill="none" stroke="midnightblue" d="M698.178,-220.523C671.229,-230.782 633.194,-244.542 604.947,-254.23"/>
<polygon fill="midnightblue" stroke="midnightblue" points="603.74,-250.944 595.398,-257.475 605.992,-257.572 603.74,-250.944"/>
</g>
<!-- Node10&#45;&gt;Node4 -->
<g id="edge29" class="edge"><title>Node10&#45;&gt;Node4</title>
<path fill="none" stroke="midnightblue" d="M674.207,-192.427C628.42,-182.545 562.425,-167.967 505,-154 493.733,-151.26 481.572,-148.135 470.351,-145.183"/>
<polygon fill="midnightblue" stroke="midnightblue" points="470.926,-141.714 460.363,-142.536 469.133,-148.481 470.926,-141.714"/>
</g>
<!-- Node10&#45;&gt;Node7 -->
<g id="edge30" class="edge"><title>Node10&#45;&gt;Node7</title>
<path fill="none" stroke="midnightblue" d="M698.806,-190.403C669.583,-177.606 626.883,-158.908 598.775,-146.6"/>
<polygon fill="midnightblue" stroke="midnightblue" points="600.052,-143.339 589.488,-142.534 597.244,-149.751 600.052,-143.339"/>
</g>
<!-- Node10&#45;&gt;Node8 -->
<g id="edge33" class="edge"><title>Node10&#45;&gt;Node8</title>
<path fill="none" stroke="midnightblue" d="M713.774,-190.428C701.979,-180.57 686.152,-166.904 673,-154 655.031,-136.37 656.062,-125.786 635,-112 547.948,-55.0224 425.633,-27.1588 367.378,-16.4517"/>
<polygon fill="midnightblue" stroke="midnightblue" points="367.728,-12.959 357.269,-14.6489 366.499,-19.8503 367.728,-12.959"/>
</g>
<!-- Node11 -->
<g id="node11" class="node"><title>Node11</title>
<g id="a_node11"><a xlink:href="config_8h.html" target="_top" xlink:title="../../config.h">
<polygon fill="white" stroke="black" points="1254,-123.5 1254,-142.5 1326,-142.5 1326,-123.5 1254,-123.5"/>
<text text-anchor="middle" x="1290" y="-130.5" font-family="Helvetica,sans-Serif" font-size="10.00">../../config.h</text>
</a>
</g>
</g>
<!-- Node10&#45;&gt;Node11 -->
<g id="edge10" class="edge"><title>Node10&#45;&gt;Node11</title>
<path fill="none" stroke="midnightblue" d="M787.56,-204.798C883.344,-204.015 1082.88,-196.795 1245,-154 1251.62,-152.253 1258.5,-149.643 1264.83,-146.88"/>
<polygon fill="midnightblue" stroke="midnightblue" points="1266.62,-149.907 1274.21,-142.515 1263.67,-143.561 1266.62,-149.907"/>
</g>
<!-- Node24 -->
<g id="node24" class="node"><title>Node24</title>
<g id="a_node24"><a xlink:href="transformation_8h.html" target="_top" xlink:title="transformation.h">
<polygon fill="white" stroke="black" points="682.5,-123.5 682.5,-142.5 779.5,-142.5 779.5,-123.5 682.5,-123.5"/>
<text text-anchor="middle" x="731" y="-130.5" font-family="Helvetica,sans-Serif" font-size="10.00">transformation.h</text>
</a>
</g>
</g>
<!-- Node10&#45;&gt;Node24 -->
<g id="edge28" class="edge"><title>Node10&#45;&gt;Node24</title>
<path fill="none" stroke="midnightblue" d="M731,-190.233C731,-179.501 731,-164.687 731,-152.959"/>
<polygon fill="midnightblue" stroke="midnightblue" points="734.5,-152.893 731,-142.893 727.5,-152.893 734.5,-152.893"/>
</g>
<!-- Node25 -->
<g id="node25" class="node"><title>Node25</title>
<polygon fill="white" stroke="#bfbfbf" points="798,-123.5 798,-142.5 936,-142.5 936,-123.5 798,-123.5"/>
<text text-anchor="middle" x="867" y="-130.5" font-family="Helvetica,sans-Serif" font-size="10.00">eigen3/Eigen/Eigenvalues</text>
</g>
<!-- Node10&#45;&gt;Node25 -->
<g id="edge31" class="edge"><title>Node10&#45;&gt;Node25</title>
<path fill="none" stroke="midnightblue" d="M758.195,-190.403C782.449,-177.83 817.693,-159.56 841.438,-147.251"/>
<polygon fill="midnightblue" stroke="midnightblue" points="843.271,-150.243 850.538,-142.534 840.049,-144.029 843.271,-150.243"/>
</g>
<!-- Node26 -->
<g id="node26" class="node"><title>Node26</title>
<polygon fill="white" stroke="#bfbfbf" points="954.5,-123.5 954.5,-142.5 1017.5,-142.5 1017.5,-123.5 954.5,-123.5"/>
<text text-anchor="middle" x="986" y="-130.5" font-family="Helvetica,sans-Serif" font-size="10.00">functional</text>
</g>
<!-- Node10&#45;&gt;Node26 -->
<g id="edge32" class="edge"><title>Node10&#45;&gt;Node26</title>
<path fill="none" stroke="midnightblue" d="M787.86,-194.657C831.564,-186.24 893.049,-172.54 945,-154 950.408,-152.07 956.041,-149.629 961.338,-147.122"/>
<polygon fill="midnightblue" stroke="midnightblue" points="962.986,-150.211 970.389,-142.632 959.875,-143.94 962.986,-150.211"/>
</g>
<!-- Node27 -->
<g id="node27" class="node"><title>Node27</title>
<polygon fill="white" stroke="#bfbfbf" points="1036,-123.5 1036,-142.5 1078,-142.5 1078,-123.5 1036,-123.5"/>
<text text-anchor="middle" x="1057" y="-130.5" font-family="Helvetica,sans-Serif" font-size="10.00">limits</text>
</g>
<!-- Node10&#45;&gt;Node27 -->
<g id="edge34" class="edge"><title>Node10&#45;&gt;Node27</title>
<path fill="none" stroke="midnightblue" d="M787.703,-201.557C848.458,-196.872 946.833,-184.82 1026,-154 1029.92,-152.475 1033.86,-150.418 1037.57,-148.201"/>
<polygon fill="midnightblue" stroke="midnightblue" points="1039.68,-150.997 1046.11,-142.575 1035.84,-145.15 1039.68,-150.997"/>
</g>
<!-- Node28 -->
<g id="node28" class="node"><title>Node28</title>
<polygon fill="white" stroke="#bfbfbf" points="1096,-112.5 1096,-153.5 1236,-153.5 1236,-112.5 1096,-112.5"/>
<text text-anchor="start" x="1104" y="-141.5" font-family="Helvetica,sans-Serif" font-size="10.00">eigen3/unsupported</text>
<text text-anchor="start" x="1104" y="-130.5" font-family="Helvetica,sans-Serif" font-size="10.00">/Eigen/src/MatrixFunctions</text>
<text text-anchor="middle" x="1166" y="-119.5" font-family="Helvetica,sans-Serif" font-size="10.00">/MatrixExponential.h</text>
</g>
<!-- Node10&#45;&gt;Node28 -->
<g id="edge35" class="edge"><title>Node10&#45;&gt;Node28</title>
<path fill="none" stroke="midnightblue" d="M787.73,-198.352C856.182,-190.51 974.901,-175.563 1085.85,-154.126"/>
<polygon fill="midnightblue" stroke="midnightblue" points="1086.73,-157.52 1095.88,-152.167 1085.39,-150.65 1086.73,-157.52"/>
</g>
<!-- Node12 -->
<g id="node12" class="node"><title>Node12</title>
<g id="a_node12"><a xlink:href="flags_8h.html" target="_top" xlink:title="flags.h">
<polygon fill="white" stroke="black" points="1048,-0.5 1048,-19.5 1096,-19.5 1096,-0.5 1048,-0.5"/>
<text text-anchor="middle" x="1072" y="-7.5" font-family="Helvetica,sans-Serif" font-size="10.00">flags.h</text>
</a>
</g>
</g>
<!-- Node11&#45;&gt;Node12 -->
<g id="edge11" class="edge"><title>Node11&#45;&gt;Node12</title>
<path fill="none" stroke="midnightblue" d="M1274.67,-123.492C1237.39,-102.8 1141.74,-49.71 1096.46,-24.5779"/>
<polygon fill="midnightblue" stroke="midnightblue" points="1098.05,-21.4539 1087.6,-19.661 1094.65,-27.5743 1098.05,-21.4539"/>
</g>
<!-- Node11&#45;&gt;Node13 -->
<g id="edge12" class="edge"><title>Node11&#45;&gt;Node13</title>
<path fill="none" stroke="midnightblue" d="M1274.68,-123.47C1266.2,-119.198 1255.32,-114.43 1245,-112 1069.53,-70.6802 527.186,-66.6555 315.693,-66.7116"/>
<polygon fill="midnightblue" stroke="midnightblue" points="315.569,-63.2116 305.571,-66.7175 315.573,-70.2116 315.569,-63.2116"/>
</g>
<!-- Node11&#45;&gt;Node17 -->
<g id="edge19" class="edge"><title>Node11&#45;&gt;Node17</title>
<path fill="none" stroke="midnightblue" d="M1298.63,-123.234C1308.8,-112.903 1325.9,-95.5371 1338.41,-82.8315"/>
<polygon fill="midnightblue" stroke="midnightblue" points="1340.98,-85.2086 1345.51,-75.6273 1336,-80.2974 1340.98,-85.2086"/>
</g>
<!-- Node13&#45;&gt;Node3 -->
<g id="edge13" class="edge"><title>Node13&#45;&gt;Node3</title>
<path fill="none" stroke="midnightblue" d="M227.848,-75.8576C222.035,-102.18 209.015,-180.601 249,-221 289.438,-261.856 443.051,-248.949 517.12,-257.187"/>
<polygon fill="midnightblue" stroke="midnightblue" points="517.073,-260.712 527.448,-258.565 517.999,-253.773 517.073,-260.712"/>
</g>
<!-- Node13&#45;&gt;Node8 -->
<g id="edge14" class="edge"><title>Node13&#45;&gt;Node8</title>
<path fill="none" stroke="midnightblue" d="M246.709,-56.324C263.312,-47.7034 289.002,-34.3643 308.22,-24.3855"/>
<polygon fill="midnightblue" stroke="midnightblue" points="310.07,-27.3689 317.332,-19.6545 306.844,-21.1565 310.07,-27.3689"/>
</g>
<!-- Node13&#45;&gt;Node9 -->
<g id="edge16" class="edge"><title>Node13&#45;&gt;Node9</title>
<path fill="none" stroke="midnightblue" d="M220.681,-56.324C212.107,-48.3414 199.188,-36.3128 188.812,-26.6529"/>
<polygon fill="midnightblue" stroke="midnightblue" points="191.192,-24.0865 181.488,-19.8339 186.422,-29.2098 191.192,-24.0865"/>
</g>
<!-- Node14 -->
<g id="node14" class="node"><title>Node14</title>
<polygon fill="white" stroke="#bfbfbf" points="211,-0.5 211,-19.5 249,-19.5 249,-0.5 211,-0.5"/>
<text text-anchor="middle" x="230" y="-7.5" font-family="Helvetica,sans-Serif" font-size="10.00">map</text>
</g>
<!-- Node13&#45;&gt;Node14 -->
<g id="edge15" class="edge"><title>Node13&#45;&gt;Node14</title>
<path fill="none" stroke="midnightblue" d="M230,-56.083C230,-49.0059 230,-38.8611 230,-29.9865"/>
<polygon fill="midnightblue" stroke="midnightblue" points="233.5,-29.751 230,-19.7511 226.5,-29.7511 233.5,-29.751"/>
</g>
<!-- Node13&#45;&gt;Node15 -->
<g id="edge17" class="edge"><title>Node13&#45;&gt;Node15</title>
<path fill="none" stroke="midnightblue" d="M196.883,-56.4435C157.049,-46.1515 90.7082,-29.0107 51.8927,-18.9819"/>
<polygon fill="midnightblue" stroke="midnightblue" points="52.7425,-15.5865 42.1849,-16.4736 50.9914,-22.364 52.7425,-15.5865"/>
</g>
<!-- Node13&#45;&gt;Node16 -->
<g id="edge18" class="edge"><title>Node13&#45;&gt;Node16</title>
<path fill="none" stroke="midnightblue" d="M210.035,-56.4435C189.391,-47.5961 156.937,-33.6875 133.368,-23.5865"/>
<polygon fill="midnightblue" stroke="midnightblue" points="134.442,-20.2387 123.872,-19.5164 131.684,-26.6727 134.442,-20.2387"/>
</g>
<!-- Node17&#45;&gt;Node12 -->
<g id="edge20" class="edge"><title>Node17&#45;&gt;Node12</title>
<path fill="none" stroke="midnightblue" d="M1298.83,-56.4513C1250.46,-48.6355 1178.06,-36.1622 1106.22,-20.1186"/>
<polygon fill="midnightblue" stroke="midnightblue" points="1106.61,-16.6197 1096.09,-17.8312 1105.07,-23.4478 1106.61,-16.6197"/>
</g>
<!-- Node18 -->
<g id="node18" class="node"><title>Node18</title>
<polygon fill="white" stroke="#bfbfbf" points="1114,-0.5 1114,-19.5 1268,-19.5 1268,-0.5 1114,-0.5"/>
<text text-anchor="middle" x="1191" y="-7.5" font-family="Helvetica,sans-Serif" font-size="10.00">carl/io/streamingOperators.h</text>
</g>
<!-- Node17&#45;&gt;Node18 -->
<g id="edge21" class="edge"><title>Node17&#45;&gt;Node18</title>
<path fill="none" stroke="midnightblue" d="M1328.17,-56.4435C1300.75,-47.3591 1257.22,-32.9388 1226.57,-22.7831"/>
<polygon fill="midnightblue" stroke="midnightblue" points="1227.3,-19.3389 1216.71,-19.5164 1225.1,-25.9837 1227.3,-19.3389"/>
</g>
<!-- Node19 -->
<g id="node19" class="node"><title>Node19</title>
<polygon fill="white" stroke="#bfbfbf" points="1286.5,-0.5 1286.5,-19.5 1345.5,-19.5 1345.5,-0.5 1286.5,-0.5"/>
<text text-anchor="middle" x="1316" y="-7.5" font-family="Helvetica,sans-Serif" font-size="10.00">iostream</text>
</g>
<!-- Node17&#45;&gt;Node19 -->
<g id="edge22" class="edge"><title>Node17&#45;&gt;Node19</title>
<path fill="none" stroke="midnightblue" d="M1347.73,-56.083C1342.36,-48.4554 1334.48,-37.2645 1327.92,-27.9408"/>
<polygon fill="midnightblue" stroke="midnightblue" points="1330.78,-25.9149 1322.16,-19.7511 1325.05,-29.9434 1330.78,-25.9149"/>
</g>
<!-- Node20 -->
<g id="node20" class="node"><title>Node20</title>
<polygon fill="white" stroke="#bfbfbf" points="1364,-0.5 1364,-19.5 1420,-19.5 1420,-0.5 1364,-0.5"/>
<text text-anchor="middle" x="1392" y="-7.5" font-family="Helvetica,sans-Serif" font-size="10.00">sstream</text>
</g>
<!-- Node17&#45;&gt;Node20 -->
<g id="edge23" class="edge"><title>Node17&#45;&gt;Node20</title>
<path fill="none" stroke="midnightblue" d="M1360.27,-56.083C1365.64,-48.4554 1373.52,-37.2645 1380.08,-27.9408"/>
<polygon fill="midnightblue" stroke="midnightblue" points="1382.95,-29.9434 1385.84,-19.7511 1377.22,-25.9149 1382.95,-29.9434"/>
</g>
<!-- Node21 -->
<g id="node21" class="node"><title>Node21</title>
<polygon fill="white" stroke="#bfbfbf" points="1438,-0.5 1438,-19.5 1486,-19.5 1486,-0.5 1438,-0.5"/>
<text text-anchor="middle" x="1462" y="-7.5" font-family="Helvetica,sans-Serif" font-size="10.00">thread</text>
</g>
<!-- Node17&#45;&gt;Node21 -->
<g id="edge24" class="edge"><title>Node17&#45;&gt;Node21</title>
<path fill="none" stroke="midnightblue" d="M1371.35,-56.324C1388.67,-47.6641 1415.52,-34.2424 1435.5,-24.249"/>
<polygon fill="midnightblue" stroke="midnightblue" points="1437.31,-27.2572 1444.69,-19.6545 1434.18,-20.9962 1437.31,-27.2572"/>
</g>
<!-- Node22 -->
<g id="node22" class="node"><title>Node22</title>
<polygon fill="white" stroke="#bfbfbf" points="1504.5,-0.5 1504.5,-19.5 1629.5,-19.5 1629.5,-0.5 1504.5,-0.5"/>
<text text-anchor="middle" x="1567" y="-7.5" font-family="Helvetica,sans-Serif" font-size="10.00">carl/core/carlLogging.h</text>
</g>
<!-- Node17&#45;&gt;Node22 -->
<g id="edge25" class="edge"><title>Node17&#45;&gt;Node22</title>
<path fill="none" stroke="midnightblue" d="M1387.75,-56.4435C1424.52,-47.1221 1483.45,-32.1828 1523.62,-21.9972"/>
<polygon fill="midnightblue" stroke="midnightblue" points="1524.57,-25.3666 1533.41,-19.5164 1522.85,-18.5813 1524.57,-25.3666"/>
</g>
<!-- Node23 -->
<g id="node23" class="node"><title>Node23</title>
<polygon fill="white" stroke="#bfbfbf" points="1647.5,-0.5 1647.5,-19.5 1802.5,-19.5 1802.5,-0.5 1647.5,-0.5"/>
<text text-anchor="middle" x="1725" y="-7.5" font-family="Helvetica,sans-Serif" font-size="10.00">carl/core/carlLoggingHelper.h</text>
</g>
<!-- Node17&#45;&gt;Node23 -->
<g id="edge26" class="edge"><title>Node17&#45;&gt;Node23</title>
<path fill="none" stroke="midnightblue" d="M1410.75,-56.7398C1476.72,-47.1372 1585.57,-31.2944 1656.27,-21.0034"/>
<polygon fill="midnightblue" stroke="midnightblue" points="1657.03,-24.4307 1666.42,-19.5268 1656.02,-17.5037 1657.03,-24.4307"/>
</g>
<!-- Node31&#45;&gt;Node2 -->
<g id="edge43" class="edge"><title>Node31&#45;&gt;Node2</title>
<path fill="none" stroke="midnightblue" d="M308.131,-276.751C309.657,-283.858 310.104,-294.136 309.472,-303.101"/>
<polygon fill="midnightblue" stroke="midnightblue" points="305.993,-302.713 308.166,-313.083 312.934,-303.622 305.993,-302.713"/>
</g>
<!-- Node33&#45;&gt;Node1 -->
<g id="edge47" class="edge"><title>Node33&#45;&gt;Node1</title>
<path fill="none" stroke="midnightblue" d="M985.625,-332.695C987.042,-339.475 987.751,-349.371 987.75,-359.266"/>
<polygon fill="midnightblue" stroke="midnightblue" points="984.247,-359.36 987.493,-369.446 991.244,-359.538 984.247,-359.36"/>
</g>
</g>
</svg>
        <g id="navigator" transform="translate(0 0)" fill="#404254">
                <rect fill="#f2f5e9" fill-opacity="0.5" stroke="#606060" stroke-width=".5" x="0" y="0" width="60" height="60"/>
                <use id="zoomplus" xlink:href="#zoomPlus" x="17" y="9" onmousedown="handleZoom(evt,'in')"/>
                <use id="zoomminus" xlink:href="#zoomMin" x="42" y="9" onmousedown="handleZoom(evt,'out')"/>
                <use id="reset" xlink:href="#resetDef" x="30" y="36" onmousedown="handleReset()"/>
                <g id="arrowUp" xlink:href="#dirArrow" transform="translate(30 24)" onmousedown="handlePan(0,-1)">
                  <use xlink:href="#rim" fill="#404040">
                        <set attributeName="fill" to="#808080" begin="arrowUp.mouseover" end="arrowUp.mouseout"/>
                  </use>
                  <path fill="none" stroke="white" stroke-width="1.5" d="M0,-3.0v7 M-2.5,-0.5L0,-3.0L2.5,-0.5"/>
                </g>
                <g id="arrowRight" xlink:href="#dirArrow" transform="rotate(90) translate(36 -43)" onmousedown="handlePan(1,0)">
                  <use xlink:href="#rim" fill="#404040">
                        <set attributeName="fill" to="#808080" begin="arrowRight.mouseover" end="arrowRight.mouseout"/>
                  </use>
                  <path fill="none" stroke="white" stroke-width="1.5" d="M0,-3.0v7 M-2.5,-0.5L0,-3.0L2.5,-0.5"/>
                </g>
                <g id="arrowDown" xlink:href="#dirArrow" transform="rotate(180) translate(-30 -48)" onmousedown="handlePan(0,1)">
                  <use xlink:href="#rim" fill="#404040">
                        <set attributeName="fill" to="#808080" begin="arrowDown.mouseover" end="arrowDown.mouseout"/>
                  </use>
                  <path fill="none" stroke="white" stroke-width="1.5" d="M0,-3.0v7 M-2.5,-0.5L0,-3.0L2.5,-0.5"/>
                </g>
                <g id="arrowLeft" xlink:href="#dirArrow" transform="rotate(270) translate(-36 17)" onmousedown="handlePan(-1,0)">
                  <use xlink:href="#rim" fill="#404040">
                        <set attributeName="fill" to="#808080" begin="arrowLeft.mouseover" end="arrowLeft.mouseout"/>
                  </use>
                  <path fill="none" stroke="white" stroke-width="1.5" d="M0,-3.0v7 M-2.5,-0.5L0,-3.0L2.5,-0.5"/>
                </g>
        </g>
        <svg viewBox="0 0 15 15" width="100%" height="30px" preserveAspectRatio="xMaxYMin meet">
         <g id="arrow_out" transform="scale(0.3 0.3)">
          <a xlink:href="EventTimingContainer_8h__incl_org.svg" target="_base">
           <rect id="button" ry="5" rx="5" y="6" x="6" height="38" width="38"
                fill="#f2f5e9" fill-opacity="0.5" stroke="#606060" stroke-width="1.0"/>
           <path id="arrow"
             d="M 11.500037,31.436501 C 11.940474,20.09759 22.043105,11.32322 32.158766,21.979434 L 37.068811,17.246167 C 37.068811,17.246167 37.088388,32 37.088388,32 L 22.160133,31.978069 C 22.160133,31.978069 26.997745,27.140456 26.997745,27.140456 C 18.528582,18.264221 13.291696,25.230495 11.500037,31.436501 z"
             style="fill:#404040;"/>
          </a>
         </g>
        </svg>
</svg>
