<?xml version="1.0" encoding="UTF-8" standalone="no"?>
<!DOCTYPE svg PUBLIC "-//W3C//DTD SVG 1.1//EN"
 "http://www.w3.org/Graphics/SVG/1.1/DTD/svg11.dtd">
<!-- Generated by graphviz version 2.38.0 (20140413.2041)
 -->
<!-- Title: /home/travis/build/hypro/hypro/src/hypro/datastructures/reachability/timing/EventTimingProvider.h Pages: 1 -->
<svg width="431pt" height="862pt"
 viewBox="0.00 0.00 431.00 862.00" xmlns="http://www.w3.org/2000/svg" xmlns:xlink="http://www.w3.org/1999/xlink">
<g id="graph0" class="graph" transform="scale(1 1) rotate(0) translate(4 858)">
<title>/home/travis/build/hypro/hypro/src/hypro/datastructures/reachability/timing/EventTimingProvider.h</title>
<polygon fill="white" stroke="none" points="-4,4 -4,-858 427,-858 427,4 -4,4"/>
<!-- Node1 -->
<g id="node1" class="node"><title>Node1</title>
<polygon fill="#bfbfbf" stroke="black" points="104,-801.5 104,-853.5 262,-853.5 262,-801.5 104,-801.5"/>
<text text-anchor="start" x="112" y="-841.5" font-family="Helvetica,sans-Serif" font-size="10.00">/home/travis/build</text>
<text text-anchor="start" x="112" y="-830.5" font-family="Helvetica,sans-Serif" font-size="10.00">/hypro/hypro/src/hypro</text>
<text text-anchor="start" x="112" y="-819.5" font-family="Helvetica,sans-Serif" font-size="10.00">/datastructures/reachability</text>
<text text-anchor="middle" x="183" y="-808.5" font-family="Helvetica,sans-Serif" font-size="10.00">/timing/EventTimingProvider.h</text>
</g>
<!-- Node2 -->
<g id="node2" class="node"><title>Node2</title>
<g id="a_node2"><a xlink:href="LTIContext_8h.html" target="_top" xlink:title="/home/travis/build\l/hypro/hypro/src/hypro\l/algorithms/reachability\l/contexts/LTIContext.h">
<polygon fill="white" stroke="black" points="109,-356.5 109,-408.5 237,-408.5 237,-356.5 109,-356.5"/>
<text text-anchor="start" x="117" y="-396.5" font-family="Helvetica,sans-Serif" font-size="10.00">/home/travis/build</text>
<text text-anchor="start" x="117" y="-385.5" font-family="Helvetica,sans-Serif" font-size="10.00">/hypro/hypro/src/hypro</text>
<text text-anchor="start" x="117" y="-374.5" font-family="Helvetica,sans-Serif" font-size="10.00">/algorithms/reachability</text>
<text text-anchor="middle" x="173" y="-363.5" font-family="Helvetica,sans-Serif" font-size="10.00">/contexts/LTIContext.h</text>
</a>
</g>
</g>
<!-- Node1&#45;&gt;Node2 -->
<g id="edge1" class="edge"><title>Node1&#45;&gt;Node2</title>
<path fill="none" stroke="midnightblue" d="M158.701,-792.853C153.228,-784.106 147.894,-774.472 144,-765 124.194,-716.825 119,-702.588 119,-650.5 119,-650.5 119,-650.5 119,-559.5 119,-503.727 144.09,-442.213 160.066,-408.698"/>
<polygon fill="midnightblue" stroke="midnightblue" points="155.786,-794.79 164.173,-801.264 161.654,-790.973 155.786,-794.79"/>
</g>
<!-- Node5 -->
<g id="node5" class="node"><title>Node5</title>
<g id="a_node5"><a xlink:href="example__rectangularReachability_8cpp.html" target="_top" xlink:title="/home/travis/build\l/hypro/hypro/examples\l/example_rectangularReachability.cpp">
<polygon fill="white" stroke="black" points="0,-0.5 0,-41.5 196,-41.5 196,-0.5 0,-0.5"/>
<text text-anchor="start" x="8" y="-29.5" font-family="Helvetica,sans-Serif" font-size="10.00">/home/travis/build</text>
<text text-anchor="start" x="8" y="-18.5" font-family="Helvetica,sans-Serif" font-size="10.00">/hypro/hypro/examples</text>
<text text-anchor="middle" x="98" y="-7.5" font-family="Helvetica,sans-Serif" font-size="10.00">/example_rectangularReachability.cpp</text>
</a>
</g>
</g>
<!-- Node1&#45;&gt;Node5 -->
<g id="edge15" class="edge"><title>Node1&#45;&gt;Node5</title>
<path fill="none" stroke="midnightblue" d="M145.892,-794.354C137.206,-785.497 128.58,-775.435 122,-765 93.1695,-719.278 81,-704.553 81,-650.5 81,-650.5 81,-650.5 81,-203.5 81,-144.318 90.0709,-74.7514 94.9607,-41.5503"/>
<polygon fill="midnightblue" stroke="midnightblue" points="143.572,-796.981 153.158,-801.492 148.477,-791.987 143.572,-796.981"/>
</g>
<!-- Node6 -->
<g id="node6" class="node"><title>Node6</title>
<g id="a_node6"><a xlink:href="example__worker_8cpp.html" target="_top" xlink:title="/home/travis/build\l/hypro/hypro/examples\l/example_worker.cpp">
<polygon fill="white" stroke="black" points="222,-0.5 222,-41.5 348,-41.5 348,-0.5 222,-0.5"/>
<text text-anchor="start" x="230" y="-29.5" font-family="Helvetica,sans-Serif" font-size="10.00">/home/travis/build</text>
<text text-anchor="start" x="230" y="-18.5" font-family="Helvetica,sans-Serif" font-size="10.00">/hypro/hypro/examples</text>
<text text-anchor="middle" x="285" y="-7.5" font-family="Helvetica,sans-Serif" font-size="10.00">/example_worker.cpp</text>
</a>
</g>
</g>
<!-- Node1&#45;&gt;Node6 -->
<g id="edge16" class="edge"><title>Node1&#45;&gt;Node6</title>
<path fill="none" stroke="midnightblue" d="M272.232,-805.527C299.151,-796.213 327.498,-783.124 350,-765 397.002,-727.144 423,-710.852 423,-650.5 423,-650.5 423,-650.5 423,-203.5 423,-132.248 354.775,-71.4636 314.266,-41.6523"/>
<polygon fill="midnightblue" stroke="midnightblue" points="270.783,-802.321 262.393,-808.791 272.986,-808.965 270.783,-802.321"/>
</g>
<!-- Node8 -->
<g id="node8" class="node"><title>Node8</title>
<g id="a_node8"><a xlink:href="timingUtil_8h.html" target="_top" xlink:title="/home/travis/build\l/hypro/hypro/src/hypro\l/algorithms/reachability\l/handlers/jumpHandlers/timingUtil.h">
<polygon fill="white" stroke="black" points="153,-712.5 153,-764.5 341,-764.5 341,-712.5 153,-712.5"/>
<text text-anchor="start" x="161" y="-752.5" font-family="Helvetica,sans-Serif" font-size="10.00">/home/travis/build</text>
<text text-anchor="start" x="161" y="-741.5" font-family="Helvetica,sans-Serif" font-size="10.00">/hypro/hypro/src/hypro</text>
<text text-anchor="start" x="161" y="-730.5" font-family="Helvetica,sans-Serif" font-size="10.00">/algorithms/reachability</text>
<text text-anchor="middle" x="247" y="-719.5" font-family="Helvetica,sans-Serif" font-size="10.00">/handlers/jumpHandlers/timingUtil.h</text>
</a>
</g>
</g>
<!-- Node1&#45;&gt;Node8 -->
<g id="edge8" class="edge"><title>Node1&#45;&gt;Node8</title>
<path fill="none" stroke="midnightblue" d="M207.485,-793.215C214.473,-783.717 221.967,-773.529 228.53,-764.607"/>
<polygon fill="midnightblue" stroke="midnightblue" points="204.618,-791.207 201.511,-801.336 210.256,-795.355 204.618,-791.207"/>
</g>
<!-- Node3 -->
<g id="node3" class="node"><title>Node3</title>
<g id="a_node3"><a xlink:href="ContextFactory_8h.html" target="_top" xlink:title="/home/travis/build\l/hypro/hypro/src/hypro\l/algorithms/reachability\l/contexts/ContextFactory.h">
<polygon fill="white" stroke="black" points="184.5,-178.5 184.5,-230.5 327.5,-230.5 327.5,-178.5 184.5,-178.5"/>
<text text-anchor="start" x="192.5" y="-218.5" font-family="Helvetica,sans-Serif" font-size="10.00">/home/travis/build</text>
<text text-anchor="start" x="192.5" y="-207.5" font-family="Helvetica,sans-Serif" font-size="10.00">/hypro/hypro/src/hypro</text>
<text text-anchor="start" x="192.5" y="-196.5" font-family="Helvetica,sans-Serif" font-size="10.00">/algorithms/reachability</text>
<text text-anchor="middle" x="256" y="-185.5" font-family="Helvetica,sans-Serif" font-size="10.00">/contexts/ContextFactory.h</text>
</a>
</g>
</g>
<!-- Node2&#45;&gt;Node3 -->
<g id="edge2" class="edge"><title>Node2&#45;&gt;Node3</title>
<path fill="none" stroke="midnightblue" d="M170.587,-346.033C170.476,-322.383 173.305,-291.295 186,-267 193.417,-252.806 205.566,-240.393 217.678,-230.506"/>
<polygon fill="midnightblue" stroke="midnightblue" points="167.095,-346.407 170.821,-356.325 174.093,-346.248 167.095,-346.407"/>
</g>
<!-- Node7 -->
<g id="node7" class="node"><title>Node7</title>
<g id="a_node7"><a xlink:href="TimedContext_8h.html" target="_top" xlink:title="/home/travis/build\l/hypro/hypro/src/hypro\l/algorithms/reachability\l/contexts/TimedContext.h">
<polygon fill="white" stroke="black" points="195,-267.5 195,-319.5 335,-319.5 335,-267.5 195,-267.5"/>
<text text-anchor="start" x="203" y="-307.5" font-family="Helvetica,sans-Serif" font-size="10.00">/home/travis/build</text>
<text text-anchor="start" x="203" y="-296.5" font-family="Helvetica,sans-Serif" font-size="10.00">/hypro/hypro/src/hypro</text>
<text text-anchor="start" x="203" y="-285.5" font-family="Helvetica,sans-Serif" font-size="10.00">/algorithms/reachability</text>
<text text-anchor="middle" x="265" y="-274.5" font-family="Helvetica,sans-Serif" font-size="10.00">/contexts/TimedContext.h</text>
</a>
</g>
</g>
<!-- Node2&#45;&gt;Node7 -->
<g id="edge6" class="edge"><title>Node2&#45;&gt;Node7</title>
<path fill="none" stroke="midnightblue" d="M206.984,-349.363C217.369,-339.542 228.634,-328.89 238.45,-319.607"/>
<polygon fill="midnightblue" stroke="midnightblue" points="204.471,-346.922 199.61,-356.336 209.281,-352.008 204.471,-346.922"/>
</g>
<!-- Node4 -->
<g id="node4" class="node"><title>Node4</title>
<g id="a_node4"><a xlink:href="ContextBasedReachabilityWorker_8h.html" target="_top" xlink:title="/home/travis/build\l/hypro/hypro/src/hypro\l/algorithms/reachability\l/workers/ContextBasedReachability\lWorker.h">
<polygon fill="white" stroke="black" points="164.5,-78.5 164.5,-141.5 347.5,-141.5 347.5,-78.5 164.5,-78.5"/>
<text text-anchor="start" x="172.5" y="-129.5" font-family="Helvetica,sans-Serif" font-size="10.00">/home/travis/build</text>
<text text-anchor="start" x="172.5" y="-118.5" font-family="Helvetica,sans-Serif" font-size="10.00">/hypro/hypro/src/hypro</text>
<text text-anchor="start" x="172.5" y="-107.5" font-family="Helvetica,sans-Serif" font-size="10.00">/algorithms/reachability</text>
<text text-anchor="start" x="172.5" y="-96.5" font-family="Helvetica,sans-Serif" font-size="10.00">/workers/ContextBasedReachability</text>
<text text-anchor="middle" x="256" y="-85.5" font-family="Helvetica,sans-Serif" font-size="10.00">Worker.h</text>
</a>
</g>
</g>
<!-- Node3&#45;&gt;Node4 -->
<g id="edge3" class="edge"><title>Node3&#45;&gt;Node4</title>
<path fill="none" stroke="midnightblue" d="M256,-167.945C256,-159.226 256,-149.97 256,-141.512"/>
<polygon fill="midnightblue" stroke="midnightblue" points="252.5,-168.224 256,-178.224 259.5,-168.224 252.5,-168.224"/>
</g>
<!-- Node4&#45;&gt;Node5 -->
<g id="edge4" class="edge"><title>Node4&#45;&gt;Node5</title>
<path fill="none" stroke="midnightblue" d="M191.321,-73.3856C171.559,-62.5042 150.561,-50.9416 133.497,-41.5457"/>
<polygon fill="midnightblue" stroke="midnightblue" points="189.847,-76.5695 200.295,-78.3271 193.224,-70.4376 189.847,-76.5695"/>
</g>
<!-- Node4&#45;&gt;Node6 -->
<g id="edge5" class="edge"><title>Node4&#45;&gt;Node6</title>
<path fill="none" stroke="midnightblue" d="M269.499,-68.5023C272.608,-59.1759 275.778,-49.6645 278.435,-41.6941"/>
<polygon fill="midnightblue" stroke="midnightblue" points="266.148,-67.4884 266.306,-78.0821 272.789,-69.7021 266.148,-67.4884"/>
</g>
<!-- Node7&#45;&gt;Node3 -->
<g id="edge7" class="edge"><title>Node7&#45;&gt;Node3</title>
<path fill="none" stroke="midnightblue" d="M261.347,-257.191C260.426,-248.282 259.455,-238.899 258.597,-230.607"/>
<polygon fill="midnightblue" stroke="midnightblue" points="257.886,-257.749 262.397,-267.336 264.849,-257.029 257.886,-257.749"/>
</g>
<!-- Node9 -->
<g id="node9" class="node"><title>Node9</title>
<g id="a_node9"><a xlink:href="ltiJumpHandler_8h.html" target="_top" xlink:title="/home/travis/build\l/hypro/hypro/src/hypro\l/algorithms/reachability\l/handlers/jumpHandlers/ltiJumpHandler.h">
<polygon fill="white" stroke="black" points="147,-623.5 147,-675.5 359,-675.5 359,-623.5 147,-623.5"/>
<text text-anchor="start" x="155" y="-663.5" font-family="Helvetica,sans-Serif" font-size="10.00">/home/travis/build</text>
<text text-anchor="start" x="155" y="-652.5" font-family="Helvetica,sans-Serif" font-size="10.00">/hypro/hypro/src/hypro</text>
<text text-anchor="start" x="155" y="-641.5" font-family="Helvetica,sans-Serif" font-size="10.00">/algorithms/reachability</text>
<text text-anchor="middle" x="253" y="-630.5" font-family="Helvetica,sans-Serif" font-size="10.00">/handlers/jumpHandlers/ltiJumpHandler.h</text>
</a>
</g>
</g>
<!-- Node8&#45;&gt;Node9 -->
<g id="edge9" class="edge"><title>Node8&#45;&gt;Node9</title>
<path fill="none" stroke="midnightblue" d="M249.435,-702.191C250.049,-693.282 250.697,-683.899 251.268,-675.607"/>
<polygon fill="midnightblue" stroke="midnightblue" points="245.932,-702.119 248.735,-712.336 252.915,-702.601 245.932,-702.119"/>
</g>
<!-- Node10 -->
<g id="node10" class="node"><title>Node10</title>
<g id="a_node10"><a xlink:href="JumpHandlers_8h.html" target="_top" xlink:title="/home/travis/build\l/hypro/hypro/src/hypro\l/algorithms/reachability\l/handlers/jumpHandlers/JumpHandlers.h">
<polygon fill="white" stroke="black" points="185.5,-534.5 185.5,-586.5 394.5,-586.5 394.5,-534.5 185.5,-534.5"/>
<text text-anchor="start" x="193.5" y="-574.5" font-family="Helvetica,sans-Serif" font-size="10.00">/home/travis/build</text>
<text text-anchor="start" x="193.5" y="-563.5" font-family="Helvetica,sans-Serif" font-size="10.00">/hypro/hypro/src/hypro</text>
<text text-anchor="start" x="193.5" y="-552.5" font-family="Helvetica,sans-Serif" font-size="10.00">/algorithms/reachability</text>
<text text-anchor="middle" x="290" y="-541.5" font-family="Helvetica,sans-Serif" font-size="10.00">/handlers/jumpHandlers/JumpHandlers.h</text>
</a>
</g>
</g>
<!-- Node9&#45;&gt;Node10 -->
<g id="edge10" class="edge"><title>Node9&#45;&gt;Node10</title>
<path fill="none" stroke="midnightblue" d="M267.647,-614.061C271.544,-604.896 275.681,-595.169 279.322,-586.607"/>
<polygon fill="midnightblue" stroke="midnightblue" points="264.395,-612.764 263.702,-623.336 270.836,-615.503 264.395,-612.764"/>
</g>
<!-- Node11 -->
<g id="node11" class="node"><title>Node11</title>
<g id="a_node11"><a xlink:href="HandlerFactory_8h.html" target="_top" xlink:title="/home/travis/build\l/hypro/hypro/src/hypro\l/algorithms/reachability\l/handlers/HandlerFactory.h">
<polygon fill="white" stroke="black" points="170.5,-445.5 170.5,-497.5 313.5,-497.5 313.5,-445.5 170.5,-445.5"/>
<text text-anchor="start" x="178.5" y="-485.5" font-family="Helvetica,sans-Serif" font-size="10.00">/home/travis/build</text>
<text text-anchor="start" x="178.5" y="-474.5" font-family="Helvetica,sans-Serif" font-size="10.00">/hypro/hypro/src/hypro</text>
<text text-anchor="start" x="178.5" y="-463.5" font-family="Helvetica,sans-Serif" font-size="10.00">/algorithms/reachability</text>
<text text-anchor="middle" x="242" y="-452.5" font-family="Helvetica,sans-Serif" font-size="10.00">/handlers/HandlerFactory.h</text>
</a>
</g>
</g>
<!-- Node10&#45;&gt;Node11 -->
<g id="edge11" class="edge"><title>Node10&#45;&gt;Node11</title>
<path fill="none" stroke="midnightblue" d="M271.159,-525.35C266.055,-516.1 260.626,-506.259 255.852,-497.607"/>
<polygon fill="midnightblue" stroke="midnightblue" points="268.221,-527.271 276.116,-534.336 274.35,-523.889 268.221,-527.271"/>
</g>
<!-- Node11&#45;&gt;Node2 -->
<g id="edge12" class="edge"><title>Node11&#45;&gt;Node2</title>
<path fill="none" stroke="midnightblue" d="M215.602,-437.215C208.068,-427.717 199.989,-417.529 192.913,-408.607"/>
<polygon fill="midnightblue" stroke="midnightblue" points="213.086,-439.676 222.042,-445.336 218.571,-435.326 213.086,-439.676"/>
</g>
<!-- Node11&#45;&gt;Node7 -->
<g id="edge14" class="edge"><title>Node11&#45;&gt;Node7</title>
<path fill="none" stroke="midnightblue" d="M246.607,-435.249C251.077,-401.038 257.751,-349.969 261.711,-319.67"/>
<polygon fill="midnightblue" stroke="midnightblue" points="243.121,-434.914 245.295,-445.283 250.062,-435.821 243.121,-434.914"/>
</g>
<!-- Node11&#45;&gt;Node9 -->
<g id="edge13" class="edge"><title>Node11&#45;&gt;Node9</title>
<path fill="none" stroke="midnightblue" d="M197.229,-504.581C188.609,-513.085 180.783,-523.004 176,-534 166.603,-555.6 165.788,-565.773 176,-587 182.972,-601.492 195.206,-613.633 207.897,-623.196"/>
<polygon fill="midnightblue" stroke="midnightblue" points="199.628,-507.13 204.608,-497.779 194.883,-501.984 199.628,-507.13"/>
</g>
</g>
</svg>
