<?xml version="1.0" encoding="UTF-8" standalone="no"?>
<!DOCTYPE svg PUBLIC "-//W3C//DTD SVG 1.1//EN"
 "http://www.w3.org/Graphics/SVG/1.1/DTD/svg11.dtd">
<!-- Generated by graphviz version 2.38.0 (20140413.2041)
 -->
<!-- Title: /home/travis/build/hypro/hypro/src/hypro/datastructures/reachability/timing/EventTimingContainer.h Pages: 1 -->
<svg width="1260pt" height="1040pt"
 viewBox="0.00 0.00 1260.35 1040.00" xmlns="http://www.w3.org/2000/svg" xmlns:xlink="http://www.w3.org/1999/xlink">
<g id="graph0" class="graph" transform="scale(1 1) rotate(0) translate(4 1036)">
<title>/home/travis/build/hypro/hypro/src/hypro/datastructures/reachability/timing/EventTimingContainer.h</title>
<polygon fill="white" stroke="none" points="-4,4 -4,-1036 1256.35,-1036 1256.35,4 -4,4"/>
<!-- Node1 -->
<g id="node1" class="node"><title>Node1</title>
<polygon fill="#bfbfbf" stroke="black" points="785,-979.5 785,-1031.5 951,-1031.5 951,-979.5 785,-979.5"/>
<text text-anchor="start" x="793" y="-1019.5" font-family="Helvetica,sans-Serif" font-size="10.00">/home/travis/build</text>
<text text-anchor="start" x="793" y="-1008.5" font-family="Helvetica,sans-Serif" font-size="10.00">/hypro/hypro/src/hypro</text>
<text text-anchor="start" x="793" y="-997.5" font-family="Helvetica,sans-Serif" font-size="10.00">/datastructures/reachability</text>
<text text-anchor="middle" x="868" y="-986.5" font-family="Helvetica,sans-Serif" font-size="10.00">/timing/EventTimingContainer.h</text>
</g>
<!-- Node2 -->
<g id="node2" class="node"><title>Node2</title>
<g id="a_node2"><a xlink:href="ReachTreeNode_8h.html" target="_top" xlink:title="/home/travis/build\l/hypro/hypro/src/hypro\l/datastructures/reachability\l/ReachTreeNode.h">
<polygon fill="white" stroke="black" points="422,-890.5 422,-942.5 570,-942.5 570,-890.5 422,-890.5"/>
<text text-anchor="start" x="430" y="-930.5" font-family="Helvetica,sans-Serif" font-size="10.00">/home/travis/build</text>
<text text-anchor="start" x="430" y="-919.5" font-family="Helvetica,sans-Serif" font-size="10.00">/hypro/hypro/src/hypro</text>
<text text-anchor="start" x="430" y="-908.5" font-family="Helvetica,sans-Serif" font-size="10.00">/datastructures/reachability</text>
<text text-anchor="middle" x="496" y="-897.5" font-family="Helvetica,sans-Serif" font-size="10.00">/ReachTreeNode.h</text>
</a>
</g>
</g>
<!-- Node1&#45;&gt;Node2 -->
<g id="edge1" class="edge"><title>Node1&#45;&gt;Node2</title>
<path fill="none" stroke="midnightblue" d="M774.997,-982.749C711.726,-967.952 629.123,-948.634 570.254,-934.866"/>
<polygon fill="midnightblue" stroke="midnightblue" points="774.445,-986.214 784.979,-985.084 776.039,-979.398 774.445,-986.214"/>
</g>
<!-- Node9 -->
<g id="node9" class="node"><title>Node9</title>
<g id="a_node9"><a xlink:href="LTIContext_8h.html" target="_top" xlink:title="/home/travis/build\l/hypro/hypro/src/hypro\l/algorithms/reachability\l/contexts/LTIContext.h">
<polygon fill="white" stroke="black" points="218,-356.5 218,-408.5 346,-408.5 346,-356.5 218,-356.5"/>
<text text-anchor="start" x="226" y="-396.5" font-family="Helvetica,sans-Serif" font-size="10.00">/home/travis/build</text>
<text text-anchor="start" x="226" y="-385.5" font-family="Helvetica,sans-Serif" font-size="10.00">/hypro/hypro/src/hypro</text>
<text text-anchor="start" x="226" y="-374.5" font-family="Helvetica,sans-Serif" font-size="10.00">/algorithms/reachability</text>
<text text-anchor="middle" x="282" y="-363.5" font-family="Helvetica,sans-Serif" font-size="10.00">/contexts/LTIContext.h</text>
</a>
</g>
</g>
<!-- Node1&#45;&gt;Node9 -->
<g id="edge38" class="edge"><title>Node1&#45;&gt;Node9</title>
<path fill="none" stroke="midnightblue" d="M774.678,-1003.24C565.24,-997.881 76,-970.203 76,-828.5 76,-828.5 76,-828.5 76,-648.5 76,-542.851 205.907,-588.751 260,-498 276.375,-470.528 280.918,-433.351 281.996,-408.914"/>
<polygon fill="midnightblue" stroke="midnightblue" points="774.657,-1006.74 784.739,-1003.48 774.827,-999.74 774.657,-1006.74"/>
</g>
<!-- Node10 -->
<g id="node10" class="node"><title>Node10</title>
<g id="a_node10"><a xlink:href="TimedContext_8h.html" target="_top" xlink:title="/home/travis/build\l/hypro/hypro/src/hypro\l/algorithms/reachability\l/contexts/TimedContext.h">
<polygon fill="white" stroke="black" points="282,-267.5 282,-319.5 422,-319.5 422,-267.5 282,-267.5"/>
<text text-anchor="start" x="290" y="-307.5" font-family="Helvetica,sans-Serif" font-size="10.00">/home/travis/build</text>
<text text-anchor="start" x="290" y="-296.5" font-family="Helvetica,sans-Serif" font-size="10.00">/hypro/hypro/src/hypro</text>
<text text-anchor="start" x="290" y="-285.5" font-family="Helvetica,sans-Serif" font-size="10.00">/algorithms/reachability</text>
<text text-anchor="middle" x="352" y="-274.5" font-family="Helvetica,sans-Serif" font-size="10.00">/contexts/TimedContext.h</text>
</a>
</g>
</g>
<!-- Node1&#45;&gt;Node10 -->
<g id="edge51" class="edge"><title>Node1&#45;&gt;Node10</title>
<path fill="none" stroke="midnightblue" d="M961.291,-994.682C1041.35,-984.779 1149.29,-967.451 1185,-943 1240.98,-904.671 1269.45,-862.59 1241,-801 1087.39,-468.393 604.249,-342.959 422.269,-306.767"/>
<polygon fill="midnightblue" stroke="midnightblue" points="960.684,-991.23 951.18,-995.912 961.529,-998.178 960.684,-991.23"/>
</g>
<!-- Node17 -->
<g id="node17" class="node"><title>Node17</title>
<g id="a_node17"><a xlink:href="ETC__util_8h.html" target="_top" xlink:title="/home/travis/build\l/hypro/hypro/src/hypro\l/datastructures/reachability\l/timing/ETC_util.h">
<polygon fill="white" stroke="black" points="1028,-890.5 1028,-942.5 1176,-942.5 1176,-890.5 1028,-890.5"/>
<text text-anchor="start" x="1036" y="-930.5" font-family="Helvetica,sans-Serif" font-size="10.00">/home/travis/build</text>
<text text-anchor="start" x="1036" y="-919.5" font-family="Helvetica,sans-Serif" font-size="10.00">/hypro/hypro/src/hypro</text>
<text text-anchor="start" x="1036" y="-908.5" font-family="Helvetica,sans-Serif" font-size="10.00">/datastructures/reachability</text>
<text text-anchor="middle" x="1102" y="-897.5" font-family="Helvetica,sans-Serif" font-size="10.00">/timing/ETC_util.h</text>
</a>
</g>
</g>
<!-- Node1&#45;&gt;Node17 -->
<g id="edge35" class="edge"><title>Node1&#45;&gt;Node17</title>
<path fill="none" stroke="midnightblue" d="M938.651,-975.858C967.073,-965.087 999.826,-952.936 1028.53,-942.521"/>
<polygon fill="midnightblue" stroke="midnightblue" points="937.295,-972.629 929.19,-979.453 939.781,-979.172 937.295,-972.629"/>
</g>
<!-- Node19 -->
<g id="node19" class="node"><title>Node19</title>
<g id="a_node19"><a xlink:href="EventTimingProvider_8h.html" target="_top" xlink:title="/home/travis/build\l/hypro/hypro/src/hypro\l/datastructures/reachability\l/timing/EventTimingProvider.h">
<polygon fill="white" stroke="black" points="704,-801.5 704,-853.5 862,-853.5 862,-801.5 704,-801.5"/>
<text text-anchor="start" x="712" y="-841.5" font-family="Helvetica,sans-Serif" font-size="10.00">/home/travis/build</text>
<text text-anchor="start" x="712" y="-830.5" font-family="Helvetica,sans-Serif" font-size="10.00">/hypro/hypro/src/hypro</text>
<text text-anchor="start" x="712" y="-819.5" font-family="Helvetica,sans-Serif" font-size="10.00">/datastructures/reachability</text>
<text text-anchor="middle" x="783" y="-808.5" font-family="Helvetica,sans-Serif" font-size="10.00">/timing/EventTimingProvider.h</text>
</a>
</g>
</g>
<!-- Node1&#45;&gt;Node19 -->
<g id="edge39" class="edge"><title>Node1&#45;&gt;Node19</title>
<path fill="none" stroke="midnightblue" d="M851.401,-970.13C834.879,-935.92 809.915,-884.231 795.156,-853.67"/>
<polygon fill="midnightblue" stroke="midnightblue" points="848.321,-971.801 855.822,-979.283 854.624,-968.757 848.321,-971.801"/>
</g>
<!-- Node20 -->
<g id="node20" class="node"><title>Node20</title>
<g id="a_node20"><a xlink:href="timingUtil_8h.html" target="_top" xlink:title="/home/travis/build\l/hypro/hypro/src/hypro\l/algorithms/reachability\l/handlers/jumpHandlers/timingUtil.h">
<polygon fill="white" stroke="black" points="726,-712.5 726,-764.5 914,-764.5 914,-712.5 726,-712.5"/>
<text text-anchor="start" x="734" y="-752.5" font-family="Helvetica,sans-Serif" font-size="10.00">/home/travis/build</text>
<text text-anchor="start" x="734" y="-741.5" font-family="Helvetica,sans-Serif" font-size="10.00">/hypro/hypro/src/hypro</text>
<text text-anchor="start" x="734" y="-730.5" font-family="Helvetica,sans-Serif" font-size="10.00">/algorithms/reachability</text>
<text text-anchor="middle" x="820" y="-719.5" font-family="Helvetica,sans-Serif" font-size="10.00">/handlers/jumpHandlers/timingUtil.h</text>
</a>
</g>
</g>
<!-- Node1&#45;&gt;Node20 -->
<g id="edge50" class="edge"><title>Node1&#45;&gt;Node20</title>
<path fill="none" stroke="midnightblue" d="M812.668,-974.124C771.714,-948.201 719.033,-906.763 695,-854 685.236,-832.564 682.552,-820.998 695,-801 704.778,-785.292 719.874,-773.481 736.237,-764.639"/>
<polygon fill="midnightblue" stroke="midnightblue" points="810.87,-977.127 821.214,-979.418 814.557,-971.177 810.87,-977.127"/>
</g>
<!-- Node21 -->
<g id="node21" class="node"><title>Node21</title>
<g id="a_node21"><a xlink:href="EventTimingNode_8h.html" target="_top" xlink:title="/home/travis/build\l/hypro/hypro/src/hypro\l/datastructures/reachability\l/timing/EventTimingNode.h">
<polygon fill="white" stroke="black" points="862,-890.5 862,-942.5 1010,-942.5 1010,-890.5 862,-890.5"/>
<text text-anchor="start" x="870" y="-930.5" font-family="Helvetica,sans-Serif" font-size="10.00">/home/travis/build</text>
<text text-anchor="start" x="870" y="-919.5" font-family="Helvetica,sans-Serif" font-size="10.00">/hypro/hypro/src/hypro</text>
<text text-anchor="start" x="870" y="-908.5" font-family="Helvetica,sans-Serif" font-size="10.00">/datastructures/reachability</text>
<text text-anchor="middle" x="936" y="-897.5" font-family="Helvetica,sans-Serif" font-size="10.00">/timing/EventTimingNode.h</text>
</a>
</g>
</g>
<!-- Node1&#45;&gt;Node21 -->
<g id="edge45" class="edge"><title>Node1&#45;&gt;Node21</title>
<path fill="none" stroke="midnightblue" d="M894.016,-971.215C901.44,-961.717 909.402,-951.529 916.376,-942.607"/>
<polygon fill="midnightblue" stroke="midnightblue" points="891.069,-969.302 887.668,-979.336 896.584,-973.612 891.069,-969.302"/>
</g>
<!-- Node3 -->
<g id="node3" class="node"><title>Node3</title>
<g id="a_node3"><a xlink:href="Task_8h.html" target="_top" xlink:title="/home/travis/build\l/hypro/hypro/src/hypro\l/datastructures/reachability\l/Task.h">
<polygon fill="white" stroke="black" points="104,-712.5 104,-764.5 252,-764.5 252,-712.5 104,-712.5"/>
<text text-anchor="start" x="112" y="-752.5" font-family="Helvetica,sans-Serif" font-size="10.00">/home/travis/build</text>
<text text-anchor="start" x="112" y="-741.5" font-family="Helvetica,sans-Serif" font-size="10.00">/hypro/hypro/src/hypro</text>
<text text-anchor="start" x="112" y="-730.5" font-family="Helvetica,sans-Serif" font-size="10.00">/datastructures/reachability</text>
<text text-anchor="middle" x="178" y="-719.5" font-family="Helvetica,sans-Serif" font-size="10.00">/Task.h</text>
</a>
</g>
</g>
<!-- Node2&#45;&gt;Node3 -->
<g id="edge2" class="edge"><title>Node2&#45;&gt;Node3</title>
<path fill="none" stroke="midnightblue" d="M411.676,-910.873C359.907,-904.345 294.629,-889.115 247,-854 216.55,-831.551 196.903,-791.27 186.647,-764.966"/>
<polygon fill="midnightblue" stroke="midnightblue" points="411.501,-914.377 421.84,-912.066 412.317,-907.425 411.501,-914.377"/>
</g>
<!-- Node11 -->
<g id="node11" class="node"><title>Node11</title>
<g id="a_node11"><a xlink:href="ltiJumpHandler_8h.html" target="_top" xlink:title="/home/travis/build\l/hypro/hypro/src/hypro\l/algorithms/reachability\l/handlers/jumpHandlers/ltiJumpHandler.h">
<polygon fill="white" stroke="black" points="523,-623.5 523,-675.5 735,-675.5 735,-623.5 523,-623.5"/>
<text text-anchor="start" x="531" y="-663.5" font-family="Helvetica,sans-Serif" font-size="10.00">/home/travis/build</text>
<text text-anchor="start" x="531" y="-652.5" font-family="Helvetica,sans-Serif" font-size="10.00">/hypro/hypro/src/hypro</text>
<text text-anchor="start" x="531" y="-641.5" font-family="Helvetica,sans-Serif" font-size="10.00">/algorithms/reachability</text>
<text text-anchor="middle" x="629" y="-630.5" font-family="Helvetica,sans-Serif" font-size="10.00">/handlers/jumpHandlers/ltiJumpHandler.h</text>
</a>
</g>
</g>
<!-- Node2&#45;&gt;Node11 -->
<g id="edge32" class="edge"><title>Node2&#45;&gt;Node11</title>
<path fill="none" stroke="midnightblue" d="M496.204,-880.386C498.052,-837.276 506.541,-763.551 541,-712 550.737,-697.434 565.188,-685.273 579.578,-675.715"/>
<polygon fill="midnightblue" stroke="midnightblue" points="492.706,-880.285 495.872,-890.396 499.702,-880.518 492.706,-880.285"/>
</g>
<!-- Node14 -->
<g id="node14" class="node"><title>Node14</title>
<g id="a_node14"><a xlink:href="ReachTree_8h.html" target="_top" xlink:title="/home/travis/build\l/hypro/hypro/src/hypro\l/datastructures/reachability\l/ReachTree.h">
<polygon fill="white" stroke="black" points="256,-801.5 256,-853.5 404,-853.5 404,-801.5 256,-801.5"/>
<text text-anchor="start" x="264" y="-841.5" font-family="Helvetica,sans-Serif" font-size="10.00">/home/travis/build</text>
<text text-anchor="start" x="264" y="-830.5" font-family="Helvetica,sans-Serif" font-size="10.00">/hypro/hypro/src/hypro</text>
<text text-anchor="start" x="264" y="-819.5" font-family="Helvetica,sans-Serif" font-size="10.00">/datastructures/reachability</text>
<text text-anchor="middle" x="330" y="-808.5" font-family="Helvetica,sans-Serif" font-size="10.00">/ReachTree.h</text>
</a>
</g>
</g>
<!-- Node2&#45;&gt;Node14 -->
<g id="edge26" class="edge"><title>Node2&#45;&gt;Node14</title>
<path fill="none" stroke="midnightblue" d="M439.017,-885.635C419.115,-875.205 396.993,-863.611 377.906,-853.607"/>
<polygon fill="midnightblue" stroke="midnightblue" points="437.504,-888.794 447.986,-890.336 440.753,-882.594 437.504,-888.794"/>
</g>
<!-- Node15 -->
<g id="node15" class="node"><title>Node15</title>
<g id="a_node15"><a xlink:href="NodeManager_8h.html" target="_top" xlink:title="/home/travis/build\l/hypro/hypro/src/hypro\l/datastructures/reachability\l/NodeManager.h">
<polygon fill="white" stroke="black" points="346,-712.5 346,-764.5 494,-764.5 494,-712.5 346,-712.5"/>
<text text-anchor="start" x="354" y="-752.5" font-family="Helvetica,sans-Serif" font-size="10.00">/home/travis/build</text>
<text text-anchor="start" x="354" y="-741.5" font-family="Helvetica,sans-Serif" font-size="10.00">/hypro/hypro/src/hypro</text>
<text text-anchor="start" x="354" y="-730.5" font-family="Helvetica,sans-Serif" font-size="10.00">/datastructures/reachability</text>
<text text-anchor="middle" x="420" y="-719.5" font-family="Helvetica,sans-Serif" font-size="10.00">/NodeManager.h</text>
</a>
</g>
</g>
<!-- Node2&#45;&gt;Node15 -->
<g id="edge31" class="edge"><title>Node2&#45;&gt;Node15</title>
<path fill="none" stroke="midnightblue" d="M480.969,-880.69C466.195,-846.478 444.009,-795.1 430.869,-764.67"/>
<polygon fill="midnightblue" stroke="midnightblue" points="477.933,-882.49 485.111,-890.283 484.36,-879.715 477.933,-882.49"/>
</g>
<!-- Node16 -->
<g id="node16" class="node"><title>Node16</title>
<g id="a_node16"><a xlink:href="algorithms_2reachability_2handlers_2jumpHandlers_2util_8h.html" target="_top" xlink:title="/home/travis/build\l/hypro/hypro/src/hypro\l/algorithms/reachability\l/handlers/jumpHandlers/util.h">
<polygon fill="white" stroke="black" points="550.5,-712.5 550.5,-764.5 707.5,-764.5 707.5,-712.5 550.5,-712.5"/>
<text text-anchor="start" x="558.5" y="-752.5" font-family="Helvetica,sans-Serif" font-size="10.00">/home/travis/build</text>
<text text-anchor="start" x="558.5" y="-741.5" font-family="Helvetica,sans-Serif" font-size="10.00">/hypro/hypro/src/hypro</text>
<text text-anchor="start" x="558.5" y="-730.5" font-family="Helvetica,sans-Serif" font-size="10.00">/algorithms/reachability</text>
<text text-anchor="middle" x="629" y="-719.5" font-family="Helvetica,sans-Serif" font-size="10.00">/handlers/jumpHandlers/util.h</text>
</a>
</g>
</g>
<!-- Node2&#45;&gt;Node16 -->
<g id="edge33" class="edge"><title>Node2&#45;&gt;Node16</title>
<path fill="none" stroke="midnightblue" d="M521.313,-882.003C547.156,-847.805 586.688,-795.492 609.98,-764.67"/>
<polygon fill="midnightblue" stroke="midnightblue" points="518.292,-880.195 515.056,-890.283 523.877,-884.415 518.292,-880.195"/>
</g>
<!-- Node4 -->
<g id="node4" class="node"><title>Node4</title>
<g id="a_node4"><a xlink:href="ContextFactory_8h.html" target="_top" xlink:title="/home/travis/build\l/hypro/hypro/src/hypro\l/algorithms/reachability\l/contexts/ContextFactory.h">
<polygon fill="white" stroke="black" points="133.5,-178.5 133.5,-230.5 276.5,-230.5 276.5,-178.5 133.5,-178.5"/>
<text text-anchor="start" x="141.5" y="-218.5" font-family="Helvetica,sans-Serif" font-size="10.00">/home/travis/build</text>
<text text-anchor="start" x="141.5" y="-207.5" font-family="Helvetica,sans-Serif" font-size="10.00">/hypro/hypro/src/hypro</text>
<text text-anchor="start" x="141.5" y="-196.5" font-family="Helvetica,sans-Serif" font-size="10.00">/algorithms/reachability</text>
<text text-anchor="middle" x="205" y="-185.5" font-family="Helvetica,sans-Serif" font-size="10.00">/contexts/ContextFactory.h</text>
</a>
</g>
</g>
<!-- Node3&#45;&gt;Node4 -->
<g id="edge3" class="edge"><title>Node3&#45;&gt;Node4</title>
<path fill="none" stroke="midnightblue" d="M161.358,-702.968C137.12,-648.406 96.7783,-538.812 114,-445 128.978,-363.408 170.43,-273.587 191.832,-230.831"/>
<polygon fill="midnightblue" stroke="midnightblue" points="158.218,-704.521 165.533,-712.186 164.595,-701.632 158.218,-704.521"/>
</g>
<!-- Node5 -->
<g id="node5" class="node"><title>Node5</title>
<g id="a_node5"><a xlink:href="ContextBasedReachabilityWorker_8h.html" target="_top" xlink:title="/home/travis/build\l/hypro/hypro/src/hypro\l/algorithms/reachability\l/workers/ContextBasedReachability\lWorker.h">
<polygon fill="white" stroke="black" points="113.5,-78.5 113.5,-141.5 296.5,-141.5 296.5,-78.5 113.5,-78.5"/>
<text text-anchor="start" x="121.5" y="-129.5" font-family="Helvetica,sans-Serif" font-size="10.00">/home/travis/build</text>
<text text-anchor="start" x="121.5" y="-118.5" font-family="Helvetica,sans-Serif" font-size="10.00">/hypro/hypro/src/hypro</text>
<text text-anchor="start" x="121.5" y="-107.5" font-family="Helvetica,sans-Serif" font-size="10.00">/algorithms/reachability</text>
<text text-anchor="start" x="121.5" y="-96.5" font-family="Helvetica,sans-Serif" font-size="10.00">/workers/ContextBasedReachability</text>
<text text-anchor="middle" x="205" y="-85.5" font-family="Helvetica,sans-Serif" font-size="10.00">Worker.h</text>
</a>
</g>
</g>
<!-- Node3&#45;&gt;Node5 -->
<g id="edge23" class="edge"><title>Node3&#45;&gt;Node5</title>
<path fill="none" stroke="midnightblue" d="M131.152,-706.219C90.4577,-674.909 38,-622.683 38,-561.5 38,-561.5 38,-561.5 38,-292.5 38,-225.488 100.412,-172.578 148.927,-141.572"/>
<polygon fill="midnightblue" stroke="midnightblue" points="129.274,-709.186 139.374,-712.389 133.476,-703.587 129.274,-709.186"/>
</g>
<!-- Node6 -->
<g id="node6" class="node"><title>Node6</title>
<g id="a_node6"><a xlink:href="example__rectangularReachability_8cpp.html" target="_top" xlink:title="/home/travis/build\l/hypro/hypro/examples\l/example_rectangularReachability.cpp">
<polygon fill="white" stroke="black" points="609,-0.5 609,-41.5 805,-41.5 805,-0.5 609,-0.5"/>
<text text-anchor="start" x="617" y="-29.5" font-family="Helvetica,sans-Serif" font-size="10.00">/home/travis/build</text>
<text text-anchor="start" x="617" y="-18.5" font-family="Helvetica,sans-Serif" font-size="10.00">/hypro/hypro/examples</text>
<text text-anchor="middle" x="707" y="-7.5" font-family="Helvetica,sans-Serif" font-size="10.00">/example_rectangularReachability.cpp</text>
</a>
</g>
</g>
<!-- Node3&#45;&gt;Node6 -->
<g id="edge24" class="edge"><title>Node3&#45;&gt;Node6</title>
<path fill="none" stroke="midnightblue" d="M234.329,-706.937C248.154,-697.999 262.323,-687.503 274,-676 489.848,-463.379 657.582,-126.318 697.785,-41.7437"/>
<polygon fill="midnightblue" stroke="midnightblue" points="232.4,-704.015 225.79,-712.295 236.121,-709.944 232.4,-704.015"/>
</g>
<!-- Node7 -->
<g id="node7" class="node"><title>Node7</title>
<g id="a_node7"><a xlink:href="example__worker_8cpp.html" target="_top" xlink:title="/home/travis/build\l/hypro/hypro/examples\l/example_worker.cpp">
<polygon fill="white" stroke="black" points="275,-0.5 275,-41.5 401,-41.5 401,-0.5 275,-0.5"/>
<text text-anchor="start" x="283" y="-29.5" font-family="Helvetica,sans-Serif" font-size="10.00">/home/travis/build</text>
<text text-anchor="start" x="283" y="-18.5" font-family="Helvetica,sans-Serif" font-size="10.00">/hypro/hypro/examples</text>
<text text-anchor="middle" x="338" y="-7.5" font-family="Helvetica,sans-Serif" font-size="10.00">/example_worker.cpp</text>
</a>
</g>
</g>
<!-- Node3&#45;&gt;Node7 -->
<g id="edge25" class="edge"><title>Node3&#45;&gt;Node7</title>
<path fill="none" stroke="midnightblue" d="M96.4283,-707.965C80.3118,-699.45 64.5297,-688.883 52,-676 13.0318,-635.934 0,-617.391 0,-561.5 0,-561.5 0,-561.5 0,-203.5 0,-80.113 176.992,-40.2583 274.821,-27.6534"/>
<polygon fill="midnightblue" stroke="midnightblue" points="94.8928,-711.111 105.398,-712.487 98.0438,-704.86 94.8928,-711.111"/>
</g>
<!-- Node8 -->
<g id="node8" class="node"><title>Node8</title>
<g id="a_node8"><a xlink:href="IWorker_8h.html" target="_top" xlink:title="/home/travis/build\l/hypro/hypro/src/hypro\l/algorithms/reachability\l/workers/IWorker.h">
<polygon fill="white" stroke="black" points="123,-445.5 123,-497.5 251,-497.5 251,-445.5 123,-445.5"/>
<text text-anchor="start" x="131" y="-485.5" font-family="Helvetica,sans-Serif" font-size="10.00">/home/travis/build</text>
<text text-anchor="start" x="131" y="-474.5" font-family="Helvetica,sans-Serif" font-size="10.00">/hypro/hypro/src/hypro</text>
<text text-anchor="start" x="131" y="-463.5" font-family="Helvetica,sans-Serif" font-size="10.00">/algorithms/reachability</text>
<text text-anchor="middle" x="187" y="-452.5" font-family="Helvetica,sans-Serif" font-size="10.00">/workers/IWorker.h</text>
</a>
</g>
</g>
<!-- Node3&#45;&gt;Node8 -->
<g id="edge7" class="edge"><title>Node3&#45;&gt;Node8</title>
<path fill="none" stroke="midnightblue" d="M179.209,-701.893C181.055,-647.555 184.529,-545.26 186.14,-497.832"/>
<polygon fill="midnightblue" stroke="midnightblue" points="175.704,-701.978 178.863,-712.091 182.7,-702.215 175.704,-701.978"/>
</g>
<!-- Node3&#45;&gt;Node9 -->
<g id="edge15" class="edge"><title>Node3&#45;&gt;Node9</title>
<path fill="none" stroke="midnightblue" d="M200.349,-703.62C228.454,-658.786 275.185,-576.26 293,-498 299.871,-467.819 294.389,-432.21 288.994,-408.811"/>
<polygon fill="midnightblue" stroke="midnightblue" points="197.222,-702.016 194.821,-712.336 203.133,-705.765 197.222,-702.016"/>
</g>
<!-- Node3&#45;&gt;Node10 -->
<g id="edge22" class="edge"><title>Node3&#45;&gt;Node10</title>
<path fill="none" stroke="midnightblue" d="M217.846,-705.614C227.492,-696.693 237.245,-686.535 245,-676 282.016,-625.714 354.54,-411.496 355,-409 360.593,-378.689 358.313,-343.108 355.644,-319.75"/>
<polygon fill="midnightblue" stroke="midnightblue" points="215.287,-703.207 210.174,-712.487 219.958,-708.421 215.287,-703.207"/>
</g>
<!-- Node3&#45;&gt;Node11 -->
<g id="edge16" class="edge"><title>Node3&#45;&gt;Node11</title>
<path fill="none" stroke="midnightblue" d="M262.38,-721.223C336.002,-707.021 443.18,-686.346 522.654,-671.015"/>
<polygon fill="midnightblue" stroke="midnightblue" points="261.377,-717.852 252.221,-723.182 262.703,-724.725 261.377,-717.852"/>
</g>
<!-- Node4&#45;&gt;Node5 -->
<g id="edge4" class="edge"><title>Node4&#45;&gt;Node5</title>
<path fill="none" stroke="midnightblue" d="M205,-167.945C205,-159.226 205,-149.97 205,-141.512"/>
<polygon fill="midnightblue" stroke="midnightblue" points="201.5,-168.224 205,-178.224 208.5,-168.224 201.5,-168.224"/>
</g>
<!-- Node5&#45;&gt;Node6 -->
<g id="edge5" class="edge"><title>Node5&#45;&gt;Node6</title>
<path fill="none" stroke="midnightblue" d="M306.807,-91.3562C395.032,-76.0662 521.859,-54.0862 608.962,-38.9907"/>
<polygon fill="midnightblue" stroke="midnightblue" points="306.038,-87.9372 296.783,-93.0935 307.233,-94.8344 306.038,-87.9372"/>
</g>
<!-- Node5&#45;&gt;Node7 -->
<g id="edge6" class="edge"><title>Node5&#45;&gt;Node7</title>
<path fill="none" stroke="midnightblue" d="M260.345,-72.7968C276.716,-62.0882 294.015,-50.7723 308.12,-41.5457"/>
<polygon fill="midnightblue" stroke="midnightblue" points="258.343,-69.9238 251.891,-78.3271 262.175,-75.7818 258.343,-69.9238"/>
</g>
<!-- Node8&#45;&gt;Node4 -->
<g id="edge8" class="edge"><title>Node8&#45;&gt;Node4</title>
<path fill="none" stroke="midnightblue" d="M185.657,-435.259C185.384,-426.669 185.138,-417.505 185,-409 184.617,-385.448 183.445,-379.504 185,-356 187.932,-311.683 195.669,-260.504 200.615,-230.696"/>
<polygon fill="midnightblue" stroke="midnightblue" points="182.163,-435.494 185.998,-445.37 189.159,-435.258 182.163,-435.494"/>
</g>
<!-- Node8&#45;&gt;Node5 -->
<g id="edge14" class="edge"><title>Node8&#45;&gt;Node5</title>
<path fill="none" stroke="midnightblue" d="M166.286,-436.585C134.835,-380.388 82.8282,-265.487 124,-178 130.683,-163.799 142.017,-151.578 154.123,-141.61"/>
<polygon fill="midnightblue" stroke="midnightblue" points="163.329,-438.463 171.328,-445.41 169.407,-434.991 163.329,-438.463"/>
</g>
<!-- Node8&#45;&gt;Node9 -->
<g id="edge9" class="edge"><title>Node8&#45;&gt;Node9</title>
<path fill="none" stroke="midnightblue" d="M222.092,-438.363C232.816,-428.542 244.448,-417.89 254.584,-408.607"/>
<polygon fill="midnightblue" stroke="midnightblue" points="219.489,-436.001 214.478,-445.336 224.217,-441.163 219.489,-436.001"/>
</g>
<!-- Node8&#45;&gt;Node10 -->
<g id="edge13" class="edge"><title>Node8&#45;&gt;Node10</title>
<path fill="none" stroke="midnightblue" d="M185.504,-435.341C186.266,-410.661 191.131,-378.223 209,-356 227.205,-333.36 255.336,-318.889 281.848,-309.719"/>
<polygon fill="midnightblue" stroke="midnightblue" points="182.004,-435.357 185.403,-445.392 189.004,-435.427 182.004,-435.357"/>
</g>
<!-- Node9&#45;&gt;Node4 -->
<g id="edge10" class="edge"><title>Node9&#45;&gt;Node4</title>
<path fill="none" stroke="midnightblue" d="M266.771,-346.69C251.803,-312.478 229.325,-261.1 216.012,-230.67"/>
<polygon fill="midnightblue" stroke="midnightblue" points="263.753,-348.525 270.968,-356.283 270.166,-345.719 263.753,-348.525"/>
</g>
<!-- Node9&#45;&gt;Node10 -->
<g id="edge11" class="edge"><title>Node9&#45;&gt;Node10</title>
<path fill="none" stroke="midnightblue" d="M308.549,-348.503C316.258,-338.923 324.547,-328.62 331.799,-319.607"/>
<polygon fill="midnightblue" stroke="midnightblue" points="305.789,-346.351 302.247,-356.336 311.243,-350.739 305.789,-346.351"/>
</g>
<!-- Node10&#45;&gt;Node4 -->
<g id="edge12" class="edge"><title>Node10&#45;&gt;Node4</title>
<path fill="none" stroke="midnightblue" d="M300.585,-262.07C283.21,-251.788 264.021,-240.431 247.423,-230.607"/>
<polygon fill="midnightblue" stroke="midnightblue" points="299.093,-265.255 309.482,-267.336 302.658,-259.231 299.093,-265.255"/>
</g>
<!-- Node12 -->
<g id="node12" class="node"><title>Node12</title>
<g id="a_node12"><a xlink:href="JumpHandlers_8h.html" target="_top" xlink:title="/home/travis/build\l/hypro/hypro/src/hypro\l/algorithms/reachability\l/handlers/jumpHandlers/JumpHandlers.h">
<polygon fill="white" stroke="black" points="542.5,-534.5 542.5,-586.5 751.5,-586.5 751.5,-534.5 542.5,-534.5"/>
<text text-anchor="start" x="550.5" y="-574.5" font-family="Helvetica,sans-Serif" font-size="10.00">/home/travis/build</text>
<text text-anchor="start" x="550.5" y="-563.5" font-family="Helvetica,sans-Serif" font-size="10.00">/hypro/hypro/src/hypro</text>
<text text-anchor="start" x="550.5" y="-552.5" font-family="Helvetica,sans-Serif" font-size="10.00">/algorithms/reachability</text>
<text text-anchor="middle" x="647" y="-541.5" font-family="Helvetica,sans-Serif" font-size="10.00">/handlers/jumpHandlers/JumpHandlers.h</text>
</a>
</g>
</g>
<!-- Node11&#45;&gt;Node12 -->
<g id="edge17" class="edge"><title>Node11&#45;&gt;Node12</title>
<path fill="none" stroke="midnightblue" d="M636.245,-613.481C638.106,-604.487 640.071,-594.989 641.805,-586.607"/>
<polygon fill="midnightblue" stroke="midnightblue" points="632.805,-612.834 634.206,-623.336 639.66,-614.253 632.805,-612.834"/>
</g>
<!-- Node13 -->
<g id="node13" class="node"><title>Node13</title>
<g id="a_node13"><a xlink:href="HandlerFactory_8h.html" target="_top" xlink:title="/home/travis/build\l/hypro/hypro/src/hypro\l/algorithms/reachability\l/handlers/HandlerFactory.h">
<polygon fill="white" stroke="black" points="575.5,-445.5 575.5,-497.5 718.5,-497.5 718.5,-445.5 575.5,-445.5"/>
<text text-anchor="start" x="583.5" y="-485.5" font-family="Helvetica,sans-Serif" font-size="10.00">/home/travis/build</text>
<text text-anchor="start" x="583.5" y="-474.5" font-family="Helvetica,sans-Serif" font-size="10.00">/hypro/hypro/src/hypro</text>
<text text-anchor="start" x="583.5" y="-463.5" font-family="Helvetica,sans-Serif" font-size="10.00">/algorithms/reachability</text>
<text text-anchor="middle" x="647" y="-452.5" font-family="Helvetica,sans-Serif" font-size="10.00">/handlers/HandlerFactory.h</text>
</a>
</g>
</g>
<!-- Node12&#45;&gt;Node13 -->
<g id="edge18" class="edge"><title>Node12&#45;&gt;Node13</title>
<path fill="none" stroke="midnightblue" d="M647,-524.191C647,-515.282 647,-505.899 647,-497.607"/>
<polygon fill="midnightblue" stroke="midnightblue" points="643.5,-524.336 647,-534.336 650.5,-524.336 643.5,-524.336"/>
</g>
<!-- Node13&#45;&gt;Node9 -->
<g id="edge19" class="edge"><title>Node13&#45;&gt;Node9</title>
<path fill="none" stroke="midnightblue" d="M565.342,-451.036C499.154,-435.26 407.173,-413.336 346.181,-398.798"/>
<polygon fill="midnightblue" stroke="midnightblue" points="564.784,-454.501 575.323,-453.415 566.407,-447.692 564.784,-454.501"/>
</g>
<!-- Node13&#45;&gt;Node10 -->
<g id="edge21" class="edge"><title>Node13&#45;&gt;Node10</title>
<path fill="none" stroke="midnightblue" d="M596.198,-440.191C539.149,-406.155 447.595,-351.533 394.286,-319.728"/>
<polygon fill="midnightblue" stroke="midnightblue" points="594.666,-443.353 605.047,-445.47 598.252,-437.341 594.666,-443.353"/>
</g>
<!-- Node13&#45;&gt;Node11 -->
<g id="edge20" class="edge"><title>Node13&#45;&gt;Node11</title>
<path fill="none" stroke="midnightblue" d="M727.248,-501.831C740.321,-510.206 752.138,-520.769 760,-534 772.034,-554.25 772.631,-567.117 760,-587 749.963,-602.799 734.674,-614.612 718.039,-623.419"/>
<polygon fill="midnightblue" stroke="midnightblue" points="728.89,-498.736 718.505,-496.639 725.316,-504.755 728.89,-498.736"/>
</g>
<!-- Node14&#45;&gt;Node6 -->
<g id="edge29" class="edge"><title>Node14&#45;&gt;Node6</title>
<path fill="none" stroke="midnightblue" d="M326.47,-791.234C325.485,-767.916 326.817,-737.13 337,-712 344.339,-693.889 550.33,-456.676 566,-445 697.86,-346.746 904,-458.941 904,-294.5 904,-294.5 904,-294.5 904,-203.5 904,-123.164 814.294,-68.6021 755.95,-41.6113"/>
<polygon fill="midnightblue" stroke="midnightblue" points="322.985,-791.596 327.062,-801.375 329.974,-791.188 322.985,-791.596"/>
</g>
<!-- Node14&#45;&gt;Node7 -->
<g id="edge30" class="edge"><title>Node14&#45;&gt;Node7</title>
<path fill="none" stroke="midnightblue" d="M312.577,-791.827C303.382,-768.902 295.583,-738.334 304,-712 324.763,-647.039 367.7,-650.332 393,-587 446.131,-453.998 456.837,-407.872 431,-267 414.913,-179.291 368.944,-82.2718 348.28,-41.6122"/>
<polygon fill="midnightblue" stroke="midnightblue" points="309.413,-793.329 316.56,-801.149 315.85,-790.578 309.413,-793.329"/>
</g>
<!-- Node14&#45;&gt;Node15 -->
<g id="edge27" class="edge"><title>Node14&#45;&gt;Node15</title>
<path fill="none" stroke="midnightblue" d="M363.245,-794.363C373.405,-784.542 384.424,-773.89 394.027,-764.607"/>
<polygon fill="midnightblue" stroke="midnightblue" points="360.789,-791.869 356.032,-801.336 365.654,-796.902 360.789,-791.869"/>
</g>
<!-- Node15&#45;&gt;Node11 -->
<g id="edge28" class="edge"><title>Node15&#45;&gt;Node11</title>
<path fill="none" stroke="midnightblue" d="M489.483,-708.576C515.188,-697.876 544.089,-685.846 568.892,-675.521"/>
<polygon fill="midnightblue" stroke="midnightblue" points="488.058,-705.378 480.171,-712.453 490.748,-711.841 488.058,-705.378"/>
</g>
<!-- Node16&#45;&gt;Node11 -->
<g id="edge34" class="edge"><title>Node16&#45;&gt;Node11</title>
<path fill="none" stroke="midnightblue" d="M629,-702.191C629,-693.282 629,-683.899 629,-675.607"/>
<polygon fill="midnightblue" stroke="midnightblue" points="625.5,-702.336 629,-712.336 632.5,-702.336 625.5,-702.336"/>
</g>
<!-- Node17&#45;&gt;Node1 -->
<g id="edge36" class="edge"><title>Node17&#45;&gt;Node1</title>
<path fill="none" stroke="midnightblue" d="M1031.42,-946.115C1003.01,-956.883 970.253,-969.035 941.547,-979.453"/>
<polygon fill="midnightblue" stroke="midnightblue" points="1032.77,-949.345 1040.88,-942.521 1030.29,-942.802 1032.77,-949.345"/>
</g>
<!-- Node18 -->
<g id="node18" class="node"><title>Node18</title>
<g id="a_node18"><a xlink:href="ETC__util_8cpp.html" target="_top" xlink:title="/home/travis/build\l/hypro/hypro/src/hypro\l/datastructures/reachability\l/timing/ETC_util.cpp">
<polygon fill="white" stroke="black" points="1084,-801.5 1084,-853.5 1232,-853.5 1232,-801.5 1084,-801.5"/>
<text text-anchor="start" x="1092" y="-841.5" font-family="Helvetica,sans-Serif" font-size="10.00">/home/travis/build</text>
<text text-anchor="start" x="1092" y="-830.5" font-family="Helvetica,sans-Serif" font-size="10.00">/hypro/hypro/src/hypro</text>
<text text-anchor="start" x="1092" y="-819.5" font-family="Helvetica,sans-Serif" font-size="10.00">/datastructures/reachability</text>
<text text-anchor="middle" x="1158" y="-808.5" font-family="Helvetica,sans-Serif" font-size="10.00">/timing/ETC_util.cpp</text>
</a>
</g>
</g>
<!-- Node17&#45;&gt;Node18 -->
<g id="edge37" class="edge"><title>Node17&#45;&gt;Node18</title>
<path fill="none" stroke="midnightblue" d="M1123.61,-881.927C1129.67,-872.511 1136.15,-862.439 1141.84,-853.607"/>
<polygon fill="midnightblue" stroke="midnightblue" points="1120.67,-880.033 1118.2,-890.336 1126.55,-883.822 1120.67,-880.033"/>
</g>
<!-- Node19&#45;&gt;Node6 -->
<g id="edge43" class="edge"><title>Node19&#45;&gt;Node6</title>
<path fill="none" stroke="midnightblue" d="M871.914,-800.72C929.44,-784.019 993.714,-765.309 994,-765 1029.32,-726.846 1018,-702.495 1018,-650.5 1018,-650.5 1018,-650.5 1018,-203.5 1018,-103.476 896.516,-57.5833 805.402,-37.2299"/>
<polygon fill="midnightblue" stroke="midnightblue" points="870.64,-797.446 862.012,-803.594 872.591,-804.168 870.64,-797.446"/>
</g>
<!-- Node19&#45;&gt;Node7 -->
<g id="edge44" class="edge"><title>Node19&#45;&gt;Node7</title>
<path fill="none" stroke="midnightblue" d="M868.805,-797.965C903.736,-785.495 937.125,-772.113 942,-765 993.133,-690.397 942,-651.944 942,-561.5 942,-561.5 942,-561.5 942,-292.5 942,-174.946 556.1,-72.4935 401.213,-36.1067"/>
<polygon fill="midnightblue" stroke="midnightblue" points="867.197,-794.821 858.934,-801.452 869.529,-801.421 867.197,-794.821"/>
</g>
<!-- Node19&#45;&gt;Node9 -->
<g id="edge40" class="edge"><title>Node19&#45;&gt;Node9</title>
<path fill="none" stroke="midnightblue" d="M869.045,-797.579C893.713,-787.453 915.889,-775.89 923,-765 935.878,-745.277 935.406,-732.024 923,-712 827.134,-557.273 698.817,-662.071 533,-587 436.155,-543.155 345.151,-452.714 304.407,-408.686"/>
<polygon fill="midnightblue" stroke="midnightblue" points="867.489,-794.431 859.495,-801.385 870.08,-800.934 867.489,-794.431"/>
</g>
<!-- Node19&#45;&gt;Node20 -->
<g id="edge41" class="edge"><title>Node19&#45;&gt;Node20</title>
<path fill="none" stroke="midnightblue" d="M797.647,-792.061C801.544,-782.896 805.681,-773.169 809.322,-764.607"/>
<polygon fill="midnightblue" stroke="midnightblue" points="794.395,-790.764 793.702,-801.336 800.836,-793.503 794.395,-790.764"/>
</g>
<!-- Node20&#45;&gt;Node11 -->
<g id="edge42" class="edge"><title>Node20&#45;&gt;Node11</title>
<path fill="none" stroke="midnightblue" d="M755.882,-708.295C732.547,-697.665 706.399,-685.755 683.931,-675.521"/>
<polygon fill="midnightblue" stroke="midnightblue" points="754.46,-711.493 765.011,-712.453 757.362,-705.122 754.46,-711.493"/>
</g>
<!-- Node21&#45;&gt;Node13 -->
<g id="edge49" class="edge"><title>Node21&#45;&gt;Node13</title>
<path fill="none" stroke="midnightblue" d="M1007.94,-884.692C1019.59,-876.451 1030.08,-866.314 1037,-854 1048.54,-833.464 1045.5,-822.968 1037,-801 1019.58,-755.97 850.865,-584.454 779,-534 758.722,-519.764 734.626,-507.414 712.606,-497.594"/>
<polygon fill="midnightblue" stroke="midnightblue" points="1005.73,-881.953 999.285,-890.362 1009.57,-887.808 1005.73,-881.953"/>
</g>
<!-- Node21&#45;&gt;Node19 -->
<g id="edge46" class="edge"><title>Node21&#45;&gt;Node19</title>
<path fill="none" stroke="midnightblue" d="M882.983,-885.353C864.769,-874.996 844.588,-863.521 827.154,-853.607"/>
<polygon fill="midnightblue" stroke="midnightblue" points="881.323,-888.435 891.746,-890.336 884.783,-882.35 881.323,-888.435"/>
</g>
<!-- Node22 -->
<g id="node22" class="node"><title>Node22</title>
<g id="a_node22"><a xlink:href="ETN__util_8h.html" target="_top" xlink:title="/home/travis/build\l/hypro/hypro/src/hypro\l/datastructures/reachability\l/timing/ETN_util.h">
<polygon fill="white" stroke="black" points="880,-801.5 880,-853.5 1028,-853.5 1028,-801.5 880,-801.5"/>
<text text-anchor="start" x="888" y="-841.5" font-family="Helvetica,sans-Serif" font-size="10.00">/home/travis/build</text>
<text text-anchor="start" x="888" y="-830.5" font-family="Helvetica,sans-Serif" font-size="10.00">/hypro/hypro/src/hypro</text>
<text text-anchor="start" x="888" y="-819.5" font-family="Helvetica,sans-Serif" font-size="10.00">/datastructures/reachability</text>
<text text-anchor="middle" x="954" y="-808.5" font-family="Helvetica,sans-Serif" font-size="10.00">/timing/ETN_util.h</text>
</a>
</g>
</g>
<!-- Node21&#45;&gt;Node22 -->
<g id="edge47" class="edge"><title>Node21&#45;&gt;Node22</title>
<path fill="none" stroke="midnightblue" d="M936.663,-880.191C938.27,-871.282 940.364,-861.899 942.623,-853.607"/>
<polygon fill="midnightblue" stroke="midnightblue" points="933.164,-879.905 935.02,-890.336 940.074,-881.024 933.164,-879.905"/>
</g>
<!-- Node22&#45;&gt;Node21 -->
<g id="edge48" class="edge"><title>Node22&#45;&gt;Node21</title>
<path fill="none" stroke="midnightblue" d="M953.348,-863.749C951.744,-872.655 949.65,-882.04 947.392,-890.336"/>
<polygon fill="midnightblue" stroke="midnightblue" points="956.847,-864.038 954.988,-853.607 949.936,-862.921 956.847,-864.038"/>
</g>
</g>
</svg>
