<?xml version="1.0" encoding="UTF-8" standalone="no"?>
<!DOCTYPE svg PUBLIC "-//W3C//DTD SVG 1.1//EN"
 "http://www.w3.org/Graphics/SVG/1.1/DTD/svg11.dtd">
<!-- Generated by graphviz version 2.38.0 (20140413.2041)
 -->
<!-- Title: /home/travis/build/hypro/hypro/examples/example_logger.cpp Pages: 1 -->
<svg width="781pt" height="162pt"
 viewBox="0.00 0.00 780.50 162.00" xmlns="http://www.w3.org/2000/svg" xmlns:xlink="http://www.w3.org/1999/xlink">
<g id="graph0" class="graph" transform="scale(1 1) rotate(0) translate(4 158)">
<title>/home/travis/build/hypro/hypro/examples/example_logger.cpp</title>
<polygon fill="white" stroke="none" points="-4,4 -4,-158 776.5,-158 776.5,4 -4,4"/>
<!-- Node1 -->
<g id="node1" class="node"><title>Node1</title>
<polygon fill="#bfbfbf" stroke="black" points="299,-112.5 299,-153.5 425,-153.5 425,-112.5 299,-112.5"/>
<text text-anchor="start" x="307" y="-141.5" font-family="Helvetica,sans-Serif" font-size="10.00">/home/travis/build</text>
<text text-anchor="start" x="307" y="-130.5" font-family="Helvetica,sans-Serif" font-size="10.00">/hypro/hypro/examples</text>
<text text-anchor="middle" x="362" y="-119.5" font-family="Helvetica,sans-Serif" font-size="10.00">/example_logger.cpp</text>
</g>
<!-- Node2 -->
<g id="node2" class="node"><title>Node2</title>
<g id="a_node2"><a xlink:href="Logger_8h.html" target="_top" xlink:title="util/logging/Logger.h">
<polygon fill="white" stroke="black" points="305.5,-56.5 305.5,-75.5 418.5,-75.5 418.5,-56.5 305.5,-56.5"/>
<text text-anchor="middle" x="362" y="-63.5" font-family="Helvetica,sans-Serif" font-size="10.00">util/logging/Logger.h</text>
</a>
</g>
</g>
<!-- Node1&#45;&gt;Node2 -->
<g id="edge1" class="edge"><title>Node1&#45;&gt;Node2</title>
<path fill="none" stroke="midnightblue" d="M362,-112.498C362,-104.065 362,-94.2351 362,-85.874"/>
<polygon fill="midnightblue" stroke="midnightblue" points="365.5,-85.6525 362,-75.6525 358.5,-85.6525 365.5,-85.6525"/>
</g>
<!-- Node3 -->
<g id="node3" class="node"><title>Node3</title>
<g id="a_node3"><a xlink:href="flags_8h.html" target="_top" xlink:title="../../flags.h">
<polygon fill="white" stroke="black" points="0,-0.5 0,-19.5 66,-19.5 66,-0.5 0,-0.5"/>
<text text-anchor="middle" x="33" y="-7.5" font-family="Helvetica,sans-Serif" font-size="10.00">../../flags.h</text>
</a>
</g>
</g>
<!-- Node2&#45;&gt;Node3 -->
<g id="edge2" class="edge"><title>Node2&#45;&gt;Node3</title>
<path fill="none" stroke="midnightblue" d="M305.479,-57.0846C249.635,-49.0504 161.553,-35.8072 76.2815,-20.1599"/>
<polygon fill="midnightblue" stroke="midnightblue" points="76.9067,-16.7162 66.4371,-18.3402 75.6343,-23.5996 76.9067,-16.7162"/>
</g>
<!-- Node4 -->
<g id="node4" class="node"><title>Node4</title>
<polygon fill="white" stroke="#bfbfbf" points="84,-0.5 84,-19.5 238,-19.5 238,-0.5 84,-0.5"/>
<text text-anchor="middle" x="161" y="-7.5" font-family="Helvetica,sans-Serif" font-size="10.00">carl/io/streamingOperators.h</text>
</g>
<!-- Node2&#45;&gt;Node4 -->
<g id="edge3" class="edge"><title>Node2&#45;&gt;Node4</title>
<path fill="none" stroke="midnightblue" d="M330.151,-56.4435C295.602,-47.1616 240.318,-32.3093 202.417,-22.127"/>
<polygon fill="midnightblue" stroke="midnightblue" points="203.266,-18.7309 192.7,-19.5164 201.449,-25.4912 203.266,-18.7309"/>
</g>
<!-- Node5 -->
<g id="node5" class="node"><title>Node5</title>
<polygon fill="white" stroke="#bfbfbf" points="256.5,-0.5 256.5,-19.5 315.5,-19.5 315.5,-0.5 256.5,-0.5"/>
<text text-anchor="middle" x="286" y="-7.5" font-family="Helvetica,sans-Serif" font-size="10.00">iostream</text>
</g>
<!-- Node2&#45;&gt;Node5 -->
<g id="edge4" class="edge"><title>Node2&#45;&gt;Node5</title>
<path fill="none" stroke="midnightblue" d="M349.789,-56.324C338.224,-48.1066 320.625,-35.6017 306.839,-25.8069"/>
<polygon fill="midnightblue" stroke="midnightblue" points="308.612,-22.7729 298.433,-19.8339 304.557,-28.4791 308.612,-22.7729"/>
</g>
<!-- Node6 -->
<g id="node6" class="node"><title>Node6</title>
<polygon fill="white" stroke="#bfbfbf" points="334,-0.5 334,-19.5 390,-19.5 390,-0.5 334,-0.5"/>
<text text-anchor="middle" x="362" y="-7.5" font-family="Helvetica,sans-Serif" font-size="10.00">sstream</text>
</g>
<!-- Node2&#45;&gt;Node6 -->
<g id="edge5" class="edge"><title>Node2&#45;&gt;Node6</title>
<path fill="none" stroke="midnightblue" d="M362,-56.083C362,-49.0059 362,-38.8611 362,-29.9865"/>
<polygon fill="midnightblue" stroke="midnightblue" points="365.5,-29.751 362,-19.7511 358.5,-29.7511 365.5,-29.751"/>
</g>
<!-- Node7 -->
<g id="node7" class="node"><title>Node7</title>
<polygon fill="white" stroke="#bfbfbf" points="408,-0.5 408,-19.5 456,-19.5 456,-0.5 408,-0.5"/>
<text text-anchor="middle" x="432" y="-7.5" font-family="Helvetica,sans-Serif" font-size="10.00">thread</text>
</g>
<!-- Node2&#45;&gt;Node7 -->
<g id="edge6" class="edge"><title>Node2&#45;&gt;Node7</title>
<path fill="none" stroke="midnightblue" d="M373.247,-56.324C383.797,-48.1849 399.801,-35.8395 412.442,-26.0874"/>
<polygon fill="midnightblue" stroke="midnightblue" points="414.769,-28.7132 420.549,-19.8339 410.493,-23.1707 414.769,-28.7132"/>
</g>
<!-- Node8 -->
<g id="node8" class="node"><title>Node8</title>
<polygon fill="white" stroke="#bfbfbf" points="474.5,-0.5 474.5,-19.5 599.5,-19.5 599.5,-0.5 474.5,-0.5"/>
<text text-anchor="middle" x="537" y="-7.5" font-family="Helvetica,sans-Serif" font-size="10.00">carl/core/carlLogging.h</text>
</g>
<!-- Node2&#45;&gt;Node8 -->
<g id="edge7" class="edge"><title>Node2&#45;&gt;Node8</title>
<path fill="none" stroke="midnightblue" d="M389.729,-56.4435C419.426,-47.2801 466.716,-32.6876 499.669,-22.5192"/>
<polygon fill="midnightblue" stroke="midnightblue" points="500.877,-25.8094 509.4,-19.5164 498.813,-19.1206 500.877,-25.8094"/>
</g>
<!-- Node9 -->
<g id="node9" class="node"><title>Node9</title>
<polygon fill="white" stroke="#bfbfbf" points="617.5,-0.5 617.5,-19.5 772.5,-19.5 772.5,-0.5 617.5,-0.5"/>
<text text-anchor="middle" x="695" y="-7.5" font-family="Helvetica,sans-Serif" font-size="10.00">carl/core/carlLoggingHelper.h</text>
</g>
<!-- Node2&#45;&gt;Node9 -->
<g id="edge8" class="edge"><title>Node2&#45;&gt;Node9</title>
<path fill="none" stroke="midnightblue" d="M414.765,-56.4435C473.83,-46.8654 569.474,-31.3556 632.306,-21.1667"/>
<polygon fill="midnightblue" stroke="midnightblue" points="633.171,-24.5721 642.482,-19.5164 632.051,-17.6624 633.171,-24.5721"/>
</g>
</g>
</svg>
