<?xml version="1.0" encoding="UTF-8" standalone="no"?>
<!DOCTYPE svg PUBLIC "-//W3C//DTD SVG 1.1//EN"
 "http://www.w3.org/Graphics/SVG/1.1/DTD/svg11.dtd">
<!-- Generated by graphviz version 2.38.0 (20140413.2041)
 -->
<!-- Title: /home/travis/build/hypro/hypro/src/hypro/datastructures/Facet.h Pages: 1 -->
<!--zoomable 486 -->
<svg id="main" version="1.1" xmlns="http://www.w3.org/2000/svg" xmlns:xlink="http://www.w3.org/1999/xlink" xml:space="preserve" onload="init(evt)">
<style type="text/css"><![CDATA[
.edge:hover path { stroke: red; }
.edge:hover polygon { stroke: red; fill: red; }
]]></style>
<script type="text/javascript"><![CDATA[
var edges = document.getElementsByTagName('g');
if (edges && edges.length) {
  for (var i=0;i<edges.length;i++) {
    if (edges[i].id.substr(0,4)=='edge') {
      edges[i].setAttribute('class','edge');
    }
  }
}
]]></script>
        <defs>
                <circle id="rim" cx="0" cy="0" r="7"/>
                <circle id="rim2" cx="0" cy="0" r="3.5"/>
                <g id="zoomPlus">
                        <use xlink:href="#rim" fill="#404040">
                                <set attributeName="fill" to="#808080" begin="zoomplus.mouseover" end="zoomplus.mouseout"/>
                        </use>
                        <path d="M-4,0h8M0,-4v8" fill="none" stroke="white" stroke-width="1.5" pointer-events="none"/>
                </g>
                <g id="zoomMin">
                        <use xlink:href="#rim" fill="#404040">
                                <set attributeName="fill" to="#808080" begin="zoomminus.mouseover" end="zoomminus.mouseout"/>
                        </use>
                        <path d="M-4,0h8" fill="none" stroke="white" stroke-width="1.5" pointer-events="none"/>
                </g>
                <g id="dirArrow">
                        <path fill="none" stroke="white" stroke-width="1.5" d="M0,-3.0v7 M-2.5,-0.5L0,-3.0L2.5,-0.5"/>
                </g>
               <g id="resetDef">
                       <use xlink:href="#rim2" fill="#404040">
                               <set attributeName="fill" to="#808080" begin="reset.mouseover" end="reset.mouseout"/>
                       </use>
               </g>
        </defs>

<script type="text/javascript">
var viewWidth = 1882;
var viewHeight = 486;
var sectionId = 'dynsection-0';
</script>
<script xlink:href="svgpan.js"/>
<svg id="graph" class="graph">
<g id="viewport">
<title>/home/travis/build/hypro/hypro/src/hypro/datastructures/Facet.h</title>
<polygon fill="white" stroke="none" points="-4,4 -4,-482 1877.96,-482 1877.96,4 -4,4"/>
<!-- Node1 -->
<g id="node1" class="node"><title>Node1</title>
<polygon fill="#bfbfbf" stroke="black" points="544.964,-436.5 544.964,-477.5 672.964,-477.5 672.964,-436.5 544.964,-436.5"/>
<text text-anchor="start" x="552.964" y="-465.5" font-family="Helvetica,sans-Serif" font-size="10.00">/home/travis/build</text>
<text text-anchor="start" x="552.964" y="-454.5" font-family="Helvetica,sans-Serif" font-size="10.00">/hypro/hypro/src/hypro</text>
<text text-anchor="middle" x="608.964" y="-443.5" font-family="Helvetica,sans-Serif" font-size="10.00">/datastructures/Facet.h</text>
</g>
<!-- Node2 -->
<g id="node2" class="node"><title>Node2</title>
<g id="a_node2"><a xlink:href="types_8h.html" target="_top" xlink:title="../types.h">
<polygon fill="white" stroke="black" points="323.464,-257.5 323.464,-276.5 384.464,-276.5 384.464,-257.5 323.464,-257.5"/>
<text text-anchor="middle" x="353.964" y="-264.5" font-family="Helvetica,sans-Serif" font-size="10.00">../types.h</text>
</a>
</g>
</g>
<!-- Node1&#45;&gt;Node2 -->
<g id="edge1" class="edge"><title>Node1&#45;&gt;Node2</title>
<path fill="none" stroke="midnightblue" d="M582.157,-436.236C530.728,-398.32 419.291,-316.163 373.855,-282.665"/>
<polygon fill="midnightblue" stroke="midnightblue" points="375.811,-279.759 365.686,-276.642 371.658,-285.393 375.811,-279.759"/>
</g>
<!-- Node28 -->
<g id="node28" class="node"><title>Node28</title>
<g id="a_node28"><a xlink:href="Halfspace_8h.html" target="_top" xlink:title="Halfspace.h">
<polygon fill="white" stroke="black" points="817.464,-380.5 817.464,-399.5 890.464,-399.5 890.464,-380.5 817.464,-380.5"/>
<text text-anchor="middle" x="853.964" y="-387.5" font-family="Helvetica,sans-Serif" font-size="10.00">Halfspace.h</text>
</a>
</g>
</g>
<!-- Node1&#45;&gt;Node28 -->
<g id="edge35" class="edge"><title>Node1&#45;&gt;Node28</title>
<path fill="none" stroke="midnightblue" d="M673.015,-439.007C716.876,-427.37 773.793,-412.27 811.977,-402.139"/>
<polygon fill="midnightblue" stroke="midnightblue" points="812.974,-405.496 821.743,-399.549 811.179,-398.73 812.974,-405.496"/>
</g>
<!-- Node3 -->
<g id="node3" class="node"><title>Node3</title>
<polygon fill="white" stroke="#bfbfbf" points="194.964,-123.5 194.964,-142.5 328.964,-142.5 328.964,-123.5 194.964,-123.5"/>
<text text-anchor="middle" x="261.964" y="-130.5" font-family="Helvetica,sans-Serif" font-size="10.00">carl/numbers/numbers.h</text>
</g>
<!-- Node2&#45;&gt;Node3 -->
<g id="edge2" class="edge"><title>Node2&#45;&gt;Node3</title>
<path fill="none" stroke="midnightblue" d="M323.136,-262.623C277.545,-256.922 195.615,-243.731 177.964,-221 155.931,-192.625 200.879,-163.314 233.112,-146.995"/>
<polygon fill="midnightblue" stroke="midnightblue" points="234.757,-150.086 242.209,-142.555 231.687,-143.796 234.757,-150.086"/>
</g>
<!-- Node4 -->
<g id="node4" class="node"><title>Node4</title>
<polygon fill="white" stroke="#bfbfbf" points="186.964,-196 186.964,-215 272.964,-215 272.964,-196 186.964,-196"/>
<text text-anchor="middle" x="229.964" y="-203" font-family="Helvetica,sans-Serif" font-size="10.00">carl/util/hash.h</text>
</g>
<!-- Node2&#45;&gt;Node4 -->
<g id="edge3" class="edge"><title>Node2&#45;&gt;Node4</title>
<path fill="none" stroke="midnightblue" d="M336.198,-257.475C315.48,-247.534 281.012,-230.995 256.975,-219.461"/>
<polygon fill="midnightblue" stroke="midnightblue" points="258.228,-216.18 247.698,-215.009 255.199,-222.491 258.228,-216.18"/>
</g>
<!-- Node5 -->
<g id="node5" class="node"><title>Node5</title>
<polygon fill="white" stroke="#bfbfbf" points="290.964,-196 290.964,-215 394.964,-215 394.964,-196 290.964,-196"/>
<text text-anchor="middle" x="342.964" y="-203" font-family="Helvetica,sans-Serif" font-size="10.00">eigen3/Eigen/Core</text>
</g>
<!-- Node2&#45;&gt;Node5 -->
<g id="edge4" class="edge"><title>Node2&#45;&gt;Node5</title>
<path fill="none" stroke="midnightblue" d="M352.388,-257.475C350.836,-249.08 348.415,-235.981 346.415,-225.163"/>
<polygon fill="midnightblue" stroke="midnightblue" points="349.797,-224.206 344.537,-215.009 342.914,-225.479 349.797,-224.206"/>
</g>
<!-- Node6 -->
<g id="node6" class="node"><title>Node6</title>
<polygon fill="white" stroke="#bfbfbf" points="64.9643,-123.5 64.9643,-142.5 176.964,-142.5 176.964,-123.5 64.9643,-123.5"/>
<text text-anchor="middle" x="120.964" y="-130.5" font-family="Helvetica,sans-Serif" font-size="10.00">eigen3/Eigen/Dense</text>
</g>
<!-- Node2&#45;&gt;Node6 -->
<g id="edge5" class="edge"><title>Node2&#45;&gt;Node6</title>
<path fill="none" stroke="midnightblue" d="M323.246,-265.857C283.703,-264.164 214.66,-255.927 168.964,-221 146.299,-203.676 132.886,-172.428 126.23,-152.476"/>
<polygon fill="midnightblue" stroke="midnightblue" points="129.509,-151.233 123.212,-142.713 122.822,-153.301 129.509,-151.233"/>
</g>
<!-- Node7 -->
<g id="node7" class="node"><title>Node7</title>
<polygon fill="white" stroke="#bfbfbf" points="333.964,-0.5 333.964,-19.5 379.964,-19.5 379.964,-0.5 333.964,-0.5"/>
<text text-anchor="middle" x="356.964" y="-7.5" font-family="Helvetica,sans-Serif" font-size="10.00">iosfwd</text>
</g>
<!-- Node2&#45;&gt;Node7 -->
<g id="edge6" class="edge"><title>Node2&#45;&gt;Node7</title>
<path fill="none" stroke="midnightblue" d="M323.358,-266.699C248.959,-267.676 61.8731,-265.556 22.9643,-221 -8.90034,-184.51 -5.91097,-150.898 22.9643,-112 59.4335,-62.8718 246.303,-28.3897 323.517,-16.0283"/>
<polygon fill="midnightblue" stroke="midnightblue" points="324.324,-19.4445 333.658,-14.4317 323.235,-12.5297 324.324,-19.4445"/>
</g>
<!-- Node8 -->
<g id="node8" class="node"><title>Node8</title>
<polygon fill="white" stroke="#bfbfbf" points="818.964,-0.5 818.964,-19.5 850.964,-19.5 850.964,-0.5 818.964,-0.5"/>
<text text-anchor="middle" x="834.964" y="-7.5" font-family="Helvetica,sans-Serif" font-size="10.00">set</text>
</g>
<!-- Node2&#45;&gt;Node8 -->
<g id="edge7" class="edge"><title>Node2&#45;&gt;Node8</title>
<path fill="none" stroke="midnightblue" d="M323.358,-262.135C232.316,-249.492 -25.5301,-204.743 55.9643,-112 106.97,-53.9543 678.248,-19.5231 808.596,-12.3899"/>
<polygon fill="midnightblue" stroke="midnightblue" points="809.049,-15.8706 818.845,-11.8358 808.671,-8.88079 809.049,-15.8706"/>
</g>
<!-- Node9 -->
<g id="node9" class="node"><title>Node9</title>
<g id="a_node9"><a xlink:href="adaptions__eigen_8h.html" target="_top" xlink:title="util/adaptions_eigen\l/adaptions_eigen.h">
<polygon fill="white" stroke="black" points="512.464,-190.5 512.464,-220.5 625.464,-220.5 625.464,-190.5 512.464,-190.5"/>
<text text-anchor="start" x="520.464" y="-208.5" font-family="Helvetica,sans-Serif" font-size="10.00">util/adaptions_eigen</text>
<text text-anchor="middle" x="568.964" y="-197.5" font-family="Helvetica,sans-Serif" font-size="10.00">/adaptions_eigen.h</text>
</a>
</g>
</g>
<!-- Node2&#45;&gt;Node9 -->
<g id="edge8" class="edge"><title>Node2&#45;&gt;Node9</title>
<path fill="none" stroke="midnightblue" d="M379.868,-257.475C410.17,-248.551 461.222,-234.309 502.69,-223.144"/>
<polygon fill="midnightblue" stroke="midnightblue" points="503.711,-226.494 512.463,-220.523 501.898,-219.733 503.711,-226.494"/>
</g>
<!-- Node9&#45;&gt;Node2 -->
<g id="edge26" class="edge"><title>Node9&#45;&gt;Node2</title>
<path fill="none" stroke="midnightblue" d="M524.199,-220.501C485.916,-231.49 431.433,-246.506 394.428,-256.229"/>
<polygon fill="midnightblue" stroke="midnightblue" points="393.276,-252.912 384.483,-258.823 395.042,-259.686 393.276,-252.912"/>
</g>
<!-- Node9&#45;&gt;Node3 -->
<g id="edge28" class="edge"><title>Node9&#45;&gt;Node3</title>
<path fill="none" stroke="midnightblue" d="M512.229,-192.188C466.473,-182.171 400.495,-167.528 342.964,-154 330.847,-151.151 317.737,-147.96 305.667,-144.979"/>
<polygon fill="midnightblue" stroke="midnightblue" points="306.365,-141.547 295.817,-142.537 304.68,-148.341 306.365,-141.547"/>
</g>
<!-- Node9&#45;&gt;Node6 -->
<g id="edge29" class="edge"><title>Node9&#45;&gt;Node6</title>
<path fill="none" stroke="midnightblue" d="M512.317,-200.018C437.116,-193.389 300.473,-178.982 185.964,-154 175.862,-151.796 165.064,-148.759 155.23,-145.718"/>
<polygon fill="midnightblue" stroke="midnightblue" points="155.99,-142.286 145.399,-142.581 153.862,-148.955 155.99,-142.286"/>
</g>
<!-- Node9&#45;&gt;Node7 -->
<g id="edge32" class="edge"><title>Node9&#45;&gt;Node7</title>
<path fill="none" stroke="midnightblue" d="M512.412,-198.058C480.051,-191.698 440.701,-179.069 413.964,-154 377.833,-120.122 364.143,-60.3528 359.337,-29.9333"/>
<polygon fill="midnightblue" stroke="midnightblue" points="362.773,-29.2355 357.902,-19.8269 355.843,-30.2196 362.773,-29.2355"/>
</g>
<!-- Node10 -->
<g id="node10" class="node"><title>Node10</title>
<g id="a_node10"><a xlink:href="config_8h.html" target="_top" xlink:title="../../config.h">
<polygon fill="white" stroke="black" points="1088.96,-123.5 1088.96,-142.5 1160.96,-142.5 1160.96,-123.5 1088.96,-123.5"/>
<text text-anchor="middle" x="1124.96" y="-130.5" font-family="Helvetica,sans-Serif" font-size="10.00">../../config.h</text>
</a>
</g>
</g>
<!-- Node9&#45;&gt;Node10 -->
<g id="edge9" class="edge"><title>Node9&#45;&gt;Node10</title>
<path fill="none" stroke="midnightblue" d="M625.672,-198.04C705.946,-188.803 857.282,-171.047 985.964,-154 1016.93,-149.897 1051.72,-144.891 1078.75,-140.914"/>
<polygon fill="midnightblue" stroke="midnightblue" points="1079.32,-144.367 1088.7,-139.444 1078.3,-137.443 1079.32,-144.367"/>
</g>
<!-- Node23 -->
<g id="node23" class="node"><title>Node23</title>
<g id="a_node23"><a xlink:href="transformation_8h.html" target="_top" xlink:title="transformation.h">
<polygon fill="white" stroke="black" points="581.464,-123.5 581.464,-142.5 678.464,-142.5 678.464,-123.5 581.464,-123.5"/>
<text text-anchor="middle" x="629.964" y="-130.5" font-family="Helvetica,sans-Serif" font-size="10.00">transformation.h</text>
</a>
</g>
</g>
<!-- Node9&#45;&gt;Node23 -->
<g id="edge27" class="edge"><title>Node9&#45;&gt;Node23</title>
<path fill="none" stroke="midnightblue" d="M581.309,-190.233C591.265,-178.726 605.28,-162.528 615.713,-150.471"/>
<polygon fill="midnightblue" stroke="midnightblue" points="618.373,-152.745 622.27,-142.893 613.08,-148.165 618.373,-152.745"/>
</g>
<!-- Node24 -->
<g id="node24" class="node"><title>Node24</title>
<polygon fill="white" stroke="#bfbfbf" points="696.964,-123.5 696.964,-142.5 834.964,-142.5 834.964,-123.5 696.964,-123.5"/>
<text text-anchor="middle" x="765.964" y="-130.5" font-family="Helvetica,sans-Serif" font-size="10.00">eigen3/Eigen/Eigenvalues</text>
</g>
<!-- Node9&#45;&gt;Node24 -->
<g id="edge30" class="edge"><title>Node9&#45;&gt;Node24</title>
<path fill="none" stroke="midnightblue" d="M608.357,-190.403C644.739,-177.383 698.193,-158.253 732.54,-145.961"/>
<polygon fill="midnightblue" stroke="midnightblue" points="733.883,-149.198 742.119,-142.534 731.524,-142.608 733.883,-149.198"/>
</g>
<!-- Node25 -->
<g id="node25" class="node"><title>Node25</title>
<polygon fill="white" stroke="#bfbfbf" points="853.464,-123.5 853.464,-142.5 916.464,-142.5 916.464,-123.5 853.464,-123.5"/>
<text text-anchor="middle" x="884.964" y="-130.5" font-family="Helvetica,sans-Serif" font-size="10.00">functional</text>
</g>
<!-- Node9&#45;&gt;Node25 -->
<g id="edge31" class="edge"><title>Node9&#45;&gt;Node25</title>
<path fill="none" stroke="midnightblue" d="M625.645,-198.661C682.042,-191.796 770.531,-178.15 843.964,-154 849.513,-152.175 855.267,-149.742 860.648,-147.202"/>
<polygon fill="midnightblue" stroke="midnightblue" points="862.426,-150.226 869.806,-142.624 859.296,-143.965 862.426,-150.226"/>
</g>
<!-- Node26 -->
<g id="node26" class="node"><title>Node26</title>
<polygon fill="white" stroke="#bfbfbf" points="934.964,-123.5 934.964,-142.5 976.964,-142.5 976.964,-123.5 934.964,-123.5"/>
<text text-anchor="middle" x="955.964" y="-130.5" font-family="Helvetica,sans-Serif" font-size="10.00">limits</text>
</g>
<!-- Node9&#45;&gt;Node26 -->
<g id="edge33" class="edge"><title>Node9&#45;&gt;Node26</title>
<path fill="none" stroke="midnightblue" d="M625.678,-203.896C697.506,-201.474 824.07,-191.625 924.964,-154 928.903,-152.531 932.859,-150.501 936.565,-148.294"/>
<polygon fill="midnightblue" stroke="midnightblue" points="938.687,-151.088 945.11,-142.663 934.835,-145.243 938.687,-151.088"/>
</g>
<!-- Node27 -->
<g id="node27" class="node"><title>Node27</title>
<polygon fill="white" stroke="#bfbfbf" points="422.964,-112.5 422.964,-153.5 562.964,-153.5 562.964,-112.5 422.964,-112.5"/>
<text text-anchor="start" x="430.964" y="-141.5" font-family="Helvetica,sans-Serif" font-size="10.00">eigen3/unsupported</text>
<text text-anchor="start" x="430.964" y="-130.5" font-family="Helvetica,sans-Serif" font-size="10.00">/Eigen/src/MatrixFunctions</text>
<text text-anchor="middle" x="492.964" y="-119.5" font-family="Helvetica,sans-Serif" font-size="10.00">/MatrixExponential.h</text>
</g>
<!-- Node9&#45;&gt;Node27 -->
<g id="edge34" class="edge"><title>Node9&#45;&gt;Node27</title>
<path fill="none" stroke="midnightblue" d="M553.585,-190.233C544.44,-181.751 532.548,-170.719 521.721,-160.676"/>
<polygon fill="midnightblue" stroke="midnightblue" points="523.793,-157.823 514.081,-153.588 519.032,-162.955 523.793,-157.823"/>
</g>
<!-- Node11 -->
<g id="node11" class="node"><title>Node11</title>
<g id="a_node11"><a xlink:href="flags_8h.html" target="_top" xlink:title="flags.h">
<polygon fill="white" stroke="black" points="1824.96,-0.5 1824.96,-19.5 1872.96,-19.5 1872.96,-0.5 1824.96,-0.5"/>
<text text-anchor="middle" x="1848.96" y="-7.5" font-family="Helvetica,sans-Serif" font-size="10.00">flags.h</text>
</a>
</g>
</g>
<!-- Node10&#45;&gt;Node11 -->
<g id="edge10" class="edge"><title>Node10&#45;&gt;Node11</title>
<path fill="none" stroke="midnightblue" d="M1161.17,-132.492C1250.95,-132.83 1490.34,-128.318 1680.96,-76 1701.29,-70.4214 1704.47,-64.0222 1723.96,-56 1754.47,-43.4451 1789.9,-30.8737 1815.24,-22.2224"/>
<polygon fill="midnightblue" stroke="midnightblue" points="1816.41,-25.5201 1824.76,-18.9937 1814.16,-18.891 1816.41,-25.5201"/>
</g>
<!-- Node12 -->
<g id="node12" class="node"><title>Node12</title>
<g id="a_node12"><a xlink:href="util_2convenienceOperators_8h.html" target="_top" xlink:title="util/convenienceOperators.h">
<polygon fill="white" stroke="black" points="863.464,-56.5 863.464,-75.5 1014.46,-75.5 1014.46,-56.5 863.464,-56.5"/>
<text text-anchor="middle" x="938.964" y="-63.5" font-family="Helvetica,sans-Serif" font-size="10.00">util/convenienceOperators.h</text>
</a>
</g>
</g>
<!-- Node10&#45;&gt;Node12 -->
<g id="edge11" class="edge"><title>Node10&#45;&gt;Node12</title>
<path fill="none" stroke="midnightblue" d="M1100.26,-123.369C1067.66,-111.973 1010.08,-91.8528 973.265,-78.9869"/>
<polygon fill="midnightblue" stroke="midnightblue" points="974.064,-75.5587 963.47,-75.5637 971.755,-82.1668 974.064,-75.5587"/>
</g>
<!-- Node16 -->
<g id="node16" class="node"><title>Node16</title>
<g id="a_node16"><a xlink:href="Logger_8h.html" target="_top" xlink:title="util/logging/Logger.h">
<polygon fill="white" stroke="black" points="1558.46,-56.5 1558.46,-75.5 1671.46,-75.5 1671.46,-56.5 1558.46,-56.5"/>
<text text-anchor="middle" x="1614.96" y="-63.5" font-family="Helvetica,sans-Serif" font-size="10.00">util/logging/Logger.h</text>
</a>
</g>
</g>
<!-- Node10&#45;&gt;Node16 -->
<g id="edge18" class="edge"><title>Node10&#45;&gt;Node16</title>
<path fill="none" stroke="midnightblue" d="M1161,-127.22C1242.7,-116.382 1443.1,-89.7989 1548.18,-75.8589"/>
<polygon fill="midnightblue" stroke="midnightblue" points="1548.9,-79.2941 1558.36,-74.5094 1547.98,-72.3549 1548.9,-79.2941"/>
</g>
<!-- Node12&#45;&gt;Node2 -->
<g id="edge12" class="edge"><title>Node12&#45;&gt;Node2</title>
<path fill="none" stroke="midnightblue" d="M863.31,-68.2153C725.577,-71.1837 445.147,-81.0033 413.964,-112 379.462,-146.296 425.768,-177.512 403.964,-221 397.831,-233.234 386.835,-243.697 376.714,-251.447"/>
<polygon fill="midnightblue" stroke="midnightblue" points="374.636,-248.63 368.544,-257.298 378.712,-254.321 374.636,-248.63"/>
</g>
<!-- Node12&#45;&gt;Node7 -->
<g id="edge13" class="edge"><title>Node12&#45;&gt;Node7</title>
<path fill="none" stroke="midnightblue" d="M863.177,-57.9681C735.104,-46.0852 480.939,-22.5029 390.155,-14.0796"/>
<polygon fill="midnightblue" stroke="midnightblue" points="390.439,-10.5909 380.158,-13.152 389.792,-17.561 390.439,-10.5909"/>
</g>
<!-- Node12&#45;&gt;Node8 -->
<g id="edge15" class="edge"><title>Node12&#45;&gt;Node8</title>
<path fill="none" stroke="midnightblue" d="M922.255,-56.324C905.554,-47.6524 879.658,-34.2062 860.403,-24.2087"/>
<polygon fill="midnightblue" stroke="midnightblue" points="861.777,-20.9784 851.289,-19.4765 858.551,-27.1909 861.777,-20.9784"/>
</g>
<!-- Node13 -->
<g id="node13" class="node"><title>Node13</title>
<polygon fill="white" stroke="#bfbfbf" points="1061.96,-0.5 1061.96,-19.5 1099.96,-19.5 1099.96,-0.5 1061.96,-0.5"/>
<text text-anchor="middle" x="1080.96" y="-7.5" font-family="Helvetica,sans-Serif" font-size="10.00">map</text>
</g>
<!-- Node12&#45;&gt;Node13 -->
<g id="edge14" class="edge"><title>Node12&#45;&gt;Node13</title>
<path fill="none" stroke="midnightblue" d="M961.465,-56.4435C986.013,-47.1084 1025.38,-32.1388 1052.16,-21.9523"/>
<polygon fill="midnightblue" stroke="midnightblue" points="1053.65,-25.1302 1061.76,-18.3042 1051.17,-18.5873 1053.65,-25.1302"/>
</g>
<!-- Node14 -->
<g id="node14" class="node"><title>Node14</title>
<polygon fill="white" stroke="#bfbfbf" points="917.964,-0.5 917.964,-19.5 959.964,-19.5 959.964,-0.5 917.964,-0.5"/>
<text text-anchor="middle" x="938.964" y="-7.5" font-family="Helvetica,sans-Serif" font-size="10.00">utility</text>
</g>
<!-- Node12&#45;&gt;Node14 -->
<g id="edge16" class="edge"><title>Node12&#45;&gt;Node14</title>
<path fill="none" stroke="midnightblue" d="M938.964,-56.083C938.964,-49.0059 938.964,-38.8611 938.964,-29.9865"/>
<polygon fill="midnightblue" stroke="midnightblue" points="942.464,-29.751 938.964,-19.7511 935.464,-29.7511 942.464,-29.751"/>
</g>
<!-- Node15 -->
<g id="node15" class="node"><title>Node15</title>
<polygon fill="white" stroke="#bfbfbf" points="996.464,-0.5 996.464,-19.5 1043.46,-19.5 1043.46,-0.5 996.464,-0.5"/>
<text text-anchor="middle" x="1019.96" y="-7.5" font-family="Helvetica,sans-Serif" font-size="10.00">vector</text>
</g>
<!-- Node12&#45;&gt;Node15 -->
<g id="edge17" class="edge"><title>Node12&#45;&gt;Node15</title>
<path fill="none" stroke="midnightblue" d="M951.978,-56.324C964.496,-47.979 983.646,-35.2122 998.436,-25.3524"/>
<polygon fill="midnightblue" stroke="midnightblue" points="1000.6,-28.1137 1006.98,-19.6545 996.721,-22.2894 1000.6,-28.1137"/>
</g>
<!-- Node16&#45;&gt;Node11 -->
<g id="edge19" class="edge"><title>Node16&#45;&gt;Node11</title>
<path fill="none" stroke="midnightblue" d="M1655.52,-56.4941C1694.14,-48.2656 1754.13,-35.1546 1815.06,-20.1405"/>
<polygon fill="midnightblue" stroke="midnightblue" points="1815.98,-23.5182 1824.85,-17.7149 1814.3,-16.7239 1815.98,-23.5182"/>
</g>
<!-- Node17 -->
<g id="node17" class="node"><title>Node17</title>
<polygon fill="white" stroke="#bfbfbf" points="1500.96,-0.5 1500.96,-19.5 1654.96,-19.5 1654.96,-0.5 1500.96,-0.5"/>
<text text-anchor="middle" x="1577.96" y="-7.5" font-family="Helvetica,sans-Serif" font-size="10.00">carl/io/streamingOperators.h</text>
</g>
<!-- Node16&#45;&gt;Node17 -->
<g id="edge20" class="edge"><title>Node16&#45;&gt;Node17</title>
<path fill="none" stroke="midnightblue" d="M1608.85,-56.083C1603.68,-48.5341 1596.12,-37.4948 1589.77,-28.2298"/>
<polygon fill="midnightblue" stroke="midnightblue" points="1592.5,-26.0221 1583.96,-19.7511 1586.73,-29.9787 1592.5,-26.0221"/>
</g>
<!-- Node18 -->
<g id="node18" class="node"><title>Node18</title>
<polygon fill="white" stroke="#bfbfbf" points="1673.46,-0.5 1673.46,-19.5 1732.46,-19.5 1732.46,-0.5 1673.46,-0.5"/>
<text text-anchor="middle" x="1702.96" y="-7.5" font-family="Helvetica,sans-Serif" font-size="10.00">iostream</text>
</g>
<!-- Node16&#45;&gt;Node18 -->
<g id="edge21" class="edge"><title>Node16&#45;&gt;Node18</title>
<path fill="none" stroke="midnightblue" d="M1629.1,-56.324C1642.83,-47.9002 1663.9,-34.9709 1680.03,-25.0741"/>
<polygon fill="midnightblue" stroke="midnightblue" points="1682.17,-27.8678 1688.86,-19.6545 1678.51,-21.9016 1682.17,-27.8678"/>
</g>
<!-- Node19 -->
<g id="node19" class="node"><title>Node19</title>
<polygon fill="white" stroke="#bfbfbf" points="1750.96,-0.5 1750.96,-19.5 1806.96,-19.5 1806.96,-0.5 1750.96,-0.5"/>
<text text-anchor="middle" x="1778.96" y="-7.5" font-family="Helvetica,sans-Serif" font-size="10.00">sstream</text>
</g>
<!-- Node16&#45;&gt;Node19 -->
<g id="edge22" class="edge"><title>Node16&#45;&gt;Node19</title>
<path fill="none" stroke="midnightblue" d="M1640.95,-56.4435C1668.66,-47.3196 1712.72,-32.8133 1743.58,-22.6509"/>
<polygon fill="midnightblue" stroke="midnightblue" points="1744.7,-25.9684 1753.1,-19.5164 1742.51,-19.3196 1744.7,-25.9684"/>
</g>
<!-- Node20 -->
<g id="node20" class="node"><title>Node20</title>
<polygon fill="white" stroke="#bfbfbf" points="1117.96,-0.5 1117.96,-19.5 1165.96,-19.5 1165.96,-0.5 1117.96,-0.5"/>
<text text-anchor="middle" x="1141.96" y="-7.5" font-family="Helvetica,sans-Serif" font-size="10.00">thread</text>
</g>
<!-- Node16&#45;&gt;Node20 -->
<g id="edge23" class="edge"><title>Node16&#45;&gt;Node20</title>
<path fill="none" stroke="midnightblue" d="M1558.4,-57.682C1553.52,-57.0955 1548.66,-56.5268 1543.96,-56 1380.65,-37.6651 1337.7,-49.1208 1175.96,-20 1175.86,-19.9817 1175.76,-19.9633 1175.66,-19.9448"/>
<polygon fill="midnightblue" stroke="midnightblue" points="1176.51,-16.5485 1166,-17.8762 1175.05,-23.3932 1176.51,-16.5485"/>
</g>
<!-- Node21 -->
<g id="node21" class="node"><title>Node21</title>
<polygon fill="white" stroke="#bfbfbf" points="1184.46,-0.5 1184.46,-19.5 1309.46,-19.5 1309.46,-0.5 1184.46,-0.5"/>
<text text-anchor="middle" x="1246.96" y="-7.5" font-family="Helvetica,sans-Serif" font-size="10.00">carl/core/carlLogging.h</text>
</g>
<!-- Node16&#45;&gt;Node21 -->
<g id="edge24" class="edge"><title>Node16&#45;&gt;Node21</title>
<path fill="none" stroke="midnightblue" d="M1558.27,-56.6808C1492.74,-47.0653 1384.96,-31.2498 1314.98,-20.9804"/>
<polygon fill="midnightblue" stroke="midnightblue" points="1315.34,-17.4959 1304.94,-19.5069 1314.32,-24.4217 1315.34,-17.4959"/>
</g>
<!-- Node22 -->
<g id="node22" class="node"><title>Node22</title>
<polygon fill="white" stroke="#bfbfbf" points="1327.46,-0.5 1327.46,-19.5 1482.46,-19.5 1482.46,-0.5 1327.46,-0.5"/>
<text text-anchor="middle" x="1404.96" y="-7.5" font-family="Helvetica,sans-Serif" font-size="10.00">carl/core/carlLoggingHelper.h</text>
</g>
<!-- Node16&#45;&gt;Node22 -->
<g id="edge25" class="edge"><title>Node16&#45;&gt;Node22</title>
<path fill="none" stroke="midnightblue" d="M1581.69,-56.4435C1545.52,-47.1419 1487.59,-32.246 1447.98,-22.062"/>
<polygon fill="midnightblue" stroke="midnightblue" points="1448.64,-18.6172 1438.08,-19.5164 1446.9,-25.3966 1448.64,-18.6172"/>
</g>
<!-- Node28&#45;&gt;Node9 -->
<g id="edge46" class="edge"><title>Node28&#45;&gt;Node9</title>
<path fill="none" stroke="midnightblue" d="M847.358,-380.056C835.714,-364.766 810.18,-333.288 782.964,-313 730.579,-273.949 661.683,-242.648 616.4,-224.336"/>
<polygon fill="midnightblue" stroke="midnightblue" points="617.415,-220.972 606.83,-220.517 614.821,-227.474 617.415,-220.972"/>
</g>
<!-- Node29 -->
<g id="node29" class="node"><title>Node29</title>
<g id="a_node29"><a xlink:href="representations_2types_8h.html" target="_top" xlink:title="../representations\l/types.h">
<polygon fill="white" stroke="black" points="673.464,-313.5 673.464,-343.5 774.464,-343.5 774.464,-313.5 673.464,-313.5"/>
<text text-anchor="start" x="681.464" y="-331.5" font-family="Helvetica,sans-Serif" font-size="10.00">../representations</text>
<text text-anchor="middle" x="723.964" y="-320.5" font-family="Helvetica,sans-Serif" font-size="10.00">/types.h</text>
</a>
</g>
</g>
<!-- Node28&#45;&gt;Node29 -->
<g id="edge36" class="edge"><title>Node28&#45;&gt;Node29</title>
<path fill="none" stroke="midnightblue" d="M835.338,-380.475C816.745,-371.965 787.586,-358.619 763.768,-347.718"/>
<polygon fill="midnightblue" stroke="midnightblue" points="765.152,-344.502 754.603,-343.523 762.239,-350.867 765.152,-344.502"/>
</g>
<!-- Node30 -->
<g id="node30" class="node"><title>Node30</title>
<g id="a_node30"><a xlink:href="VariablePool_8h.html" target="_top" xlink:title="../util/VariablePool.h">
<polygon fill="white" stroke="black" points="1337.96,-257.5 1337.96,-276.5 1447.96,-276.5 1447.96,-257.5 1337.96,-257.5"/>
<text text-anchor="middle" x="1392.96" y="-264.5" font-family="Helvetica,sans-Serif" font-size="10.00">../util/VariablePool.h</text>
</a>
</g>
</g>
<!-- Node28&#45;&gt;Node30 -->
<g id="edge37" class="edge"><title>Node28&#45;&gt;Node30</title>
<path fill="none" stroke="midnightblue" d="M890.562,-387.64C955.92,-384.497 1096.58,-374.488 1210.96,-344 1269.03,-328.523 1333.02,-298.548 1367.52,-281.228"/>
<polygon fill="midnightblue" stroke="midnightblue" points="1369.1,-284.347 1376.44,-276.7 1365.94,-278.105 1369.1,-284.347"/>
</g>
<!-- Node35 -->
<g id="node35" class="node"><title>Node35</title>
<polygon fill="white" stroke="#bfbfbf" points="1152.96,-196 1152.96,-215 1204.96,-215 1204.96,-196 1152.96,-196"/>
<text text-anchor="middle" x="1178.96" y="-203" font-family="Helvetica,sans-Serif" font-size="10.00">cassert</text>
</g>
<!-- Node28&#45;&gt;Node35 -->
<g id="edge56" class="edge"><title>Node28&#45;&gt;Node35</title>
<path fill="none" stroke="midnightblue" d="M890.491,-387.213C936.18,-383.755 1015.83,-373.625 1076.96,-344 1118.39,-323.923 1130.3,-315.22 1155.96,-277 1166.49,-261.329 1172.5,-240.482 1175.72,-225.529"/>
<polygon fill="midnightblue" stroke="midnightblue" points="1179.21,-225.908 1177.66,-215.426 1172.34,-224.585 1179.21,-225.908"/>
</g>
<!-- Node36 -->
<g id="node36" class="node"><title>Node36</title>
<g id="a_node36"><a xlink:href="EvaluationResult_8h.html" target="_top" xlink:title="../util/linearOptimization\l/EvaluationResult.h">
<polygon fill="white" stroke="black" points="480.964,-313.5 480.964,-343.5 610.964,-343.5 610.964,-313.5 480.964,-313.5"/>
<text text-anchor="start" x="488.964" y="-331.5" font-family="Helvetica,sans-Serif" font-size="10.00">../util/linearOptimization</text>
<text text-anchor="middle" x="545.964" y="-320.5" font-family="Helvetica,sans-Serif" font-size="10.00">/EvaluationResult.h</text>
</a>
</g>
</g>
<!-- Node28&#45;&gt;Node36 -->
<g id="edge47" class="edge"><title>Node28&#45;&gt;Node36</title>
<path fill="none" stroke="midnightblue" d="M817.423,-381.941C769.347,-372.654 683.671,-356.102 621.4,-344.073"/>
<polygon fill="midnightblue" stroke="midnightblue" points="621.711,-340.568 611.229,-342.108 620.383,-347.441 621.711,-340.568"/>
</g>
<!-- Node37 -->
<g id="node37" class="node"><title>Node37</title>
<g id="a_node37"><a xlink:href="Point_8h.html" target="_top" xlink:title="Point.h">
<polygon fill="white" stroke="black" points="1017.96,-319 1017.96,-338 1067.96,-338 1067.96,-319 1017.96,-319"/>
<text text-anchor="middle" x="1042.96" y="-326" font-family="Helvetica,sans-Serif" font-size="10.00">Point.h</text>
</a>
</g>
</g>
<!-- Node28&#45;&gt;Node37 -->
<g id="edge49" class="edge"><title>Node28&#45;&gt;Node37</title>
<path fill="none" stroke="midnightblue" d="M881.043,-380.475C914.444,-369.96 971.293,-352.063 1007.97,-340.516"/>
<polygon fill="midnightblue" stroke="midnightblue" points="1009.26,-343.78 1017.75,-337.439 1007.16,-337.103 1009.26,-343.78"/>
</g>
<!-- Node39 -->
<g id="node39" class="node"><title>Node39</title>
<polygon fill="white" stroke="#bfbfbf" points="831.464,-319 831.464,-338 876.464,-338 876.464,-319 831.464,-319"/>
<text text-anchor="middle" x="853.964" y="-326" font-family="Helvetica,sans-Serif" font-size="10.00">glpk.h</text>
</g>
<!-- Node28&#45;&gt;Node39 -->
<g id="edge57" class="edge"><title>Node28&#45;&gt;Node39</title>
<path fill="none" stroke="midnightblue" d="M853.964,-380.475C853.964,-372.08 853.964,-358.981 853.964,-348.163"/>
<polygon fill="midnightblue" stroke="midnightblue" points="857.464,-348.009 853.964,-338.009 850.464,-348.009 857.464,-348.009"/>
</g>
<!-- Node40 -->
<g id="node40" class="node"><title>Node40</title>
<polygon fill="white" stroke="#bfbfbf" points="894.464,-319 894.464,-338 977.464,-338 977.464,-319 894.464,-319"/>
<text text-anchor="middle" x="935.964" y="-326" font-family="Helvetica,sans-Serif" font-size="10.00">Halfspace.tpp</text>
</g>
<!-- Node28&#45;&gt;Node40 -->
<g id="edge58" class="edge"><title>Node28&#45;&gt;Node40</title>
<path fill="none" stroke="midnightblue" d="M865.713,-380.475C878.744,-371.02 900,-355.596 915.723,-344.187"/>
<polygon fill="midnightblue" stroke="midnightblue" points="918.199,-346.715 924.238,-338.009 914.088,-341.049 918.199,-346.715"/>
</g>
<!-- Node30&#45;&gt;Node11 -->
<g id="edge38" class="edge"><title>Node30&#45;&gt;Node11</title>
<path fill="none" stroke="midnightblue" d="M1448.2,-263.495C1496.15,-259.413 1566.28,-248.752 1620.96,-221 1718.67,-171.418 1805.18,-67.8712 1836.5,-27.5603"/>
<polygon fill="midnightblue" stroke="midnightblue" points="1839.33,-29.6159 1842.64,-19.55 1833.78,-25.3574 1839.33,-29.6159"/>
</g>
<!-- Node30&#45;&gt;Node13 -->
<g id="edge44" class="edge"><title>Node30&#45;&gt;Node13</title>
<path fill="none" stroke="midnightblue" d="M1448.26,-265.115C1523.35,-261.779 1643.88,-247.61 1603.96,-190 1507.45,-50.6889 1408.51,-107.237 1246.96,-56 1189.49,-37.7726 1171.56,-37.6682 1110.03,-20.1751"/>
<polygon fill="midnightblue" stroke="midnightblue" points="1110.78,-16.7478 1100.2,-17.3389 1108.84,-23.4735 1110.78,-16.7478"/>
</g>
<!-- Node30&#45;&gt;Node15 -->
<g id="edge45" class="edge"><title>Node30&#45;&gt;Node15</title>
<path fill="none" stroke="midnightblue" d="M1341.24,-257.472C1312.93,-250.937 1278.36,-239.743 1251.96,-221 1202.53,-185.906 1213.94,-153.73 1169.96,-112 1130.96,-74.9849 1077,-42.2882 1045.56,-24.7012"/>
<polygon fill="midnightblue" stroke="midnightblue" points="1047.01,-21.5058 1036.57,-19.7402 1043.63,-27.635 1047.01,-21.5058"/>
</g>
<!-- Node31 -->
<g id="node31" class="node"><title>Node31</title>
<polygon fill="white" stroke="#bfbfbf" points="1532.96,-196 1532.96,-215 1594.96,-215 1594.96,-196 1532.96,-196"/>
<text text-anchor="middle" x="1563.96" y="-203" font-family="Helvetica,sans-Serif" font-size="10.00">algorithm</text>
</g>
<!-- Node30&#45;&gt;Node31 -->
<g id="edge39" class="edge"><title>Node30&#45;&gt;Node31</title>
<path fill="none" stroke="midnightblue" d="M1418.12,-257.499C1444.53,-248.543 1487.23,-233.967 1523.96,-221 1526.34,-220.161 1528.8,-219.288 1531.26,-218.405"/>
<polygon fill="midnightblue" stroke="midnightblue" points="1532.5,-221.681 1540.72,-215.001 1530.13,-215.094 1532.5,-221.681"/>
</g>
<!-- Node32 -->
<g id="node32" class="node"><title>Node32</title>
<polygon fill="white" stroke="#bfbfbf" points="1765.96,-196 1765.96,-215 1873.96,-215 1873.96,-196 1765.96,-196"/>
<text text-anchor="middle" x="1819.96" y="-203" font-family="Helvetica,sans-Serif" font-size="10.00">carl/core/Variable.h</text>
</g>
<!-- Node30&#45;&gt;Node32 -->
<g id="edge40" class="edge"><title>Node30&#45;&gt;Node32</title>
<path fill="none" stroke="midnightblue" d="M1448.22,-260.554C1518.9,-253.25 1644.97,-239.079 1751.96,-221 1758.68,-219.865 1765.74,-218.526 1772.67,-217.127"/>
<polygon fill="midnightblue" stroke="midnightblue" points="1773.58,-220.512 1782.66,-215.053 1772.16,-213.658 1773.58,-220.512"/>
</g>
<!-- Node33 -->
<g id="node33" class="node"><title>Node33</title>
<polygon fill="white" stroke="#bfbfbf" points="1260.96,-196 1260.96,-215 1388.96,-215 1388.96,-196 1260.96,-196"/>
<text text-anchor="middle" x="1324.96" y="-203" font-family="Helvetica,sans-Serif" font-size="10.00">carl/core/VariablePool.h</text>
</g>
<!-- Node30&#45;&gt;Node33 -->
<g id="edge41" class="edge"><title>Node30&#45;&gt;Node33</title>
<path fill="none" stroke="midnightblue" d="M1383.22,-257.475C1372.62,-248.197 1355.45,-233.171 1342.49,-221.831"/>
<polygon fill="midnightblue" stroke="midnightblue" points="1344.52,-218.96 1334.69,-215.009 1339.91,-224.228 1344.52,-218.96"/>
</g>
<!-- Node34 -->
<g id="node34" class="node"><title>Node34</title>
<polygon fill="white" stroke="#bfbfbf" points="1406.96,-196 1406.96,-215 1514.96,-215 1514.96,-196 1406.96,-196"/>
<text text-anchor="middle" x="1460.96" y="-203" font-family="Helvetica,sans-Serif" font-size="10.00">carl/util/Singleton.h</text>
</g>
<!-- Node30&#45;&gt;Node34 -->
<g id="edge42" class="edge"><title>Node30&#45;&gt;Node34</title>
<path fill="none" stroke="midnightblue" d="M1402.71,-257.475C1413.31,-248.197 1430.48,-233.171 1443.44,-221.831"/>
<polygon fill="midnightblue" stroke="midnightblue" points="1446.02,-224.228 1451.24,-215.009 1441.41,-218.96 1446.02,-224.228"/>
</g>
<!-- Node30&#45;&gt;Node35 -->
<g id="edge43" class="edge"><title>Node30&#45;&gt;Node35</title>
<path fill="none" stroke="midnightblue" d="M1355.68,-257.439C1320.25,-249.05 1265.61,-235.45 1218.96,-221 1216.34,-220.188 1213.64,-219.306 1210.93,-218.392"/>
<polygon fill="midnightblue" stroke="midnightblue" points="1211.86,-215.007 1201.26,-215.006 1209.54,-221.614 1211.86,-215.007"/>
</g>
<!-- Node36&#45;&gt;Node2 -->
<g id="edge48" class="edge"><title>Node36&#45;&gt;Node2</title>
<path fill="none" stroke="midnightblue" d="M500.463,-313.399C467.142,-303.073 422.474,-289.231 391.254,-279.556"/>
<polygon fill="midnightblue" stroke="midnightblue" points="392.21,-276.188 381.622,-276.571 390.138,-282.874 392.21,-276.188"/>
</g>
<!-- Node37&#45;&gt;Node2 -->
<g id="edge51" class="edge"><title>Node37&#45;&gt;Node2</title>
<path fill="none" stroke="midnightblue" d="M1017.91,-320.101C1008.04,-317.456 996.549,-314.709 985.964,-313 764.926,-277.308 495.84,-269.925 394.851,-268.398"/>
<polygon fill="midnightblue" stroke="midnightblue" points="394.818,-264.897 384.77,-268.257 394.72,-271.897 394.818,-264.897"/>
</g>
<!-- Node37&#45;&gt;Node8 -->
<g id="edge53" class="edge"><title>Node37&#45;&gt;Node8</title>
<path fill="none" stroke="midnightblue" d="M1041.82,-318.72C1036.87,-282.158 1016.22,-142.491 985.964,-112 943.131,-68.8367 897.351,-118.607 853.964,-76 841.785,-64.0399 837.309,-44.7388 835.716,-30.2705"/>
<polygon fill="midnightblue" stroke="midnightblue" points="839.181,-29.6555 834.965,-19.9357 832.2,-30.1633 839.181,-29.6555"/>
</g>
<!-- Node37&#45;&gt;Node10 -->
<g id="edge50" class="edge"><title>Node37&#45;&gt;Node10</title>
<path fill="none" stroke="midnightblue" d="M1068.07,-322.039C1091.04,-315.569 1123.68,-302.309 1138.96,-277 1151.3,-256.568 1137.37,-186.775 1129.55,-152.836"/>
<polygon fill="midnightblue" stroke="midnightblue" points="1132.89,-151.748 1127.18,-142.823 1126.08,-153.361 1132.89,-151.748"/>
</g>
<!-- Node37&#45;&gt;Node15 -->
<g id="edge54" class="edge"><title>Node37&#45;&gt;Node15</title>
<path fill="none" stroke="midnightblue" d="M1042.96,-318.991C1042.96,-299.236 1042.96,-248.724 1042.96,-206.5 1042.96,-206.5 1042.96,-206.5 1042.96,-132 1042.96,-95.0808 1032.5,-52.9221 1025.69,-29.3847"/>
<polygon fill="midnightblue" stroke="midnightblue" points="1029.01,-28.2704 1022.78,-19.6977 1022.31,-30.2817 1029.01,-28.2704"/>
</g>
<!-- Node37&#45;&gt;Node30 -->
<g id="edge52" class="edge"><title>Node37&#45;&gt;Node30</title>
<path fill="none" stroke="midnightblue" d="M1068.14,-323.221C1123.04,-313.887 1254.85,-291.479 1332.64,-278.255"/>
<polygon fill="midnightblue" stroke="midnightblue" points="1333.51,-281.657 1342.78,-276.531 1332.34,-274.756 1333.51,-281.657"/>
</g>
<!-- Node38 -->
<g id="node38" class="node"><title>Node38</title>
<polygon fill="white" stroke="#bfbfbf" points="1071.46,-257.5 1071.46,-276.5 1130.46,-276.5 1130.46,-257.5 1071.46,-257.5"/>
<text text-anchor="middle" x="1100.96" y="-264.5" font-family="Helvetica,sans-Serif" font-size="10.00">Point.tpp</text>
</g>
<!-- Node37&#45;&gt;Node38 -->
<g id="edge55" class="edge"><title>Node37&#45;&gt;Node38</title>
<path fill="none" stroke="midnightblue" d="M1051.27,-318.975C1060.15,-309.873 1074.41,-295.241 1085.38,-283.983"/>
<polygon fill="midnightblue" stroke="midnightblue" points="1088.2,-286.113 1092.67,-276.509 1083.18,-281.227 1088.2,-286.113"/>
</g>
</g>
</svg>
        <g id="navigator" transform="translate(0 0)" fill="#404254">
                <rect fill="#f2f5e9" fill-opacity="0.5" stroke="#606060" stroke-width=".5" x="0" y="0" width="60" height="60"/>
                <use id="zoomplus" xlink:href="#zoomPlus" x="17" y="9" onmousedown="handleZoom(evt,'in')"/>
                <use id="zoomminus" xlink:href="#zoomMin" x="42" y="9" onmousedown="handleZoom(evt,'out')"/>
                <use id="reset" xlink:href="#resetDef" x="30" y="36" onmousedown="handleReset()"/>
                <g id="arrowUp" xlink:href="#dirArrow" transform="translate(30 24)" onmousedown="handlePan(0,-1)">
                  <use xlink:href="#rim" fill="#404040">
                        <set attributeName="fill" to="#808080" begin="arrowUp.mouseover" end="arrowUp.mouseout"/>
                  </use>
                  <path fill="none" stroke="white" stroke-width="1.5" d="M0,-3.0v7 M-2.5,-0.5L0,-3.0L2.5,-0.5"/>
                </g>
                <g id="arrowRight" xlink:href="#dirArrow" transform="rotate(90) translate(36 -43)" onmousedown="handlePan(1,0)">
                  <use xlink:href="#rim" fill="#404040">
                        <set attributeName="fill" to="#808080" begin="arrowRight.mouseover" end="arrowRight.mouseout"/>
                  </use>
                  <path fill="none" stroke="white" stroke-width="1.5" d="M0,-3.0v7 M-2.5,-0.5L0,-3.0L2.5,-0.5"/>
                </g>
                <g id="arrowDown" xlink:href="#dirArrow" transform="rotate(180) translate(-30 -48)" onmousedown="handlePan(0,1)">
                  <use xlink:href="#rim" fill="#404040">
                        <set attributeName="fill" to="#808080" begin="arrowDown.mouseover" end="arrowDown.mouseout"/>
                  </use>
                  <path fill="none" stroke="white" stroke-width="1.5" d="M0,-3.0v7 M-2.5,-0.5L0,-3.0L2.5,-0.5"/>
                </g>
                <g id="arrowLeft" xlink:href="#dirArrow" transform="rotate(270) translate(-36 17)" onmousedown="handlePan(-1,0)">
                  <use xlink:href="#rim" fill="#404040">
                        <set attributeName="fill" to="#808080" begin="arrowLeft.mouseover" end="arrowLeft.mouseout"/>
                  </use>
                  <path fill="none" stroke="white" stroke-width="1.5" d="M0,-3.0v7 M-2.5,-0.5L0,-3.0L2.5,-0.5"/>
                </g>
        </g>
        <svg viewBox="0 0 15 15" width="100%" height="30px" preserveAspectRatio="xMaxYMin meet">
         <g id="arrow_out" transform="scale(0.3 0.3)">
          <a xlink:href="Facet_8h__incl_org.svg" target="_base">
           <rect id="button" ry="5" rx="5" y="6" x="6" height="38" width="38"
                fill="#f2f5e9" fill-opacity="0.5" stroke="#606060" stroke-width="1.0"/>
           <path id="arrow"
             d="M 11.500037,31.436501 C 11.940474,20.09759 22.043105,11.32322 32.158766,21.979434 L 37.068811,17.246167 C 37.068811,17.246167 37.088388,32 37.088388,32 L 22.160133,31.978069 C 22.160133,31.978069 26.997745,27.140456 26.997745,27.140456 C 18.528582,18.264221 13.291696,25.230495 11.500037,31.436501 z"
             style="fill:#404040;"/>
          </a>
         </g>
        </svg>
</svg>
