<?xml version="1.0" encoding="UTF-8" standalone="no"?>
<!DOCTYPE svg PUBLIC "-//W3C//DTD SVG 1.1//EN"
 "http://www.w3.org/Graphics/SVG/1.1/DTD/svg11.dtd">
<!-- Generated by graphviz version 2.38.0 (20140413.2041)
 -->
<!-- Title: /home/travis/build/hypro/hypro/src/hypro/util/logging/Filewriter.h Pages: 1 -->
<svg width="220pt" height="173pt"
 viewBox="0.00 0.00 220.00 173.00" xmlns="http://www.w3.org/2000/svg" xmlns:xlink="http://www.w3.org/1999/xlink">
<g id="graph0" class="graph" transform="scale(1 1) rotate(0) translate(4 169)">
<title>/home/travis/build/hypro/hypro/src/hypro/util/logging/Filewriter.h</title>
<polygon fill="white" stroke="none" points="-4,4 -4,-169 216,-169 216,4 -4,4"/>
<!-- Node1 -->
<g id="node1" class="node"><title>Node1</title>
<polygon fill="#bfbfbf" stroke="black" points="65,-123.5 65,-164.5 189,-164.5 189,-123.5 65,-123.5"/>
<text text-anchor="start" x="73" y="-152.5" font-family="Helvetica,sans-Serif" font-size="10.00">/home/travis/build</text>
<text text-anchor="start" x="73" y="-141.5" font-family="Helvetica,sans-Serif" font-size="10.00">/hypro/hypro/src/hypro</text>
<text text-anchor="middle" x="127" y="-130.5" font-family="Helvetica,sans-Serif" font-size="10.00">/util/logging/Filewriter.h</text>
</g>
<!-- Node2 -->
<g id="node2" class="node"><title>Node2</title>
<g id="a_node2"><a xlink:href="LockableBase_8h.html" target="_top" xlink:title="../multithreading/Lockable\lBase.h">
<polygon fill="white" stroke="black" points="0,-56.5 0,-86.5 140,-86.5 140,-56.5 0,-56.5"/>
<text text-anchor="start" x="8" y="-74.5" font-family="Helvetica,sans-Serif" font-size="10.00">../multithreading/Lockable</text>
<text text-anchor="middle" x="70" y="-63.5" font-family="Helvetica,sans-Serif" font-size="10.00">Base.h</text>
</a>
</g>
</g>
<!-- Node1&#45;&gt;Node2 -->
<g id="edge1" class="edge"><title>Node1&#45;&gt;Node2</title>
<path fill="none" stroke="midnightblue" d="M111.122,-123.362C103.96,-114.503 95.4641,-103.995 88.0596,-94.8369"/>
<polygon fill="midnightblue" stroke="midnightblue" points="90.6447,-92.4674 81.6358,-86.8916 85.2013,-96.8685 90.6447,-92.4674"/>
</g>
<!-- Node4 -->
<g id="node4" class="node"><title>Node4</title>
<polygon fill="white" stroke="#bfbfbf" points="158,-62 158,-81 212,-81 212,-62 158,-62"/>
<text text-anchor="middle" x="185" y="-69" font-family="Helvetica,sans-Serif" font-size="10.00">fstream</text>
</g>
<!-- Node1&#45;&gt;Node4 -->
<g id="edge3" class="edge"><title>Node1&#45;&gt;Node4</title>
<path fill="none" stroke="midnightblue" d="M143.156,-123.362C152.06,-112.539 162.987,-99.2568 171.442,-88.9795"/>
<polygon fill="midnightblue" stroke="midnightblue" points="174.214,-91.1195 177.864,-81.1734 168.808,-86.6722 174.214,-91.1195"/>
</g>
<!-- Node3 -->
<g id="node3" class="node"><title>Node3</title>
<polygon fill="white" stroke="#bfbfbf" points="46.5,-0.5 46.5,-19.5 93.5,-19.5 93.5,-0.5 46.5,-0.5"/>
<text text-anchor="middle" x="70" y="-7.5" font-family="Helvetica,sans-Serif" font-size="10.00">mutex</text>
</g>
<!-- Node2&#45;&gt;Node3 -->
<g id="edge2" class="edge"><title>Node2&#45;&gt;Node3</title>
<path fill="none" stroke="midnightblue" d="M70,-56.3993C70,-48.4664 70,-38.458 70,-29.8583"/>
<polygon fill="midnightblue" stroke="midnightblue" points="73.5001,-29.6577 70,-19.6578 66.5001,-29.6578 73.5001,-29.6577"/>
</g>
</g>
</svg>
