<?xml version="1.0" encoding="UTF-8" standalone="no"?>
<!DOCTYPE svg PUBLIC "-//W3C//DTD SVG 1.1//EN"
 "http://www.w3.org/Graphics/SVG/1.1/DTD/svg11.dtd">
<!-- Generated by graphviz version 2.38.0 (20140413.2041)
 -->
<!-- Title: /home/travis/build/hypro/hypro/src/hypro/util/logging/Filewriter.h Pages: 1 -->
<!--zoomable 1151 -->
<svg id="main" version="1.1" xmlns="http://www.w3.org/2000/svg" xmlns:xlink="http://www.w3.org/1999/xlink" xml:space="preserve" onload="init(evt)">
<style type="text/css"><![CDATA[
.edge:hover path { stroke: red; }
.edge:hover polygon { stroke: red; fill: red; }
]]></style>
<script type="text/javascript"><![CDATA[
var edges = document.getElementsByTagName('g');
if (edges && edges.length) {
  for (var i=0;i<edges.length;i++) {
    if (edges[i].id.substr(0,4)=='edge') {
      edges[i].setAttribute('class','edge');
    }
  }
}
]]></script>
        <defs>
                <circle id="rim" cx="0" cy="0" r="7"/>
                <circle id="rim2" cx="0" cy="0" r="3.5"/>
                <g id="zoomPlus">
                        <use xlink:href="#rim" fill="#404040">
                                <set attributeName="fill" to="#808080" begin="zoomplus.mouseover" end="zoomplus.mouseout"/>
                        </use>
                        <path d="M-4,0h8M0,-4v8" fill="none" stroke="white" stroke-width="1.5" pointer-events="none"/>
                </g>
                <g id="zoomMin">
                        <use xlink:href="#rim" fill="#404040">
                                <set attributeName="fill" to="#808080" begin="zoomminus.mouseover" end="zoomminus.mouseout"/>
                        </use>
                        <path d="M-4,0h8" fill="none" stroke="white" stroke-width="1.5" pointer-events="none"/>
                </g>
                <g id="dirArrow">
                        <path fill="none" stroke="white" stroke-width="1.5" d="M0,-3.0v7 M-2.5,-0.5L0,-3.0L2.5,-0.5"/>
                </g>
               <g id="resetDef">
                       <use xlink:href="#rim2" fill="#404040">
                               <set attributeName="fill" to="#808080" begin="reset.mouseover" end="reset.mouseout"/>
                       </use>
               </g>
        </defs>

<script type="text/javascript">
var viewWidth = 1217;
var viewHeight = 1151;
var sectionId = 'dynsection-1';
</script>
<script xlink:href="svgpan.js"/>
<svg id="graph" class="graph">
<g id="viewport">
<title>/home/travis/build/hypro/hypro/src/hypro/util/logging/Filewriter.h</title>
<polygon fill="white" stroke="none" points="-4,4 -4,-1147 1213.08,-1147 1213.08,4 -4,4"/>
<!-- Node1 -->
<g id="node1" class="node"><title>Node1</title>
<polygon fill="#bfbfbf" stroke="black" points="785,-1101.5 785,-1142.5 909,-1142.5 909,-1101.5 785,-1101.5"/>
<text text-anchor="start" x="793" y="-1130.5" font-family="Helvetica,sans-Serif" font-size="10.00">/home/travis/build</text>
<text text-anchor="start" x="793" y="-1119.5" font-family="Helvetica,sans-Serif" font-size="10.00">/hypro/hypro/src/hypro</text>
<text text-anchor="middle" x="847" y="-1108.5" font-family="Helvetica,sans-Serif" font-size="10.00">/util/logging/Filewriter.h</text>
</g>
<!-- Node2 -->
<g id="node2" class="node"><title>Node2</title>
<g id="a_node2"><a xlink:href="SettingsProvider_8h.html" target="_top" xlink:title="/home/travis/build\l/hypro/hypro/src/hypro\l/datastructures/reachability\l/SettingsProvider.h">
<polygon fill="white" stroke="black" points="773,-1012.5 773,-1064.5 921,-1064.5 921,-1012.5 773,-1012.5"/>
<text text-anchor="start" x="781" y="-1052.5" font-family="Helvetica,sans-Serif" font-size="10.00">/home/travis/build</text>
<text text-anchor="start" x="781" y="-1041.5" font-family="Helvetica,sans-Serif" font-size="10.00">/hypro/hypro/src/hypro</text>
<text text-anchor="start" x="781" y="-1030.5" font-family="Helvetica,sans-Serif" font-size="10.00">/datastructures/reachability</text>
<text text-anchor="middle" x="847" y="-1019.5" font-family="Helvetica,sans-Serif" font-size="10.00">/SettingsProvider.h</text>
</a>
</g>
</g>
<!-- Node1&#45;&gt;Node2 -->
<g id="edge1" class="edge"><title>Node1&#45;&gt;Node2</title>
<path fill="none" stroke="midnightblue" d="M847,-1091.12C847,-1082.41 847,-1072.99 847,-1064.61"/>
<polygon fill="midnightblue" stroke="midnightblue" points="843.5,-1091.27 847,-1101.27 850.5,-1091.27 843.5,-1091.27"/>
</g>
<!-- Node18 -->
<g id="node18" class="node"><title>Node18</title>
<g id="a_node18"><a xlink:href="EventTimingProvider_8h.html" target="_top" xlink:title="/home/travis/build\l/hypro/hypro/src/hypro\l/datastructures/reachability\l/timing/EventTimingProvider.h">
<polygon fill="white" stroke="black" points="31,-818 31,-870 189,-870 189,-818 31,-818"/>
<text text-anchor="start" x="39" y="-858" font-family="Helvetica,sans-Serif" font-size="10.00">/home/travis/build</text>
<text text-anchor="start" x="39" y="-847" font-family="Helvetica,sans-Serif" font-size="10.00">/hypro/hypro/src/hypro</text>
<text text-anchor="start" x="39" y="-836" font-family="Helvetica,sans-Serif" font-size="10.00">/datastructures/reachability</text>
<text text-anchor="middle" x="110" y="-825" font-family="Helvetica,sans-Serif" font-size="10.00">/timing/EventTimingProvider.h</text>
</a>
</g>
</g>
<!-- Node1&#45;&gt;Node18 -->
<g id="edge56" class="edge"><title>Node1&#45;&gt;Node18</title>
<path fill="none" stroke="midnightblue" d="M774.872,-1113.6C661.282,-1099.67 436.142,-1062.76 266,-976 212.439,-948.689 161.221,-899.882 132.853,-870.172"/>
<polygon fill="midnightblue" stroke="midnightblue" points="774.501,-1117.08 784.848,-1114.8 775.337,-1110.13 774.501,-1117.08"/>
</g>
<!-- Node25 -->
<g id="node25" class="node"><title>Node25</title>
<g id="a_node25"><a xlink:href="example__parallel__composition_8cpp.html" target="_top" xlink:title="/home/travis/build\l/hypro/hypro/examples\l/example_parallel_composition.cpp">
<polygon fill="white" stroke="black" points="939.5,-1018 939.5,-1059 1124.5,-1059 1124.5,-1018 939.5,-1018"/>
<text text-anchor="start" x="947.5" y="-1047" font-family="Helvetica,sans-Serif" font-size="10.00">/home/travis/build</text>
<text text-anchor="start" x="947.5" y="-1036" font-family="Helvetica,sans-Serif" font-size="10.00">/hypro/hypro/examples</text>
<text text-anchor="middle" x="1032" y="-1025" font-family="Helvetica,sans-Serif" font-size="10.00">/example_parallel_composition.cpp</text>
</a>
</g>
</g>
<!-- Node1&#45;&gt;Node25 -->
<g id="edge57" class="edge"><title>Node1&#45;&gt;Node25</title>
<path fill="none" stroke="midnightblue" d="M900.821,-1097.29C928.424,-1085.13 961.632,-1070.5 987.729,-1059"/>
<polygon fill="midnightblue" stroke="midnightblue" points="899.052,-1094.24 891.312,-1101.48 901.874,-1100.65 899.052,-1094.24"/>
</g>
<!-- Node3 -->
<g id="node3" class="node"><title>Node3</title>
<g id="a_node3"><a xlink:href="ReachTreeNode_8h.html" target="_top" xlink:title="/home/travis/build\l/hypro/hypro/src/hypro\l/datastructures/reachability\l/ReachTreeNode.h">
<polygon fill="white" stroke="black" points="455,-918 455,-970 603,-970 603,-918 455,-918"/>
<text text-anchor="start" x="463" y="-958" font-family="Helvetica,sans-Serif" font-size="10.00">/home/travis/build</text>
<text text-anchor="start" x="463" y="-947" font-family="Helvetica,sans-Serif" font-size="10.00">/hypro/hypro/src/hypro</text>
<text text-anchor="start" x="463" y="-936" font-family="Helvetica,sans-Serif" font-size="10.00">/datastructures/reachability</text>
<text text-anchor="middle" x="529" y="-925" font-family="Helvetica,sans-Serif" font-size="10.00">/ReachTreeNode.h</text>
</a>
</g>
</g>
<!-- Node2&#45;&gt;Node3 -->
<g id="edge2" class="edge"><title>Node2&#45;&gt;Node3</title>
<path fill="none" stroke="midnightblue" d="M763.093,-1013.09C713.45,-998.653 651.129,-980.525 603.273,-966.605"/>
<polygon fill="midnightblue" stroke="midnightblue" points="762.265,-1016.5 772.844,-1015.93 764.22,-1009.78 762.265,-1016.5"/>
</g>
<!-- Node7 -->
<g id="node7" class="node"><title>Node7</title>
<g id="a_node7"><a xlink:href="example__rectangularReachability_8cpp.html" target="_top" xlink:title="/home/travis/build\l/hypro/hypro/examples\l/example_rectangularReachability.cpp">
<polygon fill="white" stroke="black" points="256,-0.5 256,-41.5 452,-41.5 452,-0.5 256,-0.5"/>
<text text-anchor="start" x="264" y="-29.5" font-family="Helvetica,sans-Serif" font-size="10.00">/home/travis/build</text>
<text text-anchor="start" x="264" y="-18.5" font-family="Helvetica,sans-Serif" font-size="10.00">/hypro/hypro/examples</text>
<text text-anchor="middle" x="354" y="-7.5" font-family="Helvetica,sans-Serif" font-size="10.00">/example_rectangularReachability.cpp</text>
</a>
</g>
</g>
<!-- Node2&#45;&gt;Node7 -->
<g id="edge54" class="edge"><title>Node2&#45;&gt;Node7</title>
<path fill="none" stroke="midnightblue" d="M930.693,-1012.07C930.795,-1012.05 930.898,-1012.02 931,-1012 984.045,-1000.07 1132.44,-1012.2 1173,-976 1217.96,-935.87 1208,-905.264 1208,-845 1208,-845 1208,-845 1208,-203.5 1208,-113.821 1133.42,-110.911 1050,-78 943.86,-36.1256 617.464,-25.5545 452.138,-22.892"/>
<polygon fill="midnightblue" stroke="midnightblue" points="929.958,-1008.65 921.046,-1014.38 931.586,-1015.45 929.958,-1008.65"/>
</g>
<!-- Node8 -->
<g id="node8" class="node"><title>Node8</title>
<g id="a_node8"><a xlink:href="example__worker_8cpp.html" target="_top" xlink:title="/home/travis/build\l/hypro/hypro/examples\l/example_worker.cpp">
<polygon fill="white" stroke="black" points="13,-0.5 13,-41.5 139,-41.5 139,-0.5 13,-0.5"/>
<text text-anchor="start" x="21" y="-29.5" font-family="Helvetica,sans-Serif" font-size="10.00">/home/travis/build</text>
<text text-anchor="start" x="21" y="-18.5" font-family="Helvetica,sans-Serif" font-size="10.00">/hypro/hypro/examples</text>
<text text-anchor="middle" x="76" y="-7.5" font-family="Helvetica,sans-Serif" font-size="10.00">/example_worker.cpp</text>
</a>
</g>
</g>
<!-- Node2&#45;&gt;Node8 -->
<g id="edge55" class="edge"><title>Node2&#45;&gt;Node8</title>
<path fill="none" stroke="midnightblue" d="M762.694,-1036.11C548.458,-1030.32 0,-1000.32 0,-845 0,-845 0,-845 0,-203.5 0,-140.301 39.6896,-73.6594 61.705,-41.5551"/>
<polygon fill="midnightblue" stroke="midnightblue" points="762.859,-1039.62 772.947,-1036.38 763.041,-1032.62 762.859,-1039.62"/>
</g>
<!-- Node10 -->
<g id="node10" class="node"><title>Node10</title>
<g id="a_node10"><a xlink:href="LTIContext_8h.html" target="_top" xlink:title="/home/travis/build\l/hypro/hypro/src/hypro\l/algorithms/reachability\l/contexts/LTIContext.h">
<polygon fill="white" stroke="black" points="462,-356.5 462,-408.5 590,-408.5 590,-356.5 462,-356.5"/>
<text text-anchor="start" x="470" y="-396.5" font-family="Helvetica,sans-Serif" font-size="10.00">/home/travis/build</text>
<text text-anchor="start" x="470" y="-385.5" font-family="Helvetica,sans-Serif" font-size="10.00">/hypro/hypro/src/hypro</text>
<text text-anchor="start" x="470" y="-374.5" font-family="Helvetica,sans-Serif" font-size="10.00">/algorithms/reachability</text>
<text text-anchor="middle" x="526" y="-363.5" font-family="Helvetica,sans-Serif" font-size="10.00">/contexts/LTIContext.h</text>
</a>
</g>
</g>
<!-- Node2&#45;&gt;Node10 -->
<g id="edge36" class="edge"><title>Node2&#45;&gt;Node10</title>
<path fill="none" stroke="midnightblue" d="M930.694,-1012.07C930.796,-1012.05 930.898,-1012.02 931,-1012 1025.33,-989.882 1076.97,-1043.98 1146,-976 1188.17,-934.467 1170,-904.191 1170,-845 1170,-845 1170,-845 1170,-743 1170,-479.224 752.996,-407.178 590.104,-389.098"/>
<polygon fill="midnightblue" stroke="midnightblue" points="929.932,-1008.65 921.063,-1014.45 931.611,-1015.45 929.932,-1008.65"/>
</g>
<!-- Node11 -->
<g id="node11" class="node"><title>Node11</title>
<g id="a_node11"><a xlink:href="TimedContext_8h.html" target="_top" xlink:title="/home/travis/build\l/hypro/hypro/src/hypro\l/algorithms/reachability\l/contexts/TimedContext.h">
<polygon fill="white" stroke="black" points="456,-267.5 456,-319.5 596,-319.5 596,-267.5 456,-267.5"/>
<text text-anchor="start" x="464" y="-307.5" font-family="Helvetica,sans-Serif" font-size="10.00">/home/travis/build</text>
<text text-anchor="start" x="464" y="-296.5" font-family="Helvetica,sans-Serif" font-size="10.00">/hypro/hypro/src/hypro</text>
<text text-anchor="start" x="464" y="-285.5" font-family="Helvetica,sans-Serif" font-size="10.00">/algorithms/reachability</text>
<text text-anchor="middle" x="526" y="-274.5" font-family="Helvetica,sans-Serif" font-size="10.00">/contexts/TimedContext.h</text>
</a>
</g>
</g>
<!-- Node2&#45;&gt;Node11 -->
<g id="edge53" class="edge"><title>Node2&#45;&gt;Node11</title>
<path fill="none" stroke="midnightblue" d="M930.695,-1012.08C930.797,-1012.05 930.899,-1012.03 931,-1012 1006.23,-992.701 1046.6,-1030.43 1102,-976 1144.61,-934.139 1132,-904.729 1132,-845 1132,-845 1132,-845 1132,-648.5 1132,-402.68 755.626,-324.452 596.108,-302.337"/>
<polygon fill="midnightblue" stroke="midnightblue" points="929.874,-1008.67 921.105,-1014.62 931.668,-1015.44 929.874,-1008.67"/>
</g>
<!-- Node2&#45;&gt;Node18 -->
<g id="edge37" class="edge"><title>Node2&#45;&gt;Node18</title>
<path fill="none" stroke="midnightblue" d="M762.818,-1030.02C680.903,-1021.47 553.427,-1004.8 446,-976 343.194,-948.435 228.758,-899.711 163.474,-870.086"/>
<polygon fill="midnightblue" stroke="midnightblue" points="762.52,-1033.51 772.825,-1031.05 763.235,-1026.54 762.52,-1033.51"/>
</g>
<!-- Node20 -->
<g id="node20" class="node"><title>Node20</title>
<g id="a_node20"><a xlink:href="ltiGuardHandler_8h.html" target="_top" xlink:title="/home/travis/build\l/hypro/hypro/src/hypro\l/algorithms/reachability\l/handlers/guardHandlers\l/ltiGuardHandler.h">
<polygon fill="white" stroke="black" points="780,-912.5 780,-975.5 914,-975.5 914,-912.5 780,-912.5"/>
<text text-anchor="start" x="788" y="-963.5" font-family="Helvetica,sans-Serif" font-size="10.00">/home/travis/build</text>
<text text-anchor="start" x="788" y="-952.5" font-family="Helvetica,sans-Serif" font-size="10.00">/hypro/hypro/src/hypro</text>
<text text-anchor="start" x="788" y="-941.5" font-family="Helvetica,sans-Serif" font-size="10.00">/algorithms/reachability</text>
<text text-anchor="start" x="788" y="-930.5" font-family="Helvetica,sans-Serif" font-size="10.00">/handlers/guardHandlers</text>
<text text-anchor="middle" x="847" y="-919.5" font-family="Helvetica,sans-Serif" font-size="10.00">/ltiGuardHandler.h</text>
</a>
</g>
</g>
<!-- Node2&#45;&gt;Node20 -->
<g id="edge43" class="edge"><title>Node2&#45;&gt;Node20</title>
<path fill="none" stroke="midnightblue" d="M847,-1001.94C847,-993.226 847,-983.97 847,-975.512"/>
<polygon fill="midnightblue" stroke="midnightblue" points="843.5,-1002.22 847,-1012.22 850.5,-1002.22 843.5,-1002.22"/>
</g>
<!-- Node24 -->
<g id="node24" class="node"><title>Node24</title>
<g id="a_node24"><a xlink:href="rectangularGuardHandler_8h.html" target="_top" xlink:title="/home/travis/build\l/hypro/hypro/src/hypro\l/algorithms/reachability\l/handlers/guardHandlers\l/rectangularGuardHandler.h">
<polygon fill="white" stroke="black" points="944.5,-912.5 944.5,-975.5 1093.5,-975.5 1093.5,-912.5 944.5,-912.5"/>
<text text-anchor="start" x="952.5" y="-963.5" font-family="Helvetica,sans-Serif" font-size="10.00">/home/travis/build</text>
<text text-anchor="start" x="952.5" y="-952.5" font-family="Helvetica,sans-Serif" font-size="10.00">/hypro/hypro/src/hypro</text>
<text text-anchor="start" x="952.5" y="-941.5" font-family="Helvetica,sans-Serif" font-size="10.00">/algorithms/reachability</text>
<text text-anchor="start" x="952.5" y="-930.5" font-family="Helvetica,sans-Serif" font-size="10.00">/handlers/guardHandlers</text>
<text text-anchor="middle" x="1019" y="-919.5" font-family="Helvetica,sans-Serif" font-size="10.00">/rectangularGuardHandler.h</text>
</a>
</g>
</g>
<!-- Node2&#45;&gt;Node24 -->
<g id="edge51" class="edge"><title>Node2&#45;&gt;Node24</title>
<path fill="none" stroke="midnightblue" d="M902.405,-1007.7C921.455,-997.459 942.808,-985.975 961.984,-975.663"/>
<polygon fill="midnightblue" stroke="midnightblue" points="900.695,-1004.65 893.546,-1012.47 904.011,-1010.81 900.695,-1004.65"/>
</g>
<!-- Node4 -->
<g id="node4" class="node"><title>Node4</title>
<g id="a_node4"><a xlink:href="Task_8h.html" target="_top" xlink:title="/home/travis/build\l/hypro/hypro/src/hypro\l/datastructures/reachability\l/Task.h">
<polygon fill="white" stroke="black" points="142,-718 142,-770 290,-770 290,-718 142,-718"/>
<text text-anchor="start" x="150" y="-758" font-family="Helvetica,sans-Serif" font-size="10.00">/home/travis/build</text>
<text text-anchor="start" x="150" y="-747" font-family="Helvetica,sans-Serif" font-size="10.00">/hypro/hypro/src/hypro</text>
<text text-anchor="start" x="150" y="-736" font-family="Helvetica,sans-Serif" font-size="10.00">/datastructures/reachability</text>
<text text-anchor="middle" x="216" y="-725" font-family="Helvetica,sans-Serif" font-size="10.00">/Task.h</text>
</a>
</g>
</g>
<!-- Node3&#45;&gt;Node4 -->
<g id="edge3" class="edge"><title>Node3&#45;&gt;Node4</title>
<path fill="none" stroke="midnightblue" d="M480.574,-912.367C418.805,-873.292 313.137,-806.448 255.813,-770.185"/>
<polygon fill="midnightblue" stroke="midnightblue" points="479.036,-915.535 489.358,-917.923 482.778,-909.619 479.036,-915.535"/>
</g>
<!-- Node12 -->
<g id="node12" class="node"><title>Node12</title>
<g id="a_node12"><a xlink:href="ltiJumpHandler_8h.html" target="_top" xlink:title="/home/travis/build\l/hypro/hypro/src/hypro\l/algorithms/reachability\l/handlers/jumpHandlers/ltiJumpHandler.h">
<polygon fill="white" stroke="black" points="532,-623.5 532,-675.5 744,-675.5 744,-623.5 532,-623.5"/>
<text text-anchor="start" x="540" y="-663.5" font-family="Helvetica,sans-Serif" font-size="10.00">/home/travis/build</text>
<text text-anchor="start" x="540" y="-652.5" font-family="Helvetica,sans-Serif" font-size="10.00">/hypro/hypro/src/hypro</text>
<text text-anchor="start" x="540" y="-641.5" font-family="Helvetica,sans-Serif" font-size="10.00">/algorithms/reachability</text>
<text text-anchor="middle" x="638" y="-630.5" font-family="Helvetica,sans-Serif" font-size="10.00">/handlers/jumpHandlers/ltiJumpHandler.h</text>
</a>
</g>
</g>
<!-- Node3&#45;&gt;Node12 -->
<g id="edge33" class="edge"><title>Node3&#45;&gt;Node12</title>
<path fill="none" stroke="midnightblue" d="M520.439,-907.836C510.715,-858.956 501.151,-769.965 543,-712 553.696,-697.185 569.158,-685.018 584.512,-675.53"/>
<polygon fill="midnightblue" stroke="midnightblue" points="517.077,-908.855 522.562,-917.919 523.926,-907.413 517.077,-908.855"/>
</g>
<!-- Node15 -->
<g id="node15" class="node"><title>Node15</title>
<g id="a_node15"><a xlink:href="ReachTree_8h.html" target="_top" xlink:title="/home/travis/build\l/hypro/hypro/src/hypro\l/datastructures/reachability\l/ReachTree.h">
<polygon fill="white" stroke="black" points="576,-818 576,-870 724,-870 724,-818 576,-818"/>
<text text-anchor="start" x="584" y="-858" font-family="Helvetica,sans-Serif" font-size="10.00">/home/travis/build</text>
<text text-anchor="start" x="584" y="-847" font-family="Helvetica,sans-Serif" font-size="10.00">/hypro/hypro/src/hypro</text>
<text text-anchor="start" x="584" y="-836" font-family="Helvetica,sans-Serif" font-size="10.00">/datastructures/reachability</text>
<text text-anchor="middle" x="650" y="-825" font-family="Helvetica,sans-Serif" font-size="10.00">/ReachTree.h</text>
</a>
</g>
</g>
<!-- Node3&#45;&gt;Node15 -->
<g id="edge27" class="edge"><title>Node3&#45;&gt;Node15</title>
<path fill="none" stroke="midnightblue" d="M568.03,-911.389C584.511,-898.041 603.435,-882.714 618.945,-870.152"/>
<polygon fill="midnightblue" stroke="midnightblue" points="565.729,-908.749 560.161,-917.763 570.134,-914.189 565.729,-908.749"/>
</g>
<!-- Node16 -->
<g id="node16" class="node"><title>Node16</title>
<g id="a_node16"><a xlink:href="NodeManager_8h.html" target="_top" xlink:title="/home/travis/build\l/hypro/hypro/src/hypro\l/datastructures/reachability\l/NodeManager.h">
<polygon fill="white" stroke="black" points="728,-718 728,-770 876,-770 876,-718 728,-718"/>
<text text-anchor="start" x="736" y="-758" font-family="Helvetica,sans-Serif" font-size="10.00">/home/travis/build</text>
<text text-anchor="start" x="736" y="-747" font-family="Helvetica,sans-Serif" font-size="10.00">/hypro/hypro/src/hypro</text>
<text text-anchor="start" x="736" y="-736" font-family="Helvetica,sans-Serif" font-size="10.00">/datastructures/reachability</text>
<text text-anchor="middle" x="802" y="-725" font-family="Helvetica,sans-Serif" font-size="10.00">/NodeManager.h</text>
</a>
</g>
</g>
<!-- Node3&#45;&gt;Node16 -->
<g id="edge32" class="edge"><title>Node3&#45;&gt;Node16</title>
<path fill="none" stroke="midnightblue" d="M529.848,-907.652C532.497,-878.033 541.043,-836.733 567,-812 616.948,-764.407 651.964,-795.979 718,-776 723.951,-774.199 730.094,-772.205 736.222,-770.12"/>
<polygon fill="midnightblue" stroke="midnightblue" points="526.331,-907.761 529.117,-917.983 533.314,-908.255 526.331,-907.761"/>
</g>
<!-- Node17 -->
<g id="node17" class="node"><title>Node17</title>
<g id="a_node17"><a xlink:href="algorithms_2reachability_2handlers_2jumpHandlers_2util_8h.html" target="_top" xlink:title="/home/travis/build\l/hypro/hypro/src/hypro\l/algorithms/reachability\l/handlers/jumpHandlers/util.h">
<polygon fill="white" stroke="black" points="552.5,-718 552.5,-770 709.5,-770 709.5,-718 552.5,-718"/>
<text text-anchor="start" x="560.5" y="-758" font-family="Helvetica,sans-Serif" font-size="10.00">/home/travis/build</text>
<text text-anchor="start" x="560.5" y="-747" font-family="Helvetica,sans-Serif" font-size="10.00">/hypro/hypro/src/hypro</text>
<text text-anchor="start" x="560.5" y="-736" font-family="Helvetica,sans-Serif" font-size="10.00">/algorithms/reachability</text>
<text text-anchor="middle" x="631" y="-725" font-family="Helvetica,sans-Serif" font-size="10.00">/handlers/jumpHandlers/util.h</text>
</a>
</g>
</g>
<!-- Node3&#45;&gt;Node17 -->
<g id="edge34" class="edge"><title>Node3&#45;&gt;Node17</title>
<path fill="none" stroke="midnightblue" d="M522.17,-907.785C518.634,-880.035 517.922,-841.276 534,-812 543.606,-794.509 559.965,-780.623 576.54,-770.132"/>
<polygon fill="midnightblue" stroke="midnightblue" points="518.73,-908.448 523.635,-917.839 525.657,-907.439 518.73,-908.448"/>
</g>
<!-- Node5 -->
<g id="node5" class="node"><title>Node5</title>
<g id="a_node5"><a xlink:href="ContextFactory_8h.html" target="_top" xlink:title="/home/travis/build\l/hypro/hypro/src/hypro\l/algorithms/reachability\l/contexts/ContextFactory.h">
<polygon fill="white" stroke="black" points="342.5,-178.5 342.5,-230.5 485.5,-230.5 485.5,-178.5 342.5,-178.5"/>
<text text-anchor="start" x="350.5" y="-218.5" font-family="Helvetica,sans-Serif" font-size="10.00">/home/travis/build</text>
<text text-anchor="start" x="350.5" y="-207.5" font-family="Helvetica,sans-Serif" font-size="10.00">/hypro/hypro/src/hypro</text>
<text text-anchor="start" x="350.5" y="-196.5" font-family="Helvetica,sans-Serif" font-size="10.00">/algorithms/reachability</text>
<text text-anchor="middle" x="414" y="-185.5" font-family="Helvetica,sans-Serif" font-size="10.00">/contexts/ContextFactory.h</text>
</a>
</g>
</g>
<!-- Node4&#45;&gt;Node5 -->
<g id="edge4" class="edge"><title>Node4&#45;&gt;Node5</title>
<path fill="none" stroke="midnightblue" d="M214.074,-707.391C212.199,-650.154 213.509,-534.992 247,-445 279.62,-357.35 351.963,-271.64 389.829,-230.6"/>
<polygon fill="midnightblue" stroke="midnightblue" points="210.589,-707.854 214.468,-717.713 217.584,-707.587 210.589,-707.854"/>
</g>
<!-- Node6 -->
<g id="node6" class="node"><title>Node6</title>
<g id="a_node6"><a xlink:href="ContextBasedReachabilityWorker_8h.html" target="_top" xlink:title="/home/travis/build\l/hypro/hypro/src/hypro\l/algorithms/reachability\l/workers/ContextBasedReachability\lWorker.h">
<polygon fill="white" stroke="black" points="142.5,-78.5 142.5,-141.5 325.5,-141.5 325.5,-78.5 142.5,-78.5"/>
<text text-anchor="start" x="150.5" y="-129.5" font-family="Helvetica,sans-Serif" font-size="10.00">/home/travis/build</text>
<text text-anchor="start" x="150.5" y="-118.5" font-family="Helvetica,sans-Serif" font-size="10.00">/hypro/hypro/src/hypro</text>
<text text-anchor="start" x="150.5" y="-107.5" font-family="Helvetica,sans-Serif" font-size="10.00">/algorithms/reachability</text>
<text text-anchor="start" x="150.5" y="-96.5" font-family="Helvetica,sans-Serif" font-size="10.00">/workers/ContextBasedReachability</text>
<text text-anchor="middle" x="234" y="-85.5" font-family="Helvetica,sans-Serif" font-size="10.00">Worker.h</text>
</a>
</g>
</g>
<!-- Node4&#45;&gt;Node6 -->
<g id="edge24" class="edge"><title>Node4&#45;&gt;Node6</title>
<path fill="none" stroke="midnightblue" d="M207.93,-707.806C200.296,-671.395 190,-612.781 190,-561.5 190,-561.5 190,-561.5 190,-292.5 190,-238.191 208.837,-177.25 221.86,-141.605"/>
<polygon fill="midnightblue" stroke="midnightblue" points="204.578,-708.869 210.1,-717.911 211.422,-707.399 204.578,-708.869"/>
</g>
<!-- Node4&#45;&gt;Node7 -->
<g id="edge25" class="edge"><title>Node4&#45;&gt;Node7</title>
<path fill="none" stroke="midnightblue" d="M263.171,-711.561C276.451,-701.265 290.202,-689.079 301,-676 357.696,-607.327 371.96,-584.532 393,-498 398.565,-475.111 396.21,-468.336 393,-445 379.541,-347.142 346.459,-328.858 333,-231 329.79,-207.664 331.425,-201.503 333,-178 336.307,-128.648 345.435,-71.0993 350.5,-41.6155"/>
<polygon fill="midnightblue" stroke="midnightblue" points="260.878,-708.907 254.995,-717.719 265.089,-714.499 260.878,-708.907"/>
</g>
<!-- Node4&#45;&gt;Node8 -->
<g id="edge26" class="edge"><title>Node4&#45;&gt;Node8</title>
<path fill="none" stroke="midnightblue" d="M196.137,-708.86C177.346,-673.287 152,-615.328 152,-561.5 152,-561.5 152,-561.5 152,-381.5 152,-249.13 102.069,-95.1577 83.1499,-41.5677"/>
<polygon fill="midnightblue" stroke="midnightblue" points="193.159,-710.71 200.995,-717.841 199.316,-707.38 193.159,-710.71"/>
</g>
<!-- Node9 -->
<g id="node9" class="node"><title>Node9</title>
<g id="a_node9"><a xlink:href="IWorker_8h.html" target="_top" xlink:title="/home/travis/build\l/hypro/hypro/src/hypro\l/algorithms/reachability\l/workers/IWorker.h">
<polygon fill="white" stroke="black" points="256,-445.5 256,-497.5 384,-497.5 384,-445.5 256,-445.5"/>
<text text-anchor="start" x="264" y="-485.5" font-family="Helvetica,sans-Serif" font-size="10.00">/home/travis/build</text>
<text text-anchor="start" x="264" y="-474.5" font-family="Helvetica,sans-Serif" font-size="10.00">/hypro/hypro/src/hypro</text>
<text text-anchor="start" x="264" y="-463.5" font-family="Helvetica,sans-Serif" font-size="10.00">/algorithms/reachability</text>
<text text-anchor="middle" x="320" y="-452.5" font-family="Helvetica,sans-Serif" font-size="10.00">/workers/IWorker.h</text>
</a>
</g>
</g>
<!-- Node4&#45;&gt;Node9 -->
<g id="edge8" class="edge"><title>Node4&#45;&gt;Node9</title>
<path fill="none" stroke="midnightblue" d="M229.498,-708.298C233.529,-697.914 237.951,-686.498 242,-676 266.779,-611.751 295.749,-536.001 310.427,-497.576"/>
<polygon fill="midnightblue" stroke="midnightblue" points="226.136,-707.286 225.778,-717.875 232.661,-709.82 226.136,-707.286"/>
</g>
<!-- Node4&#45;&gt;Node10 -->
<g id="edge16" class="edge"><title>Node4&#45;&gt;Node10</title>
<path fill="none" stroke="midnightblue" d="M290.098,-714.732C293.094,-713.777 296.069,-712.862 299,-712 371.007,-690.815 411.045,-729.193 464,-676 537.246,-602.424 533.887,-465.283 528.912,-408.804"/>
<polygon fill="midnightblue" stroke="midnightblue" points="288.895,-711.443 280.493,-717.897 291.086,-718.091 288.895,-711.443"/>
</g>
<!-- Node4&#45;&gt;Node11 -->
<g id="edge23" class="edge"><title>Node4&#45;&gt;Node11</title>
<path fill="none" stroke="midnightblue" d="M241.091,-709.671C249.099,-698.956 257.966,-687.009 266,-676 323.287,-597.497 345.579,-582.828 393,-498 426.432,-438.197 412.346,-411.149 453,-356 463.03,-342.394 476.656,-329.867 489.42,-319.719"/>
<polygon fill="midnightblue" stroke="midnightblue" points="238.077,-707.857 234.885,-717.96 243.68,-712.053 238.077,-707.857"/>
</g>
<!-- Node4&#45;&gt;Node12 -->
<g id="edge17" class="edge"><title>Node4&#45;&gt;Node12</title>
<path fill="none" stroke="midnightblue" d="M289.297,-714.761C292.56,-713.777 295.804,-712.851 299,-712 394.32,-686.624 421.065,-694.256 518,-676 522.5,-675.152 527.091,-674.267 531.725,-673.357"/>
<polygon fill="midnightblue" stroke="midnightblue" points="287.966,-711.511 279.487,-717.864 290.077,-718.185 287.966,-711.511"/>
</g>
<!-- Node5&#45;&gt;Node6 -->
<g id="edge5" class="edge"><title>Node5&#45;&gt;Node6</title>
<path fill="none" stroke="midnightblue" d="M356.288,-173.842C336.284,-163.563 313.826,-152.022 293.668,-141.663"/>
<polygon fill="midnightblue" stroke="midnightblue" points="354.795,-177.01 365.289,-178.468 357.995,-170.784 354.795,-177.01"/>
</g>
<!-- Node6&#45;&gt;Node7 -->
<g id="edge6" class="edge"><title>Node6&#45;&gt;Node7</title>
<path fill="none" stroke="midnightblue" d="M284.749,-72.2067C299.278,-61.6736 314.548,-50.603 327.04,-41.5457"/>
<polygon fill="midnightblue" stroke="midnightblue" points="282.349,-69.6237 276.308,-78.3271 286.458,-75.291 282.349,-69.6237"/>
</g>
<!-- Node6&#45;&gt;Node8 -->
<g id="edge7" class="edge"><title>Node6&#45;&gt;Node8</title>
<path fill="none" stroke="midnightblue" d="M169.321,-73.3856C149.559,-62.5042 128.561,-50.9416 111.497,-41.5457"/>
<polygon fill="midnightblue" stroke="midnightblue" points="167.847,-76.5695 178.295,-78.3271 171.224,-70.4376 167.847,-76.5695"/>
</g>
<!-- Node9&#45;&gt;Node5 -->
<g id="edge9" class="edge"><title>Node9&#45;&gt;Node5</title>
<path fill="none" stroke="midnightblue" d="M332.39,-435.57C351.602,-381.409 388.121,-278.457 405.014,-230.832"/>
<polygon fill="midnightblue" stroke="midnightblue" points="329.058,-434.496 329.013,-445.091 335.655,-436.836 329.058,-434.496"/>
</g>
<!-- Node9&#45;&gt;Node6 -->
<g id="edge15" class="edge"><title>Node9&#45;&gt;Node6</title>
<path fill="none" stroke="midnightblue" d="M311.527,-435.081C294.682,-364.666 257.244,-208.167 241.357,-141.755"/>
<polygon fill="midnightblue" stroke="midnightblue" points="308.222,-436.309 313.953,-445.221 315.03,-434.681 308.222,-436.309"/>
</g>
<!-- Node9&#45;&gt;Node10 -->
<g id="edge10" class="edge"><title>Node9&#45;&gt;Node10</title>
<path fill="none" stroke="midnightblue" d="M388.819,-441.436C414.071,-430.771 442.415,-418.8 466.755,-408.521"/>
<polygon fill="midnightblue" stroke="midnightblue" points="387.158,-438.338 379.307,-445.453 389.881,-444.786 387.158,-438.338"/>
</g>
<!-- Node9&#45;&gt;Node11 -->
<g id="edge14" class="edge"><title>Node9&#45;&gt;Node11</title>
<path fill="none" stroke="midnightblue" d="M344.533,-436.904C363.385,-412.564 391.032,-379.874 420,-356 436.747,-342.198 456.976,-329.631 475.254,-319.506"/>
<polygon fill="midnightblue" stroke="midnightblue" points="341.533,-435.065 338.243,-445.137 347.095,-439.315 341.533,-435.065"/>
</g>
<!-- Node10&#45;&gt;Node5 -->
<g id="edge11" class="edge"><title>Node10&#45;&gt;Node5</title>
<path fill="none" stroke="midnightblue" d="M475.592,-349.965C464.925,-341.347 454.608,-331.241 447,-320 428.564,-292.759 420.299,-255.187 416.683,-230.626"/>
<polygon fill="midnightblue" stroke="midnightblue" points="473.716,-352.937 483.777,-356.258 477.983,-347.388 473.716,-352.937"/>
</g>
<!-- Node10&#45;&gt;Node11 -->
<g id="edge12" class="edge"><title>Node10&#45;&gt;Node11</title>
<path fill="none" stroke="midnightblue" d="M526,-346.191C526,-337.282 526,-327.899 526,-319.607"/>
<polygon fill="midnightblue" stroke="midnightblue" points="522.5,-346.336 526,-356.336 529.5,-346.336 522.5,-346.336"/>
</g>
<!-- Node11&#45;&gt;Node5 -->
<g id="edge13" class="edge"><title>Node11&#45;&gt;Node5</title>
<path fill="none" stroke="midnightblue" d="M485.364,-260.934C472.518,-250.956 458.504,-240.07 446.322,-230.607"/>
<polygon fill="midnightblue" stroke="midnightblue" points="483.561,-263.966 493.605,-267.336 487.855,-258.437 483.561,-263.966"/>
</g>
<!-- Node13 -->
<g id="node13" class="node"><title>Node13</title>
<g id="a_node13"><a xlink:href="JumpHandlers_8h.html" target="_top" xlink:title="/home/travis/build\l/hypro/hypro/src/hypro\l/algorithms/reachability\l/handlers/jumpHandlers/JumpHandlers.h">
<polygon fill="white" stroke="black" points="629.5,-534.5 629.5,-586.5 838.5,-586.5 838.5,-534.5 629.5,-534.5"/>
<text text-anchor="start" x="637.5" y="-574.5" font-family="Helvetica,sans-Serif" font-size="10.00">/home/travis/build</text>
<text text-anchor="start" x="637.5" y="-563.5" font-family="Helvetica,sans-Serif" font-size="10.00">/hypro/hypro/src/hypro</text>
<text text-anchor="start" x="637.5" y="-552.5" font-family="Helvetica,sans-Serif" font-size="10.00">/algorithms/reachability</text>
<text text-anchor="middle" x="734" y="-541.5" font-family="Helvetica,sans-Serif" font-size="10.00">/handlers/jumpHandlers/JumpHandlers.h</text>
</a>
</g>
</g>
<!-- Node12&#45;&gt;Node13 -->
<g id="edge18" class="edge"><title>Node12&#45;&gt;Node13</title>
<path fill="none" stroke="midnightblue" d="M673.461,-616.363C684.298,-606.542 696.052,-595.89 706.295,-586.607"/>
<polygon fill="midnightblue" stroke="midnightblue" points="670.827,-614.027 665.767,-623.336 675.527,-619.214 670.827,-614.027"/>
</g>
<!-- Node14 -->
<g id="node14" class="node"><title>Node14</title>
<g id="a_node14"><a xlink:href="HandlerFactory_8h.html" target="_top" xlink:title="/home/travis/build\l/hypro/hypro/src/hypro\l/algorithms/reachability\l/handlers/HandlerFactory.h">
<polygon fill="white" stroke="black" points="554.5,-445.5 554.5,-497.5 697.5,-497.5 697.5,-445.5 554.5,-445.5"/>
<text text-anchor="start" x="562.5" y="-485.5" font-family="Helvetica,sans-Serif" font-size="10.00">/home/travis/build</text>
<text text-anchor="start" x="562.5" y="-474.5" font-family="Helvetica,sans-Serif" font-size="10.00">/hypro/hypro/src/hypro</text>
<text text-anchor="start" x="562.5" y="-463.5" font-family="Helvetica,sans-Serif" font-size="10.00">/algorithms/reachability</text>
<text text-anchor="middle" x="626" y="-452.5" font-family="Helvetica,sans-Serif" font-size="10.00">/handlers/HandlerFactory.h</text>
</a>
</g>
</g>
<!-- Node13&#45;&gt;Node14 -->
<g id="edge19" class="edge"><title>Node13&#45;&gt;Node14</title>
<path fill="none" stroke="midnightblue" d="M694.815,-527.934C682.428,-517.956 668.915,-507.07 657.168,-497.607"/>
<polygon fill="midnightblue" stroke="midnightblue" points="692.779,-530.788 702.762,-534.336 697.17,-525.337 692.779,-530.788"/>
</g>
<!-- Node14&#45;&gt;Node10 -->
<g id="edge20" class="edge"><title>Node14&#45;&gt;Node10</title>
<path fill="none" stroke="midnightblue" d="M589.39,-438.649C578.01,-428.749 565.632,-417.98 554.859,-408.607"/>
<polygon fill="midnightblue" stroke="midnightblue" points="587.234,-441.413 597.076,-445.336 591.829,-436.132 587.234,-441.413"/>
</g>
<!-- Node14&#45;&gt;Node11 -->
<g id="edge22" class="edge"><title>Node14&#45;&gt;Node11</title>
<path fill="none" stroke="midnightblue" d="M623.462,-435.059C620.416,-411.241 613.72,-379.947 599,-356 590.409,-342.023 577.545,-329.659 564.998,-319.751"/>
<polygon fill="midnightblue" stroke="midnightblue" points="619.994,-435.547 624.588,-445.095 626.951,-434.767 619.994,-435.547"/>
</g>
<!-- Node14&#45;&gt;Node12 -->
<g id="edge21" class="edge"><title>Node14&#45;&gt;Node12</title>
<path fill="none" stroke="midnightblue" d="M620.621,-507.835C618.032,-530.548 616.221,-560.634 620,-587 621.752,-599.224 625.369,-612.41 628.904,-623.425"/>
<polygon fill="midnightblue" stroke="midnightblue" points="624.128,-507.998 621.891,-497.642 617.181,-507.133 624.128,-507.998"/>
</g>
<!-- Node15&#45;&gt;Node7 -->
<g id="edge30" class="edge"><title>Node15&#45;&gt;Node7</title>
<path fill="none" stroke="midnightblue" d="M733.995,-817.886C741.42,-815.833 748.834,-813.842 756,-812 827.434,-793.639 860.834,-822.605 918,-776 955.044,-745.8 1094,-431.295 1094,-383.5 1094,-383.5 1094,-383.5 1094,-203.5 1094,-132.181 1056.84,-111.731 994,-78 902.852,-29.0733 607.76,-21.6488 452.141,-21.2701"/>
<polygon fill="midnightblue" stroke="midnightblue" points="732.935,-814.549 724.248,-820.614 734.821,-821.29 732.935,-814.549"/>
</g>
<!-- Node15&#45;&gt;Node8 -->
<g id="edge31" class="edge"><title>Node15&#45;&gt;Node8</title>
<path fill="none" stroke="midnightblue" d="M733.907,-818.357C741.375,-816.196 748.822,-814.051 756,-812 813.233,-795.646 842.259,-817.428 885,-776 910.373,-751.407 980,-507.836 980,-472.5 980,-472.5 980,-472.5 980,-203.5 980,-160.554 344.597,-62.0456 139.208,-31.3252"/>
<polygon fill="midnightblue" stroke="midnightblue" points="732.727,-815.055 724.099,-821.203 734.678,-821.778 732.727,-815.055"/>
</g>
<!-- Node15&#45;&gt;Node16 -->
<g id="edge28" class="edge"><title>Node15&#45;&gt;Node16</title>
<path fill="none" stroke="midnightblue" d="M697.622,-812.296C718.65,-798.739 743.063,-782.999 762.989,-770.152"/>
<polygon fill="midnightblue" stroke="midnightblue" points="695.652,-809.402 689.144,-817.763 699.445,-815.285 695.652,-809.402"/>
</g>
<!-- Node16&#45;&gt;Node12 -->
<g id="edge29" class="edge"><title>Node16&#45;&gt;Node12</title>
<path fill="none" stroke="midnightblue" d="M748.645,-712.907C727.233,-700.829 702.84,-687.071 682.416,-675.552"/>
<polygon fill="midnightblue" stroke="midnightblue" points="747.19,-716.104 757.619,-717.968 750.629,-710.007 747.19,-716.104"/>
</g>
<!-- Node17&#45;&gt;Node12 -->
<g id="edge35" class="edge"><title>Node17&#45;&gt;Node12</title>
<path fill="none" stroke="midnightblue" d="M633.687,-707.493C634.488,-696.909 635.349,-685.531 636.09,-675.745"/>
<polygon fill="midnightblue" stroke="midnightblue" points="630.177,-707.488 632.913,-717.724 637.157,-708.017 630.177,-707.488"/>
</g>
<!-- Node18&#45;&gt;Node7 -->
<g id="edge41" class="edge"><title>Node18&#45;&gt;Node7</title>
<path fill="none" stroke="midnightblue" d="M111.177,-807.578C112.357,-768.962 114,-705.346 114,-650.5 114,-650.5 114,-650.5 114,-203.5 114,-147.087 95.1097,-119.795 133,-78 149.981,-59.2694 205.048,-45.2874 255.962,-35.9791"/>
<polygon fill="midnightblue" stroke="midnightblue" points="107.672,-807.674 110.858,-817.778 114.669,-807.892 107.672,-807.674"/>
</g>
<!-- Node18&#45;&gt;Node8 -->
<g id="edge42" class="edge"><title>Node18&#45;&gt;Node8</title>
<path fill="none" stroke="midnightblue" d="M88.8235,-809.022C67.5826,-771.633 38,-709.051 38,-650.5 38,-650.5 38,-650.5 38,-203.5 38,-143.459 58.1679,-74.5711 69.1185,-41.5925"/>
<polygon fill="midnightblue" stroke="midnightblue" points="85.9707,-811.078 94.0209,-817.967 92.0231,-807.562 85.9707,-811.078"/>
</g>
<!-- Node18&#45;&gt;Node10 -->
<g id="edge38" class="edge"><title>Node18&#45;&gt;Node10</title>
<path fill="none" stroke="midnightblue" d="M109.664,-807.783C110.871,-780.032 115.929,-741.272 133,-712 208.398,-582.716 278.504,-594.384 393,-498 429.129,-467.586 470.265,-432.027 497.1,-408.702"/>
<polygon fill="midnightblue" stroke="midnightblue" points="106.164,-807.74 109.373,-817.837 113.161,-807.943 106.164,-807.74"/>
</g>
<!-- Node19 -->
<g id="node19" class="node"><title>Node19</title>
<g id="a_node19"><a xlink:href="timingUtil_8h.html" target="_top" xlink:title="/home/travis/build\l/hypro/hypro/src/hypro\l/algorithms/reachability\l/handlers/jumpHandlers/timingUtil.h">
<polygon fill="white" stroke="black" points="308,-718 308,-770 496,-770 496,-718 308,-718"/>
<text text-anchor="start" x="316" y="-758" font-family="Helvetica,sans-Serif" font-size="10.00">/home/travis/build</text>
<text text-anchor="start" x="316" y="-747" font-family="Helvetica,sans-Serif" font-size="10.00">/hypro/hypro/src/hypro</text>
<text text-anchor="start" x="316" y="-736" font-family="Helvetica,sans-Serif" font-size="10.00">/algorithms/reachability</text>
<text text-anchor="middle" x="402" y="-725" font-family="Helvetica,sans-Serif" font-size="10.00">/handlers/jumpHandlers/timingUtil.h</text>
</a>
</g>
</g>
<!-- Node18&#45;&gt;Node19 -->
<g id="edge39" class="edge"><title>Node18&#45;&gt;Node19</title>
<path fill="none" stroke="midnightblue" d="M194.475,-814.649C236.482,-800.551 286.806,-783.661 327.376,-770.045"/>
<polygon fill="midnightblue" stroke="midnightblue" points="193.185,-811.39 184.818,-817.89 195.412,-818.026 193.185,-811.39"/>
</g>
<!-- Node19&#45;&gt;Node12 -->
<g id="edge40" class="edge"><title>Node19&#45;&gt;Node12</title>
<path fill="none" stroke="midnightblue" d="M475.494,-714.194C507.077,-701.815 543.644,-687.483 574.084,-675.552"/>
<polygon fill="midnightblue" stroke="midnightblue" points="473.898,-711.06 465.865,-717.968 476.453,-717.578 473.898,-711.06"/>
</g>
<!-- Node21 -->
<g id="node21" class="node"><title>Node21</title>
<g id="a_node21"><a xlink:href="discreteGuardHandler_8h.html" target="_top" xlink:title="/home/travis/build\l/hypro/hypro/src/hypro\l/algorithms/reachability\l/handlers/guardHandlers\l/discreteGuardHandler.h">
<polygon fill="white" stroke="black" points="932,-812.5 932,-875.5 1066,-875.5 1066,-812.5 932,-812.5"/>
<text text-anchor="start" x="940" y="-863.5" font-family="Helvetica,sans-Serif" font-size="10.00">/home/travis/build</text>
<text text-anchor="start" x="940" y="-852.5" font-family="Helvetica,sans-Serif" font-size="10.00">/hypro/hypro/src/hypro</text>
<text text-anchor="start" x="940" y="-841.5" font-family="Helvetica,sans-Serif" font-size="10.00">/algorithms/reachability</text>
<text text-anchor="start" x="940" y="-830.5" font-family="Helvetica,sans-Serif" font-size="10.00">/handlers/guardHandlers</text>
<text text-anchor="middle" x="999" y="-819.5" font-family="Helvetica,sans-Serif" font-size="10.00">/discreteGuardHandler.h</text>
</a>
</g>
</g>
<!-- Node20&#45;&gt;Node21 -->
<g id="edge44" class="edge"><title>Node20&#45;&gt;Node21</title>
<path fill="none" stroke="midnightblue" d="M903.33,-906.682C919.166,-896.472 936.226,-885.473 951.492,-875.63"/>
<polygon fill="midnightblue" stroke="midnightblue" points="901.185,-903.901 894.677,-912.261 904.978,-909.784 901.185,-903.901"/>
</g>
<!-- Node22 -->
<g id="node22" class="node"><title>Node22</title>
<g id="a_node22"><a xlink:href="GuardHandlers_8h.html" target="_top" xlink:title="/home/travis/build\l/hypro/hypro/src/hypro\l/algorithms/reachability\l/handlers/guardHandlers\l/GuardHandlers.h">
<polygon fill="white" stroke="black" points="970,-712.5 970,-775.5 1104,-775.5 1104,-712.5 970,-712.5"/>
<text text-anchor="start" x="978" y="-763.5" font-family="Helvetica,sans-Serif" font-size="10.00">/home/travis/build</text>
<text text-anchor="start" x="978" y="-752.5" font-family="Helvetica,sans-Serif" font-size="10.00">/hypro/hypro/src/hypro</text>
<text text-anchor="start" x="978" y="-741.5" font-family="Helvetica,sans-Serif" font-size="10.00">/algorithms/reachability</text>
<text text-anchor="start" x="978" y="-730.5" font-family="Helvetica,sans-Serif" font-size="10.00">/handlers/guardHandlers</text>
<text text-anchor="middle" x="1037" y="-719.5" font-family="Helvetica,sans-Serif" font-size="10.00">/GuardHandlers.h</text>
</a>
</g>
</g>
<!-- Node20&#45;&gt;Node22 -->
<g id="edge48" class="edge"><title>Node20&#45;&gt;Node22</title>
<path fill="none" stroke="midnightblue" d="M792.19,-905.296C783.585,-896.729 775.92,-886.896 771,-876 759.294,-850.076 752.909,-833.95 771,-812 824.274,-747.36 875.471,-799.057 956,-776 960.487,-774.715 965.076,-773.287 969.675,-771.769"/>
<polygon fill="midnightblue" stroke="midnightblue" points="789.895,-907.941 799.6,-912.19 794.662,-902.816 789.895,-907.941"/>
</g>
<!-- Node23 -->
<g id="node23" class="node"><title>Node23</title>
<g id="a_node23"><a xlink:href="timedGuardHandler_8h.html" target="_top" xlink:title="/home/travis/build\l/hypro/hypro/src/hypro\l/algorithms/reachability\l/handlers/guardHandlers\l/timedGuardHandler.h">
<polygon fill="white" stroke="black" points="780,-812.5 780,-875.5 914,-875.5 914,-812.5 780,-812.5"/>
<text text-anchor="start" x="788" y="-863.5" font-family="Helvetica,sans-Serif" font-size="10.00">/home/travis/build</text>
<text text-anchor="start" x="788" y="-852.5" font-family="Helvetica,sans-Serif" font-size="10.00">/hypro/hypro/src/hypro</text>
<text text-anchor="start" x="788" y="-841.5" font-family="Helvetica,sans-Serif" font-size="10.00">/algorithms/reachability</text>
<text text-anchor="start" x="788" y="-830.5" font-family="Helvetica,sans-Serif" font-size="10.00">/handlers/guardHandlers</text>
<text text-anchor="middle" x="847" y="-819.5" font-family="Helvetica,sans-Serif" font-size="10.00">/timedGuardHandler.h</text>
</a>
</g>
</g>
<!-- Node20&#45;&gt;Node23 -->
<g id="edge49" class="edge"><title>Node20&#45;&gt;Node23</title>
<path fill="none" stroke="midnightblue" d="M847,-902.099C847,-893.238 847,-884.015 847,-875.63"/>
<polygon fill="midnightblue" stroke="midnightblue" points="843.5,-902.261 847,-912.261 850.5,-902.261 843.5,-902.261"/>
</g>
<!-- Node21&#45;&gt;Node22 -->
<g id="edge45" class="edge"><title>Node21&#45;&gt;Node22</title>
<path fill="none" stroke="midnightblue" d="M1014.64,-802.676C1018.14,-793.64 1021.8,-784.197 1025.12,-775.63"/>
<polygon fill="midnightblue" stroke="midnightblue" points="1011.27,-801.672 1010.92,-812.261 1017.8,-804.203 1011.27,-801.672"/>
</g>
<!-- Node22&#45;&gt;Node10 -->
<g id="edge47" class="edge"><title>Node22&#45;&gt;Node10</title>
<path fill="none" stroke="midnightblue" d="M1024.05,-702.855C1015.16,-678.538 1001.91,-647.577 985,-623 952.931,-576.396 940.427,-566.326 894,-534 797.7,-466.95 667.018,-422.583 590.084,-400.341"/>
<polygon fill="midnightblue" stroke="midnightblue" points="1020.83,-704.243 1027.48,-712.494 1027.43,-701.899 1020.83,-704.243"/>
</g>
<!-- Node22&#45;&gt;Node14 -->
<g id="edge46" class="edge"><title>Node22&#45;&gt;Node14</title>
<path fill="none" stroke="midnightblue" d="M1011.87,-704.003C979.422,-656.77 918.531,-578.073 847,-534 801.48,-505.954 742.926,-490.41 697.526,-481.969"/>
<polygon fill="midnightblue" stroke="midnightblue" points="1009.09,-706.131 1017.6,-712.441 1014.88,-702.201 1009.09,-706.131"/>
</g>
<!-- Node23&#45;&gt;Node22 -->
<g id="edge50" class="edge"><title>Node23&#45;&gt;Node22</title>
<path fill="none" stroke="midnightblue" d="M915.282,-807.781C935.729,-797.234 957.975,-785.76 977.788,-775.541"/>
<polygon fill="midnightblue" stroke="midnightblue" points="913.619,-804.701 906.336,-812.395 916.828,-810.922 913.619,-804.701"/>
</g>
<!-- Node24&#45;&gt;Node22 -->
<g id="edge52" class="edge"><title>Node24&#45;&gt;Node22</title>
<path fill="none" stroke="midnightblue" d="M1058.86,-904.262C1065.47,-895.635 1071.36,-886.043 1075,-876 1084.7,-849.262 1082.26,-839.503 1075,-812 1071.66,-799.329 1065.3,-786.54 1058.74,-775.581"/>
<polygon fill="midnightblue" stroke="midnightblue" points="1055.97,-902.265 1052.35,-912.221 1061.39,-906.699 1055.97,-902.265"/>
</g>
</g>
</svg>
        <g id="navigator" transform="translate(0 0)" fill="#404254">
                <rect fill="#f2f5e9" fill-opacity="0.5" stroke="#606060" stroke-width=".5" x="0" y="0" width="60" height="60"/>
                <use id="zoomplus" xlink:href="#zoomPlus" x="17" y="9" onmousedown="handleZoom(evt,'in')"/>
                <use id="zoomminus" xlink:href="#zoomMin" x="42" y="9" onmousedown="handleZoom(evt,'out')"/>
                <use id="reset" xlink:href="#resetDef" x="30" y="36" onmousedown="handleReset()"/>
                <g id="arrowUp" xlink:href="#dirArrow" transform="translate(30 24)" onmousedown="handlePan(0,-1)">
                  <use xlink:href="#rim" fill="#404040">
                        <set attributeName="fill" to="#808080" begin="arrowUp.mouseover" end="arrowUp.mouseout"/>
                  </use>
                  <path fill="none" stroke="white" stroke-width="1.5" d="M0,-3.0v7 M-2.5,-0.5L0,-3.0L2.5,-0.5"/>
                </g>
                <g id="arrowRight" xlink:href="#dirArrow" transform="rotate(90) translate(36 -43)" onmousedown="handlePan(1,0)">
                  <use xlink:href="#rim" fill="#404040">
                        <set attributeName="fill" to="#808080" begin="arrowRight.mouseover" end="arrowRight.mouseout"/>
                  </use>
                  <path fill="none" stroke="white" stroke-width="1.5" d="M0,-3.0v7 M-2.5,-0.5L0,-3.0L2.5,-0.5"/>
                </g>
                <g id="arrowDown" xlink:href="#dirArrow" transform="rotate(180) translate(-30 -48)" onmousedown="handlePan(0,1)">
                  <use xlink:href="#rim" fill="#404040">
                        <set attributeName="fill" to="#808080" begin="arrowDown.mouseover" end="arrowDown.mouseout"/>
                  </use>
                  <path fill="none" stroke="white" stroke-width="1.5" d="M0,-3.0v7 M-2.5,-0.5L0,-3.0L2.5,-0.5"/>
                </g>
                <g id="arrowLeft" xlink:href="#dirArrow" transform="rotate(270) translate(-36 17)" onmousedown="handlePan(-1,0)">
                  <use xlink:href="#rim" fill="#404040">
                        <set attributeName="fill" to="#808080" begin="arrowLeft.mouseover" end="arrowLeft.mouseout"/>
                  </use>
                  <path fill="none" stroke="white" stroke-width="1.5" d="M0,-3.0v7 M-2.5,-0.5L0,-3.0L2.5,-0.5"/>
                </g>
        </g>
        <svg viewBox="0 0 15 15" width="100%" height="30px" preserveAspectRatio="xMaxYMin meet">
         <g id="arrow_out" transform="scale(0.3 0.3)">
          <a xlink:href="Filewriter_8h__dep__incl_org.svg" target="_base">
           <rect id="button" ry="5" rx="5" y="6" x="6" height="38" width="38"
                fill="#f2f5e9" fill-opacity="0.5" stroke="#606060" stroke-width="1.0"/>
           <path id="arrow"
             d="M 11.500037,31.436501 C 11.940474,20.09759 22.043105,11.32322 32.158766,21.979434 L 37.068811,17.246167 C 37.068811,17.246167 37.088388,32 37.088388,32 L 22.160133,31.978069 C 22.160133,31.978069 26.997745,27.140456 26.997745,27.140456 C 18.528582,18.264221 13.291696,25.230495 11.500037,31.436501 z"
             style="fill:#404040;"/>
          </a>
         </g>
        </svg>
</svg>
