<?xml version="1.0" encoding="UTF-8" standalone="no"?>
<!DOCTYPE svg PUBLIC "-//W3C//DTD SVG 1.1//EN"
 "http://www.w3.org/Graphics/SVG/1.1/DTD/svg11.dtd">
<!-- Generated by graphviz version 2.38.0 (20140413.2041)
 -->
<!-- Title: /home/travis/build/hypro/hypro/src/hypro/algorithms/reachability/FirstSegment.h Pages: 1 -->
<svg width="860pt" height="228pt"
 viewBox="0.00 0.00 860.00 228.00" xmlns="http://www.w3.org/2000/svg" xmlns:xlink="http://www.w3.org/1999/xlink">
<g id="graph0" class="graph" transform="scale(1 1) rotate(0) translate(4 224)">
<title>/home/travis/build/hypro/hypro/src/hypro/algorithms/reachability/FirstSegment.h</title>
<polygon fill="white" stroke="none" points="-4,4 -4,-224 856,-224 856,4 -4,4"/>
<!-- Node1 -->
<g id="node1" class="node"><title>Node1</title>
<polygon fill="#bfbfbf" stroke="black" points="362,-167.5 362,-219.5 490,-219.5 490,-167.5 362,-167.5"/>
<text text-anchor="start" x="370" y="-207.5" font-family="Helvetica,sans-Serif" font-size="10.00">/home/travis/build</text>
<text text-anchor="start" x="370" y="-196.5" font-family="Helvetica,sans-Serif" font-size="10.00">/hypro/hypro/src/hypro</text>
<text text-anchor="start" x="370" y="-185.5" font-family="Helvetica,sans-Serif" font-size="10.00">/algorithms/reachability</text>
<text text-anchor="middle" x="426" y="-174.5" font-family="Helvetica,sans-Serif" font-size="10.00">/FirstSegment.h</text>
</g>
<!-- Node2 -->
<g id="node2" class="node"><title>Node2</title>
<g id="a_node2"><a xlink:href="Reach_8h.html" target="_top" xlink:title="/home/travis/build\l/hypro/hypro/src/hypro\l/algorithms/reachability\l/Reach.h">
<polygon fill="white" stroke="black" points="362,-78.5 362,-130.5 490,-130.5 490,-78.5 362,-78.5"/>
<text text-anchor="start" x="370" y="-118.5" font-family="Helvetica,sans-Serif" font-size="10.00">/home/travis/build</text>
<text text-anchor="start" x="370" y="-107.5" font-family="Helvetica,sans-Serif" font-size="10.00">/hypro/hypro/src/hypro</text>
<text text-anchor="start" x="370" y="-96.5" font-family="Helvetica,sans-Serif" font-size="10.00">/algorithms/reachability</text>
<text text-anchor="middle" x="426" y="-85.5" font-family="Helvetica,sans-Serif" font-size="10.00">/Reach.h</text>
</a>
</g>
</g>
<!-- Node1&#45;&gt;Node2 -->
<g id="edge1" class="edge"><title>Node1&#45;&gt;Node2</title>
<path fill="none" stroke="midnightblue" d="M426,-157.191C426,-148.282 426,-138.899 426,-130.607"/>
<polygon fill="midnightblue" stroke="midnightblue" points="422.5,-157.336 426,-167.336 429.5,-157.336 422.5,-157.336"/>
</g>
<!-- Node3 -->
<g id="node3" class="node"><title>Node3</title>
<g id="a_node3"><a xlink:href="example__backwardsAnalysis_8cpp.html" target="_top" xlink:title="/home/travis/build\l/hypro/hypro/examples\l/example_backwardsAnalysis.cpp">
<polygon fill="white" stroke="black" points="0,-0.5 0,-41.5 176,-41.5 176,-0.5 0,-0.5"/>
<text text-anchor="start" x="8" y="-29.5" font-family="Helvetica,sans-Serif" font-size="10.00">/home/travis/build</text>
<text text-anchor="start" x="8" y="-18.5" font-family="Helvetica,sans-Serif" font-size="10.00">/hypro/hypro/examples</text>
<text text-anchor="middle" x="88" y="-7.5" font-family="Helvetica,sans-Serif" font-size="10.00">/example_backwardsAnalysis.cpp</text>
</a>
</g>
</g>
<!-- Node2&#45;&gt;Node3 -->
<g id="edge2" class="edge"><title>Node2&#45;&gt;Node3</title>
<path fill="none" stroke="midnightblue" d="M351.777,-85.6031C297.781,-72.5833 224.708,-54.9636 169.165,-41.5709"/>
<polygon fill="midnightblue" stroke="midnightblue" points="351.087,-89.037 361.629,-87.9786 352.728,-82.232 351.087,-89.037"/>
</g>
<!-- Node4 -->
<g id="node4" class="node"><title>Node4</title>
<g id="a_node4"><a xlink:href="example__benchmark_8cpp.html" target="_top" xlink:title="/home/travis/build\l/hypro/hypro/examples\l/example_benchmark.cpp">
<polygon fill="white" stroke="black" points="194,-0.5 194,-41.5 334,-41.5 334,-0.5 194,-0.5"/>
<text text-anchor="start" x="202" y="-29.5" font-family="Helvetica,sans-Serif" font-size="10.00">/home/travis/build</text>
<text text-anchor="start" x="202" y="-18.5" font-family="Helvetica,sans-Serif" font-size="10.00">/hypro/hypro/examples</text>
<text text-anchor="middle" x="264" y="-7.5" font-family="Helvetica,sans-Serif" font-size="10.00">/example_benchmark.cpp</text>
</a>
</g>
</g>
<!-- Node2&#45;&gt;Node4 -->
<g id="edge3" class="edge"><title>Node2&#45;&gt;Node4</title>
<path fill="none" stroke="midnightblue" d="M367.079,-73.8574C345.731,-63.1176 322.168,-51.2634 302.965,-41.6027"/>
<polygon fill="midnightblue" stroke="midnightblue" points="365.567,-77.0147 376.073,-78.3823 368.713,-70.7614 365.567,-77.0147"/>
</g>
<!-- Node5 -->
<g id="node5" class="node"><title>Node5</title>
<g id="a_node5"><a xlink:href="example__bouncingBall_8cpp.html" target="_top" xlink:title="/home/travis/build\l/hypro/hypro/examples\l/example_bouncingBall.cpp">
<polygon fill="white" stroke="black" points="352.5,-0.5 352.5,-41.5 499.5,-41.5 499.5,-0.5 352.5,-0.5"/>
<text text-anchor="start" x="360.5" y="-29.5" font-family="Helvetica,sans-Serif" font-size="10.00">/home/travis/build</text>
<text text-anchor="start" x="360.5" y="-18.5" font-family="Helvetica,sans-Serif" font-size="10.00">/hypro/hypro/examples</text>
<text text-anchor="middle" x="426" y="-7.5" font-family="Helvetica,sans-Serif" font-size="10.00">/example_bouncingBall.cpp</text>
</a>
</g>
</g>
<!-- Node2&#45;&gt;Node5 -->
<g id="edge4" class="edge"><title>Node2&#45;&gt;Node5</title>
<path fill="none" stroke="midnightblue" d="M426,-68.1474C426,-59.0546 426,-49.5968 426,-41.6282"/>
<polygon fill="midnightblue" stroke="midnightblue" points="422.5,-68.1596 426,-78.1596 429.5,-68.1597 422.5,-68.1596"/>
</g>
<!-- Node6 -->
<g id="node6" class="node"><title>Node6</title>
<g id="a_node6"><a xlink:href="example__dynamicStrategies_8cpp.html" target="_top" xlink:title="/home/travis/build\l/hypro/hypro/examples\l/example_dynamicStrategies.cpp">
<polygon fill="white" stroke="black" points="518,-0.5 518,-41.5 694,-41.5 694,-0.5 518,-0.5"/>
<text text-anchor="start" x="526" y="-29.5" font-family="Helvetica,sans-Serif" font-size="10.00">/home/travis/build</text>
<text text-anchor="start" x="526" y="-18.5" font-family="Helvetica,sans-Serif" font-size="10.00">/hypro/hypro/examples</text>
<text text-anchor="middle" x="606" y="-7.5" font-family="Helvetica,sans-Serif" font-size="10.00">/example_dynamicStrategies.cpp</text>
</a>
</g>
</g>
<!-- Node2&#45;&gt;Node6 -->
<g id="edge5" class="edge"><title>Node2&#45;&gt;Node6</title>
<path fill="none" stroke="midnightblue" d="M490.834,-74.1448C514.72,-63.3295 541.179,-51.3496 562.706,-41.6027"/>
<polygon fill="midnightblue" stroke="midnightblue" points="489.141,-71.0692 481.475,-78.3823 492.028,-77.446 489.141,-71.0692"/>
</g>
<!-- Node7 -->
<g id="node7" class="node"><title>Node7</title>
<g id="a_node7"><a xlink:href="example__reachability_8cpp.html" target="_top" xlink:title="/home/travis/build\l/hypro/hypro/examples\l/example_reachability.cpp">
<polygon fill="white" stroke="black" points="712,-0.5 712,-41.5 852,-41.5 852,-0.5 712,-0.5"/>
<text text-anchor="start" x="720" y="-29.5" font-family="Helvetica,sans-Serif" font-size="10.00">/home/travis/build</text>
<text text-anchor="start" x="720" y="-18.5" font-family="Helvetica,sans-Serif" font-size="10.00">/hypro/hypro/examples</text>
<text text-anchor="middle" x="782" y="-7.5" font-family="Helvetica,sans-Serif" font-size="10.00">/example_reachability.cpp</text>
</a>
</g>
</g>
<!-- Node2&#45;&gt;Node7 -->
<g id="edge6" class="edge"><title>Node2&#45;&gt;Node7</title>
<path fill="none" stroke="midnightblue" d="M500.024,-87.6858C555.894,-75.5993 634.389,-58.2977 703,-42 705.891,-41.3134 708.839,-40.6048 711.815,-39.8825"/>
<polygon fill="midnightblue" stroke="midnightblue" points="499.247,-84.2726 490.212,-89.8051 500.725,-91.1148 499.247,-84.2726"/>
</g>
</g>
</svg>
