<?xml version="1.0" encoding="UTF-8" standalone="no"?>
<!DOCTYPE svg PUBLIC "-//W3C//DTD SVG 1.1//EN"
 "http://www.w3.org/Graphics/SVG/1.1/DTD/svg11.dtd">
<!-- Generated by graphviz version 2.38.0 (20140413.2041)
 -->
<!-- Title: /home/travis/build/hypro/hypro/src/hypro/datastructures/HybridAutomaton/flow/flow.h Pages: 1 -->
<svg width="1285pt" height="984pt"
 viewBox="0.00 0.00 1285.00 984.00" xmlns="http://www.w3.org/2000/svg" xmlns:xlink="http://www.w3.org/1999/xlink">
<g id="graph0" class="graph" transform="scale(1 1) rotate(0) translate(4 980)">
<title>/home/travis/build/hypro/hypro/src/hypro/datastructures/HybridAutomaton/flow/flow.h</title>
<polygon fill="white" stroke="none" points="-4,4 -4,-980 1281,-980 1281,4 -4,4"/>
<!-- Node1 -->
<g id="node1" class="node"><title>Node1</title>
<polygon fill="#bfbfbf" stroke="black" points="670,-923.5 670,-975.5 848,-975.5 848,-923.5 670,-923.5"/>
<text text-anchor="start" x="678" y="-963.5" font-family="Helvetica,sans-Serif" font-size="10.00">/home/travis/build</text>
<text text-anchor="start" x="678" y="-952.5" font-family="Helvetica,sans-Serif" font-size="10.00">/hypro/hypro/src/hypro</text>
<text text-anchor="start" x="678" y="-941.5" font-family="Helvetica,sans-Serif" font-size="10.00">/datastructures/HybridAutomaton</text>
<text text-anchor="middle" x="759" y="-930.5" font-family="Helvetica,sans-Serif" font-size="10.00">/flow/flow.h</text>
</g>
<!-- Node2 -->
<g id="node2" class="node"><title>Node2</title>
<g id="a_node2"><a xlink:href="algorithms_2reachability_2util_8h.html" target="_top" xlink:title="/home/travis/build\l/hypro/hypro/src/hypro\l/algorithms/reachability\l/util.h">
<polygon fill="white" stroke="black" points="695,-834.5 695,-886.5 823,-886.5 823,-834.5 695,-834.5"/>
<text text-anchor="start" x="703" y="-874.5" font-family="Helvetica,sans-Serif" font-size="10.00">/home/travis/build</text>
<text text-anchor="start" x="703" y="-863.5" font-family="Helvetica,sans-Serif" font-size="10.00">/hypro/hypro/src/hypro</text>
<text text-anchor="start" x="703" y="-852.5" font-family="Helvetica,sans-Serif" font-size="10.00">/algorithms/reachability</text>
<text text-anchor="middle" x="759" y="-841.5" font-family="Helvetica,sans-Serif" font-size="10.00">/util.h</text>
</a>
</g>
</g>
<!-- Node1&#45;&gt;Node2 -->
<g id="edge1" class="edge"><title>Node1&#45;&gt;Node2</title>
<path fill="none" stroke="midnightblue" d="M759,-913.191C759,-904.282 759,-894.899 759,-886.607"/>
<polygon fill="midnightblue" stroke="midnightblue" points="755.5,-913.336 759,-923.336 762.5,-913.336 755.5,-913.336"/>
</g>
<!-- Node3 -->
<g id="node3" class="node"><title>Node3</title>
<g id="a_node3"><a xlink:href="ltiFirstSegmentHandler_8h.html" target="_top" xlink:title="/home/travis/build\l/hypro/hypro/src/hypro\l/algorithms/reachability\l/handlers/firstSegmentHandlers\l/ltiFirstSegmentHandler.h">
<polygon fill="white" stroke="black" points="402.5,-734.5 402.5,-797.5 571.5,-797.5 571.5,-734.5 402.5,-734.5"/>
<text text-anchor="start" x="410.5" y="-785.5" font-family="Helvetica,sans-Serif" font-size="10.00">/home/travis/build</text>
<text text-anchor="start" x="410.5" y="-774.5" font-family="Helvetica,sans-Serif" font-size="10.00">/hypro/hypro/src/hypro</text>
<text text-anchor="start" x="410.5" y="-763.5" font-family="Helvetica,sans-Serif" font-size="10.00">/algorithms/reachability</text>
<text text-anchor="start" x="410.5" y="-752.5" font-family="Helvetica,sans-Serif" font-size="10.00">/handlers/firstSegmentHandlers</text>
<text text-anchor="middle" x="487" y="-741.5" font-family="Helvetica,sans-Serif" font-size="10.00">/ltiFirstSegmentHandler.h</text>
</a>
</g>
</g>
<!-- Node2&#45;&gt;Node3 -->
<g id="edge2" class="edge"><title>Node2&#45;&gt;Node3</title>
<path fill="none" stroke="midnightblue" d="M685.181,-834.396C650.078,-822.458 607.931,-808.126 571.548,-795.753"/>
<polygon fill="midnightblue" stroke="midnightblue" points="684.29,-837.79 694.884,-837.696 686.544,-831.163 684.29,-837.79"/>
</g>
<!-- Node17 -->
<g id="node17" class="node"><title>Node17</title>
<g id="a_node17"><a xlink:href="FirstSegment_8h.html" target="_top" xlink:title="/home/travis/build\l/hypro/hypro/src/hypro\l/algorithms/reachability\l/FirstSegment.h">
<polygon fill="white" stroke="black" points="695,-740 695,-792 823,-792 823,-740 695,-740"/>
<text text-anchor="start" x="703" y="-780" font-family="Helvetica,sans-Serif" font-size="10.00">/home/travis/build</text>
<text text-anchor="start" x="703" y="-769" font-family="Helvetica,sans-Serif" font-size="10.00">/hypro/hypro/src/hypro</text>
<text text-anchor="start" x="703" y="-758" font-family="Helvetica,sans-Serif" font-size="10.00">/algorithms/reachability</text>
<text text-anchor="middle" x="759" y="-747" font-family="Helvetica,sans-Serif" font-size="10.00">/FirstSegment.h</text>
</a>
</g>
</g>
<!-- Node2&#45;&gt;Node17 -->
<g id="edge22" class="edge"><title>Node2&#45;&gt;Node17</title>
<path fill="none" stroke="midnightblue" d="M759,-823.993C759,-813.409 759,-802.031 759,-792.245"/>
<polygon fill="midnightblue" stroke="midnightblue" points="755.5,-824.224 759,-834.224 762.5,-824.224 755.5,-824.224"/>
</g>
<!-- Node18 -->
<g id="node18" class="node"><title>Node18</title>
<g id="a_node18"><a xlink:href="Reach_8h.html" target="_top" xlink:title="/home/travis/build\l/hypro/hypro/src/hypro\l/algorithms/reachability\l/Reach.h">
<polygon fill="white" stroke="black" points="787,-640 787,-692 915,-692 915,-640 787,-640"/>
<text text-anchor="start" x="795" y="-680" font-family="Helvetica,sans-Serif" font-size="10.00">/home/travis/build</text>
<text text-anchor="start" x="795" y="-669" font-family="Helvetica,sans-Serif" font-size="10.00">/hypro/hypro/src/hypro</text>
<text text-anchor="start" x="795" y="-658" font-family="Helvetica,sans-Serif" font-size="10.00">/algorithms/reachability</text>
<text text-anchor="middle" x="851" y="-647" font-family="Helvetica,sans-Serif" font-size="10.00">/Reach.h</text>
</a>
</g>
</g>
<!-- Node2&#45;&gt;Node18 -->
<g id="edge29" class="edge"><title>Node2&#45;&gt;Node18</title>
<path fill="none" stroke="midnightblue" d="M806.943,-827.812C816.648,-819.246 825.774,-809.2 832,-798 850.48,-764.758 853.007,-719.746 852.484,-692.076"/>
<polygon fill="midnightblue" stroke="midnightblue" points="804.526,-825.27 799.08,-834.358 809.004,-830.65 804.526,-825.27"/>
</g>
<!-- Node4 -->
<g id="node4" class="node"><title>Node4</title>
<g id="a_node4"><a xlink:href="FirstSegmentHandlers_8h.html" target="_top" xlink:title="/home/travis/build\l/hypro/hypro/src/hypro\l/algorithms/reachability\l/handlers/firstSegmentHandlers\l/FirstSegmentHandlers.h">
<polygon fill="white" stroke="black" points="218.5,-534.5 218.5,-597.5 387.5,-597.5 387.5,-534.5 218.5,-534.5"/>
<text text-anchor="start" x="226.5" y="-585.5" font-family="Helvetica,sans-Serif" font-size="10.00">/home/travis/build</text>
<text text-anchor="start" x="226.5" y="-574.5" font-family="Helvetica,sans-Serif" font-size="10.00">/hypro/hypro/src/hypro</text>
<text text-anchor="start" x="226.5" y="-563.5" font-family="Helvetica,sans-Serif" font-size="10.00">/algorithms/reachability</text>
<text text-anchor="start" x="226.5" y="-552.5" font-family="Helvetica,sans-Serif" font-size="10.00">/handlers/firstSegmentHandlers</text>
<text text-anchor="middle" x="303" y="-541.5" font-family="Helvetica,sans-Serif" font-size="10.00">/FirstSegmentHandlers.h</text>
</a>
</g>
</g>
<!-- Node3&#45;&gt;Node4 -->
<g id="edge3" class="edge"><title>Node3&#45;&gt;Node4</title>
<path fill="none" stroke="midnightblue" d="M392.284,-757.004C312.779,-748.095 208.106,-730.463 182,-698 164.175,-675.834 167.558,-658.505 182,-634 190.9,-618.898 204.563,-606.962 219.55,-597.612"/>
<polygon fill="midnightblue" stroke="midnightblue" points="392.019,-760.495 402.339,-758.099 392.777,-753.537 392.019,-760.495"/>
</g>
<!-- Node14 -->
<g id="node14" class="node"><title>Node14</title>
<g id="a_node14"><a xlink:href="rectangularFirstSegmentHandler_8h.html" target="_top" xlink:title="/home/travis/build\l/hypro/hypro/src/hypro\l/algorithms/reachability\l/handlers/firstSegmentHandlers\l/rectangularFirstSegmentHandler.h">
<polygon fill="white" stroke="black" points="191,-634.5 191,-697.5 375,-697.5 375,-634.5 191,-634.5"/>
<text text-anchor="start" x="199" y="-685.5" font-family="Helvetica,sans-Serif" font-size="10.00">/home/travis/build</text>
<text text-anchor="start" x="199" y="-674.5" font-family="Helvetica,sans-Serif" font-size="10.00">/hypro/hypro/src/hypro</text>
<text text-anchor="start" x="199" y="-663.5" font-family="Helvetica,sans-Serif" font-size="10.00">/algorithms/reachability</text>
<text text-anchor="start" x="199" y="-652.5" font-family="Helvetica,sans-Serif" font-size="10.00">/handlers/firstSegmentHandlers</text>
<text text-anchor="middle" x="283" y="-641.5" font-family="Helvetica,sans-Serif" font-size="10.00">/rectangularFirstSegmentHandler.h</text>
</a>
</g>
</g>
<!-- Node3&#45;&gt;Node14 -->
<g id="edge16" class="edge"><title>Node3&#45;&gt;Node14</title>
<path fill="none" stroke="midnightblue" d="M414.277,-730.065C392.161,-719.44 368.039,-707.852 346.575,-697.541"/>
<polygon fill="midnightblue" stroke="midnightblue" points="412.763,-733.22 423.292,-734.395 415.794,-726.91 412.763,-733.22"/>
</g>
<!-- Node15 -->
<g id="node15" class="node"><title>Node15</title>
<g id="a_node15"><a xlink:href="timedElapseFirstSegmentHandler_8h.html" target="_top" xlink:title="/home/travis/build\l/hypro/hypro/src/hypro\l/algorithms/reachability\l/handlers/firstSegmentHandlers\l/timedElapseFirstSegmentHandler.h">
<polygon fill="white" stroke="black" points="393,-634.5 393,-697.5 581,-697.5 581,-634.5 393,-634.5"/>
<text text-anchor="start" x="401" y="-685.5" font-family="Helvetica,sans-Serif" font-size="10.00">/home/travis/build</text>
<text text-anchor="start" x="401" y="-674.5" font-family="Helvetica,sans-Serif" font-size="10.00">/hypro/hypro/src/hypro</text>
<text text-anchor="start" x="401" y="-663.5" font-family="Helvetica,sans-Serif" font-size="10.00">/algorithms/reachability</text>
<text text-anchor="start" x="401" y="-652.5" font-family="Helvetica,sans-Serif" font-size="10.00">/handlers/firstSegmentHandlers</text>
<text text-anchor="middle" x="487" y="-641.5" font-family="Helvetica,sans-Serif" font-size="10.00">/timedElapseFirstSegmentHandler.h</text>
</a>
</g>
</g>
<!-- Node3&#45;&gt;Node15 -->
<g id="edge18" class="edge"><title>Node3&#45;&gt;Node15</title>
<path fill="none" stroke="midnightblue" d="M487,-724.099C487,-715.238 487,-706.015 487,-697.63"/>
<polygon fill="midnightblue" stroke="midnightblue" points="483.5,-724.261 487,-734.261 490.5,-724.261 483.5,-724.261"/>
</g>
<!-- Node16 -->
<g id="node16" class="node"><title>Node16</title>
<g id="a_node16"><a xlink:href="timedFirstSegmentHandler_8h.html" target="_top" xlink:title="/home/travis/build\l/hypro/hypro/src/hypro\l/algorithms/reachability\l/handlers/firstSegmentHandlers\l/timedFirstSegmentHandler.h">
<polygon fill="white" stroke="black" points="599.5,-634.5 599.5,-697.5 768.5,-697.5 768.5,-634.5 599.5,-634.5"/>
<text text-anchor="start" x="607.5" y="-685.5" font-family="Helvetica,sans-Serif" font-size="10.00">/home/travis/build</text>
<text text-anchor="start" x="607.5" y="-674.5" font-family="Helvetica,sans-Serif" font-size="10.00">/hypro/hypro/src/hypro</text>
<text text-anchor="start" x="607.5" y="-663.5" font-family="Helvetica,sans-Serif" font-size="10.00">/algorithms/reachability</text>
<text text-anchor="start" x="607.5" y="-652.5" font-family="Helvetica,sans-Serif" font-size="10.00">/handlers/firstSegmentHandlers</text>
<text text-anchor="middle" x="684" y="-641.5" font-family="Helvetica,sans-Serif" font-size="10.00">/timedFirstSegmentHandler.h</text>
</a>
</g>
</g>
<!-- Node3&#45;&gt;Node16 -->
<g id="edge20" class="edge"><title>Node3&#45;&gt;Node16</title>
<path fill="none" stroke="midnightblue" d="M557.512,-729.923C578.791,-719.337 601.971,-707.806 622.606,-697.541"/>
<polygon fill="midnightblue" stroke="midnightblue" points="555.916,-726.808 548.522,-734.395 559.034,-733.075 555.916,-726.808"/>
</g>
<!-- Node5 -->
<g id="node5" class="node"><title>Node5</title>
<g id="a_node5"><a xlink:href="HandlerFactory_8h.html" target="_top" xlink:title="/home/travis/build\l/hypro/hypro/src/hypro\l/algorithms/reachability\l/handlers/HandlerFactory.h">
<polygon fill="white" stroke="black" points="231.5,-445.5 231.5,-497.5 374.5,-497.5 374.5,-445.5 231.5,-445.5"/>
<text text-anchor="start" x="239.5" y="-485.5" font-family="Helvetica,sans-Serif" font-size="10.00">/home/travis/build</text>
<text text-anchor="start" x="239.5" y="-474.5" font-family="Helvetica,sans-Serif" font-size="10.00">/hypro/hypro/src/hypro</text>
<text text-anchor="start" x="239.5" y="-463.5" font-family="Helvetica,sans-Serif" font-size="10.00">/algorithms/reachability</text>
<text text-anchor="middle" x="303" y="-452.5" font-family="Helvetica,sans-Serif" font-size="10.00">/handlers/HandlerFactory.h</text>
</a>
</g>
</g>
<!-- Node4&#45;&gt;Node5 -->
<g id="edge4" class="edge"><title>Node4&#45;&gt;Node5</title>
<path fill="none" stroke="midnightblue" d="M303,-524.423C303,-515.359 303,-505.999 303,-497.766"/>
<polygon fill="midnightblue" stroke="midnightblue" points="299.5,-524.456 303,-534.456 306.5,-524.456 299.5,-524.456"/>
</g>
<!-- Node6 -->
<g id="node6" class="node"><title>Node6</title>
<g id="a_node6"><a xlink:href="LTIContext_8h.html" target="_top" xlink:title="/home/travis/build\l/hypro/hypro/src/hypro\l/algorithms/reachability\l/contexts/LTIContext.h">
<polygon fill="white" stroke="black" points="80,-356.5 80,-408.5 208,-408.5 208,-356.5 80,-356.5"/>
<text text-anchor="start" x="88" y="-396.5" font-family="Helvetica,sans-Serif" font-size="10.00">/home/travis/build</text>
<text text-anchor="start" x="88" y="-385.5" font-family="Helvetica,sans-Serif" font-size="10.00">/hypro/hypro/src/hypro</text>
<text text-anchor="start" x="88" y="-374.5" font-family="Helvetica,sans-Serif" font-size="10.00">/algorithms/reachability</text>
<text text-anchor="middle" x="144" y="-363.5" font-family="Helvetica,sans-Serif" font-size="10.00">/contexts/LTIContext.h</text>
</a>
</g>
</g>
<!-- Node5&#45;&gt;Node6 -->
<g id="edge5" class="edge"><title>Node5&#45;&gt;Node6</title>
<path fill="none" stroke="midnightblue" d="M248.162,-440.494C229.166,-430.101 208.086,-418.566 189.886,-408.607"/>
<polygon fill="midnightblue" stroke="midnightblue" points="246.558,-443.606 257.011,-445.336 249.918,-437.465 246.558,-443.606"/>
</g>
<!-- Node11 -->
<g id="node11" class="node"><title>Node11</title>
<g id="a_node11"><a xlink:href="TimedContext_8h.html" target="_top" xlink:title="/home/travis/build\l/hypro/hypro/src/hypro\l/algorithms/reachability\l/contexts/TimedContext.h">
<polygon fill="white" stroke="black" points="166,-267.5 166,-319.5 306,-319.5 306,-267.5 166,-267.5"/>
<text text-anchor="start" x="174" y="-307.5" font-family="Helvetica,sans-Serif" font-size="10.00">/home/travis/build</text>
<text text-anchor="start" x="174" y="-296.5" font-family="Helvetica,sans-Serif" font-size="10.00">/hypro/hypro/src/hypro</text>
<text text-anchor="start" x="174" y="-285.5" font-family="Helvetica,sans-Serif" font-size="10.00">/algorithms/reachability</text>
<text text-anchor="middle" x="236" y="-274.5" font-family="Helvetica,sans-Serif" font-size="10.00">/contexts/TimedContext.h</text>
</a>
</g>
</g>
<!-- Node5&#45;&gt;Node11 -->
<g id="edge15" class="edge"><title>Node5&#45;&gt;Node11</title>
<path fill="none" stroke="midnightblue" d="M272.389,-437.439C265.727,-428.728 259.373,-418.962 255,-409 242.286,-380.031 238.02,-343.53 236.622,-319.63"/>
<polygon fill="midnightblue" stroke="midnightblue" points="269.825,-439.836 278.816,-445.441 275.282,-435.452 269.825,-439.836"/>
</g>
<!-- Node12 -->
<g id="node12" class="node"><title>Node12</title>
<g id="a_node12"><a xlink:href="ltiJumpHandler_8h.html" target="_top" xlink:title="/home/travis/build\l/hypro/hypro/src/hypro\l/algorithms/reachability\l/handlers/jumpHandlers/ltiJumpHandler.h">
<polygon fill="white" stroke="black" points="264,-356.5 264,-408.5 476,-408.5 476,-356.5 264,-356.5"/>
<text text-anchor="start" x="272" y="-396.5" font-family="Helvetica,sans-Serif" font-size="10.00">/home/travis/build</text>
<text text-anchor="start" x="272" y="-385.5" font-family="Helvetica,sans-Serif" font-size="10.00">/hypro/hypro/src/hypro</text>
<text text-anchor="start" x="272" y="-374.5" font-family="Helvetica,sans-Serif" font-size="10.00">/algorithms/reachability</text>
<text text-anchor="middle" x="370" y="-363.5" font-family="Helvetica,sans-Serif" font-size="10.00">/handlers/jumpHandlers/ltiJumpHandler.h</text>
</a>
</g>
</g>
<!-- Node5&#45;&gt;Node12 -->
<g id="edge12" class="edge"><title>Node5&#45;&gt;Node12</title>
<path fill="none" stroke="midnightblue" d="M328.633,-437.215C335.948,-427.717 343.793,-417.529 350.664,-408.607"/>
<polygon fill="midnightblue" stroke="midnightblue" points="325.708,-435.278 322.379,-445.336 331.254,-439.549 325.708,-435.278"/>
</g>
<!-- Node7 -->
<g id="node7" class="node"><title>Node7</title>
<g id="a_node7"><a xlink:href="ContextFactory_8h.html" target="_top" xlink:title="/home/travis/build\l/hypro/hypro/src/hypro\l/algorithms/reachability\l/contexts/ContextFactory.h">
<polygon fill="white" stroke="black" points="115.5,-178.5 115.5,-230.5 258.5,-230.5 258.5,-178.5 115.5,-178.5"/>
<text text-anchor="start" x="123.5" y="-218.5" font-family="Helvetica,sans-Serif" font-size="10.00">/home/travis/build</text>
<text text-anchor="start" x="123.5" y="-207.5" font-family="Helvetica,sans-Serif" font-size="10.00">/hypro/hypro/src/hypro</text>
<text text-anchor="start" x="123.5" y="-196.5" font-family="Helvetica,sans-Serif" font-size="10.00">/algorithms/reachability</text>
<text text-anchor="middle" x="187" y="-185.5" font-family="Helvetica,sans-Serif" font-size="10.00">/contexts/ContextFactory.h</text>
</a>
</g>
</g>
<!-- Node6&#45;&gt;Node7 -->
<g id="edge6" class="edge"><title>Node6&#45;&gt;Node7</title>
<path fill="none" stroke="midnightblue" d="M144.897,-346.464C146.231,-323.481 149.431,-292.985 157,-267 160.621,-254.568 166.598,-241.573 172.267,-230.749"/>
<polygon fill="midnightblue" stroke="midnightblue" points="141.401,-346.292 144.406,-356.452 148.392,-346.636 141.401,-346.292"/>
</g>
<!-- Node6&#45;&gt;Node11 -->
<g id="edge10" class="edge"><title>Node6&#45;&gt;Node11</title>
<path fill="none" stroke="midnightblue" d="M177.984,-349.363C188.369,-339.542 199.634,-328.89 209.45,-319.607"/>
<polygon fill="midnightblue" stroke="midnightblue" points="175.471,-346.922 170.61,-356.336 180.281,-352.008 175.471,-346.922"/>
</g>
<!-- Node8 -->
<g id="node8" class="node"><title>Node8</title>
<g id="a_node8"><a xlink:href="ContextBasedReachabilityWorker_8h.html" target="_top" xlink:title="/home/travis/build\l/hypro/hypro/src/hypro\l/algorithms/reachability\l/workers/ContextBasedReachability\lWorker.h">
<polygon fill="white" stroke="black" points="95.5,-78.5 95.5,-141.5 278.5,-141.5 278.5,-78.5 95.5,-78.5"/>
<text text-anchor="start" x="103.5" y="-129.5" font-family="Helvetica,sans-Serif" font-size="10.00">/home/travis/build</text>
<text text-anchor="start" x="103.5" y="-118.5" font-family="Helvetica,sans-Serif" font-size="10.00">/hypro/hypro/src/hypro</text>
<text text-anchor="start" x="103.5" y="-107.5" font-family="Helvetica,sans-Serif" font-size="10.00">/algorithms/reachability</text>
<text text-anchor="start" x="103.5" y="-96.5" font-family="Helvetica,sans-Serif" font-size="10.00">/workers/ContextBasedReachability</text>
<text text-anchor="middle" x="187" y="-85.5" font-family="Helvetica,sans-Serif" font-size="10.00">Worker.h</text>
</a>
</g>
</g>
<!-- Node7&#45;&gt;Node8 -->
<g id="edge7" class="edge"><title>Node7&#45;&gt;Node8</title>
<path fill="none" stroke="midnightblue" d="M187,-167.945C187,-159.226 187,-149.97 187,-141.512"/>
<polygon fill="midnightblue" stroke="midnightblue" points="183.5,-168.224 187,-178.224 190.5,-168.224 183.5,-168.224"/>
</g>
<!-- Node9 -->
<g id="node9" class="node"><title>Node9</title>
<g id="a_node9"><a xlink:href="example__rectangularReachability_8cpp.html" target="_top" xlink:title="/home/travis/build\l/hypro/hypro/examples\l/example_rectangularReachability.cpp">
<polygon fill="white" stroke="black" points="0,-0.5 0,-41.5 196,-41.5 196,-0.5 0,-0.5"/>
<text text-anchor="start" x="8" y="-29.5" font-family="Helvetica,sans-Serif" font-size="10.00">/home/travis/build</text>
<text text-anchor="start" x="8" y="-18.5" font-family="Helvetica,sans-Serif" font-size="10.00">/hypro/hypro/examples</text>
<text text-anchor="middle" x="98" y="-7.5" font-family="Helvetica,sans-Serif" font-size="10.00">/example_rectangularReachability.cpp</text>
</a>
</g>
</g>
<!-- Node8&#45;&gt;Node9 -->
<g id="edge8" class="edge"><title>Node8&#45;&gt;Node9</title>
<path fill="none" stroke="midnightblue" d="M148.453,-71.3196C137.952,-61.0544 127.001,-50.3491 117.995,-41.5457"/>
<polygon fill="midnightblue" stroke="midnightblue" points="146.024,-73.8396 155.622,-78.3271 150.918,-68.8339 146.024,-73.8396"/>
</g>
<!-- Node10 -->
<g id="node10" class="node"><title>Node10</title>
<g id="a_node10"><a xlink:href="example__worker_8cpp.html" target="_top" xlink:title="/home/travis/build\l/hypro/hypro/examples\l/example_worker.cpp">
<polygon fill="white" stroke="black" points="214,-0.5 214,-41.5 340,-41.5 340,-0.5 214,-0.5"/>
<text text-anchor="start" x="222" y="-29.5" font-family="Helvetica,sans-Serif" font-size="10.00">/home/travis/build</text>
<text text-anchor="start" x="222" y="-18.5" font-family="Helvetica,sans-Serif" font-size="10.00">/hypro/hypro/examples</text>
<text text-anchor="middle" x="277" y="-7.5" font-family="Helvetica,sans-Serif" font-size="10.00">/example_worker.cpp</text>
</a>
</g>
</g>
<!-- Node8&#45;&gt;Node10 -->
<g id="edge9" class="edge"><title>Node8&#45;&gt;Node10</title>
<path fill="none" stroke="midnightblue" d="M225.98,-71.3196C236.599,-61.0544 247.673,-50.3491 256.78,-41.5457"/>
<polygon fill="midnightblue" stroke="midnightblue" points="223.488,-68.8603 218.731,-78.3271 228.353,-73.8933 223.488,-68.8603"/>
</g>
<!-- Node11&#45;&gt;Node7 -->
<g id="edge11" class="edge"><title>Node11&#45;&gt;Node7</title>
<path fill="none" stroke="midnightblue" d="M216.766,-258.35C211.557,-249.1 206.014,-239.259 201.141,-230.607"/>
<polygon fill="midnightblue" stroke="midnightblue" points="213.87,-260.34 221.827,-267.336 219.969,-256.905 213.87,-260.34"/>
</g>
<!-- Node13 -->
<g id="node13" class="node"><title>Node13</title>
<g id="a_node13"><a xlink:href="JumpHandlers_8h.html" target="_top" xlink:title="/home/travis/build\l/hypro/hypro/src/hypro\l/algorithms/reachability\l/handlers/jumpHandlers/JumpHandlers.h">
<polygon fill="white" stroke="black" points="361.5,-267.5 361.5,-319.5 570.5,-319.5 570.5,-267.5 361.5,-267.5"/>
<text text-anchor="start" x="369.5" y="-307.5" font-family="Helvetica,sans-Serif" font-size="10.00">/home/travis/build</text>
<text text-anchor="start" x="369.5" y="-296.5" font-family="Helvetica,sans-Serif" font-size="10.00">/hypro/hypro/src/hypro</text>
<text text-anchor="start" x="369.5" y="-285.5" font-family="Helvetica,sans-Serif" font-size="10.00">/algorithms/reachability</text>
<text text-anchor="middle" x="466" y="-274.5" font-family="Helvetica,sans-Serif" font-size="10.00">/handlers/jumpHandlers/JumpHandlers.h</text>
</a>
</g>
</g>
<!-- Node12&#45;&gt;Node13 -->
<g id="edge13" class="edge"><title>Node12&#45;&gt;Node13</title>
<path fill="none" stroke="midnightblue" d="M405.461,-349.363C416.298,-339.542 428.052,-328.89 438.295,-319.607"/>
<polygon fill="midnightblue" stroke="midnightblue" points="402.827,-347.027 397.767,-356.336 407.527,-352.214 402.827,-347.027"/>
</g>
<!-- Node13&#45;&gt;Node5 -->
<g id="edge14" class="edge"><title>Node13&#45;&gt;Node5</title>
<path fill="none" stroke="midnightblue" d="M484.033,-328.954C494.093,-353.412 501.595,-385.876 485,-409 460.012,-443.82 414.254,-459.179 374.872,-465.841"/>
<polygon fill="midnightblue" stroke="midnightblue" points="487.18,-327.415 479.942,-319.678 480.775,-330.24 487.18,-327.415"/>
</g>
<!-- Node14&#45;&gt;Node4 -->
<g id="edge17" class="edge"><title>Node14&#45;&gt;Node4</title>
<path fill="none" stroke="midnightblue" d="M291.288,-624.387C293.115,-615.439 295.019,-606.106 296.749,-597.63"/>
<polygon fill="midnightblue" stroke="midnightblue" points="287.844,-623.763 289.273,-634.261 294.702,-625.163 287.844,-623.763"/>
</g>
<!-- Node15&#45;&gt;Node4 -->
<g id="edge19" class="edge"><title>Node15&#45;&gt;Node4</title>
<path fill="none" stroke="midnightblue" d="M420.608,-629.639C400.879,-619.131 379.444,-607.715 360.342,-597.541"/>
<polygon fill="midnightblue" stroke="midnightblue" points="419.067,-632.784 429.538,-634.395 422.357,-626.605 419.067,-632.784"/>
</g>
<!-- Node16&#45;&gt;Node4 -->
<g id="edge21" class="edge"><title>Node16&#45;&gt;Node4</title>
<path fill="none" stroke="midnightblue" d="M589.587,-634.005C511.989,-613.79 489.785,-615.735 416,-598 406.803,-595.789 397.218,-593.359 387.691,-590.862"/>
<polygon fill="midnightblue" stroke="midnightblue" points="588.769,-637.409 599.332,-636.583 590.559,-630.642 588.769,-637.409"/>
</g>
<!-- Node17&#45;&gt;Node18 -->
<g id="edge23" class="edge"><title>Node17&#45;&gt;Node18</title>
<path fill="none" stroke="midnightblue" d="M789.705,-732.293C801.99,-719.207 815.917,-704.371 827.388,-692.152"/>
<polygon fill="midnightblue" stroke="midnightblue" points="786.985,-730.076 782.692,-739.763 792.088,-734.867 786.985,-730.076"/>
</g>
<!-- Node19 -->
<g id="node19" class="node"><title>Node19</title>
<g id="a_node19"><a xlink:href="example__backwardsAnalysis_8cpp.html" target="_top" xlink:title="/home/travis/build\l/hypro/hypro/examples\l/example_backwardsAnalysis.cpp">
<polygon fill="white" stroke="black" points="425,-545.5 425,-586.5 601,-586.5 601,-545.5 425,-545.5"/>
<text text-anchor="start" x="433" y="-574.5" font-family="Helvetica,sans-Serif" font-size="10.00">/home/travis/build</text>
<text text-anchor="start" x="433" y="-563.5" font-family="Helvetica,sans-Serif" font-size="10.00">/hypro/hypro/examples</text>
<text text-anchor="middle" x="513" y="-552.5" font-family="Helvetica,sans-Serif" font-size="10.00">/example_backwardsAnalysis.cpp</text>
</a>
</g>
</g>
<!-- Node18&#45;&gt;Node19 -->
<g id="edge24" class="edge"><title>Node18&#45;&gt;Node19</title>
<path fill="none" stroke="midnightblue" d="M784.4,-636.44C781.914,-635.584 779.442,-634.767 777,-634 704.566,-611.235 683.359,-617.58 610,-598 597.274,-594.603 583.74,-590.558 570.947,-586.53"/>
<polygon fill="midnightblue" stroke="midnightblue" points="783.427,-639.809 794.022,-639.907 785.8,-633.224 783.427,-639.809"/>
</g>
<!-- Node20 -->
<g id="node20" class="node"><title>Node20</title>
<g id="a_node20"><a xlink:href="example__benchmark_8cpp.html" target="_top" xlink:title="/home/travis/build\l/hypro/hypro/examples\l/example_benchmark.cpp">
<polygon fill="white" stroke="black" points="619,-545.5 619,-586.5 759,-586.5 759,-545.5 619,-545.5"/>
<text text-anchor="start" x="627" y="-574.5" font-family="Helvetica,sans-Serif" font-size="10.00">/home/travis/build</text>
<text text-anchor="start" x="627" y="-563.5" font-family="Helvetica,sans-Serif" font-size="10.00">/hypro/hypro/examples</text>
<text text-anchor="middle" x="689" y="-552.5" font-family="Helvetica,sans-Serif" font-size="10.00">/example_benchmark.cpp</text>
</a>
</g>
</g>
<!-- Node18&#45;&gt;Node20 -->
<g id="edge25" class="edge"><title>Node18&#45;&gt;Node20</title>
<path fill="none" stroke="midnightblue" d="M800.715,-634.58C774.845,-618.931 744.068,-600.313 721.376,-586.585"/>
<polygon fill="midnightblue" stroke="midnightblue" points="798.913,-637.581 809.281,-639.763 802.536,-631.592 798.913,-637.581"/>
</g>
<!-- Node21 -->
<g id="node21" class="node"><title>Node21</title>
<g id="a_node21"><a xlink:href="example__bouncingBall_8cpp.html" target="_top" xlink:title="/home/travis/build\l/hypro/hypro/examples\l/example_bouncingBall.cpp">
<polygon fill="white" stroke="black" points="777.5,-545.5 777.5,-586.5 924.5,-586.5 924.5,-545.5 777.5,-545.5"/>
<text text-anchor="start" x="785.5" y="-574.5" font-family="Helvetica,sans-Serif" font-size="10.00">/home/travis/build</text>
<text text-anchor="start" x="785.5" y="-563.5" font-family="Helvetica,sans-Serif" font-size="10.00">/hypro/hypro/examples</text>
<text text-anchor="middle" x="851" y="-552.5" font-family="Helvetica,sans-Serif" font-size="10.00">/example_bouncingBall.cpp</text>
</a>
</g>
</g>
<!-- Node18&#45;&gt;Node21 -->
<g id="edge26" class="edge"><title>Node18&#45;&gt;Node21</title>
<path fill="none" stroke="midnightblue" d="M851,-629.593C851,-615.099 851,-598.881 851,-586.585"/>
<polygon fill="midnightblue" stroke="midnightblue" points="847.5,-629.763 851,-639.763 854.5,-629.763 847.5,-629.763"/>
</g>
<!-- Node22 -->
<g id="node22" class="node"><title>Node22</title>
<g id="a_node22"><a xlink:href="example__dynamicStrategies_8cpp.html" target="_top" xlink:title="/home/travis/build\l/hypro/hypro/examples\l/example_dynamicStrategies.cpp">
<polygon fill="white" stroke="black" points="943,-545.5 943,-586.5 1119,-586.5 1119,-545.5 943,-545.5"/>
<text text-anchor="start" x="951" y="-574.5" font-family="Helvetica,sans-Serif" font-size="10.00">/home/travis/build</text>
<text text-anchor="start" x="951" y="-563.5" font-family="Helvetica,sans-Serif" font-size="10.00">/hypro/hypro/examples</text>
<text text-anchor="middle" x="1031" y="-552.5" font-family="Helvetica,sans-Serif" font-size="10.00">/example_dynamicStrategies.cpp</text>
</a>
</g>
</g>
<!-- Node18&#45;&gt;Node22 -->
<g id="edge27" class="edge"><title>Node18&#45;&gt;Node22</title>
<path fill="none" stroke="midnightblue" d="M906.498,-634.784C935.319,-619.093 969.703,-600.373 995.027,-586.585"/>
<polygon fill="midnightblue" stroke="midnightblue" points="904.464,-631.907 897.354,-639.763 907.811,-638.055 904.464,-631.907"/>
</g>
<!-- Node23 -->
<g id="node23" class="node"><title>Node23</title>
<g id="a_node23"><a xlink:href="example__reachability_8cpp.html" target="_top" xlink:title="/home/travis/build\l/hypro/hypro/examples\l/example_reachability.cpp">
<polygon fill="white" stroke="black" points="1137,-545.5 1137,-586.5 1277,-586.5 1277,-545.5 1137,-545.5"/>
<text text-anchor="start" x="1145" y="-574.5" font-family="Helvetica,sans-Serif" font-size="10.00">/home/travis/build</text>
<text text-anchor="start" x="1145" y="-563.5" font-family="Helvetica,sans-Serif" font-size="10.00">/hypro/hypro/examples</text>
<text text-anchor="middle" x="1207" y="-552.5" font-family="Helvetica,sans-Serif" font-size="10.00">/example_reachability.cpp</text>
</a>
</g>
</g>
<!-- Node18&#45;&gt;Node23 -->
<g id="edge28" class="edge"><title>Node18&#45;&gt;Node23</title>
<path fill="none" stroke="midnightblue" d="M925.089,-649.964C981.314,-637.861 1060.23,-619.382 1128,-598 1138.54,-594.675 1149.68,-590.638 1160.17,-586.59"/>
<polygon fill="midnightblue" stroke="midnightblue" points="924.262,-646.562 915.215,-652.075 925.725,-653.407 924.262,-646.562"/>
</g>
</g>
</svg>
