<?xml version="1.0" encoding="UTF-8" standalone="no"?>
<!DOCTYPE svg PUBLIC "-//W3C//DTD SVG 1.1//EN"
 "http://www.w3.org/Graphics/SVG/1.1/DTD/svg11.dtd">
<!-- Generated by graphviz version 2.38.0 (20140413.2041)
 -->
<!-- Title: /home/travis/build/hypro/hypro/src/hypro/datastructures/HybridAutomaton/flow/flow.h Pages: 1 -->
<!--zoomable 598 -->
<svg id="main" version="1.1" xmlns="http://www.w3.org/2000/svg" xmlns:xlink="http://www.w3.org/1999/xlink" xml:space="preserve" onload="init(evt)">
<style type="text/css"><![CDATA[
.edge:hover path { stroke: red; }
.edge:hover polygon { stroke: red; fill: red; }
]]></style>
<script type="text/javascript"><![CDATA[
var edges = document.getElementsByTagName('g');
if (edges && edges.length) {
  for (var i=0;i<edges.length;i++) {
    if (edges[i].id.substr(0,4)=='edge') {
      edges[i].setAttribute('class','edge');
    }
  }
}
]]></script>
        <defs>
                <circle id="rim" cx="0" cy="0" r="7"/>
                <circle id="rim2" cx="0" cy="0" r="3.5"/>
                <g id="zoomPlus">
                        <use xlink:href="#rim" fill="#404040">
                                <set attributeName="fill" to="#808080" begin="zoomplus.mouseover" end="zoomplus.mouseout"/>
                        </use>
                        <path d="M-4,0h8M0,-4v8" fill="none" stroke="white" stroke-width="1.5" pointer-events="none"/>
                </g>
                <g id="zoomMin">
                        <use xlink:href="#rim" fill="#404040">
                                <set attributeName="fill" to="#808080" begin="zoomminus.mouseover" end="zoomminus.mouseout"/>
                        </use>
                        <path d="M-4,0h8" fill="none" stroke="white" stroke-width="1.5" pointer-events="none"/>
                </g>
                <g id="dirArrow">
                        <path fill="none" stroke="white" stroke-width="1.5" d="M0,-3.0v7 M-2.5,-0.5L0,-3.0L2.5,-0.5"/>
                </g>
               <g id="resetDef">
                       <use xlink:href="#rim2" fill="#404040">
                               <set attributeName="fill" to="#808080" begin="reset.mouseover" end="reset.mouseout"/>
                       </use>
               </g>
        </defs>

<script type="text/javascript">
var viewWidth = 2007;
var viewHeight = 598;
var sectionId = 'dynsection-0';
</script>
<script xlink:href="svgpan.js"/>
<svg id="graph" class="graph">
<g id="viewport">
<title>/home/travis/build/hypro/hypro/src/hypro/datastructures/HybridAutomaton/flow/flow.h</title>
<polygon fill="white" stroke="none" points="-4,4 -4,-594 2002.5,-594 2002.5,4 -4,4"/>
<!-- Node1 -->
<g id="node1" class="node"><title>Node1</title>
<polygon fill="#bfbfbf" stroke="black" points="1372,-537.5 1372,-589.5 1550,-589.5 1550,-537.5 1372,-537.5"/>
<text text-anchor="start" x="1380" y="-577.5" font-family="Helvetica,sans-Serif" font-size="10.00">/home/travis/build</text>
<text text-anchor="start" x="1380" y="-566.5" font-family="Helvetica,sans-Serif" font-size="10.00">/hypro/hypro/src/hypro</text>
<text text-anchor="start" x="1380" y="-555.5" font-family="Helvetica,sans-Serif" font-size="10.00">/datastructures/HybridAutomaton</text>
<text text-anchor="middle" x="1461" y="-544.5" font-family="Helvetica,sans-Serif" font-size="10.00">/flow/flow.h</text>
</g>
<!-- Node2 -->
<g id="node2" class="node"><title>Node2</title>
<g id="a_node2"><a xlink:href="affine_8h.html" target="_top" xlink:title="affine.h">
<polygon fill="white" stroke="black" points="1447,-369.5 1447,-388.5 1499,-388.5 1499,-369.5 1447,-369.5"/>
<text text-anchor="middle" x="1473" y="-376.5" font-family="Helvetica,sans-Serif" font-size="10.00">affine.h</text>
</a>
</g>
</g>
<!-- Node1&#45;&gt;Node2 -->
<g id="edge1" class="edge"><title>Node1&#45;&gt;Node2</title>
<path fill="none" stroke="midnightblue" d="M1468.08,-537.285C1470.83,-526.245 1473.64,-513.079 1475,-501 1479.05,-464.936 1476.73,-422.451 1474.78,-398.629"/>
<polygon fill="midnightblue" stroke="midnightblue" points="1478.26,-398.197 1473.89,-388.544 1471.29,-398.814 1478.26,-398.197"/>
</g>
<!-- Node29 -->
<g id="node29" class="node"><title>Node29</title>
<g id="a_node29"><a xlink:href="linear_8h.html" target="_top" xlink:title="linear.h">
<polygon fill="white" stroke="black" points="1317.5,-313.5 1317.5,-332.5 1368.5,-332.5 1368.5,-313.5 1317.5,-313.5"/>
<text text-anchor="middle" x="1343" y="-320.5" font-family="Helvetica,sans-Serif" font-size="10.00">linear.h</text>
</a>
</g>
</g>
<!-- Node1&#45;&gt;Node29 -->
<g id="edge40" class="edge"><title>Node1&#45;&gt;Node29</title>
<path fill="none" stroke="midnightblue" d="M1394.94,-537.494C1336.92,-510.999 1258.62,-462.692 1238,-389 1235.6,-380.44 1233.11,-376.421 1238,-369 1253.28,-345.82 1283.25,-334.535 1307.28,-329.067"/>
<polygon fill="midnightblue" stroke="midnightblue" points="1308.04,-332.483 1317.15,-327.062 1306.65,-325.623 1308.04,-332.483"/>
</g>
<!-- Node30 -->
<g id="node30" class="node"><title>Node30</title>
<g id="a_node30"><a xlink:href="operations_8h.html" target="_top" xlink:title="operations.h">
<polygon fill="white" stroke="black" points="1389.5,-481.5 1389.5,-500.5 1466.5,-500.5 1466.5,-481.5 1389.5,-481.5"/>
<text text-anchor="middle" x="1428" y="-488.5" font-family="Helvetica,sans-Serif" font-size="10.00">operations.h</text>
</a>
</g>
</g>
<!-- Node1&#45;&gt;Node30 -->
<g id="edge41" class="edge"><title>Node1&#45;&gt;Node30</title>
<path fill="none" stroke="midnightblue" d="M1449.27,-537.446C1445.01,-528.329 1440.27,-518.217 1436.36,-509.851"/>
<polygon fill="midnightblue" stroke="midnightblue" points="1439.48,-508.269 1432.07,-500.695 1433.14,-511.236 1439.48,-508.269"/>
</g>
<!-- Node31 -->
<g id="node31" class="node"><title>Node31</title>
<g id="a_node31"><a xlink:href="rectangular_8h.html" target="_top" xlink:title="rectangular.h">
<polygon fill="white" stroke="black" points="1563,-369.5 1563,-388.5 1643,-388.5 1643,-369.5 1563,-369.5"/>
<text text-anchor="middle" x="1603" y="-376.5" font-family="Helvetica,sans-Serif" font-size="10.00">rectangular.h</text>
</a>
</g>
</g>
<!-- Node1&#45;&gt;Node31 -->
<g id="edge57" class="edge"><title>Node1&#45;&gt;Node31</title>
<path fill="none" stroke="midnightblue" d="M1523.17,-537.431C1561.54,-518.316 1607.57,-487.913 1630,-445 1638.36,-429.01 1628.09,-409.841 1617.91,-396.48"/>
<polygon fill="midnightblue" stroke="midnightblue" points="1620.49,-394.11 1611.42,-388.631 1615.09,-398.569 1620.49,-394.11"/>
</g>
<!-- Node34 -->
<g id="node34" class="node"><title>Node34</title>
<g id="a_node34"><a xlink:href="datastructures_2HybridAutomaton_2flow_2typetraits_8h.html" target="_top" xlink:title="typetraits.h">
<polygon fill="white" stroke="black" points="1281.5,-425.5 1281.5,-444.5 1352.5,-444.5 1352.5,-425.5 1281.5,-425.5"/>
<text text-anchor="middle" x="1317" y="-432.5" font-family="Helvetica,sans-Serif" font-size="10.00">typetraits.h</text>
</a>
</g>
</g>
<!-- Node1&#45;&gt;Node34 -->
<g id="edge58" class="edge"><title>Node1&#45;&gt;Node34</title>
<path fill="none" stroke="midnightblue" d="M1425.39,-537.284C1410.92,-526.57 1394.27,-513.648 1380,-501 1362.47,-485.462 1343.99,-465.981 1331.62,-452.417"/>
<polygon fill="midnightblue" stroke="midnightblue" points="1334.06,-449.901 1324.76,-444.824 1328.87,-454.592 1334.06,-449.901"/>
</g>
<!-- Node36 -->
<g id="node36" class="node"><title>Node36</title>
<g id="a_node36"><a xlink:href="visitors_8h.html" target="_top" xlink:title="visitors.h">
<polygon fill="white" stroke="black" points="1561.5,-425.5 1561.5,-444.5 1620.5,-444.5 1620.5,-425.5 1561.5,-425.5"/>
<text text-anchor="middle" x="1591" y="-432.5" font-family="Helvetica,sans-Serif" font-size="10.00">visitors.h</text>
</a>
</g>
</g>
<!-- Node1&#45;&gt;Node36 -->
<g id="edge59" class="edge"><title>Node1&#45;&gt;Node36</title>
<path fill="none" stroke="midnightblue" d="M1486.99,-537.205C1513.26,-511.647 1553.01,-472.969 1574.98,-451.588"/>
<polygon fill="midnightblue" stroke="midnightblue" points="1577.49,-454.032 1582.21,-444.55 1572.61,-449.015 1577.49,-454.032"/>
</g>
<!-- Node3 -->
<g id="node3" class="node"><title>Node3</title>
<g id="a_node3"><a xlink:href="types_8h.html" target="_top" xlink:title="../../../types.h">
<polygon fill="white" stroke="black" points="1303.5,-257.5 1303.5,-276.5 1382.5,-276.5 1382.5,-257.5 1303.5,-257.5"/>
<text text-anchor="middle" x="1343" y="-264.5" font-family="Helvetica,sans-Serif" font-size="10.00">../../../types.h</text>
</a>
</g>
</g>
<!-- Node2&#45;&gt;Node3 -->
<g id="edge2" class="edge"><title>Node2&#45;&gt;Node3</title>
<path fill="none" stroke="midnightblue" d="M1469.55,-369.374C1463.78,-355.84 1450.98,-329.465 1433,-313 1417.35,-298.666 1396.28,-287.802 1378.46,-280.343"/>
<polygon fill="midnightblue" stroke="midnightblue" points="1379.54,-277.004 1368.95,-276.548 1376.94,-283.505 1379.54,-277.004"/>
</g>
<!-- Node8 -->
<g id="node8" class="node"><title>Node8</title>
<polygon fill="white" stroke="#bfbfbf" points="1190,-0.5 1190,-19.5 1236,-19.5 1236,-0.5 1190,-0.5"/>
<text text-anchor="middle" x="1213" y="-7.5" font-family="Helvetica,sans-Serif" font-size="10.00">iosfwd</text>
</g>
<!-- Node2&#45;&gt;Node8 -->
<g id="edge39" class="edge"><title>Node2&#45;&gt;Node8</title>
<path fill="none" stroke="midnightblue" d="M1477.59,-369.44C1486.87,-351.29 1507,-307.378 1507,-268 1507,-268 1507,-268 1507,-204.5 1507,-162.531 1515.38,-143.809 1488,-112 1425.22,-39.0586 1305,-18.7658 1246.56,-13.1423"/>
<polygon fill="midnightblue" stroke="midnightblue" points="1246.66,-9.6378 1236.39,-12.2535 1246.05,-16.6112 1246.66,-9.6378"/>
</g>
<!-- Node2&#45;&gt;Node29 -->
<g id="edge36" class="edge"><title>Node2&#45;&gt;Node29</title>
<path fill="none" stroke="midnightblue" d="M1452.4,-369.444C1431.01,-360.557 1397.32,-346.563 1372.98,-336.451"/>
<polygon fill="midnightblue" stroke="midnightblue" points="1374.08,-333.12 1363.5,-332.516 1371.39,-339.585 1374.08,-333.12"/>
</g>
<!-- Node4 -->
<g id="node4" class="node"><title>Node4</title>
<polygon fill="white" stroke="#bfbfbf" points="515,-123.5 515,-142.5 649,-142.5 649,-123.5 515,-123.5"/>
<text text-anchor="middle" x="582" y="-130.5" font-family="Helvetica,sans-Serif" font-size="10.00">carl/numbers/numbers.h</text>
</g>
<!-- Node3&#45;&gt;Node4 -->
<g id="edge3" class="edge"><title>Node3&#45;&gt;Node4</title>
<path fill="none" stroke="midnightblue" d="M1303.32,-261.727C1238.73,-254.575 1106.91,-239.163 996,-221 844.868,-196.25 807.233,-188.392 658,-154 646.38,-151.322 633.836,-148.142 622.354,-145.114"/>
<polygon fill="midnightblue" stroke="midnightblue" points="623.15,-141.704 612.586,-142.509 621.346,-148.468 623.15,-141.704"/>
</g>
<!-- Node5 -->
<g id="node5" class="node"><title>Node5</title>
<polygon fill="white" stroke="#bfbfbf" points="1187,-196 1187,-215 1273,-215 1273,-196 1187,-196"/>
<text text-anchor="middle" x="1230" y="-203" font-family="Helvetica,sans-Serif" font-size="10.00">carl/util/hash.h</text>
</g>
<!-- Node3&#45;&gt;Node5 -->
<g id="edge4" class="edge"><title>Node3&#45;&gt;Node5</title>
<path fill="none" stroke="midnightblue" d="M1326.81,-257.475C1308.1,-247.622 1277.08,-231.288 1255.2,-219.77"/>
<polygon fill="midnightblue" stroke="midnightblue" points="1256.64,-216.571 1246.16,-215.009 1253.38,-222.765 1256.64,-216.571"/>
</g>
<!-- Node6 -->
<g id="node6" class="node"><title>Node6</title>
<polygon fill="white" stroke="#bfbfbf" points="1291,-196 1291,-215 1395,-215 1395,-196 1291,-196"/>
<text text-anchor="middle" x="1343" y="-203" font-family="Helvetica,sans-Serif" font-size="10.00">eigen3/Eigen/Core</text>
</g>
<!-- Node3&#45;&gt;Node6 -->
<g id="edge5" class="edge"><title>Node3&#45;&gt;Node6</title>
<path fill="none" stroke="midnightblue" d="M1343,-257.475C1343,-249.08 1343,-235.981 1343,-225.163"/>
<polygon fill="midnightblue" stroke="midnightblue" points="1346.5,-225.009 1343,-215.009 1339.5,-225.009 1346.5,-225.009"/>
</g>
<!-- Node7 -->
<g id="node7" class="node"><title>Node7</title>
<polygon fill="white" stroke="#bfbfbf" points="1367,-123.5 1367,-142.5 1479,-142.5 1479,-123.5 1367,-123.5"/>
<text text-anchor="middle" x="1423" y="-130.5" font-family="Helvetica,sans-Serif" font-size="10.00">eigen3/Eigen/Dense</text>
</g>
<!-- Node3&#45;&gt;Node7 -->
<g id="edge6" class="edge"><title>Node3&#45;&gt;Node7</title>
<path fill="none" stroke="midnightblue" d="M1360.75,-257.457C1374.67,-249.83 1393.41,-237.344 1404,-221 1417.44,-200.265 1421.5,-171.51 1422.66,-152.831"/>
<polygon fill="midnightblue" stroke="midnightblue" points="1426.16,-152.795 1423.06,-142.664 1419.17,-152.518 1426.16,-152.795"/>
</g>
<!-- Node3&#45;&gt;Node8 -->
<g id="edge7" class="edge"><title>Node3&#45;&gt;Node8</title>
<path fill="none" stroke="midnightblue" d="M1303.47,-263.836C1144.39,-254.716 557.04,-216.956 506,-154 494.244,-139.5 493.77,-126.102 506,-112 550.936,-60.1879 1046.32,-22.4905 1179.95,-13.2129"/>
<polygon fill="midnightblue" stroke="midnightblue" points="1180.26,-16.7 1190,-12.5219 1179.78,-9.71651 1180.26,-16.7"/>
</g>
<!-- Node9 -->
<g id="node9" class="node"><title>Node9</title>
<polygon fill="white" stroke="#bfbfbf" points="1637,-0.5 1637,-19.5 1669,-19.5 1669,-0.5 1637,-0.5"/>
<text text-anchor="middle" x="1653" y="-7.5" font-family="Helvetica,sans-Serif" font-size="10.00">set</text>
</g>
<!-- Node3&#45;&gt;Node9 -->
<g id="edge8" class="edge"><title>Node3&#45;&gt;Node9</title>
<path fill="none" stroke="midnightblue" d="M1381.71,-257.437C1454.43,-238.967 1609.39,-187.697 1668,-76 1675.72,-61.2903 1670.08,-42.6583 1663.63,-29.1173"/>
<polygon fill="midnightblue" stroke="midnightblue" points="1666.52,-27.0999 1658.74,-19.9041 1660.33,-30.3787 1666.52,-27.0999"/>
</g>
<!-- Node10 -->
<g id="node10" class="node"><title>Node10</title>
<g id="a_node10"><a xlink:href="adaptions__eigen_8h.html" target="_top" xlink:title="util/adaptions_eigen\l/adaptions_eigen.h">
<polygon fill="white" stroke="black" points="1005.5,-190.5 1005.5,-220.5 1118.5,-220.5 1118.5,-190.5 1005.5,-190.5"/>
<text text-anchor="start" x="1013.5" y="-208.5" font-family="Helvetica,sans-Serif" font-size="10.00">util/adaptions_eigen</text>
<text text-anchor="middle" x="1062" y="-197.5" font-family="Helvetica,sans-Serif" font-size="10.00">/adaptions_eigen.h</text>
</a>
</g>
</g>
<!-- Node3&#45;&gt;Node10 -->
<g id="edge9" class="edge"><title>Node3&#45;&gt;Node10</title>
<path fill="none" stroke="midnightblue" d="M1303.34,-258.585C1257.88,-249.435 1182.84,-233.642 1128.45,-221.839"/>
<polygon fill="midnightblue" stroke="midnightblue" points="1129.06,-218.39 1118.55,-219.684 1127.58,-225.23 1129.06,-218.39"/>
</g>
<!-- Node10&#45;&gt;Node3 -->
<g id="edge27" class="edge"><title>Node10&#45;&gt;Node3</title>
<path fill="none" stroke="midnightblue" d="M1118.75,-217.382C1171.51,-228.158 1248.95,-244.558 1297.69,-255.278"/>
<polygon fill="midnightblue" stroke="midnightblue" points="1297.12,-258.736 1307.64,-257.475 1298.63,-251.9 1297.12,-258.736"/>
</g>
<!-- Node10&#45;&gt;Node4 -->
<g id="edge29" class="edge"><title>Node10&#45;&gt;Node4</title>
<path fill="none" stroke="midnightblue" d="M1005.42,-199.821C926.945,-192.788 780.841,-177.732 658,-154 645.651,-151.614 632.34,-148.353 620.362,-145.157"/>
<polygon fill="midnightblue" stroke="midnightblue" points="621.233,-141.766 610.664,-142.507 619.388,-148.519 621.233,-141.766"/>
</g>
<!-- Node10&#45;&gt;Node7 -->
<g id="edge30" class="edge"><title>Node10&#45;&gt;Node7</title>
<path fill="none" stroke="midnightblue" d="M1118.7,-196.938C1178.41,-188.476 1274.95,-173.375 1357,-154 1367.14,-151.606 1378.01,-148.529 1387.94,-145.511"/>
<polygon fill="midnightblue" stroke="midnightblue" points="1388.99,-148.85 1397.5,-142.538 1386.91,-142.165 1388.99,-148.85"/>
</g>
<!-- Node10&#45;&gt;Node8 -->
<g id="edge33" class="edge"><title>Node10&#45;&gt;Node8</title>
<path fill="none" stroke="midnightblue" d="M1037.41,-190.295C1024.91,-181.585 1010.91,-169.189 1004,-154 996.266,-137.011 994.08,-127.812 1004,-112 1042.81,-50.1421 1131.39,-25.2506 1179.84,-15.9859"/>
<polygon fill="midnightblue" stroke="midnightblue" points="1180.6,-19.4057 1189.82,-14.1905 1179.36,-12.5163 1180.6,-19.4057"/>
</g>
<!-- Node11 -->
<g id="node11" class="node"><title>Node11</title>
<g id="a_node11"><a xlink:href="config_8h.html" target="_top" xlink:title="../../config.h">
<polygon fill="white" stroke="black" points="667,-123.5 667,-142.5 739,-142.5 739,-123.5 667,-123.5"/>
<text text-anchor="middle" x="703" y="-130.5" font-family="Helvetica,sans-Serif" font-size="10.00">../../config.h</text>
</a>
</g>
</g>
<!-- Node10&#45;&gt;Node11 -->
<g id="edge10" class="edge"><title>Node10&#45;&gt;Node11</title>
<path fill="none" stroke="midnightblue" d="M1005.44,-199.844C941.804,-193.591 835.859,-180.108 748,-154 741.654,-152.114 735.029,-149.539 728.876,-146.865"/>
<polygon fill="midnightblue" stroke="midnightblue" points="730.25,-143.645 719.701,-142.664 727.337,-150.009 730.25,-143.645"/>
</g>
<!-- Node24 -->
<g id="node24" class="node"><title>Node24</title>
<g id="a_node24"><a xlink:href="transformation_8h.html" target="_top" xlink:title="transformation.h">
<polygon fill="white" stroke="black" points="1013.5,-123.5 1013.5,-142.5 1110.5,-142.5 1110.5,-123.5 1013.5,-123.5"/>
<text text-anchor="middle" x="1062" y="-130.5" font-family="Helvetica,sans-Serif" font-size="10.00">transformation.h</text>
</a>
</g>
</g>
<!-- Node10&#45;&gt;Node24 -->
<g id="edge28" class="edge"><title>Node10&#45;&gt;Node24</title>
<path fill="none" stroke="midnightblue" d="M1062,-190.233C1062,-179.501 1062,-164.687 1062,-152.959"/>
<polygon fill="midnightblue" stroke="midnightblue" points="1065.5,-152.893 1062,-142.893 1058.5,-152.893 1065.5,-152.893"/>
</g>
<!-- Node25 -->
<g id="node25" class="node"><title>Node25</title>
<polygon fill="white" stroke="#bfbfbf" points="1129,-123.5 1129,-142.5 1267,-142.5 1267,-123.5 1129,-123.5"/>
<text text-anchor="middle" x="1198" y="-130.5" font-family="Helvetica,sans-Serif" font-size="10.00">eigen3/Eigen/Eigenvalues</text>
</g>
<!-- Node10&#45;&gt;Node25 -->
<g id="edge31" class="edge"><title>Node10&#45;&gt;Node25</title>
<path fill="none" stroke="midnightblue" d="M1089.19,-190.403C1113.45,-177.83 1148.69,-159.56 1172.44,-147.251"/>
<polygon fill="midnightblue" stroke="midnightblue" points="1174.27,-150.243 1181.54,-142.534 1171.05,-144.029 1174.27,-150.243"/>
</g>
<!-- Node26 -->
<g id="node26" class="node"><title>Node26</title>
<polygon fill="white" stroke="#bfbfbf" points="1285.5,-123.5 1285.5,-142.5 1348.5,-142.5 1348.5,-123.5 1285.5,-123.5"/>
<text text-anchor="middle" x="1317" y="-130.5" font-family="Helvetica,sans-Serif" font-size="10.00">functional</text>
</g>
<!-- Node10&#45;&gt;Node26 -->
<g id="edge32" class="edge"><title>Node10&#45;&gt;Node26</title>
<path fill="none" stroke="midnightblue" d="M1118.86,-194.657C1162.56,-186.24 1224.05,-172.54 1276,-154 1281.41,-152.07 1287.04,-149.629 1292.34,-147.122"/>
<polygon fill="midnightblue" stroke="midnightblue" points="1293.99,-150.211 1301.39,-142.632 1290.88,-143.94 1293.99,-150.211"/>
</g>
<!-- Node27 -->
<g id="node27" class="node"><title>Node27</title>
<polygon fill="white" stroke="#bfbfbf" points="757,-123.5 757,-142.5 799,-142.5 799,-123.5 757,-123.5"/>
<text text-anchor="middle" x="778" y="-130.5" font-family="Helvetica,sans-Serif" font-size="10.00">limits</text>
</g>
<!-- Node10&#45;&gt;Node27 -->
<g id="edge34" class="edge"><title>Node10&#45;&gt;Node27</title>
<path fill="none" stroke="midnightblue" d="M1005.42,-199.644C952.699,-193.652 872.711,-180.761 808,-154 804.204,-152.43 800.383,-150.351 796.799,-148.126"/>
<polygon fill="midnightblue" stroke="midnightblue" points="798.766,-145.231 788.527,-142.506 794.831,-151.021 798.766,-145.231"/>
</g>
<!-- Node28 -->
<g id="node28" class="node"><title>Node28</title>
<polygon fill="white" stroke="#bfbfbf" points="817,-112.5 817,-153.5 957,-153.5 957,-112.5 817,-112.5"/>
<text text-anchor="start" x="825" y="-141.5" font-family="Helvetica,sans-Serif" font-size="10.00">eigen3/unsupported</text>
<text text-anchor="start" x="825" y="-130.5" font-family="Helvetica,sans-Serif" font-size="10.00">/Eigen/src/MatrixFunctions</text>
<text text-anchor="middle" x="887" y="-119.5" font-family="Helvetica,sans-Serif" font-size="10.00">/MatrixExponential.h</text>
</g>
<!-- Node10&#45;&gt;Node28 -->
<g id="edge35" class="edge"><title>Node10&#45;&gt;Node28</title>
<path fill="none" stroke="midnightblue" d="M1027.01,-190.403C1003.54,-180.949 972.079,-168.275 944.925,-157.335"/>
<polygon fill="midnightblue" stroke="midnightblue" points="946.103,-154.037 935.519,-153.546 943.487,-160.53 946.103,-154.037"/>
</g>
<!-- Node12 -->
<g id="node12" class="node"><title>Node12</title>
<g id="a_node12"><a xlink:href="flags_8h.html" target="_top" xlink:title="flags.h">
<polygon fill="white" stroke="black" points="707,-0.5 707,-19.5 755,-19.5 755,-0.5 707,-0.5"/>
<text text-anchor="middle" x="731" y="-7.5" font-family="Helvetica,sans-Serif" font-size="10.00">flags.h</text>
</a>
</g>
</g>
<!-- Node11&#45;&gt;Node12 -->
<g id="edge11" class="edge"><title>Node11&#45;&gt;Node12</title>
<path fill="none" stroke="midnightblue" d="M705.014,-123.298C709.534,-103.763 720.572,-56.0646 726.708,-29.5471"/>
<polygon fill="midnightblue" stroke="midnightblue" points="730.16,-30.1548 729.005,-19.6232 723.34,-28.5766 730.16,-30.1548"/>
</g>
<!-- Node13 -->
<g id="node13" class="node"><title>Node13</title>
<g id="a_node13"><a xlink:href="util_2convenienceOperators_8h.html" target="_top" xlink:title="util/convenienceOperators.h">
<polygon fill="white" stroke="black" points="1507.5,-56.5 1507.5,-75.5 1658.5,-75.5 1658.5,-56.5 1507.5,-56.5"/>
<text text-anchor="middle" x="1583" y="-63.5" font-family="Helvetica,sans-Serif" font-size="10.00">util/convenienceOperators.h</text>
</a>
</g>
</g>
<!-- Node11&#45;&gt;Node13 -->
<g id="edge12" class="edge"><title>Node11&#45;&gt;Node13</title>
<path fill="none" stroke="midnightblue" d="M718.745,-123.302C727.164,-119.096 737.859,-114.439 748,-112 888.176,-78.2854 1313.47,-69.7983 1497.08,-67.6874"/>
<polygon fill="midnightblue" stroke="midnightblue" points="1497.27,-71.1856 1507.23,-67.5744 1497.2,-64.1861 1497.27,-71.1856"/>
</g>
<!-- Node17 -->
<g id="node17" class="node"><title>Node17</title>
<g id="a_node17"><a xlink:href="Logger_8h.html" target="_top" xlink:title="util/logging/Logger.h">
<polygon fill="white" stroke="black" points="296.5,-56.5 296.5,-75.5 409.5,-75.5 409.5,-56.5 296.5,-56.5"/>
<text text-anchor="middle" x="353" y="-63.5" font-family="Helvetica,sans-Serif" font-size="10.00">util/logging/Logger.h</text>
</a>
</g>
</g>
<!-- Node11&#45;&gt;Node17 -->
<g id="edge19" class="edge"><title>Node11&#45;&gt;Node17</title>
<path fill="none" stroke="midnightblue" d="M686.736,-123.484C678.356,-119.432 667.853,-114.858 658,-112 577.898,-88.762 482.306,-77.1408 419.76,-71.6041"/>
<polygon fill="midnightblue" stroke="midnightblue" points="419.893,-68.1027 409.63,-70.735 419.294,-75.0771 419.893,-68.1027"/>
</g>
<!-- Node13&#45;&gt;Node3 -->
<g id="edge13" class="edge"><title>Node13&#45;&gt;Node3</title>
<path fill="none" stroke="midnightblue" d="M1575.49,-75.8499C1553.94,-100.866 1489.34,-173.368 1425,-221 1408.2,-233.438 1387.56,-244.746 1371.19,-252.915"/>
<polygon fill="midnightblue" stroke="midnightblue" points="1369.56,-249.817 1362.11,-257.348 1372.63,-256.108 1369.56,-249.817"/>
</g>
<!-- Node13&#45;&gt;Node8 -->
<g id="edge14" class="edge"><title>Node13&#45;&gt;Node8</title>
<path fill="none" stroke="midnightblue" d="M1524.37,-56.4435C1445.78,-44.9735 1308.91,-24.997 1246.15,-15.8385"/>
<polygon fill="midnightblue" stroke="midnightblue" points="1246.43,-12.3423 1236.03,-14.3614 1245.42,-19.2689 1246.43,-12.3423"/>
</g>
<!-- Node13&#45;&gt;Node9 -->
<g id="edge16" class="edge"><title>Node13&#45;&gt;Node9</title>
<path fill="none" stroke="midnightblue" d="M1594.25,-56.324C1604.8,-48.1849 1620.8,-35.8395 1633.44,-26.0874"/>
<polygon fill="midnightblue" stroke="midnightblue" points="1635.77,-28.7132 1641.55,-19.8339 1631.49,-23.1707 1635.77,-28.7132"/>
</g>
<!-- Node14 -->
<g id="node14" class="node"><title>Node14</title>
<polygon fill="white" stroke="#bfbfbf" points="1691,-0.5 1691,-19.5 1729,-19.5 1729,-0.5 1691,-0.5"/>
<text text-anchor="middle" x="1710" y="-7.5" font-family="Helvetica,sans-Serif" font-size="10.00">map</text>
</g>
<!-- Node13&#45;&gt;Node14 -->
<g id="edge15" class="edge"><title>Node13&#45;&gt;Node14</title>
<path fill="none" stroke="midnightblue" d="M1603.12,-56.4435C1624.27,-47.452 1657.71,-33.2332 1681.55,-23.0962"/>
<polygon fill="midnightblue" stroke="midnightblue" points="1682.97,-26.2969 1690.8,-19.1629 1680.23,-19.855 1682.97,-26.2969"/>
</g>
<!-- Node15 -->
<g id="node15" class="node"><title>Node15</title>
<polygon fill="white" stroke="#bfbfbf" points="1503,-0.5 1503,-19.5 1545,-19.5 1545,-0.5 1503,-0.5"/>
<text text-anchor="middle" x="1524" y="-7.5" font-family="Helvetica,sans-Serif" font-size="10.00">utility</text>
</g>
<!-- Node13&#45;&gt;Node15 -->
<g id="edge17" class="edge"><title>Node13&#45;&gt;Node15</title>
<path fill="none" stroke="midnightblue" d="M1573.52,-56.324C1564.8,-48.3414 1551.66,-36.3128 1541.1,-26.6529"/>
<polygon fill="midnightblue" stroke="midnightblue" points="1543.39,-24.0036 1533.65,-19.8339 1538.67,-29.1674 1543.39,-24.0036"/>
</g>
<!-- Node16 -->
<g id="node16" class="node"><title>Node16</title>
<polygon fill="white" stroke="#bfbfbf" points="1563.5,-0.5 1563.5,-19.5 1610.5,-19.5 1610.5,-0.5 1563.5,-0.5"/>
<text text-anchor="middle" x="1587" y="-7.5" font-family="Helvetica,sans-Serif" font-size="10.00">vector</text>
</g>
<!-- Node13&#45;&gt;Node16 -->
<g id="edge18" class="edge"><title>Node13&#45;&gt;Node16</title>
<path fill="none" stroke="midnightblue" d="M1583.66,-56.083C1584.18,-49.0059 1584.94,-38.8611 1585.59,-29.9865"/>
<polygon fill="midnightblue" stroke="midnightblue" points="1589.1,-29.9823 1586.35,-19.7511 1582.12,-29.4652 1589.1,-29.9823"/>
</g>
<!-- Node17&#45;&gt;Node12 -->
<g id="edge20" class="edge"><title>Node17&#45;&gt;Node12</title>
<path fill="none" stroke="midnightblue" d="M409.818,-58.468C492.871,-48.7661 643.37,-30.5603 697,-20 697.101,-19.9801 697.202,-19.9601 697.304,-19.9399"/>
<polygon fill="midnightblue" stroke="midnightblue" points="697.952,-23.3816 706.943,-17.7777 696.419,-16.5514 697.952,-23.3816"/>
</g>
<!-- Node18 -->
<g id="node18" class="node"><title>Node18</title>
<polygon fill="white" stroke="#bfbfbf" points="0,-0.5 0,-19.5 154,-19.5 154,-0.5 0,-0.5"/>
<text text-anchor="middle" x="77" y="-7.5" font-family="Helvetica,sans-Serif" font-size="10.00">carl/io/streamingOperators.h</text>
</g>
<!-- Node17&#45;&gt;Node18 -->
<g id="edge21" class="edge"><title>Node17&#45;&gt;Node18</title>
<path fill="none" stroke="midnightblue" d="M309.267,-56.4435C260.817,-46.9641 182.671,-31.6747 130.582,-21.4835"/>
<polygon fill="midnightblue" stroke="midnightblue" points="131.014,-18.0017 120.528,-19.5164 129.67,-24.8715 131.014,-18.0017"/>
</g>
<!-- Node19 -->
<g id="node19" class="node"><title>Node19</title>
<polygon fill="white" stroke="#bfbfbf" points="172.5,-0.5 172.5,-19.5 231.5,-19.5 231.5,-0.5 172.5,-0.5"/>
<text text-anchor="middle" x="202" y="-7.5" font-family="Helvetica,sans-Serif" font-size="10.00">iostream</text>
</g>
<!-- Node17&#45;&gt;Node19 -->
<g id="edge22" class="edge"><title>Node17&#45;&gt;Node19</title>
<path fill="none" stroke="midnightblue" d="M329.074,-56.4435C303.781,-47.3986 263.698,-33.064 235.32,-22.9158"/>
<polygon fill="midnightblue" stroke="midnightblue" points="236.409,-19.5882 225.814,-19.5164 234.052,-26.1794 236.409,-19.5882"/>
</g>
<!-- Node20 -->
<g id="node20" class="node"><title>Node20</title>
<polygon fill="white" stroke="#bfbfbf" points="250,-0.5 250,-19.5 306,-19.5 306,-0.5 250,-0.5"/>
<text text-anchor="middle" x="278" y="-7.5" font-family="Helvetica,sans-Serif" font-size="10.00">sstream</text>
</g>
<!-- Node17&#45;&gt;Node20 -->
<g id="edge23" class="edge"><title>Node17&#45;&gt;Node20</title>
<path fill="none" stroke="midnightblue" d="M340.95,-56.324C329.537,-48.1066 312.169,-35.6017 298.565,-25.8069"/>
<polygon fill="midnightblue" stroke="midnightblue" points="300.43,-22.8366 290.269,-19.8339 296.34,-28.5174 300.43,-22.8366"/>
</g>
<!-- Node21 -->
<g id="node21" class="node"><title>Node21</title>
<polygon fill="white" stroke="#bfbfbf" points="324,-0.5 324,-19.5 372,-19.5 372,-0.5 324,-0.5"/>
<text text-anchor="middle" x="348" y="-7.5" font-family="Helvetica,sans-Serif" font-size="10.00">thread</text>
</g>
<!-- Node17&#45;&gt;Node21 -->
<g id="edge24" class="edge"><title>Node17&#45;&gt;Node21</title>
<path fill="none" stroke="midnightblue" d="M352.174,-56.083C351.519,-49.0059 350.58,-38.8611 349.758,-29.9865"/>
<polygon fill="midnightblue" stroke="midnightblue" points="353.217,-29.3858 348.81,-19.7511 346.247,-30.0312 353.217,-29.3858"/>
</g>
<!-- Node22 -->
<g id="node22" class="node"><title>Node22</title>
<polygon fill="white" stroke="#bfbfbf" points="390.5,-0.5 390.5,-19.5 515.5,-19.5 515.5,-0.5 390.5,-0.5"/>
<text text-anchor="middle" x="453" y="-7.5" font-family="Helvetica,sans-Serif" font-size="10.00">carl/core/carlLogging.h</text>
</g>
<!-- Node17&#45;&gt;Node22 -->
<g id="edge25" class="edge"><title>Node17&#45;&gt;Node22</title>
<path fill="none" stroke="midnightblue" d="M369.067,-56.324C384.958,-47.7428 409.507,-34.486 427.958,-24.5224"/>
<polygon fill="midnightblue" stroke="midnightblue" points="429.837,-27.4857 436.973,-19.6545 426.511,-21.3264 429.837,-27.4857"/>
</g>
<!-- Node23 -->
<g id="node23" class="node"><title>Node23</title>
<polygon fill="white" stroke="#bfbfbf" points="533.5,-0.5 533.5,-19.5 688.5,-19.5 688.5,-0.5 533.5,-0.5"/>
<text text-anchor="middle" x="611" y="-7.5" font-family="Helvetica,sans-Serif" font-size="10.00">carl/core/carlLoggingHelper.h</text>
</g>
<!-- Node17&#45;&gt;Node23 -->
<g id="edge26" class="edge"><title>Node17&#45;&gt;Node23</title>
<path fill="none" stroke="midnightblue" d="M393.881,-56.4435C438.983,-47.0036 511.612,-31.802 560.302,-21.6111"/>
<polygon fill="midnightblue" stroke="midnightblue" points="561.24,-24.9909 570.31,-19.5164 559.805,-18.1394 561.24,-24.9909"/>
</g>
<!-- Node29&#45;&gt;Node3 -->
<g id="edge37" class="edge"><title>Node29&#45;&gt;Node3</title>
<path fill="none" stroke="midnightblue" d="M1343,-313.083C1343,-306.006 1343,-295.861 1343,-286.986"/>
<polygon fill="midnightblue" stroke="midnightblue" points="1346.5,-286.751 1343,-276.751 1339.5,-286.751 1346.5,-286.751"/>
</g>
<!-- Node29&#45;&gt;Node8 -->
<g id="edge38" class="edge"><title>Node29&#45;&gt;Node8</title>
<path fill="none" stroke="midnightblue" d="M1317.21,-321.452C1170.63,-318.009 449,-296.487 449,-206.5 449,-206.5 449,-206.5 449,-132 449,-51.6649 535.251,-76.218 613,-56 721.601,-27.7592 1070.51,-15.2254 1179.89,-11.9254"/>
<polygon fill="midnightblue" stroke="midnightblue" points="1180.11,-15.4206 1190,-11.6262 1179.9,-8.42362 1180.11,-15.4206"/>
</g>
<!-- Node30&#45;&gt;Node2 -->
<g id="edge43" class="edge"><title>Node30&#45;&gt;Node2</title>
<path fill="none" stroke="midnightblue" d="M1431.53,-481.368C1438.86,-463.456 1455.85,-421.923 1465.66,-397.948"/>
<polygon fill="midnightblue" stroke="midnightblue" points="1468.94,-399.172 1469.49,-388.591 1462.46,-396.522 1468.94,-399.172"/>
</g>
<!-- Node30&#45;&gt;Node3 -->
<g id="edge42" class="edge"><title>Node30&#45;&gt;Node3</title>
<path fill="none" stroke="midnightblue" d="M1426.69,-481.485C1422.4,-455.228 1407.33,-373.634 1377,-313 1371.86,-302.731 1364.3,-292.427 1357.61,-284.276"/>
<polygon fill="midnightblue" stroke="midnightblue" points="1360.25,-281.978 1351.09,-276.652 1354.93,-286.527 1360.25,-281.978"/>
</g>
<!-- Node30&#45;&gt;Node29 -->
<g id="edge44" class="edge"><title>Node30&#45;&gt;Node29</title>
<path fill="none" stroke="midnightblue" d="M1423.43,-481.075C1409.93,-454.719 1370.08,-376.878 1352.04,-341.661"/>
<polygon fill="midnightblue" stroke="midnightblue" points="1355.06,-339.874 1347.39,-332.568 1348.83,-343.064 1355.06,-339.874"/>
</g>
<!-- Node30&#45;&gt;Node31 -->
<g id="edge45" class="edge"><title>Node30&#45;&gt;Node31</title>
<path fill="none" stroke="midnightblue" d="M1441.73,-481.368C1471.89,-462.412 1544.14,-417.001 1580.82,-393.942"/>
<polygon fill="midnightblue" stroke="midnightblue" points="1582.73,-396.876 1589.33,-388.591 1579,-390.95 1582.73,-396.876"/>
</g>
<!-- Node30&#45;&gt;Node34 -->
<g id="edge50" class="edge"><title>Node30&#45;&gt;Node34</title>
<path fill="none" stroke="midnightblue" d="M1410.17,-481.324C1392.28,-472.625 1364.52,-459.12 1343.95,-449.113"/>
<polygon fill="midnightblue" stroke="midnightblue" points="1345.31,-445.882 1334.79,-444.655 1342.25,-452.177 1345.31,-445.882"/>
</g>
<!-- Node30&#45;&gt;Node36 -->
<g id="edge55" class="edge"><title>Node30&#45;&gt;Node36</title>
<path fill="none" stroke="midnightblue" d="M1453.83,-481.444C1481.25,-472.359 1524.78,-457.939 1555.43,-447.783"/>
<polygon fill="midnightblue" stroke="midnightblue" points="1556.9,-450.984 1565.29,-444.516 1554.7,-444.339 1556.9,-450.984"/>
</g>
<!-- Node31&#45;&gt;Node8 -->
<g id="edge48" class="edge"><title>Node31&#45;&gt;Node8</title>
<path fill="none" stroke="midnightblue" d="M1594.69,-369.411C1578.65,-351.887 1545,-310.099 1545,-268 1545,-268 1545,-268 1545,-204.5 1545,-125.178 1517.52,-90.3022 1446,-56 1379.83,-24.265 1292.94,-14.9063 1246.2,-12.149"/>
<polygon fill="midnightblue" stroke="midnightblue" points="1246.2,-8.64467 1236.03,-11.6174 1245.84,-15.6351 1246.2,-8.64467"/>
</g>
<!-- Node31&#45;&gt;Node14 -->
<g id="edge49" class="edge"><title>Node31&#45;&gt;Node14</title>
<path fill="none" stroke="midnightblue" d="M1625.95,-369.485C1661.29,-354.711 1725,-320.76 1725,-268 1725,-268 1725,-268 1725,-132 1725,-95.6179 1718.24,-53.5468 1713.79,-29.8253"/>
<polygon fill="midnightblue" stroke="midnightblue" points="1717.18,-28.9085 1711.84,-19.7595 1710.31,-30.2435 1717.18,-28.9085"/>
</g>
<!-- Node32 -->
<g id="node32" class="node"><title>Node32</title>
<polygon fill="white" stroke="#bfbfbf" points="1753,-313.5 1753,-332.5 1861,-332.5 1861,-313.5 1753,-313.5"/>
<text text-anchor="middle" x="1807" y="-320.5" font-family="Helvetica,sans-Serif" font-size="10.00">carl/core/Variable.h</text>
</g>
<!-- Node31&#45;&gt;Node32 -->
<g id="edge46" class="edge"><title>Node31&#45;&gt;Node32</title>
<path fill="none" stroke="midnightblue" d="M1635.32,-369.444C1670.39,-360.162 1726.5,-345.309 1764.96,-335.127"/>
<polygon fill="midnightblue" stroke="midnightblue" points="1766.06,-338.459 1774.83,-332.516 1764.26,-331.692 1766.06,-338.459"/>
</g>
<!-- Node33 -->
<g id="node33" class="node"><title>Node33</title>
<polygon fill="white" stroke="#bfbfbf" points="1879.5,-313.5 1879.5,-332.5 1998.5,-332.5 1998.5,-313.5 1879.5,-313.5"/>
<text text-anchor="middle" x="1939" y="-320.5" font-family="Helvetica,sans-Serif" font-size="10.00">carl/interval/Interval.h</text>
</g>
<!-- Node31&#45;&gt;Node33 -->
<g id="edge47" class="edge"><title>Node31&#45;&gt;Node33</title>
<path fill="none" stroke="midnightblue" d="M1643.1,-370.547C1646.11,-370.015 1649.1,-369.493 1652,-369 1727.05,-356.227 1813.37,-342.873 1871.58,-334.063"/>
<polygon fill="midnightblue" stroke="midnightblue" points="1872.39,-337.48 1881.75,-332.526 1871.34,-330.559 1872.39,-337.48"/>
</g>
<!-- Node34&#45;&gt;Node2 -->
<g id="edge51" class="edge"><title>Node34&#45;&gt;Node2</title>
<path fill="none" stroke="midnightblue" d="M1341.72,-425.444C1367.85,-416.399 1409.26,-402.064 1438.58,-391.916"/>
<polygon fill="midnightblue" stroke="midnightblue" points="1440.09,-395.095 1448.4,-388.516 1437.8,-388.48 1440.09,-395.095"/>
</g>
<!-- Node34&#45;&gt;Node29 -->
<g id="edge52" class="edge"><title>Node34&#45;&gt;Node29</title>
<path fill="none" stroke="midnightblue" d="M1319.04,-425.368C1323.24,-407.617 1332.92,-366.666 1338.6,-342.597"/>
<polygon fill="midnightblue" stroke="midnightblue" points="1342.08,-343.128 1340.97,-332.591 1335.26,-341.518 1342.08,-343.128"/>
</g>
<!-- Node34&#45;&gt;Node31 -->
<g id="edge53" class="edge"><title>Node34&#45;&gt;Node31</title>
<path fill="none" stroke="midnightblue" d="M1352.64,-427.27C1403.07,-417.748 1495.48,-400.301 1552.82,-389.474"/>
<polygon fill="midnightblue" stroke="midnightblue" points="1553.58,-392.893 1562.76,-387.598 1552.28,-386.015 1553.58,-392.893"/>
</g>
<!-- Node35 -->
<g id="node35" class="node"><title>Node35</title>
<polygon fill="white" stroke="#bfbfbf" points="1247,-369.5 1247,-388.5 1315,-388.5 1315,-369.5 1247,-369.5"/>
<text text-anchor="middle" x="1281" y="-376.5" font-family="Helvetica,sans-Serif" font-size="10.00">type_traits</text>
</g>
<!-- Node34&#45;&gt;Node35 -->
<g id="edge54" class="edge"><title>Node34&#45;&gt;Node35</title>
<path fill="none" stroke="midnightblue" d="M1311.06,-425.083C1306.02,-417.534 1298.66,-406.495 1292.49,-397.23"/>
<polygon fill="midnightblue" stroke="midnightblue" points="1295.29,-395.13 1286.83,-388.751 1289.47,-399.013 1295.29,-395.13"/>
</g>
<!-- Node37 -->
<g id="node37" class="node"><title>Node37</title>
<polygon fill="white" stroke="#bfbfbf" points="1661,-369.5 1661,-388.5 1711,-388.5 1711,-369.5 1661,-369.5"/>
<text text-anchor="middle" x="1686" y="-376.5" font-family="Helvetica,sans-Serif" font-size="10.00">variant</text>
</g>
<!-- Node36&#45;&gt;Node37 -->
<g id="edge56" class="edge"><title>Node36&#45;&gt;Node37</title>
<path fill="none" stroke="midnightblue" d="M1606.26,-425.324C1621.22,-416.822 1644.25,-403.729 1661.73,-393.797"/>
<polygon fill="midnightblue" stroke="midnightblue" points="1663.81,-396.639 1670.77,-388.655 1660.35,-390.553 1663.81,-396.639"/>
</g>
</g>
</svg>
        <g id="navigator" transform="translate(0 0)" fill="#404254">
                <rect fill="#f2f5e9" fill-opacity="0.5" stroke="#606060" stroke-width=".5" x="0" y="0" width="60" height="60"/>
                <use id="zoomplus" xlink:href="#zoomPlus" x="17" y="9" onmousedown="handleZoom(evt,'in')"/>
                <use id="zoomminus" xlink:href="#zoomMin" x="42" y="9" onmousedown="handleZoom(evt,'out')"/>
                <use id="reset" xlink:href="#resetDef" x="30" y="36" onmousedown="handleReset()"/>
                <g id="arrowUp" xlink:href="#dirArrow" transform="translate(30 24)" onmousedown="handlePan(0,-1)">
                  <use xlink:href="#rim" fill="#404040">
                        <set attributeName="fill" to="#808080" begin="arrowUp.mouseover" end="arrowUp.mouseout"/>
                  </use>
                  <path fill="none" stroke="white" stroke-width="1.5" d="M0,-3.0v7 M-2.5,-0.5L0,-3.0L2.5,-0.5"/>
                </g>
                <g id="arrowRight" xlink:href="#dirArrow" transform="rotate(90) translate(36 -43)" onmousedown="handlePan(1,0)">
                  <use xlink:href="#rim" fill="#404040">
                        <set attributeName="fill" to="#808080" begin="arrowRight.mouseover" end="arrowRight.mouseout"/>
                  </use>
                  <path fill="none" stroke="white" stroke-width="1.5" d="M0,-3.0v7 M-2.5,-0.5L0,-3.0L2.5,-0.5"/>
                </g>
                <g id="arrowDown" xlink:href="#dirArrow" transform="rotate(180) translate(-30 -48)" onmousedown="handlePan(0,1)">
                  <use xlink:href="#rim" fill="#404040">
                        <set attributeName="fill" to="#808080" begin="arrowDown.mouseover" end="arrowDown.mouseout"/>
                  </use>
                  <path fill="none" stroke="white" stroke-width="1.5" d="M0,-3.0v7 M-2.5,-0.5L0,-3.0L2.5,-0.5"/>
                </g>
                <g id="arrowLeft" xlink:href="#dirArrow" transform="rotate(270) translate(-36 17)" onmousedown="handlePan(-1,0)">
                  <use xlink:href="#rim" fill="#404040">
                        <set attributeName="fill" to="#808080" begin="arrowLeft.mouseover" end="arrowLeft.mouseout"/>
                  </use>
                  <path fill="none" stroke="white" stroke-width="1.5" d="M0,-3.0v7 M-2.5,-0.5L0,-3.0L2.5,-0.5"/>
                </g>
        </g>
        <svg viewBox="0 0 15 15" width="100%" height="30px" preserveAspectRatio="xMaxYMin meet">
         <g id="arrow_out" transform="scale(0.3 0.3)">
          <a xlink:href="flow_8h__incl_org.svg" target="_base">
           <rect id="button" ry="5" rx="5" y="6" x="6" height="38" width="38"
                fill="#f2f5e9" fill-opacity="0.5" stroke="#606060" stroke-width="1.0"/>
           <path id="arrow"
             d="M 11.500037,31.436501 C 11.940474,20.09759 22.043105,11.32322 32.158766,21.979434 L 37.068811,17.246167 C 37.068811,17.246167 37.088388,32 37.088388,32 L 22.160133,31.978069 C 22.160133,31.978069 26.997745,27.140456 26.997745,27.140456 C 18.528582,18.264221 13.291696,25.230495 11.500037,31.436501 z"
             style="fill:#404040;"/>
          </a>
         </g>
        </svg>
</svg>
