<?xml version="1.0" encoding="UTF-8" standalone="no"?>
<!DOCTYPE svg PUBLIC "-//W3C//DTD SVG 1.1//EN"
 "http://www.w3.org/Graphics/SVG/1.1/DTD/svg11.dtd">
<!-- Generated by graphviz version 2.38.0 (20140413.2041)
 -->
<!-- Title: /home/travis/build/hypro/hypro/src/hypro/representations/GeneralizedStar/GeneralizedStar.h Pages: 1 -->
<svg width="1726pt" height="564pt"
 viewBox="0.00 0.00 1726.00 564.00" xmlns="http://www.w3.org/2000/svg" xmlns:xlink="http://www.w3.org/1999/xlink">
<g id="graph0" class="graph" transform="scale(1 1) rotate(0) translate(4 560)">
<title>/home/travis/build/hypro/hypro/src/hypro/representations/GeneralizedStar/GeneralizedStar.h</title>
<polygon fill="white" stroke="none" points="-4,4 -4,-560 1722,-560 1722,4 -4,4"/>
<!-- Node1 -->
<g id="node1" class="node"><title>Node1</title>
<polygon fill="#bfbfbf" stroke="black" points="1188.5,-503.5 1188.5,-555.5 1343.5,-555.5 1343.5,-503.5 1188.5,-503.5"/>
<text text-anchor="start" x="1196.5" y="-543.5" font-family="Helvetica,sans-Serif" font-size="10.00">/home/travis/build</text>
<text text-anchor="start" x="1196.5" y="-532.5" font-family="Helvetica,sans-Serif" font-size="10.00">/hypro/hypro/src/hypro</text>
<text text-anchor="start" x="1196.5" y="-521.5" font-family="Helvetica,sans-Serif" font-size="10.00">/representations/Generalized</text>
<text text-anchor="middle" x="1266" y="-510.5" font-family="Helvetica,sans-Serif" font-size="10.00">Star/GeneralizedStar.h</text>
</g>
<!-- Node2 -->
<g id="node2" class="node"><title>Node2</title>
<g id="a_node2"><a xlink:href="Optimizer_8h.html" target="_top" xlink:title="../../util/linearOptimization\l/Optimizer.h">
<polygon fill="white" stroke="black" points="801.5,-436.5 801.5,-466.5 940.5,-466.5 940.5,-436.5 801.5,-436.5"/>
<text text-anchor="start" x="809.5" y="-454.5" font-family="Helvetica,sans-Serif" font-size="10.00">../../util/linearOptimization</text>
<text text-anchor="middle" x="871" y="-443.5" font-family="Helvetica,sans-Serif" font-size="10.00">/Optimizer.h</text>
</a>
</g>
</g>
<!-- Node1&#45;&gt;Node2 -->
<g id="edge1" class="edge"><title>Node1&#45;&gt;Node2</title>
<path fill="none" stroke="midnightblue" d="M1188.43,-513.576C1119.8,-500.37 1020.07,-481.181 950.776,-467.849"/>
<polygon fill="midnightblue" stroke="midnightblue" points="951.262,-464.379 940.781,-465.926 949.94,-471.253 951.262,-464.379"/>
</g>
<!-- Node23 -->
<g id="node23" class="node"><title>Node23</title>
<g id="a_node23"><a xlink:href="Logger_8h.html" target="_top" xlink:title="util/logging/Logger.h">
<polygon fill="white" stroke="black" points="446.5,-201.5 446.5,-220.5 559.5,-220.5 559.5,-201.5 446.5,-201.5"/>
<text text-anchor="middle" x="503" y="-208.5" font-family="Helvetica,sans-Serif" font-size="10.00">util/logging/Logger.h</text>
</a>
</g>
</g>
<!-- Node1&#45;&gt;Node23 -->
<g id="edge77" class="edge"><title>Node1&#45;&gt;Node23</title>
<path fill="none" stroke="midnightblue" d="M1236.58,-503.498C1198,-471.637 1127.3,-416.348 1060,-380 1020.64,-358.742 1004.99,-365.938 966,-344 946.398,-332.97 946.283,-322.719 926,-313 892.27,-296.838 657.328,-245.184 552.87,-222.665"/>
<polygon fill="midnightblue" stroke="midnightblue" points="553.393,-219.198 542.881,-220.515 551.92,-226.041 553.393,-219.198"/>
</g>
<!-- Node49 -->
<g id="node49" class="node"><title>Node49</title>
<g id="a_node49"><a xlink:href="GeneralizedStarSetting_8h.html" target="_top" xlink:title="GeneralizedStarSetting.h">
<polygon fill="white" stroke="black" points="1246.5,-442 1246.5,-461 1383.5,-461 1383.5,-442 1246.5,-442"/>
<text text-anchor="middle" x="1315" y="-449" font-family="Helvetica,sans-Serif" font-size="10.00">GeneralizedStarSetting.h</text>
</a>
</g>
</g>
<!-- Node1&#45;&gt;Node49 -->
<g id="edge78" class="edge"><title>Node1&#45;&gt;Node49</title>
<path fill="none" stroke="midnightblue" d="M1282.32,-503.193C1289.41,-492.198 1297.53,-479.602 1303.9,-469.716"/>
<polygon fill="midnightblue" stroke="midnightblue" points="1306.91,-471.51 1309.39,-461.209 1301.02,-467.717 1306.91,-471.51"/>
</g>
<!-- Node50 -->
<g id="node50" class="node"><title>Node50</title>
<polygon fill="white" stroke="#bfbfbf" points="1402,-442 1402,-461 1514,-461 1514,-442 1402,-442"/>
<text text-anchor="middle" x="1458" y="-449" font-family="Helvetica,sans-Serif" font-size="10.00">GeneralizedStar.tpp</text>
</g>
<!-- Node1&#45;&gt;Node50 -->
<g id="edge79" class="edge"><title>Node1&#45;&gt;Node50</title>
<path fill="none" stroke="midnightblue" d="M1329.4,-503.404C1362.14,-490.446 1400.61,-475.215 1426.89,-464.813"/>
<polygon fill="midnightblue" stroke="midnightblue" points="1428.32,-468.013 1436.33,-461.078 1425.74,-461.504 1428.32,-468.013"/>
</g>
<!-- Node3 -->
<g id="node3" class="node"><title>Node3</title>
<g id="a_node3"><a xlink:href="Point_8h.html" target="_top" xlink:title="../../datastructures\l/Point.h">
<polygon fill="white" stroke="black" points="975.5,-313.5 975.5,-343.5 1080.5,-343.5 1080.5,-313.5 975.5,-313.5"/>
<text text-anchor="start" x="983.5" y="-331.5" font-family="Helvetica,sans-Serif" font-size="10.00">../../datastructures</text>
<text text-anchor="middle" x="1028" y="-320.5" font-family="Helvetica,sans-Serif" font-size="10.00">/Point.h</text>
</a>
</g>
</g>
<!-- Node2&#45;&gt;Node3 -->
<g id="edge2" class="edge"><title>Node2&#45;&gt;Node3</title>
<path fill="none" stroke="midnightblue" d="M940.57,-440.883C988.17,-432.714 1045.24,-419.227 1060,-400 1071.26,-385.338 1061.18,-366.082 1049.45,-351.4"/>
<polygon fill="midnightblue" stroke="midnightblue" points="1052.06,-349.068 1042.88,-343.772 1046.75,-353.635 1052.06,-349.068"/>
</g>
<!-- Node5 -->
<g id="node5" class="node"><title>Node5</title>
<g id="a_node5"><a xlink:href="flags_8h.html" target="_top" xlink:title="flags.h">
<polygon fill="white" stroke="black" points="1544,-145.5 1544,-164.5 1592,-164.5 1592,-145.5 1544,-145.5"/>
<text text-anchor="middle" x="1568" y="-152.5" font-family="Helvetica,sans-Serif" font-size="10.00">flags.h</text>
</a>
</g>
</g>
<!-- Node2&#45;&gt;Node5 -->
<g id="edge50" class="edge"><title>Node2&#45;&gt;Node5</title>
<path fill="none" stroke="midnightblue" d="M940.803,-437.398C981.237,-428.822 1032.74,-416.197 1077,-400 1265.25,-331.111 1476.05,-210.441 1544.91,-169.803"/>
<polygon fill="midnightblue" stroke="midnightblue" points="1546.85,-172.723 1553.66,-164.614 1543.28,-166.701 1546.85,-172.723"/>
</g>
<!-- Node2&#45;&gt;Node23 -->
<g id="edge70" class="edge"><title>Node2&#45;&gt;Node23</title>
<path fill="none" stroke="midnightblue" d="M801.118,-451.007C688.703,-450.49 474.205,-443.602 414,-400 358.72,-359.964 317.516,-311.953 358,-257 376.04,-232.512 407.279,-220.957 436.151,-215.652"/>
<polygon fill="midnightblue" stroke="midnightblue" points="436.925,-219.072 446.24,-214.024 435.81,-212.161 436.925,-219.072"/>
</g>
<!-- Node27 -->
<g id="node27" class="node"><title>Node27</title>
<polygon fill="white" stroke="#bfbfbf" points="642,-145.5 642,-164.5 690,-164.5 690,-145.5 642,-145.5"/>
<text text-anchor="middle" x="666" y="-152.5" font-family="Helvetica,sans-Serif" font-size="10.00">thread</text>
</g>
<!-- Node2&#45;&gt;Node27 -->
<g id="edge69" class="edge"><title>Node2&#45;&gt;Node27</title>
<path fill="none" stroke="midnightblue" d="M940.939,-438.77C986.315,-428.127 1032.76,-409.509 1008,-380 948.825,-309.468 882.193,-392.603 804,-344 735.793,-301.605 690.435,-212.044 673.466,-173.857"/>
<polygon fill="midnightblue" stroke="midnightblue" points="676.616,-172.323 669.437,-164.531 670.19,-175.099 676.616,-172.323"/>
</g>
<!-- Node34 -->
<g id="node34" class="node"><title>Node34</title>
<polygon fill="white" stroke="#bfbfbf" points="1610,-145.5 1610,-164.5 1718,-164.5 1718,-145.5 1610,-145.5"/>
<text text-anchor="middle" x="1664" y="-152.5" font-family="Helvetica,sans-Serif" font-size="10.00">carl/util/Singleton.h</text>
</g>
<!-- Node2&#45;&gt;Node34 -->
<g id="edge66" class="edge"><title>Node2&#45;&gt;Node34</title>
<path fill="none" stroke="midnightblue" d="M940.761,-447.112C1133.82,-436.811 1661,-402.041 1661,-329.5 1661,-329.5 1661,-329.5 1661,-266 1661,-233.936 1662.29,-196.634 1663.18,-174.745"/>
<polygon fill="midnightblue" stroke="midnightblue" points="1666.68,-174.694 1663.61,-164.556 1659.69,-174.399 1666.68,-174.694"/>
</g>
<!-- Node37 -->
<g id="node37" class="node"><title>Node37</title>
<g id="a_node37"><a xlink:href="EvaluationResult_8h.html" target="_top" xlink:title="EvaluationResult.h">
<polygon fill="white" stroke="black" points="813,-319 813,-338 917,-338 917,-319 813,-319"/>
<text text-anchor="middle" x="865" y="-326" font-family="Helvetica,sans-Serif" font-size="10.00">EvaluationResult.h</text>
</a>
</g>
</g>
<!-- Node2&#45;&gt;Node37 -->
<g id="edge51" class="edge"><title>Node2&#45;&gt;Node37</title>
<path fill="none" stroke="midnightblue" d="M940.712,-445.186C1000.49,-437.807 1072.51,-420.436 1042,-380 1034.1,-369.53 963.525,-351.717 913.92,-340.287"/>
<polygon fill="midnightblue" stroke="midnightblue" points="914.522,-336.834 903.993,-338.02 912.963,-343.659 914.522,-336.834"/>
</g>
<!-- Node38 -->
<g id="node38" class="node"><title>Node38</title>
<g id="a_node38"><a xlink:href="util_2linearOptimization_2Strategy_8h.html" target="_top" xlink:title="Strategy.h">
<polygon fill="white" stroke="black" points="451.5,-380.5 451.5,-399.5 516.5,-399.5 516.5,-380.5 451.5,-380.5"/>
<text text-anchor="middle" x="484" y="-387.5" font-family="Helvetica,sans-Serif" font-size="10.00">Strategy.h</text>
</a>
</g>
</g>
<!-- Node2&#45;&gt;Node38 -->
<g id="edge53" class="edge"><title>Node2&#45;&gt;Node38</title>
<path fill="none" stroke="midnightblue" d="M801.19,-441C732.363,-431.429 624.249,-415.846 531,-400 529.541,-399.752 528.058,-399.495 526.56,-399.231"/>
<polygon fill="midnightblue" stroke="midnightblue" points="527.048,-395.763 516.584,-397.422 525.799,-402.651 527.048,-395.763"/>
</g>
<!-- Node39 -->
<g id="node39" class="node"><title>Node39</title>
<g id="a_node39"><a xlink:href="adaptions__glpk_8h.html" target="_top" xlink:title="glpk/adaptions_glpk.h">
<polygon fill="white" stroke="black" points="573,-380.5 573,-399.5 693,-399.5 693,-380.5 573,-380.5"/>
<text text-anchor="middle" x="633" y="-387.5" font-family="Helvetica,sans-Serif" font-size="10.00">glpk/adaptions_glpk.h</text>
</a>
</g>
</g>
<!-- Node2&#45;&gt;Node39 -->
<g id="edge54" class="edge"><title>Node2&#45;&gt;Node39</title>
<path fill="none" stroke="midnightblue" d="M814.899,-436.475C772.763,-425.941 715.863,-411.716 676.991,-401.998"/>
<polygon fill="midnightblue" stroke="midnightblue" points="677.576,-398.536 667.025,-399.506 675.878,-405.327 677.576,-398.536"/>
</g>
<!-- Node40 -->
<g id="node40" class="node"><title>Node40</title>
<g id="a_node40"><a xlink:href="glpk__context_8h.html" target="_top" xlink:title="../glpk_context.h">
<polygon fill="white" stroke="black" points="421.5,-319 421.5,-338 516.5,-338 516.5,-319 421.5,-319"/>
<text text-anchor="middle" x="469" y="-326" font-family="Helvetica,sans-Serif" font-size="10.00">../glpk_context.h</text>
</a>
</g>
</g>
<!-- Node2&#45;&gt;Node40 -->
<g id="edge64" class="edge"><title>Node2&#45;&gt;Node40</title>
<path fill="none" stroke="midnightblue" d="M801.231,-447.279C685.805,-441.228 465.421,-426.34 442,-400 428.332,-384.629 441.569,-361.609 453.86,-346.095"/>
<polygon fill="midnightblue" stroke="midnightblue" points="456.63,-348.24 460.414,-338.344 451.285,-343.72 456.63,-348.24"/>
</g>
<!-- Node41 -->
<g id="node41" class="node"><title>Node41</title>
<polygon fill="white" stroke="#bfbfbf" points="367.5,-257.5 367.5,-276.5 474.5,-276.5 474.5,-257.5 367.5,-257.5"/>
<text text-anchor="middle" x="421" y="-264.5" font-family="Helvetica,sans-Serif" font-size="10.00">carl/core/Relation.h</text>
</g>
<!-- Node2&#45;&gt;Node41 -->
<g id="edge65" class="edge"><title>Node2&#45;&gt;Node41</title>
<path fill="none" stroke="midnightblue" d="M801.489,-451.063C692.682,-450.558 488.787,-443.602 433,-400 399.4,-373.739 408.159,-316.323 415.556,-286.623"/>
<polygon fill="midnightblue" stroke="midnightblue" points="419.002,-287.286 418.233,-276.719 412.245,-285.459 419.002,-287.286"/>
</g>
<!-- Node42 -->
<g id="node42" class="node"><title>Node42</title>
<polygon fill="white" stroke="#bfbfbf" points="531.5,-257.5 531.5,-276.5 576.5,-276.5 576.5,-257.5 531.5,-257.5"/>
<text text-anchor="middle" x="554" y="-264.5" font-family="Helvetica,sans-Serif" font-size="10.00">glpk.h</text>
</g>
<!-- Node2&#45;&gt;Node42 -->
<g id="edge67" class="edge"><title>Node2&#45;&gt;Node42</title>
<path fill="none" stroke="midnightblue" d="M801.195,-448.709C720.588,-445.047 595.061,-433.903 564,-400 535.629,-369.033 542.667,-315.015 549.018,-286.634"/>
<polygon fill="midnightblue" stroke="midnightblue" points="552.447,-287.347 551.427,-276.801 545.648,-285.682 552.447,-287.347"/>
</g>
<!-- Node44 -->
<g id="node44" class="node"><title>Node44</title>
<polygon fill="white" stroke="#bfbfbf" points="711.5,-380.5 711.5,-399.5 758.5,-399.5 758.5,-380.5 711.5,-380.5"/>
<text text-anchor="middle" x="735" y="-387.5" font-family="Helvetica,sans-Serif" font-size="10.00">mutex</text>
</g>
<!-- Node2&#45;&gt;Node44 -->
<g id="edge68" class="edge"><title>Node2&#45;&gt;Node44</title>
<path fill="none" stroke="midnightblue" d="M838.77,-436.399C816.155,-426.505 786.162,-413.383 764.239,-403.792"/>
<polygon fill="midnightblue" stroke="midnightblue" points="765.354,-400.459 754.789,-399.658 762.548,-406.873 765.354,-400.459"/>
</g>
<!-- Node45 -->
<g id="node45" class="node"><title>Node45</title>
<g id="a_node45"><a xlink:href="statistics_8h.html" target="_top" xlink:title="../statistics/statistics.h">
<polygon fill="white" stroke="black" points="1506.5,-201.5 1506.5,-220.5 1629.5,-220.5 1629.5,-201.5 1506.5,-201.5"/>
<text text-anchor="middle" x="1568" y="-208.5" font-family="Helvetica,sans-Serif" font-size="10.00">../statistics/statistics.h</text>
</a>
</g>
</g>
<!-- Node2&#45;&gt;Node45 -->
<g id="edge71" class="edge"><title>Node2&#45;&gt;Node45</title>
<path fill="none" stroke="midnightblue" d="M940.692,-443.143C999.123,-435.797 1084.27,-422.325 1156,-400 1309.92,-352.095 1481.57,-260.333 1543.81,-225.692"/>
<polygon fill="midnightblue" stroke="midnightblue" points="1545.83,-228.576 1552.84,-220.639 1542.41,-222.468 1545.83,-228.576"/>
</g>
<!-- Node46 -->
<g id="node46" class="node"><title>Node46</title>
<polygon fill="white" stroke="#bfbfbf" points="776.5,-380.5 776.5,-399.5 823.5,-399.5 823.5,-380.5 776.5,-380.5"/>
<text text-anchor="middle" x="800" y="-387.5" font-family="Helvetica,sans-Serif" font-size="10.00">gmp.h</text>
</g>
<!-- Node2&#45;&gt;Node46 -->
<g id="edge74" class="edge"><title>Node2&#45;&gt;Node46</title>
<path fill="none" stroke="midnightblue" d="M854.174,-436.399C843.325,-427.308 829.223,-415.49 818.127,-406.191"/>
<polygon fill="midnightblue" stroke="midnightblue" points="820.244,-403.398 810.331,-399.658 815.748,-408.763 820.244,-403.398"/>
</g>
<!-- Node47 -->
<g id="node47" class="node"><title>Node47</title>
<polygon fill="white" stroke="#bfbfbf" points="842,-380.5 842,-399.5 900,-399.5 900,-380.5 842,-380.5"/>
<text text-anchor="middle" x="871" y="-387.5" font-family="Helvetica,sans-Serif" font-size="10.00">gmpxx.h</text>
</g>
<!-- Node2&#45;&gt;Node47 -->
<g id="edge75" class="edge"><title>Node2&#45;&gt;Node47</title>
<path fill="none" stroke="midnightblue" d="M871,-436.399C871,-428.466 871,-418.458 871,-409.858"/>
<polygon fill="midnightblue" stroke="midnightblue" points="874.5,-409.658 871,-399.658 867.5,-409.658 874.5,-409.658"/>
</g>
<!-- Node48 -->
<g id="node48" class="node"><title>Node48</title>
<polygon fill="white" stroke="#bfbfbf" points="918.5,-380.5 918.5,-399.5 999.5,-399.5 999.5,-380.5 918.5,-380.5"/>
<text text-anchor="middle" x="959" y="-387.5" font-family="Helvetica,sans-Serif" font-size="10.00">Optimizer.tpp</text>
</g>
<!-- Node2&#45;&gt;Node48 -->
<g id="edge76" class="edge"><title>Node2&#45;&gt;Node48</title>
<path fill="none" stroke="midnightblue" d="M891.855,-436.399C905.697,-427.04 923.811,-414.792 937.736,-405.377"/>
<polygon fill="midnightblue" stroke="midnightblue" points="939.872,-408.158 946.195,-399.658 935.951,-402.36 939.872,-408.158"/>
</g>
<!-- Node4 -->
<g id="node4" class="node"><title>Node4</title>
<g id="a_node4"><a xlink:href="config_8h.html" target="_top" xlink:title="../config.h">
<polygon fill="white" stroke="black" points="810.5,-257.5 810.5,-276.5 873.5,-276.5 873.5,-257.5 810.5,-257.5"/>
<text text-anchor="middle" x="842" y="-264.5" font-family="Helvetica,sans-Serif" font-size="10.00">../config.h</text>
</a>
</g>
</g>
<!-- Node3&#45;&gt;Node4 -->
<g id="edge3" class="edge"><title>Node3&#45;&gt;Node4</title>
<path fill="none" stroke="midnightblue" d="M983.921,-313.399C951.781,-303.118 908.743,-289.351 878.518,-279.682"/>
<polygon fill="midnightblue" stroke="midnightblue" points="879.384,-276.284 868.793,-276.571 877.251,-282.951 879.384,-276.284"/>
</g>
<!-- Node7 -->
<g id="node7" class="node"><title>Node7</title>
<g id="a_node7"><a xlink:href="types_8h.html" target="_top" xlink:title="../types.h">
<polygon fill="white" stroke="black" points="746.5,-145.5 746.5,-164.5 807.5,-164.5 807.5,-145.5 746.5,-145.5"/>
<text text-anchor="middle" x="777" y="-152.5" font-family="Helvetica,sans-Serif" font-size="10.00">../types.h</text>
</a>
</g>
</g>
<!-- Node3&#45;&gt;Node7 -->
<g id="edge37" class="edge"><title>Node3&#45;&gt;Node7</title>
<path fill="none" stroke="midnightblue" d="M1017.65,-313.227C1005.38,-297.291 983.475,-271.798 959,-257 911.351,-228.191 886.463,-250.115 839,-221 818.524,-208.44 800.243,-187.462 788.928,-172.744"/>
<polygon fill="midnightblue" stroke="midnightblue" points="791.595,-170.465 782.826,-164.52 785.974,-174.636 791.595,-170.465"/>
</g>
<!-- Node13 -->
<g id="node13" class="node"><title>Node13</title>
<polygon fill="white" stroke="#bfbfbf" points="924,-84 924,-103 956,-103 956,-84 924,-84"/>
<text text-anchor="middle" x="940" y="-91" font-family="Helvetica,sans-Serif" font-size="10.00">set</text>
</g>
<!-- Node3&#45;&gt;Node13 -->
<g id="edge47" class="edge"><title>Node3&#45;&gt;Node13</title>
<path fill="none" stroke="midnightblue" d="M1030.23,-313.053C1034.48,-280.559 1040.73,-200.246 1009,-145 999.081,-127.731 980.609,-114.693 965.272,-106.194"/>
<polygon fill="midnightblue" stroke="midnightblue" points="966.719,-103.001 956.232,-101.491 963.489,-109.211 966.719,-103.001"/>
</g>
<!-- Node22 -->
<g id="node22" class="node"><title>Node22</title>
<polygon fill="white" stroke="#bfbfbf" points="1056.5,-145.5 1056.5,-164.5 1103.5,-164.5 1103.5,-145.5 1056.5,-145.5"/>
<text text-anchor="middle" x="1080" y="-152.5" font-family="Helvetica,sans-Serif" font-size="10.00">vector</text>
</g>
<!-- Node3&#45;&gt;Node22 -->
<g id="edge48" class="edge"><title>Node3&#45;&gt;Node22</title>
<path fill="none" stroke="midnightblue" d="M1032.26,-313.465C1041.62,-282.57 1064.02,-208.69 1074.47,-174.251"/>
<polygon fill="midnightblue" stroke="midnightblue" points="1077.85,-175.145 1077.4,-164.56 1071.15,-173.114 1077.85,-175.145"/>
</g>
<!-- Node30 -->
<g id="node30" class="node"><title>Node30</title>
<g id="a_node30"><a xlink:href="VariablePool_8h.html" target="_top" xlink:title="../util/VariablePool.h">
<polygon fill="white" stroke="black" points="1113,-201.5 1113,-220.5 1223,-220.5 1223,-201.5 1113,-201.5"/>
<text text-anchor="middle" x="1168" y="-208.5" font-family="Helvetica,sans-Serif" font-size="10.00">../util/VariablePool.h</text>
</a>
</g>
</g>
<!-- Node3&#45;&gt;Node30 -->
<g id="edge38" class="edge"><title>Node3&#45;&gt;Node30</title>
<path fill="none" stroke="midnightblue" d="M1045.17,-313.337C1071.65,-291.487 1122.26,-249.732 1149.52,-227.244"/>
<polygon fill="midnightblue" stroke="midnightblue" points="1152.01,-229.733 1157.49,-220.669 1147.55,-224.334 1152.01,-229.733"/>
</g>
<!-- Node36 -->
<g id="node36" class="node"><title>Node36</title>
<polygon fill="white" stroke="#bfbfbf" points="891.5,-257.5 891.5,-276.5 950.5,-276.5 950.5,-257.5 891.5,-257.5"/>
<text text-anchor="middle" x="921" y="-264.5" font-family="Helvetica,sans-Serif" font-size="10.00">Point.tpp</text>
</g>
<!-- Node3&#45;&gt;Node36 -->
<g id="edge49" class="edge"><title>Node3&#45;&gt;Node36</title>
<path fill="none" stroke="midnightblue" d="M1002.64,-313.399C985.331,-303.773 962.524,-291.09 945.416,-281.577"/>
<polygon fill="midnightblue" stroke="midnightblue" points="947.01,-278.459 936.569,-276.658 943.608,-284.577 947.01,-278.459"/>
</g>
<!-- Node4&#45;&gt;Node5 -->
<g id="edge4" class="edge"><title>Node4&#45;&gt;Node5</title>
<path fill="none" stroke="midnightblue" d="M873.81,-258.485C876.572,-257.941 879.331,-257.436 882,-257 1036.33,-231.792 1081.24,-262.548 1232,-221 1252.32,-215.4 1254.78,-206.956 1275,-201 1383.84,-168.938 1418.8,-187.322 1534.02,-164.934"/>
<polygon fill="midnightblue" stroke="midnightblue" points="1534.82,-168.345 1543.94,-162.947 1533.44,-161.481 1534.82,-168.345"/>
</g>
<!-- Node6 -->
<g id="node6" class="node"><title>Node6</title>
<g id="a_node6"><a xlink:href="util_2convenienceOperators_8h.html" target="_top" xlink:title="util/convenienceOperators.h">
<polygon fill="white" stroke="black" points="848.5,-201.5 848.5,-220.5 999.5,-220.5 999.5,-201.5 848.5,-201.5"/>
<text text-anchor="middle" x="924" y="-208.5" font-family="Helvetica,sans-Serif" font-size="10.00">util/convenienceOperators.h</text>
</a>
</g>
</g>
<!-- Node4&#45;&gt;Node6 -->
<g id="edge5" class="edge"><title>Node4&#45;&gt;Node6</title>
<path fill="none" stroke="midnightblue" d="M855.175,-257.324C867.847,-248.979 887.233,-236.212 902.206,-226.352"/>
<polygon fill="midnightblue" stroke="midnightblue" points="904.431,-229.078 910.858,-220.655 900.581,-223.231 904.431,-229.078"/>
</g>
<!-- Node4&#45;&gt;Node23 -->
<g id="edge29" class="edge"><title>Node4&#45;&gt;Node23</title>
<path fill="none" stroke="midnightblue" d="M810.412,-260.968C754.918,-252.129 638.94,-233.654 566.376,-222.095"/>
<polygon fill="midnightblue" stroke="midnightblue" points="566.862,-218.629 556.436,-220.512 565.761,-225.542 566.862,-218.629"/>
</g>
<!-- Node6&#45;&gt;Node7 -->
<g id="edge6" class="edge"><title>Node6&#45;&gt;Node7</title>
<path fill="none" stroke="midnightblue" d="M900.707,-201.444C876.193,-192.438 837.404,-178.189 809.8,-168.049"/>
<polygon fill="midnightblue" stroke="midnightblue" points="810.777,-164.679 800.184,-164.516 808.363,-171.25 810.777,-164.679"/>
</g>
<!-- Node12 -->
<g id="node12" class="node"><title>Node12</title>
<polygon fill="white" stroke="#bfbfbf" points="854,-11.5 854,-30.5 900,-30.5 900,-11.5 854,-11.5"/>
<text text-anchor="middle" x="877" y="-18.5" font-family="Helvetica,sans-Serif" font-size="10.00">iosfwd</text>
</g>
<!-- Node6&#45;&gt;Node12 -->
<g id="edge24" class="edge"><title>Node6&#45;&gt;Node12</title>
<path fill="none" stroke="midnightblue" d="M921.858,-201.434C914.717,-172.867 891.607,-80.4262 881.642,-40.5696"/>
<polygon fill="midnightblue" stroke="midnightblue" points="884.975,-39.4693 879.154,-30.6168 878.184,-41.1671 884.975,-39.4693"/>
</g>
<!-- Node6&#45;&gt;Node13 -->
<g id="edge26" class="edge"><title>Node6&#45;&gt;Node13</title>
<path fill="none" stroke="midnightblue" d="M925.203,-201.319C927.774,-182.757 933.858,-138.839 937.372,-113.473"/>
<polygon fill="midnightblue" stroke="midnightblue" points="940.878,-113.668 938.783,-103.282 933.944,-112.707 940.878,-113.668"/>
</g>
<!-- Node20 -->
<g id="node20" class="node"><title>Node20</title>
<polygon fill="white" stroke="#bfbfbf" points="962,-145.5 962,-164.5 1000,-164.5 1000,-145.5 962,-145.5"/>
<text text-anchor="middle" x="981" y="-152.5" font-family="Helvetica,sans-Serif" font-size="10.00">map</text>
</g>
<!-- Node6&#45;&gt;Node20 -->
<g id="edge25" class="edge"><title>Node6&#45;&gt;Node20</title>
<path fill="none" stroke="midnightblue" d="M933.158,-201.324C941.501,-193.42 954.032,-181.548 964.177,-171.938"/>
<polygon fill="midnightblue" stroke="midnightblue" points="966.823,-174.252 971.675,-164.834 962.009,-169.171 966.823,-174.252"/>
</g>
<!-- Node21 -->
<g id="node21" class="node"><title>Node21</title>
<polygon fill="white" stroke="#bfbfbf" points="826,-145.5 826,-164.5 868,-164.5 868,-145.5 826,-145.5"/>
<text text-anchor="middle" x="847" y="-152.5" font-family="Helvetica,sans-Serif" font-size="10.00">utility</text>
</g>
<!-- Node6&#45;&gt;Node21 -->
<g id="edge27" class="edge"><title>Node6&#45;&gt;Node21</title>
<path fill="none" stroke="midnightblue" d="M911.629,-201.324C899.842,-193.058 881.868,-180.453 867.864,-170.632"/>
<polygon fill="midnightblue" stroke="midnightblue" points="869.538,-167.531 859.341,-164.655 865.518,-173.262 869.538,-167.531"/>
</g>
<!-- Node6&#45;&gt;Node22 -->
<g id="edge28" class="edge"><title>Node6&#45;&gt;Node22</title>
<path fill="none" stroke="midnightblue" d="M948.719,-201.444C975.156,-192.292 1017.24,-177.726 1046.61,-167.559"/>
<polygon fill="midnightblue" stroke="midnightblue" points="1048.11,-170.742 1056.42,-164.163 1045.82,-164.127 1048.11,-170.742"/>
</g>
<!-- Node8 -->
<g id="node8" class="node"><title>Node8</title>
<polygon fill="white" stroke="#bfbfbf" points="702,-11.5 702,-30.5 836,-30.5 836,-11.5 702,-11.5"/>
<text text-anchor="middle" x="769" y="-18.5" font-family="Helvetica,sans-Serif" font-size="10.00">carl/numbers/numbers.h</text>
</g>
<!-- Node7&#45;&gt;Node8 -->
<g id="edge7" class="edge"><title>Node7&#45;&gt;Node8</title>
<path fill="none" stroke="midnightblue" d="M783.367,-145.232C789.26,-136.532 797.607,-122.572 801,-109 804.342,-95.6336 804.536,-91.3162 801,-78 797.266,-63.9376 789.078,-49.7234 781.92,-39.1344"/>
<polygon fill="midnightblue" stroke="midnightblue" points="784.681,-36.9772 776.033,-30.857 778.977,-41.0346 784.681,-36.9772"/>
</g>
<!-- Node9 -->
<g id="node9" class="node"><title>Node9</title>
<polygon fill="white" stroke="#bfbfbf" points="706,-84 706,-103 792,-103 792,-84 706,-84"/>
<text text-anchor="middle" x="749" y="-91" font-family="Helvetica,sans-Serif" font-size="10.00">carl/util/hash.h</text>
</g>
<!-- Node7&#45;&gt;Node9 -->
<g id="edge8" class="edge"><title>Node7&#45;&gt;Node9</title>
<path fill="none" stroke="midnightblue" d="M772.988,-145.475C768.913,-136.815 762.482,-123.149 757.304,-112.145"/>
<polygon fill="midnightblue" stroke="midnightblue" points="760.429,-110.567 753.004,-103.009 754.095,-113.548 760.429,-110.567"/>
</g>
<!-- Node10 -->
<g id="node10" class="node"><title>Node10</title>
<polygon fill="white" stroke="#bfbfbf" points="584,-84 584,-103 688,-103 688,-84 584,-84"/>
<text text-anchor="middle" x="636" y="-91" font-family="Helvetica,sans-Serif" font-size="10.00">eigen3/Eigen/Core</text>
</g>
<!-- Node7&#45;&gt;Node10 -->
<g id="edge9" class="edge"><title>Node7&#45;&gt;Node10</title>
<path fill="none" stroke="midnightblue" d="M756.798,-145.475C732.926,-135.401 692.998,-118.553 665.627,-107.002"/>
<polygon fill="midnightblue" stroke="midnightblue" points="666.738,-103.672 656.164,-103.009 664.017,-110.122 666.738,-103.672"/>
</g>
<!-- Node11 -->
<g id="node11" class="node"><title>Node11</title>
<polygon fill="white" stroke="#bfbfbf" points="572,-11.5 572,-30.5 684,-30.5 684,-11.5 572,-11.5"/>
<text text-anchor="middle" x="628" y="-18.5" font-family="Helvetica,sans-Serif" font-size="10.00">eigen3/Eigen/Dense</text>
</g>
<!-- Node7&#45;&gt;Node11 -->
<g id="edge10" class="edge"><title>Node7&#45;&gt;Node11</title>
<path fill="none" stroke="midnightblue" d="M746.379,-147.69C690.559,-136.118 577.704,-112.373 575,-109 556.165,-85.5074 585.823,-54.7837 607.804,-36.8371"/>
<polygon fill="midnightblue" stroke="midnightblue" points="610.02,-39.5471 615.736,-30.6262 605.705,-34.0357 610.02,-39.5471"/>
</g>
<!-- Node7&#45;&gt;Node12 -->
<g id="edge11" class="edge"><title>Node7&#45;&gt;Node12</title>
<path fill="none" stroke="midnightblue" d="M785.301,-145.313C793.633,-136.447 806.677,-122.159 817,-109 835.25,-85.7355 854.3,-57.2844 865.911,-39.3964"/>
<polygon fill="midnightblue" stroke="midnightblue" points="869.074,-40.9484 871.543,-30.6453 863.188,-37.1598 869.074,-40.9484"/>
</g>
<!-- Node7&#45;&gt;Node13 -->
<g id="edge12" class="edge"><title>Node7&#45;&gt;Node13</title>
<path fill="none" stroke="midnightblue" d="M800.354,-145.475C830.408,-134.505 882.473,-115.499 913.831,-104.052"/>
<polygon fill="midnightblue" stroke="midnightblue" points="915.417,-107.2 923.611,-100.483 913.017,-100.624 915.417,-107.2"/>
</g>
<!-- Node14 -->
<g id="node14" class="node"><title>Node14</title>
<g id="a_node14"><a xlink:href="adaptions__eigen_8h.html" target="_top" xlink:title="util/adaptions_eigen\l/adaptions_eigen.h">
<polygon fill="white" stroke="black" points="414.5,-78.5 414.5,-108.5 527.5,-108.5 527.5,-78.5 414.5,-78.5"/>
<text text-anchor="start" x="422.5" y="-96.5" font-family="Helvetica,sans-Serif" font-size="10.00">util/adaptions_eigen</text>
<text text-anchor="middle" x="471" y="-85.5" font-family="Helvetica,sans-Serif" font-size="10.00">/adaptions_eigen.h</text>
</a>
</g>
</g>
<!-- Node7&#45;&gt;Node14 -->
<g id="edge13" class="edge"><title>Node7&#45;&gt;Node14</title>
<path fill="none" stroke="midnightblue" d="M746.023,-149.469C738.371,-148.025 730.351,-146.431 723,-145 641.933,-129.214 619.09,-125.852 537.947,-109.964"/>
<polygon fill="midnightblue" stroke="midnightblue" points="538.242,-106.455 527.755,-107.963 536.893,-113.324 538.242,-106.455"/>
</g>
<!-- Node14&#45;&gt;Node4 -->
<g id="edge14" class="edge"><title>Node14&#45;&gt;Node4</title>
<path fill="none" stroke="midnightblue" d="M527.686,-103.843C585.056,-113.866 669.394,-130.328 699,-145 753.165,-171.844 804.065,-223.499 827.884,-249.782"/>
<polygon fill="midnightblue" stroke="midnightblue" points="825.37,-252.222 834.635,-257.36 830.596,-247.565 825.37,-252.222"/>
</g>
<!-- Node14&#45;&gt;Node7 -->
<g id="edge15" class="edge"><title>Node14&#45;&gt;Node7</title>
<path fill="none" stroke="midnightblue" d="M527.599,-104.343C535.498,-105.919 543.47,-107.518 551,-109 632.035,-124.951 654.877,-128.319 736.05,-144.047"/>
<polygon fill="midnightblue" stroke="midnightblue" points="735.763,-147.556 746.247,-146.028 737.098,-140.685 735.763,-147.556"/>
</g>
<!-- Node14&#45;&gt;Node8 -->
<g id="edge17" class="edge"><title>Node14&#45;&gt;Node8</title>
<path fill="none" stroke="midnightblue" d="M527.696,-80.1545C572.627,-70.2378 636.953,-55.7453 693,-42 704.261,-39.2382 716.421,-36.106 727.642,-33.1537"/>
<polygon fill="midnightblue" stroke="midnightblue" points="728.86,-36.452 737.63,-30.5087 727.068,-29.6853 728.86,-36.452"/>
</g>
<!-- Node14&#45;&gt;Node11 -->
<g id="edge18" class="edge"><title>Node14&#45;&gt;Node11</title>
<path fill="none" stroke="midnightblue" d="M502.394,-78.4027C530.766,-65.6622 572.167,-47.0715 599.58,-34.762"/>
<polygon fill="midnightblue" stroke="midnightblue" points="601.307,-37.8229 608.996,-30.5336 598.44,-31.4371 601.307,-37.8229"/>
</g>
<!-- Node14&#45;&gt;Node12 -->
<g id="edge21" class="edge"><title>Node14&#45;&gt;Node12</title>
<path fill="none" stroke="midnightblue" d="M527.666,-84.5369C543.023,-82.3958 559.646,-80.0939 575,-78 694.952,-61.6414 731.095,-83.0083 845,-42 849.161,-40.502 853.352,-38.4036 857.269,-36.1254"/>
<polygon fill="midnightblue" stroke="midnightblue" points="859.233,-39.0235 865.765,-30.6815 855.457,-33.1296 859.233,-39.0235"/>
</g>
<!-- Node15 -->
<g id="node15" class="node"><title>Node15</title>
<g id="a_node15"><a xlink:href="transformation_8h.html" target="_top" xlink:title="transformation.h">
<polygon fill="white" stroke="black" points="218.5,-11.5 218.5,-30.5 315.5,-30.5 315.5,-11.5 218.5,-11.5"/>
<text text-anchor="middle" x="267" y="-18.5" font-family="Helvetica,sans-Serif" font-size="10.00">transformation.h</text>
</a>
</g>
</g>
<!-- Node14&#45;&gt;Node15 -->
<g id="edge16" class="edge"><title>Node14&#45;&gt;Node15</title>
<path fill="none" stroke="midnightblue" d="M430.208,-78.4027C392.372,-65.3269 336.704,-46.089 301.155,-33.8034"/>
<polygon fill="midnightblue" stroke="midnightblue" points="302.288,-30.4919 291.693,-30.5336 300.001,-37.108 302.288,-30.4919"/>
</g>
<!-- Node16 -->
<g id="node16" class="node"><title>Node16</title>
<polygon fill="white" stroke="#bfbfbf" points="334,-11.5 334,-30.5 472,-30.5 472,-11.5 334,-11.5"/>
<text text-anchor="middle" x="403" y="-18.5" font-family="Helvetica,sans-Serif" font-size="10.00">eigen3/Eigen/Eigenvalues</text>
</g>
<!-- Node14&#45;&gt;Node16 -->
<g id="edge19" class="edge"><title>Node14&#45;&gt;Node16</title>
<path fill="none" stroke="midnightblue" d="M457.239,-78.2333C446.033,-66.6154 430.216,-50.2163 418.552,-38.1241"/>
<polygon fill="midnightblue" stroke="midnightblue" points="421.039,-35.6609 411.578,-30.8932 416.001,-40.5205 421.039,-35.6609"/>
</g>
<!-- Node17 -->
<g id="node17" class="node"><title>Node17</title>
<polygon fill="white" stroke="#bfbfbf" points="490.5,-11.5 490.5,-30.5 553.5,-30.5 553.5,-11.5 490.5,-11.5"/>
<text text-anchor="middle" x="522" y="-18.5" font-family="Helvetica,sans-Serif" font-size="10.00">functional</text>
</g>
<!-- Node14&#45;&gt;Node17 -->
<g id="edge20" class="edge"><title>Node14&#45;&gt;Node17</title>
<path fill="none" stroke="midnightblue" d="M481.321,-78.2333C489.485,-66.9474 500.913,-51.1495 509.579,-39.1709"/>
<polygon fill="midnightblue" stroke="midnightblue" points="512.541,-41.0468 515.567,-30.8932 506.87,-36.944 512.541,-41.0468"/>
</g>
<!-- Node18 -->
<g id="node18" class="node"><title>Node18</title>
<polygon fill="white" stroke="#bfbfbf" points="0,-11.5 0,-30.5 42,-30.5 42,-11.5 0,-11.5"/>
<text text-anchor="middle" x="21" y="-18.5" font-family="Helvetica,sans-Serif" font-size="10.00">limits</text>
</g>
<!-- Node14&#45;&gt;Node18 -->
<g id="edge22" class="edge"><title>Node14&#45;&gt;Node18</title>
<path fill="none" stroke="midnightblue" d="M414.306,-88.955C315.575,-82.2403 116.362,-66.1431 51,-42 47.0824,-40.5529 43.1691,-38.5016 39.524,-36.2594"/>
<polygon fill="midnightblue" stroke="midnightblue" points="41.3922,-33.2967 31.1657,-30.5276 37.4333,-39.0697 41.3922,-33.2967"/>
</g>
<!-- Node19 -->
<g id="node19" class="node"><title>Node19</title>
<polygon fill="white" stroke="#bfbfbf" points="60,-0.5 60,-41.5 200,-41.5 200,-0.5 60,-0.5"/>
<text text-anchor="start" x="68" y="-29.5" font-family="Helvetica,sans-Serif" font-size="10.00">eigen3/unsupported</text>
<text text-anchor="start" x="68" y="-18.5" font-family="Helvetica,sans-Serif" font-size="10.00">/Eigen/src/MatrixFunctions</text>
<text text-anchor="middle" x="130" y="-7.5" font-family="Helvetica,sans-Serif" font-size="10.00">/MatrixExponential.h</text>
</g>
<!-- Node14&#45;&gt;Node19 -->
<g id="edge23" class="edge"><title>Node14&#45;&gt;Node19</title>
<path fill="none" stroke="midnightblue" d="M414.331,-82.5497C363.316,-73.3716 286.077,-58.9323 209.924,-42.151"/>
<polygon fill="midnightblue" stroke="midnightblue" points="210.682,-38.7341 200.161,-39.9852 209.166,-45.568 210.682,-38.7341"/>
</g>
<!-- Node23&#45;&gt;Node5 -->
<g id="edge30" class="edge"><title>Node23&#45;&gt;Node5</title>
<path fill="none" stroke="midnightblue" d="M559.813,-208.263C756.142,-202.161 1400.75,-181.268 1533.69,-164.655"/>
<polygon fill="midnightblue" stroke="midnightblue" points="1534.57,-168.067 1543.98,-163.214 1533.59,-161.134 1534.57,-168.067"/>
</g>
<!-- Node24 -->
<g id="node24" class="node"><title>Node24</title>
<polygon fill="white" stroke="#bfbfbf" points="1,-145.5 1,-164.5 155,-164.5 155,-145.5 1,-145.5"/>
<text text-anchor="middle" x="78" y="-152.5" font-family="Helvetica,sans-Serif" font-size="10.00">carl/io/streamingOperators.h</text>
</g>
<!-- Node23&#45;&gt;Node24 -->
<g id="edge31" class="edge"><title>Node23&#45;&gt;Node24</title>
<path fill="none" stroke="midnightblue" d="M446.124,-202.773C371.137,-193.246 238.918,-176.446 155.022,-165.786"/>
<polygon fill="midnightblue" stroke="midnightblue" points="155.399,-162.306 145.038,-164.518 154.517,-169.25 155.399,-162.306"/>
</g>
<!-- Node25 -->
<g id="node25" class="node"><title>Node25</title>
<polygon fill="white" stroke="#bfbfbf" points="173.5,-145.5 173.5,-164.5 232.5,-164.5 232.5,-145.5 173.5,-145.5"/>
<text text-anchor="middle" x="203" y="-152.5" font-family="Helvetica,sans-Serif" font-size="10.00">iostream</text>
</g>
<!-- Node23&#45;&gt;Node25 -->
<g id="edge32" class="edge"><title>Node23&#45;&gt;Node25</title>
<path fill="none" stroke="midnightblue" d="M448.346,-201.492C397.595,-193.384 319.706,-180.418 242.653,-165.038"/>
<polygon fill="midnightblue" stroke="midnightblue" points="243.267,-161.592 232.773,-163.052 241.887,-168.454 243.267,-161.592"/>
</g>
<!-- Node26 -->
<g id="node26" class="node"><title>Node26</title>
<polygon fill="white" stroke="#bfbfbf" points="251,-145.5 251,-164.5 307,-164.5 307,-145.5 251,-145.5"/>
<text text-anchor="middle" x="279" y="-152.5" font-family="Helvetica,sans-Serif" font-size="10.00">sstream</text>
</g>
<!-- Node23&#45;&gt;Node26 -->
<g id="edge33" class="edge"><title>Node23&#45;&gt;Node26</title>
<path fill="none" stroke="midnightblue" d="M467.492,-201.483C431.93,-192.946 375.356,-179.35 317.357,-165.324"/>
<polygon fill="midnightblue" stroke="midnightblue" points="317.823,-161.836 307.28,-162.886 316.177,-168.64 317.823,-161.836"/>
</g>
<!-- Node23&#45;&gt;Node27 -->
<g id="edge34" class="edge"><title>Node23&#45;&gt;Node27</title>
<path fill="none" stroke="midnightblue" d="M528.828,-201.444C556.733,-192.199 601.319,-177.428 632.043,-167.25"/>
<polygon fill="midnightblue" stroke="midnightblue" points="633.495,-170.456 641.887,-163.988 631.294,-163.811 633.495,-170.456"/>
</g>
<!-- Node28 -->
<g id="node28" class="node"><title>Node28</title>
<polygon fill="white" stroke="#bfbfbf" points="498.5,-145.5 498.5,-164.5 623.5,-164.5 623.5,-145.5 498.5,-145.5"/>
<text text-anchor="middle" x="561" y="-152.5" font-family="Helvetica,sans-Serif" font-size="10.00">carl/core/carlLogging.h</text>
</g>
<!-- Node23&#45;&gt;Node28 -->
<g id="edge35" class="edge"><title>Node23&#45;&gt;Node28</title>
<path fill="none" stroke="midnightblue" d="M512.319,-201.324C520.893,-193.341 533.812,-181.313 544.188,-171.653"/>
<polygon fill="midnightblue" stroke="midnightblue" points="546.578,-174.21 551.512,-164.834 541.808,-169.086 546.578,-174.21"/>
</g>
<!-- Node29 -->
<g id="node29" class="node"><title>Node29</title>
<polygon fill="white" stroke="#bfbfbf" points="325.5,-145.5 325.5,-164.5 480.5,-164.5 480.5,-145.5 325.5,-145.5"/>
<text text-anchor="middle" x="403" y="-152.5" font-family="Helvetica,sans-Serif" font-size="10.00">carl/core/carlLoggingHelper.h</text>
</g>
<!-- Node23&#45;&gt;Node29 -->
<g id="edge36" class="edge"><title>Node23&#45;&gt;Node29</title>
<path fill="none" stroke="midnightblue" d="M486.933,-201.324C471.042,-192.743 446.493,-179.486 428.042,-169.522"/>
<polygon fill="midnightblue" stroke="midnightblue" points="429.489,-166.326 419.027,-164.655 426.163,-172.486 429.489,-166.326"/>
</g>
<!-- Node30&#45;&gt;Node5 -->
<g id="edge39" class="edge"><title>Node30&#45;&gt;Node5</title>
<path fill="none" stroke="midnightblue" d="M1223.36,-202.733C1227.97,-202.141 1232.57,-201.557 1237,-201 1366.14,-184.778 1402.32,-190.328 1533.89,-164.96"/>
<polygon fill="midnightblue" stroke="midnightblue" points="1534.8,-168.347 1543.95,-162.996 1533.46,-161.477 1534.8,-168.347"/>
</g>
<!-- Node30&#45;&gt;Node20 -->
<g id="edge45" class="edge"><title>Node30&#45;&gt;Node20</title>
<path fill="none" stroke="midnightblue" d="M1138.37,-201.444C1103.28,-191.31 1045.19,-174.537 1010.26,-164.45"/>
<polygon fill="midnightblue" stroke="midnightblue" points="1010.79,-160.961 1000.22,-161.549 1008.85,-167.686 1010.79,-160.961"/>
</g>
<!-- Node30&#45;&gt;Node22 -->
<g id="edge46" class="edge"><title>Node30&#45;&gt;Node22</title>
<path fill="none" stroke="midnightblue" d="M1153.86,-201.324C1140.13,-192.9 1119.06,-179.971 1102.94,-170.074"/>
<polygon fill="midnightblue" stroke="midnightblue" points="1104.46,-166.902 1094.1,-164.655 1100.8,-172.868 1104.46,-166.902"/>
</g>
<!-- Node31 -->
<g id="node31" class="node"><title>Node31</title>
<polygon fill="white" stroke="#bfbfbf" points="1338,-145.5 1338,-164.5 1400,-164.5 1400,-145.5 1338,-145.5"/>
<text text-anchor="middle" x="1369" y="-152.5" font-family="Helvetica,sans-Serif" font-size="10.00">algorithm</text>
</g>
<!-- Node30&#45;&gt;Node31 -->
<g id="edge40" class="edge"><title>Node30&#45;&gt;Node31</title>
<path fill="none" stroke="midnightblue" d="M1199.85,-201.444C1234.6,-192.107 1290.33,-177.134 1328.25,-166.948"/>
<polygon fill="midnightblue" stroke="midnightblue" points="1329.21,-170.314 1337.96,-164.339 1327.39,-163.553 1329.21,-170.314"/>
</g>
<!-- Node32 -->
<g id="node32" class="node"><title>Node32</title>
<polygon fill="white" stroke="#bfbfbf" points="1418,-145.5 1418,-164.5 1526,-164.5 1526,-145.5 1418,-145.5"/>
<text text-anchor="middle" x="1472" y="-152.5" font-family="Helvetica,sans-Serif" font-size="10.00">carl/core/Variable.h</text>
</g>
<!-- Node30&#45;&gt;Node32 -->
<g id="edge41" class="edge"><title>Node30&#45;&gt;Node32</title>
<path fill="none" stroke="midnightblue" d="M1216.17,-201.444C1269.87,-191.905 1356.69,-176.483 1414.05,-166.293"/>
<polygon fill="midnightblue" stroke="midnightblue" points="1414.82,-169.712 1424.06,-164.516 1413.6,-162.819 1414.82,-169.712"/>
</g>
<!-- Node33 -->
<g id="node33" class="node"><title>Node33</title>
<polygon fill="white" stroke="#bfbfbf" points="1122,-145.5 1122,-164.5 1250,-164.5 1250,-145.5 1122,-145.5"/>
<text text-anchor="middle" x="1186" y="-152.5" font-family="Helvetica,sans-Serif" font-size="10.00">carl/core/VariablePool.h</text>
</g>
<!-- Node30&#45;&gt;Node33 -->
<g id="edge42" class="edge"><title>Node30&#45;&gt;Node33</title>
<path fill="none" stroke="midnightblue" d="M1170.97,-201.083C1173.38,-193.849 1176.86,-183.409 1179.87,-174.397"/>
<polygon fill="midnightblue" stroke="midnightblue" points="1183.24,-175.345 1183.08,-164.751 1176.6,-173.131 1183.24,-175.345"/>
</g>
<!-- Node30&#45;&gt;Node34 -->
<g id="edge43" class="edge"><title>Node30&#45;&gt;Node34</title>
<path fill="none" stroke="midnightblue" d="M1223.1,-204.956C1303.51,-197.445 1457.96,-182.447 1599.55,-165.139"/>
<polygon fill="midnightblue" stroke="midnightblue" points="1600.22,-168.583 1609.72,-163.889 1599.37,-161.635 1600.22,-168.583"/>
</g>
<!-- Node35 -->
<g id="node35" class="node"><title>Node35</title>
<polygon fill="white" stroke="#bfbfbf" points="1268,-145.5 1268,-164.5 1320,-164.5 1320,-145.5 1268,-145.5"/>
<text text-anchor="middle" x="1294" y="-152.5" font-family="Helvetica,sans-Serif" font-size="10.00">cassert</text>
</g>
<!-- Node30&#45;&gt;Node35 -->
<g id="edge44" class="edge"><title>Node30&#45;&gt;Node35</title>
<path fill="none" stroke="midnightblue" d="M1187.97,-201.444C1208.61,-192.596 1241.06,-178.687 1264.63,-168.586"/>
<polygon fill="midnightblue" stroke="midnightblue" points="1266.32,-171.673 1274.13,-164.516 1263.56,-165.239 1266.32,-171.673"/>
</g>
<!-- Node37&#45;&gt;Node7 -->
<g id="edge52" class="edge"><title>Node37&#45;&gt;Node7</title>
<path fill="none" stroke="midnightblue" d="M848.323,-318.858C833.499,-310.277 812.453,-295.711 801,-277 781.406,-244.99 777.392,-200.103 776.809,-174.969"/>
<polygon fill="midnightblue" stroke="midnightblue" points="780.307,-174.621 776.742,-164.644 773.307,-174.666 780.307,-174.621"/>
</g>
<!-- Node39&#45;&gt;Node3 -->
<g id="edge56" class="edge"><title>Node39&#45;&gt;Node3</title>
<path fill="none" stroke="midnightblue" d="M689.594,-380.475C762.682,-369.466 889.489,-350.364 965.392,-338.931"/>
<polygon fill="midnightblue" stroke="midnightblue" points="965.931,-342.389 975.298,-337.439 964.888,-335.467 965.931,-342.389"/>
</g>
<!-- Node39&#45;&gt;Node4 -->
<g id="edge55" class="edge"><title>Node39&#45;&gt;Node4</title>
<path fill="none" stroke="midnightblue" d="M652.843,-380.458C672.148,-371.926 702.124,-358.086 727,-344 761.409,-324.516 799.309,-298.522 821.858,-282.539"/>
<polygon fill="midnightblue" stroke="midnightblue" points="824.149,-285.204 830.255,-276.546 820.083,-279.506 824.149,-285.204"/>
</g>
<!-- Node39&#45;&gt;Node37 -->
<g id="edge57" class="edge"><title>Node39&#45;&gt;Node37</title>
<path fill="none" stroke="midnightblue" d="M666.24,-380.475C707.242,-369.959 777.029,-352.062 822.054,-340.514"/>
<polygon fill="midnightblue" stroke="midnightblue" points="823.005,-343.884 831.822,-338.009 821.266,-337.103 823.005,-343.884"/>
</g>
<!-- Node39&#45;&gt;Node40 -->
<g id="edge58" class="edge"><title>Node39&#45;&gt;Node40</title>
<path fill="none" stroke="midnightblue" d="M609.503,-380.475C581.371,-370.269 534.071,-353.108 502.211,-341.549"/>
<polygon fill="midnightblue" stroke="midnightblue" points="503.048,-338.13 492.454,-338.009 500.66,-344.71 503.048,-338.13"/>
</g>
<!-- Node39&#45;&gt;Node42 -->
<g id="edge62" class="edge"><title>Node39&#45;&gt;Node42</title>
<path fill="none" stroke="midnightblue" d="M626.954,-380.443C620.63,-371.441 610.464,-356.828 602,-344 588.761,-323.937 574.076,-300.503 564.478,-285.018"/>
<polygon fill="midnightblue" stroke="midnightblue" points="567.452,-283.172 559.218,-276.505 561.497,-286.852 567.452,-283.172"/>
</g>
<!-- Node43 -->
<g id="node43" class="node"><title>Node43</title>
<polygon fill="white" stroke="#bfbfbf" points="611.5,-319 611.5,-338 718.5,-338 718.5,-319 611.5,-319"/>
<text text-anchor="middle" x="665" y="-326" font-family="Helvetica,sans-Serif" font-size="10.00">adaptions_glpk.tpp</text>
</g>
<!-- Node39&#45;&gt;Node43 -->
<g id="edge63" class="edge"><title>Node39&#45;&gt;Node43</title>
<path fill="none" stroke="midnightblue" d="M637.585,-380.475C642.242,-371.815 649.592,-358.149 655.51,-347.145"/>
<polygon fill="midnightblue" stroke="midnightblue" points="658.77,-348.474 660.424,-338.009 652.605,-345.158 658.77,-348.474"/>
</g>
<!-- Node40&#45;&gt;Node23 -->
<g id="edge59" class="edge"><title>Node40&#45;&gt;Node23</title>
<path fill="none" stroke="midnightblue" d="M471.556,-318.819C477.044,-300.173 490.064,-255.943 497.515,-230.632"/>
<polygon fill="midnightblue" stroke="midnightblue" points="500.948,-231.363 500.415,-220.782 494.233,-229.387 500.948,-231.363"/>
</g>
<!-- Node40&#45;&gt;Node41 -->
<g id="edge60" class="edge"><title>Node40&#45;&gt;Node41</title>
<path fill="none" stroke="midnightblue" d="M462.123,-318.975C454.851,-309.962 443.205,-295.525 434.159,-284.312"/>
<polygon fill="midnightblue" stroke="midnightblue" points="436.867,-282.095 427.864,-276.509 431.419,-286.49 436.867,-282.095"/>
</g>
<!-- Node40&#45;&gt;Node42 -->
<g id="edge61" class="edge"><title>Node40&#45;&gt;Node42</title>
<path fill="none" stroke="midnightblue" d="M481.178,-318.975C494.812,-309.431 517.132,-293.807 533.474,-282.368"/>
<polygon fill="midnightblue" stroke="midnightblue" points="535.659,-285.111 541.844,-276.509 531.645,-279.376 535.659,-285.111"/>
</g>
<!-- Node45&#45;&gt;Node5 -->
<g id="edge72" class="edge"><title>Node45&#45;&gt;Node5</title>
<path fill="none" stroke="midnightblue" d="M1568,-201.083C1568,-194.006 1568,-183.861 1568,-174.986"/>
<polygon fill="midnightblue" stroke="midnightblue" points="1571.5,-174.751 1568,-164.751 1564.5,-174.751 1571.5,-174.751"/>
</g>
<!-- Node45&#45;&gt;Node34 -->
<g id="edge73" class="edge"><title>Node45&#45;&gt;Node34</title>
<path fill="none" stroke="midnightblue" d="M1583.42,-201.324C1598.54,-192.822 1621.82,-179.729 1639.47,-169.797"/>
<polygon fill="midnightblue" stroke="midnightblue" points="1641.61,-172.608 1648.61,-164.655 1638.18,-166.507 1641.61,-172.608"/>
</g>
</g>
</svg>
