<?xml version="1.0" encoding="UTF-8" standalone="no"?>
<!DOCTYPE svg PUBLIC "-//W3C//DTD SVG 1.1//EN"
 "http://www.w3.org/Graphics/SVG/1.1/DTD/svg11.dtd">
<!-- Generated by graphviz version 2.38.0 (20140413.2041)
 -->
<!-- Title: /home/travis/build/hypro/hypro/src/hypro/util/linearOptimization/glpk_context.h Pages: 1 -->
<svg width="781pt" height="173pt"
 viewBox="0.00 0.00 780.50 173.00" xmlns="http://www.w3.org/2000/svg" xmlns:xlink="http://www.w3.org/1999/xlink">
<g id="graph0" class="graph" transform="scale(1 1) rotate(0) translate(4 169)">
<title>/home/travis/build/hypro/hypro/src/hypro/util/linearOptimization/glpk_context.h</title>
<polygon fill="white" stroke="none" points="-4,4 -4,-169 776.5,-169 776.5,4 -4,4"/>
<!-- Node1 -->
<g id="node1" class="node"><title>Node1</title>
<polygon fill="#bfbfbf" stroke="black" points="424,-112.5 424,-164.5 548,-164.5 548,-112.5 424,-112.5"/>
<text text-anchor="start" x="432" y="-152.5" font-family="Helvetica,sans-Serif" font-size="10.00">/home/travis/build</text>
<text text-anchor="start" x="432" y="-141.5" font-family="Helvetica,sans-Serif" font-size="10.00">/hypro/hypro/src/hypro</text>
<text text-anchor="start" x="432" y="-130.5" font-family="Helvetica,sans-Serif" font-size="10.00">/util/linearOptimization</text>
<text text-anchor="middle" x="486" y="-119.5" font-family="Helvetica,sans-Serif" font-size="10.00">/glpk_context.h</text>
</g>
<!-- Node2 -->
<g id="node2" class="node"><title>Node2</title>
<g id="a_node2"><a xlink:href="Logger_8h.html" target="_top" xlink:title="../logging/Logger.h">
<polygon fill="white" stroke="black" points="310,-56.5 310,-75.5 414,-75.5 414,-56.5 310,-56.5"/>
<text text-anchor="middle" x="362" y="-63.5" font-family="Helvetica,sans-Serif" font-size="10.00">../logging/Logger.h</text>
</a>
</g>
</g>
<!-- Node1&#45;&gt;Node2 -->
<g id="edge1" class="edge"><title>Node1&#45;&gt;Node2</title>
<path fill="none" stroke="midnightblue" d="M441.933,-112.446C423.14,-101.761 401.942,-89.709 386.1,-80.7021"/>
<polygon fill="midnightblue" stroke="midnightblue" points="387.421,-77.4269 376.998,-75.527 383.961,-83.5121 387.421,-77.4269"/>
</g>
<!-- Node10 -->
<g id="node10" class="node"><title>Node10</title>
<polygon fill="white" stroke="#bfbfbf" points="432.5,-56.5 432.5,-75.5 539.5,-75.5 539.5,-56.5 432.5,-56.5"/>
<text text-anchor="middle" x="486" y="-63.5" font-family="Helvetica,sans-Serif" font-size="10.00">carl/core/Relation.h</text>
</g>
<!-- Node1&#45;&gt;Node10 -->
<g id="edge9" class="edge"><title>Node1&#45;&gt;Node10</title>
<path fill="none" stroke="midnightblue" d="M486,-112.446C486,-103.73 486,-94.1045 486,-85.9641"/>
<polygon fill="midnightblue" stroke="midnightblue" points="489.5,-85.6954 486,-75.6955 482.5,-85.6955 489.5,-85.6954"/>
</g>
<!-- Node11 -->
<g id="node11" class="node"><title>Node11</title>
<polygon fill="white" stroke="#bfbfbf" points="557.5,-56.5 557.5,-75.5 602.5,-75.5 602.5,-56.5 557.5,-56.5"/>
<text text-anchor="middle" x="580" y="-63.5" font-family="Helvetica,sans-Serif" font-size="10.00">glpk.h</text>
</g>
<!-- Node1&#45;&gt;Node11 -->
<g id="edge10" class="edge"><title>Node1&#45;&gt;Node11</title>
<path fill="none" stroke="midnightblue" d="M519.406,-112.446C533.03,-102.227 548.322,-90.7583 560.136,-81.8983"/>
<polygon fill="midnightblue" stroke="midnightblue" points="562.506,-84.4955 568.406,-75.6955 558.306,-78.8955 562.506,-84.4955"/>
</g>
<!-- Node3 -->
<g id="node3" class="node"><title>Node3</title>
<g id="a_node3"><a xlink:href="flags_8h.html" target="_top" xlink:title="../../flags.h">
<polygon fill="white" stroke="black" points="0,-0.5 0,-19.5 66,-19.5 66,-0.5 0,-0.5"/>
<text text-anchor="middle" x="33" y="-7.5" font-family="Helvetica,sans-Serif" font-size="10.00">../../flags.h</text>
</a>
</g>
</g>
<!-- Node2&#45;&gt;Node3 -->
<g id="edge2" class="edge"><title>Node2&#45;&gt;Node3</title>
<path fill="none" stroke="midnightblue" d="M309.743,-57.6969C254.246,-49.7417 163.729,-36.1987 76.5049,-20.2006"/>
<polygon fill="midnightblue" stroke="midnightblue" points="76.9066,-16.7157 66.4371,-18.3402 75.6345,-23.5992 76.9066,-16.7157"/>
</g>
<!-- Node4 -->
<g id="node4" class="node"><title>Node4</title>
<polygon fill="white" stroke="#bfbfbf" points="84,-0.5 84,-19.5 238,-19.5 238,-0.5 84,-0.5"/>
<text text-anchor="middle" x="161" y="-7.5" font-family="Helvetica,sans-Serif" font-size="10.00">carl/io/streamingOperators.h</text>
</g>
<!-- Node2&#45;&gt;Node4 -->
<g id="edge3" class="edge"><title>Node2&#45;&gt;Node4</title>
<path fill="none" stroke="midnightblue" d="M330.151,-56.4435C295.602,-47.1616 240.318,-32.3093 202.417,-22.127"/>
<polygon fill="midnightblue" stroke="midnightblue" points="203.266,-18.7309 192.7,-19.5164 201.449,-25.4912 203.266,-18.7309"/>
</g>
<!-- Node5 -->
<g id="node5" class="node"><title>Node5</title>
<polygon fill="white" stroke="#bfbfbf" points="256.5,-0.5 256.5,-19.5 315.5,-19.5 315.5,-0.5 256.5,-0.5"/>
<text text-anchor="middle" x="286" y="-7.5" font-family="Helvetica,sans-Serif" font-size="10.00">iostream</text>
</g>
<!-- Node2&#45;&gt;Node5 -->
<g id="edge4" class="edge"><title>Node2&#45;&gt;Node5</title>
<path fill="none" stroke="midnightblue" d="M349.789,-56.324C338.224,-48.1066 320.625,-35.6017 306.839,-25.8069"/>
<polygon fill="midnightblue" stroke="midnightblue" points="308.612,-22.7729 298.433,-19.8339 304.557,-28.4791 308.612,-22.7729"/>
</g>
<!-- Node6 -->
<g id="node6" class="node"><title>Node6</title>
<polygon fill="white" stroke="#bfbfbf" points="334,-0.5 334,-19.5 390,-19.5 390,-0.5 334,-0.5"/>
<text text-anchor="middle" x="362" y="-7.5" font-family="Helvetica,sans-Serif" font-size="10.00">sstream</text>
</g>
<!-- Node2&#45;&gt;Node6 -->
<g id="edge5" class="edge"><title>Node2&#45;&gt;Node6</title>
<path fill="none" stroke="midnightblue" d="M362,-56.083C362,-49.0059 362,-38.8611 362,-29.9865"/>
<polygon fill="midnightblue" stroke="midnightblue" points="365.5,-29.751 362,-19.7511 358.5,-29.7511 365.5,-29.751"/>
</g>
<!-- Node7 -->
<g id="node7" class="node"><title>Node7</title>
<polygon fill="white" stroke="#bfbfbf" points="408,-0.5 408,-19.5 456,-19.5 456,-0.5 408,-0.5"/>
<text text-anchor="middle" x="432" y="-7.5" font-family="Helvetica,sans-Serif" font-size="10.00">thread</text>
</g>
<!-- Node2&#45;&gt;Node7 -->
<g id="edge6" class="edge"><title>Node2&#45;&gt;Node7</title>
<path fill="none" stroke="midnightblue" d="M373.247,-56.324C383.797,-48.1849 399.801,-35.8395 412.442,-26.0874"/>
<polygon fill="midnightblue" stroke="midnightblue" points="414.769,-28.7132 420.549,-19.8339 410.493,-23.1707 414.769,-28.7132"/>
</g>
<!-- Node8 -->
<g id="node8" class="node"><title>Node8</title>
<polygon fill="white" stroke="#bfbfbf" points="474.5,-0.5 474.5,-19.5 599.5,-19.5 599.5,-0.5 474.5,-0.5"/>
<text text-anchor="middle" x="537" y="-7.5" font-family="Helvetica,sans-Serif" font-size="10.00">carl/core/carlLogging.h</text>
</g>
<!-- Node2&#45;&gt;Node8 -->
<g id="edge7" class="edge"><title>Node2&#45;&gt;Node8</title>
<path fill="none" stroke="midnightblue" d="M389.729,-56.4435C419.426,-47.2801 466.716,-32.6876 499.669,-22.5192"/>
<polygon fill="midnightblue" stroke="midnightblue" points="500.877,-25.8094 509.4,-19.5164 498.813,-19.1206 500.877,-25.8094"/>
</g>
<!-- Node9 -->
<g id="node9" class="node"><title>Node9</title>
<polygon fill="white" stroke="#bfbfbf" points="617.5,-0.5 617.5,-19.5 772.5,-19.5 772.5,-0.5 617.5,-0.5"/>
<text text-anchor="middle" x="695" y="-7.5" font-family="Helvetica,sans-Serif" font-size="10.00">carl/core/carlLoggingHelper.h</text>
</g>
<!-- Node2&#45;&gt;Node9 -->
<g id="edge8" class="edge"><title>Node2&#45;&gt;Node9</title>
<path fill="none" stroke="midnightblue" d="M414.031,-56.5625C473.032,-46.9949 569.201,-31.3999 632.293,-21.1687"/>
<polygon fill="midnightblue" stroke="midnightblue" points="633.2,-24.5674 642.511,-19.5118 632.079,-17.6577 633.2,-24.5674"/>
</g>
</g>
</svg>
