<?xml version="1.0" encoding="UTF-8" standalone="no"?>
<!DOCTYPE svg PUBLIC "-//W3C//DTD SVG 1.1//EN"
 "http://www.w3.org/Graphics/SVG/1.1/DTD/svg11.dtd">
<!-- Generated by graphviz version 2.38.0 (20140413.2041)
 -->
<!-- Title: /home/travis/build/hypro/hypro/src/hypro/representations/OrthogonalPolyhedron/Grid.h Pages: 1 -->
<svg width="1788pt" height="508pt"
 viewBox="0.00 0.00 1788.00 508.00" xmlns="http://www.w3.org/2000/svg" xmlns:xlink="http://www.w3.org/1999/xlink">
<g id="graph0" class="graph" transform="scale(1 1) rotate(0) translate(4 504)">
<title>/home/travis/build/hypro/hypro/src/hypro/representations/OrthogonalPolyhedron/Grid.h</title>
<polygon fill="white" stroke="none" points="-4,4 -4,-504 1784,-504 1784,4 -4,4"/>
<!-- Node1 -->
<g id="node1" class="node"><title>Node1</title>
<polygon fill="#bfbfbf" stroke="black" points="548.5,-447.5 548.5,-499.5 753.5,-499.5 753.5,-447.5 548.5,-447.5"/>
<text text-anchor="start" x="556.5" y="-487.5" font-family="Helvetica,sans-Serif" font-size="10.00">/home/travis/build</text>
<text text-anchor="start" x="556.5" y="-476.5" font-family="Helvetica,sans-Serif" font-size="10.00">/hypro/hypro/src/hypro</text>
<text text-anchor="start" x="556.5" y="-465.5" font-family="Helvetica,sans-Serif" font-size="10.00">/representations/OrthogonalPolyhedron</text>
<text text-anchor="middle" x="651" y="-454.5" font-family="Helvetica,sans-Serif" font-size="10.00">/Grid.h</text>
</g>
<!-- Node2 -->
<g id="node2" class="node"><title>Node2</title>
<g id="a_node2"><a xlink:href="Point_8h.html" target="_top" xlink:title="../../datastructures\l/Point.h">
<polygon fill="white" stroke="black" points="658.5,-313.5 658.5,-343.5 763.5,-343.5 763.5,-313.5 658.5,-313.5"/>
<text text-anchor="start" x="666.5" y="-331.5" font-family="Helvetica,sans-Serif" font-size="10.00">../../datastructures</text>
<text text-anchor="middle" x="711" y="-320.5" font-family="Helvetica,sans-Serif" font-size="10.00">/Point.h</text>
</a>
</g>
</g>
<!-- Node1&#45;&gt;Node2 -->
<g id="edge1" class="edge"><title>Node1&#45;&gt;Node2</title>
<path fill="none" stroke="midnightblue" d="M652.926,-447.128C655.147,-427.937 659.896,-401.336 670,-380 674.908,-369.636 682.374,-359.548 689.595,-351.148"/>
<polygon fill="midnightblue" stroke="midnightblue" points="692.253,-353.427 696.353,-343.657 687.056,-348.738 692.253,-353.427"/>
</g>
<!-- Node19 -->
<g id="node19" class="node"><title>Node19</title>
<polygon fill="white" stroke="#bfbfbf" points="593,-145.5 593,-164.5 631,-164.5 631,-145.5 593,-145.5"/>
<text text-anchor="middle" x="612" y="-152.5" font-family="Helvetica,sans-Serif" font-size="10.00">map</text>
</g>
<!-- Node1&#45;&gt;Node19 -->
<g id="edge55" class="edge"><title>Node1&#45;&gt;Node19</title>
<path fill="none" stroke="midnightblue" d="M633.639,-447.222C627.081,-436.499 620.196,-423.587 616,-411 594.222,-345.674 594.596,-325.719 599,-257 600.852,-228.106 605.655,-194.846 608.875,-174.631"/>
<polygon fill="midnightblue" stroke="midnightblue" points="612.354,-175.044 610.513,-164.611 605.445,-173.915 612.354,-175.044"/>
</g>
<!-- Node21 -->
<g id="node21" class="node"><title>Node21</title>
<polygon fill="white" stroke="#bfbfbf" points="649.5,-145.5 649.5,-164.5 696.5,-164.5 696.5,-145.5 649.5,-145.5"/>
<text text-anchor="middle" x="673" y="-152.5" font-family="Helvetica,sans-Serif" font-size="10.00">vector</text>
</g>
<!-- Node1&#45;&gt;Node21 -->
<g id="edge56" class="edge"><title>Node1&#45;&gt;Node21</title>
<path fill="none" stroke="midnightblue" d="M640.111,-447.461C628.882,-419.324 613,-372.014 613,-329.5 613,-329.5 613,-329.5 613,-266 613,-228.883 639.654,-192.378 657.431,-172.158"/>
<polygon fill="midnightblue" stroke="midnightblue" points="660.237,-174.276 664.403,-164.535 655.072,-169.552 660.237,-174.276"/>
</g>
<!-- Node31 -->
<g id="node31" class="node"><title>Node31</title>
<polygon fill="white" stroke="#bfbfbf" points="45,-145.5 45,-164.5 153,-164.5 153,-145.5 45,-145.5"/>
<text text-anchor="middle" x="99" y="-152.5" font-family="Helvetica,sans-Serif" font-size="10.00">carl/core/Variable.h</text>
</g>
<!-- Node1&#45;&gt;Node31 -->
<g id="edge54" class="edge"><title>Node1&#45;&gt;Node31</title>
<path fill="none" stroke="midnightblue" d="M548.416,-457.939C425.522,-437.549 236,-395.418 236,-329.5 236,-329.5 236,-329.5 236,-266 236,-214.995 177.551,-183.691 137.007,-168.111"/>
<polygon fill="midnightblue" stroke="midnightblue" points="137.98,-164.74 127.386,-164.576 135.566,-171.31 137.98,-164.74"/>
</g>
<!-- Node36 -->
<g id="node36" class="node"><title>Node36</title>
<g id="a_node36"><a xlink:href="Vertex_8h.html" target="_top" xlink:title="../../datastructures\l/Vertex.h">
<polygon fill="white" stroke="black" points="679.5,-380.5 679.5,-410.5 784.5,-410.5 784.5,-380.5 679.5,-380.5"/>
<text text-anchor="start" x="687.5" y="-398.5" font-family="Helvetica,sans-Serif" font-size="10.00">../../datastructures</text>
<text text-anchor="middle" x="732" y="-387.5" font-family="Helvetica,sans-Serif" font-size="10.00">/Vertex.h</text>
</a>
</g>
</g>
<!-- Node1&#45;&gt;Node36 -->
<g id="edge49" class="edge"><title>Node1&#45;&gt;Node36</title>
<path fill="none" stroke="midnightblue" d="M677.972,-447.193C688.14,-437.653 699.593,-426.907 709.329,-417.772"/>
<polygon fill="midnightblue" stroke="midnightblue" points="711.813,-420.24 716.711,-410.845 707.024,-415.135 711.813,-420.24"/>
</g>
<!-- Node39 -->
<g id="node39" class="node"><title>Node39</title>
<polygon fill="white" stroke="#bfbfbf" points="803,-386 803,-405 847,-405 847,-386 803,-386"/>
<text text-anchor="middle" x="825" y="-393" font-family="Helvetica,sans-Serif" font-size="10.00">bitset</text>
</g>
<!-- Node1&#45;&gt;Node39 -->
<g id="edge53" class="edge"><title>Node1&#45;&gt;Node39</title>
<path fill="none" stroke="midnightblue" d="M709.475,-447.436C735.145,-436.365 765.613,-423.135 793,-411 794.192,-410.472 795.408,-409.931 796.636,-409.383"/>
<polygon fill="midnightblue" stroke="midnightblue" points="798.387,-412.433 806.072,-405.14 795.516,-406.049 798.387,-412.433"/>
</g>
<!-- Node40 -->
<g id="node40" class="node"><title>Node40</title>
<polygon fill="white" stroke="#bfbfbf" points="865.5,-386 865.5,-405 920.5,-405 920.5,-386 865.5,-386"/>
<text text-anchor="middle" x="893" y="-393" font-family="Helvetica,sans-Serif" font-size="10.00">Grid.tpp</text>
</g>
<!-- Node1&#45;&gt;Node40 -->
<g id="edge57" class="edge"><title>Node1&#45;&gt;Node40</title>
<path fill="none" stroke="midnightblue" d="M740.305,-447.438C776.44,-436.849 818.419,-423.977 856,-411 858.119,-410.268 860.297,-409.488 862.484,-408.685"/>
<polygon fill="midnightblue" stroke="midnightblue" points="863.871,-411.902 871.979,-405.083 861.388,-405.357 863.871,-411.902"/>
</g>
<!-- Node3 -->
<g id="node3" class="node"><title>Node3</title>
<g id="a_node3"><a xlink:href="config_8h.html" target="_top" xlink:title="../config.h">
<polygon fill="white" stroke="black" points="915.5,-257.5 915.5,-276.5 978.5,-276.5 978.5,-257.5 915.5,-257.5"/>
<text text-anchor="middle" x="947" y="-264.5" font-family="Helvetica,sans-Serif" font-size="10.00">../config.h</text>
</a>
</g>
</g>
<!-- Node2&#45;&gt;Node3 -->
<g id="edge2" class="edge"><title>Node2&#45;&gt;Node3</title>
<path fill="none" stroke="midnightblue" d="M763.669,-314.221C806.534,-303.414 866.194,-288.373 905.668,-278.42"/>
<polygon fill="midnightblue" stroke="midnightblue" points="906.653,-281.782 915.494,-275.943 904.941,-274.994 906.653,-281.782"/>
</g>
<!-- Node6 -->
<g id="node6" class="node"><title>Node6</title>
<g id="a_node6"><a xlink:href="types_8h.html" target="_top" xlink:title="../types.h">
<polygon fill="white" stroke="black" points="753.5,-145.5 753.5,-164.5 814.5,-164.5 814.5,-145.5 753.5,-145.5"/>
<text text-anchor="middle" x="784" y="-152.5" font-family="Helvetica,sans-Serif" font-size="10.00">../types.h</text>
</a>
</g>
</g>
<!-- Node2&#45;&gt;Node6 -->
<g id="edge36" class="edge"><title>Node2&#45;&gt;Node6</title>
<path fill="none" stroke="midnightblue" d="M716.974,-313.465C730.182,-282.436 761.845,-208.049 776.421,-173.806"/>
<polygon fill="midnightblue" stroke="midnightblue" points="779.66,-175.132 780.357,-164.56 773.22,-172.39 779.66,-175.132"/>
</g>
<!-- Node12 -->
<g id="node12" class="node"><title>Node12</title>
<polygon fill="white" stroke="#bfbfbf" points="937,-84 937,-103 969,-103 969,-84 937,-84"/>
<text text-anchor="middle" x="953" y="-91" font-family="Helvetica,sans-Serif" font-size="10.00">set</text>
</g>
<!-- Node2&#45;&gt;Node12 -->
<g id="edge46" class="edge"><title>Node2&#45;&gt;Node12</title>
<path fill="none" stroke="midnightblue" d="M725.774,-313.276C768.475,-272.163 891.848,-153.378 936.566,-110.323"/>
<polygon fill="midnightblue" stroke="midnightblue" points="939.187,-112.658 943.963,-103.201 934.332,-107.616 939.187,-112.658"/>
</g>
<!-- Node2&#45;&gt;Node21 -->
<g id="edge47" class="edge"><title>Node2&#45;&gt;Node21</title>
<path fill="none" stroke="midnightblue" d="M711.891,-313.317C712.49,-298.981 712.611,-276.256 709,-257 703.358,-226.913 690.109,-193.803 681.355,-173.97"/>
<polygon fill="midnightblue" stroke="midnightblue" points="684.452,-172.325 677.141,-164.657 678.075,-175.211 684.452,-172.325"/>
</g>
<!-- Node29 -->
<g id="node29" class="node"><title>Node29</title>
<g id="a_node29"><a xlink:href="VariablePool_8h.html" target="_top" xlink:title="../util/VariablePool.h">
<polygon fill="white" stroke="black" points="407,-201.5 407,-220.5 517,-220.5 517,-201.5 407,-201.5"/>
<text text-anchor="middle" x="462" y="-208.5" font-family="Helvetica,sans-Serif" font-size="10.00">../util/VariablePool.h</text>
</a>
</g>
</g>
<!-- Node2&#45;&gt;Node29 -->
<g id="edge37" class="edge"><title>Node2&#45;&gt;Node29</title>
<path fill="none" stroke="midnightblue" d="M680.468,-313.337C631.608,-290.674 536.586,-246.597 489.629,-224.816"/>
<polygon fill="midnightblue" stroke="midnightblue" points="490.917,-221.555 480.373,-220.522 487.972,-227.905 490.917,-221.555"/>
</g>
<!-- Node35 -->
<g id="node35" class="node"><title>Node35</title>
<polygon fill="white" stroke="#bfbfbf" points="641.5,-257.5 641.5,-276.5 700.5,-276.5 700.5,-257.5 641.5,-257.5"/>
<text text-anchor="middle" x="671" y="-264.5" font-family="Helvetica,sans-Serif" font-size="10.00">Point.tpp</text>
</g>
<!-- Node2&#45;&gt;Node35 -->
<g id="edge48" class="edge"><title>Node2&#45;&gt;Node35</title>
<path fill="none" stroke="midnightblue" d="M701.521,-313.399C695.828,-304.932 688.546,-294.099 682.522,-285.139"/>
<polygon fill="midnightblue" stroke="midnightblue" points="685.304,-283.004 676.82,-276.658 679.495,-286.909 685.304,-283.004"/>
</g>
<!-- Node4 -->
<g id="node4" class="node"><title>Node4</title>
<g id="a_node4"><a xlink:href="flags_8h.html" target="_top" xlink:title="flags.h">
<polygon fill="white" stroke="black" points="1025,-145.5 1025,-164.5 1073,-164.5 1073,-145.5 1025,-145.5"/>
<text text-anchor="middle" x="1049" y="-152.5" font-family="Helvetica,sans-Serif" font-size="10.00">flags.h</text>
</a>
</g>
</g>
<!-- Node3&#45;&gt;Node4 -->
<g id="edge3" class="edge"><title>Node3&#45;&gt;Node4</title>
<path fill="none" stroke="midnightblue" d="M974.999,-257.496C993.445,-250.514 1016.74,-238.83 1031,-221 1041.62,-207.723 1045.98,-188.599 1047.77,-174.53"/>
<polygon fill="midnightblue" stroke="midnightblue" points="1051.26,-174.827 1048.72,-164.54 1044.29,-174.162 1051.26,-174.827"/>
</g>
<!-- Node5 -->
<g id="node5" class="node"><title>Node5</title>
<g id="a_node5"><a xlink:href="util_2convenienceOperators_8h.html" target="_top" xlink:title="util/convenienceOperators.h">
<polygon fill="white" stroke="black" points="871.5,-201.5 871.5,-220.5 1022.5,-220.5 1022.5,-201.5 871.5,-201.5"/>
<text text-anchor="middle" x="947" y="-208.5" font-family="Helvetica,sans-Serif" font-size="10.00">util/convenienceOperators.h</text>
</a>
</g>
</g>
<!-- Node3&#45;&gt;Node5 -->
<g id="edge4" class="edge"><title>Node3&#45;&gt;Node5</title>
<path fill="none" stroke="midnightblue" d="M947,-257.083C947,-250.006 947,-239.861 947,-230.986"/>
<polygon fill="midnightblue" stroke="midnightblue" points="950.5,-230.751 947,-220.751 943.5,-230.751 950.5,-230.751"/>
</g>
<!-- Node22 -->
<g id="node22" class="node"><title>Node22</title>
<g id="a_node22"><a xlink:href="Logger_8h.html" target="_top" xlink:title="util/logging/Logger.h">
<polygon fill="white" stroke="black" points="1341.5,-201.5 1341.5,-220.5 1454.5,-220.5 1454.5,-201.5 1341.5,-201.5"/>
<text text-anchor="middle" x="1398" y="-208.5" font-family="Helvetica,sans-Serif" font-size="10.00">util/logging/Logger.h</text>
</a>
</g>
</g>
<!-- Node3&#45;&gt;Node22 -->
<g id="edge28" class="edge"><title>Node3&#45;&gt;Node22</title>
<path fill="none" stroke="midnightblue" d="M978.713,-262.203C1051.62,-253.473 1232.46,-231.821 1331.15,-220.005"/>
<polygon fill="midnightblue" stroke="midnightblue" points="1331.79,-223.452 1341.31,-218.788 1330.96,-216.502 1331.79,-223.452"/>
</g>
<!-- Node5&#45;&gt;Node6 -->
<g id="edge5" class="edge"><title>Node5&#45;&gt;Node6</title>
<path fill="none" stroke="midnightblue" d="M921.172,-201.444C893.751,-192.359 850.223,-177.939 819.568,-167.783"/>
<polygon fill="midnightblue" stroke="midnightblue" points="820.3,-164.339 809.707,-164.516 818.099,-170.984 820.3,-164.339"/>
</g>
<!-- Node11 -->
<g id="node11" class="node"><title>Node11</title>
<polygon fill="white" stroke="#bfbfbf" points="886,-11.5 886,-30.5 932,-30.5 932,-11.5 886,-11.5"/>
<text text-anchor="middle" x="909" y="-18.5" font-family="Helvetica,sans-Serif" font-size="10.00">iosfwd</text>
</g>
<!-- Node5&#45;&gt;Node11 -->
<g id="edge23" class="edge"><title>Node5&#45;&gt;Node11</title>
<path fill="none" stroke="midnightblue" d="M955.483,-201.234C963.054,-192.75 973.604,-179.131 978,-165 989.486,-128.079 994.627,-112.909 978,-78 969.238,-59.6033 951.15,-45.2831 935.692,-35.7299"/>
<polygon fill="midnightblue" stroke="midnightblue" points="937.388,-32.6674 926.985,-30.6613 933.866,-38.7171 937.388,-32.6674"/>
</g>
<!-- Node5&#45;&gt;Node12 -->
<g id="edge25" class="edge"><title>Node5&#45;&gt;Node12</title>
<path fill="none" stroke="midnightblue" d="M938.736,-201.421C928.021,-189.218 911.436,-165.993 918,-145 921.948,-132.372 930.286,-120.126 937.834,-110.857"/>
<polygon fill="midnightblue" stroke="midnightblue" points="940.511,-113.112 944.395,-103.255 935.211,-108.539 940.511,-113.112"/>
</g>
<!-- Node5&#45;&gt;Node19 -->
<g id="edge24" class="edge"><title>Node5&#45;&gt;Node19</title>
<path fill="none" stroke="midnightblue" d="M871.28,-202.435C811.124,-195.615 724.796,-184.027 641.091,-164.925"/>
<polygon fill="midnightblue" stroke="midnightblue" points="641.695,-161.472 631.163,-162.621 640.112,-168.291 641.695,-161.472"/>
</g>
<!-- Node20 -->
<g id="node20" class="node"><title>Node20</title>
<polygon fill="white" stroke="#bfbfbf" points="927,-145.5 927,-164.5 969,-164.5 969,-145.5 927,-145.5"/>
<text text-anchor="middle" x="948" y="-152.5" font-family="Helvetica,sans-Serif" font-size="10.00">utility</text>
</g>
<!-- Node5&#45;&gt;Node20 -->
<g id="edge26" class="edge"><title>Node5&#45;&gt;Node20</title>
<path fill="none" stroke="midnightblue" d="M947.165,-201.083C947.296,-194.006 947.484,-183.861 947.648,-174.986"/>
<polygon fill="midnightblue" stroke="midnightblue" points="951.152,-174.814 947.838,-164.751 944.153,-174.685 951.152,-174.814"/>
</g>
<!-- Node5&#45;&gt;Node21 -->
<g id="edge27" class="edge"><title>Node5&#45;&gt;Node21</title>
<path fill="none" stroke="midnightblue" d="M903.584,-201.444C848.923,-190.671 756.189,-172.395 706.615,-162.625"/>
<polygon fill="midnightblue" stroke="midnightblue" points="707.209,-159.175 696.721,-160.675 705.855,-166.043 707.209,-159.175"/>
</g>
<!-- Node7 -->
<g id="node7" class="node"><title>Node7</title>
<polygon fill="white" stroke="#bfbfbf" points="702,-11.5 702,-30.5 836,-30.5 836,-11.5 702,-11.5"/>
<text text-anchor="middle" x="769" y="-18.5" font-family="Helvetica,sans-Serif" font-size="10.00">carl/numbers/numbers.h</text>
</g>
<!-- Node6&#45;&gt;Node7 -->
<g id="edge6" class="edge"><title>Node6&#45;&gt;Node7</title>
<path fill="none" stroke="midnightblue" d="M753.254,-146.703C721.284,-138.42 674.456,-124.087 664,-109 641.251,-76.1739 694.084,-48.8303 732.762,-33.9989"/>
<polygon fill="midnightblue" stroke="midnightblue" points="734.066,-37.2484 742.236,-30.5021 731.642,-30.6814 734.066,-37.2484"/>
</g>
<!-- Node8 -->
<g id="node8" class="node"><title>Node8</title>
<polygon fill="white" stroke="#bfbfbf" points="673,-84 673,-103 759,-103 759,-84 673,-84"/>
<text text-anchor="middle" x="716" y="-91" font-family="Helvetica,sans-Serif" font-size="10.00">carl/util/hash.h</text>
</g>
<!-- Node6&#45;&gt;Node8 -->
<g id="edge7" class="edge"><title>Node6&#45;&gt;Node8</title>
<path fill="none" stroke="midnightblue" d="M774.257,-145.475C763.653,-136.197 746.481,-121.171 733.521,-109.831"/>
<polygon fill="midnightblue" stroke="midnightblue" points="735.555,-106.96 725.725,-103.009 730.946,-112.228 735.555,-106.96"/>
</g>
<!-- Node9 -->
<g id="node9" class="node"><title>Node9</title>
<polygon fill="white" stroke="#bfbfbf" points="777,-84 777,-103 881,-103 881,-84 777,-84"/>
<text text-anchor="middle" x="829" y="-91" font-family="Helvetica,sans-Serif" font-size="10.00">eigen3/Eigen/Core</text>
</g>
<!-- Node6&#45;&gt;Node9 -->
<g id="edge8" class="edge"><title>Node6&#45;&gt;Node9</title>
<path fill="none" stroke="midnightblue" d="M790.447,-145.475C797.197,-136.55 807.969,-122.307 816.413,-111.143"/>
<polygon fill="midnightblue" stroke="midnightblue" points="819.324,-113.096 822.565,-103.009 813.741,-108.874 819.324,-113.096"/>
</g>
<!-- Node10 -->
<g id="node10" class="node"><title>Node10</title>
<polygon fill="white" stroke="#bfbfbf" points="572,-11.5 572,-30.5 684,-30.5 684,-11.5 572,-11.5"/>
<text text-anchor="middle" x="628" y="-18.5" font-family="Helvetica,sans-Serif" font-size="10.00">eigen3/Eigen/Dense</text>
</g>
<!-- Node6&#45;&gt;Node10 -->
<g id="edge9" class="edge"><title>Node6&#45;&gt;Node10</title>
<path fill="none" stroke="midnightblue" d="M753.357,-146.707C719.767,-138.144 668.801,-123.288 655,-109 637.09,-90.4575 631.041,-60.2548 629.01,-40.7591"/>
<polygon fill="midnightblue" stroke="midnightblue" points="632.491,-40.3819 628.219,-30.6867 625.513,-40.9301 632.491,-40.3819"/>
</g>
<!-- Node6&#45;&gt;Node11 -->
<g id="edge10" class="edge"><title>Node6&#45;&gt;Node11</title>
<path fill="none" stroke="midnightblue" d="M811.686,-145.465C839.471,-136.357 879.601,-121.544 890,-109 906.009,-89.6891 909.357,-59.9105 909.663,-40.6891"/>
<polygon fill="midnightblue" stroke="midnightblue" points="913.161,-40.474 909.555,-30.5116 906.161,-40.5482 913.161,-40.474"/>
</g>
<!-- Node6&#45;&gt;Node12 -->
<g id="edge11" class="edge"><title>Node6&#45;&gt;Node12</title>
<path fill="none" stroke="midnightblue" d="M814.523,-145.432C842.974,-137.138 886.395,-123.691 923,-109 924.587,-108.363 926.208,-107.68 927.833,-106.97"/>
<polygon fill="midnightblue" stroke="midnightblue" points="929.38,-110.11 936.99,-102.739 926.444,-103.756 929.38,-110.11"/>
</g>
<!-- Node13 -->
<g id="node13" class="node"><title>Node13</title>
<g id="a_node13"><a xlink:href="adaptions__eigen_8h.html" target="_top" xlink:title="util/adaptions_eigen\l/adaptions_eigen.h">
<polygon fill="white" stroke="black" points="465.5,-78.5 465.5,-108.5 578.5,-108.5 578.5,-78.5 465.5,-78.5"/>
<text text-anchor="start" x="473.5" y="-96.5" font-family="Helvetica,sans-Serif" font-size="10.00">util/adaptions_eigen</text>
<text text-anchor="middle" x="522" y="-85.5" font-family="Helvetica,sans-Serif" font-size="10.00">/adaptions_eigen.h</text>
</a>
</g>
</g>
<!-- Node6&#45;&gt;Node13 -->
<g id="edge12" class="edge"><title>Node6&#45;&gt;Node13</title>
<path fill="none" stroke="midnightblue" d="M753.419,-148.022C712.999,-139.412 640.996,-123.2 587.962,-110.866"/>
<polygon fill="midnightblue" stroke="midnightblue" points="588.492,-107.395 577.958,-108.532 586.901,-114.212 588.492,-107.395"/>
</g>
<!-- Node13&#45;&gt;Node3 -->
<g id="edge13" class="edge"><title>Node13&#45;&gt;Node3</title>
<path fill="none" stroke="midnightblue" d="M578.624,-106.952C615.279,-115.783 663.696,-128.906 705,-145 723.15,-152.072 726.613,-156.217 744,-165 807.162,-196.907 881.717,-233.806 920.519,-252.953"/>
<polygon fill="midnightblue" stroke="midnightblue" points="919.069,-256.14 929.585,-257.424 922.165,-249.862 919.069,-256.14"/>
</g>
<!-- Node13&#45;&gt;Node6 -->
<g id="edge14" class="edge"><title>Node13&#45;&gt;Node6</title>
<path fill="none" stroke="midnightblue" d="M578.905,-106.176C628.651,-117.076 699.524,-133.188 743.652,-143.641"/>
<polygon fill="midnightblue" stroke="midnightblue" points="742.915,-147.063 753.454,-145.976 744.537,-140.254 742.915,-147.063"/>
</g>
<!-- Node13&#45;&gt;Node7 -->
<g id="edge16" class="edge"><title>Node13&#45;&gt;Node7</title>
<path fill="none" stroke="midnightblue" d="M571.095,-78.4872C617.463,-65.2526 686.14,-45.6504 729.192,-33.3623"/>
<polygon fill="midnightblue" stroke="midnightblue" points="730.372,-36.6653 739.027,-30.555 728.451,-29.9341 730.372,-36.6653"/>
</g>
<!-- Node13&#45;&gt;Node10 -->
<g id="edge17" class="edge"><title>Node13&#45;&gt;Node10</title>
<path fill="none" stroke="midnightblue" d="M543.196,-78.4027C561.68,-66.1092 588.353,-48.3689 606.829,-36.0804"/>
<polygon fill="midnightblue" stroke="midnightblue" points="608.781,-38.9858 615.169,-30.5336 604.905,-33.1572 608.781,-38.9858"/>
</g>
<!-- Node13&#45;&gt;Node11 -->
<g id="edge20" class="edge"><title>Node13&#45;&gt;Node11</title>
<path fill="none" stroke="midnightblue" d="M578.502,-86.2343C643.362,-78.4504 752.689,-63.5155 845,-42 855.288,-39.602 866.325,-36.3909 876.287,-33.2444"/>
<polygon fill="midnightblue" stroke="midnightblue" points="877.39,-36.5662 885.822,-30.152 875.23,-29.9076 877.39,-36.5662"/>
</g>
<!-- Node14 -->
<g id="node14" class="node"><title>Node14</title>
<g id="a_node14"><a xlink:href="transformation_8h.html" target="_top" xlink:title="transformation.h">
<polygon fill="white" stroke="black" points="218.5,-11.5 218.5,-30.5 315.5,-30.5 315.5,-11.5 218.5,-11.5"/>
<text text-anchor="middle" x="267" y="-18.5" font-family="Helvetica,sans-Serif" font-size="10.00">transformation.h</text>
</a>
</g>
</g>
<!-- Node13&#45;&gt;Node14 -->
<g id="edge15" class="edge"><title>Node13&#45;&gt;Node14</title>
<path fill="none" stroke="midnightblue" d="M465.194,-79.2318C425.657,-69.6819 371.838,-56.0535 325,-42 316.804,-39.5409 308.041,-36.6556 299.873,-33.8538"/>
<polygon fill="midnightblue" stroke="midnightblue" points="300.878,-30.4977 290.283,-30.5119 298.574,-37.1078 300.878,-30.4977"/>
</g>
<!-- Node15 -->
<g id="node15" class="node"><title>Node15</title>
<polygon fill="white" stroke="#bfbfbf" points="334,-11.5 334,-30.5 472,-30.5 472,-11.5 334,-11.5"/>
<text text-anchor="middle" x="403" y="-18.5" font-family="Helvetica,sans-Serif" font-size="10.00">eigen3/Eigen/Eigenvalues</text>
</g>
<!-- Node13&#45;&gt;Node15 -->
<g id="edge18" class="edge"><title>Node13&#45;&gt;Node15</title>
<path fill="none" stroke="midnightblue" d="M498.205,-78.4027C477.265,-65.9975 446.964,-48.0459 426.203,-35.7466"/>
<polygon fill="midnightblue" stroke="midnightblue" points="427.792,-32.6194 417.404,-30.5336 424.224,-38.6419 427.792,-32.6194"/>
</g>
<!-- Node16 -->
<g id="node16" class="node"><title>Node16</title>
<polygon fill="white" stroke="#bfbfbf" points="490.5,-11.5 490.5,-30.5 553.5,-30.5 553.5,-11.5 490.5,-11.5"/>
<text text-anchor="middle" x="522" y="-18.5" font-family="Helvetica,sans-Serif" font-size="10.00">functional</text>
</g>
<!-- Node13&#45;&gt;Node16 -->
<g id="edge19" class="edge"><title>Node13&#45;&gt;Node16</title>
<path fill="none" stroke="midnightblue" d="M522,-78.2333C522,-67.5006 522,-52.6875 522,-40.959"/>
<polygon fill="midnightblue" stroke="midnightblue" points="525.5,-40.8931 522,-30.8932 518.5,-40.8932 525.5,-40.8931"/>
</g>
<!-- Node17 -->
<g id="node17" class="node"><title>Node17</title>
<polygon fill="white" stroke="#bfbfbf" points="0,-11.5 0,-30.5 42,-30.5 42,-11.5 0,-11.5"/>
<text text-anchor="middle" x="21" y="-18.5" font-family="Helvetica,sans-Serif" font-size="10.00">limits</text>
</g>
<!-- Node13&#45;&gt;Node17 -->
<g id="edge21" class="edge"><title>Node13&#45;&gt;Node17</title>
<path fill="none" stroke="midnightblue" d="M465.283,-89.8057C357.22,-84.1178 125.91,-69.1243 51,-42 47.0731,-40.5781 43.1554,-38.5389 39.5088,-36.3008"/>
<polygon fill="midnightblue" stroke="midnightblue" points="41.3774,-33.3382 31.1518,-30.5655 37.4165,-39.1098 41.3774,-33.3382"/>
</g>
<!-- Node18 -->
<g id="node18" class="node"><title>Node18</title>
<polygon fill="white" stroke="#bfbfbf" points="60,-0.5 60,-41.5 200,-41.5 200,-0.5 60,-0.5"/>
<text text-anchor="start" x="68" y="-29.5" font-family="Helvetica,sans-Serif" font-size="10.00">eigen3/unsupported</text>
<text text-anchor="start" x="68" y="-18.5" font-family="Helvetica,sans-Serif" font-size="10.00">/Eigen/src/MatrixFunctions</text>
<text text-anchor="middle" x="130" y="-7.5" font-family="Helvetica,sans-Serif" font-size="10.00">/MatrixExponential.h</text>
</g>
<!-- Node13&#45;&gt;Node18 -->
<g id="edge22" class="edge"><title>Node13&#45;&gt;Node18</title>
<path fill="none" stroke="midnightblue" d="M465.467,-84.9066C404.722,-76.4052 305.168,-61.4874 210.201,-42.1649"/>
<polygon fill="midnightblue" stroke="midnightblue" points="210.637,-38.6815 200.137,-40.097 209.228,-45.5383 210.637,-38.6815"/>
</g>
<!-- Node22&#45;&gt;Node4 -->
<g id="edge29" class="edge"><title>Node22&#45;&gt;Node4</title>
<path fill="none" stroke="midnightblue" d="M1341.41,-204.098C1280,-197.211 1178.94,-184.476 1082.94,-164.97"/>
<polygon fill="midnightblue" stroke="midnightblue" points="1083.57,-161.526 1073.07,-162.936 1082.15,-168.382 1083.57,-161.526"/>
</g>
<!-- Node23 -->
<g id="node23" class="node"><title>Node23</title>
<polygon fill="white" stroke="#bfbfbf" points="1408,-145.5 1408,-164.5 1562,-164.5 1562,-145.5 1408,-145.5"/>
<text text-anchor="middle" x="1485" y="-152.5" font-family="Helvetica,sans-Serif" font-size="10.00">carl/io/streamingOperators.h</text>
</g>
<!-- Node22&#45;&gt;Node23 -->
<g id="edge30" class="edge"><title>Node22&#45;&gt;Node23</title>
<path fill="none" stroke="midnightblue" d="M1411.98,-201.324C1425.55,-192.9 1446.38,-179.971 1462.32,-170.074"/>
<polygon fill="midnightblue" stroke="midnightblue" points="1464.41,-172.902 1471.06,-164.655 1460.71,-166.954 1464.41,-172.902"/>
</g>
<!-- Node24 -->
<g id="node24" class="node"><title>Node24</title>
<polygon fill="white" stroke="#bfbfbf" points="1580.5,-145.5 1580.5,-164.5 1639.5,-164.5 1639.5,-145.5 1580.5,-145.5"/>
<text text-anchor="middle" x="1610" y="-152.5" font-family="Helvetica,sans-Serif" font-size="10.00">iostream</text>
</g>
<!-- Node22&#45;&gt;Node24 -->
<g id="edge31" class="edge"><title>Node22&#45;&gt;Node24</title>
<path fill="none" stroke="midnightblue" d="M1431.59,-201.444C1469.29,-191.841 1530.4,-176.276 1570.39,-166.089"/>
<polygon fill="midnightblue" stroke="midnightblue" points="1571.5,-169.418 1580.33,-163.558 1569.77,-162.635 1571.5,-169.418"/>
</g>
<!-- Node25 -->
<g id="node25" class="node"><title>Node25</title>
<polygon fill="white" stroke="#bfbfbf" points="1658,-145.5 1658,-164.5 1714,-164.5 1714,-145.5 1658,-145.5"/>
<text text-anchor="middle" x="1686" y="-152.5" font-family="Helvetica,sans-Serif" font-size="10.00">sstream</text>
</g>
<!-- Node22&#45;&gt;Node25 -->
<g id="edge32" class="edge"><title>Node22&#45;&gt;Node25</title>
<path fill="none" stroke="midnightblue" d="M1451.07,-201.455C1499.81,-193.389 1574.26,-180.519 1647.85,-165.144"/>
<polygon fill="midnightblue" stroke="midnightblue" points="1648.69,-168.543 1657.76,-163.058 1647.25,-161.694 1648.69,-168.543"/>
</g>
<!-- Node26 -->
<g id="node26" class="node"><title>Node26</title>
<polygon fill="white" stroke="#bfbfbf" points="1732,-145.5 1732,-164.5 1780,-164.5 1780,-145.5 1732,-145.5"/>
<text text-anchor="middle" x="1756" y="-152.5" font-family="Helvetica,sans-Serif" font-size="10.00">thread</text>
</g>
<!-- Node22&#45;&gt;Node26 -->
<g id="edge33" class="edge"><title>Node22&#45;&gt;Node26</title>
<path fill="none" stroke="midnightblue" d="M1454.74,-204.382C1517.8,-197.639 1622.77,-184.931 1722.04,-164.966"/>
<polygon fill="midnightblue" stroke="midnightblue" points="1722.84,-168.375 1731.94,-162.947 1721.44,-161.517 1722.84,-168.375"/>
</g>
<!-- Node27 -->
<g id="node27" class="node"><title>Node27</title>
<polygon fill="white" stroke="#bfbfbf" points="1091.5,-145.5 1091.5,-164.5 1216.5,-164.5 1216.5,-145.5 1091.5,-145.5"/>
<text text-anchor="middle" x="1154" y="-152.5" font-family="Helvetica,sans-Serif" font-size="10.00">carl/core/carlLogging.h</text>
</g>
<!-- Node22&#45;&gt;Node27 -->
<g id="edge34" class="edge"><title>Node22&#45;&gt;Node27</title>
<path fill="none" stroke="midnightblue" d="M1359.34,-201.444C1316.86,-192.043 1248.57,-176.929 1202.53,-166.739"/>
<polygon fill="midnightblue" stroke="midnightblue" points="1203,-163.26 1192.48,-164.516 1201.49,-170.095 1203,-163.26"/>
</g>
<!-- Node28 -->
<g id="node28" class="node"><title>Node28</title>
<polygon fill="white" stroke="#bfbfbf" points="1234.5,-145.5 1234.5,-164.5 1389.5,-164.5 1389.5,-145.5 1234.5,-145.5"/>
<text text-anchor="middle" x="1312" y="-152.5" font-family="Helvetica,sans-Serif" font-size="10.00">carl/core/carlLoggingHelper.h</text>
</g>
<!-- Node22&#45;&gt;Node28 -->
<g id="edge35" class="edge"><title>Node22&#45;&gt;Node28</title>
<path fill="none" stroke="midnightblue" d="M1384.18,-201.324C1370.77,-192.9 1350.18,-179.971 1334.41,-170.074"/>
<polygon fill="midnightblue" stroke="midnightblue" points="1336.11,-167.008 1325.78,-164.655 1332.39,-172.936 1336.11,-167.008"/>
</g>
<!-- Node29&#45;&gt;Node4 -->
<g id="edge38" class="edge"><title>Node29&#45;&gt;Node4</title>
<path fill="none" stroke="midnightblue" d="M517.052,-205.91C611.477,-198.735 810.35,-182.929 978,-165 989.918,-163.725 1002.94,-162.133 1014.53,-160.644"/>
<polygon fill="midnightblue" stroke="midnightblue" points="1015.25,-164.081 1024.71,-159.318 1014.34,-157.14 1015.25,-164.081"/>
</g>
<!-- Node29&#45;&gt;Node19 -->
<g id="edge44" class="edge"><title>Node29&#45;&gt;Node19</title>
<path fill="none" stroke="midnightblue" d="M485.768,-201.444C512.107,-191.961 554.595,-176.666 582.904,-166.474"/>
<polygon fill="midnightblue" stroke="midnightblue" points="584.413,-169.651 592.636,-162.971 582.042,-163.065 584.413,-169.651"/>
</g>
<!-- Node29&#45;&gt;Node21 -->
<g id="edge45" class="edge"><title>Node29&#45;&gt;Node21</title>
<path fill="none" stroke="midnightblue" d="M496.505,-201.479C530.368,-193.072 583.733,-179.705 639.209,-165.171"/>
<polygon fill="midnightblue" stroke="midnightblue" points="640.438,-168.468 649.221,-162.542 638.66,-161.697 640.438,-168.468"/>
</g>
<!-- Node30 -->
<g id="node30" class="node"><title>Node30</title>
<polygon fill="white" stroke="#bfbfbf" points="513,-145.5 513,-164.5 575,-164.5 575,-145.5 513,-145.5"/>
<text text-anchor="middle" x="544" y="-152.5" font-family="Helvetica,sans-Serif" font-size="10.00">algorithm</text>
</g>
<!-- Node29&#45;&gt;Node30 -->
<g id="edge39" class="edge"><title>Node29&#45;&gt;Node30</title>
<path fill="none" stroke="midnightblue" d="M475.175,-201.324C487.847,-192.979 507.233,-180.212 522.206,-170.352"/>
<polygon fill="midnightblue" stroke="midnightblue" points="524.431,-173.078 530.858,-164.655 520.581,-167.231 524.431,-173.078"/>
</g>
<!-- Node29&#45;&gt;Node31 -->
<g id="edge40" class="edge"><title>Node29&#45;&gt;Node31</title>
<path fill="none" stroke="midnightblue" d="M406.868,-201.799C341.366,-192.054 232.272,-175.826 163.075,-165.532"/>
<polygon fill="midnightblue" stroke="midnightblue" points="163.572,-162.067 153.165,-164.058 162.542,-168.991 163.572,-162.067"/>
</g>
<!-- Node32 -->
<g id="node32" class="node"><title>Node32</title>
<polygon fill="white" stroke="#bfbfbf" points="171,-145.5 171,-164.5 299,-164.5 299,-145.5 171,-145.5"/>
<text text-anchor="middle" x="235" y="-152.5" font-family="Helvetica,sans-Serif" font-size="10.00">carl/core/VariablePool.h</text>
</g>
<!-- Node29&#45;&gt;Node32 -->
<g id="edge41" class="edge"><title>Node29&#45;&gt;Node32</title>
<path fill="none" stroke="midnightblue" d="M426.031,-201.444C386.681,-192.083 323.513,-177.056 280.686,-166.868"/>
<polygon fill="midnightblue" stroke="midnightblue" points="281.339,-163.426 270.801,-164.516 279.719,-170.236 281.339,-163.426"/>
</g>
<!-- Node33 -->
<g id="node33" class="node"><title>Node33</title>
<polygon fill="white" stroke="#bfbfbf" points="317,-145.5 317,-164.5 425,-164.5 425,-145.5 317,-145.5"/>
<text text-anchor="middle" x="371" y="-152.5" font-family="Helvetica,sans-Serif" font-size="10.00">carl/util/Singleton.h</text>
</g>
<!-- Node29&#45;&gt;Node33 -->
<g id="edge42" class="edge"><title>Node29&#45;&gt;Node33</title>
<path fill="none" stroke="midnightblue" d="M447.379,-201.324C433.051,-192.822 410.987,-179.729 394.251,-169.797"/>
<polygon fill="midnightblue" stroke="midnightblue" points="395.97,-166.748 385.584,-164.655 392.398,-172.768 395.97,-166.748"/>
</g>
<!-- Node34 -->
<g id="node34" class="node"><title>Node34</title>
<polygon fill="white" stroke="#bfbfbf" points="443,-145.5 443,-164.5 495,-164.5 495,-145.5 443,-145.5"/>
<text text-anchor="middle" x="469" y="-152.5" font-family="Helvetica,sans-Serif" font-size="10.00">cassert</text>
</g>
<!-- Node29&#45;&gt;Node34 -->
<g id="edge43" class="edge"><title>Node29&#45;&gt;Node34</title>
<path fill="none" stroke="midnightblue" d="M463.156,-201.083C464.084,-193.927 465.418,-183.635 466.577,-174.691"/>
<polygon fill="midnightblue" stroke="midnightblue" points="470.051,-175.118 467.866,-164.751 463.109,-174.218 470.051,-175.118"/>
</g>
<!-- Node36&#45;&gt;Node2 -->
<g id="edge50" class="edge"><title>Node36&#45;&gt;Node2</title>
<path fill="none" stroke="midnightblue" d="M727.443,-380.396C724.884,-372.474 721.622,-362.379 718.68,-353.271"/>
<polygon fill="midnightblue" stroke="midnightblue" points="721.953,-352.016 715.548,-343.577 715.292,-354.168 721.953,-352.016"/>
</g>
<!-- Node37 -->
<g id="node37" class="node"><title>Node37</title>
<polygon fill="white" stroke="#bfbfbf" points="782,-319 782,-338 922,-338 922,-319 782,-319"/>
<text text-anchor="middle" x="852" y="-326" font-family="Helvetica,sans-Serif" font-size="10.00">boost/functional/hash.hpp</text>
</g>
<!-- Node36&#45;&gt;Node37 -->
<g id="edge51" class="edge"><title>Node36&#45;&gt;Node37</title>
<path fill="none" stroke="midnightblue" d="M758.038,-380.396C778.628,-369.243 807.173,-353.781 827.384,-342.834"/>
<polygon fill="midnightblue" stroke="midnightblue" points="829.169,-345.847 836.295,-338.007 825.835,-339.692 829.169,-345.847"/>
</g>
<!-- Node38 -->
<g id="node38" class="node"><title>Node38</title>
<polygon fill="white" stroke="#bfbfbf" points="940,-319 940,-338 970,-338 970,-319 940,-319"/>
<text text-anchor="middle" x="955" y="-326" font-family="Helvetica,sans-Serif" font-size="10.00">list</text>
</g>
<!-- Node36&#45;&gt;Node38 -->
<g id="edge52" class="edge"><title>Node36&#45;&gt;Node38</title>
<path fill="none" stroke="midnightblue" d="M784.911,-381.925C839.164,-368.894 917.476,-349.654 931,-344 931.707,-343.704 932.419,-343.39 933.13,-343.061"/>
<polygon fill="midnightblue" stroke="midnightblue" points="935.014,-346.022 942.165,-338.205 931.7,-339.856 935.014,-346.022"/>
</g>
</g>
</svg>
