<?xml version="1.0" encoding="UTF-8" standalone="no"?>
<!DOCTYPE svg PUBLIC "-//W3C//DTD SVG 1.1//EN"
 "http://www.w3.org/Graphics/SVG/1.1/DTD/svg11.dtd">
<!-- Generated by graphviz version 2.38.0 (20140413.2041)
 -->
<!-- Title: /home/travis/build/hypro/hypro/src/hypro/datastructures/Halfspace.h Pages: 1 -->
<svg width="1921pt" height="363pt"
 viewBox="0.00 0.00 1920.55 363.00" xmlns="http://www.w3.org/2000/svg" xmlns:xlink="http://www.w3.org/1999/xlink">
<g id="graph0" class="graph" transform="scale(1 1) rotate(0) translate(4 359)">
<title>/home/travis/build/hypro/hypro/src/hypro/datastructures/Halfspace.h</title>
<polygon fill="white" stroke="none" points="-4,4 -4,-359 1916.55,-359 1916.55,4 -4,4"/>
<!-- Node1 -->
<g id="node1" class="node"><title>Node1</title>
<polygon fill="#bfbfbf" stroke="black" points="1208.05,-313.5 1208.05,-354.5 1357.05,-354.5 1357.05,-313.5 1208.05,-313.5"/>
<text text-anchor="start" x="1216.05" y="-342.5" font-family="Helvetica,sans-Serif" font-size="10.00">/home/travis/build</text>
<text text-anchor="start" x="1216.05" y="-331.5" font-family="Helvetica,sans-Serif" font-size="10.00">/hypro/hypro/src/hypro</text>
<text text-anchor="middle" x="1282.55" y="-320.5" font-family="Helvetica,sans-Serif" font-size="10.00">/datastructures/Halfspace.h</text>
</g>
<!-- Node2 -->
<g id="node2" class="node"><title>Node2</title>
<g id="a_node2"><a xlink:href="representations_2types_8h.html" target="_top" xlink:title="../representations\l/types.h">
<polygon fill="white" stroke="black" points="366.048,-246.5 366.048,-276.5 467.048,-276.5 467.048,-246.5 366.048,-246.5"/>
<text text-anchor="start" x="374.048" y="-264.5" font-family="Helvetica,sans-Serif" font-size="10.00">../representations</text>
<text text-anchor="middle" x="416.548" y="-253.5" font-family="Helvetica,sans-Serif" font-size="10.00">/types.h</text>
</a>
</g>
</g>
<!-- Node1&#45;&gt;Node2 -->
<g id="edge1" class="edge"><title>Node1&#45;&gt;Node2</title>
<path fill="none" stroke="midnightblue" d="M1207.91,-331.986C1066.83,-329.161 751.396,-318.508 477.31,-276.921"/>
<polygon fill="midnightblue" stroke="midnightblue" points="477.583,-273.422 467.168,-275.365 476.522,-280.341 477.583,-273.422"/>
</g>
<!-- Node3 -->
<g id="node3" class="node"><title>Node3</title>
<g id="a_node3"><a xlink:href="VariablePool_8h.html" target="_top" xlink:title="../util/VariablePool.h">
<polygon fill="white" stroke="black" points="1333.55,-179.5 1333.55,-198.5 1443.55,-198.5 1443.55,-179.5 1333.55,-179.5"/>
<text text-anchor="middle" x="1388.55" y="-186.5" font-family="Helvetica,sans-Serif" font-size="10.00">../util/VariablePool.h</text>
</a>
</g>
</g>
<!-- Node1&#45;&gt;Node3 -->
<g id="edge2" class="edge"><title>Node1&#45;&gt;Node3</title>
<path fill="none" stroke="midnightblue" d="M1297.06,-313.416C1317.96,-285.225 1356.18,-233.672 1375.95,-206.997"/>
<polygon fill="midnightblue" stroke="midnightblue" points="1378.97,-208.796 1382.12,-198.678 1373.35,-204.628 1378.97,-208.796"/>
</g>
<!-- Node9 -->
<g id="node9" class="node"><title>Node9</title>
<polygon fill="white" stroke="#bfbfbf" points="1860.55,-112.5 1860.55,-131.5 1912.55,-131.5 1912.55,-112.5 1860.55,-112.5"/>
<text text-anchor="middle" x="1886.55" y="-119.5" font-family="Helvetica,sans-Serif" font-size="10.00">cassert</text>
</g>
<!-- Node1&#45;&gt;Node9 -->
<g id="edge54" class="edge"><title>Node1&#45;&gt;Node9</title>
<path fill="none" stroke="midnightblue" d="M1326.12,-313.475C1368.08,-295.004 1433.55,-267.052 1491.55,-246 1622.18,-198.588 1780.99,-152.582 1850.76,-132.94"/>
<polygon fill="midnightblue" stroke="midnightblue" points="1851.71,-136.309 1860.39,-130.237 1849.82,-129.569 1851.71,-136.309"/>
</g>
<!-- Node12 -->
<g id="node12" class="node"><title>Node12</title>
<g id="a_node12"><a xlink:href="adaptions__eigen_8h.html" target="_top" xlink:title="../util/adaptions_eigen\l/adaptions_eigen.h">
<polygon fill="white" stroke="black" points="485.548,-246.5 485.548,-276.5 607.548,-276.5 607.548,-246.5 485.548,-246.5"/>
<text text-anchor="start" x="493.548" y="-264.5" font-family="Helvetica,sans-Serif" font-size="10.00">../util/adaptions_eigen</text>
<text text-anchor="middle" x="546.548" y="-253.5" font-family="Helvetica,sans-Serif" font-size="10.00">/adaptions_eigen.h</text>
</a>
</g>
</g>
<!-- Node1&#45;&gt;Node12 -->
<g id="edge11" class="edge"><title>Node1&#45;&gt;Node12</title>
<path fill="none" stroke="midnightblue" d="M1207.93,-325.852C1065.67,-312.226 757.436,-282.701 617.826,-269.328"/>
<polygon fill="midnightblue" stroke="midnightblue" points="617.955,-265.824 607.667,-268.354 617.288,-272.792 617.955,-265.824"/>
</g>
<!-- Node35 -->
<g id="node35" class="node"><title>Node35</title>
<g id="a_node35"><a xlink:href="EvaluationResult_8h.html" target="_top" xlink:title="../util/linearOptimization\l/EvaluationResult.h">
<polygon fill="white" stroke="black" points="973.548,-246.5 973.548,-276.5 1103.55,-276.5 1103.55,-246.5 973.548,-246.5"/>
<text text-anchor="start" x="981.548" y="-264.5" font-family="Helvetica,sans-Serif" font-size="10.00">../util/linearOptimization</text>
<text text-anchor="middle" x="1038.55" y="-253.5" font-family="Helvetica,sans-Serif" font-size="10.00">/EvaluationResult.h</text>
</a>
</g>
</g>
<!-- Node1&#45;&gt;Node35 -->
<g id="edge45" class="edge"><title>Node1&#45;&gt;Node35</title>
<path fill="none" stroke="midnightblue" d="M1214.9,-313.455C1177.91,-302.765 1132.52,-289.653 1097.06,-279.406"/>
<polygon fill="midnightblue" stroke="midnightblue" points="1097.92,-276.01 1087.34,-276.597 1095.97,-282.735 1097.92,-276.01"/>
</g>
<!-- Node36 -->
<g id="node36" class="node"><title>Node36</title>
<g id="a_node36"><a xlink:href="Point_8h.html" target="_top" xlink:title="Point.h">
<polygon fill="white" stroke="black" points="1204.55,-252 1204.55,-271 1254.55,-271 1254.55,-252 1204.55,-252"/>
<text text-anchor="middle" x="1229.55" y="-259" font-family="Helvetica,sans-Serif" font-size="10.00">Point.h</text>
</a>
</g>
</g>
<!-- Node1&#45;&gt;Node36 -->
<g id="edge47" class="edge"><title>Node1&#45;&gt;Node36</title>
<path fill="none" stroke="midnightblue" d="M1267.78,-313.362C1259.73,-302.648 1249.86,-289.522 1242.17,-279.289"/>
<polygon fill="midnightblue" stroke="midnightblue" points="1244.88,-277.063 1236.07,-271.173 1239.28,-281.27 1244.88,-277.063"/>
</g>
<!-- Node38 -->
<g id="node38" class="node"><title>Node38</title>
<polygon fill="white" stroke="#bfbfbf" points="1500.05,-252 1500.05,-271 1545.05,-271 1545.05,-252 1500.05,-252"/>
<text text-anchor="middle" x="1522.55" y="-259" font-family="Helvetica,sans-Serif" font-size="10.00">glpk.h</text>
</g>
<!-- Node1&#45;&gt;Node38 -->
<g id="edge55" class="edge"><title>Node1&#45;&gt;Node38</title>
<path fill="none" stroke="midnightblue" d="M1357.35,-314.361C1395.93,-304.246 1443.58,-290.971 1485.55,-277 1487.81,-276.246 1490.14,-275.431 1492.47,-274.586"/>
<polygon fill="midnightblue" stroke="midnightblue" points="1493.82,-277.818 1501.94,-271.014 1491.35,-271.268 1493.82,-277.818"/>
</g>
<!-- Node39 -->
<g id="node39" class="node"><title>Node39</title>
<polygon fill="white" stroke="#bfbfbf" points="1563.05,-252 1563.05,-271 1646.05,-271 1646.05,-252 1563.05,-252"/>
<text text-anchor="middle" x="1604.55" y="-259" font-family="Helvetica,sans-Serif" font-size="10.00">Halfspace.tpp</text>
</g>
<!-- Node1&#45;&gt;Node39 -->
<g id="edge56" class="edge"><title>Node1&#45;&gt;Node39</title>
<path fill="none" stroke="midnightblue" d="M1357.08,-319.306C1411.94,-308.826 1488.21,-293.421 1554.55,-277 1558.6,-275.998 1562.81,-274.887 1566.99,-273.738"/>
<polygon fill="midnightblue" stroke="midnightblue" points="1567.95,-277.105 1576.62,-271.022 1566.05,-270.368 1567.95,-277.105"/>
</g>
<!-- Node4 -->
<g id="node4" class="node"><title>Node4</title>
<g id="a_node4"><a xlink:href="flags_8h.html" target="_top" xlink:title="../flags.h">
<polygon fill="white" stroke="black" points="923.048,-56.5 923.048,-75.5 980.048,-75.5 980.048,-56.5 923.048,-56.5"/>
<text text-anchor="middle" x="951.548" y="-63.5" font-family="Helvetica,sans-Serif" font-size="10.00">../flags.h</text>
</a>
</g>
</g>
<!-- Node3&#45;&gt;Node4 -->
<g id="edge3" class="edge"><title>Node3&#45;&gt;Node4</title>
<path fill="none" stroke="midnightblue" d="M1337.52,-179.495C1243.52,-163.829 1052.55,-132 1052.55,-132 1021,-119.82 988.896,-96.9885 969.596,-81.8877"/>
<polygon fill="midnightblue" stroke="midnightblue" points="971.674,-79.0685 961.677,-75.5595 967.304,-84.5368 971.674,-79.0685"/>
</g>
<!-- Node5 -->
<g id="node5" class="node"><title>Node5</title>
<polygon fill="white" stroke="#bfbfbf" points="1508.55,-112.5 1508.55,-131.5 1570.55,-131.5 1570.55,-112.5 1508.55,-112.5"/>
<text text-anchor="middle" x="1539.55" y="-119.5" font-family="Helvetica,sans-Serif" font-size="10.00">algorithm</text>
</g>
<!-- Node3&#45;&gt;Node5 -->
<g id="edge4" class="edge"><title>Node3&#45;&gt;Node5</title>
<path fill="none" stroke="midnightblue" d="M1408.6,-179.369C1434.55,-168.199 1479.97,-148.647 1509.91,-135.76"/>
<polygon fill="midnightblue" stroke="midnightblue" points="1511.61,-138.836 1519.41,-131.667 1508.84,-132.406 1511.61,-138.836"/>
</g>
<!-- Node6 -->
<g id="node6" class="node"><title>Node6</title>
<polygon fill="white" stroke="#bfbfbf" points="1588.55,-112.5 1588.55,-131.5 1696.55,-131.5 1696.55,-112.5 1588.55,-112.5"/>
<text text-anchor="middle" x="1642.55" y="-119.5" font-family="Helvetica,sans-Serif" font-size="10.00">carl/core/Variable.h</text>
</g>
<!-- Node3&#45;&gt;Node6 -->
<g id="edge5" class="edge"><title>Node3&#45;&gt;Node6</title>
<path fill="none" stroke="midnightblue" d="M1417.01,-179.45C1429.42,-175.797 1444.17,-171.564 1457.55,-168 1504.12,-155.594 1557.64,-142.723 1595.1,-133.941"/>
<polygon fill="midnightblue" stroke="midnightblue" points="1596.28,-137.26 1605.22,-131.576 1594.69,-130.444 1596.28,-137.26"/>
</g>
<!-- Node7 -->
<g id="node7" class="node"><title>Node7</title>
<polygon fill="white" stroke="#bfbfbf" points="1714.55,-112.5 1714.55,-131.5 1842.55,-131.5 1842.55,-112.5 1714.55,-112.5"/>
<text text-anchor="middle" x="1778.55" y="-119.5" font-family="Helvetica,sans-Serif" font-size="10.00">carl/core/VariablePool.h</text>
</g>
<!-- Node3&#45;&gt;Node7 -->
<g id="edge6" class="edge"><title>Node3&#45;&gt;Node7</title>
<path fill="none" stroke="midnightblue" d="M1414.86,-179.413C1427.64,-175.492 1443.28,-171.052 1457.55,-168 1503.2,-158.237 1624.49,-142.229 1704.22,-132.17"/>
<polygon fill="midnightblue" stroke="midnightblue" points="1704.73,-135.634 1714.21,-130.913 1703.85,-128.689 1704.73,-135.634"/>
</g>
<!-- Node8 -->
<g id="node8" class="node"><title>Node8</title>
<polygon fill="white" stroke="#bfbfbf" points="1344.55,-112.5 1344.55,-131.5 1452.55,-131.5 1452.55,-112.5 1344.55,-112.5"/>
<text text-anchor="middle" x="1398.55" y="-119.5" font-family="Helvetica,sans-Serif" font-size="10.00">carl/util/Singleton.h</text>
</g>
<!-- Node3&#45;&gt;Node8 -->
<g id="edge7" class="edge"><title>Node3&#45;&gt;Node8</title>
<path fill="none" stroke="midnightblue" d="M1389.9,-179.234C1391.37,-169.683 1393.76,-154.118 1395.66,-141.783"/>
<polygon fill="midnightblue" stroke="midnightblue" points="1399.16,-142.043 1397.22,-131.627 1392.24,-140.979 1399.16,-142.043"/>
</g>
<!-- Node3&#45;&gt;Node9 -->
<g id="edge8" class="edge"><title>Node3&#45;&gt;Node9</title>
<path fill="none" stroke="midnightblue" d="M1413.83,-179.415C1426.76,-175.345 1442.84,-170.777 1457.55,-168 1627.13,-135.98 1676.46,-161.025 1850.28,-131.947"/>
<polygon fill="midnightblue" stroke="midnightblue" points="1851.01,-135.374 1860.27,-130.239 1849.83,-128.474 1851.01,-135.374"/>
</g>
<!-- Node10 -->
<g id="node10" class="node"><title>Node10</title>
<polygon fill="white" stroke="#bfbfbf" points="1213.55,-56.5 1213.55,-75.5 1251.55,-75.5 1251.55,-56.5 1213.55,-56.5"/>
<text text-anchor="middle" x="1232.55" y="-63.5" font-family="Helvetica,sans-Serif" font-size="10.00">map</text>
</g>
<!-- Node3&#45;&gt;Node10 -->
<g id="edge9" class="edge"><title>Node3&#45;&gt;Node10</title>
<path fill="none" stroke="midnightblue" d="M1377.33,-179.298C1350.91,-158.804 1284.52,-107.312 1251.63,-81.7996"/>
<polygon fill="midnightblue" stroke="midnightblue" points="1253.71,-78.9865 1243.67,-75.6232 1249.42,-84.5177 1253.71,-78.9865"/>
</g>
<!-- Node11 -->
<g id="node11" class="node"><title>Node11</title>
<polygon fill="white" stroke="#bfbfbf" points="1308.05,-56.5 1308.05,-75.5 1355.05,-75.5 1355.05,-56.5 1308.05,-56.5"/>
<text text-anchor="middle" x="1331.55" y="-63.5" font-family="Helvetica,sans-Serif" font-size="10.00">vector</text>
</g>
<!-- Node3&#45;&gt;Node11 -->
<g id="edge10" class="edge"><title>Node3&#45;&gt;Node11</title>
<path fill="none" stroke="midnightblue" d="M1408.16,-179.419C1435.82,-166.094 1480.86,-139.124 1461.55,-112 1439.86,-81.5444 1396.09,-71.509 1365.35,-68.3083"/>
<polygon fill="midnightblue" stroke="midnightblue" points="1365.33,-64.7948 1355.08,-67.4389 1364.74,-71.7699 1365.33,-64.7948"/>
</g>
<!-- Node13 -->
<g id="node13" class="node"><title>Node13</title>
<g id="a_node13"><a xlink:href="config_8h.html" target="_top" xlink:title="../../config.h">
<polygon fill="white" stroke="black" points="800.548,-179.5 800.548,-198.5 872.548,-198.5 872.548,-179.5 800.548,-179.5"/>
<text text-anchor="middle" x="836.548" y="-186.5" font-family="Helvetica,sans-Serif" font-size="10.00">../../config.h</text>
</a>
</g>
</g>
<!-- Node12&#45;&gt;Node13 -->
<g id="edge12" class="edge"><title>Node12&#45;&gt;Node13</title>
<path fill="none" stroke="midnightblue" d="M604.19,-246.487C659.204,-233.113 740.967,-213.236 791.399,-200.976"/>
<polygon fill="midnightblue" stroke="midnightblue" points="792.468,-204.318 801.358,-198.555 790.814,-197.516 792.468,-204.318"/>
</g>
<!-- Node15 -->
<g id="node15" class="node"><title>Node15</title>
<g id="a_node15"><a xlink:href="types_8h.html" target="_top" xlink:title="../types.h">
<polygon fill="white" stroke="black" points="998.048,-56.5 998.048,-75.5 1059.05,-75.5 1059.05,-56.5 998.048,-56.5"/>
<text text-anchor="middle" x="1028.55" y="-63.5" font-family="Helvetica,sans-Serif" font-size="10.00">../types.h</text>
</a>
</g>
</g>
<!-- Node12&#45;&gt;Node15 -->
<g id="edge36" class="edge"><title>Node12&#45;&gt;Node15</title>
<path fill="none" stroke="midnightblue" d="M607.709,-255.245C688.819,-247.857 826.777,-232.713 872.548,-210 934.061,-179.477 986.324,-113.779 1012.21,-83.2322"/>
<polygon fill="midnightblue" stroke="midnightblue" points="1014.91,-85.4623 1018.8,-75.6069 1009.61,-80.8863 1014.91,-85.4623"/>
</g>
<!-- Node16 -->
<g id="node16" class="node"><title>Node16</title>
<polygon fill="white" stroke="#bfbfbf" points="107.548,-0.5 107.548,-19.5 241.548,-19.5 241.548,-0.5 107.548,-0.5"/>
<text text-anchor="middle" x="174.548" y="-7.5" font-family="Helvetica,sans-Serif" font-size="10.00">carl/numbers/numbers.h</text>
</g>
<!-- Node12&#45;&gt;Node16 -->
<g id="edge38" class="edge"><title>Node12&#45;&gt;Node16</title>
<path fill="none" stroke="midnightblue" d="M485.44,-247.522C482.101,-246.968 478.787,-246.456 475.548,-246 424.781,-238.857 50.3569,-247.639 15.5483,-210 -45.4593,-144.031 90.5421,-57.4184 149.251,-24.4903"/>
<polygon fill="midnightblue" stroke="midnightblue" points="151.225,-27.3984 158.29,-19.5029 147.844,-21.2695 151.225,-27.3984"/>
</g>
<!-- Node19 -->
<g id="node19" class="node"><title>Node19</title>
<polygon fill="white" stroke="#bfbfbf" points="593.548,-0.5 593.548,-19.5 705.548,-19.5 705.548,-0.5 593.548,-0.5"/>
<text text-anchor="middle" x="649.548" y="-7.5" font-family="Helvetica,sans-Serif" font-size="10.00">eigen3/Eigen/Dense</text>
</g>
<!-- Node12&#45;&gt;Node19 -->
<g id="edge39" class="edge"><title>Node12&#45;&gt;Node19</title>
<path fill="none" stroke="midnightblue" d="M485.417,-247.675C482.084,-247.082 478.778,-246.519 475.548,-246 407.946,-235.14 215.047,-261.165 169.548,-210 148.474,-186.301 125.794,-107.247 174.548,-56 202.142,-26.9958 458.923,-16.1355 583.02,-12.5559"/>
<polygon fill="midnightblue" stroke="midnightblue" points="583.265,-16.0505 593.163,-12.271 583.069,-9.05322 583.265,-16.0505"/>
</g>
<!-- Node20 -->
<g id="node20" class="node"><title>Node20</title>
<polygon fill="white" stroke="#bfbfbf" points="994.548,-0.5 994.548,-19.5 1040.55,-19.5 1040.55,-0.5 994.548,-0.5"/>
<text text-anchor="middle" x="1017.55" y="-7.5" font-family="Helvetica,sans-Serif" font-size="10.00">iosfwd</text>
</g>
<!-- Node12&#45;&gt;Node20 -->
<g id="edge42" class="edge"><title>Node12&#45;&gt;Node20</title>
<path fill="none" stroke="midnightblue" d="M583.862,-246.359C599.702,-238.277 616.557,-226.419 625.548,-210 634.514,-193.628 637.243,-182.549 625.548,-168 505.05,-18.0959 74.7301,-195.106 207.548,-56 236.144,-26.0501 883.46,-26.7752 984.12,-19.2737"/>
<polygon fill="midnightblue" stroke="midnightblue" points="984.687,-22.7336 994.267,-18.21 983.957,-15.7717 984.687,-22.7336"/>
</g>
<!-- Node30 -->
<g id="node30" class="node"><title>Node30</title>
<g id="a_node30"><a xlink:href="transformation_8h.html" target="_top" xlink:title="transformation.h">
<polygon fill="white" stroke="black" points="25.0483,-179.5 25.0483,-198.5 122.048,-198.5 122.048,-179.5 25.0483,-179.5"/>
<text text-anchor="middle" x="73.5483" y="-186.5" font-family="Helvetica,sans-Serif" font-size="10.00">transformation.h</text>
</a>
</g>
</g>
<!-- Node12&#45;&gt;Node30 -->
<g id="edge37" class="edge"><title>Node12&#45;&gt;Node30</title>
<path fill="none" stroke="midnightblue" d="M485.424,-247.63C482.089,-247.049 478.781,-246.501 475.548,-246 325.819,-222.815 284.84,-241.08 136.548,-210 126.545,-207.903 115.877,-204.845 106.218,-201.748"/>
<polygon fill="midnightblue" stroke="midnightblue" points="107.18,-198.379 96.5863,-198.545 104.971,-205.022 107.18,-198.379"/>
</g>
<!-- Node31 -->
<g id="node31" class="node"><title>Node31</title>
<polygon fill="white" stroke="#bfbfbf" points="178.548,-179.5 178.548,-198.5 316.548,-198.5 316.548,-179.5 178.548,-179.5"/>
<text text-anchor="middle" x="247.548" y="-186.5" font-family="Helvetica,sans-Serif" font-size="10.00">eigen3/Eigen/Eigenvalues</text>
</g>
<!-- Node12&#45;&gt;Node31 -->
<g id="edge40" class="edge"><title>Node12&#45;&gt;Node31</title>
<path fill="none" stroke="midnightblue" d="M485.474,-246.998C441.045,-237.066 379.48,-223.074 325.548,-210 313.989,-207.198 301.498,-204.049 289.972,-201.094"/>
<polygon fill="midnightblue" stroke="midnightblue" points="290.695,-197.666 280.138,-198.56 288.948,-204.445 290.695,-197.666"/>
</g>
<!-- Node32 -->
<g id="node32" class="node"><title>Node32</title>
<polygon fill="white" stroke="#bfbfbf" points="335.048,-179.5 335.048,-198.5 398.048,-198.5 398.048,-179.5 335.048,-179.5"/>
<text text-anchor="middle" x="366.548" y="-186.5" font-family="Helvetica,sans-Serif" font-size="10.00">functional</text>
</g>
<!-- Node12&#45;&gt;Node32 -->
<g id="edge41" class="edge"><title>Node12&#45;&gt;Node32</title>
<path fill="none" stroke="midnightblue" d="M504.438,-246.497C476.641,-236.937 439.576,-223.585 407.548,-210 402.572,-207.889 397.335,-205.483 392.33,-203.088"/>
<polygon fill="midnightblue" stroke="midnightblue" points="393.641,-199.832 383.121,-198.577 390.562,-206.119 393.641,-199.832"/>
</g>
<!-- Node33 -->
<g id="node33" class="node"><title>Node33</title>
<polygon fill="white" stroke="#bfbfbf" points="416.548,-179.5 416.548,-198.5 458.548,-198.5 458.548,-179.5 416.548,-179.5"/>
<text text-anchor="middle" x="437.548" y="-186.5" font-family="Helvetica,sans-Serif" font-size="10.00">limits</text>
</g>
<!-- Node12&#45;&gt;Node33 -->
<g id="edge43" class="edge"><title>Node12&#45;&gt;Node33</title>
<path fill="none" stroke="midnightblue" d="M524.341,-246.464C508.469,-236.394 486.631,-222.458 467.548,-210 464.718,-208.152 461.747,-206.194 458.82,-204.254"/>
<polygon fill="midnightblue" stroke="midnightblue" points="460.622,-201.249 450.359,-198.619 456.742,-207.075 460.622,-201.249"/>
</g>
<!-- Node34 -->
<g id="node34" class="node"><title>Node34</title>
<polygon fill="white" stroke="#bfbfbf" points="476.548,-168.5 476.548,-209.5 616.548,-209.5 616.548,-168.5 476.548,-168.5"/>
<text text-anchor="start" x="484.548" y="-197.5" font-family="Helvetica,sans-Serif" font-size="10.00">eigen3/unsupported</text>
<text text-anchor="start" x="484.548" y="-186.5" font-family="Helvetica,sans-Serif" font-size="10.00">/Eigen/src/MatrixFunctions</text>
<text text-anchor="middle" x="546.548" y="-175.5" font-family="Helvetica,sans-Serif" font-size="10.00">/MatrixExponential.h</text>
</g>
<!-- Node12&#45;&gt;Node34 -->
<g id="edge44" class="edge"><title>Node12&#45;&gt;Node34</title>
<path fill="none" stroke="midnightblue" d="M546.548,-246.233C546.548,-238.574 546.548,-228.837 546.548,-219.626"/>
<polygon fill="midnightblue" stroke="midnightblue" points="550.048,-219.588 546.548,-209.588 543.048,-219.588 550.048,-219.588"/>
</g>
<!-- Node13&#45;&gt;Node4 -->
<g id="edge13" class="edge"><title>Node13&#45;&gt;Node4</title>
<path fill="none" stroke="midnightblue" d="M840.866,-179.258C848.562,-164.272 865.802,-133.242 886.548,-112 898.432,-99.8319 914.042,-88.8996 926.986,-80.858"/>
<polygon fill="midnightblue" stroke="midnightblue" points="929.076,-83.6853 935.848,-75.5371 925.473,-77.6839 929.076,-83.6853"/>
</g>
<!-- Node14 -->
<g id="node14" class="node"><title>Node14</title>
<g id="a_node14"><a xlink:href="util_2convenienceOperators_8h.html" target="_top" xlink:title="util/convenienceOperators.h">
<polygon fill="white" stroke="black" points="1061.05,-112.5 1061.05,-131.5 1212.05,-131.5 1212.05,-112.5 1061.05,-112.5"/>
<text text-anchor="middle" x="1136.55" y="-119.5" font-family="Helvetica,sans-Serif" font-size="10.00">util/convenienceOperators.h</text>
</a>
</g>
</g>
<!-- Node13&#45;&gt;Node14 -->
<g id="edge14" class="edge"><title>Node13&#45;&gt;Node14</title>
<path fill="none" stroke="midnightblue" d="M872.735,-180.159C926.212,-168.573 1026.51,-146.842 1086.84,-133.769"/>
<polygon fill="midnightblue" stroke="midnightblue" points="1087.87,-137.129 1096.9,-131.591 1086.38,-130.288 1087.87,-137.129"/>
</g>
<!-- Node23 -->
<g id="node23" class="node"><title>Node23</title>
<g id="a_node23"><a xlink:href="Logger_8h.html" target="_top" xlink:title="util/logging/Logger.h">
<polygon fill="white" stroke="black" points="643.048,-112.5 643.048,-131.5 756.048,-131.5 756.048,-112.5 643.048,-112.5"/>
<text text-anchor="middle" x="699.548" y="-119.5" font-family="Helvetica,sans-Serif" font-size="10.00">util/logging/Logger.h</text>
</a>
</g>
</g>
<!-- Node13&#45;&gt;Node23 -->
<g id="edge28" class="edge"><title>Node13&#45;&gt;Node23</title>
<path fill="none" stroke="midnightblue" d="M818.356,-179.369C795.019,-168.296 754.319,-148.986 727.155,-136.098"/>
<polygon fill="midnightblue" stroke="midnightblue" points="728.351,-132.792 717.816,-131.667 725.351,-139.116 728.351,-132.792"/>
</g>
<!-- Node14&#45;&gt;Node10 -->
<g id="edge24" class="edge"><title>Node14&#45;&gt;Node10</title>
<path fill="none" stroke="midnightblue" d="M1151.97,-112.324C1167.09,-103.822 1190.36,-90.7288 1208.02,-80.7975"/>
<polygon fill="midnightblue" stroke="midnightblue" points="1210.16,-83.6077 1217.16,-75.6545 1206.73,-77.5066 1210.16,-83.6077"/>
</g>
<!-- Node14&#45;&gt;Node11 -->
<g id="edge27" class="edge"><title>Node14&#45;&gt;Node11</title>
<path fill="none" stroke="midnightblue" d="M1167.45,-112.444C1203.08,-102.576 1261.45,-86.4126 1298.12,-76.2577"/>
<polygon fill="midnightblue" stroke="midnightblue" points="1299.15,-79.605 1307.85,-73.5631 1297.28,-72.8589 1299.15,-79.605"/>
</g>
<!-- Node14&#45;&gt;Node15 -->
<g id="edge15" class="edge"><title>Node14&#45;&gt;Node15</title>
<path fill="none" stroke="midnightblue" d="M1119.2,-112.324C1101.88,-103.664 1075.03,-90.2424 1055.05,-80.249"/>
<polygon fill="midnightblue" stroke="midnightblue" points="1056.37,-76.9962 1045.86,-75.6545 1053.24,-83.2572 1056.37,-76.9962"/>
</g>
<!-- Node14&#45;&gt;Node20 -->
<g id="edge23" class="edge"><title>Node14&#45;&gt;Node20</title>
<path fill="none" stroke="midnightblue" d="M1127.85,-112.473C1115.02,-99.9417 1090.2,-75.8849 1068.55,-56 1057.54,-45.8909 1044.95,-34.7786 1035.04,-26.1259"/>
<polygon fill="midnightblue" stroke="midnightblue" points="1037.27,-23.4316 1027.43,-19.5122 1032.68,-28.7145 1037.27,-23.4316"/>
</g>
<!-- Node21 -->
<g id="node21" class="node"><title>Node21</title>
<polygon fill="white" stroke="#bfbfbf" points="1180.55,-0.5 1180.55,-19.5 1212.55,-19.5 1212.55,-0.5 1180.55,-0.5"/>
<text text-anchor="middle" x="1196.55" y="-7.5" font-family="Helvetica,sans-Serif" font-size="10.00">set</text>
</g>
<!-- Node14&#45;&gt;Node21 -->
<g id="edge25" class="edge"><title>Node14&#45;&gt;Node21</title>
<path fill="none" stroke="midnightblue" d="M1142.95,-112.292C1149.33,-103.411 1159.21,-89.1098 1166.55,-76 1175.17,-60.5956 1183.46,-42.2763 1189.13,-29.0183"/>
<polygon fill="midnightblue" stroke="midnightblue" points="1192.43,-30.1983 1193.07,-19.623 1185.98,-27.4887 1192.43,-30.1983"/>
</g>
<!-- Node22 -->
<g id="node22" class="node"><title>Node22</title>
<polygon fill="white" stroke="#bfbfbf" points="1115.55,-56.5 1115.55,-75.5 1157.55,-75.5 1157.55,-56.5 1115.55,-56.5"/>
<text text-anchor="middle" x="1136.55" y="-63.5" font-family="Helvetica,sans-Serif" font-size="10.00">utility</text>
</g>
<!-- Node14&#45;&gt;Node22 -->
<g id="edge26" class="edge"><title>Node14&#45;&gt;Node22</title>
<path fill="none" stroke="midnightblue" d="M1136.55,-112.083C1136.55,-105.006 1136.55,-94.8611 1136.55,-85.9865"/>
<polygon fill="midnightblue" stroke="midnightblue" points="1140.05,-85.751 1136.55,-75.7511 1133.05,-85.7511 1140.05,-85.751"/>
</g>
<!-- Node15&#45;&gt;Node12 -->
<g id="edge22" class="edge"><title>Node15&#45;&gt;Node12</title>
<path fill="none" stroke="midnightblue" d="M1026.72,-75.6069C1014.07,-101.115 957.844,-176.607 890.548,-210 844.366,-232.916 704.336,-248.128 617.76,-255.441"/>
<polygon fill="midnightblue" stroke="midnightblue" points="617.413,-251.958 607.736,-256.273 617.992,-258.934 617.413,-251.958"/>
</g>
<!-- Node15&#45;&gt;Node16 -->
<g id="edge16" class="edge"><title>Node15&#45;&gt;Node16</title>
<path fill="none" stroke="midnightblue" d="M997.633,-57.5111C994.576,-56.9312 991.509,-56.4121 988.548,-56 719.713,-18.5894 396.863,-11.9756 251.785,-11.0118"/>
<polygon fill="midnightblue" stroke="midnightblue" points="251.671,-7.5112 241.65,-10.9519 251.629,-14.5111 251.671,-7.5112"/>
</g>
<!-- Node17 -->
<g id="node17" class="node"><title>Node17</title>
<polygon fill="white" stroke="#bfbfbf" points="890.548,-0.5 890.548,-19.5 976.548,-19.5 976.548,-0.5 890.548,-0.5"/>
<text text-anchor="middle" x="933.548" y="-7.5" font-family="Helvetica,sans-Serif" font-size="10.00">carl/util/hash.h</text>
</g>
<!-- Node15&#45;&gt;Node17 -->
<g id="edge17" class="edge"><title>Node15&#45;&gt;Node17</title>
<path fill="none" stroke="midnightblue" d="M1013.28,-56.324C998.327,-47.8215 975.294,-34.7288 957.822,-24.7975"/>
<polygon fill="midnightblue" stroke="midnightblue" points="959.197,-21.5534 948.774,-19.6545 955.738,-27.639 959.197,-21.5534"/>
</g>
<!-- Node18 -->
<g id="node18" class="node"><title>Node18</title>
<polygon fill="white" stroke="#bfbfbf" points="1058.55,-0.5 1058.55,-19.5 1162.55,-19.5 1162.55,-0.5 1058.55,-0.5"/>
<text text-anchor="middle" x="1110.55" y="-7.5" font-family="Helvetica,sans-Serif" font-size="10.00">eigen3/Eigen/Core</text>
</g>
<!-- Node15&#45;&gt;Node18 -->
<g id="edge18" class="edge"><title>Node15&#45;&gt;Node18</title>
<path fill="none" stroke="midnightblue" d="M1041.72,-56.324C1054.4,-47.979 1073.78,-35.2122 1088.75,-25.3524"/>
<polygon fill="midnightblue" stroke="midnightblue" points="1090.98,-28.0776 1097.41,-19.6545 1087.13,-22.2313 1090.98,-28.0776"/>
</g>
<!-- Node15&#45;&gt;Node19 -->
<g id="edge19" class="edge"><title>Node15&#45;&gt;Node19</title>
<path fill="none" stroke="midnightblue" d="M998.03,-57.8385C994.837,-57.1774 991.632,-56.5504 988.548,-56 894.319,-39.1797 784.322,-25.6975 715.791,-18.0203"/>
<polygon fill="midnightblue" stroke="midnightblue" points="715.898,-14.5107 705.573,-16.8841 715.125,-21.4678 715.898,-14.5107"/>
</g>
<!-- Node15&#45;&gt;Node20 -->
<g id="edge20" class="edge"><title>Node15&#45;&gt;Node20</title>
<path fill="none" stroke="midnightblue" d="M1026.73,-56.083C1025.27,-48.9272 1023.18,-38.6353 1021.36,-29.6911"/>
<polygon fill="midnightblue" stroke="midnightblue" points="1024.76,-28.8512 1019.33,-19.7511 1017.9,-30.2485 1024.76,-28.8512"/>
</g>
<!-- Node15&#45;&gt;Node21 -->
<g id="edge21" class="edge"><title>Node15&#45;&gt;Node21</title>
<path fill="none" stroke="midnightblue" d="M1056.88,-56.4574C1083.89,-48.2313 1125.91,-35.2218 1170.82,-20.1523"/>
<polygon fill="midnightblue" stroke="midnightblue" points="1172.09,-23.419 1180.44,-16.9063 1169.85,-16.7862 1172.09,-23.419"/>
</g>
<!-- Node23&#45;&gt;Node4 -->
<g id="edge29" class="edge"><title>Node23&#45;&gt;Node4</title>
<path fill="none" stroke="midnightblue" d="M741.845,-112.435C782.953,-104.037 847.403,-90.6769 912.849,-76.1115"/>
<polygon fill="midnightblue" stroke="midnightblue" points="913.936,-79.455 922.932,-73.8593 912.41,-72.6233 913.936,-79.455"/>
</g>
<!-- Node24 -->
<g id="node24" class="node"><title>Node24</title>
<polygon fill="white" stroke="#bfbfbf" points="390.548,-56.5 390.548,-75.5 544.548,-75.5 544.548,-56.5 390.548,-56.5"/>
<text text-anchor="middle" x="467.548" y="-63.5" font-family="Helvetica,sans-Serif" font-size="10.00">carl/io/streamingOperators.h</text>
</g>
<!-- Node23&#45;&gt;Node24 -->
<g id="edge30" class="edge"><title>Node23&#45;&gt;Node24</title>
<path fill="none" stroke="midnightblue" d="M662.787,-112.444C622.485,-103.063 557.739,-87.9926 513.964,-77.8036"/>
<polygon fill="midnightblue" stroke="midnightblue" points="514.671,-74.3746 504.137,-75.5164 513.084,-81.1924 514.671,-74.3746"/>
</g>
<!-- Node25 -->
<g id="node25" class="node"><title>Node25</title>
<polygon fill="white" stroke="#bfbfbf" points="563.048,-56.5 563.048,-75.5 622.048,-75.5 622.048,-56.5 563.048,-56.5"/>
<text text-anchor="middle" x="592.548" y="-63.5" font-family="Helvetica,sans-Serif" font-size="10.00">iostream</text>
</g>
<!-- Node23&#45;&gt;Node25 -->
<g id="edge31" class="edge"><title>Node23&#45;&gt;Node25</title>
<path fill="none" stroke="midnightblue" d="M682.357,-112.324C665.197,-103.664 638.603,-90.2424 618.801,-80.249"/>
<polygon fill="midnightblue" stroke="midnightblue" points="620.202,-77.0354 609.697,-75.6545 617.048,-83.2847 620.202,-77.0354"/>
</g>
<!-- Node26 -->
<g id="node26" class="node"><title>Node26</title>
<polygon fill="white" stroke="#bfbfbf" points="706.548,-56.5 706.548,-75.5 762.548,-75.5 762.548,-56.5 706.548,-56.5"/>
<text text-anchor="middle" x="734.548" y="-63.5" font-family="Helvetica,sans-Serif" font-size="10.00">sstream</text>
</g>
<!-- Node23&#45;&gt;Node26 -->
<g id="edge32" class="edge"><title>Node23&#45;&gt;Node26</title>
<path fill="none" stroke="midnightblue" d="M705.328,-112.083C710.221,-104.534 717.376,-93.4948 723.381,-84.2298"/>
<polygon fill="midnightblue" stroke="midnightblue" points="726.374,-86.0463 728.876,-75.7511 720.5,-82.239 726.374,-86.0463"/>
</g>
<!-- Node27 -->
<g id="node27" class="node"><title>Node27</title>
<polygon fill="white" stroke="#bfbfbf" points="640.548,-56.5 640.548,-75.5 688.548,-75.5 688.548,-56.5 640.548,-56.5"/>
<text text-anchor="middle" x="664.548" y="-63.5" font-family="Helvetica,sans-Serif" font-size="10.00">thread</text>
</g>
<!-- Node23&#45;&gt;Node27 -->
<g id="edge33" class="edge"><title>Node23&#45;&gt;Node27</title>
<path fill="none" stroke="midnightblue" d="M693.769,-112.083C688.876,-104.534 681.721,-93.4948 675.716,-84.2298"/>
<polygon fill="midnightblue" stroke="midnightblue" points="678.596,-82.239 670.22,-75.7511 672.722,-86.0463 678.596,-82.239"/>
</g>
<!-- Node28 -->
<g id="node28" class="node"><title>Node28</title>
<polygon fill="white" stroke="#bfbfbf" points="780.048,-56.5 780.048,-75.5 905.048,-75.5 905.048,-56.5 780.048,-56.5"/>
<text text-anchor="middle" x="842.548" y="-63.5" font-family="Helvetica,sans-Serif" font-size="10.00">carl/core/carlLogging.h</text>
</g>
<!-- Node23&#45;&gt;Node28 -->
<g id="edge34" class="edge"><title>Node23&#45;&gt;Node28</title>
<path fill="none" stroke="midnightblue" d="M722.207,-112.444C745.95,-103.478 783.457,-89.314 810.287,-79.1827"/>
<polygon fill="midnightblue" stroke="midnightblue" points="811.877,-82.3235 819.996,-75.5164 809.404,-75.7749 811.877,-82.3235"/>
</g>
<!-- Node29 -->
<g id="node29" class="node"><title>Node29</title>
<polygon fill="white" stroke="#bfbfbf" points="217.048,-56.5 217.048,-75.5 372.048,-75.5 372.048,-56.5 217.048,-56.5"/>
<text text-anchor="middle" x="294.548" y="-63.5" font-family="Helvetica,sans-Serif" font-size="10.00">carl/core/carlLoggingHelper.h</text>
</g>
<!-- Node23&#45;&gt;Node29 -->
<g id="edge35" class="edge"><title>Node23&#45;&gt;Node29</title>
<path fill="none" stroke="midnightblue" d="M642.808,-113.435C571.242,-103.892 448.005,-87.4609 368.954,-76.9207"/>
<polygon fill="midnightblue" stroke="midnightblue" points="368.957,-73.3902 358.582,-75.5378 368.031,-80.3288 368.957,-73.3902"/>
</g>
<!-- Node35&#45;&gt;Node15 -->
<g id="edge46" class="edge"><title>Node35&#45;&gt;Node15</title>
<path fill="none" stroke="midnightblue" d="M1031.27,-246.35C1026.61,-236.459 1020.99,-222.783 1018.55,-210 1010.38,-167.216 1013.8,-155.295 1018.55,-112 1019.52,-103.14 1021.54,-93.4716 1023.51,-85.3755"/>
<polygon fill="midnightblue" stroke="midnightblue" points="1026.94,-86.0919 1026.07,-75.5332 1020.17,-84.333 1026.94,-86.0919"/>
</g>
<!-- Node36&#45;&gt;Node3 -->
<g id="edge50" class="edge"><title>Node36&#45;&gt;Node3</title>
<path fill="none" stroke="midnightblue" d="M1248.73,-251.996C1276.42,-239.716 1327.81,-216.93 1359.98,-202.666"/>
<polygon fill="midnightblue" stroke="midnightblue" points="1361.58,-205.787 1369.3,-198.534 1358.74,-199.388 1361.58,-205.787"/>
</g>
<!-- Node36&#45;&gt;Node11 -->
<g id="edge52" class="edge"><title>Node36&#45;&gt;Node11</title>
<path fill="none" stroke="midnightblue" d="M1237.44,-251.672C1245.87,-241.95 1259.27,-225.617 1268.55,-210 1293.76,-167.59 1314.94,-113.27 1325.1,-85.3636"/>
<polygon fill="midnightblue" stroke="midnightblue" points="1328.47,-86.331 1328.55,-75.7365 1321.88,-83.9723 1328.47,-86.331"/>
</g>
<!-- Node36&#45;&gt;Node13 -->
<g id="edge48" class="edge"><title>Node36&#45;&gt;Node13</title>
<path fill="none" stroke="midnightblue" d="M1204.37,-255.983C1139.56,-244.357 966.262,-213.269 882.771,-198.292"/>
<polygon fill="midnightblue" stroke="midnightblue" points="883.268,-194.825 872.807,-196.505 882.032,-201.715 883.268,-194.825"/>
</g>
<!-- Node36&#45;&gt;Node15 -->
<g id="edge49" class="edge"><title>Node36&#45;&gt;Node15</title>
<path fill="none" stroke="midnightblue" d="M1211.2,-251.915C1175.59,-234.357 1096.71,-190.966 1052.55,-132 1042.19,-118.172 1035.9,-99.4037 1032.38,-85.5889"/>
<polygon fill="midnightblue" stroke="midnightblue" points="1035.77,-84.7217 1030.12,-75.7609 1028.95,-86.2911 1035.77,-84.7217"/>
</g>
<!-- Node36&#45;&gt;Node21 -->
<g id="edge51" class="edge"><title>Node36&#45;&gt;Node21</title>
<path fill="none" stroke="midnightblue" d="M1220.22,-251.893C1210.9,-242.603 1197.18,-226.858 1191.55,-210 1185.63,-192.296 1185.19,-185.552 1191.55,-168 1198.64,-148.417 1208.92,-148.561 1221.55,-132 1239.94,-107.883 1251.46,-104.938 1260.55,-76 1263.21,-67.5191 1264.65,-63.8885 1260.55,-56 1252.41,-40.3295 1236.03,-28.9701 1221.88,-21.5843"/>
<polygon fill="midnightblue" stroke="midnightblue" points="1223.1,-18.2858 1212.57,-17.1017 1220.06,-24.593 1223.1,-18.2858"/>
</g>
<!-- Node37 -->
<g id="node37" class="node"><title>Node37</title>
<polygon fill="white" stroke="#bfbfbf" points="1200.05,-179.5 1200.05,-198.5 1259.05,-198.5 1259.05,-179.5 1200.05,-179.5"/>
<text text-anchor="middle" x="1229.55" y="-186.5" font-family="Helvetica,sans-Serif" font-size="10.00">Point.tpp</text>
</g>
<!-- Node36&#45;&gt;Node37 -->
<g id="edge53" class="edge"><title>Node36&#45;&gt;Node37</title>
<path fill="none" stroke="midnightblue" d="M1229.55,-251.855C1229.55,-241.179 1229.55,-222.717 1229.55,-208.734"/>
<polygon fill="midnightblue" stroke="midnightblue" points="1233.05,-208.715 1229.55,-198.715 1226.05,-208.715 1233.05,-208.715"/>
</g>
</g>
</svg>
