<?xml version="1.0" encoding="UTF-8" standalone="no"?>
<!DOCTYPE svg PUBLIC "-//W3C//DTD SVG 1.1//EN"
 "http://www.w3.org/Graphics/SVG/1.1/DTD/svg11.dtd">
<!-- Generated by graphviz version 2.38.0 (20140413.2041)
 -->
<!-- Title: /home/travis/build/hypro/hypro/src/hypro/datastructures/reachability/timing/HierarchicalIntervalVector.h Pages: 1 -->
<svg width="2324pt" height="374pt"
 viewBox="0.00 0.00 2324.00 374.00" xmlns="http://www.w3.org/2000/svg" xmlns:xlink="http://www.w3.org/1999/xlink">
<g id="graph0" class="graph" transform="scale(1 1) rotate(0) translate(4 370)">
<title>/home/travis/build/hypro/hypro/src/hypro/datastructures/reachability/timing/HierarchicalIntervalVector.h</title>
<polygon fill="white" stroke="none" points="-4,4 -4,-370 2320,-370 2320,4 -4,4"/>
<!-- Node1 -->
<g id="node1" class="node"><title>Node1</title>
<polygon fill="#bfbfbf" stroke="black" points="1713,-313.5 1713,-365.5 1896,-365.5 1896,-313.5 1713,-313.5"/>
<text text-anchor="start" x="1721" y="-353.5" font-family="Helvetica,sans-Serif" font-size="10.00">/home/travis/build</text>
<text text-anchor="start" x="1721" y="-342.5" font-family="Helvetica,sans-Serif" font-size="10.00">/hypro/hypro/src/hypro</text>
<text text-anchor="start" x="1721" y="-331.5" font-family="Helvetica,sans-Serif" font-size="10.00">/datastructures/reachability</text>
<text text-anchor="middle" x="1804.5" y="-320.5" font-family="Helvetica,sans-Serif" font-size="10.00">/timing/HierarchicalIntervalVector.h</text>
</g>
<!-- Node2 -->
<g id="node2" class="node"><title>Node2</title>
<g id="a_node2"><a xlink:href="types_8h.html" target="_top" xlink:title="../../../types.h">
<polygon fill="white" stroke="black" points="1390,-257.5 1390,-276.5 1469,-276.5 1469,-257.5 1390,-257.5"/>
<text text-anchor="middle" x="1429.5" y="-264.5" font-family="Helvetica,sans-Serif" font-size="10.00">../../../types.h</text>
</a>
</g>
</g>
<!-- Node1&#45;&gt;Node2 -->
<g id="edge1" class="edge"><title>Node1&#45;&gt;Node2</title>
<path fill="none" stroke="midnightblue" d="M1712.76,-321.254C1639.18,-307.42 1538.69,-288.528 1479.3,-277.362"/>
<polygon fill="midnightblue" stroke="midnightblue" points="1479.89,-273.912 1469.41,-275.504 1478.59,-280.791 1479.89,-273.912"/>
</g>
<!-- Node12 -->
<g id="node12" class="node"><title>Node12</title>
<g id="a_node12"><a xlink:href="util_2convenienceOperators_8h.html" target="_top" xlink:title="util/convenienceOperators.h">
<polygon fill="white" stroke="black" points="1543,-56.5 1543,-75.5 1694,-75.5 1694,-56.5 1543,-56.5"/>
<text text-anchor="middle" x="1618.5" y="-63.5" font-family="Helvetica,sans-Serif" font-size="10.00">util/convenienceOperators.h</text>
</a>
</g>
</g>
<!-- Node1&#45;&gt;Node12 -->
<g id="edge35" class="edge"><title>Node1&#45;&gt;Node12</title>
<path fill="none" stroke="midnightblue" d="M1751.51,-313.463C1735.86,-303.914 1719.89,-291.714 1708.5,-277 1661.27,-215.98 1691.19,-179.88 1654.5,-112 1648.92,-101.679 1640.9,-91.371 1633.84,-83.2301"/>
<polygon fill="midnightblue" stroke="midnightblue" points="1636.28,-80.7041 1626.98,-75.6209 1631.08,-85.3916 1636.28,-80.7041"/>
</g>
<!-- Node14 -->
<g id="node14" class="node"><title>Node14</title>
<polygon fill="white" stroke="#bfbfbf" points="1665.5,-0.5 1665.5,-19.5 1707.5,-19.5 1707.5,-0.5 1665.5,-0.5"/>
<text text-anchor="middle" x="1686.5" y="-7.5" font-family="Helvetica,sans-Serif" font-size="10.00">utility</text>
</g>
<!-- Node1&#45;&gt;Node14 -->
<g id="edge39" class="edge"><title>Node1&#45;&gt;Node14</title>
<path fill="none" stroke="midnightblue" d="M1776.74,-313.076C1752.95,-288.397 1722.5,-248.586 1722.5,-206.5 1722.5,-206.5 1722.5,-206.5 1722.5,-132 1722.5,-93.9877 1705.98,-51.9432 1695.32,-28.7774"/>
<polygon fill="midnightblue" stroke="midnightblue" points="1698.38,-27.0635 1690.91,-19.5444 1692.06,-30.0771 1698.38,-27.0635"/>
</g>
<!-- Node15 -->
<g id="node15" class="node"><title>Node15</title>
<polygon fill="white" stroke="#bfbfbf" points="1731,-0.5 1731,-19.5 1778,-19.5 1778,-0.5 1731,-0.5"/>
<text text-anchor="middle" x="1754.5" y="-7.5" font-family="Helvetica,sans-Serif" font-size="10.00">vector</text>
</g>
<!-- Node1&#45;&gt;Node15 -->
<g id="edge40" class="edge"><title>Node1&#45;&gt;Node15</title>
<path fill="none" stroke="midnightblue" d="M1790.58,-313.04C1777.69,-287.05 1760.5,-245.15 1760.5,-206.5 1760.5,-206.5 1760.5,-206.5 1760.5,-132 1760.5,-95.6692 1757.77,-53.2776 1755.99,-29.5448"/>
<polygon fill="midnightblue" stroke="midnightblue" points="1759.48,-29.2005 1755.21,-19.5014 1752.5,-29.7422 1759.48,-29.2005"/>
</g>
<!-- Node16 -->
<g id="node16" class="node"><title>Node16</title>
<g id="a_node16"><a xlink:href="Logger_8h.html" target="_top" xlink:title="util/logging/Logger.h">
<polygon fill="white" stroke="black" points="400,-56.5 400,-75.5 513,-75.5 513,-56.5 400,-56.5"/>
<text text-anchor="middle" x="456.5" y="-63.5" font-family="Helvetica,sans-Serif" font-size="10.00">util/logging/Logger.h</text>
</a>
</g>
</g>
<!-- Node1&#45;&gt;Node16 -->
<g id="edge36" class="edge"><title>Node1&#45;&gt;Node16</title>
<path fill="none" stroke="midnightblue" d="M1712.9,-338.927C1442.5,-338.233 655.464,-321.569 475.5,-154 456.875,-136.658 454.346,-105.647 454.914,-85.7161"/>
<polygon fill="midnightblue" stroke="midnightblue" points="458.411,-85.8775 455.487,-75.6941 451.422,-85.478 458.411,-85.8775"/>
</g>
<!-- Node28 -->
<g id="node28" class="node"><title>Node28</title>
<polygon fill="white" stroke="#bfbfbf" points="1789,-257.5 1789,-276.5 1908,-276.5 1908,-257.5 1789,-257.5"/>
<text text-anchor="middle" x="1848.5" y="-264.5" font-family="Helvetica,sans-Serif" font-size="10.00">carl/interval/Interval.h</text>
</g>
<!-- Node1&#45;&gt;Node28 -->
<g id="edge37" class="edge"><title>Node1&#45;&gt;Node28</title>
<path fill="none" stroke="midnightblue" d="M1820.14,-313.446C1825.95,-304.129 1832.42,-293.772 1837.7,-285.302"/>
<polygon fill="midnightblue" stroke="midnightblue" points="1840.75,-287.032 1843.07,-276.695 1834.81,-283.326 1840.75,-287.032"/>
</g>
<!-- Node29 -->
<g id="node29" class="node"><title>Node29</title>
<polygon fill="white" stroke="#bfbfbf" points="1926.5,-257.5 1926.5,-276.5 2060.5,-276.5 2060.5,-257.5 1926.5,-257.5"/>
<text text-anchor="middle" x="1993.5" y="-264.5" font-family="Helvetica,sans-Serif" font-size="10.00">carl/interval/set_theory.h</text>
</g>
<!-- Node1&#45;&gt;Node29 -->
<g id="edge38" class="edge"><title>Node1&#45;&gt;Node29</title>
<path fill="none" stroke="midnightblue" d="M1871.67,-313.446C1902.07,-302.106 1936.6,-289.226 1961.11,-280.081"/>
<polygon fill="midnightblue" stroke="midnightblue" points="1962.49,-283.301 1970.64,-276.527 1960.05,-276.743 1962.49,-283.301"/>
</g>
<!-- Node30 -->
<g id="node30" class="node"><title>Node30</title>
<g id="a_node30"><a xlink:href="HIV__util_8h.html" target="_top" xlink:title="HIV_util.h">
<polygon fill="white" stroke="black" points="2078.5,-257.5 2078.5,-276.5 2140.5,-276.5 2140.5,-257.5 2078.5,-257.5"/>
<text text-anchor="middle" x="2109.5" y="-264.5" font-family="Helvetica,sans-Serif" font-size="10.00">HIV_util.h</text>
</a>
</g>
</g>
<!-- Node1&#45;&gt;Node30 -->
<g id="edge41" class="edge"><title>Node1&#45;&gt;Node30</title>
<path fill="none" stroke="midnightblue" d="M1896.33,-315.805C1953.49,-302.39 2024.19,-286.183 2068.12,-276.504"/>
<polygon fill="midnightblue" stroke="midnightblue" points="2069.14,-279.866 2078.15,-274.307 2067.64,-273.028 2069.14,-279.866"/>
</g>
<!-- Node31 -->
<g id="node31" class="node"><title>Node31</title>
<polygon fill="white" stroke="#bfbfbf" points="2159,-257.5 2159,-276.5 2316,-276.5 2316,-257.5 2159,-257.5"/>
<text text-anchor="middle" x="2237.5" y="-264.5" font-family="Helvetica,sans-Serif" font-size="10.00">HierarchicalIntervalVector.tpp</text>
</g>
<!-- Node1&#45;&gt;Node31 -->
<g id="edge43" class="edge"><title>Node1&#45;&gt;Node31</title>
<path fill="none" stroke="midnightblue" d="M1896.06,-323.592C1979.97,-309.93 2101.95,-290.07 2175.13,-278.155"/>
<polygon fill="midnightblue" stroke="midnightblue" points="2175.82,-281.59 2185.12,-276.528 2174.69,-274.681 2175.82,-281.59"/>
</g>
<!-- Node3 -->
<g id="node3" class="node"><title>Node3</title>
<polygon fill="white" stroke="#bfbfbf" points="1184.5,-123.5 1184.5,-142.5 1318.5,-142.5 1318.5,-123.5 1184.5,-123.5"/>
<text text-anchor="middle" x="1251.5" y="-130.5" font-family="Helvetica,sans-Serif" font-size="10.00">carl/numbers/numbers.h</text>
</g>
<!-- Node2&#45;&gt;Node3 -->
<g id="edge2" class="edge"><title>Node2&#45;&gt;Node3</title>
<path fill="none" stroke="midnightblue" d="M1417.82,-257.339C1387.89,-235.144 1308.19,-176.041 1271.05,-148.501"/>
<polygon fill="midnightblue" stroke="midnightblue" points="1273.11,-145.666 1262.99,-142.521 1268.94,-151.289 1273.11,-145.666"/>
</g>
<!-- Node4 -->
<g id="node4" class="node"><title>Node4</title>
<polygon fill="white" stroke="#bfbfbf" points="1532.5,-196 1532.5,-215 1618.5,-215 1618.5,-196 1532.5,-196"/>
<text text-anchor="middle" x="1575.5" y="-203" font-family="Helvetica,sans-Serif" font-size="10.00">carl/util/hash.h</text>
</g>
<!-- Node2&#45;&gt;Node4 -->
<g id="edge3" class="edge"><title>Node2&#45;&gt;Node4</title>
<path fill="none" stroke="midnightblue" d="M1450.42,-257.475C1475.25,-247.357 1516.84,-230.405 1545.19,-218.851"/>
<polygon fill="midnightblue" stroke="midnightblue" points="1546.68,-222.024 1554.62,-215.009 1544.04,-215.542 1546.68,-222.024"/>
</g>
<!-- Node5 -->
<g id="node5" class="node"><title>Node5</title>
<polygon fill="white" stroke="#bfbfbf" points="947.5,-196 947.5,-215 1051.5,-215 1051.5,-196 947.5,-196"/>
<text text-anchor="middle" x="999.5" y="-203" font-family="Helvetica,sans-Serif" font-size="10.00">eigen3/Eigen/Core</text>
</g>
<!-- Node2&#45;&gt;Node5 -->
<g id="edge4" class="edge"><title>Node2&#45;&gt;Node5</title>
<path fill="none" stroke="midnightblue" d="M1389.96,-262.644C1322.19,-256.565 1179.61,-242.35 1060.5,-221 1054.6,-219.942 1048.41,-218.668 1042.33,-217.319"/>
<polygon fill="midnightblue" stroke="midnightblue" points="1042.81,-213.838 1032.28,-215.005 1041.24,-220.66 1042.81,-213.838"/>
</g>
<!-- Node6 -->
<g id="node6" class="node"><title>Node6</title>
<polygon fill="white" stroke="#bfbfbf" points="1336.5,-123.5 1336.5,-142.5 1448.5,-142.5 1448.5,-123.5 1336.5,-123.5"/>
<text text-anchor="middle" x="1392.5" y="-130.5" font-family="Helvetica,sans-Serif" font-size="10.00">eigen3/Eigen/Dense</text>
</g>
<!-- Node2&#45;&gt;Node6 -->
<g id="edge5" class="edge"><title>Node2&#45;&gt;Node6</title>
<path fill="none" stroke="midnightblue" d="M1427.07,-257.339C1421.11,-236.08 1405.66,-180.963 1397.59,-152.151"/>
<polygon fill="midnightblue" stroke="midnightblue" points="1400.96,-151.205 1394.89,-142.521 1394.22,-153.095 1400.96,-151.205"/>
</g>
<!-- Node7 -->
<g id="node7" class="node"><title>Node7</title>
<polygon fill="white" stroke="#bfbfbf" points="1453.5,-0.5 1453.5,-19.5 1499.5,-19.5 1499.5,-0.5 1453.5,-0.5"/>
<text text-anchor="middle" x="1476.5" y="-7.5" font-family="Helvetica,sans-Serif" font-size="10.00">iosfwd</text>
</g>
<!-- Node2&#45;&gt;Node7 -->
<g id="edge6" class="edge"><title>Node2&#45;&gt;Node7</title>
<path fill="none" stroke="midnightblue" d="M1432.02,-257.361C1437.38,-238.663 1450.06,-192.982 1457.5,-154 1465.92,-109.872 1471.87,-57.3768 1474.68,-29.9047"/>
<polygon fill="midnightblue" stroke="midnightblue" points="1478.18,-30.0576 1475.68,-19.7603 1471.21,-29.3649 1478.18,-30.0576"/>
</g>
<!-- Node8 -->
<g id="node8" class="node"><title>Node8</title>
<polygon fill="white" stroke="#bfbfbf" points="1533.5,-0.5 1533.5,-19.5 1565.5,-19.5 1565.5,-0.5 1533.5,-0.5"/>
<text text-anchor="middle" x="1549.5" y="-7.5" font-family="Helvetica,sans-Serif" font-size="10.00">set</text>
</g>
<!-- Node2&#45;&gt;Node8 -->
<g id="edge7" class="edge"><title>Node2&#45;&gt;Node8</title>
<path fill="none" stroke="midnightblue" d="M1436.23,-257.375C1442.91,-248.558 1453.2,-234.306 1460.5,-221 1497.79,-153.076 1530.07,-66.2917 1543.22,-29.1677"/>
<polygon fill="midnightblue" stroke="midnightblue" points="1546.53,-30.2863 1546.54,-19.6915 1539.93,-27.9723 1546.53,-30.2863"/>
</g>
<!-- Node9 -->
<g id="node9" class="node"><title>Node9</title>
<g id="a_node9"><a xlink:href="adaptions__eigen_8h.html" target="_top" xlink:title="util/adaptions_eigen\l/adaptions_eigen.h">
<polygon fill="white" stroke="black" points="1070,-190.5 1070,-220.5 1183,-220.5 1183,-190.5 1070,-190.5"/>
<text text-anchor="start" x="1078" y="-208.5" font-family="Helvetica,sans-Serif" font-size="10.00">util/adaptions_eigen</text>
<text text-anchor="middle" x="1126.5" y="-197.5" font-family="Helvetica,sans-Serif" font-size="10.00">/adaptions_eigen.h</text>
</a>
</g>
</g>
<!-- Node2&#45;&gt;Node9 -->
<g id="edge8" class="edge"><title>Node2&#45;&gt;Node9</title>
<path fill="none" stroke="midnightblue" d="M1389.94,-259.116C1339.91,-249.771 1253.27,-232.846 1193.03,-220.713"/>
<polygon fill="midnightblue" stroke="midnightblue" points="1193.72,-217.282 1183.22,-218.734 1192.33,-224.143 1193.72,-217.282"/>
</g>
<!-- Node9&#45;&gt;Node2 -->
<g id="edge26" class="edge"><title>Node9&#45;&gt;Node2</title>
<path fill="none" stroke="midnightblue" d="M1183.16,-216.602C1240.18,-227.403 1327.04,-244.454 1380.99,-255.432"/>
<polygon fill="midnightblue" stroke="midnightblue" points="1380.49,-258.903 1390.99,-257.475 1381.89,-252.044 1380.49,-258.903"/>
</g>
<!-- Node9&#45;&gt;Node3 -->
<g id="edge28" class="edge"><title>Node9&#45;&gt;Node3</title>
<path fill="none" stroke="midnightblue" d="M1151.5,-190.403C1173.59,-177.942 1205.61,-159.884 1227.42,-147.581"/>
<polygon fill="midnightblue" stroke="midnightblue" points="1229.38,-150.495 1236.37,-142.534 1225.94,-144.398 1229.38,-150.495"/>
</g>
<!-- Node9&#45;&gt;Node6 -->
<g id="edge29" class="edge"><title>Node9&#45;&gt;Node6</title>
<path fill="none" stroke="midnightblue" d="M1183.02,-191.136C1223.42,-181.382 1278.98,-167.549 1327.5,-154 1336.77,-151.411 1346.73,-148.443 1355.99,-145.6"/>
<polygon fill="midnightblue" stroke="midnightblue" points="1357.2,-148.892 1365.71,-142.588 1355.12,-142.205 1357.2,-148.892"/>
</g>
<!-- Node9&#45;&gt;Node7 -->
<g id="edge32" class="edge"><title>Node9&#45;&gt;Node7</title>
<path fill="none" stroke="midnightblue" d="M1130.3,-190.479C1136.47,-170.298 1150.56,-133.166 1175.5,-112 1255.59,-44.0371 1383.22,-21.2906 1443.25,-14.1023"/>
<polygon fill="midnightblue" stroke="midnightblue" points="1443.76,-17.567 1453.3,-12.9693 1442.97,-10.611 1443.76,-17.567"/>
</g>
<!-- Node10 -->
<g id="node10" class="node"><title>Node10</title>
<g id="a_node10"><a xlink:href="config_8h.html" target="_top" xlink:title="../../config.h">
<polygon fill="white" stroke="black" points="484.5,-123.5 484.5,-142.5 556.5,-142.5 556.5,-123.5 484.5,-123.5"/>
<text text-anchor="middle" x="520.5" y="-130.5" font-family="Helvetica,sans-Serif" font-size="10.00">../../config.h</text>
</a>
</g>
</g>
<!-- Node9&#45;&gt;Node10 -->
<g id="edge9" class="edge"><title>Node9&#45;&gt;Node10</title>
<path fill="none" stroke="midnightblue" d="M1069.71,-191.481C1066.6,-190.938 1063.52,-190.439 1060.5,-190 842.216,-158.252 779.472,-207.591 565.5,-154 558.86,-152.337 551.972,-149.758 545.641,-146.999"/>
<polygon fill="midnightblue" stroke="midnightblue" points="546.806,-143.68 536.265,-142.62 543.844,-150.023 546.806,-143.68"/>
</g>
<!-- Node23 -->
<g id="node23" class="node"><title>Node23</title>
<g id="a_node23"><a xlink:href="transformation_8h.html" target="_top" xlink:title="transformation.h">
<polygon fill="white" stroke="black" points="793,-123.5 793,-142.5 890,-142.5 890,-123.5 793,-123.5"/>
<text text-anchor="middle" x="841.5" y="-130.5" font-family="Helvetica,sans-Serif" font-size="10.00">transformation.h</text>
</a>
</g>
</g>
<!-- Node9&#45;&gt;Node23 -->
<g id="edge27" class="edge"><title>Node9&#45;&gt;Node23</title>
<path fill="none" stroke="midnightblue" d="M1069.99,-192.011C1004.13,-177.441 903.664,-155.177 899.5,-154 891.193,-151.652 882.332,-148.786 874.102,-145.965"/>
<polygon fill="midnightblue" stroke="midnightblue" points="875.048,-142.589 864.454,-142.585 872.734,-149.195 875.048,-142.589"/>
</g>
<!-- Node24 -->
<g id="node24" class="node"><title>Node24</title>
<polygon fill="white" stroke="#bfbfbf" points="908.5,-123.5 908.5,-142.5 1046.5,-142.5 1046.5,-123.5 908.5,-123.5"/>
<text text-anchor="middle" x="977.5" y="-130.5" font-family="Helvetica,sans-Serif" font-size="10.00">eigen3/Eigen/Eigenvalues</text>
</g>
<!-- Node9&#45;&gt;Node24 -->
<g id="edge30" class="edge"><title>Node9&#45;&gt;Node24</title>
<path fill="none" stroke="midnightblue" d="M1096.71,-190.403C1069.9,-177.718 1030.83,-159.234 1004.82,-146.924"/>
<polygon fill="midnightblue" stroke="midnightblue" points="1006.07,-143.647 995.535,-142.534 1003.08,-149.974 1006.07,-143.647"/>
</g>
<!-- Node25 -->
<g id="node25" class="node"><title>Node25</title>
<polygon fill="white" stroke="#bfbfbf" points="1065,-123.5 1065,-142.5 1128,-142.5 1128,-123.5 1065,-123.5"/>
<text text-anchor="middle" x="1096.5" y="-130.5" font-family="Helvetica,sans-Serif" font-size="10.00">functional</text>
</g>
<!-- Node9&#45;&gt;Node25 -->
<g id="edge31" class="edge"><title>Node9&#45;&gt;Node25</title>
<path fill="none" stroke="midnightblue" d="M1120.43,-190.233C1115.77,-179.279 1109.3,-164.075 1104.26,-152.238"/>
<polygon fill="midnightblue" stroke="midnightblue" points="1107.42,-150.724 1100.28,-142.893 1100.98,-153.465 1107.42,-150.724"/>
</g>
<!-- Node26 -->
<g id="node26" class="node"><title>Node26</title>
<polygon fill="white" stroke="#bfbfbf" points="574.5,-123.5 574.5,-142.5 616.5,-142.5 616.5,-123.5 574.5,-123.5"/>
<text text-anchor="middle" x="595.5" y="-130.5" font-family="Helvetica,sans-Serif" font-size="10.00">limits</text>
</g>
<!-- Node9&#45;&gt;Node26 -->
<g id="edge33" class="edge"><title>Node9&#45;&gt;Node26</title>
<path fill="none" stroke="midnightblue" d="M1069.71,-191.518C1066.6,-190.965 1063.52,-190.454 1060.5,-190 868.667,-161.122 808.692,-217.832 625.5,-154 621.556,-152.626 617.63,-150.609 613.981,-148.379"/>
<polygon fill="midnightblue" stroke="midnightblue" points="615.85,-145.417 605.626,-142.637 611.885,-151.186 615.85,-145.417"/>
</g>
<!-- Node27 -->
<g id="node27" class="node"><title>Node27</title>
<polygon fill="white" stroke="#bfbfbf" points="634.5,-112.5 634.5,-153.5 774.5,-153.5 774.5,-112.5 634.5,-112.5"/>
<text text-anchor="start" x="642.5" y="-141.5" font-family="Helvetica,sans-Serif" font-size="10.00">eigen3/unsupported</text>
<text text-anchor="start" x="642.5" y="-130.5" font-family="Helvetica,sans-Serif" font-size="10.00">/Eigen/src/MatrixFunctions</text>
<text text-anchor="middle" x="704.5" y="-119.5" font-family="Helvetica,sans-Serif" font-size="10.00">/MatrixExponential.h</text>
</g>
<!-- Node9&#45;&gt;Node27 -->
<g id="edge34" class="edge"><title>Node9&#45;&gt;Node27</title>
<path fill="none" stroke="midnightblue" d="M1069.68,-191.688C1066.58,-191.092 1063.5,-190.524 1060.5,-190 941.426,-169.223 907.235,-176.842 784.762,-154.124"/>
<polygon fill="midnightblue" stroke="midnightblue" points="785.09,-150.624 774.615,-152.21 783.793,-157.503 785.09,-150.624"/>
</g>
<!-- Node11 -->
<g id="node11" class="node"><title>Node11</title>
<g id="a_node11"><a xlink:href="flags_8h.html" target="_top" xlink:title="flags.h">
<polygon fill="white" stroke="black" points="707.5,-0.5 707.5,-19.5 755.5,-19.5 755.5,-0.5 707.5,-0.5"/>
<text text-anchor="middle" x="731.5" y="-7.5" font-family="Helvetica,sans-Serif" font-size="10.00">flags.h</text>
</a>
</g>
</g>
<!-- Node10&#45;&gt;Node11 -->
<g id="edge10" class="edge"><title>Node10&#45;&gt;Node11</title>
<path fill="none" stroke="midnightblue" d="M535.337,-123.492C571.343,-102.844 663.61,-49.932 707.547,-24.736"/>
<polygon fill="midnightblue" stroke="midnightblue" points="709.463,-27.672 716.397,-19.661 705.981,-21.5996 709.463,-27.672"/>
</g>
<!-- Node10&#45;&gt;Node12 -->
<g id="edge11" class="edge"><title>Node10&#45;&gt;Node12</title>
<path fill="none" stroke="midnightblue" d="M535.822,-123.463C544.299,-119.19 555.179,-114.422 565.5,-112 748.42,-69.0804 1315.51,-66.0625 1532.68,-66.5477"/>
<polygon fill="midnightblue" stroke="midnightblue" points="1532.74,-70.0478 1542.75,-66.5734 1532.76,-63.0478 1532.74,-70.0478"/>
</g>
<!-- Node10&#45;&gt;Node16 -->
<g id="edge18" class="edge"><title>Node10&#45;&gt;Node16</title>
<path fill="none" stroke="midnightblue" d="M511.869,-123.234C501.697,-112.903 484.598,-95.5371 472.088,-82.8315"/>
<polygon fill="midnightblue" stroke="midnightblue" points="474.505,-80.2974 464.995,-75.6273 469.517,-85.2086 474.505,-80.2974"/>
</g>
<!-- Node12&#45;&gt;Node2 -->
<g id="edge12" class="edge"><title>Node12&#45;&gt;Node2</title>
<path fill="none" stroke="midnightblue" d="M1622.5,-75.5085C1633.78,-100.856 1662.75,-176.835 1627.5,-221 1609.31,-243.794 1531.91,-255.922 1479.45,-261.649"/>
<polygon fill="midnightblue" stroke="midnightblue" points="1478.89,-258.188 1469.31,-262.71 1479.62,-265.15 1478.89,-258.188"/>
</g>
<!-- Node12&#45;&gt;Node7 -->
<g id="edge13" class="edge"><title>Node12&#45;&gt;Node7</title>
<path fill="none" stroke="midnightblue" d="M1596,-56.4435C1572.42,-47.4776 1535.18,-33.314 1508.54,-23.1827"/>
<polygon fill="midnightblue" stroke="midnightblue" points="1509.49,-19.7995 1498.9,-19.5164 1507,-26.3424 1509.49,-19.7995"/>
</g>
<!-- Node12&#45;&gt;Node8 -->
<g id="edge15" class="edge"><title>Node12&#45;&gt;Node8</title>
<path fill="none" stroke="midnightblue" d="M1607.41,-56.324C1597.01,-48.1849 1581.24,-35.8395 1568.78,-26.0874"/>
<polygon fill="midnightblue" stroke="midnightblue" points="1570.82,-23.2407 1560.79,-19.8339 1566.51,-28.7533 1570.82,-23.2407"/>
</g>
<!-- Node13 -->
<g id="node13" class="node"><title>Node13</title>
<polygon fill="white" stroke="#bfbfbf" points="1599.5,-0.5 1599.5,-19.5 1637.5,-19.5 1637.5,-0.5 1599.5,-0.5"/>
<text text-anchor="middle" x="1618.5" y="-7.5" font-family="Helvetica,sans-Serif" font-size="10.00">map</text>
</g>
<!-- Node12&#45;&gt;Node13 -->
<g id="edge14" class="edge"><title>Node12&#45;&gt;Node13</title>
<path fill="none" stroke="midnightblue" d="M1618.5,-56.083C1618.5,-49.0059 1618.5,-38.8611 1618.5,-29.9865"/>
<polygon fill="midnightblue" stroke="midnightblue" points="1622,-29.751 1618.5,-19.7511 1615,-29.7511 1622,-29.751"/>
</g>
<!-- Node12&#45;&gt;Node14 -->
<g id="edge16" class="edge"><title>Node12&#45;&gt;Node14</title>
<path fill="none" stroke="midnightblue" d="M1629.43,-56.324C1639.67,-48.1849 1655.22,-35.8395 1667.5,-26.0874"/>
<polygon fill="midnightblue" stroke="midnightblue" points="1669.72,-28.7937 1675.38,-19.8339 1665.37,-23.3119 1669.72,-28.7937"/>
</g>
<!-- Node12&#45;&gt;Node15 -->
<g id="edge17" class="edge"><title>Node12&#45;&gt;Node15</title>
<path fill="none" stroke="midnightblue" d="M1640.05,-56.4435C1662.53,-47.5171 1697.99,-33.4387 1723.48,-23.3168"/>
<polygon fill="midnightblue" stroke="midnightblue" points="1725.05,-26.4598 1733.05,-19.5164 1722.47,-19.9539 1725.05,-26.4598"/>
</g>
<!-- Node16&#45;&gt;Node11 -->
<g id="edge19" class="edge"><title>Node16&#45;&gt;Node11</title>
<path fill="none" stroke="midnightblue" d="M508.44,-56.4481C557.403,-48.1159 632.726,-34.5993 697.5,-20 697.601,-19.9773 697.701,-19.9546 697.802,-19.9318"/>
<polygon fill="midnightblue" stroke="midnightblue" points="698.509,-23.3618 707.408,-17.6134 696.866,-16.5572 698.509,-23.3618"/>
</g>
<!-- Node17 -->
<g id="node17" class="node"><title>Node17</title>
<polygon fill="white" stroke="#bfbfbf" points="143.5,-0.5 143.5,-19.5 297.5,-19.5 297.5,-0.5 143.5,-0.5"/>
<text text-anchor="middle" x="220.5" y="-7.5" font-family="Helvetica,sans-Serif" font-size="10.00">carl/io/streamingOperators.h</text>
</g>
<!-- Node16&#45;&gt;Node17 -->
<g id="edge20" class="edge"><title>Node16&#45;&gt;Node17</title>
<path fill="none" stroke="midnightblue" d="M419.105,-56.4435C378.108,-47.0629 312.246,-31.9926 267.716,-21.8036"/>
<polygon fill="midnightblue" stroke="midnightblue" points="268.249,-18.3352 257.72,-19.5164 266.687,-25.1588 268.249,-18.3352"/>
</g>
<!-- Node18 -->
<g id="node18" class="node"><title>Node18</title>
<polygon fill="white" stroke="#bfbfbf" points="316,-0.5 316,-19.5 375,-19.5 375,-0.5 316,-0.5"/>
<text text-anchor="middle" x="345.5" y="-7.5" font-family="Helvetica,sans-Serif" font-size="10.00">iostream</text>
</g>
<!-- Node16&#45;&gt;Node18 -->
<g id="edge21" class="edge"><title>Node16&#45;&gt;Node18</title>
<path fill="none" stroke="midnightblue" d="M438.666,-56.324C420.784,-47.6247 393.025,-34.1202 372.454,-24.113"/>
<polygon fill="midnightblue" stroke="midnightblue" points="373.813,-20.8819 363.29,-19.6545 370.751,-27.1765 373.813,-20.8819"/>
</g>
<!-- Node19 -->
<g id="node19" class="node"><title>Node19</title>
<polygon fill="white" stroke="#bfbfbf" points="393.5,-0.5 393.5,-19.5 449.5,-19.5 449.5,-0.5 393.5,-0.5"/>
<text text-anchor="middle" x="421.5" y="-7.5" font-family="Helvetica,sans-Serif" font-size="10.00">sstream</text>
</g>
<!-- Node16&#45;&gt;Node19 -->
<g id="edge22" class="edge"><title>Node16&#45;&gt;Node19</title>
<path fill="none" stroke="midnightblue" d="M450.72,-56.083C445.828,-48.5341 438.673,-37.4948 432.667,-28.2298"/>
<polygon fill="midnightblue" stroke="midnightblue" points="435.548,-26.239 427.172,-19.7511 429.674,-30.0463 435.548,-26.239"/>
</g>
<!-- Node20 -->
<g id="node20" class="node"><title>Node20</title>
<polygon fill="white" stroke="#bfbfbf" points="467.5,-0.5 467.5,-19.5 515.5,-19.5 515.5,-0.5 467.5,-0.5"/>
<text text-anchor="middle" x="491.5" y="-7.5" font-family="Helvetica,sans-Serif" font-size="10.00">thread</text>
</g>
<!-- Node16&#45;&gt;Node20 -->
<g id="edge23" class="edge"><title>Node16&#45;&gt;Node20</title>
<path fill="none" stroke="midnightblue" d="M462.28,-56.083C467.172,-48.5341 474.327,-37.4948 480.333,-28.2298"/>
<polygon fill="midnightblue" stroke="midnightblue" points="483.326,-30.0463 485.828,-19.7511 477.452,-26.239 483.326,-30.0463"/>
</g>
<!-- Node21 -->
<g id="node21" class="node"><title>Node21</title>
<polygon fill="white" stroke="#bfbfbf" points="0,-0.5 0,-19.5 125,-19.5 125,-0.5 0,-0.5"/>
<text text-anchor="middle" x="62.5" y="-7.5" font-family="Helvetica,sans-Serif" font-size="10.00">carl/core/carlLogging.h</text>
</g>
<!-- Node16&#45;&gt;Node21 -->
<g id="edge24" class="edge"><title>Node16&#45;&gt;Node21</title>
<path fill="none" stroke="midnightblue" d="M399.63,-57.2056C329.675,-47.6179 210.842,-31.3312 134.562,-20.8765"/>
<polygon fill="midnightblue" stroke="midnightblue" points="134.935,-17.3951 124.553,-19.5047 133.985,-24.3302 134.935,-17.3951"/>
</g>
<!-- Node22 -->
<g id="node22" class="node"><title>Node22</title>
<polygon fill="white" stroke="#bfbfbf" points="534,-0.5 534,-19.5 689,-19.5 689,-0.5 534,-0.5"/>
<text text-anchor="middle" x="611.5" y="-7.5" font-family="Helvetica,sans-Serif" font-size="10.00">carl/core/carlLoggingHelper.h</text>
</g>
<!-- Node16&#45;&gt;Node22 -->
<g id="edge25" class="edge"><title>Node16&#45;&gt;Node22</title>
<path fill="none" stroke="midnightblue" d="M481.06,-56.4435C507.023,-47.3986 548.168,-33.064 577.297,-22.9158"/>
<polygon fill="midnightblue" stroke="midnightblue" points="578.763,-26.1116 587.055,-19.5164 576.46,-19.5013 578.763,-26.1116"/>
</g>
<!-- Node30&#45;&gt;Node1 -->
<g id="edge42" class="edge"><title>Node30&#45;&gt;Node1</title>
<path fill="none" stroke="midnightblue" d="M2078.29,-276.262C2038.04,-286.06 1966.29,-302.781 1906.31,-316.426"/>
<polygon fill="midnightblue" stroke="midnightblue" points="1905.39,-313.046 1896.41,-318.674 1906.94,-319.872 1905.39,-313.046"/>
</g>
</g>
</svg>
