<?xml version="1.0" encoding="UTF-8" standalone="no"?>
<!DOCTYPE svg PUBLIC "-//W3C//DTD SVG 1.1//EN"
 "http://www.w3.org/Graphics/SVG/1.1/DTD/svg11.dtd">
<!-- Generated by graphviz version 2.38.0 (20140413.2041)
 -->
<!-- Title: /home/travis/build/hypro/hypro/src/hypro/datastructures/reachability/timing/HierarchicalIntervalVector.h Pages: 1 -->
<!--zoomable 1129 -->
<svg id="main" version="1.1" xmlns="http://www.w3.org/2000/svg" xmlns:xlink="http://www.w3.org/1999/xlink" xml:space="preserve" onload="init(evt)">
<style type="text/css"><![CDATA[
.edge:hover path { stroke: red; }
.edge:hover polygon { stroke: red; fill: red; }
]]></style>
<script type="text/javascript"><![CDATA[
var edges = document.getElementsByTagName('g');
if (edges && edges.length) {
  for (var i=0;i<edges.length;i++) {
    if (edges[i].id.substr(0,4)=='edge') {
      edges[i].setAttribute('class','edge');
    }
  }
}
]]></script>
        <defs>
                <circle id="rim" cx="0" cy="0" r="7"/>
                <circle id="rim2" cx="0" cy="0" r="3.5"/>
                <g id="zoomPlus">
                        <use xlink:href="#rim" fill="#404040">
                                <set attributeName="fill" to="#808080" begin="zoomplus.mouseover" end="zoomplus.mouseout"/>
                        </use>
                        <path d="M-4,0h8M0,-4v8" fill="none" stroke="white" stroke-width="1.5" pointer-events="none"/>
                </g>
                <g id="zoomMin">
                        <use xlink:href="#rim" fill="#404040">
                                <set attributeName="fill" to="#808080" begin="zoomminus.mouseover" end="zoomminus.mouseout"/>
                        </use>
                        <path d="M-4,0h8" fill="none" stroke="white" stroke-width="1.5" pointer-events="none"/>
                </g>
                <g id="dirArrow">
                        <path fill="none" stroke="white" stroke-width="1.5" d="M0,-3.0v7 M-2.5,-0.5L0,-3.0L2.5,-0.5"/>
                </g>
               <g id="resetDef">
                       <use xlink:href="#rim2" fill="#404040">
                               <set attributeName="fill" to="#808080" begin="reset.mouseover" end="reset.mouseout"/>
                       </use>
               </g>
        </defs>

<script type="text/javascript">
var viewWidth = 1260;
var viewHeight = 1129;
var sectionId = 'dynsection-1';
</script>
<script xlink:href="svgpan.js"/>
<svg id="graph" class="graph">
<g id="viewport">
<title>/home/travis/build/hypro/hypro/src/hypro/datastructures/reachability/timing/HierarchicalIntervalVector.h</title>
<polygon fill="white" stroke="none" points="-4,4 -4,-1125 1256.46,-1125 1256.46,4 -4,4"/>
<!-- Node1 -->
<g id="node1" class="node"><title>Node1</title>
<polygon fill="#bfbfbf" stroke="black" points="951.5,-1068.5 951.5,-1120.5 1134.5,-1120.5 1134.5,-1068.5 951.5,-1068.5"/>
<text text-anchor="start" x="959.5" y="-1108.5" font-family="Helvetica,sans-Serif" font-size="10.00">/home/travis/build</text>
<text text-anchor="start" x="959.5" y="-1097.5" font-family="Helvetica,sans-Serif" font-size="10.00">/hypro/hypro/src/hypro</text>
<text text-anchor="start" x="959.5" y="-1086.5" font-family="Helvetica,sans-Serif" font-size="10.00">/datastructures/reachability</text>
<text text-anchor="middle" x="1043" y="-1075.5" font-family="Helvetica,sans-Serif" font-size="10.00">/timing/HierarchicalIntervalVector.h</text>
</g>
<!-- Node2 -->
<g id="node2" class="node"><title>Node2</title>
<g id="a_node2"><a xlink:href="EventTimingContainer_8h.html" target="_top" xlink:title="/home/travis/build\l/hypro/hypro/src/hypro\l/datastructures/reachability\l/timing/EventTimingContainer.h">
<polygon fill="white" stroke="black" points="785,-979.5 785,-1031.5 951,-1031.5 951,-979.5 785,-979.5"/>
<text text-anchor="start" x="793" y="-1019.5" font-family="Helvetica,sans-Serif" font-size="10.00">/home/travis/build</text>
<text text-anchor="start" x="793" y="-1008.5" font-family="Helvetica,sans-Serif" font-size="10.00">/hypro/hypro/src/hypro</text>
<text text-anchor="start" x="793" y="-997.5" font-family="Helvetica,sans-Serif" font-size="10.00">/datastructures/reachability</text>
<text text-anchor="middle" x="868" y="-986.5" font-family="Helvetica,sans-Serif" font-size="10.00">/timing/EventTimingContainer.h</text>
</a>
</g>
</g>
<!-- Node1&#45;&gt;Node2 -->
<g id="edge1" class="edge"><title>Node1&#45;&gt;Node2</title>
<path fill="none" stroke="midnightblue" d="M983.211,-1063.78C962.157,-1053.31 938.716,-1041.66 918.503,-1031.61"/>
<polygon fill="midnightblue" stroke="midnightblue" points="981.87,-1067.02 992.383,-1068.34 984.986,-1060.75 981.87,-1067.02"/>
</g>
<!-- Node24 -->
<g id="node24" class="node"><title>Node24</title>
<g id="a_node24"><a xlink:href="HIV__util_8h.html" target="_top" xlink:title="/home/travis/build\l/hypro/hypro/src/hypro\l/datastructures/reachability\l/timing/HIV_util.h">
<polygon fill="white" stroke="black" points="969,-979.5 969,-1031.5 1117,-1031.5 1117,-979.5 969,-979.5"/>
<text text-anchor="start" x="977" y="-1019.5" font-family="Helvetica,sans-Serif" font-size="10.00">/home/travis/build</text>
<text text-anchor="start" x="977" y="-1008.5" font-family="Helvetica,sans-Serif" font-size="10.00">/hypro/hypro/src/hypro</text>
<text text-anchor="start" x="977" y="-997.5" font-family="Helvetica,sans-Serif" font-size="10.00">/datastructures/reachability</text>
<text text-anchor="middle" x="1043" y="-986.5" font-family="Helvetica,sans-Serif" font-size="10.00">/timing/HIV_util.h</text>
</a>
</g>
</g>
<!-- Node1&#45;&gt;Node24 -->
<g id="edge53" class="edge"><title>Node1&#45;&gt;Node24</title>
<path fill="none" stroke="midnightblue" d="M1036.36,-1058.19C1036.12,-1049.28 1036.27,-1039.9 1036.82,-1031.61"/>
<polygon fill="midnightblue" stroke="midnightblue" points="1032.87,-1058.5 1036.81,-1068.34 1039.86,-1058.19 1032.87,-1058.5"/>
</g>
<!-- Node3 -->
<g id="node3" class="node"><title>Node3</title>
<g id="a_node3"><a xlink:href="ReachTreeNode_8h.html" target="_top" xlink:title="/home/travis/build\l/hypro/hypro/src/hypro\l/datastructures/reachability\l/ReachTreeNode.h">
<polygon fill="white" stroke="black" points="413,-890.5 413,-942.5 561,-942.5 561,-890.5 413,-890.5"/>
<text text-anchor="start" x="421" y="-930.5" font-family="Helvetica,sans-Serif" font-size="10.00">/home/travis/build</text>
<text text-anchor="start" x="421" y="-919.5" font-family="Helvetica,sans-Serif" font-size="10.00">/hypro/hypro/src/hypro</text>
<text text-anchor="start" x="421" y="-908.5" font-family="Helvetica,sans-Serif" font-size="10.00">/datastructures/reachability</text>
<text text-anchor="middle" x="487" y="-897.5" font-family="Helvetica,sans-Serif" font-size="10.00">/ReachTreeNode.h</text>
</a>
</g>
</g>
<!-- Node2&#45;&gt;Node3 -->
<g id="edge2" class="edge"><title>Node2&#45;&gt;Node3</title>
<path fill="none" stroke="midnightblue" d="M774.912,-983.244C709.2,-968.239 622.33,-948.402 561.261,-934.457"/>
<polygon fill="midnightblue" stroke="midnightblue" points="774.33,-986.701 784.859,-985.515 775.889,-979.877 774.33,-986.701"/>
</g>
<!-- Node10 -->
<g id="node10" class="node"><title>Node10</title>
<g id="a_node10"><a xlink:href="LTIContext_8h.html" target="_top" xlink:title="/home/travis/build\l/hypro/hypro/src/hypro\l/algorithms/reachability\l/contexts/LTIContext.h">
<polygon fill="white" stroke="black" points="218,-356.5 218,-408.5 346,-408.5 346,-356.5 218,-356.5"/>
<text text-anchor="start" x="226" y="-396.5" font-family="Helvetica,sans-Serif" font-size="10.00">/home/travis/build</text>
<text text-anchor="start" x="226" y="-385.5" font-family="Helvetica,sans-Serif" font-size="10.00">/hypro/hypro/src/hypro</text>
<text text-anchor="start" x="226" y="-374.5" font-family="Helvetica,sans-Serif" font-size="10.00">/algorithms/reachability</text>
<text text-anchor="middle" x="282" y="-363.5" font-family="Helvetica,sans-Serif" font-size="10.00">/contexts/LTIContext.h</text>
</a>
</g>
</g>
<!-- Node2&#45;&gt;Node10 -->
<g id="edge39" class="edge"><title>Node2&#45;&gt;Node10</title>
<path fill="none" stroke="midnightblue" d="M774.678,-1003.24C565.24,-997.881 76,-970.203 76,-828.5 76,-828.5 76,-828.5 76,-648.5 76,-542.161 208.085,-589.657 262,-498 278.165,-470.518 281.995,-433.344 282.558,-408.91"/>
<polygon fill="midnightblue" stroke="midnightblue" points="774.657,-1006.74 784.739,-1003.48 774.827,-999.74 774.657,-1006.74"/>
</g>
<!-- Node11 -->
<g id="node11" class="node"><title>Node11</title>
<g id="a_node11"><a xlink:href="TimedContext_8h.html" target="_top" xlink:title="/home/travis/build\l/hypro/hypro/src/hypro\l/algorithms/reachability\l/contexts/TimedContext.h">
<polygon fill="white" stroke="black" points="222,-267.5 222,-319.5 362,-319.5 362,-267.5 222,-267.5"/>
<text text-anchor="start" x="230" y="-307.5" font-family="Helvetica,sans-Serif" font-size="10.00">/home/travis/build</text>
<text text-anchor="start" x="230" y="-296.5" font-family="Helvetica,sans-Serif" font-size="10.00">/hypro/hypro/src/hypro</text>
<text text-anchor="start" x="230" y="-285.5" font-family="Helvetica,sans-Serif" font-size="10.00">/algorithms/reachability</text>
<text text-anchor="middle" x="292" y="-274.5" font-family="Helvetica,sans-Serif" font-size="10.00">/contexts/TimedContext.h</text>
</a>
</g>
</g>
<!-- Node2&#45;&gt;Node11 -->
<g id="edge52" class="edge"><title>Node2&#45;&gt;Node11</title>
<path fill="none" stroke="midnightblue" d="M961.057,-978.983C1061.59,-959.933 1103.15,-997.086 1185,-943 1241.6,-905.599 1269.45,-862.59 1241,-801 1078.03,-448.134 552.803,-334.249 362.056,-303.994"/>
<polygon fill="midnightblue" stroke="midnightblue" points="960.239,-975.578 951.141,-981.007 961.639,-982.437 960.239,-975.578"/>
</g>
<!-- Node18 -->
<g id="node18" class="node"><title>Node18</title>
<g id="a_node18"><a xlink:href="ETC__util_8h.html" target="_top" xlink:title="/home/travis/build\l/hypro/hypro/src/hypro\l/datastructures/reachability\l/timing/ETC_util.h">
<polygon fill="white" stroke="black" points="1028,-890.5 1028,-942.5 1176,-942.5 1176,-890.5 1028,-890.5"/>
<text text-anchor="start" x="1036" y="-930.5" font-family="Helvetica,sans-Serif" font-size="10.00">/home/travis/build</text>
<text text-anchor="start" x="1036" y="-919.5" font-family="Helvetica,sans-Serif" font-size="10.00">/hypro/hypro/src/hypro</text>
<text text-anchor="start" x="1036" y="-908.5" font-family="Helvetica,sans-Serif" font-size="10.00">/datastructures/reachability</text>
<text text-anchor="middle" x="1102" y="-897.5" font-family="Helvetica,sans-Serif" font-size="10.00">/timing/ETC_util.h</text>
</a>
</g>
</g>
<!-- Node2&#45;&gt;Node18 -->
<g id="edge36" class="edge"><title>Node2&#45;&gt;Node18</title>
<path fill="none" stroke="midnightblue" d="M938.651,-975.858C967.073,-965.087 999.826,-952.936 1028.53,-942.521"/>
<polygon fill="midnightblue" stroke="midnightblue" points="937.295,-972.629 929.19,-979.453 939.781,-979.172 937.295,-972.629"/>
</g>
<!-- Node20 -->
<g id="node20" class="node"><title>Node20</title>
<g id="a_node20"><a xlink:href="EventTimingProvider_8h.html" target="_top" xlink:title="/home/travis/build\l/hypro/hypro/src/hypro\l/datastructures/reachability\l/timing/EventTimingProvider.h">
<polygon fill="white" stroke="black" points="704,-801.5 704,-853.5 862,-853.5 862,-801.5 704,-801.5"/>
<text text-anchor="start" x="712" y="-841.5" font-family="Helvetica,sans-Serif" font-size="10.00">/home/travis/build</text>
<text text-anchor="start" x="712" y="-830.5" font-family="Helvetica,sans-Serif" font-size="10.00">/hypro/hypro/src/hypro</text>
<text text-anchor="start" x="712" y="-819.5" font-family="Helvetica,sans-Serif" font-size="10.00">/datastructures/reachability</text>
<text text-anchor="middle" x="783" y="-808.5" font-family="Helvetica,sans-Serif" font-size="10.00">/timing/EventTimingProvider.h</text>
</a>
</g>
</g>
<!-- Node2&#45;&gt;Node20 -->
<g id="edge40" class="edge"><title>Node2&#45;&gt;Node20</title>
<path fill="none" stroke="midnightblue" d="M851.401,-970.13C834.879,-935.92 809.915,-884.231 795.156,-853.67"/>
<polygon fill="midnightblue" stroke="midnightblue" points="848.321,-971.801 855.822,-979.283 854.624,-968.757 848.321,-971.801"/>
</g>
<!-- Node21 -->
<g id="node21" class="node"><title>Node21</title>
<g id="a_node21"><a xlink:href="timingUtil_8h.html" target="_top" xlink:title="/home/travis/build\l/hypro/hypro/src/hypro\l/algorithms/reachability\l/handlers/jumpHandlers/timingUtil.h">
<polygon fill="white" stroke="black" points="726,-712.5 726,-764.5 914,-764.5 914,-712.5 726,-712.5"/>
<text text-anchor="start" x="734" y="-752.5" font-family="Helvetica,sans-Serif" font-size="10.00">/home/travis/build</text>
<text text-anchor="start" x="734" y="-741.5" font-family="Helvetica,sans-Serif" font-size="10.00">/hypro/hypro/src/hypro</text>
<text text-anchor="start" x="734" y="-730.5" font-family="Helvetica,sans-Serif" font-size="10.00">/algorithms/reachability</text>
<text text-anchor="middle" x="820" y="-719.5" font-family="Helvetica,sans-Serif" font-size="10.00">/handlers/jumpHandlers/timingUtil.h</text>
</a>
</g>
</g>
<!-- Node2&#45;&gt;Node21 -->
<g id="edge51" class="edge"><title>Node2&#45;&gt;Node21</title>
<path fill="none" stroke="midnightblue" d="M812.668,-974.124C771.714,-948.201 719.033,-906.763 695,-854 685.236,-832.564 682.552,-820.998 695,-801 704.778,-785.292 719.874,-773.481 736.237,-764.639"/>
<polygon fill="midnightblue" stroke="midnightblue" points="810.87,-977.127 821.214,-979.418 814.557,-971.177 810.87,-977.127"/>
</g>
<!-- Node22 -->
<g id="node22" class="node"><title>Node22</title>
<g id="a_node22"><a xlink:href="EventTimingNode_8h.html" target="_top" xlink:title="/home/travis/build\l/hypro/hypro/src/hypro\l/datastructures/reachability\l/timing/EventTimingNode.h">
<polygon fill="white" stroke="black" points="862,-890.5 862,-942.5 1010,-942.5 1010,-890.5 862,-890.5"/>
<text text-anchor="start" x="870" y="-930.5" font-family="Helvetica,sans-Serif" font-size="10.00">/home/travis/build</text>
<text text-anchor="start" x="870" y="-919.5" font-family="Helvetica,sans-Serif" font-size="10.00">/hypro/hypro/src/hypro</text>
<text text-anchor="start" x="870" y="-908.5" font-family="Helvetica,sans-Serif" font-size="10.00">/datastructures/reachability</text>
<text text-anchor="middle" x="936" y="-897.5" font-family="Helvetica,sans-Serif" font-size="10.00">/timing/EventTimingNode.h</text>
</a>
</g>
</g>
<!-- Node2&#45;&gt;Node22 -->
<g id="edge46" class="edge"><title>Node2&#45;&gt;Node22</title>
<path fill="none" stroke="midnightblue" d="M894.016,-971.215C901.44,-961.717 909.402,-951.529 916.376,-942.607"/>
<polygon fill="midnightblue" stroke="midnightblue" points="891.069,-969.302 887.668,-979.336 896.584,-973.612 891.069,-969.302"/>
</g>
<!-- Node4 -->
<g id="node4" class="node"><title>Node4</title>
<g id="a_node4"><a xlink:href="Task_8h.html" target="_top" xlink:title="/home/travis/build\l/hypro/hypro/src/hypro\l/datastructures/reachability\l/Task.h">
<polygon fill="white" stroke="black" points="104,-712.5 104,-764.5 252,-764.5 252,-712.5 104,-712.5"/>
<text text-anchor="start" x="112" y="-752.5" font-family="Helvetica,sans-Serif" font-size="10.00">/home/travis/build</text>
<text text-anchor="start" x="112" y="-741.5" font-family="Helvetica,sans-Serif" font-size="10.00">/hypro/hypro/src/hypro</text>
<text text-anchor="start" x="112" y="-730.5" font-family="Helvetica,sans-Serif" font-size="10.00">/datastructures/reachability</text>
<text text-anchor="middle" x="178" y="-719.5" font-family="Helvetica,sans-Serif" font-size="10.00">/Task.h</text>
</a>
</g>
</g>
<!-- Node3&#45;&gt;Node4 -->
<g id="edge3" class="edge"><title>Node3&#45;&gt;Node4</title>
<path fill="none" stroke="midnightblue" d="M402.778,-904.856C359.408,-896.318 307.32,-881.074 267,-854 232.929,-831.122 206.164,-790.958 191.214,-764.796"/>
<polygon fill="midnightblue" stroke="midnightblue" points="402.27,-908.322 412.745,-906.731 403.565,-901.442 402.27,-908.322"/>
</g>
<!-- Node12 -->
<g id="node12" class="node"><title>Node12</title>
<g id="a_node12"><a xlink:href="ltiJumpHandler_8h.html" target="_top" xlink:title="/home/travis/build\l/hypro/hypro/src/hypro\l/algorithms/reachability\l/handlers/jumpHandlers/ltiJumpHandler.h">
<polygon fill="white" stroke="black" points="523,-623.5 523,-675.5 735,-675.5 735,-623.5 523,-623.5"/>
<text text-anchor="start" x="531" y="-663.5" font-family="Helvetica,sans-Serif" font-size="10.00">/home/travis/build</text>
<text text-anchor="start" x="531" y="-652.5" font-family="Helvetica,sans-Serif" font-size="10.00">/hypro/hypro/src/hypro</text>
<text text-anchor="start" x="531" y="-641.5" font-family="Helvetica,sans-Serif" font-size="10.00">/algorithms/reachability</text>
<text text-anchor="middle" x="629" y="-630.5" font-family="Helvetica,sans-Serif" font-size="10.00">/handlers/jumpHandlers/ltiJumpHandler.h</text>
</a>
</g>
</g>
<!-- Node3&#45;&gt;Node12 -->
<g id="edge33" class="edge"><title>Node3&#45;&gt;Node12</title>
<path fill="none" stroke="midnightblue" d="M489.036,-880.317C493.072,-837.135 505.11,-763.339 541,-712 551.145,-697.488 565.879,-685.277 580.399,-675.658"/>
<polygon fill="midnightblue" stroke="midnightblue" points="485.543,-880.085 488.191,-890.344 492.518,-880.673 485.543,-880.085"/>
</g>
<!-- Node15 -->
<g id="node15" class="node"><title>Node15</title>
<g id="a_node15"><a xlink:href="ReachTree_8h.html" target="_top" xlink:title="/home/travis/build\l/hypro/hypro/src/hypro\l/datastructures/reachability\l/ReachTree.h">
<polygon fill="white" stroke="black" points="276,-801.5 276,-853.5 424,-853.5 424,-801.5 276,-801.5"/>
<text text-anchor="start" x="284" y="-841.5" font-family="Helvetica,sans-Serif" font-size="10.00">/home/travis/build</text>
<text text-anchor="start" x="284" y="-830.5" font-family="Helvetica,sans-Serif" font-size="10.00">/hypro/hypro/src/hypro</text>
<text text-anchor="start" x="284" y="-819.5" font-family="Helvetica,sans-Serif" font-size="10.00">/datastructures/reachability</text>
<text text-anchor="middle" x="350" y="-808.5" font-family="Helvetica,sans-Serif" font-size="10.00">/ReachTree.h</text>
</a>
</g>
</g>
<!-- Node3&#45;&gt;Node15 -->
<g id="edge27" class="edge"><title>Node3&#45;&gt;Node15</title>
<path fill="none" stroke="midnightblue" d="M438.636,-884.787C422.562,-874.579 404.864,-863.341 389.537,-853.607"/>
<polygon fill="midnightblue" stroke="midnightblue" points="437.056,-887.93 447.374,-890.336 440.809,-882.021 437.056,-887.93"/>
</g>
<!-- Node16 -->
<g id="node16" class="node"><title>Node16</title>
<g id="a_node16"><a xlink:href="NodeManager_8h.html" target="_top" xlink:title="/home/travis/build\l/hypro/hypro/src/hypro\l/datastructures/reachability\l/NodeManager.h">
<polygon fill="white" stroke="black" points="346,-712.5 346,-764.5 494,-764.5 494,-712.5 346,-712.5"/>
<text text-anchor="start" x="354" y="-752.5" font-family="Helvetica,sans-Serif" font-size="10.00">/home/travis/build</text>
<text text-anchor="start" x="354" y="-741.5" font-family="Helvetica,sans-Serif" font-size="10.00">/hypro/hypro/src/hypro</text>
<text text-anchor="start" x="354" y="-730.5" font-family="Helvetica,sans-Serif" font-size="10.00">/datastructures/reachability</text>
<text text-anchor="middle" x="420" y="-719.5" font-family="Helvetica,sans-Serif" font-size="10.00">/NodeManager.h</text>
</a>
</g>
</g>
<!-- Node3&#45;&gt;Node16 -->
<g id="edge32" class="edge"><title>Node3&#45;&gt;Node16</title>
<path fill="none" stroke="midnightblue" d="M473.749,-880.69C460.725,-846.478 441.166,-795.1 429.582,-764.67"/>
<polygon fill="midnightblue" stroke="midnightblue" points="470.572,-882.183 477.401,-890.283 477.114,-879.693 470.572,-882.183"/>
</g>
<!-- Node17 -->
<g id="node17" class="node"><title>Node17</title>
<g id="a_node17"><a xlink:href="algorithms_2reachability_2handlers_2jumpHandlers_2util_8h.html" target="_top" xlink:title="/home/travis/build\l/hypro/hypro/src/hypro\l/algorithms/reachability\l/handlers/jumpHandlers/util.h">
<polygon fill="white" stroke="black" points="550.5,-712.5 550.5,-764.5 707.5,-764.5 707.5,-712.5 550.5,-712.5"/>
<text text-anchor="start" x="558.5" y="-752.5" font-family="Helvetica,sans-Serif" font-size="10.00">/home/travis/build</text>
<text text-anchor="start" x="558.5" y="-741.5" font-family="Helvetica,sans-Serif" font-size="10.00">/hypro/hypro/src/hypro</text>
<text text-anchor="start" x="558.5" y="-730.5" font-family="Helvetica,sans-Serif" font-size="10.00">/algorithms/reachability</text>
<text text-anchor="middle" x="629" y="-719.5" font-family="Helvetica,sans-Serif" font-size="10.00">/handlers/jumpHandlers/util.h</text>
</a>
</g>
</g>
<!-- Node3&#45;&gt;Node17 -->
<g id="edge34" class="edge"><title>Node3&#45;&gt;Node17</title>
<path fill="none" stroke="midnightblue" d="M513.676,-882.437C541.26,-848.249 583.719,-795.622 608.693,-764.67"/>
<polygon fill="midnightblue" stroke="midnightblue" points="510.9,-880.303 507.345,-890.283 516.348,-884.698 510.9,-880.303"/>
</g>
<!-- Node5 -->
<g id="node5" class="node"><title>Node5</title>
<g id="a_node5"><a xlink:href="ContextFactory_8h.html" target="_top" xlink:title="/home/travis/build\l/hypro/hypro/src/hypro\l/algorithms/reachability\l/contexts/ContextFactory.h">
<polygon fill="white" stroke="black" points="112.5,-178.5 112.5,-230.5 255.5,-230.5 255.5,-178.5 112.5,-178.5"/>
<text text-anchor="start" x="120.5" y="-218.5" font-family="Helvetica,sans-Serif" font-size="10.00">/home/travis/build</text>
<text text-anchor="start" x="120.5" y="-207.5" font-family="Helvetica,sans-Serif" font-size="10.00">/hypro/hypro/src/hypro</text>
<text text-anchor="start" x="120.5" y="-196.5" font-family="Helvetica,sans-Serif" font-size="10.00">/algorithms/reachability</text>
<text text-anchor="middle" x="184" y="-185.5" font-family="Helvetica,sans-Serif" font-size="10.00">/contexts/ContextFactory.h</text>
</a>
</g>
</g>
<!-- Node4&#45;&gt;Node5 -->
<g id="edge4" class="edge"><title>Node4&#45;&gt;Node5</title>
<path fill="none" stroke="midnightblue" d="M162.594,-702.756C140.254,-648.25 102.895,-539.14 116,-445 127.174,-364.73 158.458,-273.565 174.4,-230.525"/>
<polygon fill="midnightblue" stroke="midnightblue" points="159.489,-704.405 166.574,-712.282 165.948,-701.705 159.489,-704.405"/>
</g>
<!-- Node6 -->
<g id="node6" class="node"><title>Node6</title>
<g id="a_node6"><a xlink:href="ContextBasedReachabilityWorker_8h.html" target="_top" xlink:title="/home/travis/build\l/hypro/hypro/src/hypro\l/algorithms/reachability\l/workers/ContextBasedReachability\lWorker.h">
<polygon fill="white" stroke="black" points="92.5,-78.5 92.5,-141.5 275.5,-141.5 275.5,-78.5 92.5,-78.5"/>
<text text-anchor="start" x="100.5" y="-129.5" font-family="Helvetica,sans-Serif" font-size="10.00">/home/travis/build</text>
<text text-anchor="start" x="100.5" y="-118.5" font-family="Helvetica,sans-Serif" font-size="10.00">/hypro/hypro/src/hypro</text>
<text text-anchor="start" x="100.5" y="-107.5" font-family="Helvetica,sans-Serif" font-size="10.00">/algorithms/reachability</text>
<text text-anchor="start" x="100.5" y="-96.5" font-family="Helvetica,sans-Serif" font-size="10.00">/workers/ContextBasedReachability</text>
<text text-anchor="middle" x="184" y="-85.5" font-family="Helvetica,sans-Serif" font-size="10.00">Worker.h</text>
</a>
</g>
</g>
<!-- Node4&#45;&gt;Node6 -->
<g id="edge24" class="edge"><title>Node4&#45;&gt;Node6</title>
<path fill="none" stroke="midnightblue" d="M131.152,-706.219C90.4577,-674.909 38,-622.683 38,-561.5 38,-561.5 38,-561.5 38,-292.5 38,-235.851 57.8155,-221.587 94,-178 105.323,-164.361 119.968,-151.953 134.143,-141.623"/>
<polygon fill="midnightblue" stroke="midnightblue" points="129.274,-709.186 139.374,-712.389 133.476,-703.587 129.274,-709.186"/>
</g>
<!-- Node7 -->
<g id="node7" class="node"><title>Node7</title>
<g id="a_node7"><a xlink:href="example__rectangularReachability_8cpp.html" target="_top" xlink:title="/home/travis/build\l/hypro/hypro/examples\l/example_rectangularReachability.cpp">
<polygon fill="white" stroke="black" points="568,-0.5 568,-41.5 764,-41.5 764,-0.5 568,-0.5"/>
<text text-anchor="start" x="576" y="-29.5" font-family="Helvetica,sans-Serif" font-size="10.00">/home/travis/build</text>
<text text-anchor="start" x="576" y="-18.5" font-family="Helvetica,sans-Serif" font-size="10.00">/hypro/hypro/examples</text>
<text text-anchor="middle" x="666" y="-7.5" font-family="Helvetica,sans-Serif" font-size="10.00">/example_rectangularReachability.cpp</text>
</a>
</g>
</g>
<!-- Node4&#45;&gt;Node7 -->
<g id="edge25" class="edge"><title>Node4&#45;&gt;Node7</title>
<path fill="none" stroke="midnightblue" d="M238.602,-707.214C252.859,-698.375 267.293,-687.855 279,-676 485.487,-466.891 625.637,-126.535 658.56,-41.6494"/>
<polygon fill="midnightblue" stroke="midnightblue" points="236.558,-704.358 229.774,-712.497 240.153,-710.365 236.558,-704.358"/>
</g>
<!-- Node8 -->
<g id="node8" class="node"><title>Node8</title>
<g id="a_node8"><a xlink:href="example__worker_8cpp.html" target="_top" xlink:title="/home/travis/build\l/hypro/hypro/examples\l/example_worker.cpp">
<polygon fill="white" stroke="black" points="224,-0.5 224,-41.5 350,-41.5 350,-0.5 224,-0.5"/>
<text text-anchor="start" x="232" y="-29.5" font-family="Helvetica,sans-Serif" font-size="10.00">/home/travis/build</text>
<text text-anchor="start" x="232" y="-18.5" font-family="Helvetica,sans-Serif" font-size="10.00">/hypro/hypro/examples</text>
<text text-anchor="middle" x="287" y="-7.5" font-family="Helvetica,sans-Serif" font-size="10.00">/example_worker.cpp</text>
</a>
</g>
</g>
<!-- Node4&#45;&gt;Node8 -->
<g id="edge26" class="edge"><title>Node4&#45;&gt;Node8</title>
<path fill="none" stroke="midnightblue" d="M96.4283,-707.965C80.3118,-699.45 64.5297,-688.883 52,-676 13.0318,-635.934 0,-617.391 0,-561.5 0,-561.5 0,-561.5 0,-203.5 0,-136.627 28.8548,-117.246 83,-78 124.186,-48.1475 180.517,-34.2053 223.552,-27.6957"/>
<polygon fill="midnightblue" stroke="midnightblue" points="94.8928,-711.111 105.398,-712.487 98.0438,-704.86 94.8928,-711.111"/>
</g>
<!-- Node9 -->
<g id="node9" class="node"><title>Node9</title>
<g id="a_node9"><a xlink:href="IWorker_8h.html" target="_top" xlink:title="/home/travis/build\l/hypro/hypro/src/hypro\l/algorithms/reachability\l/workers/IWorker.h">
<polygon fill="white" stroke="black" points="125,-445.5 125,-497.5 253,-497.5 253,-445.5 125,-445.5"/>
<text text-anchor="start" x="133" y="-485.5" font-family="Helvetica,sans-Serif" font-size="10.00">/home/travis/build</text>
<text text-anchor="start" x="133" y="-474.5" font-family="Helvetica,sans-Serif" font-size="10.00">/hypro/hypro/src/hypro</text>
<text text-anchor="start" x="133" y="-463.5" font-family="Helvetica,sans-Serif" font-size="10.00">/algorithms/reachability</text>
<text text-anchor="middle" x="189" y="-452.5" font-family="Helvetica,sans-Serif" font-size="10.00">/workers/IWorker.h</text>
</a>
</g>
</g>
<!-- Node4&#45;&gt;Node9 -->
<g id="edge8" class="edge"><title>Node4&#45;&gt;Node9</title>
<path fill="none" stroke="midnightblue" d="M179.478,-701.893C181.734,-647.555 185.98,-545.26 187.948,-497.832"/>
<polygon fill="midnightblue" stroke="midnightblue" points="175.973,-701.954 179.055,-712.091 182.967,-702.244 175.973,-701.954"/>
</g>
<!-- Node4&#45;&gt;Node10 -->
<g id="edge16" class="edge"><title>Node4&#45;&gt;Node10</title>
<path fill="none" stroke="midnightblue" d="M200.555,-703.96C229.124,-659.256 276.823,-576.62 295,-498 301.985,-467.787 295.746,-432.186 289.736,-408.796"/>
<polygon fill="midnightblue" stroke="midnightblue" points="197.6,-702.084 195.111,-712.382 203.479,-705.884 197.6,-702.084"/>
</g>
<!-- Node4&#45;&gt;Node11 -->
<g id="edge23" class="edge"><title>Node4&#45;&gt;Node11</title>
<path fill="none" stroke="midnightblue" d="M218.673,-705.387C228.372,-696.527 238.17,-686.455 246,-676 322.834,-573.408 332.364,-535.16 355,-409 359.16,-385.815 364.145,-377.708 355,-356 349.125,-342.055 338.372,-329.698 327.393,-319.787"/>
<polygon fill="midnightblue" stroke="midnightblue" points="216.125,-702.969 210.955,-712.217 220.764,-708.211 216.125,-702.969"/>
</g>
<!-- Node4&#45;&gt;Node12 -->
<g id="edge17" class="edge"><title>Node4&#45;&gt;Node12</title>
<path fill="none" stroke="midnightblue" d="M262.38,-721.223C336.002,-707.021 443.18,-686.346 522.654,-671.015"/>
<polygon fill="midnightblue" stroke="midnightblue" points="261.377,-717.852 252.221,-723.182 262.703,-724.725 261.377,-717.852"/>
</g>
<!-- Node5&#45;&gt;Node6 -->
<g id="edge5" class="edge"><title>Node5&#45;&gt;Node6</title>
<path fill="none" stroke="midnightblue" d="M184,-167.945C184,-159.226 184,-149.97 184,-141.512"/>
<polygon fill="midnightblue" stroke="midnightblue" points="180.5,-168.224 184,-178.224 187.5,-168.224 180.5,-168.224"/>
</g>
<!-- Node6&#45;&gt;Node7 -->
<g id="edge6" class="edge"><title>Node6&#45;&gt;Node7</title>
<path fill="none" stroke="midnightblue" d="M285.478,-90.6833C368.624,-75.6758 485.564,-54.5683 567.803,-39.7244"/>
<polygon fill="midnightblue" stroke="midnightblue" points="284.73,-87.2618 275.511,-92.4825 285.974,-94.1504 284.73,-87.2618"/>
</g>
<!-- Node6&#45;&gt;Node8 -->
<g id="edge7" class="edge"><title>Node6&#45;&gt;Node8</title>
<path fill="none" stroke="midnightblue" d="M228.26,-71.6155C240.519,-61.2605 253.337,-50.4337 263.86,-41.5457"/>
<polygon fill="midnightblue" stroke="midnightblue" points="225.695,-69.2004 220.314,-78.3271 230.212,-74.5481 225.695,-69.2004"/>
</g>
<!-- Node9&#45;&gt;Node5 -->
<g id="edge9" class="edge"><title>Node9&#45;&gt;Node5</title>
<path fill="none" stroke="midnightblue" d="M188.328,-434.893C187.303,-380.555 185.373,-278.26 184.478,-230.832"/>
<polygon fill="midnightblue" stroke="midnightblue" points="184.832,-435.159 188.521,-445.091 191.831,-435.026 184.832,-435.159"/>
</g>
<!-- Node9&#45;&gt;Node6 -->
<g id="edge15" class="edge"><title>Node9&#45;&gt;Node6</title>
<path fill="none" stroke="midnightblue" d="M172.451,-436.291C151.411,-390.718 116.229,-306.986 103,-231 98.9598,-207.794 92.9698,-199.313 103,-178 109.683,-163.799 121.017,-151.578 133.123,-141.61"/>
<polygon fill="midnightblue" stroke="midnightblue" points="169.311,-437.84 176.713,-445.421 175.654,-434.879 169.311,-437.84"/>
</g>
<!-- Node9&#45;&gt;Node10 -->
<g id="edge10" class="edge"><title>Node9&#45;&gt;Node10</title>
<path fill="none" stroke="midnightblue" d="M223.353,-438.363C233.852,-428.542 245.238,-417.89 255.161,-408.607"/>
<polygon fill="midnightblue" stroke="midnightblue" points="220.811,-435.948 215.899,-445.336 225.593,-441.06 220.811,-435.948"/>
</g>
<!-- Node9&#45;&gt;Node11 -->
<g id="edge14" class="edge"><title>Node9&#45;&gt;Node11</title>
<path fill="none" stroke="midnightblue" d="M188.494,-435.311C189.67,-411.347 194.319,-379.783 209,-356 217.949,-341.502 231.686,-329.295 245.425,-319.675"/>
<polygon fill="midnightblue" stroke="midnightblue" points="184.993,-435.296 188.179,-445.401 191.99,-435.515 184.993,-435.296"/>
</g>
<!-- Node10&#45;&gt;Node5 -->
<g id="edge11" class="edge"><title>Node10&#45;&gt;Node5</title>
<path fill="none" stroke="midnightblue" d="M238.338,-349.726C228.825,-341.019 219.635,-330.933 213,-320 196.191,-292.301 189.084,-255.178 186.106,-230.814"/>
<polygon fill="midnightblue" stroke="midnightblue" points="236.156,-352.467 245.993,-356.403 240.757,-347.192 236.156,-352.467"/>
</g>
<!-- Node10&#45;&gt;Node11 -->
<g id="edge12" class="edge"><title>Node10&#45;&gt;Node11</title>
<path fill="none" stroke="midnightblue" d="M286.059,-346.191C287.082,-337.282 288.161,-327.899 289.114,-319.607"/>
<polygon fill="midnightblue" stroke="midnightblue" points="282.557,-346.002 284.892,-356.336 289.512,-346.801 282.557,-346.002"/>
</g>
<!-- Node11&#45;&gt;Node5 -->
<g id="edge13" class="edge"><title>Node11&#45;&gt;Node5</title>
<path fill="none" stroke="midnightblue" d="M252.815,-260.934C240.428,-250.956 226.915,-240.07 215.168,-230.607"/>
<polygon fill="midnightblue" stroke="midnightblue" points="250.779,-263.788 260.762,-267.336 255.17,-258.337 250.779,-263.788"/>
</g>
<!-- Node13 -->
<g id="node13" class="node"><title>Node13</title>
<g id="a_node13"><a xlink:href="JumpHandlers_8h.html" target="_top" xlink:title="/home/travis/build\l/hypro/hypro/src/hypro\l/algorithms/reachability\l/handlers/jumpHandlers/JumpHandlers.h">
<polygon fill="white" stroke="black" points="540.5,-534.5 540.5,-586.5 749.5,-586.5 749.5,-534.5 540.5,-534.5"/>
<text text-anchor="start" x="548.5" y="-574.5" font-family="Helvetica,sans-Serif" font-size="10.00">/home/travis/build</text>
<text text-anchor="start" x="548.5" y="-563.5" font-family="Helvetica,sans-Serif" font-size="10.00">/hypro/hypro/src/hypro</text>
<text text-anchor="start" x="548.5" y="-552.5" font-family="Helvetica,sans-Serif" font-size="10.00">/algorithms/reachability</text>
<text text-anchor="middle" x="645" y="-541.5" font-family="Helvetica,sans-Serif" font-size="10.00">/handlers/jumpHandlers/JumpHandlers.h</text>
</a>
</g>
</g>
<!-- Node12&#45;&gt;Node13 -->
<g id="edge18" class="edge"><title>Node12&#45;&gt;Node13</title>
<path fill="none" stroke="midnightblue" d="M635.44,-613.481C637.094,-604.487 638.841,-594.989 640.383,-586.607"/>
<polygon fill="midnightblue" stroke="midnightblue" points="631.994,-612.868 633.628,-623.336 638.879,-614.134 631.994,-612.868"/>
</g>
<!-- Node14 -->
<g id="node14" class="node"><title>Node14</title>
<g id="a_node14"><a xlink:href="HandlerFactory_8h.html" target="_top" xlink:title="/home/travis/build\l/hypro/hypro/src/hypro\l/algorithms/reachability\l/handlers/HandlerFactory.h">
<polygon fill="white" stroke="black" points="573.5,-445.5 573.5,-497.5 716.5,-497.5 716.5,-445.5 573.5,-445.5"/>
<text text-anchor="start" x="581.5" y="-485.5" font-family="Helvetica,sans-Serif" font-size="10.00">/home/travis/build</text>
<text text-anchor="start" x="581.5" y="-474.5" font-family="Helvetica,sans-Serif" font-size="10.00">/hypro/hypro/src/hypro</text>
<text text-anchor="start" x="581.5" y="-463.5" font-family="Helvetica,sans-Serif" font-size="10.00">/algorithms/reachability</text>
<text text-anchor="middle" x="645" y="-452.5" font-family="Helvetica,sans-Serif" font-size="10.00">/handlers/HandlerFactory.h</text>
</a>
</g>
</g>
<!-- Node13&#45;&gt;Node14 -->
<g id="edge19" class="edge"><title>Node13&#45;&gt;Node14</title>
<path fill="none" stroke="midnightblue" d="M645,-524.191C645,-515.282 645,-505.899 645,-497.607"/>
<polygon fill="midnightblue" stroke="midnightblue" points="641.5,-524.336 645,-534.336 648.5,-524.336 641.5,-524.336"/>
</g>
<!-- Node14&#45;&gt;Node10 -->
<g id="edge20" class="edge"><title>Node14&#45;&gt;Node10</title>
<path fill="none" stroke="midnightblue" d="M563.382,-450.939C497.747,-435.208 406.804,-413.412 346.27,-398.904"/>
<polygon fill="midnightblue" stroke="midnightblue" points="562.743,-454.384 573.283,-453.312 564.374,-447.577 562.743,-454.384"/>
</g>
<!-- Node14&#45;&gt;Node11 -->
<g id="edge22" class="edge"><title>Node14&#45;&gt;Node11</title>
<path fill="none" stroke="midnightblue" d="M585.456,-440.812C517.182,-406.772 406.451,-351.563 342.314,-319.586"/>
<polygon fill="midnightblue" stroke="midnightblue" points="584.288,-444.141 594.799,-445.47 587.411,-437.876 584.288,-444.141"/>
</g>
<!-- Node14&#45;&gt;Node12 -->
<g id="edge21" class="edge"><title>Node14&#45;&gt;Node12</title>
<path fill="none" stroke="midnightblue" d="M725.248,-501.831C738.321,-510.206 750.138,-520.769 758,-534 770.034,-554.25 770.571,-567.08 758,-587 748.069,-602.736 732.885,-614.531 716.378,-623.342"/>
<polygon fill="midnightblue" stroke="midnightblue" points="726.89,-498.736 716.505,-496.639 723.316,-504.755 726.89,-498.736"/>
</g>
<!-- Node15&#45;&gt;Node7 -->
<g id="edge30" class="edge"><title>Node15&#45;&gt;Node7</title>
<path fill="none" stroke="midnightblue" d="M337.905,-791.388C331.86,-768.207 327.619,-737.517 337,-712 343.718,-693.726 548.4,-456.65 564,-445 696.405,-346.118 904,-459.753 904,-294.5 904,-294.5 904,-294.5 904,-203.5 904,-117.241 803.928,-66.5334 733.565,-41.5411"/>
<polygon fill="midnightblue" stroke="midnightblue" points="334.576,-792.477 340.669,-801.145 341.311,-790.569 334.576,-792.477"/>
</g>
<!-- Node15&#45;&gt;Node8 -->
<g id="edge31" class="edge"><title>Node15&#45;&gt;Node8</title>
<path fill="none" stroke="midnightblue" d="M319.341,-793.476C313.059,-784.818 307.348,-775.067 304,-765 296.566,-742.648 296.888,-734.456 304,-712 324.513,-647.229 371.487,-651.771 392,-587 409.928,-530.391 431.748,-560.062 371,-267 353.066,-180.482 313.173,-82.4347 295.597,-41.5315"/>
<polygon fill="midnightblue" stroke="midnightblue" points="316.594,-795.646 325.479,-801.417 322.132,-791.364 316.594,-795.646"/>
</g>
<!-- Node15&#45;&gt;Node16 -->
<g id="edge28" class="edge"><title>Node15&#45;&gt;Node16</title>
<path fill="none" stroke="midnightblue" d="M376.549,-793.503C384.258,-783.923 392.547,-773.62 399.799,-764.607"/>
<polygon fill="midnightblue" stroke="midnightblue" points="373.789,-791.351 370.247,-801.336 379.243,-795.739 373.789,-791.351"/>
</g>
<!-- Node16&#45;&gt;Node12 -->
<g id="edge29" class="edge"><title>Node16&#45;&gt;Node12</title>
<path fill="none" stroke="midnightblue" d="M489.483,-708.576C515.188,-697.876 544.089,-685.846 568.892,-675.521"/>
<polygon fill="midnightblue" stroke="midnightblue" points="488.058,-705.378 480.171,-712.453 490.748,-711.841 488.058,-705.378"/>
</g>
<!-- Node17&#45;&gt;Node12 -->
<g id="edge35" class="edge"><title>Node17&#45;&gt;Node12</title>
<path fill="none" stroke="midnightblue" d="M629,-702.191C629,-693.282 629,-683.899 629,-675.607"/>
<polygon fill="midnightblue" stroke="midnightblue" points="625.5,-702.336 629,-712.336 632.5,-702.336 625.5,-702.336"/>
</g>
<!-- Node18&#45;&gt;Node2 -->
<g id="edge37" class="edge"><title>Node18&#45;&gt;Node2</title>
<path fill="none" stroke="midnightblue" d="M1031.42,-946.115C1003.01,-956.883 970.253,-969.035 941.547,-979.453"/>
<polygon fill="midnightblue" stroke="midnightblue" points="1032.77,-949.345 1040.88,-942.521 1030.29,-942.802 1032.77,-949.345"/>
</g>
<!-- Node19 -->
<g id="node19" class="node"><title>Node19</title>
<g id="a_node19"><a xlink:href="ETC__util_8cpp.html" target="_top" xlink:title="/home/travis/build\l/hypro/hypro/src/hypro\l/datastructures/reachability\l/timing/ETC_util.cpp">
<polygon fill="white" stroke="black" points="1084,-801.5 1084,-853.5 1232,-853.5 1232,-801.5 1084,-801.5"/>
<text text-anchor="start" x="1092" y="-841.5" font-family="Helvetica,sans-Serif" font-size="10.00">/home/travis/build</text>
<text text-anchor="start" x="1092" y="-830.5" font-family="Helvetica,sans-Serif" font-size="10.00">/hypro/hypro/src/hypro</text>
<text text-anchor="start" x="1092" y="-819.5" font-family="Helvetica,sans-Serif" font-size="10.00">/datastructures/reachability</text>
<text text-anchor="middle" x="1158" y="-808.5" font-family="Helvetica,sans-Serif" font-size="10.00">/timing/ETC_util.cpp</text>
</a>
</g>
</g>
<!-- Node18&#45;&gt;Node19 -->
<g id="edge38" class="edge"><title>Node18&#45;&gt;Node19</title>
<path fill="none" stroke="midnightblue" d="M1123.61,-881.927C1129.67,-872.511 1136.15,-862.439 1141.84,-853.607"/>
<polygon fill="midnightblue" stroke="midnightblue" points="1120.67,-880.033 1118.2,-890.336 1126.55,-883.822 1120.67,-880.033"/>
</g>
<!-- Node20&#45;&gt;Node7 -->
<g id="edge44" class="edge"><title>Node20&#45;&gt;Node7</title>
<path fill="none" stroke="midnightblue" d="M871.914,-800.72C929.44,-784.019 993.714,-765.309 994,-765 1029.32,-726.846 1018,-702.495 1018,-650.5 1018,-650.5 1018,-650.5 1018,-203.5 1018,-88.6764 868.206,-46.424 764.052,-30.9235"/>
<polygon fill="midnightblue" stroke="midnightblue" points="870.64,-797.446 862.012,-803.594 872.591,-804.168 870.64,-797.446"/>
</g>
<!-- Node20&#45;&gt;Node8 -->
<g id="edge45" class="edge"><title>Node20&#45;&gt;Node8</title>
<path fill="none" stroke="midnightblue" d="M868.805,-797.965C903.736,-785.495 937.125,-772.113 942,-765 993.133,-690.397 942,-651.944 942,-561.5 942,-561.5 942,-561.5 942,-292.5 942,-165.24 514.262,-67.0132 350.101,-34.001"/>
<polygon fill="midnightblue" stroke="midnightblue" points="867.197,-794.821 858.934,-801.452 869.529,-801.421 867.197,-794.821"/>
</g>
<!-- Node20&#45;&gt;Node10 -->
<g id="edge41" class="edge"><title>Node20&#45;&gt;Node10</title>
<path fill="none" stroke="midnightblue" d="M869.045,-797.579C893.713,-787.453 915.889,-775.89 923,-765 935.878,-745.277 935.406,-732.024 923,-712 826.688,-556.553 697.499,-662.617 531,-587 434.672,-543.252 344.516,-452.764 304.177,-408.705"/>
<polygon fill="midnightblue" stroke="midnightblue" points="867.489,-794.431 859.495,-801.385 870.08,-800.934 867.489,-794.431"/>
</g>
<!-- Node20&#45;&gt;Node21 -->
<g id="edge42" class="edge"><title>Node20&#45;&gt;Node21</title>
<path fill="none" stroke="midnightblue" d="M797.647,-792.061C801.544,-782.896 805.681,-773.169 809.322,-764.607"/>
<polygon fill="midnightblue" stroke="midnightblue" points="794.395,-790.764 793.702,-801.336 800.836,-793.503 794.395,-790.764"/>
</g>
<!-- Node21&#45;&gt;Node12 -->
<g id="edge43" class="edge"><title>Node21&#45;&gt;Node12</title>
<path fill="none" stroke="midnightblue" d="M755.882,-708.295C732.547,-697.665 706.399,-685.755 683.931,-675.521"/>
<polygon fill="midnightblue" stroke="midnightblue" points="754.46,-711.493 765.011,-712.453 757.362,-705.122 754.46,-711.493"/>
</g>
<!-- Node22&#45;&gt;Node14 -->
<g id="edge50" class="edge"><title>Node22&#45;&gt;Node14</title>
<path fill="none" stroke="midnightblue" d="M1007.94,-884.692C1019.59,-876.451 1030.08,-866.314 1037,-854 1048.54,-833.464 1045.5,-822.968 1037,-801 1018.73,-753.779 847.042,-582.881 777,-534 756.579,-519.748 732.33,-507.359 710.223,-497.509"/>
<polygon fill="midnightblue" stroke="midnightblue" points="1005.73,-881.953 999.285,-890.362 1009.57,-887.808 1005.73,-881.953"/>
</g>
<!-- Node22&#45;&gt;Node20 -->
<g id="edge47" class="edge"><title>Node22&#45;&gt;Node20</title>
<path fill="none" stroke="midnightblue" d="M882.983,-885.353C864.769,-874.996 844.588,-863.521 827.154,-853.607"/>
<polygon fill="midnightblue" stroke="midnightblue" points="881.323,-888.435 891.746,-890.336 884.783,-882.35 881.323,-888.435"/>
</g>
<!-- Node23 -->
<g id="node23" class="node"><title>Node23</title>
<g id="a_node23"><a xlink:href="ETN__util_8h.html" target="_top" xlink:title="/home/travis/build\l/hypro/hypro/src/hypro\l/datastructures/reachability\l/timing/ETN_util.h">
<polygon fill="white" stroke="black" points="880,-801.5 880,-853.5 1028,-853.5 1028,-801.5 880,-801.5"/>
<text text-anchor="start" x="888" y="-841.5" font-family="Helvetica,sans-Serif" font-size="10.00">/home/travis/build</text>
<text text-anchor="start" x="888" y="-830.5" font-family="Helvetica,sans-Serif" font-size="10.00">/hypro/hypro/src/hypro</text>
<text text-anchor="start" x="888" y="-819.5" font-family="Helvetica,sans-Serif" font-size="10.00">/datastructures/reachability</text>
<text text-anchor="middle" x="954" y="-808.5" font-family="Helvetica,sans-Serif" font-size="10.00">/timing/ETN_util.h</text>
</a>
</g>
</g>
<!-- Node22&#45;&gt;Node23 -->
<g id="edge48" class="edge"><title>Node22&#45;&gt;Node23</title>
<path fill="none" stroke="midnightblue" d="M936.663,-880.191C938.27,-871.282 940.364,-861.899 942.623,-853.607"/>
<polygon fill="midnightblue" stroke="midnightblue" points="933.164,-879.905 935.02,-890.336 940.074,-881.024 933.164,-879.905"/>
</g>
<!-- Node23&#45;&gt;Node22 -->
<g id="edge49" class="edge"><title>Node23&#45;&gt;Node22</title>
<path fill="none" stroke="midnightblue" d="M953.348,-863.749C951.744,-872.655 949.65,-882.04 947.392,-890.336"/>
<polygon fill="midnightblue" stroke="midnightblue" points="956.847,-864.038 954.988,-853.607 949.936,-862.921 956.847,-864.038"/>
</g>
<!-- Node24&#45;&gt;Node1 -->
<g id="edge54" class="edge"><title>Node24&#45;&gt;Node1</title>
<path fill="none" stroke="midnightblue" d="M1049.64,-1041.75C1049.88,-1050.65 1049.73,-1060.04 1049.19,-1068.34"/>
<polygon fill="midnightblue" stroke="midnightblue" points="1053.13,-1041.44 1049.18,-1031.61 1046.14,-1041.76 1053.13,-1041.44"/>
</g>
</g>
</svg>
        <g id="navigator" transform="translate(0 0)" fill="#404254">
                <rect fill="#f2f5e9" fill-opacity="0.5" stroke="#606060" stroke-width=".5" x="0" y="0" width="60" height="60"/>
                <use id="zoomplus" xlink:href="#zoomPlus" x="17" y="9" onmousedown="handleZoom(evt,'in')"/>
                <use id="zoomminus" xlink:href="#zoomMin" x="42" y="9" onmousedown="handleZoom(evt,'out')"/>
                <use id="reset" xlink:href="#resetDef" x="30" y="36" onmousedown="handleReset()"/>
                <g id="arrowUp" xlink:href="#dirArrow" transform="translate(30 24)" onmousedown="handlePan(0,-1)">
                  <use xlink:href="#rim" fill="#404040">
                        <set attributeName="fill" to="#808080" begin="arrowUp.mouseover" end="arrowUp.mouseout"/>
                  </use>
                  <path fill="none" stroke="white" stroke-width="1.5" d="M0,-3.0v7 M-2.5,-0.5L0,-3.0L2.5,-0.5"/>
                </g>
                <g id="arrowRight" xlink:href="#dirArrow" transform="rotate(90) translate(36 -43)" onmousedown="handlePan(1,0)">
                  <use xlink:href="#rim" fill="#404040">
                        <set attributeName="fill" to="#808080" begin="arrowRight.mouseover" end="arrowRight.mouseout"/>
                  </use>
                  <path fill="none" stroke="white" stroke-width="1.5" d="M0,-3.0v7 M-2.5,-0.5L0,-3.0L2.5,-0.5"/>
                </g>
                <g id="arrowDown" xlink:href="#dirArrow" transform="rotate(180) translate(-30 -48)" onmousedown="handlePan(0,1)">
                  <use xlink:href="#rim" fill="#404040">
                        <set attributeName="fill" to="#808080" begin="arrowDown.mouseover" end="arrowDown.mouseout"/>
                  </use>
                  <path fill="none" stroke="white" stroke-width="1.5" d="M0,-3.0v7 M-2.5,-0.5L0,-3.0L2.5,-0.5"/>
                </g>
                <g id="arrowLeft" xlink:href="#dirArrow" transform="rotate(270) translate(-36 17)" onmousedown="handlePan(-1,0)">
                  <use xlink:href="#rim" fill="#404040">
                        <set attributeName="fill" to="#808080" begin="arrowLeft.mouseover" end="arrowLeft.mouseout"/>
                  </use>
                  <path fill="none" stroke="white" stroke-width="1.5" d="M0,-3.0v7 M-2.5,-0.5L0,-3.0L2.5,-0.5"/>
                </g>
        </g>
        <svg viewBox="0 0 15 15" width="100%" height="30px" preserveAspectRatio="xMaxYMin meet">
         <g id="arrow_out" transform="scale(0.3 0.3)">
          <a xlink:href="HierarchicalIntervalVector_8h__dep__incl_org.svg" target="_base">
           <rect id="button" ry="5" rx="5" y="6" x="6" height="38" width="38"
                fill="#f2f5e9" fill-opacity="0.5" stroke="#606060" stroke-width="1.0"/>
           <path id="arrow"
             d="M 11.500037,31.436501 C 11.940474,20.09759 22.043105,11.32322 32.158766,21.979434 L 37.068811,17.246167 C 37.068811,17.246167 37.088388,32 37.088388,32 L 22.160133,31.978069 C 22.160133,31.978069 26.997745,27.140456 26.997745,27.140456 C 18.528582,18.264221 13.291696,25.230495 11.500037,31.436501 z"
             style="fill:#404040;"/>
          </a>
         </g>
        </svg>
</svg>
