<?xml version="1.0" encoding="UTF-8" standalone="no"?>
<!DOCTYPE svg PUBLIC "-//W3C//DTD SVG 1.1//EN"
 "http://www.w3.org/Graphics/SVG/1.1/DTD/svg11.dtd">
<!-- Generated by graphviz version 2.38.0 (20140413.2041)
 -->
<!-- Title: /home/travis/build/hypro/hypro/src/hypro/parser/antlr4&#45;flowstar/HybridAutomatonBaseVisitor.h Pages: 1 -->
<svg width="845pt" height="417pt"
 viewBox="0.00 0.00 845.00 417.00" xmlns="http://www.w3.org/2000/svg" xmlns:xlink="http://www.w3.org/1999/xlink">
<g id="graph0" class="graph" transform="scale(1 1) rotate(0) translate(4 413)">
<title>/home/travis/build/hypro/hypro/src/hypro/parser/antlr4&#45;flowstar/HybridAutomatonBaseVisitor.h</title>
<polygon fill="white" stroke="none" points="-4,4 -4,-413 841,-413 841,4 -4,4"/>
<!-- Node1 -->
<g id="node1" class="node"><title>Node1</title>
<polygon fill="#bfbfbf" stroke="black" points="316.5,-356.5 316.5,-408.5 483.5,-408.5 483.5,-356.5 316.5,-356.5"/>
<text text-anchor="start" x="324.5" y="-396.5" font-family="Helvetica,sans-Serif" font-size="10.00">/home/travis/build</text>
<text text-anchor="start" x="324.5" y="-385.5" font-family="Helvetica,sans-Serif" font-size="10.00">/hypro/hypro/src/hypro</text>
<text text-anchor="start" x="324.5" y="-374.5" font-family="Helvetica,sans-Serif" font-size="10.00">/parser/antlr4&#45;flowstar</text>
<text text-anchor="middle" x="400" y="-363.5" font-family="Helvetica,sans-Serif" font-size="10.00">/HybridAutomatonBaseVisitor.h</text>
</g>
<!-- Node2 -->
<g id="node2" class="node"><title>Node2</title>
<g id="a_node2"><a xlink:href="HybridAutomatonBaseVisitor_8cpp.html" target="_top" xlink:title="/home/travis/build\l/hypro/hypro/src/hypro\l/parser/antlr4&#45;flowstar\l/HybridAutomatonBaseVisitor.cpp">
<polygon fill="white" stroke="black" points="0,-267.5 0,-319.5 178,-319.5 178,-267.5 0,-267.5"/>
<text text-anchor="start" x="8" y="-307.5" font-family="Helvetica,sans-Serif" font-size="10.00">/home/travis/build</text>
<text text-anchor="start" x="8" y="-296.5" font-family="Helvetica,sans-Serif" font-size="10.00">/hypro/hypro/src/hypro</text>
<text text-anchor="start" x="8" y="-285.5" font-family="Helvetica,sans-Serif" font-size="10.00">/parser/antlr4&#45;flowstar</text>
<text text-anchor="middle" x="89" y="-274.5" font-family="Helvetica,sans-Serif" font-size="10.00">/HybridAutomatonBaseVisitor.cpp</text>
</a>
</g>
</g>
<!-- Node1&#45;&gt;Node2 -->
<g id="edge1" class="edge"><title>Node1&#45;&gt;Node2</title>
<path fill="none" stroke="midnightblue" d="M306.589,-355.369C265.851,-343.973 218.309,-330.673 178.074,-319.418"/>
<polygon fill="midnightblue" stroke="midnightblue" points="305.675,-358.748 316.249,-358.071 307.561,-352.006 305.675,-358.748"/>
</g>
<!-- Node3 -->
<g id="node3" class="node"><title>Node3</title>
<g id="a_node3"><a xlink:href="HyproBadStatesVisitor_8h.html" target="_top" xlink:title="/home/travis/build\l/hypro/hypro/src/hypro\l/parser/antlr4&#45;flowstar\l/HyproBadStatesVisitor.h">
<polygon fill="white" stroke="black" points="234.5,-267.5 234.5,-319.5 371.5,-319.5 371.5,-267.5 234.5,-267.5"/>
<text text-anchor="start" x="242.5" y="-307.5" font-family="Helvetica,sans-Serif" font-size="10.00">/home/travis/build</text>
<text text-anchor="start" x="242.5" y="-296.5" font-family="Helvetica,sans-Serif" font-size="10.00">/hypro/hypro/src/hypro</text>
<text text-anchor="start" x="242.5" y="-285.5" font-family="Helvetica,sans-Serif" font-size="10.00">/parser/antlr4&#45;flowstar</text>
<text text-anchor="middle" x="303" y="-274.5" font-family="Helvetica,sans-Serif" font-size="10.00">/HyproBadStatesVisitor.h</text>
</a>
</g>
</g>
<!-- Node1&#45;&gt;Node3 -->
<g id="edge2" class="edge"><title>Node1&#45;&gt;Node3</title>
<path fill="none" stroke="midnightblue" d="M364.488,-349.649C353.45,-339.749 341.443,-328.98 330.993,-319.607"/>
<polygon fill="midnightblue" stroke="midnightblue" points="362.162,-352.265 371.944,-356.336 366.836,-347.054 362.162,-352.265"/>
</g>
<!-- Node4 -->
<g id="node4" class="node"><title>Node4</title>
<g id="a_node4"><a xlink:href="HyproHAVisitor_8h.html" target="_top" xlink:title="/home/travis/build\l/hypro/hypro/src/hypro\l/parser/antlr4&#45;flowstar\l/HyproHAVisitor.h">
<polygon fill="white" stroke="black" points="349,-89.5 349,-141.5 473,-141.5 473,-89.5 349,-89.5"/>
<text text-anchor="start" x="357" y="-129.5" font-family="Helvetica,sans-Serif" font-size="10.00">/home/travis/build</text>
<text text-anchor="start" x="357" y="-118.5" font-family="Helvetica,sans-Serif" font-size="10.00">/hypro/hypro/src/hypro</text>
<text text-anchor="start" x="357" y="-107.5" font-family="Helvetica,sans-Serif" font-size="10.00">/parser/antlr4&#45;flowstar</text>
<text text-anchor="middle" x="411" y="-96.5" font-family="Helvetica,sans-Serif" font-size="10.00">/HyproHAVisitor.h</text>
</a>
</g>
</g>
<!-- Node1&#45;&gt;Node4 -->
<g id="edge14" class="edge"><title>Node1&#45;&gt;Node4</title>
<path fill="none" stroke="midnightblue" d="M306.376,-370.483C275.327,-361.864 243.899,-346.674 225,-320 211.382,-300.78 221.543,-290.301 225,-267 231.066,-226.112 223.88,-208.297 252,-178 277.268,-150.775 315.974,-135.463 348.87,-126.926"/>
<polygon fill="midnightblue" stroke="midnightblue" points="305.872,-373.967 316.427,-373.057 307.608,-367.186 305.872,-373.967"/>
</g>
<!-- Node6 -->
<g id="node6" class="node"><title>Node6</title>
<g id="a_node6"><a xlink:href="HyproFormulaVisitor_8h.html" target="_top" xlink:title="/home/travis/build\l/hypro/hypro/src/hypro\l/parser/antlr4&#45;flowstar\l/HyproFormulaVisitor.h">
<polygon fill="white" stroke="black" points="428.5,-267.5 428.5,-319.5 553.5,-319.5 553.5,-267.5 428.5,-267.5"/>
<text text-anchor="start" x="436.5" y="-307.5" font-family="Helvetica,sans-Serif" font-size="10.00">/home/travis/build</text>
<text text-anchor="start" x="436.5" y="-296.5" font-family="Helvetica,sans-Serif" font-size="10.00">/hypro/hypro/src/hypro</text>
<text text-anchor="start" x="436.5" y="-285.5" font-family="Helvetica,sans-Serif" font-size="10.00">/parser/antlr4&#45;flowstar</text>
<text text-anchor="middle" x="491" y="-274.5" font-family="Helvetica,sans-Serif" font-size="10.00">/HyproFormulaVisitor.h</text>
</a>
</g>
</g>
<!-- Node1&#45;&gt;Node6 -->
<g id="edge5" class="edge"><title>Node1&#45;&gt;Node6</title>
<path fill="none" stroke="midnightblue" d="M433.614,-349.363C443.887,-339.542 455.029,-328.89 464.738,-319.607"/>
<polygon fill="midnightblue" stroke="midnightblue" points="431.13,-346.896 426.321,-356.336 435.968,-351.955 431.13,-346.896"/>
</g>
<!-- Node8 -->
<g id="node8" class="node"><title>Node8</title>
<g id="a_node8"><a xlink:href="HyproTransitionVisitor_8h.html" target="_top" xlink:title="/home/travis/build\l/hypro/hypro/src/hypro\l/parser/antlr4&#45;flowstar\l/HyproTransitionVisitor.h">
<polygon fill="white" stroke="black" points="272.5,-178.5 272.5,-230.5 403.5,-230.5 403.5,-178.5 272.5,-178.5"/>
<text text-anchor="start" x="280.5" y="-218.5" font-family="Helvetica,sans-Serif" font-size="10.00">/home/travis/build</text>
<text text-anchor="start" x="280.5" y="-207.5" font-family="Helvetica,sans-Serif" font-size="10.00">/hypro/hypro/src/hypro</text>
<text text-anchor="start" x="280.5" y="-196.5" font-family="Helvetica,sans-Serif" font-size="10.00">/parser/antlr4&#45;flowstar</text>
<text text-anchor="middle" x="338" y="-185.5" font-family="Helvetica,sans-Serif" font-size="10.00">/HyproTransitionVisitor.h</text>
</a>
</g>
</g>
<!-- Node1&#45;&gt;Node8 -->
<g id="edge15" class="edge"><title>Node1&#45;&gt;Node8</title>
<path fill="none" stroke="midnightblue" d="M398.178,-345.968C396.016,-322.779 391.296,-292.24 381,-267 375.735,-254.093 367.359,-241.231 359.393,-230.632"/>
<polygon fill="midnightblue" stroke="midnightblue" points="394.7,-346.377 399.002,-356.059 401.677,-345.807 394.7,-346.377"/>
</g>
<!-- Node9 -->
<g id="node9" class="node"><title>Node9</title>
<g id="a_node9"><a xlink:href="HyproInitialSetVisitor_8h.html" target="_top" xlink:title="/home/travis/build\l/hypro/hypro/src/hypro\l/parser/antlr4&#45;flowstar\l/HyproInitialSetVisitor.h">
<polygon fill="white" stroke="black" points="567,-178.5 567,-230.5 695,-230.5 695,-178.5 567,-178.5"/>
<text text-anchor="start" x="575" y="-218.5" font-family="Helvetica,sans-Serif" font-size="10.00">/home/travis/build</text>
<text text-anchor="start" x="575" y="-207.5" font-family="Helvetica,sans-Serif" font-size="10.00">/hypro/hypro/src/hypro</text>
<text text-anchor="start" x="575" y="-196.5" font-family="Helvetica,sans-Serif" font-size="10.00">/parser/antlr4&#45;flowstar</text>
<text text-anchor="middle" x="631" y="-185.5" font-family="Helvetica,sans-Serif" font-size="10.00">/HyproInitialSetVisitor.h</text>
</a>
</g>
</g>
<!-- Node1&#45;&gt;Node9 -->
<g id="edge16" class="edge"><title>Node1&#45;&gt;Node9</title>
<path fill="none" stroke="midnightblue" d="M493.369,-358.434C517.835,-349.288 542.95,-336.814 563,-320 591.699,-295.934 611.306,-256.474 621.836,-230.742"/>
<polygon fill="midnightblue" stroke="midnightblue" points="491.91,-355.238 483.673,-361.903 494.268,-361.829 491.91,-355.238"/>
</g>
<!-- Node10 -->
<g id="node10" class="node"><title>Node10</title>
<g id="a_node10"><a xlink:href="HyproSettingVisitor_8h.html" target="_top" xlink:title="/home/travis/build\l/hypro/hypro/src/hypro\l/parser/antlr4&#45;flowstar\l/HyproSettingVisitor.h">
<polygon fill="white" stroke="black" points="713,-178.5 713,-230.5 837,-230.5 837,-178.5 713,-178.5"/>
<text text-anchor="start" x="721" y="-218.5" font-family="Helvetica,sans-Serif" font-size="10.00">/home/travis/build</text>
<text text-anchor="start" x="721" y="-207.5" font-family="Helvetica,sans-Serif" font-size="10.00">/hypro/hypro/src/hypro</text>
<text text-anchor="start" x="721" y="-196.5" font-family="Helvetica,sans-Serif" font-size="10.00">/parser/antlr4&#45;flowstar</text>
<text text-anchor="middle" x="775" y="-185.5" font-family="Helvetica,sans-Serif" font-size="10.00">/HyproSettingVisitor.h</text>
</a>
</g>
</g>
<!-- Node1&#45;&gt;Node10 -->
<g id="edge17" class="edge"><title>Node1&#45;&gt;Node10</title>
<path fill="none" stroke="midnightblue" d="M493.573,-357.886C526.953,-348.015 564.354,-335.254 597,-320 650.763,-294.879 707.533,-255.885 742.12,-230.519"/>
<polygon fill="midnightblue" stroke="midnightblue" points="492.438,-354.571 483.814,-360.725 494.393,-361.293 492.438,-354.571"/>
</g>
<!-- Node3&#45;&gt;Node4 -->
<g id="edge3" class="edge"><title>Node3&#45;&gt;Node4</title>
<path fill="none" stroke="midnightblue" d="M275.965,-258.749C260.272,-234.794 246.552,-202.646 263,-178 282.152,-149.301 317.474,-133.976 348.808,-125.801"/>
<polygon fill="midnightblue" stroke="midnightblue" points="273.221,-260.935 281.783,-267.174 278.981,-256.957 273.221,-260.935"/>
</g>
<!-- Node5 -->
<g id="node5" class="node"><title>Node5</title>
<g id="a_node5"><a xlink:href="ParserWrapper_8cpp.html" target="_top" xlink:title="/home/travis/build\l/hypro/hypro/src/hypro\l/parser/antlr4&#45;flowstar\l/ParserWrapper.cpp">
<polygon fill="white" stroke="black" points="349,-0.5 349,-52.5 473,-52.5 473,-0.5 349,-0.5"/>
<text text-anchor="start" x="357" y="-40.5" font-family="Helvetica,sans-Serif" font-size="10.00">/home/travis/build</text>
<text text-anchor="start" x="357" y="-29.5" font-family="Helvetica,sans-Serif" font-size="10.00">/hypro/hypro/src/hypro</text>
<text text-anchor="start" x="357" y="-18.5" font-family="Helvetica,sans-Serif" font-size="10.00">/parser/antlr4&#45;flowstar</text>
<text text-anchor="middle" x="411" y="-7.5" font-family="Helvetica,sans-Serif" font-size="10.00">/ParserWrapper.cpp</text>
</a>
</g>
</g>
<!-- Node4&#45;&gt;Node5 -->
<g id="edge4" class="edge"><title>Node4&#45;&gt;Node5</title>
<path fill="none" stroke="midnightblue" d="M411,-79.1908C411,-70.2824 411,-60.8986 411,-52.6075"/>
<polygon fill="midnightblue" stroke="midnightblue" points="407.5,-79.336 411,-89.336 414.5,-79.336 407.5,-79.336"/>
</g>
<!-- Node7 -->
<g id="node7" class="node"><title>Node7</title>
<g id="a_node7"><a xlink:href="HyproLocationVisitor_8h.html" target="_top" xlink:title="/home/travis/build\l/hypro/hypro/src/hypro\l/parser/antlr4&#45;flowstar\l/HyproLocationVisitor.h">
<polygon fill="white" stroke="black" points="421.5,-178.5 421.5,-230.5 548.5,-230.5 548.5,-178.5 421.5,-178.5"/>
<text text-anchor="start" x="429.5" y="-218.5" font-family="Helvetica,sans-Serif" font-size="10.00">/home/travis/build</text>
<text text-anchor="start" x="429.5" y="-207.5" font-family="Helvetica,sans-Serif" font-size="10.00">/hypro/hypro/src/hypro</text>
<text text-anchor="start" x="429.5" y="-196.5" font-family="Helvetica,sans-Serif" font-size="10.00">/parser/antlr4&#45;flowstar</text>
<text text-anchor="middle" x="485" y="-185.5" font-family="Helvetica,sans-Serif" font-size="10.00">/HyproLocationVisitor.h</text>
</a>
</g>
</g>
<!-- Node6&#45;&gt;Node7 -->
<g id="edge6" class="edge"><title>Node6&#45;&gt;Node7</title>
<path fill="none" stroke="midnightblue" d="M488.565,-257.191C487.951,-248.282 487.303,-238.899 486.732,-230.607"/>
<polygon fill="midnightblue" stroke="midnightblue" points="485.085,-257.601 489.265,-267.336 492.068,-257.119 485.085,-257.601"/>
</g>
<!-- Node6&#45;&gt;Node8 -->
<g id="edge8" class="edge"><title>Node6&#45;&gt;Node8</title>
<path fill="none" stroke="midnightblue" d="M437.983,-262.353C419.769,-251.996 399.588,-240.521 382.154,-230.607"/>
<polygon fill="midnightblue" stroke="midnightblue" points="436.323,-265.435 446.746,-267.336 439.783,-259.35 436.323,-265.435"/>
</g>
<!-- Node6&#45;&gt;Node9 -->
<g id="edge10" class="edge"><title>Node6&#45;&gt;Node9</title>
<path fill="none" stroke="midnightblue" d="M540.423,-261.787C556.849,-251.579 574.935,-240.341 590.597,-230.607"/>
<polygon fill="midnightblue" stroke="midnightblue" points="538.14,-259.085 531.494,-267.336 541.835,-265.031 538.14,-259.085"/>
</g>
<!-- Node6&#45;&gt;Node10 -->
<g id="edge12" class="edge"><title>Node6&#45;&gt;Node10</title>
<path fill="none" stroke="midnightblue" d="M563.484,-272.808C604.847,-261.262 657.554,-246.029 704,-231 706.866,-230.073 709.79,-229.106 712.739,-228.115"/>
<polygon fill="midnightblue" stroke="midnightblue" points="562.46,-269.459 553.764,-275.511 564.336,-276.203 562.46,-269.459"/>
</g>
<!-- Node7&#45;&gt;Node4 -->
<g id="edge7" class="edge"><title>Node7&#45;&gt;Node4</title>
<path fill="none" stroke="midnightblue" d="M456.933,-170.503C448.785,-160.923 440.021,-150.62 432.356,-141.607"/>
<polygon fill="midnightblue" stroke="midnightblue" points="454.451,-172.986 463.596,-178.336 459.783,-168.451 454.451,-172.986"/>
</g>
<!-- Node8&#45;&gt;Node4 -->
<g id="edge9" class="edge"><title>Node8&#45;&gt;Node4</title>
<path fill="none" stroke="midnightblue" d="M365.687,-170.503C373.726,-160.923 382.371,-150.62 389.933,-141.607"/>
<polygon fill="midnightblue" stroke="midnightblue" points="362.861,-168.426 359.115,-178.336 368.224,-172.925 362.861,-168.426"/>
</g>
<!-- Node9&#45;&gt;Node4 -->
<g id="edge11" class="edge"><title>Node9&#45;&gt;Node4</title>
<path fill="none" stroke="midnightblue" d="M558.091,-174.668C530.581,-163.789 499.566,-151.524 473.132,-141.071"/>
<polygon fill="midnightblue" stroke="midnightblue" points="557.076,-178.03 567.662,-178.453 559.65,-171.52 557.076,-178.03"/>
</g>
<!-- Node10&#45;&gt;Node4 -->
<g id="edge13" class="edge"><title>Node10&#45;&gt;Node4</title>
<path fill="none" stroke="midnightblue" d="M703.063,-177.878C618.531,-154.404 530.559,-137.225 473.052,-126.956"/>
<polygon fill="midnightblue" stroke="midnightblue" points="702.246,-181.283 712.82,-180.62 704.139,-174.544 702.246,-181.283"/>
</g>
</g>
</svg>
