<?xml version="1.0" encoding="UTF-8" standalone="no"?>
<!DOCTYPE svg PUBLIC "-//W3C//DTD SVG 1.1//EN"
 "http://www.w3.org/Graphics/SVG/1.1/DTD/svg11.dtd">
<!-- Generated by graphviz version 2.38.0 (20140413.2041)
 -->
<!-- Title: /home/travis/build/hypro/hypro/src/hypro/parser/antlr4&#45;flowstar/HybridAutomatonParser.h Pages: 1 -->
<svg width="895pt" height="595pt"
 viewBox="0.00 0.00 895.00 595.00" xmlns="http://www.w3.org/2000/svg" xmlns:xlink="http://www.w3.org/1999/xlink">
<g id="graph0" class="graph" transform="scale(1 1) rotate(0) translate(4 591)">
<title>/home/travis/build/hypro/hypro/src/hypro/parser/antlr4&#45;flowstar/HybridAutomatonParser.h</title>
<polygon fill="white" stroke="none" points="-4,4 -4,-591 891,-591 891,4 -4,4"/>
<!-- Node1 -->
<g id="node1" class="node"><title>Node1</title>
<polygon fill="#bfbfbf" stroke="black" points="181.5,-534.5 181.5,-586.5 324.5,-586.5 324.5,-534.5 181.5,-534.5"/>
<text text-anchor="start" x="189.5" y="-574.5" font-family="Helvetica,sans-Serif" font-size="10.00">/home/travis/build</text>
<text text-anchor="start" x="189.5" y="-563.5" font-family="Helvetica,sans-Serif" font-size="10.00">/hypro/hypro/src/hypro</text>
<text text-anchor="start" x="189.5" y="-552.5" font-family="Helvetica,sans-Serif" font-size="10.00">/parser/antlr4&#45;flowstar</text>
<text text-anchor="middle" x="253" y="-541.5" font-family="Helvetica,sans-Serif" font-size="10.00">/HybridAutomatonParser.h</text>
</g>
<!-- Node2 -->
<g id="node2" class="node"><title>Node2</title>
<g id="a_node2"><a xlink:href="HybridAutomatonVisitor_8h.html" target="_top" xlink:title="/home/travis/build\l/hypro/hypro/src/hypro\l/parser/antlr4&#45;flowstar\l/HybridAutomatonVisitor.h">
<polygon fill="white" stroke="black" points="298.5,-445.5 298.5,-497.5 441.5,-497.5 441.5,-445.5 298.5,-445.5"/>
<text text-anchor="start" x="306.5" y="-485.5" font-family="Helvetica,sans-Serif" font-size="10.00">/home/travis/build</text>
<text text-anchor="start" x="306.5" y="-474.5" font-family="Helvetica,sans-Serif" font-size="10.00">/hypro/hypro/src/hypro</text>
<text text-anchor="start" x="306.5" y="-463.5" font-family="Helvetica,sans-Serif" font-size="10.00">/parser/antlr4&#45;flowstar</text>
<text text-anchor="middle" x="370" y="-452.5" font-family="Helvetica,sans-Serif" font-size="10.00">/HybridAutomatonVisitor.h</text>
</a>
</g>
</g>
<!-- Node1&#45;&gt;Node2 -->
<g id="edge1" class="edge"><title>Node1&#45;&gt;Node2</title>
<path fill="none" stroke="midnightblue" d="M295.067,-528.219C308.59,-518.164 323.388,-507.16 336.235,-497.607"/>
<polygon fill="midnightblue" stroke="midnightblue" points="292.777,-525.56 286.841,-534.336 296.954,-531.178 292.777,-525.56"/>
</g>
<!-- Node6 -->
<g id="node6" class="node"><title>Node6</title>
<g id="a_node6"><a xlink:href="HyproHAVisitor_8h.html" target="_top" xlink:title="/home/travis/build\l/hypro/hypro/src/hypro\l/parser/antlr4&#45;flowstar\l/HyproHAVisitor.h">
<polygon fill="white" stroke="black" points="371,-89.5 371,-141.5 495,-141.5 495,-89.5 371,-89.5"/>
<text text-anchor="start" x="379" y="-129.5" font-family="Helvetica,sans-Serif" font-size="10.00">/home/travis/build</text>
<text text-anchor="start" x="379" y="-118.5" font-family="Helvetica,sans-Serif" font-size="10.00">/hypro/hypro/src/hypro</text>
<text text-anchor="start" x="379" y="-107.5" font-family="Helvetica,sans-Serif" font-size="10.00">/parser/antlr4&#45;flowstar</text>
<text text-anchor="middle" x="433" y="-96.5" font-family="Helvetica,sans-Serif" font-size="10.00">/HyproHAVisitor.h</text>
</a>
</g>
</g>
<!-- Node1&#45;&gt;Node6 -->
<g id="edge24" class="edge"><title>Node1&#45;&gt;Node6</title>
<path fill="none" stroke="midnightblue" d="M334.787,-553.994C506.118,-540.213 887,-496.831 887,-383.5 887,-383.5 887,-383.5 887,-292.5 887,-221.002 837.245,-211.346 774,-178 684.868,-131.005 566.39,-119.179 495.126,-116.619"/>
<polygon fill="midnightblue" stroke="midnightblue" points="334.496,-550.506 324.803,-554.783 335.047,-557.485 334.496,-550.506"/>
</g>
<!-- Node7 -->
<g id="node7" class="node"><title>Node7</title>
<g id="a_node7"><a xlink:href="ParserWrapper_8cpp.html" target="_top" xlink:title="/home/travis/build\l/hypro/hypro/src/hypro\l/parser/antlr4&#45;flowstar\l/ParserWrapper.cpp">
<polygon fill="white" stroke="black" points="154,-0.5 154,-52.5 278,-52.5 278,-0.5 154,-0.5"/>
<text text-anchor="start" x="162" y="-40.5" font-family="Helvetica,sans-Serif" font-size="10.00">/home/travis/build</text>
<text text-anchor="start" x="162" y="-29.5" font-family="Helvetica,sans-Serif" font-size="10.00">/hypro/hypro/src/hypro</text>
<text text-anchor="start" x="162" y="-18.5" font-family="Helvetica,sans-Serif" font-size="10.00">/parser/antlr4&#45;flowstar</text>
<text text-anchor="middle" x="216" y="-7.5" font-family="Helvetica,sans-Serif" font-size="10.00">/ParserWrapper.cpp</text>
</a>
</g>
</g>
<!-- Node1&#45;&gt;Node7 -->
<g id="edge28" class="edge"><title>Node1&#45;&gt;Node7</title>
<path fill="none" stroke="midnightblue" d="M171.371,-539.427C97.4337,-515.785 0,-468.504 0,-383.5 0,-383.5 0,-383.5 0,-203.5 0,-123.565 90.003,-73.4913 153.814,-48.0352"/>
<polygon fill="midnightblue" stroke="midnightblue" points="170.589,-542.849 181.177,-542.47 172.664,-536.163 170.589,-542.849"/>
</g>
<!-- Node8 -->
<g id="node8" class="node"><title>Node8</title>
<g id="a_node8"><a xlink:href="HyproFormulaVisitor_8h.html" target="_top" xlink:title="/home/travis/build\l/hypro/hypro/src/hypro\l/parser/antlr4&#45;flowstar\l/HyproFormulaVisitor.h">
<polygon fill="white" stroke="black" points="191.5,-267.5 191.5,-319.5 316.5,-319.5 316.5,-267.5 191.5,-267.5"/>
<text text-anchor="start" x="199.5" y="-307.5" font-family="Helvetica,sans-Serif" font-size="10.00">/home/travis/build</text>
<text text-anchor="start" x="199.5" y="-296.5" font-family="Helvetica,sans-Serif" font-size="10.00">/hypro/hypro/src/hypro</text>
<text text-anchor="start" x="199.5" y="-285.5" font-family="Helvetica,sans-Serif" font-size="10.00">/parser/antlr4&#45;flowstar</text>
<text text-anchor="middle" x="254" y="-274.5" font-family="Helvetica,sans-Serif" font-size="10.00">/HyproFormulaVisitor.h</text>
</a>
</g>
</g>
<!-- Node1&#45;&gt;Node8 -->
<g id="edge23" class="edge"><title>Node1&#45;&gt;Node8</title>
<path fill="none" stroke="midnightblue" d="M238.815,-524.968C224.019,-484.163 204.924,-414.43 220,-356 223.292,-343.242 229.858,-330.303 236.349,-319.606"/>
<polygon fill="midnightblue" stroke="midnightblue" points="235.581,-526.311 242.366,-534.449 242.136,-523.856 235.581,-526.311"/>
</g>
<!-- Node9 -->
<g id="node9" class="node"><title>Node9</title>
<g id="a_node9"><a xlink:href="HyproLocationVisitor_8h.html" target="_top" xlink:title="/home/travis/build\l/hypro/hypro/src/hypro\l/parser/antlr4&#45;flowstar\l/HyproLocationVisitor.h">
<polygon fill="white" stroke="black" points="28.5,-178.5 28.5,-230.5 155.5,-230.5 155.5,-178.5 28.5,-178.5"/>
<text text-anchor="start" x="36.5" y="-218.5" font-family="Helvetica,sans-Serif" font-size="10.00">/home/travis/build</text>
<text text-anchor="start" x="36.5" y="-207.5" font-family="Helvetica,sans-Serif" font-size="10.00">/hypro/hypro/src/hypro</text>
<text text-anchor="start" x="36.5" y="-196.5" font-family="Helvetica,sans-Serif" font-size="10.00">/parser/antlr4&#45;flowstar</text>
<text text-anchor="middle" x="92" y="-185.5" font-family="Helvetica,sans-Serif" font-size="10.00">/HyproLocationVisitor.h</text>
</a>
</g>
</g>
<!-- Node1&#45;&gt;Node9 -->
<g id="edge25" class="edge"><title>Node1&#45;&gt;Node9</title>
<path fill="none" stroke="midnightblue" d="M217.082,-527.232C208.682,-518.377 200.345,-508.347 194,-498 138.614,-407.683 108.068,-283.157 96.9306,-230.556"/>
<polygon fill="midnightblue" stroke="midnightblue" points="214.602,-529.702 224.111,-534.374 219.592,-524.792 214.602,-529.702"/>
</g>
<!-- Node11 -->
<g id="node11" class="node"><title>Node11</title>
<g id="a_node11"><a xlink:href="HyproInitialSetVisitor_8h.html" target="_top" xlink:title="/home/travis/build\l/hypro/hypro/src/hypro\l/parser/antlr4&#45;flowstar\l/HyproInitialSetVisitor.h">
<polygon fill="white" stroke="black" points="174,-178.5 174,-230.5 302,-230.5 302,-178.5 174,-178.5"/>
<text text-anchor="start" x="182" y="-218.5" font-family="Helvetica,sans-Serif" font-size="10.00">/home/travis/build</text>
<text text-anchor="start" x="182" y="-207.5" font-family="Helvetica,sans-Serif" font-size="10.00">/hypro/hypro/src/hypro</text>
<text text-anchor="start" x="182" y="-196.5" font-family="Helvetica,sans-Serif" font-size="10.00">/parser/antlr4&#45;flowstar</text>
<text text-anchor="middle" x="238" y="-185.5" font-family="Helvetica,sans-Serif" font-size="10.00">/HyproInitialSetVisitor.h</text>
</a>
</g>
</g>
<!-- Node1&#45;&gt;Node11 -->
<g id="edge26" class="edge"><title>Node1&#45;&gt;Node11</title>
<path fill="none" stroke="midnightblue" d="M228.971,-525.597C223.702,-516.923 218.623,-507.385 215,-498 186.026,-422.939 189.364,-400.121 182,-320 179.844,-296.543 173.497,-288.967 182,-267 187.317,-253.264 197.287,-240.711 207.358,-230.578"/>
<polygon fill="midnightblue" stroke="midnightblue" points="226.167,-527.71 234.478,-534.281 232.079,-523.961 226.167,-527.71"/>
</g>
<!-- Node12 -->
<g id="node12" class="node"><title>Node12</title>
<g id="a_node12"><a xlink:href="HyproSettingVisitor_8h.html" target="_top" xlink:title="/home/travis/build\l/hypro/hypro/src/hypro\l/parser/antlr4&#45;flowstar\l/HyproSettingVisitor.h">
<polygon fill="white" stroke="black" points="641,-178.5 641,-230.5 765,-230.5 765,-178.5 641,-178.5"/>
<text text-anchor="start" x="649" y="-218.5" font-family="Helvetica,sans-Serif" font-size="10.00">/home/travis/build</text>
<text text-anchor="start" x="649" y="-207.5" font-family="Helvetica,sans-Serif" font-size="10.00">/hypro/hypro/src/hypro</text>
<text text-anchor="start" x="649" y="-196.5" font-family="Helvetica,sans-Serif" font-size="10.00">/parser/antlr4&#45;flowstar</text>
<text text-anchor="middle" x="703" y="-185.5" font-family="Helvetica,sans-Serif" font-size="10.00">/HyproSettingVisitor.h</text>
</a>
</g>
</g>
<!-- Node1&#45;&gt;Node12 -->
<g id="edge27" class="edge"><title>Node1&#45;&gt;Node12</title>
<path fill="none" stroke="midnightblue" d="M334.723,-553.059C440.713,-540.933 626.596,-506.391 750,-409 803.919,-366.447 845.521,-326.383 811,-267 800.698,-249.279 783.17,-236.241 765.196,-226.851"/>
<polygon fill="midnightblue" stroke="midnightblue" points="334.275,-549.587 324.72,-554.164 335.044,-556.545 334.275,-549.587"/>
</g>
<!-- Node13 -->
<g id="node13" class="node"><title>Node13</title>
<g id="a_node13"><a xlink:href="HybridAutomatonParser_8cpp.html" target="_top" xlink:title="/home/travis/build\l/hypro/hypro/src/hypro\l/parser/antlr4&#45;flowstar\l/HybridAutomatonParser.cpp">
<polygon fill="white" stroke="black" points="587,-356.5 587,-408.5 741,-408.5 741,-356.5 587,-356.5"/>
<text text-anchor="start" x="595" y="-396.5" font-family="Helvetica,sans-Serif" font-size="10.00">/home/travis/build</text>
<text text-anchor="start" x="595" y="-385.5" font-family="Helvetica,sans-Serif" font-size="10.00">/hypro/hypro/src/hypro</text>
<text text-anchor="start" x="595" y="-374.5" font-family="Helvetica,sans-Serif" font-size="10.00">/parser/antlr4&#45;flowstar</text>
<text text-anchor="middle" x="664" y="-363.5" font-family="Helvetica,sans-Serif" font-size="10.00">/HybridAutomatonParser.cpp</text>
</a>
</g>
</g>
<!-- Node1&#45;&gt;Node13 -->
<g id="edge22" class="edge"><title>Node1&#45;&gt;Node13</title>
<path fill="none" stroke="midnightblue" d="M334.77,-537.733C370.679,-527.218 413,-513.51 450,-498 512.176,-471.936 580.226,-433.725 622.52,-408.733"/>
<polygon fill="midnightblue" stroke="midnightblue" points="333.453,-534.47 324.821,-540.613 335.4,-541.194 333.453,-534.47"/>
</g>
<!-- Node3 -->
<g id="node3" class="node"><title>Node3</title>
<g id="a_node3"><a xlink:href="HybridAutomatonBaseVisitor_8h.html" target="_top" xlink:title="/home/travis/build\l/hypro/hypro/src/hypro\l/parser/antlr4&#45;flowstar\l/HybridAutomatonBaseVisitor.h">
<polygon fill="white" stroke="black" points="401.5,-356.5 401.5,-408.5 568.5,-408.5 568.5,-356.5 401.5,-356.5"/>
<text text-anchor="start" x="409.5" y="-396.5" font-family="Helvetica,sans-Serif" font-size="10.00">/home/travis/build</text>
<text text-anchor="start" x="409.5" y="-385.5" font-family="Helvetica,sans-Serif" font-size="10.00">/hypro/hypro/src/hypro</text>
<text text-anchor="start" x="409.5" y="-374.5" font-family="Helvetica,sans-Serif" font-size="10.00">/parser/antlr4&#45;flowstar</text>
<text text-anchor="middle" x="485" y="-363.5" font-family="Helvetica,sans-Serif" font-size="10.00">/HybridAutomatonBaseVisitor.h</text>
</a>
</g>
</g>
<!-- Node2&#45;&gt;Node3 -->
<g id="edge2" class="edge"><title>Node2&#45;&gt;Node3</title>
<path fill="none" stroke="midnightblue" d="M411.348,-439.219C424.64,-429.164 439.185,-418.16 451.812,-408.607"/>
<polygon fill="midnightblue" stroke="midnightblue" points="409.126,-436.511 403.263,-445.336 413.349,-442.094 409.126,-436.511"/>
</g>
<!-- Node2&#45;&gt;Node13 -->
<g id="edge20" class="edge"><title>Node2&#45;&gt;Node13</title>
<path fill="none" stroke="midnightblue" d="M451.274,-446.45C493.66,-433.907 545.228,-418.647 586.975,-406.293"/>
<polygon fill="midnightblue" stroke="midnightblue" points="450.14,-443.135 441.545,-449.329 452.127,-449.847 450.14,-443.135"/>
</g>
<!-- Node14 -->
<g id="node14" class="node"><title>Node14</title>
<g id="a_node14"><a xlink:href="HybridAutomatonVisitor_8cpp.html" target="_top" xlink:title="/home/travis/build\l/hypro/hypro/src/hypro\l/parser/antlr4&#45;flowstar\l/HybridAutomatonVisitor.cpp">
<polygon fill="white" stroke="black" points="229,-356.5 229,-408.5 383,-408.5 383,-356.5 229,-356.5"/>
<text text-anchor="start" x="237" y="-396.5" font-family="Helvetica,sans-Serif" font-size="10.00">/home/travis/build</text>
<text text-anchor="start" x="237" y="-385.5" font-family="Helvetica,sans-Serif" font-size="10.00">/hypro/hypro/src/hypro</text>
<text text-anchor="start" x="237" y="-374.5" font-family="Helvetica,sans-Serif" font-size="10.00">/parser/antlr4&#45;flowstar</text>
<text text-anchor="middle" x="306" y="-363.5" font-family="Helvetica,sans-Serif" font-size="10.00">/HybridAutomatonVisitor.cpp</text>
</a>
</g>
</g>
<!-- Node2&#45;&gt;Node14 -->
<g id="edge21" class="edge"><title>Node2&#45;&gt;Node14</title>
<path fill="none" stroke="midnightblue" d="M345.515,-437.215C338.527,-427.717 331.033,-417.529 324.47,-408.607"/>
<polygon fill="midnightblue" stroke="midnightblue" points="342.744,-439.355 351.489,-445.336 348.382,-435.207 342.744,-439.355"/>
</g>
<!-- Node4 -->
<g id="node4" class="node"><title>Node4</title>
<g id="a_node4"><a xlink:href="HybridAutomatonBaseVisitor_8cpp.html" target="_top" xlink:title="/home/travis/build\l/hypro/hypro/src/hypro\l/parser/antlr4&#45;flowstar\l/HybridAutomatonBaseVisitor.cpp">
<polygon fill="white" stroke="black" points="605,-267.5 605,-319.5 783,-319.5 783,-267.5 605,-267.5"/>
<text text-anchor="start" x="613" y="-307.5" font-family="Helvetica,sans-Serif" font-size="10.00">/home/travis/build</text>
<text text-anchor="start" x="613" y="-296.5" font-family="Helvetica,sans-Serif" font-size="10.00">/hypro/hypro/src/hypro</text>
<text text-anchor="start" x="613" y="-285.5" font-family="Helvetica,sans-Serif" font-size="10.00">/parser/antlr4&#45;flowstar</text>
<text text-anchor="middle" x="694" y="-274.5" font-family="Helvetica,sans-Serif" font-size="10.00">/HybridAutomatonBaseVisitor.cpp</text>
</a>
</g>
</g>
<!-- Node3&#45;&gt;Node4 -->
<g id="edge3" class="edge"><title>Node3&#45;&gt;Node4</title>
<path fill="none" stroke="midnightblue" d="M554.483,-352.576C580.188,-341.876 609.089,-329.846 633.892,-319.521"/>
<polygon fill="midnightblue" stroke="midnightblue" points="553.058,-349.378 545.171,-356.453 555.748,-355.841 553.058,-349.378"/>
</g>
<!-- Node5 -->
<g id="node5" class="node"><title>Node5</title>
<g id="a_node5"><a xlink:href="HyproBadStatesVisitor_8h.html" target="_top" xlink:title="/home/travis/build\l/hypro/hypro/src/hypro\l/parser/antlr4&#45;flowstar\l/HyproBadStatesVisitor.h">
<polygon fill="white" stroke="black" points="449.5,-267.5 449.5,-319.5 586.5,-319.5 586.5,-267.5 449.5,-267.5"/>
<text text-anchor="start" x="457.5" y="-307.5" font-family="Helvetica,sans-Serif" font-size="10.00">/home/travis/build</text>
<text text-anchor="start" x="457.5" y="-296.5" font-family="Helvetica,sans-Serif" font-size="10.00">/hypro/hypro/src/hypro</text>
<text text-anchor="start" x="457.5" y="-285.5" font-family="Helvetica,sans-Serif" font-size="10.00">/parser/antlr4&#45;flowstar</text>
<text text-anchor="middle" x="518" y="-274.5" font-family="Helvetica,sans-Serif" font-size="10.00">/HyproBadStatesVisitor.h</text>
</a>
</g>
</g>
<!-- Node3&#45;&gt;Node5 -->
<g id="edge4" class="edge"><title>Node3&#45;&gt;Node5</title>
<path fill="none" stroke="midnightblue" d="M498.173,-346.771C501.617,-337.691 505.263,-328.079 508.476,-319.607"/>
<polygon fill="midnightblue" stroke="midnightblue" points="494.819,-345.745 494.545,-356.336 501.364,-348.227 494.819,-345.745"/>
</g>
<!-- Node3&#45;&gt;Node6 -->
<g id="edge16" class="edge"><title>Node3&#45;&gt;Node6</title>
<path fill="none" stroke="midnightblue" d="M454.809,-348.121C448.74,-339.533 443.236,-329.903 440,-320 432.683,-297.61 434.091,-289.802 440,-267 444.591,-249.282 455.409,-248.718 460,-231 465.909,-208.198 464.838,-201.053 460,-178 457.39,-165.561 452.107,-152.565 446.902,-141.742"/>
<polygon fill="midnightblue" stroke="midnightblue" points="452.188,-350.458 461.005,-356.333 457.776,-346.242 452.188,-350.458"/>
</g>
<!-- Node3&#45;&gt;Node8 -->
<g id="edge7" class="edge"><title>Node3&#45;&gt;Node8</title>
<path fill="none" stroke="midnightblue" d="M408.959,-352.861C379.12,-341.623 345.287,-328.881 316.864,-318.176"/>
<polygon fill="midnightblue" stroke="midnightblue" points="407.903,-356.204 418.495,-356.453 410.37,-349.653 407.903,-356.204"/>
</g>
<!-- Node10 -->
<g id="node10" class="node"><title>Node10</title>
<g id="a_node10"><a xlink:href="HyproTransitionVisitor_8h.html" target="_top" xlink:title="/home/travis/build\l/hypro/hypro/src/hypro\l/parser/antlr4&#45;flowstar\l/HyproTransitionVisitor.h">
<polygon fill="white" stroke="black" points="320.5,-178.5 320.5,-230.5 451.5,-230.5 451.5,-178.5 320.5,-178.5"/>
<text text-anchor="start" x="328.5" y="-218.5" font-family="Helvetica,sans-Serif" font-size="10.00">/home/travis/build</text>
<text text-anchor="start" x="328.5" y="-207.5" font-family="Helvetica,sans-Serif" font-size="10.00">/hypro/hypro/src/hypro</text>
<text text-anchor="start" x="328.5" y="-196.5" font-family="Helvetica,sans-Serif" font-size="10.00">/parser/antlr4&#45;flowstar</text>
<text text-anchor="middle" x="386" y="-185.5" font-family="Helvetica,sans-Serif" font-size="10.00">/HyproTransitionVisitor.h</text>
</a>
</g>
</g>
<!-- Node3&#45;&gt;Node10 -->
<g id="edge17" class="edge"><title>Node3&#45;&gt;Node10</title>
<path fill="none" stroke="midnightblue" d="M434.095,-350.125C423.715,-341.547 413.879,-331.417 407,-320 390.417,-292.476 386.332,-254.973 385.617,-230.504"/>
<polygon fill="midnightblue" stroke="midnightblue" points="432.064,-352.98 442.099,-356.379 436.374,-347.464 432.064,-352.98"/>
</g>
<!-- Node3&#45;&gt;Node11 -->
<g id="edge18" class="edge"><title>Node3&#45;&gt;Node11</title>
<path fill="none" stroke="midnightblue" d="M432.306,-350.921C417.036,-341.488 400.564,-330.744 386,-320 357.099,-298.679 353.254,-289.171 325,-267 309.139,-254.554 291.012,-241.557 275.425,-230.735"/>
<polygon fill="midnightblue" stroke="midnightblue" points="430.775,-354.087 441.134,-356.313 434.424,-348.113 430.775,-354.087"/>
</g>
<!-- Node3&#45;&gt;Node12 -->
<g id="edge19" class="edge"><title>Node3&#45;&gt;Node12</title>
<path fill="none" stroke="midnightblue" d="M578.509,-356.305C639.628,-346.693 762.56,-354.806 792,-320 807.212,-302.015 802.941,-287.86 792,-267 784.148,-252.031 770.817,-239.986 756.83,-230.659"/>
<polygon fill="midnightblue" stroke="midnightblue" points="577.741,-352.888 568.552,-358.163 579.025,-359.769 577.741,-352.888"/>
</g>
<!-- Node5&#45;&gt;Node6 -->
<g id="edge5" class="edge"><title>Node5&#45;&gt;Node6</title>
<path fill="none" stroke="midnightblue" d="M515.816,-257.167C513.14,-233.575 507.194,-202.502 494,-178 486.656,-164.362 475.347,-151.743 464.452,-141.53"/>
<polygon fill="midnightblue" stroke="midnightblue" points="512.364,-257.823 516.83,-267.43 519.33,-257.134 512.364,-257.823"/>
</g>
<!-- Node6&#45;&gt;Node7 -->
<g id="edge6" class="edge"><title>Node6&#45;&gt;Node7</title>
<path fill="none" stroke="midnightblue" d="M361.454,-85.8156C334.542,-75.0259 304.185,-62.8552 278.193,-52.4343"/>
<polygon fill="midnightblue" stroke="midnightblue" points="360.232,-89.0966 370.817,-89.5693 362.837,-82.5993 360.232,-89.0966"/>
</g>
<!-- Node8&#45;&gt;Node9 -->
<g id="edge8" class="edge"><title>Node8&#45;&gt;Node9</title>
<path fill="none" stroke="midnightblue" d="M198.127,-262.494C178.773,-252.101 157.295,-240.566 138.752,-230.607"/>
<polygon fill="midnightblue" stroke="midnightblue" points="196.677,-265.688 207.143,-267.336 199.989,-259.521 196.677,-265.688"/>
</g>
<!-- Node8&#45;&gt;Node10 -->
<g id="edge10" class="edge"><title>Node8&#45;&gt;Node10</title>
<path fill="none" stroke="midnightblue" d="M300.599,-261.787C316.086,-251.579 333.138,-240.341 347.906,-230.607"/>
<polygon fill="midnightblue" stroke="midnightblue" points="298.603,-258.91 292.18,-267.336 302.456,-264.755 298.603,-258.91"/>
</g>
<!-- Node8&#45;&gt;Node11 -->
<g id="edge12" class="edge"><title>Node8&#45;&gt;Node11</title>
<path fill="none" stroke="midnightblue" d="M247.56,-257.481C245.906,-248.487 244.159,-238.989 242.617,-230.607"/>
<polygon fill="midnightblue" stroke="midnightblue" points="244.121,-258.134 249.372,-267.336 251.006,-256.868 244.121,-258.134"/>
</g>
<!-- Node8&#45;&gt;Node12 -->
<g id="edge14" class="edge"><title>Node8&#45;&gt;Node12</title>
<path fill="none" stroke="midnightblue" d="M326.726,-278.408C413.951,-261.507 558.663,-233.467 640.882,-217.536"/>
<polygon fill="midnightblue" stroke="midnightblue" points="326.056,-274.973 316.904,-280.311 327.388,-281.845 326.056,-274.973"/>
</g>
<!-- Node9&#45;&gt;Node6 -->
<g id="edge9" class="edge"><title>Node9&#45;&gt;Node6</title>
<path fill="none" stroke="midnightblue" d="M165.317,-178.033C241.351,-156.432 318.368,-139.519 370.765,-128.746"/>
<polygon fill="midnightblue" stroke="midnightblue" points="164.215,-174.708 155.568,-180.83 166.146,-181.437 164.215,-174.708"/>
</g>
<!-- Node10&#45;&gt;Node6 -->
<g id="edge11" class="edge"><title>Node10&#45;&gt;Node6</title>
<path fill="none" stroke="midnightblue" d="M404.449,-169.35C409.446,-160.1 414.762,-150.259 419.436,-141.607"/>
<polygon fill="midnightblue" stroke="midnightblue" points="401.268,-167.874 399.594,-178.336 407.427,-171.201 401.268,-167.874"/>
</g>
<!-- Node11&#45;&gt;Node6 -->
<g id="edge13" class="edge"><title>Node11&#45;&gt;Node6</title>
<path fill="none" stroke="midnightblue" d="M303.461,-174.295C327.285,-163.665 353.98,-151.755 376.918,-141.521"/>
<polygon fill="midnightblue" stroke="midnightblue" points="301.847,-171.182 294.14,-178.453 304.699,-177.575 301.847,-171.182"/>
</g>
<!-- Node12&#45;&gt;Node6 -->
<g id="edge15" class="edge"><title>Node12&#45;&gt;Node6</title>
<path fill="none" stroke="midnightblue" d="M631.049,-180.316C588.798,-166.702 535.923,-149.664 495.436,-136.618"/>
<polygon fill="midnightblue" stroke="midnightblue" points="630.126,-183.696 640.718,-183.431 632.273,-177.033 630.126,-183.696"/>
</g>
</g>
</svg>
