<?xml version="1.0" encoding="UTF-8" standalone="no"?>
<!DOCTYPE svg PUBLIC "-//W3C//DTD SVG 1.1//EN"
 "http://www.w3.org/Graphics/SVG/1.1/DTD/svg11.dtd">
<!-- Generated by graphviz version 2.38.0 (20140413.2041)
 -->
<!-- Title: /home/travis/build/hypro/hypro/src/hypro/parser/antlr4&#45;flowstar/HybridAutomatonBaseVisitor.cpp Pages: 1 -->
<svg width="258pt" height="285pt"
 viewBox="0.00 0.00 258.00 285.00" xmlns="http://www.w3.org/2000/svg" xmlns:xlink="http://www.w3.org/1999/xlink">
<g id="graph0" class="graph" transform="scale(1 1) rotate(0) translate(4 281)">
<title>/home/travis/build/hypro/hypro/src/hypro/parser/antlr4&#45;flowstar/HybridAutomatonBaseVisitor.cpp</title>
<polygon fill="white" stroke="none" points="-4,4 -4,-281 254,-281 254,4 -4,4"/>
<!-- Node1 -->
<g id="node1" class="node"><title>Node1</title>
<polygon fill="#bfbfbf" stroke="black" points="0,-224.5 0,-276.5 178,-276.5 178,-224.5 0,-224.5"/>
<text text-anchor="start" x="8" y="-264.5" font-family="Helvetica,sans-Serif" font-size="10.00">/home/travis/build</text>
<text text-anchor="start" x="8" y="-253.5" font-family="Helvetica,sans-Serif" font-size="10.00">/hypro/hypro/src/hypro</text>
<text text-anchor="start" x="8" y="-242.5" font-family="Helvetica,sans-Serif" font-size="10.00">/parser/antlr4&#45;flowstar</text>
<text text-anchor="middle" x="89" y="-231.5" font-family="Helvetica,sans-Serif" font-size="10.00">/HybridAutomatonBaseVisitor.cpp</text>
</g>
<!-- Node2 -->
<g id="node2" class="node"><title>Node2</title>
<g id="a_node2"><a xlink:href="HybridAutomatonBaseVisitor_8h.html" target="_top" xlink:title="HybridAutomatonBaseVisitor.h">
<polygon fill="white" stroke="black" points="7,-168.5 7,-187.5 171,-187.5 171,-168.5 7,-168.5"/>
<text text-anchor="middle" x="89" y="-175.5" font-family="Helvetica,sans-Serif" font-size="10.00">HybridAutomatonBaseVisitor.h</text>
</a>
</g>
</g>
<!-- Node1&#45;&gt;Node2 -->
<g id="edge1" class="edge"><title>Node1&#45;&gt;Node2</title>
<path fill="none" stroke="midnightblue" d="M89,-224.446C89,-215.73 89,-206.104 89,-197.964"/>
<polygon fill="midnightblue" stroke="midnightblue" points="92.5001,-197.695 89,-187.695 85.5001,-197.696 92.5001,-197.695"/>
</g>
<!-- Node3 -->
<g id="node3" class="node"><title>Node3</title>
<polygon fill="white" stroke="#bfbfbf" points="30.5,-0.5 30.5,-19.5 125.5,-19.5 125.5,-0.5 30.5,-0.5"/>
<text text-anchor="middle" x="78" y="-7.5" font-family="Helvetica,sans-Serif" font-size="10.00">antlr4&#45;runtime.h</text>
</g>
<!-- Node2&#45;&gt;Node3 -->
<g id="edge2" class="edge"><title>Node2&#45;&gt;Node3</title>
<path fill="none" stroke="midnightblue" d="M80.7864,-168.182C73.4563,-159.663 63.2446,-146.019 59,-132 48.2592,-96.5256 60.953,-53.2637 70.1486,-29.2648"/>
<polygon fill="midnightblue" stroke="midnightblue" points="73.5165,-30.2732 74.0307,-19.6909 67.0295,-27.6428 73.5165,-30.2732"/>
</g>
<!-- Node4 -->
<g id="node4" class="node"><title>Node4</title>
<g id="a_node4"><a xlink:href="HybridAutomatonVisitor_8h.html" target="_top" xlink:title="HybridAutomatonVisitor.h">
<polygon fill="white" stroke="black" points="68,-112.5 68,-131.5 208,-131.5 208,-112.5 68,-112.5"/>
<text text-anchor="middle" x="138" y="-119.5" font-family="Helvetica,sans-Serif" font-size="10.00">HybridAutomatonVisitor.h</text>
</a>
</g>
</g>
<!-- Node2&#45;&gt;Node4 -->
<g id="edge3" class="edge"><title>Node2&#45;&gt;Node4</title>
<path fill="none" stroke="midnightblue" d="M97.0914,-168.083C104.155,-160.298 114.588,-148.801 123.149,-139.367"/>
<polygon fill="midnightblue" stroke="midnightblue" points="125.931,-141.509 130.059,-131.751 120.747,-136.805 125.931,-141.509"/>
</g>
<!-- Node4&#45;&gt;Node3 -->
<g id="edge4" class="edge"><title>Node4&#45;&gt;Node3</title>
<path fill="none" stroke="midnightblue" d="M127.815,-112.346C118.532,-103.941 105.073,-90.3761 97,-76 88.905,-61.5841 83.9702,-43.3923 81.1664,-29.923"/>
<polygon fill="midnightblue" stroke="midnightblue" points="84.5714,-29.0904 79.2898,-19.9059 77.6911,-30.3795 84.5714,-29.0904"/>
</g>
<!-- Node5 -->
<g id="node5" class="node"><title>Node5</title>
<g id="a_node5"><a xlink:href="HybridAutomatonParser_8h.html" target="_top" xlink:title="HybridAutomatonParser.h">
<polygon fill="white" stroke="black" points="106,-56.5 106,-75.5 246,-75.5 246,-56.5 106,-56.5"/>
<text text-anchor="middle" x="176" y="-63.5" font-family="Helvetica,sans-Serif" font-size="10.00">HybridAutomatonParser.h</text>
</a>
</g>
</g>
<!-- Node4&#45;&gt;Node5 -->
<g id="edge5" class="edge"><title>Node4&#45;&gt;Node5</title>
<path fill="none" stroke="midnightblue" d="M144.275,-112.083C149.642,-104.455 157.518,-93.2645 164.079,-83.9408"/>
<polygon fill="midnightblue" stroke="midnightblue" points="166.949,-85.9434 169.842,-75.7511 161.225,-81.9149 166.949,-85.9434"/>
</g>
<!-- Node5&#45;&gt;Node3 -->
<g id="edge6" class="edge"><title>Node5&#45;&gt;Node3</title>
<path fill="none" stroke="midnightblue" d="M160.255,-56.324C144.681,-47.7428 120.623,-34.486 102.541,-24.5224"/>
<polygon fill="midnightblue" stroke="midnightblue" points="104.154,-21.4152 93.7063,-19.6545 100.776,-27.546 104.154,-21.4152"/>
</g>
<!-- Node6 -->
<g id="node6" class="node"><title>Node6</title>
<polygon fill="white" stroke="#bfbfbf" points="150,-0.5 150,-19.5 188,-19.5 188,-0.5 150,-0.5"/>
<text text-anchor="middle" x="169" y="-7.5" font-family="Helvetica,sans-Serif" font-size="10.00">map</text>
</g>
<!-- Node5&#45;&gt;Node6 -->
<g id="edge7" class="edge"><title>Node5&#45;&gt;Node6</title>
<path fill="none" stroke="midnightblue" d="M174.844,-56.083C173.916,-48.9272 172.582,-38.6353 171.423,-29.6911"/>
<polygon fill="midnightblue" stroke="midnightblue" points="174.891,-29.2181 170.134,-19.7511 167.949,-30.1181 174.891,-29.2181"/>
</g>
<!-- Node7 -->
<g id="node7" class="node"><title>Node7</title>
<polygon fill="white" stroke="#bfbfbf" points="206,-0.5 206,-19.5 250,-19.5 250,-0.5 206,-0.5"/>
<text text-anchor="middle" x="228" y="-7.5" font-family="Helvetica,sans-Serif" font-size="10.00">string</text>
</g>
<!-- Node5&#45;&gt;Node7 -->
<g id="edge8" class="edge"><title>Node5&#45;&gt;Node7</title>
<path fill="none" stroke="midnightblue" d="M184.587,-56.083C192.159,-48.2195 203.378,-36.5688 212.514,-27.0813"/>
<polygon fill="midnightblue" stroke="midnightblue" points="215.158,-29.3821 219.573,-19.7511 210.115,-24.5266 215.158,-29.3821"/>
</g>
</g>
</svg>
