<?xml version="1.0" encoding="UTF-8" standalone="no"?>
<!DOCTYPE svg PUBLIC "-//W3C//DTD SVG 1.1//EN"
 "http://www.w3.org/Graphics/SVG/1.1/DTD/svg11.dtd">
<!-- Generated by graphviz version 2.38.0 (20140413.2041)
 -->
<!-- Title: /home/travis/build/hypro/hypro/src/hypro/parser/antlr4&#45;cif/HybridSystemParser.cpp Pages: 1 -->
<svg width="219pt" height="229pt"
 viewBox="0.00 0.00 219.00 229.00" xmlns="http://www.w3.org/2000/svg" xmlns:xlink="http://www.w3.org/1999/xlink">
<g id="graph0" class="graph" transform="scale(1 1) rotate(0) translate(4 225)">
<title>/home/travis/build/hypro/hypro/src/hypro/parser/antlr4&#45;cif/HybridSystemParser.cpp</title>
<polygon fill="white" stroke="none" points="-4,4 -4,-225 215,-225 215,4 -4,4"/>
<!-- Node1 -->
<g id="node1" class="node"><title>Node1</title>
<polygon fill="#bfbfbf" stroke="black" points="22,-168.5 22,-220.5 188,-220.5 188,-168.5 22,-168.5"/>
<text text-anchor="start" x="30" y="-208.5" font-family="Helvetica,sans-Serif" font-size="10.00">/home/travis/build</text>
<text text-anchor="start" x="30" y="-197.5" font-family="Helvetica,sans-Serif" font-size="10.00">/hypro/hypro/src/hypro</text>
<text text-anchor="start" x="30" y="-186.5" font-family="Helvetica,sans-Serif" font-size="10.00">/parser/antlr4&#45;cif/HybridSystem</text>
<text text-anchor="middle" x="105" y="-175.5" font-family="Helvetica,sans-Serif" font-size="10.00">Parser.cpp</text>
</g>
<!-- Node2 -->
<g id="node2" class="node"><title>Node2</title>
<g id="a_node2"><a xlink:href="HybridSystemVisitor_8h.html" target="_top" xlink:title="HybridSystemVisitor.h">
<polygon fill="white" stroke="black" points="0,-112.5 0,-131.5 122,-131.5 122,-112.5 0,-112.5"/>
<text text-anchor="middle" x="61" y="-119.5" font-family="Helvetica,sans-Serif" font-size="10.00">HybridSystemVisitor.h</text>
</a>
</g>
</g>
<!-- Node1&#45;&gt;Node2 -->
<g id="edge1" class="edge"><title>Node1&#45;&gt;Node2</title>
<path fill="none" stroke="midnightblue" d="M89.3634,-168.446C83.5486,-159.129 77.085,-148.772 71.7983,-140.302"/>
<polygon fill="midnightblue" stroke="midnightblue" points="74.6908,-138.326 66.427,-131.695 68.7524,-142.032 74.6908,-138.326"/>
</g>
<!-- Node4 -->
<g id="node4" class="node"><title>Node4</title>
<g id="a_node4"><a xlink:href="HybridSystemParser_8h.html" target="_top" xlink:title="HybridSystemParser.h">
<polygon fill="white" stroke="black" points="89,-56.5 89,-75.5 211,-75.5 211,-56.5 89,-56.5"/>
<text text-anchor="middle" x="150" y="-63.5" font-family="Helvetica,sans-Serif" font-size="10.00">HybridSystemParser.h</text>
</a>
</g>
</g>
<!-- Node1&#45;&gt;Node4 -->
<g id="edge5" class="edge"><title>Node1&#45;&gt;Node4</title>
<path fill="none" stroke="midnightblue" d="M116.419,-168.326C121.221,-157.293 126.683,-144.121 131,-132 136.548,-116.425 141.734,-98.3478 145.281,-85.2168"/>
<polygon fill="midnightblue" stroke="midnightblue" points="148.674,-86.0763 147.848,-75.5138 141.907,-84.2862 148.674,-86.0763"/>
</g>
<!-- Node3 -->
<g id="node3" class="node"><title>Node3</title>
<polygon fill="white" stroke="#bfbfbf" points="57.5,-0.5 57.5,-19.5 152.5,-19.5 152.5,-0.5 57.5,-0.5"/>
<text text-anchor="middle" x="105" y="-7.5" font-family="Helvetica,sans-Serif" font-size="10.00">antlr4&#45;runtime.h</text>
</g>
<!-- Node2&#45;&gt;Node3 -->
<g id="edge2" class="edge"><title>Node2&#45;&gt;Node3</title>
<path fill="none" stroke="midnightblue" d="M62.8724,-112.378C65.7629,-99.7291 71.842,-75.5269 80,-56 83.962,-46.5166 89.4093,-36.4726 94.208,-28.2853"/>
<polygon fill="midnightblue" stroke="midnightblue" points="97.2368,-30.0404 99.4154,-19.6719 91.2465,-26.4188 97.2368,-30.0404"/>
</g>
<!-- Node2&#45;&gt;Node4 -->
<g id="edge3" class="edge"><title>Node2&#45;&gt;Node4</title>
<path fill="none" stroke="midnightblue" d="M75.2994,-112.324C89.1829,-103.9 110.492,-90.9709 126.804,-81.0741"/>
<polygon fill="midnightblue" stroke="midnightblue" points="129.002,-83.8341 135.736,-75.6545 125.371,-77.8495 129.002,-83.8341"/>
</g>
<!-- Node4&#45;&gt;Node3 -->
<g id="edge4" class="edge"><title>Node4&#45;&gt;Node3</title>
<path fill="none" stroke="midnightblue" d="M142.569,-56.083C136.147,-48.3768 126.694,-37.0333 118.878,-27.6531"/>
<polygon fill="midnightblue" stroke="midnightblue" points="121.383,-25.1927 112.293,-19.7511 116.006,-29.674 121.383,-25.1927"/>
</g>
</g>
</svg>
