<?xml version="1.0" encoding="UTF-8" standalone="no"?>
<!DOCTYPE svg PUBLIC "-//W3C//DTD SVG 1.1//EN"
 "http://www.w3.org/Graphics/SVG/1.1/DTD/svg11.dtd">
<!-- Generated by graphviz version 2.38.0 (20140413.2041)
 -->
<!-- Title: /home/travis/build/hypro/hypro/src/hypro/parser/antlr4&#45;cif/HybridSystemBaseVisitor.h Pages: 1 -->
<svg width="235pt" height="229pt"
 viewBox="0.00 0.00 235.00 229.00" xmlns="http://www.w3.org/2000/svg" xmlns:xlink="http://www.w3.org/1999/xlink">
<g id="graph0" class="graph" transform="scale(1 1) rotate(0) translate(4 225)">
<title>/home/travis/build/hypro/hypro/src/hypro/parser/antlr4&#45;cif/HybridSystemBaseVisitor.h</title>
<polygon fill="white" stroke="none" points="-4,4 -4,-225 231,-225 231,4 -4,4"/>
<!-- Node1 -->
<g id="node1" class="node"><title>Node1</title>
<polygon fill="#bfbfbf" stroke="black" points="0,-168.5 0,-220.5 166,-220.5 166,-168.5 0,-168.5"/>
<text text-anchor="start" x="8" y="-208.5" font-family="Helvetica,sans-Serif" font-size="10.00">/home/travis/build</text>
<text text-anchor="start" x="8" y="-197.5" font-family="Helvetica,sans-Serif" font-size="10.00">/hypro/hypro/src/hypro</text>
<text text-anchor="start" x="8" y="-186.5" font-family="Helvetica,sans-Serif" font-size="10.00">/parser/antlr4&#45;cif/HybridSystem</text>
<text text-anchor="middle" x="83" y="-175.5" font-family="Helvetica,sans-Serif" font-size="10.00">BaseVisitor.h</text>
</g>
<!-- Node2 -->
<g id="node2" class="node"><title>Node2</title>
<polygon fill="white" stroke="#bfbfbf" points="29.5,-0.5 29.5,-19.5 124.5,-19.5 124.5,-0.5 29.5,-0.5"/>
<text text-anchor="middle" x="77" y="-7.5" font-family="Helvetica,sans-Serif" font-size="10.00">antlr4&#45;runtime.h</text>
</g>
<!-- Node1&#45;&gt;Node2 -->
<g id="edge1" class="edge"><title>Node1&#45;&gt;Node2</title>
<path fill="none" stroke="midnightblue" d="M70.2541,-168.448C65.3902,-157.547 60.4323,-144.443 58,-132 50.889,-95.6238 62.2697,-52.6881 70.2576,-28.9892"/>
<polygon fill="midnightblue" stroke="midnightblue" points="73.5625,-30.1416 73.6103,-19.5468 66.966,-27.7993 73.5625,-30.1416"/>
</g>
<!-- Node3 -->
<g id="node3" class="node"><title>Node3</title>
<g id="a_node3"><a xlink:href="HybridSystemVisitor_8h.html" target="_top" xlink:title="HybridSystemVisitor.h">
<polygon fill="white" stroke="black" points="67,-112.5 67,-131.5 189,-131.5 189,-112.5 67,-112.5"/>
<text text-anchor="middle" x="128" y="-119.5" font-family="Helvetica,sans-Serif" font-size="10.00">HybridSystemVisitor.h</text>
</a>
</g>
</g>
<!-- Node1&#45;&gt;Node3 -->
<g id="edge2" class="edge"><title>Node1&#45;&gt;Node3</title>
<path fill="none" stroke="midnightblue" d="M98.992,-168.446C104.939,-159.129 111.549,-148.772 116.956,-140.302"/>
<polygon fill="midnightblue" stroke="midnightblue" points="120.02,-142.008 122.45,-131.695 114.119,-138.242 120.02,-142.008"/>
</g>
<!-- Node3&#45;&gt;Node2 -->
<g id="edge3" class="edge"><title>Node3&#45;&gt;Node2</title>
<path fill="none" stroke="midnightblue" d="M120.426,-112.258C113.247,-103.577 102.605,-89.6303 96,-76 88.7898,-61.1218 83.7677,-42.9757 80.7055,-29.6413"/>
<polygon fill="midnightblue" stroke="midnightblue" points="84.104,-28.7959 78.5892,-19.7495 77.2589,-30.2605 84.104,-28.7959"/>
</g>
<!-- Node4 -->
<g id="node4" class="node"><title>Node4</title>
<g id="a_node4"><a xlink:href="HybridSystemParser_8h.html" target="_top" xlink:title="HybridSystemParser.h">
<polygon fill="white" stroke="black" points="105,-56.5 105,-75.5 227,-75.5 227,-56.5 105,-56.5"/>
<text text-anchor="middle" x="166" y="-63.5" font-family="Helvetica,sans-Serif" font-size="10.00">HybridSystemParser.h</text>
</a>
</g>
</g>
<!-- Node3&#45;&gt;Node4 -->
<g id="edge4" class="edge"><title>Node3&#45;&gt;Node4</title>
<path fill="none" stroke="midnightblue" d="M134.275,-112.083C139.642,-104.455 147.518,-93.2645 154.079,-83.9408"/>
<polygon fill="midnightblue" stroke="midnightblue" points="156.949,-85.9434 159.842,-75.7511 151.225,-81.9149 156.949,-85.9434"/>
</g>
<!-- Node4&#45;&gt;Node2 -->
<g id="edge5" class="edge"><title>Node4&#45;&gt;Node2</title>
<path fill="none" stroke="midnightblue" d="M151.701,-56.324C137.817,-47.9002 116.508,-34.9709 100.196,-25.0741"/>
<polygon fill="midnightblue" stroke="midnightblue" points="101.629,-21.8495 91.2639,-19.6545 97.9978,-27.8341 101.629,-21.8495"/>
</g>
</g>
</svg>
