<?xml version="1.0" encoding="UTF-8" standalone="no"?>
<!DOCTYPE svg PUBLIC "-//W3C//DTD SVG 1.1//EN"
 "http://www.w3.org/Graphics/SVG/1.1/DTD/svg11.dtd">
<!-- Generated by graphviz version 2.38.0 (20140413.2041)
 -->
<!-- Title: /home/travis/build/hypro/hypro/src/hypro/parser/antlr4&#45;cif/HybridSystemVisitor.cpp Pages: 1 -->
<svg width="197pt" height="229pt"
 viewBox="0.00 0.00 197.00 229.00" xmlns="http://www.w3.org/2000/svg" xmlns:xlink="http://www.w3.org/1999/xlink">
<g id="graph0" class="graph" transform="scale(1 1) rotate(0) translate(4 225)">
<title>/home/travis/build/hypro/hypro/src/hypro/parser/antlr4&#45;cif/HybridSystemVisitor.cpp</title>
<polygon fill="white" stroke="none" points="-4,4 -4,-225 193,-225 193,4 -4,4"/>
<!-- Node1 -->
<g id="node1" class="node"><title>Node1</title>
<polygon fill="#bfbfbf" stroke="black" points="0,-168.5 0,-220.5 166,-220.5 166,-168.5 0,-168.5"/>
<text text-anchor="start" x="8" y="-208.5" font-family="Helvetica,sans-Serif" font-size="10.00">/home/travis/build</text>
<text text-anchor="start" x="8" y="-197.5" font-family="Helvetica,sans-Serif" font-size="10.00">/hypro/hypro/src/hypro</text>
<text text-anchor="start" x="8" y="-186.5" font-family="Helvetica,sans-Serif" font-size="10.00">/parser/antlr4&#45;cif/HybridSystem</text>
<text text-anchor="middle" x="83" y="-175.5" font-family="Helvetica,sans-Serif" font-size="10.00">Visitor.cpp</text>
</g>
<!-- Node2 -->
<g id="node2" class="node"><title>Node2</title>
<g id="a_node2"><a xlink:href="HybridSystemVisitor_8h.html" target="_top" xlink:title="HybridSystemVisitor.h">
<polygon fill="white" stroke="black" points="22,-112.5 22,-131.5 144,-131.5 144,-112.5 22,-112.5"/>
<text text-anchor="middle" x="83" y="-119.5" font-family="Helvetica,sans-Serif" font-size="10.00">HybridSystemVisitor.h</text>
</a>
</g>
</g>
<!-- Node1&#45;&gt;Node2 -->
<g id="edge1" class="edge"><title>Node1&#45;&gt;Node2</title>
<path fill="none" stroke="midnightblue" d="M83,-168.446C83,-159.73 83,-150.104 83,-141.964"/>
<polygon fill="midnightblue" stroke="midnightblue" points="86.5001,-141.695 83,-131.695 79.5001,-141.696 86.5001,-141.695"/>
</g>
<!-- Node3 -->
<g id="node3" class="node"><title>Node3</title>
<polygon fill="white" stroke="#bfbfbf" points="35.5,-0.5 35.5,-19.5 130.5,-19.5 130.5,-0.5 35.5,-0.5"/>
<text text-anchor="middle" x="83" y="-7.5" font-family="Helvetica,sans-Serif" font-size="10.00">antlr4&#45;runtime.h</text>
</g>
<!-- Node2&#45;&gt;Node3 -->
<g id="edge2" class="edge"><title>Node2&#45;&gt;Node3</title>
<path fill="none" stroke="midnightblue" d="M76.3713,-112.275C70.2349,-103.607 61.5421,-89.6693 58,-76 53.656,-59.2358 61.9992,-40.8827 70.1924,-27.9668"/>
<polygon fill="midnightblue" stroke="midnightblue" points="73.1506,-29.8423 75.9482,-19.6235 67.3887,-25.8673 73.1506,-29.8423"/>
</g>
<!-- Node4 -->
<g id="node4" class="node"><title>Node4</title>
<g id="a_node4"><a xlink:href="HybridSystemParser_8h.html" target="_top" xlink:title="HybridSystemParser.h">
<polygon fill="white" stroke="black" points="67,-56.5 67,-75.5 189,-75.5 189,-56.5 67,-56.5"/>
<text text-anchor="middle" x="128" y="-63.5" font-family="Helvetica,sans-Serif" font-size="10.00">HybridSystemParser.h</text>
</a>
</g>
</g>
<!-- Node2&#45;&gt;Node4 -->
<g id="edge3" class="edge"><title>Node2&#45;&gt;Node4</title>
<path fill="none" stroke="midnightblue" d="M90.4308,-112.083C96.8527,-104.377 106.306,-93.0333 114.122,-83.6531"/>
<polygon fill="midnightblue" stroke="midnightblue" points="116.994,-85.674 120.707,-75.7511 111.617,-81.1927 116.994,-85.674"/>
</g>
<!-- Node4&#45;&gt;Node3 -->
<g id="edge4" class="edge"><title>Node4&#45;&gt;Node3</title>
<path fill="none" stroke="midnightblue" d="M120.569,-56.083C114.147,-48.3768 104.694,-37.0333 96.8775,-27.6531"/>
<polygon fill="midnightblue" stroke="midnightblue" points="99.3832,-25.1927 90.2926,-19.7511 94.0057,-29.674 99.3832,-25.1927"/>
</g>
</g>
</svg>
