<?xml version="1.0" encoding="UTF-8" standalone="no"?>
<!DOCTYPE svg PUBLIC "-//W3C//DTD SVG 1.1//EN"
 "http://www.w3.org/Graphics/SVG/1.1/DTD/svg11.dtd">
<!-- Generated by graphviz version 2.38.0 (20140413.2041)
 -->
<!-- Title: /home/travis/build/hypro/hypro/src/hypro/parser/antlr4&#45;cif/HybridSystemBaseVisitor.cpp Pages: 1 -->
<svg width="235pt" height="285pt"
 viewBox="0.00 0.00 235.00 285.00" xmlns="http://www.w3.org/2000/svg" xmlns:xlink="http://www.w3.org/1999/xlink">
<g id="graph0" class="graph" transform="scale(1 1) rotate(0) translate(4 281)">
<title>/home/travis/build/hypro/hypro/src/hypro/parser/antlr4&#45;cif/HybridSystemBaseVisitor.cpp</title>
<polygon fill="white" stroke="none" points="-4,4 -4,-281 231,-281 231,4 -4,4"/>
<!-- Node1 -->
<g id="node1" class="node"><title>Node1</title>
<polygon fill="#bfbfbf" stroke="black" points="0,-224.5 0,-276.5 166,-276.5 166,-224.5 0,-224.5"/>
<text text-anchor="start" x="8" y="-264.5" font-family="Helvetica,sans-Serif" font-size="10.00">/home/travis/build</text>
<text text-anchor="start" x="8" y="-253.5" font-family="Helvetica,sans-Serif" font-size="10.00">/hypro/hypro/src/hypro</text>
<text text-anchor="start" x="8" y="-242.5" font-family="Helvetica,sans-Serif" font-size="10.00">/parser/antlr4&#45;cif/HybridSystem</text>
<text text-anchor="middle" x="83" y="-231.5" font-family="Helvetica,sans-Serif" font-size="10.00">BaseVisitor.cpp</text>
</g>
<!-- Node2 -->
<g id="node2" class="node"><title>Node2</title>
<g id="a_node2"><a xlink:href="HybridSystemBaseVisitor_8h.html" target="_top" xlink:title="HybridSystemBaseVisitor.h">
<polygon fill="white" stroke="black" points="10,-168.5 10,-187.5 156,-187.5 156,-168.5 10,-168.5"/>
<text text-anchor="middle" x="83" y="-175.5" font-family="Helvetica,sans-Serif" font-size="10.00">HybridSystemBaseVisitor.h</text>
</a>
</g>
</g>
<!-- Node1&#45;&gt;Node2 -->
<g id="edge1" class="edge"><title>Node1&#45;&gt;Node2</title>
<path fill="none" stroke="midnightblue" d="M83,-224.446C83,-215.73 83,-206.104 83,-197.964"/>
<polygon fill="midnightblue" stroke="midnightblue" points="86.5001,-197.695 83,-187.695 79.5001,-197.696 86.5001,-197.695"/>
</g>
<!-- Node3 -->
<g id="node3" class="node"><title>Node3</title>
<polygon fill="white" stroke="#bfbfbf" points="29.5,-0.5 29.5,-19.5 124.5,-19.5 124.5,-0.5 29.5,-0.5"/>
<text text-anchor="middle" x="77" y="-7.5" font-family="Helvetica,sans-Serif" font-size="10.00">antlr4&#45;runtime.h</text>
</g>
<!-- Node2&#45;&gt;Node3 -->
<g id="edge2" class="edge"><title>Node2&#45;&gt;Node3</title>
<path fill="none" stroke="midnightblue" d="M76.3713,-168.275C70.2349,-159.607 61.5421,-145.669 58,-132 48.7026,-96.1203 60.8743,-53.005 69.5896,-29.1409"/>
<polygon fill="midnightblue" stroke="midnightblue" points="72.9264,-30.2157 73.2612,-19.6261 66.3958,-27.6956 72.9264,-30.2157"/>
</g>
<!-- Node4 -->
<g id="node4" class="node"><title>Node4</title>
<g id="a_node4"><a xlink:href="HybridSystemVisitor_8h.html" target="_top" xlink:title="HybridSystemVisitor.h">
<polygon fill="white" stroke="black" points="67,-112.5 67,-131.5 189,-131.5 189,-112.5 67,-112.5"/>
<text text-anchor="middle" x="128" y="-119.5" font-family="Helvetica,sans-Serif" font-size="10.00">HybridSystemVisitor.h</text>
</a>
</g>
</g>
<!-- Node2&#45;&gt;Node4 -->
<g id="edge3" class="edge"><title>Node2&#45;&gt;Node4</title>
<path fill="none" stroke="midnightblue" d="M90.4308,-168.083C96.8527,-160.377 106.306,-149.033 114.122,-139.653"/>
<polygon fill="midnightblue" stroke="midnightblue" points="116.994,-141.674 120.707,-131.751 111.617,-137.193 116.994,-141.674"/>
</g>
<!-- Node4&#45;&gt;Node3 -->
<g id="edge4" class="edge"><title>Node4&#45;&gt;Node3</title>
<path fill="none" stroke="midnightblue" d="M120.426,-112.258C113.247,-103.577 102.605,-89.6303 96,-76 88.7898,-61.1218 83.7677,-42.9757 80.7055,-29.6413"/>
<polygon fill="midnightblue" stroke="midnightblue" points="84.104,-28.7959 78.5892,-19.7495 77.2589,-30.2605 84.104,-28.7959"/>
</g>
<!-- Node5 -->
<g id="node5" class="node"><title>Node5</title>
<g id="a_node5"><a xlink:href="HybridSystemParser_8h.html" target="_top" xlink:title="HybridSystemParser.h">
<polygon fill="white" stroke="black" points="105,-56.5 105,-75.5 227,-75.5 227,-56.5 105,-56.5"/>
<text text-anchor="middle" x="166" y="-63.5" font-family="Helvetica,sans-Serif" font-size="10.00">HybridSystemParser.h</text>
</a>
</g>
</g>
<!-- Node4&#45;&gt;Node5 -->
<g id="edge5" class="edge"><title>Node4&#45;&gt;Node5</title>
<path fill="none" stroke="midnightblue" d="M134.275,-112.083C139.642,-104.455 147.518,-93.2645 154.079,-83.9408"/>
<polygon fill="midnightblue" stroke="midnightblue" points="156.949,-85.9434 159.842,-75.7511 151.225,-81.9149 156.949,-85.9434"/>
</g>
<!-- Node5&#45;&gt;Node3 -->
<g id="edge6" class="edge"><title>Node5&#45;&gt;Node3</title>
<path fill="none" stroke="midnightblue" d="M151.701,-56.324C137.817,-47.9002 116.508,-34.9709 100.196,-25.0741"/>
<polygon fill="midnightblue" stroke="midnightblue" points="101.629,-21.8495 91.2639,-19.6545 97.9978,-27.8341 101.629,-21.8495"/>
</g>
</g>
</svg>
