<?xml version="1.0" encoding="UTF-8" standalone="no"?>
<!DOCTYPE svg PUBLIC "-//W3C//DTD SVG 1.1//EN"
 "http://www.w3.org/Graphics/SVG/1.1/DTD/svg11.dtd">
<!-- Generated by graphviz version 2.38.0 (20140413.2041)
 -->
<!-- Title: /home/travis/build/hypro/hypro/src/hypro/parser/antlr4&#45;cif/HybridSystemParser.h Pages: 1 -->
<!--zoomable 484 -->
<svg id="main" version="1.1" xmlns="http://www.w3.org/2000/svg" xmlns:xlink="http://www.w3.org/1999/xlink" xml:space="preserve" onload="init(evt)">
<style type="text/css"><![CDATA[
.edge:hover path { stroke: red; }
.edge:hover polygon { stroke: red; fill: red; }
]]></style>
<script type="text/javascript"><![CDATA[
var edges = document.getElementsByTagName('g');
if (edges && edges.length) {
  for (var i=0;i<edges.length;i++) {
    if (edges[i].id.substr(0,4)=='edge') {
      edges[i].setAttribute('class','edge');
    }
  }
}
]]></script>
        <defs>
                <circle id="rim" cx="0" cy="0" r="7"/>
                <circle id="rim2" cx="0" cy="0" r="3.5"/>
                <g id="zoomPlus">
                        <use xlink:href="#rim" fill="#404040">
                                <set attributeName="fill" to="#808080" begin="zoomplus.mouseover" end="zoomplus.mouseout"/>
                        </use>
                        <path d="M-4,0h8M0,-4v8" fill="none" stroke="white" stroke-width="1.5" pointer-events="none"/>
                </g>
                <g id="zoomMin">
                        <use xlink:href="#rim" fill="#404040">
                                <set attributeName="fill" to="#808080" begin="zoomminus.mouseover" end="zoomminus.mouseout"/>
                        </use>
                        <path d="M-4,0h8" fill="none" stroke="white" stroke-width="1.5" pointer-events="none"/>
                </g>
                <g id="dirArrow">
                        <path fill="none" stroke="white" stroke-width="1.5" d="M0,-3.0v7 M-2.5,-0.5L0,-3.0L2.5,-0.5"/>
                </g>
               <g id="resetDef">
                       <use xlink:href="#rim2" fill="#404040">
                               <set attributeName="fill" to="#808080" begin="reset.mouseover" end="reset.mouseout"/>
                       </use>
               </g>
        </defs>

<script type="text/javascript">
var viewWidth = 686;
var viewHeight = 484;
var sectionId = 'dynsection-1';
</script>
<script xlink:href="svgpan.js"/>
<svg id="graph" class="graph">
<g id="viewport">
<title>/home/travis/build/hypro/hypro/src/hypro/parser/antlr4&#45;cif/HybridSystemParser.h</title>
<polygon fill="white" stroke="none" points="-4,4 -4,-480 681.546,-480 681.546,4 -4,4"/>
<!-- Node1 -->
<g id="node1" class="node"><title>Node1</title>
<polygon fill="#bfbfbf" stroke="black" points="262.546,-423.5 262.546,-475.5 428.546,-475.5 428.546,-423.5 262.546,-423.5"/>
<text text-anchor="start" x="270.546" y="-463.5" font-family="Helvetica,sans-Serif" font-size="10.00">/home/travis/build</text>
<text text-anchor="start" x="270.546" y="-452.5" font-family="Helvetica,sans-Serif" font-size="10.00">/hypro/hypro/src/hypro</text>
<text text-anchor="start" x="270.546" y="-441.5" font-family="Helvetica,sans-Serif" font-size="10.00">/parser/antlr4&#45;cif/HybridSystem</text>
<text text-anchor="middle" x="345.546" y="-430.5" font-family="Helvetica,sans-Serif" font-size="10.00">Parser.h</text>
</g>
<!-- Node2 -->
<g id="node2" class="node"><title>Node2</title>
<g id="a_node2"><a xlink:href="HybridSystemVisitor_8h.html" target="_top" xlink:title="/home/travis/build\l/hypro/hypro/src/hypro\l/parser/antlr4&#45;cif/HybridSystem\lVisitor.h">
<polygon fill="white" stroke="black" points="143.546,-334.5 143.546,-386.5 309.546,-386.5 309.546,-334.5 143.546,-334.5"/>
<text text-anchor="start" x="151.546" y="-374.5" font-family="Helvetica,sans-Serif" font-size="10.00">/home/travis/build</text>
<text text-anchor="start" x="151.546" y="-363.5" font-family="Helvetica,sans-Serif" font-size="10.00">/hypro/hypro/src/hypro</text>
<text text-anchor="start" x="151.546" y="-352.5" font-family="Helvetica,sans-Serif" font-size="10.00">/parser/antlr4&#45;cif/HybridSystem</text>
<text text-anchor="middle" x="226.546" y="-341.5" font-family="Helvetica,sans-Serif" font-size="10.00">Visitor.h</text>
</a>
</g>
</g>
<!-- Node1&#45;&gt;Node2 -->
<g id="edge1" class="edge"><title>Node1&#45;&gt;Node2</title>
<path fill="none" stroke="midnightblue" d="M302.759,-417.219C289.005,-407.164 273.955,-396.16 260.888,-386.607"/>
<polygon fill="midnightblue" stroke="midnightblue" points="300.988,-420.26 311.126,-423.336 305.119,-414.609 300.988,-420.26"/>
</g>
<!-- Node8 -->
<g id="node8" class="node"><title>Node8</title>
<g id="a_node8"><a xlink:href="HybridSystemParser_8cpp.html" target="_top" xlink:title="/home/travis/build\l/hypro/hypro/src/hypro\l/parser/antlr4&#45;cif/HybridSystem\lParser.cpp">
<polygon fill="white" stroke="black" points="511.546,-245.5 511.546,-297.5 677.546,-297.5 677.546,-245.5 511.546,-245.5"/>
<text text-anchor="start" x="519.546" y="-285.5" font-family="Helvetica,sans-Serif" font-size="10.00">/home/travis/build</text>
<text text-anchor="start" x="519.546" y="-274.5" font-family="Helvetica,sans-Serif" font-size="10.00">/hypro/hypro/src/hypro</text>
<text text-anchor="start" x="519.546" y="-263.5" font-family="Helvetica,sans-Serif" font-size="10.00">/parser/antlr4&#45;cif/HybridSystem</text>
<text text-anchor="middle" x="594.546" y="-252.5" font-family="Helvetica,sans-Serif" font-size="10.00">Parser.cpp</text>
</a>
</g>
</g>
<!-- Node1&#45;&gt;Node8 -->
<g id="edge14" class="edge"><title>Node1&#45;&gt;Node8</title>
<path fill="none" stroke="midnightblue" d="M389.321,-417.559C437.532,-383.481 514.135,-329.337 558.854,-297.728"/>
<polygon fill="midnightblue" stroke="midnightblue" points="387.103,-414.84 380.957,-423.47 391.143,-420.557 387.103,-414.84"/>
</g>
<!-- Node3 -->
<g id="node3" class="node"><title>Node3</title>
<g id="a_node3"><a xlink:href="CIFExprVisitor_8h.html" target="_top" xlink:title="/home/travis/build\l/hypro/hypro/src/hypro\l/parser/antlr4&#45;cif/CIFExprVisitor.h">
<polygon fill="white" stroke="black" points="29.5459,-162 29.5459,-203 201.546,-203 201.546,-162 29.5459,-162"/>
<text text-anchor="start" x="37.5459" y="-191" font-family="Helvetica,sans-Serif" font-size="10.00">/home/travis/build</text>
<text text-anchor="start" x="37.5459" y="-180" font-family="Helvetica,sans-Serif" font-size="10.00">/hypro/hypro/src/hypro</text>
<text text-anchor="middle" x="115.546" y="-169" font-family="Helvetica,sans-Serif" font-size="10.00">/parser/antlr4&#45;cif/CIFExprVisitor.h</text>
</a>
</g>
</g>
<!-- Node2&#45;&gt;Node3 -->
<g id="edge2" class="edge"><title>Node2&#45;&gt;Node3</title>
<path fill="none" stroke="midnightblue" d="M164.865,-328.57C153.202,-320.134 142.257,-309.951 134.546,-298 115.865,-269.046 113.663,-227.685 114.26,-203.411"/>
<polygon fill="midnightblue" stroke="midnightblue" points="163.212,-331.678 173.449,-334.406 167.147,-325.889 163.212,-331.678"/>
</g>
<!-- Node4 -->
<g id="node4" class="node"><title>Node4</title>
<g id="a_node4"><a xlink:href="CIFLocVisitor_8h.html" target="_top" xlink:title="/home/travis/build\l/hypro/hypro/src/hypro\l/parser/antlr4&#45;cif/CIFLocVisitor.h">
<polygon fill="white" stroke="black" points="32.0459,-78.5 32.0459,-119.5 199.046,-119.5 199.046,-78.5 32.0459,-78.5"/>
<text text-anchor="start" x="40.0459" y="-107.5" font-family="Helvetica,sans-Serif" font-size="10.00">/home/travis/build</text>
<text text-anchor="start" x="40.0459" y="-96.5" font-family="Helvetica,sans-Serif" font-size="10.00">/hypro/hypro/src/hypro</text>
<text text-anchor="middle" x="115.546" y="-85.5" font-family="Helvetica,sans-Serif" font-size="10.00">/parser/antlr4&#45;cif/CIFLocVisitor.h</text>
</a>
</g>
</g>
<!-- Node2&#45;&gt;Node4 -->
<g id="edge5" class="edge"><title>Node2&#45;&gt;Node4</title>
<path fill="none" stroke="midnightblue" d="M152.969,-329.915C104.211,-305.676 44.8997,-266.015 20.5459,-209 11.293,-187.338 8.86046,-176.453 20.5459,-156 29.6635,-140.042 45.3023,-128.177 61.2892,-119.58"/>
<polygon fill="midnightblue" stroke="midnightblue" points="151.727,-333.202 162.252,-334.41 154.777,-326.902 151.727,-333.202"/>
</g>
<!-- Node5 -->
<g id="node5" class="node"><title>Node5</title>
<g id="a_node5"><a xlink:href="HybridCIFVisitor_8h.html" target="_top" xlink:title="/home/travis/build\l/hypro/hypro/src/hypro\l/parser/antlr4&#45;cif/HybridCIFVisitor.h">
<polygon fill="white" stroke="black" points="24.5459,-0.5 24.5459,-41.5 206.546,-41.5 206.546,-0.5 24.5459,-0.5"/>
<text text-anchor="start" x="32.5459" y="-29.5" font-family="Helvetica,sans-Serif" font-size="10.00">/home/travis/build</text>
<text text-anchor="start" x="32.5459" y="-18.5" font-family="Helvetica,sans-Serif" font-size="10.00">/hypro/hypro/src/hypro</text>
<text text-anchor="middle" x="115.546" y="-7.5" font-family="Helvetica,sans-Serif" font-size="10.00">/parser/antlr4&#45;cif/HybridCIFVisitor.h</text>
</a>
</g>
</g>
<!-- Node2&#45;&gt;Node5 -->
<g id="edge6" class="edge"><title>Node2&#45;&gt;Node5</title>
<path fill="none" stroke="midnightblue" d="M133.503,-346.624C100.197,-337.815 64.7124,-322.981 39.5459,-298 9.92084,-268.593 16.3016,-250.192 9.54586,-209 0.0766717,-151.263 -10.344,-126.389 22.5459,-78 33.1405,-62.4128 49.6488,-50.4581 65.834,-41.6765"/>
<polygon fill="midnightblue" stroke="midnightblue" points="132.74,-350.041 143.29,-349.06 134.431,-343.248 132.74,-350.041"/>
</g>
<!-- Node6 -->
<g id="node6" class="node"><title>Node6</title>
<g id="a_node6"><a xlink:href="HybridSystemBaseVisitor_8h.html" target="_top" xlink:title="/home/travis/build\l/hypro/hypro/src/hypro\l/parser/antlr4&#45;cif/HybridSystem\lBaseVisitor.h">
<polygon fill="white" stroke="black" points="143.546,-245.5 143.546,-297.5 309.546,-297.5 309.546,-245.5 143.546,-245.5"/>
<text text-anchor="start" x="151.546" y="-285.5" font-family="Helvetica,sans-Serif" font-size="10.00">/home/travis/build</text>
<text text-anchor="start" x="151.546" y="-274.5" font-family="Helvetica,sans-Serif" font-size="10.00">/hypro/hypro/src/hypro</text>
<text text-anchor="start" x="151.546" y="-263.5" font-family="Helvetica,sans-Serif" font-size="10.00">/parser/antlr4&#45;cif/HybridSystem</text>
<text text-anchor="middle" x="226.546" y="-252.5" font-family="Helvetica,sans-Serif" font-size="10.00">BaseVisitor.h</text>
</a>
</g>
</g>
<!-- Node2&#45;&gt;Node6 -->
<g id="edge7" class="edge"><title>Node2&#45;&gt;Node6</title>
<path fill="none" stroke="midnightblue" d="M226.546,-324.191C226.546,-315.282 226.546,-305.899 226.546,-297.607"/>
<polygon fill="midnightblue" stroke="midnightblue" points="223.046,-324.336 226.546,-334.336 230.046,-324.336 223.046,-324.336"/>
</g>
<!-- Node2&#45;&gt;Node8 -->
<g id="edge12" class="edge"><title>Node2&#45;&gt;Node8</title>
<path fill="none" stroke="midnightblue" d="M319.674,-339.99C373.309,-328.443 441.903,-313.15 502.546,-298 505.44,-297.277 508.383,-296.529 511.352,-295.765"/>
<polygon fill="midnightblue" stroke="midnightblue" points="318.882,-336.58 309.839,-342.101 320.351,-343.424 318.882,-336.58"/>
</g>
<!-- Node9 -->
<g id="node9" class="node"><title>Node9</title>
<g id="a_node9"><a xlink:href="HybridSystemVisitor_8cpp.html" target="_top" xlink:title="/home/travis/build\l/hypro/hypro/src/hypro\l/parser/antlr4&#45;cif/HybridSystem\lVisitor.cpp">
<polygon fill="white" stroke="black" points="327.546,-245.5 327.546,-297.5 493.546,-297.5 493.546,-245.5 327.546,-245.5"/>
<text text-anchor="start" x="335.546" y="-285.5" font-family="Helvetica,sans-Serif" font-size="10.00">/home/travis/build</text>
<text text-anchor="start" x="335.546" y="-274.5" font-family="Helvetica,sans-Serif" font-size="10.00">/hypro/hypro/src/hypro</text>
<text text-anchor="start" x="335.546" y="-263.5" font-family="Helvetica,sans-Serif" font-size="10.00">/parser/antlr4&#45;cif/HybridSystem</text>
<text text-anchor="middle" x="410.546" y="-252.5" font-family="Helvetica,sans-Serif" font-size="10.00">Visitor.cpp</text>
</a>
</g>
</g>
<!-- Node2&#45;&gt;Node9 -->
<g id="edge13" class="edge"><title>Node2&#45;&gt;Node9</title>
<path fill="none" stroke="midnightblue" d="M288.815,-330.058C311.104,-319.519 336.002,-307.746 357.445,-297.607"/>
<polygon fill="midnightblue" stroke="midnightblue" points="287.311,-326.897 279.766,-334.336 290.303,-333.226 287.311,-326.897"/>
</g>
<!-- Node3&#45;&gt;Node4 -->
<g id="edge3" class="edge"><title>Node3&#45;&gt;Node4</title>
<path fill="none" stroke="midnightblue" d="M115.546,-151.565C115.546,-140.882 115.546,-129.13 115.546,-119.547"/>
<polygon fill="midnightblue" stroke="midnightblue" points="112.046,-151.771 115.546,-161.771 119.046,-151.771 112.046,-151.771"/>
</g>
<!-- Node4&#45;&gt;Node5 -->
<g id="edge4" class="edge"><title>Node4&#45;&gt;Node5</title>
<path fill="none" stroke="midnightblue" d="M115.546,-68.2965C115.546,-59.3009 115.546,-49.6532 115.546,-41.5056"/>
<polygon fill="midnightblue" stroke="midnightblue" points="112.046,-68.4281 115.546,-78.4281 119.046,-68.4281 112.046,-68.4281"/>
</g>
<!-- Node6&#45;&gt;Node3 -->
<g id="edge8" class="edge"><title>Node6&#45;&gt;Node3</title>
<path fill="none" stroke="midnightblue" d="M186.162,-238.847C170.896,-226.882 153.978,-213.623 140.53,-203.082"/>
<polygon fill="midnightblue" stroke="midnightblue" points="184.41,-241.922 194.44,-245.336 188.729,-236.412 184.41,-241.922"/>
</g>
<!-- Node6&#45;&gt;Node4 -->
<g id="edge9" class="edge"><title>Node6&#45;&gt;Node4</title>
<path fill="none" stroke="midnightblue" d="M229.281,-234.894C229.395,-210.742 225.978,-179.123 210.546,-156 200.024,-140.235 183.433,-128.288 167.04,-119.564"/>
<polygon fill="midnightblue" stroke="midnightblue" points="225.777,-234.99 229.026,-245.075 232.775,-235.165 225.777,-234.99"/>
</g>
<!-- Node6&#45;&gt;Node5 -->
<g id="edge10" class="edge"><title>Node6&#45;&gt;Node5</title>
<path fill="none" stroke="midnightblue" d="M233.591,-235.102C239.827,-192.956 243.145,-122.669 207.546,-78 195.426,-62.7923 177.97,-50.6987 161.514,-41.6988"/>
<polygon fill="midnightblue" stroke="midnightblue" points="230.103,-234.748 231.964,-245.178 237.013,-235.864 230.103,-234.748"/>
</g>
<!-- Node7 -->
<g id="node7" class="node"><title>Node7</title>
<g id="a_node7"><a xlink:href="HybridSystemBaseVisitor_8cpp.html" target="_top" xlink:title="/home/travis/build\l/hypro/hypro/src/hypro\l/parser/antlr4&#45;cif/HybridSystem\lBaseVisitor.cpp">
<polygon fill="white" stroke="black" points="295.546,-156.5 295.546,-208.5 461.546,-208.5 461.546,-156.5 295.546,-156.5"/>
<text text-anchor="start" x="303.546" y="-196.5" font-family="Helvetica,sans-Serif" font-size="10.00">/home/travis/build</text>
<text text-anchor="start" x="303.546" y="-185.5" font-family="Helvetica,sans-Serif" font-size="10.00">/hypro/hypro/src/hypro</text>
<text text-anchor="start" x="303.546" y="-174.5" font-family="Helvetica,sans-Serif" font-size="10.00">/parser/antlr4&#45;cif/HybridSystem</text>
<text text-anchor="middle" x="378.546" y="-163.5" font-family="Helvetica,sans-Serif" font-size="10.00">BaseVisitor.cpp</text>
</a>
</g>
</g>
<!-- Node6&#45;&gt;Node7 -->
<g id="edge11" class="edge"><title>Node6&#45;&gt;Node7</title>
<path fill="none" stroke="midnightblue" d="M279.216,-240.353C297.311,-229.996 317.36,-218.521 334.68,-208.607"/>
<polygon fill="midnightblue" stroke="midnightblue" points="277.451,-237.331 270.511,-245.336 280.928,-243.406 277.451,-237.331"/>
</g>
</g>
</svg>
        <g id="navigator" transform="translate(0 0)" fill="#404254">
                <rect fill="#f2f5e9" fill-opacity="0.5" stroke="#606060" stroke-width=".5" x="0" y="0" width="60" height="60"/>
                <use id="zoomplus" xlink:href="#zoomPlus" x="17" y="9" onmousedown="handleZoom(evt,'in')"/>
                <use id="zoomminus" xlink:href="#zoomMin" x="42" y="9" onmousedown="handleZoom(evt,'out')"/>
                <use id="reset" xlink:href="#resetDef" x="30" y="36" onmousedown="handleReset()"/>
                <g id="arrowUp" xlink:href="#dirArrow" transform="translate(30 24)" onmousedown="handlePan(0,-1)">
                  <use xlink:href="#rim" fill="#404040">
                        <set attributeName="fill" to="#808080" begin="arrowUp.mouseover" end="arrowUp.mouseout"/>
                  </use>
                  <path fill="none" stroke="white" stroke-width="1.5" d="M0,-3.0v7 M-2.5,-0.5L0,-3.0L2.5,-0.5"/>
                </g>
                <g id="arrowRight" xlink:href="#dirArrow" transform="rotate(90) translate(36 -43)" onmousedown="handlePan(1,0)">
                  <use xlink:href="#rim" fill="#404040">
                        <set attributeName="fill" to="#808080" begin="arrowRight.mouseover" end="arrowRight.mouseout"/>
                  </use>
                  <path fill="none" stroke="white" stroke-width="1.5" d="M0,-3.0v7 M-2.5,-0.5L0,-3.0L2.5,-0.5"/>
                </g>
                <g id="arrowDown" xlink:href="#dirArrow" transform="rotate(180) translate(-30 -48)" onmousedown="handlePan(0,1)">
                  <use xlink:href="#rim" fill="#404040">
                        <set attributeName="fill" to="#808080" begin="arrowDown.mouseover" end="arrowDown.mouseout"/>
                  </use>
                  <path fill="none" stroke="white" stroke-width="1.5" d="M0,-3.0v7 M-2.5,-0.5L0,-3.0L2.5,-0.5"/>
                </g>
                <g id="arrowLeft" xlink:href="#dirArrow" transform="rotate(270) translate(-36 17)" onmousedown="handlePan(-1,0)">
                  <use xlink:href="#rim" fill="#404040">
                        <set attributeName="fill" to="#808080" begin="arrowLeft.mouseover" end="arrowLeft.mouseout"/>
                  </use>
                  <path fill="none" stroke="white" stroke-width="1.5" d="M0,-3.0v7 M-2.5,-0.5L0,-3.0L2.5,-0.5"/>
                </g>
        </g>
        <svg viewBox="0 0 15 15" width="100%" height="30px" preserveAspectRatio="xMaxYMin meet">
         <g id="arrow_out" transform="scale(0.3 0.3)">
          <a xlink:href="HybridSystemParser_8h__dep__incl_org.svg" target="_base">
           <rect id="button" ry="5" rx="5" y="6" x="6" height="38" width="38"
                fill="#f2f5e9" fill-opacity="0.5" stroke="#606060" stroke-width="1.0"/>
           <path id="arrow"
             d="M 11.500037,31.436501 C 11.940474,20.09759 22.043105,11.32322 32.158766,21.979434 L 37.068811,17.246167 C 37.068811,17.246167 37.088388,32 37.088388,32 L 22.160133,31.978069 C 22.160133,31.978069 26.997745,27.140456 26.997745,27.140456 C 18.528582,18.264221 13.291696,25.230495 11.500037,31.436501 z"
             style="fill:#404040;"/>
          </a>
         </g>
        </svg>
</svg>
