<?xml version="1.0" encoding="UTF-8" standalone="no"?>
<!DOCTYPE svg PUBLIC "-//W3C//DTD SVG 1.1//EN"
 "http://www.w3.org/Graphics/SVG/1.1/DTD/svg11.dtd">
<!-- Generated by graphviz version 2.38.0 (20140413.2041)
 -->
<!-- Title: /home/travis/build/hypro/hypro/src/hypro/parser/antlr4&#45;flowstar/HybridAutomatonLexer.h Pages: 1 -->
<!--zoomable 417 -->
<svg id="main" version="1.1" xmlns="http://www.w3.org/2000/svg" xmlns:xlink="http://www.w3.org/1999/xlink" xml:space="preserve" onload="init(evt)">
<style type="text/css"><![CDATA[
.edge:hover path { stroke: red; }
.edge:hover polygon { stroke: red; fill: red; }
]]></style>
<script type="text/javascript"><![CDATA[
var edges = document.getElementsByTagName('g');
if (edges && edges.length) {
  for (var i=0;i<edges.length;i++) {
    if (edges[i].id.substr(0,4)=='edge') {
      edges[i].setAttribute('class','edge');
    }
  }
}
]]></script>
        <defs>
                <circle id="rim" cx="0" cy="0" r="7"/>
                <circle id="rim2" cx="0" cy="0" r="3.5"/>
                <g id="zoomPlus">
                        <use xlink:href="#rim" fill="#404040">
                                <set attributeName="fill" to="#808080" begin="zoomplus.mouseover" end="zoomplus.mouseout"/>
                        </use>
                        <path d="M-4,0h8M0,-4v8" fill="none" stroke="white" stroke-width="1.5" pointer-events="none"/>
                </g>
                <g id="zoomMin">
                        <use xlink:href="#rim" fill="#404040">
                                <set attributeName="fill" to="#808080" begin="zoomminus.mouseover" end="zoomminus.mouseout"/>
                        </use>
                        <path d="M-4,0h8" fill="none" stroke="white" stroke-width="1.5" pointer-events="none"/>
                </g>
                <g id="dirArrow">
                        <path fill="none" stroke="white" stroke-width="1.5" d="M0,-3.0v7 M-2.5,-0.5L0,-3.0L2.5,-0.5"/>
                </g>
               <g id="resetDef">
                       <use xlink:href="#rim2" fill="#404040">
                               <set attributeName="fill" to="#808080" begin="reset.mouseover" end="reset.mouseout"/>
                       </use>
               </g>
        </defs>

<script type="text/javascript">
var viewWidth = 798;
var viewHeight = 417;
var sectionId = 'dynsection-1';
</script>
<script xlink:href="svgpan.js"/>
<svg id="graph" class="graph">
<g id="viewport">
<title>/home/travis/build/hypro/hypro/src/hypro/parser/antlr4&#45;flowstar/HybridAutomatonLexer.h</title>
<polygon fill="white" stroke="none" points="-4,4 -4,-413 794.227,-413 794.227,4 -4,4"/>
<!-- Node1 -->
<g id="node1" class="node"><title>Node1</title>
<polygon fill="#bfbfbf" stroke="black" points="358.5,-356.5 358.5,-408.5 497.5,-408.5 497.5,-356.5 358.5,-356.5"/>
<text text-anchor="start" x="366.5" y="-396.5" font-family="Helvetica,sans-Serif" font-size="10.00">/home/travis/build</text>
<text text-anchor="start" x="366.5" y="-385.5" font-family="Helvetica,sans-Serif" font-size="10.00">/hypro/hypro/src/hypro</text>
<text text-anchor="start" x="366.5" y="-374.5" font-family="Helvetica,sans-Serif" font-size="10.00">/parser/antlr4&#45;flowstar</text>
<text text-anchor="middle" x="428" y="-363.5" font-family="Helvetica,sans-Serif" font-size="10.00">/HybridAutomatonLexer.h</text>
</g>
<!-- Node2 -->
<g id="node2" class="node"><title>Node2</title>
<g id="a_node2"><a xlink:href="HybridAutomatonLexer_8cpp.html" target="_top" xlink:title="/home/travis/build\l/hypro/hypro/src/hypro\l/parser/antlr4&#45;flowstar\l/HybridAutomatonLexer.cpp">
<polygon fill="white" stroke="black" points="0,-267.5 0,-319.5 150,-319.5 150,-267.5 0,-267.5"/>
<text text-anchor="start" x="8" y="-307.5" font-family="Helvetica,sans-Serif" font-size="10.00">/home/travis/build</text>
<text text-anchor="start" x="8" y="-296.5" font-family="Helvetica,sans-Serif" font-size="10.00">/hypro/hypro/src/hypro</text>
<text text-anchor="start" x="8" y="-285.5" font-family="Helvetica,sans-Serif" font-size="10.00">/parser/antlr4&#45;flowstar</text>
<text text-anchor="middle" x="75" y="-274.5" font-family="Helvetica,sans-Serif" font-size="10.00">/HybridAutomatonLexer.cpp</text>
</a>
</g>
</g>
<!-- Node1&#45;&gt;Node2 -->
<g id="edge1" class="edge"><title>Node1&#45;&gt;Node2</title>
<path fill="none" stroke="midnightblue" d="M348.359,-364.041C295.839,-352.259 225.622,-335.995 164,-320 159.488,-318.829 154.857,-317.596 150.19,-316.33"/>
<polygon fill="midnightblue" stroke="midnightblue" points="347.763,-367.494 358.286,-366.262 349.292,-360.663 347.763,-367.494"/>
</g>
<!-- Node3 -->
<g id="node3" class="node"><title>Node3</title>
<g id="a_node3"><a xlink:href="HyproFormulaVisitor_8h.html" target="_top" xlink:title="/home/travis/build\l/hypro/hypro/src/hypro\l/parser/antlr4&#45;flowstar\l/HyproFormulaVisitor.h">
<polygon fill="white" stroke="black" points="365.5,-267.5 365.5,-319.5 490.5,-319.5 490.5,-267.5 365.5,-267.5"/>
<text text-anchor="start" x="373.5" y="-307.5" font-family="Helvetica,sans-Serif" font-size="10.00">/home/travis/build</text>
<text text-anchor="start" x="373.5" y="-296.5" font-family="Helvetica,sans-Serif" font-size="10.00">/hypro/hypro/src/hypro</text>
<text text-anchor="start" x="373.5" y="-285.5" font-family="Helvetica,sans-Serif" font-size="10.00">/parser/antlr4&#45;flowstar</text>
<text text-anchor="middle" x="428" y="-274.5" font-family="Helvetica,sans-Serif" font-size="10.00">/HyproFormulaVisitor.h</text>
</a>
</g>
</g>
<!-- Node1&#45;&gt;Node3 -->
<g id="edge2" class="edge"><title>Node1&#45;&gt;Node3</title>
<path fill="none" stroke="midnightblue" d="M428,-346.191C428,-337.282 428,-327.899 428,-319.607"/>
<polygon fill="midnightblue" stroke="midnightblue" points="424.5,-346.336 428,-356.336 431.5,-346.336 424.5,-346.336"/>
</g>
<!-- Node4 -->
<g id="node4" class="node"><title>Node4</title>
<g id="a_node4"><a xlink:href="HyproLocationVisitor_8h.html" target="_top" xlink:title="/home/travis/build\l/hypro/hypro/src/hypro\l/parser/antlr4&#45;flowstar\l/HyproLocationVisitor.h">
<polygon fill="white" stroke="black" points="497.5,-178.5 497.5,-230.5 624.5,-230.5 624.5,-178.5 497.5,-178.5"/>
<text text-anchor="start" x="505.5" y="-218.5" font-family="Helvetica,sans-Serif" font-size="10.00">/home/travis/build</text>
<text text-anchor="start" x="505.5" y="-207.5" font-family="Helvetica,sans-Serif" font-size="10.00">/hypro/hypro/src/hypro</text>
<text text-anchor="start" x="505.5" y="-196.5" font-family="Helvetica,sans-Serif" font-size="10.00">/parser/antlr4&#45;flowstar</text>
<text text-anchor="middle" x="561" y="-185.5" font-family="Helvetica,sans-Serif" font-size="10.00">/HyproLocationVisitor.h</text>
</a>
</g>
</g>
<!-- Node1&#45;&gt;Node4 -->
<g id="edge13" class="edge"><title>Node1&#45;&gt;Node4</title>
<path fill="none" stroke="midnightblue" d="M469.589,-349.877C479.912,-340.893 490.456,-330.639 499,-320 521.365,-292.152 539.74,-255.063 550.531,-230.749"/>
<polygon fill="midnightblue" stroke="midnightblue" points="467.15,-347.356 461.774,-356.486 471.67,-352.701 467.15,-347.356"/>
</g>
<!-- Node5 -->
<g id="node5" class="node"><title>Node5</title>
<g id="a_node5"><a xlink:href="HyproHAVisitor_8h.html" target="_top" xlink:title="/home/travis/build\l/hypro/hypro/src/hypro\l/parser/antlr4&#45;flowstar\l/HyproHAVisitor.h">
<polygon fill="white" stroke="black" points="425,-89.5 425,-141.5 549,-141.5 549,-89.5 425,-89.5"/>
<text text-anchor="start" x="433" y="-129.5" font-family="Helvetica,sans-Serif" font-size="10.00">/home/travis/build</text>
<text text-anchor="start" x="433" y="-118.5" font-family="Helvetica,sans-Serif" font-size="10.00">/hypro/hypro/src/hypro</text>
<text text-anchor="start" x="433" y="-107.5" font-family="Helvetica,sans-Serif" font-size="10.00">/parser/antlr4&#45;flowstar</text>
<text text-anchor="middle" x="487" y="-96.5" font-family="Helvetica,sans-Serif" font-size="10.00">/HyproHAVisitor.h</text>
</a>
</g>
</g>
<!-- Node1&#45;&gt;Node5 -->
<g id="edge12" class="edge"><title>Node1&#45;&gt;Node5</title>
<path fill="none" stroke="midnightblue" d="M507.674,-372.91C591.99,-359.058 720.862,-323.194 780,-231 835.51,-144.462 650.944,-123.281 549.366,-118.131"/>
<polygon fill="midnightblue" stroke="midnightblue" points="506.954,-369.48 497.62,-374.492 508.043,-376.395 506.954,-369.48"/>
</g>
<!-- Node6 -->
<g id="node6" class="node"><title>Node6</title>
<g id="a_node6"><a xlink:href="ParserWrapper_8cpp.html" target="_top" xlink:title="/home/travis/build\l/hypro/hypro/src/hypro\l/parser/antlr4&#45;flowstar\l/ParserWrapper.cpp">
<polygon fill="white" stroke="black" points="270,-0.5 270,-52.5 394,-52.5 394,-0.5 270,-0.5"/>
<text text-anchor="start" x="278" y="-40.5" font-family="Helvetica,sans-Serif" font-size="10.00">/home/travis/build</text>
<text text-anchor="start" x="278" y="-29.5" font-family="Helvetica,sans-Serif" font-size="10.00">/hypro/hypro/src/hypro</text>
<text text-anchor="start" x="278" y="-18.5" font-family="Helvetica,sans-Serif" font-size="10.00">/parser/antlr4&#45;flowstar</text>
<text text-anchor="middle" x="332" y="-7.5" font-family="Helvetica,sans-Serif" font-size="10.00">/ParserWrapper.cpp</text>
</a>
</g>
</g>
<!-- Node1&#45;&gt;Node6 -->
<g id="edge16" class="edge"><title>Node1&#45;&gt;Node6</title>
<path fill="none" stroke="midnightblue" d="M348.988,-354.978C294.417,-331.841 226.55,-292.226 197,-231 163.921,-162.462 243.602,-89.9889 294.177,-52.795"/>
<polygon fill="midnightblue" stroke="midnightblue" points="347.736,-358.248 358.315,-358.829 350.407,-351.778 347.736,-358.248"/>
</g>
<!-- Node8 -->
<g id="node8" class="node"><title>Node8</title>
<g id="a_node8"><a xlink:href="HyproInitialSetVisitor_8h.html" target="_top" xlink:title="/home/travis/build\l/hypro/hypro/src/hypro\l/parser/antlr4&#45;flowstar\l/HyproInitialSetVisitor.h">
<polygon fill="white" stroke="black" points="643,-178.5 643,-230.5 771,-230.5 771,-178.5 643,-178.5"/>
<text text-anchor="start" x="651" y="-218.5" font-family="Helvetica,sans-Serif" font-size="10.00">/home/travis/build</text>
<text text-anchor="start" x="651" y="-207.5" font-family="Helvetica,sans-Serif" font-size="10.00">/hypro/hypro/src/hypro</text>
<text text-anchor="start" x="651" y="-196.5" font-family="Helvetica,sans-Serif" font-size="10.00">/parser/antlr4&#45;flowstar</text>
<text text-anchor="middle" x="707" y="-185.5" font-family="Helvetica,sans-Serif" font-size="10.00">/HyproInitialSetVisitor.h</text>
</a>
</g>
</g>
<!-- Node1&#45;&gt;Node8 -->
<g id="edge14" class="edge"><title>Node1&#45;&gt;Node8</title>
<path fill="none" stroke="midnightblue" d="M479.217,-351.05C495.516,-341.245 513.575,-330.261 530,-320 578.266,-289.848 633.203,-254.08 668.898,-230.643"/>
<polygon fill="midnightblue" stroke="midnightblue" points="477.137,-348.216 470.365,-356.364 480.74,-354.218 477.137,-348.216"/>
</g>
<!-- Node9 -->
<g id="node9" class="node"><title>Node9</title>
<g id="a_node9"><a xlink:href="HyproSettingVisitor_8h.html" target="_top" xlink:title="/home/travis/build\l/hypro/hypro/src/hypro\l/parser/antlr4&#45;flowstar\l/HyproSettingVisitor.h">
<polygon fill="white" stroke="black" points="206,-178.5 206,-230.5 330,-230.5 330,-178.5 206,-178.5"/>
<text text-anchor="start" x="214" y="-218.5" font-family="Helvetica,sans-Serif" font-size="10.00">/home/travis/build</text>
<text text-anchor="start" x="214" y="-207.5" font-family="Helvetica,sans-Serif" font-size="10.00">/hypro/hypro/src/hypro</text>
<text text-anchor="start" x="214" y="-196.5" font-family="Helvetica,sans-Serif" font-size="10.00">/parser/antlr4&#45;flowstar</text>
<text text-anchor="middle" x="268" y="-185.5" font-family="Helvetica,sans-Serif" font-size="10.00">/HyproSettingVisitor.h</text>
</a>
</g>
</g>
<!-- Node1&#45;&gt;Node9 -->
<g id="edge15" class="edge"><title>Node1&#45;&gt;Node9</title>
<path fill="none" stroke="midnightblue" d="M387.835,-349.753C377.082,-340.58 365.747,-330.264 356,-320 328.895,-291.458 301.938,-254.859 285.142,-230.821"/>
<polygon fill="midnightblue" stroke="midnightblue" points="385.621,-352.464 395.53,-356.213 390.121,-347.103 385.621,-352.464"/>
</g>
<!-- Node3&#45;&gt;Node4 -->
<g id="edge3" class="edge"><title>Node3&#45;&gt;Node4</title>
<path fill="none" stroke="midnightblue" d="M474.952,-261.787C490.557,-251.579 507.738,-240.341 522.617,-230.607"/>
<polygon fill="midnightblue" stroke="midnightblue" points="472.922,-258.933 466.469,-267.336 476.754,-264.791 472.922,-258.933"/>
</g>
<!-- Node7 -->
<g id="node7" class="node"><title>Node7</title>
<g id="a_node7"><a xlink:href="HyproTransitionVisitor_8h.html" target="_top" xlink:title="/home/travis/build\l/hypro/hypro/src/hypro\l/parser/antlr4&#45;flowstar\l/HyproTransitionVisitor.h">
<polygon fill="white" stroke="black" points="348.5,-178.5 348.5,-230.5 479.5,-230.5 479.5,-178.5 348.5,-178.5"/>
<text text-anchor="start" x="356.5" y="-218.5" font-family="Helvetica,sans-Serif" font-size="10.00">/home/travis/build</text>
<text text-anchor="start" x="356.5" y="-207.5" font-family="Helvetica,sans-Serif" font-size="10.00">/hypro/hypro/src/hypro</text>
<text text-anchor="start" x="356.5" y="-196.5" font-family="Helvetica,sans-Serif" font-size="10.00">/parser/antlr4&#45;flowstar</text>
<text text-anchor="middle" x="414" y="-185.5" font-family="Helvetica,sans-Serif" font-size="10.00">/HyproTransitionVisitor.h</text>
</a>
</g>
</g>
<!-- Node3&#45;&gt;Node7 -->
<g id="edge6" class="edge"><title>Node3&#45;&gt;Node7</title>
<path fill="none" stroke="midnightblue" d="M422.318,-257.191C420.885,-248.282 419.374,-238.899 418.04,-230.607"/>
<polygon fill="midnightblue" stroke="midnightblue" points="418.906,-258.019 423.951,-267.336 425.817,-256.907 418.906,-258.019"/>
</g>
<!-- Node3&#45;&gt;Node8 -->
<g id="edge8" class="edge"><title>Node3&#45;&gt;Node8</title>
<path fill="none" stroke="midnightblue" d="M500.714,-271.677C540.267,-260.127 589.971,-245.254 634,-231 636.938,-230.049 639.937,-229.063 642.962,-228.056"/>
<polygon fill="midnightblue" stroke="midnightblue" points="499.509,-268.382 490.887,-274.539 501.467,-275.103 499.509,-268.382"/>
</g>
<!-- Node3&#45;&gt;Node9 -->
<g id="edge10" class="edge"><title>Node3&#45;&gt;Node9</title>
<path fill="none" stroke="midnightblue" d="M372.817,-262.494C353.702,-252.101 332.489,-240.566 314.175,-230.607"/>
<polygon fill="midnightblue" stroke="midnightblue" points="371.264,-265.634 381.721,-267.336 374.608,-259.484 371.264,-265.634"/>
</g>
<!-- Node4&#45;&gt;Node5 -->
<g id="edge4" class="edge"><title>Node4&#45;&gt;Node5</title>
<path fill="none" stroke="midnightblue" d="M532.933,-170.503C524.785,-160.923 516.021,-150.62 508.356,-141.607"/>
<polygon fill="midnightblue" stroke="midnightblue" points="530.451,-172.986 539.596,-178.336 535.783,-168.451 530.451,-172.986"/>
</g>
<!-- Node5&#45;&gt;Node6 -->
<g id="edge5" class="edge"><title>Node5&#45;&gt;Node6</title>
<path fill="none" stroke="midnightblue" d="M433.29,-84.3532C414.838,-73.9962 394.393,-62.5208 376.732,-52.6075"/>
<polygon fill="midnightblue" stroke="midnightblue" points="431.734,-87.4934 442.168,-89.336 435.16,-81.3893 431.734,-87.4934"/>
</g>
<!-- Node7&#45;&gt;Node5 -->
<g id="edge7" class="edge"><title>Node7&#45;&gt;Node5</title>
<path fill="none" stroke="midnightblue" d="M441.687,-170.503C449.726,-160.923 458.371,-150.62 465.933,-141.607"/>
<polygon fill="midnightblue" stroke="midnightblue" points="438.861,-168.426 435.115,-178.336 444.224,-172.925 438.861,-168.426"/>
</g>
<!-- Node8&#45;&gt;Node5 -->
<g id="edge9" class="edge"><title>Node8&#45;&gt;Node5</title>
<path fill="none" stroke="midnightblue" d="M634.091,-174.668C606.581,-163.789 575.566,-151.524 549.132,-141.071"/>
<polygon fill="midnightblue" stroke="midnightblue" points="633.076,-178.03 643.662,-178.453 635.65,-171.52 633.076,-178.03"/>
</g>
<!-- Node9&#45;&gt;Node5 -->
<g id="edge11" class="edge"><title>Node9&#45;&gt;Node5</title>
<path fill="none" stroke="midnightblue" d="M339.711,-175.012C367.145,-164.114 398.186,-151.782 424.674,-141.26"/>
<polygon fill="midnightblue" stroke="midnightblue" points="338.172,-171.857 330.171,-178.802 340.757,-178.363 338.172,-171.857"/>
</g>
</g>
</svg>
        <g id="navigator" transform="translate(0 0)" fill="#404254">
                <rect fill="#f2f5e9" fill-opacity="0.5" stroke="#606060" stroke-width=".5" x="0" y="0" width="60" height="60"/>
                <use id="zoomplus" xlink:href="#zoomPlus" x="17" y="9" onmousedown="handleZoom(evt,'in')"/>
                <use id="zoomminus" xlink:href="#zoomMin" x="42" y="9" onmousedown="handleZoom(evt,'out')"/>
                <use id="reset" xlink:href="#resetDef" x="30" y="36" onmousedown="handleReset()"/>
                <g id="arrowUp" xlink:href="#dirArrow" transform="translate(30 24)" onmousedown="handlePan(0,-1)">
                  <use xlink:href="#rim" fill="#404040">
                        <set attributeName="fill" to="#808080" begin="arrowUp.mouseover" end="arrowUp.mouseout"/>
                  </use>
                  <path fill="none" stroke="white" stroke-width="1.5" d="M0,-3.0v7 M-2.5,-0.5L0,-3.0L2.5,-0.5"/>
                </g>
                <g id="arrowRight" xlink:href="#dirArrow" transform="rotate(90) translate(36 -43)" onmousedown="handlePan(1,0)">
                  <use xlink:href="#rim" fill="#404040">
                        <set attributeName="fill" to="#808080" begin="arrowRight.mouseover" end="arrowRight.mouseout"/>
                  </use>
                  <path fill="none" stroke="white" stroke-width="1.5" d="M0,-3.0v7 M-2.5,-0.5L0,-3.0L2.5,-0.5"/>
                </g>
                <g id="arrowDown" xlink:href="#dirArrow" transform="rotate(180) translate(-30 -48)" onmousedown="handlePan(0,1)">
                  <use xlink:href="#rim" fill="#404040">
                        <set attributeName="fill" to="#808080" begin="arrowDown.mouseover" end="arrowDown.mouseout"/>
                  </use>
                  <path fill="none" stroke="white" stroke-width="1.5" d="M0,-3.0v7 M-2.5,-0.5L0,-3.0L2.5,-0.5"/>
                </g>
                <g id="arrowLeft" xlink:href="#dirArrow" transform="rotate(270) translate(-36 17)" onmousedown="handlePan(-1,0)">
                  <use xlink:href="#rim" fill="#404040">
                        <set attributeName="fill" to="#808080" begin="arrowLeft.mouseover" end="arrowLeft.mouseout"/>
                  </use>
                  <path fill="none" stroke="white" stroke-width="1.5" d="M0,-3.0v7 M-2.5,-0.5L0,-3.0L2.5,-0.5"/>
                </g>
        </g>
        <svg viewBox="0 0 15 15" width="100%" height="30px" preserveAspectRatio="xMaxYMin meet">
         <g id="arrow_out" transform="scale(0.3 0.3)">
          <a xlink:href="HybridAutomatonLexer_8h__dep__incl_org.svg" target="_base">
           <rect id="button" ry="5" rx="5" y="6" x="6" height="38" width="38"
                fill="#f2f5e9" fill-opacity="0.5" stroke="#606060" stroke-width="1.0"/>
           <path id="arrow"
             d="M 11.500037,31.436501 C 11.940474,20.09759 22.043105,11.32322 32.158766,21.979434 L 37.068811,17.246167 C 37.068811,17.246167 37.088388,32 37.088388,32 L 22.160133,31.978069 C 22.160133,31.978069 26.997745,27.140456 26.997745,27.140456 C 18.528582,18.264221 13.291696,25.230495 11.500037,31.436501 z"
             style="fill:#404040;"/>
          </a>
         </g>
        </svg>
</svg>
