<?xml version="1.0" encoding="UTF-8" standalone="no"?>
<!DOCTYPE svg PUBLIC "-//W3C//DTD SVG 1.1//EN"
 "http://www.w3.org/Graphics/SVG/1.1/DTD/svg11.dtd">
<!-- Generated by graphviz version 2.38.0 (20140413.2041)
 -->
<!-- Title: /home/travis/build/hypro/hypro/src/hypro/parser/antlr4&#45;flowstar/HybridAutomatonVisitor.cpp Pages: 1 -->
<svg width="225pt" height="229pt"
 viewBox="0.00 0.00 224.50 229.00" xmlns="http://www.w3.org/2000/svg" xmlns:xlink="http://www.w3.org/1999/xlink">
<g id="graph0" class="graph" transform="scale(1 1) rotate(0) translate(4 225)">
<title>/home/travis/build/hypro/hypro/src/hypro/parser/antlr4&#45;flowstar/HybridAutomatonVisitor.cpp</title>
<polygon fill="white" stroke="none" points="-4,4 -4,-225 220.5,-225 220.5,4 -4,4"/>
<!-- Node1 -->
<g id="node1" class="node"><title>Node1</title>
<polygon fill="#bfbfbf" stroke="black" points="13.5,-168.5 13.5,-220.5 167.5,-220.5 167.5,-168.5 13.5,-168.5"/>
<text text-anchor="start" x="21.5" y="-208.5" font-family="Helvetica,sans-Serif" font-size="10.00">/home/travis/build</text>
<text text-anchor="start" x="21.5" y="-197.5" font-family="Helvetica,sans-Serif" font-size="10.00">/hypro/hypro/src/hypro</text>
<text text-anchor="start" x="21.5" y="-186.5" font-family="Helvetica,sans-Serif" font-size="10.00">/parser/antlr4&#45;flowstar</text>
<text text-anchor="middle" x="90.5" y="-175.5" font-family="Helvetica,sans-Serif" font-size="10.00">/HybridAutomatonVisitor.cpp</text>
</g>
<!-- Node2 -->
<g id="node2" class="node"><title>Node2</title>
<g id="a_node2"><a xlink:href="HybridAutomatonVisitor_8h.html" target="_top" xlink:title="HybridAutomatonVisitor.h">
<polygon fill="white" stroke="black" points="20.5,-112.5 20.5,-131.5 160.5,-131.5 160.5,-112.5 20.5,-112.5"/>
<text text-anchor="middle" x="90.5" y="-119.5" font-family="Helvetica,sans-Serif" font-size="10.00">HybridAutomatonVisitor.h</text>
</a>
</g>
</g>
<!-- Node1&#45;&gt;Node2 -->
<g id="edge1" class="edge"><title>Node1&#45;&gt;Node2</title>
<path fill="none" stroke="midnightblue" d="M90.5,-168.446C90.5,-159.73 90.5,-150.104 90.5,-141.964"/>
<polygon fill="midnightblue" stroke="midnightblue" points="94.0001,-141.695 90.5,-131.695 87.0001,-141.696 94.0001,-141.695"/>
</g>
<!-- Node3 -->
<g id="node3" class="node"><title>Node3</title>
<polygon fill="white" stroke="#bfbfbf" points="0,-0.5 0,-19.5 95,-19.5 95,-0.5 0,-0.5"/>
<text text-anchor="middle" x="47.5" y="-7.5" font-family="Helvetica,sans-Serif" font-size="10.00">antlr4&#45;runtime.h</text>
</g>
<!-- Node2&#45;&gt;Node3 -->
<g id="edge2" class="edge"><title>Node2&#45;&gt;Node3</title>
<path fill="none" stroke="midnightblue" d="M83.1728,-112.291C76.2742,-103.635 66.1772,-89.7061 60.5,-76 54.3688,-61.198 51.0615,-43.272 49.32,-29.9974"/>
<polygon fill="midnightblue" stroke="midnightblue" points="52.7601,-29.2692 48.161,-19.7247 45.8043,-30.0541 52.7601,-29.2692"/>
</g>
<!-- Node4 -->
<g id="node4" class="node"><title>Node4</title>
<g id="a_node4"><a xlink:href="HybridAutomatonParser_8h.html" target="_top" xlink:title="HybridAutomatonParser.h">
<polygon fill="white" stroke="black" points="69.5,-56.5 69.5,-75.5 209.5,-75.5 209.5,-56.5 69.5,-56.5"/>
<text text-anchor="middle" x="139.5" y="-63.5" font-family="Helvetica,sans-Serif" font-size="10.00">HybridAutomatonParser.h</text>
</a>
</g>
</g>
<!-- Node2&#45;&gt;Node4 -->
<g id="edge3" class="edge"><title>Node2&#45;&gt;Node4</title>
<path fill="none" stroke="midnightblue" d="M98.5914,-112.083C105.655,-104.298 116.088,-92.8015 124.649,-83.3665"/>
<polygon fill="midnightblue" stroke="midnightblue" points="127.431,-85.5087 131.559,-75.7511 122.247,-80.8047 127.431,-85.5087"/>
</g>
<!-- Node4&#45;&gt;Node3 -->
<g id="edge4" class="edge"><title>Node4&#45;&gt;Node3</title>
<path fill="none" stroke="midnightblue" d="M124.719,-56.324C110.233,-47.8215 87.9269,-34.7288 71.0068,-24.7975"/>
<polygon fill="midnightblue" stroke="midnightblue" points="72.6406,-21.6981 62.2447,-19.6545 69.0972,-27.735 72.6406,-21.6981"/>
</g>
<!-- Node5 -->
<g id="node5" class="node"><title>Node5</title>
<polygon fill="white" stroke="#bfbfbf" points="116.5,-0.5 116.5,-19.5 154.5,-19.5 154.5,-0.5 116.5,-0.5"/>
<text text-anchor="middle" x="135.5" y="-7.5" font-family="Helvetica,sans-Serif" font-size="10.00">map</text>
</g>
<!-- Node4&#45;&gt;Node5 -->
<g id="edge5" class="edge"><title>Node4&#45;&gt;Node5</title>
<path fill="none" stroke="midnightblue" d="M138.839,-56.083C138.315,-49.0059 137.564,-38.8611 136.906,-29.9865"/>
<polygon fill="midnightblue" stroke="midnightblue" points="140.377,-29.4652 136.148,-19.7511 133.397,-29.9823 140.377,-29.4652"/>
</g>
<!-- Node6 -->
<g id="node6" class="node"><title>Node6</title>
<polygon fill="white" stroke="#bfbfbf" points="172.5,-0.5 172.5,-19.5 216.5,-19.5 216.5,-0.5 172.5,-0.5"/>
<text text-anchor="middle" x="194.5" y="-7.5" font-family="Helvetica,sans-Serif" font-size="10.00">string</text>
</g>
<!-- Node4&#45;&gt;Node6 -->
<g id="edge6" class="edge"><title>Node4&#45;&gt;Node6</title>
<path fill="none" stroke="midnightblue" d="M148.582,-56.083C156.671,-48.1409 168.695,-36.3354 178.41,-26.7973"/>
<polygon fill="midnightblue" stroke="midnightblue" points="180.903,-29.2545 185.587,-19.7511 175.999,-24.2595 180.903,-29.2545"/>
</g>
</g>
</svg>
