<?xml version="1.0" encoding="UTF-8" standalone="no"?>
<!DOCTYPE svg PUBLIC "-//W3C//DTD SVG 1.1//EN"
 "http://www.w3.org/Graphics/SVG/1.1/DTD/svg11.dtd">
<!-- Generated by graphviz version 2.38.0 (20140413.2041)
 -->
<!-- Title: /home/travis/build/hypro/hypro/src/hypro/parser/antlr4&#45;flowstar/HybridAutomatonBaseVisitor.h Pages: 1 -->
<svg width="253pt" height="229pt"
 viewBox="0.00 0.00 252.50 229.00" xmlns="http://www.w3.org/2000/svg" xmlns:xlink="http://www.w3.org/1999/xlink">
<g id="graph0" class="graph" transform="scale(1 1) rotate(0) translate(4 225)">
<title>/home/travis/build/hypro/hypro/src/hypro/parser/antlr4&#45;flowstar/HybridAutomatonBaseVisitor.h</title>
<polygon fill="white" stroke="none" points="-4,4 -4,-225 248.5,-225 248.5,4 -4,4"/>
<!-- Node1 -->
<g id="node1" class="node"><title>Node1</title>
<polygon fill="#bfbfbf" stroke="black" points="0,-168.5 0,-220.5 167,-220.5 167,-168.5 0,-168.5"/>
<text text-anchor="start" x="8" y="-208.5" font-family="Helvetica,sans-Serif" font-size="10.00">/home/travis/build</text>
<text text-anchor="start" x="8" y="-197.5" font-family="Helvetica,sans-Serif" font-size="10.00">/hypro/hypro/src/hypro</text>
<text text-anchor="start" x="8" y="-186.5" font-family="Helvetica,sans-Serif" font-size="10.00">/parser/antlr4&#45;flowstar</text>
<text text-anchor="middle" x="83.5" y="-175.5" font-family="Helvetica,sans-Serif" font-size="10.00">/HybridAutomatonBaseVisitor.h</text>
</g>
<!-- Node2 -->
<g id="node2" class="node"><title>Node2</title>
<polygon fill="white" stroke="#bfbfbf" points="25,-0.5 25,-19.5 120,-19.5 120,-0.5 25,-0.5"/>
<text text-anchor="middle" x="72.5" y="-7.5" font-family="Helvetica,sans-Serif" font-size="10.00">antlr4&#45;runtime.h</text>
</g>
<!-- Node1&#45;&gt;Node2 -->
<g id="edge1" class="edge"><title>Node1&#45;&gt;Node2</title>
<path fill="none" stroke="midnightblue" d="M68.0664,-168.434C62.2843,-157.639 56.4132,-144.617 53.5,-132 45.1612,-95.8855 56.9861,-52.8552 65.3825,-29.0692"/>
<polygon fill="midnightblue" stroke="midnightblue" points="68.7031,-30.1814 68.9143,-19.5886 62.1435,-27.7377 68.7031,-30.1814"/>
</g>
<!-- Node3 -->
<g id="node3" class="node"><title>Node3</title>
<g id="a_node3"><a xlink:href="HybridAutomatonVisitor_8h.html" target="_top" xlink:title="HybridAutomatonVisitor.h">
<polygon fill="white" stroke="black" points="62.5,-112.5 62.5,-131.5 202.5,-131.5 202.5,-112.5 62.5,-112.5"/>
<text text-anchor="middle" x="132.5" y="-119.5" font-family="Helvetica,sans-Serif" font-size="10.00">HybridAutomatonVisitor.h</text>
</a>
</g>
</g>
<!-- Node1&#45;&gt;Node3 -->
<g id="edge2" class="edge"><title>Node1&#45;&gt;Node3</title>
<path fill="none" stroke="midnightblue" d="M100.914,-168.446C107.459,-159.029 114.742,-148.55 120.664,-140.029"/>
<polygon fill="midnightblue" stroke="midnightblue" points="123.623,-141.904 126.456,-131.695 117.875,-137.909 123.623,-141.904"/>
</g>
<!-- Node3&#45;&gt;Node2 -->
<g id="edge3" class="edge"><title>Node3&#45;&gt;Node2</title>
<path fill="none" stroke="midnightblue" d="M122.315,-112.346C113.032,-103.941 99.5726,-90.3761 91.5,-76 83.405,-61.5841 78.4702,-43.3923 75.6664,-29.923"/>
<polygon fill="midnightblue" stroke="midnightblue" points="79.0714,-29.0904 73.7898,-19.9059 72.1911,-30.3795 79.0714,-29.0904"/>
</g>
<!-- Node4 -->
<g id="node4" class="node"><title>Node4</title>
<g id="a_node4"><a xlink:href="HybridAutomatonParser_8h.html" target="_top" xlink:title="HybridAutomatonParser.h">
<polygon fill="white" stroke="black" points="100.5,-56.5 100.5,-75.5 240.5,-75.5 240.5,-56.5 100.5,-56.5"/>
<text text-anchor="middle" x="170.5" y="-63.5" font-family="Helvetica,sans-Serif" font-size="10.00">HybridAutomatonParser.h</text>
</a>
</g>
</g>
<!-- Node3&#45;&gt;Node4 -->
<g id="edge4" class="edge"><title>Node3&#45;&gt;Node4</title>
<path fill="none" stroke="midnightblue" d="M138.775,-112.083C144.142,-104.455 152.018,-93.2645 158.579,-83.9408"/>
<polygon fill="midnightblue" stroke="midnightblue" points="161.449,-85.9434 164.342,-75.7511 155.725,-81.9149 161.449,-85.9434"/>
</g>
<!-- Node4&#45;&gt;Node2 -->
<g id="edge5" class="edge"><title>Node4&#45;&gt;Node2</title>
<path fill="none" stroke="midnightblue" d="M154.755,-56.324C139.181,-47.7428 115.123,-34.486 97.0407,-24.5224"/>
<polygon fill="midnightblue" stroke="midnightblue" points="98.6539,-21.4152 88.2063,-19.6545 95.2756,-27.546 98.6539,-21.4152"/>
</g>
<!-- Node5 -->
<g id="node5" class="node"><title>Node5</title>
<polygon fill="white" stroke="#bfbfbf" points="144.5,-0.5 144.5,-19.5 182.5,-19.5 182.5,-0.5 144.5,-0.5"/>
<text text-anchor="middle" x="163.5" y="-7.5" font-family="Helvetica,sans-Serif" font-size="10.00">map</text>
</g>
<!-- Node4&#45;&gt;Node5 -->
<g id="edge6" class="edge"><title>Node4&#45;&gt;Node5</title>
<path fill="none" stroke="midnightblue" d="M169.344,-56.083C168.416,-48.9272 167.082,-38.6353 165.923,-29.6911"/>
<polygon fill="midnightblue" stroke="midnightblue" points="169.391,-29.2181 164.634,-19.7511 162.449,-30.1181 169.391,-29.2181"/>
</g>
<!-- Node6 -->
<g id="node6" class="node"><title>Node6</title>
<polygon fill="white" stroke="#bfbfbf" points="200.5,-0.5 200.5,-19.5 244.5,-19.5 244.5,-0.5 200.5,-0.5"/>
<text text-anchor="middle" x="222.5" y="-7.5" font-family="Helvetica,sans-Serif" font-size="10.00">string</text>
</g>
<!-- Node4&#45;&gt;Node6 -->
<g id="edge7" class="edge"><title>Node4&#45;&gt;Node6</title>
<path fill="none" stroke="midnightblue" d="M179.087,-56.083C186.659,-48.2195 197.878,-36.5688 207.014,-27.0813"/>
<polygon fill="midnightblue" stroke="midnightblue" points="209.658,-29.3821 214.073,-19.7511 204.615,-24.5266 209.658,-29.3821"/>
</g>
</g>
</svg>
