<?xml version="1.0" encoding="UTF-8" standalone="no"?>
<!DOCTYPE svg PUBLIC "-//W3C//DTD SVG 1.1//EN"
 "http://www.w3.org/Graphics/SVG/1.1/DTD/svg11.dtd">
<!-- Generated by graphviz version 2.38.0 (20140413.2041)
 -->
<!-- Title: /home/travis/build/hypro/hypro/src/hypro/parser/antlr4&#45;cif/HybridSystemBaseVisitor.h Pages: 1 -->
<svg width="440pt" height="306pt"
 viewBox="0.00 0.00 440.00 306.00" xmlns="http://www.w3.org/2000/svg" xmlns:xlink="http://www.w3.org/1999/xlink">
<g id="graph0" class="graph" transform="scale(1 1) rotate(0) translate(4 302)">
<title>/home/travis/build/hypro/hypro/src/hypro/parser/antlr4&#45;cif/HybridSystemBaseVisitor.h</title>
<polygon fill="white" stroke="none" points="-4,4 -4,-302 436,-302 436,4 -4,4"/>
<!-- Node1 -->
<g id="node1" class="node"><title>Node1</title>
<polygon fill="#bfbfbf" stroke="black" points="136,-245.5 136,-297.5 302,-297.5 302,-245.5 136,-245.5"/>
<text text-anchor="start" x="144" y="-285.5" font-family="Helvetica,sans-Serif" font-size="10.00">/home/travis/build</text>
<text text-anchor="start" x="144" y="-274.5" font-family="Helvetica,sans-Serif" font-size="10.00">/hypro/hypro/src/hypro</text>
<text text-anchor="start" x="144" y="-263.5" font-family="Helvetica,sans-Serif" font-size="10.00">/parser/antlr4&#45;cif/HybridSystem</text>
<text text-anchor="middle" x="219" y="-252.5" font-family="Helvetica,sans-Serif" font-size="10.00">BaseVisitor.h</text>
</g>
<!-- Node2 -->
<g id="node2" class="node"><title>Node2</title>
<g id="a_node2"><a xlink:href="CIFExprVisitor_8h.html" target="_top" xlink:title="/home/travis/build\l/hypro/hypro/src/hypro\l/parser/antlr4&#45;cif/CIFExprVisitor.h">
<polygon fill="white" stroke="black" points="0,-162 0,-203 172,-203 172,-162 0,-162"/>
<text text-anchor="start" x="8" y="-191" font-family="Helvetica,sans-Serif" font-size="10.00">/home/travis/build</text>
<text text-anchor="start" x="8" y="-180" font-family="Helvetica,sans-Serif" font-size="10.00">/hypro/hypro/src/hypro</text>
<text text-anchor="middle" x="86" y="-169" font-family="Helvetica,sans-Serif" font-size="10.00">/parser/antlr4&#45;cif/CIFExprVisitor.h</text>
</a>
</g>
</g>
<!-- Node1&#45;&gt;Node2 -->
<g id="edge1" class="edge"><title>Node1&#45;&gt;Node2</title>
<path fill="none" stroke="midnightblue" d="M172.131,-239.841C153.45,-227.621 132.497,-213.916 115.936,-203.082"/>
<polygon fill="midnightblue" stroke="midnightblue" points="170.246,-242.791 180.531,-245.336 174.078,-236.933 170.246,-242.791"/>
</g>
<!-- Node3 -->
<g id="node3" class="node"><title>Node3</title>
<g id="a_node3"><a xlink:href="CIFLocVisitor_8h.html" target="_top" xlink:title="/home/travis/build\l/hypro/hypro/src/hypro\l/parser/antlr4&#45;cif/CIFLocVisitor.h">
<polygon fill="white" stroke="black" points="43.5,-78.5 43.5,-119.5 210.5,-119.5 210.5,-78.5 43.5,-78.5"/>
<text text-anchor="start" x="51.5" y="-107.5" font-family="Helvetica,sans-Serif" font-size="10.00">/home/travis/build</text>
<text text-anchor="start" x="51.5" y="-96.5" font-family="Helvetica,sans-Serif" font-size="10.00">/hypro/hypro/src/hypro</text>
<text text-anchor="middle" x="127" y="-85.5" font-family="Helvetica,sans-Serif" font-size="10.00">/parser/antlr4&#45;cif/CIFLocVisitor.h</text>
</a>
</g>
</g>
<!-- Node1&#45;&gt;Node3 -->
<g id="edge4" class="edge"><title>Node1&#45;&gt;Node3</title>
<path fill="none" stroke="midnightblue" d="M211.707,-235.522C205.777,-211.907 195.915,-180.668 181,-156 172.824,-142.478 160.842,-129.618 150.24,-119.641"/>
<polygon fill="midnightblue" stroke="midnightblue" points="208.354,-236.548 214.085,-245.458 215.161,-234.918 208.354,-236.548"/>
</g>
<!-- Node4 -->
<g id="node4" class="node"><title>Node4</title>
<g id="a_node4"><a xlink:href="HybridCIFVisitor_8h.html" target="_top" xlink:title="/home/travis/build\l/hypro/hypro/src/hypro\l/parser/antlr4&#45;cif/HybridCIFVisitor.h">
<polygon fill="white" stroke="black" points="91,-0.5 91,-41.5 273,-41.5 273,-0.5 91,-0.5"/>
<text text-anchor="start" x="99" y="-29.5" font-family="Helvetica,sans-Serif" font-size="10.00">/home/travis/build</text>
<text text-anchor="start" x="99" y="-18.5" font-family="Helvetica,sans-Serif" font-size="10.00">/hypro/hypro/src/hypro</text>
<text text-anchor="middle" x="182" y="-7.5" font-family="Helvetica,sans-Serif" font-size="10.00">/parser/antlr4&#45;cif/HybridCIFVisitor.h</text>
</a>
</g>
</g>
<!-- Node1&#45;&gt;Node4 -->
<g id="edge5" class="edge"><title>Node1&#45;&gt;Node4</title>
<path fill="none" stroke="midnightblue" d="M224.983,-235.083C230.264,-195.78 234.903,-130.919 219,-78 215.009,-64.7201 206.734,-51.6858 199.019,-41.5384"/>
<polygon fill="midnightblue" stroke="midnightblue" points="221.485,-234.825 223.53,-245.22 228.414,-235.818 221.485,-234.825"/>
</g>
<!-- Node5 -->
<g id="node5" class="node"><title>Node5</title>
<g id="a_node5"><a xlink:href="HybridSystemBaseVisitor_8cpp.html" target="_top" xlink:title="/home/travis/build\l/hypro/hypro/src/hypro\l/parser/antlr4&#45;cif/HybridSystem\lBaseVisitor.cpp">
<polygon fill="white" stroke="black" points="266,-156.5 266,-208.5 432,-208.5 432,-156.5 266,-156.5"/>
<text text-anchor="start" x="274" y="-196.5" font-family="Helvetica,sans-Serif" font-size="10.00">/home/travis/build</text>
<text text-anchor="start" x="274" y="-185.5" font-family="Helvetica,sans-Serif" font-size="10.00">/hypro/hypro/src/hypro</text>
<text text-anchor="start" x="274" y="-174.5" font-family="Helvetica,sans-Serif" font-size="10.00">/parser/antlr4&#45;cif/HybridSystem</text>
<text text-anchor="middle" x="349" y="-163.5" font-family="Helvetica,sans-Serif" font-size="10.00">BaseVisitor.cpp</text>
</a>
</g>
</g>
<!-- Node1&#45;&gt;Node5 -->
<g id="edge6" class="edge"><title>Node1&#45;&gt;Node5</title>
<path fill="none" stroke="midnightblue" d="M265.317,-239.503C280.457,-229.371 297.074,-218.25 311.483,-208.607"/>
<polygon fill="midnightblue" stroke="midnightblue" points="262.965,-236.865 256.601,-245.336 266.859,-242.683 262.965,-236.865"/>
</g>
<!-- Node2&#45;&gt;Node3 -->
<g id="edge2" class="edge"><title>Node2&#45;&gt;Node3</title>
<path fill="none" stroke="midnightblue" d="M100.557,-152.563C106.063,-141.619 112.195,-129.43 117.166,-119.547"/>
<polygon fill="midnightblue" stroke="midnightblue" points="97.2924,-151.265 95.925,-161.771 103.546,-154.411 97.2924,-151.265"/>
</g>
<!-- Node3&#45;&gt;Node4 -->
<g id="edge3" class="edge"><title>Node3&#45;&gt;Node4</title>
<path fill="none" stroke="midnightblue" d="M147.229,-70.0476C154.091,-60.5657 161.603,-50.1845 167.884,-41.5056"/>
<polygon fill="midnightblue" stroke="midnightblue" points="144.191,-68.275 141.164,-78.4281 149.862,-72.3789 144.191,-68.275"/>
</g>
</g>
</svg>
