<?xml version="1.0" encoding="UTF-8" standalone="no"?>
<!DOCTYPE svg PUBLIC "-//W3C//DTD SVG 1.1//EN"
 "http://www.w3.org/Graphics/SVG/1.1/DTD/svg11.dtd">
<!-- Generated by graphviz version 2.38.0 (20140413.2041)
 -->
<!-- Title: /home/travis/build/hypro/hypro/src/hypro/parser/antlr4&#45;cif/HybridSystemVisitor.h Pages: 1 -->
<!--zoomable 395 -->
<svg id="main" version="1.1" xmlns="http://www.w3.org/2000/svg" xmlns:xlink="http://www.w3.org/1999/xlink" xml:space="preserve" onload="init(evt)">
<style type="text/css"><![CDATA[
.edge:hover path { stroke: red; }
.edge:hover polygon { stroke: red; fill: red; }
]]></style>
<script type="text/javascript"><![CDATA[
var edges = document.getElementsByTagName('g');
if (edges && edges.length) {
  for (var i=0;i<edges.length;i++) {
    if (edges[i].id.substr(0,4)=='edge') {
      edges[i].setAttribute('class','edge');
    }
  }
}
]]></script>
        <defs>
                <circle id="rim" cx="0" cy="0" r="7"/>
                <circle id="rim2" cx="0" cy="0" r="3.5"/>
                <g id="zoomPlus">
                        <use xlink:href="#rim" fill="#404040">
                                <set attributeName="fill" to="#808080" begin="zoomplus.mouseover" end="zoomplus.mouseout"/>
                        </use>
                        <path d="M-4,0h8M0,-4v8" fill="none" stroke="white" stroke-width="1.5" pointer-events="none"/>
                </g>
                <g id="zoomMin">
                        <use xlink:href="#rim" fill="#404040">
                                <set attributeName="fill" to="#808080" begin="zoomminus.mouseover" end="zoomminus.mouseout"/>
                        </use>
                        <path d="M-4,0h8" fill="none" stroke="white" stroke-width="1.5" pointer-events="none"/>
                </g>
                <g id="dirArrow">
                        <path fill="none" stroke="white" stroke-width="1.5" d="M0,-3.0v7 M-2.5,-0.5L0,-3.0L2.5,-0.5"/>
                </g>
               <g id="resetDef">
                       <use xlink:href="#rim2" fill="#404040">
                               <set attributeName="fill" to="#808080" begin="reset.mouseover" end="reset.mouseout"/>
                       </use>
               </g>
        </defs>

<script type="text/javascript">
var viewWidth = 864;
var viewHeight = 395;
var sectionId = 'dynsection-1';
</script>
<script xlink:href="svgpan.js"/>
<svg id="graph" class="graph">
<g id="viewport">
<title>/home/travis/build/hypro/hypro/src/hypro/parser/antlr4&#45;cif/HybridSystemVisitor.h</title>
<polygon fill="white" stroke="none" points="-4,4 -4,-391 859.693,-391 859.693,4 -4,4"/>
<!-- Node1 -->
<g id="node1" class="node"><title>Node1</title>
<polygon fill="#bfbfbf" stroke="black" points="283.693,-334.5 283.693,-386.5 449.693,-386.5 449.693,-334.5 283.693,-334.5"/>
<text text-anchor="start" x="291.693" y="-374.5" font-family="Helvetica,sans-Serif" font-size="10.00">/home/travis/build</text>
<text text-anchor="start" x="291.693" y="-363.5" font-family="Helvetica,sans-Serif" font-size="10.00">/hypro/hypro/src/hypro</text>
<text text-anchor="start" x="291.693" y="-352.5" font-family="Helvetica,sans-Serif" font-size="10.00">/parser/antlr4&#45;cif/HybridSystem</text>
<text text-anchor="middle" x="366.693" y="-341.5" font-family="Helvetica,sans-Serif" font-size="10.00">Visitor.h</text>
</g>
<!-- Node2 -->
<g id="node2" class="node"><title>Node2</title>
<g id="a_node2"><a xlink:href="CIFExprVisitor_8h.html" target="_top" xlink:title="/home/travis/build\l/hypro/hypro/src/hypro\l/parser/antlr4&#45;cif/CIFExprVisitor.h">
<polygon fill="white" stroke="black" points="17.6926,-162 17.6926,-203 189.693,-203 189.693,-162 17.6926,-162"/>
<text text-anchor="start" x="25.6926" y="-191" font-family="Helvetica,sans-Serif" font-size="10.00">/home/travis/build</text>
<text text-anchor="start" x="25.6926" y="-180" font-family="Helvetica,sans-Serif" font-size="10.00">/hypro/hypro/src/hypro</text>
<text text-anchor="middle" x="103.693" y="-169" font-family="Helvetica,sans-Serif" font-size="10.00">/parser/antlr4&#45;cif/CIFExprVisitor.h</text>
</a>
</g>
</g>
<!-- Node1&#45;&gt;Node2 -->
<g id="edge1" class="edge"><title>Node1&#45;&gt;Node2</title>
<path fill="none" stroke="midnightblue" d="M273.597,-347.319C236.194,-338.598 194.688,-323.641 163.693,-298 133.431,-272.966 116.505,-228.652 108.823,-203.116"/>
<polygon fill="midnightblue" stroke="midnightblue" points="272.996,-350.771 283.516,-349.511 274.506,-343.936 272.996,-350.771"/>
</g>
<!-- Node3 -->
<g id="node3" class="node"><title>Node3</title>
<g id="a_node3"><a xlink:href="CIFLocVisitor_8h.html" target="_top" xlink:title="/home/travis/build\l/hypro/hypro/src/hypro\l/parser/antlr4&#45;cif/CIFLocVisitor.h">
<polygon fill="white" stroke="black" points="41.1926,-78.5 41.1926,-119.5 208.193,-119.5 208.193,-78.5 41.1926,-78.5"/>
<text text-anchor="start" x="49.1926" y="-107.5" font-family="Helvetica,sans-Serif" font-size="10.00">/home/travis/build</text>
<text text-anchor="start" x="49.1926" y="-96.5" font-family="Helvetica,sans-Serif" font-size="10.00">/hypro/hypro/src/hypro</text>
<text text-anchor="middle" x="124.693" y="-85.5" font-family="Helvetica,sans-Serif" font-size="10.00">/parser/antlr4&#45;cif/CIFLocVisitor.h</text>
</a>
</g>
</g>
<!-- Node1&#45;&gt;Node3 -->
<g id="edge4" class="edge"><title>Node1&#45;&gt;Node3</title>
<path fill="none" stroke="midnightblue" d="M273.424,-352.842C183.99,-340.611 55.8155,-306.098 8.69263,-209 -1.59197,-187.808 -3.8301,-175.951 8.69263,-156 18.9763,-139.616 35.5542,-127.911 52.9987,-119.593"/>
<polygon fill="midnightblue" stroke="midnightblue" points="273.218,-356.345 283.585,-354.159 274.118,-349.403 273.218,-356.345"/>
</g>
<!-- Node4 -->
<g id="node4" class="node"><title>Node4</title>
<g id="a_node4"><a xlink:href="HybridCIFVisitor_8h.html" target="_top" xlink:title="/home/travis/build\l/hypro/hypro/src/hypro\l/parser/antlr4&#45;cif/HybridCIFVisitor.h">
<polygon fill="white" stroke="black" points="164.693,-0.5 164.693,-41.5 346.693,-41.5 346.693,-0.5 164.693,-0.5"/>
<text text-anchor="start" x="172.693" y="-29.5" font-family="Helvetica,sans-Serif" font-size="10.00">/home/travis/build</text>
<text text-anchor="start" x="172.693" y="-18.5" font-family="Helvetica,sans-Serif" font-size="10.00">/hypro/hypro/src/hypro</text>
<text text-anchor="middle" x="255.693" y="-7.5" font-family="Helvetica,sans-Serif" font-size="10.00">/parser/antlr4&#45;cif/HybridCIFVisitor.h</text>
</a>
</g>
</g>
<!-- Node1&#45;&gt;Node4 -->
<g id="edge5" class="edge"><title>Node1&#45;&gt;Node4</title>
<path fill="none" stroke="midnightblue" d="M400.478,-326.725C438.235,-285.944 490.193,-214.538 458.693,-156 427.876,-98.7326 360.674,-61.8735 312.015,-41.5927"/>
<polygon fill="midnightblue" stroke="midnightblue" points="397.718,-324.55 393.381,-334.217 402.799,-329.364 397.718,-324.55"/>
</g>
<!-- Node5 -->
<g id="node5" class="node"><title>Node5</title>
<g id="a_node5"><a xlink:href="HybridSystemBaseVisitor_8h.html" target="_top" xlink:title="/home/travis/build\l/hypro/hypro/src/hypro\l/parser/antlr4&#45;cif/HybridSystem\lBaseVisitor.h">
<polygon fill="white" stroke="black" points="172.693,-245.5 172.693,-297.5 338.693,-297.5 338.693,-245.5 172.693,-245.5"/>
<text text-anchor="start" x="180.693" y="-285.5" font-family="Helvetica,sans-Serif" font-size="10.00">/home/travis/build</text>
<text text-anchor="start" x="180.693" y="-274.5" font-family="Helvetica,sans-Serif" font-size="10.00">/hypro/hypro/src/hypro</text>
<text text-anchor="start" x="180.693" y="-263.5" font-family="Helvetica,sans-Serif" font-size="10.00">/parser/antlr4&#45;cif/HybridSystem</text>
<text text-anchor="middle" x="255.693" y="-252.5" font-family="Helvetica,sans-Serif" font-size="10.00">BaseVisitor.h</text>
</a>
</g>
</g>
<!-- Node1&#45;&gt;Node5 -->
<g id="edge6" class="edge"><title>Node1&#45;&gt;Node5</title>
<path fill="none" stroke="midnightblue" d="M326.419,-327.934C313.688,-317.956 299.799,-307.07 287.726,-297.607"/>
<polygon fill="midnightblue" stroke="midnightblue" points="324.557,-330.922 334.587,-334.336 328.875,-325.412 324.557,-330.922"/>
</g>
<!-- Node7 -->
<g id="node7" class="node"><title>Node7</title>
<g id="a_node7"><a xlink:href="HybridSystemParser_8cpp.html" target="_top" xlink:title="/home/travis/build\l/hypro/hypro/src/hypro\l/parser/antlr4&#45;cif/HybridSystem\lParser.cpp">
<polygon fill="white" stroke="black" points="505.693,-245.5 505.693,-297.5 671.693,-297.5 671.693,-245.5 505.693,-245.5"/>
<text text-anchor="start" x="513.693" y="-285.5" font-family="Helvetica,sans-Serif" font-size="10.00">/home/travis/build</text>
<text text-anchor="start" x="513.693" y="-274.5" font-family="Helvetica,sans-Serif" font-size="10.00">/hypro/hypro/src/hypro</text>
<text text-anchor="start" x="513.693" y="-263.5" font-family="Helvetica,sans-Serif" font-size="10.00">/parser/antlr4&#45;cif/HybridSystem</text>
<text text-anchor="middle" x="588.693" y="-252.5" font-family="Helvetica,sans-Serif" font-size="10.00">Parser.cpp</text>
</a>
</g>
</g>
<!-- Node1&#45;&gt;Node7 -->
<g id="edge11" class="edge"><title>Node1&#45;&gt;Node7</title>
<path fill="none" stroke="midnightblue" d="M440.139,-330.717C467.532,-319.982 498.385,-307.891 524.846,-297.521"/>
<polygon fill="midnightblue" stroke="midnightblue" points="438.64,-327.545 430.606,-334.453 441.194,-334.063 438.64,-327.545"/>
</g>
<!-- Node8 -->
<g id="node8" class="node"><title>Node8</title>
<g id="a_node8"><a xlink:href="HybridSystemVisitor_8cpp.html" target="_top" xlink:title="/home/travis/build\l/hypro/hypro/src/hypro\l/parser/antlr4&#45;cif/HybridSystem\lVisitor.cpp">
<polygon fill="white" stroke="black" points="689.693,-245.5 689.693,-297.5 855.693,-297.5 855.693,-245.5 689.693,-245.5"/>
<text text-anchor="start" x="697.693" y="-285.5" font-family="Helvetica,sans-Serif" font-size="10.00">/home/travis/build</text>
<text text-anchor="start" x="697.693" y="-274.5" font-family="Helvetica,sans-Serif" font-size="10.00">/hypro/hypro/src/hypro</text>
<text text-anchor="start" x="697.693" y="-263.5" font-family="Helvetica,sans-Serif" font-size="10.00">/parser/antlr4&#45;cif/HybridSystem</text>
<text text-anchor="middle" x="772.693" y="-252.5" font-family="Helvetica,sans-Serif" font-size="10.00">Visitor.cpp</text>
</a>
</g>
</g>
<!-- Node1&#45;&gt;Node8 -->
<g id="edge12" class="edge"><title>Node1&#45;&gt;Node8</title>
<path fill="none" stroke="midnightblue" d="M459.579,-343.247C522.294,-331.799 606.796,-315.451 680.693,-298 683.596,-297.314 686.546,-296.599 689.522,-295.862"/>
<polygon fill="midnightblue" stroke="midnightblue" points="458.918,-339.81 449.705,-345.042 460.17,-346.697 458.918,-339.81"/>
</g>
<!-- Node2&#45;&gt;Node3 -->
<g id="edge2" class="edge"><title>Node2&#45;&gt;Node3</title>
<path fill="none" stroke="midnightblue" d="M111.32,-151.898C114.095,-141.127 117.161,-129.23 119.656,-119.547"/>
<polygon fill="midnightblue" stroke="midnightblue" points="107.882,-151.214 108.776,-161.771 114.661,-152.961 107.882,-151.214"/>
</g>
<!-- Node3&#45;&gt;Node4 -->
<g id="edge3" class="edge"><title>Node3&#45;&gt;Node4</title>
<path fill="none" stroke="midnightblue" d="M167.435,-73.2029C185.164,-62.9176 205.432,-51.1587 222.071,-41.5056"/>
<polygon fill="midnightblue" stroke="midnightblue" points="165.322,-70.3825 158.428,-78.4281 168.835,-76.4373 165.322,-70.3825"/>
</g>
<!-- Node5&#45;&gt;Node2 -->
<g id="edge7" class="edge"><title>Node5&#45;&gt;Node2</title>
<path fill="none" stroke="midnightblue" d="M202.992,-240.336C181.426,-227.992 157.088,-214.062 137.905,-203.082"/>
<polygon fill="midnightblue" stroke="midnightblue" points="201.31,-243.406 211.728,-245.336 204.788,-237.331 201.31,-243.406"/>
</g>
<!-- Node5&#45;&gt;Node3 -->
<g id="edge8" class="edge"><title>Node5&#45;&gt;Node3</title>
<path fill="none" stroke="midnightblue" d="M243.361,-235.885C233.671,-211.812 218.504,-179.884 198.693,-156 186.967,-141.863 171.01,-129.212 156.915,-119.527"/>
<polygon fill="midnightblue" stroke="midnightblue" points="240.157,-237.302 247.052,-245.346 246.678,-234.758 240.157,-237.302"/>
</g>
<!-- Node5&#45;&gt;Node4 -->
<g id="edge9" class="edge"><title>Node5&#45;&gt;Node4</title>
<path fill="none" stroke="midnightblue" d="M255.693,-235.002C255.693,-181.872 255.693,-83.4489 255.693,-41.6242"/>
<polygon fill="midnightblue" stroke="midnightblue" points="252.193,-235.305 255.693,-245.305 259.193,-235.305 252.193,-235.305"/>
</g>
<!-- Node6 -->
<g id="node6" class="node"><title>Node6</title>
<g id="a_node6"><a xlink:href="HybridSystemBaseVisitor_8cpp.html" target="_top" xlink:title="/home/travis/build\l/hypro/hypro/src/hypro\l/parser/antlr4&#45;cif/HybridSystem\lBaseVisitor.cpp">
<polygon fill="white" stroke="black" points="283.693,-156.5 283.693,-208.5 449.693,-208.5 449.693,-156.5 283.693,-156.5"/>
<text text-anchor="start" x="291.693" y="-196.5" font-family="Helvetica,sans-Serif" font-size="10.00">/home/travis/build</text>
<text text-anchor="start" x="291.693" y="-185.5" font-family="Helvetica,sans-Serif" font-size="10.00">/hypro/hypro/src/hypro</text>
<text text-anchor="start" x="291.693" y="-174.5" font-family="Helvetica,sans-Serif" font-size="10.00">/parser/antlr4&#45;cif/HybridSystem</text>
<text text-anchor="middle" x="366.693" y="-163.5" font-family="Helvetica,sans-Serif" font-size="10.00">BaseVisitor.cpp</text>
</a>
</g>
</g>
<!-- Node5&#45;&gt;Node6 -->
<g id="edge10" class="edge"><title>Node5&#45;&gt;Node6</title>
<path fill="none" stroke="midnightblue" d="M295.966,-238.934C308.697,-228.956 322.586,-218.07 334.659,-208.607"/>
<polygon fill="midnightblue" stroke="midnightblue" points="293.51,-236.412 287.798,-245.336 297.828,-241.922 293.51,-236.412"/>
</g>
</g>
</svg>
        <g id="navigator" transform="translate(0 0)" fill="#404254">
                <rect fill="#f2f5e9" fill-opacity="0.5" stroke="#606060" stroke-width=".5" x="0" y="0" width="60" height="60"/>
                <use id="zoomplus" xlink:href="#zoomPlus" x="17" y="9" onmousedown="handleZoom(evt,'in')"/>
                <use id="zoomminus" xlink:href="#zoomMin" x="42" y="9" onmousedown="handleZoom(evt,'out')"/>
                <use id="reset" xlink:href="#resetDef" x="30" y="36" onmousedown="handleReset()"/>
                <g id="arrowUp" xlink:href="#dirArrow" transform="translate(30 24)" onmousedown="handlePan(0,-1)">
                  <use xlink:href="#rim" fill="#404040">
                        <set attributeName="fill" to="#808080" begin="arrowUp.mouseover" end="arrowUp.mouseout"/>
                  </use>
                  <path fill="none" stroke="white" stroke-width="1.5" d="M0,-3.0v7 M-2.5,-0.5L0,-3.0L2.5,-0.5"/>
                </g>
                <g id="arrowRight" xlink:href="#dirArrow" transform="rotate(90) translate(36 -43)" onmousedown="handlePan(1,0)">
                  <use xlink:href="#rim" fill="#404040">
                        <set attributeName="fill" to="#808080" begin="arrowRight.mouseover" end="arrowRight.mouseout"/>
                  </use>
                  <path fill="none" stroke="white" stroke-width="1.5" d="M0,-3.0v7 M-2.5,-0.5L0,-3.0L2.5,-0.5"/>
                </g>
                <g id="arrowDown" xlink:href="#dirArrow" transform="rotate(180) translate(-30 -48)" onmousedown="handlePan(0,1)">
                  <use xlink:href="#rim" fill="#404040">
                        <set attributeName="fill" to="#808080" begin="arrowDown.mouseover" end="arrowDown.mouseout"/>
                  </use>
                  <path fill="none" stroke="white" stroke-width="1.5" d="M0,-3.0v7 M-2.5,-0.5L0,-3.0L2.5,-0.5"/>
                </g>
                <g id="arrowLeft" xlink:href="#dirArrow" transform="rotate(270) translate(-36 17)" onmousedown="handlePan(-1,0)">
                  <use xlink:href="#rim" fill="#404040">
                        <set attributeName="fill" to="#808080" begin="arrowLeft.mouseover" end="arrowLeft.mouseout"/>
                  </use>
                  <path fill="none" stroke="white" stroke-width="1.5" d="M0,-3.0v7 M-2.5,-0.5L0,-3.0L2.5,-0.5"/>
                </g>
        </g>
        <svg viewBox="0 0 15 15" width="100%" height="30px" preserveAspectRatio="xMaxYMin meet">
         <g id="arrow_out" transform="scale(0.3 0.3)">
          <a xlink:href="HybridSystemVisitor_8h__dep__incl_org.svg" target="_base">
           <rect id="button" ry="5" rx="5" y="6" x="6" height="38" width="38"
                fill="#f2f5e9" fill-opacity="0.5" stroke="#606060" stroke-width="1.0"/>
           <path id="arrow"
             d="M 11.500037,31.436501 C 11.940474,20.09759 22.043105,11.32322 32.158766,21.979434 L 37.068811,17.246167 C 37.068811,17.246167 37.088388,32 37.088388,32 L 22.160133,31.978069 C 22.160133,31.978069 26.997745,27.140456 26.997745,27.140456 C 18.528582,18.264221 13.291696,25.230495 11.500037,31.436501 z"
             style="fill:#404040;"/>
          </a>
         </g>
        </svg>
</svg>
