<?xml version="1.0" encoding="UTF-8" standalone="no"?>
<!DOCTYPE svg PUBLIC "-//W3C//DTD SVG 1.1//EN"
 "http://www.w3.org/Graphics/SVG/1.1/DTD/svg11.dtd">
<!-- Generated by graphviz version 2.38.0 (20140413.2041)
 -->
<!-- Title: /home/travis/build/hypro/hypro/src/hypro/parser/antlr4&#45;flowstar/HybridAutomatonVisitor.h Pages: 1 -->
<!--zoomable 506 -->
<svg id="main" version="1.1" xmlns="http://www.w3.org/2000/svg" xmlns:xlink="http://www.w3.org/1999/xlink" xml:space="preserve" onload="init(evt)">
<style type="text/css"><![CDATA[
.edge:hover path { stroke: red; }
.edge:hover polygon { stroke: red; fill: red; }
]]></style>
<script type="text/javascript"><![CDATA[
var edges = document.getElementsByTagName('g');
if (edges && edges.length) {
  for (var i=0;i<edges.length;i++) {
    if (edges[i].id.substr(0,4)=='edge') {
      edges[i].setAttribute('class','edge');
    }
  }
}
]]></script>
        <defs>
                <circle id="rim" cx="0" cy="0" r="7"/>
                <circle id="rim2" cx="0" cy="0" r="3.5"/>
                <g id="zoomPlus">
                        <use xlink:href="#rim" fill="#404040">
                                <set attributeName="fill" to="#808080" begin="zoomplus.mouseover" end="zoomplus.mouseout"/>
                        </use>
                        <path d="M-4,0h8M0,-4v8" fill="none" stroke="white" stroke-width="1.5" pointer-events="none"/>
                </g>
                <g id="zoomMin">
                        <use xlink:href="#rim" fill="#404040">
                                <set attributeName="fill" to="#808080" begin="zoomminus.mouseover" end="zoomminus.mouseout"/>
                        </use>
                        <path d="M-4,0h8" fill="none" stroke="white" stroke-width="1.5" pointer-events="none"/>
                </g>
                <g id="dirArrow">
                        <path fill="none" stroke="white" stroke-width="1.5" d="M0,-3.0v7 M-2.5,-0.5L0,-3.0L2.5,-0.5"/>
                </g>
               <g id="resetDef">
                       <use xlink:href="#rim2" fill="#404040">
                               <set attributeName="fill" to="#808080" begin="reset.mouseover" end="reset.mouseout"/>
                       </use>
               </g>
        </defs>

<script type="text/javascript">
var viewWidth = 845;
var viewHeight = 506;
var sectionId = 'dynsection-1';
</script>
<script xlink:href="svgpan.js"/>
<svg id="graph" class="graph">
<g id="viewport">
<title>/home/travis/build/hypro/hypro/src/hypro/parser/antlr4&#45;flowstar/HybridAutomatonVisitor.h</title>
<polygon fill="white" stroke="none" points="-4,4 -4,-502 841,-502 841,4 -4,4"/>
<!-- Node1 -->
<g id="node1" class="node"><title>Node1</title>
<polygon fill="#bfbfbf" stroke="black" points="507.5,-445.5 507.5,-497.5 650.5,-497.5 650.5,-445.5 507.5,-445.5"/>
<text text-anchor="start" x="515.5" y="-485.5" font-family="Helvetica,sans-Serif" font-size="10.00">/home/travis/build</text>
<text text-anchor="start" x="515.5" y="-474.5" font-family="Helvetica,sans-Serif" font-size="10.00">/hypro/hypro/src/hypro</text>
<text text-anchor="start" x="515.5" y="-463.5" font-family="Helvetica,sans-Serif" font-size="10.00">/parser/antlr4&#45;flowstar</text>
<text text-anchor="middle" x="579" y="-452.5" font-family="Helvetica,sans-Serif" font-size="10.00">/HybridAutomatonVisitor.h</text>
</g>
<!-- Node2 -->
<g id="node2" class="node"><title>Node2</title>
<g id="a_node2"><a xlink:href="HybridAutomatonBaseVisitor_8h.html" target="_top" xlink:title="/home/travis/build\l/hypro/hypro/src/hypro\l/parser/antlr4&#45;flowstar\l/HybridAutomatonBaseVisitor.h">
<polygon fill="white" stroke="black" points="316.5,-356.5 316.5,-408.5 483.5,-408.5 483.5,-356.5 316.5,-356.5"/>
<text text-anchor="start" x="324.5" y="-396.5" font-family="Helvetica,sans-Serif" font-size="10.00">/home/travis/build</text>
<text text-anchor="start" x="324.5" y="-385.5" font-family="Helvetica,sans-Serif" font-size="10.00">/hypro/hypro/src/hypro</text>
<text text-anchor="start" x="324.5" y="-374.5" font-family="Helvetica,sans-Serif" font-size="10.00">/parser/antlr4&#45;flowstar</text>
<text text-anchor="middle" x="400" y="-363.5" font-family="Helvetica,sans-Serif" font-size="10.00">/HybridAutomatonBaseVisitor.h</text>
</a>
</g>
</g>
<!-- Node1&#45;&gt;Node2 -->
<g id="edge1" class="edge"><title>Node1&#45;&gt;Node2</title>
<path fill="none" stroke="midnightblue" d="M518.134,-440.917C496.524,-430.414 472.425,-418.701 451.658,-408.607"/>
<polygon fill="midnightblue" stroke="midnightblue" points="516.702,-444.112 527.226,-445.336 519.762,-437.817 516.702,-444.112"/>
</g>
<!-- Node12 -->
<g id="node12" class="node"><title>Node12</title>
<g id="a_node12"><a xlink:href="HybridAutomatonParser_8cpp.html" target="_top" xlink:title="/home/travis/build\l/hypro/hypro/src/hypro\l/parser/antlr4&#45;flowstar\l/HybridAutomatonParser.cpp">
<polygon fill="white" stroke="black" points="502,-356.5 502,-408.5 656,-408.5 656,-356.5 502,-356.5"/>
<text text-anchor="start" x="510" y="-396.5" font-family="Helvetica,sans-Serif" font-size="10.00">/home/travis/build</text>
<text text-anchor="start" x="510" y="-385.5" font-family="Helvetica,sans-Serif" font-size="10.00">/hypro/hypro/src/hypro</text>
<text text-anchor="start" x="510" y="-374.5" font-family="Helvetica,sans-Serif" font-size="10.00">/parser/antlr4&#45;flowstar</text>
<text text-anchor="middle" x="579" y="-363.5" font-family="Helvetica,sans-Serif" font-size="10.00">/HybridAutomatonParser.cpp</text>
</a>
</g>
</g>
<!-- Node1&#45;&gt;Node12 -->
<g id="edge19" class="edge"><title>Node1&#45;&gt;Node12</title>
<path fill="none" stroke="midnightblue" d="M579,-435.191C579,-426.282 579,-416.899 579,-408.607"/>
<polygon fill="midnightblue" stroke="midnightblue" points="575.5,-435.336 579,-445.336 582.5,-435.336 575.5,-435.336"/>
</g>
<!-- Node13 -->
<g id="node13" class="node"><title>Node13</title>
<g id="a_node13"><a xlink:href="HybridAutomatonVisitor_8cpp.html" target="_top" xlink:title="/home/travis/build\l/hypro/hypro/src/hypro\l/parser/antlr4&#45;flowstar\l/HybridAutomatonVisitor.cpp">
<polygon fill="white" stroke="black" points="674,-356.5 674,-408.5 828,-408.5 828,-356.5 674,-356.5"/>
<text text-anchor="start" x="682" y="-396.5" font-family="Helvetica,sans-Serif" font-size="10.00">/home/travis/build</text>
<text text-anchor="start" x="682" y="-385.5" font-family="Helvetica,sans-Serif" font-size="10.00">/hypro/hypro/src/hypro</text>
<text text-anchor="start" x="682" y="-374.5" font-family="Helvetica,sans-Serif" font-size="10.00">/parser/antlr4&#45;flowstar</text>
<text text-anchor="middle" x="751" y="-363.5" font-family="Helvetica,sans-Serif" font-size="10.00">/HybridAutomatonVisitor.cpp</text>
</a>
</g>
</g>
<!-- Node1&#45;&gt;Node13 -->
<g id="edge20" class="edge"><title>Node1&#45;&gt;Node13</title>
<path fill="none" stroke="midnightblue" d="M637.764,-440.776C658.457,-430.309 681.496,-418.656 701.362,-408.607"/>
<polygon fill="midnightblue" stroke="midnightblue" points="636.093,-437.699 628.75,-445.336 639.253,-443.946 636.093,-437.699"/>
</g>
<!-- Node3 -->
<g id="node3" class="node"><title>Node3</title>
<g id="a_node3"><a xlink:href="HybridAutomatonBaseVisitor_8cpp.html" target="_top" xlink:title="/home/travis/build\l/hypro/hypro/src/hypro\l/parser/antlr4&#45;flowstar\l/HybridAutomatonBaseVisitor.cpp">
<polygon fill="white" stroke="black" points="0,-267.5 0,-319.5 178,-319.5 178,-267.5 0,-267.5"/>
<text text-anchor="start" x="8" y="-307.5" font-family="Helvetica,sans-Serif" font-size="10.00">/home/travis/build</text>
<text text-anchor="start" x="8" y="-296.5" font-family="Helvetica,sans-Serif" font-size="10.00">/hypro/hypro/src/hypro</text>
<text text-anchor="start" x="8" y="-285.5" font-family="Helvetica,sans-Serif" font-size="10.00">/parser/antlr4&#45;flowstar</text>
<text text-anchor="middle" x="89" y="-274.5" font-family="Helvetica,sans-Serif" font-size="10.00">/HybridAutomatonBaseVisitor.cpp</text>
</a>
</g>
</g>
<!-- Node2&#45;&gt;Node3 -->
<g id="edge2" class="edge"><title>Node2&#45;&gt;Node3</title>
<path fill="none" stroke="midnightblue" d="M306.589,-355.369C265.851,-343.973 218.309,-330.673 178.074,-319.418"/>
<polygon fill="midnightblue" stroke="midnightblue" points="305.675,-358.748 316.249,-358.071 307.561,-352.006 305.675,-358.748"/>
</g>
<!-- Node4 -->
<g id="node4" class="node"><title>Node4</title>
<g id="a_node4"><a xlink:href="HyproBadStatesVisitor_8h.html" target="_top" xlink:title="/home/travis/build\l/hypro/hypro/src/hypro\l/parser/antlr4&#45;flowstar\l/HyproBadStatesVisitor.h">
<polygon fill="white" stroke="black" points="234.5,-267.5 234.5,-319.5 371.5,-319.5 371.5,-267.5 234.5,-267.5"/>
<text text-anchor="start" x="242.5" y="-307.5" font-family="Helvetica,sans-Serif" font-size="10.00">/home/travis/build</text>
<text text-anchor="start" x="242.5" y="-296.5" font-family="Helvetica,sans-Serif" font-size="10.00">/hypro/hypro/src/hypro</text>
<text text-anchor="start" x="242.5" y="-285.5" font-family="Helvetica,sans-Serif" font-size="10.00">/parser/antlr4&#45;flowstar</text>
<text text-anchor="middle" x="303" y="-274.5" font-family="Helvetica,sans-Serif" font-size="10.00">/HyproBadStatesVisitor.h</text>
</a>
</g>
</g>
<!-- Node2&#45;&gt;Node4 -->
<g id="edge3" class="edge"><title>Node2&#45;&gt;Node4</title>
<path fill="none" stroke="midnightblue" d="M364.488,-349.649C353.45,-339.749 341.443,-328.98 330.993,-319.607"/>
<polygon fill="midnightblue" stroke="midnightblue" points="362.162,-352.265 371.944,-356.336 366.836,-347.054 362.162,-352.265"/>
</g>
<!-- Node5 -->
<g id="node5" class="node"><title>Node5</title>
<g id="a_node5"><a xlink:href="HyproHAVisitor_8h.html" target="_top" xlink:title="/home/travis/build\l/hypro/hypro/src/hypro\l/parser/antlr4&#45;flowstar\l/HyproHAVisitor.h">
<polygon fill="white" stroke="black" points="349,-89.5 349,-141.5 473,-141.5 473,-89.5 349,-89.5"/>
<text text-anchor="start" x="357" y="-129.5" font-family="Helvetica,sans-Serif" font-size="10.00">/home/travis/build</text>
<text text-anchor="start" x="357" y="-118.5" font-family="Helvetica,sans-Serif" font-size="10.00">/hypro/hypro/src/hypro</text>
<text text-anchor="start" x="357" y="-107.5" font-family="Helvetica,sans-Serif" font-size="10.00">/parser/antlr4&#45;flowstar</text>
<text text-anchor="middle" x="411" y="-96.5" font-family="Helvetica,sans-Serif" font-size="10.00">/HyproHAVisitor.h</text>
</a>
</g>
</g>
<!-- Node2&#45;&gt;Node5 -->
<g id="edge15" class="edge"><title>Node2&#45;&gt;Node5</title>
<path fill="none" stroke="midnightblue" d="M306.376,-370.483C275.327,-361.864 243.899,-346.674 225,-320 211.382,-300.78 221.543,-290.301 225,-267 231.066,-226.112 223.88,-208.297 252,-178 277.268,-150.775 315.974,-135.463 348.87,-126.926"/>
<polygon fill="midnightblue" stroke="midnightblue" points="305.872,-373.967 316.427,-373.057 307.608,-367.186 305.872,-373.967"/>
</g>
<!-- Node7 -->
<g id="node7" class="node"><title>Node7</title>
<g id="a_node7"><a xlink:href="HyproFormulaVisitor_8h.html" target="_top" xlink:title="/home/travis/build\l/hypro/hypro/src/hypro\l/parser/antlr4&#45;flowstar\l/HyproFormulaVisitor.h">
<polygon fill="white" stroke="black" points="428.5,-267.5 428.5,-319.5 553.5,-319.5 553.5,-267.5 428.5,-267.5"/>
<text text-anchor="start" x="436.5" y="-307.5" font-family="Helvetica,sans-Serif" font-size="10.00">/home/travis/build</text>
<text text-anchor="start" x="436.5" y="-296.5" font-family="Helvetica,sans-Serif" font-size="10.00">/hypro/hypro/src/hypro</text>
<text text-anchor="start" x="436.5" y="-285.5" font-family="Helvetica,sans-Serif" font-size="10.00">/parser/antlr4&#45;flowstar</text>
<text text-anchor="middle" x="491" y="-274.5" font-family="Helvetica,sans-Serif" font-size="10.00">/HyproFormulaVisitor.h</text>
</a>
</g>
</g>
<!-- Node2&#45;&gt;Node7 -->
<g id="edge6" class="edge"><title>Node2&#45;&gt;Node7</title>
<path fill="none" stroke="midnightblue" d="M433.614,-349.363C443.887,-339.542 455.029,-328.89 464.738,-319.607"/>
<polygon fill="midnightblue" stroke="midnightblue" points="431.13,-346.896 426.321,-356.336 435.968,-351.955 431.13,-346.896"/>
</g>
<!-- Node9 -->
<g id="node9" class="node"><title>Node9</title>
<g id="a_node9"><a xlink:href="HyproTransitionVisitor_8h.html" target="_top" xlink:title="/home/travis/build\l/hypro/hypro/src/hypro\l/parser/antlr4&#45;flowstar\l/HyproTransitionVisitor.h">
<polygon fill="white" stroke="black" points="272.5,-178.5 272.5,-230.5 403.5,-230.5 403.5,-178.5 272.5,-178.5"/>
<text text-anchor="start" x="280.5" y="-218.5" font-family="Helvetica,sans-Serif" font-size="10.00">/home/travis/build</text>
<text text-anchor="start" x="280.5" y="-207.5" font-family="Helvetica,sans-Serif" font-size="10.00">/hypro/hypro/src/hypro</text>
<text text-anchor="start" x="280.5" y="-196.5" font-family="Helvetica,sans-Serif" font-size="10.00">/parser/antlr4&#45;flowstar</text>
<text text-anchor="middle" x="338" y="-185.5" font-family="Helvetica,sans-Serif" font-size="10.00">/HyproTransitionVisitor.h</text>
</a>
</g>
</g>
<!-- Node2&#45;&gt;Node9 -->
<g id="edge16" class="edge"><title>Node2&#45;&gt;Node9</title>
<path fill="none" stroke="midnightblue" d="M398.178,-345.968C396.016,-322.779 391.296,-292.24 381,-267 375.735,-254.093 367.359,-241.231 359.393,-230.632"/>
<polygon fill="midnightblue" stroke="midnightblue" points="394.7,-346.377 399.002,-356.059 401.677,-345.807 394.7,-346.377"/>
</g>
<!-- Node10 -->
<g id="node10" class="node"><title>Node10</title>
<g id="a_node10"><a xlink:href="HyproInitialSetVisitor_8h.html" target="_top" xlink:title="/home/travis/build\l/hypro/hypro/src/hypro\l/parser/antlr4&#45;flowstar\l/HyproInitialSetVisitor.h">
<polygon fill="white" stroke="black" points="567,-178.5 567,-230.5 695,-230.5 695,-178.5 567,-178.5"/>
<text text-anchor="start" x="575" y="-218.5" font-family="Helvetica,sans-Serif" font-size="10.00">/home/travis/build</text>
<text text-anchor="start" x="575" y="-207.5" font-family="Helvetica,sans-Serif" font-size="10.00">/hypro/hypro/src/hypro</text>
<text text-anchor="start" x="575" y="-196.5" font-family="Helvetica,sans-Serif" font-size="10.00">/parser/antlr4&#45;flowstar</text>
<text text-anchor="middle" x="631" y="-185.5" font-family="Helvetica,sans-Serif" font-size="10.00">/HyproInitialSetVisitor.h</text>
</a>
</g>
</g>
<!-- Node2&#45;&gt;Node10 -->
<g id="edge17" class="edge"><title>Node2&#45;&gt;Node10</title>
<path fill="none" stroke="midnightblue" d="M490.819,-353.099C521.41,-342.307 550.871,-330.171 563,-320 591.699,-295.934 611.306,-256.474 621.836,-230.742"/>
<polygon fill="midnightblue" stroke="midnightblue" points="489.605,-349.816 481.306,-356.402 491.901,-356.428 489.605,-349.816"/>
</g>
<!-- Node11 -->
<g id="node11" class="node"><title>Node11</title>
<g id="a_node11"><a xlink:href="HyproSettingVisitor_8h.html" target="_top" xlink:title="/home/travis/build\l/hypro/hypro/src/hypro\l/parser/antlr4&#45;flowstar\l/HyproSettingVisitor.h">
<polygon fill="white" stroke="black" points="713,-178.5 713,-230.5 837,-230.5 837,-178.5 713,-178.5"/>
<text text-anchor="start" x="721" y="-218.5" font-family="Helvetica,sans-Serif" font-size="10.00">/home/travis/build</text>
<text text-anchor="start" x="721" y="-207.5" font-family="Helvetica,sans-Serif" font-size="10.00">/hypro/hypro/src/hypro</text>
<text text-anchor="start" x="721" y="-196.5" font-family="Helvetica,sans-Serif" font-size="10.00">/parser/antlr4&#45;flowstar</text>
<text text-anchor="middle" x="775" y="-185.5" font-family="Helvetica,sans-Serif" font-size="10.00">/HyproSettingVisitor.h</text>
</a>
</g>
</g>
<!-- Node2&#45;&gt;Node11 -->
<g id="edge18" class="edge"><title>Node2&#45;&gt;Node11</title>
<path fill="none" stroke="midnightblue" d="M493.527,-354.894C534.639,-342.669 577.88,-328.934 597,-320 650.763,-294.879 707.533,-255.885 742.12,-230.519"/>
<polygon fill="midnightblue" stroke="midnightblue" points="492.291,-351.61 483.694,-357.802 494.276,-358.323 492.291,-351.61"/>
</g>
<!-- Node4&#45;&gt;Node5 -->
<g id="edge4" class="edge"><title>Node4&#45;&gt;Node5</title>
<path fill="none" stroke="midnightblue" d="M275.965,-258.749C260.272,-234.794 246.552,-202.646 263,-178 282.152,-149.301 317.474,-133.976 348.808,-125.801"/>
<polygon fill="midnightblue" stroke="midnightblue" points="273.221,-260.935 281.783,-267.174 278.981,-256.957 273.221,-260.935"/>
</g>
<!-- Node6 -->
<g id="node6" class="node"><title>Node6</title>
<g id="a_node6"><a xlink:href="ParserWrapper_8cpp.html" target="_top" xlink:title="/home/travis/build\l/hypro/hypro/src/hypro\l/parser/antlr4&#45;flowstar\l/ParserWrapper.cpp">
<polygon fill="white" stroke="black" points="349,-0.5 349,-52.5 473,-52.5 473,-0.5 349,-0.5"/>
<text text-anchor="start" x="357" y="-40.5" font-family="Helvetica,sans-Serif" font-size="10.00">/home/travis/build</text>
<text text-anchor="start" x="357" y="-29.5" font-family="Helvetica,sans-Serif" font-size="10.00">/hypro/hypro/src/hypro</text>
<text text-anchor="start" x="357" y="-18.5" font-family="Helvetica,sans-Serif" font-size="10.00">/parser/antlr4&#45;flowstar</text>
<text text-anchor="middle" x="411" y="-7.5" font-family="Helvetica,sans-Serif" font-size="10.00">/ParserWrapper.cpp</text>
</a>
</g>
</g>
<!-- Node5&#45;&gt;Node6 -->
<g id="edge5" class="edge"><title>Node5&#45;&gt;Node6</title>
<path fill="none" stroke="midnightblue" d="M411,-79.1908C411,-70.2824 411,-60.8986 411,-52.6075"/>
<polygon fill="midnightblue" stroke="midnightblue" points="407.5,-79.336 411,-89.336 414.5,-79.336 407.5,-79.336"/>
</g>
<!-- Node8 -->
<g id="node8" class="node"><title>Node8</title>
<g id="a_node8"><a xlink:href="HyproLocationVisitor_8h.html" target="_top" xlink:title="/home/travis/build\l/hypro/hypro/src/hypro\l/parser/antlr4&#45;flowstar\l/HyproLocationVisitor.h">
<polygon fill="white" stroke="black" points="421.5,-178.5 421.5,-230.5 548.5,-230.5 548.5,-178.5 421.5,-178.5"/>
<text text-anchor="start" x="429.5" y="-218.5" font-family="Helvetica,sans-Serif" font-size="10.00">/home/travis/build</text>
<text text-anchor="start" x="429.5" y="-207.5" font-family="Helvetica,sans-Serif" font-size="10.00">/hypro/hypro/src/hypro</text>
<text text-anchor="start" x="429.5" y="-196.5" font-family="Helvetica,sans-Serif" font-size="10.00">/parser/antlr4&#45;flowstar</text>
<text text-anchor="middle" x="485" y="-185.5" font-family="Helvetica,sans-Serif" font-size="10.00">/HyproLocationVisitor.h</text>
</a>
</g>
</g>
<!-- Node7&#45;&gt;Node8 -->
<g id="edge7" class="edge"><title>Node7&#45;&gt;Node8</title>
<path fill="none" stroke="midnightblue" d="M488.565,-257.191C487.951,-248.282 487.303,-238.899 486.732,-230.607"/>
<polygon fill="midnightblue" stroke="midnightblue" points="485.085,-257.601 489.265,-267.336 492.068,-257.119 485.085,-257.601"/>
</g>
<!-- Node7&#45;&gt;Node9 -->
<g id="edge9" class="edge"><title>Node7&#45;&gt;Node9</title>
<path fill="none" stroke="midnightblue" d="M437.983,-262.353C419.769,-251.996 399.588,-240.521 382.154,-230.607"/>
<polygon fill="midnightblue" stroke="midnightblue" points="436.323,-265.435 446.746,-267.336 439.783,-259.35 436.323,-265.435"/>
</g>
<!-- Node7&#45;&gt;Node10 -->
<g id="edge11" class="edge"><title>Node7&#45;&gt;Node10</title>
<path fill="none" stroke="midnightblue" d="M540.423,-261.787C556.849,-251.579 574.935,-240.341 590.597,-230.607"/>
<polygon fill="midnightblue" stroke="midnightblue" points="538.14,-259.085 531.494,-267.336 541.835,-265.031 538.14,-259.085"/>
</g>
<!-- Node7&#45;&gt;Node11 -->
<g id="edge13" class="edge"><title>Node7&#45;&gt;Node11</title>
<path fill="none" stroke="midnightblue" d="M563.484,-272.808C604.847,-261.262 657.554,-246.029 704,-231 706.866,-230.073 709.79,-229.106 712.739,-228.115"/>
<polygon fill="midnightblue" stroke="midnightblue" points="562.46,-269.459 553.764,-275.511 564.336,-276.203 562.46,-269.459"/>
</g>
<!-- Node8&#45;&gt;Node5 -->
<g id="edge8" class="edge"><title>Node8&#45;&gt;Node5</title>
<path fill="none" stroke="midnightblue" d="M456.933,-170.503C448.785,-160.923 440.021,-150.62 432.356,-141.607"/>
<polygon fill="midnightblue" stroke="midnightblue" points="454.451,-172.986 463.596,-178.336 459.783,-168.451 454.451,-172.986"/>
</g>
<!-- Node9&#45;&gt;Node5 -->
<g id="edge10" class="edge"><title>Node9&#45;&gt;Node5</title>
<path fill="none" stroke="midnightblue" d="M365.687,-170.503C373.726,-160.923 382.371,-150.62 389.933,-141.607"/>
<polygon fill="midnightblue" stroke="midnightblue" points="362.861,-168.426 359.115,-178.336 368.224,-172.925 362.861,-168.426"/>
</g>
<!-- Node10&#45;&gt;Node5 -->
<g id="edge12" class="edge"><title>Node10&#45;&gt;Node5</title>
<path fill="none" stroke="midnightblue" d="M558.091,-174.668C530.581,-163.789 499.566,-151.524 473.132,-141.071"/>
<polygon fill="midnightblue" stroke="midnightblue" points="557.076,-178.03 567.662,-178.453 559.65,-171.52 557.076,-178.03"/>
</g>
<!-- Node11&#45;&gt;Node5 -->
<g id="edge14" class="edge"><title>Node11&#45;&gt;Node5</title>
<path fill="none" stroke="midnightblue" d="M703.063,-177.878C618.531,-154.404 530.559,-137.225 473.052,-126.956"/>
<polygon fill="midnightblue" stroke="midnightblue" points="702.246,-181.283 712.82,-180.62 704.139,-174.544 702.246,-181.283"/>
</g>
</g>
</svg>
        <g id="navigator" transform="translate(0 0)" fill="#404254">
                <rect fill="#f2f5e9" fill-opacity="0.5" stroke="#606060" stroke-width=".5" x="0" y="0" width="60" height="60"/>
                <use id="zoomplus" xlink:href="#zoomPlus" x="17" y="9" onmousedown="handleZoom(evt,'in')"/>
                <use id="zoomminus" xlink:href="#zoomMin" x="42" y="9" onmousedown="handleZoom(evt,'out')"/>
                <use id="reset" xlink:href="#resetDef" x="30" y="36" onmousedown="handleReset()"/>
                <g id="arrowUp" xlink:href="#dirArrow" transform="translate(30 24)" onmousedown="handlePan(0,-1)">
                  <use xlink:href="#rim" fill="#404040">
                        <set attributeName="fill" to="#808080" begin="arrowUp.mouseover" end="arrowUp.mouseout"/>
                  </use>
                  <path fill="none" stroke="white" stroke-width="1.5" d="M0,-3.0v7 M-2.5,-0.5L0,-3.0L2.5,-0.5"/>
                </g>
                <g id="arrowRight" xlink:href="#dirArrow" transform="rotate(90) translate(36 -43)" onmousedown="handlePan(1,0)">
                  <use xlink:href="#rim" fill="#404040">
                        <set attributeName="fill" to="#808080" begin="arrowRight.mouseover" end="arrowRight.mouseout"/>
                  </use>
                  <path fill="none" stroke="white" stroke-width="1.5" d="M0,-3.0v7 M-2.5,-0.5L0,-3.0L2.5,-0.5"/>
                </g>
                <g id="arrowDown" xlink:href="#dirArrow" transform="rotate(180) translate(-30 -48)" onmousedown="handlePan(0,1)">
                  <use xlink:href="#rim" fill="#404040">
                        <set attributeName="fill" to="#808080" begin="arrowDown.mouseover" end="arrowDown.mouseout"/>
                  </use>
                  <path fill="none" stroke="white" stroke-width="1.5" d="M0,-3.0v7 M-2.5,-0.5L0,-3.0L2.5,-0.5"/>
                </g>
                <g id="arrowLeft" xlink:href="#dirArrow" transform="rotate(270) translate(-36 17)" onmousedown="handlePan(-1,0)">
                  <use xlink:href="#rim" fill="#404040">
                        <set attributeName="fill" to="#808080" begin="arrowLeft.mouseover" end="arrowLeft.mouseout"/>
                  </use>
                  <path fill="none" stroke="white" stroke-width="1.5" d="M0,-3.0v7 M-2.5,-0.5L0,-3.0L2.5,-0.5"/>
                </g>
        </g>
        <svg viewBox="0 0 15 15" width="100%" height="30px" preserveAspectRatio="xMaxYMin meet">
         <g id="arrow_out" transform="scale(0.3 0.3)">
          <a xlink:href="HybridAutomatonVisitor_8h__dep__incl_org.svg" target="_base">
           <rect id="button" ry="5" rx="5" y="6" x="6" height="38" width="38"
                fill="#f2f5e9" fill-opacity="0.5" stroke="#606060" stroke-width="1.0"/>
           <path id="arrow"
             d="M 11.500037,31.436501 C 11.940474,20.09759 22.043105,11.32322 32.158766,21.979434 L 37.068811,17.246167 C 37.068811,17.246167 37.088388,32 37.088388,32 L 22.160133,31.978069 C 22.160133,31.978069 26.997745,27.140456 26.997745,27.140456 C 18.528582,18.264221 13.291696,25.230495 11.500037,31.436501 z"
             style="fill:#404040;"/>
          </a>
         </g>
        </svg>
</svg>
