<?xml version="1.0" encoding="UTF-8" standalone="no"?>
<!DOCTYPE svg PUBLIC "-//W3C//DTD SVG 1.1//EN"
 "http://www.w3.org/Graphics/SVG/1.1/DTD/svg11.dtd">
<!-- Generated by graphviz version 2.38.0 (20140413.2041)
 -->
<!-- Title: /home/travis/build/hypro/hypro/src/hypro/parser/antlr4&#45;cif/HybridSystemLexer.h Pages: 1 -->
<svg width="174pt" height="150pt"
 viewBox="0.00 0.00 174.00 150.00" xmlns="http://www.w3.org/2000/svg" xmlns:xlink="http://www.w3.org/1999/xlink">
<g id="graph0" class="graph" transform="scale(1 1) rotate(0) translate(4 146)">
<title>/home/travis/build/hypro/hypro/src/hypro/parser/antlr4&#45;cif/HybridSystemLexer.h</title>
<polygon fill="white" stroke="none" points="-4,4 -4,-146 170,-146 170,4 -4,4"/>
<!-- Node1 -->
<g id="node1" class="node"><title>Node1</title>
<polygon fill="#bfbfbf" stroke="black" points="0,-89.5 0,-141.5 166,-141.5 166,-89.5 0,-89.5"/>
<text text-anchor="start" x="8" y="-129.5" font-family="Helvetica,sans-Serif" font-size="10.00">/home/travis/build</text>
<text text-anchor="start" x="8" y="-118.5" font-family="Helvetica,sans-Serif" font-size="10.00">/hypro/hypro/src/hypro</text>
<text text-anchor="start" x="8" y="-107.5" font-family="Helvetica,sans-Serif" font-size="10.00">/parser/antlr4&#45;cif/HybridSystem</text>
<text text-anchor="middle" x="83" y="-96.5" font-family="Helvetica,sans-Serif" font-size="10.00">Lexer.h</text>
</g>
<!-- Node2 -->
<g id="node2" class="node"><title>Node2</title>
<g id="a_node2"><a xlink:href="HybridSystemLexer_8cpp.html" target="_top" xlink:title="/home/travis/build\l/hypro/hypro/src/hypro\l/parser/antlr4&#45;cif/HybridSystem\lLexer.cpp">
<polygon fill="white" stroke="black" points="0,-0.5 0,-52.5 166,-52.5 166,-0.5 0,-0.5"/>
<text text-anchor="start" x="8" y="-40.5" font-family="Helvetica,sans-Serif" font-size="10.00">/home/travis/build</text>
<text text-anchor="start" x="8" y="-29.5" font-family="Helvetica,sans-Serif" font-size="10.00">/hypro/hypro/src/hypro</text>
<text text-anchor="start" x="8" y="-18.5" font-family="Helvetica,sans-Serif" font-size="10.00">/parser/antlr4&#45;cif/HybridSystem</text>
<text text-anchor="middle" x="83" y="-7.5" font-family="Helvetica,sans-Serif" font-size="10.00">Lexer.cpp</text>
</a>
</g>
</g>
<!-- Node1&#45;&gt;Node2 -->
<g id="edge1" class="edge"><title>Node1&#45;&gt;Node2</title>
<path fill="none" stroke="midnightblue" d="M83,-79.1908C83,-70.2824 83,-60.8986 83,-52.6075"/>
<polygon fill="midnightblue" stroke="midnightblue" points="79.5001,-79.336 83,-89.336 86.5001,-79.336 79.5001,-79.336"/>
</g>
</g>
</svg>
