<?xml version="1.0" encoding="UTF-8" standalone="no"?>
<!DOCTYPE svg PUBLIC "-//W3C//DTD SVG 1.1//EN"
 "http://www.w3.org/Graphics/SVG/1.1/DTD/svg11.dtd">
<!-- Generated by graphviz version 2.38.0 (20140413.2041)
 -->
<!-- Title: /home/travis/build/hypro/hypro/src/hypro/parser/antlr4&#45;cif/HybridSystemVisitor.h Pages: 1 -->
<svg width="197pt" height="173pt"
 viewBox="0.00 0.00 197.00 173.00" xmlns="http://www.w3.org/2000/svg" xmlns:xlink="http://www.w3.org/1999/xlink">
<g id="graph0" class="graph" transform="scale(1 1) rotate(0) translate(4 169)">
<title>/home/travis/build/hypro/hypro/src/hypro/parser/antlr4&#45;cif/HybridSystemVisitor.h</title>
<polygon fill="white" stroke="none" points="-4,4 -4,-169 193,-169 193,4 -4,4"/>
<!-- Node1 -->
<g id="node1" class="node"><title>Node1</title>
<polygon fill="#bfbfbf" stroke="black" points="0,-112.5 0,-164.5 166,-164.5 166,-112.5 0,-112.5"/>
<text text-anchor="start" x="8" y="-152.5" font-family="Helvetica,sans-Serif" font-size="10.00">/home/travis/build</text>
<text text-anchor="start" x="8" y="-141.5" font-family="Helvetica,sans-Serif" font-size="10.00">/hypro/hypro/src/hypro</text>
<text text-anchor="start" x="8" y="-130.5" font-family="Helvetica,sans-Serif" font-size="10.00">/parser/antlr4&#45;cif/HybridSystem</text>
<text text-anchor="middle" x="83" y="-119.5" font-family="Helvetica,sans-Serif" font-size="10.00">Visitor.h</text>
</g>
<!-- Node2 -->
<g id="node2" class="node"><title>Node2</title>
<polygon fill="white" stroke="#bfbfbf" points="35.5,-0.5 35.5,-19.5 130.5,-19.5 130.5,-0.5 35.5,-0.5"/>
<text text-anchor="middle" x="83" y="-7.5" font-family="Helvetica,sans-Serif" font-size="10.00">antlr4&#45;runtime.h</text>
</g>
<!-- Node1&#45;&gt;Node2 -->
<g id="edge1" class="edge"><title>Node1&#45;&gt;Node2</title>
<path fill="none" stroke="midnightblue" d="M67.8125,-112.333C60.0031,-96.3083 53.0624,-75.0547 58,-56 60.5459,-46.1752 65.7526,-36.2118 70.7585,-28.166"/>
<polygon fill="midnightblue" stroke="midnightblue" points="73.7486,-29.9903 76.3713,-19.7252 67.9196,-26.1143 73.7486,-29.9903"/>
</g>
<!-- Node3 -->
<g id="node3" class="node"><title>Node3</title>
<g id="a_node3"><a xlink:href="HybridSystemParser_8h.html" target="_top" xlink:title="HybridSystemParser.h">
<polygon fill="white" stroke="black" points="67,-56.5 67,-75.5 189,-75.5 189,-56.5 67,-56.5"/>
<text text-anchor="middle" x="128" y="-63.5" font-family="Helvetica,sans-Serif" font-size="10.00">HybridSystemParser.h</text>
</a>
</g>
</g>
<!-- Node1&#45;&gt;Node3 -->
<g id="edge2" class="edge"><title>Node1&#45;&gt;Node3</title>
<path fill="none" stroke="midnightblue" d="M98.992,-112.446C104.939,-103.129 111.549,-92.7725 116.956,-84.3018"/>
<polygon fill="midnightblue" stroke="midnightblue" points="120.02,-86.0079 122.45,-75.6955 114.119,-82.2416 120.02,-86.0079"/>
</g>
<!-- Node3&#45;&gt;Node2 -->
<g id="edge3" class="edge"><title>Node3&#45;&gt;Node2</title>
<path fill="none" stroke="midnightblue" d="M120.569,-56.083C114.147,-48.3768 104.694,-37.0333 96.8775,-27.6531"/>
<polygon fill="midnightblue" stroke="midnightblue" points="99.3832,-25.1927 90.2926,-19.7511 94.0057,-29.674 99.3832,-25.1927"/>
</g>
</g>
</svg>
