<?xml version="1.0" encoding="UTF-8" standalone="no"?>
<!DOCTYPE svg PUBLIC "-//W3C//DTD SVG 1.1//EN"
 "http://www.w3.org/Graphics/SVG/1.1/DTD/svg11.dtd">
<!-- Generated by graphviz version 2.38.0 (20140413.2041)
 -->
<!-- Title: /home/travis/build/hypro/hypro/src/hypro/parser/antlr4&#45;flowstar/HybridAutomatonParser.cpp Pages: 1 -->
<svg width="284pt" height="229pt"
 viewBox="0.00 0.00 283.50 229.00" xmlns="http://www.w3.org/2000/svg" xmlns:xlink="http://www.w3.org/1999/xlink">
<g id="graph0" class="graph" transform="scale(1 1) rotate(0) translate(4 225)">
<title>/home/travis/build/hypro/hypro/src/hypro/parser/antlr4&#45;flowstar/HybridAutomatonParser.cpp</title>
<polygon fill="white" stroke="none" points="-4,4 -4,-225 279.5,-225 279.5,4 -4,4"/>
<!-- Node1 -->
<g id="node1" class="node"><title>Node1</title>
<polygon fill="#bfbfbf" stroke="black" points="121.5,-168.5 121.5,-220.5 275.5,-220.5 275.5,-168.5 121.5,-168.5"/>
<text text-anchor="start" x="129.5" y="-208.5" font-family="Helvetica,sans-Serif" font-size="10.00">/home/travis/build</text>
<text text-anchor="start" x="129.5" y="-197.5" font-family="Helvetica,sans-Serif" font-size="10.00">/hypro/hypro/src/hypro</text>
<text text-anchor="start" x="129.5" y="-186.5" font-family="Helvetica,sans-Serif" font-size="10.00">/parser/antlr4&#45;flowstar</text>
<text text-anchor="middle" x="198.5" y="-175.5" font-family="Helvetica,sans-Serif" font-size="10.00">/HybridAutomatonParser.cpp</text>
</g>
<!-- Node2 -->
<g id="node2" class="node"><title>Node2</title>
<g id="a_node2"><a xlink:href="HybridAutomatonVisitor_8h.html" target="_top" xlink:title="HybridAutomatonVisitor.h">
<polygon fill="white" stroke="black" points="11.5,-112.5 11.5,-131.5 151.5,-131.5 151.5,-112.5 11.5,-112.5"/>
<text text-anchor="middle" x="81.5" y="-119.5" font-family="Helvetica,sans-Serif" font-size="10.00">HybridAutomatonVisitor.h</text>
</a>
</g>
</g>
<!-- Node1&#45;&gt;Node2 -->
<g id="edge1" class="edge"><title>Node1&#45;&gt;Node2</title>
<path fill="none" stroke="midnightblue" d="M156.921,-168.446C139.189,-157.761 119.187,-145.709 104.24,-136.702"/>
<polygon fill="midnightblue" stroke="midnightblue" points="106.023,-133.69 95.6511,-131.527 102.41,-139.686 106.023,-133.69"/>
</g>
<!-- Node4 -->
<g id="node4" class="node"><title>Node4</title>
<g id="a_node4"><a xlink:href="HybridAutomatonParser_8h.html" target="_top" xlink:title="HybridAutomatonParser.h">
<polygon fill="white" stroke="black" points="49.5,-56.5 49.5,-75.5 189.5,-75.5 189.5,-56.5 49.5,-56.5"/>
<text text-anchor="middle" x="119.5" y="-63.5" font-family="Helvetica,sans-Serif" font-size="10.00">HybridAutomatonParser.h</text>
</a>
</g>
</g>
<!-- Node1&#45;&gt;Node4 -->
<g id="edge7" class="edge"><title>Node1&#45;&gt;Node4</title>
<path fill="none" stroke="midnightblue" d="M189.038,-168.214C182.259,-151.568 172.27,-129.671 160.5,-112 153.485,-101.468 144.063,-90.9439 136.02,-82.7242"/>
<polygon fill="midnightblue" stroke="midnightblue" points="138.422,-80.1771 128.855,-75.6246 133.495,-85.1495 138.422,-80.1771"/>
</g>
<!-- Node5 -->
<g id="node5" class="node"><title>Node5</title>
<polygon fill="white" stroke="#bfbfbf" points="119.5,-0.5 119.5,-19.5 157.5,-19.5 157.5,-0.5 119.5,-0.5"/>
<text text-anchor="middle" x="138.5" y="-7.5" font-family="Helvetica,sans-Serif" font-size="10.00">map</text>
</g>
<!-- Node1&#45;&gt;Node5 -->
<g id="edge8" class="edge"><title>Node1&#45;&gt;Node5</title>
<path fill="none" stroke="midnightblue" d="M204.911,-168.386C210.864,-139.591 216.382,-91.7635 198.5,-56 191.725,-42.4504 178.716,-31.9222 166.538,-24.4676"/>
<polygon fill="midnightblue" stroke="midnightblue" points="167.933,-21.2361 157.505,-19.3671 164.492,-27.3316 167.933,-21.2361"/>
</g>
<!-- Node6 -->
<g id="node6" class="node"><title>Node6</title>
<polygon fill="white" stroke="#bfbfbf" points="213.5,-0.5 213.5,-19.5 257.5,-19.5 257.5,-0.5 213.5,-0.5"/>
<text text-anchor="middle" x="235.5" y="-7.5" font-family="Helvetica,sans-Serif" font-size="10.00">string</text>
</g>
<!-- Node1&#45;&gt;Node6 -->
<g id="edge9" class="edge"><title>Node1&#45;&gt;Node6</title>
<path fill="none" stroke="midnightblue" d="M215.427,-168.273C221.696,-157.557 228.101,-144.637 231.5,-132 240.931,-96.9402 239.456,-54.1044 237.499,-29.9482"/>
<polygon fill="midnightblue" stroke="midnightblue" points="240.957,-29.3385 236.545,-19.7062 233.987,-29.9876 240.957,-29.3385"/>
</g>
<!-- Node3 -->
<g id="node3" class="node"><title>Node3</title>
<polygon fill="white" stroke="#bfbfbf" points="0,-0.5 0,-19.5 95,-19.5 95,-0.5 0,-0.5"/>
<text text-anchor="middle" x="47.5" y="-7.5" font-family="Helvetica,sans-Serif" font-size="10.00">antlr4&#45;runtime.h</text>
</g>
<!-- Node2&#45;&gt;Node3 -->
<g id="edge2" class="edge"><title>Node2&#45;&gt;Node3</title>
<path fill="none" stroke="midnightblue" d="M69.9594,-112.49C60.0206,-104.379 46.3775,-91.1778 40.5,-76 34.7363,-61.1161 37.4171,-42.9705 41.0041,-29.6378"/>
<polygon fill="midnightblue" stroke="midnightblue" points="44.4519,-30.3353 44.0648,-19.7476 37.7648,-28.2658 44.4519,-30.3353"/>
</g>
<!-- Node2&#45;&gt;Node4 -->
<g id="edge3" class="edge"><title>Node2&#45;&gt;Node4</title>
<path fill="none" stroke="midnightblue" d="M87.7749,-112.083C93.1425,-104.455 101.018,-93.2645 107.579,-83.9408"/>
<polygon fill="midnightblue" stroke="midnightblue" points="110.449,-85.9434 113.342,-75.7511 104.725,-81.9149 110.449,-85.9434"/>
</g>
<!-- Node4&#45;&gt;Node3 -->
<g id="edge4" class="edge"><title>Node4&#45;&gt;Node3</title>
<path fill="none" stroke="midnightblue" d="M107.932,-56.324C97.0798,-48.1849 80.6193,-35.8395 67.6166,-26.0874"/>
<polygon fill="midnightblue" stroke="midnightblue" points="69.3786,-23.0339 59.2785,-19.8339 65.1785,-28.6339 69.3786,-23.0339"/>
</g>
<!-- Node4&#45;&gt;Node5 -->
<g id="edge5" class="edge"><title>Node4&#45;&gt;Node5</title>
<path fill="none" stroke="midnightblue" d="M122.637,-56.083C125.183,-48.8486 128.856,-38.4087 132.027,-29.3968"/>
<polygon fill="midnightblue" stroke="midnightblue" points="135.403,-30.3459 135.421,-19.7511 128.8,-28.0225 135.403,-30.3459"/>
</g>
<!-- Node4&#45;&gt;Node6 -->
<g id="edge6" class="edge"><title>Node4&#45;&gt;Node6</title>
<path fill="none" stroke="midnightblue" d="M137.881,-56.4435C156.716,-47.6751 186.231,-33.9355 207.879,-23.8579"/>
<polygon fill="midnightblue" stroke="midnightblue" points="209.617,-26.9098 217.205,-19.5164 206.662,-20.5637 209.617,-26.9098"/>
</g>
</g>
</svg>
