<?xml version="1.0" encoding="UTF-8" standalone="no"?>
<!DOCTYPE svg PUBLIC "-//W3C//DTD SVG 1.1//EN"
 "http://www.w3.org/Graphics/SVG/1.1/DTD/svg11.dtd">
<!-- Generated by graphviz version 2.38.0 (20140413.2041)
 -->
<!-- Title: /home/travis/build/hypro/hypro/src/hypro/parser/antlr4&#45;flowstar/HyproFormulaVisitor.h Pages: 1 -->
<svg width="573pt" height="328pt"
 viewBox="0.00 0.00 572.50 328.00" xmlns="http://www.w3.org/2000/svg" xmlns:xlink="http://www.w3.org/1999/xlink">
<g id="graph0" class="graph" transform="scale(1 1) rotate(0) translate(4 324)">
<title>/home/travis/build/hypro/hypro/src/hypro/parser/antlr4&#45;flowstar/HyproFormulaVisitor.h</title>
<polygon fill="white" stroke="none" points="-4,4 -4,-324 568.5,-324 568.5,4 -4,4"/>
<!-- Node1 -->
<g id="node1" class="node"><title>Node1</title>
<polygon fill="#bfbfbf" stroke="black" points="222,-267.5 222,-319.5 347,-319.5 347,-267.5 222,-267.5"/>
<text text-anchor="start" x="230" y="-307.5" font-family="Helvetica,sans-Serif" font-size="10.00">/home/travis/build</text>
<text text-anchor="start" x="230" y="-296.5" font-family="Helvetica,sans-Serif" font-size="10.00">/hypro/hypro/src/hypro</text>
<text text-anchor="start" x="230" y="-285.5" font-family="Helvetica,sans-Serif" font-size="10.00">/parser/antlr4&#45;flowstar</text>
<text text-anchor="middle" x="284.5" y="-274.5" font-family="Helvetica,sans-Serif" font-size="10.00">/HyproFormulaVisitor.h</text>
</g>
<!-- Node2 -->
<g id="node2" class="node"><title>Node2</title>
<g id="a_node2"><a xlink:href="HyproLocationVisitor_8h.html" target="_top" xlink:title="/home/travis/build\l/hypro/hypro/src/hypro\l/parser/antlr4&#45;flowstar\l/HyproLocationVisitor.h">
<polygon fill="white" stroke="black" points="0,-178.5 0,-230.5 127,-230.5 127,-178.5 0,-178.5"/>
<text text-anchor="start" x="8" y="-218.5" font-family="Helvetica,sans-Serif" font-size="10.00">/home/travis/build</text>
<text text-anchor="start" x="8" y="-207.5" font-family="Helvetica,sans-Serif" font-size="10.00">/hypro/hypro/src/hypro</text>
<text text-anchor="start" x="8" y="-196.5" font-family="Helvetica,sans-Serif" font-size="10.00">/parser/antlr4&#45;flowstar</text>
<text text-anchor="middle" x="63.5" y="-185.5" font-family="Helvetica,sans-Serif" font-size="10.00">/HyproLocationVisitor.h</text>
</a>
</g>
</g>
<!-- Node1&#45;&gt;Node2 -->
<g id="edge1" class="edge"><title>Node1&#45;&gt;Node2</title>
<path fill="none" stroke="midnightblue" d="M212.218,-264.045C184.777,-253.243 153.751,-241.028 127.163,-230.562"/>
<polygon fill="midnightblue" stroke="midnightblue" points="211.174,-267.396 221.761,-267.802 213.739,-260.882 211.174,-267.396"/>
</g>
<!-- Node5 -->
<g id="node5" class="node"><title>Node5</title>
<g id="a_node5"><a xlink:href="HyproTransitionVisitor_8h.html" target="_top" xlink:title="/home/travis/build\l/hypro/hypro/src/hypro\l/parser/antlr4&#45;flowstar\l/HyproTransitionVisitor.h">
<polygon fill="white" stroke="black" points="145,-178.5 145,-230.5 276,-230.5 276,-178.5 145,-178.5"/>
<text text-anchor="start" x="153" y="-218.5" font-family="Helvetica,sans-Serif" font-size="10.00">/home/travis/build</text>
<text text-anchor="start" x="153" y="-207.5" font-family="Helvetica,sans-Serif" font-size="10.00">/hypro/hypro/src/hypro</text>
<text text-anchor="start" x="153" y="-196.5" font-family="Helvetica,sans-Serif" font-size="10.00">/parser/antlr4&#45;flowstar</text>
<text text-anchor="middle" x="210.5" y="-185.5" font-family="Helvetica,sans-Serif" font-size="10.00">/HyproTransitionVisitor.h</text>
</a>
</g>
</g>
<!-- Node1&#45;&gt;Node5 -->
<g id="edge4" class="edge"><title>Node1&#45;&gt;Node5</title>
<path fill="none" stroke="midnightblue" d="M256.433,-259.503C248.285,-249.923 239.521,-239.62 231.856,-230.607"/>
<polygon fill="midnightblue" stroke="midnightblue" points="253.951,-261.986 263.096,-267.336 259.283,-257.451 253.951,-261.986"/>
</g>
<!-- Node6 -->
<g id="node6" class="node"><title>Node6</title>
<g id="a_node6"><a xlink:href="HyproInitialSetVisitor_8h.html" target="_top" xlink:title="/home/travis/build\l/hypro/hypro/src/hypro\l/parser/antlr4&#45;flowstar\l/HyproInitialSetVisitor.h">
<polygon fill="white" stroke="black" points="294.5,-178.5 294.5,-230.5 422.5,-230.5 422.5,-178.5 294.5,-178.5"/>
<text text-anchor="start" x="302.5" y="-218.5" font-family="Helvetica,sans-Serif" font-size="10.00">/home/travis/build</text>
<text text-anchor="start" x="302.5" y="-207.5" font-family="Helvetica,sans-Serif" font-size="10.00">/hypro/hypro/src/hypro</text>
<text text-anchor="start" x="302.5" y="-196.5" font-family="Helvetica,sans-Serif" font-size="10.00">/parser/antlr4&#45;flowstar</text>
<text text-anchor="middle" x="358.5" y="-185.5" font-family="Helvetica,sans-Serif" font-size="10.00">/HyproInitialSetVisitor.h</text>
</a>
</g>
</g>
<!-- Node1&#45;&gt;Node6 -->
<g id="edge6" class="edge"><title>Node1&#45;&gt;Node6</title>
<path fill="none" stroke="midnightblue" d="M312.567,-259.503C320.715,-249.923 329.479,-239.62 337.144,-230.607"/>
<polygon fill="midnightblue" stroke="midnightblue" points="309.717,-257.451 305.904,-267.336 315.049,-261.986 309.717,-257.451"/>
</g>
<!-- Node7 -->
<g id="node7" class="node"><title>Node7</title>
<g id="a_node7"><a xlink:href="HyproSettingVisitor_8h.html" target="_top" xlink:title="/home/travis/build\l/hypro/hypro/src/hypro\l/parser/antlr4&#45;flowstar\l/HyproSettingVisitor.h">
<polygon fill="white" stroke="black" points="440.5,-178.5 440.5,-230.5 564.5,-230.5 564.5,-178.5 440.5,-178.5"/>
<text text-anchor="start" x="448.5" y="-218.5" font-family="Helvetica,sans-Serif" font-size="10.00">/home/travis/build</text>
<text text-anchor="start" x="448.5" y="-207.5" font-family="Helvetica,sans-Serif" font-size="10.00">/hypro/hypro/src/hypro</text>
<text text-anchor="start" x="448.5" y="-196.5" font-family="Helvetica,sans-Serif" font-size="10.00">/parser/antlr4&#45;flowstar</text>
<text text-anchor="middle" x="502.5" y="-185.5" font-family="Helvetica,sans-Serif" font-size="10.00">/HyproSettingVisitor.h</text>
</a>
</g>
</g>
<!-- Node1&#45;&gt;Node7 -->
<g id="edge8" class="edge"><title>Node1&#45;&gt;Node7</title>
<path fill="none" stroke="midnightblue" d="M356.664,-263.701C383.684,-252.918 414.126,-240.769 440.18,-230.371"/>
<polygon fill="midnightblue" stroke="midnightblue" points="355.253,-260.495 347.262,-267.453 357.847,-266.997 355.253,-260.495"/>
</g>
<!-- Node3 -->
<g id="node3" class="node"><title>Node3</title>
<g id="a_node3"><a xlink:href="HyproHAVisitor_8h.html" target="_top" xlink:title="/home/travis/build\l/hypro/hypro/src/hypro\l/parser/antlr4&#45;flowstar\l/HyproHAVisitor.h">
<polygon fill="white" stroke="black" points="222.5,-89.5 222.5,-141.5 346.5,-141.5 346.5,-89.5 222.5,-89.5"/>
<text text-anchor="start" x="230.5" y="-129.5" font-family="Helvetica,sans-Serif" font-size="10.00">/home/travis/build</text>
<text text-anchor="start" x="230.5" y="-118.5" font-family="Helvetica,sans-Serif" font-size="10.00">/hypro/hypro/src/hypro</text>
<text text-anchor="start" x="230.5" y="-107.5" font-family="Helvetica,sans-Serif" font-size="10.00">/parser/antlr4&#45;flowstar</text>
<text text-anchor="middle" x="284.5" y="-96.5" font-family="Helvetica,sans-Serif" font-size="10.00">/HyproHAVisitor.h</text>
</a>
</g>
</g>
<!-- Node2&#45;&gt;Node3 -->
<g id="edge2" class="edge"><title>Node2&#45;&gt;Node3</title>
<path fill="none" stroke="midnightblue" d="M136.782,-174.651C164.539,-163.725 195.843,-151.401 222.465,-140.921"/>
<polygon fill="midnightblue" stroke="midnightblue" points="135.149,-171.533 127.126,-178.453 137.713,-178.046 135.149,-171.533"/>
</g>
<!-- Node4 -->
<g id="node4" class="node"><title>Node4</title>
<g id="a_node4"><a xlink:href="ParserWrapper_8cpp.html" target="_top" xlink:title="/home/travis/build\l/hypro/hypro/src/hypro\l/parser/antlr4&#45;flowstar\l/ParserWrapper.cpp">
<polygon fill="white" stroke="black" points="222.5,-0.5 222.5,-52.5 346.5,-52.5 346.5,-0.5 222.5,-0.5"/>
<text text-anchor="start" x="230.5" y="-40.5" font-family="Helvetica,sans-Serif" font-size="10.00">/home/travis/build</text>
<text text-anchor="start" x="230.5" y="-29.5" font-family="Helvetica,sans-Serif" font-size="10.00">/hypro/hypro/src/hypro</text>
<text text-anchor="start" x="230.5" y="-18.5" font-family="Helvetica,sans-Serif" font-size="10.00">/parser/antlr4&#45;flowstar</text>
<text text-anchor="middle" x="284.5" y="-7.5" font-family="Helvetica,sans-Serif" font-size="10.00">/ParserWrapper.cpp</text>
</a>
</g>
</g>
<!-- Node3&#45;&gt;Node4 -->
<g id="edge3" class="edge"><title>Node3&#45;&gt;Node4</title>
<path fill="none" stroke="midnightblue" d="M284.5,-79.1908C284.5,-70.2824 284.5,-60.8986 284.5,-52.6075"/>
<polygon fill="midnightblue" stroke="midnightblue" points="281,-79.336 284.5,-89.336 288,-79.336 281,-79.336"/>
</g>
<!-- Node5&#45;&gt;Node3 -->
<g id="edge5" class="edge"><title>Node5&#45;&gt;Node3</title>
<path fill="none" stroke="midnightblue" d="M238.567,-170.503C246.715,-160.923 255.479,-150.62 263.144,-141.607"/>
<polygon fill="midnightblue" stroke="midnightblue" points="235.717,-168.451 231.904,-178.336 241.049,-172.986 235.717,-168.451"/>
</g>
<!-- Node6&#45;&gt;Node3 -->
<g id="edge7" class="edge"><title>Node6&#45;&gt;Node3</title>
<path fill="none" stroke="midnightblue" d="M330.433,-170.503C322.285,-160.923 313.521,-150.62 305.856,-141.607"/>
<polygon fill="midnightblue" stroke="midnightblue" points="327.951,-172.986 337.096,-178.336 333.283,-168.451 327.951,-172.986"/>
</g>
<!-- Node7&#45;&gt;Node3 -->
<g id="edge9" class="edge"><title>Node7&#45;&gt;Node3</title>
<path fill="none" stroke="midnightblue" d="M430.871,-174.914C403.698,-164.07 373.001,-151.819 346.761,-141.347"/>
<polygon fill="midnightblue" stroke="midnightblue" points="429.737,-178.23 440.322,-178.686 432.331,-171.728 429.737,-178.23"/>
</g>
</g>
</svg>
