<?xml version="1.0" encoding="UTF-8" standalone="no"?>
<!DOCTYPE svg PUBLIC "-//W3C//DTD SVG 1.1//EN"
 "http://www.w3.org/Graphics/SVG/1.1/DTD/svg11.dtd">
<!-- Generated by graphviz version 2.38.0 (20140413.2041)
 -->
<!-- Title: /home/travis/build/hypro/hypro/src/hypro/parser/antlr4&#45;flowstar/HyproFormulaVisitor.h Pages: 1 -->
<!--zoomable 374 -->
<svg id="main" version="1.1" xmlns="http://www.w3.org/2000/svg" xmlns:xlink="http://www.w3.org/1999/xlink" xml:space="preserve" onload="init(evt)">
<style type="text/css"><![CDATA[
.edge:hover path { stroke: red; }
.edge:hover polygon { stroke: red; fill: red; }
]]></style>
<script type="text/javascript"><![CDATA[
var edges = document.getElementsByTagName('g');
if (edges && edges.length) {
  for (var i=0;i<edges.length;i++) {
    if (edges[i].id.substr(0,4)=='edge') {
      edges[i].setAttribute('class','edge');
    }
  }
}
]]></script>
        <defs>
                <circle id="rim" cx="0" cy="0" r="7"/>
                <circle id="rim2" cx="0" cy="0" r="3.5"/>
                <g id="zoomPlus">
                        <use xlink:href="#rim" fill="#404040">
                                <set attributeName="fill" to="#808080" begin="zoomplus.mouseover" end="zoomplus.mouseout"/>
                        </use>
                        <path d="M-4,0h8M0,-4v8" fill="none" stroke="white" stroke-width="1.5" pointer-events="none"/>
                </g>
                <g id="zoomMin">
                        <use xlink:href="#rim" fill="#404040">
                                <set attributeName="fill" to="#808080" begin="zoomminus.mouseover" end="zoomminus.mouseout"/>
                        </use>
                        <path d="M-4,0h8" fill="none" stroke="white" stroke-width="1.5" pointer-events="none"/>
                </g>
                <g id="dirArrow">
                        <path fill="none" stroke="white" stroke-width="1.5" d="M0,-3.0v7 M-2.5,-0.5L0,-3.0L2.5,-0.5"/>
                </g>
               <g id="resetDef">
                       <use xlink:href="#rim2" fill="#404040">
                               <set attributeName="fill" to="#808080" begin="reset.mouseover" end="reset.mouseout"/>
                       </use>
               </g>
        </defs>

<script type="text/javascript">
var viewWidth = 2147;
var viewHeight = 374;
var sectionId = 'dynsection-0';
</script>
<script xlink:href="svgpan.js"/>
<svg id="graph" class="graph">
<g id="viewport">
<title>/home/travis/build/hypro/hypro/src/hypro/parser/antlr4&#45;flowstar/HyproFormulaVisitor.h</title>
<polygon fill="white" stroke="none" points="-4,4 -4,-370 2143,-370 2143,4 -4,4"/>
<!-- Node1 -->
<g id="node1" class="node"><title>Node1</title>
<polygon fill="#bfbfbf" stroke="black" points="1563.5,-313.5 1563.5,-365.5 1688.5,-365.5 1688.5,-313.5 1563.5,-313.5"/>
<text text-anchor="start" x="1571.5" y="-353.5" font-family="Helvetica,sans-Serif" font-size="10.00">/home/travis/build</text>
<text text-anchor="start" x="1571.5" y="-342.5" font-family="Helvetica,sans-Serif" font-size="10.00">/hypro/hypro/src/hypro</text>
<text text-anchor="start" x="1571.5" y="-331.5" font-family="Helvetica,sans-Serif" font-size="10.00">/parser/antlr4&#45;flowstar</text>
<text text-anchor="middle" x="1626" y="-320.5" font-family="Helvetica,sans-Serif" font-size="10.00">/HyproFormulaVisitor.h</text>
</g>
<!-- Node1&#45;&gt;Node1 -->
<g id="edge51" class="edge"><title>Node1&#45;&gt;Node1</title>
<path fill="none" stroke="midnightblue" d="M1688.78,-352.047C1699.26,-350.292 1706.5,-346.109 1706.5,-339.5 1706.5,-335.266 1703.53,-332.028 1698.64,-329.786"/>
<polygon fill="midnightblue" stroke="midnightblue" points="1699.36,-326.35 1688.78,-326.953 1697.42,-333.078 1699.36,-326.35"/>
</g>
<!-- Node2 -->
<g id="node2" class="node"><title>Node2</title>
<g id="a_node2"><a xlink:href="types_8h.html" target="_top" xlink:title="../../types.h">
<polygon fill="white" stroke="black" points="800,-257.5 800,-276.5 870,-276.5 870,-257.5 800,-257.5"/>
<text text-anchor="middle" x="835" y="-264.5" font-family="Helvetica,sans-Serif" font-size="10.00">../../types.h</text>
</a>
</g>
</g>
<!-- Node1&#45;&gt;Node2 -->
<g id="edge1" class="edge"><title>Node1&#45;&gt;Node2</title>
<path fill="none" stroke="midnightblue" d="M1563.27,-332.909C1409.22,-319.179 1015.1,-284.052 880.701,-272.073"/>
<polygon fill="midnightblue" stroke="midnightblue" points="880.635,-268.554 870.364,-271.152 880.014,-275.526 880.635,-268.554"/>
</g>
<!-- Node28 -->
<g id="node28" class="node"><title>Node28</title>
<g id="a_node28"><a xlink:href="HybridAutomatonBaseVisitor_8h.html" target="_top" xlink:title="HybridAutomatonBaseVisitor.h">
<polygon fill="white" stroke="black" points="1254,-257.5 1254,-276.5 1418,-276.5 1418,-257.5 1254,-257.5"/>
<text text-anchor="middle" x="1336" y="-264.5" font-family="Helvetica,sans-Serif" font-size="10.00">HybridAutomatonBaseVisitor.h</text>
</a>
</g>
</g>
<!-- Node1&#45;&gt;Node28 -->
<g id="edge35" class="edge"><title>Node1&#45;&gt;Node28</title>
<path fill="none" stroke="midnightblue" d="M1563.43,-323.289C1508.56,-309.949 1430.1,-290.875 1381.15,-278.976"/>
<polygon fill="midnightblue" stroke="midnightblue" points="1381.72,-275.512 1371.17,-276.55 1380.06,-282.314 1381.72,-275.512"/>
</g>
<!-- Node31 -->
<g id="node31" class="node"><title>Node31</title>
<g id="a_node31"><a xlink:href="HybridAutomatonParser_8h.html" target="_top" xlink:title="HybridAutomatonParser.h">
<polygon fill="white" stroke="black" points="1402,-123.5 1402,-142.5 1542,-142.5 1542,-123.5 1402,-123.5"/>
<text text-anchor="middle" x="1472" y="-130.5" font-family="Helvetica,sans-Serif" font-size="10.00">HybridAutomatonParser.h</text>
</a>
</g>
</g>
<!-- Node1&#45;&gt;Node31 -->
<g id="edge45" class="edge"><title>Node1&#45;&gt;Node31</title>
<path fill="none" stroke="midnightblue" d="M1618.56,-313.239C1607.24,-276.104 1585.32,-209.109 1569,-190 1552.1,-170.215 1526.37,-155.813 1505.65,-146.573"/>
<polygon fill="midnightblue" stroke="midnightblue" points="1506.81,-143.263 1496.24,-142.57 1504.07,-149.705 1506.81,-143.263"/>
</g>
<!-- Node32 -->
<g id="node32" class="node"><title>Node32</title>
<polygon fill="white" stroke="#bfbfbf" points="1467,-56.5 1467,-75.5 1511,-75.5 1511,-56.5 1467,-56.5"/>
<text text-anchor="middle" x="1489" y="-63.5" font-family="Helvetica,sans-Serif" font-size="10.00">string</text>
</g>
<!-- Node1&#45;&gt;Node32 -->
<g id="edge49" class="edge"><title>Node1&#45;&gt;Node32</title>
<path fill="none" stroke="midnightblue" d="M1623.87,-313.373C1618.8,-268.088 1602.34,-171.924 1551,-112 1540.42,-99.6462 1525.79,-88.8248 1513.41,-80.8916"/>
<polygon fill="midnightblue" stroke="midnightblue" points="1515.22,-77.9005 1504.87,-75.6448 1511.56,-83.8637 1515.22,-77.9005"/>
</g>
<!-- Node33 -->
<g id="node33" class="node"><title>Node33</title>
<g id="a_node33"><a xlink:href="HybridAutomatonLexer_8h.html" target="_top" xlink:title="HybridAutomatonLexer.h">
<polygon fill="white" stroke="black" points="1424,-196 1424,-215 1560,-215 1560,-196 1424,-196"/>
<text text-anchor="middle" x="1492" y="-203" font-family="Helvetica,sans-Serif" font-size="10.00">HybridAutomatonLexer.h</text>
</a>
</g>
</g>
<!-- Node1&#45;&gt;Node33 -->
<g id="edge43" class="edge"><title>Node1&#45;&gt;Node33</title>
<path fill="none" stroke="midnightblue" d="M1600.48,-313.361C1573.17,-286.462 1530.71,-244.634 1507.85,-222.117"/>
<polygon fill="midnightblue" stroke="midnightblue" points="1510.22,-219.538 1500.64,-215.014 1505.31,-224.525 1510.22,-219.538"/>
</g>
<!-- Node34 -->
<g id="node34" class="node"><title>Node34</title>
<polygon fill="white" stroke="#bfbfbf" points="1654,-257.5 1654,-276.5 1776,-276.5 1776,-257.5 1654,-257.5"/>
<text text-anchor="middle" x="1715" y="-264.5" font-family="Helvetica,sans-Serif" font-size="10.00">boost/lexical_cast.hpp</text>
</g>
<!-- Node1&#45;&gt;Node34 -->
<g id="edge46" class="edge"><title>Node1&#45;&gt;Node34</title>
<path fill="none" stroke="midnightblue" d="M1657.63,-313.446C1670.4,-303.328 1684.72,-291.983 1695.86,-283.16"/>
<polygon fill="midnightblue" stroke="midnightblue" points="1698.36,-285.648 1704.02,-276.695 1694.01,-280.161 1698.36,-285.648"/>
</g>
<!-- Node35 -->
<g id="node35" class="node"><title>Node35</title>
<polygon fill="white" stroke="#bfbfbf" points="1794.5,-257.5 1794.5,-276.5 1913.5,-276.5 1913.5,-257.5 1794.5,-257.5"/>
<text text-anchor="middle" x="1854" y="-264.5" font-family="Helvetica,sans-Serif" font-size="10.00">carl/interval/Interval.h</text>
</g>
<!-- Node1&#45;&gt;Node35 -->
<g id="edge47" class="edge"><title>Node1&#45;&gt;Node35</title>
<path fill="none" stroke="midnightblue" d="M1688.6,-319.142C1729.64,-306.454 1781.91,-290.291 1816.59,-279.568"/>
<polygon fill="midnightblue" stroke="midnightblue" points="1817.8,-282.858 1826.32,-276.56 1815.73,-276.17 1817.8,-282.858"/>
</g>
<!-- Node36 -->
<g id="node36" class="node"><title>Node36</title>
<polygon fill="white" stroke="#bfbfbf" points="1931.5,-257.5 1931.5,-276.5 1988.5,-276.5 1988.5,-257.5 1931.5,-257.5"/>
<text text-anchor="middle" x="1960" y="-264.5" font-family="Helvetica,sans-Serif" font-size="10.00">memory</text>
</g>
<!-- Node1&#45;&gt;Node36 -->
<g id="edge48" class="edge"><title>Node1&#45;&gt;Node36</title>
<path fill="none" stroke="midnightblue" d="M1688.71,-326.166C1746.68,-314.617 1835.46,-296.556 1921.42,-277.305"/>
<polygon fill="midnightblue" stroke="midnightblue" points="1922.35,-280.683 1931.34,-275.075 1920.82,-273.853 1922.35,-280.683"/>
</g>
<!-- Node37 -->
<g id="node37" class="node"><title>Node37</title>
<polygon fill="white" stroke="#bfbfbf" points="2007,-257.5 2007,-276.5 2139,-276.5 2139,-257.5 2007,-257.5"/>
<text text-anchor="middle" x="2073" y="-264.5" font-family="Helvetica,sans-Serif" font-size="10.00">HyproFormulaVisitor.tpp</text>
</g>
<!-- Node1&#45;&gt;Node37 -->
<g id="edge50" class="edge"><title>Node1&#45;&gt;Node37</title>
<path fill="none" stroke="midnightblue" d="M1688.62,-328.623C1773.24,-315.277 1923.32,-291.607 2008.76,-278.131"/>
<polygon fill="midnightblue" stroke="midnightblue" points="2009.52,-281.555 2018.85,-276.54 2008.43,-274.641 2009.52,-281.555"/>
</g>
<!-- Node3 -->
<g id="node3" class="node"><title>Node3</title>
<polygon fill="white" stroke="#bfbfbf" points="0,-123.5 0,-142.5 134,-142.5 134,-123.5 0,-123.5"/>
<text text-anchor="middle" x="67" y="-130.5" font-family="Helvetica,sans-Serif" font-size="10.00">carl/numbers/numbers.h</text>
</g>
<!-- Node2&#45;&gt;Node3 -->
<g id="edge2" class="edge"><title>Node2&#45;&gt;Node3</title>
<path fill="none" stroke="midnightblue" d="M799.996,-263.762C728.165,-258.83 559.078,-245.471 419,-221 294.654,-199.277 265.376,-184.953 143,-154 131.86,-151.182 119.825,-148.054 108.688,-145.125"/>
<polygon fill="midnightblue" stroke="midnightblue" points="109.328,-141.673 98.7655,-142.505 107.541,-148.441 109.328,-141.673"/>
</g>
<!-- Node4 -->
<g id="node4" class="node"><title>Node4</title>
<polygon fill="white" stroke="#bfbfbf" points="735,-196 735,-215 821,-215 821,-196 735,-196"/>
<text text-anchor="middle" x="778" y="-203" font-family="Helvetica,sans-Serif" font-size="10.00">carl/util/hash.h</text>
</g>
<!-- Node2&#45;&gt;Node4 -->
<g id="edge3" class="edge"><title>Node2&#45;&gt;Node4</title>
<path fill="none" stroke="midnightblue" d="M826.833,-257.475C818.114,-248.373 804.096,-233.741 793.311,-222.483"/>
<polygon fill="midnightblue" stroke="midnightblue" points="795.597,-219.809 786.152,-215.009 790.542,-224.651 795.597,-219.809"/>
</g>
<!-- Node5 -->
<g id="node5" class="node"><title>Node5</title>
<polygon fill="white" stroke="#bfbfbf" points="839,-196 839,-215 943,-215 943,-196 839,-196"/>
<text text-anchor="middle" x="891" y="-203" font-family="Helvetica,sans-Serif" font-size="10.00">eigen3/Eigen/Core</text>
</g>
<!-- Node2&#45;&gt;Node5 -->
<g id="edge4" class="edge"><title>Node2&#45;&gt;Node5</title>
<path fill="none" stroke="midnightblue" d="M843.023,-257.475C851.59,-248.373 865.361,-233.741 875.957,-222.483"/>
<polygon fill="midnightblue" stroke="midnightblue" points="878.686,-224.69 882.991,-215.009 873.589,-219.892 878.686,-224.69"/>
</g>
<!-- Node6 -->
<g id="node6" class="node"><title>Node6</title>
<polygon fill="white" stroke="#bfbfbf" points="152,-123.5 152,-142.5 264,-142.5 264,-123.5 152,-123.5"/>
<text text-anchor="middle" x="208" y="-130.5" font-family="Helvetica,sans-Serif" font-size="10.00">eigen3/Eigen/Dense</text>
</g>
<!-- Node2&#45;&gt;Node6 -->
<g id="edge5" class="edge"><title>Node2&#45;&gt;Node6</title>
<path fill="none" stroke="midnightblue" d="M799.724,-260.511C749.314,-252.539 653.822,-236.956 573,-221 438.969,-194.54 405.057,-189.005 273,-154 263.529,-151.49 253.368,-148.505 243.96,-145.618"/>
<polygon fill="midnightblue" stroke="midnightblue" points="244.703,-142.183 234.115,-142.55 242.621,-148.866 244.703,-142.183"/>
</g>
<!-- Node7 -->
<g id="node7" class="node"><title>Node7</title>
<polygon fill="white" stroke="#bfbfbf" points="969,-0.5 969,-19.5 1015,-19.5 1015,-0.5 969,-0.5"/>
<text text-anchor="middle" x="992" y="-7.5" font-family="Helvetica,sans-Serif" font-size="10.00">iosfwd</text>
</g>
<!-- Node2&#45;&gt;Node7 -->
<g id="edge6" class="edge"><title>Node2&#45;&gt;Node7</title>
<path fill="none" stroke="midnightblue" d="M870.231,-261.669C896.68,-256.516 931.7,-245.302 952,-221 999.094,-164.623 997.277,-69.891 994.029,-29.813"/>
<polygon fill="midnightblue" stroke="midnightblue" points="997.512,-29.4623 993.093,-19.8329 990.542,-30.1161 997.512,-29.4623"/>
</g>
<!-- Node8 -->
<g id="node8" class="node"><title>Node8</title>
<polygon fill="white" stroke="#bfbfbf" points="1177,-0.5 1177,-19.5 1209,-19.5 1209,-0.5 1177,-0.5"/>
<text text-anchor="middle" x="1193" y="-7.5" font-family="Helvetica,sans-Serif" font-size="10.00">set</text>
</g>
<!-- Node2&#45;&gt;Node8 -->
<g id="edge7" class="edge"><title>Node2&#45;&gt;Node8</title>
<path fill="none" stroke="midnightblue" d="M870.341,-263.993C912.028,-260.331 982.313,-250.013 1035,-221 1114.83,-177.038 1137,-156.354 1180,-76 1187.72,-61.573 1190.88,-43.1201 1192.15,-29.5641"/>
<polygon fill="midnightblue" stroke="midnightblue" points="1195.65,-29.7417 1192.85,-19.5247 1188.67,-29.2602 1195.65,-29.7417"/>
</g>
<!-- Node9 -->
<g id="node9" class="node"><title>Node9</title>
<g id="a_node9"><a xlink:href="adaptions__eigen_8h.html" target="_top" xlink:title="util/adaptions_eigen\l/adaptions_eigen.h">
<polygon fill="white" stroke="black" points="582.5,-190.5 582.5,-220.5 695.5,-220.5 695.5,-190.5 582.5,-190.5"/>
<text text-anchor="start" x="590.5" y="-208.5" font-family="Helvetica,sans-Serif" font-size="10.00">util/adaptions_eigen</text>
<text text-anchor="middle" x="639" y="-197.5" font-family="Helvetica,sans-Serif" font-size="10.00">/adaptions_eigen.h</text>
</a>
</g>
</g>
<!-- Node2&#45;&gt;Node9 -->
<g id="edge8" class="edge"><title>Node2&#45;&gt;Node9</title>
<path fill="none" stroke="midnightblue" d="M802.017,-257.475C771.069,-248.664 724.544,-234.668 689.057,-223.57"/>
<polygon fill="midnightblue" stroke="midnightblue" points="689.953,-220.182 679.363,-220.523 687.854,-226.86 689.953,-220.182"/>
</g>
<!-- Node9&#45;&gt;Node2 -->
<g id="edge26" class="edge"><title>Node9&#45;&gt;Node2</title>
<path fill="none" stroke="midnightblue" d="M691.023,-220.523C726.296,-230.826 771.757,-244.662 802.132,-254.357"/>
<polygon fill="midnightblue" stroke="midnightblue" points="801.227,-257.742 811.819,-257.475 803.372,-251.079 801.227,-257.742"/>
</g>
<!-- Node9&#45;&gt;Node3 -->
<g id="edge28" class="edge"><title>Node9&#45;&gt;Node3</title>
<path fill="none" stroke="midnightblue" d="M582.439,-201.616C489.934,-196.258 300.772,-182.611 143,-154 130.519,-151.737 117.08,-148.48 105.025,-145.249"/>
<polygon fill="midnightblue" stroke="midnightblue" points="105.846,-141.845 95.2755,-142.564 103.987,-148.594 105.846,-141.845"/>
</g>
<!-- Node9&#45;&gt;Node6 -->
<g id="edge29" class="edge"><title>Node9&#45;&gt;Node6</title>
<path fill="none" stroke="midnightblue" d="M582.382,-199.548C510.028,-192.569 381.19,-177.944 273,-154 262.904,-151.766 252.109,-148.719 242.274,-145.678"/>
<polygon fill="midnightblue" stroke="midnightblue" points="243.033,-142.247 232.442,-142.545 240.907,-148.916 243.033,-142.247"/>
</g>
<!-- Node9&#45;&gt;Node7 -->
<g id="edge32" class="edge"><title>Node9&#45;&gt;Node7</title>
<path fill="none" stroke="midnightblue" d="M695.603,-194.985C780.948,-180.615 932.836,-154.936 934,-154 944.259,-145.746 972.966,-65.8366 985.737,-29.1943"/>
<polygon fill="midnightblue" stroke="midnightblue" points="989.053,-30.3132 989.02,-19.7184 982.439,-28.0216 989.053,-30.3132"/>
</g>
<!-- Node10 -->
<g id="node10" class="node"><title>Node10</title>
<g id="a_node10"><a xlink:href="config_8h.html" target="_top" xlink:title="../../config.h">
<polygon fill="white" stroke="black" points="500,-123.5 500,-142.5 572,-142.5 572,-123.5 500,-123.5"/>
<text text-anchor="middle" x="536" y="-130.5" font-family="Helvetica,sans-Serif" font-size="10.00">../../config.h</text>
</a>
</g>
</g>
<!-- Node9&#45;&gt;Node10 -->
<g id="edge9" class="edge"><title>Node9&#45;&gt;Node10</title>
<path fill="none" stroke="midnightblue" d="M618.156,-190.233C600.436,-178.104 575.102,-160.764 557.263,-148.554"/>
<polygon fill="midnightblue" stroke="midnightblue" points="558.927,-145.451 548.698,-142.691 554.973,-151.228 558.927,-145.451"/>
</g>
<!-- Node23 -->
<g id="node23" class="node"><title>Node23</title>
<g id="a_node23"><a xlink:href="transformation_8h.html" target="_top" xlink:title="transformation.h">
<polygon fill="white" stroke="black" points="590.5,-123.5 590.5,-142.5 687.5,-142.5 687.5,-123.5 590.5,-123.5"/>
<text text-anchor="middle" x="639" y="-130.5" font-family="Helvetica,sans-Serif" font-size="10.00">transformation.h</text>
</a>
</g>
</g>
<!-- Node9&#45;&gt;Node23 -->
<g id="edge27" class="edge"><title>Node9&#45;&gt;Node23</title>
<path fill="none" stroke="midnightblue" d="M639,-190.233C639,-179.501 639,-164.687 639,-152.959"/>
<polygon fill="midnightblue" stroke="midnightblue" points="642.5,-152.893 639,-142.893 635.5,-152.893 642.5,-152.893"/>
</g>
<!-- Node24 -->
<g id="node24" class="node"><title>Node24</title>
<polygon fill="white" stroke="#bfbfbf" points="706,-123.5 706,-142.5 844,-142.5 844,-123.5 706,-123.5"/>
<text text-anchor="middle" x="775" y="-130.5" font-family="Helvetica,sans-Serif" font-size="10.00">eigen3/Eigen/Eigenvalues</text>
</g>
<!-- Node9&#45;&gt;Node24 -->
<g id="edge30" class="edge"><title>Node9&#45;&gt;Node24</title>
<path fill="none" stroke="midnightblue" d="M666.195,-190.403C690.449,-177.83 725.693,-159.56 749.438,-147.251"/>
<polygon fill="midnightblue" stroke="midnightblue" points="751.271,-150.243 758.538,-142.534 748.049,-144.029 751.271,-150.243"/>
</g>
<!-- Node25 -->
<g id="node25" class="node"><title>Node25</title>
<polygon fill="white" stroke="#bfbfbf" points="862.5,-123.5 862.5,-142.5 925.5,-142.5 925.5,-123.5 862.5,-123.5"/>
<text text-anchor="middle" x="894" y="-130.5" font-family="Helvetica,sans-Serif" font-size="10.00">functional</text>
</g>
<!-- Node9&#45;&gt;Node25 -->
<g id="edge31" class="edge"><title>Node9&#45;&gt;Node25</title>
<path fill="none" stroke="midnightblue" d="M695.86,-194.657C739.564,-186.24 801.049,-172.54 853,-154 858.408,-152.07 864.041,-149.629 869.338,-147.122"/>
<polygon fill="midnightblue" stroke="midnightblue" points="870.986,-150.211 878.389,-142.632 867.875,-143.94 870.986,-150.211"/>
</g>
<!-- Node26 -->
<g id="node26" class="node"><title>Node26</title>
<polygon fill="white" stroke="#bfbfbf" points="282,-123.5 282,-142.5 324,-142.5 324,-123.5 282,-123.5"/>
<text text-anchor="middle" x="303" y="-130.5" font-family="Helvetica,sans-Serif" font-size="10.00">limits</text>
</g>
<!-- Node9&#45;&gt;Node26 -->
<g id="edge33" class="edge"><title>Node9&#45;&gt;Node26</title>
<path fill="none" stroke="midnightblue" d="M582.391,-202.29C519.498,-198.229 415.893,-186.704 333,-154 329.179,-152.492 325.345,-150.443 321.757,-148.23"/>
<polygon fill="midnightblue" stroke="midnightblue" points="323.725,-145.335 313.488,-142.602 319.786,-151.122 323.725,-145.335"/>
</g>
<!-- Node27 -->
<g id="node27" class="node"><title>Node27</title>
<polygon fill="white" stroke="#bfbfbf" points="342,-112.5 342,-153.5 482,-153.5 482,-112.5 342,-112.5"/>
<text text-anchor="start" x="350" y="-141.5" font-family="Helvetica,sans-Serif" font-size="10.00">eigen3/unsupported</text>
<text text-anchor="start" x="350" y="-130.5" font-family="Helvetica,sans-Serif" font-size="10.00">/Eigen/src/MatrixFunctions</text>
<text text-anchor="middle" x="412" y="-119.5" font-family="Helvetica,sans-Serif" font-size="10.00">/MatrixExponential.h</text>
</g>
<!-- Node9&#45;&gt;Node27 -->
<g id="edge34" class="edge"><title>Node9&#45;&gt;Node27</title>
<path fill="none" stroke="midnightblue" d="M593.881,-190.487C562.798,-180.834 520.807,-167.792 485.003,-156.673"/>
<polygon fill="midnightblue" stroke="midnightblue" points="485.671,-153.215 475.083,-153.592 483.595,-159.9 485.671,-153.215"/>
</g>
<!-- Node11 -->
<g id="node11" class="node"><title>Node11</title>
<g id="a_node11"><a xlink:href="flags_8h.html" target="_top" xlink:title="flags.h">
<polygon fill="white" stroke="black" points="726,-0.5 726,-19.5 774,-19.5 774,-0.5 726,-0.5"/>
<text text-anchor="middle" x="750" y="-7.5" font-family="Helvetica,sans-Serif" font-size="10.00">flags.h</text>
</a>
</g>
</g>
<!-- Node10&#45;&gt;Node11 -->
<g id="edge10" class="edge"><title>Node10&#45;&gt;Node11</title>
<path fill="none" stroke="midnightblue" d="M551.048,-123.492C587.566,-102.844 681.145,-49.932 725.707,-24.736"/>
<polygon fill="midnightblue" stroke="midnightblue" points="727.7,-27.6297 734.682,-19.661 724.255,-21.5363 727.7,-27.6297"/>
</g>
<!-- Node12 -->
<g id="node12" class="node"><title>Node12</title>
<g id="a_node12"><a xlink:href="util_2convenienceOperators_8h.html" target="_top" xlink:title="util/convenienceOperators.h">
<polygon fill="white" stroke="black" points="1020.5,-56.5 1020.5,-75.5 1171.5,-75.5 1171.5,-56.5 1020.5,-56.5"/>
<text text-anchor="middle" x="1096" y="-63.5" font-family="Helvetica,sans-Serif" font-size="10.00">util/convenienceOperators.h</text>
</a>
</g>
</g>
<!-- Node10&#45;&gt;Node12 -->
<g id="edge11" class="edge"><title>Node10&#45;&gt;Node12</title>
<path fill="none" stroke="midnightblue" d="M551.78,-123.441C560.208,-119.272 570.901,-114.608 581,-112 659.713,-91.6755 884.917,-77.5818 1009.87,-71.0782"/>
<polygon fill="midnightblue" stroke="midnightblue" points="1010.36,-74.5578 1020.16,-70.5478 1010,-67.5671 1010.36,-74.5578"/>
</g>
<!-- Node16 -->
<g id="node16" class="node"><title>Node16</title>
<g id="a_node16"><a xlink:href="Logger_8h.html" target="_top" xlink:title="util/logging/Logger.h">
<polygon fill="white" stroke="black" points="362.5,-56.5 362.5,-75.5 475.5,-75.5 475.5,-56.5 362.5,-56.5"/>
<text text-anchor="middle" x="419" y="-63.5" font-family="Helvetica,sans-Serif" font-size="10.00">util/logging/Logger.h</text>
</a>
</g>
</g>
<!-- Node10&#45;&gt;Node16 -->
<g id="edge18" class="edge"><title>Node10&#45;&gt;Node16</title>
<path fill="none" stroke="midnightblue" d="M520.221,-123.234C500.485,-112.269 466.486,-93.3809 443.389,-80.5495"/>
<polygon fill="midnightblue" stroke="midnightblue" points="444.97,-77.4242 434.529,-75.6273 441.571,-83.5433 444.97,-77.4242"/>
</g>
<!-- Node12&#45;&gt;Node2 -->
<g id="edge12" class="edge"><title>Node12&#45;&gt;Node2</title>
<path fill="none" stroke="midnightblue" d="M1093.57,-75.5648C1085.69,-101.738 1058.28,-181.289 1006,-221 969.466,-248.751 917.311,-259.437 880.223,-263.525"/>
<polygon fill="midnightblue" stroke="midnightblue" points="879.798,-260.05 870.188,-264.512 880.483,-267.016 879.798,-260.05"/>
</g>
<!-- Node12&#45;&gt;Node7 -->
<g id="edge13" class="edge"><title>Node12&#45;&gt;Node7</title>
<path fill="none" stroke="midnightblue" d="M1079.29,-56.324C1062.69,-47.7034 1037,-34.3643 1017.78,-24.3855"/>
<polygon fill="midnightblue" stroke="midnightblue" points="1019.16,-21.1565 1008.67,-19.6545 1015.93,-27.3689 1019.16,-21.1565"/>
</g>
<!-- Node12&#45;&gt;Node8 -->
<g id="edge15" class="edge"><title>Node12&#45;&gt;Node8</title>
<path fill="none" stroke="midnightblue" d="M1111.58,-56.324C1127,-47.7428 1150.81,-34.486 1168.71,-24.5224"/>
<polygon fill="midnightblue" stroke="midnightblue" points="1170.42,-27.5767 1177.45,-19.6545 1167.01,-21.4606 1170.42,-27.5767"/>
</g>
<!-- Node13 -->
<g id="node13" class="node"><title>Node13</title>
<polygon fill="white" stroke="#bfbfbf" points="1322,-0.5 1322,-19.5 1360,-19.5 1360,-0.5 1322,-0.5"/>
<text text-anchor="middle" x="1341" y="-7.5" font-family="Helvetica,sans-Serif" font-size="10.00">map</text>
</g>
<!-- Node12&#45;&gt;Node13 -->
<g id="edge14" class="edge"><title>Node12&#45;&gt;Node13</title>
<path fill="none" stroke="midnightblue" d="M1134.82,-56.4435C1184.16,-45.5684 1268.2,-27.0463 1312.2,-17.3481"/>
<polygon fill="midnightblue" stroke="midnightblue" points="1312.96,-20.7647 1321.97,-15.1943 1311.45,-13.9288 1312.96,-20.7647"/>
</g>
<!-- Node14 -->
<g id="node14" class="node"><title>Node14</title>
<polygon fill="white" stroke="#bfbfbf" points="1111,-0.5 1111,-19.5 1153,-19.5 1153,-0.5 1111,-0.5"/>
<text text-anchor="middle" x="1132" y="-7.5" font-family="Helvetica,sans-Serif" font-size="10.00">utility</text>
</g>
<!-- Node12&#45;&gt;Node14 -->
<g id="edge16" class="edge"><title>Node12&#45;&gt;Node14</title>
<path fill="none" stroke="midnightblue" d="M1101.94,-56.083C1106.98,-48.5341 1114.34,-37.4948 1120.51,-28.2298"/>
<polygon fill="midnightblue" stroke="midnightblue" points="1123.53,-30.0131 1126.17,-19.7511 1117.71,-26.1301 1123.53,-30.0131"/>
</g>
<!-- Node15 -->
<g id="node15" class="node"><title>Node15</title>
<polygon fill="white" stroke="#bfbfbf" points="1045.5,-0.5 1045.5,-19.5 1092.5,-19.5 1092.5,-0.5 1045.5,-0.5"/>
<text text-anchor="middle" x="1069" y="-7.5" font-family="Helvetica,sans-Serif" font-size="10.00">vector</text>
</g>
<!-- Node12&#45;&gt;Node15 -->
<g id="edge17" class="edge"><title>Node12&#45;&gt;Node15</title>
<path fill="none" stroke="midnightblue" d="M1091.54,-56.083C1087.85,-48.6913 1082.48,-37.9533 1077.91,-28.8111"/>
<polygon fill="midnightblue" stroke="midnightblue" points="1080.98,-27.1301 1073.38,-19.7511 1074.72,-30.2606 1080.98,-27.1301"/>
</g>
<!-- Node16&#45;&gt;Node11 -->
<g id="edge19" class="edge"><title>Node16&#45;&gt;Node11</title>
<path fill="none" stroke="midnightblue" d="M475.709,-58.266C535.718,-50.7073 633.022,-37.2158 716,-20 716.101,-19.9791 716.202,-19.958 716.303,-19.9369"/>
<polygon fill="midnightblue" stroke="midnightblue" points="716.973,-23.3743 725.931,-17.7164 715.4,-16.5534 716.973,-23.3743"/>
</g>
<!-- Node17 -->
<g id="node17" class="node"><title>Node17</title>
<polygon fill="white" stroke="#bfbfbf" points="19,-0.5 19,-19.5 173,-19.5 173,-0.5 19,-0.5"/>
<text text-anchor="middle" x="96" y="-7.5" font-family="Helvetica,sans-Serif" font-size="10.00">carl/io/streamingOperators.h</text>
</g>
<!-- Node16&#45;&gt;Node17 -->
<g id="edge20" class="edge"><title>Node16&#45;&gt;Node17</title>
<path fill="none" stroke="midnightblue" d="M367.82,-56.4435C310.528,-46.8654 217.756,-31.3556 156.812,-21.1667"/>
<polygon fill="midnightblue" stroke="midnightblue" points="157.381,-17.7134 146.941,-19.5164 156.227,-24.6175 157.381,-17.7134"/>
</g>
<!-- Node18 -->
<g id="node18" class="node"><title>Node18</title>
<polygon fill="white" stroke="#bfbfbf" points="191.5,-0.5 191.5,-19.5 250.5,-19.5 250.5,-0.5 191.5,-0.5"/>
<text text-anchor="middle" x="221" y="-7.5" font-family="Helvetica,sans-Serif" font-size="10.00">iostream</text>
</g>
<!-- Node16&#45;&gt;Node18 -->
<g id="edge21" class="edge"><title>Node16&#45;&gt;Node18</title>
<path fill="none" stroke="midnightblue" d="M387.626,-56.4435C353.239,-47.0652 298,-32.0001 260.641,-21.8112"/>
<polygon fill="midnightblue" stroke="midnightblue" points="261.179,-18.33 250.61,-19.0755 259.337,-25.0834 261.179,-18.33"/>
</g>
<!-- Node19 -->
<g id="node19" class="node"><title>Node19</title>
<polygon fill="white" stroke="#bfbfbf" points="269,-0.5 269,-19.5 325,-19.5 325,-0.5 269,-0.5"/>
<text text-anchor="middle" x="297" y="-7.5" font-family="Helvetica,sans-Serif" font-size="10.00">sstream</text>
</g>
<!-- Node16&#45;&gt;Node19 -->
<g id="edge22" class="edge"><title>Node16&#45;&gt;Node19</title>
<path fill="none" stroke="midnightblue" d="M399.669,-56.4435C379.68,-47.5961 348.257,-33.6875 325.436,-23.5865"/>
<polygon fill="midnightblue" stroke="midnightblue" points="326.802,-20.3635 316.241,-19.5164 323.968,-26.7645 326.802,-20.3635"/>
</g>
<!-- Node20 -->
<g id="node20" class="node"><title>Node20</title>
<polygon fill="white" stroke="#bfbfbf" points="343,-0.5 343,-19.5 391,-19.5 391,-0.5 343,-0.5"/>
<text text-anchor="middle" x="367" y="-7.5" font-family="Helvetica,sans-Serif" font-size="10.00">thread</text>
</g>
<!-- Node16&#45;&gt;Node20 -->
<g id="edge23" class="edge"><title>Node16&#45;&gt;Node20</title>
<path fill="none" stroke="midnightblue" d="M410.413,-56.083C402.841,-48.2195 391.622,-36.5688 382.486,-27.0813"/>
<polygon fill="midnightblue" stroke="midnightblue" points="384.885,-24.5266 375.427,-19.7511 379.842,-29.3821 384.885,-24.5266"/>
</g>
<!-- Node21 -->
<g id="node21" class="node"><title>Node21</title>
<polygon fill="white" stroke="#bfbfbf" points="409.5,-0.5 409.5,-19.5 534.5,-19.5 534.5,-0.5 409.5,-0.5"/>
<text text-anchor="middle" x="472" y="-7.5" font-family="Helvetica,sans-Serif" font-size="10.00">carl/core/carlLogging.h</text>
</g>
<!-- Node16&#45;&gt;Node21 -->
<g id="edge24" class="edge"><title>Node16&#45;&gt;Node21</title>
<path fill="none" stroke="midnightblue" d="M427.752,-56.083C435.47,-48.2195 446.905,-36.5688 456.217,-27.0813"/>
<polygon fill="midnightblue" stroke="midnightblue" points="458.904,-29.3396 463.411,-19.7511 453.908,-24.4363 458.904,-29.3396"/>
</g>
<!-- Node22 -->
<g id="node22" class="node"><title>Node22</title>
<polygon fill="white" stroke="#bfbfbf" points="552.5,-0.5 552.5,-19.5 707.5,-19.5 707.5,-0.5 552.5,-0.5"/>
<text text-anchor="middle" x="630" y="-7.5" font-family="Helvetica,sans-Serif" font-size="10.00">carl/core/carlLoggingHelper.h</text>
</g>
<!-- Node16&#45;&gt;Node22 -->
<g id="edge25" class="edge"><title>Node16&#45;&gt;Node22</title>
<path fill="none" stroke="midnightblue" d="M452.434,-56.4435C488.856,-47.1221 547.23,-32.1828 587.029,-21.9972"/>
<polygon fill="midnightblue" stroke="midnightblue" points="587.903,-25.3866 596.723,-19.5164 586.167,-18.6051 587.903,-25.3866"/>
</g>
<!-- Node29 -->
<g id="node29" class="node"><title>Node29</title>
<polygon fill="white" stroke="#bfbfbf" points="1308.5,-56.5 1308.5,-75.5 1403.5,-75.5 1403.5,-56.5 1308.5,-56.5"/>
<text text-anchor="middle" x="1356" y="-63.5" font-family="Helvetica,sans-Serif" font-size="10.00">antlr4&#45;runtime.h</text>
</g>
<!-- Node28&#45;&gt;Node29 -->
<g id="edge36" class="edge"><title>Node28&#45;&gt;Node29</title>
<path fill="none" stroke="midnightblue" d="M1306.12,-257.387C1288.46,-250.587 1267.55,-239.15 1257,-221 1250.08,-209.088 1252.42,-202.994 1257,-190 1272.98,-144.672 1313.51,-103.739 1337.46,-82.4413"/>
<polygon fill="midnightblue" stroke="midnightblue" points="1339.91,-84.9473 1345.18,-75.7521 1335.33,-79.6584 1339.91,-84.9473"/>
</g>
<!-- Node30 -->
<g id="node30" class="node"><title>Node30</title>
<g id="a_node30"><a xlink:href="HybridAutomatonVisitor_8h.html" target="_top" xlink:title="HybridAutomatonVisitor.h">
<polygon fill="white" stroke="black" points="1266,-196 1266,-215 1406,-215 1406,-196 1266,-196"/>
<text text-anchor="middle" x="1336" y="-203" font-family="Helvetica,sans-Serif" font-size="10.00">HybridAutomatonVisitor.h</text>
</a>
</g>
</g>
<!-- Node28&#45;&gt;Node30 -->
<g id="edge37" class="edge"><title>Node28&#45;&gt;Node30</title>
<path fill="none" stroke="midnightblue" d="M1336,-257.475C1336,-249.08 1336,-235.981 1336,-225.163"/>
<polygon fill="midnightblue" stroke="midnightblue" points="1339.5,-225.009 1336,-215.009 1332.5,-225.009 1339.5,-225.009"/>
</g>
<!-- Node30&#45;&gt;Node29 -->
<g id="edge38" class="edge"><title>Node30&#45;&gt;Node29</title>
<path fill="none" stroke="midnightblue" d="M1337.25,-195.899C1340.44,-174.003 1348.91,-115.761 1353.29,-85.6338"/>
<polygon fill="midnightblue" stroke="midnightblue" points="1356.77,-85.9977 1354.75,-75.598 1349.85,-84.99 1356.77,-85.9977"/>
</g>
<!-- Node30&#45;&gt;Node31 -->
<g id="edge39" class="edge"><title>Node30&#45;&gt;Node31</title>
<path fill="none" stroke="midnightblue" d="M1352.4,-195.996C1375.79,-183.875 1418.92,-161.518 1446.49,-147.224"/>
<polygon fill="midnightblue" stroke="midnightblue" points="1448.27,-150.244 1455.54,-142.534 1445.05,-144.029 1448.27,-150.244"/>
</g>
<!-- Node31&#45;&gt;Node13 -->
<g id="edge41" class="edge"><title>Node31&#45;&gt;Node13</title>
<path fill="none" stroke="midnightblue" d="M1466.52,-123.241C1456.83,-108.23 1435.47,-77.163 1412,-56 1398.31,-43.6548 1380.84,-32.5356 1366.66,-24.4385"/>
<polygon fill="midnightblue" stroke="midnightblue" points="1368.33,-21.3619 1357.88,-19.5715 1364.93,-27.4831 1368.33,-21.3619"/>
</g>
<!-- Node31&#45;&gt;Node29 -->
<g id="edge40" class="edge"><title>Node31&#45;&gt;Node29</title>
<path fill="none" stroke="midnightblue" d="M1456.36,-123.234C1436.79,-112.269 1403.08,-93.3809 1380.18,-80.5495"/>
<polygon fill="midnightblue" stroke="midnightblue" points="1381.83,-77.4623 1371.4,-75.6273 1378.41,-83.569 1381.83,-77.4623"/>
</g>
<!-- Node31&#45;&gt;Node32 -->
<g id="edge42" class="edge"><title>Node31&#45;&gt;Node32</title>
<path fill="none" stroke="midnightblue" d="M1474.29,-123.234C1476.82,-113.585 1480.94,-97.8001 1484.19,-85.4063"/>
<polygon fill="midnightblue" stroke="midnightblue" points="1487.6,-86.1875 1486.74,-75.6273 1480.83,-84.4163 1487.6,-86.1875"/>
</g>
<!-- Node33&#45;&gt;Node29 -->
<g id="edge44" class="edge"><title>Node33&#45;&gt;Node29</title>
<path fill="none" stroke="midnightblue" d="M1463.52,-195.951C1441.71,-188.129 1412.21,-174.6 1393,-154 1374.84,-134.535 1364.84,-104.818 1359.95,-85.6498"/>
<polygon fill="midnightblue" stroke="midnightblue" points="1363.32,-84.6824 1357.64,-75.7398 1356.5,-86.2736 1363.32,-84.6824"/>
</g>
</g>
</svg>
        <g id="navigator" transform="translate(0 0)" fill="#404254">
                <rect fill="#f2f5e9" fill-opacity="0.5" stroke="#606060" stroke-width=".5" x="0" y="0" width="60" height="60"/>
                <use id="zoomplus" xlink:href="#zoomPlus" x="17" y="9" onmousedown="handleZoom(evt,'in')"/>
                <use id="zoomminus" xlink:href="#zoomMin" x="42" y="9" onmousedown="handleZoom(evt,'out')"/>
                <use id="reset" xlink:href="#resetDef" x="30" y="36" onmousedown="handleReset()"/>
                <g id="arrowUp" xlink:href="#dirArrow" transform="translate(30 24)" onmousedown="handlePan(0,-1)">
                  <use xlink:href="#rim" fill="#404040">
                        <set attributeName="fill" to="#808080" begin="arrowUp.mouseover" end="arrowUp.mouseout"/>
                  </use>
                  <path fill="none" stroke="white" stroke-width="1.5" d="M0,-3.0v7 M-2.5,-0.5L0,-3.0L2.5,-0.5"/>
                </g>
                <g id="arrowRight" xlink:href="#dirArrow" transform="rotate(90) translate(36 -43)" onmousedown="handlePan(1,0)">
                  <use xlink:href="#rim" fill="#404040">
                        <set attributeName="fill" to="#808080" begin="arrowRight.mouseover" end="arrowRight.mouseout"/>
                  </use>
                  <path fill="none" stroke="white" stroke-width="1.5" d="M0,-3.0v7 M-2.5,-0.5L0,-3.0L2.5,-0.5"/>
                </g>
                <g id="arrowDown" xlink:href="#dirArrow" transform="rotate(180) translate(-30 -48)" onmousedown="handlePan(0,1)">
                  <use xlink:href="#rim" fill="#404040">
                        <set attributeName="fill" to="#808080" begin="arrowDown.mouseover" end="arrowDown.mouseout"/>
                  </use>
                  <path fill="none" stroke="white" stroke-width="1.5" d="M0,-3.0v7 M-2.5,-0.5L0,-3.0L2.5,-0.5"/>
                </g>
                <g id="arrowLeft" xlink:href="#dirArrow" transform="rotate(270) translate(-36 17)" onmousedown="handlePan(-1,0)">
                  <use xlink:href="#rim" fill="#404040">
                        <set attributeName="fill" to="#808080" begin="arrowLeft.mouseover" end="arrowLeft.mouseout"/>
                  </use>
                  <path fill="none" stroke="white" stroke-width="1.5" d="M0,-3.0v7 M-2.5,-0.5L0,-3.0L2.5,-0.5"/>
                </g>
        </g>
        <svg viewBox="0 0 15 15" width="100%" height="30px" preserveAspectRatio="xMaxYMin meet">
         <g id="arrow_out" transform="scale(0.3 0.3)">
          <a xlink:href="HyproFormulaVisitor_8h__incl_org.svg" target="_base">
           <rect id="button" ry="5" rx="5" y="6" x="6" height="38" width="38"
                fill="#f2f5e9" fill-opacity="0.5" stroke="#606060" stroke-width="1.0"/>
           <path id="arrow"
             d="M 11.500037,31.436501 C 11.940474,20.09759 22.043105,11.32322 32.158766,21.979434 L 37.068811,17.246167 C 37.068811,17.246167 37.088388,32 37.088388,32 L 22.160133,31.978069 C 22.160133,31.978069 26.997745,27.140456 26.997745,27.140456 C 18.528582,18.264221 13.291696,25.230495 11.500037,31.436501 z"
             style="fill:#404040;"/>
          </a>
         </g>
        </svg>
</svg>
