<?xml version="1.0" encoding="UTF-8" standalone="no"?>
<!DOCTYPE svg PUBLIC "-//W3C//DTD SVG 1.1//EN"
 "http://www.w3.org/Graphics/SVG/1.1/DTD/svg11.dtd">
<!-- Generated by graphviz version 2.38.0 (20140413.2041)
 -->
<!-- Title: /home/travis/build/hypro/hypro/src/hypro/parser/antlr4&#45;flowstar/HyproSettingVisitor.h Pages: 1 -->
<!--zoomable 441 -->
<svg id="main" version="1.1" xmlns="http://www.w3.org/2000/svg" xmlns:xlink="http://www.w3.org/1999/xlink" xml:space="preserve" onload="init(evt)">
<style type="text/css"><![CDATA[
.edge:hover path { stroke: red; }
.edge:hover polygon { stroke: red; fill: red; }
]]></style>
<script type="text/javascript"><![CDATA[
var edges = document.getElementsByTagName('g');
if (edges && edges.length) {
  for (var i=0;i<edges.length;i++) {
    if (edges[i].id.substr(0,4)=='edge') {
      edges[i].setAttribute('class','edge');
    }
  }
}
]]></script>
        <defs>
                <circle id="rim" cx="0" cy="0" r="7"/>
                <circle id="rim2" cx="0" cy="0" r="3.5"/>
                <g id="zoomPlus">
                        <use xlink:href="#rim" fill="#404040">
                                <set attributeName="fill" to="#808080" begin="zoomplus.mouseover" end="zoomplus.mouseout"/>
                        </use>
                        <path d="M-4,0h8M0,-4v8" fill="none" stroke="white" stroke-width="1.5" pointer-events="none"/>
                </g>
                <g id="zoomMin">
                        <use xlink:href="#rim" fill="#404040">
                                <set attributeName="fill" to="#808080" begin="zoomminus.mouseover" end="zoomminus.mouseout"/>
                        </use>
                        <path d="M-4,0h8" fill="none" stroke="white" stroke-width="1.5" pointer-events="none"/>
                </g>
                <g id="dirArrow">
                        <path fill="none" stroke="white" stroke-width="1.5" d="M0,-3.0v7 M-2.5,-0.5L0,-3.0L2.5,-0.5"/>
                </g>
               <g id="resetDef">
                       <use xlink:href="#rim2" fill="#404040">
                               <set attributeName="fill" to="#808080" begin="reset.mouseover" end="reset.mouseout"/>
                       </use>
               </g>
        </defs>

<script type="text/javascript">
var viewWidth = 1805;
var viewHeight = 441;
var sectionId = 'dynsection-0';
</script>
<script xlink:href="svgpan.js"/>
<svg id="graph" class="graph">
<g id="viewport">
<title>/home/travis/build/hypro/hypro/src/hypro/parser/antlr4&#45;flowstar/HyproSettingVisitor.h</title>
<polygon fill="white" stroke="none" points="-4,4 -4,-437 1801,-437 1801,4 -4,4"/>
<!-- Node1 -->
<g id="node1" class="node"><title>Node1</title>
<polygon fill="#bfbfbf" stroke="black" points="937,-380.5 937,-432.5 1061,-432.5 1061,-380.5 937,-380.5"/>
<text text-anchor="start" x="945" y="-420.5" font-family="Helvetica,sans-Serif" font-size="10.00">/home/travis/build</text>
<text text-anchor="start" x="945" y="-409.5" font-family="Helvetica,sans-Serif" font-size="10.00">/hypro/hypro/src/hypro</text>
<text text-anchor="start" x="945" y="-398.5" font-family="Helvetica,sans-Serif" font-size="10.00">/parser/antlr4&#45;flowstar</text>
<text text-anchor="middle" x="999" y="-387.5" font-family="Helvetica,sans-Serif" font-size="10.00">/HyproSettingVisitor.h</text>
</g>
<!-- Node2 -->
<g id="node2" class="node"><title>Node2</title>
<g id="a_node2"><a xlink:href="types_8h.html" target="_top" xlink:title="../../types.h">
<polygon fill="white" stroke="black" points="1189,-257.5 1189,-276.5 1259,-276.5 1259,-257.5 1189,-257.5"/>
<text text-anchor="middle" x="1224" y="-264.5" font-family="Helvetica,sans-Serif" font-size="10.00">../../types.h</text>
</a>
</g>
</g>
<!-- Node1&#45;&gt;Node2 -->
<g id="edge1" class="edge"><title>Node1&#45;&gt;Node2</title>
<path fill="none" stroke="midnightblue" d="M1040.01,-380.44C1087.21,-351.591 1163.1,-305.217 1200.96,-282.078"/>
<polygon fill="midnightblue" stroke="midnightblue" points="1203.02,-284.922 1209.73,-276.721 1199.37,-278.949 1203.02,-284.922"/>
</g>
<!-- Node28 -->
<g id="node28" class="node"><title>Node28</title>
<g id="a_node28"><a xlink:href="HybridAutomatonLexer_8h.html" target="_top" xlink:title="HybridAutomatonLexer.h">
<polygon fill="white" stroke="black" points="494,-257.5 494,-276.5 630,-276.5 630,-257.5 494,-257.5"/>
<text text-anchor="middle" x="562" y="-264.5" font-family="Helvetica,sans-Serif" font-size="10.00">HybridAutomatonLexer.h</text>
</a>
</g>
</g>
<!-- Node1&#45;&gt;Node28 -->
<g id="edge35" class="edge"><title>Node1&#45;&gt;Node28</title>
<path fill="none" stroke="midnightblue" d="M936.853,-385.946C844.58,-356.912 674.186,-303.299 599.139,-279.686"/>
<polygon fill="midnightblue" stroke="midnightblue" points="599.79,-276.221 589.201,-276.559 597.689,-282.899 599.79,-276.221"/>
</g>
<!-- Node30 -->
<g id="node30" class="node"><title>Node30</title>
<g id="a_node30"><a xlink:href="HybridAutomatonParser_8h.html" target="_top" xlink:title="HybridAutomatonParser.h">
<polygon fill="white" stroke="black" points="457,-123.5 457,-142.5 597,-142.5 597,-123.5 457,-123.5"/>
<text text-anchor="middle" x="527" y="-130.5" font-family="Helvetica,sans-Serif" font-size="10.00">HybridAutomatonParser.h</text>
</a>
</g>
</g>
<!-- Node1&#45;&gt;Node30 -->
<g id="edge37" class="edge"><title>Node1&#45;&gt;Node30</title>
<path fill="none" stroke="midnightblue" d="M936.901,-399.582C812.292,-386.263 539.039,-349.293 485,-277 455.924,-238.102 492.058,-179.376 513.413,-150.804"/>
<polygon fill="midnightblue" stroke="midnightblue" points="516.371,-152.7 519.726,-142.65 510.836,-148.415 516.371,-152.7"/>
</g>
<!-- Node32 -->
<g id="node32" class="node"><title>Node32</title>
<g id="a_node32"><a xlink:href="HybridAutomatonBaseVisitor_8h.html" target="_top" xlink:title="HybridAutomatonBaseVisitor.h">
<polygon fill="white" stroke="black" points="261,-257.5 261,-276.5 425,-276.5 425,-257.5 261,-257.5"/>
<text text-anchor="middle" x="343" y="-264.5" font-family="Helvetica,sans-Serif" font-size="10.00">HybridAutomatonBaseVisitor.h</text>
</a>
</g>
</g>
<!-- Node1&#45;&gt;Node32 -->
<g id="edge41" class="edge"><title>Node1&#45;&gt;Node32</title>
<path fill="none" stroke="midnightblue" d="M936.91,-402.365C813.021,-395.485 539.523,-376.986 452,-344 415.545,-330.261 379.754,-301.576 359.614,-283.642"/>
<polygon fill="midnightblue" stroke="midnightblue" points="361.734,-280.839 351.985,-276.69 357.019,-286.013 361.734,-280.839"/>
</g>
<!-- Node34 -->
<g id="node34" class="node"><title>Node34</title>
<g id="a_node34"><a xlink:href="HyproFormulaVisitor_8h.html" target="_top" xlink:title="HyproFormulaVisitor.h">
<polygon fill="white" stroke="black" points="868,-319 868,-338 990,-338 990,-319 868,-319"/>
<text text-anchor="middle" x="929" y="-326" font-family="Helvetica,sans-Serif" font-size="10.00">HyproFormulaVisitor.h</text>
</a>
</g>
</g>
<!-- Node1&#45;&gt;Node34 -->
<g id="edge46" class="edge"><title>Node1&#45;&gt;Node34</title>
<path fill="none" stroke="midnightblue" d="M975.691,-380.193C965.251,-368.858 953.243,-355.821 944.019,-345.806"/>
<polygon fill="midnightblue" stroke="midnightblue" points="946.371,-343.193 937.021,-338.209 941.222,-347.936 946.371,-343.193"/>
</g>
<!-- Node39 -->
<g id="node39" class="node"><title>Node39</title>
<g id="a_node39"><a xlink:href="Settings_8h.html" target="_top" xlink:title="../../datastructures\l/reachability/Settings.h">
<polygon fill="white" stroke="black" points="1161,-313.5 1161,-343.5 1287,-343.5 1287,-313.5 1161,-313.5"/>
<text text-anchor="start" x="1169" y="-331.5" font-family="Helvetica,sans-Serif" font-size="10.00">../../datastructures</text>
<text text-anchor="middle" x="1224" y="-320.5" font-family="Helvetica,sans-Serif" font-size="10.00">/reachability/Settings.h</text>
</a>
</g>
</g>
<!-- Node1&#45;&gt;Node39 -->
<g id="edge57" class="edge"><title>Node1&#45;&gt;Node39</title>
<path fill="none" stroke="midnightblue" d="M1061.08,-384.531C1096.24,-372.655 1139.69,-357.979 1172.87,-346.771"/>
<polygon fill="midnightblue" stroke="midnightblue" points="1174.02,-350.075 1182.38,-343.559 1171.78,-343.443 1174.02,-350.075"/>
</g>
<!-- Node40 -->
<g id="node40" class="node"><title>Node40</title>
<polygon fill="white" stroke="#bfbfbf" points="1305.5,-319 1305.5,-338 1356.5,-338 1356.5,-319 1305.5,-319"/>
<text text-anchor="middle" x="1331" y="-326" font-family="Helvetica,sans-Serif" font-size="10.00">math.h</text>
</g>
<!-- Node1&#45;&gt;Node40 -->
<g id="edge62" class="edge"><title>Node1&#45;&gt;Node40</title>
<path fill="none" stroke="midnightblue" d="M1061,-396.166C1121.69,-386.214 1216.36,-368.504 1296,-344 1298.15,-343.34 1300.34,-342.598 1302.53,-341.808"/>
<polygon fill="midnightblue" stroke="midnightblue" points="1303.93,-345.022 1311.98,-338.141 1301.39,-338.497 1303.93,-345.022"/>
</g>
<!-- Node41 -->
<g id="node41" class="node"><title>Node41</title>
<polygon fill="white" stroke="#bfbfbf" points="1375,-319 1375,-338 1503,-338 1503,-319 1375,-319"/>
<text text-anchor="middle" x="1439" y="-326" font-family="Helvetica,sans-Serif" font-size="10.00">HyproSettingVisitor.tpp</text>
</g>
<!-- Node1&#45;&gt;Node41 -->
<g id="edge63" class="edge"><title>Node1&#45;&gt;Node41</title>
<path fill="none" stroke="midnightblue" d="M1061.26,-395.564C1134.16,-383.808 1258.5,-363.378 1365,-344 1371.84,-342.756 1379.02,-341.405 1386.11,-340.044"/>
<polygon fill="midnightblue" stroke="midnightblue" points="1387.23,-343.392 1396.38,-338.055 1385.9,-336.519 1387.23,-343.392"/>
</g>
<!-- Node3 -->
<g id="node3" class="node"><title>Node3</title>
<polygon fill="white" stroke="#bfbfbf" points="1559,-123.5 1559,-142.5 1693,-142.5 1693,-123.5 1559,-123.5"/>
<text text-anchor="middle" x="1626" y="-130.5" font-family="Helvetica,sans-Serif" font-size="10.00">carl/numbers/numbers.h</text>
</g>
<!-- Node2&#45;&gt;Node3 -->
<g id="edge2" class="edge"><title>Node2&#45;&gt;Node3</title>
<path fill="none" stroke="midnightblue" d="M1259.18,-264.029C1331.84,-259.483 1495.78,-246.638 1545,-221 1576.13,-204.787 1601.64,-171.72 1615.27,-151.347"/>
<polygon fill="midnightblue" stroke="midnightblue" points="1618.34,-153.041 1620.82,-142.741 1612.46,-149.246 1618.34,-153.041"/>
</g>
<!-- Node4 -->
<g id="node4" class="node"><title>Node4</title>
<polygon fill="white" stroke="#bfbfbf" points="686,-196 686,-215 772,-215 772,-196 686,-196"/>
<text text-anchor="middle" x="729" y="-203" font-family="Helvetica,sans-Serif" font-size="10.00">carl/util/hash.h</text>
</g>
<!-- Node2&#45;&gt;Node4 -->
<g id="edge3" class="edge"><title>Node2&#45;&gt;Node4</title>
<path fill="none" stroke="midnightblue" d="M1188.69,-258.566C1185.42,-257.99 1182.15,-257.457 1179,-257 1003.22,-231.547 955.707,-252.985 781,-221 776.128,-220.108 771.052,-218.967 766.064,-217.717"/>
<polygon fill="midnightblue" stroke="midnightblue" points="766.605,-214.238 756.04,-215.043 764.801,-221.002 766.605,-214.238"/>
</g>
<!-- Node5 -->
<g id="node5" class="node"><title>Node5</title>
<polygon fill="white" stroke="#bfbfbf" points="790,-196 790,-215 894,-215 894,-196 790,-196"/>
<text text-anchor="middle" x="842" y="-203" font-family="Helvetica,sans-Serif" font-size="10.00">eigen3/Eigen/Core</text>
</g>
<!-- Node2&#45;&gt;Node5 -->
<g id="edge4" class="edge"><title>Node2&#45;&gt;Node5</title>
<path fill="none" stroke="midnightblue" d="M1188.67,-258.707C1185.4,-258.102 1182.14,-257.523 1179,-257 1059.14,-237.075 1027.66,-242.055 908,-221 901.631,-219.879 894.944,-218.569 888.372,-217.203"/>
<polygon fill="midnightblue" stroke="midnightblue" points="888.713,-213.696 878.202,-215.028 887.249,-220.542 888.713,-213.696"/>
</g>
<!-- Node6 -->
<g id="node6" class="node"><title>Node6</title>
<polygon fill="white" stroke="#bfbfbf" points="653,-123.5 653,-142.5 765,-142.5 765,-123.5 653,-123.5"/>
<text text-anchor="middle" x="709" y="-130.5" font-family="Helvetica,sans-Serif" font-size="10.00">eigen3/Eigen/Dense</text>
</g>
<!-- Node2&#45;&gt;Node6 -->
<g id="edge5" class="edge"><title>Node2&#45;&gt;Node6</title>
<path fill="none" stroke="midnightblue" d="M1192.99,-257.388C1140.33,-242.859 1029.97,-212.83 936,-190 864.329,-172.587 845.304,-172.86 774,-154 764.528,-151.495 754.367,-148.512 744.958,-145.625"/>
<polygon fill="midnightblue" stroke="midnightblue" points="745.702,-142.19 735.113,-142.556 743.619,-148.873 745.702,-142.19"/>
</g>
<!-- Node7 -->
<g id="node7" class="node"><title>Node7</title>
<polygon fill="white" stroke="#bfbfbf" points="1470,-0.5 1470,-19.5 1516,-19.5 1516,-0.5 1470,-0.5"/>
<text text-anchor="middle" x="1493" y="-7.5" font-family="Helvetica,sans-Serif" font-size="10.00">iosfwd</text>
</g>
<!-- Node2&#45;&gt;Node7 -->
<g id="edge6" class="edge"><title>Node2&#45;&gt;Node7</title>
<path fill="none" stroke="midnightblue" d="M1259.14,-263.912C1297.48,-260.188 1359.35,-249.827 1404,-221 1468.52,-179.345 1479.6,-150.564 1498,-76 1501.78,-60.7022 1499.97,-42.8196 1497.53,-29.6879"/>
<polygon fill="midnightblue" stroke="midnightblue" points="1500.87,-28.5962 1495.35,-19.5552 1494.03,-30.0674 1500.87,-28.5962"/>
</g>
<!-- Node8 -->
<g id="node8" class="node"><title>Node8</title>
<polygon fill="white" stroke="#bfbfbf" points="829,-0.5 829,-19.5 861,-19.5 861,-0.5 829,-0.5"/>
<text text-anchor="middle" x="845" y="-7.5" font-family="Helvetica,sans-Serif" font-size="10.00">set</text>
</g>
<!-- Node2&#45;&gt;Node8 -->
<g id="edge7" class="edge"><title>Node2&#45;&gt;Node8</title>
<path fill="none" stroke="midnightblue" d="M1188.66,-258.757C1185.4,-258.141 1182.14,-257.546 1179,-257 1071.44,-238.288 1034.28,-268.55 936,-221 917.886,-212.236 921.153,-198.683 903,-190 850.579,-164.927 682.156,-197.826 644,-154 631.743,-139.921 634.202,-127.889 644,-112 654.11,-95.6049 768.01,-44.4961 819.726,-21.9145"/>
<polygon fill="midnightblue" stroke="midnightblue" points="821.132,-25.1196 828.905,-17.9208 818.339,-18.7008 821.132,-25.1196"/>
</g>
<!-- Node9 -->
<g id="node9" class="node"><title>Node9</title>
<g id="a_node9"><a xlink:href="adaptions__eigen_8h.html" target="_top" xlink:title="util/adaptions_eigen\l/adaptions_eigen.h">
<polygon fill="white" stroke="black" points="1165.5,-190.5 1165.5,-220.5 1278.5,-220.5 1278.5,-190.5 1165.5,-190.5"/>
<text text-anchor="start" x="1173.5" y="-208.5" font-family="Helvetica,sans-Serif" font-size="10.00">util/adaptions_eigen</text>
<text text-anchor="middle" x="1222" y="-197.5" font-family="Helvetica,sans-Serif" font-size="10.00">/adaptions_eigen.h</text>
</a>
</g>
</g>
<!-- Node2&#45;&gt;Node9 -->
<g id="edge8" class="edge"><title>Node2&#45;&gt;Node9</title>
<path fill="none" stroke="midnightblue" d="M1218.81,-257.475C1217.05,-250.471 1216.12,-240.192 1216.17,-230.696"/>
<polygon fill="midnightblue" stroke="midnightblue" points="1219.67,-230.675 1216.64,-220.523 1212.68,-230.35 1219.67,-230.675"/>
</g>
<!-- Node9&#45;&gt;Node2 -->
<g id="edge26" class="edge"><title>Node9&#45;&gt;Node2</title>
<path fill="none" stroke="midnightblue" d="M1228.3,-220.523C1229.62,-228.586 1230.12,-238.813 1229.68,-247.526"/>
<polygon fill="midnightblue" stroke="midnightblue" points="1226.2,-247.16 1228.61,-257.475 1233.16,-247.904 1226.2,-247.16"/>
</g>
<!-- Node9&#45;&gt;Node3 -->
<g id="edge28" class="edge"><title>Node9&#45;&gt;Node3</title>
<path fill="none" stroke="midnightblue" d="M1278.6,-194.623C1354.77,-181.331 1489.62,-157.8 1567,-144.296"/>
<polygon fill="midnightblue" stroke="midnightblue" points="1567.81,-147.707 1577.06,-142.54 1566.61,-140.811 1567.81,-147.707"/>
</g>
<!-- Node9&#45;&gt;Node6 -->
<g id="edge29" class="edge"><title>Node9&#45;&gt;Node6</title>
<path fill="none" stroke="midnightblue" d="M1165.39,-199.446C1062.22,-190.014 847.465,-169.304 774,-154 763.684,-151.851 752.66,-148.77 742.677,-145.667"/>
<polygon fill="midnightblue" stroke="midnightblue" points="743.696,-142.318 733.104,-142.591 741.554,-148.983 743.696,-142.318"/>
</g>
<!-- Node9&#45;&gt;Node7 -->
<g id="edge32" class="edge"><title>Node9&#45;&gt;Node7</title>
<path fill="none" stroke="midnightblue" d="M1278.67,-197.127C1333.84,-188.914 1412.69,-174.099 1436,-154 1473.69,-121.499 1486.71,-60.6197 1491,-29.8419"/>
<polygon fill="midnightblue" stroke="midnightblue" points="1494.51,-29.994 1492.26,-19.6418 1487.56,-29.1404 1494.51,-29.994"/>
</g>
<!-- Node10 -->
<g id="node10" class="node"><title>Node10</title>
<g id="a_node10"><a xlink:href="config_8h.html" target="_top" xlink:title="../../config.h">
<polygon fill="white" stroke="black" points="783,-123.5 783,-142.5 855,-142.5 855,-123.5 783,-123.5"/>
<text text-anchor="middle" x="819" y="-130.5" font-family="Helvetica,sans-Serif" font-size="10.00">../../config.h</text>
</a>
</g>
</g>
<!-- Node9&#45;&gt;Node10 -->
<g id="edge9" class="edge"><title>Node9&#45;&gt;Node10</title>
<path fill="none" stroke="midnightblue" d="M1165.44,-198.462C1079.3,-188.936 919.36,-169.87 864,-154 857.528,-152.145 850.78,-149.538 844.537,-146.818"/>
<polygon fill="midnightblue" stroke="midnightblue" points="845.804,-143.548 835.257,-142.543 842.874,-149.906 845.804,-143.548"/>
</g>
<!-- Node23 -->
<g id="node23" class="node"><title>Node23</title>
<g id="a_node23"><a xlink:href="transformation_8h.html" target="_top" xlink:title="transformation.h">
<polygon fill="white" stroke="black" points="1173.5,-123.5 1173.5,-142.5 1270.5,-142.5 1270.5,-123.5 1173.5,-123.5"/>
<text text-anchor="middle" x="1222" y="-130.5" font-family="Helvetica,sans-Serif" font-size="10.00">transformation.h</text>
</a>
</g>
</g>
<!-- Node9&#45;&gt;Node23 -->
<g id="edge27" class="edge"><title>Node9&#45;&gt;Node23</title>
<path fill="none" stroke="midnightblue" d="M1222,-190.233C1222,-179.501 1222,-164.687 1222,-152.959"/>
<polygon fill="midnightblue" stroke="midnightblue" points="1225.5,-152.893 1222,-142.893 1218.5,-152.893 1225.5,-152.893"/>
</g>
<!-- Node24 -->
<g id="node24" class="node"><title>Node24</title>
<polygon fill="white" stroke="#bfbfbf" points="1289,-123.5 1289,-142.5 1427,-142.5 1427,-123.5 1289,-123.5"/>
<text text-anchor="middle" x="1358" y="-130.5" font-family="Helvetica,sans-Serif" font-size="10.00">eigen3/Eigen/Eigenvalues</text>
</g>
<!-- Node9&#45;&gt;Node24 -->
<g id="edge30" class="edge"><title>Node9&#45;&gt;Node24</title>
<path fill="none" stroke="midnightblue" d="M1249.19,-190.403C1273.45,-177.83 1308.69,-159.56 1332.44,-147.251"/>
<polygon fill="midnightblue" stroke="midnightblue" points="1334.27,-150.243 1341.54,-142.534 1331.05,-144.029 1334.27,-150.243"/>
</g>
<!-- Node25 -->
<g id="node25" class="node"><title>Node25</title>
<polygon fill="white" stroke="#bfbfbf" points="873.5,-123.5 873.5,-142.5 936.5,-142.5 936.5,-123.5 873.5,-123.5"/>
<text text-anchor="middle" x="905" y="-130.5" font-family="Helvetica,sans-Serif" font-size="10.00">functional</text>
</g>
<!-- Node9&#45;&gt;Node25 -->
<g id="edge31" class="edge"><title>Node9&#45;&gt;Node25</title>
<path fill="none" stroke="midnightblue" d="M1165.38,-198.72C1108.79,-191.885 1019.81,-178.249 946,-154 940.451,-152.177 934.696,-149.745 929.315,-147.205"/>
<polygon fill="midnightblue" stroke="midnightblue" points="930.667,-143.968 920.157,-142.627 927.537,-150.229 930.667,-143.968"/>
</g>
<!-- Node26 -->
<g id="node26" class="node"><title>Node26</title>
<polygon fill="white" stroke="#bfbfbf" points="955,-123.5 955,-142.5 997,-142.5 997,-123.5 955,-123.5"/>
<text text-anchor="middle" x="976" y="-130.5" font-family="Helvetica,sans-Serif" font-size="10.00">limits</text>
</g>
<!-- Node9&#45;&gt;Node26 -->
<g id="edge33" class="edge"><title>Node9&#45;&gt;Node26</title>
<path fill="none" stroke="midnightblue" d="M1165.21,-196.922C1120.59,-189.635 1057.59,-176.352 1006,-154 1002.4,-152.44 998.763,-150.445 995.325,-148.321"/>
<polygon fill="midnightblue" stroke="midnightblue" points="997.095,-145.293 986.846,-142.61 993.184,-151.099 997.095,-145.293"/>
</g>
<!-- Node27 -->
<g id="node27" class="node"><title>Node27</title>
<polygon fill="white" stroke="#bfbfbf" points="1015,-112.5 1015,-153.5 1155,-153.5 1155,-112.5 1015,-112.5"/>
<text text-anchor="start" x="1023" y="-141.5" font-family="Helvetica,sans-Serif" font-size="10.00">eigen3/unsupported</text>
<text text-anchor="start" x="1023" y="-130.5" font-family="Helvetica,sans-Serif" font-size="10.00">/Eigen/src/MatrixFunctions</text>
<text text-anchor="middle" x="1085" y="-119.5" font-family="Helvetica,sans-Serif" font-size="10.00">/MatrixExponential.h</text>
</g>
<!-- Node9&#45;&gt;Node27 -->
<g id="edge34" class="edge"><title>Node9&#45;&gt;Node27</title>
<path fill="none" stroke="midnightblue" d="M1194.61,-190.403C1176.72,-181.197 1152.89,-168.937 1132.02,-158.199"/>
<polygon fill="midnightblue" stroke="midnightblue" points="1133.48,-155.01 1122.98,-153.546 1130.27,-161.234 1133.48,-155.01"/>
</g>
<!-- Node11 -->
<g id="node11" class="node"><title>Node11</title>
<g id="a_node11"><a xlink:href="flags_8h.html" target="_top" xlink:title="flags.h">
<polygon fill="white" stroke="black" points="707,-0.5 707,-19.5 755,-19.5 755,-0.5 707,-0.5"/>
<text text-anchor="middle" x="731" y="-7.5" font-family="Helvetica,sans-Serif" font-size="10.00">flags.h</text>
</a>
</g>
</g>
<!-- Node10&#45;&gt;Node11 -->
<g id="edge10" class="edge"><title>Node10&#45;&gt;Node11</title>
<path fill="none" stroke="midnightblue" d="M812.671,-123.298C798.147,-103.327 762.215,-53.9212 743.221,-27.8036"/>
<polygon fill="midnightblue" stroke="midnightblue" points="745.984,-25.6519 737.271,-19.6232 740.323,-29.7692 745.984,-25.6519"/>
</g>
<!-- Node12 -->
<g id="node12" class="node"><title>Node12</title>
<g id="a_node12"><a xlink:href="util_2convenienceOperators_8h.html" target="_top" xlink:title="util/convenienceOperators.h">
<polygon fill="white" stroke="black" points="824.5,-56.5 824.5,-75.5 975.5,-75.5 975.5,-56.5 824.5,-56.5"/>
<text text-anchor="middle" x="900" y="-63.5" font-family="Helvetica,sans-Serif" font-size="10.00">util/convenienceOperators.h</text>
</a>
</g>
</g>
<!-- Node10&#45;&gt;Node12 -->
<g id="edge11" class="edge"><title>Node10&#45;&gt;Node12</title>
<path fill="none" stroke="midnightblue" d="M829.924,-123.234C843.041,-112.708 865.258,-94.8793 881.161,-82.1174"/>
<polygon fill="midnightblue" stroke="midnightblue" points="883.64,-84.6158 889.249,-75.6273 879.259,-79.1563 883.64,-84.6158"/>
</g>
<!-- Node16 -->
<g id="node16" class="node"><title>Node16</title>
<g id="a_node16"><a xlink:href="Logger_8h.html" target="_top" xlink:title="util/logging/Logger.h">
<polygon fill="white" stroke="black" points="396.5,-56.5 396.5,-75.5 509.5,-75.5 509.5,-56.5 396.5,-56.5"/>
<text text-anchor="middle" x="453" y="-63.5" font-family="Helvetica,sans-Serif" font-size="10.00">util/logging/Logger.h</text>
</a>
</g>
</g>
<!-- Node10&#45;&gt;Node16 -->
<g id="edge18" class="edge"><title>Node10&#45;&gt;Node16</title>
<path fill="none" stroke="midnightblue" d="M802.744,-123.454C794.367,-119.394 783.863,-114.823 774,-112 727.659,-98.7372 599.597,-83.0739 519.936,-74.1618"/>
<polygon fill="midnightblue" stroke="midnightblue" points="519.836,-70.6292 509.51,-73.0031 519.062,-77.5864 519.836,-70.6292"/>
</g>
<!-- Node12&#45;&gt;Node2 -->
<g id="edge12" class="edge"><title>Node12&#45;&gt;Node2</title>
<path fill="none" stroke="midnightblue" d="M975.593,-67.8042C1115.97,-70.0878 1405.48,-78.8123 1436,-112 1495.6,-176.815 1343.88,-231.656 1266.32,-254.552"/>
<polygon fill="midnightblue" stroke="midnightblue" points="1264.98,-251.297 1256.35,-257.441 1266.93,-258.02 1264.98,-251.297"/>
</g>
<!-- Node12&#45;&gt;Node7 -->
<g id="edge13" class="edge"><title>Node12&#45;&gt;Node7</title>
<path fill="none" stroke="midnightblue" d="M975.706,-58.106C1105.91,-46.2497 1367.15,-22.4603 1459.62,-14.0395"/>
<polygon fill="midnightblue" stroke="midnightblue" points="1460.15,-17.5057 1469.79,-13.1132 1459.52,-10.5346 1460.15,-17.5057"/>
</g>
<!-- Node12&#45;&gt;Node8 -->
<g id="edge15" class="edge"><title>Node12&#45;&gt;Node8</title>
<path fill="none" stroke="midnightblue" d="M890.918,-56.083C882.829,-48.1409 870.805,-36.3354 861.09,-26.7973"/>
<polygon fill="midnightblue" stroke="midnightblue" points="863.501,-24.2595 853.913,-19.7511 858.597,-29.2545 863.501,-24.2595"/>
</g>
<!-- Node13 -->
<g id="node13" class="node"><title>Node13</title>
<polygon fill="white" stroke="#bfbfbf" points="773,-0.5 773,-19.5 811,-19.5 811,-0.5 773,-0.5"/>
<text text-anchor="middle" x="792" y="-7.5" font-family="Helvetica,sans-Serif" font-size="10.00">map</text>
</g>
<!-- Node12&#45;&gt;Node13 -->
<g id="edge14" class="edge"><title>Node12&#45;&gt;Node13</title>
<path fill="none" stroke="midnightblue" d="M882.648,-56.324C865.328,-47.6641 838.485,-34.2424 818.498,-24.249"/>
<polygon fill="midnightblue" stroke="midnightblue" points="819.819,-20.9962 809.309,-19.6545 816.688,-27.2572 819.819,-20.9962"/>
</g>
<!-- Node14 -->
<g id="node14" class="node"><title>Node14</title>
<polygon fill="white" stroke="#bfbfbf" points="879,-0.5 879,-19.5 921,-19.5 921,-0.5 879,-0.5"/>
<text text-anchor="middle" x="900" y="-7.5" font-family="Helvetica,sans-Serif" font-size="10.00">utility</text>
</g>
<!-- Node12&#45;&gt;Node14 -->
<g id="edge16" class="edge"><title>Node12&#45;&gt;Node14</title>
<path fill="none" stroke="midnightblue" d="M900,-56.083C900,-49.0059 900,-38.8611 900,-29.9865"/>
<polygon fill="midnightblue" stroke="midnightblue" points="903.5,-29.751 900,-19.7511 896.5,-29.7511 903.5,-29.751"/>
</g>
<!-- Node15 -->
<g id="node15" class="node"><title>Node15</title>
<polygon fill="white" stroke="#bfbfbf" points="939.5,-0.5 939.5,-19.5 986.5,-19.5 986.5,-0.5 939.5,-0.5"/>
<text text-anchor="middle" x="963" y="-7.5" font-family="Helvetica,sans-Serif" font-size="10.00">vector</text>
</g>
<!-- Node12&#45;&gt;Node15 -->
<g id="edge17" class="edge"><title>Node12&#45;&gt;Node15</title>
<path fill="none" stroke="midnightblue" d="M910.122,-56.324C919.526,-48.2631 933.744,-36.0765 945.069,-26.3695"/>
<polygon fill="midnightblue" stroke="midnightblue" points="947.379,-28.9993 952.694,-19.8339 942.823,-23.6844 947.379,-28.9993"/>
</g>
<!-- Node16&#45;&gt;Node11 -->
<g id="edge19" class="edge"><title>Node16&#45;&gt;Node11</title>
<path fill="none" stroke="midnightblue" d="M505.592,-56.4952C555.167,-48.1963 631.43,-34.7022 697,-20 697.101,-19.9775 697.201,-19.9548 697.302,-19.9321"/>
<polygon fill="midnightblue" stroke="midnightblue" points="698.006,-23.3626 706.91,-17.6201 696.369,-16.5569 698.006,-23.3626"/>
</g>
<!-- Node17 -->
<g id="node17" class="node"><title>Node17</title>
<polygon fill="white" stroke="#bfbfbf" points="0,-0.5 0,-19.5 154,-19.5 154,-0.5 0,-0.5"/>
<text text-anchor="middle" x="77" y="-7.5" font-family="Helvetica,sans-Serif" font-size="10.00">carl/io/streamingOperators.h</text>
</g>
<!-- Node16&#45;&gt;Node17 -->
<g id="edge20" class="edge"><title>Node16&#45;&gt;Node17</title>
<path fill="none" stroke="midnightblue" d="M396.302,-56.8572C329.526,-47.267 218.607,-31.3372 146.658,-21.0041"/>
<polygon fill="midnightblue" stroke="midnightblue" points="146.732,-17.4788 136.336,-19.5216 145.736,-24.4077 146.732,-17.4788"/>
</g>
<!-- Node18 -->
<g id="node18" class="node"><title>Node18</title>
<polygon fill="white" stroke="#bfbfbf" points="172.5,-0.5 172.5,-19.5 231.5,-19.5 231.5,-0.5 172.5,-0.5"/>
<text text-anchor="middle" x="202" y="-7.5" font-family="Helvetica,sans-Serif" font-size="10.00">iostream</text>
</g>
<!-- Node16&#45;&gt;Node18 -->
<g id="edge21" class="edge"><title>Node16&#45;&gt;Node18</title>
<path fill="none" stroke="midnightblue" d="M411.518,-56.4205C370.835,-47.9559 306.782,-34.4954 241.809,-20.1493"/>
<polygon fill="midnightblue" stroke="midnightblue" points="242.318,-16.6775 231.798,-17.9335 240.805,-23.512 242.318,-16.6775"/>
</g>
<!-- Node19 -->
<g id="node19" class="node"><title>Node19</title>
<polygon fill="white" stroke="#bfbfbf" points="250,-0.5 250,-19.5 306,-19.5 306,-0.5 250,-0.5"/>
<text text-anchor="middle" x="278" y="-7.5" font-family="Helvetica,sans-Serif" font-size="10.00">sstream</text>
</g>
<!-- Node16&#45;&gt;Node19 -->
<g id="edge22" class="edge"><title>Node16&#45;&gt;Node19</title>
<path fill="none" stroke="midnightblue" d="M425.271,-56.4435C395.574,-47.2801 348.284,-32.6876 315.331,-22.5192"/>
<polygon fill="midnightblue" stroke="midnightblue" points="316.187,-19.1206 305.6,-19.5164 314.123,-25.8094 316.187,-19.1206"/>
</g>
<!-- Node20 -->
<g id="node20" class="node"><title>Node20</title>
<polygon fill="white" stroke="#bfbfbf" points="324,-0.5 324,-19.5 372,-19.5 372,-0.5 324,-0.5"/>
<text text-anchor="middle" x="348" y="-7.5" font-family="Helvetica,sans-Serif" font-size="10.00">thread</text>
</g>
<!-- Node16&#45;&gt;Node20 -->
<g id="edge23" class="edge"><title>Node16&#45;&gt;Node20</title>
<path fill="none" stroke="midnightblue" d="M436.13,-56.324C419.291,-47.6641 393.193,-34.2424 373.762,-24.249"/>
<polygon fill="midnightblue" stroke="midnightblue" points="375.322,-21.1155 364.828,-19.6545 372.12,-27.3405 375.322,-21.1155"/>
</g>
<!-- Node21 -->
<g id="node21" class="node"><title>Node21</title>
<polygon fill="white" stroke="#bfbfbf" points="390.5,-0.5 390.5,-19.5 515.5,-19.5 515.5,-0.5 390.5,-0.5"/>
<text text-anchor="middle" x="453" y="-7.5" font-family="Helvetica,sans-Serif" font-size="10.00">carl/core/carlLogging.h</text>
</g>
<!-- Node16&#45;&gt;Node21 -->
<g id="edge24" class="edge"><title>Node16&#45;&gt;Node21</title>
<path fill="none" stroke="midnightblue" d="M453,-56.083C453,-49.0059 453,-38.8611 453,-29.9865"/>
<polygon fill="midnightblue" stroke="midnightblue" points="456.5,-29.751 453,-19.7511 449.5,-29.7511 456.5,-29.751"/>
</g>
<!-- Node22 -->
<g id="node22" class="node"><title>Node22</title>
<polygon fill="white" stroke="#bfbfbf" points="533.5,-0.5 533.5,-19.5 688.5,-19.5 688.5,-0.5 533.5,-0.5"/>
<text text-anchor="middle" x="611" y="-7.5" font-family="Helvetica,sans-Serif" font-size="10.00">carl/core/carlLoggingHelper.h</text>
</g>
<!-- Node16&#45;&gt;Node22 -->
<g id="edge25" class="edge"><title>Node16&#45;&gt;Node22</title>
<path fill="none" stroke="midnightblue" d="M478.036,-56.4435C504.616,-47.3591 546.809,-32.9388 576.523,-22.7831"/>
<polygon fill="midnightblue" stroke="midnightblue" points="577.751,-26.0625 586.082,-19.5164 575.487,-19.4386 577.751,-26.0625"/>
</g>
<!-- Node29 -->
<g id="node29" class="node"><title>Node29</title>
<polygon fill="white" stroke="#bfbfbf" points="283.5,-56.5 283.5,-75.5 378.5,-75.5 378.5,-56.5 283.5,-56.5"/>
<text text-anchor="middle" x="331" y="-63.5" font-family="Helvetica,sans-Serif" font-size="10.00">antlr4&#45;runtime.h</text>
</g>
<!-- Node28&#45;&gt;Node29 -->
<g id="edge36" class="edge"><title>Node28&#45;&gt;Node29</title>
<path fill="none" stroke="midnightblue" d="M552.074,-257.449C516.385,-226.704 394.272,-121.507 348.507,-82.0822"/>
<polygon fill="midnightblue" stroke="midnightblue" points="350.75,-79.394 340.889,-75.5189 346.181,-84.6975 350.75,-79.394"/>
</g>
<!-- Node30&#45;&gt;Node13 -->
<g id="edge39" class="edge"><title>Node30&#45;&gt;Node13</title>
<path fill="none" stroke="midnightblue" d="M533.856,-123.415C547.032,-107.523 577.565,-73.5458 611,-56 670.078,-24.9975 694.475,-37.4371 762.835,-20.0582"/>
<polygon fill="midnightblue" stroke="midnightblue" points="764.024,-23.3635 772.781,-17.4004 762.217,-16.6008 764.024,-23.3635"/>
</g>
<!-- Node30&#45;&gt;Node29 -->
<g id="edge38" class="edge"><title>Node30&#45;&gt;Node29</title>
<path fill="none" stroke="midnightblue" d="M500.973,-123.369C466.465,-111.924 405.422,-91.6807 366.649,-78.8223"/>
<polygon fill="midnightblue" stroke="midnightblue" points="367.416,-75.3894 356.823,-75.5637 365.213,-82.0336 367.416,-75.3894"/>
</g>
<!-- Node31 -->
<g id="node31" class="node"><title>Node31</title>
<polygon fill="white" stroke="#bfbfbf" points="1699,-56.5 1699,-75.5 1743,-75.5 1743,-56.5 1699,-56.5"/>
<text text-anchor="middle" x="1721" y="-63.5" font-family="Helvetica,sans-Serif" font-size="10.00">string</text>
</g>
<!-- Node30&#45;&gt;Node31 -->
<g id="edge40" class="edge"><title>Node30&#45;&gt;Node31</title>
<path fill="none" stroke="midnightblue" d="M569.061,-123.474C591.255,-119.315 618.999,-114.648 644,-112 1054.9,-68.4757 1558.16,-66.5548 1688.81,-66.8496"/>
<polygon fill="midnightblue" stroke="midnightblue" points="1688.92,-70.3499 1698.93,-66.8789 1688.94,-63.3499 1688.92,-70.3499"/>
</g>
<!-- Node32&#45;&gt;Node29 -->
<g id="edge42" class="edge"><title>Node32&#45;&gt;Node29</title>
<path fill="none" stroke="midnightblue" d="M305.032,-257.411C285.592,-250.883 263.624,-239.715 252,-221 221.729,-172.261 280.56,-110.557 312.42,-82.341"/>
<polygon fill="midnightblue" stroke="midnightblue" points="314.939,-84.7903 320.232,-75.6121 310.371,-79.4866 314.939,-84.7903"/>
</g>
<!-- Node33 -->
<g id="node33" class="node"><title>Node33</title>
<g id="a_node33"><a xlink:href="HybridAutomatonVisitor_8h.html" target="_top" xlink:title="HybridAutomatonVisitor.h">
<polygon fill="white" stroke="black" points="261,-196 261,-215 401,-215 401,-196 261,-196"/>
<text text-anchor="middle" x="331" y="-203" font-family="Helvetica,sans-Serif" font-size="10.00">HybridAutomatonVisitor.h</text>
</a>
</g>
</g>
<!-- Node32&#45;&gt;Node33 -->
<g id="edge43" class="edge"><title>Node32&#45;&gt;Node33</title>
<path fill="none" stroke="midnightblue" d="M341.281,-257.475C339.57,-248.992 336.89,-235.704 334.695,-224.822"/>
<polygon fill="midnightblue" stroke="midnightblue" points="338.124,-224.12 332.716,-215.009 331.262,-225.504 338.124,-224.12"/>
</g>
<!-- Node33&#45;&gt;Node29 -->
<g id="edge44" class="edge"><title>Node33&#45;&gt;Node29</title>
<path fill="none" stroke="midnightblue" d="M331,-195.899C331,-174.003 331,-115.761 331,-85.6338"/>
<polygon fill="midnightblue" stroke="midnightblue" points="334.5,-85.598 331,-75.598 327.5,-85.598 334.5,-85.598"/>
</g>
<!-- Node33&#45;&gt;Node30 -->
<g id="edge45" class="edge"><title>Node33&#45;&gt;Node30</title>
<path fill="none" stroke="midnightblue" d="M354.642,-195.996C389.371,-183.504 454.323,-160.141 493.816,-145.936"/>
<polygon fill="midnightblue" stroke="midnightblue" points="495.049,-149.212 503.274,-142.534 492.68,-142.625 495.049,-149.212"/>
</g>
<!-- Node34&#45;&gt;Node2 -->
<g id="edge47" class="edge"><title>Node34&#45;&gt;Node2</title>
<path fill="none" stroke="midnightblue" d="M971.266,-318.975C1026.31,-307.873 1122.15,-288.543 1178.66,-277.144"/>
<polygon fill="midnightblue" stroke="midnightblue" points="1179.63,-280.52 1188.74,-275.112 1178.24,-273.658 1179.63,-280.52"/>
</g>
<!-- Node34&#45;&gt;Node28 -->
<g id="edge49" class="edge"><title>Node34&#45;&gt;Node28</title>
<path fill="none" stroke="midnightblue" d="M876.418,-318.975C809.922,-308.194 695.566,-289.654 624.625,-278.153"/>
<polygon fill="midnightblue" stroke="midnightblue" points="624.916,-274.655 614.485,-276.509 623.796,-281.564 624.916,-274.655"/>
</g>
<!-- Node34&#45;&gt;Node30 -->
<g id="edge50" class="edge"><title>Node34&#45;&gt;Node30</title>
<path fill="none" stroke="midnightblue" d="M867.813,-324.764C814.727,-320.232 737.169,-308.297 677,-277 616.253,-245.402 562.927,-181.755 539.561,-151.172"/>
<polygon fill="midnightblue" stroke="midnightblue" points="542.095,-148.717 533.296,-142.815 536.494,-152.916 542.095,-148.717"/>
</g>
<!-- Node34&#45;&gt;Node31 -->
<g id="edge54" class="edge"><title>Node34&#45;&gt;Node31</title>
<path fill="none" stroke="midnightblue" d="M990.354,-324.612C1107.78,-317.539 1371.09,-294.186 1579,-221 1637.72,-200.33 1664.65,-203.8 1702,-154 1716.97,-134.036 1720.62,-104.66 1721.27,-85.6777"/>
<polygon fill="midnightblue" stroke="midnightblue" points="1724.77,-85.6479 1721.36,-75.6151 1717.77,-85.5813 1724.77,-85.6479"/>
</g>
<!-- Node34&#45;&gt;Node32 -->
<g id="edge48" class="edge"><title>Node34&#45;&gt;Node32</title>
<path fill="none" stroke="midnightblue" d="M867.946,-321.301C765.015,-310.85 556.371,-289.665 435.421,-277.384"/>
<polygon fill="midnightblue" stroke="midnightblue" points="435.735,-273.898 425.432,-276.37 435.028,-280.862 435.735,-273.898"/>
</g>
<!-- Node34&#45;&gt;Node34 -->
<g id="edge56" class="edge"><title>Node34&#45;&gt;Node34</title>
<path fill="none" stroke="midnightblue" d="M958.17,-338.033C982.538,-342.107 1008,-338.93 1008,-328.5 1008,-319.496 989.024,-315.897 968.158,-317.702"/>
<polygon fill="midnightblue" stroke="midnightblue" points="967.651,-314.238 958.17,-318.967 968.53,-321.183 967.651,-314.238"/>
</g>
<!-- Node35 -->
<g id="node35" class="node"><title>Node35</title>
<polygon fill="white" stroke="#bfbfbf" points="836,-257.5 836,-276.5 958,-276.5 958,-257.5 836,-257.5"/>
<text text-anchor="middle" x="897" y="-264.5" font-family="Helvetica,sans-Serif" font-size="10.00">boost/lexical_cast.hpp</text>
</g>
<!-- Node34&#45;&gt;Node35 -->
<g id="edge51" class="edge"><title>Node34&#45;&gt;Node35</title>
<path fill="none" stroke="midnightblue" d="M924.415,-318.975C919.758,-310.315 912.408,-296.649 906.49,-285.645"/>
<polygon fill="midnightblue" stroke="midnightblue" points="909.395,-283.658 901.576,-276.509 903.23,-286.974 909.395,-283.658"/>
</g>
<!-- Node36 -->
<g id="node36" class="node"><title>Node36</title>
<polygon fill="white" stroke="#bfbfbf" points="976.5,-257.5 976.5,-276.5 1095.5,-276.5 1095.5,-257.5 976.5,-257.5"/>
<text text-anchor="middle" x="1036" y="-264.5" font-family="Helvetica,sans-Serif" font-size="10.00">carl/interval/Interval.h</text>
</g>
<!-- Node34&#45;&gt;Node36 -->
<g id="edge52" class="edge"><title>Node34&#45;&gt;Node36</title>
<path fill="none" stroke="midnightblue" d="M944.33,-318.975C961.97,-309.166 991.16,-292.935 1011.86,-281.425"/>
<polygon fill="midnightblue" stroke="midnightblue" points="1013.66,-284.428 1020.7,-276.509 1010.26,-278.31 1013.66,-284.428"/>
</g>
<!-- Node37 -->
<g id="node37" class="node"><title>Node37</title>
<polygon fill="white" stroke="#bfbfbf" points="1113.5,-257.5 1113.5,-276.5 1170.5,-276.5 1170.5,-257.5 1113.5,-257.5"/>
<text text-anchor="middle" x="1142" y="-264.5" font-family="Helvetica,sans-Serif" font-size="10.00">memory</text>
</g>
<!-- Node34&#45;&gt;Node37 -->
<g id="edge53" class="edge"><title>Node34&#45;&gt;Node37</title>
<path fill="none" stroke="midnightblue" d="M959.518,-318.975C997.456,-308.377 1062.24,-290.281 1103.54,-278.745"/>
<polygon fill="midnightblue" stroke="midnightblue" points="1104.55,-282.094 1113.24,-276.033 1102.67,-275.352 1104.55,-282.094"/>
</g>
<!-- Node38 -->
<g id="node38" class="node"><title>Node38</title>
<polygon fill="white" stroke="#bfbfbf" points="686,-257.5 686,-276.5 818,-276.5 818,-257.5 686,-257.5"/>
<text text-anchor="middle" x="752" y="-264.5" font-family="Helvetica,sans-Serif" font-size="10.00">HyproFormulaVisitor.tpp</text>
</g>
<!-- Node34&#45;&gt;Node38 -->
<g id="edge55" class="edge"><title>Node34&#45;&gt;Node38</title>
<path fill="none" stroke="midnightblue" d="M903.64,-318.975C873.016,-308.68 821.343,-291.31 786.954,-279.75"/>
<polygon fill="midnightblue" stroke="midnightblue" points="787.907,-276.378 777.313,-276.509 785.676,-283.013 787.907,-276.378"/>
</g>
<!-- Node39&#45;&gt;Node2 -->
<g id="edge58" class="edge"><title>Node39&#45;&gt;Node2</title>
<path fill="none" stroke="midnightblue" d="M1224,-313.399C1224,-305.466 1224,-295.458 1224,-286.858"/>
<polygon fill="midnightblue" stroke="midnightblue" points="1227.5,-286.658 1224,-276.658 1220.5,-286.658 1227.5,-286.658"/>
</g>
<!-- Node39&#45;&gt;Node3 -->
<g id="edge59" class="edge"><title>Node39&#45;&gt;Node3</title>
<path fill="none" stroke="midnightblue" d="M1287.04,-314.663C1376.39,-295.47 1534.03,-257.621 1579,-221 1601.01,-203.072 1614.2,-172.001 1620.78,-152.249"/>
<polygon fill="midnightblue" stroke="midnightblue" points="1624.15,-153.183 1623.76,-142.595 1617.46,-151.113 1624.15,-153.183"/>
</g>
<!-- Node39&#45;&gt;Node7 -->
<g id="edge60" class="edge"><title>Node39&#45;&gt;Node7</title>
<path fill="none" stroke="midnightblue" d="M1287.18,-314.582C1290.16,-314.034 1293.11,-313.504 1296,-313 1408.13,-293.451 1797,-320.321 1797,-206.5 1797,-206.5 1797,-206.5 1797,-132 1797,-92.7452 1784.31,-78.298 1752,-56 1715.95,-31.1159 1588.32,-18.2473 1526.73,-13.3669"/>
<polygon fill="midnightblue" stroke="midnightblue" points="1526.63,-9.84852 1516.39,-12.5733 1526.09,-16.828 1526.63,-9.84852"/>
</g>
<!-- Node39&#45;&gt;Node31 -->
<g id="edge61" class="edge"><title>Node39&#45;&gt;Node31</title>
<path fill="none" stroke="midnightblue" d="M1287.21,-314.721C1290.18,-314.136 1293.12,-313.56 1296,-313 1381.22,-296.429 1405.43,-303.834 1488,-277 1604.63,-239.096 1671.33,-258.813 1735,-154 1747.87,-132.818 1738.84,-103.605 1730.48,-85.008"/>
<polygon fill="midnightblue" stroke="midnightblue" points="1733.57,-83.3501 1726.05,-75.8867 1727.27,-86.4106 1733.57,-83.3501"/>
</g>
</g>
</svg>
        <g id="navigator" transform="translate(0 0)" fill="#404254">
                <rect fill="#f2f5e9" fill-opacity="0.5" stroke="#606060" stroke-width=".5" x="0" y="0" width="60" height="60"/>
                <use id="zoomplus" xlink:href="#zoomPlus" x="17" y="9" onmousedown="handleZoom(evt,'in')"/>
                <use id="zoomminus" xlink:href="#zoomMin" x="42" y="9" onmousedown="handleZoom(evt,'out')"/>
                <use id="reset" xlink:href="#resetDef" x="30" y="36" onmousedown="handleReset()"/>
                <g id="arrowUp" xlink:href="#dirArrow" transform="translate(30 24)" onmousedown="handlePan(0,-1)">
                  <use xlink:href="#rim" fill="#404040">
                        <set attributeName="fill" to="#808080" begin="arrowUp.mouseover" end="arrowUp.mouseout"/>
                  </use>
                  <path fill="none" stroke="white" stroke-width="1.5" d="M0,-3.0v7 M-2.5,-0.5L0,-3.0L2.5,-0.5"/>
                </g>
                <g id="arrowRight" xlink:href="#dirArrow" transform="rotate(90) translate(36 -43)" onmousedown="handlePan(1,0)">
                  <use xlink:href="#rim" fill="#404040">
                        <set attributeName="fill" to="#808080" begin="arrowRight.mouseover" end="arrowRight.mouseout"/>
                  </use>
                  <path fill="none" stroke="white" stroke-width="1.5" d="M0,-3.0v7 M-2.5,-0.5L0,-3.0L2.5,-0.5"/>
                </g>
                <g id="arrowDown" xlink:href="#dirArrow" transform="rotate(180) translate(-30 -48)" onmousedown="handlePan(0,1)">
                  <use xlink:href="#rim" fill="#404040">
                        <set attributeName="fill" to="#808080" begin="arrowDown.mouseover" end="arrowDown.mouseout"/>
                  </use>
                  <path fill="none" stroke="white" stroke-width="1.5" d="M0,-3.0v7 M-2.5,-0.5L0,-3.0L2.5,-0.5"/>
                </g>
                <g id="arrowLeft" xlink:href="#dirArrow" transform="rotate(270) translate(-36 17)" onmousedown="handlePan(-1,0)">
                  <use xlink:href="#rim" fill="#404040">
                        <set attributeName="fill" to="#808080" begin="arrowLeft.mouseover" end="arrowLeft.mouseout"/>
                  </use>
                  <path fill="none" stroke="white" stroke-width="1.5" d="M0,-3.0v7 M-2.5,-0.5L0,-3.0L2.5,-0.5"/>
                </g>
        </g>
        <svg viewBox="0 0 15 15" width="100%" height="30px" preserveAspectRatio="xMaxYMin meet">
         <g id="arrow_out" transform="scale(0.3 0.3)">
          <a xlink:href="HyproSettingVisitor_8h__incl_org.svg" target="_base">
           <rect id="button" ry="5" rx="5" y="6" x="6" height="38" width="38"
                fill="#f2f5e9" fill-opacity="0.5" stroke="#606060" stroke-width="1.0"/>
           <path id="arrow"
             d="M 11.500037,31.436501 C 11.940474,20.09759 22.043105,11.32322 32.158766,21.979434 L 37.068811,17.246167 C 37.068811,17.246167 37.088388,32 37.088388,32 L 22.160133,31.978069 C 22.160133,31.978069 26.997745,27.140456 26.997745,27.140456 C 18.528582,18.264221 13.291696,25.230495 11.500037,31.436501 z"
             style="fill:#404040;"/>
          </a>
         </g>
        </svg>
</svg>
