<?xml version="1.0" encoding="UTF-8" standalone="no"?>
<!DOCTYPE svg PUBLIC "-//W3C//DTD SVG 1.1//EN"
 "http://www.w3.org/Graphics/SVG/1.1/DTD/svg11.dtd">
<!-- Generated by graphviz version 2.38.0 (20140413.2041)
 -->
<!-- Title: /home/travis/build/hypro/hypro/examples/INCOMPLETE_example_bouncingBall_Plotter.cpp Pages: 1 -->
<svg width="1910pt" height="139pt"
 viewBox="0.00 0.00 1909.50 139.00" xmlns="http://www.w3.org/2000/svg" xmlns:xlink="http://www.w3.org/1999/xlink">
<g id="graph0" class="graph" transform="scale(1 1) rotate(0) translate(4 135)">
<title>/home/travis/build/hypro/hypro/examples/INCOMPLETE_example_bouncingBall_Plotter.cpp</title>
<polygon fill="white" stroke="none" points="-4,4 -4,-135 1905.5,-135 1905.5,4 -4,4"/>
<!-- Node1 -->
<g id="node1" class="node"><title>Node1</title>
<polygon fill="#bfbfbf" stroke="black" points="817,-78.5 817,-130.5 993,-130.5 993,-78.5 817,-78.5"/>
<text text-anchor="start" x="825" y="-118.5" font-family="Helvetica,sans-Serif" font-size="10.00">/home/travis/build</text>
<text text-anchor="start" x="825" y="-107.5" font-family="Helvetica,sans-Serif" font-size="10.00">/hypro/hypro/examples</text>
<text text-anchor="start" x="825" y="-96.5" font-family="Helvetica,sans-Serif" font-size="10.00">/INCOMPLETE_example_bouncing</text>
<text text-anchor="middle" x="905" y="-85.5" font-family="Helvetica,sans-Serif" font-size="10.00">Ball_Plotter.cpp</text>
</g>
<!-- Node2 -->
<g id="node2" class="node"><title>Node2</title>
<polygon fill="white" stroke="#bfbfbf" points="0,-11.5 0,-30.5 50,-30.5 50,-11.5 0,-11.5"/>
<text text-anchor="middle" x="25" y="-18.5" font-family="Helvetica,sans-Serif" font-size="10.00">chrono</text>
</g>
<!-- Node1&#45;&gt;Node2 -->
<g id="edge1" class="edge"><title>Node1&#45;&gt;Node2</title>
<path fill="none" stroke="midnightblue" d="M816.897,-102.161C629.78,-98.4968 198.449,-85.4648 59,-42 54.3886,-40.5627 49.7374,-38.3992 45.4183,-36.0188"/>
<polygon fill="midnightblue" stroke="midnightblue" points="46.9971,-32.8821 36.6381,-30.6591 43.3499,-38.8568 46.9971,-32.8821"/>
</g>
<!-- Node3 -->
<g id="node3" class="node"><title>Node3</title>
<polygon fill="white" stroke="#bfbfbf" points="68.5,-11.5 68.5,-30.5 161.5,-30.5 161.5,-11.5 68.5,-11.5"/>
<text text-anchor="middle" x="115" y="-18.5" font-family="Helvetica,sans-Serif" font-size="10.00">../hypro/config.h</text>
</g>
<!-- Node1&#45;&gt;Node3 -->
<g id="edge2" class="edge"><title>Node1&#45;&gt;Node3</title>
<path fill="none" stroke="midnightblue" d="M816.762,-103.62C677.635,-102.139 399.505,-92.3889 170,-42 161.393,-40.1102 152.304,-37.2051 144.049,-34.1897"/>
<polygon fill="midnightblue" stroke="midnightblue" points="145.071,-30.8331 134.481,-30.5177 142.563,-37.3683 145.071,-30.8331"/>
</g>
<!-- Node4 -->
<g id="node4" class="node"><title>Node4</title>
<polygon fill="white" stroke="#bfbfbf" points="179.5,-6 179.5,-36 370.5,-36 370.5,-6 179.5,-6"/>
<text text-anchor="start" x="187.5" y="-24" font-family="Helvetica,sans-Serif" font-size="10.00">../hypro/datastructures</text>
<text text-anchor="middle" x="275" y="-13" font-family="Helvetica,sans-Serif" font-size="10.00">/hybridAutomata/LocationManager.h</text>
</g>
<!-- Node1&#45;&gt;Node4 -->
<g id="edge3" class="edge"><title>Node1&#45;&gt;Node4</title>
<path fill="none" stroke="midnightblue" d="M816.958,-95.1316C712.457,-84.7496 533.065,-65.512 380,-42 371.826,-40.7445 363.317,-39.32 354.836,-37.8235"/>
<polygon fill="midnightblue" stroke="midnightblue" points="355.377,-34.3647 344.915,-36.0395 354.138,-41.2542 355.377,-34.3647"/>
</g>
<!-- Node5 -->
<g id="node5" class="node"><title>Node5</title>
<polygon fill="white" stroke="#bfbfbf" points="389,-6 389,-36 543,-36 543,-6 389,-6"/>
<text text-anchor="start" x="397" y="-24" font-family="Helvetica,sans-Serif" font-size="10.00">../hypro/datastructures</text>
<text text-anchor="middle" x="466" y="-13" font-family="Helvetica,sans-Serif" font-size="10.00">/hybridAutomata/Transition.h</text>
</g>
<!-- Node1&#45;&gt;Node5 -->
<g id="edge4" class="edge"><title>Node1&#45;&gt;Node5</title>
<path fill="none" stroke="midnightblue" d="M816.977,-89.57C745.407,-77.9061 641.919,-60.2736 552,-42 546.322,-40.8461 540.446,-39.597 534.555,-38.3059"/>
<polygon fill="midnightblue" stroke="midnightblue" points="535.178,-34.8591 524.656,-36.1029 533.657,-41.6919 535.178,-34.8591"/>
</g>
<!-- Node6 -->
<g id="node6" class="node"><title>Node6</title>
<polygon fill="white" stroke="#bfbfbf" points="561,-6 561,-36 755,-36 755,-6 561,-6"/>
<text text-anchor="start" x="569" y="-24" font-family="Helvetica,sans-Serif" font-size="10.00">../hypro/datastructures</text>
<text text-anchor="middle" x="658" y="-13" font-family="Helvetica,sans-Serif" font-size="10.00">/hybridAutomata/HybridAutomaton.h</text>
</g>
<!-- Node1&#45;&gt;Node6 -->
<g id="edge5" class="edge"><title>Node1&#45;&gt;Node6</title>
<path fill="none" stroke="midnightblue" d="M829.213,-78.4934C790.751,-65.8023 744.992,-50.7038 710.46,-39.3098"/>
<polygon fill="midnightblue" stroke="midnightblue" points="711.174,-35.8596 700.581,-36.0498 708.98,-42.5071 711.174,-35.8596"/>
</g>
<!-- Node7 -->
<g id="node7" class="node"><title>Node7</title>
<polygon fill="white" stroke="#bfbfbf" points="773,-6 773,-36 899,-36 899,-6 773,-6"/>
<text text-anchor="start" x="781" y="-24" font-family="Helvetica,sans-Serif" font-size="10.00">../hypro/datastructures</text>
<text text-anchor="middle" x="836" y="-13" font-family="Helvetica,sans-Serif" font-size="10.00">/Point.h</text>
</g>
<!-- Node1&#45;&gt;Node7 -->
<g id="edge6" class="edge"><title>Node1&#45;&gt;Node7</title>
<path fill="none" stroke="midnightblue" d="M883.546,-78.1596C874.306,-67.2458 863.602,-54.6026 854.693,-44.0789"/>
<polygon fill="midnightblue" stroke="midnightblue" points="857.127,-41.5377 847.994,-36.1671 851.785,-46.0608 857.127,-41.5377"/>
</g>
<!-- Node8 -->
<g id="node8" class="node"><title>Node8</title>
<polygon fill="white" stroke="#bfbfbf" points="917.5,-6 917.5,-36 1032.5,-36 1032.5,-6 917.5,-6"/>
<text text-anchor="start" x="925.5" y="-24" font-family="Helvetica,sans-Serif" font-size="10.00">../hypro/algorithms</text>
<text text-anchor="middle" x="975" y="-13" font-family="Helvetica,sans-Serif" font-size="10.00">/reachability/Reach.h</text>
</g>
<!-- Node1&#45;&gt;Node8 -->
<g id="edge7" class="edge"><title>Node1&#45;&gt;Node8</title>
<path fill="none" stroke="midnightblue" d="M926.765,-78.1596C936.231,-67.1378 947.213,-54.3521 956.304,-43.767"/>
<polygon fill="midnightblue" stroke="midnightblue" points="958.971,-46.0336 962.832,-36.1671 953.661,-41.4727 958.971,-46.0336"/>
</g>
<!-- Node9 -->
<g id="node9" class="node"><title>Node9</title>
<polygon fill="white" stroke="#bfbfbf" points="1050.5,-6 1050.5,-36 1229.5,-36 1229.5,-6 1050.5,-6"/>
<text text-anchor="start" x="1058.5" y="-24" font-family="Helvetica,sans-Serif" font-size="10.00">../hypro/representations</text>
<text text-anchor="middle" x="1140" y="-13" font-family="Helvetica,sans-Serif" font-size="10.00">/Polytopes/HPolytope/HPolytope.h</text>
</g>
<!-- Node1&#45;&gt;Node9 -->
<g id="edge8" class="edge"><title>Node1&#45;&gt;Node9</title>
<path fill="none" stroke="midnightblue" d="M977.105,-78.4934C1013.54,-65.8568 1056.86,-50.8333 1089.66,-39.4567"/>
<polygon fill="midnightblue" stroke="midnightblue" points="1091.19,-42.6333 1099.49,-36.0498 1088.89,-36.0198 1091.19,-42.6333"/>
</g>
<!-- Node10 -->
<g id="node10" class="node"><title>Node10</title>
<polygon fill="white" stroke="#bfbfbf" points="1247.5,-6 1247.5,-36 1424.5,-36 1424.5,-6 1247.5,-6"/>
<text text-anchor="start" x="1255.5" y="-24" font-family="Helvetica,sans-Serif" font-size="10.00">../hypro/representations</text>
<text text-anchor="middle" x="1336" y="-13" font-family="Helvetica,sans-Serif" font-size="10.00">/Polytopes/VPolytope/VPolytope.h</text>
</g>
<!-- Node1&#45;&gt;Node10 -->
<g id="edge9" class="edge"><title>Node1&#45;&gt;Node10</title>
<path fill="none" stroke="midnightblue" d="M993.351,-87.7597C1060.74,-75.6269 1155.81,-58.2328 1239,-42 1245.52,-40.7278 1252.28,-39.384 1259.06,-38.0194"/>
<polygon fill="midnightblue" stroke="midnightblue" points="1259.88,-41.4252 1268.99,-36.0109 1258.49,-34.5643 1259.88,-41.4252"/>
</g>
<!-- Node11 -->
<g id="node11" class="node"><title>Node11</title>
<polygon fill="white" stroke="#bfbfbf" points="1442.5,-0.5 1442.5,-41.5 1621.5,-41.5 1621.5,-0.5 1442.5,-0.5"/>
<text text-anchor="start" x="1450.5" y="-29.5" font-family="Helvetica,sans-Serif" font-size="10.00">../hypro/representations</text>
<text text-anchor="start" x="1450.5" y="-18.5" font-family="Helvetica,sans-Serif" font-size="10.00">/SupportFunction/SupportFunction</text>
<text text-anchor="middle" x="1532" y="-7.5" font-family="Helvetica,sans-Serif" font-size="10.00">Content.h</text>
</g>
<!-- Node1&#45;&gt;Node11 -->
<g id="edge10" class="edge"><title>Node1&#45;&gt;Node11</title>
<path fill="none" stroke="midnightblue" d="M993.302,-95.5658C1096.43,-85.7731 1272.31,-67.4386 1432.31,-42.2125"/>
<polygon fill="midnightblue" stroke="midnightblue" points="1433.01,-45.645 1442.33,-40.6189 1431.91,-38.7318 1433.01,-45.645"/>
</g>
<!-- Node12 -->
<g id="node12" class="node"><title>Node12</title>
<polygon fill="white" stroke="#bfbfbf" points="1639.5,-6 1639.5,-36 1770.5,-36 1770.5,-6 1639.5,-6"/>
<text text-anchor="start" x="1647.5" y="-24" font-family="Helvetica,sans-Serif" font-size="10.00">../hypro/representations</text>
<text text-anchor="middle" x="1705" y="-13" font-family="Helvetica,sans-Serif" font-size="10.00">/Box/Box.h</text>
</g>
<!-- Node1&#45;&gt;Node12 -->
<g id="edge11" class="edge"><title>Node1&#45;&gt;Node12</title>
<path fill="none" stroke="midnightblue" d="M993.102,-101.129C1130.37,-96.2932 1403.18,-82.1015 1631,-42 1636.49,-41.0339 1642.16,-39.8488 1647.81,-38.542"/>
<polygon fill="midnightblue" stroke="midnightblue" points="1649.03,-41.8486 1657.91,-36.0797 1647.37,-35.0477 1649.03,-41.8486"/>
</g>
<!-- Node13 -->
<g id="node13" class="node"><title>Node13</title>
<polygon fill="white" stroke="#bfbfbf" points="1788.5,-11.5 1788.5,-30.5 1901.5,-30.5 1901.5,-11.5 1788.5,-11.5"/>
<text text-anchor="middle" x="1845" y="-18.5" font-family="Helvetica,sans-Serif" font-size="10.00">../hypro/util/Plotter.h</text>
</g>
<!-- Node1&#45;&gt;Node13 -->
<g id="edge12" class="edge"><title>Node1&#45;&gt;Node13</title>
<path fill="none" stroke="midnightblue" d="M993.084,-103.918C1151.8,-103.212 1495.75,-94.999 1780,-42 1790.62,-40.0198 1801.95,-36.9002 1812.13,-33.7086"/>
<polygon fill="midnightblue" stroke="midnightblue" points="1813.44,-36.9642 1821.86,-30.5325 1811.26,-30.3101 1813.44,-36.9642"/>
</g>
</g>
</svg>
