<?xml version="1.0" encoding="UTF-8" standalone="no"?>
<!DOCTYPE svg PUBLIC "-//W3C//DTD SVG 1.1//EN"
 "http://www.w3.org/Graphics/SVG/1.1/DTD/svg11.dtd">
<!-- Generated by graphviz version 2.38.0 (20140413.2041)
 -->
<!-- Title: Graphical Class Hierarchy Pages: 1 -->
<svg width="684pt" height="480pt"
 viewBox="0.00 0.00 684.00 480.00" xmlns="http://www.w3.org/2000/svg" xmlns:xlink="http://www.w3.org/1999/xlink">
<g id="graph0" class="graph" transform="scale(1 1) rotate(0) translate(4 476)">
<title>Graphical Class Hierarchy</title>
<polygon fill="white" stroke="none" points="-4,4 -4,-476 680,-476 680,4 -4,4"/>
<!-- Node1 -->
<g id="node1" class="node"><title>Node1</title>
<g id="a_node1"><a xlink:href="classhypro_1_1_i_handler.html" target="_top" xlink:title="hypro::IHandler">
<polygon fill="white" stroke="black" points="0,-256 0,-275 89,-275 89,-256 0,-256"/>
<text text-anchor="middle" x="44.5" y="-263" font-family="Helvetica,sans-Serif" font-size="10.00">hypro::IHandler</text>
</a>
</g>
</g>
<!-- Node2 -->
<g id="node2" class="node"><title>Node2</title>
<g id="a_node2"><a xlink:href="classhypro_1_1_i_bad_state_handler.html" target="_top" xlink:title="hypro::IBadStateHandler">
<polygon fill="white" stroke="black" points="136,-420 136,-439 270,-439 270,-420 136,-420"/>
<text text-anchor="middle" x="203" y="-427" font-family="Helvetica,sans-Serif" font-size="10.00">hypro::IBadStateHandler</text>
</a>
</g>
</g>
<!-- Node1&#45;&gt;Node2 -->
<g id="edge1" class="edge"><title>Node1&#45;&gt;Node2</title>
<path fill="none" stroke="midnightblue" d="M54.7395,-284.203C67.7592,-309.153 93.4734,-353.643 125,-383.5 141.507,-399.133 164.23,-411.897 180.711,-419.979"/>
<polygon fill="midnightblue" stroke="midnightblue" points="57.7564,-282.415 50.0989,-275.092 51.5189,-285.592 57.7564,-282.415"/>
</g>
<!-- Node4 -->
<g id="node4" class="node"><title>Node4</title>
<g id="a_node4"><a xlink:href="classhypro_1_1_i_first_segment_handler.html" target="_top" xlink:title="hypro::IFirstSegmentHandler\l\&lt; State \&gt;">
<polygon fill="white" stroke="black" points="126.5,-343.5 126.5,-373.5 279.5,-373.5 279.5,-343.5 126.5,-343.5"/>
<text text-anchor="start" x="134.5" y="-361.5" font-family="Helvetica,sans-Serif" font-size="10.00">hypro::IFirstSegmentHandler</text>
<text text-anchor="middle" x="203" y="-350.5" font-family="Helvetica,sans-Serif" font-size="10.00">&lt; State &gt;</text>
</a>
</g>
</g>
<!-- Node1&#45;&gt;Node4 -->
<g id="edge3" class="edge"><title>Node1&#45;&gt;Node4</title>
<path fill="none" stroke="midnightblue" d="M61.3096,-282.811C76.3366,-298.328 100.259,-320.71 125,-334.5 130.993,-337.84 137.513,-340.781 144.138,-343.353"/>
<polygon fill="midnightblue" stroke="midnightblue" points="63.7192,-280.265 54.3051,-275.404 58.6332,-285.074 63.7192,-280.265"/>
</g>
<!-- Node7 -->
<g id="node7" class="node"><title>Node7</title>
<g id="a_node7"><a xlink:href="classhypro_1_1_i_guard_handler.html" target="_top" xlink:title="hypro::IGuardHandler\l\&lt; State \&gt;">
<polygon fill="white" stroke="black" points="143.5,-294.5 143.5,-324.5 262.5,-324.5 262.5,-294.5 143.5,-294.5"/>
<text text-anchor="start" x="151.5" y="-312.5" font-family="Helvetica,sans-Serif" font-size="10.00">hypro::IGuardHandler</text>
<text text-anchor="middle" x="203" y="-301.5" font-family="Helvetica,sans-Serif" font-size="10.00">&lt; State &gt;</text>
</a>
</g>
</g>
<!-- Node1&#45;&gt;Node7 -->
<g id="edge6" class="edge"><title>Node1&#45;&gt;Node7</title>
<path fill="none" stroke="midnightblue" d="M89.2907,-277.812C107.635,-282.969 129.138,-289.015 148.415,-294.435"/>
<polygon fill="midnightblue" stroke="midnightblue" points="90.0323,-274.385 79.4582,-275.047 88.1376,-281.123 90.0323,-274.385"/>
</g>
<!-- Node9 -->
<g id="node9" class="node"><title>Node9</title>
<g id="a_node9"><a xlink:href="classhypro_1_1_i_invariant_handler.html" target="_top" xlink:title="hypro::IInvariantHandler">
<polygon fill="white" stroke="black" points="137.5,-256 137.5,-275 268.5,-275 268.5,-256 137.5,-256"/>
<text text-anchor="middle" x="203" y="-263" font-family="Helvetica,sans-Serif" font-size="10.00">hypro::IInvariantHandler</text>
</a>
</g>
</g>
<!-- Node1&#45;&gt;Node9 -->
<g id="edge8" class="edge"><title>Node1&#45;&gt;Node9</title>
<path fill="none" stroke="midnightblue" d="M99.1594,-265.5C111.43,-265.5 124.598,-265.5 137.278,-265.5"/>
<polygon fill="midnightblue" stroke="midnightblue" points="99.094,-262 89.094,-265.5 99.0939,-269 99.094,-262"/>
</g>
<!-- Node11 -->
<g id="node11" class="node"><title>Node11</title>
<g id="a_node11"><a xlink:href="classhypro_1_1_i_jump_handler.html" target="_top" xlink:title="hypro::IJumpHandler">
<polygon fill="white" stroke="black" points="146.5,-218 146.5,-237 259.5,-237 259.5,-218 146.5,-218"/>
<text text-anchor="middle" x="203" y="-225" font-family="Helvetica,sans-Serif" font-size="10.00">hypro::IJumpHandler</text>
</a>
</g>
</g>
<!-- Node1&#45;&gt;Node11 -->
<g id="edge10" class="edge"><title>Node1&#45;&gt;Node11</title>
<path fill="none" stroke="midnightblue" d="M94.7892,-253.532C116.72,-248.207 142.185,-242.024 162.792,-237.02"/>
<polygon fill="midnightblue" stroke="midnightblue" points="93.8833,-250.15 84.9916,-255.911 95.5351,-256.953 93.8833,-250.15"/>
</g>
<!-- Node12 -->
<g id="node12" class="node"><title>Node12</title>
<g id="a_node12"><a xlink:href="classhypro_1_1_i_reset_handler.html" target="_top" xlink:title="hypro::IResetHandler">
<polygon fill="white" stroke="black" points="145,-180 145,-199 261,-199 261,-180 145,-180"/>
<text text-anchor="middle" x="203" y="-187" font-family="Helvetica,sans-Serif" font-size="10.00">hypro::IResetHandler</text>
</a>
</g>
</g>
<!-- Node1&#45;&gt;Node12 -->
<g id="edge11" class="edge"><title>Node1&#45;&gt;Node12</title>
<path fill="none" stroke="midnightblue" d="M63.6665,-249.374C79.0139,-236.548 102.097,-219.059 125,-208.5 133.253,-204.695 142.368,-201.59 151.353,-199.075"/>
<polygon fill="midnightblue" stroke="midnightblue" points="61.3085,-246.785 55.9862,-255.946 65.8597,-252.103 61.3085,-246.785"/>
</g>
<!-- Node17 -->
<g id="node17" class="node"><title>Node17</title>
<g id="a_node17"><a xlink:href="classhypro_1_1_i_time_evolution_handler.html" target="_top" xlink:title="hypro::ITimeEvolutionHandler">
<polygon fill="white" stroke="black" points="125,-80 125,-99 281,-99 281,-80 125,-80"/>
<text text-anchor="middle" x="203" y="-87" font-family="Helvetica,sans-Serif" font-size="10.00">hypro::ITimeEvolutionHandler</text>
</a>
</g>
</g>
<!-- Node1&#45;&gt;Node17 -->
<g id="edge16" class="edge"><title>Node1&#45;&gt;Node17</title>
<path fill="none" stroke="midnightblue" d="M59.6066,-247.978C75.254,-228.7 101.411,-196.942 125,-170.5 148.637,-144.005 177.828,-113.998 192.553,-99.0396"/>
<polygon fill="midnightblue" stroke="midnightblue" points="56.7718,-245.917 53.2036,-255.893 62.2141,-250.319 56.7718,-245.917"/>
</g>
<!-- Node3 -->
<g id="node3" class="node"><title>Node3</title>
<g id="a_node3"><a xlink:href="classhypro_1_1rectangular_bad_state_handler.html" target="_top" xlink:title="hypro::rectangularBadState\lHandler\&lt; State \&gt;">
<polygon fill="white" stroke="black" points="328,-441.5 328,-471.5 477,-471.5 477,-441.5 328,-441.5"/>
<text text-anchor="start" x="336" y="-459.5" font-family="Helvetica,sans-Serif" font-size="10.00">hypro::rectangularBadState</text>
<text text-anchor="middle" x="402.5" y="-448.5" font-family="Helvetica,sans-Serif" font-size="10.00">Handler&lt; State &gt;</text>
</a>
</g>
</g>
<!-- Node2&#45;&gt;Node3 -->
<g id="edge2" class="edge"><title>Node2&#45;&gt;Node3</title>
<path fill="none" stroke="midnightblue" d="M280.163,-439.912C295.77,-442.046 312.172,-444.288 327.694,-446.41"/>
<polygon fill="midnightblue" stroke="midnightblue" points="280.421,-436.415 270.039,-438.528 279.473,-443.35 280.421,-436.415"/>
</g>
<!-- Node5 -->
<g id="node5" class="node"><title>Node5</title>
<g id="a_node5"><a xlink:href="classhypro_1_1rectangular_first_segment_handler.html" target="_top" xlink:title="hypro::rectangularFirstSegment\lHandler\&lt; State \&gt;">
<polygon fill="white" stroke="black" points="318.5,-392.5 318.5,-422.5 486.5,-422.5 486.5,-392.5 318.5,-392.5"/>
<text text-anchor="start" x="326.5" y="-410.5" font-family="Helvetica,sans-Serif" font-size="10.00">hypro::rectangularFirstSegment</text>
<text text-anchor="middle" x="402.5" y="-399.5" font-family="Helvetica,sans-Serif" font-size="10.00">Handler&lt; State &gt;</text>
</a>
</g>
</g>
<!-- Node4&#45;&gt;Node5 -->
<g id="edge4" class="edge"><title>Node4&#45;&gt;Node5</title>
<path fill="none" stroke="midnightblue" d="M274.442,-375.977C296.21,-381.377 319.983,-387.276 341.016,-392.494"/>
<polygon fill="midnightblue" stroke="midnightblue" points="275.147,-372.546 264.599,-373.535 273.462,-379.34 275.147,-372.546"/>
</g>
<!-- Node6 -->
<g id="node6" class="node"><title>Node6</title>
<g id="a_node6"><a xlink:href="classhypro_1_1_t_poly_first_segment_handler.html" target="_top" xlink:title="hypro::TPolyFirstSegment\lHandler\&lt; State \&gt;">
<polygon fill="white" stroke="black" points="333.5,-343.5 333.5,-373.5 471.5,-373.5 471.5,-343.5 333.5,-343.5"/>
<text text-anchor="start" x="341.5" y="-361.5" font-family="Helvetica,sans-Serif" font-size="10.00">hypro::TPolyFirstSegment</text>
<text text-anchor="middle" x="402.5" y="-350.5" font-family="Helvetica,sans-Serif" font-size="10.00">Handler&lt; State &gt;</text>
</a>
</g>
</g>
<!-- Node4&#45;&gt;Node6 -->
<g id="edge5" class="edge"><title>Node4&#45;&gt;Node6</title>
<path fill="none" stroke="midnightblue" d="M289.592,-358.5C304.267,-358.5 319.336,-358.5 333.473,-358.5"/>
<polygon fill="midnightblue" stroke="midnightblue" points="289.512,-355 279.512,-358.5 289.512,-362 289.512,-355"/>
</g>
<!-- Node8 -->
<g id="node8" class="node"><title>Node8</title>
<g id="a_node8"><a xlink:href="classhypro_1_1rectangular_guard_handler.html" target="_top" xlink:title="hypro::rectangularGuardHandler\l\&lt; State \&gt;">
<polygon fill="white" stroke="black" points="317,-294.5 317,-324.5 488,-324.5 488,-294.5 317,-294.5"/>
<text text-anchor="start" x="325" y="-312.5" font-family="Helvetica,sans-Serif" font-size="10.00">hypro::rectangularGuardHandler</text>
<text text-anchor="middle" x="402.5" y="-301.5" font-family="Helvetica,sans-Serif" font-size="10.00">&lt; State &gt;</text>
</a>
</g>
</g>
<!-- Node7&#45;&gt;Node8 -->
<g id="edge7" class="edge"><title>Node7&#45;&gt;Node8</title>
<path fill="none" stroke="midnightblue" d="M272.847,-309.5C286.997,-309.5 302.051,-309.5 316.689,-309.5"/>
<polygon fill="midnightblue" stroke="midnightblue" points="272.722,-306 262.722,-309.5 272.722,-313 272.722,-306"/>
</g>
<!-- Node10 -->
<g id="node10" class="node"><title>Node10</title>
<g id="a_node10"><a xlink:href="classhypro_1_1rectangular_invariant_handler.html" target="_top" xlink:title="hypro::rectangularInvariant\lHandler\&lt; State \&gt;">
<polygon fill="white" stroke="black" points="329.5,-245.5 329.5,-275.5 475.5,-275.5 475.5,-245.5 329.5,-245.5"/>
<text text-anchor="start" x="337.5" y="-263.5" font-family="Helvetica,sans-Serif" font-size="10.00">hypro::rectangularInvariant</text>
<text text-anchor="middle" x="402.5" y="-252.5" font-family="Helvetica,sans-Serif" font-size="10.00">Handler&lt; State &gt;</text>
</a>
</g>
</g>
<!-- Node9&#45;&gt;Node10 -->
<g id="edge9" class="edge"><title>Node9&#45;&gt;Node10</title>
<path fill="none" stroke="midnightblue" d="M278.805,-263.606C295.309,-263.188 312.763,-262.747 329.167,-262.331"/>
<polygon fill="midnightblue" stroke="midnightblue" points="278.577,-260.111 268.669,-263.863 278.754,-267.109 278.577,-260.111"/>
</g>
<!-- Node13 -->
<g id="node13" class="node"><title>Node13</title>
<g id="a_node13"><a xlink:href="classhypro_1_1lti_reset_handler.html" target="_top" xlink:title="hypro::ltiResetHandler\l\&lt; State \&gt;">
<polygon fill="white" stroke="black" points="341.5,-196.5 341.5,-226.5 463.5,-226.5 463.5,-196.5 341.5,-196.5"/>
<text text-anchor="start" x="349.5" y="-214.5" font-family="Helvetica,sans-Serif" font-size="10.00">hypro::ltiResetHandler</text>
<text text-anchor="middle" x="402.5" y="-203.5" font-family="Helvetica,sans-Serif" font-size="10.00">&lt; State &gt;</text>
</a>
</g>
</g>
<!-- Node12&#45;&gt;Node13 -->
<g id="edge12" class="edge"><title>Node12&#45;&gt;Node13</title>
<path fill="none" stroke="midnightblue" d="M271.064,-196.97C293.865,-199.51 319.187,-202.331 341.408,-204.806"/>
<polygon fill="midnightblue" stroke="midnightblue" points="271.451,-193.492 261.125,-195.863 270.676,-200.449 271.451,-193.492"/>
</g>
<!-- Node16 -->
<g id="node16" class="node"><title>Node16</title>
<g id="a_node16"><a xlink:href="classhypro_1_1rectangular_reset_handler.html" target="_top" xlink:title="hypro::rectangularResetHandler\l\&lt; State \&gt;">
<polygon fill="white" stroke="black" points="318.5,-147.5 318.5,-177.5 486.5,-177.5 486.5,-147.5 318.5,-147.5"/>
<text text-anchor="start" x="326.5" y="-165.5" font-family="Helvetica,sans-Serif" font-size="10.00">hypro::rectangularResetHandler</text>
<text text-anchor="middle" x="402.5" y="-154.5" font-family="Helvetica,sans-Serif" font-size="10.00">&lt; State &gt;</text>
</a>
</g>
</g>
<!-- Node12&#45;&gt;Node16 -->
<g id="edge15" class="edge"><title>Node12&#45;&gt;Node16</title>
<path fill="none" stroke="midnightblue" d="M271.401,-180.286C286.526,-178.218 302.746,-176.001 318.424,-173.857"/>
<polygon fill="midnightblue" stroke="midnightblue" points="270.559,-176.868 261.125,-181.69 271.507,-183.804 270.559,-176.868"/>
</g>
<!-- Node14 -->
<g id="node14" class="node"><title>Node14</title>
<g id="a_node14"><a xlink:href="classhypro_1_1discrete_reset_handler.html" target="_top" xlink:title="hypro::discreteResetHandler\l\&lt; State \&gt;">
<polygon fill="white" stroke="black" points="524,-221.5 524,-251.5 676,-251.5 676,-221.5 524,-221.5"/>
<text text-anchor="start" x="532" y="-239.5" font-family="Helvetica,sans-Serif" font-size="10.00">hypro::discreteResetHandler</text>
<text text-anchor="middle" x="600" y="-228.5" font-family="Helvetica,sans-Serif" font-size="10.00">&lt; State &gt;</text>
</a>
</g>
</g>
<!-- Node13&#45;&gt;Node14 -->
<g id="edge13" class="edge"><title>Node13&#45;&gt;Node14</title>
<path fill="none" stroke="midnightblue" d="M473.707,-220.478C489.954,-222.555 507.306,-224.774 523.759,-226.878"/>
<polygon fill="midnightblue" stroke="midnightblue" points="474.115,-217.002 463.752,-219.205 473.227,-223.945 474.115,-217.002"/>
</g>
<!-- Node15 -->
<g id="node15" class="node"><title>Node15</title>
<g id="a_node15"><a xlink:href="classhypro_1_1timed_reset_handler.html" target="_top" xlink:title="hypro::timedResetHandler\l\&lt; State \&gt;">
<polygon fill="white" stroke="black" points="529.5,-172.5 529.5,-202.5 670.5,-202.5 670.5,-172.5 529.5,-172.5"/>
<text text-anchor="start" x="537.5" y="-190.5" font-family="Helvetica,sans-Serif" font-size="10.00">hypro::timedResetHandler</text>
<text text-anchor="middle" x="600" y="-179.5" font-family="Helvetica,sans-Serif" font-size="10.00">&lt; State &gt;</text>
</a>
</g>
</g>
<!-- Node13&#45;&gt;Node15 -->
<g id="edge14" class="edge"><title>Node13&#45;&gt;Node15</title>
<path fill="none" stroke="midnightblue" d="M473.91,-202.856C491.957,-200.641 511.355,-198.259 529.363,-196.049"/>
<polygon fill="midnightblue" stroke="midnightblue" points="473.251,-199.411 463.752,-204.103 474.104,-206.359 473.251,-199.411"/>
</g>
<!-- Node18 -->
<g id="node18" class="node"><title>Node18</title>
<g id="a_node18"><a xlink:href="classhypro_1_1discrete_time_evolution_handler.html" target="_top" xlink:title="hypro::discreteTimeEvolution\lHandler">
<polygon fill="white" stroke="black" points="325,-98.5 325,-128.5 480,-128.5 480,-98.5 325,-98.5"/>
<text text-anchor="start" x="333" y="-116.5" font-family="Helvetica,sans-Serif" font-size="10.00">hypro::discreteTimeEvolution</text>
<text text-anchor="middle" x="402.5" y="-105.5" font-family="Helvetica,sans-Serif" font-size="10.00">Handler</text>
</a>
</g>
</g>
<!-- Node17&#45;&gt;Node18 -->
<g id="edge17" class="edge"><title>Node17&#45;&gt;Node18</title>
<path fill="none" stroke="midnightblue" d="M291.414,-100.122C302.606,-101.482 313.995,-102.866 324.995,-104.203"/>
<polygon fill="midnightblue" stroke="midnightblue" points="291.556,-96.6141 281.207,-98.8821 290.712,-103.563 291.556,-96.6141"/>
</g>
<!-- Node19 -->
<g id="node19" class="node"><title>Node19</title>
<g id="a_node19"><a xlink:href="classhypro_1_1rectangular_time_evolution_handler.html" target="_top" xlink:title="hypro::rectangularTimeEvolution\lHandler\&lt; State \&gt;">
<polygon fill="white" stroke="black" points="317,-49.5 317,-79.5 488,-79.5 488,-49.5 317,-49.5"/>
<text text-anchor="start" x="325" y="-67.5" font-family="Helvetica,sans-Serif" font-size="10.00">hypro::rectangularTimeEvolution</text>
<text text-anchor="middle" x="402.5" y="-56.5" font-family="Helvetica,sans-Serif" font-size="10.00">Handler&lt; State &gt;</text>
</a>
</g>
</g>
<!-- Node17&#45;&gt;Node19 -->
<g id="edge18" class="edge"><title>Node17&#45;&gt;Node19</title>
<path fill="none" stroke="midnightblue" d="M289.434,-78.6856C298.545,-77.5323 307.81,-76.3595 316.911,-75.2075"/>
<polygon fill="midnightblue" stroke="midnightblue" points="288.711,-75.2491 279.23,-79.9773 289.59,-82.1937 288.711,-75.2491"/>
</g>
<!-- Node20 -->
<g id="node20" class="node"><title>Node20</title>
<g id="a_node20"><a xlink:href="classhypro_1_1_t_poly_time_evolution_handler.html" target="_top" xlink:title="hypro::TPolyTimeEvolution\lHandler\&lt; State \&gt;">
<polygon fill="white" stroke="black" points="332,-0.5 332,-30.5 473,-30.5 473,-0.5 332,-0.5"/>
<text text-anchor="start" x="340" y="-18.5" font-family="Helvetica,sans-Serif" font-size="10.00">hypro::TPolyTimeEvolution</text>
<text text-anchor="middle" x="402.5" y="-7.5" font-family="Helvetica,sans-Serif" font-size="10.00">Handler&lt; State &gt;</text>
</a>
</g>
</g>
<!-- Node17&#45;&gt;Node20 -->
<g id="edge19" class="edge"><title>Node17&#45;&gt;Node20</title>
<path fill="none" stroke="midnightblue" d="M232.286,-75.6605C254.875,-64.9332 287.517,-50.1506 317,-39.5 325.749,-36.3393 335.127,-33.3222 344.336,-30.5598"/>
<polygon fill="midnightblue" stroke="midnightblue" points="230.765,-72.5082 223.259,-79.9858 233.79,-78.821 230.765,-72.5082"/>
</g>
</g>
</svg>
