<?xml version="1.0" encoding="UTF-8" standalone="no"?>
<!DOCTYPE svg PUBLIC "-//W3C//DTD SVG 1.1//EN"
 "http://www.w3.org/Graphics/SVG/1.1/DTD/svg11.dtd">
<!-- Generated by graphviz version 2.38.0 (20140413.2041)
 -->
<!-- Title: Graphical Class Hierarchy Pages: 1 -->
<svg width="354pt" height="88pt"
 viewBox="0.00 0.00 354.00 88.00" xmlns="http://www.w3.org/2000/svg" xmlns:xlink="http://www.w3.org/1999/xlink">
<g id="graph0" class="graph" transform="scale(1 1) rotate(0) translate(4 84)">
<title>Graphical Class Hierarchy</title>
<polygon fill="white" stroke="none" points="-4,4 -4,-84 350,-84 350,4 -4,4"/>
<!-- Node1 -->
<g id="node1" class="node"><title>Node1</title>
<g id="a_node1"><a xlink:href="classhypro_1_1lti_bad_state_handler.html" target="_top" xlink:title="hypro::ltiBadStateHandler\l\&lt; State \&gt;">
<polygon fill="white" stroke="black" points="0,-24.5 0,-54.5 140,-54.5 140,-24.5 0,-24.5"/>
<text text-anchor="start" x="8" y="-42.5" font-family="Helvetica,sans-Serif" font-size="10.00">hypro::ltiBadStateHandler</text>
<text text-anchor="middle" x="70" y="-31.5" font-family="Helvetica,sans-Serif" font-size="10.00">&lt; State &gt;</text>
</a>
</g>
</g>
<!-- Node2 -->
<g id="node2" class="node"><title>Node2</title>
<g id="a_node2"><a xlink:href="classhypro_1_1discrete_bad_state_handler.html" target="_top" xlink:title="hypro::discreteBadStateHandler\l\&lt; State \&gt;">
<polygon fill="white" stroke="black" points="176,-49.5 176,-79.5 346,-79.5 346,-49.5 176,-49.5"/>
<text text-anchor="start" x="184" y="-67.5" font-family="Helvetica,sans-Serif" font-size="10.00">hypro::discreteBadStateHandler</text>
<text text-anchor="middle" x="261" y="-56.5" font-family="Helvetica,sans-Serif" font-size="10.00">&lt; State &gt;</text>
</a>
</g>
</g>
<!-- Node1&#45;&gt;Node2 -->
<g id="edge1" class="edge"><title>Node1&#45;&gt;Node2</title>
<path fill="none" stroke="midnightblue" d="M150.215,-49.9781C158.642,-51.0929 167.237,-52.2298 175.72,-53.3519"/>
<polygon fill="midnightblue" stroke="midnightblue" points="150.408,-46.4733 140.036,-48.6317 149.49,-53.4129 150.408,-46.4733"/>
</g>
<!-- Node3 -->
<g id="node3" class="node"><title>Node3</title>
<g id="a_node3"><a xlink:href="classhypro_1_1timed_bad_state_handler.html" target="_top" xlink:title="hypro::timedBadStateHandler\l\&lt; State \&gt;">
<polygon fill="white" stroke="black" points="181,-0.5 181,-30.5 341,-30.5 341,-0.5 181,-0.5"/>
<text text-anchor="start" x="189" y="-18.5" font-family="Helvetica,sans-Serif" font-size="10.00">hypro::timedBadStateHandler</text>
<text text-anchor="middle" x="261" y="-7.5" font-family="Helvetica,sans-Serif" font-size="10.00">&lt; State &gt;</text>
</a>
</g>
</g>
<!-- Node1&#45;&gt;Node3 -->
<g id="edge2" class="edge"><title>Node1&#45;&gt;Node3</title>
<path fill="none" stroke="midnightblue" d="M150.119,-29.4532C160.301,-28.1602 170.729,-26.836 180.911,-25.543"/>
<polygon fill="midnightblue" stroke="midnightblue" points="149.515,-26.0016 140.036,-30.7336 150.397,-32.9459 149.515,-26.0016"/>
</g>
</g>
</svg>
