<?xml version="1.0" encoding="UTF-8" standalone="no"?>
<!DOCTYPE svg PUBLIC "-//W3C//DTD SVG 1.1//EN"
 "http://www.w3.org/Graphics/SVG/1.1/DTD/svg11.dtd">
<!-- Generated by graphviz version 2.38.0 (20140413.2041)
 -->
<!-- Title: Graphical Class Hierarchy Pages: 1 -->
<svg width="299pt" height="203pt"
 viewBox="0.00 0.00 299.00 203.00" xmlns="http://www.w3.org/2000/svg" xmlns:xlink="http://www.w3.org/1999/xlink">
<g id="graph0" class="graph" transform="scale(1 1) rotate(0) translate(4 199)">
<title>Graphical Class Hierarchy</title>
<polygon fill="white" stroke="none" points="-4,4 -4,-199 295,-199 295,4 -4,4"/>
<!-- Node1 -->
<g id="node1" class="node"><title>Node1</title>
<g id="a_node1"><a xlink:href="structhypro_1_1RGNData.html" target="_top" xlink:title="hypro::RGNData">
<polygon fill="white" stroke="black" points="0,-88 0,-107 94,-107 94,-88 0,-88"/>
<text text-anchor="middle" x="47" y="-95" font-family="Helvetica,sans-Serif" font-size="10.00">hypro::RGNData</text>
</a>
</g>
</g>
<!-- Node2 -->
<g id="node2" class="node"><title>Node2</title>
<g id="a_node2"><a xlink:href="structhypro_1_1IntersectHalfspaceData.html" target="_top" xlink:title="hypro::IntersectHalfspace\lData\&lt; Number \&gt;">
<polygon fill="white" stroke="black" points="141,-164.5 141,-194.5 280,-194.5 280,-164.5 141,-164.5"/>
<text text-anchor="start" x="149" y="-182.5" font-family="Helvetica,sans-Serif" font-size="10.00">hypro::IntersectHalfspace</text>
<text text-anchor="middle" x="210.5" y="-171.5" font-family="Helvetica,sans-Serif" font-size="10.00">Data&lt; Number &gt;</text>
</a>
</g>
</g>
<!-- Node1&#45;&gt;Node2 -->
<g id="edge1" class="edge"><title>Node1&#45;&gt;Node2</title>
<path fill="none" stroke="midnightblue" d="M67.5548,-113.644C83.5376,-126.191 107.148,-143.29 130,-154.5 137.534,-158.196 145.735,-161.5 153.914,-164.401"/>
<polygon fill="midnightblue" stroke="midnightblue" points="69.5079,-110.724 59.5134,-107.209 65.1339,-116.19 69.5079,-110.724"/>
</g>
<!-- Node3 -->
<g id="node3" class="node"><title>Node3</title>
<g id="a_node3"><a xlink:href="structhypro_1_1LeafData.html" target="_top" xlink:title="hypro::LeafData">
<polygon fill="white" stroke="black" points="164,-126 164,-145 257,-145 257,-126 164,-126"/>
<text text-anchor="middle" x="210.5" y="-133" font-family="Helvetica,sans-Serif" font-size="10.00">hypro::LeafData</text>
</a>
</g>
</g>
<!-- Node1&#45;&gt;Node3 -->
<g id="edge2" class="edge"><title>Node1&#45;&gt;Node3</title>
<path fill="none" stroke="midnightblue" d="M98.5583,-109.396C121.259,-114.737 147.678,-120.954 169.04,-125.98"/>
<polygon fill="midnightblue" stroke="midnightblue" points="99.2891,-105.973 88.7533,-107.089 97.6858,-112.786 99.2891,-105.973"/>
</g>
<!-- Node4 -->
<g id="node4" class="node"><title>Node4</title>
<g id="a_node4"><a xlink:href="structhypro_1_1ProjectData.html" target="_top" xlink:title="hypro::ProjectData">
<polygon fill="white" stroke="black" points="157.5,-88 157.5,-107 263.5,-107 263.5,-88 157.5,-88"/>
<text text-anchor="middle" x="210.5" y="-95" font-family="Helvetica,sans-Serif" font-size="10.00">hypro::ProjectData</text>
</a>
</g>
</g>
<!-- Node1&#45;&gt;Node4 -->
<g id="edge3" class="edge"><title>Node1&#45;&gt;Node4</title>
<path fill="none" stroke="midnightblue" d="M104.687,-97.5C121.78,-97.5 140.457,-97.5 157.248,-97.5"/>
<polygon fill="midnightblue" stroke="midnightblue" points="104.279,-94.0001 94.2794,-97.5 104.279,-101 104.279,-94.0001"/>
</g>
<!-- Node5 -->
<g id="node5" class="node"><title>Node5</title>
<g id="a_node5"><a xlink:href="structhypro_1_1ScaleData.html" target="_top" xlink:title="hypro::ScaleData\&lt; Number \&gt;">
<polygon fill="white" stroke="black" points="130,-50 130,-69 291,-69 291,-50 130,-50"/>
<text text-anchor="middle" x="210.5" y="-57" font-family="Helvetica,sans-Serif" font-size="10.00">hypro::ScaleData&lt; Number &gt;</text>
</a>
</g>
</g>
<!-- Node1&#45;&gt;Node5 -->
<g id="edge4" class="edge"><title>Node1&#45;&gt;Node5</title>
<path fill="none" stroke="midnightblue" d="M98.5583,-85.6039C121.259,-80.2626 147.678,-74.0463 169.04,-69.0201"/>
<polygon fill="midnightblue" stroke="midnightblue" points="97.6858,-82.2136 88.7533,-87.911 99.2891,-89.0275 97.6858,-82.2136"/>
</g>
<!-- Node6 -->
<g id="node6" class="node"><title>Node6</title>
<g id="a_node6"><a xlink:href="structhypro_1_1TrafoData.html" target="_top" xlink:title="hypro::TrafoData\&lt; Number,\l Setting \&gt;">
<polygon fill="white" stroke="black" points="136,-0.5 136,-30.5 285,-30.5 285,-0.5 136,-0.5"/>
<text text-anchor="start" x="144" y="-18.5" font-family="Helvetica,sans-Serif" font-size="10.00">hypro::TrafoData&lt; Number,</text>
<text text-anchor="middle" x="210.5" y="-7.5" font-family="Helvetica,sans-Serif" font-size="10.00"> Setting &gt;</text>
</a>
</g>
</g>
<!-- Node1&#45;&gt;Node6 -->
<g id="edge5" class="edge"><title>Node1&#45;&gt;Node6</title>
<path fill="none" stroke="midnightblue" d="M67.5548,-81.3557C83.5376,-68.8092 107.148,-51.7102 130,-40.5 137.534,-36.8042 145.735,-33.4998 153.914,-30.5991"/>
<polygon fill="midnightblue" stroke="midnightblue" points="65.1339,-78.8103 59.5134,-87.7914 69.5079,-84.2755 65.1339,-78.8103"/>
</g>
</g>
</svg>
