<?xml version="1.0" encoding="UTF-8" standalone="no"?>
<!DOCTYPE svg PUBLIC "-//W3C//DTD SVG 1.1//EN"
 "http://www.w3.org/Graphics/SVG/1.1/DTD/svg11.dtd">
<!-- Generated by graphviz version 2.38.0 (20140413.2041)
 -->
<!-- Title: Graphical Class Hierarchy Pages: 1 -->
<svg width="253pt" height="362pt"
 viewBox="0.00 0.00 253.00 361.50" xmlns="http://www.w3.org/2000/svg" xmlns:xlink="http://www.w3.org/1999/xlink">
<g id="graph0" class="graph" transform="scale(1 1) rotate(0) translate(4 357.5)">
<title>Graphical Class Hierarchy</title>
<polygon fill="white" stroke="none" points="-4,4 -4,-357.5 249,-357.5 249,4 -4,4"/>
<!-- Node1 -->
<g id="node1" class="node"><title>Node1</title>
<polygon fill="white" stroke="#bfbfbf" points="0,-159.5 0,-178.5 62,-178.5 62,-159.5 0,-159.5"/>
<text text-anchor="middle" x="31" y="-166.5" font-family="Helvetica,sans-Serif" font-size="10.00">Singleton</text>
</g>
<!-- Node2 -->
<g id="node2" class="node"><title>Node2</title>
<g id="a_node2"><a xlink:href="classhypro_1_1_context_factory.html" target="_top" xlink:title="hypro::ContextFactory\l\&lt; State \&gt;">
<polygon fill="white" stroke="black" points="110.5,-323 110.5,-353 232.5,-353 232.5,-323 110.5,-323"/>
<text text-anchor="start" x="118.5" y="-341" font-family="Helvetica,sans-Serif" font-size="10.00">hypro::ContextFactory</text>
<text text-anchor="middle" x="171.5" y="-330" font-family="Helvetica,sans-Serif" font-size="10.00">&lt; State &gt;</text>
</a>
</g>
</g>
<!-- Node1&#45;&gt;Node2 -->
<g id="edge1" class="edge"><title>Node1&#45;&gt;Node2</title>
<path fill="none" stroke="midnightblue" d="M35.6994,-188.707C42.5358,-219.732 60.0592,-279.932 98,-314 101.847,-317.455 106.205,-320.414 110.829,-322.948"/>
<polygon fill="midnightblue" stroke="midnightblue" points="39.0846,-187.792 33.6462,-178.699 32.2274,-189.198 39.0846,-187.792"/>
</g>
<!-- Node3 -->
<g id="node3" class="node"><title>Node3</title>
<g id="a_node3"><a xlink:href="classhypro_1_1_event_timing_provider.html" target="_top" xlink:title="hypro::EventTimingProvider\l\&lt; Number \&gt;">
<polygon fill="white" stroke="black" points="98,-274 98,-304 245,-304 245,-274 98,-274"/>
<text text-anchor="start" x="106" y="-292" font-family="Helvetica,sans-Serif" font-size="10.00">hypro::EventTimingProvider</text>
<text text-anchor="middle" x="171.5" y="-281" font-family="Helvetica,sans-Serif" font-size="10.00">&lt; Number &gt;</text>
</a>
</g>
</g>
<!-- Node1&#45;&gt;Node3 -->
<g id="edge2" class="edge"><title>Node1&#45;&gt;Node3</title>
<path fill="none" stroke="midnightblue" d="M40.3393,-187.868C50.8155,-209.487 70.7741,-244.555 98,-265 102.559,-268.423 107.632,-271.374 112.917,-273.914"/>
<polygon fill="midnightblue" stroke="midnightblue" points="43.4753,-186.312 36.0842,-178.721 37.1283,-189.264 43.4753,-186.312"/>
</g>
<!-- Node4 -->
<g id="node4" class="node"><title>Node4</title>
<g id="a_node4"><a xlink:href="classhypro_1_1_handler_factory.html" target="_top" xlink:title="hypro::HandlerFactory\l\&lt; State \&gt;">
<polygon fill="white" stroke="black" points="110.5,-225 110.5,-255 232.5,-255 232.5,-225 110.5,-225"/>
<text text-anchor="start" x="118.5" y="-243" font-family="Helvetica,sans-Serif" font-size="10.00">hypro::HandlerFactory</text>
<text text-anchor="middle" x="171.5" y="-232" font-family="Helvetica,sans-Serif" font-size="10.00">&lt; State &gt;</text>
</a>
</g>
</g>
<!-- Node1&#45;&gt;Node4 -->
<g id="edge3" class="edge"><title>Node1&#45;&gt;Node4</title>
<path fill="none" stroke="midnightblue" d="M51.4399,-185.209C64.0865,-195.138 81.2821,-207.524 98,-216 104.504,-219.298 111.56,-222.286 118.63,-224.946"/>
<polygon fill="midnightblue" stroke="midnightblue" points="53.4602,-182.342 43.473,-178.805 49.0748,-187.798 53.4602,-182.342"/>
</g>
<!-- Node5 -->
<g id="node5" class="node"><title>Node5</title>
<g id="a_node5"><a xlink:href="classhypro_1_1_node_manager.html" target="_top" xlink:title="hypro::NodeManager\l\&lt; State \&gt;">
<polygon fill="white" stroke="black" points="113,-176 113,-206 230,-206 230,-176 113,-176"/>
<text text-anchor="start" x="121" y="-194" font-family="Helvetica,sans-Serif" font-size="10.00">hypro::NodeManager</text>
<text text-anchor="middle" x="171.5" y="-183" font-family="Helvetica,sans-Serif" font-size="10.00">&lt; State &gt;</text>
</a>
</g>
</g>
<!-- Node1&#45;&gt;Node5 -->
<g id="edge4" class="edge"><title>Node1&#45;&gt;Node5</title>
<path fill="none" stroke="midnightblue" d="M72.2841,-175.399C84.9648,-177.413 99.2261,-179.679 112.868,-181.845"/>
<polygon fill="midnightblue" stroke="midnightblue" points="72.4777,-171.886 62.0524,-173.774 71.3795,-178.799 72.4777,-171.886"/>
</g>
<!-- Node6 -->
<g id="node6" class="node"><title>Node6</title>
<g id="a_node6"><a xlink:href="classhypro_1_1_plotter.html" target="_top" xlink:title="Class implementing a plotter. The plotter is implemented using carl::Singleton. ">
<polygon fill="white" stroke="black" points="100,-137.5 100,-156.5 243,-156.5 243,-137.5 100,-137.5"/>
<text text-anchor="middle" x="171.5" y="-144.5" font-family="Helvetica,sans-Serif" font-size="10.00">hypro::Plotter&lt; Number &gt;</text>
</a>
</g>
</g>
<!-- Node1&#45;&gt;Node6 -->
<g id="edge5" class="edge"><title>Node1&#45;&gt;Node6</title>
<path fill="none" stroke="midnightblue" d="M72.1926,-162.616C84.2022,-160.708 97.636,-158.574 110.622,-156.511"/>
<polygon fill="midnightblue" stroke="midnightblue" points="71.3795,-159.201 62.0524,-164.226 72.4777,-166.114 71.3795,-159.201"/>
</g>
<!-- Node7 -->
<g id="node7" class="node"><title>Node7</title>
<g id="a_node7"><a xlink:href="classhypro_1_1_settings_provider.html" target="_top" xlink:title="hypro::SettingsProvider\l\&lt; State \&gt;">
<polygon fill="white" stroke="black" points="107.5,-88 107.5,-118 235.5,-118 235.5,-88 107.5,-88"/>
<text text-anchor="start" x="115.5" y="-106" font-family="Helvetica,sans-Serif" font-size="10.00">hypro::SettingsProvider</text>
<text text-anchor="middle" x="171.5" y="-95" font-family="Helvetica,sans-Serif" font-size="10.00">&lt; State &gt;</text>
</a>
</g>
</g>
<!-- Node1&#45;&gt;Node7 -->
<g id="edge6" class="edge"><title>Node1&#45;&gt;Node7</title>
<path fill="none" stroke="midnightblue" d="M54.0392,-153.574C66.5438,-145.272 82.7083,-135.273 98,-128 105.575,-124.397 113.812,-121.054 121.927,-118.06"/>
<polygon fill="midnightblue" stroke="midnightblue" points="51.9643,-150.752 45.6456,-159.257 55.8886,-156.549 51.9643,-150.752"/>
</g>
<!-- Node8 -->
<g id="node8" class="node"><title>Node8</title>
<g id="a_node8"><a xlink:href="classhypro_1_1statistics_1_1_statistician.html" target="_top" xlink:title="Class which implements several counters on demand. ">
<polygon fill="white" stroke="black" points="122.5,-39 122.5,-69 220.5,-69 220.5,-39 122.5,-39"/>
<text text-anchor="start" x="130.5" y="-57" font-family="Helvetica,sans-Serif" font-size="10.00">hypro::statistics::</text>
<text text-anchor="middle" x="171.5" y="-46" font-family="Helvetica,sans-Serif" font-size="10.00">Statistician</text>
</a>
</g>
</g>
<!-- Node1&#45;&gt;Node8 -->
<g id="edge7" class="edge"><title>Node1&#45;&gt;Node8</title>
<path fill="none" stroke="midnightblue" d="M41.1631,-150.474C52.0765,-130.204 72.1283,-98.0644 98,-79 105.289,-73.6292 113.82,-69.3477 122.421,-65.9558"/>
<polygon fill="midnightblue" stroke="midnightblue" points="38.0507,-148.873 36.5543,-159.361 44.2649,-152.095 38.0507,-148.873"/>
</g>
<!-- Node9 -->
<g id="node9" class="node"><title>Node9</title>
<g id="a_node9"><a xlink:href="classhypro_1_1_variable_pool.html" target="_top" xlink:title="hypro::VariablePool">
<polygon fill="white" stroke="black" points="117.5,-0.5 117.5,-19.5 225.5,-19.5 225.5,-0.5 117.5,-0.5"/>
<text text-anchor="middle" x="171.5" y="-7.5" font-family="Helvetica,sans-Serif" font-size="10.00">hypro::VariablePool</text>
</a>
</g>
</g>
<!-- Node1&#45;&gt;Node9 -->
<g id="edge8" class="edge"><title>Node1&#45;&gt;Node9</title>
<path fill="none" stroke="midnightblue" d="M35.9442,-149.039C42.9844,-118.744 60.6255,-61.3736 98,-30 103.6,-25.2989 110.22,-21.6975 117.144,-18.9396"/>
<polygon fill="midnightblue" stroke="midnightblue" points="32.4368,-148.699 33.746,-159.213 39.279,-150.178 32.4368,-148.699"/>
</g>
</g>
</svg>
