<?xml version="1.0" encoding="UTF-8" standalone="no"?>
<!DOCTYPE svg PUBLIC "-//W3C//DTD SVG 1.1//EN"
 "http://www.w3.org/Graphics/SVG/1.1/DTD/svg11.dtd">
<!-- Generated by graphviz version 2.38.0 (20140413.2041)
 -->
<!-- Title: Graphical Class Hierarchy Pages: 1 -->
<svg width="295pt" height="50pt"
 viewBox="0.00 0.00 295.00 50.00" xmlns="http://www.w3.org/2000/svg" xmlns:xlink="http://www.w3.org/1999/xlink">
<g id="graph0" class="graph" transform="scale(1 1) rotate(0) translate(4 46)">
<title>Graphical Class Hierarchy</title>
<polygon fill="white" stroke="none" points="-4,4 -4,-46 291,-46 291,4 -4,4"/>
<!-- Node1 -->
<g id="node1" class="node"><title>Node1</title>
<polygon fill="white" stroke="#bfbfbf" points="0,-11.5 0,-30.5 95,-30.5 95,-11.5 0,-11.5"/>
<text text-anchor="middle" x="47.5" y="-18.5" font-family="Helvetica,sans-Serif" font-size="10.00">totally_ordered1</text>
</g>
<!-- Node2 -->
<g id="node2" class="node"><title>Node2</title>
<g id="a_node2"><a xlink:href="struct_eigen_1_1internal_1_1scalar__score__coeff__op_3_01mpq__class_01_4_1_1result__type.html" target="_top" xlink:title="Eigen::internal::scalar\l_score_coeff_op\&lt; mpq_class\l \&gt;::result_type">
<polygon fill="white" stroke="black" points="131,-0.5 131,-41.5 287,-41.5 287,-0.5 131,-0.5"/>
<text text-anchor="start" x="139" y="-29.5" font-family="Helvetica,sans-Serif" font-size="10.00">Eigen::internal::scalar</text>
<text text-anchor="start" x="139" y="-18.5" font-family="Helvetica,sans-Serif" font-size="10.00">_score_coeff_op&lt; mpq_class</text>
<text text-anchor="middle" x="209" y="-7.5" font-family="Helvetica,sans-Serif" font-size="10.00"> &gt;::result_type</text>
</a>
</g>
</g>
<!-- Node1&#45;&gt;Node2 -->
<g id="edge1" class="edge"><title>Node1&#45;&gt;Node2</title>
<path fill="none" stroke="midnightblue" d="M105.306,-21C113.568,-21 122.188,-21 130.77,-21"/>
<polygon fill="midnightblue" stroke="midnightblue" points="105.063,-17.5001 95.0628,-21 105.063,-24.5001 105.063,-17.5001"/>
</g>
</g>
</svg>
