<?xml version="1.0" encoding="UTF-8" standalone="no"?>
<!DOCTYPE svg PUBLIC "-//W3C//DTD SVG 1.1//EN"
 "http://www.w3.org/Graphics/SVG/1.1/DTD/svg11.dtd">
<!-- Generated by graphviz version 2.38.0 (20140413.2041)
 -->
<!-- Title: Graphical Class Hierarchy Pages: 1 -->
<svg width="276pt" height="88pt"
 viewBox="0.00 0.00 276.00 88.00" xmlns="http://www.w3.org/2000/svg" xmlns:xlink="http://www.w3.org/1999/xlink">
<g id="graph0" class="graph" transform="scale(1 1) rotate(0) translate(4 84)">
<title>Graphical Class Hierarchy</title>
<polygon fill="white" stroke="none" points="-4,4 -4,-84 272,-84 272,4 -4,4"/>
<!-- Node1 -->
<g id="node1" class="node"><title>Node1</title>
<polygon fill="white" stroke="#bfbfbf" points="0,-30 0,-49 101,-49 101,-30 0,-30"/>
<text text-anchor="middle" x="50.5" y="-37" font-family="Helvetica,sans-Serif" font-size="10.00">GenericNumTraits</text>
</g>
<!-- Node2 -->
<g id="node2" class="node"><title>Node2</title>
<g id="a_node2"><a xlink:href="structEigen_1_1NumTraits_3_01carl_1_1Interval_3_01Number_01_4_01_4.html" target="_top" xlink:title="Eigen::NumTraits\&lt; carl\l::Interval\&lt; Number \&gt; \&gt;">
<polygon fill="white" stroke="black" points="137,-49.5 137,-79.5 268,-79.5 268,-49.5 137,-49.5"/>
<text text-anchor="start" x="145" y="-67.5" font-family="Helvetica,sans-Serif" font-size="10.00">Eigen::NumTraits&lt; carl</text>
<text text-anchor="middle" x="202.5" y="-56.5" font-family="Helvetica,sans-Serif" font-size="10.00">::Interval&lt; Number &gt; &gt;</text>
</a>
</g>
</g>
<!-- Node1&#45;&gt;Node2 -->
<g id="edge1" class="edge"><title>Node1&#45;&gt;Node2</title>
<path fill="none" stroke="midnightblue" d="M111.142,-49.4403C119.565,-50.8442 128.259,-52.2932 136.773,-53.7121"/>
<polygon fill="midnightblue" stroke="midnightblue" points="111.471,-45.9469 101.031,-47.7552 110.32,-52.8517 111.471,-45.9469"/>
</g>
<!-- Node3 -->
<g id="node3" class="node"><title>Node3</title>
<g id="a_node3"><a xlink:href="structEigen_1_1NumTraits_3_01mpq__class_01_4.html" target="_top" xlink:title="Eigen::NumTraits\&lt; mpq\l_class \&gt;">
<polygon fill="white" stroke="black" points="137.5,-0.5 137.5,-30.5 267.5,-30.5 267.5,-0.5 137.5,-0.5"/>
<text text-anchor="start" x="145.5" y="-18.5" font-family="Helvetica,sans-Serif" font-size="10.00">Eigen::NumTraits&lt; mpq</text>
<text text-anchor="middle" x="202.5" y="-7.5" font-family="Helvetica,sans-Serif" font-size="10.00">_class &gt;</text>
</a>
</g>
</g>
<!-- Node1&#45;&gt;Node3 -->
<g id="edge2" class="edge"><title>Node1&#45;&gt;Node3</title>
<path fill="none" stroke="midnightblue" d="M111.014,-29.9778C119.654,-28.5954 128.581,-27.167 137.309,-25.7706"/>
<polygon fill="midnightblue" stroke="midnightblue" points="110.353,-26.539 101.031,-31.575 111.459,-33.451 110.353,-26.539"/>
</g>
</g>
</svg>
