<?xml version="1.0" encoding="UTF-8" standalone="no"?>
<!DOCTYPE svg PUBLIC "-//W3C//DTD SVG 1.1//EN"
 "http://www.w3.org/Graphics/SVG/1.1/DTD/svg11.dtd">
<!-- Generated by graphviz version 2.38.0 (20140413.2041)
 -->
<!-- Title: Graphical Class Hierarchy Pages: 1 -->
<svg width="252pt" height="246pt"
 viewBox="0.00 0.00 252.00 245.50" xmlns="http://www.w3.org/2000/svg" xmlns:xlink="http://www.w3.org/1999/xlink">
<g id="graph0" class="graph" transform="scale(1 1) rotate(0) translate(4 241.5)">
<title>Graphical Class Hierarchy</title>
<polygon fill="white" stroke="none" points="-4,4 -4,-241.5 248,-241.5 248,4 -4,4"/>
<!-- Node1 -->
<g id="node1" class="node"><title>Node1</title>
<polygon fill="white" stroke="#bfbfbf" points="0,-114.5 0,-133.5 62,-133.5 62,-114.5 0,-114.5"/>
<text text-anchor="middle" x="31" y="-121.5" font-family="Helvetica,sans-Serif" font-size="10.00">true_type</text>
</g>
<!-- Node2 -->
<g id="node2" class="node"><title>Node2</title>
<g id="a_node2"><a xlink:href="structhypro_1_1is__flow_3_01affine_flow_3_01_n_01_4_01_4.html" target="_top" xlink:title="hypro::is_flow\&lt; affineFlow\l\&lt; N \&gt; \&gt;">
<polygon fill="white" stroke="black" points="102,-207 102,-237 240,-237 240,-207 102,-207"/>
<text text-anchor="start" x="110" y="-225" font-family="Helvetica,sans-Serif" font-size="10.00">hypro::is_flow&lt; affineFlow</text>
<text text-anchor="middle" x="171" y="-214" font-family="Helvetica,sans-Serif" font-size="10.00">&lt; N &gt; &gt;</text>
</a>
</g>
</g>
<!-- Node1&#45;&gt;Node2 -->
<g id="edge1" class="edge"><title>Node1&#45;&gt;Node2</title>
<path fill="none" stroke="midnightblue" d="M43.8625,-141.994C55.7313,-158.694 75.4333,-183.147 98,-198 103.173,-201.405 108.873,-204.368 114.733,-206.938"/>
<polygon fill="midnightblue" stroke="midnightblue" points="46.6567,-139.88 38.1062,-133.624 40.8889,-143.847 46.6567,-139.88"/>
</g>
<!-- Node3 -->
<g id="node3" class="node"><title>Node3</title>
<g id="a_node3"><a xlink:href="structhypro_1_1is__flow_3_01linear_flow_3_01_n_01_4_01_4.html" target="_top" xlink:title="hypro::is_flow\&lt; linearFlow\l\&lt; N \&gt; \&gt;">
<polygon fill="white" stroke="black" points="102,-158 102,-188 240,-188 240,-158 102,-158"/>
<text text-anchor="start" x="110" y="-176" font-family="Helvetica,sans-Serif" font-size="10.00">hypro::is_flow&lt; linearFlow</text>
<text text-anchor="middle" x="171" y="-165" font-family="Helvetica,sans-Serif" font-size="10.00">&lt; N &gt; &gt;</text>
</a>
</g>
</g>
<!-- Node1&#45;&gt;Node3 -->
<g id="edge2" class="edge"><title>Node1&#45;&gt;Node3</title>
<path fill="none" stroke="midnightblue" d="M66.0974,-137.216C76.3243,-141.098 87.5901,-145.295 98,-149 106.317,-151.96 115.212,-155.015 123.814,-157.911"/>
<polygon fill="midnightblue" stroke="midnightblue" points="67.263,-133.914 56.6724,-133.616 64.7653,-140.454 67.263,-133.914"/>
</g>
<!-- Node4 -->
<g id="node4" class="node"><title>Node4</title>
<g id="a_node4"><a xlink:href="structhypro_1_1is__flow_3_01rectangular_flow_3_01_n_01_4_01_4.html" target="_top" xlink:title="hypro::is_flow\&lt; rectangular\lFlow\&lt; N \&gt; \&gt;">
<polygon fill="white" stroke="black" points="98,-109 98,-139 244,-139 244,-109 98,-109"/>
<text text-anchor="start" x="106" y="-127" font-family="Helvetica,sans-Serif" font-size="10.00">hypro::is_flow&lt; rectangular</text>
<text text-anchor="middle" x="171" y="-116" font-family="Helvetica,sans-Serif" font-size="10.00">Flow&lt; N &gt; &gt;</text>
</a>
</g>
</g>
<!-- Node1&#45;&gt;Node4 -->
<g id="edge3" class="edge"><title>Node1&#45;&gt;Node4</title>
<path fill="none" stroke="midnightblue" d="M72.4602,-124C80.5125,-124 89.1943,-124 97.9418,-124"/>
<polygon fill="midnightblue" stroke="midnightblue" points="72.2847,-120.5 62.2847,-124 72.2847,-127.5 72.2847,-120.5"/>
</g>
<!-- Node5 -->
<g id="node5" class="node"><title>Node5</title>
<g id="a_node5"><a xlink:href="structhypro_1_1is__shared__ptr_3_01std_1_1shared__ptr_3_01_t_01_4_01_4.html" target="_top" xlink:title="hypro::is_shared_ptr\l\&lt; std::shared_ptr\&lt; T \&gt; \&gt;">
<polygon fill="white" stroke="black" points="101,-60 101,-90 241,-90 241,-60 101,-60"/>
<text text-anchor="start" x="109" y="-78" font-family="Helvetica,sans-Serif" font-size="10.00">hypro::is_shared_ptr</text>
<text text-anchor="middle" x="171" y="-67" font-family="Helvetica,sans-Serif" font-size="10.00">&lt; std::shared_ptr&lt; T &gt; &gt;</text>
</a>
</g>
</g>
<!-- Node1&#45;&gt;Node5 -->
<g id="edge4" class="edge"><title>Node1&#45;&gt;Node5</title>
<path fill="none" stroke="midnightblue" d="M67.5028,-110.982C77.3676,-107.395 88.0913,-103.522 98,-100 107.102,-96.7652 116.867,-93.3424 126.178,-90.1018"/>
<polygon fill="midnightblue" stroke="midnightblue" points="66.1829,-107.738 57.9864,-114.451 68.5804,-114.315 66.1829,-107.738"/>
</g>
<!-- Node6 -->
<g id="node6" class="node"><title>Node6</title>
<g id="a_node6"><a xlink:href="structhypro_1_1is__unique__ptr_3_01std_1_1unique__ptr_3_01_t_00_01_d_01_4_01_4.html" target="_top" xlink:title="hypro::is_unique_ptr\l\&lt; std::unique_ptr\&lt; T,\l D \&gt; \&gt;">
<polygon fill="white" stroke="black" points="111.5,-0.5 111.5,-41.5 230.5,-41.5 230.5,-0.5 111.5,-0.5"/>
<text text-anchor="start" x="119.5" y="-29.5" font-family="Helvetica,sans-Serif" font-size="10.00">hypro::is_unique_ptr</text>
<text text-anchor="start" x="119.5" y="-18.5" font-family="Helvetica,sans-Serif" font-size="10.00">&lt; std::unique_ptr&lt; T,</text>
<text text-anchor="middle" x="171" y="-7.5" font-family="Helvetica,sans-Serif" font-size="10.00"> D &gt; &gt;</text>
</a>
</g>
</g>
<!-- Node1&#45;&gt;Node6 -->
<g id="edge5" class="edge"><title>Node1&#45;&gt;Node6</title>
<path fill="none" stroke="midnightblue" d="M44.5561,-106.093C56.677,-89.8978 76.3388,-66.3094 98,-51 102.866,-47.5611 108.186,-44.418 113.66,-41.5708"/>
<polygon fill="midnightblue" stroke="midnightblue" points="41.6883,-104.086 38.6332,-114.231 47.3479,-108.205 41.6883,-104.086"/>
</g>
</g>
</svg>
