<?xml version="1.0" encoding="UTF-8" standalone="no"?>
<!DOCTYPE svg PUBLIC "-//W3C//DTD SVG 1.1//EN"
 "http://www.w3.org/Graphics/SVG/1.1/DTD/svg11.dtd">
<!-- Generated by graphviz version 2.38.0 (20140413.2041)
 -->
<!-- Title: Graphical Class Hierarchy Pages: 1 -->
<svg width="375pt" height="192pt"
 viewBox="0.00 0.00 375.00 191.50" xmlns="http://www.w3.org/2000/svg" xmlns:xlink="http://www.w3.org/1999/xlink">
<g id="graph0" class="graph" transform="scale(1 1) rotate(0) translate(4 187.5)">
<title>Graphical Class Hierarchy</title>
<polygon fill="white" stroke="none" points="-4,4 -4,-187.5 371,-187.5 371,4 -4,4"/>
<!-- Node1 -->
<g id="node1" class="node"><title>Node1</title>
<g id="a_node1"><a xlink:href="structhypro_1_1SupportFunctionSetting.html" target="_top" xlink:title="hypro::SupportFunctionSetting">
<polygon fill="white" stroke="black" points="0,-88 0,-107 162,-107 162,-88 0,-88"/>
<text text-anchor="middle" x="81" y="-95" font-family="Helvetica,sans-Serif" font-size="10.00">hypro::SupportFunctionSetting</text>
</a>
</g>
</g>
<!-- Node2 -->
<g id="node2" class="node"><title>Node2</title>
<g id="a_node2"><a xlink:href="structhypro_1_1NoBoxDetection.html" target="_top" xlink:title="hypro::NoBoxDetection">
<polygon fill="white" stroke="black" points="218.5,-164 218.5,-183 346.5,-183 346.5,-164 218.5,-164"/>
<text text-anchor="middle" x="282.5" y="-171" font-family="Helvetica,sans-Serif" font-size="10.00">hypro::NoBoxDetection</text>
</a>
</g>
</g>
<!-- Node1&#45;&gt;Node2 -->
<g id="edge1" class="edge"><title>Node1&#45;&gt;Node2</title>
<path fill="none" stroke="midnightblue" d="M107.143,-111.991C130.152,-124.729 165.465,-142.983 198,-154.5 208.371,-158.171 219.723,-161.308 230.623,-163.912"/>
<polygon fill="midnightblue" stroke="midnightblue" points="108.807,-108.912 98.3727,-107.073 105.382,-115.017 108.807,-108.912"/>
</g>
<!-- Node3 -->
<g id="node3" class="node"><title>Node3</title>
<g id="a_node3"><a xlink:href="structhypro_1_1NoBoxReduction.html" target="_top" xlink:title="hypro::NoBoxReduction">
<polygon fill="white" stroke="black" points="218.5,-126 218.5,-145 346.5,-145 346.5,-126 218.5,-126"/>
<text text-anchor="middle" x="282.5" y="-133" font-family="Helvetica,sans-Serif" font-size="10.00">hypro::NoBoxReduction</text>
</a>
</g>
</g>
<!-- Node1&#45;&gt;Node3 -->
<g id="edge2" class="edge"><title>Node1&#45;&gt;Node3</title>
<path fill="none" stroke="midnightblue" d="M141.945,-108.918C170.49,-114.355 204.237,-120.783 231.395,-125.956"/>
<polygon fill="midnightblue" stroke="midnightblue" points="142.563,-105.473 132.085,-107.04 141.253,-112.349 142.563,-105.473"/>
</g>
<!-- Node4 -->
<g id="node4" class="node"><title>Node4</title>
<g id="a_node4"><a xlink:href="structhypro_1_1NoReduction.html" target="_top" xlink:title="hypro::NoReduction">
<polygon fill="white" stroke="black" points="227.5,-88 227.5,-107 337.5,-107 337.5,-88 227.5,-88"/>
<text text-anchor="middle" x="282.5" y="-95" font-family="Helvetica,sans-Serif" font-size="10.00">hypro::NoReduction</text>
</a>
</g>
</g>
<!-- Node1&#45;&gt;Node4 -->
<g id="edge3" class="edge"><title>Node1&#45;&gt;Node4</title>
<path fill="none" stroke="midnightblue" d="M172.353,-97.5C191.14,-97.5 210.376,-97.5 227.363,-97.5"/>
<polygon fill="midnightblue" stroke="midnightblue" points="172.282,-94.0001 162.282,-97.5 172.282,-101 172.282,-94.0001"/>
</g>
<!-- Node5 -->
<g id="node5" class="node"><title>Node5</title>
<g id="a_node5"><a xlink:href="structhypro_1_1NoTrafoReduction.html" target="_top" xlink:title="hypro::NoTrafoReduction">
<polygon fill="white" stroke="black" points="216.5,-50 216.5,-69 348.5,-69 348.5,-50 216.5,-50"/>
<text text-anchor="middle" x="282.5" y="-57" font-family="Helvetica,sans-Serif" font-size="10.00">hypro::NoTrafoReduction</text>
</a>
</g>
</g>
<!-- Node1&#45;&gt;Node5 -->
<g id="edge4" class="edge"><title>Node1&#45;&gt;Node5</title>
<path fill="none" stroke="midnightblue" d="M141.945,-86.0819C170.49,-80.6448 204.237,-74.2168 231.395,-69.0439"/>
<polygon fill="midnightblue" stroke="midnightblue" points="141.253,-82.6507 132.085,-87.96 142.563,-89.527 141.253,-82.6507"/>
</g>
<!-- Node6 -->
<g id="node6" class="node"><title>Node6</title>
<g id="a_node6"><a xlink:href="structhypro_1_1PolytopeSupportFunctionSetting.html" target="_top" xlink:title="hypro::PolytopeSupportFunction\lSetting">
<polygon fill="white" stroke="black" points="198,-0.5 198,-30.5 367,-30.5 367,-0.5 198,-0.5"/>
<text text-anchor="start" x="206" y="-18.5" font-family="Helvetica,sans-Serif" font-size="10.00">hypro::PolytopeSupportFunction</text>
<text text-anchor="middle" x="282.5" y="-7.5" font-family="Helvetica,sans-Serif" font-size="10.00">Setting</text>
</a>
</g>
</g>
<!-- Node1&#45;&gt;Node6 -->
<g id="edge5" class="edge"><title>Node1&#45;&gt;Node6</title>
<path fill="none" stroke="midnightblue" d="M108.135,-83.1007C131.284,-70.7262 166.238,-52.9591 198,-40.5 207.016,-36.9634 216.743,-33.6326 226.261,-30.6258"/>
<polygon fill="midnightblue" stroke="midnightblue" points="106.416,-80.0511 99.2778,-87.8805 109.74,-86.2113 106.416,-80.0511"/>
</g>
</g>
</svg>
