<?xml version="1.0" encoding="UTF-8" standalone="no"?>
<!DOCTYPE svg PUBLIC "-//W3C//DTD SVG 1.1//EN"
 "http://www.w3.org/Graphics/SVG/1.1/DTD/svg11.dtd">
<!-- Generated by graphviz version 2.38.0 (20140413.2041)
 -->
<!-- Title: Graphical Class Hierarchy Pages: 1 -->
<svg width="248pt" height="66pt"
 viewBox="0.00 0.00 248.00 66.00" xmlns="http://www.w3.org/2000/svg" xmlns:xlink="http://www.w3.org/1999/xlink">
<g id="graph0" class="graph" transform="scale(1 1) rotate(0) translate(4 62)">
<title>Graphical Class Hierarchy</title>
<polygon fill="white" stroke="none" points="-4,4 -4,-62 244,-62 244,4 -4,4"/>
<!-- Node1 -->
<g id="node1" class="node"><title>Node1</title>
<polygon fill="white" stroke="#bfbfbf" points="0,-19.5 0,-38.5 43,-38.5 43,-19.5 0,-19.5"/>
<text text-anchor="middle" x="21.5" y="-26.5" font-family="Helvetica,sans-Serif" font-size="10.00">Lexer</text>
</g>
<!-- Node2 -->
<g id="node2" class="node"><title>Node2</title>
<g id="a_node2"><a xlink:href="classhypro_1_1_hybrid_automaton_lexer.html" target="_top" xlink:title="hypro::HybridAutomatonLexer">
<polygon fill="white" stroke="black" points="79,-38.5 79,-57.5 240,-57.5 240,-38.5 79,-38.5"/>
<text text-anchor="middle" x="159.5" y="-45.5" font-family="Helvetica,sans-Serif" font-size="10.00">hypro::HybridAutomatonLexer</text>
</a>
</g>
</g>
<!-- Node1&#45;&gt;Node2 -->
<g id="edge1" class="edge"><title>Node1&#45;&gt;Node2</title>
<path fill="none" stroke="midnightblue" d="M53.1584,-33.2832C64.2736,-34.836 77.3182,-36.6584 90.3693,-38.4817"/>
<polygon fill="midnightblue" stroke="midnightblue" points="53.5436,-29.8031 43.1555,-31.8857 52.575,-36.7357 53.5436,-29.8031"/>
</g>
<!-- Node3 -->
<g id="node3" class="node"><title>Node3</title>
<g id="a_node3"><a xlink:href="classhypro_1_1_hybrid_system_lexer.html" target="_top" xlink:title="hypro::HybridSystemLexer">
<polygon fill="white" stroke="black" points="88,-0.5 88,-19.5 231,-19.5 231,-0.5 88,-0.5"/>
<text text-anchor="middle" x="159.5" y="-7.5" font-family="Helvetica,sans-Serif" font-size="10.00">hypro::HybridSystemLexer</text>
</a>
</g>
</g>
<!-- Node1&#45;&gt;Node3 -->
<g id="edge2" class="edge"><title>Node1&#45;&gt;Node3</title>
<path fill="none" stroke="midnightblue" d="M53.1584,-24.7168C64.2736,-23.164 77.3182,-21.3416 90.3693,-19.5183"/>
<polygon fill="midnightblue" stroke="midnightblue" points="52.575,-21.2643 43.1555,-26.1143 53.5436,-28.1969 52.575,-21.2643"/>
</g>
</g>
</svg>
