<?xml version="1.0" encoding="UTF-8" standalone="no"?>
<!DOCTYPE svg PUBLIC "-//W3C//DTD SVG 1.1//EN"
 "http://www.w3.org/Graphics/SVG/1.1/DTD/svg11.dtd">
<!-- Generated by graphviz version 2.38.0 (20140413.2041)
 -->
<!-- Title: Graphical Class Hierarchy Pages: 1 -->
<svg width="251pt" height="104pt"
 viewBox="0.00 0.00 251.00 104.00" xmlns="http://www.w3.org/2000/svg" xmlns:xlink="http://www.w3.org/1999/xlink">
<g id="graph0" class="graph" transform="scale(1 1) rotate(0) translate(4 100)">
<title>Graphical Class Hierarchy</title>
<polygon fill="white" stroke="none" points="-4,4 -4,-100 247,-100 247,4 -4,4"/>
<!-- Node1 -->
<g id="node1" class="node"><title>Node1</title>
<polygon fill="white" stroke="#bfbfbf" points="0,-38.5 0,-57.5 65,-57.5 65,-38.5 0,-38.5"/>
<text text-anchor="middle" x="32.5" y="-45.5" font-family="Helvetica,sans-Serif" font-size="10.00">false_type</text>
</g>
<!-- Node2 -->
<g id="node2" class="node"><title>Node2</title>
<g id="a_node2"><a xlink:href="structhypro_1_1is__flow.html" target="_top" xlink:title="hypro::is_flow\&lt; T \&gt;">
<polygon fill="white" stroke="black" points="118,-76.5 118,-95.5 226,-95.5 226,-76.5 118,-76.5"/>
<text text-anchor="middle" x="172" y="-83.5" font-family="Helvetica,sans-Serif" font-size="10.00">hypro::is_flow&lt; T &gt;</text>
</a>
</g>
</g>
<!-- Node1&#45;&gt;Node2 -->
<g id="edge1" class="edge"><title>Node1&#45;&gt;Node2</title>
<path fill="none" stroke="midnightblue" d="M74.9367,-59.7295C83.5473,-62.1484 92.5662,-64.6685 101,-67 112.288,-70.1205 124.612,-73.4812 135.731,-76.4958"/>
<polygon fill="midnightblue" stroke="midnightblue" points="75.65,-56.2944 65.0757,-56.9538 73.7532,-63.0325 75.65,-56.2944"/>
</g>
<!-- Node3 -->
<g id="node3" class="node"><title>Node3</title>
<g id="a_node3"><a xlink:href="structhypro_1_1is__shared__ptr.html" target="_top" xlink:title="hypro::is_shared_ptr\&lt; T \&gt;">
<polygon fill="white" stroke="black" points="101,-38.5 101,-57.5 243,-57.5 243,-38.5 101,-38.5"/>
<text text-anchor="middle" x="172" y="-45.5" font-family="Helvetica,sans-Serif" font-size="10.00">hypro::is_shared_ptr&lt; T &gt;</text>
</a>
</g>
</g>
<!-- Node1&#45;&gt;Node3 -->
<g id="edge2" class="edge"><title>Node1&#45;&gt;Node3</title>
<path fill="none" stroke="midnightblue" d="M75.0667,-48C83.2733,-48 92.0958,-48 100.947,-48"/>
<polygon fill="midnightblue" stroke="midnightblue" points="75.0453,-44.5001 65.0453,-48 75.0452,-51.5001 75.0453,-44.5001"/>
</g>
<!-- Node4 -->
<g id="node4" class="node"><title>Node4</title>
<g id="a_node4"><a xlink:href="structhypro_1_1is__unique__ptr.html" target="_top" xlink:title="hypro::is_unique_ptr\&lt; T \&gt;">
<polygon fill="white" stroke="black" points="101.5,-0.5 101.5,-19.5 242.5,-19.5 242.5,-0.5 101.5,-0.5"/>
<text text-anchor="middle" x="172" y="-7.5" font-family="Helvetica,sans-Serif" font-size="10.00">hypro::is_unique_ptr&lt; T &gt;</text>
</a>
</g>
</g>
<!-- Node1&#45;&gt;Node4 -->
<g id="edge3" class="edge"><title>Node1&#45;&gt;Node4</title>
<path fill="none" stroke="midnightblue" d="M74.9367,-36.2705C83.5473,-33.8516 92.5662,-31.3315 101,-29 112.288,-25.8795 124.612,-22.5188 135.731,-19.5042"/>
<polygon fill="midnightblue" stroke="midnightblue" points="73.7532,-32.9675 65.0757,-39.0462 75.65,-39.7056 73.7532,-32.9675"/>
</g>
</g>
</svg>
