<?xml version="1.0" encoding="UTF-8" standalone="no"?>
<!DOCTYPE svg PUBLIC "-//W3C//DTD SVG 1.1//EN"
 "http://www.w3.org/Graphics/SVG/1.1/DTD/svg11.dtd">
<!-- Generated by graphviz version 2.38.0 (20140413.2041)
 -->
<!-- Title: Graphical Class Hierarchy Pages: 1 -->
<svg width="255pt" height="66pt"
 viewBox="0.00 0.00 255.00 66.00" xmlns="http://www.w3.org/2000/svg" xmlns:xlink="http://www.w3.org/1999/xlink">
<g id="graph0" class="graph" transform="scale(1 1) rotate(0) translate(4 62)">
<title>Graphical Class Hierarchy</title>
<polygon fill="white" stroke="none" points="-4,4 -4,-62 251,-62 251,4 -4,4"/>
<!-- Node1 -->
<g id="node1" class="node"><title>Node1</title>
<polygon fill="white" stroke="#bfbfbf" points="0,-19.5 0,-38.5 47,-38.5 47,-19.5 0,-19.5"/>
<text text-anchor="middle" x="23.5" y="-26.5" font-family="Helvetica,sans-Serif" font-size="10.00">Parser</text>
</g>
<!-- Node2 -->
<g id="node2" class="node"><title>Node2</title>
<g id="a_node2"><a xlink:href="classhypro_1_1_hybrid_automaton_parser.html" target="_top" xlink:title="hypro::HybridAutomatonParser">
<polygon fill="white" stroke="black" points="83,-38.5 83,-57.5 247,-57.5 247,-38.5 83,-38.5"/>
<text text-anchor="middle" x="165" y="-45.5" font-family="Helvetica,sans-Serif" font-size="10.00">hypro::HybridAutomatonParser</text>
</a>
</g>
</g>
<!-- Node1&#45;&gt;Node2 -->
<g id="edge1" class="edge"><title>Node1&#45;&gt;Node2</title>
<path fill="none" stroke="midnightblue" d="M57.2407,-33.4593C68.307,-34.9665 81.1229,-36.7121 93.9523,-38.4594"/>
<polygon fill="midnightblue" stroke="midnightblue" points="57.6044,-29.9766 47.2236,-32.095 56.6597,-36.9126 57.6044,-29.9766"/>
</g>
<!-- Node3 -->
<g id="node3" class="node"><title>Node3</title>
<g id="a_node3"><a xlink:href="classhypro_1_1_hybrid_system_parser.html" target="_top" xlink:title="hypro::HybridSystemParser">
<polygon fill="white" stroke="black" points="91.5,-0.5 91.5,-19.5 238.5,-19.5 238.5,-0.5 91.5,-0.5"/>
<text text-anchor="middle" x="165" y="-7.5" font-family="Helvetica,sans-Serif" font-size="10.00">hypro::HybridSystemParser</text>
</a>
</g>
</g>
<!-- Node1&#45;&gt;Node3 -->
<g id="edge2" class="edge"><title>Node1&#45;&gt;Node3</title>
<path fill="none" stroke="midnightblue" d="M57.2407,-24.5407C68.307,-23.0335 81.1229,-21.2879 93.9523,-19.5406"/>
<polygon fill="midnightblue" stroke="midnightblue" points="56.6597,-21.0874 47.2236,-25.905 57.6044,-28.0234 56.6597,-21.0874"/>
</g>
</g>
</svg>
