<?xml version="1.0" encoding="UTF-8" standalone="no"?>
<!DOCTYPE svg PUBLIC "-//W3C//DTD SVG 1.1//EN"
 "http://www.w3.org/Graphics/SVG/1.1/DTD/svg11.dtd">
<!-- Generated by graphviz version 2.38.0 (20140413.2041)
 -->
<!-- Title: Graphical Class Hierarchy Pages: 1 -->
<svg width="282pt" height="88pt"
 viewBox="0.00 0.00 282.00 88.00" xmlns="http://www.w3.org/2000/svg" xmlns:xlink="http://www.w3.org/1999/xlink">
<g id="graph0" class="graph" transform="scale(1 1) rotate(0) translate(4 84)">
<title>Graphical Class Hierarchy</title>
<polygon fill="white" stroke="none" points="-4,4 -4,-84 278,-84 278,4 -4,4"/>
<!-- Node1 -->
<g id="node1" class="node"><title>Node1</title>
<g id="a_node1"><a xlink:href="structhypro_1_1statistics_1_1_operation_counter.html" target="_top" xlink:title="An operation counter based on stackoverflow.com/questions/11365351/how&#45;to&#45;implement&#45;efficient&#45;c&#45;runti...">
<polygon fill="white" stroke="black" points="0,-24.5 0,-54.5 102,-54.5 102,-24.5 0,-24.5"/>
<text text-anchor="start" x="8" y="-42.5" font-family="Helvetica,sans-Serif" font-size="10.00">hypro::statistics::</text>
<text text-anchor="middle" x="51" y="-31.5" font-family="Helvetica,sans-Serif" font-size="10.00">OperationCounter</text>
</a>
</g>
</g>
<!-- Node2 -->
<g id="node2" class="node"><title>Node2</title>
<g id="a_node2"><a xlink:href="structhypro_1_1statistics_1_1_atomic_counter.html" target="_top" xlink:title="hypro::statistics::\lAtomicCounter">
<polygon fill="white" stroke="black" points="157,-49.5 157,-79.5 255,-79.5 255,-49.5 157,-49.5"/>
<text text-anchor="start" x="165" y="-67.5" font-family="Helvetica,sans-Serif" font-size="10.00">hypro::statistics::</text>
<text text-anchor="middle" x="206" y="-56.5" font-family="Helvetica,sans-Serif" font-size="10.00">AtomicCounter</text>
</a>
</g>
</g>
<!-- Node1&#45;&gt;Node2 -->
<g id="edge1" class="edge"><title>Node1&#45;&gt;Node2</title>
<path fill="none" stroke="midnightblue" d="M112.196,-49.3359C127.021,-51.7583 142.703,-54.3207 156.872,-56.6359"/>
<polygon fill="midnightblue" stroke="midnightblue" points="112.531,-45.8444 102.098,-47.6859 111.403,-52.7528 112.531,-45.8444"/>
</g>
<!-- Node3 -->
<g id="node3" class="node"><title>Node3</title>
<g id="a_node3"><a xlink:href="structhypro_1_1statistics_1_1_atomic_operation_counter.html" target="_top" xlink:title="hypro::statistics::\lAtomicOperationCounter">
<polygon fill="white" stroke="black" points="138,-0.5 138,-30.5 274,-30.5 274,-0.5 138,-0.5"/>
<text text-anchor="start" x="146" y="-18.5" font-family="Helvetica,sans-Serif" font-size="10.00">hypro::statistics::</text>
<text text-anchor="middle" x="206" y="-7.5" font-family="Helvetica,sans-Serif" font-size="10.00">AtomicOperationCounter</text>
</a>
</g>
</g>
<!-- Node1&#45;&gt;Node3 -->
<g id="edge2" class="edge"><title>Node1&#45;&gt;Node3</title>
<path fill="none" stroke="midnightblue" d="M112.193,-30.0579C120.606,-28.7383 129.294,-27.3754 137.826,-26.0371"/>
<polygon fill="midnightblue" stroke="midnightblue" points="111.435,-26.634 102.098,-31.6415 112.52,-33.5495 111.435,-26.634"/>
</g>
</g>
</svg>
