<?xml version="1.0" encoding="UTF-8" standalone="no"?>
<!DOCTYPE svg PUBLIC "-//W3C//DTD SVG 1.1//EN"
 "http://www.w3.org/Graphics/SVG/1.1/DTD/svg11.dtd">
<!-- Generated by graphviz version 2.38.0 (20140413.2041)
 -->
<!-- Title: Graphical Class Hierarchy Pages: 1 -->
<svg width="392pt" height="39pt"
 viewBox="0.00 0.00 392.00 39.00" xmlns="http://www.w3.org/2000/svg" xmlns:xlink="http://www.w3.org/1999/xlink">
<g id="graph0" class="graph" transform="scale(1 1) rotate(0) translate(4 35)">
<title>Graphical Class Hierarchy</title>
<polygon fill="white" stroke="none" points="-4,4 -4,-35 388,-35 388,4 -4,4"/>
<!-- Node1 -->
<g id="node1" class="node"><title>Node1</title>
<g id="a_node1"><a xlink:href="classhypro_1_1IContext.html" target="_top" xlink:title="hypro::IContext">
<polygon fill="white" stroke="black" points="0,-6 0,-25 89,-25 89,-6 0,-6"/>
<text text-anchor="middle" x="44.5" y="-13" font-family="Helvetica,sans-Serif" font-size="10.00">hypro::IContext</text>
</a>
</g>
</g>
<!-- Node2 -->
<g id="node2" class="node"><title>Node2</title>
<g id="a_node2"><a xlink:href="classhypro_1_1LTIContext.html" target="_top" xlink:title="hypro::LTIContext\&lt;\l State \&gt;">
<polygon fill="white" stroke="black" points="125,-0.5 125,-30.5 232,-30.5 232,-0.5 125,-0.5"/>
<text text-anchor="start" x="133" y="-18.5" font-family="Helvetica,sans-Serif" font-size="10.00">hypro::LTIContext&lt;</text>
<text text-anchor="middle" x="178.5" y="-7.5" font-family="Helvetica,sans-Serif" font-size="10.00"> State &gt;</text>
</a>
</g>
</g>
<!-- Node1&#45;&gt;Node2 -->
<g id="edge1" class="edge"><title>Node1&#45;&gt;Node2</title>
<path fill="none" stroke="midnightblue" d="M99.2016,-15.5C107.638,-15.5 116.353,-15.5 124.767,-15.5"/>
<polygon fill="midnightblue" stroke="midnightblue" points="99.0876,-12.0001 89.0876,-15.5 99.0875,-19.0001 99.0876,-12.0001"/>
</g>
<!-- Node3 -->
<g id="node3" class="node"><title>Node3</title>
<g id="a_node3"><a xlink:href="classhypro_1_1TimedContext.html" target="_top" xlink:title="hypro::TimedContext\l\&lt; State \&gt;">
<polygon fill="white" stroke="black" points="268,-0.5 268,-30.5 384,-30.5 384,-0.5 268,-0.5"/>
<text text-anchor="start" x="276" y="-18.5" font-family="Helvetica,sans-Serif" font-size="10.00">hypro::TimedContext</text>
<text text-anchor="middle" x="326" y="-7.5" font-family="Helvetica,sans-Serif" font-size="10.00">&lt; State &gt;</text>
</a>
</g>
</g>
<!-- Node2&#45;&gt;Node3 -->
<g id="edge2" class="edge"><title>Node2&#45;&gt;Node3</title>
<path fill="none" stroke="midnightblue" d="M242.207,-15.5C250.651,-15.5 259.279,-15.5 267.625,-15.5"/>
<polygon fill="midnightblue" stroke="midnightblue" points="242.029,-12.0001 232.029,-15.5 242.029,-19.0001 242.029,-12.0001"/>
</g>
</g>
</svg>
