<?xml version="1.0" encoding="UTF-8" standalone="no"?>
<!DOCTYPE svg PUBLIC "-//W3C//DTD SVG 1.1//EN"
 "http://www.w3.org/Graphics/SVG/1.1/DTD/svg11.dtd">
<!-- Generated by graphviz version 2.38.0 (20140413.2041)
 -->
<!-- Title: Graphical Class Hierarchy Pages: 1 -->
<svg width="742pt" height="480pt"
 viewBox="0.00 0.00 742.00 480.00" xmlns="http://www.w3.org/2000/svg" xmlns:xlink="http://www.w3.org/1999/xlink">
<g id="graph0" class="graph" transform="scale(1 1) rotate(0) translate(4 476)">
<title>Graphical Class Hierarchy</title>
<polygon fill="white" stroke="none" points="-4,4 -4,-476 738,-476 738,4 -4,4"/>
<!-- Node1 -->
<g id="node1" class="node"><title>Node1</title>
<polygon fill="white" stroke="#bfbfbf" points="0,-210 0,-229 133,-229 133,-210 0,-210"/>
<text text-anchor="middle" x="66.5" y="-217" font-family="Helvetica,sans-Serif" font-size="10.00">AbstractParseTreeVisitor</text>
</g>
<!-- Node2 -->
<g id="node2" class="node"><title>Node2</title>
<g id="a_node2"><a xlink:href="classhypro_1_1_hybrid_automaton_visitor.html" target="_top" xlink:title="hypro::HybridAutomatonVisitor">
<polygon fill="white" stroke="black" points="169,-252 169,-271 333,-271 333,-252 169,-252"/>
<text text-anchor="middle" x="251" y="-259" font-family="Helvetica,sans-Serif" font-size="10.00">hypro::HybridAutomatonVisitor</text>
</a>
</g>
</g>
<!-- Node1&#45;&gt;Node2 -->
<g id="edge1" class="edge"><title>Node1&#45;&gt;Node2</title>
<path fill="none" stroke="midnightblue" d="M119.017,-231.356C147.295,-237.864 181.899,-245.827 208.436,-251.935"/>
<polygon fill="midnightblue" stroke="midnightblue" points="119.442,-227.862 108.912,-229.03 117.872,-234.684 119.442,-227.862"/>
</g>
<!-- Node11 -->
<g id="node11" class="node"><title>Node11</title>
<g id="a_node11"><a xlink:href="classhypro_1_1_hybrid_system_visitor.html" target="_top" xlink:title="hypro::HybridSystemVisitor">
<polygon fill="white" stroke="black" points="177.5,-169 177.5,-188 324.5,-188 324.5,-169 177.5,-169"/>
<text text-anchor="middle" x="251" y="-176" font-family="Helvetica,sans-Serif" font-size="10.00">hypro::HybridSystemVisitor</text>
</a>
</g>
</g>
<!-- Node1&#45;&gt;Node11 -->
<g id="edge10" class="edge"><title>Node1&#45;&gt;Node11</title>
<path fill="none" stroke="midnightblue" d="M119.787,-207.753C147.619,-201.501 181.404,-193.911 207.586,-188.029"/>
<polygon fill="midnightblue" stroke="midnightblue" points="118.817,-204.384 109.828,-209.991 120.352,-211.214 118.817,-204.384"/>
</g>
<!-- Node3 -->
<g id="node3" class="node"><title>Node3</title>
<g id="a_node3"><a xlink:href="classhypro_1_1_hybrid_automaton_base_visitor.html" target="_top" xlink:title="hypro::HybridAutomatonBase\lVisitor">
<polygon fill="white" stroke="black" points="375.5,-269.5 375.5,-299.5 533.5,-299.5 533.5,-269.5 375.5,-269.5"/>
<text text-anchor="start" x="383.5" y="-287.5" font-family="Helvetica,sans-Serif" font-size="10.00">hypro::HybridAutomatonBase</text>
<text text-anchor="middle" x="454.5" y="-276.5" font-family="Helvetica,sans-Serif" font-size="10.00">Visitor</text>
</a>
</g>
</g>
<!-- Node2&#45;&gt;Node3 -->
<g id="edge2" class="edge"><title>Node2&#45;&gt;Node3</title>
<path fill="none" stroke="midnightblue" d="M343.253,-271.916C353.919,-273.133 364.728,-274.367 375.197,-275.562"/>
<polygon fill="midnightblue" stroke="midnightblue" points="343.419,-268.412 333.087,-270.756 342.625,-275.367 343.419,-268.412"/>
</g>
<!-- Node4 -->
<g id="node4" class="node"><title>Node4</title>
<g id="a_node4"><a xlink:href="classhypro_1_1_hypro_bad_states_visitor.html" target="_top" xlink:title="hypro::HyproBadStatesVisitor\l\&lt; Number \&gt;">
<polygon fill="white" stroke="black" points="576,-441.5 576,-471.5 734,-471.5 734,-441.5 576,-441.5"/>
<text text-anchor="start" x="584" y="-459.5" font-family="Helvetica,sans-Serif" font-size="10.00">hypro::HyproBadStatesVisitor</text>
<text text-anchor="middle" x="655" y="-448.5" font-family="Helvetica,sans-Serif" font-size="10.00">&lt; Number &gt;</text>
</a>
</g>
</g>
<!-- Node3&#45;&gt;Node4 -->
<g id="edge3" class="edge"><title>Node3&#45;&gt;Node4</title>
<path fill="none" stroke="midnightblue" d="M468.791,-308.454C488.168,-341.206 527.233,-399.637 576,-432.5 581.052,-435.905 586.608,-438.843 592.355,-441.375"/>
<polygon fill="midnightblue" stroke="midnightblue" points="471.678,-306.455 463.638,-299.555 465.62,-309.962 471.678,-306.455"/>
</g>
<!-- Node5 -->
<g id="node5" class="node"><title>Node5</title>
<g id="a_node5"><a xlink:href="classhypro_1_1_hypro_formula_visitor.html" target="_top" xlink:title="hypro::HyproFormulaVisitor\l\&lt; Number \&gt;">
<polygon fill="white" stroke="black" points="581.5,-392.5 581.5,-422.5 728.5,-422.5 728.5,-392.5 581.5,-392.5"/>
<text text-anchor="start" x="589.5" y="-410.5" font-family="Helvetica,sans-Serif" font-size="10.00">hypro::HyproFormulaVisitor</text>
<text text-anchor="middle" x="655" y="-399.5" font-family="Helvetica,sans-Serif" font-size="10.00">&lt; Number &gt;</text>
</a>
</g>
</g>
<!-- Node3&#45;&gt;Node5 -->
<g id="edge4" class="edge"><title>Node3&#45;&gt;Node5</title>
<path fill="none" stroke="midnightblue" d="M477.179,-306.831C499.926,-329.103 537.646,-362.888 576,-383.5 582.24,-386.854 589.018,-389.813 595.886,-392.403"/>
<polygon fill="midnightblue" stroke="midnightblue" points="479.62,-304.322 470.06,-299.755 474.685,-309.287 479.62,-304.322"/>
</g>
<!-- Node6 -->
<g id="node6" class="node"><title>Node6</title>
<g id="a_node6"><a xlink:href="classhypro_1_1_hypro_h_a_visitor.html" target="_top" xlink:title="hypro::HyproHAVisitor\l\&lt; Number \&gt;">
<polygon fill="white" stroke="black" points="594,-343.5 594,-373.5 716,-373.5 716,-343.5 594,-343.5"/>
<text text-anchor="start" x="602" y="-361.5" font-family="Helvetica,sans-Serif" font-size="10.00">hypro::HyproHAVisitor</text>
<text text-anchor="middle" x="655" y="-350.5" font-family="Helvetica,sans-Serif" font-size="10.00">&lt; Number &gt;</text>
</a>
</g>
</g>
<!-- Node3&#45;&gt;Node6 -->
<g id="edge5" class="edge"><title>Node3&#45;&gt;Node6</title>
<path fill="none" stroke="midnightblue" d="M498.826,-303.646C521.594,-313.409 550.084,-325.16 576,-334.5 584.531,-337.574 593.671,-340.612 602.583,-343.438"/>
<polygon fill="midnightblue" stroke="midnightblue" points="500.011,-300.345 489.443,-299.596 497.237,-306.772 500.011,-300.345"/>
</g>
<!-- Node7 -->
<g id="node7" class="node"><title>Node7</title>
<g id="a_node7"><a xlink:href="classhypro_1_1_hypro_initial_set_visitor.html" target="_top" xlink:title="hypro::HyproInitialSetVisitor\l\&lt; Number \&gt;">
<polygon fill="white" stroke="black" points="580.5,-294.5 580.5,-324.5 729.5,-324.5 729.5,-294.5 580.5,-294.5"/>
<text text-anchor="start" x="588.5" y="-312.5" font-family="Helvetica,sans-Serif" font-size="10.00">hypro::HyproInitialSetVisitor</text>
<text text-anchor="middle" x="655" y="-301.5" font-family="Helvetica,sans-Serif" font-size="10.00">&lt; Number &gt;</text>
</a>
</g>
</g>
<!-- Node3&#45;&gt;Node7 -->
<g id="edge6" class="edge"><title>Node3&#45;&gt;Node7</title>
<path fill="none" stroke="#8b1a1a" d="M543.863,-295.629C556.083,-297.168 568.525,-298.735 580.437,-300.235"/>
<polygon fill="#8b1a1a" stroke="#8b1a1a" points="544.027,-292.122 533.668,-294.345 543.152,-299.067 544.027,-292.122"/>
</g>
<!-- Node8 -->
<g id="node8" class="node"><title>Node8</title>
<g id="a_node8"><a xlink:href="classhypro_1_1_hypro_location_visitor.html" target="_top" xlink:title="hypro::HyproLocationVisitor\l\&lt; Number \&gt;">
<polygon fill="white" stroke="black" points="580.5,-245.5 580.5,-275.5 729.5,-275.5 729.5,-245.5 580.5,-245.5"/>
<text text-anchor="start" x="588.5" y="-263.5" font-family="Helvetica,sans-Serif" font-size="10.00">hypro::HyproLocationVisitor</text>
<text text-anchor="middle" x="655" y="-252.5" font-family="Helvetica,sans-Serif" font-size="10.00">&lt; Number &gt;</text>
</a>
</g>
</g>
<!-- Node3&#45;&gt;Node8 -->
<g id="edge7" class="edge"><title>Node3&#45;&gt;Node8</title>
<path fill="none" stroke="midnightblue" d="M543.863,-273.816C556.083,-272.339 568.525,-270.834 580.437,-269.394"/>
<polygon fill="midnightblue" stroke="midnightblue" points="543.175,-270.374 533.668,-275.049 544.015,-277.323 543.175,-270.374"/>
</g>
<!-- Node9 -->
<g id="node9" class="node"><title>Node9</title>
<g id="a_node9"><a xlink:href="classhypro_1_1_hypro_setting_visitor.html" target="_top" xlink:title="hypro::HyproSettingVisitor\l\&lt; Number \&gt;">
<polygon fill="white" stroke="black" points="583.5,-196.5 583.5,-226.5 726.5,-226.5 726.5,-196.5 583.5,-196.5"/>
<text text-anchor="start" x="591.5" y="-214.5" font-family="Helvetica,sans-Serif" font-size="10.00">hypro::HyproSettingVisitor</text>
<text text-anchor="middle" x="655" y="-203.5" font-family="Helvetica,sans-Serif" font-size="10.00">&lt; Number &gt;</text>
</a>
</g>
</g>
<!-- Node3&#45;&gt;Node9 -->
<g id="edge8" class="edge"><title>Node3&#45;&gt;Node9</title>
<path fill="none" stroke="#8b1a1a" d="M500.673,-265.65C523.172,-256.481 550.871,-245.52 576,-236.5 585.369,-233.137 595.446,-229.744 605.144,-226.589"/>
<polygon fill="#8b1a1a" stroke="#8b1a1a" points="499.299,-262.43 491.372,-269.459 501.952,-268.908 499.299,-262.43"/>
</g>
<!-- Node10 -->
<g id="node10" class="node"><title>Node10</title>
<g id="a_node10"><a xlink:href="classhypro_1_1_hypro_transition_visitor.html" target="_top" xlink:title="hypro::HyproTransitionVisitor\l\&lt; Number \&gt;">
<polygon fill="white" stroke="black" points="578.5,-147.5 578.5,-177.5 731.5,-177.5 731.5,-147.5 578.5,-147.5"/>
<text text-anchor="start" x="586.5" y="-165.5" font-family="Helvetica,sans-Serif" font-size="10.00">hypro::HyproTransitionVisitor</text>
<text text-anchor="middle" x="655" y="-154.5" font-family="Helvetica,sans-Serif" font-size="10.00">&lt; Number &gt;</text>
</a>
</g>
</g>
<!-- Node3&#45;&gt;Node10 -->
<g id="edge9" class="edge"><title>Node3&#45;&gt;Node10</title>
<path fill="none" stroke="midnightblue" d="M477.999,-262.087C500.919,-240.354 538.35,-207.774 576,-187.5 583.011,-183.724 590.688,-180.404 598.403,-177.521"/>
<polygon fill="midnightblue" stroke="midnightblue" points="475.299,-259.829 470.521,-269.285 480.153,-264.872 475.299,-259.829"/>
</g>
<!-- Node12 -->
<g id="node12" class="node"><title>Node12</title>
<g id="a_node12"><a xlink:href="classhypro_1_1_hybrid_system_base_visitor.html" target="_top" xlink:title="hypro::HybridSystemBaseVisitor">
<polygon fill="white" stroke="black" points="369,-78 369,-97 540,-97 540,-78 369,-78"/>
<text text-anchor="middle" x="454.5" y="-85" font-family="Helvetica,sans-Serif" font-size="10.00">hypro::HybridSystemBaseVisitor</text>
</a>
</g>
</g>
<!-- Node11&#45;&gt;Node12 -->
<g id="edge11" class="edge"><title>Node11&#45;&gt;Node12</title>
<path fill="none" stroke="midnightblue" d="M282.475,-164.737C323.774,-146.086 396.458,-113.261 432.298,-97.075"/>
<polygon fill="midnightblue" stroke="midnightblue" points="280.856,-161.628 273.183,-168.933 283.737,-168.007 280.856,-161.628"/>
</g>
<!-- Node13 -->
<g id="node13" class="node"><title>Node13</title>
<g id="a_node13"><a xlink:href="classhypro_1_1_c_i_f_expr_visitor.html" target="_top" xlink:title="hypro::CIFExprVisitor\l\&lt; Number \&gt;">
<polygon fill="white" stroke="black" points="597.5,-98.5 597.5,-128.5 712.5,-128.5 712.5,-98.5 597.5,-98.5"/>
<text text-anchor="start" x="605.5" y="-116.5" font-family="Helvetica,sans-Serif" font-size="10.00">hypro::CIFExprVisitor</text>
<text text-anchor="middle" x="655" y="-105.5" font-family="Helvetica,sans-Serif" font-size="10.00">&lt; Number &gt;</text>
</a>
</g>
</g>
<!-- Node12&#45;&gt;Node13 -->
<g id="edge12" class="edge"><title>Node12&#45;&gt;Node13</title>
<path fill="none" stroke="midnightblue" d="M538.28,-98.3427C558.181,-100.949 578.991,-103.675 597.388,-106.085"/>
<polygon fill="midnightblue" stroke="midnightblue" points="538.657,-94.8623 528.287,-97.0338 537.748,-101.803 538.657,-94.8623"/>
</g>
<!-- Node14 -->
<g id="node14" class="node"><title>Node14</title>
<g id="a_node14"><a xlink:href="classhypro_1_1_c_i_f_loc_visitor.html" target="_top" xlink:title="hypro::CIFLocVisitor\l\&lt; Number \&gt;">
<polygon fill="white" stroke="black" points="600,-49.5 600,-79.5 710,-79.5 710,-49.5 600,-49.5"/>
<text text-anchor="start" x="608" y="-67.5" font-family="Helvetica,sans-Serif" font-size="10.00">hypro::CIFLocVisitor</text>
<text text-anchor="middle" x="655" y="-56.5" font-family="Helvetica,sans-Serif" font-size="10.00">&lt; Number &gt;</text>
</a>
</g>
</g>
<!-- Node12&#45;&gt;Node14 -->
<g id="edge13" class="edge"><title>Node12&#45;&gt;Node14</title>
<path fill="none" stroke="midnightblue" d="M548.08,-76.7729C565.845,-74.7145 583.896,-72.6229 599.943,-70.7635"/>
<polygon fill="midnightblue" stroke="midnightblue" points="547.201,-73.3512 537.67,-77.979 548.007,-80.3047 547.201,-73.3512"/>
</g>
<!-- Node15 -->
<g id="node15" class="node"><title>Node15</title>
<g id="a_node15"><a xlink:href="classhypro_1_1_hybrid_c_i_f_visitor.html" target="_top" xlink:title="hypro::HybridCIFVisitor\l\&lt; Number \&gt;">
<polygon fill="white" stroke="black" points="592.5,-0.5 592.5,-30.5 717.5,-30.5 717.5,-0.5 592.5,-0.5"/>
<text text-anchor="start" x="600.5" y="-18.5" font-family="Helvetica,sans-Serif" font-size="10.00">hypro::HybridCIFVisitor</text>
<text text-anchor="middle" x="655" y="-7.5" font-family="Helvetica,sans-Serif" font-size="10.00">&lt; Number &gt;</text>
</a>
</g>
</g>
<!-- Node12&#45;&gt;Node15 -->
<g id="edge14" class="edge"><title>Node12&#45;&gt;Node15</title>
<path fill="none" stroke="midnightblue" d="M487.323,-74.01C511.464,-63.9755 545.573,-50.2217 576,-39.5 584.686,-36.4393 593.989,-33.3857 603.037,-30.5328"/>
<polygon fill="midnightblue" stroke="midnightblue" points="485.824,-70.8427 477.948,-77.9282 488.524,-77.3013 485.824,-70.8427"/>
</g>
</g>
</svg>
