<?xml version="1.0" encoding="UTF-8" standalone="no"?>
<!DOCTYPE svg PUBLIC "-//W3C//DTD SVG 1.1//EN"
 "http://www.w3.org/Graphics/SVG/1.1/DTD/svg11.dtd">
<!-- Generated by graphviz version 2.38.0 (20140413.2041)
 -->
<!-- Title: Graphical Class Hierarchy Pages: 1 -->
<svg width="376pt" height="88pt"
 viewBox="0.00 0.00 376.00 88.00" xmlns="http://www.w3.org/2000/svg" xmlns:xlink="http://www.w3.org/1999/xlink">
<g id="graph0" class="graph" transform="scale(1 1) rotate(0) translate(4 84)">
<title>Graphical Class Hierarchy</title>
<polygon fill="white" stroke="none" points="-4,4 -4,-84 372,-84 372,4 -4,4"/>
<!-- Node1 -->
<g id="node1" class="node"><title>Node1</title>
<g id="a_node1"><a xlink:href="classhypro_1_1lti_first_segment_handler.html" target="_top" xlink:title="hypro::ltiFirstSegmentHandler\l\&lt; State \&gt;">
<polygon fill="white" stroke="black" points="0,-24.5 0,-54.5 159,-54.5 159,-24.5 0,-24.5"/>
<text text-anchor="start" x="8" y="-42.5" font-family="Helvetica,sans-Serif" font-size="10.00">hypro::ltiFirstSegmentHandler</text>
<text text-anchor="middle" x="79.5" y="-31.5" font-family="Helvetica,sans-Serif" font-size="10.00">&lt; State &gt;</text>
</a>
</g>
</g>
<!-- Node2 -->
<g id="node2" class="node"><title>Node2</title>
<g id="a_node2"><a xlink:href="classhypro_1_1timed_elapse_first_segment_handler.html" target="_top" xlink:title="hypro::timedElapseFirstSegment\lHandler\&lt; State \&gt;">
<polygon fill="white" stroke="black" points="195,-49.5 195,-79.5 368,-79.5 368,-49.5 195,-49.5"/>
<text text-anchor="start" x="203" y="-67.5" font-family="Helvetica,sans-Serif" font-size="10.00">hypro::timedElapseFirstSegment</text>
<text text-anchor="middle" x="281.5" y="-56.5" font-family="Helvetica,sans-Serif" font-size="10.00">Handler&lt; State &gt;</text>
</a>
</g>
</g>
<!-- Node1&#45;&gt;Node2 -->
<g id="edge1" class="edge"><title>Node1&#45;&gt;Node2</title>
<path fill="none" stroke="midnightblue" d="M169.208,-50.5885C177.741,-51.6551 186.384,-52.7355 194.886,-53.7982"/>
<polygon fill="midnightblue" stroke="midnightblue" points="169.615,-47.1122 159.258,-49.3448 168.747,-54.0582 169.615,-47.1122"/>
</g>
<!-- Node3 -->
<g id="node3" class="node"><title>Node3</title>
<g id="a_node3"><a xlink:href="classhypro_1_1timed_first_segment_handler.html" target="_top" xlink:title="hypro::timedFirstSegment\lHandler\&lt; State \&gt;">
<polygon fill="white" stroke="black" points="211,-0.5 211,-30.5 352,-30.5 352,-0.5 211,-0.5"/>
<text text-anchor="start" x="219" y="-18.5" font-family="Helvetica,sans-Serif" font-size="10.00">hypro::timedFirstSegment</text>
<text text-anchor="middle" x="281.5" y="-7.5" font-family="Helvetica,sans-Serif" font-size="10.00">Handler&lt; State &gt;</text>
</a>
</g>
</g>
<!-- Node1&#45;&gt;Node3 -->
<g id="edge2" class="edge"><title>Node1&#45;&gt;Node3</title>
<path fill="none" stroke="midnightblue" d="M169.333,-28.84C183.262,-27.1686 197.483,-25.462 210.898,-23.8522"/>
<polygon fill="midnightblue" stroke="midnightblue" points="168.77,-25.3824 159.258,-30.049 169.604,-32.3325 168.77,-25.3824"/>
</g>
</g>
</svg>
