<?xml version="1.0" encoding="UTF-8" standalone="no"?>
<!DOCTYPE svg PUBLIC "-//W3C//DTD SVG 1.1//EN"
 "http://www.w3.org/Graphics/SVG/1.1/DTD/svg11.dtd">
<!-- Generated by graphviz version 2.38.0 (20140413.2041)
 -->
<!-- Title: Graphical Class Hierarchy Pages: 1 -->
<svg width="409pt" height="50pt"
 viewBox="0.00 0.00 409.00 50.00" xmlns="http://www.w3.org/2000/svg" xmlns:xlink="http://www.w3.org/1999/xlink">
<g id="graph0" class="graph" transform="scale(1 1) rotate(0) translate(4 46)">
<title>Graphical Class Hierarchy</title>
<polygon fill="white" stroke="none" points="-4,4 -4,-46 405,-46 405,4 -4,4"/>
<!-- Node1 -->
<g id="node1" class="node"><title>Node1</title>
<g id="a_node1"><a xlink:href="classhypro_1_1GeometricObject.html" target="_top" xlink:title="hypro::GeometricObject\l\&lt; Number, SupportFunctionNew\lT\&lt; Number, Converter, Setting \&gt; \&gt;">
<polygon fill="white" stroke="black" points="0,-0.5 0,-41.5 188,-41.5 188,-0.5 0,-0.5"/>
<text text-anchor="start" x="8" y="-29.5" font-family="Helvetica,sans-Serif" font-size="10.00">hypro::GeometricObject</text>
<text text-anchor="start" x="8" y="-18.5" font-family="Helvetica,sans-Serif" font-size="10.00">&lt; Number, SupportFunctionNew</text>
<text text-anchor="middle" x="94" y="-7.5" font-family="Helvetica,sans-Serif" font-size="10.00">T&lt; Number, Converter, Setting &gt; &gt;</text>
</a>
</g>
</g>
<!-- Node2 -->
<g id="node2" class="node"><title>Node2</title>
<g id="a_node2"><a xlink:href="classhypro_1_1SupportFunctionNewT.html" target="_top" xlink:title="The class which represents a SupportFunctionNew. ">
<polygon fill="white" stroke="black" points="224,-6 224,-36 401,-36 401,-6 224,-6"/>
<text text-anchor="start" x="232" y="-24" font-family="Helvetica,sans-Serif" font-size="10.00">hypro::SupportFunctionNew</text>
<text text-anchor="middle" x="312.5" y="-13" font-family="Helvetica,sans-Serif" font-size="10.00">T&lt; Number, Converter, Setting &gt;</text>
</a>
</g>
</g>
<!-- Node1&#45;&gt;Node2 -->
<g id="edge1" class="edge"><title>Node1&#45;&gt;Node2</title>
<path fill="none" stroke="midnightblue" d="M198.175,-21C206.809,-21 215.487,-21 223.987,-21"/>
<polygon fill="midnightblue" stroke="midnightblue" points="198.072,-17.5001 188.072,-21 198.072,-24.5001 198.072,-17.5001"/>
</g>
</g>
</svg>
