<?xml version="1.0" encoding="UTF-8" standalone="no"?>
<!DOCTYPE svg PUBLIC "-//W3C//DTD SVG 1.1//EN"
 "http://www.w3.org/Graphics/SVG/1.1/DTD/svg11.dtd">
<!-- Generated by graphviz version 2.38.0 (20140413.2041)
 -->
<!-- Title: Graphical Class Hierarchy Pages: 1 -->
<svg width="253pt" height="362pt"
 viewBox="0.00 0.00 253.00 361.50" xmlns="http://www.w3.org/2000/svg" xmlns:xlink="http://www.w3.org/1999/xlink">
<g id="graph0" class="graph" transform="scale(1 1) rotate(0) translate(4 357.5)">
<title>Graphical Class Hierarchy</title>
<polygon fill="white" stroke="none" points="-4,4 -4,-357.5 249,-357.5 249,4 -4,4"/>
<!-- Node1 -->
<g id="node1" class="node"><title>Node1</title>
<polygon fill="white" stroke="#bfbfbf" points="0,-156.5 0,-175.5 62,-175.5 62,-156.5 0,-156.5"/>
<text text-anchor="middle" x="31" y="-163.5" font-family="Helvetica,sans-Serif" font-size="10.00">Singleton</text>
</g>
<!-- Node2 -->
<g id="node2" class="node"><title>Node2</title>
<g id="a_node2"><a xlink:href="classhypro_1_1ContextFactory.html" target="_top" xlink:title="hypro::ContextFactory\l\&lt; State \&gt;">
<polygon fill="white" stroke="black" points="110.5,-323 110.5,-353 232.5,-353 232.5,-323 110.5,-323"/>
<text text-anchor="start" x="118.5" y="-341" font-family="Helvetica,sans-Serif" font-size="10.00">hypro::ContextFactory</text>
<text text-anchor="middle" x="171.5" y="-330" font-family="Helvetica,sans-Serif" font-size="10.00">&lt; State &gt;</text>
</a>
</g>
</g>
<!-- Node1&#45;&gt;Node2 -->
<g id="edge1" class="edge"><title>Node1&#45;&gt;Node2</title>
<path fill="none" stroke="midnightblue" d="M35.4817,-185.651C42.0791,-217.172 59.3551,-279.031 98,-314 101.834,-317.469 106.183,-320.439 110.8,-322.98"/>
<polygon fill="midnightblue" stroke="midnightblue" points="38.856,-184.667 33.5145,-175.517 31.9843,-186.001 38.856,-184.667"/>
</g>
<!-- Node3 -->
<g id="node3" class="node"><title>Node3</title>
<g id="a_node3"><a xlink:href="classhypro_1_1DecisionEntity.html" target="_top" xlink:title="hypro::DecisionEntity\l\&lt; Number \&gt;">
<polygon fill="white" stroke="black" points="113,-274 113,-304 230,-304 230,-274 113,-274"/>
<text text-anchor="start" x="121" y="-292" font-family="Helvetica,sans-Serif" font-size="10.00">hypro::DecisionEntity</text>
<text text-anchor="middle" x="171.5" y="-281" font-family="Helvetica,sans-Serif" font-size="10.00">&lt; Number &gt;</text>
</a>
</g>
</g>
<!-- Node1&#45;&gt;Node3 -->
<g id="edge2" class="edge"><title>Node1&#45;&gt;Node3</title>
<path fill="none" stroke="midnightblue" d="M40.0296,-185.118C50.3174,-207.385 70.2015,-243.813 98,-265 102.534,-268.456 107.591,-271.428 112.866,-273.981"/>
<polygon fill="midnightblue" stroke="midnightblue" points="43.1184,-183.449 35.8705,-175.721 36.7174,-186.282 43.1184,-183.449"/>
</g>
<!-- Node4 -->
<g id="node4" class="node"><title>Node4</title>
<g id="a_node4"><a xlink:href="classhypro_1_1EventTimingProvider.html" target="_top" xlink:title="hypro::EventTimingProvider\l\&lt; Number \&gt;">
<polygon fill="white" stroke="black" points="98,-225 98,-255 245,-255 245,-225 98,-225"/>
<text text-anchor="start" x="106" y="-243" font-family="Helvetica,sans-Serif" font-size="10.00">hypro::EventTimingProvider</text>
<text text-anchor="middle" x="171.5" y="-232" font-family="Helvetica,sans-Serif" font-size="10.00">&lt; Number &gt;</text>
</a>
</g>
</g>
<!-- Node1&#45;&gt;Node4 -->
<g id="edge3" class="edge"><title>Node1&#45;&gt;Node4</title>
<path fill="none" stroke="midnightblue" d="M50.3641,-182.545C63.0209,-193.26 80.6317,-206.869 98,-216 104.337,-219.332 111.227,-222.326 118.154,-224.976"/>
<polygon fill="midnightblue" stroke="midnightblue" points="52.3026,-179.593 42.457,-175.679 47.7131,-184.878 52.3026,-179.593"/>
</g>
<!-- Node5 -->
<g id="node5" class="node"><title>Node5</title>
<g id="a_node5"><a xlink:href="classhypro_1_1HandlerFactory.html" target="_top" xlink:title="hypro::HandlerFactory\l\&lt; State \&gt;">
<polygon fill="white" stroke="black" points="110.5,-176 110.5,-206 232.5,-206 232.5,-176 110.5,-176"/>
<text text-anchor="start" x="118.5" y="-194" font-family="Helvetica,sans-Serif" font-size="10.00">hypro::HandlerFactory</text>
<text text-anchor="middle" x="171.5" y="-183" font-family="Helvetica,sans-Serif" font-size="10.00">&lt; State &gt;</text>
</a>
</g>
</g>
<!-- Node1&#45;&gt;Node5 -->
<g id="edge4" class="edge"><title>Node1&#45;&gt;Node5</title>
<path fill="none" stroke="midnightblue" d="M72.1337,-173.244C84.0715,-175.399 97.4207,-177.809 110.34,-180.141"/>
<polygon fill="midnightblue" stroke="midnightblue" points="72.5152,-169.757 62.0524,-171.425 71.2717,-176.645 72.5152,-169.757"/>
</g>
<!-- Node6 -->
<g id="node6" class="node"><title>Node6</title>
<g id="a_node6"><a xlink:href="classhypro_1_1NodeManager.html" target="_top" xlink:title="hypro::NodeManager\l\&lt; State \&gt;">
<polygon fill="white" stroke="black" points="113,-127 113,-157 230,-157 230,-127 113,-127"/>
<text text-anchor="start" x="121" y="-145" font-family="Helvetica,sans-Serif" font-size="10.00">hypro::NodeManager</text>
<text text-anchor="middle" x="171.5" y="-134" font-family="Helvetica,sans-Serif" font-size="10.00">&lt; State &gt;</text>
</a>
</g>
</g>
<!-- Node1&#45;&gt;Node6 -->
<g id="edge5" class="edge"><title>Node1&#45;&gt;Node6</title>
<path fill="none" stroke="midnightblue" d="M72.2841,-159.019C84.9648,-156.822 99.2261,-154.351 112.868,-151.987"/>
<polygon fill="midnightblue" stroke="midnightblue" points="71.308,-155.636 62.0524,-160.792 72.5032,-162.533 71.308,-155.636"/>
</g>
<!-- Node7 -->
<g id="node7" class="node"><title>Node7</title>
<g id="a_node7"><a xlink:href="classhypro_1_1Plotter.html" target="_top" xlink:title="Class implementing a plotter. The plotter is implemented using carl::Singleton. ">
<polygon fill="white" stroke="black" points="100,-88.5 100,-107.5 243,-107.5 243,-88.5 100,-88.5"/>
<text text-anchor="middle" x="171.5" y="-95.5" font-family="Helvetica,sans-Serif" font-size="10.00">hypro::Plotter&lt; Number &gt;</text>
</a>
</g>
</g>
<!-- Node1&#45;&gt;Node7 -->
<g id="edge6" class="edge"><title>Node1&#45;&gt;Node7</title>
<path fill="none" stroke="midnightblue" d="M50.782,-149.502C63.3892,-139.173 80.7846,-126.294 98,-118 106.705,-113.806 116.435,-110.366 125.87,-107.594"/>
<polygon fill="midnightblue" stroke="midnightblue" points="48.2732,-147.039 42.8801,-156.159 52.7831,-152.393 48.2732,-147.039"/>
</g>
<!-- Node8 -->
<g id="node8" class="node"><title>Node8</title>
<g id="a_node8"><a xlink:href="classhypro_1_1SettingsProvider.html" target="_top" xlink:title="hypro::SettingsProvider\l\&lt; State \&gt;">
<polygon fill="white" stroke="black" points="107.5,-39 107.5,-69 235.5,-69 235.5,-39 107.5,-39"/>
<text text-anchor="start" x="115.5" y="-57" font-family="Helvetica,sans-Serif" font-size="10.00">hypro::SettingsProvider</text>
<text text-anchor="middle" x="171.5" y="-46" font-family="Helvetica,sans-Serif" font-size="10.00">&lt; State &gt;</text>
</a>
</g>
</g>
<!-- Node1&#45;&gt;Node8 -->
<g id="edge7" class="edge"><title>Node1&#45;&gt;Node8</title>
<path fill="none" stroke="midnightblue" d="M41.6386,-147.525C52.7549,-127.908 72.7822,-97.2684 98,-79 103.283,-75.1727 109.2,-71.8946 115.315,-69.0957"/>
<polygon fill="midnightblue" stroke="midnightblue" points="38.5072,-145.956 36.7853,-156.41 44.6506,-149.312 38.5072,-145.956"/>
</g>
<!-- Node9 -->
<g id="node9" class="node"><title>Node9</title>
<g id="a_node9"><a xlink:href="classhypro_1_1VariablePool.html" target="_top" xlink:title="hypro::VariablePool">
<polygon fill="white" stroke="black" points="117.5,-0.5 117.5,-19.5 225.5,-19.5 225.5,-0.5 117.5,-0.5"/>
<text text-anchor="middle" x="171.5" y="-7.5" font-family="Helvetica,sans-Serif" font-size="10.00">hypro::VariablePool</text>
</a>
</g>
</g>
<!-- Node1&#45;&gt;Node9 -->
<g id="edge8" class="edge"><title>Node1&#45;&gt;Node9</title>
<path fill="none" stroke="midnightblue" d="M36.0737,-146.462C43.2858,-116.811 61.1516,-60.6656 98,-30 103.62,-25.3228 110.251,-21.7348 117.181,-18.9833"/>
<polygon fill="midnightblue" stroke="midnightblue" points="32.6138,-145.894 33.8139,-156.42 39.4402,-147.443 32.6138,-145.894"/>
</g>
</g>
</svg>
