<?xml version="1.0" encoding="UTF-8" standalone="no"?>
<!DOCTYPE svg PUBLIC "-//W3C//DTD SVG 1.1//EN"
 "http://www.w3.org/Graphics/SVG/1.1/DTD/svg11.dtd">
<!-- Generated by graphviz version 2.38.0 (20140413.2041)
 -->
<!-- Title: Graphical Class Hierarchy Pages: 1 -->
<svg width="376pt" height="549pt"
 viewBox="0.00 0.00 376.00 549.00" xmlns="http://www.w3.org/2000/svg" xmlns:xlink="http://www.w3.org/1999/xlink">
<g id="graph0" class="graph" transform="scale(1 1) rotate(0) translate(4 545)">
<title>Graphical Class Hierarchy</title>
<polygon fill="white" stroke="none" points="-4,4 -4,-545 372,-545 372,4 -4,4"/>
<!-- Node1 -->
<g id="node1" class="node"><title>Node1</title>
<g id="a_node1"><a xlink:href="classhypro_1_1_geometric_object_base.html" target="_top" xlink:title="Purely virtual class defining a common interface for geometric objects. @{. ">
<polygon fill="white" stroke="black" points="0,-256 0,-275 155,-275 155,-256 0,-256"/>
<text text-anchor="middle" x="77.5" y="-263" font-family="Helvetica,sans-Serif" font-size="10.00">hypro::GeometricObjectBase</text>
</a>
</g>
</g>
<!-- Node2 -->
<g id="node2" class="node"><title>Node2</title>
<g id="a_node2"><a xlink:href="classhypro_1_1_box_t.html" target="_top" xlink:title="hypro::BoxT\&lt; Number,\l hypro::Converter, Setting \&gt;">
<polygon fill="white" stroke="black" points="203.5,-510.5 203.5,-540.5 355.5,-540.5 355.5,-510.5 203.5,-510.5"/>
<text text-anchor="start" x="211.5" y="-528.5" font-family="Helvetica,sans-Serif" font-size="10.00">hypro::BoxT&lt; Number,</text>
<text text-anchor="middle" x="279.5" y="-517.5" font-family="Helvetica,sans-Serif" font-size="10.00"> hypro::Converter, Setting &gt;</text>
</a>
</g>
</g>
<!-- Node1&#45;&gt;Node2 -->
<g id="edge1" class="edge"><title>Node1&#45;&gt;Node2</title>
<path fill="none" stroke="#8b1a1a" d="M82.1632,-285.412C91.5935,-330.889 121.047,-442.957 191,-501.5 195.107,-504.937 199.667,-507.885 204.486,-510.412"/>
<polygon fill="#8b1a1a" stroke="#8b1a1a" points="85.5498,-284.494 80.1846,-275.358 78.6815,-285.846 85.5498,-284.494"/>
</g>
<!-- Node3 -->
<g id="node3" class="node"><title>Node3</title>
<g id="a_node3"><a xlink:href="classhypro_1_1_box_t.html" target="_top" xlink:title="The class which represents a box. ">
<polygon fill="white" stroke="black" points="216.5,-461.5 216.5,-491.5 342.5,-491.5 342.5,-461.5 216.5,-461.5"/>
<text text-anchor="start" x="224.5" y="-479.5" font-family="Helvetica,sans-Serif" font-size="10.00">hypro::BoxT&lt; Number,</text>
<text text-anchor="middle" x="279.5" y="-468.5" font-family="Helvetica,sans-Serif" font-size="10.00"> Converter, Setting &gt;</text>
</a>
</g>
</g>
<!-- Node1&#45;&gt;Node3 -->
<g id="edge2" class="edge"><title>Node1&#45;&gt;Node3</title>
<path fill="none" stroke="#8b1a1a" d="M84.8193,-285.362C98.0661,-323.727 132.459,-408.14 191,-452.5 198.533,-458.208 207.341,-462.559 216.413,-465.875"/>
<polygon fill="#8b1a1a" stroke="#8b1a1a" points="87.9921,-283.812 81.5117,-275.43 81.3507,-286.024 87.9921,-283.812"/>
</g>
<!-- Node4 -->
<g id="node4" class="node"><title>Node4</title>
<g id="a_node4"><a xlink:href="classhypro_1_1_carl_polytope_t.html" target="_top" xlink:title="Class for representing polytopes as CArL&#45;formulas. ">
<polygon fill="white" stroke="black" points="218,-402 218,-443 341,-443 341,-402 218,-402"/>
<text text-anchor="start" x="226" y="-431" font-family="Helvetica,sans-Serif" font-size="10.00">hypro::CarlPolytopeT</text>
<text text-anchor="start" x="226" y="-420" font-family="Helvetica,sans-Serif" font-size="10.00">&lt; Number, Converter,</text>
<text text-anchor="middle" x="279.5" y="-409" font-family="Helvetica,sans-Serif" font-size="10.00"> Setting &gt;</text>
</a>
</g>
</g>
<!-- Node1&#45;&gt;Node4 -->
<g id="edge3" class="edge"><title>Node1&#45;&gt;Node4</title>
<path fill="none" stroke="#8b1a1a" d="M89.8676,-283.73C107.982,-311.34 145.986,-363.692 191,-393.5 199.139,-398.89 208.368,-403.358 217.704,-407.037"/>
<polygon fill="#8b1a1a" stroke="#8b1a1a" points="92.6582,-281.598 84.3107,-275.074 86.7674,-285.38 92.6582,-281.598"/>
</g>
<!-- Node5 -->
<g id="node5" class="node"><title>Node5</title>
<g id="a_node5"><a xlink:href="classhypro_1_1_difference_bounds_t.html" target="_top" xlink:title="Class wrapping the difference bounds content. ">
<polygon fill="white" stroke="black" points="193.5,-353.5 193.5,-383.5 365.5,-383.5 365.5,-353.5 193.5,-353.5"/>
<text text-anchor="start" x="201.5" y="-371.5" font-family="Helvetica,sans-Serif" font-size="10.00">hypro::DifferenceBoundsT</text>
<text text-anchor="middle" x="279.5" y="-360.5" font-family="Helvetica,sans-Serif" font-size="10.00">&lt; Number, Converter, Setting &gt;</text>
</a>
</g>
</g>
<!-- Node1&#45;&gt;Node5 -->
<g id="edge4" class="edge"><title>Node1&#45;&gt;Node5</title>
<path fill="none" stroke="#8b1a1a" d="M97.1584,-281.681C118.508,-299.429 155.162,-327.63 191,-344.5 198.126,-347.854 205.806,-350.814 213.552,-353.405"/>
<polygon fill="#8b1a1a" stroke="#8b1a1a" points="99.4016,-278.994 89.5033,-275.216 94.8852,-284.342 99.4016,-278.994"/>
</g>
<!-- Node6 -->
<g id="node6" class="node"><title>Node6</title>
<g id="a_node6"><a xlink:href="classhypro_1_1_generalized_star_t.html" target="_top" xlink:title="The class which represents a GeneralizedStar. ">
<polygon fill="white" stroke="black" points="193.5,-304.5 193.5,-334.5 365.5,-334.5 365.5,-304.5 193.5,-304.5"/>
<text text-anchor="start" x="201.5" y="-322.5" font-family="Helvetica,sans-Serif" font-size="10.00">hypro::GeneralizedStarT</text>
<text text-anchor="middle" x="279.5" y="-311.5" font-family="Helvetica,sans-Serif" font-size="10.00">&lt; Number, Converter, Setting &gt;</text>
</a>
</g>
</g>
<!-- Node1&#45;&gt;Node6 -->
<g id="edge5" class="edge"><title>Node1&#45;&gt;Node6</title>
<path fill="none" stroke="#8b1a1a" d="M123.773,-277.724C153.128,-285.65 191.575,-296.03 222.8,-304.461"/>
<polygon fill="#8b1a1a" stroke="#8b1a1a" points="124.362,-274.258 113.796,-275.03 122.538,-281.016 124.362,-274.258"/>
</g>
<!-- Node7 -->
<g id="node7" class="node"><title>Node7</title>
<g id="a_node7"><a xlink:href="classhypro_1_1_h_polytope_t.html" target="_top" xlink:title="Class for a H&#45;polytope. ">
<polygon fill="white" stroke="black" points="222,-245 222,-286 337,-286 337,-245 222,-245"/>
<text text-anchor="start" x="230" y="-274" font-family="Helvetica,sans-Serif" font-size="10.00">hypro::HPolytopeT&lt;</text>
<text text-anchor="start" x="230" y="-263" font-family="Helvetica,sans-Serif" font-size="10.00"> Number, Converter,</text>
<text text-anchor="middle" x="279.5" y="-252" font-family="Helvetica,sans-Serif" font-size="10.00"> Setting &gt;</text>
</a>
</g>
</g>
<!-- Node1&#45;&gt;Node7 -->
<g id="edge6" class="edge"><title>Node1&#45;&gt;Node7</title>
<path fill="none" stroke="#8b1a1a" d="M165.468,-265.5C184.561,-265.5 204.298,-265.5 221.832,-265.5"/>
<polygon fill="#8b1a1a" stroke="#8b1a1a" points="165.253,-262 155.253,-265.5 165.253,-269 165.253,-262"/>
</g>
<!-- Node8 -->
<g id="node8" class="node"><title>Node8</title>
<g id="a_node8"><a xlink:href="classhypro_1_1_statistic_wrapper.html" target="_top" xlink:title="Wrapper class which allows to create traces of operations on state set representations. ">
<polygon fill="white" stroke="black" points="215.5,-196.5 215.5,-226.5 343.5,-226.5 343.5,-196.5 215.5,-196.5"/>
<text text-anchor="start" x="223.5" y="-214.5" font-family="Helvetica,sans-Serif" font-size="10.00">hypro::StatisticWrapper</text>
<text text-anchor="middle" x="279.5" y="-203.5" font-family="Helvetica,sans-Serif" font-size="10.00">&lt; Representation &gt;</text>
</a>
</g>
</g>
<!-- Node1&#45;&gt;Node8 -->
<g id="edge7" class="edge"><title>Node1&#45;&gt;Node8</title>
<path fill="none" stroke="#8b1a1a" d="M123.773,-253.276C153.128,-245.35 191.575,-234.97 222.8,-226.539"/>
<polygon fill="#8b1a1a" stroke="#8b1a1a" points="122.538,-249.984 113.796,-255.97 124.362,-256.742 122.538,-249.984"/>
</g>
<!-- Node9 -->
<g id="node9" class="node"><title>Node9</title>
<g id="a_node9"><a xlink:href="classhypro_1_1_support_function_new_t.html" target="_top" xlink:title="The class which represents a SupportFunctionNew. ">
<polygon fill="white" stroke="black" points="191,-147.5 191,-177.5 368,-177.5 368,-147.5 191,-147.5"/>
<text text-anchor="start" x="199" y="-165.5" font-family="Helvetica,sans-Serif" font-size="10.00">hypro::SupportFunctionNew</text>
<text text-anchor="middle" x="279.5" y="-154.5" font-family="Helvetica,sans-Serif" font-size="10.00">T&lt; Number, Converter, Setting &gt;</text>
</a>
</g>
</g>
<!-- Node1&#45;&gt;Node9 -->
<g id="edge8" class="edge"><title>Node1&#45;&gt;Node9</title>
<path fill="none" stroke="#8b1a1a" d="M97.5133,-249.376C118.965,-231.913 155.508,-204.307 191,-187.5 198.996,-183.713 207.681,-180.387 216.37,-177.501"/>
<polygon fill="#8b1a1a" stroke="#8b1a1a" points="95.025,-246.892 89.5484,-255.961 99.4855,-252.286 95.025,-246.892"/>
</g>
<!-- Node10 -->
<g id="node10" class="node"><title>Node10</title>
<g id="a_node10"><a xlink:href="classhypro_1_1_support_function_t.html" target="_top" xlink:title="Class wrapping the support function content. ">
<polygon fill="white" stroke="black" points="193.5,-98.5 193.5,-128.5 365.5,-128.5 365.5,-98.5 193.5,-98.5"/>
<text text-anchor="start" x="201.5" y="-116.5" font-family="Helvetica,sans-Serif" font-size="10.00">hypro::SupportFunctionT</text>
<text text-anchor="middle" x="279.5" y="-105.5" font-family="Helvetica,sans-Serif" font-size="10.00">&lt; Number, Converter, Setting &gt;</text>
</a>
</g>
</g>
<!-- Node1&#45;&gt;Node10 -->
<g id="edge9" class="edge"><title>Node1&#45;&gt;Node10</title>
<path fill="none" stroke="#8b1a1a" d="M89.752,-247.183C107.714,-219.485 145.519,-167.147 191,-138.5 197.149,-134.627 203.914,-131.338 210.874,-128.55"/>
<polygon fill="#8b1a1a" stroke="#8b1a1a" points="86.6416,-245.552 84.2461,-255.873 92.5547,-249.299 86.6416,-245.552"/>
</g>
<!-- Node11 -->
<g id="node11" class="node"><title>Node11</title>
<g id="a_node11"><a xlink:href="classhypro_1_1_v_polytope_t.html" target="_top" xlink:title="The class implementing the vertex representation of a convex polytope. ">
<polygon fill="white" stroke="black" points="211.5,-49.5 211.5,-79.5 347.5,-79.5 347.5,-49.5 211.5,-49.5"/>
<text text-anchor="start" x="219.5" y="-67.5" font-family="Helvetica,sans-Serif" font-size="10.00">hypro::VPolytopeT&lt;</text>
<text text-anchor="middle" x="279.5" y="-56.5" font-family="Helvetica,sans-Serif" font-size="10.00"> Number, Converter, S &gt;</text>
</a>
</g>
</g>
<!-- Node1&#45;&gt;Node11 -->
<g id="edge10" class="edge"><title>Node1&#45;&gt;Node11</title>
<path fill="none" stroke="#8b1a1a" d="M85.3982,-246.339C99.4477,-210.073 134.882,-131.298 191,-89.5 197.082,-84.9701 203.959,-81.2601 211.12,-78.2216"/>
<polygon fill="#8b1a1a" stroke="#8b1a1a" points="82.0996,-245.167 81.8634,-255.759 88.6534,-247.626 82.0996,-245.167"/>
</g>
<!-- Node12 -->
<g id="node12" class="node"><title>Node12</title>
<g id="a_node12"><a xlink:href="classhypro_1_1_zonotope_t.html" target="_top" xlink:title="Class for Zonotopes. ">
<polygon fill="white" stroke="black" points="202,-0.5 202,-30.5 357,-30.5 357,-0.5 202,-0.5"/>
<text text-anchor="start" x="210" y="-18.5" font-family="Helvetica,sans-Serif" font-size="10.00">hypro::ZonotopeT&lt; Number,</text>
<text text-anchor="middle" x="279.5" y="-7.5" font-family="Helvetica,sans-Serif" font-size="10.00"> Converter, Setting &gt;</text>
</a>
</g>
</g>
<!-- Node1&#45;&gt;Node12 -->
<g id="edge11" class="edge"><title>Node1&#45;&gt;Node12</title>
<path fill="none" stroke="#8b1a1a" d="M82.7042,-245.671C93.0458,-201.835 123.913,-96.1774 191,-40.5 195.62,-36.6659 200.796,-33.4192 206.262,-30.67"/>
<polygon fill="#8b1a1a" stroke="#8b1a1a" points="79.2419,-245.115 80.4598,-255.639 86.0709,-246.652 79.2419,-245.115"/>
</g>
</g>
</svg>
