<?xml version="1.0" encoding="UTF-8" standalone="no"?>
<!DOCTYPE svg PUBLIC "-//W3C//DTD SVG 1.1//EN"
 "http://www.w3.org/Graphics/SVG/1.1/DTD/svg11.dtd">
<!-- Generated by graphviz version 2.38.0 (20140413.2041)
 -->
<!-- Title: Graphical Class Hierarchy Pages: 1 -->
<svg width="382pt" height="137pt"
 viewBox="0.00 0.00 382.00 137.00" xmlns="http://www.w3.org/2000/svg" xmlns:xlink="http://www.w3.org/1999/xlink">
<g id="graph0" class="graph" transform="scale(1 1) rotate(0) translate(4 133)">
<title>Graphical Class Hierarchy</title>
<polygon fill="white" stroke="none" points="-4,4 -4,-133 378,-133 378,4 -4,4"/>
<!-- Node1 -->
<g id="node1" class="node"><title>Node1</title>
<g id="a_node1"><a xlink:href="classhypro_1_1lti_time_evolution_handler.html" target="_top" xlink:title="hypro::ltiTimeEvolutionHandler\l\&lt; State \&gt;">
<polygon fill="white" stroke="black" points="0,-49.5 0,-79.5 162,-79.5 162,-49.5 0,-49.5"/>
<text text-anchor="start" x="8" y="-67.5" font-family="Helvetica,sans-Serif" font-size="10.00">hypro::ltiTimeEvolutionHandler</text>
<text text-anchor="middle" x="81" y="-56.5" font-family="Helvetica,sans-Serif" font-size="10.00">&lt; State &gt;</text>
</a>
</g>
</g>
<!-- Node2 -->
<g id="node2" class="node"><title>Node2</title>
<g id="a_node2"><a xlink:href="classhypro_1_1timed_elapse_after_tick_time_evolution_handler.html" target="_top" xlink:title="hypro::timedElapseAfterTick\lTimeEvolutionHandler\&lt; State \&gt;">
<polygon fill="white" stroke="black" points="201,-98.5 201,-128.5 371,-128.5 371,-98.5 201,-98.5"/>
<text text-anchor="start" x="209" y="-116.5" font-family="Helvetica,sans-Serif" font-size="10.00">hypro::timedElapseAfterTick</text>
<text text-anchor="middle" x="286" y="-105.5" font-family="Helvetica,sans-Serif" font-size="10.00">TimeEvolutionHandler&lt; State &gt;</text>
</a>
</g>
</g>
<!-- Node1&#45;&gt;Node2 -->
<g id="edge1" class="edge"><title>Node1&#45;&gt;Node2</title>
<path fill="none" stroke="midnightblue" d="M154.102,-81.9038C176.558,-87.3243 201.116,-93.252 222.832,-98.4938"/>
<polygon fill="midnightblue" stroke="midnightblue" points="154.828,-78.4788 144.286,-79.5346 153.186,-85.2834 154.828,-78.4788"/>
</g>
<!-- Node3 -->
<g id="node3" class="node"><title>Node3</title>
<g id="a_node3"><a xlink:href="classhypro_1_1timed_elapse_time_evolution_handler.html" target="_top" xlink:title="hypro::timedElapseTimeEvolution\lHandler\&lt; State \&gt;">
<polygon fill="white" stroke="black" points="198,-49.5 198,-79.5 374,-79.5 374,-49.5 198,-49.5"/>
<text text-anchor="start" x="206" y="-67.5" font-family="Helvetica,sans-Serif" font-size="10.00">hypro::timedElapseTimeEvolution</text>
<text text-anchor="middle" x="286" y="-56.5" font-family="Helvetica,sans-Serif" font-size="10.00">Handler&lt; State &gt;</text>
</a>
</g>
</g>
<!-- Node1&#45;&gt;Node3 -->
<g id="edge2" class="edge"><title>Node1&#45;&gt;Node3</title>
<path fill="none" stroke="midnightblue" d="M172.502,-64.5C180.977,-64.5 189.556,-64.5 197.999,-64.5"/>
<polygon fill="midnightblue" stroke="midnightblue" points="172.231,-61.0001 162.231,-64.5 172.231,-68.0001 172.231,-61.0001"/>
</g>
<!-- Node4 -->
<g id="node4" class="node"><title>Node4</title>
<g id="a_node4"><a xlink:href="classhypro_1_1timed_tick_time_evolution_handler.html" target="_top" xlink:title="hypro::timedTickTimeEvolution\lHandler\&lt; State \&gt;">
<polygon fill="white" stroke="black" points="205,-0.5 205,-30.5 367,-30.5 367,-0.5 205,-0.5"/>
<text text-anchor="start" x="213" y="-18.5" font-family="Helvetica,sans-Serif" font-size="10.00">hypro::timedTickTimeEvolution</text>
<text text-anchor="middle" x="286" y="-7.5" font-family="Helvetica,sans-Serif" font-size="10.00">Handler&lt; State &gt;</text>
</a>
</g>
</g>
<!-- Node1&#45;&gt;Node4 -->
<g id="edge3" class="edge"><title>Node1&#45;&gt;Node4</title>
<path fill="none" stroke="midnightblue" d="M154.102,-47.0962C176.558,-41.6757 201.116,-35.748 222.832,-30.5062"/>
<polygon fill="midnightblue" stroke="midnightblue" points="153.186,-43.7166 144.286,-49.4654 154.828,-50.5212 153.186,-43.7166"/>
</g>
</g>
</svg>
