<?xml version="1.0" encoding="UTF-8" standalone="no"?>
<!DOCTYPE svg PUBLIC "-//W3C//DTD SVG 1.1//EN"
 "http://www.w3.org/Graphics/SVG/1.1/DTD/svg11.dtd">
<!-- Generated by graphviz version 2.38.0 (20140413.2041)
 -->
<!-- Title: Graphical Class Hierarchy Pages: 1 -->
<svg width="684pt" height="382pt"
 viewBox="0.00 0.00 684.00 382.00" xmlns="http://www.w3.org/2000/svg" xmlns:xlink="http://www.w3.org/1999/xlink">
<g id="graph0" class="graph" transform="scale(1 1) rotate(0) translate(4 378)">
<title>Graphical Class Hierarchy</title>
<polygon fill="white" stroke="none" points="-4,4 -4,-378 680,-378 680,4 -4,4"/>
<!-- Node1 -->
<g id="node1" class="node"><title>Node1</title>
<g id="a_node1"><a xlink:href="classhypro_1_1IHandler.html" target="_top" xlink:title="hypro::IHandler">
<polygon fill="white" stroke="black" points="0,-207 0,-226 89,-226 89,-207 0,-207"/>
<text text-anchor="middle" x="44.5" y="-214" font-family="Helvetica,sans-Serif" font-size="10.00">hypro::IHandler</text>
</a>
</g>
</g>
<!-- Node2 -->
<g id="node2" class="node"><title>Node2</title>
<g id="a_node2"><a xlink:href="classhypro_1_1IBadStateHandler.html" target="_top" xlink:title="hypro::IBadStateHandler">
<polygon fill="white" stroke="black" points="136,-346 136,-365 270,-365 270,-346 136,-346"/>
<text text-anchor="middle" x="203" y="-353" font-family="Helvetica,sans-Serif" font-size="10.00">hypro::IBadStateHandler</text>
</a>
</g>
</g>
<!-- Node1&#45;&gt;Node2 -->
<g id="edge1" class="edge"><title>Node1&#45;&gt;Node2</title>
<path fill="none" stroke="midnightblue" d="M53.1281,-235.407C64.7005,-261.665 89.2019,-308.831 125,-334.5 131.756,-339.345 139.575,-343.072 147.588,-345.94"/>
<polygon fill="midnightblue" stroke="midnightblue" points="56.3316,-233.996 49.2069,-226.155 49.8866,-236.728 56.3316,-233.996"/>
</g>
<!-- Node4 -->
<g id="node4" class="node"><title>Node4</title>
<g id="a_node4"><a xlink:href="classhypro_1_1IFirstSegmentHandler.html" target="_top" xlink:title="hypro::IFirstSegmentHandler\l\&lt; State \&gt;">
<polygon fill="white" stroke="black" points="126.5,-294.5 126.5,-324.5 279.5,-324.5 279.5,-294.5 126.5,-294.5"/>
<text text-anchor="start" x="134.5" y="-312.5" font-family="Helvetica,sans-Serif" font-size="10.00">hypro::IFirstSegmentHandler</text>
<text text-anchor="middle" x="203" y="-301.5" font-family="Helvetica,sans-Serif" font-size="10.00">&lt; State &gt;</text>
</a>
</g>
</g>
<!-- Node1&#45;&gt;Node4 -->
<g id="edge3" class="edge"><title>Node1&#45;&gt;Node4</title>
<path fill="none" stroke="midnightblue" d="M61.3096,-233.811C76.3366,-249.328 100.259,-271.71 125,-285.5 130.993,-288.84 137.513,-291.781 144.138,-294.353"/>
<polygon fill="midnightblue" stroke="midnightblue" points="63.7192,-231.265 54.3051,-226.404 58.6332,-236.074 63.7192,-231.265"/>
</g>
<!-- Node6 -->
<g id="node6" class="node"><title>Node6</title>
<g id="a_node6"><a xlink:href="classhypro_1_1IGuardHandler.html" target="_top" xlink:title="hypro::IGuardHandler\l\&lt; State \&gt;">
<polygon fill="white" stroke="black" points="143.5,-245.5 143.5,-275.5 262.5,-275.5 262.5,-245.5 143.5,-245.5"/>
<text text-anchor="start" x="151.5" y="-263.5" font-family="Helvetica,sans-Serif" font-size="10.00">hypro::IGuardHandler</text>
<text text-anchor="middle" x="203" y="-252.5" font-family="Helvetica,sans-Serif" font-size="10.00">&lt; State &gt;</text>
</a>
</g>
</g>
<!-- Node1&#45;&gt;Node6 -->
<g id="edge5" class="edge"><title>Node1&#45;&gt;Node6</title>
<path fill="none" stroke="midnightblue" d="M89.2907,-228.812C107.635,-233.969 129.138,-240.015 148.415,-245.435"/>
<polygon fill="midnightblue" stroke="midnightblue" points="90.0323,-225.385 79.4582,-226.047 88.1376,-232.123 90.0323,-225.385"/>
</g>
<!-- Node8 -->
<g id="node8" class="node"><title>Node8</title>
<g id="a_node8"><a xlink:href="classhypro_1_1IInvariantHandler.html" target="_top" xlink:title="hypro::IInvariantHandler">
<polygon fill="white" stroke="black" points="137.5,-207 137.5,-226 268.5,-226 268.5,-207 137.5,-207"/>
<text text-anchor="middle" x="203" y="-214" font-family="Helvetica,sans-Serif" font-size="10.00">hypro::IInvariantHandler</text>
</a>
</g>
</g>
<!-- Node1&#45;&gt;Node8 -->
<g id="edge7" class="edge"><title>Node1&#45;&gt;Node8</title>
<path fill="none" stroke="midnightblue" d="M99.1594,-216.5C111.43,-216.5 124.598,-216.5 137.278,-216.5"/>
<polygon fill="midnightblue" stroke="midnightblue" points="99.094,-213 89.094,-216.5 99.0939,-220 99.094,-213"/>
</g>
<!-- Node10 -->
<g id="node10" class="node"><title>Node10</title>
<g id="a_node10"><a xlink:href="classhypro_1_1IJumpHandler.html" target="_top" xlink:title="hypro::IJumpHandler">
<polygon fill="white" stroke="black" points="146.5,-169 146.5,-188 259.5,-188 259.5,-169 146.5,-169"/>
<text text-anchor="middle" x="203" y="-176" font-family="Helvetica,sans-Serif" font-size="10.00">hypro::IJumpHandler</text>
</a>
</g>
</g>
<!-- Node1&#45;&gt;Node10 -->
<g id="edge9" class="edge"><title>Node1&#45;&gt;Node10</title>
<path fill="none" stroke="midnightblue" d="M94.7892,-204.532C116.72,-199.207 142.185,-193.024 162.792,-188.02"/>
<polygon fill="midnightblue" stroke="midnightblue" points="93.8833,-201.15 84.9916,-206.911 95.5351,-207.953 93.8833,-201.15"/>
</g>
<!-- Node11 -->
<g id="node11" class="node"><title>Node11</title>
<g id="a_node11"><a xlink:href="classhypro_1_1IResetHandler.html" target="_top" xlink:title="hypro::IResetHandler">
<polygon fill="white" stroke="black" points="145,-131 145,-150 261,-150 261,-131 145,-131"/>
<text text-anchor="middle" x="203" y="-138" font-family="Helvetica,sans-Serif" font-size="10.00">hypro::IResetHandler</text>
</a>
</g>
</g>
<!-- Node1&#45;&gt;Node11 -->
<g id="edge10" class="edge"><title>Node1&#45;&gt;Node11</title>
<path fill="none" stroke="midnightblue" d="M63.6665,-200.374C79.0139,-187.548 102.097,-170.059 125,-159.5 133.253,-155.695 142.368,-152.59 151.353,-150.075"/>
<polygon fill="midnightblue" stroke="midnightblue" points="61.3085,-197.785 55.9862,-206.946 65.8597,-203.103 61.3085,-197.785"/>
</g>
<!-- Node16 -->
<g id="node16" class="node"><title>Node16</title>
<g id="a_node16"><a xlink:href="classhypro_1_1ITimeEvolutionHandler.html" target="_top" xlink:title="hypro::ITimeEvolutionHandler">
<polygon fill="white" stroke="black" points="125,-55 125,-74 281,-74 281,-55 125,-55"/>
<text text-anchor="middle" x="203" y="-62" font-family="Helvetica,sans-Serif" font-size="10.00">hypro::ITimeEvolutionHandler</text>
</a>
</g>
</g>
<!-- Node1&#45;&gt;Node16 -->
<g id="edge15" class="edge"><title>Node1&#45;&gt;Node16</title>
<path fill="none" stroke="midnightblue" d="M58.3,-198.788C73.1473,-178.855 98.9372,-146.055 125,-121.5 144.854,-102.795 170.871,-84.6631 187.006,-74.0464"/>
<polygon fill="midnightblue" stroke="midnightblue" points="55.3914,-196.836 52.2867,-206.965 61.0307,-200.983 55.3914,-196.836"/>
</g>
<!-- Node3 -->
<g id="node3" class="node"><title>Node3</title>
<g id="a_node3"><a xlink:href="classhypro_1_1rectangularBadStateHandler.html" target="_top" xlink:title="hypro::rectangularBadState\lHandler\&lt; State \&gt;">
<polygon fill="white" stroke="black" points="328,-343.5 328,-373.5 477,-373.5 477,-343.5 328,-343.5"/>
<text text-anchor="start" x="336" y="-361.5" font-family="Helvetica,sans-Serif" font-size="10.00">hypro::rectangularBadState</text>
<text text-anchor="middle" x="402.5" y="-350.5" font-family="Helvetica,sans-Serif" font-size="10.00">Handler&lt; State &gt;</text>
</a>
</g>
</g>
<!-- Node2&#45;&gt;Node3 -->
<g id="edge2" class="edge"><title>Node2&#45;&gt;Node3</title>
<path fill="none" stroke="midnightblue" d="M280.163,-356.657C295.77,-356.894 312.172,-357.143 327.694,-357.379"/>
<polygon fill="midnightblue" stroke="midnightblue" points="280.091,-353.156 270.039,-356.503 279.985,-360.155 280.091,-353.156"/>
</g>
<!-- Node5 -->
<g id="node5" class="node"><title>Node5</title>
<g id="a_node5"><a xlink:href="classhypro_1_1rectangularFirstSegmentHandler.html" target="_top" xlink:title="hypro::rectangularFirstSegment\lHandler\&lt; State \&gt;">
<polygon fill="white" stroke="black" points="318.5,-294.5 318.5,-324.5 486.5,-324.5 486.5,-294.5 318.5,-294.5"/>
<text text-anchor="start" x="326.5" y="-312.5" font-family="Helvetica,sans-Serif" font-size="10.00">hypro::rectangularFirstSegment</text>
<text text-anchor="middle" x="402.5" y="-301.5" font-family="Helvetica,sans-Serif" font-size="10.00">Handler&lt; State &gt;</text>
</a>
</g>
</g>
<!-- Node4&#45;&gt;Node5 -->
<g id="edge4" class="edge"><title>Node4&#45;&gt;Node5</title>
<path fill="none" stroke="midnightblue" d="M289.763,-309.5C299.286,-309.5 308.972,-309.5 318.46,-309.5"/>
<polygon fill="midnightblue" stroke="midnightblue" points="289.512,-306 279.512,-309.5 289.512,-313 289.512,-306"/>
</g>
<!-- Node7 -->
<g id="node7" class="node"><title>Node7</title>
<g id="a_node7"><a xlink:href="classhypro_1_1rectangularGuardHandler.html" target="_top" xlink:title="hypro::rectangularGuardHandler\l\&lt; State \&gt;">
<polygon fill="white" stroke="black" points="317,-245.5 317,-275.5 488,-275.5 488,-245.5 317,-245.5"/>
<text text-anchor="start" x="325" y="-263.5" font-family="Helvetica,sans-Serif" font-size="10.00">hypro::rectangularGuardHandler</text>
<text text-anchor="middle" x="402.5" y="-252.5" font-family="Helvetica,sans-Serif" font-size="10.00">&lt; State &gt;</text>
</a>
</g>
</g>
<!-- Node6&#45;&gt;Node7 -->
<g id="edge6" class="edge"><title>Node6&#45;&gt;Node7</title>
<path fill="none" stroke="midnightblue" d="M272.847,-260.5C286.997,-260.5 302.051,-260.5 316.689,-260.5"/>
<polygon fill="midnightblue" stroke="midnightblue" points="272.722,-257 262.722,-260.5 272.722,-264 272.722,-257"/>
</g>
<!-- Node9 -->
<g id="node9" class="node"><title>Node9</title>
<g id="a_node9"><a xlink:href="classhypro_1_1rectangularInvariantHandler.html" target="_top" xlink:title="hypro::rectangularInvariant\lHandler\&lt; State \&gt;">
<polygon fill="white" stroke="black" points="329.5,-196.5 329.5,-226.5 475.5,-226.5 475.5,-196.5 329.5,-196.5"/>
<text text-anchor="start" x="337.5" y="-214.5" font-family="Helvetica,sans-Serif" font-size="10.00">hypro::rectangularInvariant</text>
<text text-anchor="middle" x="402.5" y="-203.5" font-family="Helvetica,sans-Serif" font-size="10.00">Handler&lt; State &gt;</text>
</a>
</g>
</g>
<!-- Node8&#45;&gt;Node9 -->
<g id="edge8" class="edge"><title>Node8&#45;&gt;Node9</title>
<path fill="none" stroke="midnightblue" d="M278.805,-214.606C295.309,-214.188 312.763,-213.747 329.167,-213.331"/>
<polygon fill="midnightblue" stroke="midnightblue" points="278.577,-211.111 268.669,-214.863 278.754,-218.109 278.577,-211.111"/>
</g>
<!-- Node12 -->
<g id="node12" class="node"><title>Node12</title>
<g id="a_node12"><a xlink:href="classhypro_1_1ltiResetHandler.html" target="_top" xlink:title="hypro::ltiResetHandler\l\&lt; State \&gt;">
<polygon fill="white" stroke="black" points="341.5,-147.5 341.5,-177.5 463.5,-177.5 463.5,-147.5 341.5,-147.5"/>
<text text-anchor="start" x="349.5" y="-165.5" font-family="Helvetica,sans-Serif" font-size="10.00">hypro::ltiResetHandler</text>
<text text-anchor="middle" x="402.5" y="-154.5" font-family="Helvetica,sans-Serif" font-size="10.00">&lt; State &gt;</text>
</a>
</g>
</g>
<!-- Node11&#45;&gt;Node12 -->
<g id="edge11" class="edge"><title>Node11&#45;&gt;Node12</title>
<path fill="none" stroke="midnightblue" d="M271.064,-147.97C293.865,-150.51 319.187,-153.331 341.408,-155.806"/>
<polygon fill="midnightblue" stroke="midnightblue" points="271.451,-144.492 261.125,-146.863 270.676,-151.449 271.451,-144.492"/>
</g>
<!-- Node15 -->
<g id="node15" class="node"><title>Node15</title>
<g id="a_node15"><a xlink:href="classhypro_1_1rectangularResetHandler.html" target="_top" xlink:title="hypro::rectangularResetHandler\l\&lt; State \&gt;">
<polygon fill="white" stroke="black" points="318.5,-98.5 318.5,-128.5 486.5,-128.5 486.5,-98.5 318.5,-98.5"/>
<text text-anchor="start" x="326.5" y="-116.5" font-family="Helvetica,sans-Serif" font-size="10.00">hypro::rectangularResetHandler</text>
<text text-anchor="middle" x="402.5" y="-105.5" font-family="Helvetica,sans-Serif" font-size="10.00">&lt; State &gt;</text>
</a>
</g>
</g>
<!-- Node11&#45;&gt;Node15 -->
<g id="edge14" class="edge"><title>Node11&#45;&gt;Node15</title>
<path fill="none" stroke="midnightblue" d="M271.401,-131.286C286.526,-129.218 302.746,-127.001 318.424,-124.857"/>
<polygon fill="midnightblue" stroke="midnightblue" points="270.559,-127.868 261.125,-132.69 271.507,-134.804 270.559,-127.868"/>
</g>
<!-- Node13 -->
<g id="node13" class="node"><title>Node13</title>
<g id="a_node13"><a xlink:href="classhypro_1_1discreteResetHandler.html" target="_top" xlink:title="hypro::discreteResetHandler\l\&lt; State \&gt;">
<polygon fill="white" stroke="black" points="524,-172.5 524,-202.5 676,-202.5 676,-172.5 524,-172.5"/>
<text text-anchor="start" x="532" y="-190.5" font-family="Helvetica,sans-Serif" font-size="10.00">hypro::discreteResetHandler</text>
<text text-anchor="middle" x="600" y="-179.5" font-family="Helvetica,sans-Serif" font-size="10.00">&lt; State &gt;</text>
</a>
</g>
</g>
<!-- Node12&#45;&gt;Node13 -->
<g id="edge12" class="edge"><title>Node12&#45;&gt;Node13</title>
<path fill="none" stroke="midnightblue" d="M473.707,-171.478C489.954,-173.555 507.306,-175.774 523.759,-177.878"/>
<polygon fill="midnightblue" stroke="midnightblue" points="474.115,-168.002 463.752,-170.205 473.227,-174.945 474.115,-168.002"/>
</g>
<!-- Node14 -->
<g id="node14" class="node"><title>Node14</title>
<g id="a_node14"><a xlink:href="classhypro_1_1timedResetHandler.html" target="_top" xlink:title="hypro::timedResetHandler\l\&lt; State \&gt;">
<polygon fill="white" stroke="black" points="529.5,-123.5 529.5,-153.5 670.5,-153.5 670.5,-123.5 529.5,-123.5"/>
<text text-anchor="start" x="537.5" y="-141.5" font-family="Helvetica,sans-Serif" font-size="10.00">hypro::timedResetHandler</text>
<text text-anchor="middle" x="600" y="-130.5" font-family="Helvetica,sans-Serif" font-size="10.00">&lt; State &gt;</text>
</a>
</g>
</g>
<!-- Node12&#45;&gt;Node14 -->
<g id="edge13" class="edge"><title>Node12&#45;&gt;Node14</title>
<path fill="none" stroke="midnightblue" d="M473.91,-153.856C491.957,-151.641 511.355,-149.259 529.363,-147.049"/>
<polygon fill="midnightblue" stroke="midnightblue" points="473.251,-150.411 463.752,-155.103 474.104,-157.359 473.251,-150.411"/>
</g>
<!-- Node17 -->
<g id="node17" class="node"><title>Node17</title>
<g id="a_node17"><a xlink:href="classhypro_1_1discreteTimeEvolutionHandler.html" target="_top" xlink:title="hypro::discreteTimeEvolution\lHandler">
<polygon fill="white" stroke="black" points="325,-49.5 325,-79.5 480,-79.5 480,-49.5 325,-49.5"/>
<text text-anchor="start" x="333" y="-67.5" font-family="Helvetica,sans-Serif" font-size="10.00">hypro::discreteTimeEvolution</text>
<text text-anchor="middle" x="402.5" y="-56.5" font-family="Helvetica,sans-Serif" font-size="10.00">Handler</text>
</a>
</g>
</g>
<!-- Node16&#45;&gt;Node17 -->
<g id="edge16" class="edge"><title>Node16&#45;&gt;Node17</title>
<path fill="none" stroke="midnightblue" d="M291.414,-64.5C302.606,-64.5 313.995,-64.5 324.995,-64.5"/>
<polygon fill="midnightblue" stroke="midnightblue" points="291.207,-61.0001 281.207,-64.5 291.207,-68.0001 291.207,-61.0001"/>
</g>
<!-- Node18 -->
<g id="node18" class="node"><title>Node18</title>
<g id="a_node18"><a xlink:href="classhypro_1_1rectangularTimeEvolutionHandler.html" target="_top" xlink:title="hypro::rectangularTimeEvolution\lHandler\&lt; State \&gt;">
<polygon fill="white" stroke="black" points="317,-0.5 317,-30.5 488,-30.5 488,-0.5 317,-0.5"/>
<text text-anchor="start" x="325" y="-18.5" font-family="Helvetica,sans-Serif" font-size="10.00">hypro::rectangularTimeEvolution</text>
<text text-anchor="middle" x="402.5" y="-7.5" font-family="Helvetica,sans-Serif" font-size="10.00">Handler&lt; State &gt;</text>
</a>
</g>
</g>
<!-- Node16&#45;&gt;Node18 -->
<g id="edge17" class="edge"><title>Node16&#45;&gt;Node18</title>
<path fill="none" stroke="midnightblue" d="M252.425,-52.4858C279.111,-45.865 312.488,-37.5839 340.892,-30.537"/>
<polygon fill="midnightblue" stroke="midnightblue" points="251.412,-49.1309 242.549,-54.936 253.097,-55.9249 251.412,-49.1309"/>
</g>
</g>
</svg>
