<?xml version="1.0" encoding="UTF-8" standalone="no"?>
<!DOCTYPE svg PUBLIC "-//W3C//DTD SVG 1.1//EN"
 "http://www.w3.org/Graphics/SVG/1.1/DTD/svg11.dtd">
<!-- Generated by graphviz version 2.38.0 (20140413.2041)
 -->
<!-- Title: Graphical Class Hierarchy Pages: 1 -->
<svg width="458pt" height="112pt"
 viewBox="0.00 0.00 458.00 112.00" xmlns="http://www.w3.org/2000/svg" xmlns:xlink="http://www.w3.org/1999/xlink">
<g id="graph0" class="graph" transform="scale(1 1) rotate(0) translate(4 108)">
<title>Graphical Class Hierarchy</title>
<polygon fill="white" stroke="none" points="-4,4 -4,-108 454,-108 454,4 -4,4"/>
<!-- Node1 -->
<g id="node1" class="node"><title>Node1</title>
<g id="a_node1"><a xlink:href="classhypro_1_1_i_context.html" target="_top" xlink:title="hypro::IContext">
<polygon fill="white" stroke="black" points="0,-30 0,-49 89,-49 89,-30 0,-30"/>
<text text-anchor="middle" x="44.5" y="-37" font-family="Helvetica,sans-Serif" font-size="10.00">hypro::IContext</text>
</a>
</g>
</g>
<!-- Node2 -->
<g id="node2" class="node"><title>Node2</title>
<g id="a_node2"><a xlink:href="classhypro_1_1_l_t_i_context.html" target="_top" xlink:title="hypro::LTIContext\&lt;\l State \&gt;">
<polygon fill="white" stroke="black" points="143,-49.5 143,-79.5 250,-79.5 250,-49.5 143,-49.5"/>
<text text-anchor="start" x="151" y="-67.5" font-family="Helvetica,sans-Serif" font-size="10.00">hypro::LTIContext&lt;</text>
<text text-anchor="middle" x="196.5" y="-56.5" font-family="Helvetica,sans-Serif" font-size="10.00"> State &gt;</text>
</a>
</g>
</g>
<!-- Node1&#45;&gt;Node2 -->
<g id="edge1" class="edge"><title>Node1&#45;&gt;Node2</title>
<path fill="none" stroke="midnightblue" d="M99.377,-48.4795C113.54,-50.8401 128.798,-53.383 142.894,-55.7323"/>
<polygon fill="midnightblue" stroke="midnightblue" points="99.7288,-44.9899 89.2894,-46.7982 98.578,-51.8947 99.7288,-44.9899"/>
</g>
<!-- Node5 -->
<g id="node5" class="node"><title>Node5</title>
<g id="a_node5"><a xlink:href="classhypro_1_1_rectangular_context.html" target="_top" xlink:title="hypro::RectangularContext\l\&lt; State \&gt;">
<polygon fill="white" stroke="black" points="125,-0.5 125,-30.5 268,-30.5 268,-0.5 125,-0.5"/>
<text text-anchor="start" x="133" y="-18.5" font-family="Helvetica,sans-Serif" font-size="10.00">hypro::RectangularContext</text>
<text text-anchor="middle" x="196.5" y="-7.5" font-family="Helvetica,sans-Serif" font-size="10.00">&lt; State &gt;</text>
</a>
</g>
</g>
<!-- Node1&#45;&gt;Node5 -->
<g id="edge4" class="edge"><title>Node1&#45;&gt;Node5</title>
<path fill="none" stroke="midnightblue" d="M99.2133,-30.9059C107.529,-29.5753 116.226,-28.1839 124.845,-26.8048"/>
<polygon fill="midnightblue" stroke="midnightblue" points="98.6109,-27.4577 89.2894,-32.4937 99.7168,-34.3697 98.6109,-27.4577"/>
</g>
<!-- Node3 -->
<g id="node3" class="node"><title>Node3</title>
<g id="a_node3"><a xlink:href="classhypro_1_1_template_polyhedron_context.html" target="_top" xlink:title="hypro::TemplatePolyhedron\lContext\&lt; State \&gt;">
<polygon fill="white" stroke="black" points="304,-73.5 304,-103.5 450,-103.5 450,-73.5 304,-73.5"/>
<text text-anchor="start" x="312" y="-91.5" font-family="Helvetica,sans-Serif" font-size="10.00">hypro::TemplatePolyhedron</text>
<text text-anchor="middle" x="377" y="-80.5" font-family="Helvetica,sans-Serif" font-size="10.00">Context&lt; State &gt;</text>
</a>
</g>
</g>
<!-- Node2&#45;&gt;Node3 -->
<g id="edge2" class="edge"><title>Node2&#45;&gt;Node3</title>
<path fill="none" stroke="midnightblue" d="M260.191,-72.9291C274.333,-74.8304 289.453,-76.8634 303.944,-78.8118"/>
<polygon fill="midnightblue" stroke="midnightblue" points="260.468,-69.4348 250.09,-71.571 259.535,-76.3724 260.468,-69.4348"/>
</g>
<!-- Node4 -->
<g id="node4" class="node"><title>Node4</title>
<g id="a_node4"><a xlink:href="classhypro_1_1_timed_context.html" target="_top" xlink:title="hypro::TimedContext\l\&lt; State \&gt;">
<polygon fill="white" stroke="black" points="319,-24.5 319,-54.5 435,-54.5 435,-24.5 319,-24.5"/>
<text text-anchor="start" x="327" y="-42.5" font-family="Helvetica,sans-Serif" font-size="10.00">hypro::TimedContext</text>
<text text-anchor="middle" x="377" y="-31.5" font-family="Helvetica,sans-Serif" font-size="10.00">&lt; State &gt;</text>
</a>
</g>
</g>
<!-- Node2&#45;&gt;Node4 -->
<g id="edge3" class="edge"><title>Node2&#45;&gt;Node4</title>
<path fill="none" stroke="midnightblue" d="M260.179,-55.7214C279.253,-53.05 300.108,-50.1291 318.8,-47.5112"/>
<polygon fill="midnightblue" stroke="midnightblue" points="259.508,-52.2811 250.09,-57.1344 260.479,-59.2135 259.508,-52.2811"/>
</g>
</g>
</svg>
