<?xml version="1.0" encoding="UTF-8" standalone="no"?>
<!DOCTYPE svg PUBLIC "-//W3C//DTD SVG 1.1//EN"
 "http://www.w3.org/Graphics/SVG/1.1/DTD/svg11.dtd">
<!-- Generated by graphviz version 2.38.0 (20140413.2041)
 -->
<!-- Title: Graphical Class Hierarchy Pages: 1 -->
<svg width="318pt" height="947pt"
 viewBox="0.00 0.00 318.00 947.00" xmlns="http://www.w3.org/2000/svg" xmlns:xlink="http://www.w3.org/1999/xlink">
<g id="graph0" class="graph" transform="scale(1 1) rotate(0) translate(4 943)">
<title>Graphical Class Hierarchy</title>
<polygon fill="white" stroke="none" points="-4,4 -4,-943 314,-943 314,4 -4,4"/>
<!-- Node1 -->
<g id="node1" class="node"><title>Node1</title>
<polygon fill="white" stroke="#bfbfbf" points="0,-459 0,-478 77,-478 77,-459 0,-459"/>
<text text-anchor="middle" x="38.5" y="-466" font-family="Helvetica,sans-Serif" font-size="10.00">static_visitor</text>
</g>
<!-- Node2 -->
<g id="node2" class="node"><title>Node2</title>
<g id="a_node2"><a xlink:href="structhypro_1_1detail_1_1ResetVisitor.html" target="_top" xlink:title="hypro::detail::ResetVisitor\l\&lt; ReturnType, Function \&gt;">
<polygon fill="white" stroke="black" points="142.5,-908.5 142.5,-938.5 280.5,-938.5 280.5,-908.5 142.5,-908.5"/>
<text text-anchor="start" x="150.5" y="-926.5" font-family="Helvetica,sans-Serif" font-size="10.00">hypro::detail::ResetVisitor</text>
<text text-anchor="middle" x="211.5" y="-915.5" font-family="Helvetica,sans-Serif" font-size="10.00">&lt; ReturnType, Function &gt;</text>
</a>
</g>
</g>
<!-- Node1&#45;&gt;Node2 -->
<g id="edge1" class="edge"><title>Node1&#45;&gt;Node2</title>
<path fill="none" stroke="midnightblue" d="M40.0883,-488.335C42.7593,-564.696 56.2076,-838.437 113,-899.5 120.836,-907.925 131.111,-913.601 142.049,-917.385"/>
<polygon fill="midnightblue" stroke="midnightblue" points="43.5816,-488.072 39.7577,-478.191 36.5853,-488.3 43.5816,-488.072"/>
</g>
<!-- Node3 -->
<g id="node3" class="node"><title>Node3</title>
<g id="a_node3"><a xlink:href="classhypro_1_1genericAffineTransformationVisitor.html" target="_top" xlink:title="hypro::genericAffineTransformation\lVisitor\&lt; T, Number \&gt;">
<polygon fill="white" stroke="black" points="120,-859.5 120,-889.5 303,-889.5 303,-859.5 120,-859.5"/>
<text text-anchor="start" x="128" y="-877.5" font-family="Helvetica,sans-Serif" font-size="10.00">hypro::genericAffineTransformation</text>
<text text-anchor="middle" x="211.5" y="-866.5" font-family="Helvetica,sans-Serif" font-size="10.00">Visitor&lt; T, Number &gt;</text>
</a>
</g>
</g>
<!-- Node1&#45;&gt;Node3 -->
<g id="edge2" class="edge"><title>Node1&#45;&gt;Node3</title>
<path fill="none" stroke="midnightblue" d="M40.586,-488.24C44.8586,-558.66 62.8097,-796.181 113,-849.5 116.593,-853.317 120.683,-856.583 125.104,-859.374"/>
<polygon fill="midnightblue" stroke="midnightblue" points="44.0707,-487.873 39.9964,-478.093 37.0825,-488.279 44.0707,-487.873"/>
</g>
<!-- Node4 -->
<g id="node4" class="node"><title>Node4</title>
<g id="a_node4"><a xlink:href="classhypro_1_1genericCompareVisitor.html" target="_top" xlink:title="hypro::genericCompareVisitor">
<polygon fill="white" stroke="black" points="132,-821 132,-840 291,-840 291,-821 132,-821"/>
<text text-anchor="middle" x="211.5" y="-828" font-family="Helvetica,sans-Serif" font-size="10.00">hypro::genericCompareVisitor</text>
</a>
</g>
</g>
<!-- Node1&#45;&gt;Node4 -->
<g id="edge3" class="edge"><title>Node1&#45;&gt;Node4</title>
<path fill="none" stroke="midnightblue" d="M40.9504,-488.467C46.176,-554.711 66.2592,-765.622 113,-811.5 118.415,-816.815 124.849,-820.865 131.792,-823.926"/>
<polygon fill="midnightblue" stroke="midnightblue" points="44.4154,-487.873 40.1673,-478.167 37.4355,-488.403 44.4154,-487.873"/>
</g>
<!-- Node5 -->
<g id="node5" class="node"><title>Node5</title>
<g id="a_node5"><a xlink:href="classhypro_1_1genericConversionVisitor.html" target="_top" xlink:title="hypro::genericConversion\lVisitor\&lt; T, To \&gt;">
<polygon fill="white" stroke="black" points="142.5,-771.5 142.5,-801.5 280.5,-801.5 280.5,-771.5 142.5,-771.5"/>
<text text-anchor="start" x="150.5" y="-789.5" font-family="Helvetica,sans-Serif" font-size="10.00">hypro::genericConversion</text>
<text text-anchor="middle" x="211.5" y="-778.5" font-family="Helvetica,sans-Serif" font-size="10.00">Visitor&lt; T, To &gt;</text>
</a>
</g>
</g>
<!-- Node1&#45;&gt;Node5 -->
<g id="edge4" class="edge"><title>Node1&#45;&gt;Node5</title>
<path fill="none" stroke="midnightblue" d="M41.782,-488.21C49.0495,-547.6 73.5223,-723.165 113,-762.5 121.027,-770.498 131.263,-775.981 142.069,-779.712"/>
<polygon fill="midnightblue" stroke="midnightblue" points="45.2528,-487.757 40.5918,-478.242 38.3022,-488.587 45.2528,-487.757"/>
</g>
<!-- Node6 -->
<g id="node6" class="node"><title>Node6</title>
<g id="a_node6"><a xlink:href="classhypro_1_1genericConvertAndGetVisitor.html" target="_top" xlink:title="hypro::genericConvertAnd\lGetVisitor\&lt; OutType \&gt;">
<polygon fill="white" stroke="black" points="141,-722.5 141,-752.5 282,-752.5 282,-722.5 141,-722.5"/>
<text text-anchor="start" x="149" y="-740.5" font-family="Helvetica,sans-Serif" font-size="10.00">hypro::genericConvertAnd</text>
<text text-anchor="middle" x="211.5" y="-729.5" font-family="Helvetica,sans-Serif" font-size="10.00">GetVisitor&lt; OutType &gt;</text>
</a>
</g>
</g>
<!-- Node1&#45;&gt;Node6 -->
<g id="edge5" class="edge"><title>Node1&#45;&gt;Node6</title>
<path fill="none" stroke="midnightblue" d="M39.3238,-488.307C40.0389,-534.607 48.5425,-650.669 113,-712.5 120.819,-720 130.569,-725.334 140.857,-729.11"/>
<polygon fill="midnightblue" stroke="midnightblue" points="42.8231,-488.099 39.2805,-478.114 35.8232,-488.129 42.8231,-488.099"/>
</g>
<!-- Node7 -->
<g id="node7" class="node"><title>Node7</title>
<g id="a_node7"><a xlink:href="classhypro_1_1genericDimensionVisitor.html" target="_top" xlink:title="hypro::genericDimensionVisitor">
<polygon fill="white" stroke="black" points="128.5,-684 128.5,-703 294.5,-703 294.5,-684 128.5,-684"/>
<text text-anchor="middle" x="211.5" y="-691" font-family="Helvetica,sans-Serif" font-size="10.00">hypro::genericDimensionVisitor</text>
</a>
</g>
</g>
<!-- Node1&#45;&gt;Node7 -->
<g id="edge6" class="edge"><title>Node1&#45;&gt;Node7</title>
<path fill="none" stroke="midnightblue" d="M40.3554,-488.234C43.275,-529.603 56.1578,-625.616 113,-674.5 117.576,-678.436 122.724,-681.65 128.201,-684.268"/>
<polygon fill="midnightblue" stroke="midnightblue" points="43.8408,-487.88 39.7679,-478.099 36.8526,-488.285 43.8408,-487.88"/>
</g>
<!-- Node8 -->
<g id="node8" class="node"><title>Node8</title>
<g id="a_node8"><a xlink:href="classhypro_1_1genericInternalConversionVisitor.html" target="_top" xlink:title="hypro::genericInternalConversion\lVisitor\&lt; T, Ext \&gt;">
<polygon fill="white" stroke="black" points="124.5,-634.5 124.5,-664.5 298.5,-664.5 298.5,-634.5 124.5,-634.5"/>
<text text-anchor="start" x="132.5" y="-652.5" font-family="Helvetica,sans-Serif" font-size="10.00">hypro::genericInternalConversion</text>
<text text-anchor="middle" x="211.5" y="-641.5" font-family="Helvetica,sans-Serif" font-size="10.00">Visitor&lt; T, Ext &gt;</text>
</a>
</g>
</g>
<!-- Node1&#45;&gt;Node8 -->
<g id="edge7" class="edge"><title>Node1&#45;&gt;Node8</title>
<path fill="none" stroke="midnightblue" d="M43.1459,-488.203C50.3604,-521.48 69.6694,-588.683 113,-624.5 117.714,-628.397 122.962,-631.695 128.509,-634.486"/>
<polygon fill="midnightblue" stroke="midnightblue" points="46.5586,-487.42 41.1457,-478.313 39.6975,-488.808 46.5586,-487.42"/>
</g>
<!-- Node9 -->
<g id="node9" class="node"><title>Node9</title>
<g id="a_node9"><a xlink:href="classhypro_1_1genericIntersectVisitor.html" target="_top" xlink:title="hypro::genericIntersectVisitor\&lt; T \&gt;">
<polygon fill="white" stroke="black" points="119,-596 119,-615 304,-615 304,-596 119,-596"/>
<text text-anchor="middle" x="211.5" y="-603" font-family="Helvetica,sans-Serif" font-size="10.00">hypro::genericIntersectVisitor&lt; T &gt;</text>
</a>
</g>
</g>
<!-- Node1&#45;&gt;Node9 -->
<g id="edge8" class="edge"><title>Node1&#45;&gt;Node9</title>
<path fill="none" stroke="midnightblue" d="M45.8882,-487.714C55.803,-514.38 77.5351,-562.076 113,-586.5 118.539,-590.315 124.654,-593.408 131.039,-595.912"/>
<polygon fill="midnightblue" stroke="midnightblue" points="49.0895,-486.268 42.458,-478.006 42.4894,-488.6 49.0895,-486.268"/>
</g>
<!-- Node10 -->
<g id="node10" class="node"><title>Node10</title>
<g id="a_node10"><a xlink:href="classhypro_1_1genericIntervalAssignmentVisitor.html" target="_top" xlink:title="hypro::genericIntervalAssignment\lVisitor\&lt; T, Number \&gt;">
<polygon fill="white" stroke="black" points="123,-546.5 123,-576.5 300,-576.5 300,-546.5 123,-546.5"/>
<text text-anchor="start" x="131" y="-564.5" font-family="Helvetica,sans-Serif" font-size="10.00">hypro::genericIntervalAssignment</text>
<text text-anchor="middle" x="211.5" y="-553.5" font-family="Helvetica,sans-Serif" font-size="10.00">Visitor&lt; T, Number &gt;</text>
</a>
</g>
</g>
<!-- Node1&#45;&gt;Node10 -->
<g id="edge9" class="edge"><title>Node1&#45;&gt;Node10</title>
<path fill="none" stroke="midnightblue" d="M53.597,-486.123C67.1745,-501.915 89.1228,-524.53 113,-537.5 119.357,-540.953 126.215,-543.917 133.245,-546.46"/>
<polygon fill="midnightblue" stroke="midnightblue" points="56.0475,-483.596 46.9561,-478.156 50.6706,-488.079 56.0475,-483.596"/>
</g>
<!-- Node11 -->
<g id="node11" class="node"><title>Node11</title>
<g id="a_node11"><a xlink:href="classhypro_1_1genericMinkowskiSumVisitor.html" target="_top" xlink:title="hypro::genericMinkowskiSum\lVisitor\&lt; T \&gt;">
<polygon fill="white" stroke="black" points="134,-497.5 134,-527.5 289,-527.5 289,-497.5 134,-497.5"/>
<text text-anchor="start" x="142" y="-515.5" font-family="Helvetica,sans-Serif" font-size="10.00">hypro::genericMinkowskiSum</text>
<text text-anchor="middle" x="211.5" y="-504.5" font-family="Helvetica,sans-Serif" font-size="10.00">Visitor&lt; T &gt;</text>
</a>
</g>
</g>
<!-- Node1&#45;&gt;Node11 -->
<g id="edge10" class="edge"><title>Node1&#45;&gt;Node11</title>
<path fill="none" stroke="midnightblue" d="M86.3239,-480.619C95.1833,-482.908 104.376,-485.28 113,-487.5 125.523,-490.724 138.953,-494.173 151.719,-497.448"/>
<polygon fill="midnightblue" stroke="midnightblue" points="87.0684,-477.196 76.5107,-478.082 85.3167,-483.974 87.0684,-477.196"/>
</g>
<!-- Node12 -->
<g id="node12" class="node"><title>Node12</title>
<g id="a_node12"><a xlink:href="classhypro_1_1genericOutstreamVisitor.html" target="_top" xlink:title="hypro::genericOutstreamVisitor">
<polygon fill="white" stroke="black" points="128,-459 128,-478 295,-478 295,-459 128,-459"/>
<text text-anchor="middle" x="211.5" y="-466" font-family="Helvetica,sans-Serif" font-size="10.00">hypro::genericOutstreamVisitor</text>
</a>
</g>
</g>
<!-- Node1&#45;&gt;Node12 -->
<g id="edge11" class="edge"><title>Node1&#45;&gt;Node12</title>
<path fill="none" stroke="midnightblue" d="M87.2861,-468.5C99.9231,-468.5 113.935,-468.5 127.846,-468.5"/>
<polygon fill="midnightblue" stroke="midnightblue" points="87.0267,-465 77.0267,-468.5 87.0266,-472 87.0267,-465"/>
</g>
<!-- Node13 -->
<g id="node13" class="node"><title>Node13</title>
<g id="a_node13"><a xlink:href="classhypro_1_1genericProjectionVisitor.html" target="_top" xlink:title="hypro::genericProjection\lVisitor\&lt; T \&gt;">
<polygon fill="white" stroke="black" points="145.5,-409.5 145.5,-439.5 277.5,-439.5 277.5,-409.5 145.5,-409.5"/>
<text text-anchor="start" x="153.5" y="-427.5" font-family="Helvetica,sans-Serif" font-size="10.00">hypro::genericProjection</text>
<text text-anchor="middle" x="211.5" y="-416.5" font-family="Helvetica,sans-Serif" font-size="10.00">Visitor&lt; T &gt;</text>
</a>
</g>
</g>
<!-- Node1&#45;&gt;Node13 -->
<g id="edge12" class="edge"><title>Node1&#45;&gt;Node13</title>
<path fill="none" stroke="midnightblue" d="M86.3239,-456.381C95.1833,-454.092 104.376,-451.72 113,-449.5 125.523,-446.276 138.953,-442.827 151.719,-439.552"/>
<polygon fill="midnightblue" stroke="midnightblue" points="85.3167,-453.026 76.5107,-458.918 87.0684,-459.804 85.3167,-453.026"/>
</g>
<!-- Node14 -->
<g id="node14" class="node"><title>Node14</title>
<g id="a_node14"><a xlink:href="classhypro_1_1genericReductionVisitor.html" target="_top" xlink:title="hypro::genericReductionVisitor\l\&lt; T, Number \&gt;">
<polygon fill="white" stroke="black" points="131,-360.5 131,-390.5 292,-390.5 292,-360.5 131,-360.5"/>
<text text-anchor="start" x="139" y="-378.5" font-family="Helvetica,sans-Serif" font-size="10.00">hypro::genericReductionVisitor</text>
<text text-anchor="middle" x="211.5" y="-367.5" font-family="Helvetica,sans-Serif" font-size="10.00">&lt; T, Number &gt;</text>
</a>
</g>
</g>
<!-- Node1&#45;&gt;Node14 -->
<g id="edge13" class="edge"><title>Node1&#45;&gt;Node14</title>
<path fill="none" stroke="midnightblue" d="M54.1267,-450.684C67.7918,-435.187 89.5572,-413.27 113,-400.5 120.136,-396.613 127.896,-393.313 135.819,-390.516"/>
<polygon fill="midnightblue" stroke="midnightblue" points="51.2521,-448.66 47.4091,-458.533 56.5704,-453.211 51.2521,-448.66"/>
</g>
<!-- Node15 -->
<g id="node15" class="node"><title>Node15</title>
<g id="a_node15"><a xlink:href="classhypro_1_1genericRedundancyVisitor.html" target="_top" xlink:title="hypro::genericRedundancy\lVisitor\&lt; T, Number \&gt;">
<polygon fill="white" stroke="black" points="140,-311.5 140,-341.5 283,-341.5 283,-311.5 140,-311.5"/>
<text text-anchor="start" x="148" y="-329.5" font-family="Helvetica,sans-Serif" font-size="10.00">hypro::genericRedundancy</text>
<text text-anchor="middle" x="211.5" y="-318.5" font-family="Helvetica,sans-Serif" font-size="10.00">Visitor&lt; T, Number &gt;</text>
</a>
</g>
</g>
<!-- Node1&#45;&gt;Node15 -->
<g id="edge14" class="edge"><title>Node1&#45;&gt;Node15</title>
<path fill="none" stroke="midnightblue" d="M46.2861,-449.341C56.5625,-423.162 78.5989,-376.606 113,-351.5 121.046,-345.628 130.342,-341.132 139.934,-337.689"/>
<polygon fill="midnightblue" stroke="midnightblue" points="42.9387,-448.299 42.7067,-458.892 49.4935,-450.756 42.9387,-448.299"/>
</g>
<!-- Node16 -->
<g id="node16" class="node"><title>Node16</title>
<g id="a_node16"><a xlink:href="classhypro_1_1genericSatisfiesHalfspacesVisitor.html" target="_top" xlink:title="hypro::genericSatisfiesHalfspaces\lVisitor\&lt; T, Number \&gt;">
<polygon fill="white" stroke="black" points="122.5,-262.5 122.5,-292.5 300.5,-292.5 300.5,-262.5 122.5,-262.5"/>
<text text-anchor="start" x="130.5" y="-280.5" font-family="Helvetica,sans-Serif" font-size="10.00">hypro::genericSatisfiesHalfspaces</text>
<text text-anchor="middle" x="211.5" y="-269.5" font-family="Helvetica,sans-Serif" font-size="10.00">Visitor&lt; T, Number &gt;</text>
</a>
</g>
</g>
<!-- Node1&#45;&gt;Node16 -->
<g id="edge15" class="edge"><title>Node1&#45;&gt;Node16</title>
<path fill="none" stroke="midnightblue" d="M42.4833,-449.021C48.8699,-414.193 67.1991,-341.273 113,-302.5 117.535,-298.661 122.585,-295.401 127.933,-292.634"/>
<polygon fill="midnightblue" stroke="midnightblue" points="39.0295,-448.454 40.8097,-458.899 45.9311,-449.624 39.0295,-448.454"/>
</g>
<!-- Node17 -->
<g id="node17" class="node"><title>Node17</title>
<g id="a_node17"><a xlink:href="classhypro_1_1genericSetContainsVisitor.html" target="_top" xlink:title="hypro::genericSetContains\lVisitor">
<polygon fill="white" stroke="black" points="140,-213.5 140,-243.5 283,-243.5 283,-213.5 140,-213.5"/>
<text text-anchor="start" x="148" y="-231.5" font-family="Helvetica,sans-Serif" font-size="10.00">hypro::genericSetContains</text>
<text text-anchor="middle" x="211.5" y="-220.5" font-family="Helvetica,sans-Serif" font-size="10.00">Visitor</text>
</a>
</g>
</g>
<!-- Node1&#45;&gt;Node17 -->
<g id="edge16" class="edge"><title>Node1&#45;&gt;Node17</title>
<path fill="none" stroke="midnightblue" d="M40.2832,-448.467C43.0626,-405.998 55.6897,-306.484 113,-253.5 120.57,-246.501 129.83,-241.4 139.598,-237.694"/>
<polygon fill="midnightblue" stroke="midnightblue" points="36.7788,-448.457 39.7402,-458.63 43.7688,-448.831 36.7788,-448.457"/>
</g>
<!-- Node18 -->
<g id="node18" class="node"><title>Node18</title>
<g id="a_node18"><a xlink:href="classhypro_1_1genericSupremumVisitor.html" target="_top" xlink:title="hypro::genericSupremumVisitor\&lt; T \&gt;">
<polygon fill="white" stroke="black" points="113,-175 113,-194 310,-194 310,-175 113,-175"/>
<text text-anchor="middle" x="211.5" y="-182" font-family="Helvetica,sans-Serif" font-size="10.00">hypro::genericSupremumVisitor&lt; T &gt;</text>
</a>
</g>
</g>
<!-- Node1&#45;&gt;Node18 -->
<g id="edge17" class="edge"><title>Node1&#45;&gt;Node18</title>
<path fill="none" stroke="midnightblue" d="M42.2801,-448.948C50.5235,-393.748 76.5513,-238.509 113,-204.5 117.548,-200.256 122.745,-196.81 128.319,-194.022"/>
<polygon fill="midnightblue" stroke="midnightblue" points="38.8144,-448.459 40.832,-458.86 45.7409,-449.471 38.8144,-448.459"/>
</g>
<!-- Node19 -->
<g id="node19" class="node"><title>Node19</title>
<g id="a_node19"><a xlink:href="classhypro_1_1genericTypeVisitor.html" target="_top" xlink:title="hypro::genericTypeVisitor">
<polygon fill="white" stroke="black" points="143.5,-137 143.5,-156 279.5,-156 279.5,-137 143.5,-137"/>
<text text-anchor="middle" x="211.5" y="-144" font-family="Helvetica,sans-Serif" font-size="10.00">hypro::genericTypeVisitor</text>
</a>
</g>
</g>
<!-- Node1&#45;&gt;Node19 -->
<g id="edge18" class="edge"><title>Node1&#45;&gt;Node19</title>
<path fill="none" stroke="midnightblue" d="M41.5608,-448.511C48.2648,-387.463 71.4533,-205.197 113,-165.5 121.416,-157.458 132.173,-152.336 143.45,-149.154"/>
<polygon fill="midnightblue" stroke="midnightblue" points="38.0509,-448.418 40.4695,-458.733 45.0114,-449.161 38.0509,-448.418"/>
</g>
<!-- Node20 -->
<g id="node20" class="node"><title>Node20</title>
<g id="a_node20"><a xlink:href="classhypro_1_1genericUniteVisitor.html" target="_top" xlink:title="hypro::genericUniteVisitor\&lt; T \&gt;">
<polygon fill="white" stroke="black" points="127.5,-99 127.5,-118 295.5,-118 295.5,-99 127.5,-99"/>
<text text-anchor="middle" x="211.5" y="-106" font-family="Helvetica,sans-Serif" font-size="10.00">hypro::genericUniteVisitor&lt; T &gt;</text>
</a>
</g>
</g>
<!-- Node1&#45;&gt;Node20 -->
<g id="edge19" class="edge"><title>Node1&#45;&gt;Node20</title>
<path fill="none" stroke="midnightblue" d="M40.9683,-448.648C46.2505,-382.786 66.4923,-173.094 113,-127.5 117.187,-123.395 121.982,-120.046 127.149,-117.323"/>
<polygon fill="midnightblue" stroke="midnightblue" points="37.4578,-448.649 40.1762,-458.889 44.437,-449.189 37.4578,-448.649"/>
</g>
<!-- Node21 -->
<g id="node21" class="node"><title>Node21</title>
<g id="a_node21"><a xlink:href="classhypro_1_1genericVerticesVisitor.html" target="_top" xlink:title="hypro::genericVerticesVisitor\l\&lt; Number \&gt;">
<polygon fill="white" stroke="black" points="135,-49.5 135,-79.5 288,-79.5 288,-49.5 135,-49.5"/>
<text text-anchor="start" x="143" y="-67.5" font-family="Helvetica,sans-Serif" font-size="10.00">hypro::genericVerticesVisitor</text>
<text text-anchor="middle" x="211.5" y="-56.5" font-family="Helvetica,sans-Serif" font-size="10.00">&lt; Number &gt;</text>
</a>
</g>
</g>
<!-- Node1&#45;&gt;Node21 -->
<g id="edge20" class="edge"><title>Node1&#45;&gt;Node21</title>
<path fill="none" stroke="midnightblue" d="M40.6016,-448.863C44.9273,-378.809 63.0377,-142.524 113,-89.5 119.112,-83.0137 126.658,-78.1196 134.824,-74.4407"/>
<polygon fill="midnightblue" stroke="midnightblue" points="37.1012,-448.767 40.0042,-458.957 44.089,-449.181 37.1012,-448.767"/>
</g>
<!-- Node22 -->
<g id="node22" class="node"><title>Node22</title>
<g id="a_node22"><a xlink:href="structhypro_1_1setCreationVisitor.html" target="_top" xlink:title="hypro::setCreationVisitor\l\&lt; State \&gt;">
<polygon fill="white" stroke="black" points="144,-0.5 144,-30.5 279,-30.5 279,-0.5 144,-0.5"/>
<text text-anchor="start" x="152" y="-18.5" font-family="Helvetica,sans-Serif" font-size="10.00">hypro::setCreationVisitor</text>
<text text-anchor="middle" x="211.5" y="-7.5" font-family="Helvetica,sans-Serif" font-size="10.00">&lt; State &gt;</text>
</a>
</g>
</g>
<!-- Node1&#45;&gt;Node22 -->
<g id="edge21" class="edge"><title>Node1&#45;&gt;Node22</title>
<path fill="none" stroke="midnightblue" d="M40.1269,-448.818C42.9413,-373.045 56.8496,-101.389 113,-40.5 121.174,-31.6361 132.025,-25.7342 143.516,-21.8416"/>
<polygon fill="midnightblue" stroke="midnightblue" points="36.6266,-448.768 39.777,-458.884 43.6224,-449.011 36.6266,-448.768"/>
</g>
</g>
</svg>
