<?xml version="1.0" encoding="UTF-8" standalone="no"?>
<!DOCTYPE svg PUBLIC "-//W3C//DTD SVG 1.1//EN"
 "http://www.w3.org/Graphics/SVG/1.1/DTD/svg11.dtd">
<!-- Generated by graphviz version 2.38.0 (20140413.2041)
 -->
<!-- Title: Graphical Class Hierarchy Pages: 1 -->
<svg width="342pt" height="192pt"
 viewBox="0.00 0.00 342.00 191.50" xmlns="http://www.w3.org/2000/svg" xmlns:xlink="http://www.w3.org/1999/xlink">
<g id="graph0" class="graph" transform="scale(1 1) rotate(0) translate(4 187.5)">
<title>Graphical Class Hierarchy</title>
<polygon fill="white" stroke="none" points="-4,4 -4,-187.5 338,-187.5 338,4 -4,4"/>
<!-- Node1 -->
<g id="node1" class="node"><title>Node1</title>
<polygon fill="white" stroke="#bfbfbf" points="0,-88 0,-107 129,-107 129,-88 0,-88"/>
<text text-anchor="middle" x="64.5" y="-95" font-family="Helvetica,sans-Serif" font-size="10.00">SupportFunctionSetting</text>
</g>
<!-- Node2 -->
<g id="node2" class="node"><title>Node2</title>
<g id="a_node2"><a xlink:href="structhypro_1_1_no_box_detection.html" target="_top" xlink:title="hypro::NoBoxDetection">
<polygon fill="white" stroke="black" points="185.5,-164 185.5,-183 313.5,-183 313.5,-164 185.5,-164"/>
<text text-anchor="middle" x="249.5" y="-171" font-family="Helvetica,sans-Serif" font-size="10.00">hypro::NoBoxDetection</text>
</a>
</g>
</g>
<!-- Node1&#45;&gt;Node2 -->
<g id="edge1" class="edge"><title>Node1&#45;&gt;Node2</title>
<path fill="none" stroke="midnightblue" d="M87.8225,-112.868C107.38,-125.688 136.981,-143.569 165,-154.5 174.695,-158.283 185.331,-161.417 195.669,-163.975"/>
<polygon fill="midnightblue" stroke="midnightblue" points="89.5936,-109.842 79.3322,-107.205 85.7095,-115.666 89.5936,-109.842"/>
</g>
<!-- Node3 -->
<g id="node3" class="node"><title>Node3</title>
<g id="a_node3"><a xlink:href="structhypro_1_1_no_box_reduction.html" target="_top" xlink:title="hypro::NoBoxReduction">
<polygon fill="white" stroke="black" points="185.5,-126 185.5,-145 313.5,-145 313.5,-126 185.5,-126"/>
<text text-anchor="middle" x="249.5" y="-133" font-family="Helvetica,sans-Serif" font-size="10.00">hypro::NoBoxReduction</text>
</a>
</g>
</g>
<!-- Node1&#45;&gt;Node3 -->
<g id="edge2" class="edge"><title>Node1&#45;&gt;Node3</title>
<path fill="none" stroke="midnightblue" d="M121.753,-109.181C147.705,-114.57 178.122,-120.886 202.653,-125.98"/>
<polygon fill="midnightblue" stroke="midnightblue" points="122.181,-105.695 111.679,-107.089 120.758,-112.549 122.181,-105.695"/>
</g>
<!-- Node4 -->
<g id="node4" class="node"><title>Node4</title>
<g id="a_node4"><a xlink:href="structhypro_1_1_no_reduction.html" target="_top" xlink:title="hypro::NoReduction">
<polygon fill="white" stroke="black" points="194.5,-88 194.5,-107 304.5,-107 304.5,-88 194.5,-88"/>
<text text-anchor="middle" x="249.5" y="-95" font-family="Helvetica,sans-Serif" font-size="10.00">hypro::NoReduction</text>
</a>
</g>
</g>
<!-- Node1&#45;&gt;Node4 -->
<g id="edge3" class="edge"><title>Node1&#45;&gt;Node4</title>
<path fill="none" stroke="midnightblue" d="M139.35,-97.5C157.753,-97.5 177.146,-97.5 194.398,-97.5"/>
<polygon fill="midnightblue" stroke="midnightblue" points="139.248,-94.0001 129.248,-97.5 139.248,-101 139.248,-94.0001"/>
</g>
<!-- Node5 -->
<g id="node5" class="node"><title>Node5</title>
<g id="a_node5"><a xlink:href="structhypro_1_1_no_trafo_reduction.html" target="_top" xlink:title="hypro::NoTrafoReduction">
<polygon fill="white" stroke="black" points="183.5,-50 183.5,-69 315.5,-69 315.5,-50 183.5,-50"/>
<text text-anchor="middle" x="249.5" y="-57" font-family="Helvetica,sans-Serif" font-size="10.00">hypro::NoTrafoReduction</text>
</a>
</g>
</g>
<!-- Node1&#45;&gt;Node5 -->
<g id="edge4" class="edge"><title>Node1&#45;&gt;Node5</title>
<path fill="none" stroke="midnightblue" d="M121.753,-85.819C147.705,-80.4301 178.122,-74.1139 202.653,-69.0201"/>
<polygon fill="midnightblue" stroke="midnightblue" points="120.758,-82.4509 111.679,-87.911 122.181,-89.3047 120.758,-82.4509"/>
</g>
<!-- Node6 -->
<g id="node6" class="node"><title>Node6</title>
<g id="a_node6"><a xlink:href="structhypro_1_1_polytope_support_function_setting.html" target="_top" xlink:title="hypro::PolytopeSupportFunction\lSetting">
<polygon fill="white" stroke="black" points="165,-0.5 165,-30.5 334,-30.5 334,-0.5 165,-0.5"/>
<text text-anchor="start" x="173" y="-18.5" font-family="Helvetica,sans-Serif" font-size="10.00">hypro::PolytopeSupportFunction</text>
<text text-anchor="middle" x="249.5" y="-7.5" font-family="Helvetica,sans-Serif" font-size="10.00">Setting</text>
</a>
</g>
</g>
<!-- Node1&#45;&gt;Node6 -->
<g id="edge5" class="edge"><title>Node1&#45;&gt;Node6</title>
<path fill="none" stroke="midnightblue" d="M88.3538,-82.3879C108.033,-69.8755 137.522,-52.2983 165,-40.5 173.482,-36.8581 182.663,-33.5324 191.728,-30.5789"/>
<polygon fill="midnightblue" stroke="midnightblue" points="86.298,-79.5489 79.7889,-87.9086 90.0904,-85.4326 86.298,-79.5489"/>
</g>
</g>
</svg>
