<?xml version="1.0" encoding="UTF-8" standalone="no"?>
<!DOCTYPE svg PUBLIC "-//W3C//DTD SVG 1.1//EN"
 "http://www.w3.org/Graphics/SVG/1.1/DTD/svg11.dtd">
<!-- Generated by graphviz version 2.38.0 (20140413.2041)
 -->
<!-- Title: Graphical Class Hierarchy Pages: 1 -->
<svg width="681pt" height="345pt"
 viewBox="0.00 0.00 681.00 344.50" xmlns="http://www.w3.org/2000/svg" xmlns:xlink="http://www.w3.org/1999/xlink">
<g id="graph0" class="graph" transform="scale(1 1) rotate(0) translate(4 340.5)">
<title>Graphical Class Hierarchy</title>
<polygon fill="white" stroke="none" points="-4,4 -4,-340.5 677,-340.5 677,4 -4,4"/>
<!-- Node1 -->
<g id="node1" class="node"><title>Node1</title>
<g id="a_node1"><a xlink:href="classhypro_1_1_i_handler.html" target="_top" xlink:title="hypro::IHandler">
<polygon fill="white" stroke="black" points="0,-180 0,-199 89,-199 89,-180 0,-180"/>
<text text-anchor="middle" x="44.5" y="-187" font-family="Helvetica,sans-Serif" font-size="10.00">hypro::IHandler</text>
</a>
</g>
</g>
<!-- Node2 -->
<g id="node2" class="node"><title>Node2</title>
<g id="a_node2"><a xlink:href="classhypro_1_1_i_bad_state_handler.html" target="_top" xlink:title="hypro::IBadStateHandler">
<polygon fill="white" stroke="black" points="136,-317 136,-336 270,-336 270,-317 136,-317"/>
<text text-anchor="middle" x="203" y="-324" font-family="Helvetica,sans-Serif" font-size="10.00">hypro::IBadStateHandler</text>
</a>
</g>
</g>
<!-- Node1&#45;&gt;Node2 -->
<g id="edge1" class="edge"><title>Node1&#45;&gt;Node2</title>
<path fill="none" stroke="midnightblue" d="M53.0426,-208.528C64.5126,-234.93 88.8923,-282.268 125,-307.5 130.53,-311.365 136.765,-314.446 143.231,-316.902"/>
<polygon fill="midnightblue" stroke="midnightblue" points="56.2404,-207.103 49.1601,-199.221 49.78,-209.798 56.2404,-207.103"/>
</g>
<!-- Node3 -->
<g id="node3" class="node"><title>Node3</title>
<g id="a_node3"><a xlink:href="classhypro_1_1_i_first_segment_handler.html" target="_top" xlink:title="hypro::IFirstSegmentHandler\l\&lt; State \&gt;">
<polygon fill="white" stroke="black" points="126.5,-267.5 126.5,-297.5 279.5,-297.5 279.5,-267.5 126.5,-267.5"/>
<text text-anchor="start" x="134.5" y="-285.5" font-family="Helvetica,sans-Serif" font-size="10.00">hypro::IFirstSegmentHandler</text>
<text text-anchor="middle" x="203" y="-274.5" font-family="Helvetica,sans-Serif" font-size="10.00">&lt; State &gt;</text>
</a>
</g>
</g>
<!-- Node1&#45;&gt;Node3 -->
<g id="edge2" class="edge"><title>Node1&#45;&gt;Node3</title>
<path fill="none" stroke="midnightblue" d="M61.3096,-206.811C76.3366,-222.328 100.259,-244.71 125,-258.5 130.993,-261.84 137.513,-264.781 144.138,-267.353"/>
<polygon fill="midnightblue" stroke="midnightblue" points="63.7192,-204.265 54.3051,-199.404 58.6332,-209.074 63.7192,-204.265"/>
</g>
<!-- Node6 -->
<g id="node6" class="node"><title>Node6</title>
<g id="a_node6"><a xlink:href="classhypro_1_1_i_guard_handler.html" target="_top" xlink:title="hypro::IGuardHandler\l\&lt; State \&gt;">
<polygon fill="white" stroke="black" points="143.5,-218.5 143.5,-248.5 262.5,-248.5 262.5,-218.5 143.5,-218.5"/>
<text text-anchor="start" x="151.5" y="-236.5" font-family="Helvetica,sans-Serif" font-size="10.00">hypro::IGuardHandler</text>
<text text-anchor="middle" x="203" y="-225.5" font-family="Helvetica,sans-Serif" font-size="10.00">&lt; State &gt;</text>
</a>
</g>
</g>
<!-- Node1&#45;&gt;Node6 -->
<g id="edge5" class="edge"><title>Node1&#45;&gt;Node6</title>
<path fill="none" stroke="midnightblue" d="M89.2907,-201.812C107.635,-206.969 129.138,-213.015 148.415,-218.435"/>
<polygon fill="midnightblue" stroke="midnightblue" points="90.0323,-198.385 79.4582,-199.047 88.1376,-205.123 90.0323,-198.385"/>
</g>
<!-- Node7 -->
<g id="node7" class="node"><title>Node7</title>
<g id="a_node7"><a xlink:href="classhypro_1_1_i_invariant_handler.html" target="_top" xlink:title="hypro::IInvariantHandler">
<polygon fill="white" stroke="black" points="137.5,-180 137.5,-199 268.5,-199 268.5,-180 137.5,-180"/>
<text text-anchor="middle" x="203" y="-187" font-family="Helvetica,sans-Serif" font-size="10.00">hypro::IInvariantHandler</text>
</a>
</g>
</g>
<!-- Node1&#45;&gt;Node7 -->
<g id="edge6" class="edge"><title>Node1&#45;&gt;Node7</title>
<path fill="none" stroke="midnightblue" d="M99.1594,-189.5C111.43,-189.5 124.598,-189.5 137.278,-189.5"/>
<polygon fill="midnightblue" stroke="midnightblue" points="99.094,-186 89.094,-189.5 99.0939,-193 99.094,-186"/>
</g>
<!-- Node8 -->
<g id="node8" class="node"><title>Node8</title>
<g id="a_node8"><a xlink:href="classhypro_1_1_i_jump_handler.html" target="_top" xlink:title="hypro::IJumpHandler">
<polygon fill="white" stroke="black" points="146.5,-142 146.5,-161 259.5,-161 259.5,-142 146.5,-142"/>
<text text-anchor="middle" x="203" y="-149" font-family="Helvetica,sans-Serif" font-size="10.00">hypro::IJumpHandler</text>
</a>
</g>
</g>
<!-- Node1&#45;&gt;Node8 -->
<g id="edge7" class="edge"><title>Node1&#45;&gt;Node8</title>
<path fill="none" stroke="midnightblue" d="M94.7892,-177.532C116.72,-172.207 142.185,-166.024 162.792,-161.02"/>
<polygon fill="midnightblue" stroke="midnightblue" points="93.8833,-174.15 84.9916,-179.911 95.5351,-180.953 93.8833,-174.15"/>
</g>
<!-- Node9 -->
<g id="node9" class="node"><title>Node9</title>
<g id="a_node9"><a xlink:href="classhypro_1_1_i_reset_handler.html" target="_top" xlink:title="hypro::IResetHandler">
<polygon fill="white" stroke="black" points="145,-104 145,-123 261,-123 261,-104 145,-104"/>
<text text-anchor="middle" x="203" y="-111" font-family="Helvetica,sans-Serif" font-size="10.00">hypro::IResetHandler</text>
</a>
</g>
</g>
<!-- Node1&#45;&gt;Node9 -->
<g id="edge8" class="edge"><title>Node1&#45;&gt;Node9</title>
<path fill="none" stroke="midnightblue" d="M63.6665,-173.374C79.0139,-160.548 102.097,-143.059 125,-132.5 133.253,-128.695 142.368,-125.59 151.353,-123.075"/>
<polygon fill="midnightblue" stroke="midnightblue" points="61.3085,-170.785 55.9862,-179.946 65.8597,-176.103 61.3085,-170.785"/>
</g>
<!-- Node14 -->
<g id="node14" class="node"><title>Node14</title>
<g id="a_node14"><a xlink:href="classhypro_1_1_i_time_evolution_handler.html" target="_top" xlink:title="hypro::ITimeEvolutionHandler">
<polygon fill="white" stroke="black" points="125,-55 125,-74 281,-74 281,-55 125,-55"/>
<text text-anchor="middle" x="203" y="-62" font-family="Helvetica,sans-Serif" font-size="10.00">hypro::ITimeEvolutionHandler</text>
</a>
</g>
</g>
<!-- Node1&#45;&gt;Node14 -->
<g id="edge13" class="edge"><title>Node1&#45;&gt;Node14</title>
<path fill="none" stroke="midnightblue" d="M56.7626,-171.1C70.5156,-149.997 95.6112,-115.603 125,-94.5 137.469,-85.5461 152.967,-78.8361 166.783,-74.0586"/>
<polygon fill="midnightblue" stroke="midnightblue" points="53.6673,-169.445 51.2671,-179.765 59.5787,-173.194 53.6673,-169.445"/>
</g>
<!-- Node4 -->
<g id="node4" class="node"><title>Node4</title>
<g id="a_node4"><a xlink:href="classhypro_1_1rectangular_first_segment_handler.html" target="_top" xlink:title="hypro::rectangularFirstSegment\lHandler\&lt; State \&gt;">
<polygon fill="white" stroke="black" points="317,-291.5 317,-321.5 485,-321.5 485,-291.5 317,-291.5"/>
<text text-anchor="start" x="325" y="-309.5" font-family="Helvetica,sans-Serif" font-size="10.00">hypro::rectangularFirstSegment</text>
<text text-anchor="middle" x="401" y="-298.5" font-family="Helvetica,sans-Serif" font-size="10.00">Handler&lt; State &gt;</text>
</a>
</g>
</g>
<!-- Node3&#45;&gt;Node4 -->
<g id="edge3" class="edge"><title>Node3&#45;&gt;Node4</title>
<path fill="none" stroke="midnightblue" d="M289.856,-293.013C298.848,-294.114 307.979,-295.232 316.939,-296.329"/>
<polygon fill="midnightblue" stroke="midnightblue" points="290.13,-289.52 279.779,-291.779 289.279,-296.469 290.13,-289.52"/>
</g>
<!-- Node5 -->
<g id="node5" class="node"><title>Node5</title>
<g id="a_node5"><a xlink:href="classhypro_1_1_t_poly_first_segment_handler.html" target="_top" xlink:title="hypro::TPolyFirstSegment\lHandler\&lt; State \&gt;">
<polygon fill="white" stroke="black" points="332,-242.5 332,-272.5 470,-272.5 470,-242.5 332,-242.5"/>
<text text-anchor="start" x="340" y="-260.5" font-family="Helvetica,sans-Serif" font-size="10.00">hypro::TPolyFirstSegment</text>
<text text-anchor="middle" x="401" y="-249.5" font-family="Helvetica,sans-Serif" font-size="10.00">Handler&lt; State &gt;</text>
</a>
</g>
</g>
<!-- Node3&#45;&gt;Node5 -->
<g id="edge4" class="edge"><title>Node3&#45;&gt;Node5</title>
<path fill="none" stroke="midnightblue" d="M289.907,-271.542C303.922,-269.755 318.271,-267.925 331.785,-266.201"/>
<polygon fill="midnightblue" stroke="midnightblue" points="289.255,-268.097 279.779,-272.834 290.141,-275.041 289.255,-268.097"/>
</g>
<!-- Node10 -->
<g id="node10" class="node"><title>Node10</title>
<g id="a_node10"><a xlink:href="classhypro_1_1lti_reset_handler.html" target="_top" xlink:title="hypro::ltiResetHandler\l\&lt; State \&gt;">
<polygon fill="white" stroke="black" points="340,-147.5 340,-177.5 462,-177.5 462,-147.5 340,-147.5"/>
<text text-anchor="start" x="348" y="-165.5" font-family="Helvetica,sans-Serif" font-size="10.00">hypro::ltiResetHandler</text>
<text text-anchor="middle" x="401" y="-154.5" font-family="Helvetica,sans-Serif" font-size="10.00">&lt; State &gt;</text>
</a>
</g>
</g>
<!-- Node9&#45;&gt;Node10 -->
<g id="edge9" class="edge"><title>Node9&#45;&gt;Node10</title>
<path fill="none" stroke="midnightblue" d="M252.767,-125.494C262.139,-127.81 271.876,-130.224 281,-132.5 300.432,-137.347 321.639,-142.679 340.696,-147.487"/>
<polygon fill="midnightblue" stroke="midnightblue" points="253.334,-122.029 242.786,-123.03 251.656,-128.825 253.334,-122.029"/>
</g>
<!-- Node13 -->
<g id="node13" class="node"><title>Node13</title>
<g id="a_node13"><a xlink:href="classhypro_1_1rectangular_reset_handler.html" target="_top" xlink:title="hypro::rectangularResetHandler\l\&lt; State \&gt;">
<polygon fill="white" stroke="black" points="317,-98.5 317,-128.5 485,-128.5 485,-98.5 317,-98.5"/>
<text text-anchor="start" x="325" y="-116.5" font-family="Helvetica,sans-Serif" font-size="10.00">hypro::rectangularResetHandler</text>
<text text-anchor="middle" x="401" y="-105.5" font-family="Helvetica,sans-Serif" font-size="10.00">&lt; State &gt;</text>
</a>
</g>
</g>
<!-- Node9&#45;&gt;Node13 -->
<g id="edge12" class="edge"><title>Node9&#45;&gt;Node13</title>
<path fill="none" stroke="midnightblue" d="M271.632,-113.5C286.203,-113.5 301.769,-113.5 316.854,-113.5"/>
<polygon fill="midnightblue" stroke="midnightblue" points="271.218,-110 261.218,-113.5 271.218,-117 271.218,-110"/>
</g>
<!-- Node11 -->
<g id="node11" class="node"><title>Node11</title>
<g id="a_node11"><a xlink:href="classhypro_1_1discrete_reset_handler.html" target="_top" xlink:title="hypro::discreteResetHandler\l\&lt; State \&gt;">
<polygon fill="white" stroke="black" points="521,-172.5 521,-202.5 673,-202.5 673,-172.5 521,-172.5"/>
<text text-anchor="start" x="529" y="-190.5" font-family="Helvetica,sans-Serif" font-size="10.00">hypro::discreteResetHandler</text>
<text text-anchor="middle" x="597" y="-179.5" font-family="Helvetica,sans-Serif" font-size="10.00">&lt; State &gt;</text>
</a>
</g>
</g>
<!-- Node10&#45;&gt;Node11 -->
<g id="edge10" class="edge"><title>Node10&#45;&gt;Node11</title>
<path fill="none" stroke="midnightblue" d="M472.259,-171.554C488.041,-173.588 504.848,-175.754 520.823,-177.812"/>
<polygon fill="midnightblue" stroke="midnightblue" points="472.42,-168.046 462.054,-170.239 471.525,-174.988 472.42,-168.046"/>
</g>
<!-- Node12 -->
<g id="node12" class="node"><title>Node12</title>
<g id="a_node12"><a xlink:href="classhypro_1_1timed_reset_handler.html" target="_top" xlink:title="hypro::timedResetHandler\l\&lt; State \&gt;">
<polygon fill="white" stroke="black" points="526.5,-123.5 526.5,-153.5 667.5,-153.5 667.5,-123.5 526.5,-123.5"/>
<text text-anchor="start" x="534.5" y="-141.5" font-family="Helvetica,sans-Serif" font-size="10.00">hypro::timedResetHandler</text>
<text text-anchor="middle" x="597" y="-130.5" font-family="Helvetica,sans-Serif" font-size="10.00">&lt; State &gt;</text>
</a>
</g>
</g>
<!-- Node10&#45;&gt;Node12 -->
<g id="edge11" class="edge"><title>Node10&#45;&gt;Node12</title>
<path fill="none" stroke="midnightblue" d="M472.264,-153.808C489.888,-151.627 508.79,-149.289 526.383,-147.112"/>
<polygon fill="midnightblue" stroke="midnightblue" points="471.549,-150.369 462.054,-155.071 472.408,-157.316 471.549,-150.369"/>
</g>
<!-- Node15 -->
<g id="node15" class="node"><title>Node15</title>
<g id="a_node15"><a xlink:href="classhypro_1_1discrete_time_evolution_handler.html" target="_top" xlink:title="hypro::discreteTimeEvolution\lHandler">
<polygon fill="white" stroke="black" points="323.5,-49.5 323.5,-79.5 478.5,-79.5 478.5,-49.5 323.5,-49.5"/>
<text text-anchor="start" x="331.5" y="-67.5" font-family="Helvetica,sans-Serif" font-size="10.00">hypro::discreteTimeEvolution</text>
<text text-anchor="middle" x="401" y="-56.5" font-family="Helvetica,sans-Serif" font-size="10.00">Handler</text>
</a>
</g>
</g>
<!-- Node14&#45;&gt;Node15 -->
<g id="edge14" class="edge"><title>Node14&#45;&gt;Node15</title>
<path fill="none" stroke="midnightblue" d="M291.309,-64.5C301.942,-64.5 312.745,-64.5 323.209,-64.5"/>
<polygon fill="midnightblue" stroke="midnightblue" points="291.183,-61.0001 281.183,-64.5 291.183,-68.0001 291.183,-61.0001"/>
</g>
<!-- Node16 -->
<g id="node16" class="node"><title>Node16</title>
<g id="a_node16"><a xlink:href="classhypro_1_1_t_poly_time_evolution_handler.html" target="_top" xlink:title="hypro::TPolyTimeEvolution\lHandler\&lt; State \&gt;">
<polygon fill="white" stroke="black" points="330.5,-0.5 330.5,-30.5 471.5,-30.5 471.5,-0.5 330.5,-0.5"/>
<text text-anchor="start" x="338.5" y="-18.5" font-family="Helvetica,sans-Serif" font-size="10.00">hypro::TPolyTimeEvolution</text>
<text text-anchor="middle" x="401" y="-7.5" font-family="Helvetica,sans-Serif" font-size="10.00">Handler&lt; State &gt;</text>
</a>
</g>
</g>
<!-- Node14&#45;&gt;Node16 -->
<g id="edge15" class="edge"><title>Node14&#45;&gt;Node16</title>
<path fill="none" stroke="midnightblue" d="M252.057,-52.4858C278.54,-45.865 311.664,-37.5839 339.852,-30.537"/>
<polygon fill="midnightblue" stroke="midnightblue" points="251.109,-49.1151 242.256,-54.936 252.806,-55.9061 251.109,-49.1151"/>
</g>
</g>
</svg>
