<?xml version="1.0" encoding="UTF-8" standalone="no"?>
<!DOCTYPE svg PUBLIC "-//W3C//DTD SVG 1.1//EN"
 "http://www.w3.org/Graphics/SVG/1.1/DTD/svg11.dtd">
<!-- Generated by graphviz version 2.38.0 (20140413.2041)
 -->
<!-- Title: Graphical Class Hierarchy Pages: 1 -->
<svg width="295pt" height="78pt"
 viewBox="0.00 0.00 295.00 77.50" xmlns="http://www.w3.org/2000/svg" xmlns:xlink="http://www.w3.org/1999/xlink">
<g id="graph0" class="graph" transform="scale(1 1) rotate(0) translate(4 73.5)">
<title>Graphical Class Hierarchy</title>
<polygon fill="white" stroke="none" points="-4,4 -4,-73.5 291,-73.5 291,4 -4,4"/>
<!-- Node1 -->
<g id="node1" class="node"><title>Node1</title>
<g id="a_node1"><a xlink:title="STL class. ">
<polygon fill="white" stroke="#bfbfbf" points="0,-22.5 0,-41.5 84,-41.5 84,-22.5 0,-22.5"/>
<text text-anchor="middle" x="42" y="-29.5" font-family="Helvetica,sans-Serif" font-size="10.00">std::exception</text>
</a>
</g>
</g>
<!-- Node2 -->
<g id="node2" class="node"><title>Node2</title>
<g id="a_node2"><a xlink:href="classhypro_1_1_finish_with_discrete_processing_exception.html" target="_top" xlink:title="hypro::FinishWithDiscrete\lProcessingException">
<polygon fill="white" stroke="black" points="135.5,-39 135.5,-69 271.5,-69 271.5,-39 135.5,-39"/>
<text text-anchor="start" x="143.5" y="-57" font-family="Helvetica,sans-Serif" font-size="10.00">hypro::FinishWithDiscrete</text>
<text text-anchor="middle" x="203.5" y="-46" font-family="Helvetica,sans-Serif" font-size="10.00">ProcessingException</text>
</a>
</g>
</g>
<!-- Node1&#45;&gt;Node2 -->
<g id="edge1" class="edge"><title>Node1&#45;&gt;Node2</title>
<path fill="none" stroke="midnightblue" d="M94.2621,-39.0706C107.318,-40.8714 121.546,-42.834 135.268,-44.7266"/>
<polygon fill="midnightblue" stroke="midnightblue" points="94.4597,-35.5648 84.0752,-37.6655 93.5032,-42.4992 94.4597,-35.5648"/>
</g>
<!-- Node3 -->
<g id="node3" class="node"><title>Node3</title>
<g id="a_node3"><a xlink:href="classhypro_1_1_hard_terminate_exception.html" target="_top" xlink:title="hypro::HardTerminateException">
<polygon fill="white" stroke="black" points="120,-0.5 120,-19.5 287,-19.5 287,-0.5 120,-0.5"/>
<text text-anchor="middle" x="203.5" y="-7.5" font-family="Helvetica,sans-Serif" font-size="10.00">hypro::HardTerminateException</text>
</a>
</g>
</g>
<!-- Node1&#45;&gt;Node3 -->
<g id="edge2" class="edge"><title>Node1&#45;&gt;Node3</title>
<path fill="none" stroke="midnightblue" d="M94.2644,-24.929C106.732,-23.2094 120.269,-21.3422 133.413,-19.5293"/>
<polygon fill="midnightblue" stroke="midnightblue" points="93.5032,-21.5008 84.0752,-26.3345 94.4597,-28.4352 93.5032,-21.5008"/>
</g>
</g>
</svg>
