<?xml version="1.0" encoding="UTF-8" standalone="no"?>
<!DOCTYPE svg PUBLIC "-//W3C//DTD SVG 1.1//EN"
 "http://www.w3.org/Graphics/SVG/1.1/DTD/svg11.dtd">
<!-- Generated by graphviz version 2.38.0 (20140413.2041)
 -->
<!-- Title: Graphical Class Hierarchy Pages: 1 -->
<svg width="426pt" height="39pt"
 viewBox="0.00 0.00 426.00 39.00" xmlns="http://www.w3.org/2000/svg" xmlns:xlink="http://www.w3.org/1999/xlink">
<g id="graph0" class="graph" transform="scale(1 1) rotate(0) translate(4 35)">
<title>Graphical Class Hierarchy</title>
<polygon fill="white" stroke="none" points="-4,4 -4,-35 422,-35 422,4 -4,4"/>
<!-- Node1 -->
<g id="node1" class="node"><title>Node1</title>
<g id="a_node1"><a xlink:href="classhypro_1_1_support_function_content.html" target="_top" xlink:title="Class for support function content. ">
<polygon fill="white" stroke="black" points="0,-0.5 0,-30.5 166,-30.5 166,-0.5 0,-0.5"/>
<text text-anchor="start" x="8" y="-18.5" font-family="Helvetica,sans-Serif" font-size="10.00">hypro::SupportFunctionContent</text>
<text text-anchor="middle" x="83" y="-7.5" font-family="Helvetica,sans-Serif" font-size="10.00">&lt; Number, Setting &gt;</text>
</a>
</g>
</g>
<!-- Node2 -->
<g id="node2" class="node"><title>Node2</title>
<g id="a_node2"><a xlink:href="classhypro_1_1_non_linear_omega0_supportfunction.html" target="_top" xlink:title="hypro::NonLinearOmega0Supportfunction\l\&lt; Setting \&gt;">
<polygon fill="white" stroke="black" points="202,-0.5 202,-30.5 418,-30.5 418,-0.5 202,-0.5"/>
<text text-anchor="start" x="210" y="-18.5" font-family="Helvetica,sans-Serif" font-size="10.00">hypro::NonLinearOmega0Supportfunction</text>
<text text-anchor="middle" x="310" y="-7.5" font-family="Helvetica,sans-Serif" font-size="10.00">&lt; Setting &gt;</text>
</a>
</g>
</g>
<!-- Node1&#45;&gt;Node2 -->
<g id="edge1" class="edge"><title>Node1&#45;&gt;Node2</title>
<path fill="none" stroke="midnightblue" d="M176.303,-15.5C184.671,-15.5 193.194,-15.5 201.677,-15.5"/>
<polygon fill="midnightblue" stroke="midnightblue" points="176.185,-12.0001 166.185,-15.5 176.185,-19.0001 176.185,-12.0001"/>
</g>
</g>
</svg>
