<?xml version="1.0" encoding="UTF-8" standalone="no"?>
<!DOCTYPE svg PUBLIC "-//W3C//DTD SVG 1.1//EN"
 "http://www.w3.org/Graphics/SVG/1.1/DTD/svg11.dtd">
<!-- Generated by graphviz version 2.38.0 (20140413.2041)
 -->
<!-- Title: Graphical Class Hierarchy Pages: 1 -->
<svg width="321pt" height="88pt"
 viewBox="0.00 0.00 321.00 88.00" xmlns="http://www.w3.org/2000/svg" xmlns:xlink="http://www.w3.org/1999/xlink">
<g id="graph0" class="graph" transform="scale(1 1) rotate(0) translate(4 84)">
<title>Graphical Class Hierarchy</title>
<polygon fill="white" stroke="none" points="-4,4 -4,-84 317,-84 317,4 -4,4"/>
<!-- Node1 -->
<g id="node1" class="node"><title>Node1</title>
<g id="a_node1"><a xlink:href="classhypro_1_1_tree_node.html" target="_top" xlink:title="hypro::TreeNode\&lt; ReachTree\lNode\&lt; Representation \&gt; \&gt;">
<polygon fill="white" stroke="black" points="0,-0.5 0,-30.5 154,-30.5 154,-0.5 0,-0.5"/>
<text text-anchor="start" x="8" y="-18.5" font-family="Helvetica,sans-Serif" font-size="10.00">hypro::TreeNode&lt; ReachTree</text>
<text text-anchor="middle" x="77" y="-7.5" font-family="Helvetica,sans-Serif" font-size="10.00">Node&lt; Representation &gt; &gt;</text>
</a>
</g>
</g>
<!-- Node2 -->
<g id="node2" class="node"><title>Node2</title>
<g id="a_node2"><a xlink:href="classhypro_1_1_reach_tree_node.html" target="_top" xlink:title="hypro::ReachTreeNode\l\&lt; State \&gt;">
<polygon fill="white" stroke="black" points="190,-49.5 190,-79.5 313,-79.5 313,-49.5 190,-49.5"/>
<text text-anchor="start" x="198" y="-67.5" font-family="Helvetica,sans-Serif" font-size="10.00">hypro::ReachTreeNode</text>
<text text-anchor="middle" x="251.5" y="-56.5" font-family="Helvetica,sans-Serif" font-size="10.00">&lt; State &gt;</text>
</a>
</g>
</g>
<!-- Node1&#45;&gt;Node2 -->
<g id="edge1" class="edge"><title>Node1&#45;&gt;Node2</title>
<path fill="none" stroke="#8b1a1a" d="M140.994,-33.3941C159.548,-38.6644 179.654,-44.3755 197.512,-49.4484"/>
<polygon fill="#8b1a1a" stroke="#8b1a1a" points="141.739,-29.9672 131.163,-30.6014 139.826,-36.7008 141.739,-29.9672"/>
</g>
<!-- Node3 -->
<g id="node3" class="node"><title>Node3</title>
<g id="a_node3"><a xlink:href="classhypro_1_1_reach_tree_node.html" target="_top" xlink:title="hypro::ReachTreeNode\l\&lt; Representation \&gt;">
<polygon fill="white" stroke="black" points="190,-0.5 190,-30.5 313,-30.5 313,-0.5 190,-0.5"/>
<text text-anchor="start" x="198" y="-18.5" font-family="Helvetica,sans-Serif" font-size="10.00">hypro::ReachTreeNode</text>
<text text-anchor="middle" x="251.5" y="-7.5" font-family="Helvetica,sans-Serif" font-size="10.00">&lt; Representation &gt;</text>
</a>
</g>
</g>
<!-- Node1&#45;&gt;Node3 -->
<g id="edge2" class="edge"><title>Node1&#45;&gt;Node3</title>
<path fill="none" stroke="midnightblue" d="M164.256,-15.5C172.872,-15.5 181.487,-15.5 189.759,-15.5"/>
<polygon fill="midnightblue" stroke="midnightblue" points="164.163,-12.0001 154.163,-15.5 164.163,-19.0001 164.163,-12.0001"/>
</g>
<!-- Node4 -->
<g id="node4" class="node"><title>Node4</title>
<g id="a_node4"><a xlink:href="classhypro_1_1_tree_node.html" target="_top" xlink:title="hypro::TreeNode\&lt; ReachTree\lNode\&lt; State \&gt; \&gt;">
<polygon fill="white" stroke="black" points="0,-49.5 0,-79.5 154,-79.5 154,-49.5 0,-49.5"/>
<text text-anchor="start" x="8" y="-67.5" font-family="Helvetica,sans-Serif" font-size="10.00">hypro::TreeNode&lt; ReachTree</text>
<text text-anchor="middle" x="77" y="-56.5" font-family="Helvetica,sans-Serif" font-size="10.00">Node&lt; State &gt; &gt;</text>
</a>
</g>
</g>
<!-- Node4&#45;&gt;Node2 -->
<g id="edge3" class="edge"><title>Node4&#45;&gt;Node2</title>
<path fill="none" stroke="midnightblue" d="M164.256,-64.5C172.872,-64.5 181.487,-64.5 189.759,-64.5"/>
<polygon fill="midnightblue" stroke="midnightblue" points="164.163,-61.0001 154.163,-64.5 164.163,-68.0001 164.163,-61.0001"/>
</g>
</g>
</svg>
