<?xml version="1.0" encoding="UTF-8" standalone="no"?>
<!DOCTYPE svg PUBLIC "-//W3C//DTD SVG 1.1//EN"
 "http://www.w3.org/Graphics/SVG/1.1/DTD/svg11.dtd">
<!-- Generated by graphviz version 2.38.0 (20140413.2041)
 -->
<!-- Title: Graphical Class Hierarchy Pages: 1 -->
<svg width="337pt" height="88pt"
 viewBox="0.00 0.00 337.00 88.00" xmlns="http://www.w3.org/2000/svg" xmlns:xlink="http://www.w3.org/1999/xlink">
<g id="graph0" class="graph" transform="scale(1 1) rotate(0) translate(4 84)">
<title>Graphical Class Hierarchy</title>
<polygon fill="white" stroke="none" points="-4,4 -4,-84 333,-84 333,4 -4,4"/>
<!-- Node1 -->
<g id="node1" class="node"><title>Node1</title>
<g id="a_node1"><a xlink:href="classhypro_1_1lti_invariant_handler.html" target="_top" xlink:title="hypro::ltiInvariantHandler\l\&lt; State \&gt;">
<polygon fill="white" stroke="black" points="0,-24.5 0,-54.5 137,-54.5 137,-24.5 0,-24.5"/>
<text text-anchor="start" x="8" y="-42.5" font-family="Helvetica,sans-Serif" font-size="10.00">hypro::ltiInvariantHandler</text>
<text text-anchor="middle" x="68.5" y="-31.5" font-family="Helvetica,sans-Serif" font-size="10.00">&lt; State &gt;</text>
</a>
</g>
</g>
<!-- Node2 -->
<g id="node2" class="node"><title>Node2</title>
<g id="a_node2"><a xlink:href="classhypro_1_1discrete_invariant_handler.html" target="_top" xlink:title="hypro::discreteInvariant\lHandler\&lt; State \&gt;">
<polygon fill="white" stroke="black" points="186.5,-49.5 186.5,-79.5 315.5,-79.5 315.5,-49.5 186.5,-49.5"/>
<text text-anchor="start" x="194.5" y="-67.5" font-family="Helvetica,sans-Serif" font-size="10.00">hypro::discreteInvariant</text>
<text text-anchor="middle" x="251" y="-56.5" font-family="Helvetica,sans-Serif" font-size="10.00">Handler&lt; State &gt;</text>
</a>
</g>
</g>
<!-- Node1&#45;&gt;Node2 -->
<g id="edge1" class="edge"><title>Node1&#45;&gt;Node2</title>
<path fill="none" stroke="midnightblue" d="M147.147,-50.2545C160.239,-52.0677 173.691,-53.9309 186.373,-55.6874"/>
<polygon fill="midnightblue" stroke="midnightblue" points="147.611,-46.7853 137.225,-48.8802 146.65,-53.7191 147.611,-46.7853"/>
</g>
<!-- Node3 -->
<g id="node3" class="node"><title>Node3</title>
<g id="a_node3"><a xlink:href="classhypro_1_1timed_invariant_handler.html" target="_top" xlink:title="hypro::timedInvariantHandler\l\&lt; State \&gt;">
<polygon fill="white" stroke="black" points="173,-0.5 173,-30.5 329,-30.5 329,-0.5 173,-0.5"/>
<text text-anchor="start" x="181" y="-18.5" font-family="Helvetica,sans-Serif" font-size="10.00">hypro::timedInvariantHandler</text>
<text text-anchor="middle" x="251" y="-7.5" font-family="Helvetica,sans-Serif" font-size="10.00">&lt; State &gt;</text>
</a>
</g>
</g>
<!-- Node1&#45;&gt;Node3 -->
<g id="edge2" class="edge"><title>Node1&#45;&gt;Node3</title>
<path fill="none" stroke="midnightblue" d="M147.401,-29.142C155.819,-28.0227 164.383,-26.8839 172.793,-25.7657"/>
<polygon fill="midnightblue" stroke="midnightblue" points="146.676,-25.7074 137.225,-30.495 147.599,-32.6463 146.676,-25.7074"/>
</g>
</g>
</svg>
