<?xml version="1.0" encoding="UTF-8" standalone="no"?>
<!DOCTYPE svg PUBLIC "-//W3C//DTD SVG 1.1//EN"
 "http://www.w3.org/Graphics/SVG/1.1/DTD/svg11.dtd">
<!-- Generated by graphviz version 2.38.0 (20140413.2041)
 -->
<!-- Title: Graphical Class Hierarchy Pages: 1 -->
<svg width="319pt" height="50pt"
 viewBox="0.00 0.00 319.00 50.00" xmlns="http://www.w3.org/2000/svg" xmlns:xlink="http://www.w3.org/1999/xlink">
<g id="graph0" class="graph" transform="scale(1 1) rotate(0) translate(4 46)">
<title>Graphical Class Hierarchy</title>
<polygon fill="white" stroke="none" points="-4,4 -4,-46 315,-46 315,4 -4,4"/>
<!-- Node1 -->
<g id="node1" class="node"><title>Node1</title>
<g id="a_node1"><a xlink:href="classhypro_1_1GeometricObject.html" target="_top" xlink:title="hypro::GeometricObject\l\&lt; Number, BoxT\&lt; Number,\l Converter, Setting \&gt; \&gt;">
<polygon fill="white" stroke="black" points="0,-0.5 0,-41.5 149,-41.5 149,-0.5 0,-0.5"/>
<text text-anchor="start" x="8" y="-29.5" font-family="Helvetica,sans-Serif" font-size="10.00">hypro::GeometricObject</text>
<text text-anchor="start" x="8" y="-18.5" font-family="Helvetica,sans-Serif" font-size="10.00">&lt; Number, BoxT&lt; Number,</text>
<text text-anchor="middle" x="74.5" y="-7.5" font-family="Helvetica,sans-Serif" font-size="10.00"> Converter, Setting &gt; &gt;</text>
</a>
</g>
</g>
<!-- Node2 -->
<g id="node2" class="node"><title>Node2</title>
<g id="a_node2"><a xlink:href="classhypro_1_1BoxT.html" target="_top" xlink:title="The class which represents a box. ">
<polygon fill="white" stroke="black" points="185,-6 185,-36 311,-36 311,-6 185,-6"/>
<text text-anchor="start" x="193" y="-24" font-family="Helvetica,sans-Serif" font-size="10.00">hypro::BoxT&lt; Number,</text>
<text text-anchor="middle" x="248" y="-13" font-family="Helvetica,sans-Serif" font-size="10.00"> Converter, Setting &gt;</text>
</a>
</g>
</g>
<!-- Node1&#45;&gt;Node2 -->
<g id="edge1" class="edge"><title>Node1&#45;&gt;Node2</title>
<path fill="none" stroke="midnightblue" d="M159.315,-21C167.937,-21 176.585,-21 184.91,-21"/>
<polygon fill="midnightblue" stroke="midnightblue" points="159.227,-17.5001 149.227,-21 159.227,-24.5001 159.227,-17.5001"/>
</g>
</g>
</svg>
