<?xml version="1.0" encoding="UTF-8" standalone="no"?>
<!DOCTYPE svg PUBLIC "-//W3C//DTD SVG 1.1//EN"
 "http://www.w3.org/Graphics/SVG/1.1/DTD/svg11.dtd">
<!-- Generated by graphviz version 2.38.0 (20140413.2041)
 -->
<!-- Title: Graphical Class Hierarchy Pages: 1 -->
<svg width="191pt" height="66pt"
 viewBox="0.00 0.00 191.00 66.00" xmlns="http://www.w3.org/2000/svg" xmlns:xlink="http://www.w3.org/1999/xlink">
<g id="graph0" class="graph" transform="scale(1 1) rotate(0) translate(4 62)">
<title>Graphical Class Hierarchy</title>
<polygon fill="white" stroke="none" points="-4,4 -4,-62 187,-62 187,4 -4,4"/>
<!-- Node1 -->
<g id="node1" class="node"><title>Node1</title>
<polygon fill="white" stroke="#bfbfbf" points="0,-19.5 0,-38.5 46,-38.5 46,-19.5 0,-19.5"/>
<text text-anchor="middle" x="23" y="-26.5" font-family="Helvetica,sans-Serif" font-size="10.00">object</text>
</g>
<!-- Node2 -->
<g id="node2" class="node"><title>Node2</title>
<g id="a_node2"><a xlink:href="classrun__hydra_1_1Model.html" target="_top" xlink:title="run_hydra.Model">
<polygon fill="white" stroke="black" points="84.5,-38.5 84.5,-57.5 180.5,-57.5 180.5,-38.5 84.5,-38.5"/>
<text text-anchor="middle" x="132.5" y="-45.5" font-family="Helvetica,sans-Serif" font-size="10.00">run_hydra.Model</text>
</a>
</g>
</g>
<!-- Node1&#45;&gt;Node2 -->
<g id="edge1" class="edge"><title>Node1&#45;&gt;Node2</title>
<path fill="none" stroke="midnightblue" d="M55.9312,-34.6437C64.8176,-36.2143 74.6623,-37.9543 84.2292,-39.6452"/>
<polygon fill="midnightblue" stroke="midnightblue" points="56.4702,-31.1847 46.0136,-32.8908 55.2518,-38.0779 56.4702,-31.1847"/>
</g>
<!-- Node3 -->
<g id="node3" class="node"><title>Node3</title>
<g id="a_node3"><a xlink:href="classrun__hydra_1_1Results.html" target="_top" xlink:title="run_hydra.Results">
<polygon fill="white" stroke="black" points="82,-0.5 82,-19.5 183,-19.5 183,-0.5 82,-0.5"/>
<text text-anchor="middle" x="132.5" y="-7.5" font-family="Helvetica,sans-Serif" font-size="10.00">run_hydra.Results</text>
</a>
</g>
</g>
<!-- Node1&#45;&gt;Node3 -->
<g id="edge2" class="edge"><title>Node1&#45;&gt;Node3</title>
<path fill="none" stroke="midnightblue" d="M56.0472,-23.3359C64.0782,-21.9164 72.8861,-20.3597 81.5609,-18.8264"/>
<polygon fill="midnightblue" stroke="midnightblue" points="55.2518,-19.9221 46.0136,-25.1092 56.4702,-26.8153 55.2518,-19.9221"/>
</g>
</g>
</svg>
