<?xml version="1.0" encoding="UTF-8" standalone="no"?>
<!DOCTYPE svg PUBLIC "-//W3C//DTD SVG 1.1//EN"
 "http://www.w3.org/Graphics/SVG/1.1/DTD/svg11.dtd">
<!-- Generated by graphviz version 2.38.0 (20140413.2041)
 -->
<!-- Title: Graphical Class Hierarchy Pages: 1 -->
<svg width="318pt" height="1138pt"
 viewBox="0.00 0.00 318.00 1138.00" xmlns="http://www.w3.org/2000/svg" xmlns:xlink="http://www.w3.org/1999/xlink">
<g id="graph0" class="graph" transform="scale(1 1) rotate(0) translate(4 1134)">
<title>Graphical Class Hierarchy</title>
<polygon fill="white" stroke="none" points="-4,4 -4,-1134 314,-1134 314,4 -4,4"/>
<!-- Node1 -->
<g id="node1" class="node"><title>Node1</title>
<polygon fill="white" stroke="#bfbfbf" points="0,-574 0,-593 77,-593 77,-574 0,-574"/>
<text text-anchor="middle" x="38.5" y="-581" font-family="Helvetica,sans-Serif" font-size="10.00">static_visitor</text>
</g>
<!-- Node2 -->
<g id="node2" class="node"><title>Node2</title>
<g id="a_node2"><a xlink:href="structhypro_1_1detail_1_1ResetVisitor.html" target="_top" xlink:title="hypro::detail::ResetVisitor\l\&lt; ReturnType, Function \&gt;">
<polygon fill="white" stroke="black" points="142.5,-1099.5 142.5,-1129.5 280.5,-1129.5 280.5,-1099.5 142.5,-1099.5"/>
<text text-anchor="start" x="150.5" y="-1117.5" font-family="Helvetica,sans-Serif" font-size="10.00">hypro::detail::ResetVisitor</text>
<text text-anchor="middle" x="211.5" y="-1106.5" font-family="Helvetica,sans-Serif" font-size="10.00">&lt; ReturnType, Function &gt;</text>
</a>
</g>
</g>
<!-- Node1&#45;&gt;Node2 -->
<g id="edge1" class="edge"><title>Node1&#45;&gt;Node2</title>
<path fill="none" stroke="midnightblue" d="M39.5533,-603.157C40.1869,-687.271 46.9169,-1015.96 113,-1089.5 120.825,-1098.21 131.233,-1104.07 142.335,-1107.98"/>
<polygon fill="midnightblue" stroke="midnightblue" points="43.0534,-603.137 39.4994,-593.156 36.0535,-603.175 43.0534,-603.137"/>
</g>
<!-- Node3 -->
<g id="node3" class="node"><title>Node3</title>
<g id="a_node3"><a xlink:href="structhypro_1_1flowDimensionVisitor.html" target="_top" xlink:title="hypro::flowDimensionVisitor">
<polygon fill="white" stroke="black" points="137,-1061 137,-1080 286,-1080 286,-1061 137,-1061"/>
<text text-anchor="middle" x="211.5" y="-1068" font-family="Helvetica,sans-Serif" font-size="10.00">hypro::flowDimensionVisitor</text>
</a>
</g>
</g>
<!-- Node1&#45;&gt;Node3 -->
<g id="edge2" class="edge"><title>Node1&#45;&gt;Node3</title>
<path fill="none" stroke="midnightblue" d="M39.7069,-603.545C40.967,-684.489 49.8906,-986.032 113,-1051.5 119.583,-1058.33 127.837,-1063.1 136.742,-1066.38"/>
<polygon fill="midnightblue" stroke="midnightblue" points="43.2028,-603.21 39.571,-593.258 36.2034,-603.303 43.2028,-603.21"/>
</g>
<!-- Node4 -->
<g id="node4" class="node"><title>Node4</title>
<g id="a_node4"><a xlink:href="structhypro_1_1flowHashVisitor.html" target="_top" xlink:title="hypro::flowHashVisitor">
<polygon fill="white" stroke="black" points="150.5,-1023 150.5,-1042 272.5,-1042 272.5,-1023 150.5,-1023"/>
<text text-anchor="middle" x="211.5" y="-1030" font-family="Helvetica,sans-Serif" font-size="10.00">hypro::flowHashVisitor</text>
</a>
</g>
</g>
<!-- Node1&#45;&gt;Node4 -->
<g id="edge3" class="edge"><title>Node1&#45;&gt;Node4</title>
<path fill="none" stroke="midnightblue" d="M40.0066,-603.374C42.3751,-679.873 54.8518,-953.989 113,-1013.5 122.883,-1023.61 136.438,-1029.2 150.299,-1032.12"/>
<polygon fill="midnightblue" stroke="midnightblue" points="43.5005,-603.108 39.7169,-593.211 36.5033,-603.307 43.5005,-603.108"/>
</g>
<!-- Node5 -->
<g id="node5" class="node"><title>Node5</title>
<g id="a_node5"><a xlink:href="structhypro_1_1flowIsDiscreteVisitor.html" target="_top" xlink:title="hypro::flowIsDiscreteVisitor">
<polygon fill="white" stroke="black" points="139,-985 139,-1004 284,-1004 284,-985 139,-985"/>
<text text-anchor="middle" x="211.5" y="-992" font-family="Helvetica,sans-Serif" font-size="10.00">hypro::flowIsDiscreteVisitor</text>
</a>
</g>
</g>
<!-- Node1&#45;&gt;Node5 -->
<g id="edge4" class="edge"><title>Node1&#45;&gt;Node5</title>
<path fill="none" stroke="midnightblue" d="M40.3689,-603.435C43.9326,-675.63 59.8539,-921.975 113,-975.5 120.169,-982.72 129.212,-987.622 138.885,-990.889"/>
<polygon fill="midnightblue" stroke="midnightblue" points="43.8471,-602.886 39.8843,-593.061 36.8548,-603.213 43.8471,-602.886"/>
</g>
<!-- Node6 -->
<g id="node6" class="node"><title>Node6</title>
<g id="a_node6"><a xlink:href="structhypro_1_1flowIsTimedVisitor.html" target="_top" xlink:title="hypro::flowIsTimedVisitor">
<polygon fill="white" stroke="black" points="144.5,-947 144.5,-966 278.5,-966 278.5,-947 144.5,-947"/>
<text text-anchor="middle" x="211.5" y="-954" font-family="Helvetica,sans-Serif" font-size="10.00">hypro::flowIsTimedVisitor</text>
</a>
</g>
</g>
<!-- Node1&#45;&gt;Node6 -->
<g id="edge5" class="edge"><title>Node1&#45;&gt;Node6</title>
<path fill="none" stroke="midnightblue" d="M40.7899,-603.234C45.6023,-670.587 64.771,-889.859 113,-937.5 121.588,-945.984 132.77,-951.248 144.484,-954.42"/>
<polygon fill="midnightblue" stroke="midnightblue" points="44.2732,-602.869 40.096,-593.133 37.2897,-603.349 44.2732,-602.869"/>
</g>
<!-- Node7 -->
<g id="node7" class="node"><title>Node7</title>
<g id="a_node7"><a xlink:href="structhypro_1_1flowTypeVisitor.html" target="_top" xlink:title="hypro::flowTypeVisitor">
<polygon fill="white" stroke="black" points="152,-909 152,-928 271,-928 271,-909 152,-909"/>
<text text-anchor="middle" x="211.5" y="-916" font-family="Helvetica,sans-Serif" font-size="10.00">hypro::flowTypeVisitor</text>
</a>
</g>
</g>
<!-- Node1&#45;&gt;Node7 -->
<g id="edge6" class="edge"><title>Node1&#45;&gt;Node7</title>
<path fill="none" stroke="midnightblue" d="M41.3091,-603.11C47.468,-665.494 69.6832,-857.718 113,-899.5 123.488,-909.617 137.676,-915.125 151.977,-917.965"/>
<polygon fill="midnightblue" stroke="midnightblue" points="44.782,-602.659 40.3445,-593.038 37.8139,-603.326 44.782,-602.659"/>
</g>
<!-- Node8 -->
<g id="node8" class="node"><title>Node8</title>
<g id="a_node8"><a xlink:href="classhypro_1_1genericAffineTransformationVisitor.html" target="_top" xlink:title="hypro::genericAffineTransformation\lVisitor\&lt; T, Number \&gt;">
<polygon fill="white" stroke="black" points="120,-859.5 120,-889.5 303,-889.5 303,-859.5 120,-859.5"/>
<text text-anchor="start" x="128" y="-877.5" font-family="Helvetica,sans-Serif" font-size="10.00">hypro::genericAffineTransformation</text>
<text text-anchor="middle" x="211.5" y="-866.5" font-family="Helvetica,sans-Serif" font-size="10.00">Visitor&lt; T, Number &gt;</text>
</a>
</g>
</g>
<!-- Node1&#45;&gt;Node8 -->
<g id="edge7" class="edge"><title>Node1&#45;&gt;Node8</title>
<path fill="none" stroke="midnightblue" d="M38.7335,-603.394C37.9836,-652.603 43.203,-780.988 113,-849.5 116.866,-853.295 121.225,-856.537 125.902,-859.305"/>
<polygon fill="midnightblue" stroke="midnightblue" points="42.2385,-603.245 38.9988,-593.158 35.2409,-603.063 42.2385,-603.245"/>
</g>
<!-- Node9 -->
<g id="node9" class="node"><title>Node9</title>
<g id="a_node9"><a xlink:href="classhypro_1_1genericCompareVisitor.html" target="_top" xlink:title="hypro::genericCompareVisitor">
<polygon fill="white" stroke="black" points="132,-821 132,-840 291,-840 291,-821 132,-821"/>
<text text-anchor="middle" x="211.5" y="-828" font-family="Helvetica,sans-Serif" font-size="10.00">hypro::genericCompareVisitor</text>
</a>
</g>
</g>
<!-- Node1&#45;&gt;Node9 -->
<g id="edge8" class="edge"><title>Node1&#45;&gt;Node9</title>
<path fill="none" stroke="midnightblue" d="M39.5698,-603.17C40.8646,-647.601 50.6108,-756.148 113,-811.5 118.547,-816.421 124.982,-820.226 131.849,-823.149"/>
<polygon fill="midnightblue" stroke="midnightblue" points="43.0682,-603.04 39.3947,-593.102 36.0692,-603.162 43.0682,-603.04"/>
</g>
<!-- Node10 -->
<g id="node10" class="node"><title>Node10</title>
<g id="a_node10"><a xlink:href="classhypro_1_1genericConversionVisitor.html" target="_top" xlink:title="hypro::genericConversion\lVisitor\&lt; T, To \&gt;">
<polygon fill="white" stroke="black" points="142.5,-771.5 142.5,-801.5 280.5,-801.5 280.5,-771.5 142.5,-771.5"/>
<text text-anchor="start" x="150.5" y="-789.5" font-family="Helvetica,sans-Serif" font-size="10.00">hypro::genericConversion</text>
<text text-anchor="middle" x="211.5" y="-778.5" font-family="Helvetica,sans-Serif" font-size="10.00">Visitor&lt; T, To &gt;</text>
</a>
</g>
</g>
<!-- Node1&#45;&gt;Node10 -->
<g id="edge9" class="edge"><title>Node1&#45;&gt;Node10</title>
<path fill="none" stroke="midnightblue" d="M41.7367,-602.978C47.0446,-639.903 63.8758,-720.168 113,-762.5 121.452,-769.783 131.771,-774.925 142.496,-778.54"/>
<polygon fill="midnightblue" stroke="midnightblue" points="45.1994,-602.464 40.4364,-593 38.2581,-603.369 45.1994,-602.464"/>
</g>
<!-- Node11 -->
<g id="node11" class="node"><title>Node11</title>
<g id="a_node11"><a xlink:href="classhypro_1_1genericConvertAndGetVisitor.html" target="_top" xlink:title="hypro::genericConvertAnd\lGetVisitor\&lt; OutType \&gt;">
<polygon fill="white" stroke="black" points="141,-722.5 141,-752.5 282,-752.5 282,-722.5 141,-722.5"/>
<text text-anchor="start" x="149" y="-740.5" font-family="Helvetica,sans-Serif" font-size="10.00">hypro::genericConvertAnd</text>
<text text-anchor="middle" x="211.5" y="-729.5" font-family="Helvetica,sans-Serif" font-size="10.00">GetVisitor&lt; OutType &gt;</text>
</a>
</g>
</g>
<!-- Node1&#45;&gt;Node11 -->
<g id="edge10" class="edge"><title>Node1&#45;&gt;Node11</title>
<path fill="none" stroke="midnightblue" d="M45.0602,-602.574C54.3445,-630.974 75.755,-684.071 113,-712.5 121.265,-718.809 130.955,-723.535 140.961,-727.074"/>
<polygon fill="midnightblue" stroke="midnightblue" points="48.396,-601.514 42.0879,-593.002 41.7109,-603.59 48.396,-601.514"/>
</g>
<!-- Node12 -->
<g id="node12" class="node"><title>Node12</title>
<g id="a_node12"><a xlink:href="classhypro_1_1genericDimensionVisitor.html" target="_top" xlink:title="hypro::genericDimensionVisitor">
<polygon fill="white" stroke="black" points="128.5,-684 128.5,-703 294.5,-703 294.5,-684 128.5,-684"/>
<text text-anchor="middle" x="211.5" y="-691" font-family="Helvetica,sans-Serif" font-size="10.00">hypro::genericDimensionVisitor</text>
</a>
</g>
</g>
<!-- Node1&#45;&gt;Node12 -->
<g id="edge11" class="edge"><title>Node1&#45;&gt;Node12</title>
<path fill="none" stroke="midnightblue" d="M49.1497,-602C61.1599,-623.075 83.7115,-656.867 113,-674.5 119.427,-678.369 126.485,-681.472 133.774,-683.958"/>
<polygon fill="midnightblue" stroke="midnightblue" points="52.1258,-600.148 44.2518,-593.059 45.9865,-603.511 52.1258,-600.148"/>
</g>
<!-- Node13 -->
<g id="node13" class="node"><title>Node13</title>
<g id="a_node13"><a xlink:href="classhypro_1_1genericInternalConversionVisitor.html" target="_top" xlink:title="hypro::genericInternalConversion\lVisitor\&lt; T, Ext \&gt;">
<polygon fill="white" stroke="black" points="124.5,-634.5 124.5,-664.5 298.5,-664.5 298.5,-634.5 124.5,-634.5"/>
<text text-anchor="start" x="132.5" y="-652.5" font-family="Helvetica,sans-Serif" font-size="10.00">hypro::genericInternalConversion</text>
<text text-anchor="middle" x="211.5" y="-641.5" font-family="Helvetica,sans-Serif" font-size="10.00">Visitor&lt; T, Ext &gt;</text>
</a>
</g>
</g>
<!-- Node1&#45;&gt;Node13 -->
<g id="edge12" class="edge"><title>Node1&#45;&gt;Node13</title>
<path fill="none" stroke="midnightblue" d="M62.6959,-598.478C76.7937,-607.056 95.4125,-617.477 113,-624.5 122.331,-628.226 132.39,-631.54 142.378,-634.438"/>
<polygon fill="midnightblue" stroke="midnightblue" points="64.4818,-595.467 54.1409,-593.161 60.7868,-601.412 64.4818,-595.467"/>
</g>
<!-- Node14 -->
<g id="node14" class="node"><title>Node14</title>
<g id="a_node14"><a xlink:href="classhypro_1_1genericIntersectVisitor.html" target="_top" xlink:title="hypro::genericIntersectVisitor\&lt; T \&gt;">
<polygon fill="white" stroke="black" points="119,-596 119,-615 304,-615 304,-596 119,-596"/>
<text text-anchor="middle" x="211.5" y="-603" font-family="Helvetica,sans-Serif" font-size="10.00">hypro::genericIntersectVisitor&lt; T &gt;</text>
</a>
</g>
</g>
<!-- Node1&#45;&gt;Node14 -->
<g id="edge13" class="edge"><title>Node1&#45;&gt;Node14</title>
<path fill="none" stroke="midnightblue" d="M87.2563,-589.644C102.544,-591.611 119.845,-593.837 136.548,-595.986"/>
<polygon fill="midnightblue" stroke="midnightblue" points="87.3916,-586.133 77.0267,-588.328 86.4983,-593.075 87.3916,-586.133"/>
</g>
<!-- Node15 -->
<g id="node15" class="node"><title>Node15</title>
<g id="a_node15"><a xlink:href="classhypro_1_1genericIntervalAssignmentVisitor.html" target="_top" xlink:title="hypro::genericIntervalAssignment\lVisitor\&lt; T, Number \&gt;">
<polygon fill="white" stroke="black" points="123,-546.5 123,-576.5 300,-576.5 300,-546.5 123,-546.5"/>
<text text-anchor="start" x="131" y="-564.5" font-family="Helvetica,sans-Serif" font-size="10.00">hypro::genericIntervalAssignment</text>
<text text-anchor="middle" x="211.5" y="-553.5" font-family="Helvetica,sans-Serif" font-size="10.00">Visitor&lt; T, Number &gt;</text>
</a>
</g>
</g>
<!-- Node1&#45;&gt;Node15 -->
<g id="edge14" class="edge"><title>Node1&#45;&gt;Node15</title>
<path fill="none" stroke="midnightblue" d="M87.0038,-577.388C98.2366,-575.943 110.568,-574.357 122.956,-572.763"/>
<polygon fill="midnightblue" stroke="midnightblue" points="86.4983,-573.924 77.0267,-578.672 87.3916,-580.867 86.4983,-573.924"/>
</g>
<!-- Node16 -->
<g id="node16" class="node"><title>Node16</title>
<g id="a_node16"><a xlink:href="classhypro_1_1genericMinkowskiSumVisitor.html" target="_top" xlink:title="hypro::genericMinkowskiSum\lVisitor\&lt; T \&gt;">
<polygon fill="white" stroke="black" points="134,-497.5 134,-527.5 289,-527.5 289,-497.5 134,-497.5"/>
<text text-anchor="start" x="142" y="-515.5" font-family="Helvetica,sans-Serif" font-size="10.00">hypro::genericMinkowskiSum</text>
<text text-anchor="middle" x="211.5" y="-504.5" font-family="Helvetica,sans-Serif" font-size="10.00">Visitor&lt; T &gt;</text>
</a>
</g>
</g>
<!-- Node1&#45;&gt;Node16 -->
<g id="edge15" class="edge"><title>Node1&#45;&gt;Node16</title>
<path fill="none" stroke="midnightblue" d="M60.6099,-567.83C74.8033,-557.928 94.2741,-545.53 113,-537.5 121.833,-533.712 131.371,-530.398 140.904,-527.529"/>
<polygon fill="midnightblue" stroke="midnightblue" points="58.2079,-565.245 52.1058,-573.906 62.2772,-570.94 58.2079,-565.245"/>
</g>
<!-- Node17 -->
<g id="node17" class="node"><title>Node17</title>
<g id="a_node17"><a xlink:href="classhypro_1_1genericOutstreamVisitor.html" target="_top" xlink:title="hypro::genericOutstreamVisitor">
<polygon fill="white" stroke="black" points="128,-459 128,-478 295,-478 295,-459 128,-459"/>
<text text-anchor="middle" x="211.5" y="-466" font-family="Helvetica,sans-Serif" font-size="10.00">hypro::genericOutstreamVisitor</text>
</a>
</g>
</g>
<!-- Node1&#45;&gt;Node17 -->
<g id="edge16" class="edge"><title>Node1&#45;&gt;Node17</title>
<path fill="none" stroke="midnightblue" d="M48.6318,-564.876C60.3824,-542.977 82.9198,-507.246 113,-488.5 119.966,-484.159 127.703,-480.74 135.686,-478.051"/>
<polygon fill="midnightblue" stroke="midnightblue" points="45.4751,-563.361 44.0036,-573.853 51.6969,-566.569 45.4751,-563.361"/>
</g>
<!-- Node18 -->
<g id="node18" class="node"><title>Node18</title>
<g id="a_node18"><a xlink:href="classhypro_1_1genericProjectionVisitor.html" target="_top" xlink:title="hypro::genericProjection\lVisitor\&lt; T \&gt;">
<polygon fill="white" stroke="black" points="145.5,-409.5 145.5,-439.5 277.5,-439.5 277.5,-409.5 145.5,-409.5"/>
<text text-anchor="start" x="153.5" y="-427.5" font-family="Helvetica,sans-Serif" font-size="10.00">hypro::genericProjection</text>
<text text-anchor="middle" x="211.5" y="-416.5" font-family="Helvetica,sans-Serif" font-size="10.00">Visitor&lt; T &gt;</text>
</a>
</g>
</g>
<!-- Node1&#45;&gt;Node18 -->
<g id="edge17" class="edge"><title>Node1&#45;&gt;Node18</title>
<path fill="none" stroke="midnightblue" d="M44.7133,-564.127C53.6429,-534.75 74.7126,-479.218 113,-449.5 122.456,-442.16 133.832,-436.959 145.424,-433.276"/>
<polygon fill="midnightblue" stroke="midnightblue" points="41.275,-563.419 41.8748,-573.997 48.0023,-565.354 41.275,-563.419"/>
</g>
<!-- Node19 -->
<g id="node19" class="node"><title>Node19</title>
<g id="a_node19"><a xlink:href="classhypro_1_1genericReductionVisitor.html" target="_top" xlink:title="hypro::genericReductionVisitor\l\&lt; T, Number \&gt;">
<polygon fill="white" stroke="black" points="131,-360.5 131,-390.5 292,-390.5 292,-360.5 131,-360.5"/>
<text text-anchor="start" x="139" y="-378.5" font-family="Helvetica,sans-Serif" font-size="10.00">hypro::genericReductionVisitor</text>
<text text-anchor="middle" x="211.5" y="-367.5" font-family="Helvetica,sans-Serif" font-size="10.00">&lt; T, Number &gt;</text>
</a>
</g>
</g>
<!-- Node1&#45;&gt;Node19 -->
<g id="edge18" class="edge"><title>Node1&#45;&gt;Node19</title>
<path fill="none" stroke="midnightblue" d="M41.6342,-563.64C46.7668,-525.983 63.3111,-444.075 113,-400.5 118.255,-395.891 124.249,-392.112 130.621,-389.017"/>
<polygon fill="midnightblue" stroke="midnightblue" points="38.1298,-563.463 40.3837,-573.815 45.0775,-564.317 38.1298,-563.463"/>
</g>
<!-- Node20 -->
<g id="node20" class="node"><title>Node20</title>
<g id="a_node20"><a xlink:href="classhypro_1_1genericRedundancyVisitor.html" target="_top" xlink:title="hypro::genericRedundancy\lVisitor\&lt; T, Number \&gt;">
<polygon fill="white" stroke="black" points="140,-311.5 140,-341.5 283,-341.5 283,-311.5 140,-311.5"/>
<text text-anchor="start" x="148" y="-329.5" font-family="Helvetica,sans-Serif" font-size="10.00">hypro::genericRedundancy</text>
<text text-anchor="middle" x="211.5" y="-318.5" font-family="Helvetica,sans-Serif" font-size="10.00">Visitor&lt; T, Number &gt;</text>
</a>
</g>
</g>
<!-- Node1&#45;&gt;Node20 -->
<g id="edge19" class="edge"><title>Node1&#45;&gt;Node20</title>
<path fill="none" stroke="midnightblue" d="M39.6863,-563.751C41.223,-519.095 51.438,-409.719 113,-351.5 120.618,-344.296 130.021,-339.095 139.953,-335.355"/>
<polygon fill="midnightblue" stroke="midnightblue" points="36.1846,-563.788 39.4541,-573.865 43.1828,-563.948 36.1846,-563.788"/>
</g>
<!-- Node21 -->
<g id="node21" class="node"><title>Node21</title>
<g id="a_node21"><a xlink:href="classhypro_1_1genericSatisfiesHalfspacesVisitor.html" target="_top" xlink:title="hypro::genericSatisfiesHalfspaces\lVisitor\&lt; T, Number \&gt;">
<polygon fill="white" stroke="black" points="122.5,-262.5 122.5,-292.5 300.5,-292.5 300.5,-262.5 122.5,-262.5"/>
<text text-anchor="start" x="130.5" y="-280.5" font-family="Helvetica,sans-Serif" font-size="10.00">hypro::genericSatisfiesHalfspaces</text>
<text text-anchor="middle" x="211.5" y="-269.5" font-family="Helvetica,sans-Serif" font-size="10.00">Visitor&lt; T, Number &gt;</text>
</a>
</g>
</g>
<!-- Node1&#45;&gt;Node21 -->
<g id="edge20" class="edge"><title>Node1&#45;&gt;Node21</title>
<path fill="none" stroke="midnightblue" d="M42.0263,-563.932C49.827,-506.488 75.3028,-340.016 113,-302.5 116.84,-298.679 121.179,-295.416 125.841,-292.634"/>
<polygon fill="midnightblue" stroke="midnightblue" points="38.55,-563.523 40.7034,-573.897 45.4891,-564.444 38.55,-563.523"/>
</g>
<!-- Node22 -->
<g id="node22" class="node"><title>Node22</title>
<g id="a_node22"><a xlink:href="classhypro_1_1genericSetContainsVisitor.html" target="_top" xlink:title="hypro::genericSetContains\lVisitor">
<polygon fill="white" stroke="black" points="140,-213.5 140,-243.5 283,-243.5 283,-213.5 140,-213.5"/>
<text text-anchor="start" x="148" y="-231.5" font-family="Helvetica,sans-Serif" font-size="10.00">hypro::genericSetContains</text>
<text text-anchor="middle" x="211.5" y="-220.5" font-family="Helvetica,sans-Serif" font-size="10.00">Visitor</text>
</a>
</g>
</g>
<!-- Node1&#45;&gt;Node22 -->
<g id="edge21" class="edge"><title>Node1&#45;&gt;Node22</title>
<path fill="none" stroke="midnightblue" d="M41.2058,-563.962C47.1748,-500.054 69.1782,-298.74 113,-253.5 120.416,-245.843 129.834,-240.416 139.879,-236.591"/>
<polygon fill="midnightblue" stroke="midnightblue" points="37.72,-563.649 40.3028,-573.924 44.6914,-564.281 37.72,-563.649"/>
</g>
<!-- Node23 -->
<g id="node23" class="node"><title>Node23</title>
<g id="a_node23"><a xlink:href="classhypro_1_1genericSupremumVisitor.html" target="_top" xlink:title="hypro::genericSupremumVisitor\&lt; T \&gt;">
<polygon fill="white" stroke="black" points="113,-175 113,-194 310,-194 310,-175 113,-175"/>
<text text-anchor="middle" x="211.5" y="-182" font-family="Helvetica,sans-Serif" font-size="10.00">hypro::genericSupremumVisitor&lt; T &gt;</text>
</a>
</g>
</g>
<!-- Node1&#45;&gt;Node23 -->
<g id="edge22" class="edge"><title>Node1&#45;&gt;Node23</title>
<path fill="none" stroke="midnightblue" d="M40.5146,-563.779C44.5426,-493.438 61.762,-256.293 113,-204.5 117.132,-200.323 121.886,-196.903 127.024,-194.113"/>
<polygon fill="midnightblue" stroke="midnightblue" points="37.0116,-563.739 39.9609,-573.915 44.0012,-564.121 37.0116,-563.739"/>
</g>
<!-- Node24 -->
<g id="node24" class="node"><title>Node24</title>
<g id="a_node24"><a xlink:href="classhypro_1_1genericTypeVisitor.html" target="_top" xlink:title="hypro::genericTypeVisitor">
<polygon fill="white" stroke="black" points="143.5,-137 143.5,-156 279.5,-156 279.5,-137 143.5,-137"/>
<text text-anchor="middle" x="211.5" y="-144" font-family="Helvetica,sans-Serif" font-size="10.00">hypro::genericTypeVisitor</text>
</a>
</g>
</g>
<!-- Node1&#45;&gt;Node24 -->
<g id="edge23" class="edge"><title>Node1&#45;&gt;Node24</title>
<path fill="none" stroke="midnightblue" d="M40.1108,-563.689C42.8414,-488.639 56.4128,-223.138 113,-165.5 121.216,-157.132 131.946,-151.869 143.275,-148.651"/>
<polygon fill="midnightblue" stroke="midnightblue" points="36.6128,-563.575 39.7717,-573.688 43.6088,-563.812 36.6128,-563.575"/>
</g>
<!-- Node25 -->
<g id="node25" class="node"><title>Node25</title>
<g id="a_node25"><a xlink:href="classhypro_1_1genericUniteVisitor.html" target="_top" xlink:title="hypro::genericUniteVisitor\&lt; T \&gt;">
<polygon fill="white" stroke="black" points="127.5,-99 127.5,-118 295.5,-118 295.5,-99 127.5,-99"/>
<text text-anchor="middle" x="211.5" y="-106" font-family="Helvetica,sans-Serif" font-size="10.00">hypro::genericUniteVisitor&lt; T &gt;</text>
</a>
</g>
</g>
<!-- Node1&#45;&gt;Node25 -->
<g id="edge24" class="edge"><title>Node1&#45;&gt;Node25</title>
<path fill="none" stroke="midnightblue" d="M39.7876,-563.964C41.3621,-485.078 51.3408,-191.206 113,-127.5 117.198,-123.163 122.07,-119.656 127.354,-116.835"/>
<polygon fill="midnightblue" stroke="midnightblue" points="36.2878,-563.93 39.6111,-573.99 43.2867,-564.054 36.2878,-563.93"/>
</g>
<!-- Node26 -->
<g id="node26" class="node"><title>Node26</title>
<g id="a_node26"><a xlink:href="classhypro_1_1genericVerticesVisitor.html" target="_top" xlink:title="hypro::genericVerticesVisitor\l\&lt; Number \&gt;">
<polygon fill="white" stroke="black" points="135,-49.5 135,-79.5 288,-79.5 288,-49.5 135,-49.5"/>
<text text-anchor="start" x="143" y="-67.5" font-family="Helvetica,sans-Serif" font-size="10.00">hypro::genericVerticesVisitor</text>
<text text-anchor="middle" x="211.5" y="-56.5" font-family="Helvetica,sans-Serif" font-size="10.00">&lt; Number &gt;</text>
</a>
</g>
</g>
<!-- Node1&#45;&gt;Node26 -->
<g id="edge25" class="edge"><title>Node1&#45;&gt;Node26</title>
<path fill="none" stroke="midnightblue" d="M39.6337,-563.519C40.603,-480.142 48.5321,-160.997 113,-89.5 118.968,-82.8813 126.428,-77.9075 134.548,-74.1859"/>
<polygon fill="midnightblue" stroke="midnightblue" points="36.1325,-563.636 39.538,-573.668 43.1322,-563.702 36.1325,-563.636"/>
</g>
<!-- Node27 -->
<g id="node27" class="node"><title>Node27</title>
<g id="a_node27"><a xlink:href="structhypro_1_1setCreationVisitor.html" target="_top" xlink:title="hypro::setCreationVisitor\l\&lt; State \&gt;">
<polygon fill="white" stroke="black" points="144,-0.5 144,-30.5 279,-30.5 279,-0.5 144,-0.5"/>
<text text-anchor="start" x="152" y="-18.5" font-family="Helvetica,sans-Serif" font-size="10.00">hypro::setCreationVisitor</text>
<text text-anchor="middle" x="211.5" y="-7.5" font-family="Helvetica,sans-Serif" font-size="10.00">&lt; State &gt;</text>
</a>
</g>
</g>
<!-- Node1&#45;&gt;Node27 -->
<g id="edge26" class="edge"><title>Node1&#45;&gt;Node27</title>
<path fill="none" stroke="midnightblue" d="M39.3369,-563.539C39.0285,-475.164 42.2692,-119.988 113,-40.5 121.131,-31.3618 132.106,-25.3518 143.761,-21.4426"/>
<polygon fill="midnightblue" stroke="midnightblue" points="35.8371,-563.596 39.3925,-573.577 42.837,-563.557 35.8371,-563.596"/>
</g>
</g>
</svg>
