<?xml version="1.0" encoding="UTF-8" standalone="no"?>
<!DOCTYPE svg PUBLIC "-//W3C//DTD SVG 1.1//EN"
 "http://www.w3.org/Graphics/SVG/1.1/DTD/svg11.dtd">
<!-- Generated by graphviz version 2.38.0 (20140413.2041)
 -->
<!-- Title: Graphical Class Hierarchy Pages: 1 -->
<svg width="316pt" height="415pt"
 viewBox="0.00 0.00 316.00 414.50" xmlns="http://www.w3.org/2000/svg" xmlns:xlink="http://www.w3.org/1999/xlink">
<g id="graph0" class="graph" transform="scale(1 1) rotate(0) translate(4 410.5)">
<title>Graphical Class Hierarchy</title>
<polygon fill="white" stroke="none" points="-4,4 -4,-410.5 312,-410.5 312,4 -4,4"/>
<!-- Node1 -->
<g id="node1" class="node"><title>Node1</title>
<g id="a_node1"><a xlink:href="classhypro_1_1RootGrowNode.html" target="_top" xlink:title="hypro::RootGrowNode\l\&lt; Number, Converter,\l Setting \&gt;">
<polygon fill="white" stroke="black" points="0,-166 0,-207 123,-207 123,-166 0,-166"/>
<text text-anchor="start" x="8" y="-195" font-family="Helvetica,sans-Serif" font-size="10.00">hypro::RootGrowNode</text>
<text text-anchor="start" x="8" y="-184" font-family="Helvetica,sans-Serif" font-size="10.00">&lt; Number, Converter,</text>
<text text-anchor="middle" x="61.5" y="-173" font-family="Helvetica,sans-Serif" font-size="10.00"> Setting &gt;</text>
</a>
</g>
</g>
<!-- Node2 -->
<g id="node2" class="node"><title>Node2</title>
<g id="a_node2"><a xlink:href="classhypro_1_1IntersectHalfspaceOp.html" target="_top" xlink:title="hypro::IntersectHalfspace\lOp\&lt; Number, Converter,\l Setting \&gt;">
<polygon fill="white" stroke="black" points="164,-365 164,-406 303,-406 303,-365 164,-365"/>
<text text-anchor="start" x="172" y="-394" font-family="Helvetica,sans-Serif" font-size="10.00">hypro::IntersectHalfspace</text>
<text text-anchor="start" x="172" y="-383" font-family="Helvetica,sans-Serif" font-size="10.00">Op&lt; Number, Converter,</text>
<text text-anchor="middle" x="233.5" y="-372" font-family="Helvetica,sans-Serif" font-size="10.00"> Setting &gt;</text>
</a>
</g>
</g>
<!-- Node1&#45;&gt;Node2 -->
<g id="edge1" class="edge"><title>Node1&#45;&gt;Node2</title>
<path fill="none" stroke="midnightblue" d="M72.7745,-216.874C86.8126,-254.186 115.34,-317.227 159,-355.5 162.938,-358.952 167.327,-362.041 171.945,-364.797"/>
<polygon fill="midnightblue" stroke="midnightblue" points="75.9146,-215.269 69.1987,-207.075 69.3387,-217.669 75.9146,-215.269"/>
</g>
<!-- Node3 -->
<g id="node3" class="node"><title>Node3</title>
<g id="a_node3"><a xlink:href="classhypro_1_1IntersectOp.html" target="_top" xlink:title="hypro::IntersectOp\l\&lt; Number, Converter,\l Setting \&gt;">
<polygon fill="white" stroke="black" points="172,-305 172,-346 295,-346 295,-305 172,-305"/>
<text text-anchor="start" x="180" y="-334" font-family="Helvetica,sans-Serif" font-size="10.00">hypro::IntersectOp</text>
<text text-anchor="start" x="180" y="-323" font-family="Helvetica,sans-Serif" font-size="10.00">&lt; Number, Converter,</text>
<text text-anchor="middle" x="233.5" y="-312" font-family="Helvetica,sans-Serif" font-size="10.00"> Setting &gt;</text>
</a>
</g>
</g>
<!-- Node1&#45;&gt;Node3 -->
<g id="edge2" class="edge"><title>Node1&#45;&gt;Node3</title>
<path fill="none" stroke="midnightblue" d="M82.3447,-215.56C100.069,-239.686 127.969,-273.495 159,-295.5 163.834,-298.928 169.118,-302.051 174.564,-304.875"/>
<polygon fill="midnightblue" stroke="midnightblue" points="84.9721,-213.219 76.2882,-207.149 79.2916,-217.309 84.9721,-213.219"/>
</g>
<!-- Node4 -->
<g id="node4" class="node"><title>Node4</title>
<g id="a_node4"><a xlink:href="classhypro_1_1Leaf.html" target="_top" xlink:title="hypro::Leaf\&lt; Number,\l Converter, Setting,\l Representation \&gt;">
<polygon fill="white" stroke="black" points="172,-245 172,-286 295,-286 295,-245 172,-245"/>
<text text-anchor="start" x="180" y="-274" font-family="Helvetica,sans-Serif" font-size="10.00">hypro::Leaf&lt; Number,</text>
<text text-anchor="start" x="180" y="-263" font-family="Helvetica,sans-Serif" font-size="10.00"> Converter, Setting,</text>
<text text-anchor="middle" x="233.5" y="-252" font-family="Helvetica,sans-Serif" font-size="10.00"> Representation &gt;</text>
</a>
</g>
</g>
<!-- Node1&#45;&gt;Node4 -->
<g id="edge3" class="edge"><title>Node1&#45;&gt;Node4</title>
<path fill="none" stroke="midnightblue" d="M109.08,-211.856C124.771,-220.068 142.489,-228.989 159,-236.5 165.243,-239.34 171.852,-242.177 178.444,-244.904"/>
<polygon fill="midnightblue" stroke="midnightblue" points="110.578,-208.689 100.1,-207.118 107.311,-214.88 110.578,-208.689"/>
</g>
<!-- Node5 -->
<g id="node5" class="node"><title>Node5</title>
<g id="a_node5"><a xlink:href="classhypro_1_1ProjectOp.html" target="_top" xlink:title="hypro::ProjectOp\&lt; Number,\l Converter, Setting \&gt;">
<polygon fill="white" stroke="black" points="159,-196.5 159,-226.5 308,-226.5 308,-196.5 159,-196.5"/>
<text text-anchor="start" x="167" y="-214.5" font-family="Helvetica,sans-Serif" font-size="10.00">hypro::ProjectOp&lt; Number,</text>
<text text-anchor="middle" x="233.5" y="-203.5" font-family="Helvetica,sans-Serif" font-size="10.00"> Converter, Setting &gt;</text>
</a>
</g>
</g>
<!-- Node1&#45;&gt;Node5 -->
<g id="edge4" class="edge"><title>Node1&#45;&gt;Node5</title>
<path fill="none" stroke="midnightblue" d="M133.529,-196.946C141.934,-198.181 150.526,-199.445 158.964,-200.686"/>
<polygon fill="midnightblue" stroke="midnightblue" points="133.797,-193.447 123.394,-195.455 132.778,-200.373 133.797,-193.447"/>
</g>
<!-- Node6 -->
<g id="node6" class="node"><title>Node6</title>
<g id="a_node6"><a xlink:href="classhypro_1_1ScaleOp.html" target="_top" xlink:title="hypro::ScaleOp\&lt; Number,\l Converter, Setting \&gt;">
<polygon fill="white" stroke="black" points="162,-147.5 162,-177.5 305,-177.5 305,-147.5 162,-147.5"/>
<text text-anchor="start" x="170" y="-165.5" font-family="Helvetica,sans-Serif" font-size="10.00">hypro::ScaleOp&lt; Number,</text>
<text text-anchor="middle" x="233.5" y="-154.5" font-family="Helvetica,sans-Serif" font-size="10.00"> Converter, Setting &gt;</text>
</a>
</g>
</g>
<!-- Node1&#45;&gt;Node6 -->
<g id="edge5" class="edge"><title>Node1&#45;&gt;Node6</title>
<path fill="none" stroke="midnightblue" d="M133.477,-176.48C142.875,-175.153 152.508,-173.793 161.9,-172.467"/>
<polygon fill="midnightblue" stroke="midnightblue" points="132.806,-173.04 123.394,-177.903 133.785,-179.971 132.806,-173.04"/>
</g>
<!-- Node7 -->
<g id="node7" class="node"><title>Node7</title>
<g id="a_node7"><a xlink:href="classhypro_1_1SumOp.html" target="_top" xlink:title="hypro::SumOp\&lt; Number,\l Converter, Setting \&gt;">
<polygon fill="white" stroke="black" points="164,-98.5 164,-128.5 303,-128.5 303,-98.5 164,-98.5"/>
<text text-anchor="start" x="172" y="-116.5" font-family="Helvetica,sans-Serif" font-size="10.00">hypro::SumOp&lt; Number,</text>
<text text-anchor="middle" x="233.5" y="-105.5" font-family="Helvetica,sans-Serif" font-size="10.00"> Converter, Setting &gt;</text>
</a>
</g>
</g>
<!-- Node1&#45;&gt;Node7 -->
<g id="edge6" class="edge"><title>Node1&#45;&gt;Node7</title>
<path fill="none" stroke="midnightblue" d="M110.225,-161.184C125.596,-153.458 142.836,-145.233 159,-138.5 167.336,-135.027 176.343,-131.66 185.099,-128.581"/>
<polygon fill="midnightblue" stroke="midnightblue" points="108.251,-158.261 100.922,-165.912 111.422,-164.501 108.251,-158.261"/>
</g>
<!-- Node8 -->
<g id="node8" class="node"><title>Node8</title>
<g id="a_node8"><a xlink:href="classhypro_1_1TrafoOp.html" target="_top" xlink:title="hypro::TrafoOp\&lt; Number,\l Converter, Setting \&gt;">
<polygon fill="white" stroke="black" points="164,-49.5 164,-79.5 303,-79.5 303,-49.5 164,-49.5"/>
<text text-anchor="start" x="172" y="-67.5" font-family="Helvetica,sans-Serif" font-size="10.00">hypro::TrafoOp&lt; Number,</text>
<text text-anchor="middle" x="233.5" y="-56.5" font-family="Helvetica,sans-Serif" font-size="10.00"> Converter, Setting &gt;</text>
</a>
</g>
</g>
<!-- Node1&#45;&gt;Node8 -->
<g id="edge7" class="edge"><title>Node1&#45;&gt;Node8</title>
<path fill="none" stroke="midnightblue" d="M84.5566,-158.077C102.544,-136.6 129.694,-107.789 159,-89.5 165.06,-85.718 171.762,-82.4305 178.579,-79.5948"/>
<polygon fill="midnightblue" stroke="midnightblue" points="81.7648,-155.962 78.1261,-165.913 87.1757,-160.403 81.7648,-155.962"/>
</g>
<!-- Node9 -->
<g id="node9" class="node"><title>Node9</title>
<g id="a_node9"><a xlink:href="classhypro_1_1UnionOp.html" target="_top" xlink:title="hypro::UnionOp\&lt; Number,\l Converter, Setting \&gt;">
<polygon fill="white" stroke="black" points="161.5,-0.5 161.5,-30.5 305.5,-30.5 305.5,-0.5 161.5,-0.5"/>
<text text-anchor="start" x="169.5" y="-18.5" font-family="Helvetica,sans-Serif" font-size="10.00">hypro::UnionOp&lt; Number,</text>
<text text-anchor="middle" x="233.5" y="-7.5" font-family="Helvetica,sans-Serif" font-size="10.00"> Converter, Setting &gt;</text>
</a>
</g>
</g>
<!-- Node1&#45;&gt;Node9 -->
<g id="edge8" class="edge"><title>Node1&#45;&gt;Node9</title>
<path fill="none" stroke="midnightblue" d="M74.9366,-156.811C90.1572,-123.908 118.938,-71.4199 159,-40.5 164.015,-36.6295 169.666,-33.3375 175.55,-30.5421"/>
<polygon fill="midnightblue" stroke="midnightblue" points="71.7394,-155.387 70.8278,-165.942 78.1229,-158.259 71.7394,-155.387"/>
</g>
</g>
</svg>
