<?xml version="1.0" encoding="UTF-8" standalone="no"?>
<!DOCTYPE svg PUBLIC "-//W3C//DTD SVG 1.1//EN"
 "http://www.w3.org/Graphics/SVG/1.1/DTD/svg11.dtd">
<!-- Generated by graphviz version 2.38.0 (20140413.2041)
 -->
<!-- Title: Graphical Class Hierarchy Pages: 1 -->
<svg width="708pt" height="718pt"
 viewBox="0.00 0.00 708.00 718.00" xmlns="http://www.w3.org/2000/svg" xmlns:xlink="http://www.w3.org/1999/xlink">
<g id="graph0" class="graph" transform="scale(1 1) rotate(0) translate(4 714)">
<title>Graphical Class Hierarchy</title>
<polygon fill="white" stroke="none" points="-4,4 -4,-714 704,-714 704,4 -4,4"/>
<!-- Node1 -->
<g id="node1" class="node"><title>Node1</title>
<g id="a_node1"><a xlink:href="classhypro_1_1IHandler.html" target="_top" xlink:title="hypro::IHandler">
<polygon fill="white" stroke="black" points="0,-251 0,-270 89,-270 89,-251 0,-251"/>
<text text-anchor="middle" x="44.5" y="-258" font-family="Helvetica,sans-Serif" font-size="10.00">hypro::IHandler</text>
</a>
</g>
</g>
<!-- Node2 -->
<g id="node2" class="node"><title>Node2</title>
<g id="a_node2"><a xlink:href="classhypro_1_1IBadStateHandler.html" target="_top" xlink:title="hypro::IBadStateHandler">
<polygon fill="white" stroke="black" points="136,-594 136,-613 270,-613 270,-594 136,-594"/>
<text text-anchor="middle" x="203" y="-601" font-family="Helvetica,sans-Serif" font-size="10.00">hypro::IBadStateHandler</text>
</a>
</g>
</g>
<!-- Node1&#45;&gt;Node2 -->
<g id="edge1" class="edge"><title>Node1&#45;&gt;Node2</title>
<path fill="none" stroke="midnightblue" d="M47.7134,-280.014C53.7022,-326.498 73.3929,-446.176 125,-530.5 141.539,-557.524 170.613,-581.188 187.912,-593.808"/>
<polygon fill="midnightblue" stroke="midnightblue" points="51.1856,-279.573 46.5013,-270.07 44.237,-280.42 51.1856,-279.573"/>
</g>
<!-- Node7 -->
<g id="node7" class="node"><title>Node7</title>
<g id="a_node7"><a xlink:href="classhypro_1_1IFirstSegmentHandler.html" target="_top" xlink:title="hypro::IFirstSegmentHandler\l\&lt; State \&gt;">
<polygon fill="white" stroke="black" points="126.5,-490.5 126.5,-520.5 279.5,-520.5 279.5,-490.5 126.5,-490.5"/>
<text text-anchor="start" x="134.5" y="-508.5" font-family="Helvetica,sans-Serif" font-size="10.00">hypro::IFirstSegmentHandler</text>
<text text-anchor="middle" x="203" y="-497.5" font-family="Helvetica,sans-Serif" font-size="10.00">&lt; State &gt;</text>
</a>
</g>
</g>
<!-- Node1&#45;&gt;Node7 -->
<g id="edge6" class="edge"><title>Node1&#45;&gt;Node7</title>
<path fill="none" stroke="midnightblue" d="M51.7556,-279.945C63.0305,-313.214 88.9828,-382.316 125,-432.5 141.326,-455.247 165.41,-476.718 182.284,-490.408"/>
<polygon fill="midnightblue" stroke="midnightblue" points="54.967,-278.509 48.5013,-270.116 48.3217,-280.709 54.967,-278.509"/>
</g>
<!-- Node12 -->
<g id="node12" class="node"><title>Node12</title>
<g id="a_node12"><a xlink:href="classhypro_1_1IGuardHandler.html" target="_top" xlink:title="hypro::IGuardHandler\l\&lt; State \&gt;">
<polygon fill="white" stroke="black" points="143.5,-392.5 143.5,-422.5 262.5,-422.5 262.5,-392.5 143.5,-392.5"/>
<text text-anchor="start" x="151.5" y="-410.5" font-family="Helvetica,sans-Serif" font-size="10.00">hypro::IGuardHandler</text>
<text text-anchor="middle" x="203" y="-399.5" font-family="Helvetica,sans-Serif" font-size="10.00">&lt; State &gt;</text>
</a>
</g>
</g>
<!-- Node1&#45;&gt;Node12 -->
<g id="edge11" class="edge"><title>Node1&#45;&gt;Node12</title>
<path fill="none" stroke="midnightblue" d="M63.1673,-277.095C93.7854,-305.854 156.258,-364.535 185.814,-392.296"/>
<polygon fill="midnightblue" stroke="midnightblue" points="65.4535,-274.44 55.7684,-270.145 60.661,-279.543 65.4535,-274.44"/>
</g>
<!-- Node17 -->
<g id="node17" class="node"><title>Node17</title>
<g id="a_node17"><a xlink:href="classhypro_1_1IInvariantHandler.html" target="_top" xlink:title="hypro::IInvariantHandler">
<polygon fill="white" stroke="black" points="137.5,-300 137.5,-319 268.5,-319 268.5,-300 137.5,-300"/>
<text text-anchor="middle" x="203" y="-307" font-family="Helvetica,sans-Serif" font-size="10.00">hypro::IInvariantHandler</text>
</a>
</g>
</g>
<!-- Node1&#45;&gt;Node17 -->
<g id="edge16" class="edge"><title>Node1&#45;&gt;Node17</title>
<path fill="none" stroke="midnightblue" d="M85.8726,-273.141C112.601,-281.509 147.1,-292.311 171.531,-299.96"/>
<polygon fill="midnightblue" stroke="midnightblue" points="86.6353,-269.712 76.0463,-270.064 84.5437,-276.392 86.6353,-269.712"/>
</g>
<!-- Node22 -->
<g id="node22" class="node"><title>Node22</title>
<g id="a_node22"><a xlink:href="classhypro_1_1IJumpHandler.html" target="_top" xlink:title="hypro::IJumpHandler">
<polygon fill="white" stroke="black" points="146.5,-251 146.5,-270 259.5,-270 259.5,-251 146.5,-251"/>
<text text-anchor="middle" x="203" y="-258" font-family="Helvetica,sans-Serif" font-size="10.00">hypro::IJumpHandler</text>
</a>
</g>
</g>
<!-- Node1&#45;&gt;Node22 -->
<g id="edge21" class="edge"><title>Node1&#45;&gt;Node22</title>
<path fill="none" stroke="midnightblue" d="M99.3469,-260.5C114.517,-260.5 131.046,-260.5 146.321,-260.5"/>
<polygon fill="midnightblue" stroke="midnightblue" points="99.094,-257 89.094,-260.5 99.0939,-264 99.094,-257"/>
</g>
<!-- Node24 -->
<g id="node24" class="node"><title>Node24</title>
<g id="a_node24"><a xlink:href="classhypro_1_1IResetHandler.html" target="_top" xlink:title="hypro::IResetHandler">
<polygon fill="white" stroke="black" points="145,-202 145,-221 261,-221 261,-202 145,-202"/>
<text text-anchor="middle" x="203" y="-209" font-family="Helvetica,sans-Serif" font-size="10.00">hypro::IResetHandler</text>
</a>
</g>
</g>
<!-- Node1&#45;&gt;Node24 -->
<g id="edge23" class="edge"><title>Node1&#45;&gt;Node24</title>
<path fill="none" stroke="midnightblue" d="M85.8726,-247.859C112.601,-239.491 147.1,-228.689 171.531,-221.04"/>
<polygon fill="midnightblue" stroke="midnightblue" points="84.5437,-244.608 76.0463,-250.936 86.6353,-251.288 84.5437,-244.608"/>
</g>
<!-- Node29 -->
<g id="node29" class="node"><title>Node29</title>
<g id="a_node29"><a xlink:href="classhypro_1_1ITimeEvolutionHandler.html" target="_top" xlink:title="hypro::ITimeEvolutionHandler">
<polygon fill="white" stroke="black" points="125,-134 125,-153 281,-153 281,-134 125,-134"/>
<text text-anchor="middle" x="203" y="-141" font-family="Helvetica,sans-Serif" font-size="10.00">hypro::ITimeEvolutionHandler</text>
</a>
</g>
</g>
<!-- Node1&#45;&gt;Node29 -->
<g id="edge28" class="edge"><title>Node1&#45;&gt;Node29</title>
<path fill="none" stroke="midnightblue" d="M63.3459,-243.963C79.0763,-229.701 102.872,-208.878 125,-192.5 144.996,-177.7 169.426,-162.624 185.331,-153.176"/>
<polygon fill="midnightblue" stroke="midnightblue" points="60.925,-241.434 55.9066,-250.765 65.6485,-246.6 60.925,-241.434"/>
</g>
<!-- Node36 -->
<g id="node36" class="node"><title>Node36</title>
<g id="a_node36"><a xlink:href="classhypro_1_1IFirstSegmentHandler.html" target="_top" xlink:title="hypro::IFirstSegmentHandler\l\&lt; hypro::State \&gt;">
<polygon fill="white" stroke="black" points="126.5,-84.5 126.5,-114.5 279.5,-114.5 279.5,-84.5 126.5,-84.5"/>
<text text-anchor="start" x="134.5" y="-102.5" font-family="Helvetica,sans-Serif" font-size="10.00">hypro::IFirstSegmentHandler</text>
<text text-anchor="middle" x="203" y="-91.5" font-family="Helvetica,sans-Serif" font-size="10.00">&lt; hypro::State &gt;</text>
</a>
</g>
</g>
<!-- Node1&#45;&gt;Node36 -->
<g id="edge35" class="edge"><title>Node1&#45;&gt;Node36</title>
<path fill="none" stroke="midnightblue" d="M51.7693,-241.084C62.2526,-211.639 86.1062,-155.815 125,-124.5 129.817,-120.622 135.253,-117.338 140.952,-114.559"/>
<polygon fill="midnightblue" stroke="midnightblue" points="48.4241,-240.05 48.5089,-250.644 55.0494,-242.309 48.4241,-240.05"/>
</g>
<!-- Node37 -->
<g id="node37" class="node"><title>Node37</title>
<g id="a_node37"><a xlink:href="classhypro_1_1IGuardHandler.html" target="_top" xlink:title="hypro::IGuardHandler\l\&lt; hypro::State \&gt;">
<polygon fill="white" stroke="black" points="143.5,-35.5 143.5,-65.5 262.5,-65.5 262.5,-35.5 143.5,-35.5"/>
<text text-anchor="start" x="151.5" y="-53.5" font-family="Helvetica,sans-Serif" font-size="10.00">hypro::IGuardHandler</text>
<text text-anchor="middle" x="203" y="-42.5" font-family="Helvetica,sans-Serif" font-size="10.00">&lt; hypro::State &gt;</text>
</a>
</g>
</g>
<!-- Node1&#45;&gt;Node37 -->
<g id="edge36" class="edge"><title>Node1&#45;&gt;Node37</title>
<path fill="none" stroke="midnightblue" d="M48.4321,-240.522C55.0502,-202.602 74.6906,-119.933 125,-74.5 130.3,-69.7138 136.544,-65.8821 143.146,-62.8145"/>
<polygon fill="midnightblue" stroke="midnightblue" points="44.9174,-240.333 46.7767,-250.763 51.8277,-241.45 44.9174,-240.333"/>
</g>
<!-- Node3 -->
<g id="node3" class="node"><title>Node3</title>
<g id="a_node3"><a xlink:href="classhypro_1_1ltiBadStateHandler.html" target="_top" xlink:title="hypro::ltiBadStateHandler\l\&lt; State \&gt;">
<polygon fill="white" stroke="black" points="332.5,-637.5 332.5,-667.5 472.5,-667.5 472.5,-637.5 332.5,-637.5"/>
<text text-anchor="start" x="340.5" y="-655.5" font-family="Helvetica,sans-Serif" font-size="10.00">hypro::ltiBadStateHandler</text>
<text text-anchor="middle" x="402.5" y="-644.5" font-family="Helvetica,sans-Serif" font-size="10.00">&lt; State &gt;</text>
</a>
</g>
</g>
<!-- Node2&#45;&gt;Node3 -->
<g id="edge2" class="edge"><title>Node2&#45;&gt;Node3</title>
<path fill="none" stroke="midnightblue" d="M252.425,-615.514C279.111,-622.135 312.488,-630.416 340.892,-637.463"/>
<polygon fill="midnightblue" stroke="midnightblue" points="253.097,-612.075 242.549,-613.064 251.412,-618.869 253.097,-612.075"/>
</g>
<!-- Node6 -->
<g id="node6" class="node"><title>Node6</title>
<g id="a_node6"><a xlink:href="classhypro_1_1rectangularBadStateHandler.html" target="_top" xlink:title="hypro::rectangularBadState\lHandler\&lt; State \&gt;">
<polygon fill="white" stroke="black" points="328,-588.5 328,-618.5 477,-618.5 477,-588.5 328,-588.5"/>
<text text-anchor="start" x="336" y="-606.5" font-family="Helvetica,sans-Serif" font-size="10.00">hypro::rectangularBadState</text>
<text text-anchor="middle" x="402.5" y="-595.5" font-family="Helvetica,sans-Serif" font-size="10.00">Handler&lt; State &gt;</text>
</a>
</g>
</g>
<!-- Node2&#45;&gt;Node6 -->
<g id="edge5" class="edge"><title>Node2&#45;&gt;Node6</title>
<path fill="none" stroke="midnightblue" d="M280.163,-603.5C295.77,-603.5 312.172,-603.5 327.694,-603.5"/>
<polygon fill="midnightblue" stroke="midnightblue" points="280.039,-600 270.039,-603.5 280.039,-607 280.039,-600"/>
</g>
<!-- Node4 -->
<g id="node4" class="node"><title>Node4</title>
<g id="a_node4"><a xlink:href="classhypro_1_1discreteBadStateHandler.html" target="_top" xlink:title="hypro::discreteBadStateHandler\l\&lt; State \&gt;">
<polygon fill="white" stroke="black" points="527,-679.5 527,-709.5 697,-709.5 697,-679.5 527,-679.5"/>
<text text-anchor="start" x="535" y="-697.5" font-family="Helvetica,sans-Serif" font-size="10.00">hypro::discreteBadStateHandler</text>
<text text-anchor="middle" x="612" y="-686.5" font-family="Helvetica,sans-Serif" font-size="10.00">&lt; State &gt;</text>
</a>
</g>
</g>
<!-- Node3&#45;&gt;Node4 -->
<g id="edge3" class="edge"><title>Node3&#45;&gt;Node4</title>
<path fill="none" stroke="midnightblue" d="M482.402,-668.471C500.276,-672.088 519.195,-675.918 536.864,-679.494"/>
<polygon fill="midnightblue" stroke="midnightblue" points="483.09,-665.039 472.594,-666.485 481.701,-671.9 483.09,-665.039"/>
</g>
<!-- Node5 -->
<g id="node5" class="node"><title>Node5</title>
<g id="a_node5"><a xlink:href="classhypro_1_1timedBadStateHandler.html" target="_top" xlink:title="hypro::timedBadStateHandler\l\&lt; State \&gt;">
<polygon fill="white" stroke="black" points="532,-630.5 532,-660.5 692,-660.5 692,-630.5 532,-630.5"/>
<text text-anchor="start" x="540" y="-648.5" font-family="Helvetica,sans-Serif" font-size="10.00">hypro::timedBadStateHandler</text>
<text text-anchor="middle" x="612" y="-637.5" font-family="Helvetica,sans-Serif" font-size="10.00">&lt; State &gt;</text>
</a>
</g>
</g>
<!-- Node3&#45;&gt;Node5 -->
<g id="edge4" class="edge"><title>Node3&#45;&gt;Node5</title>
<path fill="none" stroke="midnightblue" d="M482.979,-649.819C498.985,-649.279 515.809,-648.711 531.806,-648.172"/>
<polygon fill="midnightblue" stroke="midnightblue" points="482.471,-646.334 472.594,-650.169 482.707,-653.33 482.471,-646.334"/>
</g>
<!-- Node8 -->
<g id="node8" class="node"><title>Node8</title>
<g id="a_node8"><a xlink:href="classhypro_1_1ltiFirstSegmentHandler.html" target="_top" xlink:title="hypro::ltiFirstSegmentHandler\l\&lt; State \&gt;">
<polygon fill="white" stroke="black" points="323,-539.5 323,-569.5 482,-569.5 482,-539.5 323,-539.5"/>
<text text-anchor="start" x="331" y="-557.5" font-family="Helvetica,sans-Serif" font-size="10.00">hypro::ltiFirstSegmentHandler</text>
<text text-anchor="middle" x="402.5" y="-546.5" font-family="Helvetica,sans-Serif" font-size="10.00">&lt; State &gt;</text>
</a>
</g>
</g>
<!-- Node7&#45;&gt;Node8 -->
<g id="edge7" class="edge"><title>Node7&#45;&gt;Node8</title>
<path fill="none" stroke="midnightblue" d="M274.442,-522.977C296.21,-528.377 319.983,-534.276 341.016,-539.494"/>
<polygon fill="midnightblue" stroke="midnightblue" points="275.147,-519.546 264.599,-520.535 273.462,-526.34 275.147,-519.546"/>
</g>
<!-- Node11 -->
<g id="node11" class="node"><title>Node11</title>
<g id="a_node11"><a xlink:href="classhypro_1_1rectangularFirstSegmentHandler.html" target="_top" xlink:title="hypro::rectangularFirstSegment\lHandler\&lt; State \&gt;">
<polygon fill="white" stroke="black" points="318.5,-490.5 318.5,-520.5 486.5,-520.5 486.5,-490.5 318.5,-490.5"/>
<text text-anchor="start" x="326.5" y="-508.5" font-family="Helvetica,sans-Serif" font-size="10.00">hypro::rectangularFirstSegment</text>
<text text-anchor="middle" x="402.5" y="-497.5" font-family="Helvetica,sans-Serif" font-size="10.00">Handler&lt; State &gt;</text>
</a>
</g>
</g>
<!-- Node7&#45;&gt;Node11 -->
<g id="edge10" class="edge"><title>Node7&#45;&gt;Node11</title>
<path fill="none" stroke="midnightblue" d="M289.763,-505.5C299.286,-505.5 308.972,-505.5 318.46,-505.5"/>
<polygon fill="midnightblue" stroke="midnightblue" points="289.512,-502 279.512,-505.5 289.512,-509 289.512,-502"/>
</g>
<!-- Node9 -->
<g id="node9" class="node"><title>Node9</title>
<g id="a_node9"><a xlink:href="classhypro_1_1timedElapseFirstSegmentHandler.html" target="_top" xlink:title="hypro::timedElapseFirstSegment\lHandler\&lt; State \&gt;">
<polygon fill="white" stroke="black" points="525.5,-557.5 525.5,-587.5 698.5,-587.5 698.5,-557.5 525.5,-557.5"/>
<text text-anchor="start" x="533.5" y="-575.5" font-family="Helvetica,sans-Serif" font-size="10.00">hypro::timedElapseFirstSegment</text>
<text text-anchor="middle" x="612" y="-564.5" font-family="Helvetica,sans-Serif" font-size="10.00">Handler&lt; State &gt;</text>
</a>
</g>
</g>
<!-- Node8&#45;&gt;Node9 -->
<g id="edge8" class="edge"><title>Node8&#45;&gt;Node9</title>
<path fill="none" stroke="midnightblue" d="M492.252,-562.199C503.236,-563.152 514.45,-564.125 525.386,-565.073"/>
<polygon fill="midnightblue" stroke="midnightblue" points="492.508,-558.708 482.243,-561.331 491.903,-565.682 492.508,-558.708"/>
</g>
<!-- Node10 -->
<g id="node10" class="node"><title>Node10</title>
<g id="a_node10"><a xlink:href="classhypro_1_1timedFirstSegmentHandler.html" target="_top" xlink:title="hypro::timedFirstSegment\lHandler\&lt; State \&gt;">
<polygon fill="white" stroke="black" points="541.5,-508.5 541.5,-538.5 682.5,-538.5 682.5,-508.5 541.5,-508.5"/>
<text text-anchor="start" x="549.5" y="-526.5" font-family="Helvetica,sans-Serif" font-size="10.00">hypro::timedFirstSegment</text>
<text text-anchor="middle" x="612" y="-515.5" font-family="Helvetica,sans-Serif" font-size="10.00">Handler&lt; State &gt;</text>
</a>
</g>
</g>
<!-- Node8&#45;&gt;Node10 -->
<g id="edge9" class="edge"><title>Node8&#45;&gt;Node10</title>
<path fill="none" stroke="midnightblue" d="M492.388,-541.22C508.812,-538.767 525.743,-536.237 541.49,-533.885"/>
<polygon fill="midnightblue" stroke="midnightblue" points="491.616,-537.797 482.243,-542.736 492.65,-544.72 491.616,-537.797"/>
</g>
<!-- Node13 -->
<g id="node13" class="node"><title>Node13</title>
<g id="a_node13"><a xlink:href="classhypro_1_1ltiGuardHandler.html" target="_top" xlink:title="hypro::ltiGuardHandler\l\&lt; State \&gt;">
<polygon fill="white" stroke="black" points="340,-441.5 340,-471.5 465,-471.5 465,-441.5 340,-441.5"/>
<text text-anchor="start" x="348" y="-459.5" font-family="Helvetica,sans-Serif" font-size="10.00">hypro::ltiGuardHandler</text>
<text text-anchor="middle" x="402.5" y="-448.5" font-family="Helvetica,sans-Serif" font-size="10.00">&lt; State &gt;</text>
</a>
</g>
</g>
<!-- Node12&#45;&gt;Node13 -->
<g id="edge12" class="edge"><title>Node12&#45;&gt;Node13</title>
<path fill="none" stroke="midnightblue" d="M272.447,-424.482C294.729,-430.01 319.289,-436.103 340.951,-441.478"/>
<polygon fill="midnightblue" stroke="midnightblue" points="273.27,-421.08 262.722,-422.069 271.585,-427.874 273.27,-421.08"/>
</g>
<!-- Node16 -->
<g id="node16" class="node"><title>Node16</title>
<g id="a_node16"><a xlink:href="classhypro_1_1rectangularGuardHandler.html" target="_top" xlink:title="hypro::rectangularGuardHandler\l\&lt; State \&gt;">
<polygon fill="white" stroke="black" points="317,-392.5 317,-422.5 488,-422.5 488,-392.5 317,-392.5"/>
<text text-anchor="start" x="325" y="-410.5" font-family="Helvetica,sans-Serif" font-size="10.00">hypro::rectangularGuardHandler</text>
<text text-anchor="middle" x="402.5" y="-399.5" font-family="Helvetica,sans-Serif" font-size="10.00">&lt; State &gt;</text>
</a>
</g>
</g>
<!-- Node12&#45;&gt;Node16 -->
<g id="edge15" class="edge"><title>Node12&#45;&gt;Node16</title>
<path fill="none" stroke="midnightblue" d="M272.847,-407.5C286.997,-407.5 302.051,-407.5 316.689,-407.5"/>
<polygon fill="midnightblue" stroke="midnightblue" points="272.722,-404 262.722,-407.5 272.722,-411 272.722,-404"/>
</g>
<!-- Node14 -->
<g id="node14" class="node"><title>Node14</title>
<g id="a_node14"><a xlink:href="classhypro_1_1discreteGuardHandler.html" target="_top" xlink:title="hypro::discreteGuardHandler\l\&lt; State \&gt;">
<polygon fill="white" stroke="black" points="534.5,-447.5 534.5,-477.5 689.5,-477.5 689.5,-447.5 534.5,-447.5"/>
<text text-anchor="start" x="542.5" y="-465.5" font-family="Helvetica,sans-Serif" font-size="10.00">hypro::discreteGuardHandler</text>
<text text-anchor="middle" x="612" y="-454.5" font-family="Helvetica,sans-Serif" font-size="10.00">&lt; State &gt;</text>
</a>
</g>
</g>
<!-- Node13&#45;&gt;Node14 -->
<g id="edge13" class="edge"><title>Node13&#45;&gt;Node14</title>
<path fill="none" stroke="midnightblue" d="M475.321,-458.577C494.422,-459.129 515.122,-459.728 534.465,-460.287"/>
<polygon fill="midnightblue" stroke="midnightblue" points="475.292,-455.075 465.195,-458.284 475.09,-462.072 475.292,-455.075"/>
</g>
<!-- Node15 -->
<g id="node15" class="node"><title>Node15</title>
<g id="a_node15"><a xlink:href="classhypro_1_1timedGuardHandler.html" target="_top" xlink:title="hypro::timedGuardHandler\l\&lt; State \&gt;">
<polygon fill="white" stroke="black" points="540,-398.5 540,-428.5 684,-428.5 684,-398.5 540,-398.5"/>
<text text-anchor="start" x="548" y="-416.5" font-family="Helvetica,sans-Serif" font-size="10.00">hypro::timedGuardHandler</text>
<text text-anchor="middle" x="612" y="-405.5" font-family="Helvetica,sans-Serif" font-size="10.00">&lt; State &gt;</text>
</a>
</g>
</g>
<!-- Node13&#45;&gt;Node15 -->
<g id="edge14" class="edge"><title>Node13&#45;&gt;Node15</title>
<path fill="none" stroke="midnightblue" d="M475.26,-441.629C496.111,-437.308 518.872,-432.592 539.695,-428.277"/>
<polygon fill="midnightblue" stroke="midnightblue" points="474.277,-438.259 465.195,-443.715 475.697,-445.113 474.277,-438.259"/>
</g>
<!-- Node18 -->
<g id="node18" class="node"><title>Node18</title>
<g id="a_node18"><a xlink:href="classhypro_1_1ltiInvariantHandler.html" target="_top" xlink:title="hypro::ltiInvariantHandler\l\&lt; State \&gt;">
<polygon fill="white" stroke="black" points="334,-343.5 334,-373.5 471,-373.5 471,-343.5 334,-343.5"/>
<text text-anchor="start" x="342" y="-361.5" font-family="Helvetica,sans-Serif" font-size="10.00">hypro::ltiInvariantHandler</text>
<text text-anchor="middle" x="402.5" y="-350.5" font-family="Helvetica,sans-Serif" font-size="10.00">&lt; State &gt;</text>
</a>
</g>
</g>
<!-- Node17&#45;&gt;Node18 -->
<g id="edge17" class="edge"><title>Node17&#45;&gt;Node18</title>
<path fill="none" stroke="midnightblue" d="M252.425,-321.514C279.111,-328.135 312.488,-336.416 340.892,-343.463"/>
<polygon fill="midnightblue" stroke="midnightblue" points="253.097,-318.075 242.549,-319.064 251.412,-324.869 253.097,-318.075"/>
</g>
<!-- Node21 -->
<g id="node21" class="node"><title>Node21</title>
<g id="a_node21"><a xlink:href="classhypro_1_1rectangularInvariantHandler.html" target="_top" xlink:title="hypro::rectangularInvariant\lHandler\&lt; State \&gt;">
<polygon fill="white" stroke="black" points="329.5,-294.5 329.5,-324.5 475.5,-324.5 475.5,-294.5 329.5,-294.5"/>
<text text-anchor="start" x="337.5" y="-312.5" font-family="Helvetica,sans-Serif" font-size="10.00">hypro::rectangularInvariant</text>
<text text-anchor="middle" x="402.5" y="-301.5" font-family="Helvetica,sans-Serif" font-size="10.00">Handler&lt; State &gt;</text>
</a>
</g>
</g>
<!-- Node17&#45;&gt;Node21 -->
<g id="edge20" class="edge"><title>Node17&#45;&gt;Node21</title>
<path fill="none" stroke="midnightblue" d="M278.805,-309.5C295.309,-309.5 312.763,-309.5 329.167,-309.5"/>
<polygon fill="midnightblue" stroke="midnightblue" points="278.669,-306 268.669,-309.5 278.669,-313 278.669,-306"/>
</g>
<!-- Node19 -->
<g id="node19" class="node"><title>Node19</title>
<g id="a_node19"><a xlink:href="classhypro_1_1discreteInvariantHandler.html" target="_top" xlink:title="hypro::discreteInvariant\lHandler\&lt; State \&gt;">
<polygon fill="white" stroke="black" points="547.5,-343.5 547.5,-373.5 676.5,-373.5 676.5,-343.5 547.5,-343.5"/>
<text text-anchor="start" x="555.5" y="-361.5" font-family="Helvetica,sans-Serif" font-size="10.00">hypro::discreteInvariant</text>
<text text-anchor="middle" x="612" y="-350.5" font-family="Helvetica,sans-Serif" font-size="10.00">Handler&lt; State &gt;</text>
</a>
</g>
</g>
<!-- Node18&#45;&gt;Node19 -->
<g id="edge18" class="edge"><title>Node18&#45;&gt;Node19</title>
<path fill="none" stroke="midnightblue" d="M481.352,-358.5C503.105,-358.5 526.48,-358.5 547.31,-358.5"/>
<polygon fill="midnightblue" stroke="midnightblue" points="481.156,-355 471.156,-358.5 481.156,-362 481.156,-355"/>
</g>
<!-- Node20 -->
<g id="node20" class="node"><title>Node20</title>
<g id="a_node20"><a xlink:href="classhypro_1_1timedInvariantHandler.html" target="_top" xlink:title="hypro::timedInvariantHandler\l\&lt; State \&gt;">
<polygon fill="white" stroke="black" points="534,-294.5 534,-324.5 690,-324.5 690,-294.5 534,-294.5"/>
<text text-anchor="start" x="542" y="-312.5" font-family="Helvetica,sans-Serif" font-size="10.00">hypro::timedInvariantHandler</text>
<text text-anchor="middle" x="612" y="-301.5" font-family="Helvetica,sans-Serif" font-size="10.00">&lt; State &gt;</text>
</a>
</g>
</g>
<!-- Node18&#45;&gt;Node20 -->
<g id="edge19" class="edge"><title>Node18&#45;&gt;Node20</title>
<path fill="none" stroke="midnightblue" d="M477.2,-341.096C500.154,-335.676 525.256,-329.748 547.453,-324.506"/>
<polygon fill="midnightblue" stroke="midnightblue" points="476.095,-337.761 467.167,-343.465 477.704,-344.573 476.095,-337.761"/>
</g>
<!-- Node23 -->
<g id="node23" class="node"><title>Node23</title>
<g id="a_node23"><a xlink:href="classhypro_1_1ltiJumpHandler.html" target="_top" xlink:title="hypro::ltiJumpHandler\l\&lt; State \&gt;">
<polygon fill="white" stroke="black" points="343,-245.5 343,-275.5 462,-275.5 462,-245.5 343,-245.5"/>
<text text-anchor="start" x="351" y="-263.5" font-family="Helvetica,sans-Serif" font-size="10.00">hypro::ltiJumpHandler</text>
<text text-anchor="middle" x="402.5" y="-252.5" font-family="Helvetica,sans-Serif" font-size="10.00">&lt; State &gt;</text>
</a>
</g>
</g>
<!-- Node22&#45;&gt;Node23 -->
<g id="edge22" class="edge"><title>Node22&#45;&gt;Node23</title>
<path fill="none" stroke="midnightblue" d="M269.828,-260.5C293.468,-260.5 319.951,-260.5 342.933,-260.5"/>
<polygon fill="midnightblue" stroke="midnightblue" points="269.54,-257 259.54,-260.5 269.54,-264 269.54,-257"/>
</g>
<!-- Node25 -->
<g id="node25" class="node"><title>Node25</title>
<g id="a_node25"><a xlink:href="classhypro_1_1ltiResetHandler.html" target="_top" xlink:title="hypro::ltiResetHandler\l\&lt; State \&gt;">
<polygon fill="white" stroke="black" points="341.5,-196.5 341.5,-226.5 463.5,-226.5 463.5,-196.5 341.5,-196.5"/>
<text text-anchor="start" x="349.5" y="-214.5" font-family="Helvetica,sans-Serif" font-size="10.00">hypro::ltiResetHandler</text>
<text text-anchor="middle" x="402.5" y="-203.5" font-family="Helvetica,sans-Serif" font-size="10.00">&lt; State &gt;</text>
</a>
</g>
</g>
<!-- Node24&#45;&gt;Node25 -->
<g id="edge24" class="edge"><title>Node24&#45;&gt;Node25</title>
<path fill="none" stroke="midnightblue" d="M271.371,-211.5C294.092,-211.5 319.286,-211.5 341.408,-211.5"/>
<polygon fill="midnightblue" stroke="midnightblue" points="271.125,-208 261.125,-211.5 271.125,-215 271.125,-208"/>
</g>
<!-- Node28 -->
<g id="node28" class="node"><title>Node28</title>
<g id="a_node28"><a xlink:href="classhypro_1_1rectangularResetHandler.html" target="_top" xlink:title="hypro::rectangularResetHandler\l\&lt; State \&gt;">
<polygon fill="white" stroke="black" points="318.5,-147.5 318.5,-177.5 486.5,-177.5 486.5,-147.5 318.5,-147.5"/>
<text text-anchor="start" x="326.5" y="-165.5" font-family="Helvetica,sans-Serif" font-size="10.00">hypro::rectangularResetHandler</text>
<text text-anchor="middle" x="402.5" y="-154.5" font-family="Helvetica,sans-Serif" font-size="10.00">&lt; State &gt;</text>
</a>
</g>
</g>
<!-- Node24&#45;&gt;Node28 -->
<g id="edge27" class="edge"><title>Node24&#45;&gt;Node28</title>
<path fill="none" stroke="midnightblue" d="M252.425,-199.486C279.111,-192.865 312.488,-184.584 340.892,-177.537"/>
<polygon fill="midnightblue" stroke="midnightblue" points="251.412,-196.131 242.549,-201.936 253.097,-202.925 251.412,-196.131"/>
</g>
<!-- Node26 -->
<g id="node26" class="node"><title>Node26</title>
<g id="a_node26"><a xlink:href="classhypro_1_1discreteResetHandler.html" target="_top" xlink:title="hypro::discreteResetHandler\l\&lt; State \&gt;">
<polygon fill="white" stroke="black" points="536,-220.5 536,-250.5 688,-250.5 688,-220.5 536,-220.5"/>
<text text-anchor="start" x="544" y="-238.5" font-family="Helvetica,sans-Serif" font-size="10.00">hypro::discreteResetHandler</text>
<text text-anchor="middle" x="612" y="-227.5" font-family="Helvetica,sans-Serif" font-size="10.00">&lt; State &gt;</text>
</a>
</g>
</g>
<!-- Node25&#45;&gt;Node26 -->
<g id="edge25" class="edge"><title>Node25&#45;&gt;Node26</title>
<path fill="none" stroke="midnightblue" d="M473.522,-219.599C493.614,-221.923 515.6,-224.466 535.98,-226.823"/>
<polygon fill="midnightblue" stroke="midnightblue" points="473.854,-216.114 463.518,-218.442 473.049,-223.068 473.854,-216.114"/>
</g>
<!-- Node27 -->
<g id="node27" class="node"><title>Node27</title>
<g id="a_node27"><a xlink:href="classhypro_1_1timedResetHandler.html" target="_top" xlink:title="hypro::timedResetHandler\l\&lt; State \&gt;">
<polygon fill="white" stroke="black" points="541.5,-171.5 541.5,-201.5 682.5,-201.5 682.5,-171.5 541.5,-171.5"/>
<text text-anchor="start" x="549.5" y="-189.5" font-family="Helvetica,sans-Serif" font-size="10.00">hypro::timedResetHandler</text>
<text text-anchor="middle" x="612" y="-178.5" font-family="Helvetica,sans-Serif" font-size="10.00">&lt; State &gt;</text>
</a>
</g>
</g>
<!-- Node25&#45;&gt;Node27 -->
<g id="edge26" class="edge"><title>Node25&#45;&gt;Node27</title>
<path fill="none" stroke="midnightblue" d="M473.685,-203.044C495.474,-200.419 519.476,-197.527 541.236,-194.905"/>
<polygon fill="midnightblue" stroke="midnightblue" points="473.027,-199.598 463.518,-204.269 473.864,-206.548 473.027,-199.598"/>
</g>
<!-- Node30 -->
<g id="node30" class="node"><title>Node30</title>
<g id="a_node30"><a xlink:href="classhypro_1_1discreteTimeEvolutionHandler.html" target="_top" xlink:title="hypro::discreteTimeEvolution\lHandler">
<polygon fill="white" stroke="black" points="325,-98.5 325,-128.5 480,-128.5 480,-98.5 325,-98.5"/>
<text text-anchor="start" x="333" y="-116.5" font-family="Helvetica,sans-Serif" font-size="10.00">hypro::discreteTimeEvolution</text>
<text text-anchor="middle" x="402.5" y="-105.5" font-family="Helvetica,sans-Serif" font-size="10.00">Handler</text>
</a>
</g>
</g>
<!-- Node29&#45;&gt;Node30 -->
<g id="edge29" class="edge"><title>Node29&#45;&gt;Node30</title>
<path fill="none" stroke="midnightblue" d="M276.856,-132.433C292.446,-130.065 308.964,-127.556 324.698,-125.166"/>
<polygon fill="midnightblue" stroke="midnightblue" points="276.123,-129.004 266.762,-133.967 277.174,-135.925 276.123,-129.004"/>
</g>
<!-- Node31 -->
<g id="node31" class="node"><title>Node31</title>
<g id="a_node31"><a xlink:href="classhypro_1_1ltiTimeEvolutionHandler.html" target="_top" xlink:title="hypro::ltiTimeEvolutionHandler\l\&lt; State \&gt;">
<polygon fill="white" stroke="black" points="321.5,-49.5 321.5,-79.5 483.5,-79.5 483.5,-49.5 321.5,-49.5"/>
<text text-anchor="start" x="329.5" y="-67.5" font-family="Helvetica,sans-Serif" font-size="10.00">hypro::ltiTimeEvolutionHandler</text>
<text text-anchor="middle" x="402.5" y="-56.5" font-family="Helvetica,sans-Serif" font-size="10.00">&lt; State &gt;</text>
</a>
</g>
</g>
<!-- Node29&#45;&gt;Node31 -->
<g id="edge30" class="edge"><title>Node29&#45;&gt;Node31</title>
<path fill="none" stroke="midnightblue" d="M265.666,-130.6C270.996,-128.562 276.186,-126.21 281,-123.5 300.446,-112.553 297.679,-99.6659 317,-88.5 322.942,-85.0661 329.406,-82.0979 336.024,-79.5377"/>
<polygon fill="midnightblue" stroke="midnightblue" points="264.284,-127.375 255.97,-133.942 266.565,-133.992 264.284,-127.375"/>
</g>
<!-- Node35 -->
<g id="node35" class="node"><title>Node35</title>
<g id="a_node35"><a xlink:href="classhypro_1_1rectangularTimeEvolutionHandler.html" target="_top" xlink:title="hypro::rectangularTimeEvolution\lHandler\&lt; State \&gt;">
<polygon fill="white" stroke="black" points="317,-0.5 317,-30.5 488,-30.5 488,-0.5 317,-0.5"/>
<text text-anchor="start" x="325" y="-18.5" font-family="Helvetica,sans-Serif" font-size="10.00">hypro::rectangularTimeEvolution</text>
<text text-anchor="middle" x="402.5" y="-7.5" font-family="Helvetica,sans-Serif" font-size="10.00">Handler&lt; State &gt;</text>
</a>
</g>
</g>
<!-- Node29&#45;&gt;Node35 -->
<g id="edge34" class="edge"><title>Node29&#45;&gt;Node35</title>
<path fill="none" stroke="midnightblue" d="M272.903,-129.318C275.767,-127.592 278.486,-125.661 281,-123.5 311.802,-97.0237 286.499,-66.3228 317,-39.5 320.894,-36.0759 325.244,-33.1379 329.86,-30.6174"/>
<polygon fill="midnightblue" stroke="midnightblue" points="271.246,-126.234 263.937,-133.904 274.434,-132.466 271.246,-126.234"/>
</g>
<!-- Node32 -->
<g id="node32" class="node"><title>Node32</title>
<g id="a_node32"><a xlink:href="classhypro_1_1timedElapseAfterTickTimeEvolutionHandler.html" target="_top" xlink:title="hypro::timedElapseAfterTick\lTimeEvolutionHandler\&lt; State \&gt;">
<polygon fill="white" stroke="black" points="527,-98.5 527,-128.5 697,-128.5 697,-98.5 527,-98.5"/>
<text text-anchor="start" x="535" y="-116.5" font-family="Helvetica,sans-Serif" font-size="10.00">hypro::timedElapseAfterTick</text>
<text text-anchor="middle" x="612" y="-105.5" font-family="Helvetica,sans-Serif" font-size="10.00">TimeEvolutionHandler&lt; State &gt;</text>
</a>
</g>
</g>
<!-- Node31&#45;&gt;Node32 -->
<g id="edge31" class="edge"><title>Node31&#45;&gt;Node32</title>
<path fill="none" stroke="midnightblue" d="M477.2,-81.9038C500.154,-87.3243 525.256,-93.252 547.453,-98.4938"/>
<polygon fill="midnightblue" stroke="midnightblue" points="477.704,-78.4266 467.167,-79.5346 476.095,-85.2392 477.704,-78.4266"/>
</g>
<!-- Node33 -->
<g id="node33" class="node"><title>Node33</title>
<g id="a_node33"><a xlink:href="classhypro_1_1timedElapseTimeEvolutionHandler.html" target="_top" xlink:title="hypro::timedElapseTimeEvolution\lHandler\&lt; State \&gt;">
<polygon fill="white" stroke="black" points="524,-49.5 524,-79.5 700,-79.5 700,-49.5 524,-49.5"/>
<text text-anchor="start" x="532" y="-67.5" font-family="Helvetica,sans-Serif" font-size="10.00">hypro::timedElapseTimeEvolution</text>
<text text-anchor="middle" x="612" y="-56.5" font-family="Helvetica,sans-Serif" font-size="10.00">Handler&lt; State &gt;</text>
</a>
</g>
</g>
<!-- Node31&#45;&gt;Node33 -->
<g id="edge32" class="edge"><title>Node31&#45;&gt;Node33</title>
<path fill="none" stroke="midnightblue" d="M493.959,-64.5C503.851,-64.5 513.907,-64.5 523.759,-64.5"/>
<polygon fill="midnightblue" stroke="midnightblue" points="493.725,-61.0001 483.725,-64.5 493.725,-68.0001 493.725,-61.0001"/>
</g>
<!-- Node34 -->
<g id="node34" class="node"><title>Node34</title>
<g id="a_node34"><a xlink:href="classhypro_1_1timedTickTimeEvolutionHandler.html" target="_top" xlink:title="hypro::timedTickTimeEvolution\lHandler\&lt; State \&gt;">
<polygon fill="white" stroke="black" points="531,-0.5 531,-30.5 693,-30.5 693,-0.5 531,-0.5"/>
<text text-anchor="start" x="539" y="-18.5" font-family="Helvetica,sans-Serif" font-size="10.00">hypro::timedTickTimeEvolution</text>
<text text-anchor="middle" x="612" y="-7.5" font-family="Helvetica,sans-Serif" font-size="10.00">Handler&lt; State &gt;</text>
</a>
</g>
</g>
<!-- Node31&#45;&gt;Node34 -->
<g id="edge33" class="edge"><title>Node31&#45;&gt;Node34</title>
<path fill="none" stroke="midnightblue" d="M477.2,-47.0962C500.154,-41.6757 525.256,-35.748 547.453,-30.5062"/>
<polygon fill="midnightblue" stroke="midnightblue" points="476.095,-43.7608 467.167,-49.4654 477.704,-50.5734 476.095,-43.7608"/>
</g>
</g>
</svg>
