<?xml version="1.0" encoding="UTF-8" standalone="no"?>
<!DOCTYPE svg PUBLIC "-//W3C//DTD SVG 1.1//EN"
 "http://www.w3.org/Graphics/SVG/1.1/DTD/svg11.dtd">
<!-- Generated by graphviz version 2.38.0 (20140413.2041)
 -->
<!-- Title: Graphical Class Hierarchy Pages: 1 -->
<svg width="253pt" height="411pt"
 viewBox="0.00 0.00 253.00 410.50" xmlns="http://www.w3.org/2000/svg" xmlns:xlink="http://www.w3.org/1999/xlink">
<g id="graph0" class="graph" transform="scale(1 1) rotate(0) translate(4 406.5)">
<title>Graphical Class Hierarchy</title>
<polygon fill="white" stroke="none" points="-4,4 -4,-406.5 249,-406.5 249,4 -4,4"/>
<!-- Node1 -->
<g id="node1" class="node"><title>Node1</title>
<polygon fill="white" stroke="#bfbfbf" points="0,-181.5 0,-200.5 62,-200.5 62,-181.5 0,-181.5"/>
<text text-anchor="middle" x="31" y="-188.5" font-family="Helvetica,sans-Serif" font-size="10.00">Singleton</text>
</g>
<!-- Node2 -->
<g id="node2" class="node"><title>Node2</title>
<g id="a_node2"><a xlink:href="classhypro_1_1_context_factory.html" target="_top" xlink:title="hypro::ContextFactory\l\&lt; State \&gt;">
<polygon fill="white" stroke="black" points="110.5,-372 110.5,-402 232.5,-402 232.5,-372 110.5,-372"/>
<text text-anchor="start" x="118.5" y="-390" font-family="Helvetica,sans-Serif" font-size="10.00">hypro::ContextFactory</text>
<text text-anchor="middle" x="171.5" y="-379" font-family="Helvetica,sans-Serif" font-size="10.00">&lt; State &gt;</text>
</a>
</g>
</g>
<!-- Node1&#45;&gt;Node2 -->
<g id="edge1" class="edge"><title>Node1&#45;&gt;Node2</title>
<path fill="none" stroke="midnightblue" d="M34.1023,-210.815C38.9138,-246.313 53.9462,-320.958 98,-363 101.645,-366.478 105.805,-369.453 110.247,-371.997"/>
<polygon fill="midnightblue" stroke="midnightblue" points="37.5605,-210.259 32.8754,-200.756 30.612,-211.107 37.5605,-210.259"/>
</g>
<!-- Node3 -->
<g id="node3" class="node"><title>Node3</title>
<g id="a_node3"><a xlink:href="classhypro_1_1_decision_entity.html" target="_top" xlink:title="hypro::DecisionEntity\l\&lt; Number \&gt;">
<polygon fill="white" stroke="black" points="113,-323 113,-353 230,-353 230,-323 113,-323"/>
<text text-anchor="start" x="121" y="-341" font-family="Helvetica,sans-Serif" font-size="10.00">hypro::DecisionEntity</text>
<text text-anchor="middle" x="171.5" y="-330" font-family="Helvetica,sans-Serif" font-size="10.00">&lt; Number &gt;</text>
</a>
</g>
</g>
<!-- Node1&#45;&gt;Node3 -->
<g id="edge2" class="edge"><title>Node1&#45;&gt;Node3</title>
<path fill="none" stroke="midnightblue" d="M37.3913,-210.377C45.8805,-237.392 64.9017,-286.179 98,-314 102.466,-317.754 107.538,-320.926 112.877,-323.606"/>
<polygon fill="midnightblue" stroke="midnightblue" points="40.6781,-209.15 34.473,-200.563 33.9684,-211.146 40.6781,-209.15"/>
</g>
<!-- Node4 -->
<g id="node4" class="node"><title>Node4</title>
<g id="a_node4"><a xlink:href="classhypro_1_1_event_timing_provider.html" target="_top" xlink:title="hypro::EventTimingProvider\l\&lt; Number \&gt;">
<polygon fill="white" stroke="black" points="98,-274 98,-304 245,-304 245,-274 98,-274"/>
<text text-anchor="start" x="106" y="-292" font-family="Helvetica,sans-Serif" font-size="10.00">hypro::EventTimingProvider</text>
<text text-anchor="middle" x="171.5" y="-281" font-family="Helvetica,sans-Serif" font-size="10.00">&lt; Number &gt;</text>
</a>
</g>
</g>
<!-- Node1&#45;&gt;Node4 -->
<g id="edge3" class="edge"><title>Node1&#45;&gt;Node4</title>
<path fill="none" stroke="midnightblue" d="M43.8556,-209.005C55.7194,-225.712 75.4179,-250.17 98,-265 103.209,-268.421 108.949,-271.394 114.849,-273.97"/>
<polygon fill="midnightblue" stroke="midnightblue" points="46.6496,-206.891 38.1021,-200.63 40.8801,-210.855 46.6496,-206.891"/>
</g>
<!-- Node5 -->
<g id="node5" class="node"><title>Node5</title>
<g id="a_node5"><a xlink:href="classhypro_1_1_handler_factory.html" target="_top" xlink:title="hypro::HandlerFactory\l\&lt; State \&gt;">
<polygon fill="white" stroke="black" points="110.5,-225 110.5,-255 232.5,-255 232.5,-225 110.5,-225"/>
<text text-anchor="start" x="118.5" y="-243" font-family="Helvetica,sans-Serif" font-size="10.00">hypro::HandlerFactory</text>
<text text-anchor="middle" x="171.5" y="-232" font-family="Helvetica,sans-Serif" font-size="10.00">&lt; State &gt;</text>
</a>
</g>
</g>
<!-- Node1&#45;&gt;Node5 -->
<g id="edge4" class="edge"><title>Node1&#45;&gt;Node5</title>
<path fill="none" stroke="midnightblue" d="M65.835,-204.131C76.1299,-208.042 87.4987,-212.275 98,-216 106.372,-218.97 115.328,-222.029 123.988,-224.927"/>
<polygon fill="midnightblue" stroke="midnightblue" points="66.9476,-200.81 56.357,-200.508 64.4481,-207.348 66.9476,-200.81"/>
</g>
<!-- Node6 -->
<g id="node6" class="node"><title>Node6</title>
<g id="a_node6"><a xlink:href="classhypro_1_1_node_manager.html" target="_top" xlink:title="hypro::NodeManager\l\&lt; State \&gt;">
<polygon fill="white" stroke="black" points="113,-176 113,-206 230,-206 230,-176 113,-176"/>
<text text-anchor="start" x="121" y="-194" font-family="Helvetica,sans-Serif" font-size="10.00">hypro::NodeManager</text>
<text text-anchor="middle" x="171.5" y="-183" font-family="Helvetica,sans-Serif" font-size="10.00">&lt; State &gt;</text>
</a>
</g>
</g>
<!-- Node1&#45;&gt;Node6 -->
<g id="edge5" class="edge"><title>Node1&#45;&gt;Node6</title>
<path fill="none" stroke="midnightblue" d="M72.2841,-191C84.9648,-191 99.2261,-191 112.868,-191"/>
<polygon fill="midnightblue" stroke="midnightblue" points="72.0525,-187.5 62.0524,-191 72.0524,-194.5 72.0525,-187.5"/>
</g>
<!-- Node7 -->
<g id="node7" class="node"><title>Node7</title>
<g id="a_node7"><a xlink:href="classhypro_1_1_plotter.html" target="_top" xlink:title="Class implementing a plotter. The plotter is implemented using carl::Singleton. ">
<polygon fill="white" stroke="black" points="100,-137.5 100,-156.5 243,-156.5 243,-137.5 100,-137.5"/>
<text text-anchor="middle" x="171.5" y="-144.5" font-family="Helvetica,sans-Serif" font-size="10.00">hypro::Plotter&lt; Number &gt;</text>
</a>
</g>
</g>
<!-- Node1&#45;&gt;Node7 -->
<g id="edge6" class="edge"><title>Node1&#45;&gt;Node7</title>
<path fill="none" stroke="midnightblue" d="M66.5886,-177.836C76.6608,-174.162 87.7207,-170.281 98,-167 109.568,-163.308 122.299,-159.659 133.822,-156.509"/>
<polygon fill="midnightblue" stroke="midnightblue" points="65.0788,-174.662 56.9111,-181.41 67.5044,-181.228 65.0788,-174.662"/>
</g>
<!-- Node8 -->
<g id="node8" class="node"><title>Node8</title>
<g id="a_node8"><a xlink:href="classhypro_1_1_settings_provider.html" target="_top" xlink:title="hypro::SettingsProvider\l\&lt; State \&gt;">
<polygon fill="white" stroke="black" points="107.5,-88 107.5,-118 235.5,-118 235.5,-88 107.5,-88"/>
<text text-anchor="start" x="115.5" y="-106" font-family="Helvetica,sans-Serif" font-size="10.00">hypro::SettingsProvider</text>
<text text-anchor="middle" x="171.5" y="-95" font-family="Helvetica,sans-Serif" font-size="10.00">&lt; State &gt;</text>
</a>
</g>
</g>
<!-- Node1&#45;&gt;Node8 -->
<g id="edge7" class="edge"><title>Node1&#45;&gt;Node8</title>
<path fill="none" stroke="midnightblue" d="M46.7878,-173.166C59.1993,-159.193 78.0583,-140.147 98,-128 104.14,-124.26 110.916,-120.985 117.786,-118.146"/>
<polygon fill="midnightblue" stroke="midnightblue" points="43.8225,-171.245 39.941,-181.103 49.123,-175.817 43.8225,-171.245"/>
</g>
<!-- Node9 -->
<g id="node9" class="node"><title>Node9</title>
<g id="a_node9"><a xlink:href="classhypro_1_1statistics_1_1_statistician.html" target="_top" xlink:title="Class which implements several counters on demand. ">
<polygon fill="white" stroke="black" points="122.5,-39 122.5,-69 220.5,-69 220.5,-39 122.5,-39"/>
<text text-anchor="start" x="130.5" y="-57" font-family="Helvetica,sans-Serif" font-size="10.00">hypro::statistics::</text>
<text text-anchor="middle" x="171.5" y="-46" font-family="Helvetica,sans-Serif" font-size="10.00">Statistician</text>
</a>
</g>
</g>
<!-- Node1&#45;&gt;Node9 -->
<g id="edge8" class="edge"><title>Node1&#45;&gt;Node9</title>
<path fill="none" stroke="midnightblue" d="M38.5818,-171.631C47.9805,-146.769 67.5541,-103.882 98,-79 105.113,-73.1865 113.659,-68.6907 122.348,-65.2246"/>
<polygon fill="midnightblue" stroke="midnightblue" points="35.1708,-170.773 35.0755,-181.367 41.7568,-173.145 35.1708,-170.773"/>
</g>
<!-- Node10 -->
<g id="node10" class="node"><title>Node10</title>
<g id="a_node10"><a xlink:href="classhypro_1_1_variable_pool.html" target="_top" xlink:title="hypro::VariablePool">
<polygon fill="white" stroke="black" points="117.5,-0.5 117.5,-19.5 225.5,-19.5 225.5,-0.5 117.5,-0.5"/>
<text text-anchor="middle" x="171.5" y="-7.5" font-family="Helvetica,sans-Serif" font-size="10.00">hypro::VariablePool</text>
</a>
</g>
</g>
<!-- Node1&#45;&gt;Node10 -->
<g id="edge9" class="edge"><title>Node1&#45;&gt;Node10</title>
<path fill="none" stroke="midnightblue" d="M34.4453,-171.296C39.7202,-137.341 55.3562,-67.8154 98,-30 103.568,-25.0621 110.251,-21.3316 117.277,-18.5156"/>
<polygon fill="midnightblue" stroke="midnightblue" points="30.9582,-170.96 33.0296,-181.35 37.8898,-171.936 30.9582,-170.96"/>
</g>
</g>
</svg>
