<?xml version="1.0" encoding="UTF-8" standalone="no"?>
<!DOCTYPE svg PUBLIC "-//W3C//DTD SVG 1.1//EN"
 "http://www.w3.org/Graphics/SVG/1.1/DTD/svg11.dtd">
<!-- Generated by graphviz version 2.38.0 (20140413.2041)
 -->
<!-- Title: Graphical Class Hierarchy Pages: 1 -->
<svg width="399pt" height="50pt"
 viewBox="0.00 0.00 399.00 50.00" xmlns="http://www.w3.org/2000/svg" xmlns:xlink="http://www.w3.org/1999/xlink">
<g id="graph0" class="graph" transform="scale(1 1) rotate(0) translate(4 46)">
<title>Graphical Class Hierarchy</title>
<polygon fill="white" stroke="none" points="-4,4 -4,-46 395,-46 395,4 -4,4"/>
<!-- Node1 -->
<g id="node1" class="node"><title>Node1</title>
<g id="a_node1"><a xlink:href="classhypro_1_1GeometricObject.html" target="_top" xlink:title="hypro::GeometricObject\l\&lt; Number, DifferenceBoundsT\l\&lt; Number, Converter, Setting \&gt; \&gt;">
<polygon fill="white" stroke="black" points="0,-0.5 0,-41.5 183,-41.5 183,-0.5 0,-0.5"/>
<text text-anchor="start" x="8" y="-29.5" font-family="Helvetica,sans-Serif" font-size="10.00">hypro::GeometricObject</text>
<text text-anchor="start" x="8" y="-18.5" font-family="Helvetica,sans-Serif" font-size="10.00">&lt; Number, DifferenceBoundsT</text>
<text text-anchor="middle" x="91.5" y="-7.5" font-family="Helvetica,sans-Serif" font-size="10.00">&lt; Number, Converter, Setting &gt; &gt;</text>
</a>
</g>
</g>
<!-- Node2 -->
<g id="node2" class="node"><title>Node2</title>
<g id="a_node2"><a xlink:href="classhypro_1_1DifferenceBoundsT.html" target="_top" xlink:title="Class wrapping the difference bounds content. ">
<polygon fill="white" stroke="black" points="219,-6 219,-36 391,-36 391,-6 219,-6"/>
<text text-anchor="start" x="227" y="-24" font-family="Helvetica,sans-Serif" font-size="10.00">hypro::DifferenceBoundsT</text>
<text text-anchor="middle" x="305" y="-13" font-family="Helvetica,sans-Serif" font-size="10.00">&lt; Number, Converter, Setting &gt;</text>
</a>
</g>
</g>
<!-- Node1&#45;&gt;Node2 -->
<g id="edge1" class="edge"><title>Node1&#45;&gt;Node2</title>
<path fill="none" stroke="midnightblue" d="M193.191,-21C201.803,-21 210.46,-21 218.933,-21"/>
<polygon fill="midnightblue" stroke="midnightblue" points="193.115,-17.5001 183.115,-21 193.115,-24.5001 193.115,-17.5001"/>
</g>
</g>
</svg>
