<?xml version="1.0" encoding="UTF-8" standalone="no"?>
<!DOCTYPE svg PUBLIC "-//W3C//DTD SVG 1.1//EN"
 "http://www.w3.org/Graphics/SVG/1.1/DTD/svg11.dtd">
<!-- Generated by graphviz version 2.38.0 (20140413.2041)
 -->
<!-- Title: Graphical Class Hierarchy Pages: 1 -->
<svg width="240pt" height="50pt"
 viewBox="0.00 0.00 240.00 50.00" xmlns="http://www.w3.org/2000/svg" xmlns:xlink="http://www.w3.org/1999/xlink">
<g id="graph0" class="graph" transform="scale(1 1) rotate(0) translate(4 46)">
<title>Graphical Class Hierarchy</title>
<polygon fill="white" stroke="none" points="-4,4 -4,-46 236,-46 236,4 -4,4"/>
<!-- Node1 -->
<g id="node1" class="node"><title>Node1</title>
<polygon fill="white" stroke="#bfbfbf" points="0,-11.5 0,-30.5 35,-30.5 35,-11.5 0,-11.5"/>
<text text-anchor="middle" x="17.5" y="-18.5" font-family="Helvetica,sans-Serif" font-size="10.00">pair</text>
</g>
<!-- Node2 -->
<g id="node2" class="node"><title>Node2</title>
<g id="a_node2"><a xlink:href="classhypro_1_1_difference_bounds_t_1_1_d_b_m_entry.html" target="_top" xlink:title="hypro::DifferenceBoundsT\l\&lt; Number, Converter, Setting\l \&gt;::DBMEntry">
<polygon fill="white" stroke="black" points="71,-0.5 71,-41.5 232,-41.5 232,-0.5 71,-0.5"/>
<text text-anchor="start" x="79" y="-29.5" font-family="Helvetica,sans-Serif" font-size="10.00">hypro::DifferenceBoundsT</text>
<text text-anchor="start" x="79" y="-18.5" font-family="Helvetica,sans-Serif" font-size="10.00">&lt; Number, Converter, Setting</text>
<text text-anchor="middle" x="151.5" y="-7.5" font-family="Helvetica,sans-Serif" font-size="10.00"> &gt;::DBMEntry</text>
</a>
</g>
</g>
<!-- Node1&#45;&gt;Node2 -->
<g id="edge1" class="edge"><title>Node1&#45;&gt;Node2</title>
<path fill="none" stroke="midnightblue" d="M45.2478,-21C52.9213,-21 61.7067,-21 70.858,-21"/>
<polygon fill="midnightblue" stroke="midnightblue" points="45.2179,-17.5001 35.2179,-21 45.2179,-24.5001 45.2179,-17.5001"/>
</g>
</g>
</svg>
