<?xml version="1.0" encoding="UTF-8" standalone="no"?>
<!DOCTYPE svg PUBLIC "-//W3C//DTD SVG 1.1//EN"
 "http://www.w3.org/Graphics/SVG/1.1/DTD/svg11.dtd">
<!-- Generated by graphviz version 2.38.0 (20140413.2041)
 -->
<!-- Title: /home/travis/build/hypro/hypro/src/hypro/representations/helperMethods/isBox.h Pages: 1 -->
<svg width="1700pt" height="374pt"
 viewBox="0.00 0.00 1699.96 374.00" xmlns="http://www.w3.org/2000/svg" xmlns:xlink="http://www.w3.org/1999/xlink">
<g id="graph0" class="graph" transform="scale(1 1) rotate(0) translate(4 370)">
<title>/home/travis/build/hypro/hypro/src/hypro/representations/helperMethods/isBox.h</title>
<polygon fill="white" stroke="none" points="-4,4 -4,-370 1695.96,-370 1695.96,4 -4,4"/>
<!-- Node1 -->
<g id="node1" class="node"><title>Node1</title>
<polygon fill="#bfbfbf" stroke="black" points="364.456,-313.5 364.456,-365.5 534.456,-365.5 534.456,-313.5 364.456,-313.5"/>
<text text-anchor="start" x="372.456" y="-353.5" font-family="Helvetica,sans-Serif" font-size="10.00">/home/travis/build</text>
<text text-anchor="start" x="372.456" y="-342.5" font-family="Helvetica,sans-Serif" font-size="10.00">/hypro/hypro/src/hypro</text>
<text text-anchor="start" x="372.456" y="-331.5" font-family="Helvetica,sans-Serif" font-size="10.00">/representations/helperMethods</text>
<text text-anchor="middle" x="449.456" y="-320.5" font-family="Helvetica,sans-Serif" font-size="10.00">/isBox.h</text>
</g>
<!-- Node2 -->
<g id="node2" class="node"><title>Node2</title>
<g id="a_node2"><a xlink:href="types_8h.html" target="_top" xlink:title="../../types.h">
<polygon fill="white" stroke="black" points="301.456,-257.5 301.456,-276.5 371.456,-276.5 371.456,-257.5 301.456,-257.5"/>
<text text-anchor="middle" x="336.456" y="-264.5" font-family="Helvetica,sans-Serif" font-size="10.00">../../types.h</text>
</a>
</g>
</g>
<!-- Node1&#45;&gt;Node2 -->
<g id="edge1" class="edge"><title>Node1&#45;&gt;Node2</title>
<path fill="none" stroke="midnightblue" d="M409.299,-313.446C392.334,-302.862 373.219,-290.936 358.828,-281.958"/>
<polygon fill="midnightblue" stroke="midnightblue" points="360.461,-278.851 350.124,-276.527 356.755,-284.79 360.461,-278.851"/>
</g>
<!-- Node28 -->
<g id="node28" class="node"><title>Node28</title>
<polygon fill="white" stroke="#bfbfbf" points="389.956,-257.5 389.956,-276.5 508.956,-276.5 508.956,-257.5 389.956,-257.5"/>
<text text-anchor="middle" x="449.456" y="-264.5" font-family="Helvetica,sans-Serif" font-size="10.00">carl/interval/Interval.h</text>
</g>
<!-- Node1&#45;&gt;Node28 -->
<g id="edge35" class="edge"><title>Node1&#45;&gt;Node28</title>
<path fill="none" stroke="midnightblue" d="M449.456,-313.446C449.456,-304.73 449.456,-295.104 449.456,-286.964"/>
<polygon fill="midnightblue" stroke="midnightblue" points="452.957,-286.695 449.456,-276.695 445.957,-286.696 452.957,-286.695"/>
</g>
<!-- Node29 -->
<g id="node29" class="node"><title>Node29</title>
<polygon fill="white" stroke="#bfbfbf" points="526.956,-257.5 526.956,-276.5 567.956,-276.5 567.956,-257.5 526.956,-257.5"/>
<text text-anchor="middle" x="547.456" y="-264.5" font-family="Helvetica,sans-Serif" font-size="10.00">tuple</text>
</g>
<!-- Node1&#45;&gt;Node29 -->
<g id="edge36" class="edge"><title>Node1&#45;&gt;Node29</title>
<path fill="none" stroke="midnightblue" d="M484.284,-313.446C498.627,-303.127 514.744,-291.533 527.108,-282.638"/>
<polygon fill="midnightblue" stroke="midnightblue" points="529.295,-285.376 535.369,-276.695 525.207,-279.694 529.295,-285.376"/>
</g>
<!-- Node3 -->
<g id="node3" class="node"><title>Node3</title>
<polygon fill="white" stroke="#bfbfbf" points="44.4564,-123.5 44.4564,-142.5 178.456,-142.5 178.456,-123.5 44.4564,-123.5"/>
<text text-anchor="middle" x="111.456" y="-130.5" font-family="Helvetica,sans-Serif" font-size="10.00">carl/numbers/numbers.h</text>
</g>
<!-- Node2&#45;&gt;Node3 -->
<g id="edge2" class="edge"><title>Node2&#45;&gt;Node3</title>
<path fill="none" stroke="midnightblue" d="M321.694,-257.339C283.461,-234.909 180.986,-174.79 134.707,-147.64"/>
<polygon fill="midnightblue" stroke="midnightblue" points="136.378,-144.563 125.981,-142.521 132.835,-150.6 136.378,-144.563"/>
</g>
<!-- Node4 -->
<g id="node4" class="node"><title>Node4</title>
<polygon fill="white" stroke="#bfbfbf" points="508.456,-196 508.456,-215 594.456,-215 594.456,-196 508.456,-196"/>
<text text-anchor="middle" x="551.456" y="-203" font-family="Helvetica,sans-Serif" font-size="10.00">carl/util/hash.h</text>
</g>
<!-- Node2&#45;&gt;Node4 -->
<g id="edge3" class="edge"><title>Node2&#45;&gt;Node4</title>
<path fill="none" stroke="midnightblue" d="M367.408,-257.481C400.2,-248.448 453.488,-233.754 499.456,-221 503.259,-219.945 507.218,-218.844 511.179,-217.742"/>
<polygon fill="midnightblue" stroke="midnightblue" points="512.245,-221.079 520.939,-215.024 510.367,-214.335 512.245,-221.079"/>
</g>
<!-- Node5 -->
<g id="node5" class="node"><title>Node5</title>
<polygon fill="white" stroke="#bfbfbf" points="612.456,-196 612.456,-215 716.456,-215 716.456,-196 612.456,-196"/>
<text text-anchor="middle" x="664.456" y="-203" font-family="Helvetica,sans-Serif" font-size="10.00">eigen3/Eigen/Core</text>
</g>
<!-- Node2&#45;&gt;Node5 -->
<g id="edge4" class="edge"><title>Node2&#45;&gt;Node5</title>
<path fill="none" stroke="midnightblue" d="M371.806,-258.803C375.066,-258.178 378.321,-257.568 381.456,-257 479.814,-239.196 505.436,-240.571 603.456,-221 608.927,-219.908 614.652,-218.672 620.311,-217.393"/>
<polygon fill="midnightblue" stroke="midnightblue" points="621.401,-220.733 630.354,-215.068 619.822,-213.914 621.401,-220.733"/>
</g>
<!-- Node6 -->
<g id="node6" class="node"><title>Node6</title>
<polygon fill="white" stroke="#bfbfbf" points="196.456,-123.5 196.456,-142.5 308.456,-142.5 308.456,-123.5 196.456,-123.5"/>
<text text-anchor="middle" x="252.456" y="-130.5" font-family="Helvetica,sans-Serif" font-size="10.00">eigen3/Eigen/Dense</text>
</g>
<!-- Node2&#45;&gt;Node6 -->
<g id="edge5" class="edge"><title>Node2&#45;&gt;Node6</title>
<path fill="none" stroke="midnightblue" d="M330.945,-257.339C317.238,-235.799 281.411,-179.5 263.289,-151.022"/>
<polygon fill="midnightblue" stroke="midnightblue" points="266.201,-149.079 257.879,-142.521 260.295,-152.837 266.201,-149.079"/>
</g>
<!-- Node7 -->
<g id="node7" class="node"><title>Node7</title>
<polygon fill="white" stroke="#bfbfbf" points="641.456,-0.5 641.456,-19.5 687.456,-19.5 687.456,-0.5 641.456,-0.5"/>
<text text-anchor="middle" x="664.456" y="-7.5" font-family="Helvetica,sans-Serif" font-size="10.00">iosfwd</text>
</g>
<!-- Node2&#45;&gt;Node7 -->
<g id="edge6" class="edge"><title>Node2&#45;&gt;Node7</title>
<path fill="none" stroke="midnightblue" d="M301.402,-264.632C233.249,-261.329 86.0809,-250.854 46.4564,-221 6.23033,-190.692 -16.8041,-150.678 15.4564,-112 95.041,-16.5851 509.426,-10.427 630.936,-10.706"/>
<polygon fill="midnightblue" stroke="midnightblue" points="631.106,-14.2066 641.12,-10.7466 631.134,-7.20665 631.106,-14.2066"/>
</g>
<!-- Node8 -->
<g id="node8" class="node"><title>Node8</title>
<polygon fill="white" stroke="#bfbfbf" points="705.456,-0.5 705.456,-19.5 737.456,-19.5 737.456,-0.5 705.456,-0.5"/>
<text text-anchor="middle" x="721.456" y="-7.5" font-family="Helvetica,sans-Serif" font-size="10.00">set</text>
</g>
<!-- Node2&#45;&gt;Node8 -->
<g id="edge7" class="edge"><title>Node2&#45;&gt;Node8</title>
<path fill="none" stroke="midnightblue" d="M334.557,-257.376C329.448,-231.707 318.19,-154.92 355.456,-112 456.263,4.09795 543.076,-64.1313 695.71,-19.932"/>
<polygon fill="midnightblue" stroke="midnightblue" points="696.826,-23.251 705.384,-17.0052 694.799,-16.5509 696.826,-23.251"/>
</g>
<!-- Node9 -->
<g id="node9" class="node"><title>Node9</title>
<g id="a_node9"><a xlink:href="adaptions__eigen_8h.html" target="_top" xlink:title="util/adaptions_eigen\l/adaptions_eigen.h">
<polygon fill="white" stroke="black" points="376.956,-190.5 376.956,-220.5 489.956,-220.5 489.956,-190.5 376.956,-190.5"/>
<text text-anchor="start" x="384.956" y="-208.5" font-family="Helvetica,sans-Serif" font-size="10.00">util/adaptions_eigen</text>
<text text-anchor="middle" x="433.456" y="-197.5" font-family="Helvetica,sans-Serif" font-size="10.00">/adaptions_eigen.h</text>
</a>
</g>
</g>
<!-- Node2&#45;&gt;Node9 -->
<g id="edge8" class="edge"><title>Node2&#45;&gt;Node9</title>
<path fill="none" stroke="midnightblue" d="M345.454,-257.475C357.152,-249.191 377.645,-236.325 395.984,-225.591"/>
<polygon fill="midnightblue" stroke="midnightblue" points="397.854,-228.553 404.766,-220.523 394.355,-222.49 397.854,-228.553"/>
</g>
<!-- Node9&#45;&gt;Node2 -->
<g id="edge26" class="edge"><title>Node9&#45;&gt;Node2</title>
<path fill="none" stroke="midnightblue" d="M416.425,-220.523C401.902,-230.199 381.024,-242.991 364.151,-252.542"/>
<polygon fill="midnightblue" stroke="midnightblue" points="362.303,-249.565 355.255,-257.475 365.698,-255.687 362.303,-249.565"/>
</g>
<!-- Node9&#45;&gt;Node3 -->
<g id="edge28" class="edge"><title>Node9&#45;&gt;Node3</title>
<path fill="none" stroke="midnightblue" d="M376.593,-193.745C326.609,-184.073 251.983,-169.102 187.456,-154 175.949,-151.307 163.527,-148.146 152.127,-145.143"/>
<polygon fill="midnightblue" stroke="midnightblue" points="152.985,-141.749 142.421,-142.56 151.185,-148.514 152.985,-141.749"/>
</g>
<!-- Node9&#45;&gt;Node6 -->
<g id="edge29" class="edge"><title>Node9&#45;&gt;Node6</title>
<path fill="none" stroke="midnightblue" d="M397.263,-190.403C364.123,-177.495 315.566,-158.581 283.982,-146.279"/>
<polygon fill="midnightblue" stroke="midnightblue" points="284.954,-142.902 274.365,-142.534 282.413,-149.424 284.954,-142.902"/>
</g>
<!-- Node9&#45;&gt;Node7 -->
<g id="edge32" class="edge"><title>Node9&#45;&gt;Node7</title>
<path fill="none" stroke="midnightblue" d="M490.267,-191.636C493.37,-191.053 496.448,-190.503 499.456,-190 568.295,-178.497 765.02,-206.103 811.456,-154 823.876,-140.065 820.401,-128.384 811.456,-112 797.278,-86.0301 779.947,-92.6038 755.456,-76 730.598,-59.1468 702.556,-38.9281 684.253,-25.5645"/>
<polygon fill="midnightblue" stroke="midnightblue" points="686.243,-22.6837 676.107,-19.5996 682.108,-28.3315 686.243,-22.6837"/>
</g>
<!-- Node10 -->
<g id="node10" class="node"><title>Node10</title>
<g id="a_node10"><a xlink:href="config_8h.html" target="_top" xlink:title="../../config.h">
<polygon fill="white" stroke="black" points="858.456,-123.5 858.456,-142.5 930.456,-142.5 930.456,-123.5 858.456,-123.5"/>
<text text-anchor="middle" x="894.456" y="-130.5" font-family="Helvetica,sans-Serif" font-size="10.00">../../config.h</text>
</a>
</g>
</g>
<!-- Node9&#45;&gt;Node10 -->
<g id="edge9" class="edge"><title>Node9&#45;&gt;Node10</title>
<path fill="none" stroke="midnightblue" d="M490.261,-191.596C493.365,-191.023 496.445,-190.486 499.456,-190 651.65,-165.421 694.792,-190.981 844.456,-154 851.944,-152.15 859.799,-149.415 867.006,-146.558"/>
<polygon fill="midnightblue" stroke="midnightblue" points="868.461,-149.743 876.337,-142.658 865.761,-143.285 868.461,-149.743"/>
</g>
<!-- Node23 -->
<g id="node23" class="node"><title>Node23</title>
<g id="a_node23"><a xlink:href="transformation_8h.html" target="_top" xlink:title="transformation.h">
<polygon fill="white" stroke="black" points="948.956,-123.5 948.956,-142.5 1045.96,-142.5 1045.96,-123.5 948.956,-123.5"/>
<text text-anchor="middle" x="997.456" y="-130.5" font-family="Helvetica,sans-Serif" font-size="10.00">transformation.h</text>
</a>
</g>
</g>
<!-- Node9&#45;&gt;Node23 -->
<g id="edge27" class="edge"><title>Node9&#45;&gt;Node23</title>
<path fill="none" stroke="midnightblue" d="M490.248,-191.514C493.355,-190.963 496.44,-190.453 499.456,-190 693.493,-160.883 747.43,-194.297 939.456,-154 948.697,-152.061 958.492,-149.067 967.349,-145.981"/>
<polygon fill="midnightblue" stroke="midnightblue" points="968.676,-149.223 976.872,-142.509 966.278,-142.646 968.676,-149.223"/>
</g>
<!-- Node24 -->
<g id="node24" class="node"><title>Node24</title>
<polygon fill="white" stroke="#bfbfbf" points="364.456,-123.5 364.456,-142.5 502.456,-142.5 502.456,-123.5 364.456,-123.5"/>
<text text-anchor="middle" x="433.456" y="-130.5" font-family="Helvetica,sans-Serif" font-size="10.00">eigen3/Eigen/Eigenvalues</text>
</g>
<!-- Node9&#45;&gt;Node24 -->
<g id="edge30" class="edge"><title>Node9&#45;&gt;Node24</title>
<path fill="none" stroke="midnightblue" d="M433.456,-190.233C433.456,-179.501 433.456,-164.687 433.456,-152.959"/>
<polygon fill="midnightblue" stroke="midnightblue" points="436.957,-152.893 433.456,-142.893 429.957,-152.893 436.957,-152.893"/>
</g>
<!-- Node25 -->
<g id="node25" class="node"><title>Node25</title>
<polygon fill="white" stroke="#bfbfbf" points="520.956,-123.5 520.956,-142.5 583.956,-142.5 583.956,-123.5 520.956,-123.5"/>
<text text-anchor="middle" x="552.456" y="-130.5" font-family="Helvetica,sans-Serif" font-size="10.00">functional</text>
</g>
<!-- Node9&#45;&gt;Node25 -->
<g id="edge31" class="edge"><title>Node9&#45;&gt;Node25</title>
<path fill="none" stroke="midnightblue" d="M457.252,-190.403C478.191,-177.997 508.492,-160.046 529.253,-147.747"/>
<polygon fill="midnightblue" stroke="midnightblue" points="531.233,-150.642 538.052,-142.534 527.665,-144.619 531.233,-150.642"/>
</g>
<!-- Node26 -->
<g id="node26" class="node"><title>Node26</title>
<polygon fill="white" stroke="#bfbfbf" points="602.456,-123.5 602.456,-142.5 644.456,-142.5 644.456,-123.5 602.456,-123.5"/>
<text text-anchor="middle" x="623.456" y="-130.5" font-family="Helvetica,sans-Serif" font-size="10.00">limits</text>
</g>
<!-- Node9&#45;&gt;Node26 -->
<g id="edge33" class="edge"><title>Node9&#45;&gt;Node26</title>
<path fill="none" stroke="midnightblue" d="M490.1,-190.826C521.393,-182.243 560.49,-169.797 593.456,-154 596.935,-152.333 600.477,-150.31 603.851,-148.198"/>
<polygon fill="midnightblue" stroke="midnightblue" points="605.868,-151.06 612.228,-142.587 601.972,-145.244 605.868,-151.06"/>
</g>
<!-- Node27 -->
<g id="node27" class="node"><title>Node27</title>
<polygon fill="white" stroke="#bfbfbf" points="662.456,-112.5 662.456,-153.5 802.456,-153.5 802.456,-112.5 662.456,-112.5"/>
<text text-anchor="start" x="670.456" y="-141.5" font-family="Helvetica,sans-Serif" font-size="10.00">eigen3/unsupported</text>
<text text-anchor="start" x="670.456" y="-130.5" font-family="Helvetica,sans-Serif" font-size="10.00">/Eigen/src/MatrixFunctions</text>
<text text-anchor="middle" x="732.456" y="-119.5" font-family="Helvetica,sans-Serif" font-size="10.00">/MatrixExponential.h</text>
</g>
<!-- Node9&#45;&gt;Node27 -->
<g id="edge34" class="edge"><title>Node9&#45;&gt;Node27</title>
<path fill="none" stroke="midnightblue" d="M490.058,-191.872C532.281,-182.369 591.63,-168.835 652.488,-154.212"/>
<polygon fill="midnightblue" stroke="midnightblue" points="653.363,-157.601 662.265,-151.856 651.724,-150.796 653.363,-157.601"/>
</g>
<!-- Node11 -->
<g id="node11" class="node"><title>Node11</title>
<g id="a_node11"><a xlink:href="flags_8h.html" target="_top" xlink:title="flags.h">
<polygon fill="white" stroke="black" points="937.456,-0.5 937.456,-19.5 985.456,-19.5 985.456,-0.5 937.456,-0.5"/>
<text text-anchor="middle" x="961.456" y="-7.5" font-family="Helvetica,sans-Serif" font-size="10.00">flags.h</text>
</a>
</g>
</g>
<!-- Node10&#45;&gt;Node11 -->
<g id="edge10" class="edge"><title>Node10&#45;&gt;Node11</title>
<path fill="none" stroke="midnightblue" d="M899.275,-123.298C910.237,-103.502 937.214,-54.782 951.77,-28.4932"/>
<polygon fill="midnightblue" stroke="midnightblue" points="954.899,-30.067 956.682,-19.6232 948.775,-26.6761 954.899,-30.067"/>
</g>
<!-- Node12 -->
<g id="node12" class="node"><title>Node12</title>
<g id="a_node12"><a xlink:href="util_2convenienceOperators_8h.html" target="_top" xlink:title="util/convenienceOperators.h">
<polygon fill="white" stroke="black" points="763.956,-56.5 763.956,-75.5 914.956,-75.5 914.956,-56.5 763.956,-56.5"/>
<text text-anchor="middle" x="839.456" y="-63.5" font-family="Helvetica,sans-Serif" font-size="10.00">util/convenienceOperators.h</text>
</a>
</g>
</g>
<!-- Node10&#45;&gt;Node12 -->
<g id="edge11" class="edge"><title>Node10&#45;&gt;Node12</title>
<path fill="none" stroke="midnightblue" d="M887.039,-123.234C878.462,-113.098 864.156,-96.1899 853.465,-83.5556"/>
<polygon fill="midnightblue" stroke="midnightblue" points="855.888,-81.0004 846.756,-75.6273 850.544,-85.522 855.888,-81.0004"/>
</g>
<!-- Node16 -->
<g id="node16" class="node"><title>Node16</title>
<g id="a_node16"><a xlink:href="Logger_8h.html" target="_top" xlink:title="util/logging/Logger.h">
<polygon fill="white" stroke="black" points="1186.96,-56.5 1186.96,-75.5 1299.96,-75.5 1299.96,-56.5 1186.96,-56.5"/>
<text text-anchor="middle" x="1243.46" y="-63.5" font-family="Helvetica,sans-Serif" font-size="10.00">util/logging/Logger.h</text>
</a>
</g>
</g>
<!-- Node10&#45;&gt;Node16 -->
<g id="edge18" class="edge"><title>Node10&#45;&gt;Node16</title>
<path fill="none" stroke="midnightblue" d="M911.104,-123.498C919.675,-119.45 930.41,-114.876 940.456,-112 1020.01,-89.2302 1114.78,-77.5157 1176.89,-71.8292"/>
<polygon fill="midnightblue" stroke="midnightblue" points="1177.3,-75.3066 1186.95,-70.9346 1176.68,-68.3341 1177.3,-75.3066"/>
</g>
<!-- Node12&#45;&gt;Node2 -->
<g id="edge12" class="edge"><title>Node12&#45;&gt;Node2</title>
<path fill="none" stroke="midnightblue" d="M763.683,-68.4558C568.183,-72.5801 60.2501,-85.7798 35.4564,-112 -46.0351,-198.18 188.637,-244.257 291.146,-259.848"/>
<polygon fill="midnightblue" stroke="midnightblue" points="290.815,-263.338 301.221,-261.347 291.845,-256.414 290.815,-263.338"/>
</g>
<!-- Node12&#45;&gt;Node7 -->
<g id="edge13" class="edge"><title>Node12&#45;&gt;Node7</title>
<path fill="none" stroke="midnightblue" d="M811.727,-56.4435C780.633,-46.8489 730.25,-31.3021 697.234,-21.1141"/>
<polygon fill="midnightblue" stroke="midnightblue" points="698.172,-17.741 687.585,-18.1368 696.108,-24.4298 698.172,-17.741"/>
</g>
<!-- Node12&#45;&gt;Node8 -->
<g id="edge15" class="edge"><title>Node12&#45;&gt;Node8</title>
<path fill="none" stroke="midnightblue" d="M820.759,-56.4435C800.833,-47.3247 769.158,-32.8295 746.953,-22.668"/>
<polygon fill="midnightblue" stroke="midnightblue" points="748.336,-19.4517 737.786,-18.473 745.423,-25.8169 748.336,-19.4517"/>
</g>
<!-- Node13 -->
<g id="node13" class="node"><title>Node13</title>
<polygon fill="white" stroke="#bfbfbf" points="755.456,-0.5 755.456,-19.5 793.456,-19.5 793.456,-0.5 755.456,-0.5"/>
<text text-anchor="middle" x="774.456" y="-7.5" font-family="Helvetica,sans-Serif" font-size="10.00">map</text>
</g>
<!-- Node12&#45;&gt;Node13 -->
<g id="edge14" class="edge"><title>Node12&#45;&gt;Node13</title>
<path fill="none" stroke="midnightblue" d="M829.013,-56.324C819.31,-48.2631 804.641,-36.0765 792.957,-26.3695"/>
<polygon fill="midnightblue" stroke="midnightblue" points="795.018,-23.532 785.09,-19.8339 790.545,-28.9163 795.018,-23.532"/>
</g>
<!-- Node14 -->
<g id="node14" class="node"><title>Node14</title>
<polygon fill="white" stroke="#bfbfbf" points="811.456,-0.5 811.456,-19.5 853.456,-19.5 853.456,-0.5 811.456,-0.5"/>
<text text-anchor="middle" x="832.456" y="-7.5" font-family="Helvetica,sans-Serif" font-size="10.00">utility</text>
</g>
<!-- Node12&#45;&gt;Node14 -->
<g id="edge16" class="edge"><title>Node12&#45;&gt;Node14</title>
<path fill="none" stroke="midnightblue" d="M838.301,-56.083C837.373,-48.9272 836.039,-38.6353 834.879,-29.6911"/>
<polygon fill="midnightblue" stroke="midnightblue" points="838.347,-29.2181 833.591,-19.7511 831.406,-30.1181 838.347,-29.2181"/>
</g>
<!-- Node15 -->
<g id="node15" class="node"><title>Node15</title>
<polygon fill="white" stroke="#bfbfbf" points="871.956,-0.5 871.956,-19.5 918.956,-19.5 918.956,-0.5 871.956,-0.5"/>
<text text-anchor="middle" x="895.456" y="-7.5" font-family="Helvetica,sans-Serif" font-size="10.00">vector</text>
</g>
<!-- Node12&#45;&gt;Node15 -->
<g id="edge17" class="edge"><title>Node12&#45;&gt;Node15</title>
<path fill="none" stroke="midnightblue" d="M848.454,-56.324C856.651,-48.4196 868.962,-36.5482 878.928,-26.9377"/>
<polygon fill="midnightblue" stroke="midnightblue" points="881.526,-29.2947 886.295,-19.8339 876.667,-24.2558 881.526,-29.2947"/>
</g>
<!-- Node16&#45;&gt;Node11 -->
<g id="edge19" class="edge"><title>Node16&#45;&gt;Node11</title>
<path fill="none" stroke="midnightblue" d="M1188.29,-56.4513C1139.92,-48.6355 1067.52,-36.1622 995.677,-20.1186"/>
<polygon fill="midnightblue" stroke="midnightblue" points="996.071,-16.6197 985.546,-17.8312 994.53,-23.4478 996.071,-16.6197"/>
</g>
<!-- Node17 -->
<g id="node17" class="node"><title>Node17</title>
<polygon fill="white" stroke="#bfbfbf" points="1003.46,-0.5 1003.46,-19.5 1157.46,-19.5 1157.46,-0.5 1003.46,-0.5"/>
<text text-anchor="middle" x="1080.46" y="-7.5" font-family="Helvetica,sans-Serif" font-size="10.00">carl/io/streamingOperators.h</text>
</g>
<!-- Node16&#45;&gt;Node17 -->
<g id="edge20" class="edge"><title>Node16&#45;&gt;Node17</title>
<path fill="none" stroke="midnightblue" d="M1217.63,-56.4435C1190.21,-47.3591 1146.68,-32.9388 1116.02,-22.7831"/>
<polygon fill="midnightblue" stroke="midnightblue" points="1116.76,-19.3389 1106.16,-19.5164 1114.56,-25.9837 1116.76,-19.3389"/>
</g>
<!-- Node18 -->
<g id="node18" class="node"><title>Node18</title>
<polygon fill="white" stroke="#bfbfbf" points="1175.96,-0.5 1175.96,-19.5 1234.96,-19.5 1234.96,-0.5 1175.96,-0.5"/>
<text text-anchor="middle" x="1205.46" y="-7.5" font-family="Helvetica,sans-Serif" font-size="10.00">iostream</text>
</g>
<!-- Node16&#45;&gt;Node18 -->
<g id="edge21" class="edge"><title>Node16&#45;&gt;Node18</title>
<path fill="none" stroke="midnightblue" d="M1237.18,-56.083C1231.81,-48.4554 1223.94,-37.2645 1217.38,-27.9408"/>
<polygon fill="midnightblue" stroke="midnightblue" points="1220.23,-25.9149 1211.61,-19.7511 1214.51,-29.9434 1220.23,-25.9149"/>
</g>
<!-- Node19 -->
<g id="node19" class="node"><title>Node19</title>
<polygon fill="white" stroke="#bfbfbf" points="1253.46,-0.5 1253.46,-19.5 1309.46,-19.5 1309.46,-0.5 1253.46,-0.5"/>
<text text-anchor="middle" x="1281.46" y="-7.5" font-family="Helvetica,sans-Serif" font-size="10.00">sstream</text>
</g>
<!-- Node16&#45;&gt;Node19 -->
<g id="edge22" class="edge"><title>Node16&#45;&gt;Node19</title>
<path fill="none" stroke="midnightblue" d="M1249.73,-56.083C1255.1,-48.4554 1262.97,-37.2645 1269.54,-27.9408"/>
<polygon fill="midnightblue" stroke="midnightblue" points="1272.41,-29.9434 1275.3,-19.7511 1266.68,-25.9149 1272.41,-29.9434"/>
</g>
<!-- Node20 -->
<g id="node20" class="node"><title>Node20</title>
<polygon fill="white" stroke="#bfbfbf" points="1327.46,-0.5 1327.46,-19.5 1375.46,-19.5 1375.46,-0.5 1327.46,-0.5"/>
<text text-anchor="middle" x="1351.46" y="-7.5" font-family="Helvetica,sans-Serif" font-size="10.00">thread</text>
</g>
<!-- Node16&#45;&gt;Node20 -->
<g id="edge23" class="edge"><title>Node16&#45;&gt;Node20</title>
<path fill="none" stroke="midnightblue" d="M1260.81,-56.324C1278.13,-47.6641 1304.97,-34.2424 1324.96,-24.249"/>
<polygon fill="midnightblue" stroke="midnightblue" points="1326.77,-27.2572 1334.15,-19.6545 1323.64,-20.9962 1326.77,-27.2572"/>
</g>
<!-- Node21 -->
<g id="node21" class="node"><title>Node21</title>
<polygon fill="white" stroke="#bfbfbf" points="1393.96,-0.5 1393.96,-19.5 1518.96,-19.5 1518.96,-0.5 1393.96,-0.5"/>
<text text-anchor="middle" x="1456.46" y="-7.5" font-family="Helvetica,sans-Serif" font-size="10.00">carl/core/carlLogging.h</text>
</g>
<!-- Node16&#45;&gt;Node21 -->
<g id="edge24" class="edge"><title>Node16&#45;&gt;Node21</title>
<path fill="none" stroke="midnightblue" d="M1277.21,-56.4435C1313.97,-47.1221 1372.9,-32.1828 1413.08,-21.9972"/>
<polygon fill="midnightblue" stroke="midnightblue" points="1414.03,-25.3666 1422.86,-19.5164 1412.31,-18.5813 1414.03,-25.3666"/>
</g>
<!-- Node22 -->
<g id="node22" class="node"><title>Node22</title>
<polygon fill="white" stroke="#bfbfbf" points="1536.96,-0.5 1536.96,-19.5 1691.96,-19.5 1691.96,-0.5 1536.96,-0.5"/>
<text text-anchor="middle" x="1614.46" y="-7.5" font-family="Helvetica,sans-Serif" font-size="10.00">carl/core/carlLoggingHelper.h</text>
</g>
<!-- Node16&#45;&gt;Node22 -->
<g id="edge25" class="edge"><title>Node16&#45;&gt;Node22</title>
<path fill="none" stroke="midnightblue" d="M1300.21,-56.7398C1366.18,-47.1372 1475.03,-31.2944 1545.73,-21.0034"/>
<polygon fill="midnightblue" stroke="midnightblue" points="1546.48,-24.4307 1555.87,-19.5268 1545.47,-17.5037 1546.48,-24.4307"/>
</g>
</g>
</svg>
