<?xml version="1.0" encoding="UTF-8" standalone="no"?>
<!DOCTYPE svg PUBLIC "-//W3C//DTD SVG 1.1//EN"
 "http://www.w3.org/Graphics/SVG/1.1/DTD/svg11.dtd">
<!-- Generated by graphviz version 2.38.0 (20140413.2041)
 -->
<!-- Title: /home/travis/build/hypro/hypro/src/hypro/datastructures/HybridAutomaton/Label.h Pages: 1 -->
<svg width="186pt" height="117pt"
 viewBox="0.00 0.00 186.00 117.00" xmlns="http://www.w3.org/2000/svg" xmlns:xlink="http://www.w3.org/1999/xlink">
<g id="graph0" class="graph" transform="scale(1 1) rotate(0) translate(4 113)">
<title>/home/travis/build/hypro/hypro/src/hypro/datastructures/HybridAutomaton/Label.h</title>
<polygon fill="white" stroke="none" points="-4,4 -4,-113 182,-113 182,4 -4,4"/>
<!-- Node1 -->
<g id="node1" class="node"><title>Node1</title>
<polygon fill="#bfbfbf" stroke="black" points="-1.42109e-14,-56.5 -1.42109e-14,-108.5 178,-108.5 178,-56.5 -1.42109e-14,-56.5"/>
<text text-anchor="start" x="8" y="-96.5" font-family="Helvetica,sans-Serif" font-size="10.00">/home/travis/build</text>
<text text-anchor="start" x="8" y="-85.5" font-family="Helvetica,sans-Serif" font-size="10.00">/hypro/hypro/src/hypro</text>
<text text-anchor="start" x="8" y="-74.5" font-family="Helvetica,sans-Serif" font-size="10.00">/datastructures/HybridAutomaton</text>
<text text-anchor="middle" x="89" y="-63.5" font-family="Helvetica,sans-Serif" font-size="10.00">/Label.h</text>
</g>
<!-- Node2 -->
<g id="node2" class="node"><title>Node2</title>
<polygon fill="white" stroke="#bfbfbf" points="35,-0.5 35,-19.5 81,-19.5 81,-0.5 35,-0.5"/>
<text text-anchor="middle" x="58" y="-7.5" font-family="Helvetica,sans-Serif" font-size="10.00">iosfwd</text>
</g>
<!-- Node1&#45;&gt;Node2 -->
<g id="edge1" class="edge"><title>Node1&#45;&gt;Node2</title>
<path fill="none" stroke="midnightblue" d="M77.9833,-56.4458C73.9746,-47.3294 69.5282,-37.2174 65.8493,-28.8509"/>
<polygon fill="midnightblue" stroke="midnightblue" points="69.0528,-27.4408 61.8235,-19.6955 62.6449,-30.2584 69.0528,-27.4408"/>
</g>
<!-- Node3 -->
<g id="node3" class="node"><title>Node3</title>
<polygon fill="white" stroke="#bfbfbf" points="99,-0.5 99,-19.5 143,-19.5 143,-0.5 99,-0.5"/>
<text text-anchor="middle" x="121" y="-7.5" font-family="Helvetica,sans-Serif" font-size="10.00">string</text>
</g>
<!-- Node1&#45;&gt;Node3 -->
<g id="edge2" class="edge"><title>Node1&#45;&gt;Node3</title>
<path fill="none" stroke="midnightblue" d="M100.372,-56.4458C104.51,-47.3294 109.1,-37.2174 112.897,-28.8509"/>
<polygon fill="midnightblue" stroke="midnightblue" points="116.107,-30.248 117.053,-19.6955 109.733,-27.3547 116.107,-30.248"/>
</g>
</g>
</svg>
