<?xml version="1.0" encoding="UTF-8" standalone="no"?>
<!DOCTYPE svg PUBLIC "-//W3C//DTD SVG 1.1//EN"
 "http://www.w3.org/Graphics/SVG/1.1/DTD/svg11.dtd">
<!-- Generated by graphviz version 2.38.0 (20140413.2041)
 -->
<!-- Title: /home/travis/build/hypro/hypro/src/hypro/datastructures/HybridAutomaton/flow/linear.h Pages: 1 -->
<!--zoomable 374 -->
<svg id="main" version="1.1" xmlns="http://www.w3.org/2000/svg" xmlns:xlink="http://www.w3.org/1999/xlink" xml:space="preserve" onload="init(evt)">
<style type="text/css"><![CDATA[
.edge:hover path { stroke: red; }
.edge:hover polygon { stroke: red; fill: red; }
]]></style>
<script type="text/javascript"><![CDATA[
var edges = document.getElementsByTagName('g');
if (edges && edges.length) {
  for (var i=0;i<edges.length;i++) {
    if (edges[i].id.substr(0,4)=='edge') {
      edges[i].setAttribute('class','edge');
    }
  }
}
]]></script>
        <defs>
                <circle id="rim" cx="0" cy="0" r="7"/>
                <circle id="rim2" cx="0" cy="0" r="3.5"/>
                <g id="zoomPlus">
                        <use xlink:href="#rim" fill="#404040">
                                <set attributeName="fill" to="#808080" begin="zoomplus.mouseover" end="zoomplus.mouseout"/>
                        </use>
                        <path d="M-4,0h8M0,-4v8" fill="none" stroke="white" stroke-width="1.5" pointer-events="none"/>
                </g>
                <g id="zoomMin">
                        <use xlink:href="#rim" fill="#404040">
                                <set attributeName="fill" to="#808080" begin="zoomminus.mouseover" end="zoomminus.mouseout"/>
                        </use>
                        <path d="M-4,0h8" fill="none" stroke="white" stroke-width="1.5" pointer-events="none"/>
                </g>
                <g id="dirArrow">
                        <path fill="none" stroke="white" stroke-width="1.5" d="M0,-3.0v7 M-2.5,-0.5L0,-3.0L2.5,-0.5"/>
                </g>
               <g id="resetDef">
                       <use xlink:href="#rim2" fill="#404040">
                               <set attributeName="fill" to="#808080" begin="reset.mouseover" end="reset.mouseout"/>
                       </use>
               </g>
        </defs>

<script type="text/javascript">
var viewWidth = 1133;
var viewHeight = 374;
var sectionId = 'dynsection-0';
</script>
<script xlink:href="svgpan.js"/>
<svg id="graph" class="graph">
<g id="viewport">
<title>/home/travis/build/hypro/hypro/src/hypro/datastructures/HybridAutomaton/flow/linear.h</title>
<polygon fill="white" stroke="none" points="-4,4 -4,-370 1129,-370 1129,4 -4,4"/>
<!-- Node1 -->
<g id="node1" class="node"><title>Node1</title>
<polygon fill="#bfbfbf" stroke="black" points="58,-313.5 58,-365.5 236,-365.5 236,-313.5 58,-313.5"/>
<text text-anchor="start" x="66" y="-353.5" font-family="Helvetica,sans-Serif" font-size="10.00">/home/travis/build</text>
<text text-anchor="start" x="66" y="-342.5" font-family="Helvetica,sans-Serif" font-size="10.00">/hypro/hypro/src/hypro</text>
<text text-anchor="start" x="66" y="-331.5" font-family="Helvetica,sans-Serif" font-size="10.00">/datastructures/HybridAutomaton</text>
<text text-anchor="middle" x="147" y="-320.5" font-family="Helvetica,sans-Serif" font-size="10.00">/flow/linear.h</text>
</g>
<!-- Node2 -->
<g id="node2" class="node"><title>Node2</title>
<g id="a_node2"><a xlink:href="types_8h.html" target="_top" xlink:title="../../../types.h">
<polygon fill="white" stroke="black" points="255.5,-257.5 255.5,-276.5 334.5,-276.5 334.5,-257.5 255.5,-257.5"/>
<text text-anchor="middle" x="295" y="-264.5" font-family="Helvetica,sans-Serif" font-size="10.00">../../../types.h</text>
</a>
</g>
</g>
<!-- Node1&#45;&gt;Node2 -->
<g id="edge1" class="edge"><title>Node1&#45;&gt;Node2</title>
<path fill="none" stroke="midnightblue" d="M199.596,-313.446C222.661,-302.459 248.762,-290.026 267.825,-280.945"/>
<polygon fill="midnightblue" stroke="midnightblue" points="269.577,-283.987 277.099,-276.527 266.566,-277.668 269.577,-283.987"/>
</g>
<!-- Node7 -->
<g id="node7" class="node"><title>Node7</title>
<polygon fill="white" stroke="#bfbfbf" points="21,-0.5 21,-19.5 67,-19.5 67,-0.5 21,-0.5"/>
<text text-anchor="middle" x="44" y="-7.5" font-family="Helvetica,sans-Serif" font-size="10.00">iosfwd</text>
</g>
<!-- Node1&#45;&gt;Node7 -->
<g id="edge35" class="edge"><title>Node1&#45;&gt;Node7</title>
<path fill="none" stroke="midnightblue" d="M87.6332,-313.398C46.8353,-291.731 0,-256.063 0,-206.5 0,-206.5 0,-206.5 0,-132 0,-93.2521 20.1748,-51.499 33.2021,-28.5772"/>
<polygon fill="midnightblue" stroke="midnightblue" points="36.3663,-30.1015 38.4274,-19.7091 30.3353,-26.5479 36.3663,-30.1015"/>
</g>
<!-- Node3 -->
<g id="node3" class="node"><title>Node3</title>
<polygon fill="white" stroke="#bfbfbf" points="991,-123.5 991,-142.5 1125,-142.5 1125,-123.5 991,-123.5"/>
<text text-anchor="middle" x="1058" y="-130.5" font-family="Helvetica,sans-Serif" font-size="10.00">carl/numbers/numbers.h</text>
</g>
<!-- Node2&#45;&gt;Node3 -->
<g id="edge2" class="edge"><title>Node2&#45;&gt;Node3</title>
<path fill="none" stroke="midnightblue" d="M334.673,-261.713C399.262,-254.541 531.084,-239.1 642,-221 794.006,-196.194 831.898,-188.504 982,-154 993.621,-151.329 1006.17,-148.15 1017.65,-145.122"/>
<polygon fill="midnightblue" stroke="midnightblue" points="1018.66,-148.476 1027.42,-142.517 1016.85,-141.712 1018.66,-148.476"/>
</g>
<!-- Node4 -->
<g id="node4" class="node"><title>Node4</title>
<polygon fill="white" stroke="#bfbfbf" points="425,-196 425,-215 511,-215 511,-196 425,-196"/>
<text text-anchor="middle" x="468" y="-203" font-family="Helvetica,sans-Serif" font-size="10.00">carl/util/hash.h</text>
</g>
<!-- Node2&#45;&gt;Node4 -->
<g id="edge3" class="edge"><title>Node2&#45;&gt;Node4</title>
<path fill="none" stroke="midnightblue" d="M319.787,-257.475C349.591,-247.225 399.791,-229.959 433.402,-218.399"/>
<polygon fill="midnightblue" stroke="midnightblue" points="434.941,-221.571 443.259,-215.009 432.665,-214.952 434.941,-221.571"/>
</g>
<!-- Node5 -->
<g id="node5" class="node"><title>Node5</title>
<polygon fill="white" stroke="#bfbfbf" points="529,-196 529,-215 633,-215 633,-196 529,-196"/>
<text text-anchor="middle" x="581" y="-203" font-family="Helvetica,sans-Serif" font-size="10.00">eigen3/Eigen/Core</text>
</g>
<!-- Node2&#45;&gt;Node5 -->
<g id="edge4" class="edge"><title>Node2&#45;&gt;Node5</title>
<path fill="none" stroke="midnightblue" d="M334.515,-258.543C379.518,-249.947 455.205,-235.176 520,-221 525.119,-219.88 530.47,-218.669 535.785,-217.44"/>
<polygon fill="midnightblue" stroke="midnightblue" points="536.951,-220.761 545.89,-215.074 535.355,-213.946 536.951,-220.761"/>
</g>
<!-- Node6 -->
<g id="node6" class="node"><title>Node6</title>
<polygon fill="white" stroke="#bfbfbf" points="161,-123.5 161,-142.5 273,-142.5 273,-123.5 161,-123.5"/>
<text text-anchor="middle" x="217" y="-130.5" font-family="Helvetica,sans-Serif" font-size="10.00">eigen3/Eigen/Dense</text>
</g>
<!-- Node2&#45;&gt;Node6 -->
<g id="edge5" class="edge"><title>Node2&#45;&gt;Node6</title>
<path fill="none" stroke="midnightblue" d="M289.882,-257.339C277.209,-235.893 244.176,-179.989 227.279,-151.395"/>
<polygon fill="midnightblue" stroke="midnightblue" points="230.136,-149.35 222.035,-142.521 224.109,-152.911 230.136,-149.35"/>
</g>
<!-- Node2&#45;&gt;Node7 -->
<g id="edge6" class="edge"><title>Node2&#45;&gt;Node7</title>
<path fill="none" stroke="midnightblue" d="M255.383,-262.769C222.699,-258.227 176.845,-247.297 146,-221 84.5393,-168.602 56.9588,-70.5408 47.7527,-29.6501"/>
<polygon fill="midnightblue" stroke="midnightblue" points="51.143,-28.7662 45.6305,-19.7183 44.2975,-30.229 51.143,-28.7662"/>
</g>
<!-- Node8 -->
<g id="node8" class="node"><title>Node8</title>
<polygon fill="white" stroke="#bfbfbf" points="91,-0.5 91,-19.5 123,-19.5 123,-0.5 91,-0.5"/>
<text text-anchor="middle" x="107" y="-7.5" font-family="Helvetica,sans-Serif" font-size="10.00">set</text>
</g>
<!-- Node2&#45;&gt;Node8 -->
<g id="edge7" class="edge"><title>Node2&#45;&gt;Node8</title>
<path fill="none" stroke="midnightblue" d="M255.402,-258.997C229.894,-252.744 197.428,-241.313 175,-221 118.401,-169.738 108.713,-71.0446 107.199,-29.8176"/>
<polygon fill="midnightblue" stroke="midnightblue" points="110.698,-29.7129 106.957,-19.8005 103.7,-29.8823 110.698,-29.7129"/>
</g>
<!-- Node9 -->
<g id="node9" class="node"><title>Node9</title>
<g id="a_node9"><a xlink:href="adaptions__eigen_8h.html" target="_top" xlink:title="util/adaptions_eigen\l/adaptions_eigen.h">
<polygon fill="white" stroke="black" points="293.5,-190.5 293.5,-220.5 406.5,-220.5 406.5,-190.5 293.5,-190.5"/>
<text text-anchor="start" x="301.5" y="-208.5" font-family="Helvetica,sans-Serif" font-size="10.00">util/adaptions_eigen</text>
<text text-anchor="middle" x="350" y="-197.5" font-family="Helvetica,sans-Serif" font-size="10.00">/adaptions_eigen.h</text>
</a>
</g>
</g>
<!-- Node2&#45;&gt;Node9 -->
<g id="edge8" class="edge"><title>Node2&#45;&gt;Node9</title>
<path fill="none" stroke="midnightblue" d="M297.98,-257.475C303.458,-249.718 313.811,-237.943 323.942,-227.665"/>
<polygon fill="midnightblue" stroke="midnightblue" points="326.53,-230.029 331.208,-220.523 321.623,-225.037 326.53,-230.029"/>
</g>
<!-- Node9&#45;&gt;Node2 -->
<g id="edge26" class="edge"><title>Node9&#45;&gt;Node2</title>
<path fill="none" stroke="midnightblue" d="M342.867,-220.523C335.673,-229.572 324.844,-241.346 315.185,-250.646"/>
<polygon fill="midnightblue" stroke="midnightblue" points="312.758,-248.122 307.781,-257.475 317.504,-253.268 312.758,-248.122"/>
</g>
<!-- Node9&#45;&gt;Node3 -->
<g id="edge28" class="edge"><title>Node9&#45;&gt;Node3</title>
<path fill="none" stroke="midnightblue" d="M406.782,-191.448C409.892,-190.914 412.98,-190.425 416,-190 665.602,-154.854 733.173,-194.263 982,-154 994.837,-151.923 1008.65,-148.62 1020.93,-145.292"/>
<polygon fill="midnightblue" stroke="midnightblue" points="1022.15,-148.586 1030.84,-142.517 1020.26,-141.845 1022.15,-148.586"/>
</g>
<!-- Node9&#45;&gt;Node6 -->
<g id="edge29" class="edge"><title>Node9&#45;&gt;Node6</title>
<path fill="none" stroke="midnightblue" d="M323.405,-190.403C299.686,-177.83 265.219,-159.56 241.999,-147.251"/>
<polygon fill="midnightblue" stroke="midnightblue" points="243.573,-144.125 233.099,-142.534 240.295,-150.309 243.573,-144.125"/>
</g>
<!-- Node9&#45;&gt;Node7 -->
<g id="edge32" class="edge"><title>Node9&#45;&gt;Node7</title>
<path fill="none" stroke="midnightblue" d="M341.225,-190.212C326.648,-166.92 297.517,-122.321 282,-112 225.275,-74.268 194.814,-104.644 133,-76 105.503,-63.2582 77.9618,-41.4011 60.9571,-26.5858"/>
<polygon fill="midnightblue" stroke="midnightblue" points="62.8751,-23.6068 53.0812,-19.5658 58.2174,-28.8324 62.8751,-23.6068"/>
</g>
<!-- Node10 -->
<g id="node10" class="node"><title>Node10</title>
<g id="a_node10"><a xlink:href="config_8h.html" target="_top" xlink:title="../../config.h">
<polygon fill="white" stroke="black" points="547,-123.5 547,-142.5 619,-142.5 619,-123.5 547,-123.5"/>
<text text-anchor="middle" x="583" y="-130.5" font-family="Helvetica,sans-Serif" font-size="10.00">../../config.h</text>
</a>
</g>
</g>
<!-- Node9&#45;&gt;Node10 -->
<g id="edge9" class="edge"><title>Node9&#45;&gt;Node10</title>
<path fill="none" stroke="midnightblue" d="M406.639,-191.727C444.323,-182.635 494.674,-169.342 538,-154 543.886,-151.916 550.075,-149.393 555.917,-146.852"/>
<polygon fill="midnightblue" stroke="midnightblue" points="557.618,-149.924 565.303,-142.631 554.748,-143.54 557.618,-149.924"/>
</g>
<!-- Node23 -->
<g id="node23" class="node"><title>Node23</title>
<g id="a_node23"><a xlink:href="transformation_8h.html" target="_top" xlink:title="transformation.h">
<polygon fill="white" stroke="black" points="637.5,-123.5 637.5,-142.5 734.5,-142.5 734.5,-123.5 637.5,-123.5"/>
<text text-anchor="middle" x="686" y="-130.5" font-family="Helvetica,sans-Serif" font-size="10.00">transformation.h</text>
</a>
</g>
</g>
<!-- Node9&#45;&gt;Node23 -->
<g id="edge27" class="edge"><title>Node9&#45;&gt;Node23</title>
<path fill="none" stroke="midnightblue" d="M406.846,-191.829C409.939,-191.197 413.006,-190.583 416,-190 509.811,-171.741 535.403,-177.657 628,-154 636.678,-151.783 645.914,-148.864 654.404,-145.944"/>
<polygon fill="midnightblue" stroke="midnightblue" points="655.696,-149.2 663.95,-142.558 653.355,-142.602 655.696,-149.2"/>
</g>
<!-- Node24 -->
<g id="node24" class="node"><title>Node24</title>
<polygon fill="white" stroke="#bfbfbf" points="753,-123.5 753,-142.5 891,-142.5 891,-123.5 753,-123.5"/>
<text text-anchor="middle" x="822" y="-130.5" font-family="Helvetica,sans-Serif" font-size="10.00">eigen3/Eigen/Eigenvalues</text>
</g>
<!-- Node9&#45;&gt;Node24 -->
<g id="edge30" class="edge"><title>Node9&#45;&gt;Node24</title>
<path fill="none" stroke="midnightblue" d="M406.807,-191.615C409.911,-191.038 412.99,-190.494 416,-190 560.714,-166.232 599.72,-180.278 744,-154 756.679,-151.691 770.341,-148.451 782.634,-145.251"/>
<polygon fill="midnightblue" stroke="midnightblue" points="783.829,-148.554 792.587,-142.593 782.022,-141.791 783.829,-148.554"/>
</g>
<!-- Node25 -->
<g id="node25" class="node"><title>Node25</title>
<polygon fill="white" stroke="#bfbfbf" points="909.5,-123.5 909.5,-142.5 972.5,-142.5 972.5,-123.5 909.5,-123.5"/>
<text text-anchor="middle" x="941" y="-130.5" font-family="Helvetica,sans-Serif" font-size="10.00">functional</text>
</g>
<!-- Node9&#45;&gt;Node25 -->
<g id="edge31" class="edge"><title>Node9&#45;&gt;Node25</title>
<path fill="none" stroke="midnightblue" d="M406.787,-191.487C409.896,-190.943 412.982,-190.441 416,-190 629.434,-158.778 691.77,-210.296 900,-154 905.975,-152.385 912.124,-149.891 917.782,-147.207"/>
<polygon fill="midnightblue" stroke="midnightblue" points="919.419,-150.301 926.726,-142.63 916.23,-144.07 919.419,-150.301"/>
</g>
<!-- Node26 -->
<g id="node26" class="node"><title>Node26</title>
<polygon fill="white" stroke="#bfbfbf" points="329,-123.5 329,-142.5 371,-142.5 371,-123.5 329,-123.5"/>
<text text-anchor="middle" x="350" y="-130.5" font-family="Helvetica,sans-Serif" font-size="10.00">limits</text>
</g>
<!-- Node9&#45;&gt;Node26 -->
<g id="edge33" class="edge"><title>Node9&#45;&gt;Node26</title>
<path fill="none" stroke="midnightblue" d="M350,-190.233C350,-179.501 350,-164.687 350,-152.959"/>
<polygon fill="midnightblue" stroke="midnightblue" points="353.5,-152.893 350,-142.893 346.5,-152.893 353.5,-152.893"/>
</g>
<!-- Node27 -->
<g id="node27" class="node"><title>Node27</title>
<polygon fill="white" stroke="#bfbfbf" points="389,-112.5 389,-153.5 529,-153.5 529,-112.5 389,-112.5"/>
<text text-anchor="start" x="397" y="-141.5" font-family="Helvetica,sans-Serif" font-size="10.00">eigen3/unsupported</text>
<text text-anchor="start" x="397" y="-130.5" font-family="Helvetica,sans-Serif" font-size="10.00">/Eigen/src/MatrixFunctions</text>
<text text-anchor="middle" x="459" y="-119.5" font-family="Helvetica,sans-Serif" font-size="10.00">/MatrixExponential.h</text>
</g>
<!-- Node9&#45;&gt;Node27 -->
<g id="edge34" class="edge"><title>Node9&#45;&gt;Node27</title>
<path fill="none" stroke="midnightblue" d="M371.796,-190.403C385.53,-181.52 403.661,-169.793 419.831,-159.334"/>
<polygon fill="midnightblue" stroke="midnightblue" points="422.077,-162.05 428.573,-153.68 418.275,-156.172 422.077,-162.05"/>
</g>
<!-- Node11 -->
<g id="node11" class="node"><title>Node11</title>
<g id="a_node11"><a xlink:href="flags_8h.html" target="_top" xlink:title="flags.h">
<polygon fill="white" stroke="black" points="1030,-0.5 1030,-19.5 1078,-19.5 1078,-0.5 1030,-0.5"/>
<text text-anchor="middle" x="1054" y="-7.5" font-family="Helvetica,sans-Serif" font-size="10.00">flags.h</text>
</a>
</g>
</g>
<!-- Node10&#45;&gt;Node11 -->
<g id="edge10" class="edge"><title>Node10&#45;&gt;Node11</title>
<path fill="none" stroke="midnightblue" d="M600.587,-123.342C609.025,-119.452 619.373,-115.059 629,-112 703.849,-88.2181 725.492,-93.7326 802,-76 896.812,-54.0249 922.296,-46.1553 1020.16,-20.2002"/>
<polygon fill="midnightblue" stroke="midnightblue" points="1021.09,-23.5744 1029.86,-17.6308 1019.3,-16.8077 1021.09,-23.5744"/>
</g>
<!-- Node12 -->
<g id="node12" class="node"><title>Node12</title>
<g id="a_node12"><a xlink:href="util_2convenienceOperators_8h.html" target="_top" xlink:title="util/convenienceOperators.h">
<polygon fill="white" stroke="black" points="142.5,-56.5 142.5,-75.5 293.5,-75.5 293.5,-56.5 142.5,-56.5"/>
<text text-anchor="middle" x="218" y="-63.5" font-family="Helvetica,sans-Serif" font-size="10.00">util/convenienceOperators.h</text>
</a>
</g>
</g>
<!-- Node10&#45;&gt;Node12 -->
<g id="edge11" class="edge"><title>Node10&#45;&gt;Node12</title>
<path fill="none" stroke="midnightblue" d="M566.744,-123.456C558.367,-119.396 547.863,-114.825 538,-112 460.44,-89.7841 369.04,-78.3275 303.823,-72.5526"/>
<polygon fill="midnightblue" stroke="midnightblue" points="303.85,-69.0421 293.587,-71.6737 303.251,-76.0164 303.85,-69.0421"/>
</g>
<!-- Node16 -->
<g id="node16" class="node"><title>Node16</title>
<g id="a_node16"><a xlink:href="Logger_8h.html" target="_top" xlink:title="util/logging/Logger.h">
<polygon fill="white" stroke="black" points="679.5,-56.5 679.5,-75.5 792.5,-75.5 792.5,-56.5 679.5,-56.5"/>
<text text-anchor="middle" x="736" y="-63.5" font-family="Helvetica,sans-Serif" font-size="10.00">util/logging/Logger.h</text>
</a>
</g>
</g>
<!-- Node10&#45;&gt;Node16 -->
<g id="edge18" class="edge"><title>Node10&#45;&gt;Node16</title>
<path fill="none" stroke="midnightblue" d="M602.676,-123.383C610.814,-119.835 620.353,-115.698 629,-112 655.03,-100.868 684.714,-88.4022 706.203,-79.4188"/>
<polygon fill="midnightblue" stroke="midnightblue" points="707.578,-82.6375 715.456,-75.5537 704.88,-76.1783 707.578,-82.6375"/>
</g>
<!-- Node12&#45;&gt;Node2 -->
<g id="edge12" class="edge"><title>Node12&#45;&gt;Node2</title>
<path fill="none" stroke="midnightblue" d="M195.541,-75.6178C180.231,-82.8163 161.137,-94.7117 152,-112 143.278,-128.504 143.827,-137.218 152,-154 175.537,-202.331 231.138,-235.959 265.663,-253.034"/>
<polygon fill="midnightblue" stroke="midnightblue" points="264.267,-256.246 274.797,-257.409 267.291,-249.932 264.267,-256.246"/>
</g>
<!-- Node12&#45;&gt;Node7 -->
<g id="edge13" class="edge"><title>Node12&#45;&gt;Node7</title>
<path fill="none" stroke="midnightblue" d="M190.429,-56.4435C159.6,-46.8758 109.699,-31.3894 76.8668,-21.2001"/>
<polygon fill="midnightblue" stroke="midnightblue" points="77.8535,-17.8416 67.2654,-18.2203 75.7787,-24.5271 77.8535,-17.8416"/>
</g>
<!-- Node12&#45;&gt;Node8 -->
<g id="edge15" class="edge"><title>Node12&#45;&gt;Node8</title>
<path fill="none" stroke="midnightblue" d="M200.166,-56.324C181.861,-47.4188 153.205,-33.4783 132.506,-23.4084"/>
<polygon fill="midnightblue" stroke="midnightblue" points="133.867,-20.178 123.343,-18.9507 130.804,-26.4727 133.867,-20.178"/>
</g>
<!-- Node13 -->
<g id="node13" class="node"><title>Node13</title>
<polygon fill="white" stroke="#bfbfbf" points="141,-0.5 141,-19.5 179,-19.5 179,-0.5 141,-0.5"/>
<text text-anchor="middle" x="160" y="-7.5" font-family="Helvetica,sans-Serif" font-size="10.00">map</text>
</g>
<!-- Node12&#45;&gt;Node13 -->
<g id="edge14" class="edge"><title>Node12&#45;&gt;Node13</title>
<path fill="none" stroke="midnightblue" d="M208.681,-56.324C200.107,-48.3414 187.188,-36.3128 176.812,-26.6529"/>
<polygon fill="midnightblue" stroke="midnightblue" points="179.192,-24.0865 169.488,-19.8339 174.422,-29.2098 179.192,-24.0865"/>
</g>
<!-- Node14 -->
<g id="node14" class="node"><title>Node14</title>
<polygon fill="white" stroke="#bfbfbf" points="197,-0.5 197,-19.5 239,-19.5 239,-0.5 197,-0.5"/>
<text text-anchor="middle" x="218" y="-7.5" font-family="Helvetica,sans-Serif" font-size="10.00">utility</text>
</g>
<!-- Node12&#45;&gt;Node14 -->
<g id="edge16" class="edge"><title>Node12&#45;&gt;Node14</title>
<path fill="none" stroke="midnightblue" d="M218,-56.083C218,-49.0059 218,-38.8611 218,-29.9865"/>
<polygon fill="midnightblue" stroke="midnightblue" points="221.5,-29.751 218,-19.7511 214.5,-29.7511 221.5,-29.751"/>
</g>
<!-- Node15 -->
<g id="node15" class="node"><title>Node15</title>
<polygon fill="white" stroke="#bfbfbf" points="257.5,-0.5 257.5,-19.5 304.5,-19.5 304.5,-0.5 257.5,-0.5"/>
<text text-anchor="middle" x="281" y="-7.5" font-family="Helvetica,sans-Serif" font-size="10.00">vector</text>
</g>
<!-- Node12&#45;&gt;Node15 -->
<g id="edge17" class="edge"><title>Node12&#45;&gt;Node15</title>
<path fill="none" stroke="midnightblue" d="M228.122,-56.324C237.526,-48.2631 251.744,-36.0765 263.069,-26.3695"/>
<polygon fill="midnightblue" stroke="midnightblue" points="265.379,-28.9993 270.694,-19.8339 260.823,-23.6844 265.379,-28.9993"/>
</g>
<!-- Node16&#45;&gt;Node11 -->
<g id="edge19" class="edge"><title>Node16&#45;&gt;Node11</title>
<path fill="none" stroke="midnightblue" d="M792.576,-57.9291C848.127,-50.5677 935.429,-37.8846 1019.91,-20.0379"/>
<polygon fill="midnightblue" stroke="midnightblue" points="1020.88,-23.409 1029.92,-17.8937 1019.41,-16.564 1020.88,-23.409"/>
</g>
<!-- Node17 -->
<g id="node17" class="node"><title>Node17</title>
<polygon fill="white" stroke="#bfbfbf" points="496,-0.5 496,-19.5 650,-19.5 650,-0.5 496,-0.5"/>
<text text-anchor="middle" x="573" y="-7.5" font-family="Helvetica,sans-Serif" font-size="10.00">carl/io/streamingOperators.h</text>
</g>
<!-- Node16&#45;&gt;Node17 -->
<g id="edge20" class="edge"><title>Node16&#45;&gt;Node17</title>
<path fill="none" stroke="midnightblue" d="M710.172,-56.4435C682.751,-47.3591 639.223,-32.9388 608.568,-22.7831"/>
<polygon fill="midnightblue" stroke="midnightblue" points="609.3,-19.3389 598.707,-19.5164 607.099,-25.9837 609.3,-19.3389"/>
</g>
<!-- Node18 -->
<g id="node18" class="node"><title>Node18</title>
<polygon fill="white" stroke="#bfbfbf" points="668.5,-0.5 668.5,-19.5 727.5,-19.5 727.5,-0.5 668.5,-0.5"/>
<text text-anchor="middle" x="698" y="-7.5" font-family="Helvetica,sans-Serif" font-size="10.00">iostream</text>
</g>
<!-- Node16&#45;&gt;Node18 -->
<g id="edge21" class="edge"><title>Node16&#45;&gt;Node18</title>
<path fill="none" stroke="midnightblue" d="M729.725,-56.083C724.358,-48.4554 716.482,-37.2645 709.921,-27.9408"/>
<polygon fill="midnightblue" stroke="midnightblue" points="712.775,-25.9149 704.158,-19.7511 707.051,-29.9434 712.775,-25.9149"/>
</g>
<!-- Node19 -->
<g id="node19" class="node"><title>Node19</title>
<polygon fill="white" stroke="#bfbfbf" points="746,-0.5 746,-19.5 802,-19.5 802,-0.5 746,-0.5"/>
<text text-anchor="middle" x="774" y="-7.5" font-family="Helvetica,sans-Serif" font-size="10.00">sstream</text>
</g>
<!-- Node16&#45;&gt;Node19 -->
<g id="edge22" class="edge"><title>Node16&#45;&gt;Node19</title>
<path fill="none" stroke="midnightblue" d="M742.275,-56.083C747.642,-48.4554 755.518,-37.2645 762.079,-27.9408"/>
<polygon fill="midnightblue" stroke="midnightblue" points="764.949,-29.9434 767.842,-19.7511 759.225,-25.9149 764.949,-29.9434"/>
</g>
<!-- Node20 -->
<g id="node20" class="node"><title>Node20</title>
<polygon fill="white" stroke="#bfbfbf" points="820,-0.5 820,-19.5 868,-19.5 868,-0.5 820,-0.5"/>
<text text-anchor="middle" x="844" y="-7.5" font-family="Helvetica,sans-Serif" font-size="10.00">thread</text>
</g>
<!-- Node16&#45;&gt;Node20 -->
<g id="edge23" class="edge"><title>Node16&#45;&gt;Node20</title>
<path fill="none" stroke="midnightblue" d="M753.352,-56.324C770.672,-47.6641 797.515,-34.2424 817.502,-24.249"/>
<polygon fill="midnightblue" stroke="midnightblue" points="819.312,-27.2572 826.691,-19.6545 816.181,-20.9962 819.312,-27.2572"/>
</g>
<!-- Node21 -->
<g id="node21" class="node"><title>Node21</title>
<polygon fill="white" stroke="#bfbfbf" points="886.5,-0.5 886.5,-19.5 1011.5,-19.5 1011.5,-0.5 886.5,-0.5"/>
<text text-anchor="middle" x="949" y="-7.5" font-family="Helvetica,sans-Serif" font-size="10.00">carl/core/carlLogging.h</text>
</g>
<!-- Node16&#45;&gt;Node21 -->
<g id="edge24" class="edge"><title>Node16&#45;&gt;Node21</title>
<path fill="none" stroke="midnightblue" d="M769.75,-56.4435C806.518,-47.1221 865.446,-32.1828 905.622,-21.9972"/>
<polygon fill="midnightblue" stroke="midnightblue" points="906.574,-25.3666 915.407,-19.5164 904.854,-18.5813 906.574,-25.3666"/>
</g>
<!-- Node22 -->
<g id="node22" class="node"><title>Node22</title>
<polygon fill="white" stroke="#bfbfbf" points="322.5,-0.5 322.5,-19.5 477.5,-19.5 477.5,-0.5 322.5,-0.5"/>
<text text-anchor="middle" x="400" y="-7.5" font-family="Helvetica,sans-Serif" font-size="10.00">carl/core/carlLoggingHelper.h</text>
</g>
<!-- Node16&#45;&gt;Node22 -->
<g id="edge25" class="edge"><title>Node16&#45;&gt;Node22</title>
<path fill="none" stroke="midnightblue" d="M682.76,-56.4435C623.04,-46.8456 526.259,-31.2916 462.868,-21.1037"/>
<polygon fill="midnightblue" stroke="midnightblue" points="463.42,-17.6476 452.991,-19.5164 462.309,-24.559 463.42,-17.6476"/>
</g>
</g>
</svg>
        <g id="navigator" transform="translate(0 0)" fill="#404254">
                <rect fill="#f2f5e9" fill-opacity="0.5" stroke="#606060" stroke-width=".5" x="0" y="0" width="60" height="60"/>
                <use id="zoomplus" xlink:href="#zoomPlus" x="17" y="9" onmousedown="handleZoom(evt,'in')"/>
                <use id="zoomminus" xlink:href="#zoomMin" x="42" y="9" onmousedown="handleZoom(evt,'out')"/>
                <use id="reset" xlink:href="#resetDef" x="30" y="36" onmousedown="handleReset()"/>
                <g id="arrowUp" xlink:href="#dirArrow" transform="translate(30 24)" onmousedown="handlePan(0,-1)">
                  <use xlink:href="#rim" fill="#404040">
                        <set attributeName="fill" to="#808080" begin="arrowUp.mouseover" end="arrowUp.mouseout"/>
                  </use>
                  <path fill="none" stroke="white" stroke-width="1.5" d="M0,-3.0v7 M-2.5,-0.5L0,-3.0L2.5,-0.5"/>
                </g>
                <g id="arrowRight" xlink:href="#dirArrow" transform="rotate(90) translate(36 -43)" onmousedown="handlePan(1,0)">
                  <use xlink:href="#rim" fill="#404040">
                        <set attributeName="fill" to="#808080" begin="arrowRight.mouseover" end="arrowRight.mouseout"/>
                  </use>
                  <path fill="none" stroke="white" stroke-width="1.5" d="M0,-3.0v7 M-2.5,-0.5L0,-3.0L2.5,-0.5"/>
                </g>
                <g id="arrowDown" xlink:href="#dirArrow" transform="rotate(180) translate(-30 -48)" onmousedown="handlePan(0,1)">
                  <use xlink:href="#rim" fill="#404040">
                        <set attributeName="fill" to="#808080" begin="arrowDown.mouseover" end="arrowDown.mouseout"/>
                  </use>
                  <path fill="none" stroke="white" stroke-width="1.5" d="M0,-3.0v7 M-2.5,-0.5L0,-3.0L2.5,-0.5"/>
                </g>
                <g id="arrowLeft" xlink:href="#dirArrow" transform="rotate(270) translate(-36 17)" onmousedown="handlePan(-1,0)">
                  <use xlink:href="#rim" fill="#404040">
                        <set attributeName="fill" to="#808080" begin="arrowLeft.mouseover" end="arrowLeft.mouseout"/>
                  </use>
                  <path fill="none" stroke="white" stroke-width="1.5" d="M0,-3.0v7 M-2.5,-0.5L0,-3.0L2.5,-0.5"/>
                </g>
        </g>
        <svg viewBox="0 0 15 15" width="100%" height="30px" preserveAspectRatio="xMaxYMin meet">
         <g id="arrow_out" transform="scale(0.3 0.3)">
          <a xlink:href="linear_8h__incl_org.svg" target="_base">
           <rect id="button" ry="5" rx="5" y="6" x="6" height="38" width="38"
                fill="#f2f5e9" fill-opacity="0.5" stroke="#606060" stroke-width="1.0"/>
           <path id="arrow"
             d="M 11.500037,31.436501 C 11.940474,20.09759 22.043105,11.32322 32.158766,21.979434 L 37.068811,17.246167 C 37.068811,17.246167 37.088388,32 37.088388,32 L 22.160133,31.978069 C 22.160133,31.978069 26.997745,27.140456 26.997745,27.140456 C 18.528582,18.264221 13.291696,25.230495 11.500037,31.436501 z"
             style="fill:#404040;"/>
          </a>
         </g>
        </svg>
</svg>
