<?xml version="1.0" encoding="UTF-8" standalone="no"?>
<!DOCTYPE svg PUBLIC "-//W3C//DTD SVG 1.1//EN"
 "http://www.w3.org/Graphics/SVG/1.1/DTD/svg11.dtd">
<!-- Generated by graphviz version 2.38.0 (20140413.2041)
 -->
<!-- Title: /home/travis/build/hypro/hypro/src/hypro/datastructures/LRUCache.h Pages: 1 -->
<!--zoomable 363 -->
<svg id="main" version="1.1" xmlns="http://www.w3.org/2000/svg" xmlns:xlink="http://www.w3.org/1999/xlink" xml:space="preserve" onload="init(evt)">
<style type="text/css"><![CDATA[
.edge:hover path { stroke: red; }
.edge:hover polygon { stroke: red; fill: red; }
]]></style>
<script type="text/javascript"><![CDATA[
var edges = document.getElementsByTagName('g');
if (edges && edges.length) {
  for (var i=0;i<edges.length;i++) {
    if (edges[i].id.substr(0,4)=='edge') {
      edges[i].setAttribute('class','edge');
    }
  }
}
]]></script>
        <defs>
                <circle id="rim" cx="0" cy="0" r="7"/>
                <circle id="rim2" cx="0" cy="0" r="3.5"/>
                <g id="zoomPlus">
                        <use xlink:href="#rim" fill="#404040">
                                <set attributeName="fill" to="#808080" begin="zoomplus.mouseover" end="zoomplus.mouseout"/>
                        </use>
                        <path d="M-4,0h8M0,-4v8" fill="none" stroke="white" stroke-width="1.5" pointer-events="none"/>
                </g>
                <g id="zoomMin">
                        <use xlink:href="#rim" fill="#404040">
                                <set attributeName="fill" to="#808080" begin="zoomminus.mouseover" end="zoomminus.mouseout"/>
                        </use>
                        <path d="M-4,0h8" fill="none" stroke="white" stroke-width="1.5" pointer-events="none"/>
                </g>
                <g id="dirArrow">
                        <path fill="none" stroke="white" stroke-width="1.5" d="M0,-3.0v7 M-2.5,-0.5L0,-3.0L2.5,-0.5"/>
                </g>
               <g id="resetDef">
                       <use xlink:href="#rim2" fill="#404040">
                               <set attributeName="fill" to="#808080" begin="reset.mouseover" end="reset.mouseout"/>
                       </use>
               </g>
        </defs>

<script type="text/javascript">
var viewWidth = 1622;
var viewHeight = 363;
var sectionId = 'dynsection-0';
</script>
<script xlink:href="svgpan.js"/>
<svg id="graph" class="graph">
<g id="viewport">
<title>/home/travis/build/hypro/hypro/src/hypro/datastructures/LRUCache.h</title>
<polygon fill="white" stroke="none" points="-4,4 -4,-359 1618,-359 1618,4 -4,4"/>
<!-- Node1 -->
<g id="node1" class="node"><title>Node1</title>
<polygon fill="#bfbfbf" stroke="black" points="1402.5,-313.5 1402.5,-354.5 1553.5,-354.5 1553.5,-313.5 1402.5,-313.5"/>
<text text-anchor="start" x="1410.5" y="-342.5" font-family="Helvetica,sans-Serif" font-size="10.00">/home/travis/build</text>
<text text-anchor="start" x="1410.5" y="-331.5" font-family="Helvetica,sans-Serif" font-size="10.00">/hypro/hypro/src/hypro</text>
<text text-anchor="middle" x="1478" y="-320.5" font-family="Helvetica,sans-Serif" font-size="10.00">/datastructures/LRUCache.h</text>
</g>
<!-- Node2 -->
<g id="node2" class="node"><title>Node2</title>
<g id="a_node2"><a xlink:href="adaptions__eigen_8h.html" target="_top" xlink:title="util/adaptions_eigen\l/adaptions_eigen.h">
<polygon fill="white" stroke="black" points="428.5,-246.5 428.5,-276.5 541.5,-276.5 541.5,-246.5 428.5,-246.5"/>
<text text-anchor="start" x="436.5" y="-264.5" font-family="Helvetica,sans-Serif" font-size="10.00">util/adaptions_eigen</text>
<text text-anchor="middle" x="485" y="-253.5" font-family="Helvetica,sans-Serif" font-size="10.00">/adaptions_eigen.h</text>
</a>
</g>
</g>
<!-- Node1&#45;&gt;Node2 -->
<g id="edge1" class="edge"><title>Node1&#45;&gt;Node2</title>
<path fill="none" stroke="midnightblue" d="M1402.14,-327.614C1214.24,-314.274 729.577,-279.864 551.724,-267.237"/>
<polygon fill="midnightblue" stroke="midnightblue" points="551.94,-263.744 541.717,-266.527 551.444,-270.726 551.94,-263.744"/>
</g>
<!-- Node28 -->
<g id="node28" class="node"><title>Node28</title>
<g id="a_node28"><a xlink:href="statistics_8h.html" target="_top" xlink:title="util/statistics/statistics.h">
<polygon fill="white" stroke="black" points="1412.5,-252 1412.5,-271 1543.5,-271 1543.5,-252 1412.5,-252"/>
<text text-anchor="middle" x="1478" y="-259" font-family="Helvetica,sans-Serif" font-size="10.00">util/statistics/statistics.h</text>
</a>
</g>
</g>
<!-- Node1&#45;&gt;Node28 -->
<g id="edge35" class="edge"><title>Node1&#45;&gt;Node28</title>
<path fill="none" stroke="midnightblue" d="M1478,-313.362C1478,-303.297 1478,-291.104 1478,-281.18"/>
<polygon fill="midnightblue" stroke="midnightblue" points="1481.5,-281.173 1478,-271.173 1474.5,-281.173 1481.5,-281.173"/>
</g>
<!-- Node30 -->
<g id="node30" class="node"><title>Node30</title>
<polygon fill="white" stroke="#bfbfbf" points="1562,-252 1562,-271 1592,-271 1592,-252 1562,-252"/>
<text text-anchor="middle" x="1577" y="-259" font-family="Helvetica,sans-Serif" font-size="10.00">list</text>
</g>
<!-- Node1&#45;&gt;Node30 -->
<g id="edge38" class="edge"><title>Node1&#45;&gt;Node30</title>
<path fill="none" stroke="midnightblue" d="M1505.58,-313.362C1521.69,-301.89 1541.68,-287.654 1556.41,-277.163"/>
<polygon fill="midnightblue" stroke="midnightblue" points="1558.7,-279.825 1564.82,-271.173 1554.64,-274.123 1558.7,-279.825"/>
</g>
<!-- Node3 -->
<g id="node3" class="node"><title>Node3</title>
<g id="a_node3"><a xlink:href="config_8h.html" target="_top" xlink:title="../../config.h">
<polygon fill="white" stroke="black" points="994,-179.5 994,-198.5 1066,-198.5 1066,-179.5 994,-179.5"/>
<text text-anchor="middle" x="1030" y="-186.5" font-family="Helvetica,sans-Serif" font-size="10.00">../../config.h</text>
</a>
</g>
</g>
<!-- Node2&#45;&gt;Node3 -->
<g id="edge2" class="edge"><title>Node2&#45;&gt;Node3</title>
<path fill="none" stroke="midnightblue" d="M541.527,-253.188C649.748,-239.189 884.287,-208.849 983.829,-195.973"/>
<polygon fill="midnightblue" stroke="midnightblue" points="984.41,-199.427 993.879,-194.673 983.512,-192.484 984.41,-199.427"/>
</g>
<!-- Node6 -->
<g id="node6" class="node"><title>Node6</title>
<g id="a_node6"><a xlink:href="types_8h.html" target="_top" xlink:title="../types.h">
<polygon fill="white" stroke="black" points="294.5,-56.5 294.5,-75.5 355.5,-75.5 355.5,-56.5 294.5,-56.5"/>
<text text-anchor="middle" x="325" y="-63.5" font-family="Helvetica,sans-Serif" font-size="10.00">../types.h</text>
</a>
</g>
</g>
<!-- Node2&#45;&gt;Node6 -->
<g id="edge26" class="edge"><title>Node2&#45;&gt;Node6</title>
<path fill="none" stroke="midnightblue" d="M428.453,-257.777C359.145,-253.023 248.101,-240.607 223,-210 186.783,-165.84 257.908,-107.062 299.05,-80.7505"/>
<polygon fill="midnightblue" stroke="midnightblue" points="300.891,-83.7276 307.568,-75.5017 297.219,-77.7681 300.891,-83.7276"/>
</g>
<!-- Node7 -->
<g id="node7" class="node"><title>Node7</title>
<polygon fill="white" stroke="#bfbfbf" points="0,-0.5 0,-19.5 134,-19.5 134,-0.5 0,-0.5"/>
<text text-anchor="middle" x="67" y="-7.5" font-family="Helvetica,sans-Serif" font-size="10.00">carl/numbers/numbers.h</text>
</g>
<!-- Node2&#45;&gt;Node7 -->
<g id="edge28" class="edge"><title>Node2&#45;&gt;Node7</title>
<path fill="none" stroke="midnightblue" d="M428.198,-256.084C354.669,-249.455 231.509,-234.968 194,-210 125.871,-164.65 86.7535,-68.9645 72.8416,-29.0656"/>
<polygon fill="midnightblue" stroke="midnightblue" points="76.1558,-27.9402 69.6478,-19.5799 69.5218,-30.1739 76.1558,-27.9402"/>
</g>
<!-- Node10 -->
<g id="node10" class="node"><title>Node10</title>
<polygon fill="white" stroke="#bfbfbf" points="152,-0.5 152,-19.5 264,-19.5 264,-0.5 152,-0.5"/>
<text text-anchor="middle" x="208" y="-7.5" font-family="Helvetica,sans-Serif" font-size="10.00">eigen3/Eigen/Dense</text>
</g>
<!-- Node2&#45;&gt;Node10 -->
<g id="edge29" class="edge"><title>Node2&#45;&gt;Node10</title>
<path fill="none" stroke="midnightblue" d="M428.299,-257.705C358.494,-252.969 245.863,-240.678 219,-210 173.979,-158.586 191.878,-68.0568 202.409,-29.3691"/>
<polygon fill="midnightblue" stroke="midnightblue" points="205.842,-30.0932 205.244,-19.5153 199.115,-28.1574 205.842,-30.0932"/>
</g>
<!-- Node11 -->
<g id="node11" class="node"><title>Node11</title>
<polygon fill="white" stroke="#bfbfbf" points="508,-0.5 508,-19.5 554,-19.5 554,-0.5 508,-0.5"/>
<text text-anchor="middle" x="531" y="-7.5" font-family="Helvetica,sans-Serif" font-size="10.00">iosfwd</text>
</g>
<!-- Node2&#45;&gt;Node11 -->
<g id="edge32" class="edge"><title>Node2&#45;&gt;Node11</title>
<path fill="none" stroke="midnightblue" d="M541.587,-259.998C624.013,-257.93 770.906,-248.745 804,-210 816.124,-195.806 816.154,-182.167 804,-168 735.486,-88.1389 651.139,-198.996 570,-132 539.323,-106.67 532.511,-57.0229 531.165,-29.8598"/>
<polygon fill="midnightblue" stroke="midnightblue" points="534.66,-29.625 530.87,-19.7314 527.663,-29.8293 534.66,-29.625"/>
</g>
<!-- Node23 -->
<g id="node23" class="node"><title>Node23</title>
<g id="a_node23"><a xlink:href="transformation_8h.html" target="_top" xlink:title="transformation.h">
<polygon fill="white" stroke="black" points="241.5,-179.5 241.5,-198.5 338.5,-198.5 338.5,-179.5 241.5,-179.5"/>
<text text-anchor="middle" x="290" y="-186.5" font-family="Helvetica,sans-Serif" font-size="10.00">transformation.h</text>
</a>
</g>
</g>
<!-- Node2&#45;&gt;Node23 -->
<g id="edge27" class="edge"><title>Node2&#45;&gt;Node23</title>
<path fill="none" stroke="midnightblue" d="M446.008,-246.403C409.995,-233.383 357.084,-214.253 323.085,-201.961"/>
<polygon fill="midnightblue" stroke="midnightblue" points="324.198,-198.642 313.603,-198.534 321.818,-205.225 324.198,-198.642"/>
</g>
<!-- Node24 -->
<g id="node24" class="node"><title>Node24</title>
<polygon fill="white" stroke="#bfbfbf" points="357,-179.5 357,-198.5 495,-198.5 495,-179.5 357,-179.5"/>
<text text-anchor="middle" x="426" y="-186.5" font-family="Helvetica,sans-Serif" font-size="10.00">eigen3/Eigen/Eigenvalues</text>
</g>
<!-- Node2&#45;&gt;Node24 -->
<g id="edge30" class="edge"><title>Node2&#45;&gt;Node24</title>
<path fill="none" stroke="midnightblue" d="M473.06,-246.233C463.523,-234.837 450.135,-218.839 440.076,-206.82"/>
<polygon fill="midnightblue" stroke="midnightblue" points="442.545,-204.316 433.442,-198.893 437.176,-208.808 442.545,-204.316"/>
</g>
<!-- Node25 -->
<g id="node25" class="node"><title>Node25</title>
<polygon fill="white" stroke="#bfbfbf" points="513.5,-179.5 513.5,-198.5 576.5,-198.5 576.5,-179.5 513.5,-179.5"/>
<text text-anchor="middle" x="545" y="-186.5" font-family="Helvetica,sans-Serif" font-size="10.00">functional</text>
</g>
<!-- Node2&#45;&gt;Node25 -->
<g id="edge31" class="edge"><title>Node2&#45;&gt;Node25</title>
<path fill="none" stroke="midnightblue" d="M497.142,-246.233C506.841,-234.837 520.456,-218.839 530.685,-206.82"/>
<polygon fill="midnightblue" stroke="midnightblue" points="533.616,-208.777 537.431,-198.893 528.285,-204.24 533.616,-208.777"/>
</g>
<!-- Node26 -->
<g id="node26" class="node"><title>Node26</title>
<polygon fill="white" stroke="#bfbfbf" points="595,-179.5 595,-198.5 637,-198.5 637,-179.5 595,-179.5"/>
<text text-anchor="middle" x="616" y="-186.5" font-family="Helvetica,sans-Serif" font-size="10.00">limits</text>
</g>
<!-- Node2&#45;&gt;Node26 -->
<g id="edge33" class="edge"><title>Node2&#45;&gt;Node26</title>
<path fill="none" stroke="midnightblue" d="M514.748,-246.496C534.867,-236.778 561.881,-223.247 585,-210 588.152,-208.194 591.429,-206.207 594.621,-204.207"/>
<polygon fill="midnightblue" stroke="midnightblue" points="596.7,-207.031 603.217,-198.678 592.913,-201.144 596.7,-207.031"/>
</g>
<!-- Node27 -->
<g id="node27" class="node"><title>Node27</title>
<polygon fill="white" stroke="#bfbfbf" points="655,-168.5 655,-209.5 795,-209.5 795,-168.5 655,-168.5"/>
<text text-anchor="start" x="663" y="-197.5" font-family="Helvetica,sans-Serif" font-size="10.00">eigen3/unsupported</text>
<text text-anchor="start" x="663" y="-186.5" font-family="Helvetica,sans-Serif" font-size="10.00">/Eigen/src/MatrixFunctions</text>
<text text-anchor="middle" x="725" y="-175.5" font-family="Helvetica,sans-Serif" font-size="10.00">/MatrixExponential.h</text>
</g>
<!-- Node2&#45;&gt;Node27 -->
<g id="edge34" class="edge"><title>Node2&#45;&gt;Node27</title>
<path fill="none" stroke="midnightblue" d="M532.703,-246.487C565.707,-236.792 610.342,-223.681 648.301,-212.53"/>
<polygon fill="midnightblue" stroke="midnightblue" points="649.696,-215.769 658.304,-209.592 647.723,-209.052 649.696,-215.769"/>
</g>
<!-- Node4 -->
<g id="node4" class="node"><title>Node4</title>
<g id="a_node4"><a xlink:href="flags_8h.html" target="_top" xlink:title="flags.h">
<polygon fill="white" stroke="black" points="1505,-56.5 1505,-75.5 1553,-75.5 1553,-56.5 1505,-56.5"/>
<text text-anchor="middle" x="1529" y="-63.5" font-family="Helvetica,sans-Serif" font-size="10.00">flags.h</text>
</a>
</g>
</g>
<!-- Node3&#45;&gt;Node4 -->
<g id="edge3" class="edge"><title>Node3&#45;&gt;Node4</title>
<path fill="none" stroke="midnightblue" d="M1066.05,-179.729C1142.91,-162.011 1328.77,-118.716 1494.96,-76.2102"/>
<polygon fill="midnightblue" stroke="midnightblue" points="1496.05,-79.5442 1504.87,-73.6712 1494.32,-72.7633 1496.05,-79.5442"/>
</g>
<!-- Node5 -->
<g id="node5" class="node"><title>Node5</title>
<g id="a_node5"><a xlink:href="util_2convenienceOperators_8h.html" target="_top" xlink:title="util/convenienceOperators.h">
<polygon fill="white" stroke="black" points="579.5,-112.5 579.5,-131.5 730.5,-131.5 730.5,-112.5 579.5,-112.5"/>
<text text-anchor="middle" x="655" y="-119.5" font-family="Helvetica,sans-Serif" font-size="10.00">util/convenienceOperators.h</text>
</a>
</g>
</g>
<!-- Node3&#45;&gt;Node5 -->
<g id="edge4" class="edge"><title>Node3&#45;&gt;Node5</title>
<path fill="none" stroke="midnightblue" d="M993.703,-181.708C928.967,-170.488 793.03,-146.925 714.476,-133.309"/>
<polygon fill="midnightblue" stroke="midnightblue" points="714.704,-129.797 704.254,-131.537 713.509,-136.694 714.704,-129.797"/>
</g>
<!-- Node16 -->
<g id="node16" class="node"><title>Node16</title>
<g id="a_node16"><a xlink:href="Logger_8h.html" target="_top" xlink:title="util/logging/Logger.h">
<polygon fill="white" stroke="black" points="995.5,-112.5 995.5,-131.5 1108.5,-131.5 1108.5,-112.5 995.5,-112.5"/>
<text text-anchor="middle" x="1052" y="-119.5" font-family="Helvetica,sans-Serif" font-size="10.00">util/logging/Logger.h</text>
</a>
</g>
</g>
<!-- Node3&#45;&gt;Node16 -->
<g id="edge18" class="edge"><title>Node3&#45;&gt;Node16</title>
<path fill="none" stroke="midnightblue" d="M1032.97,-179.234C1036.23,-169.585 1041.58,-153.8 1045.77,-141.406"/>
<polygon fill="midnightblue" stroke="midnightblue" points="1049.19,-142.222 1049.08,-131.627 1042.56,-139.977 1049.19,-142.222"/>
</g>
<!-- Node5&#45;&gt;Node6 -->
<g id="edge5" class="edge"><title>Node5&#45;&gt;Node6</title>
<path fill="none" stroke="midnightblue" d="M602.711,-112.444C537.047,-101.699 425.763,-83.4886 365.945,-73.7001"/>
<polygon fill="midnightblue" stroke="midnightblue" points="366.182,-70.1924 355.748,-72.0315 365.052,-77.1005 366.182,-70.1924"/>
</g>
<!-- Node5&#45;&gt;Node11 -->
<g id="edge13" class="edge"><title>Node5&#45;&gt;Node11</title>
<path fill="none" stroke="midnightblue" d="M630.487,-112.469C611.921,-105.064 586.678,-92.8671 569,-76 555.133,-62.7692 544.685,-43.3714 538.288,-29.2112"/>
<polygon fill="midnightblue" stroke="midnightblue" points="541.332,-27.4248 534.197,-19.5926 534.891,-30.1647 541.332,-27.4248"/>
</g>
<!-- Node12 -->
<g id="node12" class="node"><title>Node12</title>
<polygon fill="white" stroke="#bfbfbf" points="663,-0.5 663,-19.5 695,-19.5 695,-0.5 663,-0.5"/>
<text text-anchor="middle" x="679" y="-7.5" font-family="Helvetica,sans-Serif" font-size="10.00">set</text>
</g>
<!-- Node5&#45;&gt;Node12 -->
<g id="edge15" class="edge"><title>Node5&#45;&gt;Node12</title>
<path fill="none" stroke="midnightblue" d="M696.471,-112.497C716.586,-106.06 738.953,-94.9516 751,-76 766.06,-52.3081 730.975,-31.9092 704.667,-20.5608"/>
<polygon fill="midnightblue" stroke="midnightblue" points="705.717,-17.2092 695.136,-16.6666 703.07,-23.6891 705.717,-17.2092"/>
</g>
<!-- Node13 -->
<g id="node13" class="node"><title>Node13</title>
<polygon fill="white" stroke="#bfbfbf" points="578,-56.5 578,-75.5 616,-75.5 616,-56.5 578,-56.5"/>
<text text-anchor="middle" x="597" y="-63.5" font-family="Helvetica,sans-Serif" font-size="10.00">map</text>
</g>
<!-- Node5&#45;&gt;Node13 -->
<g id="edge14" class="edge"><title>Node5&#45;&gt;Node13</title>
<path fill="none" stroke="midnightblue" d="M645.681,-112.324C637.107,-104.341 624.188,-92.3128 613.812,-82.6529"/>
<polygon fill="midnightblue" stroke="midnightblue" points="616.192,-80.0865 606.488,-75.8339 611.422,-85.2098 616.192,-80.0865"/>
</g>
<!-- Node14 -->
<g id="node14" class="node"><title>Node14</title>
<polygon fill="white" stroke="#bfbfbf" points="634,-56.5 634,-75.5 676,-75.5 676,-56.5 634,-56.5"/>
<text text-anchor="middle" x="655" y="-63.5" font-family="Helvetica,sans-Serif" font-size="10.00">utility</text>
</g>
<!-- Node5&#45;&gt;Node14 -->
<g id="edge16" class="edge"><title>Node5&#45;&gt;Node14</title>
<path fill="none" stroke="midnightblue" d="M655,-112.083C655,-105.006 655,-94.8611 655,-85.9865"/>
<polygon fill="midnightblue" stroke="midnightblue" points="658.5,-85.751 655,-75.7511 651.5,-85.7511 658.5,-85.751"/>
</g>
<!-- Node15 -->
<g id="node15" class="node"><title>Node15</title>
<polygon fill="white" stroke="#bfbfbf" points="694.5,-56.5 694.5,-75.5 741.5,-75.5 741.5,-56.5 694.5,-56.5"/>
<text text-anchor="middle" x="718" y="-63.5" font-family="Helvetica,sans-Serif" font-size="10.00">vector</text>
</g>
<!-- Node5&#45;&gt;Node15 -->
<g id="edge17" class="edge"><title>Node5&#45;&gt;Node15</title>
<path fill="none" stroke="midnightblue" d="M665.122,-112.324C674.526,-104.263 688.744,-92.0765 700.069,-82.3695"/>
<polygon fill="midnightblue" stroke="midnightblue" points="702.379,-84.9993 707.694,-75.8339 697.823,-79.6844 702.379,-84.9993"/>
</g>
<!-- Node6&#45;&gt;Node2 -->
<g id="edge12" class="edge"><title>Node6&#45;&gt;Node2</title>
<path fill="none" stroke="midnightblue" d="M316.052,-75.5017C286.924,-98.3577 202.126,-162.599 241,-210 263.377,-237.285 354.057,-250.114 418.382,-255.945"/>
<polygon fill="midnightblue" stroke="midnightblue" points="418.199,-259.442 428.464,-256.822 418.805,-252.469 418.199,-259.442"/>
</g>
<!-- Node6&#45;&gt;Node7 -->
<g id="edge6" class="edge"><title>Node6&#45;&gt;Node7</title>
<path fill="none" stroke="midnightblue" d="M294.391,-58.5934C250.752,-49.4598 170.13,-32.5854 117.547,-21.5797"/>
<polygon fill="midnightblue" stroke="midnightblue" points="118.252,-18.1515 107.747,-19.5285 116.818,-25.003 118.252,-18.1515"/>
</g>
<!-- Node8 -->
<g id="node8" class="node"><title>Node8</title>
<polygon fill="white" stroke="#bfbfbf" points="282,-0.5 282,-19.5 368,-19.5 368,-0.5 282,-0.5"/>
<text text-anchor="middle" x="325" y="-7.5" font-family="Helvetica,sans-Serif" font-size="10.00">carl/util/hash.h</text>
</g>
<!-- Node6&#45;&gt;Node8 -->
<g id="edge7" class="edge"><title>Node6&#45;&gt;Node8</title>
<path fill="none" stroke="midnightblue" d="M325,-56.083C325,-49.0059 325,-38.8611 325,-29.9865"/>
<polygon fill="midnightblue" stroke="midnightblue" points="328.5,-29.751 325,-19.7511 321.5,-29.7511 328.5,-29.751"/>
</g>
<!-- Node9 -->
<g id="node9" class="node"><title>Node9</title>
<polygon fill="white" stroke="#bfbfbf" points="386,-0.5 386,-19.5 490,-19.5 490,-0.5 386,-0.5"/>
<text text-anchor="middle" x="438" y="-7.5" font-family="Helvetica,sans-Serif" font-size="10.00">eigen3/Eigen/Core</text>
</g>
<!-- Node6&#45;&gt;Node9 -->
<g id="edge8" class="edge"><title>Node6&#45;&gt;Node9</title>
<path fill="none" stroke="midnightblue" d="M342.905,-56.4435C361.254,-47.6751 390.005,-33.9355 411.094,-23.8579"/>
<polygon fill="midnightblue" stroke="midnightblue" points="412.665,-26.9862 420.179,-19.5164 409.647,-20.6703 412.665,-26.9862"/>
</g>
<!-- Node6&#45;&gt;Node10 -->
<g id="edge9" class="edge"><title>Node6&#45;&gt;Node10</title>
<path fill="none" stroke="midnightblue" d="M306.461,-56.4435C287.377,-47.6356 257.425,-33.8116 235.564,-23.722"/>
<polygon fill="midnightblue" stroke="midnightblue" points="236.999,-20.5292 226.452,-19.5164 234.065,-26.8849 236.999,-20.5292"/>
</g>
<!-- Node6&#45;&gt;Node11 -->
<g id="edge10" class="edge"><title>Node6&#45;&gt;Node11</title>
<path fill="none" stroke="midnightblue" d="M355.54,-57.3092C388.424,-48.9827 442.514,-35.1557 498.257,-20.1605"/>
<polygon fill="midnightblue" stroke="midnightblue" points="499.201,-23.531 507.944,-17.5471 497.378,-16.7726 499.201,-23.531"/>
</g>
<!-- Node6&#45;&gt;Node12 -->
<g id="edge11" class="edge"><title>Node6&#45;&gt;Node12</title>
<path fill="none" stroke="midnightblue" d="M355.796,-60.3023C424.332,-49.8477 588.456,-24.8119 652.638,-15.0214"/>
<polygon fill="midnightblue" stroke="midnightblue" points="653.378,-18.4491 662.735,-13.481 652.322,-11.5291 653.378,-18.4491"/>
</g>
<!-- Node16&#45;&gt;Node4 -->
<g id="edge19" class="edge"><title>Node16&#45;&gt;Node4</title>
<path fill="none" stroke="midnightblue" d="M1108.85,-118.25C1191.81,-113.574 1350.96,-102.102 1495.05,-75.8818"/>
<polygon fill="midnightblue" stroke="midnightblue" points="1495.76,-79.31 1504.96,-74.0509 1494.49,-72.4265 1495.76,-79.31"/>
</g>
<!-- Node17 -->
<g id="node17" class="node"><title>Node17</title>
<polygon fill="white" stroke="#bfbfbf" points="1255,-56.5 1255,-75.5 1409,-75.5 1409,-56.5 1255,-56.5"/>
<text text-anchor="middle" x="1332" y="-63.5" font-family="Helvetica,sans-Serif" font-size="10.00">carl/io/streamingOperators.h</text>
</g>
<!-- Node16&#45;&gt;Node17 -->
<g id="edge20" class="edge"><title>Node16&#45;&gt;Node17</title>
<path fill="none" stroke="midnightblue" d="M1096.37,-112.444C1145.62,-102.944 1225.13,-87.611 1277.97,-77.4198"/>
<polygon fill="midnightblue" stroke="midnightblue" points="1278.68,-80.8469 1287.84,-75.5164 1277.36,-73.9735 1278.68,-80.8469"/>
</g>
<!-- Node18 -->
<g id="node18" class="node"><title>Node18</title>
<polygon fill="white" stroke="#bfbfbf" points="1427.5,-56.5 1427.5,-75.5 1486.5,-75.5 1486.5,-56.5 1427.5,-56.5"/>
<text text-anchor="middle" x="1457" y="-63.5" font-family="Helvetica,sans-Serif" font-size="10.00">iostream</text>
</g>
<!-- Node16&#45;&gt;Node18 -->
<g id="edge21" class="edge"><title>Node16&#45;&gt;Node18</title>
<path fill="none" stroke="midnightblue" d="M1108.7,-115.882C1178.83,-109.141 1302.02,-95.9547 1417.21,-75.9663"/>
<polygon fill="midnightblue" stroke="midnightblue" points="1418.01,-79.3784 1427.26,-74.2013 1416.8,-72.484 1418.01,-79.3784"/>
</g>
<!-- Node19 -->
<g id="node19" class="node"><title>Node19</title>
<polygon fill="white" stroke="#bfbfbf" points="798,-56.5 798,-75.5 854,-75.5 854,-56.5 798,-56.5"/>
<text text-anchor="middle" x="826" y="-63.5" font-family="Helvetica,sans-Serif" font-size="10.00">sstream</text>
</g>
<!-- Node16&#45;&gt;Node19 -->
<g id="edge22" class="edge"><title>Node16&#45;&gt;Node19</title>
<path fill="none" stroke="midnightblue" d="M1015.75,-112.425C979.706,-103.885 922.554,-90.3123 864.057,-76.2464"/>
<polygon fill="midnightblue" stroke="midnightblue" points="864.82,-72.8301 854.278,-73.8935 863.182,-79.6359 864.82,-72.8301"/>
</g>
<!-- Node20 -->
<g id="node20" class="node"><title>Node20</title>
<polygon fill="white" stroke="#bfbfbf" points="872,-56.5 872,-75.5 920,-75.5 920,-56.5 872,-56.5"/>
<text text-anchor="middle" x="896" y="-63.5" font-family="Helvetica,sans-Serif" font-size="10.00">thread</text>
</g>
<!-- Node16&#45;&gt;Node20 -->
<g id="edge23" class="edge"><title>Node16&#45;&gt;Node20</title>
<path fill="none" stroke="midnightblue" d="M1027.28,-112.444C1001,-103.345 959.253,-88.8952 929.907,-78.7372"/>
<polygon fill="midnightblue" stroke="midnightblue" points="930.685,-75.3027 920.09,-75.339 928.395,-81.9176 930.685,-75.3027"/>
</g>
<!-- Node21 -->
<g id="node21" class="node"><title>Node21</title>
<polygon fill="white" stroke="#bfbfbf" points="938.5,-56.5 938.5,-75.5 1063.5,-75.5 1063.5,-56.5 938.5,-56.5"/>
<text text-anchor="middle" x="1001" y="-63.5" font-family="Helvetica,sans-Serif" font-size="10.00">carl/core/carlLogging.h</text>
</g>
<!-- Node16&#45;&gt;Node21 -->
<g id="edge24" class="edge"><title>Node16&#45;&gt;Node21</title>
<path fill="none" stroke="midnightblue" d="M1043.58,-112.083C1036.15,-104.22 1025.15,-92.5688 1016.19,-83.0813"/>
<polygon fill="midnightblue" stroke="midnightblue" points="1018.68,-80.618 1009.26,-75.7511 1013.59,-85.4244 1018.68,-80.618"/>
</g>
<!-- Node22 -->
<g id="node22" class="node"><title>Node22</title>
<polygon fill="white" stroke="#bfbfbf" points="1081.5,-56.5 1081.5,-75.5 1236.5,-75.5 1236.5,-56.5 1081.5,-56.5"/>
<text text-anchor="middle" x="1159" y="-63.5" font-family="Helvetica,sans-Serif" font-size="10.00">carl/core/carlLoggingHelper.h</text>
</g>
<!-- Node16&#45;&gt;Node22 -->
<g id="edge25" class="edge"><title>Node16&#45;&gt;Node22</title>
<path fill="none" stroke="midnightblue" d="M1069.19,-112.324C1086.35,-103.664 1112.95,-90.2424 1132.75,-80.249"/>
<polygon fill="midnightblue" stroke="midnightblue" points="1134.5,-83.2847 1141.85,-75.6545 1131.35,-77.0354 1134.5,-83.2847"/>
</g>
<!-- Node28&#45;&gt;Node4 -->
<g id="edge36" class="edge"><title>Node28&#45;&gt;Node4</title>
<path fill="none" stroke="midnightblue" d="M1479.48,-251.758C1482.35,-235.262 1489.07,-198.462 1497,-168 1504.63,-138.713 1515.67,-105.352 1522.58,-85.2512"/>
<polygon fill="midnightblue" stroke="midnightblue" points="1525.98,-86.1533 1525.95,-75.5584 1519.36,-83.8541 1525.98,-86.1533"/>
</g>
<!-- Node29 -->
<g id="node29" class="node"><title>Node29</title>
<polygon fill="white" stroke="#bfbfbf" points="1506,-179.5 1506,-198.5 1614,-198.5 1614,-179.5 1506,-179.5"/>
<text text-anchor="middle" x="1560" y="-186.5" font-family="Helvetica,sans-Serif" font-size="10.00">carl/util/Singleton.h</text>
</g>
<!-- Node28&#45;&gt;Node29 -->
<g id="edge37" class="edge"><title>Node28&#45;&gt;Node29</title>
<path fill="none" stroke="midnightblue" d="M1488.05,-251.855C1501.46,-240.333 1525.41,-219.743 1541.97,-205.502"/>
<polygon fill="midnightblue" stroke="midnightblue" points="1544.56,-207.889 1549.86,-198.715 1540,-202.581 1544.56,-207.889"/>
</g>
</g>
</svg>
        <g id="navigator" transform="translate(0 0)" fill="#404254">
                <rect fill="#f2f5e9" fill-opacity="0.5" stroke="#606060" stroke-width=".5" x="0" y="0" width="60" height="60"/>
                <use id="zoomplus" xlink:href="#zoomPlus" x="17" y="9" onmousedown="handleZoom(evt,'in')"/>
                <use id="zoomminus" xlink:href="#zoomMin" x="42" y="9" onmousedown="handleZoom(evt,'out')"/>
                <use id="reset" xlink:href="#resetDef" x="30" y="36" onmousedown="handleReset()"/>
                <g id="arrowUp" xlink:href="#dirArrow" transform="translate(30 24)" onmousedown="handlePan(0,-1)">
                  <use xlink:href="#rim" fill="#404040">
                        <set attributeName="fill" to="#808080" begin="arrowUp.mouseover" end="arrowUp.mouseout"/>
                  </use>
                  <path fill="none" stroke="white" stroke-width="1.5" d="M0,-3.0v7 M-2.5,-0.5L0,-3.0L2.5,-0.5"/>
                </g>
                <g id="arrowRight" xlink:href="#dirArrow" transform="rotate(90) translate(36 -43)" onmousedown="handlePan(1,0)">
                  <use xlink:href="#rim" fill="#404040">
                        <set attributeName="fill" to="#808080" begin="arrowRight.mouseover" end="arrowRight.mouseout"/>
                  </use>
                  <path fill="none" stroke="white" stroke-width="1.5" d="M0,-3.0v7 M-2.5,-0.5L0,-3.0L2.5,-0.5"/>
                </g>
                <g id="arrowDown" xlink:href="#dirArrow" transform="rotate(180) translate(-30 -48)" onmousedown="handlePan(0,1)">
                  <use xlink:href="#rim" fill="#404040">
                        <set attributeName="fill" to="#808080" begin="arrowDown.mouseover" end="arrowDown.mouseout"/>
                  </use>
                  <path fill="none" stroke="white" stroke-width="1.5" d="M0,-3.0v7 M-2.5,-0.5L0,-3.0L2.5,-0.5"/>
                </g>
                <g id="arrowLeft" xlink:href="#dirArrow" transform="rotate(270) translate(-36 17)" onmousedown="handlePan(-1,0)">
                  <use xlink:href="#rim" fill="#404040">
                        <set attributeName="fill" to="#808080" begin="arrowLeft.mouseover" end="arrowLeft.mouseout"/>
                  </use>
                  <path fill="none" stroke="white" stroke-width="1.5" d="M0,-3.0v7 M-2.5,-0.5L0,-3.0L2.5,-0.5"/>
                </g>
        </g>
        <svg viewBox="0 0 15 15" width="100%" height="30px" preserveAspectRatio="xMaxYMin meet">
         <g id="arrow_out" transform="scale(0.3 0.3)">
          <a xlink:href="LRUCache_8h__incl_org.svg" target="_base">
           <rect id="button" ry="5" rx="5" y="6" x="6" height="38" width="38"
                fill="#f2f5e9" fill-opacity="0.5" stroke="#606060" stroke-width="1.0"/>
           <path id="arrow"
             d="M 11.500037,31.436501 C 11.940474,20.09759 22.043105,11.32322 32.158766,21.979434 L 37.068811,17.246167 C 37.068811,17.246167 37.088388,32 37.088388,32 L 22.160133,31.978069 C 22.160133,31.978069 26.997745,27.140456 26.997745,27.140456 C 18.528582,18.264221 13.291696,25.230495 11.500037,31.436501 z"
             style="fill:#404040;"/>
          </a>
         </g>
        </svg>
</svg>
