<?xml version="1.0" encoding="UTF-8" standalone="no"?>
<!DOCTYPE svg PUBLIC "-//W3C//DTD SVG 1.1//EN"
 "http://www.w3.org/Graphics/SVG/1.1/DTD/svg11.dtd">
<!-- Generated by graphviz version 2.38.0 (20140413.2041)
 -->
<!-- Title: /home/travis/build/hypro/hypro/src/hypro/representations/OrthogonalPolyhedron/NeighborhoodContainer.cpp Pages: 1 -->
<!--zoomable 553 -->
<svg id="main" version="1.1" xmlns="http://www.w3.org/2000/svg" xmlns:xlink="http://www.w3.org/1999/xlink" xml:space="preserve" onload="init(evt)">
<style type="text/css"><![CDATA[
.edge:hover path { stroke: red; }
.edge:hover polygon { stroke: red; fill: red; }
]]></style>
<script type="text/javascript"><![CDATA[
var edges = document.getElementsByTagName('g');
if (edges && edges.length) {
  for (var i=0;i<edges.length;i++) {
    if (edges[i].id.substr(0,4)=='edge') {
      edges[i].setAttribute('class','edge');
    }
  }
}
]]></script>
        <defs>
                <circle id="rim" cx="0" cy="0" r="7"/>
                <circle id="rim2" cx="0" cy="0" r="3.5"/>
                <g id="zoomPlus">
                        <use xlink:href="#rim" fill="#404040">
                                <set attributeName="fill" to="#808080" begin="zoomplus.mouseover" end="zoomplus.mouseout"/>
                        </use>
                        <path d="M-4,0h8M0,-4v8" fill="none" stroke="white" stroke-width="1.5" pointer-events="none"/>
                </g>
                <g id="zoomMin">
                        <use xlink:href="#rim" fill="#404040">
                                <set attributeName="fill" to="#808080" begin="zoomminus.mouseover" end="zoomminus.mouseout"/>
                        </use>
                        <path d="M-4,0h8" fill="none" stroke="white" stroke-width="1.5" pointer-events="none"/>
                </g>
                <g id="dirArrow">
                        <path fill="none" stroke="white" stroke-width="1.5" d="M0,-3.0v7 M-2.5,-0.5L0,-3.0L2.5,-0.5"/>
                </g>
               <g id="resetDef">
                       <use xlink:href="#rim2" fill="#404040">
                               <set attributeName="fill" to="#808080" begin="reset.mouseover" end="reset.mouseout"/>
                       </use>
               </g>
        </defs>

<script type="text/javascript">
var viewWidth = 1731;
var viewHeight = 553;
var sectionId = 'dynsection-0';
</script>
<script xlink:href="svgpan.js"/>
<svg id="graph" class="graph">
<g id="viewport">
<title>/home/travis/build/hypro/hypro/src/hypro/representations/OrthogonalPolyhedron/NeighborhoodContainer.cpp</title>
<polygon fill="white" stroke="none" points="-4,4 -4,-549 1726.5,-549 1726.5,4 -4,4"/>
<!-- Node1 -->
<g id="node1" class="node"><title>Node1</title>
<polygon fill="#bfbfbf" stroke="black" points="985,-492.5 985,-544.5 1190,-544.5 1190,-492.5 985,-492.5"/>
<text text-anchor="start" x="993" y="-532.5" font-family="Helvetica,sans-Serif" font-size="10.00">/home/travis/build</text>
<text text-anchor="start" x="993" y="-521.5" font-family="Helvetica,sans-Serif" font-size="10.00">/hypro/hypro/src/hypro</text>
<text text-anchor="start" x="993" y="-510.5" font-family="Helvetica,sans-Serif" font-size="10.00">/representations/OrthogonalPolyhedron</text>
<text text-anchor="middle" x="1087.5" y="-499.5" font-family="Helvetica,sans-Serif" font-size="10.00">/NeighborhoodContainer.cpp</text>
</g>
<!-- Node2 -->
<g id="node2" class="node"><title>Node2</title>
<g id="a_node2"><a xlink:href="NeighborhoodContainer_8h.html" target="_top" xlink:title="NeighborhoodContainer.h">
<polygon fill="white" stroke="black" points="1018,-436.5 1018,-455.5 1157,-455.5 1157,-436.5 1018,-436.5"/>
<text text-anchor="middle" x="1087.5" y="-443.5" font-family="Helvetica,sans-Serif" font-size="10.00">NeighborhoodContainer.h</text>
</a>
</g>
</g>
<!-- Node1&#45;&gt;Node2 -->
<g id="edge1" class="edge"><title>Node1&#45;&gt;Node2</title>
<path fill="none" stroke="midnightblue" d="M1087.5,-492.446C1087.5,-483.73 1087.5,-474.104 1087.5,-465.964"/>
<polygon fill="midnightblue" stroke="midnightblue" points="1091,-465.695 1087.5,-455.695 1084,-465.696 1091,-465.695"/>
</g>
<!-- Node3 -->
<g id="node3" class="node"><title>Node3</title>
<g id="a_node3"><a xlink:href="Vertex_8h.html" target="_top" xlink:title="../../datastructures\l/Vertex.h">
<polygon fill="white" stroke="black" points="1081,-369.5 1081,-399.5 1186,-399.5 1186,-369.5 1081,-369.5"/>
<text text-anchor="start" x="1089" y="-387.5" font-family="Helvetica,sans-Serif" font-size="10.00">../../datastructures</text>
<text text-anchor="middle" x="1133.5" y="-376.5" font-family="Helvetica,sans-Serif" font-size="10.00">/Vertex.h</text>
</a>
</g>
</g>
<!-- Node2&#45;&gt;Node3 -->
<g id="edge2" class="edge"><title>Node2&#45;&gt;Node3</title>
<path fill="none" stroke="midnightblue" d="M1094.09,-436.475C1099.91,-428.944 1108.66,-417.626 1116.44,-407.566"/>
<polygon fill="midnightblue" stroke="midnightblue" points="1119.31,-409.575 1122.66,-399.523 1113.77,-405.294 1119.31,-409.575"/>
</g>
<!-- Node21 -->
<g id="node21" class="node"><title>Node21</title>
<polygon fill="white" stroke="#bfbfbf" points="1032.5,-145.5 1032.5,-164.5 1070.5,-164.5 1070.5,-145.5 1032.5,-145.5"/>
<text text-anchor="middle" x="1051.5" y="-152.5" font-family="Helvetica,sans-Serif" font-size="10.00">map</text>
</g>
<!-- Node2&#45;&gt;Node21 -->
<g id="edge53" class="edge"><title>Node2&#45;&gt;Node21</title>
<path fill="none" stroke="midnightblue" d="M1081.8,-436.309C1069.69,-416.977 1042.5,-368.601 1042.5,-324 1042.5,-324 1042.5,-324 1042.5,-266 1042.5,-233.841 1046.37,-196.569 1049.03,-174.711"/>
<polygon fill="midnightblue" stroke="midnightblue" points="1052.54,-174.899 1050.32,-164.538 1045.59,-174.018 1052.54,-174.899"/>
</g>
<!-- Node4 -->
<g id="node4" class="node"><title>Node4</title>
<g id="a_node4"><a xlink:href="Point_8h.html" target="_top" xlink:title="Point.h">
<polygon fill="white" stroke="black" points="1118.5,-313.5 1118.5,-332.5 1168.5,-332.5 1168.5,-313.5 1118.5,-313.5"/>
<text text-anchor="middle" x="1143.5" y="-320.5" font-family="Helvetica,sans-Serif" font-size="10.00">Point.h</text>
</a>
</g>
</g>
<!-- Node3&#45;&gt;Node4 -->
<g id="edge3" class="edge"><title>Node3&#45;&gt;Node4</title>
<path fill="none" stroke="midnightblue" d="M1135.87,-369.399C1137.22,-361.377 1138.92,-351.233 1140.38,-342.569"/>
<polygon fill="midnightblue" stroke="midnightblue" points="1143.84,-343.1 1142.04,-332.658 1136.94,-341.939 1143.84,-343.1"/>
</g>
<!-- Node38 -->
<g id="node38" class="node"><title>Node38</title>
<polygon fill="white" stroke="#bfbfbf" points="1186.5,-313.5 1186.5,-332.5 1326.5,-332.5 1326.5,-313.5 1186.5,-313.5"/>
<text text-anchor="middle" x="1256.5" y="-320.5" font-family="Helvetica,sans-Serif" font-size="10.00">boost/functional/hash.hpp</text>
</g>
<!-- Node3&#45;&gt;Node38 -->
<g id="edge51" class="edge"><title>Node3&#45;&gt;Node38</title>
<path fill="none" stroke="midnightblue" d="M1162.65,-369.399C1182.92,-359.595 1209.74,-346.619 1229.52,-337.052"/>
<polygon fill="midnightblue" stroke="midnightblue" points="1231.12,-340.163 1238.6,-332.658 1228.08,-333.862 1231.12,-340.163"/>
</g>
<!-- Node39 -->
<g id="node39" class="node"><title>Node39</title>
<polygon fill="white" stroke="#bfbfbf" points="1070.5,-313.5 1070.5,-332.5 1100.5,-332.5 1100.5,-313.5 1070.5,-313.5"/>
<text text-anchor="middle" x="1085.5" y="-320.5" font-family="Helvetica,sans-Serif" font-size="10.00">list</text>
</g>
<!-- Node3&#45;&gt;Node39 -->
<g id="edge52" class="edge"><title>Node3&#45;&gt;Node39</title>
<path fill="none" stroke="midnightblue" d="M1122.12,-369.399C1115.15,-360.753 1106.19,-349.642 1098.87,-340.576"/>
<polygon fill="midnightblue" stroke="midnightblue" points="1101.49,-338.243 1092.48,-332.658 1096.04,-342.638 1101.49,-338.243"/>
</g>
<!-- Node5 -->
<g id="node5" class="node"><title>Node5</title>
<g id="a_node5"><a xlink:href="config_8h.html" target="_top" xlink:title="../config.h">
<polygon fill="white" stroke="black" points="869,-257.5 869,-276.5 932,-276.5 932,-257.5 869,-257.5"/>
<text text-anchor="middle" x="900.5" y="-264.5" font-family="Helvetica,sans-Serif" font-size="10.00">../config.h</text>
</a>
</g>
</g>
<!-- Node4&#45;&gt;Node5 -->
<g id="edge4" class="edge"><title>Node4&#45;&gt;Node5</title>
<path fill="none" stroke="midnightblue" d="M1118.28,-315.185C1115.33,-314.427 1112.35,-313.684 1109.5,-313 1051.65,-299.123 984.31,-284.983 942.041,-276.348"/>
<polygon fill="midnightblue" stroke="midnightblue" points="942.614,-272.893 932.117,-274.328 941.218,-279.753 942.614,-272.893"/>
</g>
<!-- Node8 -->
<g id="node8" class="node"><title>Node8</title>
<g id="a_node8"><a xlink:href="types_8h.html" target="_top" xlink:title="../types.h">
<polygon fill="white" stroke="black" points="707,-145.5 707,-164.5 768,-164.5 768,-145.5 707,-145.5"/>
<text text-anchor="middle" x="737.5" y="-152.5" font-family="Helvetica,sans-Serif" font-size="10.00">../types.h</text>
</a>
</g>
</g>
<!-- Node4&#45;&gt;Node8 -->
<g id="edge38" class="edge"><title>Node4&#45;&gt;Node8</title>
<path fill="none" stroke="midnightblue" d="M1118.33,-314.989C1115.36,-314.267 1112.37,-313.585 1109.5,-313 999.5,-290.6 960.729,-325.522 859.5,-277 809.689,-253.124 768.108,-200.483 748.911,-173.18"/>
<polygon fill="midnightblue" stroke="midnightblue" points="751.618,-170.939 743.078,-164.668 745.844,-174.896 751.618,-170.939"/>
</g>
<!-- Node14 -->
<g id="node14" class="node"><title>Node14</title>
<polygon fill="white" stroke="#bfbfbf" points="928.5,-84 928.5,-103 960.5,-103 960.5,-84 928.5,-84"/>
<text text-anchor="middle" x="944.5" y="-91" font-family="Helvetica,sans-Serif" font-size="10.00">set</text>
</g>
<!-- Node4&#45;&gt;Node14 -->
<g id="edge48" class="edge"><title>Node4&#45;&gt;Node14</title>
<path fill="none" stroke="midnightblue" d="M1152.52,-313.34C1160.57,-304.932 1171.8,-291.363 1176.5,-277 1191.12,-232.338 1184.55,-183.824 1144.5,-145 1119.76,-121.014 1019.19,-104.552 970.785,-97.857"/>
<polygon fill="midnightblue" stroke="midnightblue" points="971.13,-94.3719 960.752,-96.5065 970.196,-101.309 971.13,-94.3719"/>
</g>
<!-- Node23 -->
<g id="node23" class="node"><title>Node23</title>
<polygon fill="white" stroke="#bfbfbf" points="1089,-145.5 1089,-164.5 1136,-164.5 1136,-145.5 1089,-145.5"/>
<text text-anchor="middle" x="1112.5" y="-152.5" font-family="Helvetica,sans-Serif" font-size="10.00">vector</text>
</g>
<!-- Node4&#45;&gt;Node23 -->
<g id="edge49" class="edge"><title>Node4&#45;&gt;Node23</title>
<path fill="none" stroke="midnightblue" d="M1130.72,-313.369C1120.11,-305.36 1105.77,-292.379 1099.5,-277 1085.47,-242.574 1096.87,-198.307 1105.37,-173.992"/>
<polygon fill="midnightblue" stroke="midnightblue" points="1108.65,-175.198 1108.86,-164.605 1102.09,-172.757 1108.65,-175.198"/>
</g>
<!-- Node31 -->
<g id="node31" class="node"><title>Node31</title>
<g id="a_node31"><a xlink:href="VariablePool_8h.html" target="_top" xlink:title="../util/VariablePool.h">
<polygon fill="white" stroke="black" points="1192.5,-201.5 1192.5,-220.5 1302.5,-220.5 1302.5,-201.5 1192.5,-201.5"/>
<text text-anchor="middle" x="1247.5" y="-208.5" font-family="Helvetica,sans-Serif" font-size="10.00">../util/VariablePool.h</text>
</a>
</g>
</g>
<!-- Node4&#45;&gt;Node31 -->
<g id="edge39" class="edge"><title>Node4&#45;&gt;Node31</title>
<path fill="none" stroke="midnightblue" d="M1160.51,-313.481C1175.1,-305.545 1196.01,-292.607 1210.5,-277 1223.31,-263.2 1233.49,-244.175 1239.89,-230.273"/>
<polygon fill="midnightblue" stroke="midnightblue" points="1243.23,-231.377 1244.04,-220.813 1236.82,-228.565 1243.23,-231.377"/>
</g>
<!-- Node37 -->
<g id="node37" class="node"><title>Node37</title>
<polygon fill="white" stroke="#bfbfbf" points="1109,-257.5 1109,-276.5 1168,-276.5 1168,-257.5 1109,-257.5"/>
<text text-anchor="middle" x="1138.5" y="-264.5" font-family="Helvetica,sans-Serif" font-size="10.00">Point.tpp</text>
</g>
<!-- Node4&#45;&gt;Node37 -->
<g id="edge50" class="edge"><title>Node4&#45;&gt;Node37</title>
<path fill="none" stroke="midnightblue" d="M1142.67,-313.083C1142.02,-306.006 1141.08,-295.861 1140.26,-286.986"/>
<polygon fill="midnightblue" stroke="midnightblue" points="1143.72,-286.386 1139.31,-276.751 1136.75,-287.031 1143.72,-286.386"/>
</g>
<!-- Node6 -->
<g id="node6" class="node"><title>Node6</title>
<g id="a_node6"><a xlink:href="flags_8h.html" target="_top" xlink:title="flags.h">
<polygon fill="white" stroke="black" points="966.5,-145.5 966.5,-164.5 1014.5,-164.5 1014.5,-145.5 966.5,-145.5"/>
<text text-anchor="middle" x="990.5" y="-152.5" font-family="Helvetica,sans-Serif" font-size="10.00">flags.h</text>
</a>
</g>
</g>
<!-- Node5&#45;&gt;Node6 -->
<g id="edge5" class="edge"><title>Node5&#45;&gt;Node6</title>
<path fill="none" stroke="midnightblue" d="M932.037,-257.365C950.476,-250.596 972.432,-239.201 984.5,-221 993.405,-207.57 994.269,-189.007 993.277,-175.156"/>
<polygon fill="midnightblue" stroke="midnightblue" points="996.715,-174.402 992.143,-164.845 989.757,-175.167 996.715,-174.402"/>
</g>
<!-- Node7 -->
<g id="node7" class="node"><title>Node7</title>
<g id="a_node7"><a xlink:href="util_2convenienceOperators_8h.html" target="_top" xlink:title="util/convenienceOperators.h">
<polygon fill="white" stroke="black" points="825,-201.5 825,-220.5 976,-220.5 976,-201.5 825,-201.5"/>
<text text-anchor="middle" x="900.5" y="-208.5" font-family="Helvetica,sans-Serif" font-size="10.00">util/convenienceOperators.h</text>
</a>
</g>
</g>
<!-- Node5&#45;&gt;Node7 -->
<g id="edge6" class="edge"><title>Node5&#45;&gt;Node7</title>
<path fill="none" stroke="midnightblue" d="M900.5,-257.083C900.5,-250.006 900.5,-239.861 900.5,-230.986"/>
<polygon fill="midnightblue" stroke="midnightblue" points="904,-230.751 900.5,-220.751 897,-230.751 904,-230.751"/>
</g>
<!-- Node24 -->
<g id="node24" class="node"><title>Node24</title>
<g id="a_node24"><a xlink:href="Logger_8h.html" target="_top" xlink:title="util/logging/Logger.h">
<polygon fill="white" stroke="black" points="430,-201.5 430,-220.5 543,-220.5 543,-201.5 430,-201.5"/>
<text text-anchor="middle" x="486.5" y="-208.5" font-family="Helvetica,sans-Serif" font-size="10.00">util/logging/Logger.h</text>
</a>
</g>
</g>
<!-- Node5&#45;&gt;Node24 -->
<g id="edge30" class="edge"><title>Node5&#45;&gt;Node24</title>
<path fill="none" stroke="midnightblue" d="M868.702,-261.852C801.518,-253.089 643.892,-232.529 553.446,-220.732"/>
<polygon fill="midnightblue" stroke="midnightblue" points="553.666,-217.231 543.297,-219.408 552.761,-224.172 553.666,-217.231"/>
</g>
<!-- Node7&#45;&gt;Node8 -->
<g id="edge7" class="edge"><title>Node7&#45;&gt;Node8</title>
<path fill="none" stroke="midnightblue" d="M874.672,-201.444C847.251,-192.359 803.723,-177.939 773.068,-167.783"/>
<polygon fill="midnightblue" stroke="midnightblue" points="773.8,-164.339 763.207,-164.516 771.599,-170.984 773.8,-164.339"/>
</g>
<!-- Node13 -->
<g id="node13" class="node"><title>Node13</title>
<polygon fill="white" stroke="#bfbfbf" points="1151.5,-11.5 1151.5,-30.5 1197.5,-30.5 1197.5,-11.5 1151.5,-11.5"/>
<text text-anchor="middle" x="1174.5" y="-18.5" font-family="Helvetica,sans-Serif" font-size="10.00">iosfwd</text>
</g>
<!-- Node7&#45;&gt;Node13 -->
<g id="edge25" class="edge"><title>Node7&#45;&gt;Node13</title>
<path fill="none" stroke="midnightblue" d="M898.694,-201.442C894.301,-178.024 885.752,-112.355 919.5,-78 989.547,-6.69433 1047.7,-76.5386 1141.5,-42 1145.74,-40.4375 1150.04,-38.3085 1154.08,-36.0204"/>
<polygon fill="midnightblue" stroke="midnightblue" points="1156.19,-38.8286 1162.84,-30.5844 1152.5,-32.8793 1156.19,-38.8286"/>
</g>
<!-- Node7&#45;&gt;Node14 -->
<g id="edge27" class="edge"><title>Node7&#45;&gt;Node14</title>
<path fill="none" stroke="midnightblue" d="M903.807,-201.319C910.942,-182.59 927.911,-138.046 937.531,-112.792"/>
<polygon fill="midnightblue" stroke="midnightblue" points="940.865,-113.873 941.154,-103.282 934.324,-111.381 940.865,-113.873"/>
</g>
<!-- Node7&#45;&gt;Node21 -->
<g id="edge26" class="edge"><title>Node7&#45;&gt;Node21</title>
<path fill="none" stroke="midnightblue" d="M924.426,-201.444C951.09,-191.908 994.191,-176.495 1022.69,-166.304"/>
<polygon fill="midnightblue" stroke="midnightblue" points="1024.23,-169.47 1032.47,-162.807 1021.87,-162.878 1024.23,-169.47"/>
</g>
<!-- Node22 -->
<g id="node22" class="node"><title>Node22</title>
<polygon fill="white" stroke="#bfbfbf" points="830.5,-145.5 830.5,-164.5 872.5,-164.5 872.5,-145.5 830.5,-145.5"/>
<text text-anchor="middle" x="851.5" y="-152.5" font-family="Helvetica,sans-Serif" font-size="10.00">utility</text>
</g>
<!-- Node7&#45;&gt;Node22 -->
<g id="edge28" class="edge"><title>Node7&#45;&gt;Node22</title>
<path fill="none" stroke="midnightblue" d="M892.409,-201.083C885.345,-193.298 874.912,-181.801 866.351,-172.367"/>
<polygon fill="midnightblue" stroke="midnightblue" points="868.753,-169.805 859.441,-164.751 863.569,-174.509 868.753,-169.805"/>
</g>
<!-- Node7&#45;&gt;Node23 -->
<g id="edge29" class="edge"><title>Node7&#45;&gt;Node23</title>
<path fill="none" stroke="midnightblue" d="M935.202,-201.494C969.328,-193.08 1023.15,-179.684 1079.01,-165.09"/>
<polygon fill="midnightblue" stroke="midnightblue" points="1079.94,-168.466 1088.72,-162.546 1078.16,-161.694 1079.94,-168.466"/>
</g>
<!-- Node9 -->
<g id="node9" class="node"><title>Node9</title>
<polygon fill="white" stroke="#bfbfbf" points="297.5,-11.5 297.5,-30.5 431.5,-30.5 431.5,-11.5 297.5,-11.5"/>
<text text-anchor="middle" x="364.5" y="-18.5" font-family="Helvetica,sans-Serif" font-size="10.00">carl/numbers/numbers.h</text>
</g>
<!-- Node8&#45;&gt;Node9 -->
<g id="edge8" class="edge"><title>Node8&#45;&gt;Node9</title>
<path fill="none" stroke="midnightblue" d="M722.718,-145.403C708.387,-136.831 686.267,-122.962 668.5,-109 652.678,-96.5666 653.456,-87.084 635.5,-78 556.86,-38.2156 526.508,-61.2278 440.5,-42 428.76,-39.3754 416.091,-36.1862 404.526,-33.1327"/>
<polygon fill="midnightblue" stroke="midnightblue" points="405.264,-29.7069 394.699,-30.5018 403.453,-36.4688 405.264,-29.7069"/>
</g>
<!-- Node10 -->
<g id="node10" class="node"><title>Node10</title>
<polygon fill="white" stroke="#bfbfbf" points="418.5,-84 418.5,-103 504.5,-103 504.5,-84 418.5,-84"/>
<text text-anchor="middle" x="461.5" y="-91" font-family="Helvetica,sans-Serif" font-size="10.00">carl/util/hash.h</text>
</g>
<!-- Node8&#45;&gt;Node10 -->
<g id="edge9" class="edge"><title>Node8&#45;&gt;Node10</title>
<path fill="none" stroke="midnightblue" d="M706.944,-147.032C703.758,-146.333 700.565,-145.644 697.5,-145 615.955,-127.853 594.585,-128.206 513.5,-109 509.177,-107.976 504.671,-106.834 500.2,-105.653"/>
<polygon fill="midnightblue" stroke="midnightblue" points="501.115,-102.275 490.548,-103.035 499.283,-109.031 501.115,-102.275"/>
</g>
<!-- Node11 -->
<g id="node11" class="node"><title>Node11</title>
<polygon fill="white" stroke="#bfbfbf" points="522.5,-84 522.5,-103 626.5,-103 626.5,-84 522.5,-84"/>
<text text-anchor="middle" x="574.5" y="-91" font-family="Helvetica,sans-Serif" font-size="10.00">eigen3/Eigen/Core</text>
</g>
<!-- Node8&#45;&gt;Node11 -->
<g id="edge10" class="edge"><title>Node8&#45;&gt;Node11</title>
<path fill="none" stroke="midnightblue" d="M714.146,-145.475C686.186,-135.269 639.174,-118.108 607.509,-106.549"/>
<polygon fill="midnightblue" stroke="midnightblue" points="608.405,-103.15 597.811,-103.009 606.004,-109.726 608.405,-103.15"/>
</g>
<!-- Node12 -->
<g id="node12" class="node"><title>Node12</title>
<polygon fill="white" stroke="#bfbfbf" points="449.5,-11.5 449.5,-30.5 561.5,-30.5 561.5,-11.5 449.5,-11.5"/>
<text text-anchor="middle" x="505.5" y="-18.5" font-family="Helvetica,sans-Serif" font-size="10.00">eigen3/Eigen/Dense</text>
</g>
<!-- Node8&#45;&gt;Node12 -->
<g id="edge11" class="edge"><title>Node8&#45;&gt;Node12</title>
<path fill="none" stroke="midnightblue" d="M731.912,-145.41C721.346,-129.811 696.929,-96.7188 668.5,-78 657.696,-70.8864 587.116,-47.8319 542.444,-33.6176"/>
<polygon fill="midnightblue" stroke="midnightblue" points="543.38,-30.2428 532.79,-30.555 541.264,-36.9151 543.38,-30.2428"/>
</g>
<!-- Node8&#45;&gt;Node13 -->
<g id="edge12" class="edge"><title>Node8&#45;&gt;Node13</title>
<path fill="none" stroke="midnightblue" d="M761.524,-145.354C783.254,-137.152 815.834,-123.892 842.5,-109 863.385,-97.3359 864.258,-86.8066 886.5,-78 992.919,-35.8635 1033.69,-80.4458 1141.5,-42 1145.76,-40.4811 1150.07,-38.3727 1154.1,-36.0913"/>
<polygon fill="midnightblue" stroke="midnightblue" points="1156.22,-38.8978 1162.87,-30.65 1152.52,-32.9505 1156.22,-38.8978"/>
</g>
<!-- Node8&#45;&gt;Node14 -->
<g id="edge13" class="edge"><title>Node8&#45;&gt;Node14</title>
<path fill="none" stroke="midnightblue" d="M767.158,-145.475C807.725,-133.814 879.873,-113.076 918.457,-101.986"/>
<polygon fill="midnightblue" stroke="midnightblue" points="919.752,-105.255 928.396,-99.129 917.818,-98.5278 919.752,-105.255"/>
</g>
<!-- Node15 -->
<g id="node15" class="node"><title>Node15</title>
<g id="a_node15"><a xlink:href="adaptions__eigen_8h.html" target="_top" xlink:title="util/adaptions_eigen\l/adaptions_eigen.h">
<polygon fill="white" stroke="black" points="721,-78.5 721,-108.5 834,-108.5 834,-78.5 721,-78.5"/>
<text text-anchor="start" x="729" y="-96.5" font-family="Helvetica,sans-Serif" font-size="10.00">util/adaptions_eigen</text>
<text text-anchor="middle" x="777.5" y="-85.5" font-family="Helvetica,sans-Serif" font-size="10.00">/adaptions_eigen.h</text>
</a>
</g>
</g>
<!-- Node8&#45;&gt;Node15 -->
<g id="edge14" class="edge"><title>Node8&#45;&gt;Node15</title>
<path fill="none" stroke="midnightblue" d="M738.33,-145.475C741.751,-137.944 748.811,-126.626 756.12,-116.566"/>
<polygon fill="midnightblue" stroke="midnightblue" points="758.97,-118.6 762.243,-108.523 753.401,-114.36 758.97,-118.6"/>
</g>
<!-- Node15&#45;&gt;Node5 -->
<g id="edge15" class="edge"><title>Node15&#45;&gt;Node5</title>
<path fill="none" stroke="midnightblue" d="M778.259,-108.677C780.305,-133.961 787.838,-187.338 815.5,-221 827.729,-235.882 846.197,-246.489 862.798,-253.653"/>
<polygon fill="midnightblue" stroke="midnightblue" points="861.711,-256.988 872.295,-257.479 864.327,-250.495 861.711,-256.988"/>
</g>
<!-- Node15&#45;&gt;Node8 -->
<g id="edge16" class="edge"><title>Node15&#45;&gt;Node8</title>
<path fill="none" stroke="midnightblue" d="M773.903,-108.523C769.184,-117.214 761.747,-128.417 754.685,-137.53"/>
<polygon fill="midnightblue" stroke="midnightblue" points="751.795,-135.534 748.132,-145.475 757.195,-139.988 751.795,-135.534"/>
</g>
<!-- Node15&#45;&gt;Node9 -->
<g id="edge18" class="edge"><title>Node15&#45;&gt;Node9</title>
<path fill="none" stroke="midnightblue" d="M720.838,-84.7696C639.285,-73.513 492.868,-52.781 440.5,-42 428.511,-39.5317 415.59,-36.337 403.864,-33.2282"/>
<polygon fill="midnightblue" stroke="midnightblue" points="404.487,-29.771 393.92,-30.5388 402.659,-36.5283 404.487,-29.771"/>
</g>
<!-- Node15&#45;&gt;Node12 -->
<g id="edge19" class="edge"><title>Node15&#45;&gt;Node12</title>
<path fill="none" stroke="midnightblue" d="M720.598,-79.5752C678.882,-69.8676 620.962,-55.9057 570.5,-42 561.138,-39.4201 551.082,-36.4335 541.744,-33.5677"/>
<polygon fill="midnightblue" stroke="midnightblue" points="542.549,-30.1528 531.961,-30.5306 540.474,-36.8381 542.549,-30.1528"/>
</g>
<!-- Node15&#45;&gt;Node13 -->
<g id="edge22" class="edge"><title>Node15&#45;&gt;Node13</title>
<path fill="none" stroke="midnightblue" d="M834.007,-80.5396C838.9,-79.6316 843.782,-78.7704 848.5,-78 977.987,-56.857 1017.53,-84.9564 1141.5,-42 1145.96,-40.453 1150.47,-38.2403 1154.66,-35.8461"/>
<polygon fill="midnightblue" stroke="midnightblue" points="1156.57,-38.7799 1163.19,-30.5031 1152.86,-32.8488 1156.57,-38.7799"/>
</g>
<!-- Node16 -->
<g id="node16" class="node"><title>Node16</title>
<g id="a_node16"><a xlink:href="transformation_8h.html" target="_top" xlink:title="transformation.h">
<polygon fill="white" stroke="black" points="798,-11.5 798,-30.5 895,-30.5 895,-11.5 798,-11.5"/>
<text text-anchor="middle" x="846.5" y="-18.5" font-family="Helvetica,sans-Serif" font-size="10.00">transformation.h</text>
</a>
</g>
</g>
<!-- Node15&#45;&gt;Node16 -->
<g id="edge17" class="edge"><title>Node15&#45;&gt;Node16</title>
<path fill="none" stroke="midnightblue" d="M791.463,-78.2333C802.834,-66.6154 818.884,-50.2163 830.719,-38.1241"/>
<polygon fill="midnightblue" stroke="midnightblue" points="833.303,-40.488 837.796,-30.8932 828.3,-35.5917 833.303,-40.488"/>
</g>
<!-- Node17 -->
<g id="node17" class="node"><title>Node17</title>
<polygon fill="white" stroke="#bfbfbf" points="913.5,-11.5 913.5,-30.5 1051.5,-30.5 1051.5,-11.5 913.5,-11.5"/>
<text text-anchor="middle" x="982.5" y="-18.5" font-family="Helvetica,sans-Serif" font-size="10.00">eigen3/Eigen/Eigenvalues</text>
</g>
<!-- Node15&#45;&gt;Node17 -->
<g id="edge20" class="edge"><title>Node15&#45;&gt;Node17</title>
<path fill="none" stroke="midnightblue" d="M818.492,-78.4027C856.514,-65.3269 912.454,-46.089 948.178,-33.8034"/>
<polygon fill="midnightblue" stroke="midnightblue" points="949.368,-37.0955 957.686,-30.5336 947.091,-30.476 949.368,-37.0955"/>
</g>
<!-- Node18 -->
<g id="node18" class="node"><title>Node18</title>
<polygon fill="white" stroke="#bfbfbf" points="1070,-11.5 1070,-30.5 1133,-30.5 1133,-11.5 1070,-11.5"/>
<text text-anchor="middle" x="1101.5" y="-18.5" font-family="Helvetica,sans-Serif" font-size="10.00">functional</text>
</g>
<!-- Node15&#45;&gt;Node18 -->
<g id="edge21" class="edge"><title>Node15&#45;&gt;Node18</title>
<path fill="none" stroke="midnightblue" d="M834.048,-80.775C838.932,-79.8159 843.801,-78.8786 848.5,-78 942.443,-60.4359 969.514,-71.2481 1060.5,-42 1066.06,-40.2125 1071.82,-37.795 1077.2,-35.2589"/>
<polygon fill="midnightblue" stroke="midnightblue" points="1078.98,-38.2819 1086.36,-30.6762 1075.85,-32.0221 1078.98,-38.2819"/>
</g>
<!-- Node19 -->
<g id="node19" class="node"><title>Node19</title>
<polygon fill="white" stroke="#bfbfbf" points="579.5,-11.5 579.5,-30.5 621.5,-30.5 621.5,-11.5 579.5,-11.5"/>
<text text-anchor="middle" x="600.5" y="-18.5" font-family="Helvetica,sans-Serif" font-size="10.00">limits</text>
</g>
<!-- Node15&#45;&gt;Node19 -->
<g id="edge23" class="edge"><title>Node15&#45;&gt;Node19</title>
<path fill="none" stroke="midnightblue" d="M726.196,-78.4272C697.348,-69.646 661.096,-57.1378 630.5,-42 627.043,-40.2894 623.511,-38.2433 620.142,-36.1226"/>
<polygon fill="midnightblue" stroke="midnightblue" points="622.021,-33.1684 611.764,-30.5131 618.126,-38.985 622.021,-33.1684"/>
</g>
<!-- Node20 -->
<g id="node20" class="node"><title>Node20</title>
<polygon fill="white" stroke="#bfbfbf" points="639.5,-0.5 639.5,-41.5 779.5,-41.5 779.5,-0.5 639.5,-0.5"/>
<text text-anchor="start" x="647.5" y="-29.5" font-family="Helvetica,sans-Serif" font-size="10.00">eigen3/unsupported</text>
<text text-anchor="start" x="647.5" y="-18.5" font-family="Helvetica,sans-Serif" font-size="10.00">/Eigen/src/MatrixFunctions</text>
<text text-anchor="middle" x="709.5" y="-7.5" font-family="Helvetica,sans-Serif" font-size="10.00">/MatrixExponential.h</text>
</g>
<!-- Node15&#45;&gt;Node20 -->
<g id="edge24" class="edge"><title>Node15&#45;&gt;Node20</title>
<path fill="none" stroke="midnightblue" d="M763.739,-78.2333C755.637,-69.833 745.123,-58.933 735.512,-48.9688"/>
<polygon fill="midnightblue" stroke="midnightblue" points="737.855,-46.3562 728.394,-41.5884 732.817,-51.2158 737.855,-46.3562"/>
</g>
<!-- Node24&#45;&gt;Node6 -->
<g id="edge31" class="edge"><title>Node24&#45;&gt;Node6</title>
<path fill="none" stroke="midnightblue" d="M543.335,-203.91C648.63,-192.629 871.054,-168.798 956.279,-159.667"/>
<polygon fill="midnightblue" stroke="midnightblue" points="956.871,-163.123 966.441,-158.578 956.125,-156.163 956.871,-163.123"/>
</g>
<!-- Node25 -->
<g id="node25" class="node"><title>Node25</title>
<polygon fill="white" stroke="#bfbfbf" points="173.5,-145.5 173.5,-164.5 327.5,-164.5 327.5,-145.5 173.5,-145.5"/>
<text text-anchor="middle" x="250.5" y="-152.5" font-family="Helvetica,sans-Serif" font-size="10.00">carl/io/streamingOperators.h</text>
</g>
<!-- Node24&#45;&gt;Node25 -->
<g id="edge32" class="edge"><title>Node24&#45;&gt;Node25</title>
<path fill="none" stroke="midnightblue" d="M449.105,-201.444C408.108,-192.063 342.246,-176.993 297.716,-166.804"/>
<polygon fill="midnightblue" stroke="midnightblue" points="298.249,-163.335 287.72,-164.516 296.687,-170.159 298.249,-163.335"/>
</g>
<!-- Node26 -->
<g id="node26" class="node"><title>Node26</title>
<polygon fill="white" stroke="#bfbfbf" points="346,-145.5 346,-164.5 405,-164.5 405,-145.5 346,-145.5"/>
<text text-anchor="middle" x="375.5" y="-152.5" font-family="Helvetica,sans-Serif" font-size="10.00">iostream</text>
</g>
<!-- Node24&#45;&gt;Node26 -->
<g id="edge33" class="edge"><title>Node24&#45;&gt;Node26</title>
<path fill="none" stroke="midnightblue" d="M468.666,-201.324C450.784,-192.625 423.025,-179.12 402.454,-169.113"/>
<polygon fill="midnightblue" stroke="midnightblue" points="403.813,-165.882 393.29,-164.655 400.751,-172.177 403.813,-165.882"/>
</g>
<!-- Node27 -->
<g id="node27" class="node"><title>Node27</title>
<polygon fill="white" stroke="#bfbfbf" points="423.5,-145.5 423.5,-164.5 479.5,-164.5 479.5,-145.5 423.5,-145.5"/>
<text text-anchor="middle" x="451.5" y="-152.5" font-family="Helvetica,sans-Serif" font-size="10.00">sstream</text>
</g>
<!-- Node24&#45;&gt;Node27 -->
<g id="edge34" class="edge"><title>Node24&#45;&gt;Node27</title>
<path fill="none" stroke="midnightblue" d="M480.72,-201.083C475.828,-193.534 468.673,-182.495 462.667,-173.23"/>
<polygon fill="midnightblue" stroke="midnightblue" points="465.548,-171.239 457.172,-164.751 459.674,-175.046 465.548,-171.239"/>
</g>
<!-- Node28 -->
<g id="node28" class="node"><title>Node28</title>
<polygon fill="white" stroke="#bfbfbf" points="497.5,-145.5 497.5,-164.5 545.5,-164.5 545.5,-145.5 497.5,-145.5"/>
<text text-anchor="middle" x="521.5" y="-152.5" font-family="Helvetica,sans-Serif" font-size="10.00">thread</text>
</g>
<!-- Node24&#45;&gt;Node28 -->
<g id="edge35" class="edge"><title>Node24&#45;&gt;Node28</title>
<path fill="none" stroke="midnightblue" d="M492.28,-201.083C497.172,-193.534 504.327,-182.495 510.333,-173.23"/>
<polygon fill="midnightblue" stroke="midnightblue" points="513.326,-175.046 515.828,-164.751 507.452,-171.239 513.326,-175.046"/>
</g>
<!-- Node29 -->
<g id="node29" class="node"><title>Node29</title>
<polygon fill="white" stroke="#bfbfbf" points="564,-145.5 564,-164.5 689,-164.5 689,-145.5 564,-145.5"/>
<text text-anchor="middle" x="626.5" y="-152.5" font-family="Helvetica,sans-Serif" font-size="10.00">carl/core/carlLogging.h</text>
</g>
<!-- Node24&#45;&gt;Node29 -->
<g id="edge36" class="edge"><title>Node24&#45;&gt;Node29</title>
<path fill="none" stroke="midnightblue" d="M508.683,-201.444C531.928,-192.478 568.649,-178.314 594.915,-168.183"/>
<polygon fill="midnightblue" stroke="midnightblue" points="596.35,-171.381 604.42,-164.516 593.831,-164.85 596.35,-171.381"/>
</g>
<!-- Node30 -->
<g id="node30" class="node"><title>Node30</title>
<polygon fill="white" stroke="#bfbfbf" points="0,-145.5 0,-164.5 155,-164.5 155,-145.5 0,-145.5"/>
<text text-anchor="middle" x="77.5" y="-152.5" font-family="Helvetica,sans-Serif" font-size="10.00">carl/core/carlLoggingHelper.h</text>
</g>
<!-- Node24&#45;&gt;Node30 -->
<g id="edge37" class="edge"><title>Node24&#45;&gt;Node30</title>
<path fill="none" stroke="midnightblue" d="M429.63,-202.492C357.221,-192.931 231.935,-176.39 151.972,-165.833"/>
<polygon fill="midnightblue" stroke="midnightblue" points="152.341,-162.351 141.969,-164.512 151.425,-169.291 152.341,-162.351"/>
</g>
<!-- Node31&#45;&gt;Node6 -->
<g id="edge40" class="edge"><title>Node31&#45;&gt;Node6</title>
<path fill="none" stroke="midnightblue" d="M1200.1,-201.447C1156.75,-193.407 1090.66,-180.605 1024.38,-165.086"/>
<polygon fill="midnightblue" stroke="midnightblue" points="1025.14,-161.669 1014.6,-162.777 1023.53,-168.481 1025.14,-161.669"/>
</g>
<!-- Node31&#45;&gt;Node21 -->
<g id="edge46" class="edge"><title>Node31&#45;&gt;Node21</title>
<path fill="none" stroke="midnightblue" d="M1213.58,-201.437C1181.54,-193.235 1131.94,-180.24 1080.39,-165.161"/>
<polygon fill="midnightblue" stroke="midnightblue" points="1081.32,-161.788 1070.74,-162.322 1079.35,-168.503 1081.32,-161.788"/>
</g>
<!-- Node31&#45;&gt;Node23 -->
<g id="edge47" class="edge"><title>Node31&#45;&gt;Node23</title>
<path fill="none" stroke="midnightblue" d="M1226.11,-201.444C1203.79,-192.517 1168.6,-178.439 1143.29,-168.317"/>
<polygon fill="midnightblue" stroke="midnightblue" points="1144.38,-164.981 1133.79,-164.516 1141.78,-171.48 1144.38,-164.981"/>
</g>
<!-- Node32 -->
<g id="node32" class="node"><title>Node32</title>
<polygon fill="white" stroke="#bfbfbf" points="1192.5,-145.5 1192.5,-164.5 1254.5,-164.5 1254.5,-145.5 1192.5,-145.5"/>
<text text-anchor="middle" x="1223.5" y="-152.5" font-family="Helvetica,sans-Serif" font-size="10.00">algorithm</text>
</g>
<!-- Node31&#45;&gt;Node32 -->
<g id="edge41" class="edge"><title>Node31&#45;&gt;Node32</title>
<path fill="none" stroke="midnightblue" d="M1243.54,-201.083C1240.29,-193.77 1235.58,-183.181 1231.55,-174.103"/>
<polygon fill="midnightblue" stroke="midnightblue" points="1234.65,-172.468 1227.39,-164.751 1228.25,-175.311 1234.65,-172.468"/>
</g>
<!-- Node33 -->
<g id="node33" class="node"><title>Node33</title>
<polygon fill="white" stroke="#bfbfbf" points="1272.5,-145.5 1272.5,-164.5 1380.5,-164.5 1380.5,-145.5 1272.5,-145.5"/>
<text text-anchor="middle" x="1326.5" y="-152.5" font-family="Helvetica,sans-Serif" font-size="10.00">carl/core/Variable.h</text>
</g>
<!-- Node31&#45;&gt;Node33 -->
<g id="edge42" class="edge"><title>Node31&#45;&gt;Node33</title>
<path fill="none" stroke="midnightblue" d="M1260.19,-201.324C1272.4,-192.979 1291.08,-180.212 1305.5,-170.352"/>
<polygon fill="midnightblue" stroke="midnightblue" points="1307.56,-173.187 1313.84,-164.655 1303.61,-167.408 1307.56,-173.187"/>
</g>
<!-- Node34 -->
<g id="node34" class="node"><title>Node34</title>
<polygon fill="white" stroke="#bfbfbf" points="1398.5,-145.5 1398.5,-164.5 1526.5,-164.5 1526.5,-145.5 1398.5,-145.5"/>
<text text-anchor="middle" x="1462.5" y="-152.5" font-family="Helvetica,sans-Serif" font-size="10.00">carl/core/VariablePool.h</text>
</g>
<!-- Node31&#45;&gt;Node34 -->
<g id="edge43" class="edge"><title>Node31&#45;&gt;Node34</title>
<path fill="none" stroke="midnightblue" d="M1281.57,-201.444C1318.68,-192.122 1378.16,-177.183 1418.71,-166.997"/>
<polygon fill="midnightblue" stroke="midnightblue" points="1419.75,-170.347 1428.59,-164.516 1418.04,-163.558 1419.75,-170.347"/>
</g>
<!-- Node35 -->
<g id="node35" class="node"><title>Node35</title>
<polygon fill="white" stroke="#bfbfbf" points="1544.5,-145.5 1544.5,-164.5 1652.5,-164.5 1652.5,-145.5 1544.5,-145.5"/>
<text text-anchor="middle" x="1598.5" y="-152.5" font-family="Helvetica,sans-Serif" font-size="10.00">carl/util/Singleton.h</text>
</g>
<!-- Node31&#45;&gt;Node35 -->
<g id="edge44" class="edge"><title>Node31&#45;&gt;Node35</title>
<path fill="none" stroke="midnightblue" d="M1302.73,-201.503C1365.62,-191.827 1468.23,-176.042 1534.54,-165.84"/>
<polygon fill="midnightblue" stroke="midnightblue" points="1535.11,-169.294 1544.46,-164.314 1534.04,-162.376 1535.11,-169.294"/>
</g>
<!-- Node36 -->
<g id="node36" class="node"><title>Node36</title>
<polygon fill="white" stroke="#bfbfbf" points="1670.5,-145.5 1670.5,-164.5 1722.5,-164.5 1722.5,-145.5 1670.5,-145.5"/>
<text text-anchor="middle" x="1696.5" y="-152.5" font-family="Helvetica,sans-Serif" font-size="10.00">cassert</text>
</g>
<!-- Node31&#45;&gt;Node36 -->
<g id="edge45" class="edge"><title>Node31&#45;&gt;Node36</title>
<path fill="none" stroke="midnightblue" d="M1302.78,-206.523C1380.55,-201.073 1526.81,-188.786 1660.23,-164.997"/>
<polygon fill="midnightblue" stroke="midnightblue" points="1661,-168.414 1670.22,-163.19 1659.75,-161.526 1661,-168.414"/>
</g>
</g>
</svg>
        <g id="navigator" transform="translate(0 0)" fill="#404254">
                <rect fill="#f2f5e9" fill-opacity="0.5" stroke="#606060" stroke-width=".5" x="0" y="0" width="60" height="60"/>
                <use id="zoomplus" xlink:href="#zoomPlus" x="17" y="9" onmousedown="handleZoom(evt,'in')"/>
                <use id="zoomminus" xlink:href="#zoomMin" x="42" y="9" onmousedown="handleZoom(evt,'out')"/>
                <use id="reset" xlink:href="#resetDef" x="30" y="36" onmousedown="handleReset()"/>
                <g id="arrowUp" xlink:href="#dirArrow" transform="translate(30 24)" onmousedown="handlePan(0,-1)">
                  <use xlink:href="#rim" fill="#404040">
                        <set attributeName="fill" to="#808080" begin="arrowUp.mouseover" end="arrowUp.mouseout"/>
                  </use>
                  <path fill="none" stroke="white" stroke-width="1.5" d="M0,-3.0v7 M-2.5,-0.5L0,-3.0L2.5,-0.5"/>
                </g>
                <g id="arrowRight" xlink:href="#dirArrow" transform="rotate(90) translate(36 -43)" onmousedown="handlePan(1,0)">
                  <use xlink:href="#rim" fill="#404040">
                        <set attributeName="fill" to="#808080" begin="arrowRight.mouseover" end="arrowRight.mouseout"/>
                  </use>
                  <path fill="none" stroke="white" stroke-width="1.5" d="M0,-3.0v7 M-2.5,-0.5L0,-3.0L2.5,-0.5"/>
                </g>
                <g id="arrowDown" xlink:href="#dirArrow" transform="rotate(180) translate(-30 -48)" onmousedown="handlePan(0,1)">
                  <use xlink:href="#rim" fill="#404040">
                        <set attributeName="fill" to="#808080" begin="arrowDown.mouseover" end="arrowDown.mouseout"/>
                  </use>
                  <path fill="none" stroke="white" stroke-width="1.5" d="M0,-3.0v7 M-2.5,-0.5L0,-3.0L2.5,-0.5"/>
                </g>
                <g id="arrowLeft" xlink:href="#dirArrow" transform="rotate(270) translate(-36 17)" onmousedown="handlePan(-1,0)">
                  <use xlink:href="#rim" fill="#404040">
                        <set attributeName="fill" to="#808080" begin="arrowLeft.mouseover" end="arrowLeft.mouseout"/>
                  </use>
                  <path fill="none" stroke="white" stroke-width="1.5" d="M0,-3.0v7 M-2.5,-0.5L0,-3.0L2.5,-0.5"/>
                </g>
        </g>
        <svg viewBox="0 0 15 15" width="100%" height="30px" preserveAspectRatio="xMaxYMin meet">
         <g id="arrow_out" transform="scale(0.3 0.3)">
          <a xlink:href="NeighborhoodContainer_8cpp__incl_org.svg" target="_base">
           <rect id="button" ry="5" rx="5" y="6" x="6" height="38" width="38"
                fill="#f2f5e9" fill-opacity="0.5" stroke="#606060" stroke-width="1.0"/>
           <path id="arrow"
             d="M 11.500037,31.436501 C 11.940474,20.09759 22.043105,11.32322 32.158766,21.979434 L 37.068811,17.246167 C 37.068811,17.246167 37.088388,32 37.088388,32 L 22.160133,31.978069 C 22.160133,31.978069 26.997745,27.140456 26.997745,27.140456 C 18.528582,18.264221 13.291696,25.230495 11.500037,31.436501 z"
             style="fill:#404040;"/>
          </a>
         </g>
        </svg>
</svg>
