<?xml version="1.0" encoding="UTF-8" standalone="no"?>
<!DOCTYPE svg PUBLIC "-//W3C//DTD SVG 1.1//EN"
 "http://www.w3.org/Graphics/SVG/1.1/DTD/svg11.dtd">
<!-- Generated by graphviz version 2.38.0 (20140413.2041)
 -->
<!-- Title: /home/travis/build/hypro/hypro/src/hypro/datastructures/HybridAutomaton/flow/operations.h Pages: 1 -->
<svg width="1736pt" height="542pt"
 viewBox="0.00 0.00 1735.50 542.00" xmlns="http://www.w3.org/2000/svg" xmlns:xlink="http://www.w3.org/1999/xlink">
<g id="graph0" class="graph" transform="scale(1 1) rotate(0) translate(4 538)">
<title>/home/travis/build/hypro/hypro/src/hypro/datastructures/HybridAutomaton/flow/operations.h</title>
<polygon fill="white" stroke="none" points="-4,4 -4,-538 1731.5,-538 1731.5,4 -4,4"/>
<!-- Node1 -->
<g id="node1" class="node"><title>Node1</title>
<polygon fill="#bfbfbf" stroke="black" points="1306,-481.5 1306,-533.5 1484,-533.5 1484,-481.5 1306,-481.5"/>
<text text-anchor="start" x="1314" y="-521.5" font-family="Helvetica,sans-Serif" font-size="10.00">/home/travis/build</text>
<text text-anchor="start" x="1314" y="-510.5" font-family="Helvetica,sans-Serif" font-size="10.00">/hypro/hypro/src/hypro</text>
<text text-anchor="start" x="1314" y="-499.5" font-family="Helvetica,sans-Serif" font-size="10.00">/datastructures/HybridAutomaton</text>
<text text-anchor="middle" x="1395" y="-488.5" font-family="Helvetica,sans-Serif" font-size="10.00">/flow/operations.h</text>
</g>
<!-- Node2 -->
<g id="node2" class="node"><title>Node2</title>
<g id="a_node2"><a xlink:href="types_8h.html" target="_top" xlink:title="../../../types.h">
<polygon fill="white" stroke="black" points="1025.5,-257.5 1025.5,-276.5 1104.5,-276.5 1104.5,-257.5 1025.5,-257.5"/>
<text text-anchor="middle" x="1065" y="-264.5" font-family="Helvetica,sans-Serif" font-size="10.00">../../../types.h</text>
</a>
</g>
</g>
<!-- Node1&#45;&gt;Node2 -->
<g id="edge1" class="edge"><title>Node1&#45;&gt;Node2</title>
<path fill="none" stroke="midnightblue" d="M1351.88,-481.463C1333.54,-470.565 1312.03,-457.458 1293,-445 1210.71,-391.133 1120.59,-315.826 1083.01,-283.615"/>
<polygon fill="midnightblue" stroke="midnightblue" points="1084.88,-280.605 1075.01,-276.732 1080.31,-285.91 1084.88,-280.605"/>
</g>
<!-- Node28 -->
<g id="node28" class="node"><title>Node28</title>
<g id="a_node28"><a xlink:href="affine_8h.html" target="_top" xlink:title="affine.h">
<polygon fill="white" stroke="black" points="1223,-369.5 1223,-388.5 1275,-388.5 1275,-369.5 1223,-369.5"/>
<text text-anchor="middle" x="1249" y="-376.5" font-family="Helvetica,sans-Serif" font-size="10.00">affine.h</text>
</a>
</g>
</g>
<!-- Node1&#45;&gt;Node28 -->
<g id="edge35" class="edge"><title>Node1&#45;&gt;Node28</title>
<path fill="none" stroke="midnightblue" d="M1362.3,-481.342C1348.43,-470.424 1332.21,-457.335 1318,-445 1299.3,-428.769 1278.74,-409.163 1264.97,-395.756"/>
<polygon fill="midnightblue" stroke="midnightblue" points="1267.31,-393.146 1257.72,-388.651 1262.41,-398.148 1267.31,-393.146"/>
</g>
<!-- Node29 -->
<g id="node29" class="node"><title>Node29</title>
<g id="a_node29"><a xlink:href="linear_8h.html" target="_top" xlink:title="linear.h">
<polygon fill="white" stroke="black" points="1336.5,-313.5 1336.5,-332.5 1387.5,-332.5 1387.5,-313.5 1336.5,-313.5"/>
<text text-anchor="middle" x="1362" y="-320.5" font-family="Helvetica,sans-Serif" font-size="10.00">linear.h</text>
</a>
</g>
</g>
<!-- Node1&#45;&gt;Node29 -->
<g id="edge41" class="edge"><title>Node1&#45;&gt;Node29</title>
<path fill="none" stroke="midnightblue" d="M1404.33,-481.326C1413.33,-452.895 1423.48,-405.8 1408,-369 1402.97,-357.053 1393.06,-346.692 1383.71,-338.934"/>
<polygon fill="midnightblue" stroke="midnightblue" points="1385.84,-336.155 1375.79,-332.811 1381.56,-341.694 1385.84,-336.155"/>
</g>
<!-- Node30 -->
<g id="node30" class="node"><title>Node30</title>
<g id="a_node30"><a xlink:href="rectangular_8h.html" target="_top" xlink:title="rectangular.h">
<polygon fill="white" stroke="black" points="1455,-369.5 1455,-388.5 1535,-388.5 1535,-369.5 1455,-369.5"/>
<text text-anchor="middle" x="1495" y="-376.5" font-family="Helvetica,sans-Serif" font-size="10.00">rectangular.h</text>
</a>
</g>
</g>
<!-- Node1&#45;&gt;Node30 -->
<g id="edge42" class="edge"><title>Node1&#45;&gt;Node30</title>
<path fill="none" stroke="midnightblue" d="M1415,-481.205C1434.93,-455.983 1464.97,-417.985 1482,-396.441"/>
<polygon fill="midnightblue" stroke="midnightblue" points="1484.79,-398.565 1488.24,-388.55 1479.29,-394.224 1484.79,-398.565"/>
</g>
<!-- Node33 -->
<g id="node33" class="node"><title>Node33</title>
<g id="a_node33"><a xlink:href="datastructures_2HybridAutomaton_2flow_2typetraits_8h.html" target="_top" xlink:title="typetraits.h">
<polygon fill="white" stroke="black" points="1327.5,-425.5 1327.5,-444.5 1398.5,-444.5 1398.5,-425.5 1327.5,-425.5"/>
<text text-anchor="middle" x="1363" y="-432.5" font-family="Helvetica,sans-Serif" font-size="10.00">typetraits.h</text>
</a>
</g>
</g>
<!-- Node1&#45;&gt;Node33 -->
<g id="edge47" class="edge"><title>Node1&#45;&gt;Node33</title>
<path fill="none" stroke="midnightblue" d="M1383.63,-481.446C1379.49,-472.329 1374.9,-462.217 1371.1,-453.851"/>
<polygon fill="midnightblue" stroke="midnightblue" points="1374.27,-452.355 1366.95,-444.695 1367.89,-455.248 1374.27,-452.355"/>
</g>
<!-- Node35 -->
<g id="node35" class="node"><title>Node35</title>
<g id="a_node35"><a xlink:href="visitors_8h.html" target="_top" xlink:title="visitors.h">
<polygon fill="white" stroke="black" points="1534.5,-425.5 1534.5,-444.5 1593.5,-444.5 1593.5,-425.5 1534.5,-425.5"/>
<text text-anchor="middle" x="1564" y="-432.5" font-family="Helvetica,sans-Serif" font-size="10.00">visitors.h</text>
</a>
</g>
</g>
<!-- Node1&#45;&gt;Node35 -->
<g id="edge52" class="edge"><title>Node1&#45;&gt;Node35</title>
<path fill="none" stroke="midnightblue" d="M1455.06,-481.446C1481.88,-470.257 1512.3,-457.569 1534.16,-448.448"/>
<polygon fill="midnightblue" stroke="midnightblue" points="1535.68,-451.607 1543.56,-444.527 1532.98,-445.147 1535.68,-451.607"/>
</g>
<!-- Node3 -->
<g id="node3" class="node"><title>Node3</title>
<polygon fill="white" stroke="#bfbfbf" points="0,-123.5 0,-142.5 134,-142.5 134,-123.5 0,-123.5"/>
<text text-anchor="middle" x="67" y="-130.5" font-family="Helvetica,sans-Serif" font-size="10.00">carl/numbers/numbers.h</text>
</g>
<!-- Node2&#45;&gt;Node3 -->
<g id="edge2" class="edge"><title>Node2&#45;&gt;Node3</title>
<path fill="none" stroke="midnightblue" d="M1025.47,-265.754C922.899,-264.583 640.021,-257.971 408,-221 295.119,-203.013 165.107,-164.852 103.289,-145.609"/>
<polygon fill="midnightblue" stroke="midnightblue" points="104.203,-142.228 93.614,-142.578 102.11,-148.908 104.203,-142.228"/>
</g>
<!-- Node4 -->
<g id="node4" class="node"><title>Node4</title>
<polygon fill="white" stroke="#bfbfbf" points="1058,-196 1058,-215 1144,-215 1144,-196 1058,-196"/>
<text text-anchor="middle" x="1101" y="-203" font-family="Helvetica,sans-Serif" font-size="10.00">carl/util/hash.h</text>
</g>
<!-- Node2&#45;&gt;Node4 -->
<g id="edge3" class="edge"><title>Node2&#45;&gt;Node4</title>
<path fill="none" stroke="midnightblue" d="M1070.16,-257.475C1075.45,-248.727 1083.84,-234.869 1090.53,-223.809"/>
<polygon fill="midnightblue" stroke="midnightblue" points="1093.67,-225.377 1095.85,-215.009 1087.68,-221.753 1093.67,-225.377"/>
</g>
<!-- Node5 -->
<g id="node5" class="node"><title>Node5</title>
<polygon fill="white" stroke="#bfbfbf" points="1162,-196 1162,-215 1266,-215 1266,-196 1162,-196"/>
<text text-anchor="middle" x="1214" y="-203" font-family="Helvetica,sans-Serif" font-size="10.00">eigen3/Eigen/Core</text>
</g>
<!-- Node2&#45;&gt;Node5 -->
<g id="edge4" class="edge"><title>Node2&#45;&gt;Node5</title>
<path fill="none" stroke="midnightblue" d="M1086.35,-257.475C1111.69,-247.357 1154.14,-230.405 1183.07,-218.851"/>
<polygon fill="midnightblue" stroke="midnightblue" points="1184.7,-221.968 1192.69,-215.009 1182.11,-215.467 1184.7,-221.968"/>
</g>
<!-- Node6 -->
<g id="node6" class="node"><title>Node6</title>
<polygon fill="white" stroke="#bfbfbf" points="152,-123.5 152,-142.5 264,-142.5 264,-123.5 152,-123.5"/>
<text text-anchor="middle" x="208" y="-130.5" font-family="Helvetica,sans-Serif" font-size="10.00">eigen3/Eigen/Dense</text>
</g>
<!-- Node2&#45;&gt;Node6 -->
<g id="edge5" class="edge"><title>Node2&#45;&gt;Node6</title>
<path fill="none" stroke="midnightblue" d="M1025.25,-264.1C941.298,-259.708 739.935,-247.164 573,-221 438.03,-199.846 405.057,-189.005 273,-154 263.529,-151.49 253.368,-148.505 243.96,-145.618"/>
<polygon fill="midnightblue" stroke="midnightblue" points="244.703,-142.183 234.115,-142.55 242.621,-148.866 244.703,-142.183"/>
</g>
<!-- Node7 -->
<g id="node7" class="node"><title>Node7</title>
<polygon fill="white" stroke="#bfbfbf" points="1309,-0.5 1309,-19.5 1355,-19.5 1355,-0.5 1309,-0.5"/>
<text text-anchor="middle" x="1332" y="-7.5" font-family="Helvetica,sans-Serif" font-size="10.00">iosfwd</text>
</g>
<!-- Node2&#45;&gt;Node7 -->
<g id="edge6" class="edge"><title>Node2&#45;&gt;Node7</title>
<path fill="none" stroke="midnightblue" d="M1104.9,-262.369C1158.79,-256.664 1250.91,-243.824 1275,-221 1303.06,-194.413 1322.69,-76.1238 1329.43,-29.7449"/>
<polygon fill="midnightblue" stroke="midnightblue" points="1332.93,-29.9941 1330.86,-19.6026 1326,-29.0141 1332.93,-29.9941"/>
</g>
<!-- Node8 -->
<g id="node8" class="node"><title>Node8</title>
<polygon fill="white" stroke="#bfbfbf" points="995,-0.5 995,-19.5 1027,-19.5 1027,-0.5 995,-0.5"/>
<text text-anchor="middle" x="1011" y="-7.5" font-family="Helvetica,sans-Serif" font-size="10.00">set</text>
</g>
<!-- Node2&#45;&gt;Node8 -->
<g id="edge7" class="edge"><title>Node2&#45;&gt;Node8</title>
<path fill="none" stroke="midnightblue" d="M1061.38,-257.17C1057.81,-248.193 1052.41,-233.82 1049,-221 1030.5,-151.542 1018.22,-66.755 1013.35,-29.7622"/>
<polygon fill="midnightblue" stroke="midnightblue" points="1016.78,-28.9833 1012.03,-19.5109 1009.84,-29.8755 1016.78,-28.9833"/>
</g>
<!-- Node9 -->
<g id="node9" class="node"><title>Node9</title>
<g id="a_node9"><a xlink:href="adaptions__eigen_8h.html" target="_top" xlink:title="util/adaptions_eigen\l/adaptions_eigen.h">
<polygon fill="white" stroke="black" points="582.5,-190.5 582.5,-220.5 695.5,-220.5 695.5,-190.5 582.5,-190.5"/>
<text text-anchor="start" x="590.5" y="-208.5" font-family="Helvetica,sans-Serif" font-size="10.00">util/adaptions_eigen</text>
<text text-anchor="middle" x="639" y="-197.5" font-family="Helvetica,sans-Serif" font-size="10.00">/adaptions_eigen.h</text>
</a>
</g>
</g>
<!-- Node2&#45;&gt;Node9 -->
<g id="edge8" class="edge"><title>Node2&#45;&gt;Node9</title>
<path fill="none" stroke="midnightblue" d="M1025.47,-261.029C952.315,-251.267 795.481,-229.421 705.667,-216.539"/>
<polygon fill="midnightblue" stroke="midnightblue" points="705.986,-213.049 695.59,-215.09 704.991,-219.978 705.986,-213.049"/>
</g>
<!-- Node9&#45;&gt;Node2 -->
<g id="edge26" class="edge"><title>Node9&#45;&gt;Node2</title>
<path fill="none" stroke="midnightblue" d="M695.594,-213.761C779.455,-225.079 935.163,-246.823 1015.04,-258.365"/>
<polygon fill="midnightblue" stroke="midnightblue" points="1014.92,-261.886 1025.32,-259.857 1015.93,-254.958 1014.92,-261.886"/>
</g>
<!-- Node9&#45;&gt;Node3 -->
<g id="edge28" class="edge"><title>Node9&#45;&gt;Node3</title>
<path fill="none" stroke="midnightblue" d="M582.439,-201.616C489.934,-196.258 300.772,-182.611 143,-154 130.519,-151.737 117.08,-148.48 105.025,-145.249"/>
<polygon fill="midnightblue" stroke="midnightblue" points="105.846,-141.845 95.2755,-142.564 103.987,-148.594 105.846,-141.845"/>
</g>
<!-- Node9&#45;&gt;Node6 -->
<g id="edge29" class="edge"><title>Node9&#45;&gt;Node6</title>
<path fill="none" stroke="midnightblue" d="M582.382,-199.548C510.028,-192.569 381.19,-177.944 273,-154 262.904,-151.766 252.109,-148.719 242.274,-145.678"/>
<polygon fill="midnightblue" stroke="midnightblue" points="243.033,-142.247 232.442,-142.545 240.907,-148.916 243.033,-142.247"/>
</g>
<!-- Node9&#45;&gt;Node7 -->
<g id="edge32" class="edge"><title>Node9&#45;&gt;Node7</title>
<path fill="none" stroke="midnightblue" d="M695.632,-197.808C755.488,-190.039 852.343,-175.481 934,-154 1075.49,-116.778 1237.86,-50.8584 1302.87,-23.4708"/>
<polygon fill="midnightblue" stroke="midnightblue" points="1304.25,-26.687 1312.1,-19.5668 1301.53,-20.2404 1304.25,-26.687"/>
</g>
<!-- Node10 -->
<g id="node10" class="node"><title>Node10</title>
<g id="a_node10"><a xlink:href="config_8h.html" target="_top" xlink:title="../../config.h">
<polygon fill="white" stroke="black" points="282,-123.5 282,-142.5 354,-142.5 354,-123.5 282,-123.5"/>
<text text-anchor="middle" x="318" y="-130.5" font-family="Helvetica,sans-Serif" font-size="10.00">../../config.h</text>
</a>
</g>
</g>
<!-- Node9&#45;&gt;Node10 -->
<g id="edge9" class="edge"><title>Node9&#45;&gt;Node10</title>
<path fill="none" stroke="midnightblue" d="M582.292,-198.123C525.827,-190.847 437.119,-176.895 363,-154 356.674,-152.046 350.058,-149.444 343.906,-146.765"/>
<polygon fill="midnightblue" stroke="midnightblue" points="345.279,-143.545 334.729,-142.574 342.371,-149.912 345.279,-143.545"/>
</g>
<!-- Node23 -->
<g id="node23" class="node"><title>Node23</title>
<g id="a_node23"><a xlink:href="transformation_8h.html" target="_top" xlink:title="transformation.h">
<polygon fill="white" stroke="black" points="590.5,-123.5 590.5,-142.5 687.5,-142.5 687.5,-123.5 590.5,-123.5"/>
<text text-anchor="middle" x="639" y="-130.5" font-family="Helvetica,sans-Serif" font-size="10.00">transformation.h</text>
</a>
</g>
</g>
<!-- Node9&#45;&gt;Node23 -->
<g id="edge27" class="edge"><title>Node9&#45;&gt;Node23</title>
<path fill="none" stroke="midnightblue" d="M639,-190.233C639,-179.501 639,-164.687 639,-152.959"/>
<polygon fill="midnightblue" stroke="midnightblue" points="642.5,-152.893 639,-142.893 635.5,-152.893 642.5,-152.893"/>
</g>
<!-- Node24 -->
<g id="node24" class="node"><title>Node24</title>
<polygon fill="white" stroke="#bfbfbf" points="706,-123.5 706,-142.5 844,-142.5 844,-123.5 706,-123.5"/>
<text text-anchor="middle" x="775" y="-130.5" font-family="Helvetica,sans-Serif" font-size="10.00">eigen3/Eigen/Eigenvalues</text>
</g>
<!-- Node9&#45;&gt;Node24 -->
<g id="edge30" class="edge"><title>Node9&#45;&gt;Node24</title>
<path fill="none" stroke="midnightblue" d="M666.195,-190.403C690.449,-177.83 725.693,-159.56 749.438,-147.251"/>
<polygon fill="midnightblue" stroke="midnightblue" points="751.271,-150.243 758.538,-142.534 748.049,-144.029 751.271,-150.243"/>
</g>
<!-- Node25 -->
<g id="node25" class="node"><title>Node25</title>
<polygon fill="white" stroke="#bfbfbf" points="862.5,-123.5 862.5,-142.5 925.5,-142.5 925.5,-123.5 862.5,-123.5"/>
<text text-anchor="middle" x="894" y="-130.5" font-family="Helvetica,sans-Serif" font-size="10.00">functional</text>
</g>
<!-- Node9&#45;&gt;Node25 -->
<g id="edge31" class="edge"><title>Node9&#45;&gt;Node25</title>
<path fill="none" stroke="midnightblue" d="M695.86,-194.657C739.564,-186.24 801.049,-172.54 853,-154 858.408,-152.07 864.041,-149.629 869.338,-147.122"/>
<polygon fill="midnightblue" stroke="midnightblue" points="870.986,-150.211 878.389,-142.632 867.875,-143.94 870.986,-150.211"/>
</g>
<!-- Node26 -->
<g id="node26" class="node"><title>Node26</title>
<polygon fill="white" stroke="#bfbfbf" points="372,-123.5 372,-142.5 414,-142.5 414,-123.5 372,-123.5"/>
<text text-anchor="middle" x="393" y="-130.5" font-family="Helvetica,sans-Serif" font-size="10.00">limits</text>
</g>
<!-- Node9&#45;&gt;Node26 -->
<g id="edge33" class="edge"><title>Node9&#45;&gt;Node26</title>
<path fill="none" stroke="midnightblue" d="M582.208,-196.922C537.593,-189.635 474.592,-176.352 423,-154 419.399,-152.44 415.763,-150.445 412.325,-148.321"/>
<polygon fill="midnightblue" stroke="midnightblue" points="414.095,-145.293 403.846,-142.61 410.184,-151.099 414.095,-145.293"/>
</g>
<!-- Node27 -->
<g id="node27" class="node"><title>Node27</title>
<polygon fill="white" stroke="#bfbfbf" points="432,-112.5 432,-153.5 572,-153.5 572,-112.5 432,-112.5"/>
<text text-anchor="start" x="440" y="-141.5" font-family="Helvetica,sans-Serif" font-size="10.00">eigen3/unsupported</text>
<text text-anchor="start" x="440" y="-130.5" font-family="Helvetica,sans-Serif" font-size="10.00">/Eigen/src/MatrixFunctions</text>
<text text-anchor="middle" x="502" y="-119.5" font-family="Helvetica,sans-Serif" font-size="10.00">/MatrixExponential.h</text>
</g>
<!-- Node9&#45;&gt;Node27 -->
<g id="edge34" class="edge"><title>Node9&#45;&gt;Node27</title>
<path fill="none" stroke="midnightblue" d="M611.605,-190.403C593.716,-181.197 569.891,-168.937 549.024,-158.199"/>
<polygon fill="midnightblue" stroke="midnightblue" points="550.477,-155.01 539.984,-153.546 547.274,-161.234 550.477,-155.01"/>
</g>
<!-- Node11 -->
<g id="node11" class="node"><title>Node11</title>
<g id="a_node11"><a xlink:href="flags_8h.html" target="_top" xlink:title="flags.h">
<polygon fill="white" stroke="black" points="81,-0.5 81,-19.5 129,-19.5 129,-0.5 81,-0.5"/>
<text text-anchor="middle" x="105" y="-7.5" font-family="Helvetica,sans-Serif" font-size="10.00">flags.h</text>
</a>
</g>
</g>
<!-- Node10&#45;&gt;Node11 -->
<g id="edge10" class="edge"><title>Node10&#45;&gt;Node11</title>
<path fill="none" stroke="midnightblue" d="M303.022,-123.492C266.675,-102.844 173.533,-49.932 129.18,-24.736"/>
<polygon fill="midnightblue" stroke="midnightblue" points="130.67,-21.5572 120.246,-19.661 127.212,-27.6437 130.67,-21.5572"/>
</g>
<!-- Node12 -->
<g id="node12" class="node"><title>Node12</title>
<g id="a_node12"><a xlink:href="util_2convenienceOperators_8h.html" target="_top" xlink:title="util/convenienceOperators.h">
<polygon fill="white" stroke="black" points="850.5,-56.5 850.5,-75.5 1001.5,-75.5 1001.5,-56.5 850.5,-56.5"/>
<text text-anchor="middle" x="926" y="-63.5" font-family="Helvetica,sans-Serif" font-size="10.00">util/convenienceOperators.h</text>
</a>
</g>
</g>
<!-- Node10&#45;&gt;Node12 -->
<g id="edge11" class="edge"><title>Node10&#45;&gt;Node12</title>
<path fill="none" stroke="midnightblue" d="M333.772,-123.41C342.198,-119.233 352.891,-114.57 363,-112 450.813,-89.6718 705.253,-76.1295 839.974,-70.3243"/>
<polygon fill="midnightblue" stroke="midnightblue" points="840.413,-73.8089 850.255,-69.8863 840.115,-66.8152 840.413,-73.8089"/>
</g>
<!-- Node16 -->
<g id="node16" class="node"><title>Node16</title>
<g id="a_node16"><a xlink:href="Logger_8h.html" target="_top" xlink:title="util/logging/Logger.h">
<polygon fill="white" stroke="black" points="263.5,-56.5 263.5,-75.5 376.5,-75.5 376.5,-56.5 263.5,-56.5"/>
<text text-anchor="middle" x="320" y="-63.5" font-family="Helvetica,sans-Serif" font-size="10.00">util/logging/Logger.h</text>
</a>
</g>
</g>
<!-- Node10&#45;&gt;Node16 -->
<g id="edge18" class="edge"><title>Node10&#45;&gt;Node16</title>
<path fill="none" stroke="midnightblue" d="M318.27,-123.234C318.564,-113.683 319.043,-98.1183 319.422,-85.7829"/>
<polygon fill="midnightblue" stroke="midnightblue" points="322.925,-85.7302 319.735,-75.6273 315.929,-85.5149 322.925,-85.7302"/>
</g>
<!-- Node12&#45;&gt;Node2 -->
<g id="edge12" class="edge"><title>Node12&#45;&gt;Node2</title>
<path fill="none" stroke="midnightblue" d="M929.88,-75.571C941.1,-99.8533 975.384,-170.61 1016,-221 1024.75,-231.85 1036.13,-242.469 1045.73,-250.664"/>
<polygon fill="midnightblue" stroke="midnightblue" points="1043.66,-253.494 1053.59,-257.187 1048.13,-248.107 1043.66,-253.494"/>
</g>
<!-- Node12&#45;&gt;Node7 -->
<g id="edge13" class="edge"><title>Node12&#45;&gt;Node7</title>
<path fill="none" stroke="midnightblue" d="M990.332,-56.4435C1077.99,-44.7849 1231.72,-24.3379 1298.95,-15.3957"/>
<polygon fill="midnightblue" stroke="midnightblue" points="1299.52,-18.8504 1308.98,-14.0624 1298.6,-11.9115 1299.52,-18.8504"/>
</g>
<!-- Node12&#45;&gt;Node8 -->
<g id="edge15" class="edge"><title>Node12&#45;&gt;Node8</title>
<path fill="none" stroke="midnightblue" d="M939.657,-56.324C952.916,-47.9002 973.268,-34.9709 988.846,-25.0741"/>
<polygon fill="midnightblue" stroke="midnightblue" points="990.813,-27.9711 997.377,-19.6545 987.06,-22.0626 990.813,-27.9711"/>
</g>
<!-- Node13 -->
<g id="node13" class="node"><title>Node13</title>
<polygon fill="white" stroke="#bfbfbf" points="1149,-0.5 1149,-19.5 1187,-19.5 1187,-0.5 1149,-0.5"/>
<text text-anchor="middle" x="1168" y="-7.5" font-family="Helvetica,sans-Serif" font-size="10.00">map</text>
</g>
<!-- Node12&#45;&gt;Node13 -->
<g id="edge14" class="edge"><title>Node12&#45;&gt;Node13</title>
<path fill="none" stroke="midnightblue" d="M964.346,-56.4435C1012.86,-45.6188 1095.32,-27.2178 1138.94,-17.4836"/>
<polygon fill="midnightblue" stroke="midnightblue" points="1139.9,-20.8555 1148.9,-15.2616 1138.38,-14.0235 1139.9,-20.8555"/>
</g>
<!-- Node14 -->
<g id="node14" class="node"><title>Node14</title>
<polygon fill="white" stroke="#bfbfbf" points="930,-0.5 930,-19.5 972,-19.5 972,-0.5 930,-0.5"/>
<text text-anchor="middle" x="951" y="-7.5" font-family="Helvetica,sans-Serif" font-size="10.00">utility</text>
</g>
<!-- Node12&#45;&gt;Node14 -->
<g id="edge16" class="edge"><title>Node12&#45;&gt;Node14</title>
<path fill="none" stroke="midnightblue" d="M930.128,-56.083C933.514,-48.77 938.416,-38.1814 942.619,-29.1034"/>
<polygon fill="midnightblue" stroke="midnightblue" points="945.923,-30.2962 946.949,-19.7511 939.571,-27.3553 945.923,-30.2962"/>
</g>
<!-- Node15 -->
<g id="node15" class="node"><title>Node15</title>
<polygon fill="white" stroke="#bfbfbf" points="864.5,-0.5 864.5,-19.5 911.5,-19.5 911.5,-0.5 864.5,-0.5"/>
<text text-anchor="middle" x="888" y="-7.5" font-family="Helvetica,sans-Serif" font-size="10.00">vector</text>
</g>
<!-- Node12&#45;&gt;Node15 -->
<g id="edge17" class="edge"><title>Node12&#45;&gt;Node15</title>
<path fill="none" stroke="midnightblue" d="M919.725,-56.083C914.358,-48.4554 906.482,-37.2645 899.921,-27.9408"/>
<polygon fill="midnightblue" stroke="midnightblue" points="902.775,-25.9149 894.158,-19.7511 897.051,-29.9434 902.775,-25.9149"/>
</g>
<!-- Node16&#45;&gt;Node11 -->
<g id="edge19" class="edge"><title>Node16&#45;&gt;Node11</title>
<path fill="none" stroke="midnightblue" d="M284.365,-56.4552C249.636,-48.0688 195.095,-34.7425 138.899,-20.1902"/>
<polygon fill="midnightblue" stroke="midnightblue" points="139.692,-16.78 129.133,-17.653 137.931,-23.5551 139.692,-16.78"/>
</g>
<!-- Node17 -->
<g id="node17" class="node"><title>Node17</title>
<polygon fill="white" stroke="#bfbfbf" points="682,-0.5 682,-19.5 836,-19.5 836,-0.5 682,-0.5"/>
<text text-anchor="middle" x="759" y="-7.5" font-family="Helvetica,sans-Serif" font-size="10.00">carl/io/streamingOperators.h</text>
</g>
<!-- Node16&#45;&gt;Node17 -->
<g id="edge20" class="edge"><title>Node16&#45;&gt;Node17</title>
<path fill="none" stroke="midnightblue" d="M376.942,-57.9958C454.155,-48.498 592.426,-31.4898 679.747,-20.7487"/>
<polygon fill="midnightblue" stroke="midnightblue" points="680.374,-24.1979 689.872,-19.5032 679.52,-17.2503 680.374,-24.1979"/>
</g>
<!-- Node18 -->
<g id="node18" class="node"><title>Node18</title>
<polygon fill="white" stroke="#bfbfbf" points="147.5,-0.5 147.5,-19.5 206.5,-19.5 206.5,-0.5 147.5,-0.5"/>
<text text-anchor="middle" x="177" y="-7.5" font-family="Helvetica,sans-Serif" font-size="10.00">iostream</text>
</g>
<!-- Node16&#45;&gt;Node18 -->
<g id="edge21" class="edge"><title>Node16&#45;&gt;Node18</title>
<path fill="none" stroke="midnightblue" d="M297.341,-56.4435C273.598,-47.4776 236.091,-33.314 209.262,-23.1827"/>
<polygon fill="midnightblue" stroke="midnightblue" points="210.144,-19.7749 199.553,-19.5164 207.671,-26.3235 210.144,-19.7749"/>
</g>
<!-- Node19 -->
<g id="node19" class="node"><title>Node19</title>
<polygon fill="white" stroke="#bfbfbf" points="225,-0.5 225,-19.5 281,-19.5 281,-0.5 225,-0.5"/>
<text text-anchor="middle" x="253" y="-7.5" font-family="Helvetica,sans-Serif" font-size="10.00">sstream</text>
</g>
<!-- Node16&#45;&gt;Node19 -->
<g id="edge22" class="edge"><title>Node16&#45;&gt;Node19</title>
<path fill="none" stroke="midnightblue" d="M309.235,-56.324C299.234,-48.2631 284.113,-36.0765 272.07,-26.3695"/>
<polygon fill="midnightblue" stroke="midnightblue" points="273.943,-23.3841 263.961,-19.8339 269.55,-28.8343 273.943,-23.3841"/>
</g>
<!-- Node20 -->
<g id="node20" class="node"><title>Node20</title>
<polygon fill="white" stroke="#bfbfbf" points="299,-0.5 299,-19.5 347,-19.5 347,-0.5 299,-0.5"/>
<text text-anchor="middle" x="323" y="-7.5" font-family="Helvetica,sans-Serif" font-size="10.00">thread</text>
</g>
<!-- Node16&#45;&gt;Node20 -->
<g id="edge23" class="edge"><title>Node16&#45;&gt;Node20</title>
<path fill="none" stroke="midnightblue" d="M320.495,-56.083C320.889,-49.0059 321.452,-38.8611 321.945,-29.9865"/>
<polygon fill="midnightblue" stroke="midnightblue" points="325.454,-29.9299 322.514,-19.7511 318.464,-29.5415 325.454,-29.9299"/>
</g>
<!-- Node21 -->
<g id="node21" class="node"><title>Node21</title>
<polygon fill="white" stroke="#bfbfbf" points="365.5,-0.5 365.5,-19.5 490.5,-19.5 490.5,-0.5 365.5,-0.5"/>
<text text-anchor="middle" x="428" y="-7.5" font-family="Helvetica,sans-Serif" font-size="10.00">carl/core/carlLogging.h</text>
</g>
<!-- Node16&#45;&gt;Node21 -->
<g id="edge24" class="edge"><title>Node16&#45;&gt;Node21</title>
<path fill="none" stroke="midnightblue" d="M337.352,-56.324C354.672,-47.6641 381.515,-34.2424 401.502,-24.249"/>
<polygon fill="midnightblue" stroke="midnightblue" points="403.312,-27.2572 410.691,-19.6545 400.181,-20.9962 403.312,-27.2572"/>
</g>
<!-- Node22 -->
<g id="node22" class="node"><title>Node22</title>
<polygon fill="white" stroke="#bfbfbf" points="508.5,-0.5 508.5,-19.5 663.5,-19.5 663.5,-0.5 508.5,-0.5"/>
<text text-anchor="middle" x="586" y="-7.5" font-family="Helvetica,sans-Serif" font-size="10.00">carl/core/carlLoggingHelper.h</text>
</g>
<!-- Node16&#45;&gt;Node22 -->
<g id="edge25" class="edge"><title>Node16&#45;&gt;Node22</title>
<path fill="none" stroke="midnightblue" d="M362.148,-56.4435C408.746,-46.9839 483.844,-31.7384 534.045,-21.5472"/>
<polygon fill="midnightblue" stroke="midnightblue" points="534.945,-24.936 544.049,-19.5164 533.552,-18.076 534.945,-24.936"/>
</g>
<!-- Node28&#45;&gt;Node2 -->
<g id="edge36" class="edge"><title>Node28&#45;&gt;Node2</title>
<path fill="none" stroke="midnightblue" d="M1236.89,-369.374C1218.63,-356.511 1182.81,-331.804 1151,-313 1131.72,-301.603 1109.28,-289.91 1092.15,-281.301"/>
<polygon fill="midnightblue" stroke="midnightblue" points="1093.26,-277.942 1082.75,-276.614 1090.14,-284.207 1093.26,-277.942"/>
</g>
<!-- Node28&#45;&gt;Node7 -->
<g id="edge40" class="edge"><title>Node28&#45;&gt;Node7</title>
<path fill="none" stroke="midnightblue" d="M1252.69,-369.329C1267.54,-333.838 1322.88,-195.848 1338,-76 1339.95,-60.5208 1338.07,-42.8919 1335.91,-29.9021"/>
<polygon fill="midnightblue" stroke="midnightblue" points="1339.31,-29.039 1334.03,-19.8518 1332.43,-30.3245 1339.31,-29.039"/>
</g>
<!-- Node28&#45;&gt;Node29 -->
<g id="edge37" class="edge"><title>Node28&#45;&gt;Node29</title>
<path fill="none" stroke="midnightblue" d="M1266.91,-369.444C1285.25,-360.675 1314.01,-346.935 1335.09,-336.858"/>
<polygon fill="midnightblue" stroke="midnightblue" points="1336.67,-339.986 1344.18,-332.516 1333.65,-333.67 1336.67,-339.986"/>
</g>
<!-- Node29&#45;&gt;Node2 -->
<g id="edge38" class="edge"><title>Node29&#45;&gt;Node2</title>
<path fill="none" stroke="midnightblue" d="M1336.42,-317.349C1287.14,-308.389 1178.26,-288.593 1114.39,-276.98"/>
<polygon fill="midnightblue" stroke="midnightblue" points="1115.01,-273.535 1104.54,-275.189 1113.75,-280.422 1115.01,-273.535"/>
</g>
<!-- Node29&#45;&gt;Node7 -->
<g id="edge39" class="edge"><title>Node29&#45;&gt;Node7</title>
<path fill="none" stroke="midnightblue" d="M1365.7,-313.199C1379.67,-278.525 1426.38,-148.718 1384,-56 1378.22,-43.3602 1366.95,-32.911 1356.37,-25.2737"/>
<polygon fill="midnightblue" stroke="midnightblue" points="1358.04,-22.1817 1347.78,-19.5333 1354.15,-28.0009 1358.04,-22.1817"/>
</g>
<!-- Node30&#45;&gt;Node7 -->
<g id="edge45" class="edge"><title>Node30&#45;&gt;Node7</title>
<path fill="none" stroke="midnightblue" d="M1489.3,-369.288C1478.03,-351.205 1454,-307.946 1454,-268 1454,-268 1454,-268 1454,-132 1454,-79.8331 1397.07,-42.475 1360.99,-24.0363"/>
<polygon fill="midnightblue" stroke="midnightblue" points="1362.39,-20.8244 1351.87,-19.5493 1359.3,-27.1051 1362.39,-20.8244"/>
</g>
<!-- Node30&#45;&gt;Node13 -->
<g id="edge46" class="edge"><title>Node30&#45;&gt;Node13</title>
<path fill="none" stroke="midnightblue" d="M1487.24,-369.29C1444.66,-321.504 1239.29,-91.0056 1182.55,-27.3279"/>
<polygon fill="midnightblue" stroke="midnightblue" points="1185.1,-24.9293 1175.83,-19.7914 1179.87,-29.586 1185.1,-24.9293"/>
</g>
<!-- Node31 -->
<g id="node31" class="node"><title>Node31</title>
<polygon fill="white" stroke="#bfbfbf" points="1482,-313.5 1482,-332.5 1590,-332.5 1590,-313.5 1482,-313.5"/>
<text text-anchor="middle" x="1536" y="-320.5" font-family="Helvetica,sans-Serif" font-size="10.00">carl/core/Variable.h</text>
</g>
<!-- Node30&#45;&gt;Node31 -->
<g id="edge43" class="edge"><title>Node30&#45;&gt;Node31</title>
<path fill="none" stroke="midnightblue" d="M1501.77,-369.083C1507.56,-361.455 1516.06,-350.264 1523.14,-340.941"/>
<polygon fill="midnightblue" stroke="midnightblue" points="1526.1,-342.832 1529.36,-332.751 1520.52,-338.599 1526.1,-342.832"/>
</g>
<!-- Node32 -->
<g id="node32" class="node"><title>Node32</title>
<polygon fill="white" stroke="#bfbfbf" points="1608.5,-313.5 1608.5,-332.5 1727.5,-332.5 1727.5,-313.5 1608.5,-313.5"/>
<text text-anchor="middle" x="1668" y="-320.5" font-family="Helvetica,sans-Serif" font-size="10.00">carl/interval/Interval.h</text>
</g>
<!-- Node30&#45;&gt;Node32 -->
<g id="edge44" class="edge"><title>Node30&#45;&gt;Node32</title>
<path fill="none" stroke="midnightblue" d="M1522.41,-369.444C1551.77,-360.28 1598.52,-345.688 1631.1,-335.519"/>
<polygon fill="midnightblue" stroke="midnightblue" points="1632.21,-338.837 1640.72,-332.516 1630.13,-332.155 1632.21,-338.837"/>
</g>
<!-- Node33&#45;&gt;Node28 -->
<g id="edge48" class="edge"><title>Node33&#45;&gt;Node28</title>
<path fill="none" stroke="midnightblue" d="M1344.94,-425.444C1326.43,-416.675 1297.42,-402.935 1276.14,-392.858"/>
<polygon fill="midnightblue" stroke="midnightblue" points="1277.51,-389.634 1266.98,-388.516 1274.52,-395.96 1277.51,-389.634"/>
</g>
<!-- Node33&#45;&gt;Node29 -->
<g id="edge49" class="edge"><title>Node33&#45;&gt;Node29</title>
<path fill="none" stroke="midnightblue" d="M1351.46,-425.49C1341.52,-417.379 1327.88,-404.178 1322,-389 1314.96,-370.821 1329.22,-352.068 1342.63,-339.406"/>
<polygon fill="midnightblue" stroke="midnightblue" points="1345.05,-341.935 1350.26,-332.705 1340.43,-336.676 1345.05,-341.935"/>
</g>
<!-- Node33&#45;&gt;Node30 -->
<g id="edge50" class="edge"><title>Node33&#45;&gt;Node30</title>
<path fill="none" stroke="midnightblue" d="M1383.92,-425.444C1405.74,-416.517 1440.15,-402.439 1464.89,-392.317"/>
<polygon fill="midnightblue" stroke="midnightblue" points="1466.25,-395.542 1474.18,-388.516 1463.6,-389.063 1466.25,-395.542"/>
</g>
<!-- Node34 -->
<g id="node34" class="node"><title>Node34</title>
<polygon fill="white" stroke="#bfbfbf" points="1331,-369.5 1331,-388.5 1399,-388.5 1399,-369.5 1331,-369.5"/>
<text text-anchor="middle" x="1365" y="-376.5" font-family="Helvetica,sans-Serif" font-size="10.00">type_traits</text>
</g>
<!-- Node33&#45;&gt;Node34 -->
<g id="edge51" class="edge"><title>Node33&#45;&gt;Node34</title>
<path fill="none" stroke="midnightblue" d="M1363.33,-425.083C1363.59,-418.006 1363.97,-407.861 1364.3,-398.986"/>
<polygon fill="midnightblue" stroke="midnightblue" points="1367.8,-398.874 1364.68,-388.751 1360.81,-398.615 1367.8,-398.874"/>
</g>
<!-- Node36 -->
<g id="node36" class="node"><title>Node36</title>
<polygon fill="white" stroke="#bfbfbf" points="1553,-369.5 1553,-388.5 1603,-388.5 1603,-369.5 1553,-369.5"/>
<text text-anchor="middle" x="1578" y="-376.5" font-family="Helvetica,sans-Serif" font-size="10.00">variant</text>
</g>
<!-- Node35&#45;&gt;Node36 -->
<g id="edge53" class="edge"><title>Node35&#45;&gt;Node36</title>
<path fill="none" stroke="midnightblue" d="M1566.31,-425.083C1568.17,-417.927 1570.84,-407.635 1573.15,-398.691"/>
<polygon fill="midnightblue" stroke="midnightblue" points="1576.61,-399.309 1575.73,-388.751 1569.83,-397.553 1576.61,-399.309"/>
</g>
</g>
</svg>
