<?xml version="1.0" encoding="UTF-8" standalone="no"?>
<!DOCTYPE svg PUBLIC "-//W3C//DTD SVG 1.1//EN"
 "http://www.w3.org/Graphics/SVG/1.1/DTD/svg11.dtd">
<!-- Generated by graphviz version 2.38.0 (20140413.2041)
 -->
<!-- Title: /home/travis/build/hypro/hypro/src/hypro/util/statistics/OperationCounter.h Pages: 1 -->
<svg width="184pt" height="106pt"
 viewBox="0.00 0.00 184.00 106.00" xmlns="http://www.w3.org/2000/svg" xmlns:xlink="http://www.w3.org/1999/xlink">
<g id="graph0" class="graph" transform="scale(1 1) rotate(0) translate(4 102)">
<title>/home/travis/build/hypro/hypro/src/hypro/util/statistics/OperationCounter.h</title>
<polygon fill="white" stroke="none" points="-4,4 -4,-102 180,-102 180,4 -4,4"/>
<!-- Node1 -->
<g id="node1" class="node"><title>Node1</title>
<polygon fill="#bfbfbf" stroke="black" points="-1.42109e-14,-56.5 -1.42109e-14,-97.5 176,-97.5 176,-56.5 -1.42109e-14,-56.5"/>
<text text-anchor="start" x="8" y="-85.5" font-family="Helvetica,sans-Serif" font-size="10.00">/home/travis/build</text>
<text text-anchor="start" x="8" y="-74.5" font-family="Helvetica,sans-Serif" font-size="10.00">/hypro/hypro/src/hypro</text>
<text text-anchor="middle" x="88" y="-63.5" font-family="Helvetica,sans-Serif" font-size="10.00">/util/statistics/OperationCounter.h</text>
</g>
<!-- Node2 -->
<g id="node2" class="node"><title>Node2</title>
<g id="a_node2"><a xlink:href="flags_8h.html" target="_top" xlink:title="../../flags.h">
<polygon fill="white" stroke="black" points="55,-0.5 55,-19.5 121,-19.5 121,-0.5 55,-0.5"/>
<text text-anchor="middle" x="88" y="-7.5" font-family="Helvetica,sans-Serif" font-size="10.00">../../flags.h</text>
</a>
</g>
</g>
<!-- Node1&#45;&gt;Node2 -->
<g id="edge1" class="edge"><title>Node1&#45;&gt;Node2</title>
<path fill="none" stroke="midnightblue" d="M88,-56.4979C88,-48.0653 88,-38.2351 88,-29.874"/>
<polygon fill="midnightblue" stroke="midnightblue" points="91.5001,-29.6525 88,-19.6525 84.5001,-29.6525 91.5001,-29.6525"/>
</g>
</g>
</svg>
