<?xml version="1.0" encoding="UTF-8" standalone="no"?>
<!DOCTYPE svg PUBLIC "-//W3C//DTD SVG 1.1//EN"
 "http://www.w3.org/Graphics/SVG/1.1/DTD/svg11.dtd">
<!-- Generated by graphviz version 2.38.0 (20140413.2041)
 -->
<!-- Title: /home/travis/build/hypro/hypro/src/hypro/parser/antlr4&#45;flowstar/ParserWrapper.h Pages: 1 -->
<svg width="1173pt" height="150pt"
 viewBox="0.00 0.00 1173.00 150.00" xmlns="http://www.w3.org/2000/svg" xmlns:xlink="http://www.w3.org/1999/xlink">
<g id="graph0" class="graph" transform="scale(1 1) rotate(0) translate(4 146)">
<title>/home/travis/build/hypro/hypro/src/hypro/parser/antlr4&#45;flowstar/ParserWrapper.h</title>
<polygon fill="white" stroke="none" points="-4,4 -4,-146 1169,-146 1169,4 -4,4"/>
<!-- Node1 -->
<g id="node1" class="node"><title>Node1</title>
<polygon fill="#bfbfbf" stroke="black" points="515,-89.5 515,-141.5 639,-141.5 639,-89.5 515,-89.5"/>
<text text-anchor="start" x="523" y="-129.5" font-family="Helvetica,sans-Serif" font-size="10.00">/home/travis/build</text>
<text text-anchor="start" x="523" y="-118.5" font-family="Helvetica,sans-Serif" font-size="10.00">/hypro/hypro/src/hypro</text>
<text text-anchor="start" x="523" y="-107.5" font-family="Helvetica,sans-Serif" font-size="10.00">/parser/antlr4&#45;flowstar</text>
<text text-anchor="middle" x="577" y="-96.5" font-family="Helvetica,sans-Serif" font-size="10.00">/ParserWrapper.h</text>
</g>
<!-- Node2 -->
<g id="node2" class="node"><title>Node2</title>
<g id="a_node2"><a xlink:href="ParserWrapper_8cpp.html" target="_top" xlink:title="/home/travis/build\l/hypro/hypro/src/hypro\l/parser/antlr4&#45;flowstar\l/ParserWrapper.cpp">
<polygon fill="white" stroke="black" points="0,-0.5 0,-52.5 124,-52.5 124,-0.5 0,-0.5"/>
<text text-anchor="start" x="8" y="-40.5" font-family="Helvetica,sans-Serif" font-size="10.00">/home/travis/build</text>
<text text-anchor="start" x="8" y="-29.5" font-family="Helvetica,sans-Serif" font-size="10.00">/hypro/hypro/src/hypro</text>
<text text-anchor="start" x="8" y="-18.5" font-family="Helvetica,sans-Serif" font-size="10.00">/parser/antlr4&#45;flowstar</text>
<text text-anchor="middle" x="62" y="-7.5" font-family="Helvetica,sans-Serif" font-size="10.00">/ParserWrapper.cpp</text>
</a>
</g>
</g>
<!-- Node1&#45;&gt;Node2 -->
<g id="edge1" class="edge"><title>Node1&#45;&gt;Node2</title>
<path fill="none" stroke="midnightblue" d="M504.617,-109.109C416.008,-101.452 261.84,-84.6962 133,-53 130.075,-52.2804 127.102,-51.4842 124.114,-50.6311"/>
<polygon fill="midnightblue" stroke="midnightblue" points="504.568,-112.617 514.828,-109.976 505.16,-105.642 504.568,-112.617"/>
</g>
<!-- Node3 -->
<g id="node3" class="node"><title>Node3</title>
<g id="a_node3"><a xlink:href="example__benchmark_8cpp.html" target="_top" xlink:title="/home/travis/build\l/hypro/hypro/examples\l/example_benchmark.cpp">
<polygon fill="white" stroke="black" points="142,-6 142,-47 282,-47 282,-6 142,-6"/>
<text text-anchor="start" x="150" y="-35" font-family="Helvetica,sans-Serif" font-size="10.00">/home/travis/build</text>
<text text-anchor="start" x="150" y="-24" font-family="Helvetica,sans-Serif" font-size="10.00">/hypro/hypro/examples</text>
<text text-anchor="middle" x="212" y="-13" font-family="Helvetica,sans-Serif" font-size="10.00">/example_benchmark.cpp</text>
</a>
</g>
</g>
<!-- Node1&#45;&gt;Node3 -->
<g id="edge2" class="edge"><title>Node1&#45;&gt;Node3</title>
<path fill="none" stroke="midnightblue" d="M505.1,-101.118C446.972,-89.8014 363.224,-72.3693 291,-53 284.318,-51.2081 277.365,-49.1916 270.477,-47.0979"/>
<polygon fill="midnightblue" stroke="midnightblue" points="504.441,-104.555 514.924,-103.02 505.771,-97.6826 504.441,-104.555"/>
</g>
<!-- Node4 -->
<g id="node4" class="node"><title>Node4</title>
<g id="a_node4"><a xlink:href="example__dynamicStrategies_8cpp.html" target="_top" xlink:title="/home/travis/build\l/hypro/hypro/examples\l/example_dynamicStrategies.cpp">
<polygon fill="white" stroke="black" points="300,-6 300,-47 476,-47 476,-6 300,-6"/>
<text text-anchor="start" x="308" y="-35" font-family="Helvetica,sans-Serif" font-size="10.00">/home/travis/build</text>
<text text-anchor="start" x="308" y="-24" font-family="Helvetica,sans-Serif" font-size="10.00">/hypro/hypro/examples</text>
<text text-anchor="middle" x="388" y="-13" font-family="Helvetica,sans-Serif" font-size="10.00">/example_dynamicStrategies.cpp</text>
</a>
</g>
</g>
<!-- Node1&#45;&gt;Node4 -->
<g id="edge3" class="edge"><title>Node1&#45;&gt;Node4</title>
<path fill="none" stroke="midnightblue" d="M513.147,-85.1075C485.964,-72.5946 454.987,-58.3353 430.653,-47.1338"/>
<polygon fill="midnightblue" stroke="midnightblue" points="512.04,-88.4506 522.587,-89.4527 514.967,-82.0919 512.04,-88.4506"/>
</g>
<!-- Node5 -->
<g id="node5" class="node"><title>Node5</title>
<g id="a_node5"><a xlink:href="example__eigenSimpleFlow_8cpp.html" target="_top" xlink:title="/home/travis/build\l/hypro/hypro/examples\l/example_eigenSimpleFlow.cpp">
<polygon fill="white" stroke="black" points="494.5,-6 494.5,-47 659.5,-47 659.5,-6 494.5,-6"/>
<text text-anchor="start" x="502.5" y="-35" font-family="Helvetica,sans-Serif" font-size="10.00">/home/travis/build</text>
<text text-anchor="start" x="502.5" y="-24" font-family="Helvetica,sans-Serif" font-size="10.00">/hypro/hypro/examples</text>
<text text-anchor="middle" x="577" y="-13" font-family="Helvetica,sans-Serif" font-size="10.00">/example_eigenSimpleFlow.cpp</text>
</a>
</g>
</g>
<!-- Node1&#45;&gt;Node5 -->
<g id="edge4" class="edge"><title>Node1&#45;&gt;Node5</title>
<path fill="none" stroke="midnightblue" d="M577,-79.1554C577,-68.2096 577,-56.5492 577,-47.0821"/>
<polygon fill="midnightblue" stroke="midnightblue" points="573.5,-79.336 577,-89.336 580.5,-79.336 573.5,-79.336"/>
</g>
<!-- Node6 -->
<g id="node6" class="node"><title>Node6</title>
<g id="a_node6"><a xlink:href="example__parallel__composition_8cpp.html" target="_top" xlink:title="/home/travis/build\l/hypro/hypro/examples\l/example_parallel_composition.cpp">
<polygon fill="white" stroke="black" points="677.5,-6 677.5,-47 862.5,-47 862.5,-6 677.5,-6"/>
<text text-anchor="start" x="685.5" y="-35" font-family="Helvetica,sans-Serif" font-size="10.00">/home/travis/build</text>
<text text-anchor="start" x="685.5" y="-24" font-family="Helvetica,sans-Serif" font-size="10.00">/hypro/hypro/examples</text>
<text text-anchor="middle" x="770" y="-13" font-family="Helvetica,sans-Serif" font-size="10.00">/example_parallel_composition.cpp</text>
</a>
</g>
</g>
<!-- Node1&#45;&gt;Node6 -->
<g id="edge5" class="edge"><title>Node1&#45;&gt;Node6</title>
<path fill="none" stroke="midnightblue" d="M641.841,-85.2713C669.686,-72.7192 701.487,-58.3842 726.445,-47.1338"/>
<polygon fill="midnightblue" stroke="midnightblue" points="640.243,-82.1523 632.565,-89.4527 643.12,-88.5339 640.243,-82.1523"/>
</g>
<!-- Node7 -->
<g id="node7" class="node"><title>Node7</title>
<g id="a_node7"><a xlink:href="example__reachability_8cpp.html" target="_top" xlink:title="/home/travis/build\l/hypro/hypro/examples\l/example_reachability.cpp">
<polygon fill="white" stroke="black" points="881,-6 881,-47 1021,-47 1021,-6 881,-6"/>
<text text-anchor="start" x="889" y="-35" font-family="Helvetica,sans-Serif" font-size="10.00">/home/travis/build</text>
<text text-anchor="start" x="889" y="-24" font-family="Helvetica,sans-Serif" font-size="10.00">/hypro/hypro/examples</text>
<text text-anchor="middle" x="951" y="-13" font-family="Helvetica,sans-Serif" font-size="10.00">/example_reachability.cpp</text>
</a>
</g>
</g>
<!-- Node1&#45;&gt;Node7 -->
<g id="edge6" class="edge"><title>Node1&#45;&gt;Node7</title>
<path fill="none" stroke="midnightblue" d="M649.171,-101.682C709.208,-90.4885 796.703,-72.9402 872,-53 878.827,-51.1922 885.934,-49.1422 892.965,-47.0089"/>
<polygon fill="midnightblue" stroke="midnightblue" points="648.23,-98.2972 639.035,-103.561 649.506,-105.18 648.23,-98.2972"/>
</g>
<!-- Node8 -->
<g id="node8" class="node"><title>Node8</title>
<g id="a_node8"><a xlink:href="example__worker_8cpp.html" target="_top" xlink:title="/home/travis/build\l/hypro/hypro/examples\l/example_worker.cpp">
<polygon fill="white" stroke="black" points="1039,-6 1039,-47 1165,-47 1165,-6 1039,-6"/>
<text text-anchor="start" x="1047" y="-35" font-family="Helvetica,sans-Serif" font-size="10.00">/home/travis/build</text>
<text text-anchor="start" x="1047" y="-24" font-family="Helvetica,sans-Serif" font-size="10.00">/hypro/hypro/examples</text>
<text text-anchor="middle" x="1102" y="-13" font-family="Helvetica,sans-Serif" font-size="10.00">/example_worker.cpp</text>
</a>
</g>
</g>
<!-- Node1&#45;&gt;Node8 -->
<g id="edge7" class="edge"><title>Node1&#45;&gt;Node8</title>
<path fill="none" stroke="midnightblue" d="M649.41,-109.282C739.559,-101.735 897.792,-85.0256 1030,-53 1036.83,-51.3454 1043.92,-49.2829 1050.87,-47.0523"/>
<polygon fill="midnightblue" stroke="midnightblue" points="648.975,-105.806 639.296,-110.114 649.549,-112.782 648.975,-105.806"/>
</g>
</g>
</svg>
