<?xml version="1.0" encoding="UTF-8" standalone="no"?>
<!DOCTYPE svg PUBLIC "-//W3C//DTD SVG 1.1//EN"
 "http://www.w3.org/Graphics/SVG/1.1/DTD/svg11.dtd">
<!-- Generated by graphviz version 2.38.0 (20140413.2041)
 -->
<!-- Title: /home/travis/build/hypro/hypro/src/hypro/datastructures/HybridAutomaton/Path.h Pages: 1 -->
<svg width="827pt" height="1040pt"
 viewBox="0.00 0.00 827.25 1040.00" xmlns="http://www.w3.org/2000/svg" xmlns:xlink="http://www.w3.org/1999/xlink">
<g id="graph0" class="graph" transform="scale(1 1) rotate(0) translate(4 1036)">
<title>/home/travis/build/hypro/hypro/src/hypro/datastructures/HybridAutomaton/Path.h</title>
<polygon fill="white" stroke="none" points="-4,4 -4,-1036 823.251,-1036 823.251,4 -4,4"/>
<!-- Node1 -->
<g id="node1" class="node"><title>Node1</title>
<polygon fill="#bfbfbf" stroke="black" points="537,-979.5 537,-1031.5 715,-1031.5 715,-979.5 537,-979.5"/>
<text text-anchor="start" x="545" y="-1019.5" font-family="Helvetica,sans-Serif" font-size="10.00">/home/travis/build</text>
<text text-anchor="start" x="545" y="-1008.5" font-family="Helvetica,sans-Serif" font-size="10.00">/hypro/hypro/src/hypro</text>
<text text-anchor="start" x="545" y="-997.5" font-family="Helvetica,sans-Serif" font-size="10.00">/datastructures/HybridAutomaton</text>
<text text-anchor="middle" x="626" y="-986.5" font-family="Helvetica,sans-Serif" font-size="10.00">/Path.h</text>
</g>
<!-- Node2 -->
<g id="node2" class="node"><title>Node2</title>
<g id="a_node2"><a xlink:href="Task_8h.html" target="_top" xlink:title="/home/travis/build\l/hypro/hypro/src/hypro\l/datastructures/reachability\l/Task.h">
<polygon fill="white" stroke="black" points="555,-712.5 555,-764.5 703,-764.5 703,-712.5 555,-712.5"/>
<text text-anchor="start" x="563" y="-752.5" font-family="Helvetica,sans-Serif" font-size="10.00">/home/travis/build</text>
<text text-anchor="start" x="563" y="-741.5" font-family="Helvetica,sans-Serif" font-size="10.00">/hypro/hypro/src/hypro</text>
<text text-anchor="start" x="563" y="-730.5" font-family="Helvetica,sans-Serif" font-size="10.00">/datastructures/reachability</text>
<text text-anchor="middle" x="629" y="-719.5" font-family="Helvetica,sans-Serif" font-size="10.00">/Task.h</text>
</a>
</g>
</g>
<!-- Node1&#45;&gt;Node2 -->
<g id="edge1" class="edge"><title>Node1&#45;&gt;Node2</title>
<path fill="none" stroke="midnightblue" d="M626.403,-968.893C627.018,-914.555 628.176,-812.26 628.713,-764.832"/>
<polygon fill="midnightblue" stroke="midnightblue" points="622.901,-969.052 626.288,-979.091 629.901,-969.131 622.901,-969.052"/>
</g>
<!-- Node13 -->
<g id="node13" class="node"><title>Node13</title>
<g id="a_node13"><a xlink:href="ReachTreeNode_8h.html" target="_top" xlink:title="/home/travis/build\l/hypro/hypro/src/hypro\l/datastructures/reachability\l/ReachTreeNode.h">
<polygon fill="white" stroke="black" points="263,-890.5 263,-942.5 411,-942.5 411,-890.5 263,-890.5"/>
<text text-anchor="start" x="271" y="-930.5" font-family="Helvetica,sans-Serif" font-size="10.00">/home/travis/build</text>
<text text-anchor="start" x="271" y="-919.5" font-family="Helvetica,sans-Serif" font-size="10.00">/hypro/hypro/src/hypro</text>
<text text-anchor="start" x="271" y="-908.5" font-family="Helvetica,sans-Serif" font-size="10.00">/datastructures/reachability</text>
<text text-anchor="middle" x="337" y="-897.5" font-family="Helvetica,sans-Serif" font-size="10.00">/ReachTreeNode.h</text>
</a>
</g>
</g>
<!-- Node1&#45;&gt;Node13 -->
<g id="edge25" class="edge"><title>Node1&#45;&gt;Node13</title>
<path fill="none" stroke="midnightblue" d="M532.922,-976.48C493.552,-964.628 448.325,-951.013 411.251,-939.852"/>
<polygon fill="midnightblue" stroke="midnightblue" points="532.212,-979.921 542.797,-979.453 534.23,-973.219 532.212,-979.921"/>
</g>
<!-- Node17 -->
<g id="node17" class="node"><title>Node17</title>
<g id="a_node17"><a xlink:href="EventTimingProvider_8h.html" target="_top" xlink:title="/home/travis/build\l/hypro/hypro/src/hypro\l/datastructures/reachability\l/timing/EventTimingProvider.h">
<polygon fill="white" stroke="black" points="654,-801.5 654,-853.5 812,-853.5 812,-801.5 654,-801.5"/>
<text text-anchor="start" x="662" y="-841.5" font-family="Helvetica,sans-Serif" font-size="10.00">/home/travis/build</text>
<text text-anchor="start" x="662" y="-830.5" font-family="Helvetica,sans-Serif" font-size="10.00">/hypro/hypro/src/hypro</text>
<text text-anchor="start" x="662" y="-819.5" font-family="Helvetica,sans-Serif" font-size="10.00">/datastructures/reachability</text>
<text text-anchor="middle" x="733" y="-808.5" font-family="Helvetica,sans-Serif" font-size="10.00">/timing/EventTimingProvider.h</text>
</a>
</g>
</g>
<!-- Node1&#45;&gt;Node17 -->
<g id="edge36" class="edge"><title>Node1&#45;&gt;Node17</title>
<path fill="none" stroke="midnightblue" d="M646.629,-970.568C667.425,-936.362 699.039,-884.361 717.698,-853.67"/>
<polygon fill="midnightblue" stroke="midnightblue" points="643.535,-968.92 641.33,-979.283 649.516,-972.557 643.535,-968.92"/>
</g>
<!-- Node3 -->
<g id="node3" class="node"><title>Node3</title>
<g id="a_node3"><a xlink:href="ContextFactory_8h.html" target="_top" xlink:title="/home/travis/build\l/hypro/hypro/src/hypro\l/algorithms/reachability\l/contexts/ContextFactory.h">
<polygon fill="white" stroke="black" points="422.5,-178.5 422.5,-230.5 565.5,-230.5 565.5,-178.5 422.5,-178.5"/>
<text text-anchor="start" x="430.5" y="-218.5" font-family="Helvetica,sans-Serif" font-size="10.00">/home/travis/build</text>
<text text-anchor="start" x="430.5" y="-207.5" font-family="Helvetica,sans-Serif" font-size="10.00">/hypro/hypro/src/hypro</text>
<text text-anchor="start" x="430.5" y="-196.5" font-family="Helvetica,sans-Serif" font-size="10.00">/algorithms/reachability</text>
<text text-anchor="middle" x="494" y="-185.5" font-family="Helvetica,sans-Serif" font-size="10.00">/contexts/ContextFactory.h</text>
</a>
</g>
</g>
<!-- Node2&#45;&gt;Node3 -->
<g id="edge2" class="edge"><title>Node2&#45;&gt;Node3</title>
<path fill="none" stroke="midnightblue" d="M637.286,-702.395C648.467,-651.874 667,-555.594 667,-472.5 667,-472.5 667,-472.5 667,-381.5 667,-311.662 596.864,-259.406 545.906,-230.656"/>
<polygon fill="midnightblue" stroke="midnightblue" points="633.802,-701.936 635.021,-712.46 640.631,-703.472 633.802,-701.936"/>
</g>
<!-- Node4 -->
<g id="node4" class="node"><title>Node4</title>
<g id="a_node4"><a xlink:href="ContextBasedReachabilityWorker_8h.html" target="_top" xlink:title="/home/travis/build\l/hypro/hypro/src/hypro\l/algorithms/reachability\l/workers/ContextBasedReachability\lWorker.h">
<polygon fill="white" stroke="black" points="402.5,-78.5 402.5,-141.5 585.5,-141.5 585.5,-78.5 402.5,-78.5"/>
<text text-anchor="start" x="410.5" y="-129.5" font-family="Helvetica,sans-Serif" font-size="10.00">/home/travis/build</text>
<text text-anchor="start" x="410.5" y="-118.5" font-family="Helvetica,sans-Serif" font-size="10.00">/hypro/hypro/src/hypro</text>
<text text-anchor="start" x="410.5" y="-107.5" font-family="Helvetica,sans-Serif" font-size="10.00">/algorithms/reachability</text>
<text text-anchor="start" x="410.5" y="-96.5" font-family="Helvetica,sans-Serif" font-size="10.00">/workers/ContextBasedReachability</text>
<text text-anchor="middle" x="494" y="-85.5" font-family="Helvetica,sans-Serif" font-size="10.00">Worker.h</text>
</a>
</g>
</g>
<!-- Node2&#45;&gt;Node4 -->
<g id="edge22" class="edge"><title>Node2&#45;&gt;Node4</title>
<path fill="none" stroke="midnightblue" d="M653.353,-703.809C675.584,-669.682 705,-614.508 705,-561.5 705,-561.5 705,-561.5 705,-292.5 705,-220.262 633.041,-170.497 573.169,-141.594"/>
<polygon fill="midnightblue" stroke="midnightblue" points="650.234,-702.177 647.592,-712.437 656.056,-706.064 650.234,-702.177"/>
</g>
<!-- Node5 -->
<g id="node5" class="node"><title>Node5</title>
<g id="a_node5"><a xlink:href="example__rectangularReachability_8cpp.html" target="_top" xlink:title="/home/travis/build\l/hypro/hypro/examples\l/example_rectangularReachability.cpp">
<polygon fill="white" stroke="black" points="215,-0.5 215,-41.5 411,-41.5 411,-0.5 215,-0.5"/>
<text text-anchor="start" x="223" y="-29.5" font-family="Helvetica,sans-Serif" font-size="10.00">/home/travis/build</text>
<text text-anchor="start" x="223" y="-18.5" font-family="Helvetica,sans-Serif" font-size="10.00">/hypro/hypro/examples</text>
<text text-anchor="middle" x="313" y="-7.5" font-family="Helvetica,sans-Serif" font-size="10.00">/example_rectangularReachability.cpp</text>
</a>
</g>
</g>
<!-- Node2&#45;&gt;Node5 -->
<g id="edge23" class="edge"><title>Node2&#45;&gt;Node5</title>
<path fill="none" stroke="midnightblue" d="M558.689,-708.286C537.247,-698.694 513.843,-687.519 493,-676 455.671,-655.369 452.667,-638.672 413,-623 323.707,-587.721 267.335,-655.438 200,-587 135.836,-521.785 169,-474.988 169,-383.5 169,-383.5 169,-383.5 169,-203.5 169,-146.711 158.112,-122.808 193,-78 205.712,-61.674 224.317,-49.9058 243.101,-41.5085"/>
<polygon fill="midnightblue" stroke="midnightblue" points="557.503,-711.589 568.064,-712.437 560.337,-705.188 557.503,-711.589"/>
</g>
<!-- Node6 -->
<g id="node6" class="node"><title>Node6</title>
<g id="a_node6"><a xlink:href="example__worker_8cpp.html" target="_top" xlink:title="/home/travis/build\l/hypro/hypro/examples\l/example_worker.cpp">
<polygon fill="white" stroke="black" points="574,-0.5 574,-41.5 700,-41.5 700,-0.5 574,-0.5"/>
<text text-anchor="start" x="582" y="-29.5" font-family="Helvetica,sans-Serif" font-size="10.00">/home/travis/build</text>
<text text-anchor="start" x="582" y="-18.5" font-family="Helvetica,sans-Serif" font-size="10.00">/hypro/hypro/examples</text>
<text text-anchor="middle" x="637" y="-7.5" font-family="Helvetica,sans-Serif" font-size="10.00">/example_worker.cpp</text>
</a>
</g>
</g>
<!-- Node2&#45;&gt;Node6 -->
<g id="edge24" class="edge"><title>Node2&#45;&gt;Node6</title>
<path fill="none" stroke="midnightblue" d="M670.846,-705.64C680.188,-696.884 689.298,-686.797 696,-676 767.393,-560.977 781,-518.878 781,-383.5 781,-383.5 781,-383.5 781,-203.5 781,-146.711 791.888,-122.808 757,-78 742.735,-59.6786 721.047,-47.0972 700.014,-38.5785"/>
<polygon fill="midnightblue" stroke="midnightblue" points="668.455,-703.083 663.346,-712.365 673.128,-708.295 668.455,-703.083"/>
</g>
<!-- Node7 -->
<g id="node7" class="node"><title>Node7</title>
<g id="a_node7"><a xlink:href="IWorker_8h.html" target="_top" xlink:title="/home/travis/build\l/hypro/hypro/src/hypro\l/algorithms/reachability\l/workers/IWorker.h">
<polygon fill="white" stroke="black" points="235,-445.5 235,-497.5 363,-497.5 363,-445.5 235,-445.5"/>
<text text-anchor="start" x="243" y="-485.5" font-family="Helvetica,sans-Serif" font-size="10.00">/home/travis/build</text>
<text text-anchor="start" x="243" y="-474.5" font-family="Helvetica,sans-Serif" font-size="10.00">/hypro/hypro/src/hypro</text>
<text text-anchor="start" x="243" y="-463.5" font-family="Helvetica,sans-Serif" font-size="10.00">/algorithms/reachability</text>
<text text-anchor="middle" x="299" y="-452.5" font-family="Helvetica,sans-Serif" font-size="10.00">/workers/IWorker.h</text>
</a>
</g>
</g>
<!-- Node2&#45;&gt;Node7 -->
<g id="edge6" class="edge"><title>Node2&#45;&gt;Node7</title>
<path fill="none" stroke="midnightblue" d="M578.061,-706.634C564.73,-697.524 550.8,-687.019 539,-676 480.254,-621.139 489.731,-584.256 427,-534 408.048,-518.817 384.73,-506.213 363.212,-496.451"/>
<polygon fill="midnightblue" stroke="midnightblue" points="576.446,-709.765 586.705,-712.41 580.335,-703.944 576.446,-709.765"/>
</g>
<!-- Node8 -->
<g id="node8" class="node"><title>Node8</title>
<g id="a_node8"><a xlink:href="LTIContext_8h.html" target="_top" xlink:title="/home/travis/build\l/hypro/hypro/src/hypro\l/algorithms/reachability\l/contexts/LTIContext.h">
<polygon fill="white" stroke="black" points="473,-356.5 473,-408.5 601,-408.5 601,-356.5 473,-356.5"/>
<text text-anchor="start" x="481" y="-396.5" font-family="Helvetica,sans-Serif" font-size="10.00">/home/travis/build</text>
<text text-anchor="start" x="481" y="-385.5" font-family="Helvetica,sans-Serif" font-size="10.00">/hypro/hypro/src/hypro</text>
<text text-anchor="start" x="481" y="-374.5" font-family="Helvetica,sans-Serif" font-size="10.00">/algorithms/reachability</text>
<text text-anchor="middle" x="537" y="-363.5" font-family="Helvetica,sans-Serif" font-size="10.00">/contexts/LTIContext.h</text>
</a>
</g>
</g>
<!-- Node2&#45;&gt;Node8 -->
<g id="edge14" class="edge"><title>Node2&#45;&gt;Node8</title>
<path fill="none" stroke="midnightblue" d="M595.411,-704.631C588.271,-695.964 581.529,-686.171 577,-676 536.034,-583.994 534.39,-460.898 535.839,-408.647"/>
<polygon fill="midnightblue" stroke="midnightblue" points="592.83,-706.996 602.029,-712.252 598.115,-702.407 592.83,-706.996"/>
</g>
<!-- Node9 -->
<g id="node9" class="node"><title>Node9</title>
<g id="a_node9"><a xlink:href="TimedContext_8h.html" target="_top" xlink:title="/home/travis/build\l/hypro/hypro/src/hypro\l/algorithms/reachability\l/contexts/TimedContext.h">
<polygon fill="white" stroke="black" points="375,-267.5 375,-319.5 515,-319.5 515,-267.5 375,-267.5"/>
<text text-anchor="start" x="383" y="-307.5" font-family="Helvetica,sans-Serif" font-size="10.00">/home/travis/build</text>
<text text-anchor="start" x="383" y="-296.5" font-family="Helvetica,sans-Serif" font-size="10.00">/hypro/hypro/src/hypro</text>
<text text-anchor="start" x="383" y="-285.5" font-family="Helvetica,sans-Serif" font-size="10.00">/algorithms/reachability</text>
<text text-anchor="middle" x="445" y="-274.5" font-family="Helvetica,sans-Serif" font-size="10.00">/contexts/TimedContext.h</text>
</a>
</g>
</g>
<!-- Node2&#45;&gt;Node9 -->
<g id="edge21" class="edge"><title>Node2&#45;&gt;Node9</title>
<path fill="none" stroke="midnightblue" d="M619.715,-702.526C617.796,-693.914 616.043,-684.674 615,-676 598.011,-534.779 692.046,-472.192 610,-356 588.399,-325.408 549.689,-310.012 515.191,-302.273"/>
<polygon fill="midnightblue" stroke="midnightblue" points="616.312,-703.343 622.011,-712.275 623.125,-701.739 616.312,-703.343"/>
</g>
<!-- Node10 -->
<g id="node10" class="node"><title>Node10</title>
<g id="a_node10"><a xlink:href="ltiJumpHandler_8h.html" target="_top" xlink:title="/home/travis/build\l/hypro/hypro/src/hypro\l/algorithms/reachability\l/handlers/jumpHandlers/ltiJumpHandler.h">
<polygon fill="white" stroke="black" points="192,-623.5 192,-675.5 404,-675.5 404,-623.5 192,-623.5"/>
<text text-anchor="start" x="200" y="-663.5" font-family="Helvetica,sans-Serif" font-size="10.00">/home/travis/build</text>
<text text-anchor="start" x="200" y="-652.5" font-family="Helvetica,sans-Serif" font-size="10.00">/hypro/hypro/src/hypro</text>
<text text-anchor="start" x="200" y="-641.5" font-family="Helvetica,sans-Serif" font-size="10.00">/algorithms/reachability</text>
<text text-anchor="middle" x="298" y="-630.5" font-family="Helvetica,sans-Serif" font-size="10.00">/handlers/jumpHandlers/ltiJumpHandler.h</text>
</a>
</g>
</g>
<!-- Node2&#45;&gt;Node10 -->
<g id="edge15" class="edge"><title>Node2&#45;&gt;Node10</title>
<path fill="none" stroke="midnightblue" d="M545.197,-711.826C493.72,-697.652 445.666,-685.561 404.232,-675.484"/>
<polygon fill="midnightblue" stroke="midnightblue" points="544.276,-715.203 554.848,-714.497 546.143,-708.457 544.276,-715.203"/>
</g>
<!-- Node3&#45;&gt;Node4 -->
<g id="edge3" class="edge"><title>Node3&#45;&gt;Node4</title>
<path fill="none" stroke="midnightblue" d="M494,-167.945C494,-159.226 494,-149.97 494,-141.512"/>
<polygon fill="midnightblue" stroke="midnightblue" points="490.5,-168.224 494,-178.224 497.5,-168.224 490.5,-168.224"/>
</g>
<!-- Node4&#45;&gt;Node5 -->
<g id="edge4" class="edge"><title>Node4&#45;&gt;Node5</title>
<path fill="none" stroke="midnightblue" d="M421.374,-74.0912C398.355,-63.0271 373.73,-51.1907 353.779,-41.6012"/>
<polygon fill="midnightblue" stroke="midnightblue" points="419.911,-77.2717 430.441,-78.4494 422.944,-70.9626 419.911,-77.2717"/>
</g>
<!-- Node4&#45;&gt;Node6 -->
<g id="edge5" class="edge"><title>Node4&#45;&gt;Node6</title>
<path fill="none" stroke="midnightblue" d="M553.022,-73.0914C570.766,-62.296 589.568,-50.8569 604.873,-41.5457"/>
<polygon fill="midnightblue" stroke="midnightblue" points="551.14,-70.1393 544.416,-78.3271 554.779,-76.1195 551.14,-70.1393"/>
</g>
<!-- Node7&#45;&gt;Node3 -->
<g id="edge7" class="edge"><title>Node7&#45;&gt;Node3</title>
<path fill="none" stroke="midnightblue" d="M308.867,-435.611C324.567,-380.942 354.622,-279.96 366,-267 381.046,-249.862 401.93,-237.08 422.469,-227.743"/>
<polygon fill="midnightblue" stroke="midnightblue" points="305.495,-434.672 306.11,-445.249 312.225,-436.597 305.495,-434.672"/>
</g>
<!-- Node7&#45;&gt;Node4 -->
<g id="edge13" class="edge"><title>Node7&#45;&gt;Node4</title>
<path fill="none" stroke="midnightblue" d="M300.426,-435.148C303.412,-392.927 312.623,-321.214 341,-267 367.828,-215.746 416.987,-170.198 452.351,-141.745"/>
<polygon fill="midnightblue" stroke="midnightblue" points="296.927,-435.019 299.793,-445.219 303.914,-435.458 296.927,-435.019"/>
</g>
<!-- Node7&#45;&gt;Node8 -->
<g id="edge8" class="edge"><title>Node7&#45;&gt;Node8</title>
<path fill="none" stroke="midnightblue" d="M372.847,-443.506C404.845,-431.809 441.959,-418.242 472.793,-406.971"/>
<polygon fill="midnightblue" stroke="midnightblue" points="371.283,-440.351 363.093,-447.071 373.687,-446.925 371.283,-440.351"/>
</g>
<!-- Node7&#45;&gt;Node9 -->
<g id="edge12" class="edge"><title>Node7&#45;&gt;Node9</title>
<path fill="none" stroke="midnightblue" d="M330.321,-437.763C338.817,-428.599 347.901,-418.536 356,-409 381.425,-379.063 408.913,-343.094 426.507,-319.561"/>
<polygon fill="midnightblue" stroke="midnightblue" points="327.626,-435.52 323.357,-445.216 332.741,-440.298 327.626,-435.52"/>
</g>
<!-- Node8&#45;&gt;Node3 -->
<g id="edge9" class="edge"><title>Node8&#45;&gt;Node3</title>
<path fill="none" stroke="midnightblue" d="M536.103,-346.464C534.769,-323.481 531.569,-292.985 524,-267 520.379,-254.568 514.402,-241.573 508.733,-230.749"/>
<polygon fill="midnightblue" stroke="midnightblue" points="532.608,-346.636 536.594,-356.452 539.599,-346.292 532.608,-346.636"/>
</g>
<!-- Node8&#45;&gt;Node9 -->
<g id="edge10" class="edge"><title>Node8&#45;&gt;Node9</title>
<path fill="none" stroke="midnightblue" d="M503.016,-349.363C492.631,-339.542 481.366,-328.89 471.55,-319.607"/>
<polygon fill="midnightblue" stroke="midnightblue" points="500.719,-352.008 510.39,-356.336 505.529,-346.922 500.719,-352.008"/>
</g>
<!-- Node9&#45;&gt;Node3 -->
<g id="edge11" class="edge"><title>Node9&#45;&gt;Node3</title>
<path fill="none" stroke="midnightblue" d="M464.234,-258.35C469.443,-249.1 474.986,-239.259 479.859,-230.607"/>
<polygon fill="midnightblue" stroke="midnightblue" points="461.031,-256.905 459.173,-267.336 467.13,-260.34 461.031,-256.905"/>
</g>
<!-- Node11 -->
<g id="node11" class="node"><title>Node11</title>
<g id="a_node11"><a xlink:href="JumpHandlers_8h.html" target="_top" xlink:title="/home/travis/build\l/hypro/hypro/src/hypro\l/algorithms/reachability\l/handlers/jumpHandlers/JumpHandlers.h">
<polygon fill="white" stroke="black" points="209.5,-534.5 209.5,-586.5 418.5,-586.5 418.5,-534.5 209.5,-534.5"/>
<text text-anchor="start" x="217.5" y="-574.5" font-family="Helvetica,sans-Serif" font-size="10.00">/home/travis/build</text>
<text text-anchor="start" x="217.5" y="-563.5" font-family="Helvetica,sans-Serif" font-size="10.00">/hypro/hypro/src/hypro</text>
<text text-anchor="start" x="217.5" y="-552.5" font-family="Helvetica,sans-Serif" font-size="10.00">/algorithms/reachability</text>
<text text-anchor="middle" x="314" y="-541.5" font-family="Helvetica,sans-Serif" font-size="10.00">/handlers/jumpHandlers/JumpHandlers.h</text>
</a>
</g>
</g>
<!-- Node10&#45;&gt;Node11 -->
<g id="edge16" class="edge"><title>Node10&#45;&gt;Node11</title>
<path fill="none" stroke="midnightblue" d="M304.44,-613.481C306.094,-604.487 307.841,-594.989 309.383,-586.607"/>
<polygon fill="midnightblue" stroke="midnightblue" points="300.994,-612.868 302.628,-623.336 307.879,-614.134 300.994,-612.868"/>
</g>
<!-- Node12 -->
<g id="node12" class="node"><title>Node12</title>
<g id="a_node12"><a xlink:href="HandlerFactory_8h.html" target="_top" xlink:title="/home/travis/build\l/hypro/hypro/src/hypro\l/algorithms/reachability\l/handlers/HandlerFactory.h">
<polygon fill="white" stroke="black" points="381.5,-445.5 381.5,-497.5 524.5,-497.5 524.5,-445.5 381.5,-445.5"/>
<text text-anchor="start" x="389.5" y="-485.5" font-family="Helvetica,sans-Serif" font-size="10.00">/home/travis/build</text>
<text text-anchor="start" x="389.5" y="-474.5" font-family="Helvetica,sans-Serif" font-size="10.00">/hypro/hypro/src/hypro</text>
<text text-anchor="start" x="389.5" y="-463.5" font-family="Helvetica,sans-Serif" font-size="10.00">/algorithms/reachability</text>
<text text-anchor="middle" x="453" y="-452.5" font-family="Helvetica,sans-Serif" font-size="10.00">/handlers/HandlerFactory.h</text>
</a>
</g>
</g>
<!-- Node11&#45;&gt;Node12 -->
<g id="edge17" class="edge"><title>Node11&#45;&gt;Node12</title>
<path fill="none" stroke="midnightblue" d="M363.07,-528.787C379.379,-518.579 397.335,-507.341 412.886,-497.607"/>
<polygon fill="midnightblue" stroke="midnightblue" points="360.824,-526.064 354.205,-534.336 364.538,-531.997 360.824,-526.064"/>
</g>
<!-- Node12&#45;&gt;Node8 -->
<g id="edge18" class="edge"><title>Node12&#45;&gt;Node8</title>
<path fill="none" stroke="midnightblue" d="M484.305,-438.077C493.711,-428.335 503.883,-417.8 512.758,-408.607"/>
<polygon fill="midnightblue" stroke="midnightblue" points="481.724,-435.711 477.296,-445.336 486.76,-440.573 481.724,-435.711"/>
</g>
<!-- Node12&#45;&gt;Node9 -->
<g id="edge20" class="edge"><title>Node12&#45;&gt;Node9</title>
<path fill="none" stroke="midnightblue" d="M451.398,-435.249C449.843,-401.038 447.521,-349.969 446.144,-319.67"/>
<polygon fill="midnightblue" stroke="midnightblue" points="447.903,-435.453 451.854,-445.283 454.896,-435.135 447.903,-435.453"/>
</g>
<!-- Node12&#45;&gt;Node10 -->
<g id="edge19" class="edge"><title>Node12&#45;&gt;Node10</title>
<path fill="none" stroke="midnightblue" d="M452.837,-507.535C451.005,-532.156 444.936,-564.574 427,-587 414.525,-602.598 397.14,-614.467 379.167,-623.411"/>
<polygon fill="midnightblue" stroke="midnightblue" points="456.334,-507.688 453.385,-497.512 449.344,-507.306 456.334,-507.688"/>
</g>
<!-- Node13&#45;&gt;Node2 -->
<g id="edge26" class="edge"><title>Node13&#45;&gt;Node2</title>
<path fill="none" stroke="midnightblue" d="M387.285,-885.191C443.754,-851.155 534.377,-796.533 587.144,-764.728"/>
<polygon fill="midnightblue" stroke="midnightblue" points="385.284,-882.311 378.526,-890.47 388.898,-888.306 385.284,-882.311"/>
</g>
<!-- Node13&#45;&gt;Node10 -->
<g id="edge33" class="edge"><title>Node13&#45;&gt;Node10</title>
<path fill="none" stroke="midnightblue" d="M359.112,-881.371C363.599,-872.769 367.657,-863.32 370,-854 375.742,-831.155 378.019,-823.149 370,-801 362.91,-781.417 350.406,-783.042 340,-765 323.391,-736.204 311.358,-699.663 304.534,-675.707"/>
<polygon fill="midnightblue" stroke="midnightblue" points="355.934,-879.886 354.137,-890.327 362.053,-883.285 355.934,-879.886"/>
</g>
<!-- Node14 -->
<g id="node14" class="node"><title>Node14</title>
<g id="a_node14"><a xlink:href="ReachTree_8h.html" target="_top" xlink:title="/home/travis/build\l/hypro/hypro/src/hypro\l/datastructures/reachability\l/ReachTree.h">
<polygon fill="white" stroke="black" points="0,-801.5 0,-853.5 148,-853.5 148,-801.5 0,-801.5"/>
<text text-anchor="start" x="8" y="-841.5" font-family="Helvetica,sans-Serif" font-size="10.00">/home/travis/build</text>
<text text-anchor="start" x="8" y="-830.5" font-family="Helvetica,sans-Serif" font-size="10.00">/hypro/hypro/src/hypro</text>
<text text-anchor="start" x="8" y="-819.5" font-family="Helvetica,sans-Serif" font-size="10.00">/datastructures/reachability</text>
<text text-anchor="middle" x="74" y="-808.5" font-family="Helvetica,sans-Serif" font-size="10.00">/ReachTree.h</text>
</a>
</g>
</g>
<!-- Node13&#45;&gt;Node14 -->
<g id="edge27" class="edge"><title>Node13&#45;&gt;Node14</title>
<path fill="none" stroke="midnightblue" d="M252.867,-887.669C219.191,-876.529 180.733,-863.807 148.127,-853.021"/>
<polygon fill="midnightblue" stroke="midnightblue" points="252.096,-891.1 262.689,-890.918 254.295,-884.455 252.096,-891.1"/>
</g>
<!-- Node15 -->
<g id="node15" class="node"><title>Node15</title>
<g id="a_node15"><a xlink:href="NodeManager_8h.html" target="_top" xlink:title="/home/travis/build\l/hypro/hypro/src/hypro\l/datastructures/reachability\l/NodeManager.h">
<polygon fill="white" stroke="black" points="107,-712.5 107,-764.5 255,-764.5 255,-712.5 107,-712.5"/>
<text text-anchor="start" x="115" y="-752.5" font-family="Helvetica,sans-Serif" font-size="10.00">/home/travis/build</text>
<text text-anchor="start" x="115" y="-741.5" font-family="Helvetica,sans-Serif" font-size="10.00">/hypro/hypro/src/hypro</text>
<text text-anchor="start" x="115" y="-730.5" font-family="Helvetica,sans-Serif" font-size="10.00">/datastructures/reachability</text>
<text text-anchor="middle" x="181" y="-719.5" font-family="Helvetica,sans-Serif" font-size="10.00">/NodeManager.h</text>
</a>
</g>
</g>
<!-- Node13&#45;&gt;Node15 -->
<g id="edge32" class="edge"><title>Node13&#45;&gt;Node15</title>
<path fill="none" stroke="midnightblue" d="M253.34,-895.793C231.173,-886.625 209.426,-873.3 195,-854 175.816,-828.335 175.143,-790.025 177.337,-764.901"/>
<polygon fill="midnightblue" stroke="midnightblue" points="252.257,-899.126 262.846,-899.473 254.784,-892.599 252.257,-899.126"/>
</g>
<!-- Node16 -->
<g id="node16" class="node"><title>Node16</title>
<g id="a_node16"><a xlink:href="algorithms_2reachability_2handlers_2jumpHandlers_2util_8h.html" target="_top" xlink:title="/home/travis/build\l/hypro/hypro/src/hypro\l/algorithms/reachability\l/handlers/jumpHandlers/util.h">
<polygon fill="white" stroke="black" points="204.5,-801.5 204.5,-853.5 361.5,-853.5 361.5,-801.5 204.5,-801.5"/>
<text text-anchor="start" x="212.5" y="-841.5" font-family="Helvetica,sans-Serif" font-size="10.00">/home/travis/build</text>
<text text-anchor="start" x="212.5" y="-830.5" font-family="Helvetica,sans-Serif" font-size="10.00">/hypro/hypro/src/hypro</text>
<text text-anchor="start" x="212.5" y="-819.5" font-family="Helvetica,sans-Serif" font-size="10.00">/algorithms/reachability</text>
<text text-anchor="middle" x="283" y="-808.5" font-family="Helvetica,sans-Serif" font-size="10.00">/handlers/jumpHandlers/util.h</text>
</a>
</g>
</g>
<!-- Node13&#45;&gt;Node16 -->
<g id="edge34" class="edge"><title>Node13&#45;&gt;Node16</title>
<path fill="none" stroke="midnightblue" d="M315.983,-881.639C310.19,-872.306 304.01,-862.349 298.584,-853.607"/>
<polygon fill="midnightblue" stroke="midnightblue" points="313.134,-883.685 321.381,-890.336 319.081,-879.994 313.134,-883.685"/>
</g>
<!-- Node14&#45;&gt;Node5 -->
<g id="edge30" class="edge"><title>Node14&#45;&gt;Node5</title>
<path fill="none" stroke="midnightblue" d="M63.5101,-791.62C53.8475,-756.367 41,-700.158 41,-650.5 41,-650.5 41,-650.5 41,-203.5 41,-113.236 145.926,-65.0815 225.44,-41.549"/>
<polygon fill="midnightblue" stroke="midnightblue" points="60.189,-792.74 66.263,-801.42 66.9282,-790.847 60.189,-792.74"/>
</g>
<!-- Node14&#45;&gt;Node6 -->
<g id="edge31" class="edge"><title>Node14&#45;&gt;Node6</title>
<path fill="none" stroke="midnightblue" d="M80.2869,-791.386C84.6294,-768.603 90.8894,-738.358 98,-712 138.066,-563.482 207,-537.327 207,-383.5 207,-383.5 207,-383.5 207,-203.5 207,-103.776 301.524,-117.713 393,-78 451.605,-52.5574 523.359,-37.8693 573.838,-29.9739"/>
<polygon fill="midnightblue" stroke="midnightblue" points="76.8331,-790.815 78.4305,-801.289 83.7133,-792.105 76.8331,-790.815"/>
</g>
<!-- Node14&#45;&gt;Node15 -->
<g id="edge28" class="edge"><title>Node14&#45;&gt;Node15</title>
<path fill="none" stroke="midnightblue" d="M112.822,-794.934C125.094,-784.956 138.483,-774.07 150.121,-764.607"/>
<polygon fill="midnightblue" stroke="midnightblue" points="110.5,-792.312 104.949,-801.336 114.916,-797.743 110.5,-792.312"/>
</g>
<!-- Node15&#45;&gt;Node10 -->
<g id="edge29" class="edge"><title>Node15&#45;&gt;Node10</title>
<path fill="none" stroke="midnightblue" d="M223.067,-706.219C236.59,-696.164 251.388,-685.16 264.235,-675.607"/>
<polygon fill="midnightblue" stroke="midnightblue" points="220.777,-703.56 214.841,-712.336 224.954,-709.178 220.777,-703.56"/>
</g>
<!-- Node16&#45;&gt;Node10 -->
<g id="edge35" class="edge"><title>Node16&#45;&gt;Node10</title>
<path fill="none" stroke="midnightblue" d="M286.004,-791.249C288.92,-757.038 293.273,-705.969 295.855,-675.67"/>
<polygon fill="midnightblue" stroke="midnightblue" points="282.511,-791.022 285.149,-801.283 289.486,-791.617 282.511,-791.022"/>
</g>
<!-- Node17&#45;&gt;Node5 -->
<g id="edge40" class="edge"><title>Node17&#45;&gt;Node5</title>
<path fill="none" stroke="midnightblue" d="M734.356,-790.698C737.089,-715.361 743,-534.913 743,-383.5 743,-383.5 743,-383.5 743,-203.5 743,-116.917 672.025,-115.532 594,-78 536.845,-50.507 466.919,-36.5087 411.121,-29.3829"/>
<polygon fill="midnightblue" stroke="midnightblue" points="730.846,-790.913 733.977,-801.035 737.841,-791.17 730.846,-790.913"/>
</g>
<!-- Node17&#45;&gt;Node6 -->
<g id="edge41" class="edge"><title>Node17&#45;&gt;Node6</title>
<path fill="none" stroke="midnightblue" d="M772.505,-794.271C781.043,-785.579 789.229,-775.614 795,-765 819.838,-719.321 819,-702.495 819,-650.5 819,-650.5 819,-650.5 819,-203.5 819,-145.594 823.02,-120.786 784,-78 762.285,-54.1892 729.356,-40.431 700.165,-32.5171"/>
<polygon fill="midnightblue" stroke="midnightblue" points="770.04,-791.786 765.296,-801.259 774.912,-796.812 770.04,-791.786"/>
</g>
<!-- Node17&#45;&gt;Node8 -->
<g id="edge37" class="edge"><title>Node17&#45;&gt;Node8</title>
<path fill="none" stroke="midnightblue" d="M729.399,-791.352C726.352,-768.322 721,-737.817 712,-712 670.095,-591.795 589.053,-462.063 553.924,-408.649"/>
<polygon fill="midnightblue" stroke="midnightblue" points="725.936,-791.871 730.641,-801.363 732.883,-791.008 725.936,-791.871"/>
</g>
<!-- Node18 -->
<g id="node18" class="node"><title>Node18</title>
<g id="a_node18"><a xlink:href="timingUtil_8h.html" target="_top" xlink:title="/home/travis/build\l/hypro/hypro/src/hypro\l/algorithms/reachability\l/handlers/jumpHandlers/timingUtil.h">
<polygon fill="white" stroke="black" points="349,-712.5 349,-764.5 537,-764.5 537,-712.5 349,-712.5"/>
<text text-anchor="start" x="357" y="-752.5" font-family="Helvetica,sans-Serif" font-size="10.00">/home/travis/build</text>
<text text-anchor="start" x="357" y="-741.5" font-family="Helvetica,sans-Serif" font-size="10.00">/hypro/hypro/src/hypro</text>
<text text-anchor="start" x="357" y="-730.5" font-family="Helvetica,sans-Serif" font-size="10.00">/algorithms/reachability</text>
<text text-anchor="middle" x="443" y="-719.5" font-family="Helvetica,sans-Serif" font-size="10.00">/handlers/jumpHandlers/timingUtil.h</text>
</a>
</g>
</g>
<!-- Node17&#45;&gt;Node18 -->
<g id="edge38" class="edge"><title>Node17&#45;&gt;Node18</title>
<path fill="none" stroke="midnightblue" d="M643.879,-799.764C606.48,-788.544 563.225,-775.568 526.454,-764.536"/>
<polygon fill="midnightblue" stroke="midnightblue" points="643.172,-803.206 653.756,-802.727 645.184,-796.501 643.172,-803.206"/>
</g>
<!-- Node18&#45;&gt;Node10 -->
<g id="edge39" class="edge"><title>Node18&#45;&gt;Node10</title>
<path fill="none" stroke="midnightblue" d="M392.284,-707.07C375.146,-696.788 356.218,-685.431 339.846,-675.607"/>
<polygon fill="midnightblue" stroke="midnightblue" points="390.684,-710.192 401.06,-712.336 394.286,-704.19 390.684,-710.192"/>
</g>
</g>
</svg>
