<?xml version="1.0" encoding="UTF-8" standalone="no"?>
<!DOCTYPE svg PUBLIC "-//W3C//DTD SVG 1.1//EN"
 "http://www.w3.org/Graphics/SVG/1.1/DTD/svg11.dtd">
<!-- Generated by graphviz version 2.38.0 (20140413.2041)
 -->
<!-- Title: /home/travis/build/hypro/hypro/src/hypro/util/plotting/PlotterUtil.h Pages: 1 -->
<svg width="415pt" height="106pt"
 viewBox="0.00 0.00 414.50 106.00" xmlns="http://www.w3.org/2000/svg" xmlns:xlink="http://www.w3.org/1999/xlink">
<g id="graph0" class="graph" transform="scale(1 1) rotate(0) translate(4 102)">
<title>/home/travis/build/hypro/hypro/src/hypro/util/plotting/PlotterUtil.h</title>
<polygon fill="white" stroke="none" points="-4,4 -4,-102 410.5,-102 410.5,4 -4,4"/>
<!-- Node1 -->
<g id="node1" class="node"><title>Node1</title>
<polygon fill="#bfbfbf" stroke="black" points="140,-56.5 140,-97.5 272,-97.5 272,-56.5 140,-56.5"/>
<text text-anchor="start" x="148" y="-85.5" font-family="Helvetica,sans-Serif" font-size="10.00">/home/travis/build</text>
<text text-anchor="start" x="148" y="-74.5" font-family="Helvetica,sans-Serif" font-size="10.00">/hypro/hypro/src/hypro</text>
<text text-anchor="middle" x="206" y="-63.5" font-family="Helvetica,sans-Serif" font-size="10.00">/util/plotting/PlotterUtil.h</text>
</g>
<!-- Node2 -->
<g id="node2" class="node"><title>Node2</title>
<polygon fill="white" stroke="#bfbfbf" points="0,-0.5 0,-19.5 62,-19.5 62,-0.5 0,-0.5"/>
<text text-anchor="middle" x="31" y="-7.5" font-family="Helvetica,sans-Serif" font-size="10.00">algorithm</text>
</g>
<!-- Node1&#45;&gt;Node2 -->
<g id="edge1" class="edge"><title>Node1&#45;&gt;Node2</title>
<path fill="none" stroke="midnightblue" d="M153.494,-56.4979C124.342,-45.6697 88.9839,-32.5369 63.7643,-23.1696"/>
<polygon fill="midnightblue" stroke="midnightblue" points="64.8881,-19.8534 54.2952,-19.6525 62.4508,-26.4154 64.8881,-19.8534"/>
</g>
<!-- Node3 -->
<g id="node3" class="node"><title>Node3</title>
<polygon fill="white" stroke="#bfbfbf" points="80,-0.5 80,-19.5 132,-19.5 132,-0.5 80,-0.5"/>
<text text-anchor="middle" x="106" y="-7.5" font-family="Helvetica,sans-Serif" font-size="10.00">cassert</text>
</g>
<!-- Node1&#45;&gt;Node3 -->
<g id="edge2" class="edge"><title>Node1&#45;&gt;Node3</title>
<path fill="none" stroke="midnightblue" d="M175.997,-56.4979C160.517,-46.4363 141.977,-34.3849 127.867,-25.2136"/>
<polygon fill="midnightblue" stroke="midnightblue" points="129.603,-22.1679 119.312,-19.6525 125.789,-28.037 129.603,-22.1679"/>
</g>
<!-- Node4 -->
<g id="node4" class="node"><title>Node4</title>
<polygon fill="white" stroke="#bfbfbf" points="150.5,-0.5 150.5,-19.5 197.5,-19.5 197.5,-0.5 150.5,-0.5"/>
<text text-anchor="middle" x="174" y="-7.5" font-family="Helvetica,sans-Serif" font-size="10.00">cmath</text>
</g>
<!-- Node1&#45;&gt;Node4 -->
<g id="edge3" class="edge"><title>Node1&#45;&gt;Node4</title>
<path fill="none" stroke="midnightblue" d="M196.399,-56.4979C192.059,-47.682 186.967,-37.3385 182.735,-28.7432"/>
<polygon fill="midnightblue" stroke="midnightblue" points="185.817,-27.0783 178.26,-19.6525 179.536,-30.1701 185.817,-27.0783"/>
</g>
<!-- Node5 -->
<g id="node5" class="node"><title>Node5</title>
<polygon fill="white" stroke="#bfbfbf" points="216,-0.5 216,-19.5 260,-19.5 260,-0.5 216,-0.5"/>
<text text-anchor="middle" x="238" y="-7.5" font-family="Helvetica,sans-Serif" font-size="10.00">string</text>
</g>
<!-- Node1&#45;&gt;Node5 -->
<g id="edge4" class="edge"><title>Node1&#45;&gt;Node5</title>
<path fill="none" stroke="midnightblue" d="M215.601,-56.4979C219.941,-47.682 225.033,-37.3385 229.265,-28.7432"/>
<polygon fill="midnightblue" stroke="midnightblue" points="232.464,-30.1701 233.74,-19.6525 226.183,-27.0783 232.464,-30.1701"/>
</g>
<!-- Node6 -->
<g id="node6" class="node"><title>Node6</title>
<polygon fill="white" stroke="#bfbfbf" points="278.5,-0.5 278.5,-19.5 341.5,-19.5 341.5,-0.5 278.5,-0.5"/>
<text text-anchor="middle" x="310" y="-7.5" font-family="Helvetica,sans-Serif" font-size="10.00">sys/stat.h</text>
</g>
<!-- Node1&#45;&gt;Node6 -->
<g id="edge5" class="edge"><title>Node1&#45;&gt;Node6</title>
<path fill="none" stroke="midnightblue" d="M237.203,-56.4979C253.302,-46.4363 272.584,-34.3849 287.258,-25.2136"/>
<polygon fill="midnightblue" stroke="midnightblue" points="289.531,-27.9205 296.156,-19.6525 285.821,-21.9845 289.531,-27.9205"/>
</g>
<!-- Node7 -->
<g id="node7" class="node"><title>Node7</title>
<polygon fill="white" stroke="#bfbfbf" points="359.5,-0.5 359.5,-19.5 406.5,-19.5 406.5,-0.5 359.5,-0.5"/>
<text text-anchor="middle" x="383" y="-7.5" font-family="Helvetica,sans-Serif" font-size="10.00">vector</text>
</g>
<!-- Node1&#45;&gt;Node7 -->
<g id="edge6" class="edge"><title>Node1&#45;&gt;Node7</title>
<path fill="none" stroke="midnightblue" d="M259.106,-56.4979C288.592,-45.6697 324.353,-32.5369 349.861,-23.1696"/>
<polygon fill="midnightblue" stroke="midnightblue" points="351.258,-26.3852 359.439,-19.6525 348.845,-19.8143 351.258,-26.3852"/>
</g>
</g>
</svg>
