<?xml version="1.0" encoding="UTF-8" standalone="no"?>
<!DOCTYPE svg PUBLIC "-//W3C//DTD SVG 1.1//EN"
 "http://www.w3.org/Graphics/SVG/1.1/DTD/svg11.dtd">
<!-- Generated by graphviz version 2.38.0 (20140413.2041)
 -->
<!-- Title: /home/travis/build/hypro/hypro/src/hypro/util/plotting/PlotterUtil.cpp Pages: 1 -->
<svg width="415pt" height="162pt"
 viewBox="0.00 0.00 414.50 162.00" xmlns="http://www.w3.org/2000/svg" xmlns:xlink="http://www.w3.org/1999/xlink">
<g id="graph0" class="graph" transform="scale(1 1) rotate(0) translate(4 158)">
<title>/home/travis/build/hypro/hypro/src/hypro/util/plotting/PlotterUtil.cpp</title>
<polygon fill="white" stroke="none" points="-4,4 -4,-158 410.5,-158 410.5,4 -4,4"/>
<!-- Node1 -->
<g id="node1" class="node"><title>Node1</title>
<polygon fill="#bfbfbf" stroke="black" points="134.5,-112.5 134.5,-153.5 277.5,-153.5 277.5,-112.5 134.5,-112.5"/>
<text text-anchor="start" x="142.5" y="-141.5" font-family="Helvetica,sans-Serif" font-size="10.00">/home/travis/build</text>
<text text-anchor="start" x="142.5" y="-130.5" font-family="Helvetica,sans-Serif" font-size="10.00">/hypro/hypro/src/hypro</text>
<text text-anchor="middle" x="206" y="-119.5" font-family="Helvetica,sans-Serif" font-size="10.00">/util/plotting/PlotterUtil.cpp</text>
</g>
<!-- Node2 -->
<g id="node2" class="node"><title>Node2</title>
<g id="a_node2"><a xlink:href="PlotterUtil_8h.html" target="_top" xlink:title="PlotterUtil.h">
<polygon fill="white" stroke="black" points="169.5,-56.5 169.5,-75.5 242.5,-75.5 242.5,-56.5 169.5,-56.5"/>
<text text-anchor="middle" x="206" y="-63.5" font-family="Helvetica,sans-Serif" font-size="10.00">PlotterUtil.h</text>
</a>
</g>
</g>
<!-- Node1&#45;&gt;Node2 -->
<g id="edge1" class="edge"><title>Node1&#45;&gt;Node2</title>
<path fill="none" stroke="midnightblue" d="M206,-112.498C206,-104.065 206,-94.2351 206,-85.874"/>
<polygon fill="midnightblue" stroke="midnightblue" points="209.5,-85.6525 206,-75.6525 202.5,-85.6525 209.5,-85.6525"/>
</g>
<!-- Node3 -->
<g id="node3" class="node"><title>Node3</title>
<polygon fill="white" stroke="#bfbfbf" points="0,-0.5 0,-19.5 62,-19.5 62,-0.5 0,-0.5"/>
<text text-anchor="middle" x="31" y="-7.5" font-family="Helvetica,sans-Serif" font-size="10.00">algorithm</text>
</g>
<!-- Node2&#45;&gt;Node3 -->
<g id="edge2" class="edge"><title>Node2&#45;&gt;Node3</title>
<path fill="none" stroke="midnightblue" d="M178.271,-56.4435C148.574,-47.2801 101.284,-32.6876 68.3307,-22.5192"/>
<polygon fill="midnightblue" stroke="midnightblue" points="69.187,-19.1206 58.5995,-19.5164 67.123,-25.8094 69.187,-19.1206"/>
</g>
<!-- Node4 -->
<g id="node4" class="node"><title>Node4</title>
<polygon fill="white" stroke="#bfbfbf" points="80,-0.5 80,-19.5 132,-19.5 132,-0.5 80,-0.5"/>
<text text-anchor="middle" x="106" y="-7.5" font-family="Helvetica,sans-Serif" font-size="10.00">cassert</text>
</g>
<!-- Node2&#45;&gt;Node4 -->
<g id="edge3" class="edge"><title>Node2&#45;&gt;Node4</title>
<path fill="none" stroke="midnightblue" d="M189.933,-56.324C174.042,-47.7428 149.493,-34.486 131.042,-24.5224"/>
<polygon fill="midnightblue" stroke="midnightblue" points="132.489,-21.3264 122.027,-19.6545 129.163,-27.4857 132.489,-21.3264"/>
</g>
<!-- Node5 -->
<g id="node5" class="node"><title>Node5</title>
<polygon fill="white" stroke="#bfbfbf" points="150.5,-0.5 150.5,-19.5 197.5,-19.5 197.5,-0.5 150.5,-0.5"/>
<text text-anchor="middle" x="174" y="-7.5" font-family="Helvetica,sans-Serif" font-size="10.00">cmath</text>
</g>
<!-- Node2&#45;&gt;Node5 -->
<g id="edge4" class="edge"><title>Node2&#45;&gt;Node5</title>
<path fill="none" stroke="midnightblue" d="M200.716,-56.083C196.289,-48.6127 189.837,-37.7244 184.382,-28.5199"/>
<polygon fill="midnightblue" stroke="midnightblue" points="187.295,-26.5697 179.186,-19.7511 181.273,-30.1383 187.295,-26.5697"/>
</g>
<!-- Node6 -->
<g id="node6" class="node"><title>Node6</title>
<polygon fill="white" stroke="#bfbfbf" points="216,-0.5 216,-19.5 260,-19.5 260,-0.5 216,-0.5"/>
<text text-anchor="middle" x="238" y="-7.5" font-family="Helvetica,sans-Serif" font-size="10.00">string</text>
</g>
<!-- Node2&#45;&gt;Node6 -->
<g id="edge5" class="edge"><title>Node2&#45;&gt;Node6</title>
<path fill="none" stroke="midnightblue" d="M211.284,-56.083C215.711,-48.6127 222.163,-37.7244 227.618,-28.5199"/>
<polygon fill="midnightblue" stroke="midnightblue" points="230.727,-30.1383 232.814,-19.7511 224.705,-26.5697 230.727,-30.1383"/>
</g>
<!-- Node7 -->
<g id="node7" class="node"><title>Node7</title>
<polygon fill="white" stroke="#bfbfbf" points="278.5,-0.5 278.5,-19.5 341.5,-19.5 341.5,-0.5 278.5,-0.5"/>
<text text-anchor="middle" x="310" y="-7.5" font-family="Helvetica,sans-Serif" font-size="10.00">sys/stat.h</text>
</g>
<!-- Node2&#45;&gt;Node7 -->
<g id="edge6" class="edge"><title>Node2&#45;&gt;Node7</title>
<path fill="none" stroke="midnightblue" d="M222.709,-56.324C239.312,-47.7034 265.002,-34.3643 284.22,-24.3855"/>
<polygon fill="midnightblue" stroke="midnightblue" points="286.07,-27.3689 293.332,-19.6545 282.844,-21.1565 286.07,-27.3689"/>
</g>
<!-- Node8 -->
<g id="node8" class="node"><title>Node8</title>
<polygon fill="white" stroke="#bfbfbf" points="359.5,-0.5 359.5,-19.5 406.5,-19.5 406.5,-0.5 359.5,-0.5"/>
<text text-anchor="middle" x="383" y="-7.5" font-family="Helvetica,sans-Serif" font-size="10.00">vector</text>
</g>
<!-- Node2&#45;&gt;Node8 -->
<g id="edge7" class="edge"><title>Node2&#45;&gt;Node8</title>
<path fill="none" stroke="midnightblue" d="M234.046,-56.4435C265.407,-46.8758 316.168,-31.3894 349.566,-21.2001"/>
<polygon fill="midnightblue" stroke="midnightblue" points="350.79,-24.4861 359.333,-18.2203 348.747,-17.7908 350.79,-24.4861"/>
</g>
</g>
</svg>
