<?xml version="1.0" encoding="UTF-8" standalone="no"?>
<!DOCTYPE svg PUBLIC "-//W3C//DTD SVG 1.1//EN"
 "http://www.w3.org/Graphics/SVG/1.1/DTD/svg11.dtd">
<!-- Generated by graphviz version 2.38.0 (20140413.2041)
 -->
<!-- Title: /home/travis/build/hypro/hypro/src/hypro/util/plotting/Plotter.h Pages: 1 -->
<!--zoomable 217 -->
<svg id="main" version="1.1" xmlns="http://www.w3.org/2000/svg" xmlns:xlink="http://www.w3.org/1999/xlink" xml:space="preserve" onload="init(evt)">
<style type="text/css"><![CDATA[
.edge:hover path { stroke: red; }
.edge:hover polygon { stroke: red; fill: red; }
]]></style>
<script type="text/javascript"><![CDATA[
var edges = document.getElementsByTagName('g');
if (edges && edges.length) {
  for (var i=0;i<edges.length;i++) {
    if (edges[i].id.substr(0,4)=='edge') {
      edges[i].setAttribute('class','edge');
    }
  }
}
]]></script>
        <defs>
                <circle id="rim" cx="0" cy="0" r="7"/>
                <circle id="rim2" cx="0" cy="0" r="3.5"/>
                <g id="zoomPlus">
                        <use xlink:href="#rim" fill="#404040">
                                <set attributeName="fill" to="#808080" begin="zoomplus.mouseover" end="zoomplus.mouseout"/>
                        </use>
                        <path d="M-4,0h8M0,-4v8" fill="none" stroke="white" stroke-width="1.5" pointer-events="none"/>
                </g>
                <g id="zoomMin">
                        <use xlink:href="#rim" fill="#404040">
                                <set attributeName="fill" to="#808080" begin="zoomminus.mouseover" end="zoomminus.mouseout"/>
                        </use>
                        <path d="M-4,0h8" fill="none" stroke="white" stroke-width="1.5" pointer-events="none"/>
                </g>
                <g id="dirArrow">
                        <path fill="none" stroke="white" stroke-width="1.5" d="M0,-3.0v7 M-2.5,-0.5L0,-3.0L2.5,-0.5"/>
                </g>
               <g id="resetDef">
                       <use xlink:href="#rim2" fill="#404040">
                               <set attributeName="fill" to="#808080" begin="reset.mouseover" end="reset.mouseout"/>
                       </use>
               </g>
        </defs>

<script type="text/javascript">
var viewWidth = 4821;
var viewHeight = 217;
var sectionId = 'dynsection-1';
</script>
<script xlink:href="svgpan.js"/>
<svg id="graph" class="graph">
<g id="viewport">
<title>/home/travis/build/hypro/hypro/src/hypro/util/plotting/Plotter.h</title>
<polygon fill="white" stroke="none" points="-4,4 -4,-213 4816.5,-213 4816.5,4 -4,4"/>
<!-- Node1 -->
<g id="node1" class="node"><title>Node1</title>
<polygon fill="#bfbfbf" stroke="black" points="2355,-167.5 2355,-208.5 2479,-208.5 2479,-167.5 2355,-167.5"/>
<text text-anchor="start" x="2363" y="-196.5" font-family="Helvetica,sans-Serif" font-size="10.00">/home/travis/build</text>
<text text-anchor="start" x="2363" y="-185.5" font-family="Helvetica,sans-Serif" font-size="10.00">/hypro/hypro/src/hypro</text>
<text text-anchor="middle" x="2417" y="-174.5" font-family="Helvetica,sans-Serif" font-size="10.00">/util/plotting/Plotter.h</text>
</g>
<!-- Node2 -->
<g id="node2" class="node"><title>Node2</title>
<g id="a_node2"><a xlink:href="Reach_8h.html" target="_top" xlink:title="/home/travis/build\l/hypro/hypro/src/hypro\l/algorithms/reachability\l/Reach.h">
<polygon fill="white" stroke="black" points="375,-78.5 375,-130.5 503,-130.5 503,-78.5 375,-78.5"/>
<text text-anchor="start" x="383" y="-118.5" font-family="Helvetica,sans-Serif" font-size="10.00">/home/travis/build</text>
<text text-anchor="start" x="383" y="-107.5" font-family="Helvetica,sans-Serif" font-size="10.00">/hypro/hypro/src/hypro</text>
<text text-anchor="start" x="383" y="-96.5" font-family="Helvetica,sans-Serif" font-size="10.00">/algorithms/reachability</text>
<text text-anchor="middle" x="439" y="-85.5" font-family="Helvetica,sans-Serif" font-size="10.00">/Reach.h</text>
</a>
</g>
</g>
<!-- Node1&#45;&gt;Node2 -->
<g id="edge1" class="edge"><title>Node1&#45;&gt;Node2</title>
<path fill="none" stroke="midnightblue" d="M2344.4,-186.682C2045.38,-185.083 908.106,-176.102 552,-131 536.038,-128.978 519.018,-125.73 503.158,-122.219"/>
<polygon fill="midnightblue" stroke="midnightblue" points="2344.66,-190.183 2354.68,-186.735 2344.7,-183.183 2344.66,-190.183"/>
</g>
<!-- Node3 -->
<g id="node3" class="node"><title>Node3</title>
<g id="a_node3"><a xlink:href="example__backwardsAnalysis_8cpp.html" target="_top" xlink:title="/home/travis/build\l/hypro/hypro/examples\l/example_backwardsAnalysis.cpp">
<polygon fill="white" stroke="black" points="0,-0.5 0,-41.5 176,-41.5 176,-0.5 0,-0.5"/>
<text text-anchor="start" x="8" y="-29.5" font-family="Helvetica,sans-Serif" font-size="10.00">/home/travis/build</text>
<text text-anchor="start" x="8" y="-18.5" font-family="Helvetica,sans-Serif" font-size="10.00">/hypro/hypro/examples</text>
<text text-anchor="middle" x="88" y="-7.5" font-family="Helvetica,sans-Serif" font-size="10.00">/example_backwardsAnalysis.cpp</text>
</a>
</g>
</g>
<!-- Node1&#45;&gt;Node3 -->
<g id="edge7" class="edge"><title>Node1&#45;&gt;Node3</title>
<path fill="none" stroke="midnightblue" d="M2344.84,-186.507C2003.91,-183.977 562.765,-170.985 366,-131 276.079,-112.727 177.606,-67.6155 125.393,-41.5134"/>
<polygon fill="midnightblue" stroke="midnightblue" points="2344.82,-190.006 2354.85,-186.58 2344.87,-183.007 2344.82,-190.006"/>
</g>
<!-- Node5 -->
<g id="node5" class="node"><title>Node5</title>
<g id="a_node5"><a xlink:href="example__bouncingBall_8cpp.html" target="_top" xlink:title="/home/travis/build\l/hypro/hypro/examples\l/example_bouncingBall.cpp">
<polygon fill="white" stroke="black" points="510.5,-0.5 510.5,-41.5 657.5,-41.5 657.5,-0.5 510.5,-0.5"/>
<text text-anchor="start" x="518.5" y="-29.5" font-family="Helvetica,sans-Serif" font-size="10.00">/home/travis/build</text>
<text text-anchor="start" x="518.5" y="-18.5" font-family="Helvetica,sans-Serif" font-size="10.00">/hypro/hypro/examples</text>
<text text-anchor="middle" x="584" y="-7.5" font-family="Helvetica,sans-Serif" font-size="10.00">/example_bouncingBall.cpp</text>
</a>
</g>
</g>
<!-- Node1&#45;&gt;Node5 -->
<g id="edge8" class="edge"><title>Node1&#45;&gt;Node5</title>
<path fill="none" stroke="midnightblue" d="M2344.6,-187.237C2015.62,-188.002 674.655,-187.625 607,-131 581.194,-109.401 579.843,-66.8079 581.625,-41.7377"/>
<polygon fill="midnightblue" stroke="midnightblue" points="2344.97,-190.736 2354.96,-187.212 2344.95,-183.736 2344.97,-190.736"/>
</g>
<!-- Node6 -->
<g id="node6" class="node"><title>Node6</title>
<g id="a_node6"><a xlink:href="example__dynamicStrategies_8cpp.html" target="_top" xlink:title="/home/travis/build\l/hypro/hypro/examples\l/example_dynamicStrategies.cpp">
<polygon fill="white" stroke="black" points="676,-0.5 676,-41.5 852,-41.5 852,-0.5 676,-0.5"/>
<text text-anchor="start" x="684" y="-29.5" font-family="Helvetica,sans-Serif" font-size="10.00">/home/travis/build</text>
<text text-anchor="start" x="684" y="-18.5" font-family="Helvetica,sans-Serif" font-size="10.00">/hypro/hypro/examples</text>
<text text-anchor="middle" x="764" y="-7.5" font-family="Helvetica,sans-Serif" font-size="10.00">/example_dynamicStrategies.cpp</text>
</a>
</g>
</g>
<!-- Node1&#45;&gt;Node6 -->
<g id="edge14" class="edge"><title>Node1&#45;&gt;Node6</title>
<path fill="none" stroke="midnightblue" d="M2344.4,-186.102C2012.4,-181.825 653.456,-162.421 623,-131 606.606,-114.086 609.77,-97.4894 623,-78 635.5,-59.5853 655.111,-47.2259 675.775,-38.9307"/>
<polygon fill="midnightblue" stroke="midnightblue" points="2344.81,-189.607 2354.85,-186.236 2344.9,-182.608 2344.81,-189.607"/>
</g>
<!-- Node8 -->
<g id="node8" class="node"><title>Node8</title>
<g id="a_node8"><a xlink:href="example__box_8cpp.html" target="_top" xlink:title="/home/travis/build\l/hypro/hypro/examples\l/example_box.cpp">
<polygon fill="white" stroke="black" points="632,-84 632,-125 758,-125 758,-84 632,-84"/>
<text text-anchor="start" x="640" y="-113" font-family="Helvetica,sans-Serif" font-size="10.00">/home/travis/build</text>
<text text-anchor="start" x="640" y="-102" font-family="Helvetica,sans-Serif" font-size="10.00">/hypro/hypro/examples</text>
<text text-anchor="middle" x="695" y="-91" font-family="Helvetica,sans-Serif" font-size="10.00">/example_box.cpp</text>
</a>
</g>
</g>
<!-- Node1&#45;&gt;Node8 -->
<g id="edge9" class="edge"><title>Node1&#45;&gt;Node8</title>
<path fill="none" stroke="midnightblue" d="M2344.57,-187.437C2067.77,-188.661 1076.91,-188.812 768,-131 760.347,-129.568 752.414,-127.475 744.722,-125.096"/>
<polygon fill="midnightblue" stroke="midnightblue" points="2344.91,-190.936 2354.89,-187.39 2344.87,-183.936 2344.91,-190.936"/>
</g>
<!-- Node9 -->
<g id="node9" class="node"><title>Node9</title>
<g id="a_node9"><a xlink:href="example__carlPolytope_8cpp.html" target="_top" xlink:title="/home/travis/build\l/hypro/hypro/examples\l/example_carlPolytope.cpp">
<polygon fill="white" stroke="black" points="776.5,-84 776.5,-125 921.5,-125 921.5,-84 776.5,-84"/>
<text text-anchor="start" x="784.5" y="-113" font-family="Helvetica,sans-Serif" font-size="10.00">/home/travis/build</text>
<text text-anchor="start" x="784.5" y="-102" font-family="Helvetica,sans-Serif" font-size="10.00">/hypro/hypro/examples</text>
<text text-anchor="middle" x="849" y="-91" font-family="Helvetica,sans-Serif" font-size="10.00">/example_carlPolytope.cpp</text>
</a>
</g>
</g>
<!-- Node1&#45;&gt;Node9 -->
<g id="edge10" class="edge"><title>Node1&#45;&gt;Node9</title>
<path fill="none" stroke="midnightblue" d="M2344.95,-186.796C2086.64,-185.673 1207.69,-178.377 931,-131 922.477,-129.541 913.607,-127.434 904.985,-125.047"/>
<polygon fill="midnightblue" stroke="midnightblue" points="2344.95,-190.296 2354.97,-186.838 2344.98,-183.296 2344.95,-190.296"/>
</g>
<!-- Node10 -->
<g id="node10" class="node"><title>Node10</title>
<g id="a_node10"><a xlink:href="example__carlPolytopeBug_8cpp.html" target="_top" xlink:title="/home/travis/build\l/hypro/hypro/examples\l/example_carlPolytopeBug.cpp">
<polygon fill="white" stroke="black" points="940,-84 940,-125 1104,-125 1104,-84 940,-84"/>
<text text-anchor="start" x="948" y="-113" font-family="Helvetica,sans-Serif" font-size="10.00">/home/travis/build</text>
<text text-anchor="start" x="948" y="-102" font-family="Helvetica,sans-Serif" font-size="10.00">/hypro/hypro/examples</text>
<text text-anchor="middle" x="1022" y="-91" font-family="Helvetica,sans-Serif" font-size="10.00">/example_carlPolytopeBug.cpp</text>
</a>
</g>
</g>
<!-- Node1&#45;&gt;Node10 -->
<g id="edge11" class="edge"><title>Node1&#45;&gt;Node10</title>
<path fill="none" stroke="midnightblue" d="M2344.43,-186.081C2106.72,-182.726 1353.06,-169.265 1113,-131 1103.76,-129.528 1094.13,-127.447 1084.73,-125.102"/>
<polygon fill="midnightblue" stroke="midnightblue" points="2344.63,-189.584 2354.68,-186.224 2344.73,-182.585 2344.63,-189.584"/>
</g>
<!-- Node11 -->
<g id="node11" class="node"><title>Node11</title>
<g id="a_node11"><a xlink:href="example__differenceBounds_8cpp.html" target="_top" xlink:title="/home/travis/build\l/hypro/hypro/examples\l/example_differenceBounds.cpp">
<polygon fill="white" stroke="black" points="1122,-84 1122,-125 1292,-125 1292,-84 1122,-84"/>
<text text-anchor="start" x="1130" y="-113" font-family="Helvetica,sans-Serif" font-size="10.00">/home/travis/build</text>
<text text-anchor="start" x="1130" y="-102" font-family="Helvetica,sans-Serif" font-size="10.00">/hypro/hypro/examples</text>
<text text-anchor="middle" x="1207" y="-91" font-family="Helvetica,sans-Serif" font-size="10.00">/example_differenceBounds.cpp</text>
</a>
</g>
</g>
<!-- Node1&#45;&gt;Node11 -->
<g id="edge12" class="edge"><title>Node1&#45;&gt;Node11</title>
<path fill="none" stroke="midnightblue" d="M2344.54,-185.396C2130.46,-180.337 1503.17,-163.112 1301,-131 1291.48,-129.488 1281.54,-127.385 1271.84,-125.03"/>
<polygon fill="midnightblue" stroke="midnightblue" points="2344.65,-188.9 2354.72,-185.635 2344.81,-181.902 2344.65,-188.9"/>
</g>
<!-- Node12 -->
<g id="node12" class="node"><title>Node12</title>
<g id="a_node12"><a xlink:href="example__diss_8cpp.html" target="_top" xlink:title="/home/travis/build\l/hypro/hypro/examples\l/example_diss.cpp">
<polygon fill="white" stroke="black" points="1310,-84 1310,-125 1436,-125 1436,-84 1310,-84"/>
<text text-anchor="start" x="1318" y="-113" font-family="Helvetica,sans-Serif" font-size="10.00">/home/travis/build</text>
<text text-anchor="start" x="1318" y="-102" font-family="Helvetica,sans-Serif" font-size="10.00">/hypro/hypro/examples</text>
<text text-anchor="middle" x="1373" y="-91" font-family="Helvetica,sans-Serif" font-size="10.00">/example_diss.cpp</text>
</a>
</g>
</g>
<!-- Node1&#45;&gt;Node12 -->
<g id="edge13" class="edge"><title>Node1&#45;&gt;Node12</title>
<path fill="none" stroke="midnightblue" d="M2344.6,-185.432C2149.85,-180.797 1617.94,-165.288 1446,-131 1438.5,-129.504 1430.71,-127.409 1423.15,-125.058"/>
<polygon fill="midnightblue" stroke="midnightblue" points="2344.65,-188.933 2354.73,-185.67 2344.81,-181.935 2344.65,-188.933"/>
</g>
<!-- Node13 -->
<g id="node13" class="node"><title>Node13</title>
<g id="a_node13"><a xlink:href="example__eigendecomposition_8cpp.html" target="_top" xlink:title="/home/travis/build\l/hypro/hypro/examples\l/example_eigendecomposition.cpp">
<polygon fill="white" stroke="black" points="1454.5,-84 1454.5,-125 1637.5,-125 1637.5,-84 1454.5,-84"/>
<text text-anchor="start" x="1462.5" y="-113" font-family="Helvetica,sans-Serif" font-size="10.00">/home/travis/build</text>
<text text-anchor="start" x="1462.5" y="-102" font-family="Helvetica,sans-Serif" font-size="10.00">/hypro/hypro/examples</text>
<text text-anchor="middle" x="1546" y="-91" font-family="Helvetica,sans-Serif" font-size="10.00">/example_eigendecomposition.cpp</text>
</a>
</g>
</g>
<!-- Node1&#45;&gt;Node13 -->
<g id="edge15" class="edge"><title>Node1&#45;&gt;Node13</title>
<path fill="none" stroke="midnightblue" d="M2344.32,-185.935C2207.15,-182.994 1901.06,-171.987 1647,-131 1637.18,-129.416 1626.92,-127.335 1616.86,-125.045"/>
<polygon fill="midnightblue" stroke="midnightblue" points="2344.62,-189.442 2354.69,-186.149 2344.77,-182.444 2344.62,-189.442"/>
</g>
<!-- Node14 -->
<g id="node14" class="node"><title>Node14</title>
<g id="a_node14"><a xlink:href="example__eigensimple2points_8cpp.html" target="_top" xlink:title="/home/travis/build\l/hypro/hypro/examples\l/example_eigensimple2points.cpp">
<polygon fill="white" stroke="black" points="1655.5,-84 1655.5,-125 1834.5,-125 1834.5,-84 1655.5,-84"/>
<text text-anchor="start" x="1663.5" y="-113" font-family="Helvetica,sans-Serif" font-size="10.00">/home/travis/build</text>
<text text-anchor="start" x="1663.5" y="-102" font-family="Helvetica,sans-Serif" font-size="10.00">/hypro/hypro/examples</text>
<text text-anchor="middle" x="1745" y="-91" font-family="Helvetica,sans-Serif" font-size="10.00">/example_eigensimple2points.cpp</text>
</a>
</g>
</g>
<!-- Node1&#45;&gt;Node14 -->
<g id="edge16" class="edge"><title>Node1&#45;&gt;Node14</title>
<path fill="none" stroke="midnightblue" d="M2344.43,-183.512C2235.2,-177.451 2022.31,-162.483 1844,-131 1834.65,-129.349 1824.88,-127.274 1815.28,-125.025"/>
<polygon fill="midnightblue" stroke="midnightblue" points="2344.5,-187.021 2354.67,-184.071 2344.88,-180.031 2344.5,-187.021"/>
</g>
<!-- Node15 -->
<g id="node15" class="node"><title>Node15</title>
<g id="a_node15"><a xlink:href="example__eigenSimpleFlow_8cpp.html" target="_top" xlink:title="/home/travis/build\l/hypro/hypro/examples\l/example_eigenSimpleFlow.cpp">
<polygon fill="white" stroke="black" points="1852.5,-84 1852.5,-125 2017.5,-125 2017.5,-84 1852.5,-84"/>
<text text-anchor="start" x="1860.5" y="-113" font-family="Helvetica,sans-Serif" font-size="10.00">/home/travis/build</text>
<text text-anchor="start" x="1860.5" y="-102" font-family="Helvetica,sans-Serif" font-size="10.00">/hypro/hypro/examples</text>
<text text-anchor="middle" x="1935" y="-91" font-family="Helvetica,sans-Serif" font-size="10.00">/example_eigenSimpleFlow.cpp</text>
</a>
</g>
</g>
<!-- Node1&#45;&gt;Node15 -->
<g id="edge17" class="edge"><title>Node1&#45;&gt;Node15</title>
<path fill="none" stroke="midnightblue" d="M2344.48,-179.395C2265.8,-170.493 2136.72,-153.986 2027,-131 2018.73,-129.267 2010.1,-127.212 2001.59,-125.033"/>
<polygon fill="midnightblue" stroke="midnightblue" points="2344.44,-182.912 2354.77,-180.548 2345.22,-175.956 2344.44,-182.912"/>
</g>
<!-- Node16 -->
<g id="node16" class="node"><title>Node16</title>
<g id="a_node16"><a xlink:href="example__ellipsoidPlot_8cpp.html" target="_top" xlink:title="/home/travis/build\l/hypro/hypro/examples\l/example_ellipsoidPlot.cpp">
<polygon fill="white" stroke="black" points="2035.5,-84 2035.5,-125 2178.5,-125 2178.5,-84 2035.5,-84"/>
<text text-anchor="start" x="2043.5" y="-113" font-family="Helvetica,sans-Serif" font-size="10.00">/home/travis/build</text>
<text text-anchor="start" x="2043.5" y="-102" font-family="Helvetica,sans-Serif" font-size="10.00">/hypro/hypro/examples</text>
<text text-anchor="middle" x="2107" y="-91" font-family="Helvetica,sans-Serif" font-size="10.00">/example_ellipsoidPlot.cpp</text>
</a>
</g>
</g>
<!-- Node1&#45;&gt;Node16 -->
<g id="edge18" class="edge"><title>Node1&#45;&gt;Node16</title>
<path fill="none" stroke="midnightblue" d="M2344.98,-170.659C2299.72,-160.075 2240.22,-145.589 2188,-131 2181.33,-129.136 2174.37,-127.096 2167.47,-125.009"/>
<polygon fill="midnightblue" stroke="midnightblue" points="2344.46,-174.132 2355,-172.991 2346.05,-167.314 2344.46,-174.132"/>
</g>
<!-- Node17 -->
<g id="node17" class="node"><title>Node17</title>
<g id="a_node17"><a xlink:href="example__hashMatrix_8cpp.html" target="_top" xlink:title="/home/travis/build\l/hypro/hypro/examples\l/example_hashMatrix.cpp">
<polygon fill="white" stroke="black" points="2196.5,-84 2196.5,-125 2335.5,-125 2335.5,-84 2196.5,-84"/>
<text text-anchor="start" x="2204.5" y="-113" font-family="Helvetica,sans-Serif" font-size="10.00">/home/travis/build</text>
<text text-anchor="start" x="2204.5" y="-102" font-family="Helvetica,sans-Serif" font-size="10.00">/hypro/hypro/examples</text>
<text text-anchor="middle" x="2266" y="-91" font-family="Helvetica,sans-Serif" font-size="10.00">/example_hashMatrix.cpp</text>
</a>
</g>
</g>
<!-- Node1&#45;&gt;Node17 -->
<g id="edge19" class="edge"><title>Node1&#45;&gt;Node17</title>
<path fill="none" stroke="midnightblue" d="M2371.89,-162.65C2349.6,-150.619 2323.06,-136.299 2302.13,-125.003"/>
<polygon fill="midnightblue" stroke="midnightblue" points="2370.37,-165.809 2380.83,-167.479 2373.69,-159.649 2370.37,-165.809"/>
</g>
<!-- Node18 -->
<g id="node18" class="node"><title>Node18</title>
<g id="a_node18"><a xlink:href="example__heuristic_8cpp.html" target="_top" xlink:title="/home/travis/build\l/hypro/hypro/examples\l/example_heuristic.cpp">
<polygon fill="white" stroke="black" points="2353.5,-84 2353.5,-125 2480.5,-125 2480.5,-84 2353.5,-84"/>
<text text-anchor="start" x="2361.5" y="-113" font-family="Helvetica,sans-Serif" font-size="10.00">/home/travis/build</text>
<text text-anchor="start" x="2361.5" y="-102" font-family="Helvetica,sans-Serif" font-size="10.00">/hypro/hypro/examples</text>
<text text-anchor="middle" x="2417" y="-91" font-family="Helvetica,sans-Serif" font-size="10.00">/example_heuristic.cpp</text>
</a>
</g>
</g>
<!-- Node1&#45;&gt;Node18 -->
<g id="edge20" class="edge"><title>Node1&#45;&gt;Node18</title>
<path fill="none" stroke="midnightblue" d="M2417,-157.065C2417,-146.382 2417,-134.63 2417,-125.047"/>
<polygon fill="midnightblue" stroke="midnightblue" points="2413.5,-157.271 2417,-167.271 2420.5,-157.271 2413.5,-157.271"/>
</g>
<!-- Node19 -->
<g id="node19" class="node"><title>Node19</title>
<g id="a_node19"><a xlink:href="example__HPolytope_8cpp.html" target="_top" xlink:title="/home/travis/build\l/hypro/hypro/examples\l/example_HPolytope.cpp">
<polygon fill="white" stroke="black" points="2498.5,-84 2498.5,-125 2633.5,-125 2633.5,-84 2498.5,-84"/>
<text text-anchor="start" x="2506.5" y="-113" font-family="Helvetica,sans-Serif" font-size="10.00">/home/travis/build</text>
<text text-anchor="start" x="2506.5" y="-102" font-family="Helvetica,sans-Serif" font-size="10.00">/hypro/hypro/examples</text>
<text text-anchor="middle" x="2566" y="-91" font-family="Helvetica,sans-Serif" font-size="10.00">/example_HPolytope.cpp</text>
</a>
</g>
</g>
<!-- Node1&#45;&gt;Node19 -->
<g id="edge21" class="edge"><title>Node1&#45;&gt;Node19</title>
<path fill="none" stroke="midnightblue" d="M2461.52,-162.65C2483.51,-150.619 2509.69,-136.299 2530.34,-125.003"/>
<polygon fill="midnightblue" stroke="midnightblue" points="2459.78,-159.609 2452.69,-167.479 2463.14,-165.751 2459.78,-159.609"/>
</g>
<!-- Node20 -->
<g id="node20" class="node"><title>Node20</title>
<g id="a_node20"><a xlink:href="example__linearTransformation_8cpp.html" target="_top" xlink:title="/home/travis/build\l/hypro/hypro/examples\l/example_linearTransformation.cpp">
<polygon fill="white" stroke="black" points="2652,-84 2652,-125 2836,-125 2836,-84 2652,-84"/>
<text text-anchor="start" x="2660" y="-113" font-family="Helvetica,sans-Serif" font-size="10.00">/home/travis/build</text>
<text text-anchor="start" x="2660" y="-102" font-family="Helvetica,sans-Serif" font-size="10.00">/hypro/hypro/examples</text>
<text text-anchor="middle" x="2744" y="-91" font-family="Helvetica,sans-Serif" font-size="10.00">/example_linearTransformation.cpp</text>
</a>
</g>
</g>
<!-- Node1&#45;&gt;Node20 -->
<g id="edge22" class="edge"><title>Node1&#45;&gt;Node20</title>
<path fill="none" stroke="midnightblue" d="M2489.2,-169.196C2533.58,-158.231 2591.6,-143.858 2643,-131 2650.72,-129.069 2658.77,-127.049 2666.81,-125.026"/>
<polygon fill="midnightblue" stroke="midnightblue" points="2488.24,-165.828 2479.37,-171.624 2489.92,-172.623 2488.24,-165.828"/>
</g>
<!-- Node21 -->
<g id="node21" class="node"><title>Node21</title>
<g id="a_node21"><a xlink:href="example__numberReduction_8cpp.html" target="_top" xlink:title="/home/travis/build\l/hypro/hypro/examples\l/example_numberReduction.cpp">
<polygon fill="white" stroke="black" points="2854,-84 2854,-125 3024,-125 3024,-84 2854,-84"/>
<text text-anchor="start" x="2862" y="-113" font-family="Helvetica,sans-Serif" font-size="10.00">/home/travis/build</text>
<text text-anchor="start" x="2862" y="-102" font-family="Helvetica,sans-Serif" font-size="10.00">/hypro/hypro/examples</text>
<text text-anchor="middle" x="2939" y="-91" font-family="Helvetica,sans-Serif" font-size="10.00">/example_numberReduction.cpp</text>
</a>
</g>
</g>
<!-- Node1&#45;&gt;Node21 -->
<g id="edge23" class="edge"><title>Node1&#45;&gt;Node21</title>
<path fill="none" stroke="midnightblue" d="M2489.21,-180.551C2574.69,-172.227 2721.08,-155.798 2845,-131 2853.54,-129.291 2862.45,-127.238 2871.23,-125.048"/>
<polygon fill="midnightblue" stroke="midnightblue" points="2488.71,-177.083 2479.09,-181.526 2489.38,-184.05 2488.71,-177.083"/>
</g>
<!-- Node22 -->
<g id="node22" class="node"><title>Node22</title>
<g id="a_node22"><a xlink:href="example__orthogonalPolyhedron_8cpp.html" target="_top" xlink:title="/home/travis/build\l/hypro/hypro/examples\l/example_orthogonalPolyhedron.cpp">
<polygon fill="white" stroke="black" points="3042.5,-84 3042.5,-125 3233.5,-125 3233.5,-84 3042.5,-84"/>
<text text-anchor="start" x="3050.5" y="-113" font-family="Helvetica,sans-Serif" font-size="10.00">/home/travis/build</text>
<text text-anchor="start" x="3050.5" y="-102" font-family="Helvetica,sans-Serif" font-size="10.00">/hypro/hypro/examples</text>
<text text-anchor="middle" x="3138" y="-91" font-family="Helvetica,sans-Serif" font-size="10.00">/example_orthogonalPolyhedron.cpp</text>
</a>
</g>
</g>
<!-- Node1&#45;&gt;Node22 -->
<g id="edge24" class="edge"><title>Node1&#45;&gt;Node22</title>
<path fill="none" stroke="midnightblue" d="M2489.16,-183.897C2604.65,-178.156 2837.87,-163.381 3033,-131 3042.9,-129.357 3053.25,-127.287 3063.43,-125.04"/>
<polygon fill="midnightblue" stroke="midnightblue" points="2488.84,-180.408 2479.02,-184.392 2489.18,-187.399 2488.84,-180.408"/>
</g>
<!-- Node23 -->
<g id="node23" class="node"><title>Node23</title>
<g id="a_node23"><a xlink:href="example__pca_8cpp.html" target="_top" xlink:title="/home/travis/build\l/hypro/hypro/examples\l/example_pca.cpp">
<polygon fill="white" stroke="black" points="3252,-84 3252,-125 3378,-125 3378,-84 3252,-84"/>
<text text-anchor="start" x="3260" y="-113" font-family="Helvetica,sans-Serif" font-size="10.00">/home/travis/build</text>
<text text-anchor="start" x="3260" y="-102" font-family="Helvetica,sans-Serif" font-size="10.00">/hypro/hypro/examples</text>
<text text-anchor="middle" x="3315" y="-91" font-family="Helvetica,sans-Serif" font-size="10.00">/example_pca.cpp</text>
</a>
</g>
</g>
<!-- Node1&#45;&gt;Node23 -->
<g id="edge25" class="edge"><title>Node1&#45;&gt;Node23</title>
<path fill="none" stroke="midnightblue" d="M2489.35,-184.623C2663.06,-178.51 3099.91,-160.608 3243,-131 3250.27,-129.495 3257.81,-127.429 3265.14,-125.118"/>
<polygon fill="midnightblue" stroke="midnightblue" points="2489.16,-181.128 2479.28,-184.975 2489.4,-188.124 2489.16,-181.128"/>
</g>
<!-- Node24 -->
<g id="node24" class="node"><title>Node24</title>
<g id="a_node24"><a xlink:href="example__plot_8cpp.html" target="_top" xlink:title="/home/travis/build\l/hypro/hypro/examples\l/example_plot.cpp">
<polygon fill="white" stroke="black" points="3396,-84 3396,-125 3522,-125 3522,-84 3396,-84"/>
<text text-anchor="start" x="3404" y="-113" font-family="Helvetica,sans-Serif" font-size="10.00">/home/travis/build</text>
<text text-anchor="start" x="3404" y="-102" font-family="Helvetica,sans-Serif" font-size="10.00">/hypro/hypro/examples</text>
<text text-anchor="middle" x="3459" y="-91" font-family="Helvetica,sans-Serif" font-size="10.00">/example_plot.cpp</text>
</a>
</g>
</g>
<!-- Node1&#45;&gt;Node24 -->
<g id="edge26" class="edge"><title>Node1&#45;&gt;Node24</title>
<path fill="none" stroke="midnightblue" d="M2489.33,-185.468C2683.9,-180.926 3215.31,-165.628 3387,-131 3394.41,-129.506 3402.09,-127.412 3409.55,-125.061"/>
<polygon fill="midnightblue" stroke="midnightblue" points="2489.13,-181.972 2479.22,-185.702 2489.3,-188.97 2489.13,-181.972"/>
</g>
<!-- Node25 -->
<g id="node25" class="node"><title>Node25</title>
<g id="a_node25"><a xlink:href="example__plotDiss_8cpp.html" target="_top" xlink:title="/home/travis/build\l/hypro/hypro/examples\l/example_plotDiss.cpp">
<polygon fill="white" stroke="black" points="3540,-84 3540,-125 3666,-125 3666,-84 3540,-84"/>
<text text-anchor="start" x="3548" y="-113" font-family="Helvetica,sans-Serif" font-size="10.00">/home/travis/build</text>
<text text-anchor="start" x="3548" y="-102" font-family="Helvetica,sans-Serif" font-size="10.00">/hypro/hypro/examples</text>
<text text-anchor="middle" x="3603" y="-91" font-family="Helvetica,sans-Serif" font-size="10.00">/example_plotDiss.cpp</text>
</a>
</g>
</g>
<!-- Node1&#45;&gt;Node25 -->
<g id="edge27" class="edge"><title>Node1&#45;&gt;Node25</title>
<path fill="none" stroke="midnightblue" d="M2489.45,-186.094C2703.5,-182.986 3330.54,-170.655 3531,-131 3538.41,-129.533 3546.1,-127.455 3553.56,-125.111"/>
<polygon fill="midnightblue" stroke="midnightblue" points="2489.22,-182.597 2479.27,-186.24 2489.32,-189.597 2489.22,-182.597"/>
</g>
<!-- Node26 -->
<g id="node26" class="node"><title>Node26</title>
<g id="a_node26"><a xlink:href="example__polytope_8cpp.html" target="_top" xlink:title="/home/travis/build\l/hypro/hypro/examples\l/example_polytope.cpp">
<polygon fill="white" stroke="black" points="3684,-84 3684,-125 3812,-125 3812,-84 3684,-84"/>
<text text-anchor="start" x="3692" y="-113" font-family="Helvetica,sans-Serif" font-size="10.00">/home/travis/build</text>
<text text-anchor="start" x="3692" y="-102" font-family="Helvetica,sans-Serif" font-size="10.00">/hypro/hypro/examples</text>
<text text-anchor="middle" x="3748" y="-91" font-family="Helvetica,sans-Serif" font-size="10.00">/example_polytope.cpp</text>
</a>
</g>
</g>
<!-- Node1&#45;&gt;Node26 -->
<g id="edge28" class="edge"><title>Node1&#45;&gt;Node26</title>
<path fill="none" stroke="midnightblue" d="M2489.1,-186.544C2720.93,-184.644 3445.36,-175.23 3675,-131 3682.65,-129.527 3690.57,-127.413 3698.26,-125.024"/>
<polygon fill="midnightblue" stroke="midnightblue" points="2489.07,-183.044 2479.1,-186.623 2489.12,-190.043 2489.07,-183.044"/>
</g>
<!-- Node27 -->
<g id="node27" class="node"><title>Node27</title>
<g id="a_node27"><a xlink:href="example__reduction_8cpp.html" target="_top" xlink:title="/home/travis/build\l/hypro/hypro/examples\l/example_reduction.cpp">
<polygon fill="white" stroke="black" points="3830.5,-84 3830.5,-125 3961.5,-125 3961.5,-84 3830.5,-84"/>
<text text-anchor="start" x="3838.5" y="-113" font-family="Helvetica,sans-Serif" font-size="10.00">/home/travis/build</text>
<text text-anchor="start" x="3838.5" y="-102" font-family="Helvetica,sans-Serif" font-size="10.00">/hypro/hypro/examples</text>
<text text-anchor="middle" x="3896" y="-91" font-family="Helvetica,sans-Serif" font-size="10.00">/example_reduction.cpp</text>
</a>
</g>
</g>
<!-- Node1&#45;&gt;Node27 -->
<g id="edge29" class="edge"><title>Node1&#45;&gt;Node27</title>
<path fill="none" stroke="midnightblue" d="M2489.27,-186.856C2738.61,-185.93 3561.68,-179.208 3821,-131 3828.84,-129.542 3836.98,-127.436 3844.88,-125.05"/>
<polygon fill="midnightblue" stroke="midnightblue" points="2489.23,-183.356 2479.24,-186.891 2489.25,-190.356 2489.23,-183.356"/>
</g>
<!-- Node28 -->
<g id="node28" class="node"><title>Node28</title>
<g id="a_node28"><a xlink:href="example__sfHpolyComparison_8cpp.html" target="_top" xlink:title="/home/travis/build\l/hypro/hypro/examples\l/example_sfHpolyComparison.cpp">
<polygon fill="white" stroke="black" points="3979.5,-84 3979.5,-125 4158.5,-125 4158.5,-84 3979.5,-84"/>
<text text-anchor="start" x="3987.5" y="-113" font-family="Helvetica,sans-Serif" font-size="10.00">/home/travis/build</text>
<text text-anchor="start" x="3987.5" y="-102" font-family="Helvetica,sans-Serif" font-size="10.00">/hypro/hypro/examples</text>
<text text-anchor="middle" x="4069" y="-91" font-family="Helvetica,sans-Serif" font-size="10.00">/example_sfHpolyComparison.cpp</text>
</a>
</g>
</g>
<!-- Node1&#45;&gt;Node28 -->
<g id="edge30" class="edge"><title>Node1&#45;&gt;Node28</title>
<path fill="none" stroke="midnightblue" d="M2489.54,-186.487C2755.89,-184.277 3679.56,-173.644 3971,-131 3981.09,-129.524 3991.64,-127.407 4001.92,-125.017"/>
<polygon fill="midnightblue" stroke="midnightblue" points="2489.19,-182.99 2479.22,-186.571 2489.25,-189.99 2489.19,-182.99"/>
</g>
<!-- Node29 -->
<g id="node29" class="node"><title>Node29</title>
<g id="a_node29"><a xlink:href="example__sfIntersection_8cpp.html" target="_top" xlink:title="/home/travis/build\l/hypro/hypro/examples\l/example_sfIntersection.cpp">
<polygon fill="white" stroke="black" points="4176.5,-84 4176.5,-125 4327.5,-125 4327.5,-84 4176.5,-84"/>
<text text-anchor="start" x="4184.5" y="-113" font-family="Helvetica,sans-Serif" font-size="10.00">/home/travis/build</text>
<text text-anchor="start" x="4184.5" y="-102" font-family="Helvetica,sans-Serif" font-size="10.00">/hypro/hypro/examples</text>
<text text-anchor="middle" x="4252" y="-91" font-family="Helvetica,sans-Serif" font-size="10.00">/example_sfIntersection.cpp</text>
</a>
</g>
</g>
<!-- Node1&#45;&gt;Node29 -->
<g id="edge31" class="edge"><title>Node1&#45;&gt;Node29</title>
<path fill="none" stroke="midnightblue" d="M2489.49,-187.214C2776.96,-187.67 3837.1,-185.538 4168,-131 4176.72,-129.562 4185.8,-127.467 4194.63,-125.087"/>
<polygon fill="midnightblue" stroke="midnightblue" points="2489.2,-183.713 2479.19,-187.196 2489.19,-190.713 2489.2,-183.713"/>
</g>
<!-- Node30 -->
<g id="node30" class="node"><title>Node30</title>
<g id="a_node30"><a xlink:href="example__simulation_8cpp.html" target="_top" xlink:title="/home/travis/build\l/hypro/hypro/examples\l/example_simulation.cpp">
<polygon fill="white" stroke="black" points="4346,-84 4346,-125 4482,-125 4482,-84 4346,-84"/>
<text text-anchor="start" x="4354" y="-113" font-family="Helvetica,sans-Serif" font-size="10.00">/home/travis/build</text>
<text text-anchor="start" x="4354" y="-102" font-family="Helvetica,sans-Serif" font-size="10.00">/hypro/hypro/examples</text>
<text text-anchor="middle" x="4414" y="-91" font-family="Helvetica,sans-Serif" font-size="10.00">/example_simulation.cpp</text>
</a>
</g>
</g>
<!-- Node1&#45;&gt;Node30 -->
<g id="edge32" class="edge"><title>Node1&#45;&gt;Node30</title>
<path fill="none" stroke="midnightblue" d="M2489.5,-186.131C2817.28,-182.032 4152.83,-163.464 4337,-131 4345.04,-129.582 4353.39,-127.498 4361.5,-125.122"/>
<polygon fill="midnightblue" stroke="midnightblue" points="2489.13,-182.635 2479.18,-186.259 2489.22,-189.634 2489.13,-182.635"/>
</g>
<!-- Node31 -->
<g id="node31" class="node"><title>Node31</title>
<g id="a_node31"><a xlink:href="example__supportFunction_8cpp.html" target="_top" xlink:title="/home/travis/build\l/hypro/hypro/examples\l/example_supportFunction.cpp">
<polygon fill="white" stroke="black" points="4500.5,-84 4500.5,-125 4663.5,-125 4663.5,-84 4500.5,-84"/>
<text text-anchor="start" x="4508.5" y="-113" font-family="Helvetica,sans-Serif" font-size="10.00">/home/travis/build</text>
<text text-anchor="start" x="4508.5" y="-102" font-family="Helvetica,sans-Serif" font-size="10.00">/hypro/hypro/examples</text>
<text text-anchor="middle" x="4582" y="-91" font-family="Helvetica,sans-Serif" font-size="10.00">/example_supportFunction.cpp</text>
</a>
</g>
</g>
<!-- Node1&#45;&gt;Node31 -->
<g id="edge33" class="edge"><title>Node1&#45;&gt;Node31</title>
<path fill="none" stroke="midnightblue" d="M2489.24,-187.43C2808.29,-188.966 4092.87,-191.213 4491,-131 4500.41,-129.577 4510.23,-127.49 4519.78,-125.112"/>
<polygon fill="midnightblue" stroke="midnightblue" points="2489.21,-183.93 2479.19,-187.381 2489.17,-190.93 2489.21,-183.93"/>
</g>
<!-- Node32 -->
<g id="node32" class="node"><title>Node32</title>
<g id="a_node32"><a xlink:href="example__zonotope_8cpp.html" target="_top" xlink:title="/home/travis/build\l/hypro/hypro/examples\l/example_zonotope.cpp">
<polygon fill="white" stroke="black" points="4681.5,-84 4681.5,-125 4812.5,-125 4812.5,-84 4681.5,-84"/>
<text text-anchor="start" x="4689.5" y="-113" font-family="Helvetica,sans-Serif" font-size="10.00">/home/travis/build</text>
<text text-anchor="start" x="4689.5" y="-102" font-family="Helvetica,sans-Serif" font-size="10.00">/hypro/hypro/examples</text>
<text text-anchor="middle" x="4747" y="-91" font-family="Helvetica,sans-Serif" font-size="10.00">/example_zonotope.cpp</text>
</a>
</g>
</g>
<!-- Node1&#45;&gt;Node32 -->
<g id="edge34" class="edge"><title>Node1&#45;&gt;Node32</title>
<path fill="none" stroke="midnightblue" d="M2489.14,-186.523C2850.4,-183.96 4454.24,-170.431 4673,-131 4680.89,-129.578 4689.07,-127.457 4697,-125.034"/>
<polygon fill="midnightblue" stroke="midnightblue" points="2489.04,-183.024 2479.07,-186.594 2489.09,-190.024 2489.04,-183.024"/>
</g>
<!-- Node2&#45;&gt;Node3 -->
<g id="edge2" class="edge"><title>Node2&#45;&gt;Node3</title>
<path fill="none" stroke="midnightblue" d="M364.707,-86.2495C308.345,-73.1627 230.827,-55.1636 172.174,-41.5448"/>
<polygon fill="midnightblue" stroke="midnightblue" points="364.089,-89.6991 374.621,-88.5516 365.672,-82.8805 364.089,-89.6991"/>
</g>
<!-- Node4 -->
<g id="node4" class="node"><title>Node4</title>
<g id="a_node4"><a xlink:href="example__benchmark_8cpp.html" target="_top" xlink:title="/home/travis/build\l/hypro/hypro/examples\l/example_benchmark.cpp">
<polygon fill="white" stroke="black" points="352,-0.5 352,-41.5 492,-41.5 492,-0.5 352,-0.5"/>
<text text-anchor="start" x="360" y="-29.5" font-family="Helvetica,sans-Serif" font-size="10.00">/home/travis/build</text>
<text text-anchor="start" x="360" y="-18.5" font-family="Helvetica,sans-Serif" font-size="10.00">/hypro/hypro/examples</text>
<text text-anchor="middle" x="422" y="-7.5" font-family="Helvetica,sans-Serif" font-size="10.00">/example_benchmark.cpp</text>
</a>
</g>
</g>
<!-- Node2&#45;&gt;Node4 -->
<g id="edge3" class="edge"><title>Node2&#45;&gt;Node4</title>
<path fill="none" stroke="midnightblue" d="M431.626,-68.1474C429.729,-59.0546 427.756,-49.5968 426.094,-41.6282"/>
<polygon fill="midnightblue" stroke="midnightblue" points="428.246,-69.085 433.714,-78.1596 435.099,-67.6556 428.246,-69.085"/>
</g>
<!-- Node2&#45;&gt;Node5 -->
<g id="edge4" class="edge"><title>Node2&#45;&gt;Node5</title>
<path fill="none" stroke="midnightblue" d="M492.472,-73.4453C511.298,-62.8637 531.966,-51.2468 548.891,-41.7338"/>
<polygon fill="midnightblue" stroke="midnightblue" points="490.69,-70.4314 483.688,-78.3823 494.12,-76.5336 490.69,-70.4314"/>
</g>
<!-- Node2&#45;&gt;Node6 -->
<g id="edge5" class="edge"><title>Node2&#45;&gt;Node6</title>
<path fill="none" stroke="midnightblue" d="M512.985,-84.9469C564.699,-71.9785 633.626,-54.6937 686.167,-41.518"/>
<polygon fill="midnightblue" stroke="midnightblue" points="512.058,-81.5709 503.21,-87.3982 513.761,-88.3607 512.058,-81.5709"/>
</g>
<!-- Node7 -->
<g id="node7" class="node"><title>Node7</title>
<g id="a_node7"><a xlink:href="example__reachability_8cpp.html" target="_top" xlink:title="/home/travis/build\l/hypro/hypro/examples\l/example_reachability.cpp">
<polygon fill="white" stroke="black" points="194,-0.5 194,-41.5 334,-41.5 334,-0.5 194,-0.5"/>
<text text-anchor="start" x="202" y="-29.5" font-family="Helvetica,sans-Serif" font-size="10.00">/home/travis/build</text>
<text text-anchor="start" x="202" y="-18.5" font-family="Helvetica,sans-Serif" font-size="10.00">/hypro/hypro/examples</text>
<text text-anchor="middle" x="264" y="-7.5" font-family="Helvetica,sans-Serif" font-size="10.00">/example_reachability.cpp</text>
</a>
</g>
</g>
<!-- Node2&#45;&gt;Node7 -->
<g id="edge6" class="edge"><title>Node2&#45;&gt;Node7</title>
<path fill="none" stroke="midnightblue" d="M375.967,-74.1448C352.744,-63.3295 327.021,-51.3496 306.092,-41.6027"/>
<polygon fill="midnightblue" stroke="midnightblue" points="374.524,-77.3333 385.066,-78.3823 377.479,-70.9877 374.524,-77.3333"/>
</g>
</g>
</svg>
        <g id="navigator" transform="translate(0 0)" fill="#404254">
                <rect fill="#f2f5e9" fill-opacity="0.5" stroke="#606060" stroke-width=".5" x="0" y="0" width="60" height="60"/>
                <use id="zoomplus" xlink:href="#zoomPlus" x="17" y="9" onmousedown="handleZoom(evt,'in')"/>
                <use id="zoomminus" xlink:href="#zoomMin" x="42" y="9" onmousedown="handleZoom(evt,'out')"/>
                <use id="reset" xlink:href="#resetDef" x="30" y="36" onmousedown="handleReset()"/>
                <g id="arrowUp" xlink:href="#dirArrow" transform="translate(30 24)" onmousedown="handlePan(0,-1)">
                  <use xlink:href="#rim" fill="#404040">
                        <set attributeName="fill" to="#808080" begin="arrowUp.mouseover" end="arrowUp.mouseout"/>
                  </use>
                  <path fill="none" stroke="white" stroke-width="1.5" d="M0,-3.0v7 M-2.5,-0.5L0,-3.0L2.5,-0.5"/>
                </g>
                <g id="arrowRight" xlink:href="#dirArrow" transform="rotate(90) translate(36 -43)" onmousedown="handlePan(1,0)">
                  <use xlink:href="#rim" fill="#404040">
                        <set attributeName="fill" to="#808080" begin="arrowRight.mouseover" end="arrowRight.mouseout"/>
                  </use>
                  <path fill="none" stroke="white" stroke-width="1.5" d="M0,-3.0v7 M-2.5,-0.5L0,-3.0L2.5,-0.5"/>
                </g>
                <g id="arrowDown" xlink:href="#dirArrow" transform="rotate(180) translate(-30 -48)" onmousedown="handlePan(0,1)">
                  <use xlink:href="#rim" fill="#404040">
                        <set attributeName="fill" to="#808080" begin="arrowDown.mouseover" end="arrowDown.mouseout"/>
                  </use>
                  <path fill="none" stroke="white" stroke-width="1.5" d="M0,-3.0v7 M-2.5,-0.5L0,-3.0L2.5,-0.5"/>
                </g>
                <g id="arrowLeft" xlink:href="#dirArrow" transform="rotate(270) translate(-36 17)" onmousedown="handlePan(-1,0)">
                  <use xlink:href="#rim" fill="#404040">
                        <set attributeName="fill" to="#808080" begin="arrowLeft.mouseover" end="arrowLeft.mouseout"/>
                  </use>
                  <path fill="none" stroke="white" stroke-width="1.5" d="M0,-3.0v7 M-2.5,-0.5L0,-3.0L2.5,-0.5"/>
                </g>
        </g>
        <svg viewBox="0 0 15 15" width="100%" height="30px" preserveAspectRatio="xMaxYMin meet">
         <g id="arrow_out" transform="scale(0.3 0.3)">
          <a xlink:href="Plotter_8h__dep__incl_org.svg" target="_base">
           <rect id="button" ry="5" rx="5" y="6" x="6" height="38" width="38"
                fill="#f2f5e9" fill-opacity="0.5" stroke="#606060" stroke-width="1.0"/>
           <path id="arrow"
             d="M 11.500037,31.436501 C 11.940474,20.09759 22.043105,11.32322 32.158766,21.979434 L 37.068811,17.246167 C 37.068811,17.246167 37.088388,32 37.088388,32 L 22.160133,31.978069 C 22.160133,31.978069 26.997745,27.140456 26.997745,27.140456 C 18.528582,18.264221 13.291696,25.230495 11.500037,31.436501 z"
             style="fill:#404040;"/>
          </a>
         </g>
        </svg>
</svg>
