<?xml version="1.0" encoding="UTF-8" standalone="no"?>
<!DOCTYPE svg PUBLIC "-//W3C//DTD SVG 1.1//EN"
 "http://www.w3.org/Graphics/SVG/1.1/DTD/svg11.dtd">
<!-- Generated by graphviz version 2.38.0 (20140413.2041)
 -->
<!-- Title: /home/travis/build/hypro/hypro/src/hypro/datastructures/Point.cpp Pages: 1 -->
<!--zoomable 419 -->
<svg id="main" version="1.1" xmlns="http://www.w3.org/2000/svg" xmlns:xlink="http://www.w3.org/1999/xlink" xml:space="preserve" onload="init(evt)">
<style type="text/css"><![CDATA[
.edge:hover path { stroke: red; }
.edge:hover polygon { stroke: red; fill: red; }
]]></style>
<script type="text/javascript"><![CDATA[
var edges = document.getElementsByTagName('g');
if (edges && edges.length) {
  for (var i=0;i<edges.length;i++) {
    if (edges[i].id.substr(0,4)=='edge') {
      edges[i].setAttribute('class','edge');
    }
  }
}
]]></script>
        <defs>
                <circle id="rim" cx="0" cy="0" r="7"/>
                <circle id="rim2" cx="0" cy="0" r="3.5"/>
                <g id="zoomPlus">
                        <use xlink:href="#rim" fill="#404040">
                                <set attributeName="fill" to="#808080" begin="zoomplus.mouseover" end="zoomplus.mouseout"/>
                        </use>
                        <path d="M-4,0h8M0,-4v8" fill="none" stroke="white" stroke-width="1.5" pointer-events="none"/>
                </g>
                <g id="zoomMin">
                        <use xlink:href="#rim" fill="#404040">
                                <set attributeName="fill" to="#808080" begin="zoomminus.mouseover" end="zoomminus.mouseout"/>
                        </use>
                        <path d="M-4,0h8" fill="none" stroke="white" stroke-width="1.5" pointer-events="none"/>
                </g>
                <g id="dirArrow">
                        <path fill="none" stroke="white" stroke-width="1.5" d="M0,-3.0v7 M-2.5,-0.5L0,-3.0L2.5,-0.5"/>
                </g>
               <g id="resetDef">
                       <use xlink:href="#rim2" fill="#404040">
                               <set attributeName="fill" to="#808080" begin="reset.mouseover" end="reset.mouseout"/>
                       </use>
               </g>
        </defs>

<script type="text/javascript">
var viewWidth = 1729;
var viewHeight = 419;
var sectionId = 'dynsection-0';
</script>
<script xlink:href="svgpan.js"/>
<svg id="graph" class="graph">
<g id="viewport">
<title>/home/travis/build/hypro/hypro/src/hypro/datastructures/Point.cpp</title>
<polygon fill="white" stroke="none" points="-4,4 -4,-415 1725,-415 1725,4 -4,4"/>
<!-- Node1 -->
<g id="node1" class="node"><title>Node1</title>
<polygon fill="#bfbfbf" stroke="black" points="1047.5,-369.5 1047.5,-410.5 1184.5,-410.5 1184.5,-369.5 1047.5,-369.5"/>
<text text-anchor="start" x="1055.5" y="-398.5" font-family="Helvetica,sans-Serif" font-size="10.00">/home/travis/build</text>
<text text-anchor="start" x="1055.5" y="-387.5" font-family="Helvetica,sans-Serif" font-size="10.00">/hypro/hypro/src/hypro</text>
<text text-anchor="middle" x="1116" y="-376.5" font-family="Helvetica,sans-Serif" font-size="10.00">/datastructures/Point.cpp</text>
</g>
<!-- Node2 -->
<g id="node2" class="node"><title>Node2</title>
<g id="a_node2"><a xlink:href="Point_8h.html" target="_top" xlink:title="Point.h">
<polygon fill="white" stroke="black" points="1091,-313.5 1091,-332.5 1141,-332.5 1141,-313.5 1091,-313.5"/>
<text text-anchor="middle" x="1116" y="-320.5" font-family="Helvetica,sans-Serif" font-size="10.00">Point.h</text>
</a>
</g>
</g>
<!-- Node1&#45;&gt;Node2 -->
<g id="edge1" class="edge"><title>Node1&#45;&gt;Node2</title>
<path fill="none" stroke="midnightblue" d="M1116,-369.498C1116,-361.065 1116,-351.235 1116,-342.874"/>
<polygon fill="midnightblue" stroke="midnightblue" points="1119.5,-342.652 1116,-332.652 1112.5,-342.653 1119.5,-342.652"/>
</g>
<!-- Node3 -->
<g id="node3" class="node"><title>Node3</title>
<g id="a_node3"><a xlink:href="config_8h.html" target="_top" xlink:title="../config.h">
<polygon fill="white" stroke="black" points="751.5,-257.5 751.5,-276.5 814.5,-276.5 814.5,-257.5 751.5,-257.5"/>
<text text-anchor="middle" x="783" y="-264.5" font-family="Helvetica,sans-Serif" font-size="10.00">../config.h</text>
</a>
</g>
</g>
<!-- Node2&#45;&gt;Node3 -->
<g id="edge2" class="edge"><title>Node2&#45;&gt;Node3</title>
<path fill="none" stroke="midnightblue" d="M1090.99,-318.403C1041.09,-311.153 925.609,-294.018 829,-277 827.547,-276.744 826.07,-276.479 824.578,-276.208"/>
<polygon fill="midnightblue" stroke="midnightblue" points="825.117,-272.748 814.645,-274.354 823.833,-279.63 825.117,-272.748"/>
</g>
<!-- Node6 -->
<g id="node6" class="node"><title>Node6</title>
<g id="a_node6"><a xlink:href="types_8h.html" target="_top" xlink:title="../types.h">
<polygon fill="white" stroke="black" points="811.5,-145.5 811.5,-164.5 872.5,-164.5 872.5,-145.5 811.5,-145.5"/>
<text text-anchor="middle" x="842" y="-152.5" font-family="Helvetica,sans-Serif" font-size="10.00">../types.h</text>
</a>
</g>
</g>
<!-- Node2&#45;&gt;Node6 -->
<g id="edge36" class="edge"><title>Node2&#45;&gt;Node6</title>
<path fill="none" stroke="midnightblue" d="M1090.69,-319.166C1039.87,-312.125 924.927,-289.172 862,-221 850.373,-208.404 845.501,-189.188 843.462,-174.913"/>
<polygon fill="midnightblue" stroke="midnightblue" points="846.917,-174.309 842.359,-164.744 839.958,-175.064 846.917,-174.309"/>
</g>
<!-- Node12 -->
<g id="node12" class="node"><title>Node12</title>
<polygon fill="white" stroke="#bfbfbf" points="1063,-84 1063,-103 1095,-103 1095,-84 1063,-84"/>
<text text-anchor="middle" x="1079" y="-91" font-family="Helvetica,sans-Serif" font-size="10.00">set</text>
</g>
<!-- Node2&#45;&gt;Node12 -->
<g id="edge46" class="edge"><title>Node2&#45;&gt;Node12</title>
<path fill="none" stroke="midnightblue" d="M1114.59,-313.36C1109.18,-280.068 1089.6,-159.651 1082.02,-113.074"/>
<polygon fill="midnightblue" stroke="midnightblue" points="1085.47,-112.458 1080.41,-103.149 1078.56,-113.581 1085.47,-112.458"/>
</g>
<!-- Node21 -->
<g id="node21" class="node"><title>Node21</title>
<polygon fill="white" stroke="#bfbfbf" points="1125.5,-145.5 1125.5,-164.5 1172.5,-164.5 1172.5,-145.5 1125.5,-145.5"/>
<text text-anchor="middle" x="1149" y="-152.5" font-family="Helvetica,sans-Serif" font-size="10.00">vector</text>
</g>
<!-- Node2&#45;&gt;Node21 -->
<g id="edge47" class="edge"><title>Node2&#45;&gt;Node21</title>
<path fill="none" stroke="midnightblue" d="M1117.77,-313.075C1122.97,-286.945 1138.22,-210.211 1145.31,-174.577"/>
<polygon fill="midnightblue" stroke="midnightblue" points="1148.78,-175.059 1147.3,-164.568 1141.91,-173.694 1148.78,-175.059"/>
</g>
<!-- Node29 -->
<g id="node29" class="node"><title>Node29</title>
<g id="a_node29"><a xlink:href="VariablePool_8h.html" target="_top" xlink:title="../util/VariablePool.h">
<polygon fill="white" stroke="black" points="1167,-201.5 1167,-220.5 1277,-220.5 1277,-201.5 1167,-201.5"/>
<text text-anchor="middle" x="1222" y="-208.5" font-family="Helvetica,sans-Serif" font-size="10.00">../util/VariablePool.h</text>
</a>
</g>
</g>
<!-- Node2&#45;&gt;Node29 -->
<g id="edge37" class="edge"><title>Node2&#45;&gt;Node29</title>
<path fill="none" stroke="midnightblue" d="M1124.32,-313.368C1142.04,-294.974 1183.77,-251.671 1206.53,-228.052"/>
<polygon fill="midnightblue" stroke="midnightblue" points="1209.3,-230.221 1213.72,-220.591 1204.26,-225.364 1209.3,-230.221"/>
</g>
<!-- Node35 -->
<g id="node35" class="node"><title>Node35</title>
<polygon fill="white" stroke="#bfbfbf" points="1201.5,-257.5 1201.5,-276.5 1260.5,-276.5 1260.5,-257.5 1201.5,-257.5"/>
<text text-anchor="middle" x="1231" y="-264.5" font-family="Helvetica,sans-Serif" font-size="10.00">Point.tpp</text>
</g>
<!-- Node2&#45;&gt;Node35 -->
<g id="edge48" class="edge"><title>Node2&#45;&gt;Node35</title>
<path fill="none" stroke="midnightblue" d="M1134.22,-313.444C1152.9,-304.675 1182.16,-290.935 1203.62,-280.858"/>
<polygon fill="midnightblue" stroke="midnightblue" points="1205.3,-283.935 1212.86,-276.516 1202.32,-277.599 1205.3,-283.935"/>
</g>
<!-- Node4 -->
<g id="node4" class="node"><title>Node4</title>
<g id="a_node4"><a xlink:href="flags_8h.html" target="_top" xlink:title="flags.h">
<polygon fill="white" stroke="black" points="0,-145.5 0,-164.5 48,-164.5 48,-145.5 0,-145.5"/>
<text text-anchor="middle" x="24" y="-152.5" font-family="Helvetica,sans-Serif" font-size="10.00">flags.h</text>
</a>
</g>
</g>
<!-- Node3&#45;&gt;Node4 -->
<g id="edge3" class="edge"><title>Node3&#45;&gt;Node4</title>
<path fill="none" stroke="midnightblue" d="M751.485,-264.292C675.624,-259.895 476.99,-246.692 313,-221 201.082,-203.466 171.695,-193.339 57.9135,-165.149"/>
<polygon fill="midnightblue" stroke="midnightblue" points="58.6613,-161.729 48.1137,-162.729 56.9825,-168.525 58.6613,-161.729"/>
</g>
<!-- Node5 -->
<g id="node5" class="node"><title>Node5</title>
<g id="a_node5"><a xlink:href="util_2convenienceOperators_8h.html" target="_top" xlink:title="util/convenienceOperators.h">
<polygon fill="white" stroke="black" points="871.5,-201.5 871.5,-220.5 1022.5,-220.5 1022.5,-201.5 871.5,-201.5"/>
<text text-anchor="middle" x="947" y="-208.5" font-family="Helvetica,sans-Serif" font-size="10.00">util/convenienceOperators.h</text>
</a>
</g>
</g>
<!-- Node3&#45;&gt;Node5 -->
<g id="edge4" class="edge"><title>Node3&#45;&gt;Node5</title>
<path fill="none" stroke="midnightblue" d="M808.986,-257.444C836.696,-248.32 880.752,-233.813 911.616,-223.651"/>
<polygon fill="midnightblue" stroke="midnightblue" points="912.732,-226.968 921.135,-220.516 910.542,-220.32 912.732,-226.968"/>
</g>
<!-- Node22 -->
<g id="node22" class="node"><title>Node22</title>
<g id="a_node22"><a xlink:href="Logger_8h.html" target="_top" xlink:title="util/logging/Logger.h">
<polygon fill="white" stroke="black" points="322.5,-201.5 322.5,-220.5 435.5,-220.5 435.5,-201.5 322.5,-201.5"/>
<text text-anchor="middle" x="379" y="-208.5" font-family="Helvetica,sans-Serif" font-size="10.00">util/logging/Logger.h</text>
</a>
</g>
</g>
<!-- Node3&#45;&gt;Node22 -->
<g id="edge28" class="edge"><title>Node3&#45;&gt;Node22</title>
<path fill="none" stroke="midnightblue" d="M751.299,-261.763C685.721,-252.997 533.94,-232.71 445.759,-220.923"/>
<polygon fill="midnightblue" stroke="midnightblue" points="445.969,-217.42 435.593,-219.564 445.041,-224.359 445.969,-217.42"/>
</g>
<!-- Node5&#45;&gt;Node6 -->
<g id="edge5" class="edge"><title>Node5&#45;&gt;Node6</title>
<path fill="none" stroke="midnightblue" d="M930.13,-201.324C913.291,-192.664 887.193,-179.242 867.762,-169.249"/>
<polygon fill="midnightblue" stroke="midnightblue" points="869.322,-166.116 858.828,-164.655 866.12,-172.341 869.322,-166.116"/>
</g>
<!-- Node11 -->
<g id="node11" class="node"><title>Node11</title>
<polygon fill="white" stroke="#bfbfbf" points="1043,-11.5 1043,-30.5 1089,-30.5 1089,-11.5 1043,-11.5"/>
<text text-anchor="middle" x="1066" y="-18.5" font-family="Helvetica,sans-Serif" font-size="10.00">iosfwd</text>
</g>
<!-- Node5&#45;&gt;Node11 -->
<g id="edge23" class="edge"><title>Node5&#45;&gt;Node11</title>
<path fill="none" stroke="midnightblue" d="M944.513,-201.237C941.291,-187.979 937.27,-162.515 948,-145 965.863,-115.84 991.404,-132.757 1016,-109 1036.51,-89.1893 1051.23,-59.1438 1059.19,-40.0512"/>
<polygon fill="midnightblue" stroke="midnightblue" points="1062.46,-41.2913 1062.9,-30.7056 1055.95,-38.7058 1062.46,-41.2913"/>
</g>
<!-- Node5&#45;&gt;Node12 -->
<g id="edge25" class="edge"><title>Node5&#45;&gt;Node12</title>
<path fill="none" stroke="midnightblue" d="M946.624,-201.326C946.505,-187.727 948.229,-161.262 962,-145 989.042,-113.065 1010.81,-126.112 1049,-109 1050.56,-108.301 1052.16,-107.57 1053.77,-106.823"/>
<polygon fill="midnightblue" stroke="midnightblue" points="1055.35,-109.947 1062.89,-102.499 1052.35,-103.622 1055.35,-109.947"/>
</g>
<!-- Node19 -->
<g id="node19" class="node"><title>Node19</title>
<polygon fill="white" stroke="#bfbfbf" points="1031,-145.5 1031,-164.5 1069,-164.5 1069,-145.5 1031,-145.5"/>
<text text-anchor="middle" x="1050" y="-152.5" font-family="Helvetica,sans-Serif" font-size="10.00">map</text>
</g>
<!-- Node5&#45;&gt;Node19 -->
<g id="edge24" class="edge"><title>Node5&#45;&gt;Node19</title>
<path fill="none" stroke="midnightblue" d="M963.549,-201.324C979.992,-192.703 1005.43,-179.364 1024.47,-169.386"/>
<polygon fill="midnightblue" stroke="midnightblue" points="1026.26,-172.398 1033.49,-164.655 1023.01,-166.198 1026.26,-172.398"/>
</g>
<!-- Node20 -->
<g id="node20" class="node"><title>Node20</title>
<polygon fill="white" stroke="#bfbfbf" points="971,-145.5 971,-164.5 1013,-164.5 1013,-145.5 971,-145.5"/>
<text text-anchor="middle" x="992" y="-152.5" font-family="Helvetica,sans-Serif" font-size="10.00">utility</text>
</g>
<!-- Node5&#45;&gt;Node20 -->
<g id="edge26" class="edge"><title>Node5&#45;&gt;Node20</title>
<path fill="none" stroke="midnightblue" d="M954.431,-201.083C960.853,-193.377 970.306,-182.033 978.122,-172.653"/>
<polygon fill="midnightblue" stroke="midnightblue" points="980.994,-174.674 984.707,-164.751 975.617,-170.193 980.994,-174.674"/>
</g>
<!-- Node5&#45;&gt;Node21 -->
<g id="edge27" class="edge"><title>Node5&#45;&gt;Node21</title>
<path fill="none" stroke="midnightblue" d="M979.008,-201.444C1016.22,-191.494 1077.38,-175.145 1115.31,-165.007"/>
<polygon fill="midnightblue" stroke="midnightblue" points="1116.59,-168.287 1125.35,-162.323 1114.78,-161.524 1116.59,-168.287"/>
</g>
<!-- Node7 -->
<g id="node7" class="node"><title>Node7</title>
<polygon fill="white" stroke="#bfbfbf" points="190,-11.5 190,-30.5 324,-30.5 324,-11.5 190,-11.5"/>
<text text-anchor="middle" x="257" y="-18.5" font-family="Helvetica,sans-Serif" font-size="10.00">carl/numbers/numbers.h</text>
</g>
<!-- Node6&#45;&gt;Node7 -->
<g id="edge6" class="edge"><title>Node6&#45;&gt;Node7</title>
<path fill="none" stroke="midnightblue" d="M811.399,-150.242C743.765,-141.828 583.337,-121.257 530,-109 441.144,-88.5812 339.587,-52.8059 289.061,-34.1289"/>
<polygon fill="midnightblue" stroke="midnightblue" points="290.247,-30.8362 279.655,-30.6311 287.808,-37.3972 290.247,-30.8362"/>
</g>
<!-- Node8 -->
<g id="node8" class="node"><title>Node8</title>
<polygon fill="white" stroke="#bfbfbf" points="799,-84 799,-103 885,-103 885,-84 799,-84"/>
<text text-anchor="middle" x="842" y="-91" font-family="Helvetica,sans-Serif" font-size="10.00">carl/util/hash.h</text>
</g>
<!-- Node6&#45;&gt;Node8 -->
<g id="edge7" class="edge"><title>Node6&#45;&gt;Node8</title>
<path fill="none" stroke="midnightblue" d="M842,-145.475C842,-137.08 842,-123.981 842,-113.163"/>
<polygon fill="midnightblue" stroke="midnightblue" points="845.5,-113.009 842,-103.009 838.5,-113.009 845.5,-113.009"/>
</g>
<!-- Node9 -->
<g id="node9" class="node"><title>Node9</title>
<polygon fill="white" stroke="#bfbfbf" points="903,-84 903,-103 1007,-103 1007,-84 903,-84"/>
<text text-anchor="middle" x="955" y="-91" font-family="Helvetica,sans-Serif" font-size="10.00">eigen3/Eigen/Core</text>
</g>
<!-- Node6&#45;&gt;Node9 -->
<g id="edge8" class="edge"><title>Node6&#45;&gt;Node9</title>
<path fill="none" stroke="midnightblue" d="M858.19,-145.475C876.902,-135.622 907.923,-119.288 929.799,-107.77"/>
<polygon fill="midnightblue" stroke="midnightblue" points="931.622,-110.765 938.84,-103.009 928.361,-104.571 931.622,-110.765"/>
</g>
<!-- Node10 -->
<g id="node10" class="node"><title>Node10</title>
<polygon fill="white" stroke="#bfbfbf" points="342,-11.5 342,-30.5 454,-30.5 454,-11.5 342,-11.5"/>
<text text-anchor="middle" x="398" y="-18.5" font-family="Helvetica,sans-Serif" font-size="10.00">eigen3/Eigen/Dense</text>
</g>
<!-- Node6&#45;&gt;Node10 -->
<g id="edge9" class="edge"><title>Node6&#45;&gt;Node10</title>
<path fill="none" stroke="midnightblue" d="M811.43,-149.527C768.242,-142.82 687.141,-128.798 620,-109 548.321,-87.8639 467.338,-53.2736 425.819,-34.7153"/>
<polygon fill="midnightblue" stroke="midnightblue" points="427.175,-31.4874 416.619,-30.5762 424.302,-37.8711 427.175,-31.4874"/>
</g>
<!-- Node6&#45;&gt;Node11 -->
<g id="edge10" class="edge"><title>Node6&#45;&gt;Node11</title>
<path fill="none" stroke="midnightblue" d="M828.446,-145.345C807.215,-130.751 770.464,-100.63 790,-78 825.816,-36.5119 982.562,-60.9248 1034,-42 1038.15,-40.4731 1042.34,-38.3609 1046.25,-36.0783"/>
<polygon fill="midnightblue" stroke="midnightblue" points="1048.21,-38.9776 1054.75,-30.638 1044.44,-33.0823 1048.21,-38.9776"/>
</g>
<!-- Node6&#45;&gt;Node12 -->
<g id="edge11" class="edge"><title>Node6&#45;&gt;Node12</title>
<path fill="none" stroke="midnightblue" d="M872.984,-146.221C920.045,-134.406 1008.71,-112.145 1052.78,-101.084"/>
<polygon fill="midnightblue" stroke="midnightblue" points="1053.87,-104.418 1062.72,-98.5882 1052.16,-97.6286 1053.87,-104.418"/>
</g>
<!-- Node13 -->
<g id="node13" class="node"><title>Node13</title>
<g id="a_node13"><a xlink:href="adaptions__eigen_8h.html" target="_top" xlink:title="util/adaptions_eigen\l/adaptions_eigen.h">
<polygon fill="white" stroke="black" points="629.5,-78.5 629.5,-108.5 742.5,-108.5 742.5,-78.5 629.5,-78.5"/>
<text text-anchor="start" x="637.5" y="-96.5" font-family="Helvetica,sans-Serif" font-size="10.00">util/adaptions_eigen</text>
<text text-anchor="middle" x="686" y="-85.5" font-family="Helvetica,sans-Serif" font-size="10.00">/adaptions_eigen.h</text>
</a>
</g>
</g>
<!-- Node6&#45;&gt;Node13 -->
<g id="edge12" class="edge"><title>Node6&#45;&gt;Node13</title>
<path fill="none" stroke="midnightblue" d="M814.748,-145.475C790.259,-136.852 754.188,-123.264 726.391,-112.285"/>
<polygon fill="midnightblue" stroke="midnightblue" points="727.522,-108.968 716.936,-108.523 724.934,-115.472 727.522,-108.968"/>
</g>
<!-- Node13&#45;&gt;Node3 -->
<g id="edge13" class="edge"><title>Node13&#45;&gt;Node3</title>
<path fill="none" stroke="midnightblue" d="M719.243,-108.502C734.961,-116.822 752.534,-128.923 763,-145 783.449,-176.413 785.232,-221.84 784.35,-247.154"/>
<polygon fill="midnightblue" stroke="midnightblue" points="780.85,-247.075 783.815,-257.246 787.84,-247.446 780.85,-247.075"/>
</g>
<!-- Node13&#45;&gt;Node6 -->
<g id="edge14" class="edge"><title>Node13&#45;&gt;Node6</title>
<path fill="none" stroke="midnightblue" d="M728.596,-108.523C756.203,-118.558 791.221,-131.942 815.068,-141.59"/>
<polygon fill="midnightblue" stroke="midnightblue" points="813.969,-144.922 824.55,-145.475 816.623,-138.445 813.969,-144.922"/>
</g>
<!-- Node13&#45;&gt;Node7 -->
<g id="edge16" class="edge"><title>Node13&#45;&gt;Node7</title>
<path fill="none" stroke="midnightblue" d="M629.411,-86.441C559.405,-78.4787 436.76,-63.0018 333,-42 321.002,-39.5716 308.08,-36.3888 296.354,-33.2787"/>
<polygon fill="midnightblue" stroke="midnightblue" points="296.978,-29.8217 286.41,-30.5851 295.147,-36.5782 296.978,-29.8217"/>
</g>
<!-- Node13&#45;&gt;Node10 -->
<g id="edge17" class="edge"><title>Node13&#45;&gt;Node10</title>
<path fill="none" stroke="midnightblue" d="M629.071,-80.9984C583.609,-71.4938 518.404,-57.1445 462,-42 452.67,-39.495 442.664,-36.5124 433.4,-33.6252"/>
<polygon fill="midnightblue" stroke="midnightblue" points="434.297,-30.2379 423.707,-30.5567 432.184,-36.9115 434.297,-30.2379"/>
</g>
<!-- Node13&#45;&gt;Node11 -->
<g id="edge20" class="edge"><title>Node13&#45;&gt;Node11</title>
<path fill="none" stroke="midnightblue" d="M742.513,-80.5755C747.405,-79.6596 752.284,-78.7869 757,-78 879.453,-57.5661 917.124,-83.8597 1034,-42 1038.16,-40.5089 1042.36,-38.4137 1046.27,-36.1366"/>
<polygon fill="midnightblue" stroke="midnightblue" points="1048.24,-39.0345 1054.77,-30.6919 1044.46,-33.1409 1048.24,-39.0345"/>
</g>
<!-- Node14 -->
<g id="node14" class="node"><title>Node14</title>
<g id="a_node14"><a xlink:href="transformation_8h.html" target="_top" xlink:title="transformation.h">
<polygon fill="white" stroke="black" points="471.5,-11.5 471.5,-30.5 568.5,-30.5 568.5,-11.5 471.5,-11.5"/>
<text text-anchor="middle" x="520" y="-18.5" font-family="Helvetica,sans-Serif" font-size="10.00">transformation.h</text>
</a>
</g>
</g>
<!-- Node13&#45;&gt;Node14 -->
<g id="edge15" class="edge"><title>Node13&#45;&gt;Node14</title>
<path fill="none" stroke="midnightblue" d="M652.806,-78.4027C622.676,-65.6063 578.649,-46.9083 549.669,-34.6004"/>
<polygon fill="midnightblue" stroke="midnightblue" points="550.666,-31.2212 540.093,-30.5336 547.929,-37.6642 550.666,-31.2212"/>
</g>
<!-- Node15 -->
<g id="node15" class="node"><title>Node15</title>
<polygon fill="white" stroke="#bfbfbf" points="587,-11.5 587,-30.5 725,-30.5 725,-11.5 587,-11.5"/>
<text text-anchor="middle" x="656" y="-18.5" font-family="Helvetica,sans-Serif" font-size="10.00">eigen3/Eigen/Eigenvalues</text>
</g>
<!-- Node13&#45;&gt;Node15 -->
<g id="edge18" class="edge"><title>Node13&#45;&gt;Node15</title>
<path fill="none" stroke="midnightblue" d="M679.929,-78.2333C675.268,-67.2793 668.798,-52.0749 663.761,-40.2375"/>
<polygon fill="midnightblue" stroke="midnightblue" points="666.92,-38.7242 659.784,-30.8932 660.479,-41.4652 666.92,-38.7242"/>
</g>
<!-- Node16 -->
<g id="node16" class="node"><title>Node16</title>
<polygon fill="white" stroke="#bfbfbf" points="743.5,-11.5 743.5,-30.5 806.5,-30.5 806.5,-11.5 743.5,-11.5"/>
<text text-anchor="middle" x="775" y="-18.5" font-family="Helvetica,sans-Serif" font-size="10.00">functional</text>
</g>
<!-- Node13&#45;&gt;Node16 -->
<g id="edge19" class="edge"><title>Node13&#45;&gt;Node16</title>
<path fill="none" stroke="midnightblue" d="M704.01,-78.2333C718.956,-66.3941 740.17,-49.5899 755.511,-37.4378"/>
<polygon fill="midnightblue" stroke="midnightblue" points="758.108,-39.846 763.773,-30.8932 753.761,-34.3589 758.108,-39.846"/>
</g>
<!-- Node17 -->
<g id="node17" class="node"><title>Node17</title>
<polygon fill="white" stroke="#bfbfbf" points="825,-11.5 825,-30.5 867,-30.5 867,-11.5 825,-11.5"/>
<text text-anchor="middle" x="846" y="-18.5" font-family="Helvetica,sans-Serif" font-size="10.00">limits</text>
</g>
<!-- Node13&#45;&gt;Node17 -->
<g id="edge21" class="edge"><title>Node13&#45;&gt;Node17</title>
<path fill="none" stroke="midnightblue" d="M728.172,-78.4047C753.831,-69.2418 786.953,-56.3545 815,-42 818.453,-40.2328 822.007,-38.1823 825.421,-36.0816"/>
<polygon fill="midnightblue" stroke="midnightblue" points="827.465,-38.9286 833.967,-30.5635 823.667,-33.0481 827.465,-38.9286"/>
</g>
<!-- Node18 -->
<g id="node18" class="node"><title>Node18</title>
<polygon fill="white" stroke="#bfbfbf" points="885,-0.5 885,-41.5 1025,-41.5 1025,-0.5 885,-0.5"/>
<text text-anchor="start" x="893" y="-29.5" font-family="Helvetica,sans-Serif" font-size="10.00">eigen3/unsupported</text>
<text text-anchor="start" x="893" y="-18.5" font-family="Helvetica,sans-Serif" font-size="10.00">/Eigen/src/MatrixFunctions</text>
<text text-anchor="middle" x="955" y="-7.5" font-family="Helvetica,sans-Serif" font-size="10.00">/MatrixExponential.h</text>
</g>
<!-- Node13&#45;&gt;Node18 -->
<g id="edge22" class="edge"><title>Node13&#45;&gt;Node18</title>
<path fill="none" stroke="midnightblue" d="M739.467,-78.4872C778.213,-68.3327 831.261,-54.4296 875.033,-42.9578"/>
<polygon fill="midnightblue" stroke="midnightblue" points="876.009,-46.3203 884.795,-40.3993 874.235,-39.5489 876.009,-46.3203"/>
</g>
<!-- Node22&#45;&gt;Node4 -->
<g id="edge29" class="edge"><title>Node22&#45;&gt;Node4</title>
<path fill="none" stroke="midnightblue" d="M322.496,-204.309C259.987,-197.521 156.16,-184.789 57.8647,-164.949"/>
<polygon fill="midnightblue" stroke="midnightblue" points="58.564,-161.52 48.0652,-162.944 57.1603,-168.378 58.564,-161.52"/>
</g>
<!-- Node23 -->
<g id="node23" class="node"><title>Node23</title>
<polygon fill="white" stroke="#bfbfbf" points="66,-145.5 66,-164.5 220,-164.5 220,-145.5 66,-145.5"/>
<text text-anchor="middle" x="143" y="-152.5" font-family="Helvetica,sans-Serif" font-size="10.00">carl/io/streamingOperators.h</text>
</g>
<!-- Node22&#45;&gt;Node23 -->
<g id="edge30" class="edge"><title>Node22&#45;&gt;Node23</title>
<path fill="none" stroke="midnightblue" d="M341.605,-201.444C300.608,-192.063 234.746,-176.993 190.216,-166.804"/>
<polygon fill="midnightblue" stroke="midnightblue" points="190.749,-163.335 180.22,-164.516 189.187,-170.159 190.749,-163.335"/>
</g>
<!-- Node24 -->
<g id="node24" class="node"><title>Node24</title>
<polygon fill="white" stroke="#bfbfbf" points="238.5,-145.5 238.5,-164.5 297.5,-164.5 297.5,-145.5 238.5,-145.5"/>
<text text-anchor="middle" x="268" y="-152.5" font-family="Helvetica,sans-Serif" font-size="10.00">iostream</text>
</g>
<!-- Node22&#45;&gt;Node24 -->
<g id="edge31" class="edge"><title>Node22&#45;&gt;Node24</title>
<path fill="none" stroke="midnightblue" d="M361.166,-201.324C343.284,-192.625 315.525,-179.12 294.954,-169.113"/>
<polygon fill="midnightblue" stroke="midnightblue" points="296.313,-165.882 285.79,-164.655 293.251,-172.177 296.313,-165.882"/>
</g>
<!-- Node25 -->
<g id="node25" class="node"><title>Node25</title>
<polygon fill="white" stroke="#bfbfbf" points="316,-145.5 316,-164.5 372,-164.5 372,-145.5 316,-145.5"/>
<text text-anchor="middle" x="344" y="-152.5" font-family="Helvetica,sans-Serif" font-size="10.00">sstream</text>
</g>
<!-- Node22&#45;&gt;Node25 -->
<g id="edge32" class="edge"><title>Node22&#45;&gt;Node25</title>
<path fill="none" stroke="midnightblue" d="M373.22,-201.083C368.328,-193.534 361.173,-182.495 355.167,-173.23"/>
<polygon fill="midnightblue" stroke="midnightblue" points="358.048,-171.239 349.672,-164.751 352.174,-175.046 358.048,-171.239"/>
</g>
<!-- Node26 -->
<g id="node26" class="node"><title>Node26</title>
<polygon fill="white" stroke="#bfbfbf" points="390,-145.5 390,-164.5 438,-164.5 438,-145.5 390,-145.5"/>
<text text-anchor="middle" x="414" y="-152.5" font-family="Helvetica,sans-Serif" font-size="10.00">thread</text>
</g>
<!-- Node22&#45;&gt;Node26 -->
<g id="edge33" class="edge"><title>Node22&#45;&gt;Node26</title>
<path fill="none" stroke="midnightblue" d="M384.78,-201.083C389.672,-193.534 396.827,-182.495 402.833,-173.23"/>
<polygon fill="midnightblue" stroke="midnightblue" points="405.826,-175.046 408.328,-164.751 399.952,-171.239 405.826,-175.046"/>
</g>
<!-- Node27 -->
<g id="node27" class="node"><title>Node27</title>
<polygon fill="white" stroke="#bfbfbf" points="456.5,-145.5 456.5,-164.5 581.5,-164.5 581.5,-145.5 456.5,-145.5"/>
<text text-anchor="middle" x="519" y="-152.5" font-family="Helvetica,sans-Serif" font-size="10.00">carl/core/carlLogging.h</text>
</g>
<!-- Node22&#45;&gt;Node27 -->
<g id="edge34" class="edge"><title>Node22&#45;&gt;Node27</title>
<path fill="none" stroke="midnightblue" d="M401.183,-201.444C424.428,-192.478 461.149,-178.314 487.415,-168.183"/>
<polygon fill="midnightblue" stroke="midnightblue" points="488.85,-171.381 496.92,-164.516 486.331,-164.85 488.85,-171.381"/>
</g>
<!-- Node28 -->
<g id="node28" class="node"><title>Node28</title>
<polygon fill="white" stroke="#bfbfbf" points="599.5,-145.5 599.5,-164.5 754.5,-164.5 754.5,-145.5 599.5,-145.5"/>
<text text-anchor="middle" x="677" y="-152.5" font-family="Helvetica,sans-Serif" font-size="10.00">carl/core/carlLoggingHelper.h</text>
</g>
<!-- Node22&#45;&gt;Node28 -->
<g id="edge35" class="edge"><title>Node22&#45;&gt;Node28</title>
<path fill="none" stroke="midnightblue" d="M426.219,-201.444C478.749,-191.925 563.61,-176.547 619.848,-166.356"/>
<polygon fill="midnightblue" stroke="midnightblue" points="620.786,-169.743 630.002,-164.516 619.538,-162.856 620.786,-169.743"/>
</g>
<!-- Node29&#45;&gt;Node4 -->
<g id="edge38" class="edge"><title>Node29&#45;&gt;Node4</title>
<path fill="none" stroke="midnightblue" d="M1166.84,-207.253C1128.7,-205.389 1076.77,-202.924 1031,-201 601.579,-182.947 487.001,-229.679 58.2013,-164.787"/>
<polygon fill="midnightblue" stroke="midnightblue" points="58.4269,-161.281 48.0135,-163.233 57.3715,-168.201 58.4269,-161.281"/>
</g>
<!-- Node29&#45;&gt;Node19 -->
<g id="edge44" class="edge"><title>Node29&#45;&gt;Node19</title>
<path fill="none" stroke="midnightblue" d="M1194.75,-201.444C1163.12,-191.515 1111.19,-175.211 1078.89,-165.069"/>
<polygon fill="midnightblue" stroke="midnightblue" points="1079.73,-161.665 1069.14,-162.008 1077.63,-168.343 1079.73,-161.665"/>
</g>
<!-- Node29&#45;&gt;Node21 -->
<g id="edge45" class="edge"><title>Node29&#45;&gt;Node21</title>
<path fill="none" stroke="midnightblue" d="M1210.27,-201.324C1199.16,-193.107 1182.26,-180.602 1169.02,-170.807"/>
<polygon fill="midnightblue" stroke="midnightblue" points="1171.06,-167.967 1160.94,-164.834 1166.9,-173.595 1171.06,-167.967"/>
</g>
<!-- Node30 -->
<g id="node30" class="node"><title>Node30</title>
<polygon fill="white" stroke="#bfbfbf" points="1191,-145.5 1191,-164.5 1253,-164.5 1253,-145.5 1191,-145.5"/>
<text text-anchor="middle" x="1222" y="-152.5" font-family="Helvetica,sans-Serif" font-size="10.00">algorithm</text>
</g>
<!-- Node29&#45;&gt;Node30 -->
<g id="edge39" class="edge"><title>Node29&#45;&gt;Node30</title>
<path fill="none" stroke="midnightblue" d="M1222,-201.083C1222,-194.006 1222,-183.861 1222,-174.986"/>
<polygon fill="midnightblue" stroke="midnightblue" points="1225.5,-174.751 1222,-164.751 1218.5,-174.751 1225.5,-174.751"/>
</g>
<!-- Node31 -->
<g id="node31" class="node"><title>Node31</title>
<polygon fill="white" stroke="#bfbfbf" points="1271,-145.5 1271,-164.5 1379,-164.5 1379,-145.5 1271,-145.5"/>
<text text-anchor="middle" x="1325" y="-152.5" font-family="Helvetica,sans-Serif" font-size="10.00">carl/core/Variable.h</text>
</g>
<!-- Node29&#45;&gt;Node31 -->
<g id="edge40" class="edge"><title>Node29&#45;&gt;Node31</title>
<path fill="none" stroke="midnightblue" d="M1238.55,-201.324C1254.99,-192.703 1280.43,-179.364 1299.47,-169.386"/>
<polygon fill="midnightblue" stroke="midnightblue" points="1301.26,-172.398 1308.49,-164.655 1298.01,-166.198 1301.26,-172.398"/>
</g>
<!-- Node32 -->
<g id="node32" class="node"><title>Node32</title>
<polygon fill="white" stroke="#bfbfbf" points="1397,-145.5 1397,-164.5 1525,-164.5 1525,-145.5 1397,-145.5"/>
<text text-anchor="middle" x="1461" y="-152.5" font-family="Helvetica,sans-Serif" font-size="10.00">carl/core/VariablePool.h</text>
</g>
<!-- Node29&#45;&gt;Node32 -->
<g id="edge41" class="edge"><title>Node29&#45;&gt;Node32</title>
<path fill="none" stroke="midnightblue" d="M1259.87,-201.444C1301.48,-192.043 1368.37,-176.929 1413.47,-166.739"/>
<polygon fill="midnightblue" stroke="midnightblue" points="1414.32,-170.134 1423.31,-164.516 1412.78,-163.306 1414.32,-170.134"/>
</g>
<!-- Node33 -->
<g id="node33" class="node"><title>Node33</title>
<polygon fill="white" stroke="#bfbfbf" points="1543,-145.5 1543,-164.5 1651,-164.5 1651,-145.5 1543,-145.5"/>
<text text-anchor="middle" x="1597" y="-152.5" font-family="Helvetica,sans-Serif" font-size="10.00">carl/util/Singleton.h</text>
</g>
<!-- Node29&#45;&gt;Node33 -->
<g id="edge42" class="edge"><title>Node29&#45;&gt;Node33</title>
<path fill="none" stroke="midnightblue" d="M1277.33,-202.032C1345.39,-192.231 1460.73,-175.623 1532.67,-165.263"/>
<polygon fill="midnightblue" stroke="midnightblue" points="1533.56,-168.671 1542.96,-163.781 1532.57,-161.742 1533.56,-168.671"/>
</g>
<!-- Node34 -->
<g id="node34" class="node"><title>Node34</title>
<polygon fill="white" stroke="#bfbfbf" points="1669,-145.5 1669,-164.5 1721,-164.5 1721,-145.5 1669,-145.5"/>
<text text-anchor="middle" x="1695" y="-152.5" font-family="Helvetica,sans-Serif" font-size="10.00">cassert</text>
</g>
<!-- Node29&#45;&gt;Node34 -->
<g id="edge43" class="edge"><title>Node29&#45;&gt;Node34</title>
<path fill="none" stroke="midnightblue" d="M1277.34,-206.972C1358.84,-201.928 1516.03,-189.978 1658.49,-165.026"/>
<polygon fill="midnightblue" stroke="midnightblue" points="1659.49,-168.403 1668.72,-163.207 1658.26,-161.511 1659.49,-168.403"/>
</g>
</g>
</svg>
        <g id="navigator" transform="translate(0 0)" fill="#404254">
                <rect fill="#f2f5e9" fill-opacity="0.5" stroke="#606060" stroke-width=".5" x="0" y="0" width="60" height="60"/>
                <use id="zoomplus" xlink:href="#zoomPlus" x="17" y="9" onmousedown="handleZoom(evt,'in')"/>
                <use id="zoomminus" xlink:href="#zoomMin" x="42" y="9" onmousedown="handleZoom(evt,'out')"/>
                <use id="reset" xlink:href="#resetDef" x="30" y="36" onmousedown="handleReset()"/>
                <g id="arrowUp" xlink:href="#dirArrow" transform="translate(30 24)" onmousedown="handlePan(0,-1)">
                  <use xlink:href="#rim" fill="#404040">
                        <set attributeName="fill" to="#808080" begin="arrowUp.mouseover" end="arrowUp.mouseout"/>
                  </use>
                  <path fill="none" stroke="white" stroke-width="1.5" d="M0,-3.0v7 M-2.5,-0.5L0,-3.0L2.5,-0.5"/>
                </g>
                <g id="arrowRight" xlink:href="#dirArrow" transform="rotate(90) translate(36 -43)" onmousedown="handlePan(1,0)">
                  <use xlink:href="#rim" fill="#404040">
                        <set attributeName="fill" to="#808080" begin="arrowRight.mouseover" end="arrowRight.mouseout"/>
                  </use>
                  <path fill="none" stroke="white" stroke-width="1.5" d="M0,-3.0v7 M-2.5,-0.5L0,-3.0L2.5,-0.5"/>
                </g>
                <g id="arrowDown" xlink:href="#dirArrow" transform="rotate(180) translate(-30 -48)" onmousedown="handlePan(0,1)">
                  <use xlink:href="#rim" fill="#404040">
                        <set attributeName="fill" to="#808080" begin="arrowDown.mouseover" end="arrowDown.mouseout"/>
                  </use>
                  <path fill="none" stroke="white" stroke-width="1.5" d="M0,-3.0v7 M-2.5,-0.5L0,-3.0L2.5,-0.5"/>
                </g>
                <g id="arrowLeft" xlink:href="#dirArrow" transform="rotate(270) translate(-36 17)" onmousedown="handlePan(-1,0)">
                  <use xlink:href="#rim" fill="#404040">
                        <set attributeName="fill" to="#808080" begin="arrowLeft.mouseover" end="arrowLeft.mouseout"/>
                  </use>
                  <path fill="none" stroke="white" stroke-width="1.5" d="M0,-3.0v7 M-2.5,-0.5L0,-3.0L2.5,-0.5"/>
                </g>
        </g>
        <svg viewBox="0 0 15 15" width="100%" height="30px" preserveAspectRatio="xMaxYMin meet">
         <g id="arrow_out" transform="scale(0.3 0.3)">
          <a xlink:href="Point_8cpp__incl_org.svg" target="_base">
           <rect id="button" ry="5" rx="5" y="6" x="6" height="38" width="38"
                fill="#f2f5e9" fill-opacity="0.5" stroke="#606060" stroke-width="1.0"/>
           <path id="arrow"
             d="M 11.500037,31.436501 C 11.940474,20.09759 22.043105,11.32322 32.158766,21.979434 L 37.068811,17.246167 C 37.068811,17.246167 37.088388,32 37.088388,32 L 22.160133,31.978069 C 22.160133,31.978069 26.997745,27.140456 26.997745,27.140456 C 18.528582,18.264221 13.291696,25.230495 11.500037,31.436501 z"
             style="fill:#404040;"/>
          </a>
         </g>
        </svg>
</svg>
