<?xml version="1.0" encoding="UTF-8" standalone="no"?>
<!DOCTYPE svg PUBLIC "-//W3C//DTD SVG 1.1//EN"
 "http://www.w3.org/Graphics/SVG/1.1/DTD/svg11.dtd">
<!-- Generated by graphviz version 2.38.0 (20140413.2041)
 -->
<!-- Title: /home/travis/build/hypro/hypro/src/hypro/algorithms/quantifierElimination/qe.h Pages: 1 -->
<svg width="6925pt" height="251pt"
 viewBox="0.00 0.00 6925.00 251.00" xmlns="http://www.w3.org/2000/svg" xmlns:xlink="http://www.w3.org/1999/xlink">
<g id="graph0" class="graph" transform="scale(1 1) rotate(0) translate(4 247)">
<title>/home/travis/build/hypro/hypro/src/hypro/algorithms/quantifierElimination/qe.h</title>
<polygon fill="white" stroke="none" points="-4,4 -4,-247 6921,-247 6921,4 -4,4"/>
<!-- Node1 -->
<g id="node1" class="node"><title>Node1</title>
<polygon fill="#bfbfbf" stroke="black" points="2773,-201.5 2773,-242.5 2968,-242.5 2968,-201.5 2773,-201.5"/>
<text text-anchor="start" x="2781" y="-230.5" font-family="Helvetica,sans-Serif" font-size="10.00">/home/travis/build</text>
<text text-anchor="start" x="2781" y="-219.5" font-family="Helvetica,sans-Serif" font-size="10.00">/hypro/hypro/src/hypro</text>
<text text-anchor="middle" x="2870.5" y="-208.5" font-family="Helvetica,sans-Serif" font-size="10.00">/algorithms/quantifierElimination/qe.h</text>
</g>
<!-- Node2 -->
<g id="node2" class="node"><title>Node2</title>
<g id="a_node2"><a xlink:href="carlTypes_8h.html" target="_top" xlink:title="../../carlTypes.h">
<polygon fill="white" stroke="black" points="129,-73 129,-92 216,-92 216,-73 129,-73"/>
<text text-anchor="middle" x="172.5" y="-80" font-family="Helvetica,sans-Serif" font-size="10.00">../../carlTypes.h</text>
</a>
</g>
</g>
<!-- Node1&#45;&gt;Node2 -->
<g id="edge1" class="edge"><title>Node1&#45;&gt;Node2</title>
<path fill="none" stroke="midnightblue" d="M2772.66,-219.241C2324.03,-210.854 474.798,-172.675 224.5,-109 214.338,-106.415 203.827,-101.705 194.937,-97.0294"/>
<polygon fill="midnightblue" stroke="midnightblue" points="196.46,-93.872 186.02,-92.0724 193.059,-99.9903 196.46,-93.872"/>
</g>
<!-- Node5 -->
<g id="node5" class="node"><title>Node5</title>
<g id="a_node5"><a xlink:href="FourierMotzkinQE_8h.html" target="_top" xlink:title="FourierMotzkinQE.h">
<polygon fill="white" stroke="red" points="3716,-145.5 3716,-164.5 3825,-164.5 3825,-145.5 3716,-145.5"/>
<text text-anchor="middle" x="3770.5" y="-152.5" font-family="Helvetica,sans-Serif" font-size="10.00">FourierMotzkinQE.h</text>
</a>
</g>
</g>
<!-- Node1&#45;&gt;Node5 -->
<g id="edge4" class="edge"><title>Node1&#45;&gt;Node5</title>
<path fill="none" stroke="midnightblue" d="M2968.1,-213.951C3152.93,-200.602 3549.48,-171.963 3705.51,-160.693"/>
<polygon fill="midnightblue" stroke="midnightblue" points="3706.16,-164.156 3715.88,-159.945 3705.66,-157.174 3706.16,-164.156"/>
</g>
<!-- Node3 -->
<g id="node3" class="node"><title>Node3</title>
<polygon fill="white" stroke="#bfbfbf" points="0,-0.5 0,-19.5 177,-19.5 177,-0.5 0,-0.5"/>
<text text-anchor="middle" x="88.5" y="-7.5" font-family="Helvetica,sans-Serif" font-size="10.00">carl/core/MultivariatePolynomial.h</text>
</g>
<!-- Node2&#45;&gt;Node3 -->
<g id="edge2" class="edge"><title>Node2&#45;&gt;Node3</title>
<path fill="none" stroke="midnightblue" d="M162.2,-72.8553C148.471,-61.333 123.939,-40.7432 106.971,-26.5022"/>
<polygon fill="midnightblue" stroke="midnightblue" points="108.794,-23.4632 98.8843,-19.7154 104.294,-28.8251 108.794,-23.4632"/>
</g>
<!-- Node4 -->
<g id="node4" class="node"><title>Node4</title>
<polygon fill="white" stroke="#bfbfbf" points="195,-0.5 195,-19.5 320,-19.5 320,-0.5 195,-0.5"/>
<text text-anchor="middle" x="257.5" y="-7.5" font-family="Helvetica,sans-Serif" font-size="10.00">carl/formula/Formula.h</text>
</g>
<!-- Node2&#45;&gt;Node4 -->
<g id="edge3" class="edge"><title>Node2&#45;&gt;Node4</title>
<path fill="none" stroke="midnightblue" d="M182.923,-72.8553C196.942,-61.2272 222.096,-40.3647 239.28,-26.1118"/>
<polygon fill="midnightblue" stroke="midnightblue" points="241.529,-28.7934 246.992,-19.7154 237.061,-23.4055 241.529,-28.7934"/>
</g>
<!-- Node5&#45;&gt;Node2 -->
<g id="edge5" class="edge"><title>Node5&#45;&gt;Node2</title>
<path fill="none" stroke="midnightblue" d="M3715.68,-153.992C3280.87,-153.846 401.629,-151.279 224.5,-109 214.301,-106.566 203.783,-101.883 194.898,-97.1882"/>
<polygon fill="midnightblue" stroke="midnightblue" points="196.424,-94.0314 185.989,-92.1945 193.001,-100.137 196.424,-94.0314"/>
</g>
<!-- Node5&#45;&gt;Node5 -->
<g id="edge51" class="edge"><title>Node5&#45;&gt;Node5</title>
<path fill="none" stroke="midnightblue" d="M3793.14,-164.564C3816.66,-170.37 3843,-167.182 3843,-155 3843,-144.531 3823.54,-140.705 3803.15,-143.52"/>
<polygon fill="midnightblue" stroke="midnightblue" points="3802.3,-140.118 3793.14,-145.436 3803.62,-146.993 3802.3,-140.118"/>
</g>
<!-- Node6 -->
<g id="node6" class="node"><title>Node6</title>
<polygon fill="white" stroke="#bfbfbf" points="234,-62 234,-103 389,-103 389,-62 234,-62"/>
<text text-anchor="start" x="242" y="-91" font-family="Helvetica,sans-Serif" font-size="10.00">/home/travis/build</text>
<text text-anchor="start" x="242" y="-80" font-family="Helvetica,sans-Serif" font-size="10.00">/hypro/hypro/build/carl</text>
<text text-anchor="middle" x="311.5" y="-69" font-family="Helvetica,sans-Serif" font-size="10.00">/src/carl/formula/Constraint.h</text>
</g>
<!-- Node5&#45;&gt;Node6 -->
<g id="edge6" class="edge"><title>Node5&#45;&gt;Node6</title>
<path fill="none" stroke="midnightblue" d="M3715.98,-154.166C3308.03,-155.287 739.454,-160.262 398.5,-109 392.617,-108.116 386.575,-106.936 380.548,-105.569"/>
<polygon fill="midnightblue" stroke="midnightblue" points="380.997,-102.076 370.453,-103.108 379.339,-108.877 380.997,-102.076"/>
</g>
<!-- Node7 -->
<g id="node7" class="node"><title>Node7</title>
<polygon fill="white" stroke="#bfbfbf" points="407.5,-62 407.5,-103 583.5,-103 583.5,-62 407.5,-62"/>
<text text-anchor="start" x="415.5" y="-91" font-family="Helvetica,sans-Serif" font-size="10.00">/home/travis/build</text>
<text text-anchor="start" x="415.5" y="-80" font-family="Helvetica,sans-Serif" font-size="10.00">/hypro/hypro/build/carl</text>
<text text-anchor="middle" x="495.5" y="-69" font-family="Helvetica,sans-Serif" font-size="10.00">/src/carl/formula/ConstraintPool.h</text>
</g>
<!-- Node5&#45;&gt;Node7 -->
<g id="edge7" class="edge"><title>Node5&#45;&gt;Node7</title>
<path fill="none" stroke="midnightblue" d="M3715.71,-154.026C3320.63,-154.109 913.53,-152.805 592.5,-109 585.443,-108.037 578.164,-106.731 570.915,-105.215"/>
<polygon fill="midnightblue" stroke="midnightblue" points="571.592,-101.781 561.072,-103.032 570.077,-108.615 571.592,-101.781"/>
</g>
<!-- Node8 -->
<g id="node8" class="node"><title>Node8</title>
<polygon fill="white" stroke="#bfbfbf" points="601.5,-62 601.5,-103 805.5,-103 805.5,-62 601.5,-62"/>
<text text-anchor="start" x="609.5" y="-91" font-family="Helvetica,sans-Serif" font-size="10.00">/home/travis/build</text>
<text text-anchor="start" x="609.5" y="-80" font-family="Helvetica,sans-Serif" font-size="10.00">/hypro/hypro/build/carl</text>
<text text-anchor="middle" x="703.5" y="-69" font-family="Helvetica,sans-Serif" font-size="10.00">/src/carl/converter/OldGinacConverter.h</text>
</g>
<!-- Node5&#45;&gt;Node8 -->
<g id="edge8" class="edge"><title>Node5&#45;&gt;Node8</title>
<path fill="none" stroke="midnightblue" d="M3715.97,-153.862C3337.88,-152.811 1112.73,-145.117 814.5,-109 806.014,-107.972 797.229,-106.565 788.487,-104.934"/>
<polygon fill="midnightblue" stroke="midnightblue" points="789.141,-101.496 778.655,-103.008 787.795,-108.365 789.141,-101.496"/>
</g>
<!-- Node9 -->
<g id="node9" class="node"><title>Node9</title>
<polygon fill="white" stroke="#bfbfbf" points="823.5,-56.5 823.5,-108.5 999.5,-108.5 999.5,-56.5 823.5,-56.5"/>
<text text-anchor="start" x="831.5" y="-96.5" font-family="Helvetica,sans-Serif" font-size="10.00">/home/travis/build</text>
<text text-anchor="start" x="831.5" y="-85.5" font-family="Helvetica,sans-Serif" font-size="10.00">/hypro/hypro/build/carl</text>
<text text-anchor="start" x="831.5" y="-74.5" font-family="Helvetica,sans-Serif" font-size="10.00">/src/carl/core/polynomialfunctions</text>
<text text-anchor="middle" x="911.5" y="-63.5" font-family="Helvetica,sans-Serif" font-size="10.00">/Factorization.h</text>
</g>
<!-- Node5&#45;&gt;Node9 -->
<g id="edge9" class="edge"><title>Node5&#45;&gt;Node9</title>
<path fill="none" stroke="midnightblue" d="M3715.77,-153.909C3355.69,-153.206 1330.88,-147.61 1010.01,-109.126"/>
<polygon fill="midnightblue" stroke="midnightblue" points="1010.1,-105.609 999.738,-107.802 1009.21,-112.552 1010.1,-105.609"/>
</g>
<!-- Node10 -->
<g id="node10" class="node"><title>Node10</title>
<polygon fill="white" stroke="#bfbfbf" points="1017,-56.5 1017,-108.5 1166,-108.5 1166,-56.5 1017,-56.5"/>
<text text-anchor="start" x="1025" y="-96.5" font-family="Helvetica,sans-Serif" font-size="10.00">/home/travis/build</text>
<text text-anchor="start" x="1025" y="-85.5" font-family="Helvetica,sans-Serif" font-size="10.00">/hypro/hypro/build/carl</text>
<text text-anchor="start" x="1025" y="-74.5" font-family="Helvetica,sans-Serif" font-size="10.00">/src/carl/formula/model</text>
<text text-anchor="middle" x="1091.5" y="-63.5" font-family="Helvetica,sans-Serif" font-size="10.00">/ran/RealAlgebraicNumber.h</text>
</g>
<!-- Node5&#45;&gt;Node10 -->
<g id="edge10" class="edge"><title>Node5&#45;&gt;Node10</title>
<path fill="none" stroke="midnightblue" d="M3715.74,-153.961C3368.59,-153.596 1479.31,-149.802 1176.46,-108.823"/>
<polygon fill="midnightblue" stroke="midnightblue" points="1176.77,-105.33 1166.37,-107.35 1175.76,-112.257 1176.77,-105.33"/>
</g>
<!-- Node11 -->
<g id="node11" class="node"><title>Node11</title>
<polygon fill="white" stroke="#bfbfbf" points="1184.5,-56.5 1184.5,-108.5 1312.5,-108.5 1312.5,-56.5 1184.5,-56.5"/>
<text text-anchor="start" x="1192.5" y="-96.5" font-family="Helvetica,sans-Serif" font-size="10.00">/home/travis/build</text>
<text text-anchor="start" x="1192.5" y="-85.5" font-family="Helvetica,sans-Serif" font-size="10.00">/hypro/hypro/build/carl</text>
<text text-anchor="start" x="1192.5" y="-74.5" font-family="Helvetica,sans-Serif" font-size="10.00">/src/carl/core/rootfinder</text>
<text text-anchor="middle" x="1248.5" y="-63.5" font-family="Helvetica,sans-Serif" font-size="10.00">/AbstractRootFinder.h</text>
</g>
<!-- Node5&#45;&gt;Node11 -->
<g id="edge11" class="edge"><title>Node5&#45;&gt;Node11</title>
<path fill="none" stroke="midnightblue" d="M3715.82,-154.034C3380.55,-154.108 1608.17,-152.498 1322.59,-108.802"/>
<polygon fill="midnightblue" stroke="midnightblue" points="1323.13,-105.343 1312.69,-107.162 1321.98,-112.249 1323.13,-105.343"/>
</g>
<!-- Node12 -->
<g id="node12" class="node"><title>Node12</title>
<polygon fill="white" stroke="#bfbfbf" points="1331,-62 1331,-103 1456,-103 1456,-62 1331,-62"/>
<text text-anchor="start" x="1339" y="-91" font-family="Helvetica,sans-Serif" font-size="10.00">/home/travis/build</text>
<text text-anchor="start" x="1339" y="-80" font-family="Helvetica,sans-Serif" font-size="10.00">/hypro/hypro/build/carl</text>
<text text-anchor="middle" x="1393.5" y="-69" font-family="Helvetica,sans-Serif" font-size="10.00">/src/carl/core/logging.h</text>
</g>
<!-- Node5&#45;&gt;Node12 -->
<g id="edge12" class="edge"><title>Node5&#45;&gt;Node12</title>
<path fill="none" stroke="midnightblue" d="M3715.86,-153.995C3388.35,-153.825 1692.04,-150.913 1464.5,-109 1460.11,-108.191 1455.62,-107.144 1451.15,-105.939"/>
<polygon fill="midnightblue" stroke="midnightblue" points="1452.01,-102.541 1441.42,-103.074 1450.03,-109.256 1452.01,-102.541"/>
</g>
<!-- Node13 -->
<g id="node13" class="node"><title>Node13</title>
<polygon fill="white" stroke="#bfbfbf" points="1473.5,-56.5 1473.5,-108.5 1649.5,-108.5 1649.5,-56.5 1473.5,-56.5"/>
<text text-anchor="start" x="1481.5" y="-96.5" font-family="Helvetica,sans-Serif" font-size="10.00">/home/travis/build</text>
<text text-anchor="start" x="1481.5" y="-85.5" font-family="Helvetica,sans-Serif" font-size="10.00">/hypro/hypro/build/carl</text>
<text text-anchor="start" x="1481.5" y="-74.5" font-family="Helvetica,sans-Serif" font-size="10.00">/src/carl/core/polynomialfunctions</text>
<text text-anchor="middle" x="1561.5" y="-63.5" font-family="Helvetica,sans-Serif" font-size="10.00">/RootBounds.h</text>
</g>
<!-- Node5&#45;&gt;Node13 -->
<g id="edge13" class="edge"><title>Node5&#45;&gt;Node13</title>
<path fill="none" stroke="midnightblue" d="M3715.78,-153.605C3409.27,-151.293 1910.58,-138.616 1659.64,-108.895"/>
<polygon fill="midnightblue" stroke="midnightblue" points="1659.97,-105.409 1649.61,-107.604 1659.08,-112.352 1659.97,-105.409"/>
</g>
<!-- Node14 -->
<g id="node14" class="node"><title>Node14</title>
<polygon fill="white" stroke="#bfbfbf" points="1667.5,-56.5 1667.5,-108.5 1843.5,-108.5 1843.5,-56.5 1667.5,-56.5"/>
<text text-anchor="start" x="1675.5" y="-96.5" font-family="Helvetica,sans-Serif" font-size="10.00">/home/travis/build</text>
<text text-anchor="start" x="1675.5" y="-85.5" font-family="Helvetica,sans-Serif" font-size="10.00">/hypro/hypro/build/carl</text>
<text text-anchor="start" x="1675.5" y="-74.5" font-family="Helvetica,sans-Serif" font-size="10.00">/src/carl/core/polynomialfunctions</text>
<text text-anchor="middle" x="1755.5" y="-63.5" font-family="Helvetica,sans-Serif" font-size="10.00">/SquareFreePart.h</text>
</g>
<!-- Node5&#45;&gt;Node14 -->
<g id="edge14" class="edge"><title>Node5&#45;&gt;Node14</title>
<path fill="none" stroke="midnightblue" d="M3715.86,-153.479C3427.13,-150.628 2083.91,-136.08 1853.72,-108.899"/>
<polygon fill="midnightblue" stroke="midnightblue" points="1853.98,-105.403 1843.61,-107.595 1853.08,-112.346 1853.98,-105.403"/>
</g>
<!-- Node15 -->
<g id="node15" class="node"><title>Node15</title>
<polygon fill="white" stroke="#bfbfbf" points="1861.5,-62 1861.5,-103 1983.5,-103 1983.5,-62 1861.5,-62"/>
<text text-anchor="start" x="1869.5" y="-91" font-family="Helvetica,sans-Serif" font-size="10.00">/home/travis/build</text>
<text text-anchor="start" x="1869.5" y="-80" font-family="Helvetica,sans-Serif" font-size="10.00">/hypro/hypro/build/carl</text>
<text text-anchor="middle" x="1922.5" y="-69" font-family="Helvetica,sans-Serif" font-size="10.00">/src/carl/util/debug.h</text>
</g>
<!-- Node5&#45;&gt;Node15 -->
<g id="edge15" class="edge"><title>Node5&#45;&gt;Node15</title>
<path fill="none" stroke="midnightblue" d="M3715.71,-153.667C3435.07,-151.82 2165.05,-141.705 1992.5,-109 1988.17,-108.178 1983.74,-107.123 1979.33,-105.911"/>
<polygon fill="midnightblue" stroke="midnightblue" points="1980.32,-102.554 1969.74,-103.036 1978.31,-109.259 1980.32,-102.554"/>
</g>
<!-- Node16 -->
<g id="node16" class="node"><title>Node16</title>
<polygon fill="white" stroke="#bfbfbf" points="2001.5,-56.5 2001.5,-108.5 2129.5,-108.5 2129.5,-56.5 2001.5,-56.5"/>
<text text-anchor="start" x="2009.5" y="-96.5" font-family="Helvetica,sans-Serif" font-size="10.00">/home/travis/build</text>
<text text-anchor="start" x="2009.5" y="-85.5" font-family="Helvetica,sans-Serif" font-size="10.00">/hypro/hypro/build/carl</text>
<text text-anchor="start" x="2009.5" y="-74.5" font-family="Helvetica,sans-Serif" font-size="10.00">/src/carl/core/rootfinder</text>
<text text-anchor="middle" x="2065.5" y="-63.5" font-family="Helvetica,sans-Serif" font-size="10.00">/RootFinder.h</text>
</g>
<!-- Node5&#45;&gt;Node16 -->
<g id="edge16" class="edge"><title>Node5&#45;&gt;Node16</title>
<path fill="none" stroke="midnightblue" d="M3715.89,-153.493C3454.68,-150.933 2337.58,-138.451 2139.67,-108.784"/>
<polygon fill="midnightblue" stroke="midnightblue" points="2140.13,-105.312 2129.69,-107.129 2138.99,-112.218 2140.13,-105.312"/>
</g>
<!-- Node17 -->
<g id="node17" class="node"><title>Node17</title>
<polygon fill="white" stroke="#bfbfbf" points="2147.5,-56.5 2147.5,-108.5 2323.5,-108.5 2323.5,-56.5 2147.5,-56.5"/>
<text text-anchor="start" x="2155.5" y="-96.5" font-family="Helvetica,sans-Serif" font-size="10.00">/home/travis/build</text>
<text text-anchor="start" x="2155.5" y="-85.5" font-family="Helvetica,sans-Serif" font-size="10.00">/hypro/hypro/build/carl</text>
<text text-anchor="start" x="2155.5" y="-74.5" font-family="Helvetica,sans-Serif" font-size="10.00">/src/carl/core/polynomialfunctions</text>
<text text-anchor="middle" x="2235.5" y="-63.5" font-family="Helvetica,sans-Serif" font-size="10.00">/Derivative.h</text>
</g>
<!-- Node5&#45;&gt;Node17 -->
<g id="edge17" class="edge"><title>Node5&#45;&gt;Node17</title>
<path fill="none" stroke="midnightblue" d="M3715.66,-153.938C3489.46,-153.428 2627.41,-148.942 2333.82,-109.001"/>
<polygon fill="midnightblue" stroke="midnightblue" points="2334,-105.493 2323.61,-107.566 2333.03,-112.425 2334,-105.493"/>
</g>
<!-- Node18 -->
<g id="node18" class="node"><title>Node18</title>
<polygon fill="white" stroke="#bfbfbf" points="2341.5,-56.5 2341.5,-108.5 2517.5,-108.5 2517.5,-56.5 2341.5,-56.5"/>
<text text-anchor="start" x="2349.5" y="-96.5" font-family="Helvetica,sans-Serif" font-size="10.00">/home/travis/build</text>
<text text-anchor="start" x="2349.5" y="-85.5" font-family="Helvetica,sans-Serif" font-size="10.00">/hypro/hypro/build/carl</text>
<text text-anchor="start" x="2349.5" y="-74.5" font-family="Helvetica,sans-Serif" font-size="10.00">/src/carl/core/polynomialfunctions</text>
<text text-anchor="middle" x="2429.5" y="-63.5" font-family="Helvetica,sans-Serif" font-size="10.00">/SignVariations.h</text>
</g>
<!-- Node5&#45;&gt;Node18 -->
<g id="edge18" class="edge"><title>Node5&#45;&gt;Node18</title>
<path fill="none" stroke="midnightblue" d="M3715.8,-153.627C3509.97,-151.977 2781.31,-143.857 2527.88,-109.011"/>
<polygon fill="midnightblue" stroke="midnightblue" points="2528.01,-105.495 2517.62,-107.547 2527.02,-112.425 2528.01,-105.495"/>
</g>
<!-- Node19 -->
<g id="node19" class="node"><title>Node19</title>
<polygon fill="white" stroke="#bfbfbf" points="2535.5,-56.5 2535.5,-108.5 2663.5,-108.5 2663.5,-56.5 2535.5,-56.5"/>
<text text-anchor="start" x="2543.5" y="-96.5" font-family="Helvetica,sans-Serif" font-size="10.00">/home/travis/build</text>
<text text-anchor="start" x="2543.5" y="-85.5" font-family="Helvetica,sans-Serif" font-size="10.00">/hypro/hypro/build/carl</text>
<text text-anchor="start" x="2543.5" y="-74.5" font-family="Helvetica,sans-Serif" font-size="10.00">/src/carl/core/rootfinder</text>
<text text-anchor="middle" x="2599.5" y="-63.5" font-family="Helvetica,sans-Serif" font-size="10.00">/EigenWrapper.h</text>
</g>
<!-- Node5&#45;&gt;Node19 -->
<g id="edge19" class="edge"><title>Node5&#45;&gt;Node19</title>
<path fill="none" stroke="midnightblue" d="M3715.97,-153.886C3526.3,-153.164 2895.33,-147.953 2673.63,-108.905"/>
<polygon fill="midnightblue" stroke="midnightblue" points="2674.17,-105.445 2663.7,-107.08 2672.91,-112.33 2674.17,-105.445"/>
</g>
<!-- Node20 -->
<g id="node20" class="node"><title>Node20</title>
<polygon fill="white" stroke="#bfbfbf" points="2681.5,-56.5 2681.5,-108.5 2881.5,-108.5 2881.5,-56.5 2681.5,-56.5"/>
<text text-anchor="start" x="2689.5" y="-96.5" font-family="Helvetica,sans-Serif" font-size="10.00">/home/travis/build</text>
<text text-anchor="start" x="2689.5" y="-85.5" font-family="Helvetica,sans-Serif" font-size="10.00">/hypro/hypro/build/carl</text>
<text text-anchor="start" x="2689.5" y="-74.5" font-family="Helvetica,sans-Serif" font-size="10.00">/src/carl/formula/model</text>
<text text-anchor="middle" x="2781.5" y="-63.5" font-family="Helvetica,sans-Serif" font-size="10.00">/ran/RealAlgebraicNumberEvaluation.h</text>
</g>
<!-- Node5&#45;&gt;Node20 -->
<g id="edge20" class="edge"><title>Node5&#45;&gt;Node20</title>
<path fill="none" stroke="midnightblue" d="M3715.85,-154.585C3578.63,-155.331 3208.51,-152.875 2892.04,-109.103"/>
<polygon fill="midnightblue" stroke="midnightblue" points="2892.14,-105.583 2881.75,-107.663 2891.16,-112.515 2892.14,-105.583"/>
</g>
<!-- Node21 -->
<g id="node21" class="node"><title>Node21</title>
<polygon fill="white" stroke="#bfbfbf" points="2899.5,-56.5 2899.5,-108.5 3075.5,-108.5 3075.5,-56.5 2899.5,-56.5"/>
<text text-anchor="start" x="2907.5" y="-96.5" font-family="Helvetica,sans-Serif" font-size="10.00">/home/travis/build</text>
<text text-anchor="start" x="2907.5" y="-85.5" font-family="Helvetica,sans-Serif" font-size="10.00">/hypro/hypro/build/carl</text>
<text text-anchor="start" x="2907.5" y="-74.5" font-family="Helvetica,sans-Serif" font-size="10.00">/src/carl/core/polynomialfunctions</text>
<text text-anchor="middle" x="2987.5" y="-63.5" font-family="Helvetica,sans-Serif" font-size="10.00">/LazardEvaluation.h</text>
</g>
<!-- Node5&#45;&gt;Node21 -->
<g id="edge21" class="edge"><title>Node5&#45;&gt;Node21</title>
<path fill="none" stroke="midnightblue" d="M3715.85,-153.955C3600.73,-153.096 3324.84,-147.024 3085.56,-109.033"/>
<polygon fill="midnightblue" stroke="midnightblue" points="3086.06,-105.568 3075.63,-107.435 3084.95,-112.48 3086.06,-105.568"/>
</g>
<!-- Node22 -->
<g id="node22" class="node"><title>Node22</title>
<polygon fill="white" stroke="#bfbfbf" points="3094,-56.5 3094,-108.5 3223,-108.5 3223,-56.5 3094,-56.5"/>
<text text-anchor="start" x="3102" y="-96.5" font-family="Helvetica,sans-Serif" font-size="10.00">/home/travis/build</text>
<text text-anchor="start" x="3102" y="-85.5" font-family="Helvetica,sans-Serif" font-size="10.00">/hypro/hypro/build/carl</text>
<text text-anchor="start" x="3102" y="-74.5" font-family="Helvetica,sans-Serif" font-size="10.00">/build/resources/include</text>
<text text-anchor="middle" x="3158.5" y="-63.5" font-family="Helvetica,sans-Serif" font-size="10.00">/CoCoA/apply.H</text>
</g>
<!-- Node5&#45;&gt;Node22 -->
<g id="edge22" class="edge"><title>Node5&#45;&gt;Node22</title>
<path fill="none" stroke="midnightblue" d="M3715.9,-153.97C3619.6,-152.937 3413.4,-146.332 3233.06,-109.115"/>
<polygon fill="midnightblue" stroke="midnightblue" points="3233.64,-105.661 3223.14,-107.03 3232.2,-112.511 3233.64,-105.661"/>
</g>
<!-- Node23 -->
<g id="node23" class="node"><title>Node23</title>
<polygon fill="white" stroke="#bfbfbf" points="3241,-56.5 3241,-108.5 3370,-108.5 3370,-56.5 3241,-56.5"/>
<text text-anchor="start" x="3249" y="-96.5" font-family="Helvetica,sans-Serif" font-size="10.00">/home/travis/build</text>
<text text-anchor="start" x="3249" y="-85.5" font-family="Helvetica,sans-Serif" font-size="10.00">/hypro/hypro/build/carl</text>
<text text-anchor="start" x="3249" y="-74.5" font-family="Helvetica,sans-Serif" font-size="10.00">/build/resources/include</text>
<text text-anchor="middle" x="3305.5" y="-63.5" font-family="Helvetica,sans-Serif" font-size="10.00">/CoCoA/matrix.H</text>
</g>
<!-- Node5&#45;&gt;Node23 -->
<g id="edge23" class="edge"><title>Node5&#45;&gt;Node23</title>
<path fill="none" stroke="midnightblue" d="M3715.96,-151.56C3641.65,-147.397 3504.5,-136.732 3380.23,-109.196"/>
<polygon fill="midnightblue" stroke="midnightblue" points="3380.69,-105.712 3370.16,-106.922 3379.14,-112.54 3380.69,-105.712"/>
</g>
<!-- Node24 -->
<g id="node24" class="node"><title>Node24</title>
<polygon fill="white" stroke="#bfbfbf" points="3388,-56.5 3388,-108.5 3517,-108.5 3517,-56.5 3388,-56.5"/>
<text text-anchor="start" x="3396" y="-96.5" font-family="Helvetica,sans-Serif" font-size="10.00">/home/travis/build</text>
<text text-anchor="start" x="3396" y="-85.5" font-family="Helvetica,sans-Serif" font-size="10.00">/hypro/hypro/build/carl</text>
<text text-anchor="start" x="3396" y="-74.5" font-family="Helvetica,sans-Serif" font-size="10.00">/build/resources/include</text>
<text text-anchor="middle" x="3452.5" y="-63.5" font-family="Helvetica,sans-Serif" font-size="10.00">/CoCoA/BigInt.H</text>
</g>
<!-- Node5&#45;&gt;Node24 -->
<g id="edge24" class="edge"><title>Node5&#45;&gt;Node24</title>
<path fill="none" stroke="midnightblue" d="M3715.96,-146.453C3668.2,-139.29 3596.85,-127.247 3527.05,-109.266"/>
<polygon fill="midnightblue" stroke="midnightblue" points="3527.78,-105.838 3517.22,-106.689 3526,-112.609 3527.78,-105.838"/>
</g>
<!-- Node25 -->
<g id="node25" class="node"><title>Node25</title>
<polygon fill="white" stroke="#bfbfbf" points="3535,-56.5 3535,-108.5 3664,-108.5 3664,-56.5 3535,-56.5"/>
<text text-anchor="start" x="3543" y="-96.5" font-family="Helvetica,sans-Serif" font-size="10.00">/home/travis/build</text>
<text text-anchor="start" x="3543" y="-85.5" font-family="Helvetica,sans-Serif" font-size="10.00">/hypro/hypro/build/carl</text>
<text text-anchor="start" x="3543" y="-74.5" font-family="Helvetica,sans-Serif" font-size="10.00">/build/resources/include</text>
<text text-anchor="middle" x="3599.5" y="-63.5" font-family="Helvetica,sans-Serif" font-size="10.00">/CoCoA/ring.H</text>
</g>
<!-- Node5&#45;&gt;Node25 -->
<g id="edge25" class="edge"><title>Node5&#45;&gt;Node25</title>
<path fill="none" stroke="midnightblue" d="M3749.87,-145.496C3729.91,-137.268 3698.51,-124.322 3669.56,-112.384"/>
<polygon fill="midnightblue" stroke="midnightblue" points="3670.84,-109.127 3660.26,-108.551 3668.17,-115.598 3670.84,-109.127"/>
</g>
<!-- Node26 -->
<g id="node26" class="node"><title>Node26</title>
<polygon fill="white" stroke="#bfbfbf" points="3682.5,-73 3682.5,-92 3728.5,-92 3728.5,-73 3682.5,-73"/>
<text text-anchor="middle" x="3705.5" y="-80" font-family="Helvetica,sans-Serif" font-size="10.00">iosfwd</text>
</g>
<!-- Node5&#45;&gt;Node26 -->
<g id="edge26" class="edge"><title>Node5&#45;&gt;Node26</title>
<path fill="none" stroke="midnightblue" d="M3762.53,-145.355C3752.1,-134.044 3733.62,-113.996 3720.52,-99.7924"/>
<polygon fill="midnightblue" stroke="midnightblue" points="3722.89,-97.195 3713.54,-92.2154 3717.74,-101.94 3722.89,-97.195"/>
</g>
<!-- Node27 -->
<g id="node27" class="node"><title>Node27</title>
<polygon fill="white" stroke="#bfbfbf" points="3747,-73 3747,-92 3794,-92 3794,-73 3747,-73"/>
<text text-anchor="middle" x="3770.5" y="-80" font-family="Helvetica,sans-Serif" font-size="10.00">vector</text>
</g>
<!-- Node5&#45;&gt;Node27 -->
<g id="edge27" class="edge"><title>Node5&#45;&gt;Node27</title>
<path fill="none" stroke="midnightblue" d="M3770.5,-145.355C3770.5,-134.679 3770.5,-116.217 3770.5,-102.234"/>
<polygon fill="midnightblue" stroke="midnightblue" points="3774,-102.215 3770.5,-92.2154 3767,-102.215 3774,-102.215"/>
</g>
<!-- Node28 -->
<g id="node28" class="node"><title>Node28</title>
<polygon fill="white" stroke="#bfbfbf" points="3812,-56.5 3812,-108.5 3941,-108.5 3941,-56.5 3812,-56.5"/>
<text text-anchor="start" x="3820" y="-96.5" font-family="Helvetica,sans-Serif" font-size="10.00">/home/travis/build</text>
<text text-anchor="start" x="3820" y="-85.5" font-family="Helvetica,sans-Serif" font-size="10.00">/hypro/hypro/build/carl</text>
<text text-anchor="start" x="3820" y="-74.5" font-family="Helvetica,sans-Serif" font-size="10.00">/build/resources/include</text>
<text text-anchor="middle" x="3876.5" y="-63.5" font-family="Helvetica,sans-Serif" font-size="10.00">/CoCoA/RingHom.H</text>
</g>
<!-- Node5&#45;&gt;Node28 -->
<g id="edge28" class="edge"><title>Node5&#45;&gt;Node28</title>
<path fill="none" stroke="midnightblue" d="M3783.5,-145.355C3795.17,-137.59 3813.04,-125.707 3830,-114.424"/>
<polygon fill="midnightblue" stroke="midnightblue" points="3832.37,-117.056 3838.76,-108.604 3828.49,-111.228 3832.37,-117.056"/>
</g>
<!-- Node29 -->
<g id="node29" class="node"><title>Node29</title>
<polygon fill="white" stroke="#bfbfbf" points="3959.5,-73 3959.5,-92 4021.5,-92 4021.5,-73 3959.5,-73"/>
<text text-anchor="middle" x="3990.5" y="-80" font-family="Helvetica,sans-Serif" font-size="10.00">algorithm</text>
</g>
<!-- Node5&#45;&gt;Node29 -->
<g id="edge29" class="edge"><title>Node5&#45;&gt;Node29</title>
<path fill="none" stroke="midnightblue" d="M3823.15,-145.481C3859.84,-138.44 3909.37,-126.694 3950.5,-109 3957.41,-106.026 3964.49,-101.927 3970.73,-97.8837"/>
<polygon fill="midnightblue" stroke="midnightblue" points="3972.86,-100.663 3979.15,-92.1386 3968.92,-94.8789 3972.86,-100.663"/>
</g>
<!-- Node30 -->
<g id="node30" class="node"><title>Node30</title>
<polygon fill="white" stroke="#bfbfbf" points="4040,-73 4040,-92 4103,-92 4103,-73 4040,-73"/>
<text text-anchor="middle" x="4071.5" y="-80" font-family="Helvetica,sans-Serif" font-size="10.00">functional</text>
</g>
<!-- Node5&#45;&gt;Node30 -->
<g id="edge30" class="edge"><title>Node5&#45;&gt;Node30</title>
<path fill="none" stroke="midnightblue" d="M3825.13,-150.658C3878.88,-145.97 3962.54,-134.883 4030.5,-109 4037.76,-106.234 4045.14,-102.126 4051.6,-98.012"/>
<polygon fill="midnightblue" stroke="midnightblue" points="4053.97,-100.638 4060.29,-92.1347 4050.04,-94.8408 4053.97,-100.638"/>
</g>
<!-- Node31 -->
<g id="node31" class="node"><title>Node31</title>
<polygon fill="white" stroke="#bfbfbf" points="4121.5,-73 4121.5,-92 4173.5,-92 4173.5,-73 4121.5,-73"/>
<text text-anchor="middle" x="4147.5" y="-80" font-family="Helvetica,sans-Serif" font-size="10.00">iterator</text>
</g>
<!-- Node5&#45;&gt;Node31 -->
<g id="edge31" class="edge"><title>Node5&#45;&gt;Node31</title>
<path fill="none" stroke="midnightblue" d="M3825.32,-150.097C3908.3,-143.633 4061.55,-129.365 4112.5,-109 4118.91,-106.436 4125.23,-102.429 4130.7,-98.3432"/>
<polygon fill="midnightblue" stroke="midnightblue" points="4132.9,-101.065 4138.47,-92.0561 4128.5,-95.6212 4132.9,-101.065"/>
</g>
<!-- Node32 -->
<g id="node32" class="node"><title>Node32</title>
<polygon fill="white" stroke="#bfbfbf" points="4192,-56.5 4192,-108.5 4321,-108.5 4321,-56.5 4192,-56.5"/>
<text text-anchor="start" x="4200" y="-96.5" font-family="Helvetica,sans-Serif" font-size="10.00">/home/travis/build</text>
<text text-anchor="start" x="4200" y="-85.5" font-family="Helvetica,sans-Serif" font-size="10.00">/hypro/hypro/build/carl</text>
<text text-anchor="start" x="4200" y="-74.5" font-family="Helvetica,sans-Serif" font-size="10.00">/build/resources/include</text>
<text text-anchor="middle" x="4256.5" y="-63.5" font-family="Helvetica,sans-Serif" font-size="10.00">/CoCoA/ApproxPts2.H</text>
</g>
<!-- Node5&#45;&gt;Node32 -->
<g id="edge32" class="edge"><title>Node5&#45;&gt;Node32</title>
<path fill="none" stroke="midnightblue" d="M3825.12,-151.908C3902.68,-148.089 4049.09,-137.748 4181.83,-108.921"/>
<polygon fill="midnightblue" stroke="midnightblue" points="4182.76,-112.3 4191.76,-106.722 4181.24,-105.465 4182.76,-112.3"/>
</g>
<!-- Node33 -->
<g id="node33" class="node"><title>Node33</title>
<polygon fill="white" stroke="#bfbfbf" points="4339,-56.5 4339,-108.5 4468,-108.5 4468,-56.5 4339,-56.5"/>
<text text-anchor="start" x="4347" y="-96.5" font-family="Helvetica,sans-Serif" font-size="10.00">/home/travis/build</text>
<text text-anchor="start" x="4347" y="-85.5" font-family="Helvetica,sans-Serif" font-size="10.00">/hypro/hypro/build/carl</text>
<text text-anchor="start" x="4347" y="-74.5" font-family="Helvetica,sans-Serif" font-size="10.00">/build/resources/include</text>
<text text-anchor="middle" x="4403.5" y="-63.5" font-family="Helvetica,sans-Serif" font-size="10.00">/CoCoA/ApproxPts.H</text>
</g>
<!-- Node5&#45;&gt;Node33 -->
<g id="edge33" class="edge"><title>Node5&#45;&gt;Node33</title>
<path fill="none" stroke="midnightblue" d="M3825.22,-154.215C3924.49,-153.607 4140.67,-147.7 4329.07,-109.085"/>
<polygon fill="midnightblue" stroke="midnightblue" points="4329.79,-112.509 4338.87,-107.041 4328.36,-105.656 4329.79,-112.509"/>
</g>
<!-- Node34 -->
<g id="node34" class="node"><title>Node34</title>
<polygon fill="white" stroke="#bfbfbf" points="4486,-56.5 4486,-108.5 4615,-108.5 4615,-56.5 4486,-56.5"/>
<text text-anchor="start" x="4494" y="-96.5" font-family="Helvetica,sans-Serif" font-size="10.00">/home/travis/build</text>
<text text-anchor="start" x="4494" y="-85.5" font-family="Helvetica,sans-Serif" font-size="10.00">/hypro/hypro/build/carl</text>
<text text-anchor="start" x="4494" y="-74.5" font-family="Helvetica,sans-Serif" font-size="10.00">/build/resources/include</text>
<text text-anchor="middle" x="4550.5" y="-63.5" font-family="Helvetica,sans-Serif" font-size="10.00">/CoCoA/assert.H</text>
</g>
<!-- Node5&#45;&gt;Node34 -->
<g id="edge34" class="edge"><title>Node5&#45;&gt;Node34</title>
<path fill="none" stroke="midnightblue" d="M3825.1,-152.446C3964.92,-148.168 4334.26,-134.906 4475.7,-109.063"/>
<polygon fill="midnightblue" stroke="midnightblue" points="4476.72,-112.429 4485.88,-107.099 4475.4,-105.556 4476.72,-112.429"/>
</g>
<!-- Node35 -->
<g id="node35" class="node"><title>Node35</title>
<polygon fill="white" stroke="#bfbfbf" points="4633,-56.5 4633,-108.5 4782,-108.5 4782,-56.5 4633,-56.5"/>
<text text-anchor="start" x="4641" y="-96.5" font-family="Helvetica,sans-Serif" font-size="10.00">/home/travis/build</text>
<text text-anchor="start" x="4641" y="-85.5" font-family="Helvetica,sans-Serif" font-size="10.00">/hypro/hypro/build/carl</text>
<text text-anchor="start" x="4641" y="-74.5" font-family="Helvetica,sans-Serif" font-size="10.00">/build/resources/include</text>
<text text-anchor="middle" x="4707.5" y="-63.5" font-family="Helvetica,sans-Serif" font-size="10.00">/CoCoA/BenchmarkToolkit.H</text>
</g>
<!-- Node5&#45;&gt;Node35 -->
<g id="edge35" class="edge"><title>Node5&#45;&gt;Node35</title>
<path fill="none" stroke="midnightblue" d="M3825.22,-152.87C3985.23,-149.294 4451.3,-136.874 4622.71,-109.091"/>
<polygon fill="midnightblue" stroke="midnightblue" points="4623.33,-112.536 4632.6,-107.412 4622.16,-105.635 4623.33,-112.536"/>
</g>
<!-- Node36 -->
<g id="node36" class="node"><title>Node36</title>
<polygon fill="white" stroke="#bfbfbf" points="4800,-56.5 4800,-108.5 4929,-108.5 4929,-56.5 4800,-56.5"/>
<text text-anchor="start" x="4808" y="-96.5" font-family="Helvetica,sans-Serif" font-size="10.00">/home/travis/build</text>
<text text-anchor="start" x="4808" y="-85.5" font-family="Helvetica,sans-Serif" font-size="10.00">/hypro/hypro/build/carl</text>
<text text-anchor="start" x="4808" y="-74.5" font-family="Helvetica,sans-Serif" font-size="10.00">/build/resources/include</text>
<text text-anchor="middle" x="4864.5" y="-63.5" font-family="Helvetica,sans-Serif" font-size="10.00">/CoCoA/BigIntOps.H</text>
</g>
<!-- Node5&#45;&gt;Node36 -->
<g id="edge36" class="edge"><title>Node5&#45;&gt;Node36</title>
<path fill="none" stroke="midnightblue" d="M3825.3,-153.687C4006.23,-152.33 4584.24,-145.333 4789.8,-109.031"/>
<polygon fill="midnightblue" stroke="midnightblue" points="4790.69,-112.425 4799.89,-107.167 4789.42,-105.542 4790.69,-112.425"/>
</g>
<!-- Node37 -->
<g id="node37" class="node"><title>Node37</title>
<polygon fill="white" stroke="#bfbfbf" points="4947,-56.5 4947,-108.5 5076,-108.5 5076,-56.5 4947,-56.5"/>
<text text-anchor="start" x="4955" y="-96.5" font-family="Helvetica,sans-Serif" font-size="10.00">/home/travis/build</text>
<text text-anchor="start" x="4955" y="-85.5" font-family="Helvetica,sans-Serif" font-size="10.00">/hypro/hypro/build/carl</text>
<text text-anchor="start" x="4955" y="-74.5" font-family="Helvetica,sans-Serif" font-size="10.00">/build/resources/include</text>
<text text-anchor="middle" x="5011.5" y="-63.5" font-family="Helvetica,sans-Serif" font-size="10.00">/CoCoA/BigRat.H</text>
</g>
<!-- Node5&#45;&gt;Node37 -->
<g id="edge37" class="edge"><title>Node5&#45;&gt;Node37</title>
<path fill="none" stroke="midnightblue" d="M3825.01,-154.043C4022.57,-153.87 4701.33,-150.334 4937.02,-108.991"/>
<polygon fill="midnightblue" stroke="midnightblue" points="4937.69,-112.427 4946.9,-107.186 4936.43,-105.541 4937.69,-112.427"/>
</g>
<!-- Node38 -->
<g id="node38" class="node"><title>Node38</title>
<polygon fill="white" stroke="#bfbfbf" points="5094,-56.5 5094,-108.5 5225,-108.5 5225,-56.5 5094,-56.5"/>
<text text-anchor="start" x="5102" y="-96.5" font-family="Helvetica,sans-Serif" font-size="10.00">/home/travis/build</text>
<text text-anchor="start" x="5102" y="-85.5" font-family="Helvetica,sans-Serif" font-size="10.00">/hypro/hypro/build/carl</text>
<text text-anchor="start" x="5102" y="-74.5" font-family="Helvetica,sans-Serif" font-size="10.00">/build/resources/include</text>
<text text-anchor="middle" x="5159.5" y="-63.5" font-family="Helvetica,sans-Serif" font-size="10.00">/CoCoA/BigRatInterval.H</text>
</g>
<!-- Node5&#45;&gt;Node38 -->
<g id="edge38" class="edge"><title>Node5&#45;&gt;Node38</title>
<path fill="none" stroke="midnightblue" d="M3825.06,-154.288C4038.49,-155.088 4817.73,-154.845 5083.6,-109.084"/>
<polygon fill="midnightblue" stroke="midnightblue" points="5084.37,-112.502 5093.6,-107.296 5083.14,-105.611 5084.37,-112.502"/>
</g>
<!-- Node39 -->
<g id="node39" class="node"><title>Node39</title>
<polygon fill="white" stroke="#bfbfbf" points="5243,-56.5 5243,-108.5 5372,-108.5 5372,-56.5 5243,-56.5"/>
<text text-anchor="start" x="5251" y="-96.5" font-family="Helvetica,sans-Serif" font-size="10.00">/home/travis/build</text>
<text text-anchor="start" x="5251" y="-85.5" font-family="Helvetica,sans-Serif" font-size="10.00">/hypro/hypro/build/carl</text>
<text text-anchor="start" x="5251" y="-74.5" font-family="Helvetica,sans-Serif" font-size="10.00">/build/resources/include</text>
<text text-anchor="middle" x="5307.5" y="-63.5" font-family="Helvetica,sans-Serif" font-size="10.00">/CoCoA/BigRatOps.H</text>
</g>
<!-- Node5&#45;&gt;Node39 -->
<g id="edge39" class="edge"><title>Node5&#45;&gt;Node39</title>
<path fill="none" stroke="midnightblue" d="M3825.17,-153.306C4069.1,-150.078 5053.64,-135.623 5232.93,-108.869"/>
<polygon fill="midnightblue" stroke="midnightblue" points="5233.61,-112.305 5242.9,-107.214 5232.46,-105.399 5233.61,-112.305"/>
</g>
<!-- Node40 -->
<g id="node40" class="node"><title>Node40</title>
<polygon fill="white" stroke="#bfbfbf" points="5390,-56.5 5390,-108.5 5519,-108.5 5519,-56.5 5390,-56.5"/>
<text text-anchor="start" x="5398" y="-96.5" font-family="Helvetica,sans-Serif" font-size="10.00">/home/travis/build</text>
<text text-anchor="start" x="5398" y="-85.5" font-family="Helvetica,sans-Serif" font-size="10.00">/hypro/hypro/build/carl</text>
<text text-anchor="start" x="5398" y="-74.5" font-family="Helvetica,sans-Serif" font-size="10.00">/build/resources/include</text>
<text text-anchor="middle" x="5454.5" y="-63.5" font-family="Helvetica,sans-Serif" font-size="10.00">/CoCoA/bool3.H</text>
</g>
<!-- Node5&#45;&gt;Node40 -->
<g id="edge40" class="edge"><title>Node5&#45;&gt;Node40</title>
<path fill="none" stroke="midnightblue" d="M3825.28,-153.47C4084.61,-150.827 5184.15,-138.097 5379.79,-108.897"/>
<polygon fill="midnightblue" stroke="midnightblue" points="5380.61,-112.309 5389.9,-107.223 5379.46,-105.403 5380.61,-112.309"/>
</g>
<!-- Node41 -->
<g id="node41" class="node"><title>Node41</title>
<polygon fill="white" stroke="#bfbfbf" points="5537,-56.5 5537,-108.5 5666,-108.5 5666,-56.5 5537,-56.5"/>
<text text-anchor="start" x="5545" y="-96.5" font-family="Helvetica,sans-Serif" font-size="10.00">/home/travis/build</text>
<text text-anchor="start" x="5545" y="-85.5" font-family="Helvetica,sans-Serif" font-size="10.00">/hypro/hypro/build/carl</text>
<text text-anchor="start" x="5545" y="-74.5" font-family="Helvetica,sans-Serif" font-size="10.00">/build/resources/include</text>
<text text-anchor="middle" x="5601.5" y="-63.5" font-family="Helvetica,sans-Serif" font-size="10.00">/CoCoA/BuildInfo.H</text>
</g>
<!-- Node5&#45;&gt;Node41 -->
<g id="edge41" class="edge"><title>Node5&#45;&gt;Node41</title>
<path fill="none" stroke="midnightblue" d="M3825.12,-153.609C4098.73,-151.516 5315.19,-140.594 5526.79,-108.904"/>
<polygon fill="midnightblue" stroke="midnightblue" points="5527.61,-112.316 5536.9,-107.232 5526.47,-105.409 5527.61,-112.316"/>
</g>
<!-- Node42 -->
<g id="node42" class="node"><title>Node42</title>
<polygon fill="white" stroke="#bfbfbf" points="5684.5,-73 5684.5,-92 5728.5,-92 5728.5,-73 5684.5,-73"/>
<text text-anchor="middle" x="5706.5" y="-80" font-family="Helvetica,sans-Serif" font-size="10.00">string</text>
</g>
<!-- Node5&#45;&gt;Node42 -->
<g id="edge42" class="edge"><title>Node5&#45;&gt;Node42</title>
<path fill="none" stroke="midnightblue" d="M3825.15,-153.714C4127.66,-152.003 5586.59,-142.058 5675.5,-109 5681.3,-106.844 5686.8,-103.119 5691.52,-99.1706"/>
<polygon fill="midnightblue" stroke="midnightblue" points="5694.14,-101.505 5699.05,-92.1148 5689.36,-96.396 5694.14,-101.505"/>
</g>
<!-- Node43 -->
<g id="node43" class="node"><title>Node43</title>
<polygon fill="white" stroke="#bfbfbf" points="5747,-56.5 5747,-108.5 5882,-108.5 5882,-56.5 5747,-56.5"/>
<text text-anchor="start" x="5755" y="-96.5" font-family="Helvetica,sans-Serif" font-size="10.00">/home/travis/build</text>
<text text-anchor="start" x="5755" y="-85.5" font-family="Helvetica,sans-Serif" font-size="10.00">/hypro/hypro/build/carl</text>
<text text-anchor="start" x="5755" y="-74.5" font-family="Helvetica,sans-Serif" font-size="10.00">/build/resources/include</text>
<text text-anchor="middle" x="5814.5" y="-63.5" font-family="Helvetica,sans-Serif" font-size="10.00">/CoCoA/CanonicalHom.H</text>
</g>
<!-- Node5&#45;&gt;Node43 -->
<g id="edge43" class="edge"><title>Node5&#45;&gt;Node43</title>
<path fill="none" stroke="midnightblue" d="M3825.1,-153.717C4118.38,-152.067 5502.02,-142.634 5736.76,-108.724"/>
<polygon fill="midnightblue" stroke="midnightblue" points="5737.43,-112.162 5746.76,-107.143 5736.34,-105.248 5737.43,-112.162"/>
</g>
<!-- Node44 -->
<g id="node44" class="node"><title>Node44</title>
<polygon fill="white" stroke="#bfbfbf" points="5900,-56.5 5900,-108.5 6033,-108.5 6033,-56.5 5900,-56.5"/>
<text text-anchor="start" x="5908" y="-96.5" font-family="Helvetica,sans-Serif" font-size="10.00">/home/travis/build</text>
<text text-anchor="start" x="5908" y="-85.5" font-family="Helvetica,sans-Serif" font-size="10.00">/hypro/hypro/build/carl</text>
<text text-anchor="start" x="5908" y="-74.5" font-family="Helvetica,sans-Serif" font-size="10.00">/build/resources/include</text>
<text text-anchor="middle" x="5966.5" y="-63.5" font-family="Helvetica,sans-Serif" font-size="10.00">/CoCoA/combinatorics.H</text>
</g>
<!-- Node5&#45;&gt;Node44 -->
<g id="edge44" class="edge"><title>Node5&#45;&gt;Node44</title>
<path fill="none" stroke="midnightblue" d="M3825.24,-153.839C4132.67,-152.806 5639.4,-145.961 5889.71,-108.953"/>
<polygon fill="midnightblue" stroke="midnightblue" points="5890.39,-112.388 5899.71,-107.34 5889.28,-105.478 5890.39,-112.388"/>
</g>
<!-- Node45 -->
<g id="node45" class="node"><title>Node45</title>
<polygon fill="white" stroke="#bfbfbf" points="6051,-56.5 6051,-108.5 6180,-108.5 6180,-56.5 6051,-56.5"/>
<text text-anchor="start" x="6059" y="-96.5" font-family="Helvetica,sans-Serif" font-size="10.00">/home/travis/build</text>
<text text-anchor="start" x="6059" y="-85.5" font-family="Helvetica,sans-Serif" font-size="10.00">/hypro/hypro/build/carl</text>
<text text-anchor="start" x="6059" y="-74.5" font-family="Helvetica,sans-Serif" font-size="10.00">/build/resources/include</text>
<text text-anchor="middle" x="6115.5" y="-63.5" font-family="Helvetica,sans-Serif" font-size="10.00">/CoCoA/MachineInt.H</text>
</g>
<!-- Node5&#45;&gt;Node45 -->
<g id="edge45" class="edge"><title>Node5&#45;&gt;Node45</title>
<path fill="none" stroke="midnightblue" d="M3825.12,-153.95C4145.41,-153.52 5774.56,-149.425 6040.97,-108.896"/>
<polygon fill="midnightblue" stroke="midnightblue" points="6041.61,-112.337 6050.91,-107.252 6040.47,-105.43 6041.61,-112.337"/>
</g>
<!-- Node46 -->
<g id="node46" class="node"><title>Node46</title>
<polygon fill="white" stroke="#bfbfbf" points="6198,-56.5 6198,-108.5 6327,-108.5 6327,-56.5 6198,-56.5"/>
<text text-anchor="start" x="6206" y="-96.5" font-family="Helvetica,sans-Serif" font-size="10.00">/home/travis/build</text>
<text text-anchor="start" x="6206" y="-85.5" font-family="Helvetica,sans-Serif" font-size="10.00">/hypro/hypro/build/carl</text>
<text text-anchor="start" x="6206" y="-74.5" font-family="Helvetica,sans-Serif" font-size="10.00">/build/resources/include</text>
<text text-anchor="middle" x="6262.5" y="-63.5" font-family="Helvetica,sans-Serif" font-size="10.00">/CoCoA/config.H</text>
</g>
<!-- Node5&#45;&gt;Node46 -->
<g id="edge46" class="edge"><title>Node5&#45;&gt;Node46</title>
<path fill="none" stroke="midnightblue" d="M3825.06,-154.021C4157.43,-154.012 5904.79,-151.982 6187.73,-108.937"/>
<polygon fill="midnightblue" stroke="midnightblue" points="6188.61,-112.338 6197.91,-107.256 6187.47,-105.432 6188.61,-112.338"/>
</g>
<!-- Node47 -->
<g id="node47" class="node"><title>Node47</title>
<polygon fill="white" stroke="#bfbfbf" points="6345,-56.5 6345,-108.5 6474,-108.5 6474,-56.5 6345,-56.5"/>
<text text-anchor="start" x="6353" y="-96.5" font-family="Helvetica,sans-Serif" font-size="10.00">/home/travis/build</text>
<text text-anchor="start" x="6353" y="-85.5" font-family="Helvetica,sans-Serif" font-size="10.00">/hypro/hypro/build/carl</text>
<text text-anchor="start" x="6353" y="-74.5" font-family="Helvetica,sans-Serif" font-size="10.00">/build/resources/include</text>
<text text-anchor="middle" x="6409.5" y="-63.5" font-family="Helvetica,sans-Serif" font-size="10.00">/CoCoA/convert.H</text>
</g>
<!-- Node5&#45;&gt;Node47 -->
<g id="edge47" class="edge"><title>Node5&#45;&gt;Node47</title>
<path fill="none" stroke="midnightblue" d="M3825.23,-154.084C4170.11,-154.475 6037.14,-154.536 6334.98,-108.903"/>
<polygon fill="midnightblue" stroke="midnightblue" points="6335.61,-112.345 6344.91,-107.26 6334.47,-105.439 6335.61,-112.345"/>
</g>
<!-- Node48 -->
<g id="node48" class="node"><title>Node48</title>
<polygon fill="white" stroke="#bfbfbf" points="6492,-56.5 6492,-108.5 6623,-108.5 6623,-56.5 6492,-56.5"/>
<text text-anchor="start" x="6500" y="-96.5" font-family="Helvetica,sans-Serif" font-size="10.00">/home/travis/build</text>
<text text-anchor="start" x="6500" y="-85.5" font-family="Helvetica,sans-Serif" font-size="10.00">/hypro/hypro/build/carl</text>
<text text-anchor="start" x="6500" y="-74.5" font-family="Helvetica,sans-Serif" font-size="10.00">/build/resources/include</text>
<text text-anchor="middle" x="6557.5" y="-63.5" font-family="Helvetica,sans-Serif" font-size="10.00">/CoCoA/CpuTimeLimit.H</text>
</g>
<!-- Node5&#45;&gt;Node48 -->
<g id="edge48" class="edge"><title>Node5&#45;&gt;Node48</title>
<path fill="none" stroke="midnightblue" d="M3825.14,-154.126C4181.31,-154.814 6167.77,-156.55 6481.57,-108.996"/>
<polygon fill="midnightblue" stroke="midnightblue" points="6482.3,-112.422 6491.61,-107.356 6481.18,-105.514 6482.3,-112.422"/>
</g>
<!-- Node49 -->
<g id="node49" class="node"><title>Node49</title>
<polygon fill="white" stroke="#bfbfbf" points="6641,-56.5 6641,-108.5 6770,-108.5 6770,-56.5 6641,-56.5"/>
<text text-anchor="start" x="6649" y="-96.5" font-family="Helvetica,sans-Serif" font-size="10.00">/home/travis/build</text>
<text text-anchor="start" x="6649" y="-85.5" font-family="Helvetica,sans-Serif" font-size="10.00">/hypro/hypro/build/carl</text>
<text text-anchor="start" x="6649" y="-74.5" font-family="Helvetica,sans-Serif" font-size="10.00">/build/resources/include</text>
<text text-anchor="middle" x="6705.5" y="-63.5" font-family="Helvetica,sans-Serif" font-size="10.00">/CoCoA/debug_new.H</text>
</g>
<!-- Node5&#45;&gt;Node49 -->
<g id="edge49" class="edge"><title>Node5&#45;&gt;Node49</title>
<path fill="none" stroke="midnightblue" d="M3825.12,-154.191C4192.68,-155.338 6300.6,-159.72 6630.79,-108.94"/>
<polygon fill="midnightblue" stroke="midnightblue" points="6631.61,-112.351 6640.91,-107.266 6630.47,-105.445 6631.61,-112.351"/>
</g>
<!-- Node50 -->
<g id="node50" class="node"><title>Node50</title>
<polygon fill="white" stroke="#bfbfbf" points="6788,-56.5 6788,-108.5 6917,-108.5 6917,-56.5 6788,-56.5"/>
<text text-anchor="start" x="6796" y="-96.5" font-family="Helvetica,sans-Serif" font-size="10.00">/home/travis/build</text>
<text text-anchor="start" x="6796" y="-85.5" font-family="Helvetica,sans-Serif" font-size="10.00">/hypro/hypro/build/carl</text>
<text text-anchor="start" x="6796" y="-74.5" font-family="Helvetica,sans-Serif" font-size="10.00">/build/resources/include</text>
<text text-anchor="middle" x="6852.5" y="-63.5" font-family="Helvetica,sans-Serif" font-size="10.00">/CoCoA/degree.H</text>
</g>
<!-- Node5&#45;&gt;Node50 -->
<g id="edge50" class="edge"><title>Node5&#45;&gt;Node50</title>
<path fill="none" stroke="midnightblue" d="M3825.19,-153.68C4213.65,-151.349 6546.71,-136.317 6777.78,-108.72"/>
<polygon fill="midnightblue" stroke="midnightblue" points="6778.51,-112.152 6787.91,-107.269 6777.52,-105.223 6778.51,-112.152"/>
</g>
</g>
</svg>
