<?xml version="1.0" encoding="UTF-8" standalone="no"?>
<!DOCTYPE svg PUBLIC "-//W3C//DTD SVG 1.1//EN"
 "http://www.w3.org/Graphics/SVG/1.1/DTD/svg11.dtd">
<!-- Generated by graphviz version 2.38.0 (20140413.2041)
 -->
<!-- Title: /home/travis/build/hypro/hypro/src/hypro/datastructures/HybridAutomaton/flow/rectangularOperations.h Pages: 1 -->
<svg width="713pt" height="173pt"
 viewBox="0.00 0.00 712.50 173.00" xmlns="http://www.w3.org/2000/svg" xmlns:xlink="http://www.w3.org/1999/xlink">
<g id="graph0" class="graph" transform="scale(1 1) rotate(0) translate(4 169)">
<title>/home/travis/build/hypro/hypro/src/hypro/datastructures/HybridAutomaton/flow/rectangularOperations.h</title>
<polygon fill="white" stroke="none" points="-4,4 -4,-169 708.5,-169 708.5,4 -4,4"/>
<!-- Node1 -->
<g id="node1" class="node"><title>Node1</title>
<polygon fill="#bfbfbf" stroke="black" points="301.5,-112.5 301.5,-164.5 479.5,-164.5 479.5,-112.5 301.5,-112.5"/>
<text text-anchor="start" x="309.5" y="-152.5" font-family="Helvetica,sans-Serif" font-size="10.00">/home/travis/build</text>
<text text-anchor="start" x="309.5" y="-141.5" font-family="Helvetica,sans-Serif" font-size="10.00">/hypro/hypro/src/hypro</text>
<text text-anchor="start" x="309.5" y="-130.5" font-family="Helvetica,sans-Serif" font-size="10.00">/datastructures/HybridAutomaton</text>
<text text-anchor="middle" x="390.5" y="-119.5" font-family="Helvetica,sans-Serif" font-size="10.00">/flow/rectangularOperations.h</text>
</g>
<!-- Node2 -->
<g id="node2" class="node"><title>Node2</title>
<g id="a_node2"><a xlink:href="carlTypes_8h.html" target="_top" xlink:title="../../../carlTypes.h">
<polygon fill="white" stroke="black" points="209.5,-56.5 209.5,-75.5 305.5,-75.5 305.5,-56.5 209.5,-56.5"/>
<text text-anchor="middle" x="257.5" y="-63.5" font-family="Helvetica,sans-Serif" font-size="10.00">../../../carlTypes.h</text>
</a>
</g>
</g>
<!-- Node1&#45;&gt;Node2 -->
<g id="edge1" class="edge"><title>Node1&#45;&gt;Node2</title>
<path fill="none" stroke="midnightblue" d="M343.235,-112.446C322.888,-101.66 299.912,-89.4814 282.87,-80.448"/>
<polygon fill="midnightblue" stroke="midnightblue" points="284.061,-77.1181 273.586,-75.527 280.783,-83.3029 284.061,-77.1181"/>
</g>
<!-- Node5 -->
<g id="node5" class="node"><title>Node5</title>
<g id="a_node5"><a xlink:href="rectangular_8h.html" target="_top" xlink:title="rectangular.h">
<polygon fill="white" stroke="black" points="484.5,-56.5 484.5,-75.5 564.5,-75.5 564.5,-56.5 484.5,-56.5"/>
<text text-anchor="middle" x="524.5" y="-63.5" font-family="Helvetica,sans-Serif" font-size="10.00">rectangular.h</text>
</a>
</g>
</g>
<!-- Node1&#45;&gt;Node5 -->
<g id="edge4" class="edge"><title>Node1&#45;&gt;Node5</title>
<path fill="none" stroke="midnightblue" d="M438.121,-112.446C458.812,-101.56 482.202,-89.2537 499.419,-80.1955"/>
<polygon fill="midnightblue" stroke="midnightblue" points="501.072,-83.2806 508.293,-75.527 497.813,-77.0857 501.072,-83.2806"/>
</g>
<!-- Node3 -->
<g id="node3" class="node"><title>Node3</title>
<polygon fill="white" stroke="#bfbfbf" points="0,-0.5 0,-19.5 177,-19.5 177,-0.5 0,-0.5"/>
<text text-anchor="middle" x="88.5" y="-7.5" font-family="Helvetica,sans-Serif" font-size="10.00">carl/core/MultivariatePolynomial.h</text>
</g>
<!-- Node2&#45;&gt;Node3 -->
<g id="edge2" class="edge"><title>Node2&#45;&gt;Node3</title>
<path fill="none" stroke="midnightblue" d="M230.721,-56.4435C202.167,-47.3196 156.767,-32.8133 124.963,-22.6509"/>
<polygon fill="midnightblue" stroke="midnightblue" points="125.744,-19.2262 115.153,-19.5164 123.614,-25.8941 125.744,-19.2262"/>
</g>
<!-- Node4 -->
<g id="node4" class="node"><title>Node4</title>
<polygon fill="white" stroke="#bfbfbf" points="195,-0.5 195,-19.5 320,-19.5 320,-0.5 195,-0.5"/>
<text text-anchor="middle" x="257.5" y="-7.5" font-family="Helvetica,sans-Serif" font-size="10.00">carl/formula/Formula.h</text>
</g>
<!-- Node2&#45;&gt;Node4 -->
<g id="edge3" class="edge"><title>Node2&#45;&gt;Node4</title>
<path fill="none" stroke="midnightblue" d="M257.5,-56.083C257.5,-49.0059 257.5,-38.8611 257.5,-29.9865"/>
<polygon fill="midnightblue" stroke="midnightblue" points="261,-29.751 257.5,-19.7511 254,-29.7511 261,-29.751"/>
</g>
<!-- Node6 -->
<g id="node6" class="node"><title>Node6</title>
<polygon fill="white" stroke="#bfbfbf" points="338.5,-0.5 338.5,-19.5 446.5,-19.5 446.5,-0.5 338.5,-0.5"/>
<text text-anchor="middle" x="392.5" y="-7.5" font-family="Helvetica,sans-Serif" font-size="10.00">carl/core/Variable.h</text>
</g>
<!-- Node5&#45;&gt;Node6 -->
<g id="edge5" class="edge"><title>Node5&#45;&gt;Node6</title>
<path fill="none" stroke="midnightblue" d="M503.584,-56.4435C481.764,-47.5171 447.35,-33.4387 422.608,-23.3168"/>
<polygon fill="midnightblue" stroke="midnightblue" points="423.899,-20.0634 413.318,-19.5164 421.248,-26.5422 423.899,-20.0634"/>
</g>
<!-- Node7 -->
<g id="node7" class="node"><title>Node7</title>
<polygon fill="white" stroke="#bfbfbf" points="465,-0.5 465,-19.5 584,-19.5 584,-0.5 465,-0.5"/>
<text text-anchor="middle" x="524.5" y="-7.5" font-family="Helvetica,sans-Serif" font-size="10.00">carl/interval/Interval.h</text>
</g>
<!-- Node5&#45;&gt;Node7 -->
<g id="edge6" class="edge"><title>Node5&#45;&gt;Node7</title>
<path fill="none" stroke="midnightblue" d="M524.5,-56.083C524.5,-49.0059 524.5,-38.8611 524.5,-29.9865"/>
<polygon fill="midnightblue" stroke="midnightblue" points="528,-29.751 524.5,-19.7511 521,-29.7511 528,-29.751"/>
</g>
<!-- Node8 -->
<g id="node8" class="node"><title>Node8</title>
<polygon fill="white" stroke="#bfbfbf" points="602.5,-0.5 602.5,-19.5 648.5,-19.5 648.5,-0.5 602.5,-0.5"/>
<text text-anchor="middle" x="625.5" y="-7.5" font-family="Helvetica,sans-Serif" font-size="10.00">iosfwd</text>
</g>
<!-- Node5&#45;&gt;Node8 -->
<g id="edge7" class="edge"><title>Node5&#45;&gt;Node8</title>
<path fill="none" stroke="midnightblue" d="M540.727,-56.324C556.851,-47.7034 581.8,-34.3643 600.464,-24.3855"/>
<polygon fill="midnightblue" stroke="midnightblue" points="602.144,-27.456 609.313,-19.6545 598.844,-21.283 602.144,-27.456"/>
</g>
<!-- Node9 -->
<g id="node9" class="node"><title>Node9</title>
<polygon fill="white" stroke="#bfbfbf" points="666.5,-0.5 666.5,-19.5 704.5,-19.5 704.5,-0.5 666.5,-0.5"/>
<text text-anchor="middle" x="685.5" y="-7.5" font-family="Helvetica,sans-Serif" font-size="10.00">map</text>
</g>
<!-- Node5&#45;&gt;Node9 -->
<g id="edge8" class="edge"><title>Node5&#45;&gt;Node9</title>
<path fill="none" stroke="midnightblue" d="M550.011,-56.4435C579.008,-46.7178 626.239,-30.8764 656.581,-20.6997"/>
<polygon fill="midnightblue" stroke="midnightblue" points="657.804,-23.981 666.172,-17.4826 655.578,-17.3443 657.804,-23.981"/>
</g>
</g>
</svg>
