<?xml version="1.0" encoding="UTF-8" standalone="no"?>
<!DOCTYPE svg PUBLIC "-//W3C//DTD SVG 1.1//EN"
 "http://www.w3.org/Graphics/SVG/1.1/DTD/svg11.dtd">
<!-- Generated by graphviz version 2.38.0 (20140413.2041)
 -->
<!-- Title: /home/travis/build/hypro/hypro/src/hypro/datastructures/HybridAutomaton/flow/rectangular.h Pages: 1 -->
<svg width="374pt" height="117pt"
 viewBox="0.00 0.00 374.00 117.00" xmlns="http://www.w3.org/2000/svg" xmlns:xlink="http://www.w3.org/1999/xlink">
<g id="graph0" class="graph" transform="scale(1 1) rotate(0) translate(4 113)">
<title>/home/travis/build/hypro/hypro/src/hypro/datastructures/HybridAutomaton/flow/rectangular.h</title>
<polygon fill="white" stroke="none" points="-4,4 -4,-113 370,-113 370,4 -4,4"/>
<!-- Node1 -->
<g id="node1" class="node"><title>Node1</title>
<polygon fill="#bfbfbf" stroke="black" points="147,-56.5 147,-108.5 325,-108.5 325,-56.5 147,-56.5"/>
<text text-anchor="start" x="155" y="-96.5" font-family="Helvetica,sans-Serif" font-size="10.00">/home/travis/build</text>
<text text-anchor="start" x="155" y="-85.5" font-family="Helvetica,sans-Serif" font-size="10.00">/hypro/hypro/src/hypro</text>
<text text-anchor="start" x="155" y="-74.5" font-family="Helvetica,sans-Serif" font-size="10.00">/datastructures/HybridAutomaton</text>
<text text-anchor="middle" x="236" y="-63.5" font-family="Helvetica,sans-Serif" font-size="10.00">/flow/rectangular.h</text>
</g>
<!-- Node2 -->
<g id="node2" class="node"><title>Node2</title>
<polygon fill="white" stroke="#bfbfbf" points="0,-0.5 0,-19.5 108,-19.5 108,-0.5 0,-0.5"/>
<text text-anchor="middle" x="54" y="-7.5" font-family="Helvetica,sans-Serif" font-size="10.00">carl/core/Variable.h</text>
</g>
<!-- Node1&#45;&gt;Node2 -->
<g id="edge1" class="edge"><title>Node1&#45;&gt;Node2</title>
<path fill="none" stroke="midnightblue" d="M171.321,-56.4458C142.177,-45.1563 109.091,-32.3402 85.5019,-23.2027"/>
<polygon fill="midnightblue" stroke="midnightblue" points="86.602,-19.8754 76.0129,-19.527 84.0735,-26.4028 86.602,-19.8754"/>
</g>
<!-- Node3 -->
<g id="node3" class="node"><title>Node3</title>
<polygon fill="white" stroke="#bfbfbf" points="126.5,-0.5 126.5,-19.5 245.5,-19.5 245.5,-0.5 126.5,-0.5"/>
<text text-anchor="middle" x="186" y="-7.5" font-family="Helvetica,sans-Serif" font-size="10.00">carl/interval/Interval.h</text>
</g>
<!-- Node1&#45;&gt;Node3 -->
<g id="edge2" class="edge"><title>Node1&#45;&gt;Node3</title>
<path fill="none" stroke="midnightblue" d="M218.231,-56.4458C211.552,-47.0288 204.12,-36.5496 198.077,-28.0293"/>
<polygon fill="midnightblue" stroke="midnightblue" points="200.807,-25.8276 192.167,-19.6955 195.097,-29.8771 200.807,-25.8276"/>
</g>
<!-- Node4 -->
<g id="node4" class="node"><title>Node4</title>
<polygon fill="white" stroke="#bfbfbf" points="264,-0.5 264,-19.5 310,-19.5 310,-0.5 264,-0.5"/>
<text text-anchor="middle" x="287" y="-7.5" font-family="Helvetica,sans-Serif" font-size="10.00">iosfwd</text>
</g>
<!-- Node1&#45;&gt;Node4 -->
<g id="edge3" class="edge"><title>Node1&#45;&gt;Node4</title>
<path fill="none" stroke="midnightblue" d="M254.124,-56.4458C260.937,-47.0288 268.517,-36.5496 274.681,-28.0293"/>
<polygon fill="midnightblue" stroke="midnightblue" points="277.684,-29.8492 280.71,-19.6955 272.013,-25.7463 277.684,-29.8492"/>
</g>
<!-- Node5 -->
<g id="node5" class="node"><title>Node5</title>
<polygon fill="white" stroke="#bfbfbf" points="328,-0.5 328,-19.5 366,-19.5 366,-0.5 328,-0.5"/>
<text text-anchor="middle" x="347" y="-7.5" font-family="Helvetica,sans-Serif" font-size="10.00">map</text>
</g>
<!-- Node1&#45;&gt;Node5 -->
<g id="edge4" class="edge"><title>Node1&#45;&gt;Node5</title>
<path fill="none" stroke="midnightblue" d="M275.447,-56.4458C292.111,-45.8619 310.888,-33.9362 325.024,-24.9578"/>
<polygon fill="midnightblue" stroke="midnightblue" points="327.01,-27.8429 333.575,-19.527 323.257,-21.9339 327.01,-27.8429"/>
</g>
</g>
</svg>
