<?xml version="1.0" encoding="UTF-8" standalone="no"?>
<!DOCTYPE svg PUBLIC "-//W3C//DTD SVG 1.1//EN"
 "http://www.w3.org/Graphics/SVG/1.1/DTD/svg11.dtd">
<!-- Generated by graphviz version 2.38.0 (20140413.2041)
 -->
<!-- Title: /home/travis/build/hypro/hypro/src/hypro/representations/Polytopes/VPolytope/util.h Pages: 1 -->
<!--zoomable 441 -->
<svg id="main" version="1.1" xmlns="http://www.w3.org/2000/svg" xmlns:xlink="http://www.w3.org/1999/xlink" xml:space="preserve" onload="init(evt)">
<style type="text/css"><![CDATA[
.edge:hover path { stroke: red; }
.edge:hover polygon { stroke: red; fill: red; }
]]></style>
<script type="text/javascript"><![CDATA[
var edges = document.getElementsByTagName('g');
if (edges && edges.length) {
  for (var i=0;i<edges.length;i++) {
    if (edges[i].id.substr(0,4)=='edge') {
      edges[i].setAttribute('class','edge');
    }
  }
}
]]></script>
        <defs>
                <circle id="rim" cx="0" cy="0" r="7"/>
                <circle id="rim2" cx="0" cy="0" r="3.5"/>
                <g id="zoomPlus">
                        <use xlink:href="#rim" fill="#404040">
                                <set attributeName="fill" to="#808080" begin="zoomplus.mouseover" end="zoomplus.mouseout"/>
                        </use>
                        <path d="M-4,0h8M0,-4v8" fill="none" stroke="white" stroke-width="1.5" pointer-events="none"/>
                </g>
                <g id="zoomMin">
                        <use xlink:href="#rim" fill="#404040">
                                <set attributeName="fill" to="#808080" begin="zoomminus.mouseover" end="zoomminus.mouseout"/>
                        </use>
                        <path d="M-4,0h8" fill="none" stroke="white" stroke-width="1.5" pointer-events="none"/>
                </g>
                <g id="dirArrow">
                        <path fill="none" stroke="white" stroke-width="1.5" d="M0,-3.0v7 M-2.5,-0.5L0,-3.0L2.5,-0.5"/>
                </g>
               <g id="resetDef">
                       <use xlink:href="#rim2" fill="#404040">
                               <set attributeName="fill" to="#808080" begin="reset.mouseover" end="reset.mouseout"/>
                       </use>
               </g>
        </defs>

<script type="text/javascript">
var viewWidth = 2046;
var viewHeight = 441;
var sectionId = 'dynsection-0';
</script>
<script xlink:href="svgpan.js"/>
<svg id="graph" class="graph">
<g id="viewport">
<title>/home/travis/build/hypro/hypro/src/hypro/representations/Polytopes/VPolytope/util.h</title>
<polygon fill="white" stroke="none" points="-4,4 -4,-437 2041.7,-437 2041.7,4 -4,4"/>
<!-- Node1 -->
<g id="node1" class="node"><title>Node1</title>
<polygon fill="#bfbfbf" stroke="black" points="592.424,-380.5 592.424,-432.5 737.424,-432.5 737.424,-380.5 592.424,-380.5"/>
<text text-anchor="start" x="600.424" y="-420.5" font-family="Helvetica,sans-Serif" font-size="10.00">/home/travis/build</text>
<text text-anchor="start" x="600.424" y="-409.5" font-family="Helvetica,sans-Serif" font-size="10.00">/hypro/hypro/src/hypro</text>
<text text-anchor="start" x="600.424" y="-398.5" font-family="Helvetica,sans-Serif" font-size="10.00">/representations/Polytopes</text>
<text text-anchor="middle" x="664.924" y="-387.5" font-family="Helvetica,sans-Serif" font-size="10.00">/VPolytope/util.h</text>
</g>
<!-- Node2 -->
<g id="node2" class="node"><title>Node2</title>
<g id="a_node2"><a xlink:href="Halfspace_8h.html" target="_top" xlink:title="../../../datastructures\l/Halfspace.h">
<polygon fill="white" stroke="black" points="704.924,-313.5 704.924,-343.5 818.924,-343.5 818.924,-313.5 704.924,-313.5"/>
<text text-anchor="start" x="712.924" y="-331.5" font-family="Helvetica,sans-Serif" font-size="10.00">../../../datastructures</text>
<text text-anchor="middle" x="761.924" y="-320.5" font-family="Helvetica,sans-Serif" font-size="10.00">/Halfspace.h</text>
</a>
</g>
</g>
<!-- Node1&#45;&gt;Node2 -->
<g id="edge1" class="edge"><title>Node1&#45;&gt;Node2</title>
<path fill="none" stroke="midnightblue" d="M696.955,-380.404C709.477,-370.593 723.661,-359.479 735.575,-350.145"/>
<polygon fill="midnightblue" stroke="midnightblue" points="738.079,-352.629 743.792,-343.707 733.762,-347.119 738.079,-352.629"/>
</g>
<!-- Node37 -->
<g id="node37" class="node"><title>Node37</title>
<g id="a_node37"><a xlink:href="Point_8h.html" target="_top" xlink:title="Point.h">
<polygon fill="white" stroke="black" points="435.924,-252 435.924,-271 485.924,-271 485.924,-252 435.924,-252"/>
<text text-anchor="middle" x="460.924" y="-259" font-family="Helvetica,sans-Serif" font-size="10.00">Point.h</text>
</a>
</g>
</g>
<!-- Node1&#45;&gt;Node37 -->
<g id="edge58" class="edge"><title>Node1&#45;&gt;Node37</title>
<path fill="none" stroke="midnightblue" d="M628.923,-380.264C586.083,-350.234 516.022,-301.122 481.489,-276.915"/>
<polygon fill="midnightblue" stroke="midnightblue" points="483.324,-273.928 473.127,-271.053 479.306,-279.66 483.324,-273.928"/>
</g>
<!-- Node3 -->
<g id="node3" class="node"><title>Node3</title>
<g id="a_node3"><a xlink:href="representations_2types_8h.html" target="_top" xlink:title="../representations\l/types.h">
<polygon fill="white" stroke="black" points="903.424,-246.5 903.424,-276.5 1004.42,-276.5 1004.42,-246.5 903.424,-246.5"/>
<text text-anchor="start" x="911.424" y="-264.5" font-family="Helvetica,sans-Serif" font-size="10.00">../representations</text>
<text text-anchor="middle" x="953.924" y="-253.5" font-family="Helvetica,sans-Serif" font-size="10.00">/types.h</text>
</a>
</g>
</g>
<!-- Node2&#45;&gt;Node3 -->
<g id="edge2" class="edge"><title>Node2&#45;&gt;Node3</title>
<path fill="none" stroke="midnightblue" d="M803.585,-313.396C832.645,-303.558 871.61,-290.367 902.59,-279.879"/>
<polygon fill="midnightblue" stroke="midnightblue" points="903.995,-283.098 912.344,-276.577 901.75,-276.468 903.995,-283.098"/>
</g>
<!-- Node4 -->
<g id="node4" class="node"><title>Node4</title>
<g id="a_node4"><a xlink:href="VariablePool_8h.html" target="_top" xlink:title="../util/VariablePool.h">
<polygon fill="white" stroke="black" points="378.924,-179.5 378.924,-198.5 488.924,-198.5 488.924,-179.5 378.924,-179.5"/>
<text text-anchor="middle" x="433.924" y="-186.5" font-family="Helvetica,sans-Serif" font-size="10.00">../util/VariablePool.h</text>
</a>
</g>
</g>
<!-- Node2&#45;&gt;Node4 -->
<g id="edge3" class="edge"><title>Node2&#45;&gt;Node4</title>
<path fill="none" stroke="midnightblue" d="M728.364,-313.431C664.179,-286.524 524.978,-228.17 463.795,-202.522"/>
<polygon fill="midnightblue" stroke="midnightblue" points="464.904,-199.192 454.328,-198.554 462.198,-205.648 464.904,-199.192"/>
</g>
<!-- Node10 -->
<g id="node10" class="node"><title>Node10</title>
<polygon fill="white" stroke="#bfbfbf" points="684.924,-112.5 684.924,-131.5 736.924,-131.5 736.924,-112.5 684.924,-112.5"/>
<text text-anchor="middle" x="710.924" y="-119.5" font-family="Helvetica,sans-Serif" font-size="10.00">cassert</text>
</g>
<!-- Node2&#45;&gt;Node10 -->
<g id="edge55" class="edge"><title>Node2&#45;&gt;Node10</title>
<path fill="none" stroke="midnightblue" d="M750.559,-313.375C743.416,-303.712 734.682,-290.29 729.924,-277 713.252,-230.428 710.722,-171.434 710.624,-141.8"/>
<polygon fill="midnightblue" stroke="midnightblue" points="714.124,-141.669 710.686,-131.648 707.125,-141.626 714.124,-141.669"/>
</g>
<!-- Node13 -->
<g id="node13" class="node"><title>Node13</title>
<g id="a_node13"><a xlink:href="adaptions__eigen_8h.html" target="_top" xlink:title="../util/adaptions_eigen\l/adaptions_eigen.h">
<polygon fill="white" stroke="black" points="1448.92,-246.5 1448.92,-276.5 1570.92,-276.5 1570.92,-246.5 1448.92,-246.5"/>
<text text-anchor="start" x="1456.92" y="-264.5" font-family="Helvetica,sans-Serif" font-size="10.00">../util/adaptions_eigen</text>
<text text-anchor="middle" x="1509.92" y="-253.5" font-family="Helvetica,sans-Serif" font-size="10.00">/adaptions_eigen.h</text>
</a>
</g>
</g>
<!-- Node2&#45;&gt;Node13 -->
<g id="edge12" class="edge"><title>Node2&#45;&gt;Node13</title>
<path fill="none" stroke="midnightblue" d="M819.068,-322.534C953.723,-310.833 1290.69,-281.551 1438.52,-268.705"/>
<polygon fill="midnightblue" stroke="midnightblue" points="1439.17,-272.162 1448.83,-267.809 1438.56,-265.188 1439.17,-272.162"/>
</g>
<!-- Node36 -->
<g id="node36" class="node"><title>Node36</title>
<g id="a_node36"><a xlink:href="EvaluationResult_8h.html" target="_top" xlink:title="../util/linearOptimization\l/EvaluationResult.h">
<polygon fill="white" stroke="black" points="1022.92,-246.5 1022.92,-276.5 1152.92,-276.5 1152.92,-246.5 1022.92,-246.5"/>
<text text-anchor="start" x="1030.92" y="-264.5" font-family="Helvetica,sans-Serif" font-size="10.00">../util/linearOptimization</text>
<text text-anchor="middle" x="1087.92" y="-253.5" font-family="Helvetica,sans-Serif" font-size="10.00">/EvaluationResult.h</text>
</a>
</g>
</g>
<!-- Node2&#45;&gt;Node36 -->
<g id="edge46" class="edge"><title>Node2&#45;&gt;Node36</title>
<path fill="none" stroke="midnightblue" d="M819.082,-316.103C872.854,-305.382 953.7,-289.263 1012.69,-277.5"/>
<polygon fill="midnightblue" stroke="midnightblue" points="1013.58,-280.893 1022.7,-275.505 1012.21,-274.028 1013.58,-280.893"/>
</g>
<!-- Node2&#45;&gt;Node37 -->
<g id="edge48" class="edge"><title>Node2&#45;&gt;Node37</title>
<path fill="none" stroke="midnightblue" d="M704.6,-315.121C643.003,-301.819 547.076,-281.104 495.888,-270.05"/>
<polygon fill="midnightblue" stroke="midnightblue" points="496.485,-266.599 485.971,-267.909 495.007,-273.441 496.485,-266.599"/>
</g>
<!-- Node39 -->
<g id="node39" class="node"><title>Node39</title>
<polygon fill="white" stroke="#bfbfbf" points="739.424,-252 739.424,-271 784.424,-271 784.424,-252 739.424,-252"/>
<text text-anchor="middle" x="761.924" y="-259" font-family="Helvetica,sans-Serif" font-size="10.00">glpk.h</text>
</g>
<!-- Node2&#45;&gt;Node39 -->
<g id="edge56" class="edge"><title>Node2&#45;&gt;Node39</title>
<path fill="none" stroke="midnightblue" d="M761.924,-313.396C761.924,-304.064 761.924,-291.714 761.924,-281.517"/>
<polygon fill="midnightblue" stroke="midnightblue" points="765.424,-281.195 761.924,-271.195 758.424,-281.195 765.424,-281.195"/>
</g>
<!-- Node40 -->
<g id="node40" class="node"><title>Node40</title>
<polygon fill="white" stroke="#bfbfbf" points="802.424,-252 802.424,-271 885.424,-271 885.424,-252 802.424,-252"/>
<text text-anchor="middle" x="843.924" y="-259" font-family="Helvetica,sans-Serif" font-size="10.00">Halfspace.tpp</text>
</g>
<!-- Node2&#45;&gt;Node40 -->
<g id="edge57" class="edge"><title>Node2&#45;&gt;Node40</title>
<path fill="none" stroke="midnightblue" d="M779.717,-313.396C793.009,-302.86 811.153,-288.477 824.763,-277.689"/>
<polygon fill="midnightblue" stroke="midnightblue" points="827.293,-280.149 832.956,-271.195 822.945,-274.664 827.293,-280.149"/>
</g>
<!-- Node5 -->
<g id="node5" class="node"><title>Node5</title>
<g id="a_node5"><a xlink:href="flags_8h.html" target="_top" xlink:title="../flags.h">
<polygon fill="white" stroke="black" points="685.424,-56.5 685.424,-75.5 742.424,-75.5 742.424,-56.5 685.424,-56.5"/>
<text text-anchor="middle" x="713.924" y="-63.5" font-family="Helvetica,sans-Serif" font-size="10.00">../flags.h</text>
</a>
</g>
</g>
<!-- Node4&#45;&gt;Node5 -->
<g id="edge4" class="edge"><title>Node4&#45;&gt;Node5</title>
<path fill="none" stroke="midnightblue" d="M378.849,-187.311C293.324,-184.433 143.754,-171.1 197.924,-112 214.036,-94.4226 557.741,-75.0775 675.074,-68.9632"/>
<polygon fill="midnightblue" stroke="midnightblue" points="675.578,-72.4419 685.384,-68.4297 675.216,-65.4512 675.578,-72.4419"/>
</g>
<!-- Node6 -->
<g id="node6" class="node"><title>Node6</title>
<polygon fill="white" stroke="#bfbfbf" points="478.924,-112.5 478.924,-131.5 540.924,-131.5 540.924,-112.5 478.924,-112.5"/>
<text text-anchor="middle" x="509.924" y="-119.5" font-family="Helvetica,sans-Serif" font-size="10.00">algorithm</text>
</g>
<!-- Node4&#45;&gt;Node6 -->
<g id="edge5" class="edge"><title>Node4&#45;&gt;Node6</title>
<path fill="none" stroke="midnightblue" d="M444.174,-179.234C456.367,-168.805 476.942,-151.209 491.833,-138.473"/>
<polygon fill="midnightblue" stroke="midnightblue" points="494.512,-140.787 499.837,-131.627 489.962,-135.467 494.512,-140.787"/>
</g>
<!-- Node7 -->
<g id="node7" class="node"><title>Node7</title>
<polygon fill="white" stroke="#bfbfbf" points="558.924,-112.5 558.924,-131.5 666.924,-131.5 666.924,-112.5 558.924,-112.5"/>
<text text-anchor="middle" x="612.924" y="-119.5" font-family="Helvetica,sans-Serif" font-size="10.00">carl/core/Variable.h</text>
</g>
<!-- Node4&#45;&gt;Node7 -->
<g id="edge6" class="edge"><title>Node4&#45;&gt;Node7</title>
<path fill="none" stroke="midnightblue" d="M457.694,-179.369C489.075,-167.973 544.484,-147.853 579.914,-134.987"/>
<polygon fill="midnightblue" stroke="midnightblue" points="581.136,-138.267 589.341,-131.564 578.747,-131.687 581.136,-138.267"/>
</g>
<!-- Node8 -->
<g id="node8" class="node"><title>Node8</title>
<polygon fill="white" stroke="#bfbfbf" points="206.924,-112.5 206.924,-131.5 334.924,-131.5 334.924,-112.5 206.924,-112.5"/>
<text text-anchor="middle" x="270.924" y="-119.5" font-family="Helvetica,sans-Serif" font-size="10.00">carl/core/VariablePool.h</text>
</g>
<!-- Node4&#45;&gt;Node8 -->
<g id="edge7" class="edge"><title>Node4&#45;&gt;Node8</title>
<path fill="none" stroke="midnightblue" d="M412.279,-179.369C383.947,-168.071 334.108,-148.196 301.815,-135.318"/>
<polygon fill="midnightblue" stroke="midnightblue" points="302.985,-132.017 292.399,-131.564 300.392,-138.519 302.985,-132.017"/>
</g>
<!-- Node9 -->
<g id="node9" class="node"><title>Node9</title>
<polygon fill="white" stroke="#bfbfbf" points="352.924,-112.5 352.924,-131.5 460.924,-131.5 460.924,-112.5 352.924,-112.5"/>
<text text-anchor="middle" x="406.924" y="-119.5" font-family="Helvetica,sans-Serif" font-size="10.00">carl/util/Singleton.h</text>
</g>
<!-- Node4&#45;&gt;Node9 -->
<g id="edge8" class="edge"><title>Node4&#45;&gt;Node9</title>
<path fill="none" stroke="midnightblue" d="M430.283,-179.234C426.235,-169.488 419.585,-153.481 414.414,-141.032"/>
<polygon fill="midnightblue" stroke="midnightblue" points="417.576,-139.52 410.508,-131.627 411.112,-142.205 417.576,-139.52"/>
</g>
<!-- Node4&#45;&gt;Node10 -->
<g id="edge9" class="edge"><title>Node4&#45;&gt;Node10</title>
<path fill="none" stroke="midnightblue" d="M472.134,-179.459C517.928,-169.157 597.233,-151.106 674.648,-132.271"/>
<polygon fill="midnightblue" stroke="midnightblue" points="675.683,-135.621 684.568,-129.85 674.024,-128.821 675.683,-135.621"/>
</g>
<!-- Node11 -->
<g id="node11" class="node"><title>Node11</title>
<polygon fill="white" stroke="#bfbfbf" points="386.924,-56.5 386.924,-75.5 424.924,-75.5 424.924,-56.5 386.924,-56.5"/>
<text text-anchor="middle" x="405.924" y="-63.5" font-family="Helvetica,sans-Serif" font-size="10.00">map</text>
</g>
<!-- Node4&#45;&gt;Node11 -->
<g id="edge10" class="edge"><title>Node4&#45;&gt;Node11</title>
<path fill="none" stroke="midnightblue" d="M378.69,-184.504C307.957,-178.742 191.335,-164.475 164.924,-132 159.316,-125.104 159.245,-118.838 164.924,-112 191.55,-79.9428 318.444,-70.5985 376.639,-67.9767"/>
<polygon fill="midnightblue" stroke="midnightblue" points="376.82,-71.4723 386.667,-67.5614 376.53,-64.4783 376.82,-71.4723"/>
</g>
<!-- Node12 -->
<g id="node12" class="node"><title>Node12</title>
<polygon fill="white" stroke="#bfbfbf" points="79.4243,-56.5 79.4243,-75.5 126.424,-75.5 126.424,-56.5 79.4243,-56.5"/>
<text text-anchor="middle" x="102.924" y="-63.5" font-family="Helvetica,sans-Serif" font-size="10.00">vector</text>
</g>
<!-- Node4&#45;&gt;Node12 -->
<g id="edge11" class="edge"><title>Node4&#45;&gt;Node12</title>
<path fill="none" stroke="midnightblue" d="M378.807,-187.477C319.966,-184.609 225.894,-173.205 156.924,-132 137.708,-120.52 122.216,-99.6343 112.834,-84.6331"/>
<polygon fill="midnightblue" stroke="midnightblue" points="115.692,-82.591 107.574,-75.7828 109.675,-86.1674 115.692,-82.591"/>
</g>
<!-- Node14 -->
<g id="node14" class="node"><title>Node14</title>
<g id="a_node14"><a xlink:href="config_8h.html" target="_top" xlink:title="../../config.h">
<polygon fill="white" stroke="black" points="832.924,-179.5 832.924,-198.5 904.924,-198.5 904.924,-179.5 832.924,-179.5"/>
<text text-anchor="middle" x="868.924" y="-186.5" font-family="Helvetica,sans-Serif" font-size="10.00">../../config.h</text>
</a>
</g>
</g>
<!-- Node13&#45;&gt;Node14 -->
<g id="edge13" class="edge"><title>Node13&#45;&gt;Node14</title>
<path fill="none" stroke="midnightblue" d="M1448.78,-254.276C1358.31,-245.003 1183.45,-226.842 1034.92,-210 994.584,-205.426 948.773,-199.88 915.511,-195.789"/>
<polygon fill="midnightblue" stroke="midnightblue" points="915.529,-192.265 905.176,-194.516 914.672,-199.213 915.529,-192.265"/>
</g>
<!-- Node16 -->
<g id="node16" class="node"><title>Node16</title>
<g id="a_node16"><a xlink:href="types_8h.html" target="_top" xlink:title="../types.h">
<polygon fill="white" stroke="black" points="897.424,-56.5 897.424,-75.5 958.424,-75.5 958.424,-56.5 897.424,-56.5"/>
<text text-anchor="middle" x="927.924" y="-63.5" font-family="Helvetica,sans-Serif" font-size="10.00">../types.h</text>
</a>
</g>
</g>
<!-- Node13&#45;&gt;Node16 -->
<g id="edge37" class="edge"><title>Node13&#45;&gt;Node16</title>
<path fill="none" stroke="midnightblue" d="M1452.1,-246.456C1368.34,-224.359 1209.16,-179.114 1076.92,-132 1031.44,-115.792 979.903,-93.9108 950.726,-80.1271"/>
<polygon fill="midnightblue" stroke="midnightblue" points="951.911,-76.8126 941.385,-75.6119 948.865,-83.115 951.911,-76.8126"/>
</g>
<!-- Node17 -->
<g id="node17" class="node"><title>Node17</title>
<polygon fill="white" stroke="#bfbfbf" points="1399.92,-0.5 1399.92,-19.5 1533.92,-19.5 1533.92,-0.5 1399.92,-0.5"/>
<text text-anchor="middle" x="1466.92" y="-7.5" font-family="Helvetica,sans-Serif" font-size="10.00">carl/numbers/numbers.h</text>
</g>
<!-- Node13&#45;&gt;Node17 -->
<g id="edge39" class="edge"><title>Node13&#45;&gt;Node17</title>
<path fill="none" stroke="midnightblue" d="M1571.13,-253.468C1624.04,-245.982 1694.66,-232.117 1711.92,-210 1730.89,-185.709 1750.05,-105.666 1706.92,-56 1685.93,-31.8185 1606.12,-20.5058 1544.23,-15.2948"/>
<polygon fill="midnightblue" stroke="midnightblue" points="1544.32,-11.791 1534.07,-14.48 1543.76,-18.7686 1544.32,-11.791"/>
</g>
<!-- Node20 -->
<g id="node20" class="node"><title>Node20</title>
<polygon fill="white" stroke="#bfbfbf" points="1767.92,-0.5 1767.92,-19.5 1879.92,-19.5 1879.92,-0.5 1767.92,-0.5"/>
<text text-anchor="middle" x="1823.92" y="-7.5" font-family="Helvetica,sans-Serif" font-size="10.00">eigen3/Eigen/Dense</text>
</g>
<!-- Node13&#45;&gt;Node20 -->
<g id="edge40" class="edge"><title>Node13&#45;&gt;Node20</title>
<path fill="none" stroke="midnightblue" d="M1571.31,-258.972C1700.72,-255.117 1992.16,-242.845 2021.92,-210 2088.34,-136.706 1925,-54.5508 1854.46,-23.6511"/>
<polygon fill="midnightblue" stroke="midnightblue" points="1855.72,-20.3846 1845.16,-19.6374 1852.95,-26.8121 1855.72,-20.3846"/>
</g>
<!-- Node21 -->
<g id="node21" class="node"><title>Node21</title>
<polygon fill="white" stroke="#bfbfbf" points="845.924,-0.5 845.924,-19.5 891.924,-19.5 891.924,-0.5 845.924,-0.5"/>
<text text-anchor="middle" x="868.924" y="-7.5" font-family="Helvetica,sans-Serif" font-size="10.00">iosfwd</text>
</g>
<!-- Node13&#45;&gt;Node21 -->
<g id="edge43" class="edge"><title>Node13&#45;&gt;Node21</title>
<path fill="none" stroke="midnightblue" d="M1514.36,-246.174C1520.82,-226.927 1534.24,-192.33 1553.92,-168 1599.82,-111.289 1724.3,-108.772 1673.92,-56 1645.52,-26.238 1002.36,-26.7566 902.294,-19.2695"/>
<polygon fill="midnightblue" stroke="midnightblue" points="902.517,-15.7737 892.206,-18.2092 901.785,-22.7353 902.517,-15.7737"/>
</g>
<!-- Node31 -->
<g id="node31" class="node"><title>Node31</title>
<g id="a_node31"><a xlink:href="transformation_8h.html" target="_top" xlink:title="transformation.h">
<polygon fill="white" stroke="black" points="1759.42,-179.5 1759.42,-198.5 1856.42,-198.5 1856.42,-179.5 1759.42,-179.5"/>
<text text-anchor="middle" x="1807.92" y="-186.5" font-family="Helvetica,sans-Serif" font-size="10.00">transformation.h</text>
</a>
</g>
</g>
<!-- Node13&#45;&gt;Node31 -->
<g id="edge38" class="edge"><title>Node13&#45;&gt;Node31</title>
<path fill="none" stroke="midnightblue" d="M1571.17,-249.009C1618.82,-239.667 1686.44,-225.528 1744.92,-210 1754.21,-207.535 1764.16,-204.543 1773.35,-201.632"/>
<polygon fill="midnightblue" stroke="midnightblue" points="1774.51,-204.936 1782.95,-198.535 1772.36,-198.274 1774.51,-204.936"/>
</g>
<!-- Node32 -->
<g id="node32" class="node"><title>Node32</title>
<polygon fill="white" stroke="#bfbfbf" points="1874.92,-179.5 1874.92,-198.5 2012.92,-198.5 2012.92,-179.5 1874.92,-179.5"/>
<text text-anchor="middle" x="1943.92" y="-186.5" font-family="Helvetica,sans-Serif" font-size="10.00">eigen3/Eigen/Eigenvalues</text>
</g>
<!-- Node13&#45;&gt;Node32 -->
<g id="edge41" class="edge"><title>Node13&#45;&gt;Node32</title>
<path fill="none" stroke="midnightblue" d="M1571.19,-253.797C1642.21,-245.563 1762.62,-230.167 1864.92,-210 1877.5,-207.52 1891.08,-204.29 1903.36,-201.151"/>
<polygon fill="midnightblue" stroke="midnightblue" points="1904.54,-204.462 1913.33,-198.554 1902.77,-197.688 1904.54,-204.462"/>
</g>
<!-- Node33 -->
<g id="node33" class="node"><title>Node33</title>
<polygon fill="white" stroke="#bfbfbf" points="1383.42,-179.5 1383.42,-198.5 1446.42,-198.5 1446.42,-179.5 1383.42,-179.5"/>
<text text-anchor="middle" x="1414.92" y="-186.5" font-family="Helvetica,sans-Serif" font-size="10.00">functional</text>
</g>
<!-- Node13&#45;&gt;Node33 -->
<g id="edge42" class="edge"><title>Node13&#45;&gt;Node33</title>
<path fill="none" stroke="midnightblue" d="M1490.7,-246.233C1474.51,-234.216 1451.42,-217.082 1434.99,-204.891"/>
<polygon fill="midnightblue" stroke="midnightblue" points="1436.75,-201.84 1426.64,-198.691 1432.58,-207.461 1436.75,-201.84"/>
</g>
<!-- Node34 -->
<g id="node34" class="node"><title>Node34</title>
<polygon fill="white" stroke="#bfbfbf" points="1464.92,-179.5 1464.92,-198.5 1506.92,-198.5 1506.92,-179.5 1464.92,-179.5"/>
<text text-anchor="middle" x="1485.92" y="-186.5" font-family="Helvetica,sans-Serif" font-size="10.00">limits</text>
</g>
<!-- Node13&#45;&gt;Node34 -->
<g id="edge44" class="edge"><title>Node13&#45;&gt;Node34</title>
<path fill="none" stroke="midnightblue" d="M1505.07,-246.233C1501.38,-235.39 1496.27,-220.382 1492.26,-208.597"/>
<polygon fill="midnightblue" stroke="midnightblue" points="1495.49,-207.232 1488.95,-198.893 1488.86,-209.488 1495.49,-207.232"/>
</g>
<!-- Node35 -->
<g id="node35" class="node"><title>Node35</title>
<polygon fill="white" stroke="#bfbfbf" points="1562.92,-168.5 1562.92,-209.5 1702.92,-209.5 1702.92,-168.5 1562.92,-168.5"/>
<text text-anchor="start" x="1570.92" y="-197.5" font-family="Helvetica,sans-Serif" font-size="10.00">eigen3/unsupported</text>
<text text-anchor="start" x="1570.92" y="-186.5" font-family="Helvetica,sans-Serif" font-size="10.00">/Eigen/src/MatrixFunctions</text>
<text text-anchor="middle" x="1632.92" y="-175.5" font-family="Helvetica,sans-Serif" font-size="10.00">/MatrixExponential.h</text>
</g>
<!-- Node13&#45;&gt;Node35 -->
<g id="edge45" class="edge"><title>Node13&#45;&gt;Node35</title>
<path fill="none" stroke="midnightblue" d="M1534.52,-246.403C1550.3,-237.355 1571.24,-225.358 1589.74,-214.754"/>
<polygon fill="midnightblue" stroke="midnightblue" points="1591.65,-217.689 1598.59,-209.68 1588.17,-211.616 1591.65,-217.689"/>
</g>
<!-- Node14&#45;&gt;Node5 -->
<g id="edge14" class="edge"><title>Node14&#45;&gt;Node5</title>
<path fill="none" stroke="midnightblue" d="M854.286,-179.382C836.936,-168.938 807.417,-150.44 783.924,-132 764.295,-116.593 743.557,-96.8416 729.796,-83.1758"/>
<polygon fill="midnightblue" stroke="midnightblue" points="732.098,-80.5268 722.561,-75.9116 727.138,-85.4667 732.098,-80.5268"/>
</g>
<!-- Node15 -->
<g id="node15" class="node"><title>Node15</title>
<g id="a_node15"><a xlink:href="util_2convenienceOperators_8h.html" target="_top" xlink:title="util/convenienceOperators.h">
<polygon fill="white" stroke="black" points="793.424,-112.5 793.424,-131.5 944.424,-131.5 944.424,-112.5 793.424,-112.5"/>
<text text-anchor="middle" x="868.924" y="-119.5" font-family="Helvetica,sans-Serif" font-size="10.00">util/convenienceOperators.h</text>
</a>
</g>
</g>
<!-- Node14&#45;&gt;Node15 -->
<g id="edge15" class="edge"><title>Node14&#45;&gt;Node15</title>
<path fill="none" stroke="midnightblue" d="M868.924,-179.234C868.924,-169.683 868.924,-154.118 868.924,-141.783"/>
<polygon fill="midnightblue" stroke="midnightblue" points="872.424,-141.627 868.924,-131.627 865.424,-141.627 872.424,-141.627"/>
</g>
<!-- Node24 -->
<g id="node24" class="node"><title>Node24</title>
<g id="a_node24"><a xlink:href="Logger_8h.html" target="_top" xlink:title="util/logging/Logger.h">
<polygon fill="white" stroke="black" points="1095.42,-112.5 1095.42,-131.5 1208.42,-131.5 1208.42,-112.5 1095.42,-112.5"/>
<text text-anchor="middle" x="1151.92" y="-119.5" font-family="Helvetica,sans-Serif" font-size="10.00">util/logging/Logger.h</text>
</a>
</g>
</g>
<!-- Node14&#45;&gt;Node24 -->
<g id="edge29" class="edge"><title>Node14&#45;&gt;Node24</title>
<path fill="none" stroke="midnightblue" d="M905.054,-179.702C955.835,-168.038 1048.39,-146.781 1104.61,-133.868"/>
<polygon fill="midnightblue" stroke="midnightblue" points="1105.7,-137.208 1114.66,-131.558 1104.13,-130.386 1105.7,-137.208"/>
</g>
<!-- Node15&#45;&gt;Node11 -->
<g id="edge25" class="edge"><title>Node15&#45;&gt;Node11</title>
<path fill="none" stroke="midnightblue" d="M795.816,-112.473C692.076,-100.374 506.812,-78.7666 435.253,-70.4206"/>
<polygon fill="midnightblue" stroke="midnightblue" points="435.496,-66.9253 425.157,-69.2432 434.685,-73.8781 435.496,-66.9253"/>
</g>
<!-- Node15&#45;&gt;Node12 -->
<g id="edge28" class="edge"><title>Node15&#45;&gt;Node12</title>
<path fill="none" stroke="midnightblue" d="M793.143,-115.417C777.529,-114.277 761.194,-113.093 745.924,-112 512.967,-95.3255 232.482,-75.9299 136.799,-69.3327"/>
<polygon fill="midnightblue" stroke="midnightblue" points="136.79,-65.8239 126.573,-68.6279 136.309,-72.8073 136.79,-65.8239"/>
</g>
<!-- Node15&#45;&gt;Node16 -->
<g id="edge16" class="edge"><title>Node15&#45;&gt;Node16</title>
<path fill="none" stroke="midnightblue" d="M878.404,-112.324C887.125,-104.341 900.268,-92.3128 910.822,-82.6529"/>
<polygon fill="midnightblue" stroke="midnightblue" points="913.259,-85.1674 918.272,-75.8339 908.533,-80.0036 913.259,-85.1674"/>
</g>
<!-- Node15&#45;&gt;Node21 -->
<g id="edge24" class="edge"><title>Node15&#45;&gt;Node21</title>
<path fill="none" stroke="midnightblue" d="M868.924,-112.368C868.924,-94.617 868.924,-53.6664 868.924,-29.5974"/>
<polygon fill="midnightblue" stroke="midnightblue" points="872.424,-29.5914 868.924,-19.5914 865.424,-29.5915 872.424,-29.5914"/>
</g>
<!-- Node22 -->
<g id="node22" class="node"><title>Node22</title>
<polygon fill="white" stroke="#bfbfbf" points="754.924,-0.5 754.924,-19.5 786.924,-19.5 786.924,-0.5 754.924,-0.5"/>
<text text-anchor="middle" x="770.924" y="-7.5" font-family="Helvetica,sans-Serif" font-size="10.00">set</text>
</g>
<!-- Node15&#45;&gt;Node22 -->
<g id="edge26" class="edge"><title>Node15&#45;&gt;Node22</title>
<path fill="none" stroke="midnightblue" d="M843.774,-112.488C826.286,-105.34 803.722,-93.4626 789.924,-76 779.342,-62.6067 774.651,-43.4981 772.574,-29.4649"/>
<polygon fill="midnightblue" stroke="midnightblue" points="776.047,-29.0286 771.405,-19.5047 769.094,-29.8445 776.047,-29.0286"/>
</g>
<!-- Node23 -->
<g id="node23" class="node"><title>Node23</title>
<polygon fill="white" stroke="#bfbfbf" points="798.924,-56.5 798.924,-75.5 840.924,-75.5 840.924,-56.5 798.924,-56.5"/>
<text text-anchor="middle" x="819.924" y="-63.5" font-family="Helvetica,sans-Serif" font-size="10.00">utility</text>
</g>
<!-- Node15&#45;&gt;Node23 -->
<g id="edge27" class="edge"><title>Node15&#45;&gt;Node23</title>
<path fill="none" stroke="midnightblue" d="M860.833,-112.083C853.769,-104.298 843.337,-92.8015 834.775,-83.3665"/>
<polygon fill="midnightblue" stroke="midnightblue" points="837.177,-80.8047 827.865,-75.7511 831.993,-85.5087 837.177,-80.8047"/>
</g>
<!-- Node16&#45;&gt;Node13 -->
<g id="edge23" class="edge"><title>Node16&#45;&gt;Node13</title>
<path fill="none" stroke="midnightblue" d="M952.648,-75.5045C985.346,-88.5335 1043.93,-113.832 1094.92,-132 1221.73,-177.182 1373.32,-220.645 1453.67,-243.622"/>
<polygon fill="midnightblue" stroke="midnightblue" points="1453,-247.072 1463.58,-246.456 1454.93,-240.341 1453,-247.072"/>
</g>
<!-- Node16&#45;&gt;Node17 -->
<g id="edge17" class="edge"><title>Node16&#45;&gt;Node17</title>
<path fill="none" stroke="midnightblue" d="M958.503,-57.5262C961.34,-56.959 964.18,-56.4381 966.924,-56 1115.51,-32.2836 1291.08,-20.0895 1389.67,-14.6628"/>
<polygon fill="midnightblue" stroke="midnightblue" points="1390.05,-18.1476 1399.84,-14.1119 1389.67,-11.1579 1390.05,-18.1476"/>
</g>
<!-- Node18 -->
<g id="node18" class="node"><title>Node18</title>
<polygon fill="white" stroke="#bfbfbf" points="909.924,-0.5 909.924,-19.5 995.924,-19.5 995.924,-0.5 909.924,-0.5"/>
<text text-anchor="middle" x="952.924" y="-7.5" font-family="Helvetica,sans-Serif" font-size="10.00">carl/util/hash.h</text>
</g>
<!-- Node16&#45;&gt;Node18 -->
<g id="edge18" class="edge"><title>Node16&#45;&gt;Node18</title>
<path fill="none" stroke="midnightblue" d="M932.053,-56.083C935.438,-48.77 940.34,-38.1814 944.543,-29.1034"/>
<polygon fill="midnightblue" stroke="midnightblue" points="947.848,-30.2962 948.873,-19.7511 941.495,-27.3553 947.848,-30.2962"/>
</g>
<!-- Node19 -->
<g id="node19" class="node"><title>Node19</title>
<polygon fill="white" stroke="#bfbfbf" points="1013.92,-0.5 1013.92,-19.5 1117.92,-19.5 1117.92,-0.5 1013.92,-0.5"/>
<text text-anchor="middle" x="1065.92" y="-7.5" font-family="Helvetica,sans-Serif" font-size="10.00">eigen3/Eigen/Core</text>
</g>
<!-- Node16&#45;&gt;Node19 -->
<g id="edge19" class="edge"><title>Node16&#45;&gt;Node19</title>
<path fill="none" stroke="midnightblue" d="M949.791,-56.4435C972.704,-47.4776 1008.9,-33.314 1034.79,-23.1827"/>
<polygon fill="midnightblue" stroke="midnightblue" points="1036.12,-26.4198 1044.16,-19.5164 1033.57,-19.9011 1036.12,-26.4198"/>
</g>
<!-- Node16&#45;&gt;Node20 -->
<g id="edge20" class="edge"><title>Node16&#45;&gt;Node20</title>
<path fill="none" stroke="midnightblue" d="M958.487,-57.4167C961.327,-56.8725 964.172,-56.3868 966.924,-56 1119.36,-34.5764 1584.06,-18.4194 1757.62,-12.9848"/>
<polygon fill="midnightblue" stroke="midnightblue" points="1757.75,-16.4824 1767.64,-12.6728 1757.53,-9.48576 1757.75,-16.4824"/>
</g>
<!-- Node16&#45;&gt;Node21 -->
<g id="edge21" class="edge"><title>Node16&#45;&gt;Node21</title>
<path fill="none" stroke="midnightblue" d="M918.445,-56.324C909.723,-48.3414 896.581,-36.3128 886.027,-26.6529"/>
<polygon fill="midnightblue" stroke="midnightblue" points="888.316,-24.0036 878.576,-19.8339 883.59,-29.1674 888.316,-24.0036"/>
</g>
<!-- Node16&#45;&gt;Node22 -->
<g id="edge22" class="edge"><title>Node16&#45;&gt;Node22</title>
<path fill="none" stroke="midnightblue" d="M903.047,-56.4435C873.965,-46.4409 826.076,-29.9692 796.638,-19.8444"/>
<polygon fill="midnightblue" stroke="midnightblue" points="797.652,-16.4916 787.057,-16.5488 795.375,-23.111 797.652,-16.4916"/>
</g>
<!-- Node24&#45;&gt;Node5 -->
<g id="edge30" class="edge"><title>Node24&#45;&gt;Node5</title>
<path fill="none" stroke="midnightblue" d="M1095.11,-113.996C1004.69,-102.848 830.361,-81.3552 752.789,-71.7915"/>
<polygon fill="midnightblue" stroke="midnightblue" points="752.857,-68.2735 742.504,-70.5235 752,-75.2209 752.857,-68.2735"/>
</g>
<!-- Node25 -->
<g id="node25" class="node"><title>Node25</title>
<polygon fill="white" stroke="#bfbfbf" points="1510.92,-56.5 1510.92,-75.5 1664.92,-75.5 1664.92,-56.5 1510.92,-56.5"/>
<text text-anchor="middle" x="1587.92" y="-63.5" font-family="Helvetica,sans-Serif" font-size="10.00">carl/io/streamingOperators.h</text>
</g>
<!-- Node24&#45;&gt;Node25 -->
<g id="edge31" class="edge"><title>Node24&#45;&gt;Node25</title>
<path fill="none" stroke="midnightblue" d="M1208.48,-113.996C1285.16,-104.498 1422.49,-87.4898 1509.21,-76.7487"/>
<polygon fill="midnightblue" stroke="midnightblue" points="1509.78,-80.2059 1519.27,-75.5032 1508.91,-73.2589 1509.78,-80.2059"/>
</g>
<!-- Node26 -->
<g id="node26" class="node"><title>Node26</title>
<polygon fill="white" stroke="#bfbfbf" points="976.424,-56.5 976.424,-75.5 1035.42,-75.5 1035.42,-56.5 976.424,-56.5"/>
<text text-anchor="middle" x="1005.92" y="-63.5" font-family="Helvetica,sans-Serif" font-size="10.00">iostream</text>
</g>
<!-- Node24&#45;&gt;Node26 -->
<g id="edge32" class="edge"><title>Node24&#45;&gt;Node26</title>
<path fill="none" stroke="midnightblue" d="M1128.79,-112.444C1104.44,-103.438 1065.92,-89.1891 1038.5,-79.049"/>
<polygon fill="midnightblue" stroke="midnightblue" points="1039.54,-75.7028 1028.95,-75.5164 1037.12,-82.2681 1039.54,-75.7028"/>
</g>
<!-- Node27 -->
<g id="node27" class="node"><title>Node27</title>
<polygon fill="white" stroke="#bfbfbf" points="1053.92,-56.5 1053.92,-75.5 1109.92,-75.5 1109.92,-56.5 1053.92,-56.5"/>
<text text-anchor="middle" x="1081.92" y="-63.5" font-family="Helvetica,sans-Serif" font-size="10.00">sstream</text>
</g>
<!-- Node24&#45;&gt;Node27 -->
<g id="edge33" class="edge"><title>Node24&#45;&gt;Node27</title>
<path fill="none" stroke="midnightblue" d="M1140.68,-112.324C1130.13,-104.185 1114.12,-91.8395 1101.48,-82.0874"/>
<polygon fill="midnightblue" stroke="midnightblue" points="1103.43,-79.1707 1093.38,-75.8339 1099.16,-84.7132 1103.43,-79.1707"/>
</g>
<!-- Node28 -->
<g id="node28" class="node"><title>Node28</title>
<polygon fill="white" stroke="#bfbfbf" points="1127.92,-56.5 1127.92,-75.5 1175.92,-75.5 1175.92,-56.5 1127.92,-56.5"/>
<text text-anchor="middle" x="1151.92" y="-63.5" font-family="Helvetica,sans-Serif" font-size="10.00">thread</text>
</g>
<!-- Node24&#45;&gt;Node28 -->
<g id="edge34" class="edge"><title>Node24&#45;&gt;Node28</title>
<path fill="none" stroke="midnightblue" d="M1151.92,-112.083C1151.92,-105.006 1151.92,-94.8611 1151.92,-85.9865"/>
<polygon fill="midnightblue" stroke="midnightblue" points="1155.42,-85.751 1151.92,-75.7511 1148.42,-85.7511 1155.42,-85.751"/>
</g>
<!-- Node29 -->
<g id="node29" class="node"><title>Node29</title>
<polygon fill="white" stroke="#bfbfbf" points="1194.42,-56.5 1194.42,-75.5 1319.42,-75.5 1319.42,-56.5 1194.42,-56.5"/>
<text text-anchor="middle" x="1256.92" y="-63.5" font-family="Helvetica,sans-Serif" font-size="10.00">carl/core/carlLogging.h</text>
</g>
<!-- Node24&#45;&gt;Node29 -->
<g id="edge35" class="edge"><title>Node24&#45;&gt;Node29</title>
<path fill="none" stroke="midnightblue" d="M1168.79,-112.324C1185.63,-103.664 1211.73,-90.2424 1231.16,-80.249"/>
<polygon fill="midnightblue" stroke="midnightblue" points="1232.8,-83.3405 1240.1,-75.6545 1229.6,-77.1155 1232.8,-83.3405"/>
</g>
<!-- Node30 -->
<g id="node30" class="node"><title>Node30</title>
<polygon fill="white" stroke="#bfbfbf" points="1337.42,-56.5 1337.42,-75.5 1492.42,-75.5 1492.42,-56.5 1337.42,-56.5"/>
<text text-anchor="middle" x="1414.92" y="-63.5" font-family="Helvetica,sans-Serif" font-size="10.00">carl/core/carlLoggingHelper.h</text>
</g>
<!-- Node24&#45;&gt;Node30 -->
<g id="edge36" class="edge"><title>Node24&#45;&gt;Node30</title>
<path fill="none" stroke="midnightblue" d="M1193.6,-112.444C1239.67,-102.984 1313.92,-87.7384 1363.56,-77.5472"/>
<polygon fill="midnightblue" stroke="midnightblue" points="1364.35,-80.9563 1373.45,-75.5164 1362.95,-74.0993 1364.35,-80.9563"/>
</g>
<!-- Node36&#45;&gt;Node16 -->
<g id="edge47" class="edge"><title>Node36&#45;&gt;Node16</title>
<path fill="none" stroke="midnightblue" d="M1070.15,-246.383C1059.04,-236.929 1044.99,-223.736 1034.92,-210 1006.25,-170.883 1017.7,-149.487 986.924,-112 976.959,-99.8598 963.103,-89.0764 951.323,-81.1111"/>
<polygon fill="midnightblue" stroke="midnightblue" points="953.113,-78.0998 942.818,-75.5934 949.303,-83.9723 953.113,-78.0998"/>
</g>
<!-- Node37&#45;&gt;Node4 -->
<g id="edge51" class="edge"><title>Node37&#45;&gt;Node4</title>
<path fill="none" stroke="midnightblue" d="M457.614,-251.855C453.484,-241.073 446.314,-222.35 440.941,-208.32"/>
<polygon fill="midnightblue" stroke="midnightblue" points="444.107,-206.802 437.262,-198.715 437.57,-209.306 444.107,-206.802"/>
</g>
<!-- Node37&#45;&gt;Node12 -->
<g id="edge53" class="edge"><title>Node37&#45;&gt;Node12</title>
<path fill="none" stroke="midnightblue" d="M435.895,-257.403C375.612,-248.69 220.726,-218.676 130.924,-132 117.961,-119.488 110.662,-99.9858 106.792,-85.6049"/>
<polygon fill="midnightblue" stroke="midnightblue" points="110.18,-84.7264 104.463,-75.8067 103.37,-86.3451 110.18,-84.7264"/>
</g>
<!-- Node37&#45;&gt;Node14 -->
<g id="edge49" class="edge"><title>Node37&#45;&gt;Node14</title>
<path fill="none" stroke="midnightblue" d="M486.139,-256.143C553.169,-244.561 736.537,-212.876 822.849,-197.962"/>
<polygon fill="midnightblue" stroke="midnightblue" points="823.621,-201.38 832.879,-196.228 822.429,-194.482 823.621,-201.38"/>
</g>
<!-- Node37&#45;&gt;Node16 -->
<g id="edge50" class="edge"><title>Node37&#45;&gt;Node16</title>
<path fill="none" stroke="midnightblue" d="M486.129,-254.136C586.063,-228.876 949.202,-136.82 952.924,-132 964.063,-117.578 953.421,-97.6074 942.783,-83.6206"/>
<polygon fill="midnightblue" stroke="midnightblue" points="945.405,-81.2979 936.355,-75.7882 939.994,-85.7387 945.405,-81.2979"/>
</g>
<!-- Node37&#45;&gt;Node22 -->
<g id="edge52" class="edge"><title>Node37&#45;&gt;Node22</title>
<path fill="none" stroke="midnightblue" d="M435.789,-259.621C344.703,-256.182 35.7478,-242.207 6.92433,-210 -5.52403,-196.09 2.19417,-186.057 6.92433,-168 21.3967,-112.752 21.5737,-86.3981 69.9243,-56 127.93,-19.5319 624.32,-12.4128 744.705,-11.2178"/>
<polygon fill="midnightblue" stroke="midnightblue" points="744.889,-14.7164 754.856,-11.1225 744.823,-7.71667 744.889,-14.7164"/>
</g>
<!-- Node38 -->
<g id="node38" class="node"><title>Node38</title>
<polygon fill="white" stroke="#bfbfbf" points="16.4243,-179.5 16.4243,-198.5 75.4243,-198.5 75.4243,-179.5 16.4243,-179.5"/>
<text text-anchor="middle" x="45.9243" y="-186.5" font-family="Helvetica,sans-Serif" font-size="10.00">Point.tpp</text>
</g>
<!-- Node37&#45;&gt;Node38 -->
<g id="edge54" class="edge"><title>Node37&#45;&gt;Node38</title>
<path fill="none" stroke="midnightblue" d="M435.658,-259.587C374.922,-256.853 216.396,-246.498 89.9243,-210 83.5755,-208.168 76.9691,-205.57 70.8642,-202.852"/>
<polygon fill="midnightblue" stroke="midnightblue" points="72.3305,-199.673 61.793,-198.572 69.3439,-206.004 72.3305,-199.673"/>
</g>
</g>
</svg>
        <g id="navigator" transform="translate(0 0)" fill="#404254">
                <rect fill="#f2f5e9" fill-opacity="0.5" stroke="#606060" stroke-width=".5" x="0" y="0" width="60" height="60"/>
                <use id="zoomplus" xlink:href="#zoomPlus" x="17" y="9" onmousedown="handleZoom(evt,'in')"/>
                <use id="zoomminus" xlink:href="#zoomMin" x="42" y="9" onmousedown="handleZoom(evt,'out')"/>
                <use id="reset" xlink:href="#resetDef" x="30" y="36" onmousedown="handleReset()"/>
                <g id="arrowUp" xlink:href="#dirArrow" transform="translate(30 24)" onmousedown="handlePan(0,-1)">
                  <use xlink:href="#rim" fill="#404040">
                        <set attributeName="fill" to="#808080" begin="arrowUp.mouseover" end="arrowUp.mouseout"/>
                  </use>
                  <path fill="none" stroke="white" stroke-width="1.5" d="M0,-3.0v7 M-2.5,-0.5L0,-3.0L2.5,-0.5"/>
                </g>
                <g id="arrowRight" xlink:href="#dirArrow" transform="rotate(90) translate(36 -43)" onmousedown="handlePan(1,0)">
                  <use xlink:href="#rim" fill="#404040">
                        <set attributeName="fill" to="#808080" begin="arrowRight.mouseover" end="arrowRight.mouseout"/>
                  </use>
                  <path fill="none" stroke="white" stroke-width="1.5" d="M0,-3.0v7 M-2.5,-0.5L0,-3.0L2.5,-0.5"/>
                </g>
                <g id="arrowDown" xlink:href="#dirArrow" transform="rotate(180) translate(-30 -48)" onmousedown="handlePan(0,1)">
                  <use xlink:href="#rim" fill="#404040">
                        <set attributeName="fill" to="#808080" begin="arrowDown.mouseover" end="arrowDown.mouseout"/>
                  </use>
                  <path fill="none" stroke="white" stroke-width="1.5" d="M0,-3.0v7 M-2.5,-0.5L0,-3.0L2.5,-0.5"/>
                </g>
                <g id="arrowLeft" xlink:href="#dirArrow" transform="rotate(270) translate(-36 17)" onmousedown="handlePan(-1,0)">
                  <use xlink:href="#rim" fill="#404040">
                        <set attributeName="fill" to="#808080" begin="arrowLeft.mouseover" end="arrowLeft.mouseout"/>
                  </use>
                  <path fill="none" stroke="white" stroke-width="1.5" d="M0,-3.0v7 M-2.5,-0.5L0,-3.0L2.5,-0.5"/>
                </g>
        </g>
        <svg viewBox="0 0 15 15" width="100%" height="30px" preserveAspectRatio="xMaxYMin meet">
         <g id="arrow_out" transform="scale(0.3 0.3)">
          <a xlink:href="representations_2Polytopes_2VPolytope_2util_8h__incl_org.svg" target="_base">
           <rect id="button" ry="5" rx="5" y="6" x="6" height="38" width="38"
                fill="#f2f5e9" fill-opacity="0.5" stroke="#606060" stroke-width="1.0"/>
           <path id="arrow"
             d="M 11.500037,31.436501 C 11.940474,20.09759 22.043105,11.32322 32.158766,21.979434 L 37.068811,17.246167 C 37.068811,17.246167 37.088388,32 37.088388,32 L 22.160133,31.978069 C 22.160133,31.978069 26.997745,27.140456 26.997745,27.140456 C 18.528582,18.264221 13.291696,25.230495 11.500037,31.436501 z"
             style="fill:#404040;"/>
          </a>
         </g>
        </svg>
</svg>
