<?xml version="1.0" encoding="UTF-8" standalone="no"?>
<!DOCTYPE svg PUBLIC "-//W3C//DTD SVG 1.1//EN"
 "http://www.w3.org/Graphics/SVG/1.1/DTD/svg11.dtd">
<!-- Generated by graphviz version 2.38.0 (20140413.2041)
 -->
<!-- Title: /home/travis/build/hypro/hypro/src/hypro/representations/Polytopes/carlPolytope/util.h Pages: 1 -->
<!--zoomable 452 -->
<svg id="main" version="1.1" xmlns="http://www.w3.org/2000/svg" xmlns:xlink="http://www.w3.org/1999/xlink" xml:space="preserve" onload="init(evt)">
<style type="text/css"><![CDATA[
.edge:hover path { stroke: red; }
.edge:hover polygon { stroke: red; fill: red; }
]]></style>
<script type="text/javascript"><![CDATA[
var edges = document.getElementsByTagName('g');
if (edges && edges.length) {
  for (var i=0;i<edges.length;i++) {
    if (edges[i].id.substr(0,4)=='edge') {
      edges[i].setAttribute('class','edge');
    }
  }
}
]]></script>
        <defs>
                <circle id="rim" cx="0" cy="0" r="7"/>
                <circle id="rim2" cx="0" cy="0" r="3.5"/>
                <g id="zoomPlus">
                        <use xlink:href="#rim" fill="#404040">
                                <set attributeName="fill" to="#808080" begin="zoomplus.mouseover" end="zoomplus.mouseout"/>
                        </use>
                        <path d="M-4,0h8M0,-4v8" fill="none" stroke="white" stroke-width="1.5" pointer-events="none"/>
                </g>
                <g id="zoomMin">
                        <use xlink:href="#rim" fill="#404040">
                                <set attributeName="fill" to="#808080" begin="zoomminus.mouseover" end="zoomminus.mouseout"/>
                        </use>
                        <path d="M-4,0h8" fill="none" stroke="white" stroke-width="1.5" pointer-events="none"/>
                </g>
                <g id="dirArrow">
                        <path fill="none" stroke="white" stroke-width="1.5" d="M0,-3.0v7 M-2.5,-0.5L0,-3.0L2.5,-0.5"/>
                </g>
               <g id="resetDef">
                       <use xlink:href="#rim2" fill="#404040">
                               <set attributeName="fill" to="#808080" begin="reset.mouseover" end="reset.mouseout"/>
                       </use>
               </g>
        </defs>

<script type="text/javascript">
var viewWidth = 2258;
var viewHeight = 452;
var sectionId = 'dynsection-0';
</script>
<script xlink:href="svgpan.js"/>
<svg id="graph" class="graph">
<g id="viewport">
<title>/home/travis/build/hypro/hypro/src/hypro/representations/Polytopes/carlPolytope/util.h</title>
<polygon fill="white" stroke="none" points="-4,4 -4,-448 2254,-448 2254,4 -4,4"/>
<!-- Node1 -->
<g id="node1" class="node"><title>Node1</title>
<polygon fill="#bfbfbf" stroke="black" points="1429.5,-391.5 1429.5,-443.5 1574.5,-443.5 1574.5,-391.5 1429.5,-391.5"/>
<text text-anchor="start" x="1437.5" y="-431.5" font-family="Helvetica,sans-Serif" font-size="10.00">/home/travis/build</text>
<text text-anchor="start" x="1437.5" y="-420.5" font-family="Helvetica,sans-Serif" font-size="10.00">/hypro/hypro/src/hypro</text>
<text text-anchor="start" x="1437.5" y="-409.5" font-family="Helvetica,sans-Serif" font-size="10.00">/representations/Polytopes</text>
<text text-anchor="middle" x="1502" y="-398.5" font-family="Helvetica,sans-Serif" font-size="10.00">/carlPolytope/util.h</text>
</g>
<!-- Node2 -->
<g id="node2" class="node"><title>Node2</title>
<g id="a_node2"><a xlink:href="carlTypes_8h.html" target="_top" xlink:title="../../../carlTypes.h">
<polygon fill="white" stroke="black" points="365,-330 365,-349 461,-349 461,-330 365,-330"/>
<text text-anchor="middle" x="413" y="-337" font-family="Helvetica,sans-Serif" font-size="10.00">../../../carlTypes.h</text>
</a>
</g>
</g>
<!-- Node1&#45;&gt;Node2 -->
<g id="edge1" class="edge"><title>Node1&#45;&gt;Node2</title>
<path fill="none" stroke="midnightblue" d="M1429.28,-411.425C1226.19,-397.252 655.792,-357.444 471.335,-344.571"/>
<polygon fill="midnightblue" stroke="midnightblue" points="471.512,-341.075 461.292,-343.87 471.024,-348.058 471.512,-341.075"/>
</g>
<!-- Node5 -->
<g id="node5" class="node"><title>Node5</title>
<g id="a_node5"><a xlink:href="Halfspace_8h.html" target="_top" xlink:title="../../../datastructures\l/Halfspace.h">
<polygon fill="white" stroke="black" points="1445,-324.5 1445,-354.5 1559,-354.5 1559,-324.5 1445,-324.5"/>
<text text-anchor="start" x="1453" y="-342.5" font-family="Helvetica,sans-Serif" font-size="10.00">../../../datastructures</text>
<text text-anchor="middle" x="1502" y="-331.5" font-family="Helvetica,sans-Serif" font-size="10.00">/Halfspace.h</text>
</a>
</g>
</g>
<!-- Node1&#45;&gt;Node5 -->
<g id="edge4" class="edge"><title>Node1&#45;&gt;Node5</title>
<path fill="none" stroke="midnightblue" d="M1502,-391.193C1502,-382.786 1502,-373.443 1502,-365.091"/>
<polygon fill="midnightblue" stroke="midnightblue" points="1505.5,-364.845 1502,-354.845 1498.5,-364.845 1505.5,-364.845"/>
</g>
<!-- Node7 -->
<g id="node7" class="node"><title>Node7</title>
<g id="a_node7"><a xlink:href="VariablePool_8h.html" target="_top" xlink:title="../util/VariablePool.h">
<polygon fill="white" stroke="black" points="1696,-190.5 1696,-209.5 1806,-209.5 1806,-190.5 1696,-190.5"/>
<text text-anchor="middle" x="1751" y="-197.5" font-family="Helvetica,sans-Serif" font-size="10.00">../util/VariablePool.h</text>
</a>
</g>
</g>
<!-- Node1&#45;&gt;Node7 -->
<g id="edge61" class="edge"><title>Node1&#45;&gt;Node7</title>
<path fill="none" stroke="midnightblue" d="M1574.77,-396.241C1628.67,-377.298 1699.23,-343.435 1738,-288 1752.13,-267.799 1753.61,-238.484 1752.77,-219.58"/>
<polygon fill="midnightblue" stroke="midnightblue" points="1756.26,-219.295 1752.07,-209.565 1749.28,-219.785 1756.26,-219.295"/>
</g>
<!-- Node3 -->
<g id="node3" class="node"><title>Node3</title>
<polygon fill="white" stroke="#bfbfbf" points="324.5,-263 324.5,-282 501.5,-282 501.5,-263 324.5,-263"/>
<text text-anchor="middle" x="413" y="-270" font-family="Helvetica,sans-Serif" font-size="10.00">carl/core/MultivariatePolynomial.h</text>
</g>
<!-- Node2&#45;&gt;Node3 -->
<g id="edge2" class="edge"><title>Node2&#45;&gt;Node3</title>
<path fill="none" stroke="midnightblue" d="M413,-329.734C413,-320.183 413,-304.618 413,-292.283"/>
<polygon fill="midnightblue" stroke="midnightblue" points="416.5,-292.127 413,-282.127 409.5,-292.127 416.5,-292.127"/>
</g>
<!-- Node4 -->
<g id="node4" class="node"><title>Node4</title>
<polygon fill="white" stroke="#bfbfbf" points="181.5,-263 181.5,-282 306.5,-282 306.5,-263 181.5,-263"/>
<text text-anchor="middle" x="244" y="-270" font-family="Helvetica,sans-Serif" font-size="10.00">carl/formula/Formula.h</text>
</g>
<!-- Node2&#45;&gt;Node4 -->
<g id="edge3" class="edge"><title>Node2&#45;&gt;Node4</title>
<path fill="none" stroke="midnightblue" d="M390.558,-329.869C361.183,-318.571 309.51,-298.696 276.028,-285.818"/>
<polygon fill="midnightblue" stroke="midnightblue" points="276.855,-282.387 266.266,-282.064 274.343,-288.92 276.855,-282.387"/>
</g>
<!-- Node6 -->
<g id="node6" class="node"><title>Node6</title>
<g id="a_node6"><a xlink:href="representations_2types_8h.html" target="_top" xlink:title="../representations\l/types.h">
<polygon fill="white" stroke="black" points="1602.5,-257.5 1602.5,-287.5 1703.5,-287.5 1703.5,-257.5 1602.5,-257.5"/>
<text text-anchor="start" x="1610.5" y="-275.5" font-family="Helvetica,sans-Serif" font-size="10.00">../representations</text>
<text text-anchor="middle" x="1653" y="-264.5" font-family="Helvetica,sans-Serif" font-size="10.00">/types.h</text>
</a>
</g>
</g>
<!-- Node5&#45;&gt;Node6 -->
<g id="edge5" class="edge"><title>Node5&#45;&gt;Node6</title>
<path fill="none" stroke="midnightblue" d="M1534.76,-324.396C1557.12,-314.771 1586.94,-301.936 1611.04,-291.564"/>
<polygon fill="midnightblue" stroke="midnightblue" points="1612.5,-294.745 1620.3,-287.577 1609.73,-288.316 1612.5,-294.745"/>
</g>
<!-- Node5&#45;&gt;Node7 -->
<g id="edge6" class="edge"><title>Node5&#45;&gt;Node7</title>
<path fill="none" stroke="midnightblue" d="M1559.32,-338.076C1605.35,-334.858 1669.15,-323.56 1712,-288 1732.97,-270.6 1743.1,-239.606 1747.65,-219.694"/>
<polygon fill="midnightblue" stroke="midnightblue" points="1751.13,-220.18 1749.69,-209.683 1744.27,-218.784 1751.13,-220.18"/>
</g>
<!-- Node13 -->
<g id="node13" class="node"><title>Node13</title>
<polygon fill="white" stroke="#bfbfbf" points="2198,-118 2198,-137 2250,-137 2250,-118 2198,-118"/>
<text text-anchor="middle" x="2224" y="-125" font-family="Helvetica,sans-Serif" font-size="10.00">cassert</text>
</g>
<!-- Node5&#45;&gt;Node13 -->
<g id="edge58" class="edge"><title>Node5&#45;&gt;Node13</title>
<path fill="none" stroke="midnightblue" d="M1559.13,-327.943C1607.16,-318.668 1677.48,-304.16 1738,-288 1941.42,-233.681 1991.35,-215.576 2189,-143 2190.85,-142.32 2192.75,-141.6 2194.66,-140.859"/>
<polygon fill="midnightblue" stroke="midnightblue" points="2196.14,-144.036 2204.12,-137.065 2193.54,-137.538 2196.14,-144.036"/>
</g>
<!-- Node16 -->
<g id="node16" class="node"><title>Node16</title>
<g id="a_node16"><a xlink:href="adaptions__eigen_8h.html" target="_top" xlink:title="../util/adaptions_eigen\l/adaptions_eigen.h">
<polygon fill="white" stroke="black" points="520,-257.5 520,-287.5 642,-287.5 642,-257.5 520,-257.5"/>
<text text-anchor="start" x="528" y="-275.5" font-family="Helvetica,sans-Serif" font-size="10.00">../util/adaptions_eigen</text>
<text text-anchor="middle" x="581" y="-264.5" font-family="Helvetica,sans-Serif" font-size="10.00">/adaptions_eigen.h</text>
</a>
</g>
</g>
<!-- Node5&#45;&gt;Node16 -->
<g id="edge15" class="edge"><title>Node5&#45;&gt;Node16</title>
<path fill="none" stroke="midnightblue" d="M1444.74,-334.459C1284.06,-323.119 829.214,-291.018 652.475,-278.544"/>
<polygon fill="midnightblue" stroke="midnightblue" points="652.47,-275.035 642.248,-277.823 651.977,-282.018 652.47,-275.035"/>
</g>
<!-- Node39 -->
<g id="node39" class="node"><title>Node39</title>
<g id="a_node39"><a xlink:href="EvaluationResult_8h.html" target="_top" xlink:title="../util/linearOptimization\l/EvaluationResult.h">
<polygon fill="white" stroke="black" points="1174,-112.5 1174,-142.5 1304,-142.5 1304,-112.5 1174,-112.5"/>
<text text-anchor="start" x="1182" y="-130.5" font-family="Helvetica,sans-Serif" font-size="10.00">../util/linearOptimization</text>
<text text-anchor="middle" x="1239" y="-119.5" font-family="Helvetica,sans-Serif" font-size="10.00">/EvaluationResult.h</text>
</a>
</g>
</g>
<!-- Node5&#45;&gt;Node39 -->
<g id="edge49" class="edge"><title>Node5&#45;&gt;Node39</title>
<path fill="none" stroke="midnightblue" d="M1444.85,-326.074C1417.67,-318.241 1385.78,-306.098 1361,-288 1309.79,-250.595 1269.76,-185.819 1250.88,-151.453"/>
<polygon fill="midnightblue" stroke="midnightblue" points="1253.94,-149.761 1246.12,-142.615 1247.78,-153.079 1253.94,-149.761"/>
</g>
<!-- Node40 -->
<g id="node40" class="node"><title>Node40</title>
<g id="a_node40"><a xlink:href="Point_8h.html" target="_top" xlink:title="Point.h">
<polygon fill="white" stroke="black" points="1370,-263 1370,-282 1420,-282 1420,-263 1370,-263"/>
<text text-anchor="middle" x="1395" y="-270" font-family="Helvetica,sans-Serif" font-size="10.00">Point.h</text>
</a>
</g>
</g>
<!-- Node5&#45;&gt;Node40 -->
<g id="edge51" class="edge"><title>Node5&#45;&gt;Node40</title>
<path fill="none" stroke="midnightblue" d="M1478.78,-324.396C1460.67,-313.395 1435.66,-298.2 1417.69,-287.282"/>
<polygon fill="midnightblue" stroke="midnightblue" points="1419.37,-284.208 1409,-282.007 1415.73,-290.19 1419.37,-284.208"/>
</g>
<!-- Node42 -->
<g id="node42" class="node"><title>Node42</title>
<polygon fill="white" stroke="#bfbfbf" points="1438.5,-263 1438.5,-282 1483.5,-282 1483.5,-263 1438.5,-263"/>
<text text-anchor="middle" x="1461" y="-270" font-family="Helvetica,sans-Serif" font-size="10.00">glpk.h</text>
</g>
<!-- Node5&#45;&gt;Node42 -->
<g id="edge59" class="edge"><title>Node5&#45;&gt;Node42</title>
<path fill="none" stroke="midnightblue" d="M1493.1,-324.396C1486.9,-314.562 1478.58,-301.378 1471.97,-290.892"/>
<polygon fill="midnightblue" stroke="midnightblue" points="1474.78,-288.785 1466.48,-282.195 1468.86,-292.52 1474.78,-288.785"/>
</g>
<!-- Node43 -->
<g id="node43" class="node"><title>Node43</title>
<polygon fill="white" stroke="#bfbfbf" points="1501.5,-263 1501.5,-282 1584.5,-282 1584.5,-263 1501.5,-263"/>
<text text-anchor="middle" x="1543" y="-270" font-family="Helvetica,sans-Serif" font-size="10.00">Halfspace.tpp</text>
</g>
<!-- Node5&#45;&gt;Node43 -->
<g id="edge60" class="edge"><title>Node5&#45;&gt;Node43</title>
<path fill="none" stroke="midnightblue" d="M1510.9,-324.396C1517.1,-314.562 1525.42,-301.378 1532.03,-290.892"/>
<polygon fill="midnightblue" stroke="midnightblue" points="1535.14,-292.52 1537.52,-282.195 1529.22,-288.785 1535.14,-292.52"/>
</g>
<!-- Node8 -->
<g id="node8" class="node"><title>Node8</title>
<g id="a_node8"><a xlink:href="flags_8h.html" target="_top" xlink:title="../flags.h">
<polygon fill="white" stroke="black" points="1277.5,-56.5 1277.5,-75.5 1334.5,-75.5 1334.5,-56.5 1277.5,-56.5"/>
<text text-anchor="middle" x="1306" y="-63.5" font-family="Helvetica,sans-Serif" font-size="10.00">../flags.h</text>
</a>
</g>
</g>
<!-- Node7&#45;&gt;Node8 -->
<g id="edge7" class="edge"><title>Node7&#45;&gt;Node8</title>
<path fill="none" stroke="midnightblue" d="M1695.86,-194.404C1608.36,-186.459 1442.18,-168.52 1389,-143 1359.94,-129.052 1333.86,-101.512 1318.99,-83.695"/>
<polygon fill="midnightblue" stroke="midnightblue" points="1321.64,-81.4044 1312.63,-75.8318 1316.2,-85.8074 1321.64,-81.4044"/>
</g>
<!-- Node9 -->
<g id="node9" class="node"><title>Node9</title>
<polygon fill="white" stroke="#bfbfbf" points="1720,-118 1720,-137 1782,-137 1782,-118 1720,-118"/>
<text text-anchor="middle" x="1751" y="-125" font-family="Helvetica,sans-Serif" font-size="10.00">algorithm</text>
</g>
<!-- Node7&#45;&gt;Node9 -->
<g id="edge8" class="edge"><title>Node7&#45;&gt;Node9</title>
<path fill="none" stroke="midnightblue" d="M1751,-190.355C1751,-179.679 1751,-161.217 1751,-147.234"/>
<polygon fill="midnightblue" stroke="midnightblue" points="1754.5,-147.215 1751,-137.215 1747.5,-147.215 1754.5,-147.215"/>
</g>
<!-- Node10 -->
<g id="node10" class="node"><title>Node10</title>
<polygon fill="white" stroke="#bfbfbf" points="1800,-118 1800,-137 1908,-137 1908,-118 1800,-118"/>
<text text-anchor="middle" x="1854" y="-125" font-family="Helvetica,sans-Serif" font-size="10.00">carl/core/Variable.h</text>
</g>
<!-- Node7&#45;&gt;Node10 -->
<g id="edge9" class="edge"><title>Node7&#45;&gt;Node10</title>
<path fill="none" stroke="midnightblue" d="M1763.63,-190.355C1780.85,-178.569 1811.93,-157.294 1832.77,-143.033"/>
<polygon fill="midnightblue" stroke="midnightblue" points="1834.99,-145.752 1841.27,-137.215 1831.04,-139.975 1834.99,-145.752"/>
</g>
<!-- Node11 -->
<g id="node11" class="node"><title>Node11</title>
<polygon fill="white" stroke="#bfbfbf" points="1926,-118 1926,-137 2054,-137 2054,-118 1926,-118"/>
<text text-anchor="middle" x="1990" y="-125" font-family="Helvetica,sans-Serif" font-size="10.00">carl/core/VariablePool.h</text>
</g>
<!-- Node7&#45;&gt;Node11 -->
<g id="edge10" class="edge"><title>Node7&#45;&gt;Node11</title>
<path fill="none" stroke="midnightblue" d="M1779.83,-190.496C1822.72,-177.845 1903.4,-154.046 1951.36,-139.899"/>
<polygon fill="midnightblue" stroke="midnightblue" points="1952.47,-143.22 1961.07,-137.034 1950.49,-136.506 1952.47,-143.22"/>
</g>
<!-- Node12 -->
<g id="node12" class="node"><title>Node12</title>
<polygon fill="white" stroke="#bfbfbf" points="2072,-118 2072,-137 2180,-137 2180,-118 2072,-118"/>
<text text-anchor="middle" x="2126" y="-125" font-family="Helvetica,sans-Serif" font-size="10.00">carl/util/Singleton.h</text>
</g>
<!-- Node7&#45;&gt;Node12 -->
<g id="edge11" class="edge"><title>Node7&#45;&gt;Node12</title>
<path fill="none" stroke="midnightblue" d="M1803.04,-190.455C1865.1,-180.082 1971.88,-161.651 2063,-143 2068.71,-141.832 2074.69,-140.542 2080.6,-139.227"/>
<polygon fill="midnightblue" stroke="midnightblue" points="2081.43,-142.626 2090.42,-137.008 2079.89,-135.798 2081.43,-142.626"/>
</g>
<!-- Node7&#45;&gt;Node13 -->
<g id="edge12" class="edge"><title>Node7&#45;&gt;Node13</title>
<path fill="none" stroke="midnightblue" d="M1806.18,-196.638C1890.12,-192.002 2054.35,-178.814 2189,-143 2191.45,-142.349 2193.95,-141.566 2196.44,-140.705"/>
<polygon fill="midnightblue" stroke="midnightblue" points="2197.71,-143.966 2205.79,-137.116 2195.2,-137.431 2197.71,-143.966"/>
</g>
<!-- Node14 -->
<g id="node14" class="node"><title>Node14</title>
<polygon fill="white" stroke="#bfbfbf" points="1672,-56.5 1672,-75.5 1710,-75.5 1710,-56.5 1672,-56.5"/>
<text text-anchor="middle" x="1691" y="-63.5" font-family="Helvetica,sans-Serif" font-size="10.00">map</text>
</g>
<!-- Node7&#45;&gt;Node14 -->
<g id="edge13" class="edge"><title>Node7&#45;&gt;Node14</title>
<path fill="none" stroke="midnightblue" d="M1743.09,-190.139C1734.09,-179.609 1719.53,-161.171 1711,-143 1702.32,-124.514 1696.96,-101.665 1693.99,-85.8742"/>
<polygon fill="midnightblue" stroke="midnightblue" points="1697.4,-85.0438 1692.25,-75.7866 1690.51,-86.2368 1697.4,-85.0438"/>
</g>
<!-- Node15 -->
<g id="node15" class="node"><title>Node15</title>
<polygon fill="white" stroke="#bfbfbf" points="1606.5,-56.5 1606.5,-75.5 1653.5,-75.5 1653.5,-56.5 1606.5,-56.5"/>
<text text-anchor="middle" x="1630" y="-63.5" font-family="Helvetica,sans-Serif" font-size="10.00">vector</text>
</g>
<!-- Node7&#45;&gt;Node15 -->
<g id="edge14" class="edge"><title>Node7&#45;&gt;Node15</title>
<path fill="none" stroke="midnightblue" d="M1742.46,-190.385C1731.71,-179.487 1712.75,-160.078 1697,-143 1678.29,-122.706 1657.34,-98.7319 1643.93,-83.2168"/>
<polygon fill="midnightblue" stroke="midnightblue" points="1646.49,-80.8341 1637.31,-75.5445 1641.19,-85.4043 1646.49,-80.8341"/>
</g>
<!-- Node17 -->
<g id="node17" class="node"><title>Node17</title>
<g id="a_node17"><a xlink:href="config_8h.html" target="_top" xlink:title="../../config.h">
<polygon fill="white" stroke="black" points="1028,-190.5 1028,-209.5 1100,-209.5 1100,-190.5 1028,-190.5"/>
<text text-anchor="middle" x="1064" y="-197.5" font-family="Helvetica,sans-Serif" font-size="10.00">../../config.h</text>
</a>
</g>
</g>
<!-- Node16&#45;&gt;Node17 -->
<g id="edge16" class="edge"><title>Node16&#45;&gt;Node17</title>
<path fill="none" stroke="midnightblue" d="M642.172,-262.571C740.209,-248.261 930.36,-220.506 1017.88,-207.732"/>
<polygon fill="midnightblue" stroke="midnightblue" points="1018.39,-211.195 1027.78,-206.287 1017.38,-204.268 1018.39,-211.195"/>
</g>
<!-- Node19 -->
<g id="node19" class="node"><title>Node19</title>
<g id="a_node19"><a xlink:href="types_8h.html" target="_top" xlink:title="../types.h">
<polygon fill="white" stroke="black" points="1352.5,-56.5 1352.5,-75.5 1413.5,-75.5 1413.5,-56.5 1352.5,-56.5"/>
<text text-anchor="middle" x="1383" y="-63.5" font-family="Helvetica,sans-Serif" font-size="10.00">../types.h</text>
</a>
</g>
</g>
<!-- Node16&#45;&gt;Node19 -->
<g id="edge40" class="edge"><title>Node16&#45;&gt;Node19</title>
<path fill="none" stroke="midnightblue" d="M642.311,-268.698C771.51,-262.553 1062.56,-246.385 1100,-221 1145.08,-190.437 1112.57,-144.869 1156,-112 1220.36,-63.2901 1255.07,-92.8597 1334,-76 1336.74,-75.4146 1339.58,-74.7963 1342.47,-74.1691"/>
<polygon fill="midnightblue" stroke="midnightblue" points="1343.3,-77.5713 1352.33,-72.0375 1341.82,-70.7293 1343.3,-77.5713"/>
</g>
<!-- Node20 -->
<g id="node20" class="node"><title>Node20</title>
<polygon fill="white" stroke="#bfbfbf" points="549,-0.5 549,-19.5 683,-19.5 683,-0.5 549,-0.5"/>
<text text-anchor="middle" x="616" y="-7.5" font-family="Helvetica,sans-Serif" font-size="10.00">carl/numbers/numbers.h</text>
</g>
<!-- Node16&#45;&gt;Node20 -->
<g id="edge42" class="edge"><title>Node16&#45;&gt;Node20</title>
<path fill="none" stroke="midnightblue" d="M535.327,-257.457C517.972,-249.646 499.992,-237.972 490,-221 452.796,-157.805 447.756,-115.944 490,-56 501.676,-39.4323 520.031,-28.9307 539.155,-22.2848"/>
<polygon fill="midnightblue" stroke="midnightblue" points="540.39,-25.5659 548.886,-19.2359 538.297,-18.8861 540.39,-25.5659"/>
</g>
<!-- Node23 -->
<g id="node23" class="node"><title>Node23</title>
<polygon fill="white" stroke="#bfbfbf" points="977,-0.5 977,-19.5 1089,-19.5 1089,-0.5 977,-0.5"/>
<text text-anchor="middle" x="1033" y="-7.5" font-family="Helvetica,sans-Serif" font-size="10.00">eigen3/Eigen/Dense</text>
</g>
<!-- Node16&#45;&gt;Node23 -->
<g id="edge43" class="edge"><title>Node16&#45;&gt;Node23</title>
<path fill="none" stroke="midnightblue" d="M556.413,-257.295C543.905,-248.585 529.915,-236.189 523,-221 507.272,-186.452 489.327,-96.585 528,-56 557.671,-24.8621 836.417,-15.0398 966.603,-12.1355"/>
<polygon fill="midnightblue" stroke="midnightblue" points="966.923,-15.6295 976.845,-11.9145 966.772,-8.63111 966.923,-15.6295"/>
</g>
<!-- Node24 -->
<g id="node24" class="node"><title>Node24</title>
<polygon fill="white" stroke="#bfbfbf" points="1349,-0.5 1349,-19.5 1395,-19.5 1395,-0.5 1349,-0.5"/>
<text text-anchor="middle" x="1372" y="-7.5" font-family="Helvetica,sans-Serif" font-size="10.00">iosfwd</text>
</g>
<!-- Node16&#45;&gt;Node24 -->
<g id="edge46" class="edge"><title>Node16&#45;&gt;Node24</title>
<path fill="none" stroke="midnightblue" d="M604.879,-257.41C617.248,-248.662 631.163,-236.191 638,-221 645.661,-203.978 643.889,-196.713 638,-179 617.652,-117.799 516.46,-102.646 561,-56 589.634,-26.0126 1237.78,-26.7789 1338.56,-19.2745"/>
<polygon fill="midnightblue" stroke="midnightblue" points="1339.14,-22.7332 1348.72,-18.2101 1338.41,-15.7713 1339.14,-22.7332"/>
</g>
<!-- Node34 -->
<g id="node34" class="node"><title>Node34</title>
<g id="a_node34"><a xlink:href="transformation_8h.html" target="_top" xlink:title="transformation.h">
<polygon fill="white" stroke="black" points="532.5,-190.5 532.5,-209.5 629.5,-209.5 629.5,-190.5 532.5,-190.5"/>
<text text-anchor="middle" x="581" y="-197.5" font-family="Helvetica,sans-Serif" font-size="10.00">transformation.h</text>
</a>
</g>
</g>
<!-- Node16&#45;&gt;Node34 -->
<g id="edge41" class="edge"><title>Node16&#45;&gt;Node34</title>
<path fill="none" stroke="midnightblue" d="M581,-257.233C581,-246.501 581,-231.687 581,-219.959"/>
<polygon fill="midnightblue" stroke="midnightblue" points="584.5,-219.893 581,-209.893 577.5,-219.893 584.5,-219.893"/>
</g>
<!-- Node35 -->
<g id="node35" class="node"><title>Node35</title>
<polygon fill="white" stroke="#bfbfbf" points="0,-190.5 0,-209.5 138,-209.5 138,-190.5 0,-190.5"/>
<text text-anchor="middle" x="69" y="-197.5" font-family="Helvetica,sans-Serif" font-size="10.00">eigen3/Eigen/Eigenvalues</text>
</g>
<!-- Node16&#45;&gt;Node35 -->
<g id="edge44" class="edge"><title>Node16&#45;&gt;Node35</title>
<path fill="none" stroke="midnightblue" d="M519.88,-258.603C516.544,-258.029 513.234,-257.489 510,-257 349.699,-232.748 306.651,-249.216 147,-221 134.202,-218.738 120.412,-215.481 108.039,-212.251"/>
<polygon fill="midnightblue" stroke="midnightblue" points="108.597,-208.777 98.0315,-209.565 106.783,-215.538 108.597,-208.777"/>
</g>
<!-- Node36 -->
<g id="node36" class="node"><title>Node36</title>
<polygon fill="white" stroke="#bfbfbf" points="156.5,-190.5 156.5,-209.5 219.5,-209.5 219.5,-190.5 156.5,-190.5"/>
<text text-anchor="middle" x="188" y="-197.5" font-family="Helvetica,sans-Serif" font-size="10.00">functional</text>
</g>
<!-- Node16&#45;&gt;Node36 -->
<g id="edge45" class="edge"><title>Node16&#45;&gt;Node36</title>
<path fill="none" stroke="midnightblue" d="M519.862,-258.715C516.531,-258.112 513.227,-257.535 510,-257 385.789,-236.389 349.629,-257.08 229,-221 223.309,-219.298 217.434,-216.877 211.97,-214.303"/>
<polygon fill="midnightblue" stroke="midnightblue" points="213.215,-211.011 202.71,-209.63 210.061,-217.26 213.215,-211.011"/>
</g>
<!-- Node37 -->
<g id="node37" class="node"><title>Node37</title>
<polygon fill="white" stroke="#bfbfbf" points="238,-190.5 238,-209.5 280,-209.5 280,-190.5 238,-190.5"/>
<text text-anchor="middle" x="259" y="-197.5" font-family="Helvetica,sans-Serif" font-size="10.00">limits</text>
</g>
<!-- Node16&#45;&gt;Node37 -->
<g id="edge47" class="edge"><title>Node16&#45;&gt;Node37</title>
<path fill="none" stroke="midnightblue" d="M519.839,-258.848C516.513,-258.21 513.217,-257.59 510,-257 412.117,-239.04 381.611,-257.426 289,-221 285.177,-219.496 281.343,-217.449 277.754,-215.236"/>
<polygon fill="midnightblue" stroke="midnightblue" points="279.722,-212.342 269.486,-209.608 275.783,-218.129 279.722,-212.342"/>
</g>
<!-- Node38 -->
<g id="node38" class="node"><title>Node38</title>
<polygon fill="white" stroke="#bfbfbf" points="298,-179.5 298,-220.5 438,-220.5 438,-179.5 298,-179.5"/>
<text text-anchor="start" x="306" y="-208.5" font-family="Helvetica,sans-Serif" font-size="10.00">eigen3/unsupported</text>
<text text-anchor="start" x="306" y="-197.5" font-family="Helvetica,sans-Serif" font-size="10.00">/Eigen/src/MatrixFunctions</text>
<text text-anchor="middle" x="368" y="-186.5" font-family="Helvetica,sans-Serif" font-size="10.00">/MatrixExponential.h</text>
</g>
<!-- Node16&#45;&gt;Node38 -->
<g id="edge48" class="edge"><title>Node16&#45;&gt;Node38</title>
<path fill="none" stroke="midnightblue" d="M538.663,-257.487C509.622,-247.875 470.433,-234.904 436.932,-223.815"/>
<polygon fill="midnightblue" stroke="midnightblue" points="437.786,-220.411 427.193,-220.592 435.586,-227.057 437.786,-220.411"/>
</g>
<!-- Node17&#45;&gt;Node8 -->
<g id="edge17" class="edge"><title>Node17&#45;&gt;Node8</title>
<path fill="none" stroke="midnightblue" d="M1066.44,-190.261C1071.85,-172.549 1086.6,-132.375 1114,-112 1167.87,-71.9407 1196.9,-90.2484 1267.17,-76.0232"/>
<polygon fill="midnightblue" stroke="midnightblue" points="1268.35,-79.3487 1277.37,-73.7906 1266.85,-72.5107 1268.35,-79.3487"/>
</g>
<!-- Node18 -->
<g id="node18" class="node"><title>Node18</title>
<g id="a_node18"><a xlink:href="util_2convenienceOperators_8h.html" target="_top" xlink:title="util/convenienceOperators.h">
<polygon fill="white" stroke="black" points="1398.5,-118 1398.5,-137 1549.5,-137 1549.5,-118 1398.5,-118"/>
<text text-anchor="middle" x="1474" y="-125" font-family="Helvetica,sans-Serif" font-size="10.00">util/convenienceOperators.h</text>
</a>
</g>
</g>
<!-- Node17&#45;&gt;Node18 -->
<g id="edge18" class="edge"><title>Node17&#45;&gt;Node18</title>
<path fill="none" stroke="midnightblue" d="M1100.03,-192.805C1170.7,-180.653 1328.14,-153.581 1414.5,-138.732"/>
<polygon fill="midnightblue" stroke="midnightblue" points="1415.15,-142.171 1424.41,-137.027 1413.96,-135.272 1415.15,-142.171"/>
</g>
<!-- Node27 -->
<g id="node27" class="node"><title>Node27</title>
<g id="a_node27"><a xlink:href="Logger_8h.html" target="_top" xlink:title="util/logging/Logger.h">
<polygon fill="white" stroke="black" points="948.5,-118 948.5,-137 1061.5,-137 1061.5,-118 948.5,-118"/>
<text text-anchor="middle" x="1005" y="-125" font-family="Helvetica,sans-Serif" font-size="10.00">util/logging/Logger.h</text>
</a>
</g>
</g>
<!-- Node17&#45;&gt;Node27 -->
<g id="edge32" class="edge"><title>Node17&#45;&gt;Node27</title>
<path fill="none" stroke="midnightblue" d="M1056.77,-190.355C1047.39,-179.15 1030.83,-159.37 1018.97,-145.192"/>
<polygon fill="midnightblue" stroke="midnightblue" points="1021.4,-142.638 1012.29,-137.215 1016.03,-147.131 1021.4,-142.638"/>
</g>
<!-- Node18&#45;&gt;Node14 -->
<g id="edge28" class="edge"><title>Node18&#45;&gt;Node14</title>
<path fill="none" stroke="midnightblue" d="M1507.39,-117.946C1545.06,-108.198 1608.11,-91.594 1662,-76 1662.1,-75.9716 1662.2,-75.9431 1662.29,-75.9146"/>
<polygon fill="midnightblue" stroke="midnightblue" points="1663.11,-79.3242 1671.69,-73.1068 1661.1,-72.6174 1663.11,-79.3242"/>
</g>
<!-- Node18&#45;&gt;Node15 -->
<g id="edge31" class="edge"><title>Node18&#45;&gt;Node15</title>
<path fill="none" stroke="midnightblue" d="M1496.35,-117.975C1522.99,-107.813 1567.71,-90.7564 1598.01,-79.1996"/>
<polygon fill="midnightblue" stroke="midnightblue" points="1599.59,-82.343 1607.69,-75.5091 1597.1,-75.8026 1599.59,-82.343"/>
</g>
<!-- Node18&#45;&gt;Node19 -->
<g id="edge19" class="edge"><title>Node18&#45;&gt;Node19</title>
<path fill="none" stroke="midnightblue" d="M1460.96,-117.975C1446.23,-108.343 1422.03,-92.5175 1404.49,-81.0517"/>
<polygon fill="midnightblue" stroke="midnightblue" points="1406.3,-78.0522 1396.01,-75.5091 1402.47,-83.911 1406.3,-78.0522"/>
</g>
<!-- Node18&#45;&gt;Node24 -->
<g id="edge27" class="edge"><title>Node18&#45;&gt;Node24</title>
<path fill="none" stroke="midnightblue" d="M1468.44,-117.825C1459.44,-104.079 1440.8,-76.7268 1422,-56 1412.41,-45.4297 1400.58,-34.6969 1390.84,-26.3654"/>
<polygon fill="midnightblue" stroke="midnightblue" points="1392.83,-23.4694 1382.92,-19.7263 1388.34,-28.8334 1392.83,-23.4694"/>
</g>
<!-- Node25 -->
<g id="node25" class="node"><title>Node25</title>
<polygon fill="white" stroke="#bfbfbf" points="1535,-0.5 1535,-19.5 1567,-19.5 1567,-0.5 1535,-0.5"/>
<text text-anchor="middle" x="1551" y="-7.5" font-family="Helvetica,sans-Serif" font-size="10.00">set</text>
</g>
<!-- Node18&#45;&gt;Node25 -->
<g id="edge29" class="edge"><title>Node18&#45;&gt;Node25</title>
<path fill="none" stroke="midnightblue" d="M1483.61,-117.941C1493.85,-108.449 1510.06,-92.311 1521,-76 1530.84,-61.3412 1538.99,-42.9402 1544.3,-29.4616"/>
<polygon fill="midnightblue" stroke="midnightblue" points="1547.67,-30.4644 1547.93,-19.8729 1541.12,-27.9866 1547.67,-30.4644"/>
</g>
<!-- Node26 -->
<g id="node26" class="node"><title>Node26</title>
<polygon fill="white" stroke="#bfbfbf" points="1470,-56.5 1470,-75.5 1512,-75.5 1512,-56.5 1470,-56.5"/>
<text text-anchor="middle" x="1491" y="-63.5" font-family="Helvetica,sans-Serif" font-size="10.00">utility</text>
</g>
<!-- Node18&#45;&gt;Node26 -->
<g id="edge30" class="edge"><title>Node18&#45;&gt;Node26</title>
<path fill="none" stroke="midnightblue" d="M1476.44,-117.975C1478.86,-109.492 1482.66,-96.2043 1485.77,-85.3222"/>
<polygon fill="midnightblue" stroke="midnightblue" points="1489.19,-86.0859 1488.57,-75.5091 1482.46,-84.1628 1489.19,-86.0859"/>
</g>
<!-- Node19&#45;&gt;Node16 -->
<g id="edge26" class="edge"><title>Node19&#45;&gt;Node16</title>
<path fill="none" stroke="midnightblue" d="M1354.11,-75.548C1353.4,-75.7005 1352.7,-75.8513 1352,-76 1273.07,-92.8597 1238.36,-63.2901 1174,-112 1130.57,-144.869 1163.08,-190.437 1118,-221 1080.59,-246.364 789.993,-262.526 652.514,-268.683"/>
<polygon fill="midnightblue" stroke="midnightblue" points="652.322,-265.188 642.486,-269.126 652.631,-272.181 652.322,-265.188"/>
</g>
<!-- Node19&#45;&gt;Node20 -->
<g id="edge20" class="edge"><title>Node19&#45;&gt;Node20</title>
<path fill="none" stroke="midnightblue" d="M1352.08,-57.5315C1349.02,-56.9475 1345.96,-56.4218 1343,-56 1107.82,-22.4821 826.321,-13.9242 693.121,-11.7432"/>
<polygon fill="midnightblue" stroke="midnightblue" points="693.07,-8.24209 683.016,-11.5854 692.96,-15.2412 693.07,-8.24209"/>
</g>
<!-- Node21 -->
<g id="node21" class="node"><title>Node21</title>
<polygon fill="white" stroke="#bfbfbf" points="1245,-0.5 1245,-19.5 1331,-19.5 1331,-0.5 1245,-0.5"/>
<text text-anchor="middle" x="1288" y="-7.5" font-family="Helvetica,sans-Serif" font-size="10.00">carl/util/hash.h</text>
</g>
<!-- Node19&#45;&gt;Node21 -->
<g id="edge21" class="edge"><title>Node19&#45;&gt;Node21</title>
<path fill="none" stroke="midnightblue" d="M1367.74,-56.324C1352.78,-47.8215 1329.75,-34.7288 1312.27,-24.7975"/>
<polygon fill="midnightblue" stroke="midnightblue" points="1313.65,-21.5534 1303.23,-19.6545 1310.19,-27.639 1313.65,-21.5534"/>
</g>
<!-- Node22 -->
<g id="node22" class="node"><title>Node22</title>
<polygon fill="white" stroke="#bfbfbf" points="1413,-0.5 1413,-19.5 1517,-19.5 1517,-0.5 1413,-0.5"/>
<text text-anchor="middle" x="1465" y="-7.5" font-family="Helvetica,sans-Serif" font-size="10.00">eigen3/Eigen/Core</text>
</g>
<!-- Node19&#45;&gt;Node22 -->
<g id="edge22" class="edge"><title>Node19&#45;&gt;Node22</title>
<path fill="none" stroke="midnightblue" d="M1396.17,-56.324C1408.85,-47.979 1428.23,-35.2122 1443.21,-25.3524"/>
<polygon fill="midnightblue" stroke="midnightblue" points="1445.43,-28.0776 1451.86,-19.6545 1441.58,-22.2313 1445.43,-28.0776"/>
</g>
<!-- Node19&#45;&gt;Node23 -->
<g id="edge23" class="edge"><title>Node19&#45;&gt;Node23</title>
<path fill="none" stroke="midnightblue" d="M1352.48,-57.8771C1349.28,-57.2085 1346.08,-56.5691 1343,-56 1259.41,-40.5537 1162.34,-27.1944 1099.4,-19.1314"/>
<polygon fill="midnightblue" stroke="midnightblue" points="1099.58,-15.6257 1089.22,-17.8346 1098.69,-22.5697 1099.58,-15.6257"/>
</g>
<!-- Node19&#45;&gt;Node24 -->
<g id="edge24" class="edge"><title>Node19&#45;&gt;Node24</title>
<path fill="none" stroke="midnightblue" d="M1381.18,-56.083C1379.73,-48.9272 1377.63,-38.6353 1375.81,-29.6911"/>
<polygon fill="midnightblue" stroke="midnightblue" points="1379.21,-28.8512 1373.78,-19.7511 1372.35,-30.2485 1379.21,-28.8512"/>
</g>
<!-- Node19&#45;&gt;Node25 -->
<g id="edge25" class="edge"><title>Node19&#45;&gt;Node25</title>
<path fill="none" stroke="midnightblue" d="M1411.33,-56.4574C1438.34,-48.2313 1480.36,-35.2218 1525.27,-20.1523"/>
<polygon fill="midnightblue" stroke="midnightblue" points="1526.54,-23.419 1534.9,-16.9063 1524.3,-16.7862 1526.54,-23.419"/>
</g>
<!-- Node27&#45;&gt;Node8 -->
<g id="edge33" class="edge"><title>Node27&#45;&gt;Node8</title>
<path fill="none" stroke="midnightblue" d="M1046.28,-117.954C1056.02,-115.969 1066.37,-113.886 1076,-112 1158.12,-95.9162 1181.41,-94.1239 1267.45,-76.0317"/>
<polygon fill="midnightblue" stroke="midnightblue" points="1268.34,-79.4212 1277.4,-73.9267 1266.89,-72.5728 1268.34,-79.4212"/>
</g>
<!-- Node28 -->
<g id="node28" class="node"><title>Node28</title>
<polygon fill="white" stroke="#bfbfbf" points="887,-56.5 887,-75.5 1041,-75.5 1041,-56.5 887,-56.5"/>
<text text-anchor="middle" x="964" y="-63.5" font-family="Helvetica,sans-Serif" font-size="10.00">carl/io/streamingOperators.h</text>
</g>
<!-- Node27&#45;&gt;Node28 -->
<g id="edge34" class="edge"><title>Node27&#45;&gt;Node28</title>
<path fill="none" stroke="midnightblue" d="M999.126,-117.975C993.037,-109.138 983.355,-95.0886 975.697,-83.975"/>
<polygon fill="midnightblue" stroke="midnightblue" points="978.42,-81.7575 969.863,-75.5091 972.656,-85.7294 978.42,-81.7575"/>
</g>
<!-- Node29 -->
<g id="node29" class="node"><title>Node29</title>
<polygon fill="white" stroke="#bfbfbf" points="1059.5,-56.5 1059.5,-75.5 1118.5,-75.5 1118.5,-56.5 1059.5,-56.5"/>
<text text-anchor="middle" x="1089" y="-63.5" font-family="Helvetica,sans-Serif" font-size="10.00">iostream</text>
</g>
<!-- Node27&#45;&gt;Node29 -->
<g id="edge35" class="edge"><title>Node27&#45;&gt;Node29</title>
<path fill="none" stroke="midnightblue" d="M1017.04,-117.975C1030.51,-108.431 1052.57,-92.8073 1068.72,-81.3683"/>
<polygon fill="midnightblue" stroke="midnightblue" points="1070.85,-84.1454 1076.99,-75.5091 1066.8,-78.4332 1070.85,-84.1454"/>
</g>
<!-- Node30 -->
<g id="node30" class="node"><title>Node30</title>
<polygon fill="white" stroke="#bfbfbf" points="1137,-56.5 1137,-75.5 1193,-75.5 1193,-56.5 1137,-56.5"/>
<text text-anchor="middle" x="1165" y="-63.5" font-family="Helvetica,sans-Serif" font-size="10.00">sstream</text>
</g>
<!-- Node27&#45;&gt;Node30 -->
<g id="edge36" class="edge"><title>Node27&#45;&gt;Node30</title>
<path fill="none" stroke="midnightblue" d="M1027.92,-117.975C1055.37,-107.769 1101.52,-90.608 1132.6,-79.0492"/>
<polygon fill="midnightblue" stroke="midnightblue" points="1133.97,-82.2752 1142.12,-75.5091 1131.53,-75.7142 1133.97,-82.2752"/>
</g>
<!-- Node31 -->
<g id="node31" class="node"><title>Node31</title>
<polygon fill="white" stroke="#bfbfbf" points="1211,-56.5 1211,-75.5 1259,-75.5 1259,-56.5 1211,-56.5"/>
<text text-anchor="middle" x="1235" y="-63.5" font-family="Helvetica,sans-Serif" font-size="10.00">thread</text>
</g>
<!-- Node27&#45;&gt;Node31 -->
<g id="edge37" class="edge"><title>Node27&#45;&gt;Node31</title>
<path fill="none" stroke="midnightblue" d="M1038.85,-117.989C1076.22,-108.56 1138.38,-92.7622 1201.19,-76.1872"/>
<polygon fill="midnightblue" stroke="midnightblue" points="1202.09,-79.5692 1210.86,-73.6292 1200.3,-72.8018 1202.09,-79.5692"/>
</g>
<!-- Node32 -->
<g id="node32" class="node"><title>Node32</title>
<polygon fill="white" stroke="#bfbfbf" points="570.5,-56.5 570.5,-75.5 695.5,-75.5 695.5,-56.5 570.5,-56.5"/>
<text text-anchor="middle" x="633" y="-63.5" font-family="Helvetica,sans-Serif" font-size="10.00">carl/core/carlLogging.h</text>
</g>
<!-- Node27&#45;&gt;Node32 -->
<g id="edge38" class="edge"><title>Node27&#45;&gt;Node32</title>
<path fill="none" stroke="midnightblue" d="M951.701,-117.975C884.299,-107.194 768.386,-88.6544 696.479,-77.1532"/>
<polygon fill="midnightblue" stroke="midnightblue" points="696.627,-73.6325 686.2,-75.5091 695.521,-80.5446 696.627,-73.6325"/>
</g>
<!-- Node33 -->
<g id="node33" class="node"><title>Node33</title>
<polygon fill="white" stroke="#bfbfbf" points="713.5,-56.5 713.5,-75.5 868.5,-75.5 868.5,-56.5 713.5,-56.5"/>
<text text-anchor="middle" x="791" y="-63.5" font-family="Helvetica,sans-Serif" font-size="10.00">carl/core/carlLoggingHelper.h</text>
</g>
<!-- Node27&#45;&gt;Node33 -->
<g id="edge39" class="edge"><title>Node27&#45;&gt;Node33</title>
<path fill="none" stroke="midnightblue" d="M974.339,-117.975C936.756,-107.526 872.956,-89.7868 831.402,-78.2332"/>
<polygon fill="midnightblue" stroke="midnightblue" points="832.176,-74.8158 821.604,-75.5091 830.301,-81.56 832.176,-74.8158"/>
</g>
<!-- Node39&#45;&gt;Node19 -->
<g id="edge50" class="edge"><title>Node39&#45;&gt;Node19</title>
<path fill="none" stroke="midnightblue" d="M1273.13,-112.399C1297.29,-102.416 1329.4,-89.1465 1352.67,-79.5335"/>
<polygon fill="midnightblue" stroke="midnightblue" points="1354.14,-82.7114 1362.05,-75.6578 1351.47,-76.2419 1354.14,-82.7114"/>
</g>
<!-- Node40&#45;&gt;Node7 -->
<g id="edge54" class="edge"><title>Node40&#45;&gt;Node7</title>
<path fill="none" stroke="midnightblue" d="M1413.07,-262.881C1418.13,-260.716 1423.71,-258.566 1429,-257 1441.43,-253.323 1600.13,-226.37 1689.99,-211.238"/>
<polygon fill="midnightblue" stroke="midnightblue" points="1690.78,-214.654 1700.06,-209.543 1689.62,-207.751 1690.78,-214.654"/>
</g>
<!-- Node40&#45;&gt;Node15 -->
<g id="edge56" class="edge"><title>Node40&#45;&gt;Node15</title>
<path fill="none" stroke="midnightblue" d="M1413.47,-262.888C1418.44,-260.772 1423.87,-258.646 1429,-257 1499.65,-234.35 1538.9,-272.813 1592,-221 1629.04,-184.859 1632.18,-118.794 1631.23,-86.2123"/>
<polygon fill="midnightblue" stroke="midnightblue" points="1634.7,-85.6683 1630.75,-75.8409 1627.71,-85.9921 1634.7,-85.6683"/>
</g>
<!-- Node40&#45;&gt;Node17 -->
<g id="edge52" class="edge"><title>Node40&#45;&gt;Node17</title>
<path fill="none" stroke="midnightblue" d="M1369.85,-266.143C1314.42,-254.336 1181.03,-225.927 1110.13,-210.824"/>
<polygon fill="midnightblue" stroke="midnightblue" points="1110.64,-207.356 1100.13,-208.696 1109.19,-214.203 1110.64,-207.356"/>
</g>
<!-- Node40&#45;&gt;Node19 -->
<g id="edge53" class="edge"><title>Node40&#45;&gt;Node19</title>
<path fill="none" stroke="midnightblue" d="M1393.77,-262.943C1392.38,-252.915 1390.16,-235.787 1389,-221 1385.18,-172.471 1383.76,-115.139 1383.26,-86.0269"/>
<polygon fill="midnightblue" stroke="midnightblue" points="1386.75,-85.6425 1383.1,-75.6976 1379.75,-85.7503 1386.75,-85.6425"/>
</g>
<!-- Node40&#45;&gt;Node25 -->
<g id="edge55" class="edge"><title>Node40&#45;&gt;Node25</title>
<path fill="none" stroke="midnightblue" d="M1415.59,-262.933C1452.58,-246.244 1529.07,-205.452 1558,-143 1575.3,-105.648 1564.92,-55.8335 1557.16,-29.3593"/>
<polygon fill="midnightblue" stroke="midnightblue" points="1560.41,-28.0399 1554.08,-19.5465 1553.73,-30.1357 1560.41,-28.0399"/>
</g>
<!-- Node41 -->
<g id="node41" class="node"><title>Node41</title>
<polygon fill="white" stroke="#bfbfbf" points="1398.5,-190.5 1398.5,-209.5 1457.5,-209.5 1457.5,-190.5 1398.5,-190.5"/>
<text text-anchor="middle" x="1428" y="-197.5" font-family="Helvetica,sans-Serif" font-size="10.00">Point.tpp</text>
</g>
<!-- Node40&#45;&gt;Node41 -->
<g id="edge57" class="edge"><title>Node40&#45;&gt;Node41</title>
<path fill="none" stroke="midnightblue" d="M1399.05,-262.855C1404.14,-251.967 1413.03,-232.983 1419.62,-218.909"/>
<polygon fill="midnightblue" stroke="midnightblue" points="1422.85,-220.256 1423.92,-209.715 1416.51,-217.288 1422.85,-220.256"/>
</g>
</g>
</svg>
        <g id="navigator" transform="translate(0 0)" fill="#404254">
                <rect fill="#f2f5e9" fill-opacity="0.5" stroke="#606060" stroke-width=".5" x="0" y="0" width="60" height="60"/>
                <use id="zoomplus" xlink:href="#zoomPlus" x="17" y="9" onmousedown="handleZoom(evt,'in')"/>
                <use id="zoomminus" xlink:href="#zoomMin" x="42" y="9" onmousedown="handleZoom(evt,'out')"/>
                <use id="reset" xlink:href="#resetDef" x="30" y="36" onmousedown="handleReset()"/>
                <g id="arrowUp" xlink:href="#dirArrow" transform="translate(30 24)" onmousedown="handlePan(0,-1)">
                  <use xlink:href="#rim" fill="#404040">
                        <set attributeName="fill" to="#808080" begin="arrowUp.mouseover" end="arrowUp.mouseout"/>
                  </use>
                  <path fill="none" stroke="white" stroke-width="1.5" d="M0,-3.0v7 M-2.5,-0.5L0,-3.0L2.5,-0.5"/>
                </g>
                <g id="arrowRight" xlink:href="#dirArrow" transform="rotate(90) translate(36 -43)" onmousedown="handlePan(1,0)">
                  <use xlink:href="#rim" fill="#404040">
                        <set attributeName="fill" to="#808080" begin="arrowRight.mouseover" end="arrowRight.mouseout"/>
                  </use>
                  <path fill="none" stroke="white" stroke-width="1.5" d="M0,-3.0v7 M-2.5,-0.5L0,-3.0L2.5,-0.5"/>
                </g>
                <g id="arrowDown" xlink:href="#dirArrow" transform="rotate(180) translate(-30 -48)" onmousedown="handlePan(0,1)">
                  <use xlink:href="#rim" fill="#404040">
                        <set attributeName="fill" to="#808080" begin="arrowDown.mouseover" end="arrowDown.mouseout"/>
                  </use>
                  <path fill="none" stroke="white" stroke-width="1.5" d="M0,-3.0v7 M-2.5,-0.5L0,-3.0L2.5,-0.5"/>
                </g>
                <g id="arrowLeft" xlink:href="#dirArrow" transform="rotate(270) translate(-36 17)" onmousedown="handlePan(-1,0)">
                  <use xlink:href="#rim" fill="#404040">
                        <set attributeName="fill" to="#808080" begin="arrowLeft.mouseover" end="arrowLeft.mouseout"/>
                  </use>
                  <path fill="none" stroke="white" stroke-width="1.5" d="M0,-3.0v7 M-2.5,-0.5L0,-3.0L2.5,-0.5"/>
                </g>
        </g>
        <svg viewBox="0 0 15 15" width="100%" height="30px" preserveAspectRatio="xMaxYMin meet">
         <g id="arrow_out" transform="scale(0.3 0.3)">
          <a xlink:href="representations_2Polytopes_2carlPolytope_2util_8h__incl_org.svg" target="_base">
           <rect id="button" ry="5" rx="5" y="6" x="6" height="38" width="38"
                fill="#f2f5e9" fill-opacity="0.5" stroke="#606060" stroke-width="1.0"/>
           <path id="arrow"
             d="M 11.500037,31.436501 C 11.940474,20.09759 22.043105,11.32322 32.158766,21.979434 L 37.068811,17.246167 C 37.068811,17.246167 37.088388,32 37.088388,32 L 22.160133,31.978069 C 22.160133,31.978069 26.997745,27.140456 26.997745,27.140456 C 18.528582,18.264221 13.291696,25.230495 11.500037,31.436501 z"
             style="fill:#404040;"/>
          </a>
         </g>
        </svg>
</svg>
