<?xml version="1.0" encoding="UTF-8" standalone="no"?>
<!DOCTYPE svg PUBLIC "-//W3C//DTD SVG 1.1//EN"
 "http://www.w3.org/Graphics/SVG/1.1/DTD/svg11.dtd">
<!-- Generated by graphviz version 2.38.0 (20140413.2041)
 -->
<!-- Title: /home/travis/build/hypro/hypro/src/hypro/representations/SupportFunction/util.h Pages: 1 -->
<svg width="1752pt" height="374pt"
 viewBox="0.00 0.00 1752.00 374.00" xmlns="http://www.w3.org/2000/svg" xmlns:xlink="http://www.w3.org/1999/xlink">
<g id="graph0" class="graph" transform="scale(1 1) rotate(0) translate(4 370)">
<title>/home/travis/build/hypro/hypro/src/hypro/representations/SupportFunction/util.h</title>
<polygon fill="white" stroke="none" points="-4,4 -4,-370 1748,-370 1748,4 -4,4"/>
<!-- Node1 -->
<g id="node1" class="node"><title>Node1</title>
<polygon fill="#bfbfbf" stroke="black" points="1071,-313.5 1071,-365.5 1247,-365.5 1247,-313.5 1071,-313.5"/>
<text text-anchor="start" x="1079" y="-353.5" font-family="Helvetica,sans-Serif" font-size="10.00">/home/travis/build</text>
<text text-anchor="start" x="1079" y="-342.5" font-family="Helvetica,sans-Serif" font-size="10.00">/hypro/hypro/src/hypro</text>
<text text-anchor="start" x="1079" y="-331.5" font-family="Helvetica,sans-Serif" font-size="10.00">/representations/SupportFunction</text>
<text text-anchor="middle" x="1159" y="-320.5" font-family="Helvetica,sans-Serif" font-size="10.00">/util.h</text>
</g>
<!-- Node2 -->
<g id="node2" class="node"><title>Node2</title>
<g id="a_node2"><a xlink:href="config_8h.html" target="_top" xlink:title="../../config.h">
<polygon fill="white" stroke="black" points="875,-257.5 875,-276.5 947,-276.5 947,-257.5 875,-257.5"/>
<text text-anchor="middle" x="911" y="-264.5" font-family="Helvetica,sans-Serif" font-size="10.00">../../config.h</text>
</a>
</g>
</g>
<!-- Node1&#45;&gt;Node2 -->
<g id="edge1" class="edge"><title>Node1&#45;&gt;Node2</title>
<path fill="none" stroke="midnightblue" d="M1070.87,-313.446C1029.91,-301.804 983.246,-288.538 950.951,-279.357"/>
<polygon fill="midnightblue" stroke="midnightblue" points="951.572,-275.895 940.996,-276.527 949.657,-282.628 951.572,-275.895"/>
</g>
<!-- Node5 -->
<g id="node5" class="node"><title>Node5</title>
<g id="a_node5"><a xlink:href="types_8h.html" target="_top" xlink:title="../types.h">
<polygon fill="white" stroke="black" points="1031.5,-145.5 1031.5,-164.5 1092.5,-164.5 1092.5,-145.5 1031.5,-145.5"/>
<text text-anchor="middle" x="1062" y="-152.5" font-family="Helvetica,sans-Serif" font-size="10.00">../types.h</text>
</a>
</g>
</g>
<!-- Node1&#45;&gt;Node5 -->
<g id="edge35" class="edge"><title>Node1&#45;&gt;Node5</title>
<path fill="none" stroke="midnightblue" d="M1145.51,-313.124C1125.6,-275.652 1088.81,-206.446 1071.49,-173.857"/>
<polygon fill="midnightblue" stroke="midnightblue" points="1074.38,-171.837 1066.6,-164.649 1068.2,-175.122 1074.38,-171.837"/>
</g>
<!-- Node12 -->
<g id="node12" class="node"><title>Node12</title>
<g id="a_node12"><a xlink:href="adaptions__eigen_8h.html" target="_top" xlink:title="util/adaptions_eigen\l/adaptions_eigen.h">
<polygon fill="white" stroke="black" points="1201.5,-78.5 1201.5,-108.5 1314.5,-108.5 1314.5,-78.5 1201.5,-78.5"/>
<text text-anchor="start" x="1209.5" y="-96.5" font-family="Helvetica,sans-Serif" font-size="10.00">util/adaptions_eigen</text>
<text text-anchor="middle" x="1258" y="-85.5" font-family="Helvetica,sans-Serif" font-size="10.00">/adaptions_eigen.h</text>
</a>
</g>
</g>
<!-- Node1&#45;&gt;Node12 -->
<g id="edge36" class="edge"><title>Node1&#45;&gt;Node12</title>
<path fill="none" stroke="midnightblue" d="M1169.22,-313.307C1188.42,-265.989 1229.62,-164.449 1248.36,-118.255"/>
<polygon fill="midnightblue" stroke="midnightblue" points="1251.69,-119.353 1252.21,-108.771 1245.21,-116.721 1251.69,-119.353"/>
</g>
<!-- Node3 -->
<g id="node3" class="node"><title>Node3</title>
<g id="a_node3"><a xlink:href="flags_8h.html" target="_top" xlink:title="flags.h">
<polygon fill="white" stroke="black" points="707,-145.5 707,-164.5 755,-164.5 755,-145.5 707,-145.5"/>
<text text-anchor="middle" x="731" y="-152.5" font-family="Helvetica,sans-Serif" font-size="10.00">flags.h</text>
</a>
</g>
</g>
<!-- Node2&#45;&gt;Node3 -->
<g id="edge2" class="edge"><title>Node2&#45;&gt;Node3</title>
<path fill="none" stroke="midnightblue" d="M893.425,-257.427C876.01,-248.763 848.724,-234.729 826,-221 799.273,-204.853 769.781,-184.201 750.856,-170.56"/>
<polygon fill="midnightblue" stroke="midnightblue" points="752.862,-167.691 742.712,-164.652 748.751,-173.357 752.862,-167.691"/>
</g>
<!-- Node4 -->
<g id="node4" class="node"><title>Node4</title>
<g id="a_node4"><a xlink:href="util_2convenienceOperators_8h.html" target="_top" xlink:title="util/convenienceOperators.h">
<polygon fill="white" stroke="black" points="835.5,-201.5 835.5,-220.5 986.5,-220.5 986.5,-201.5 835.5,-201.5"/>
<text text-anchor="middle" x="911" y="-208.5" font-family="Helvetica,sans-Serif" font-size="10.00">util/convenienceOperators.h</text>
</a>
</g>
</g>
<!-- Node2&#45;&gt;Node4 -->
<g id="edge3" class="edge"><title>Node2&#45;&gt;Node4</title>
<path fill="none" stroke="midnightblue" d="M911,-257.083C911,-250.006 911,-239.861 911,-230.986"/>
<polygon fill="midnightblue" stroke="midnightblue" points="914.5,-230.751 911,-220.751 907.5,-230.751 914.5,-230.751"/>
</g>
<!-- Node21 -->
<g id="node21" class="node"><title>Node21</title>
<g id="a_node21"><a xlink:href="Logger_8h.html" target="_top" xlink:title="util/logging/Logger.h">
<polygon fill="white" stroke="black" points="391.5,-201.5 391.5,-220.5 504.5,-220.5 504.5,-201.5 391.5,-201.5"/>
<text text-anchor="middle" x="448" y="-208.5" font-family="Helvetica,sans-Serif" font-size="10.00">util/logging/Logger.h</text>
</a>
</g>
</g>
<!-- Node2&#45;&gt;Node21 -->
<g id="edge27" class="edge"><title>Node2&#45;&gt;Node21</title>
<path fill="none" stroke="midnightblue" d="M874.669,-261.763C797.047,-252.71 614.041,-231.365 514.798,-219.791"/>
<polygon fill="midnightblue" stroke="midnightblue" points="514.923,-216.282 504.585,-218.6 514.112,-223.234 514.923,-216.282"/>
</g>
<!-- Node4&#45;&gt;Node5 -->
<g id="edge4" class="edge"><title>Node4&#45;&gt;Node5</title>
<path fill="none" stroke="midnightblue" d="M934.926,-201.444C960.219,-192.399 1000.3,-178.064 1028.68,-167.916"/>
<polygon fill="midnightblue" stroke="midnightblue" points="1029.95,-171.179 1038.19,-164.516 1027.59,-164.588 1029.95,-171.179"/>
</g>
<!-- Node10 -->
<g id="node10" class="node"><title>Node10</title>
<polygon fill="white" stroke="#bfbfbf" points="844,-11.5 844,-30.5 890,-30.5 890,-11.5 844,-11.5"/>
<text text-anchor="middle" x="867" y="-18.5" font-family="Helvetica,sans-Serif" font-size="10.00">iosfwd</text>
</g>
<!-- Node4&#45;&gt;Node10 -->
<g id="edge22" class="edge"><title>Node4&#45;&gt;Node10</title>
<path fill="none" stroke="midnightblue" d="M858.721,-201.478C837.408,-195.151 814.807,-184.143 802,-165 780.499,-132.862 785.887,-113.15 802,-78 810.224,-60.0591 827.348,-45.6881 841.955,-35.9978"/>
<polygon fill="midnightblue" stroke="midnightblue" points="843.999,-38.8478 850.623,-30.579 840.289,-32.9121 843.999,-38.8478"/>
</g>
<!-- Node11 -->
<g id="node11" class="node"><title>Node11</title>
<polygon fill="white" stroke="#bfbfbf" points="811,-84 811,-103 843,-103 843,-84 811,-84"/>
<text text-anchor="middle" x="827" y="-91" font-family="Helvetica,sans-Serif" font-size="10.00">set</text>
</g>
<!-- Node4&#45;&gt;Node11 -->
<g id="edge24" class="edge"><title>Node4&#45;&gt;Node11</title>
<path fill="none" stroke="midnightblue" d="M905.503,-201.446C897.362,-188.882 881.5,-164.784 867,-145 858.597,-133.535 848.679,-121.007 840.821,-111.297"/>
<polygon fill="midnightblue" stroke="midnightblue" points="843.318,-108.822 834.286,-103.284 837.893,-113.246 843.318,-108.822"/>
</g>
<!-- Node18 -->
<g id="node18" class="node"><title>Node18</title>
<polygon fill="white" stroke="#bfbfbf" points="915,-145.5 915,-164.5 953,-164.5 953,-145.5 915,-145.5"/>
<text text-anchor="middle" x="934" y="-152.5" font-family="Helvetica,sans-Serif" font-size="10.00">map</text>
</g>
<!-- Node4&#45;&gt;Node18 -->
<g id="edge23" class="edge"><title>Node4&#45;&gt;Node18</title>
<path fill="none" stroke="midnightblue" d="M914.798,-201.083C917.913,-193.77 922.423,-183.181 926.289,-174.103"/>
<polygon fill="midnightblue" stroke="midnightblue" points="929.574,-175.323 930.273,-164.751 923.134,-172.58 929.574,-175.323"/>
</g>
<!-- Node19 -->
<g id="node19" class="node"><title>Node19</title>
<polygon fill="white" stroke="#bfbfbf" points="971,-145.5 971,-164.5 1013,-164.5 1013,-145.5 971,-145.5"/>
<text text-anchor="middle" x="992" y="-152.5" font-family="Helvetica,sans-Serif" font-size="10.00">utility</text>
</g>
<!-- Node4&#45;&gt;Node19 -->
<g id="edge25" class="edge"><title>Node4&#45;&gt;Node19</title>
<path fill="none" stroke="midnightblue" d="M924.014,-201.324C936.532,-192.979 955.682,-180.212 970.471,-170.352"/>
<polygon fill="midnightblue" stroke="midnightblue" points="972.639,-173.114 979.018,-164.655 968.756,-167.289 972.639,-173.114"/>
</g>
<!-- Node20 -->
<g id="node20" class="node"><title>Node20</title>
<polygon fill="white" stroke="#bfbfbf" points="811.5,-145.5 811.5,-164.5 858.5,-164.5 858.5,-145.5 811.5,-145.5"/>
<text text-anchor="middle" x="835" y="-152.5" font-family="Helvetica,sans-Serif" font-size="10.00">vector</text>
</g>
<!-- Node4&#45;&gt;Node20 -->
<g id="edge26" class="edge"><title>Node4&#45;&gt;Node20</title>
<path fill="none" stroke="midnightblue" d="M898.789,-201.324C887.224,-193.107 869.625,-180.602 855.839,-170.807"/>
<polygon fill="midnightblue" stroke="midnightblue" points="857.612,-167.773 847.433,-164.834 853.557,-173.479 857.612,-167.773"/>
</g>
<!-- Node6 -->
<g id="node6" class="node"><title>Node6</title>
<polygon fill="white" stroke="#bfbfbf" points="1038,-11.5 1038,-30.5 1172,-30.5 1172,-11.5 1038,-11.5"/>
<text text-anchor="middle" x="1105" y="-18.5" font-family="Helvetica,sans-Serif" font-size="10.00">carl/numbers/numbers.h</text>
</g>
<!-- Node5&#45;&gt;Node6 -->
<g id="edge5" class="edge"><title>Node5&#45;&gt;Node6</title>
<path fill="none" stroke="midnightblue" d="M1064.82,-145.339C1071.75,-124.08 1089.7,-68.9632 1099.09,-40.1506"/>
<polygon fill="midnightblue" stroke="midnightblue" points="1102.45,-41.1135 1102.22,-30.5212 1095.8,-38.9453 1102.45,-41.1135"/>
</g>
<!-- Node7 -->
<g id="node7" class="node"><title>Node7</title>
<polygon fill="white" stroke="#bfbfbf" points="1097,-84 1097,-103 1183,-103 1183,-84 1097,-84"/>
<text text-anchor="middle" x="1140" y="-91" font-family="Helvetica,sans-Serif" font-size="10.00">carl/util/hash.h</text>
</g>
<!-- Node5&#45;&gt;Node7 -->
<g id="edge6" class="edge"><title>Node5&#45;&gt;Node7</title>
<path fill="none" stroke="midnightblue" d="M1073.18,-145.475C1085.57,-136.02 1105.79,-120.596 1120.75,-109.187"/>
<polygon fill="midnightblue" stroke="midnightblue" points="1123.02,-111.857 1128.85,-103.009 1118.77,-106.291 1123.02,-111.857"/>
</g>
<!-- Node8 -->
<g id="node8" class="node"><title>Node8</title>
<polygon fill="white" stroke="#bfbfbf" points="861,-84 861,-103 965,-103 965,-84 861,-84"/>
<text text-anchor="middle" x="913" y="-91" font-family="Helvetica,sans-Serif" font-size="10.00">eigen3/Eigen/Core</text>
</g>
<!-- Node5&#45;&gt;Node8 -->
<g id="edge7" class="edge"><title>Node5&#45;&gt;Node8</title>
<path fill="none" stroke="midnightblue" d="M1040.65,-145.475C1015.31,-135.357 972.862,-118.405 943.929,-106.851"/>
<polygon fill="midnightblue" stroke="midnightblue" points="944.893,-103.467 934.308,-103.009 942.297,-109.968 944.893,-103.467"/>
</g>
<!-- Node9 -->
<g id="node9" class="node"><title>Node9</title>
<polygon fill="white" stroke="#bfbfbf" points="908,-11.5 908,-30.5 1020,-30.5 1020,-11.5 908,-11.5"/>
<text text-anchor="middle" x="964" y="-18.5" font-family="Helvetica,sans-Serif" font-size="10.00">eigen3/Eigen/Dense</text>
</g>
<!-- Node5&#45;&gt;Node9 -->
<g id="edge8" class="edge"><title>Node5&#45;&gt;Node9</title>
<path fill="none" stroke="midnightblue" d="M1055.65,-145.048C1045.49,-130.776 1024.91,-102.026 1007,-78 997.057,-64.6627 985.571,-49.7275 976.972,-38.6374"/>
<polygon fill="midnightblue" stroke="midnightblue" points="979.681,-36.4189 970.78,-30.6716 974.154,-40.7149 979.681,-36.4189"/>
</g>
<!-- Node5&#45;&gt;Node10 -->
<g id="edge9" class="edge"><title>Node5&#45;&gt;Node10</title>
<path fill="none" stroke="midnightblue" d="M1050.86,-145.253C1039.62,-136.34 1021.84,-122.015 1007,-109 991.871,-95.732 990.599,-89.3763 974,-78 943.501,-57.097 931.394,-59.8257 899,-42 895.585,-40.1207 892.029,-38.0346 888.581,-35.9393"/>
<polygon fill="midnightblue" stroke="midnightblue" points="890.218,-32.8352 879.882,-30.5074 886.511,-38.7727 890.218,-32.8352"/>
</g>
<!-- Node5&#45;&gt;Node11 -->
<g id="edge10" class="edge"><title>Node5&#45;&gt;Node11</title>
<path fill="none" stroke="midnightblue" d="M1031.43,-147.081C1028.25,-146.373 1025.06,-145.668 1022,-145 946.547,-128.523 924.084,-136.721 852,-109 851.119,-108.661 850.232,-108.294 849.346,-107.904"/>
<polygon fill="midnightblue" stroke="midnightblue" points="850.596,-104.611 840.103,-103.141 847.389,-110.833 850.596,-104.611"/>
</g>
<!-- Node5&#45;&gt;Node12 -->
<g id="edge11" class="edge"><title>Node5&#45;&gt;Node12</title>
<path fill="none" stroke="midnightblue" d="M1085.18,-145.475C1112.4,-136.626 1158.35,-122.549 1196.08,-111.428"/>
<polygon fill="midnightblue" stroke="midnightblue" points="1197.37,-114.697 1205.98,-108.523 1195.4,-107.981 1197.37,-114.697"/>
</g>
<!-- Node12&#45;&gt;Node2 -->
<g id="edge12" class="edge"><title>Node12&#45;&gt;Node2</title>
<path fill="none" stroke="midnightblue" d="M1229.61,-108.53C1163.68,-141.116 1000.96,-221.537 937.216,-253.043"/>
<polygon fill="midnightblue" stroke="midnightblue" points="935.622,-249.927 928.208,-257.495 938.723,-256.202 935.622,-249.927"/>
</g>
<!-- Node12&#45;&gt;Node5 -->
<g id="edge13" class="edge"><title>Node12&#45;&gt;Node5</title>
<path fill="none" stroke="midnightblue" d="M1217.39,-108.602C1183.78,-119.217 1136.41,-133.548 1102.76,-143.247"/>
<polygon fill="midnightblue" stroke="midnightblue" points="1101.44,-139.984 1092.79,-146.099 1103.36,-146.714 1101.44,-139.984"/>
</g>
<!-- Node12&#45;&gt;Node6 -->
<g id="edge15" class="edge"><title>Node12&#45;&gt;Node6</title>
<path fill="none" stroke="midnightblue" d="M1227.41,-78.4027C1199.76,-65.6622 1159.41,-47.0715 1132.7,-34.762"/>
<polygon fill="midnightblue" stroke="midnightblue" points="1134.07,-31.5398 1123.52,-30.5336 1131.14,-37.8973 1134.07,-31.5398"/>
</g>
<!-- Node12&#45;&gt;Node9 -->
<g id="edge16" class="edge"><title>Node12&#45;&gt;Node9</title>
<path fill="none" stroke="midnightblue" d="M1201.48,-80.0656C1134.36,-65.2942 1031.12,-42.5595 1029,-42 1019.53,-39.5022 1009.36,-36.5223 999.956,-33.6351"/>
<polygon fill="midnightblue" stroke="midnightblue" points="1000.7,-30.2008 990.11,-30.566 998.616,-36.8836 1000.7,-30.2008"/>
</g>
<!-- Node12&#45;&gt;Node10 -->
<g id="edge19" class="edge"><title>Node12&#45;&gt;Node10</title>
<path fill="none" stroke="midnightblue" d="M1201.18,-79.6625C1198.08,-79.0728 1195.01,-78.5138 1192,-78 1062.67,-55.899 1022.67,-85.8068 899,-42 894.762,-40.4989 890.497,-38.3654 886.523,-36.0464"/>
<polygon fill="midnightblue" stroke="midnightblue" points="888.233,-32.9844 877.932,-30.5091 884.441,-38.8683 888.233,-32.9844"/>
</g>
<!-- Node13 -->
<g id="node13" class="node"><title>Node13</title>
<g id="a_node13"><a xlink:href="transformation_8h.html" target="_top" xlink:title="transformation.h">
<polygon fill="white" stroke="black" points="1490.5,-11.5 1490.5,-30.5 1587.5,-30.5 1587.5,-11.5 1490.5,-11.5"/>
<text text-anchor="middle" x="1539" y="-18.5" font-family="Helvetica,sans-Serif" font-size="10.00">transformation.h</text>
</a>
</g>
</g>
<!-- Node12&#45;&gt;Node13 -->
<g id="edge14" class="edge"><title>Node12&#45;&gt;Node13</title>
<path fill="none" stroke="midnightblue" d="M1314.8,-81.4266C1360.12,-72.1612 1425.07,-57.9247 1481,-42 1489.3,-39.6361 1498.16,-36.7644 1506.39,-33.9433"/>
<polygon fill="midnightblue" stroke="midnightblue" points="1507.76,-37.1731 1516.04,-30.5649 1505.45,-30.5664 1507.76,-37.1731"/>
</g>
<!-- Node14 -->
<g id="node14" class="node"><title>Node14</title>
<polygon fill="white" stroke="#bfbfbf" points="1606,-11.5 1606,-30.5 1744,-30.5 1744,-11.5 1606,-11.5"/>
<text text-anchor="middle" x="1675" y="-18.5" font-family="Helvetica,sans-Serif" font-size="10.00">eigen3/Eigen/Eigenvalues</text>
</g>
<!-- Node12&#45;&gt;Node14 -->
<g id="edge17" class="edge"><title>Node12&#45;&gt;Node14</title>
<path fill="none" stroke="midnightblue" d="M1314.69,-85.87C1382.27,-77.5499 1498.43,-61.9233 1597,-42 1609.42,-39.49 1622.82,-36.2507 1634.95,-33.113"/>
<polygon fill="midnightblue" stroke="midnightblue" points="1636.01,-36.4521 1644.79,-30.5195 1634.23,-29.6831 1636.01,-36.4521"/>
</g>
<!-- Node15 -->
<g id="node15" class="node"><title>Node15</title>
<polygon fill="white" stroke="#bfbfbf" points="1190.5,-11.5 1190.5,-30.5 1253.5,-30.5 1253.5,-11.5 1190.5,-11.5"/>
<text text-anchor="middle" x="1222" y="-18.5" font-family="Helvetica,sans-Serif" font-size="10.00">functional</text>
</g>
<!-- Node12&#45;&gt;Node15 -->
<g id="edge18" class="edge"><title>Node12&#45;&gt;Node15</title>
<path fill="none" stroke="midnightblue" d="M1250.71,-78.2333C1245.06,-67.1687 1237.2,-51.7673 1231.13,-39.8798"/>
<polygon fill="midnightblue" stroke="midnightblue" points="1234.21,-38.2075 1226.54,-30.8932 1227.97,-41.391 1234.21,-38.2075"/>
</g>
<!-- Node16 -->
<g id="node16" class="node"><title>Node16</title>
<polygon fill="white" stroke="#bfbfbf" points="1272,-11.5 1272,-30.5 1314,-30.5 1314,-11.5 1272,-11.5"/>
<text text-anchor="middle" x="1293" y="-18.5" font-family="Helvetica,sans-Serif" font-size="10.00">limits</text>
</g>
<!-- Node12&#45;&gt;Node16 -->
<g id="edge20" class="edge"><title>Node12&#45;&gt;Node16</title>
<path fill="none" stroke="midnightblue" d="M1265.08,-78.2333C1270.58,-67.1687 1278.22,-51.7673 1284.12,-39.8798"/>
<polygon fill="midnightblue" stroke="midnightblue" points="1287.27,-41.4065 1288.58,-30.8932 1281,-38.2937 1287.27,-41.4065"/>
</g>
<!-- Node17 -->
<g id="node17" class="node"><title>Node17</title>
<polygon fill="white" stroke="#bfbfbf" points="1332,-0.5 1332,-41.5 1472,-41.5 1472,-0.5 1332,-0.5"/>
<text text-anchor="start" x="1340" y="-29.5" font-family="Helvetica,sans-Serif" font-size="10.00">eigen3/unsupported</text>
<text text-anchor="start" x="1340" y="-18.5" font-family="Helvetica,sans-Serif" font-size="10.00">/Eigen/src/MatrixFunctions</text>
<text text-anchor="middle" x="1402" y="-7.5" font-family="Helvetica,sans-Serif" font-size="10.00">/MatrixExponential.h</text>
</g>
<!-- Node12&#45;&gt;Node17 -->
<g id="edge21" class="edge"><title>Node12&#45;&gt;Node17</title>
<path fill="none" stroke="midnightblue" d="M1286.79,-78.4027C1305.68,-69.1556 1330.86,-56.8267 1352.87,-46.0543"/>
<polygon fill="midnightblue" stroke="midnightblue" points="1354.63,-49.0871 1362.08,-41.5464 1351.56,-42.8001 1354.63,-49.0871"/>
</g>
<!-- Node21&#45;&gt;Node3 -->
<g id="edge28" class="edge"><title>Node21&#45;&gt;Node3</title>
<path fill="none" stroke="midnightblue" d="M502.165,-201.494C552.773,-193.244 630.318,-179.826 697,-165 697.101,-164.978 697.201,-164.955 697.302,-164.933"/>
<polygon fill="midnightblue" stroke="midnightblue" points="698.003,-168.364 706.912,-162.631 696.372,-161.556 698.003,-168.364"/>
</g>
<!-- Node22 -->
<g id="node22" class="node"><title>Node22</title>
<polygon fill="white" stroke="#bfbfbf" points="457,-145.5 457,-164.5 611,-164.5 611,-145.5 457,-145.5"/>
<text text-anchor="middle" x="534" y="-152.5" font-family="Helvetica,sans-Serif" font-size="10.00">carl/io/streamingOperators.h</text>
</g>
<!-- Node21&#45;&gt;Node22 -->
<g id="edge29" class="edge"><title>Node21&#45;&gt;Node22</title>
<path fill="none" stroke="midnightblue" d="M461.817,-201.324C475.233,-192.9 495.824,-179.971 511.586,-170.074"/>
<polygon fill="midnightblue" stroke="midnightblue" points="513.609,-172.936 520.217,-164.655 509.887,-167.008 513.609,-172.936"/>
</g>
<!-- Node23 -->
<g id="node23" class="node"><title>Node23</title>
<polygon fill="white" stroke="#bfbfbf" points="629.5,-145.5 629.5,-164.5 688.5,-164.5 688.5,-145.5 629.5,-145.5"/>
<text text-anchor="middle" x="659" y="-152.5" font-family="Helvetica,sans-Serif" font-size="10.00">iostream</text>
</g>
<!-- Node21&#45;&gt;Node23 -->
<g id="edge30" class="edge"><title>Node21&#45;&gt;Node23</title>
<path fill="none" stroke="midnightblue" d="M481.434,-201.444C518.955,-191.841 579.772,-176.276 619.579,-166.089"/>
<polygon fill="midnightblue" stroke="midnightblue" points="620.648,-169.428 629.468,-163.558 618.912,-162.647 620.648,-169.428"/>
</g>
<!-- Node24 -->
<g id="node24" class="node"><title>Node24</title>
<polygon fill="white" stroke="#bfbfbf" points="0,-145.5 0,-164.5 56,-164.5 56,-145.5 0,-145.5"/>
<text text-anchor="middle" x="28" y="-152.5" font-family="Helvetica,sans-Serif" font-size="10.00">sstream</text>
</g>
<!-- Node21&#45;&gt;Node24 -->
<g id="edge31" class="edge"><title>Node21&#45;&gt;Node24</title>
<path fill="none" stroke="midnightblue" d="M391.225,-205.503C318.222,-199.24 187.389,-186.389 66.3867,-165.055"/>
<polygon fill="midnightblue" stroke="midnightblue" points="66.6663,-161.549 56.2065,-163.235 65.4347,-168.44 66.6663,-161.549"/>
</g>
<!-- Node25 -->
<g id="node25" class="node"><title>Node25</title>
<polygon fill="white" stroke="#bfbfbf" points="74,-145.5 74,-164.5 122,-164.5 122,-145.5 74,-145.5"/>
<text text-anchor="middle" x="98" y="-152.5" font-family="Helvetica,sans-Serif" font-size="10.00">thread</text>
</g>
<!-- Node21&#45;&gt;Node25 -->
<g id="edge32" class="edge"><title>Node21&#45;&gt;Node25</title>
<path fill="none" stroke="midnightblue" d="M391.227,-204.112C329.624,-197.238 228.241,-184.513 131.966,-164.975"/>
<polygon fill="midnightblue" stroke="midnightblue" points="132.567,-161.525 122.066,-162.938 131.156,-168.382 132.567,-161.525"/>
</g>
<!-- Node26 -->
<g id="node26" class="node"><title>Node26</title>
<polygon fill="white" stroke="#bfbfbf" points="140.5,-145.5 140.5,-164.5 265.5,-164.5 265.5,-145.5 140.5,-145.5"/>
<text text-anchor="middle" x="203" y="-152.5" font-family="Helvetica,sans-Serif" font-size="10.00">carl/core/carlLogging.h</text>
</g>
<!-- Node21&#45;&gt;Node26 -->
<g id="edge33" class="edge"><title>Node21&#45;&gt;Node26</title>
<path fill="none" stroke="midnightblue" d="M409.179,-201.444C366.439,-192.023 297.668,-176.866 251.434,-166.675"/>
<polygon fill="midnightblue" stroke="midnightblue" points="252.158,-163.251 241.639,-164.516 250.652,-170.087 252.158,-163.251"/>
</g>
<!-- Node27 -->
<g id="node27" class="node"><title>Node27</title>
<polygon fill="white" stroke="#bfbfbf" points="283.5,-145.5 283.5,-164.5 438.5,-164.5 438.5,-145.5 283.5,-145.5"/>
<text text-anchor="middle" x="361" y="-152.5" font-family="Helvetica,sans-Serif" font-size="10.00">carl/core/carlLoggingHelper.h</text>
</g>
<!-- Node21&#45;&gt;Node27 -->
<g id="edge34" class="edge"><title>Node21&#45;&gt;Node27</title>
<path fill="none" stroke="midnightblue" d="M434.022,-201.324C420.45,-192.9 399.62,-179.971 383.675,-170.074"/>
<polygon fill="midnightblue" stroke="midnightblue" points="385.286,-166.954 374.943,-164.655 381.594,-172.902 385.286,-166.954"/>
</g>
</g>
</svg>
