<?xml version="1.0" encoding="UTF-8" standalone="no"?>
<!DOCTYPE svg PUBLIC "-//W3C//DTD SVG 1.1//EN"
 "http://www.w3.org/Graphics/SVG/1.1/DTD/svg11.dtd">
<!-- Generated by graphviz version 2.38.0 (20140413.2041)
 -->
<!-- Title: /home/travis/build/hypro/hypro/src/hypro/datastructures/Ridge.h Pages: 1 -->
<!--zoomable 553 -->
<svg id="main" version="1.1" xmlns="http://www.w3.org/2000/svg" xmlns:xlink="http://www.w3.org/1999/xlink" xml:space="preserve" onload="init(evt)">
<style type="text/css"><![CDATA[
.edge:hover path { stroke: red; }
.edge:hover polygon { stroke: red; fill: red; }
]]></style>
<script type="text/javascript"><![CDATA[
var edges = document.getElementsByTagName('g');
if (edges && edges.length) {
  for (var i=0;i<edges.length;i++) {
    if (edges[i].id.substr(0,4)=='edge') {
      edges[i].setAttribute('class','edge');
    }
  }
}
]]></script>
        <defs>
                <circle id="rim" cx="0" cy="0" r="7"/>
                <circle id="rim2" cx="0" cy="0" r="3.5"/>
                <g id="zoomPlus">
                        <use xlink:href="#rim" fill="#404040">
                                <set attributeName="fill" to="#808080" begin="zoomplus.mouseover" end="zoomplus.mouseout"/>
                        </use>
                        <path d="M-4,0h8M0,-4v8" fill="none" stroke="white" stroke-width="1.5" pointer-events="none"/>
                </g>
                <g id="zoomMin">
                        <use xlink:href="#rim" fill="#404040">
                                <set attributeName="fill" to="#808080" begin="zoomminus.mouseover" end="zoomminus.mouseout"/>
                        </use>
                        <path d="M-4,0h8" fill="none" stroke="white" stroke-width="1.5" pointer-events="none"/>
                </g>
                <g id="dirArrow">
                        <path fill="none" stroke="white" stroke-width="1.5" d="M0,-3.0v7 M-2.5,-0.5L0,-3.0L2.5,-0.5"/>
                </g>
               <g id="resetDef">
                       <use xlink:href="#rim2" fill="#404040">
                               <set attributeName="fill" to="#808080" begin="reset.mouseover" end="reset.mouseout"/>
                       </use>
               </g>
        </defs>

<script type="text/javascript">
var viewWidth = 1829;
var viewHeight = 553;
var sectionId = 'dynsection-0';
</script>
<script xlink:href="svgpan.js"/>
<svg id="graph" class="graph">
<g id="viewport">
<title>/home/travis/build/hypro/hypro/src/hypro/datastructures/Ridge.h</title>
<polygon fill="white" stroke="none" points="-4,4 -4,-549 1825,-549 1825,4 -4,4"/>
<!-- Node1 -->
<g id="node1" class="node"><title>Node1</title>
<polygon fill="#bfbfbf" stroke="black" points="936,-503.5 936,-544.5 1064,-544.5 1064,-503.5 936,-503.5"/>
<text text-anchor="start" x="944" y="-532.5" font-family="Helvetica,sans-Serif" font-size="10.00">/home/travis/build</text>
<text text-anchor="start" x="944" y="-521.5" font-family="Helvetica,sans-Serif" font-size="10.00">/hypro/hypro/src/hypro</text>
<text text-anchor="middle" x="1000" y="-510.5" font-family="Helvetica,sans-Serif" font-size="10.00">/datastructures/Ridge.h</text>
</g>
<!-- Node2 -->
<g id="node2" class="node"><title>Node2</title>
<g id="a_node2"><a xlink:href="config_8h.html" target="_top" xlink:title="../config.h">
<polygon fill="white" stroke="black" points="824.5,-263 824.5,-282 887.5,-282 887.5,-263 824.5,-263"/>
<text text-anchor="middle" x="856" y="-270" font-family="Helvetica,sans-Serif" font-size="10.00">../config.h</text>
</a>
</g>
</g>
<!-- Node1&#45;&gt;Node2 -->
<g id="edge1" class="edge"><title>Node1&#45;&gt;Node2</title>
<path fill="none" stroke="midnightblue" d="M988.701,-503.422C961.398,-456.117 892.176,-336.18 866.124,-291.041"/>
<polygon fill="midnightblue" stroke="midnightblue" points="869.15,-289.282 861.12,-282.371 863.087,-292.781 869.15,-289.282"/>
</g>
<!-- Node28 -->
<g id="node28" class="node"><title>Node28</title>
<g id="a_node28"><a xlink:href="Facet_8h.html" target="_top" xlink:title="Facet.h">
<polygon fill="white" stroke="black" points="1066.5,-447.5 1066.5,-466.5 1117.5,-466.5 1117.5,-447.5 1066.5,-447.5"/>
<text text-anchor="middle" x="1092" y="-454.5" font-family="Helvetica,sans-Serif" font-size="10.00">Facet.h</text>
</a>
</g>
</g>
<!-- Node1&#45;&gt;Node28 -->
<g id="edge35" class="edge"><title>Node1&#45;&gt;Node28</title>
<path fill="none" stroke="midnightblue" d="M1027.6,-503.498C1041.71,-493.532 1058.58,-481.614 1071.51,-472.476"/>
<polygon fill="midnightblue" stroke="midnightblue" points="1073.61,-475.281 1079.75,-466.652 1069.57,-469.564 1073.61,-475.281"/>
</g>
<!-- Node3 -->
<g id="node3" class="node"><title>Node3</title>
<g id="a_node3"><a xlink:href="flags_8h.html" target="_top" xlink:title="flags.h">
<polygon fill="white" stroke="black" points="706,-145.5 706,-164.5 754,-164.5 754,-145.5 706,-145.5"/>
<text text-anchor="middle" x="730" y="-152.5" font-family="Helvetica,sans-Serif" font-size="10.00">flags.h</text>
</a>
</g>
</g>
<!-- Node2&#45;&gt;Node3 -->
<g id="edge2" class="edge"><title>Node2&#45;&gt;Node3</title>
<path fill="none" stroke="midnightblue" d="M824.493,-270.088C791.27,-266.716 740.43,-255.782 716,-221 706.283,-207.166 712.266,-187.887 719.165,-173.921"/>
<polygon fill="midnightblue" stroke="midnightblue" points="722.403,-175.296 724.14,-164.844 716.265,-171.931 722.403,-175.296"/>
</g>
<!-- Node4 -->
<g id="node4" class="node"><title>Node4</title>
<g id="a_node4"><a xlink:href="util_2convenienceOperators_8h.html" target="_top" xlink:title="util/convenienceOperators.h">
<polygon fill="white" stroke="black" points="758.5,-201.5 758.5,-220.5 909.5,-220.5 909.5,-201.5 758.5,-201.5"/>
<text text-anchor="middle" x="834" y="-208.5" font-family="Helvetica,sans-Serif" font-size="10.00">util/convenienceOperators.h</text>
</a>
</g>
</g>
<!-- Node2&#45;&gt;Node4 -->
<g id="edge3" class="edge"><title>Node2&#45;&gt;Node4</title>
<path fill="none" stroke="midnightblue" d="M852.848,-262.975C849.679,-254.404 844.696,-240.927 840.649,-229.983"/>
<polygon fill="midnightblue" stroke="midnightblue" points="843.897,-228.675 837.146,-220.509 837.332,-231.102 843.897,-228.675"/>
</g>
<!-- Node21 -->
<g id="node21" class="node"><title>Node21</title>
<g id="a_node21"><a xlink:href="Logger_8h.html" target="_top" xlink:title="util/logging/Logger.h">
<polygon fill="white" stroke="black" points="393.5,-201.5 393.5,-220.5 506.5,-220.5 506.5,-201.5 393.5,-201.5"/>
<text text-anchor="middle" x="450" y="-208.5" font-family="Helvetica,sans-Serif" font-size="10.00">util/logging/Logger.h</text>
</a>
</g>
</g>
<!-- Node2&#45;&gt;Node21 -->
<g id="edge27" class="edge"><title>Node2&#45;&gt;Node21</title>
<path fill="none" stroke="midnightblue" d="M824.48,-266.881C758.641,-257.232 605.294,-234.759 516.598,-221.76"/>
<polygon fill="midnightblue" stroke="midnightblue" points="517.042,-218.288 506.64,-220.301 516.027,-225.214 517.042,-218.288"/>
</g>
<!-- Node5 -->
<g id="node5" class="node"><title>Node5</title>
<g id="a_node5"><a xlink:href="types_8h.html" target="_top" xlink:title="../types.h">
<polygon fill="white" stroke="black" points="966.5,-145.5 966.5,-164.5 1027.5,-164.5 1027.5,-145.5 966.5,-145.5"/>
<text text-anchor="middle" x="997" y="-152.5" font-family="Helvetica,sans-Serif" font-size="10.00">../types.h</text>
</a>
</g>
</g>
<!-- Node4&#45;&gt;Node5 -->
<g id="edge4" class="edge"><title>Node4&#45;&gt;Node5</title>
<path fill="none" stroke="midnightblue" d="M859.828,-201.444C887.249,-192.359 930.777,-177.939 961.432,-167.783"/>
<polygon fill="midnightblue" stroke="midnightblue" points="962.901,-170.984 971.293,-164.516 960.7,-164.339 962.901,-170.984"/>
</g>
<!-- Node10 -->
<g id="node10" class="node"><title>Node10</title>
<polygon fill="white" stroke="#bfbfbf" points="790,-11.5 790,-30.5 836,-30.5 836,-11.5 790,-11.5"/>
<text text-anchor="middle" x="813" y="-18.5" font-family="Helvetica,sans-Serif" font-size="10.00">iosfwd</text>
</g>
<!-- Node4&#45;&gt;Node10 -->
<g id="edge22" class="edge"><title>Node4&#45;&gt;Node10</title>
<path fill="none" stroke="midnightblue" d="M832.339,-201.392C829.05,-184.005 821.706,-143.42 818,-109 815.476,-85.5554 814.172,-58.41 813.538,-40.7602"/>
<polygon fill="midnightblue" stroke="midnightblue" points="817.033,-40.5492 813.212,-30.6674 810.037,-40.7751 817.033,-40.5492"/>
</g>
<!-- Node11 -->
<g id="node11" class="node"><title>Node11</title>
<polygon fill="white" stroke="#bfbfbf" points="827,-84 827,-103 859,-103 859,-84 827,-84"/>
<text text-anchor="middle" x="843" y="-91" font-family="Helvetica,sans-Serif" font-size="10.00">set</text>
</g>
<!-- Node4&#45;&gt;Node11 -->
<g id="edge24" class="edge"><title>Node4&#45;&gt;Node11</title>
<path fill="none" stroke="midnightblue" d="M834.676,-201.319C836.123,-182.757 839.545,-138.839 841.522,-113.473"/>
<polygon fill="midnightblue" stroke="midnightblue" points="845.028,-113.524 842.316,-103.282 838.049,-112.98 845.028,-113.524"/>
</g>
<!-- Node18 -->
<g id="node18" class="node"><title>Node18</title>
<polygon fill="white" stroke="#bfbfbf" points="1422,-145.5 1422,-164.5 1460,-164.5 1460,-145.5 1422,-145.5"/>
<text text-anchor="middle" x="1441" y="-152.5" font-family="Helvetica,sans-Serif" font-size="10.00">map</text>
</g>
<!-- Node4&#45;&gt;Node18 -->
<g id="edge23" class="edge"><title>Node4&#45;&gt;Node18</title>
<path fill="none" stroke="midnightblue" d="M909.65,-203.27C1044.63,-191.262 1321.32,-166.647 1411.72,-158.605"/>
<polygon fill="midnightblue" stroke="midnightblue" points="1412.15,-162.081 1421.8,-157.708 1411.53,-155.108 1412.15,-162.081"/>
</g>
<!-- Node19 -->
<g id="node19" class="node"><title>Node19</title>
<polygon fill="white" stroke="#bfbfbf" points="865,-145.5 865,-164.5 907,-164.5 907,-145.5 865,-145.5"/>
<text text-anchor="middle" x="886" y="-152.5" font-family="Helvetica,sans-Serif" font-size="10.00">utility</text>
</g>
<!-- Node4&#45;&gt;Node19 -->
<g id="edge25" class="edge"><title>Node4&#45;&gt;Node19</title>
<path fill="none" stroke="midnightblue" d="M842.587,-201.083C850.159,-193.22 861.378,-181.569 870.514,-172.081"/>
<polygon fill="midnightblue" stroke="midnightblue" points="873.158,-174.382 877.573,-164.751 868.115,-169.527 873.158,-174.382"/>
</g>
<!-- Node20 -->
<g id="node20" class="node"><title>Node20</title>
<polygon fill="white" stroke="#bfbfbf" points="1045.5,-145.5 1045.5,-164.5 1092.5,-164.5 1092.5,-145.5 1045.5,-145.5"/>
<text text-anchor="middle" x="1069" y="-152.5" font-family="Helvetica,sans-Serif" font-size="10.00">vector</text>
</g>
<!-- Node4&#45;&gt;Node20 -->
<g id="edge26" class="edge"><title>Node4&#45;&gt;Node20</title>
<path fill="none" stroke="midnightblue" d="M875.142,-201.428C913.977,-193.204 974.058,-180.142 1035.39,-165.06"/>
<polygon fill="midnightblue" stroke="midnightblue" points="1036.38,-168.422 1045.24,-162.623 1034.69,-161.627 1036.38,-168.422"/>
</g>
<!-- Node6 -->
<g id="node6" class="node"><title>Node6</title>
<polygon fill="white" stroke="#bfbfbf" points="984,-11.5 984,-30.5 1118,-30.5 1118,-11.5 984,-11.5"/>
<text text-anchor="middle" x="1051" y="-18.5" font-family="Helvetica,sans-Serif" font-size="10.00">carl/numbers/numbers.h</text>
</g>
<!-- Node5&#45;&gt;Node6 -->
<g id="edge5" class="edge"><title>Node5&#45;&gt;Node6</title>
<path fill="none" stroke="midnightblue" d="M991.836,-145.126C984.036,-130.471 971.243,-100.584 982,-78 990.762,-59.6033 1008.85,-45.2831 1024.31,-35.7299"/>
<polygon fill="midnightblue" stroke="midnightblue" points="1026.13,-38.7171 1033.02,-30.6613 1022.61,-32.6674 1026.13,-38.7171"/>
</g>
<!-- Node7 -->
<g id="node7" class="node"><title>Node7</title>
<polygon fill="white" stroke="#bfbfbf" points="991,-84 991,-103 1077,-103 1077,-84 991,-84"/>
<text text-anchor="middle" x="1034" y="-91" font-family="Helvetica,sans-Serif" font-size="10.00">carl/util/hash.h</text>
</g>
<!-- Node5&#45;&gt;Node7 -->
<g id="edge6" class="edge"><title>Node5&#45;&gt;Node7</title>
<path fill="none" stroke="midnightblue" d="M1002.3,-145.475C1007.74,-136.727 1016.36,-122.869 1023.24,-111.809"/>
<polygon fill="midnightblue" stroke="midnightblue" points="1026.4,-113.349 1028.71,-103.009 1020.46,-109.653 1026.4,-113.349"/>
</g>
<!-- Node8 -->
<g id="node8" class="node"><title>Node8</title>
<polygon fill="white" stroke="#bfbfbf" points="1095,-84 1095,-103 1199,-103 1199,-84 1095,-84"/>
<text text-anchor="middle" x="1147" y="-91" font-family="Helvetica,sans-Serif" font-size="10.00">eigen3/Eigen/Core</text>
</g>
<!-- Node5&#45;&gt;Node8 -->
<g id="edge7" class="edge"><title>Node5&#45;&gt;Node8</title>
<path fill="none" stroke="midnightblue" d="M1018.49,-145.475C1044.11,-135.313 1087.11,-118.256 1116.24,-106.7"/>
<polygon fill="midnightblue" stroke="midnightblue" points="1117.54,-109.95 1125.55,-103.009 1114.96,-103.443 1117.54,-109.95"/>
</g>
<!-- Node9 -->
<g id="node9" class="node"><title>Node9</title>
<polygon fill="white" stroke="#bfbfbf" points="854,-11.5 854,-30.5 966,-30.5 966,-11.5 854,-11.5"/>
<text text-anchor="middle" x="910" y="-18.5" font-family="Helvetica,sans-Serif" font-size="10.00">eigen3/Eigen/Dense</text>
</g>
<!-- Node5&#45;&gt;Node9 -->
<g id="edge8" class="edge"><title>Node5&#45;&gt;Node9</title>
<path fill="none" stroke="midnightblue" d="M991.292,-145.339C977.095,-123.799 939.989,-67.5005 921.219,-39.0221"/>
<polygon fill="midnightblue" stroke="midnightblue" points="924.042,-36.9447 915.616,-30.5212 918.197,-40.7969 924.042,-36.9447"/>
</g>
<!-- Node5&#45;&gt;Node10 -->
<g id="edge9" class="edge"><title>Node5&#45;&gt;Node10</title>
<path fill="none" stroke="midnightblue" d="M984.927,-145.339C953.988,-123.144 871.603,-64.0414 833.214,-36.501"/>
<polygon fill="midnightblue" stroke="midnightblue" points="835.044,-33.5064 824.878,-30.5212 830.963,-39.1942 835.044,-33.5064"/>
</g>
<!-- Node5&#45;&gt;Node11 -->
<g id="edge10" class="edge"><title>Node5&#45;&gt;Node11</title>
<path fill="none" stroke="midnightblue" d="M971.055,-145.448C945.76,-136.909 906.34,-123.063 873,-109 871.424,-108.335 869.812,-107.631 868.194,-106.905"/>
<polygon fill="midnightblue" stroke="midnightblue" points="869.595,-103.696 859.054,-102.632 866.631,-110.038 869.595,-103.696"/>
</g>
<!-- Node12 -->
<g id="node12" class="node"><title>Node12</title>
<g id="a_node12"><a xlink:href="adaptions__eigen_8h.html" target="_top" xlink:title="util/adaptions_eigen\l/adaptions_eigen.h">
<polygon fill="white" stroke="black" points="1217.5,-78.5 1217.5,-108.5 1330.5,-108.5 1330.5,-78.5 1217.5,-78.5"/>
<text text-anchor="start" x="1225.5" y="-96.5" font-family="Helvetica,sans-Serif" font-size="10.00">util/adaptions_eigen</text>
<text text-anchor="middle" x="1274" y="-85.5" font-family="Helvetica,sans-Serif" font-size="10.00">/adaptions_eigen.h</text>
</a>
</g>
</g>
<!-- Node5&#45;&gt;Node12 -->
<g id="edge11" class="edge"><title>Node5&#45;&gt;Node12</title>
<path fill="none" stroke="midnightblue" d="M1024.95,-145.454C1025.64,-145.301 1026.32,-145.149 1027,-145 1103.28,-128.218 1122.64,-125.38 1199,-109 1201.65,-108.431 1204.36,-107.847 1207.1,-107.255"/>
<polygon fill="midnightblue" stroke="midnightblue" points="1208.1,-110.62 1217.14,-105.089 1206.63,-103.778 1208.1,-110.62"/>
</g>
<!-- Node12&#45;&gt;Node2 -->
<g id="edge12" class="edge"><title>Node12&#45;&gt;Node2</title>
<path fill="none" stroke="midnightblue" d="M1240.88,-108.523C1161.48,-142.146 961.248,-226.933 885.578,-258.975"/>
<polygon fill="midnightblue" stroke="midnightblue" points="884.005,-255.841 876.161,-262.963 886.734,-262.287 884.005,-255.841"/>
</g>
<!-- Node12&#45;&gt;Node5 -->
<g id="edge13" class="edge"><title>Node12&#45;&gt;Node5</title>
<path fill="none" stroke="midnightblue" d="M1219.08,-108.554C1218.38,-108.704 1217.69,-108.852 1217,-109 1140.64,-125.38 1121.28,-128.218 1045,-145 1042.57,-145.536 1040.05,-146.098 1037.49,-146.669"/>
<polygon fill="midnightblue" stroke="midnightblue" points="1036.55,-143.292 1027.55,-148.875 1038.07,-150.125 1036.55,-143.292"/>
</g>
<!-- Node12&#45;&gt;Node6 -->
<g id="edge15" class="edge"><title>Node12&#45;&gt;Node6</title>
<path fill="none" stroke="midnightblue" d="M1229.68,-78.4872C1188.17,-65.3643 1126.85,-45.9808 1087.93,-33.6749"/>
<polygon fill="midnightblue" stroke="midnightblue" points="1088.65,-30.2322 1078.06,-30.555 1086.54,-36.9066 1088.65,-30.2322"/>
</g>
<!-- Node12&#45;&gt;Node9 -->
<g id="edge16" class="edge"><title>Node12&#45;&gt;Node9</title>
<path fill="none" stroke="midnightblue" d="M1217.16,-79.7754C1214.07,-79.1566 1211,-78.5604 1208,-78 1105,-58.7482 1077.12,-65.4696 975,-42 965.008,-39.7036 954.316,-36.664 944.548,-33.6495"/>
<polygon fill="midnightblue" stroke="midnightblue" points="945.362,-30.2359 934.772,-30.5494 943.246,-36.9084 945.362,-30.2359"/>
</g>
<!-- Node12&#45;&gt;Node10 -->
<g id="edge19" class="edge"><title>Node12&#45;&gt;Node10</title>
<path fill="none" stroke="midnightblue" d="M1217.2,-79.5773C1214.09,-79.0095 1211.01,-78.4786 1208,-78 1047.88,-52.5619 998.444,-94.3398 845,-42 840.745,-40.5486 836.472,-38.4381 832.496,-36.1262"/>
<polygon fill="midnightblue" stroke="midnightblue" points="834.206,-33.0646 823.906,-30.5817 830.41,-38.9457 834.206,-33.0646"/>
</g>
<!-- Node13 -->
<g id="node13" class="node"><title>Node13</title>
<g id="a_node13"><a xlink:href="transformation_8h.html" target="_top" xlink:title="transformation.h">
<polygon fill="white" stroke="black" points="1592.5,-11.5 1592.5,-30.5 1689.5,-30.5 1689.5,-11.5 1592.5,-11.5"/>
<text text-anchor="middle" x="1641" y="-18.5" font-family="Helvetica,sans-Serif" font-size="10.00">transformation.h</text>
</a>
</g>
</g>
<!-- Node12&#45;&gt;Node13 -->
<g id="edge14" class="edge"><title>Node12&#45;&gt;Node13</title>
<path fill="none" stroke="midnightblue" d="M1330.69,-86.1722C1393.12,-78.5262 1496.16,-63.8981 1583,-42 1591.69,-39.8098 1600.92,-36.9004 1609.41,-33.9806"/>
<polygon fill="midnightblue" stroke="midnightblue" points="1610.71,-37.2356 1618.96,-30.5908 1608.36,-30.6392 1610.71,-37.2356"/>
</g>
<!-- Node14 -->
<g id="node14" class="node"><title>Node14</title>
<polygon fill="white" stroke="#bfbfbf" points="1136,-11.5 1136,-30.5 1274,-30.5 1274,-11.5 1136,-11.5"/>
<text text-anchor="middle" x="1205" y="-18.5" font-family="Helvetica,sans-Serif" font-size="10.00">eigen3/Eigen/Eigenvalues</text>
</g>
<!-- Node12&#45;&gt;Node14 -->
<g id="edge17" class="edge"><title>Node12&#45;&gt;Node14</title>
<path fill="none" stroke="midnightblue" d="M1260.04,-78.2333C1248.67,-66.6154 1232.62,-50.2163 1220.78,-38.1241"/>
<polygon fill="midnightblue" stroke="midnightblue" points="1223.2,-35.5917 1213.7,-30.8932 1218.2,-40.488 1223.2,-35.5917"/>
</g>
<!-- Node15 -->
<g id="node15" class="node"><title>Node15</title>
<polygon fill="white" stroke="#bfbfbf" points="1292.5,-11.5 1292.5,-30.5 1355.5,-30.5 1355.5,-11.5 1292.5,-11.5"/>
<text text-anchor="middle" x="1324" y="-18.5" font-family="Helvetica,sans-Serif" font-size="10.00">functional</text>
</g>
<!-- Node12&#45;&gt;Node15 -->
<g id="edge18" class="edge"><title>Node12&#45;&gt;Node15</title>
<path fill="none" stroke="midnightblue" d="M1284.12,-78.2333C1292.12,-66.9474 1303.33,-51.1495 1311.82,-39.1709"/>
<polygon fill="midnightblue" stroke="midnightblue" points="1314.76,-41.0748 1317.69,-30.8932 1309.05,-37.0252 1314.76,-41.0748"/>
</g>
<!-- Node16 -->
<g id="node16" class="node"><title>Node16</title>
<polygon fill="white" stroke="#bfbfbf" points="1374,-11.5 1374,-30.5 1416,-30.5 1416,-11.5 1374,-11.5"/>
<text text-anchor="middle" x="1395" y="-18.5" font-family="Helvetica,sans-Serif" font-size="10.00">limits</text>
</g>
<!-- Node12&#45;&gt;Node16 -->
<g id="edge20" class="edge"><title>Node12&#45;&gt;Node16</title>
<path fill="none" stroke="midnightblue" d="M1300.24,-78.3345C1318.32,-68.4356 1342.82,-54.7576 1364,-42 1367.11,-40.1256 1370.37,-38.1 1373.55,-36.0822"/>
<polygon fill="midnightblue" stroke="midnightblue" points="1375.63,-38.9054 1382.14,-30.5483 1371.84,-33.0202 1375.63,-38.9054"/>
</g>
<!-- Node17 -->
<g id="node17" class="node"><title>Node17</title>
<polygon fill="white" stroke="#bfbfbf" points="1434,-0.5 1434,-41.5 1574,-41.5 1574,-0.5 1434,-0.5"/>
<text text-anchor="start" x="1442" y="-29.5" font-family="Helvetica,sans-Serif" font-size="10.00">eigen3/unsupported</text>
<text text-anchor="start" x="1442" y="-18.5" font-family="Helvetica,sans-Serif" font-size="10.00">/Eigen/src/MatrixFunctions</text>
<text text-anchor="middle" x="1504" y="-7.5" font-family="Helvetica,sans-Serif" font-size="10.00">/MatrixExponential.h</text>
</g>
<!-- Node12&#45;&gt;Node17 -->
<g id="edge21" class="edge"><title>Node12&#45;&gt;Node17</title>
<path fill="none" stroke="midnightblue" d="M1319.72,-78.4872C1351.34,-68.7925 1394.12,-55.6809 1430.5,-44.5304"/>
<polygon fill="midnightblue" stroke="midnightblue" points="1431.55,-47.8689 1440.08,-41.5919 1429.5,-41.1763 1431.55,-47.8689"/>
</g>
<!-- Node21&#45;&gt;Node3 -->
<g id="edge28" class="edge"><title>Node21&#45;&gt;Node3</title>
<path fill="none" stroke="midnightblue" d="M504.238,-201.498C552.208,-193.667 624.282,-181.145 695.821,-165.113"/>
<polygon fill="midnightblue" stroke="midnightblue" points="696.93,-168.45 705.91,-162.827 695.383,-161.623 696.93,-168.45"/>
</g>
<!-- Node22 -->
<g id="node22" class="node"><title>Node22</title>
<polygon fill="white" stroke="#bfbfbf" points="460,-145.5 460,-164.5 614,-164.5 614,-145.5 460,-145.5"/>
<text text-anchor="middle" x="537" y="-152.5" font-family="Helvetica,sans-Serif" font-size="10.00">carl/io/streamingOperators.h</text>
</g>
<!-- Node21&#45;&gt;Node22 -->
<g id="edge29" class="edge"><title>Node21&#45;&gt;Node22</title>
<path fill="none" stroke="midnightblue" d="M463.978,-201.324C477.55,-192.9 498.38,-179.971 514.325,-170.074"/>
<polygon fill="midnightblue" stroke="midnightblue" points="516.406,-172.902 523.057,-164.655 512.714,-166.954 516.406,-172.902"/>
</g>
<!-- Node23 -->
<g id="node23" class="node"><title>Node23</title>
<polygon fill="white" stroke="#bfbfbf" points="66.5,-145.5 66.5,-164.5 125.5,-164.5 125.5,-145.5 66.5,-145.5"/>
<text text-anchor="middle" x="96" y="-152.5" font-family="Helvetica,sans-Serif" font-size="10.00">iostream</text>
</g>
<!-- Node21&#45;&gt;Node23 -->
<g id="edge30" class="edge"><title>Node21&#45;&gt;Node23</title>
<path fill="none" stroke="midnightblue" d="M393.232,-203.497C331.951,-196.124 231.286,-182.988 135.919,-165.235"/>
<polygon fill="midnightblue" stroke="midnightblue" points="136.291,-161.743 125.816,-163.333 134.996,-168.622 136.291,-161.743"/>
</g>
<!-- Node24 -->
<g id="node24" class="node"><title>Node24</title>
<polygon fill="white" stroke="#bfbfbf" points="632,-145.5 632,-164.5 688,-164.5 688,-145.5 632,-145.5"/>
<text text-anchor="middle" x="660" y="-152.5" font-family="Helvetica,sans-Serif" font-size="10.00">sstream</text>
</g>
<!-- Node21&#45;&gt;Node24 -->
<g id="edge31" class="edge"><title>Node21&#45;&gt;Node24</title>
<path fill="none" stroke="midnightblue" d="M483.275,-201.444C521.044,-191.731 582.53,-175.921 622.112,-165.743"/>
<polygon fill="midnightblue" stroke="midnightblue" points="623.108,-169.101 631.921,-163.22 621.364,-162.321 623.108,-169.101"/>
</g>
<!-- Node25 -->
<g id="node25" class="node"><title>Node25</title>
<polygon fill="white" stroke="#bfbfbf" points="0,-145.5 0,-164.5 48,-164.5 48,-145.5 0,-145.5"/>
<text text-anchor="middle" x="24" y="-152.5" font-family="Helvetica,sans-Serif" font-size="10.00">thread</text>
</g>
<!-- Node21&#45;&gt;Node25 -->
<g id="edge32" class="edge"><title>Node21&#45;&gt;Node25</title>
<path fill="none" stroke="midnightblue" d="M393.295,-206.231C318.558,-200.661 182.913,-188.475 58.1611,-164.95"/>
<polygon fill="midnightblue" stroke="midnightblue" points="58.5311,-161.458 48.0512,-163.014 57.2144,-168.333 58.5311,-161.458"/>
</g>
<!-- Node26 -->
<g id="node26" class="node"><title>Node26</title>
<polygon fill="white" stroke="#bfbfbf" points="143.5,-145.5 143.5,-164.5 268.5,-164.5 268.5,-145.5 143.5,-145.5"/>
<text text-anchor="middle" x="206" y="-152.5" font-family="Helvetica,sans-Serif" font-size="10.00">carl/core/carlLogging.h</text>
</g>
<!-- Node21&#45;&gt;Node26 -->
<g id="edge33" class="edge"><title>Node21&#45;&gt;Node26</title>
<path fill="none" stroke="midnightblue" d="M411.337,-201.444C368.862,-192.043 300.569,-176.929 254.526,-166.739"/>
<polygon fill="midnightblue" stroke="midnightblue" points="255.002,-163.26 244.482,-164.516 253.489,-170.095 255.002,-163.26"/>
</g>
<!-- Node27 -->
<g id="node27" class="node"><title>Node27</title>
<polygon fill="white" stroke="#bfbfbf" points="286.5,-145.5 286.5,-164.5 441.5,-164.5 441.5,-145.5 286.5,-145.5"/>
<text text-anchor="middle" x="364" y="-152.5" font-family="Helvetica,sans-Serif" font-size="10.00">carl/core/carlLoggingHelper.h</text>
</g>
<!-- Node21&#45;&gt;Node27 -->
<g id="edge34" class="edge"><title>Node21&#45;&gt;Node27</title>
<path fill="none" stroke="midnightblue" d="M436.183,-201.324C422.767,-192.9 402.176,-179.971 386.414,-170.074"/>
<polygon fill="midnightblue" stroke="midnightblue" points="388.113,-167.008 377.783,-164.655 384.391,-172.936 388.113,-167.008"/>
</g>
<!-- Node28&#45;&gt;Node5 -->
<g id="edge36" class="edge"><title>Node28&#45;&gt;Node5</title>
<path fill="none" stroke="midnightblue" d="M1092.73,-447.284C1094.78,-418.796 1098.83,-326.293 1072,-257 1058.88,-223.114 1031.13,-190.612 1013.32,-172.009"/>
<polygon fill="midnightblue" stroke="midnightblue" points="1015.64,-169.383 1006.14,-164.704 1010.65,-174.29 1015.64,-169.383"/>
</g>
<!-- Node29 -->
<g id="node29" class="node"><title>Node29</title>
<g id="a_node29"><a xlink:href="Halfspace_8h.html" target="_top" xlink:title="Halfspace.h">
<polygon fill="white" stroke="black" points="1341.5,-391.5 1341.5,-410.5 1414.5,-410.5 1414.5,-391.5 1341.5,-391.5"/>
<text text-anchor="middle" x="1378" y="-398.5" font-family="Helvetica,sans-Serif" font-size="10.00">Halfspace.h</text>
</a>
</g>
</g>
<!-- Node28&#45;&gt;Node29 -->
<g id="edge37" class="edge"><title>Node28&#45;&gt;Node29</title>
<path fill="none" stroke="midnightblue" d="M1117.63,-451.16C1165.72,-442.081 1270.09,-422.374 1331.08,-410.859"/>
<polygon fill="midnightblue" stroke="midnightblue" points="1332.03,-414.241 1341.21,-408.946 1330.73,-407.362 1332.03,-414.241"/>
</g>
<!-- Node29&#45;&gt;Node12 -->
<g id="edge48" class="edge"><title>Node29&#45;&gt;Node12</title>
<path fill="none" stroke="midnightblue" d="M1414.63,-397.44C1520.77,-389.028 1821,-357.783 1821,-273.5 1821,-273.5 1821,-273.5 1821,-210 1821,-112.905 1486.89,-97.0294 1340.91,-94.7267"/>
<polygon fill="midnightblue" stroke="midnightblue" points="1340.78,-91.2246 1330.73,-94.5835 1340.68,-98.224 1340.78,-91.2246"/>
</g>
<!-- Node30 -->
<g id="node30" class="node"><title>Node30</title>
<g id="a_node30"><a xlink:href="representations_2types_8h.html" target="_top" xlink:title="../representations\l/types.h">
<polygon fill="white" stroke="black" points="1559.5,-324.5 1559.5,-354.5 1660.5,-354.5 1660.5,-324.5 1559.5,-324.5"/>
<text text-anchor="start" x="1567.5" y="-342.5" font-family="Helvetica,sans-Serif" font-size="10.00">../representations</text>
<text text-anchor="middle" x="1610" y="-331.5" font-family="Helvetica,sans-Serif" font-size="10.00">/types.h</text>
</a>
</g>
</g>
<!-- Node29&#45;&gt;Node30 -->
<g id="edge38" class="edge"><title>Node29&#45;&gt;Node30</title>
<path fill="none" stroke="midnightblue" d="M1411.24,-391.475C1447.23,-382.244 1505.41,-367.324 1549.54,-356.005"/>
<polygon fill="midnightblue" stroke="midnightblue" points="1550.48,-359.378 1559.3,-353.503 1548.74,-352.597 1550.48,-359.378"/>
</g>
<!-- Node31 -->
<g id="node31" class="node"><title>Node31</title>
<g id="a_node31"><a xlink:href="VariablePool_8h.html" target="_top" xlink:title="../util/VariablePool.h">
<polygon fill="white" stroke="black" points="1393,-263 1393,-282 1503,-282 1503,-263 1393,-263"/>
<text text-anchor="middle" x="1448" y="-270" font-family="Helvetica,sans-Serif" font-size="10.00">../util/VariablePool.h</text>
</a>
</g>
</g>
<!-- Node29&#45;&gt;Node31 -->
<g id="edge39" class="edge"><title>Node29&#45;&gt;Node31</title>
<path fill="none" stroke="midnightblue" d="M1391.54,-391.295C1402.97,-383.24 1418.88,-370.232 1428,-355 1439.66,-335.516 1444.54,-309.547 1446.57,-292.212"/>
<polygon fill="midnightblue" stroke="midnightblue" points="1450.05,-292.512 1447.53,-282.222 1443.09,-291.839 1450.05,-292.512"/>
</g>
<!-- Node36 -->
<g id="node36" class="node"><title>Node36</title>
<polygon fill="white" stroke="#bfbfbf" points="1741,-201.5 1741,-220.5 1793,-220.5 1793,-201.5 1741,-201.5"/>
<text text-anchor="middle" x="1767" y="-208.5" font-family="Helvetica,sans-Serif" font-size="10.00">cassert</text>
</g>
<!-- Node29&#45;&gt;Node36 -->
<g id="edge58" class="edge"><title>Node29&#45;&gt;Node36</title>
<path fill="none" stroke="midnightblue" d="M1395.73,-391.434C1457.74,-361.46 1665.27,-261.166 1739.94,-225.077"/>
<polygon fill="midnightblue" stroke="midnightblue" points="1741.69,-228.12 1749.17,-220.617 1738.64,-221.817 1741.69,-228.12"/>
</g>
<!-- Node37 -->
<g id="node37" class="node"><title>Node37</title>
<g id="a_node37"><a xlink:href="EvaluationResult_8h.html" target="_top" xlink:title="../util/linearOptimization\l/EvaluationResult.h">
<polygon fill="white" stroke="black" points="1164,-257.5 1164,-287.5 1294,-287.5 1294,-257.5 1164,-257.5"/>
<text text-anchor="start" x="1172" y="-275.5" font-family="Helvetica,sans-Serif" font-size="10.00">../util/linearOptimization</text>
<text text-anchor="middle" x="1229" y="-264.5" font-family="Helvetica,sans-Serif" font-size="10.00">/EvaluationResult.h</text>
</a>
</g>
</g>
<!-- Node29&#45;&gt;Node37 -->
<g id="edge49" class="edge"><title>Node29&#45;&gt;Node37</title>
<path fill="none" stroke="midnightblue" d="M1341.36,-393.235C1316.78,-387.014 1285.15,-375.527 1264,-355 1248.02,-339.488 1238.93,-315.494 1234.04,-297.55"/>
<polygon fill="midnightblue" stroke="midnightblue" points="1237.42,-296.661 1231.62,-287.794 1230.63,-298.342 1237.42,-296.661"/>
</g>
<!-- Node38 -->
<g id="node38" class="node"><title>Node38</title>
<g id="a_node38"><a xlink:href="Point_8h.html" target="_top" xlink:title="Point.h">
<polygon fill="white" stroke="black" points="1009,-330 1009,-349 1059,-349 1059,-330 1009,-330"/>
<text text-anchor="middle" x="1034" y="-337" font-family="Helvetica,sans-Serif" font-size="10.00">Point.h</text>
</a>
</g>
</g>
<!-- Node29&#45;&gt;Node38 -->
<g id="edge51" class="edge"><title>Node29&#45;&gt;Node38</title>
<path fill="none" stroke="midnightblue" d="M1341.19,-393.632C1274.69,-382.131 1135.38,-358.034 1069.7,-346.675"/>
<polygon fill="midnightblue" stroke="midnightblue" points="1069.89,-343.156 1059.44,-344.901 1068.7,-350.054 1069.89,-343.156"/>
</g>
<!-- Node40 -->
<g id="node40" class="node"><title>Node40</title>
<polygon fill="white" stroke="#bfbfbf" points="1273.5,-330 1273.5,-349 1318.5,-349 1318.5,-330 1273.5,-330"/>
<text text-anchor="middle" x="1296" y="-337" font-family="Helvetica,sans-Serif" font-size="10.00">glpk.h</text>
</g>
<!-- Node29&#45;&gt;Node40 -->
<g id="edge59" class="edge"><title>Node29&#45;&gt;Node40</title>
<path fill="none" stroke="midnightblue" d="M1366.25,-391.475C1353.22,-382.02 1331.96,-366.596 1316.24,-355.187"/>
<polygon fill="midnightblue" stroke="midnightblue" points="1317.88,-352.049 1307.73,-349.009 1313.77,-357.715 1317.88,-352.049"/>
</g>
<!-- Node41 -->
<g id="node41" class="node"><title>Node41</title>
<polygon fill="white" stroke="#bfbfbf" points="1336.5,-330 1336.5,-349 1419.5,-349 1419.5,-330 1336.5,-330"/>
<text text-anchor="middle" x="1378" y="-337" font-family="Helvetica,sans-Serif" font-size="10.00">Halfspace.tpp</text>
</g>
<!-- Node29&#45;&gt;Node41 -->
<g id="edge60" class="edge"><title>Node29&#45;&gt;Node41</title>
<path fill="none" stroke="midnightblue" d="M1378,-391.475C1378,-383.08 1378,-369.981 1378,-359.163"/>
<polygon fill="midnightblue" stroke="midnightblue" points="1381.5,-359.009 1378,-349.009 1374.5,-359.009 1381.5,-359.009"/>
</g>
<!-- Node31&#45;&gt;Node3 -->
<g id="edge40" class="edge"><title>Node31&#45;&gt;Node3</title>
<path fill="none" stroke="midnightblue" d="M1392.96,-265.541C1365.88,-262.726 1332.75,-259.454 1303,-257 1241.52,-251.93 797.133,-259.578 749,-221 735.402,-210.102 731.181,-190.034 730.037,-175.068"/>
<polygon fill="midnightblue" stroke="midnightblue" points="733.526,-174.717 729.657,-164.854 726.531,-174.977 733.526,-174.717"/>
</g>
<!-- Node31&#45;&gt;Node18 -->
<g id="edge46" class="edge"><title>Node31&#45;&gt;Node18</title>
<path fill="none" stroke="midnightblue" d="M1488.49,-262.945C1497.85,-260.981 1507.77,-258.908 1517,-257 1597.8,-240.293 1746.99,-264.246 1694,-201 1665.69,-167.208 1530.3,-158.771 1470.04,-156.681"/>
<polygon fill="midnightblue" stroke="midnightblue" points="1470.14,-153.183 1460.04,-156.369 1469.92,-160.179 1470.14,-153.183"/>
</g>
<!-- Node31&#45;&gt;Node20 -->
<g id="edge47" class="edge"><title>Node31&#45;&gt;Node20</title>
<path fill="none" stroke="midnightblue" d="M1451.59,-262.862C1457.05,-248.162 1465.29,-218.206 1450,-201 1427.07,-175.197 1191.39,-161.674 1102.6,-157.464"/>
<polygon fill="midnightblue" stroke="midnightblue" points="1102.68,-153.963 1092.52,-156.996 1102.35,-160.956 1102.68,-153.963"/>
</g>
<!-- Node32 -->
<g id="node32" class="node"><title>Node32</title>
<polygon fill="white" stroke="#bfbfbf" points="1497,-201.5 1497,-220.5 1559,-220.5 1559,-201.5 1497,-201.5"/>
<text text-anchor="middle" x="1528" y="-208.5" font-family="Helvetica,sans-Serif" font-size="10.00">algorithm</text>
</g>
<!-- Node31&#45;&gt;Node32 -->
<g id="edge41" class="edge"><title>Node31&#45;&gt;Node32</title>
<path fill="none" stroke="midnightblue" d="M1459.46,-262.975C1472.17,-253.52 1492.91,-238.096 1508.25,-226.687"/>
<polygon fill="midnightblue" stroke="midnightblue" points="1510.62,-229.285 1516.56,-220.509 1506.45,-223.669 1510.62,-229.285"/>
</g>
<!-- Node33 -->
<g id="node33" class="node"><title>Node33</title>
<polygon fill="white" stroke="#bfbfbf" points="1577,-201.5 1577,-220.5 1685,-220.5 1685,-201.5 1577,-201.5"/>
<text text-anchor="middle" x="1631" y="-208.5" font-family="Helvetica,sans-Serif" font-size="10.00">carl/core/Variable.h</text>
</g>
<!-- Node31&#45;&gt;Node33 -->
<g id="edge42" class="edge"><title>Node31&#45;&gt;Node33</title>
<path fill="none" stroke="midnightblue" d="M1474.22,-262.975C1506.02,-252.636 1559.77,-235.161 1595.32,-223.602"/>
<polygon fill="midnightblue" stroke="midnightblue" points="1596.4,-226.93 1604.83,-220.509 1594.24,-220.273 1596.4,-226.93"/>
</g>
<!-- Node34 -->
<g id="node34" class="node"><title>Node34</title>
<polygon fill="white" stroke="#bfbfbf" points="1187,-201.5 1187,-220.5 1315,-220.5 1315,-201.5 1187,-201.5"/>
<text text-anchor="middle" x="1251" y="-208.5" font-family="Helvetica,sans-Serif" font-size="10.00">carl/core/VariablePool.h</text>
</g>
<!-- Node31&#45;&gt;Node34 -->
<g id="edge43" class="edge"><title>Node31&#45;&gt;Node34</title>
<path fill="none" stroke="midnightblue" d="M1419.77,-262.975C1385.4,-252.592 1327.19,-235.012 1288.92,-223.454"/>
<polygon fill="midnightblue" stroke="midnightblue" points="1289.76,-220.05 1279.17,-220.509 1287.73,-226.751 1289.76,-220.05"/>
</g>
<!-- Node35 -->
<g id="node35" class="node"><title>Node35</title>
<polygon fill="white" stroke="#bfbfbf" points="1333,-201.5 1333,-220.5 1441,-220.5 1441,-201.5 1333,-201.5"/>
<text text-anchor="middle" x="1387" y="-208.5" font-family="Helvetica,sans-Serif" font-size="10.00">carl/util/Singleton.h</text>
</g>
<!-- Node31&#45;&gt;Node35 -->
<g id="edge44" class="edge"><title>Node31&#45;&gt;Node35</title>
<path fill="none" stroke="midnightblue" d="M1439.26,-262.975C1429.84,-253.785 1414.64,-238.956 1403.05,-227.656"/>
<polygon fill="midnightblue" stroke="midnightblue" points="1405.33,-224.986 1395.72,-220.509 1400.44,-229.997 1405.33,-224.986"/>
</g>
<!-- Node31&#45;&gt;Node36 -->
<g id="edge45" class="edge"><title>Node31&#45;&gt;Node36</title>
<path fill="none" stroke="midnightblue" d="M1487.36,-262.964C1497.04,-260.939 1507.38,-258.835 1517,-257 1610.02,-239.26 1634.11,-239.399 1727,-221 1728.26,-220.751 1729.53,-220.493 1730.82,-220.227"/>
<polygon fill="midnightblue" stroke="midnightblue" points="1731.74,-223.61 1740.79,-218.1 1730.28,-216.765 1731.74,-223.61"/>
</g>
<!-- Node37&#45;&gt;Node5 -->
<g id="edge50" class="edge"><title>Node37&#45;&gt;Node5</title>
<path fill="none" stroke="midnightblue" d="M1200.55,-257.337C1155.22,-234.768 1067.23,-190.966 1023.29,-169.091"/>
<polygon fill="midnightblue" stroke="midnightblue" points="1024.63,-165.846 1014.12,-164.522 1021.51,-172.112 1024.63,-165.846"/>
</g>
<!-- Node38&#45;&gt;Node2 -->
<g id="edge52" class="edge"><title>Node38&#45;&gt;Node2</title>
<path fill="none" stroke="midnightblue" d="M1010.36,-329.869C979.291,-318.522 924.529,-298.525 889.278,-285.652"/>
<polygon fill="midnightblue" stroke="midnightblue" points="890.045,-282.206 879.451,-282.064 887.644,-288.782 890.045,-282.206"/>
</g>
<!-- Node38&#45;&gt;Node5 -->
<g id="edge53" class="edge"><title>Node38&#45;&gt;Node5</title>
<path fill="none" stroke="midnightblue" d="M1024.43,-329.944C1014.87,-320.696 1000.79,-304.984 995,-288 981.848,-249.454 987.919,-200.817 992.862,-174.673"/>
<polygon fill="midnightblue" stroke="midnightblue" points="996.338,-175.148 994.917,-164.649 989.48,-173.742 996.338,-175.148"/>
</g>
<!-- Node38&#45;&gt;Node11 -->
<g id="edge55" class="edge"><title>Node38&#45;&gt;Node11</title>
<path fill="none" stroke="midnightblue" d="M1024.01,-329.984C1013.36,-320.528 996.476,-304.422 985,-288 944.577,-230.157 961.869,-198.626 916,-145 902.645,-129.386 883.4,-116.338 868.022,-107.418"/>
<polygon fill="midnightblue" stroke="midnightblue" points="869.474,-104.221 859.035,-102.412 866.068,-110.336 869.474,-104.221"/>
</g>
<!-- Node38&#45;&gt;Node20 -->
<g id="edge56" class="edge"><title>Node38&#45;&gt;Node20</title>
<path fill="none" stroke="midnightblue" d="M1043.33,-329.893C1052.65,-320.603 1066.37,-304.858 1072,-288 1084.91,-249.366 1078.45,-200.764 1073.29,-174.648"/>
<polygon fill="midnightblue" stroke="midnightblue" points="1076.67,-173.685 1071.16,-164.637 1069.82,-175.147 1076.67,-173.685"/>
</g>
<!-- Node38&#45;&gt;Node31 -->
<g id="edge54" class="edge"><title>Node38&#45;&gt;Node31</title>
<path fill="none" stroke="midnightblue" d="M1059.27,-334.532C1122.73,-324.569 1290.32,-298.256 1383.4,-283.643"/>
<polygon fill="midnightblue" stroke="midnightblue" points="1384.2,-287.059 1393.54,-282.051 1383.12,-280.144 1384.2,-287.059"/>
</g>
<!-- Node39 -->
<g id="node39" class="node"><title>Node39</title>
<polygon fill="white" stroke="#bfbfbf" points="1004.5,-263 1004.5,-282 1063.5,-282 1063.5,-263 1004.5,-263"/>
<text text-anchor="middle" x="1034" y="-270" font-family="Helvetica,sans-Serif" font-size="10.00">Point.tpp</text>
</g>
<!-- Node38&#45;&gt;Node39 -->
<g id="edge57" class="edge"><title>Node38&#45;&gt;Node39</title>
<path fill="none" stroke="midnightblue" d="M1034,-329.734C1034,-320.183 1034,-304.618 1034,-292.283"/>
<polygon fill="midnightblue" stroke="midnightblue" points="1037.5,-292.127 1034,-282.127 1030.5,-292.127 1037.5,-292.127"/>
</g>
</g>
</svg>
        <g id="navigator" transform="translate(0 0)" fill="#404254">
                <rect fill="#f2f5e9" fill-opacity="0.5" stroke="#606060" stroke-width=".5" x="0" y="0" width="60" height="60"/>
                <use id="zoomplus" xlink:href="#zoomPlus" x="17" y="9" onmousedown="handleZoom(evt,'in')"/>
                <use id="zoomminus" xlink:href="#zoomMin" x="42" y="9" onmousedown="handleZoom(evt,'out')"/>
                <use id="reset" xlink:href="#resetDef" x="30" y="36" onmousedown="handleReset()"/>
                <g id="arrowUp" xlink:href="#dirArrow" transform="translate(30 24)" onmousedown="handlePan(0,-1)">
                  <use xlink:href="#rim" fill="#404040">
                        <set attributeName="fill" to="#808080" begin="arrowUp.mouseover" end="arrowUp.mouseout"/>
                  </use>
                  <path fill="none" stroke="white" stroke-width="1.5" d="M0,-3.0v7 M-2.5,-0.5L0,-3.0L2.5,-0.5"/>
                </g>
                <g id="arrowRight" xlink:href="#dirArrow" transform="rotate(90) translate(36 -43)" onmousedown="handlePan(1,0)">
                  <use xlink:href="#rim" fill="#404040">
                        <set attributeName="fill" to="#808080" begin="arrowRight.mouseover" end="arrowRight.mouseout"/>
                  </use>
                  <path fill="none" stroke="white" stroke-width="1.5" d="M0,-3.0v7 M-2.5,-0.5L0,-3.0L2.5,-0.5"/>
                </g>
                <g id="arrowDown" xlink:href="#dirArrow" transform="rotate(180) translate(-30 -48)" onmousedown="handlePan(0,1)">
                  <use xlink:href="#rim" fill="#404040">
                        <set attributeName="fill" to="#808080" begin="arrowDown.mouseover" end="arrowDown.mouseout"/>
                  </use>
                  <path fill="none" stroke="white" stroke-width="1.5" d="M0,-3.0v7 M-2.5,-0.5L0,-3.0L2.5,-0.5"/>
                </g>
                <g id="arrowLeft" xlink:href="#dirArrow" transform="rotate(270) translate(-36 17)" onmousedown="handlePan(-1,0)">
                  <use xlink:href="#rim" fill="#404040">
                        <set attributeName="fill" to="#808080" begin="arrowLeft.mouseover" end="arrowLeft.mouseout"/>
                  </use>
                  <path fill="none" stroke="white" stroke-width="1.5" d="M0,-3.0v7 M-2.5,-0.5L0,-3.0L2.5,-0.5"/>
                </g>
        </g>
        <svg viewBox="0 0 15 15" width="100%" height="30px" preserveAspectRatio="xMaxYMin meet">
         <g id="arrow_out" transform="scale(0.3 0.3)">
          <a xlink:href="Ridge_8h__incl_org.svg" target="_base">
           <rect id="button" ry="5" rx="5" y="6" x="6" height="38" width="38"
                fill="#f2f5e9" fill-opacity="0.5" stroke="#606060" stroke-width="1.0"/>
           <path id="arrow"
             d="M 11.500037,31.436501 C 11.940474,20.09759 22.043105,11.32322 32.158766,21.979434 L 37.068811,17.246167 C 37.068811,17.246167 37.088388,32 37.088388,32 L 22.160133,31.978069 C 22.160133,31.978069 26.997745,27.140456 26.997745,27.140456 C 18.528582,18.264221 13.291696,25.230495 11.500037,31.436501 z"
             style="fill:#404040;"/>
          </a>
         </g>
        </svg>
</svg>
