<?xml version="1.0" encoding="UTF-8" standalone="no"?>
<!DOCTYPE svg PUBLIC "-//W3C//DTD SVG 1.1//EN"
 "http://www.w3.org/Graphics/SVG/1.1/DTD/svg11.dtd">
<!-- Generated by graphviz version 2.38.0 (20140413.2041)
 -->
<!-- Title: /home/travis/build/hypro/hypro/src/hypro/datastructures/reachability/SettingsProvider.h Pages: 1 -->
<svg width="1274pt" height="1073pt"
 viewBox="0.00 0.00 1274.00 1073.00" xmlns="http://www.w3.org/2000/svg" xmlns:xlink="http://www.w3.org/1999/xlink">
<g id="graph0" class="graph" transform="scale(1 1) rotate(0) translate(4 1069)">
<title>/home/travis/build/hypro/hypro/src/hypro/datastructures/reachability/SettingsProvider.h</title>
<polygon fill="white" stroke="none" points="-4,4 -4,-1069 1270,-1069 1270,4 -4,4"/>
<!-- Node1 -->
<g id="node1" class="node"><title>Node1</title>
<polygon fill="#bfbfbf" stroke="black" points="336,-1012.5 336,-1064.5 484,-1064.5 484,-1012.5 336,-1012.5"/>
<text text-anchor="start" x="344" y="-1052.5" font-family="Helvetica,sans-Serif" font-size="10.00">/home/travis/build</text>
<text text-anchor="start" x="344" y="-1041.5" font-family="Helvetica,sans-Serif" font-size="10.00">/hypro/hypro/src/hypro</text>
<text text-anchor="start" x="344" y="-1030.5" font-family="Helvetica,sans-Serif" font-size="10.00">/datastructures/reachability</text>
<text text-anchor="middle" x="410" y="-1019.5" font-family="Helvetica,sans-Serif" font-size="10.00">/SettingsProvider.h</text>
</g>
<!-- Node2 -->
<g id="node2" class="node"><title>Node2</title>
<g id="a_node2"><a xlink:href="ReachTreeNode_8h.html" target="_top" xlink:title="/home/travis/build\l/hypro/hypro/src/hypro\l/datastructures/reachability\l/ReachTreeNode.h">
<polygon fill="white" stroke="black" points="743,-918 743,-970 891,-970 891,-918 743,-918"/>
<text text-anchor="start" x="751" y="-958" font-family="Helvetica,sans-Serif" font-size="10.00">/home/travis/build</text>
<text text-anchor="start" x="751" y="-947" font-family="Helvetica,sans-Serif" font-size="10.00">/hypro/hypro/src/hypro</text>
<text text-anchor="start" x="751" y="-936" font-family="Helvetica,sans-Serif" font-size="10.00">/datastructures/reachability</text>
<text text-anchor="middle" x="817" y="-925" font-family="Helvetica,sans-Serif" font-size="10.00">/ReachTreeNode.h</text>
</a>
</g>
</g>
<!-- Node1&#45;&gt;Node2 -->
<g id="edge1" class="edge"><title>Node1&#45;&gt;Node2</title>
<path fill="none" stroke="midnightblue" d="M494.306,-1018.34C567.638,-1001.67 672.861,-977.759 742.99,-961.821"/>
<polygon fill="midnightblue" stroke="midnightblue" points="493.152,-1015.01 484.177,-1020.64 494.704,-1021.84 493.152,-1015.01"/>
</g>
<!-- Node6 -->
<g id="node6" class="node"><title>Node6</title>
<g id="a_node6"><a xlink:href="example__rectangularReachability_8cpp.html" target="_top" xlink:title="/home/travis/build\l/hypro/hypro/examples\l/example_rectangularReachability.cpp">
<polygon fill="white" stroke="black" points="192,-0.5 192,-41.5 388,-41.5 388,-0.5 192,-0.5"/>
<text text-anchor="start" x="200" y="-29.5" font-family="Helvetica,sans-Serif" font-size="10.00">/home/travis/build</text>
<text text-anchor="start" x="200" y="-18.5" font-family="Helvetica,sans-Serif" font-size="10.00">/hypro/hypro/examples</text>
<text text-anchor="middle" x="290" y="-7.5" font-family="Helvetica,sans-Serif" font-size="10.00">/example_rectangularReachability.cpp</text>
</a>
</g>
</g>
<!-- Node1&#45;&gt;Node6 -->
<g id="edge53" class="edge"><title>Node1&#45;&gt;Node6</title>
<path fill="none" stroke="midnightblue" d="M325.482,-1034.3C205.451,-1024.72 0,-987.502 0,-845 0,-845 0,-845 0,-203.5 0,-110.844 107.688,-63.7147 191.819,-41.0331"/>
<polygon fill="midnightblue" stroke="midnightblue" points="325.519,-1037.81 335.752,-1035.07 326.041,-1030.83 325.519,-1037.81"/>
</g>
<!-- Node7 -->
<g id="node7" class="node"><title>Node7</title>
<g id="a_node7"><a xlink:href="example__worker_8cpp.html" target="_top" xlink:title="/home/travis/build\l/hypro/hypro/examples\l/example_worker.cpp">
<polygon fill="white" stroke="black" points="946,-0.5 946,-41.5 1072,-41.5 1072,-0.5 946,-0.5"/>
<text text-anchor="start" x="954" y="-29.5" font-family="Helvetica,sans-Serif" font-size="10.00">/home/travis/build</text>
<text text-anchor="start" x="954" y="-18.5" font-family="Helvetica,sans-Serif" font-size="10.00">/hypro/hypro/examples</text>
<text text-anchor="middle" x="1009" y="-7.5" font-family="Helvetica,sans-Serif" font-size="10.00">/example_worker.cpp</text>
</a>
</g>
</g>
<!-- Node1&#45;&gt;Node7 -->
<g id="edge54" class="edge"><title>Node1&#45;&gt;Node7</title>
<path fill="none" stroke="midnightblue" d="M494.107,-1036.32C709.838,-1031.03 1266,-1002.16 1266,-845 1266,-845 1266,-845 1266,-203.5 1266,-138.061 1240.65,-118.176 1189,-78 1155.29,-51.7789 1109.17,-37.7388 1072.06,-30.2747"/>
<polygon fill="midnightblue" stroke="midnightblue" points="494.01,-1032.82 484.095,-1036.55 494.174,-1039.82 494.01,-1032.82"/>
</g>
<!-- Node9 -->
<g id="node9" class="node"><title>Node9</title>
<g id="a_node9"><a xlink:href="LTIContext_8h.html" target="_top" xlink:title="/home/travis/build\l/hypro/hypro/src/hypro\l/algorithms/reachability\l/contexts/LTIContext.h">
<polygon fill="white" stroke="black" points="705,-356.5 705,-408.5 833,-408.5 833,-356.5 705,-356.5"/>
<text text-anchor="start" x="713" y="-396.5" font-family="Helvetica,sans-Serif" font-size="10.00">/home/travis/build</text>
<text text-anchor="start" x="713" y="-385.5" font-family="Helvetica,sans-Serif" font-size="10.00">/hypro/hypro/src/hypro</text>
<text text-anchor="start" x="713" y="-374.5" font-family="Helvetica,sans-Serif" font-size="10.00">/algorithms/reachability</text>
<text text-anchor="middle" x="769" y="-363.5" font-family="Helvetica,sans-Serif" font-size="10.00">/contexts/LTIContext.h</text>
</a>
</g>
</g>
<!-- Node1&#45;&gt;Node9 -->
<g id="edge35" class="edge"><title>Node1&#45;&gt;Node9</title>
<path fill="none" stroke="midnightblue" d="M325.857,-1025.16C295.315,-1016.42 263.348,-1001.49 243,-976 206.226,-929.926 190.816,-764.816 217,-712 222.441,-701.024 557.098,-450.587 568,-445 611.355,-422.78 664.153,-407.01 704.756,-397.005"/>
<polygon fill="midnightblue" stroke="midnightblue" points="325.143,-1028.59 335.707,-1027.78 326.946,-1021.83 325.143,-1028.59"/>
</g>
<!-- Node10 -->
<g id="node10" class="node"><title>Node10</title>
<g id="a_node10"><a xlink:href="TimedContext_8h.html" target="_top" xlink:title="/home/travis/build\l/hypro/hypro/src/hypro\l/algorithms/reachability\l/contexts/TimedContext.h">
<polygon fill="white" stroke="black" points="984,-267.5 984,-319.5 1124,-319.5 1124,-267.5 984,-267.5"/>
<text text-anchor="start" x="992" y="-307.5" font-family="Helvetica,sans-Serif" font-size="10.00">/home/travis/build</text>
<text text-anchor="start" x="992" y="-296.5" font-family="Helvetica,sans-Serif" font-size="10.00">/hypro/hypro/src/hypro</text>
<text text-anchor="start" x="992" y="-285.5" font-family="Helvetica,sans-Serif" font-size="10.00">/algorithms/reachability</text>
<text text-anchor="middle" x="1054" y="-274.5" font-family="Helvetica,sans-Serif" font-size="10.00">/contexts/TimedContext.h</text>
</a>
</g>
</g>
<!-- Node1&#45;&gt;Node10 -->
<g id="edge52" class="edge"><title>Node1&#45;&gt;Node10</title>
<path fill="none" stroke="midnightblue" d="M494.32,-1031.66C614.269,-1022.54 827.65,-1003.13 900,-976 1049.01,-920.125 1122.24,-916.483 1197,-776 1241.3,-692.766 1108.72,-406.571 1066.48,-319.701"/>
<polygon fill="midnightblue" stroke="midnightblue" points="493.785,-1028.19 484.076,-1032.43 494.311,-1035.17 493.785,-1028.19"/>
</g>
<!-- Node17 -->
<g id="node17" class="node"><title>Node17</title>
<g id="a_node17"><a xlink:href="EventTimingProvider_8h.html" target="_top" xlink:title="/home/travis/build\l/hypro/hypro/src/hypro\l/datastructures/reachability\l/timing/EventTimingProvider.h">
<polygon fill="white" stroke="black" points="28,-818 28,-870 186,-870 186,-818 28,-818"/>
<text text-anchor="start" x="36" y="-858" font-family="Helvetica,sans-Serif" font-size="10.00">/home/travis/build</text>
<text text-anchor="start" x="36" y="-847" font-family="Helvetica,sans-Serif" font-size="10.00">/hypro/hypro/src/hypro</text>
<text text-anchor="start" x="36" y="-836" font-family="Helvetica,sans-Serif" font-size="10.00">/datastructures/reachability</text>
<text text-anchor="middle" x="107" y="-825" font-family="Helvetica,sans-Serif" font-size="10.00">/timing/EventTimingProvider.h</text>
</a>
</g>
</g>
<!-- Node1&#45;&gt;Node17 -->
<g id="edge36" class="edge"><title>Node1&#45;&gt;Node17</title>
<path fill="none" stroke="midnightblue" d="M325.754,-1026.09C284.921,-1017.41 236.869,-1002.27 200,-976 161.387,-948.482 133.046,-899.743 118.362,-870.102"/>
<polygon fill="midnightblue" stroke="midnightblue" points="325.2,-1029.55 335.696,-1028.11 326.592,-1022.69 325.2,-1029.55"/>
</g>
<!-- Node19 -->
<g id="node19" class="node"><title>Node19</title>
<g id="a_node19"><a xlink:href="ltiGuardHandler_8h.html" target="_top" xlink:title="/home/travis/build\l/hypro/hypro/src/hypro\l/algorithms/reachability\l/handlers/guardHandlers\l/ltiGuardHandler.h">
<polygon fill="white" stroke="black" points="426,-912.5 426,-975.5 560,-975.5 560,-912.5 426,-912.5"/>
<text text-anchor="start" x="434" y="-963.5" font-family="Helvetica,sans-Serif" font-size="10.00">/home/travis/build</text>
<text text-anchor="start" x="434" y="-952.5" font-family="Helvetica,sans-Serif" font-size="10.00">/hypro/hypro/src/hypro</text>
<text text-anchor="start" x="434" y="-941.5" font-family="Helvetica,sans-Serif" font-size="10.00">/algorithms/reachability</text>
<text text-anchor="start" x="434" y="-930.5" font-family="Helvetica,sans-Serif" font-size="10.00">/handlers/guardHandlers</text>
<text text-anchor="middle" x="493" y="-919.5" font-family="Helvetica,sans-Serif" font-size="10.00">/ltiGuardHandler.h</text>
</a>
</g>
</g>
<!-- Node1&#45;&gt;Node19 -->
<g id="edge42" class="edge"><title>Node1&#45;&gt;Node19</title>
<path fill="none" stroke="midnightblue" d="M439.598,-1004.51C448.078,-995.064 457.281,-984.807 465.621,-975.512"/>
<polygon fill="midnightblue" stroke="midnightblue" points="436.754,-1002.44 432.68,-1012.22 441.964,-1007.12 436.754,-1002.44"/>
</g>
<!-- Node23 -->
<g id="node23" class="node"><title>Node23</title>
<g id="a_node23"><a xlink:href="rectangularGuardHandler_8h.html" target="_top" xlink:title="/home/travis/build\l/hypro/hypro/src/hypro\l/algorithms/reachability\l/handlers/guardHandlers\l/rectangularGuardHandler.h">
<polygon fill="white" stroke="black" points="252.5,-912.5 252.5,-975.5 401.5,-975.5 401.5,-912.5 252.5,-912.5"/>
<text text-anchor="start" x="260.5" y="-963.5" font-family="Helvetica,sans-Serif" font-size="10.00">/home/travis/build</text>
<text text-anchor="start" x="260.5" y="-952.5" font-family="Helvetica,sans-Serif" font-size="10.00">/hypro/hypro/src/hypro</text>
<text text-anchor="start" x="260.5" y="-941.5" font-family="Helvetica,sans-Serif" font-size="10.00">/algorithms/reachability</text>
<text text-anchor="start" x="260.5" y="-930.5" font-family="Helvetica,sans-Serif" font-size="10.00">/handlers/guardHandlers</text>
<text text-anchor="middle" x="327" y="-919.5" font-family="Helvetica,sans-Serif" font-size="10.00">/rectangularGuardHandler.h</text>
</a>
</g>
</g>
<!-- Node1&#45;&gt;Node23 -->
<g id="edge50" class="edge"><title>Node1&#45;&gt;Node23</title>
<path fill="none" stroke="midnightblue" d="M380.402,-1004.51C371.922,-995.064 362.719,-984.807 354.379,-975.512"/>
<polygon fill="midnightblue" stroke="midnightblue" points="378.036,-1007.12 387.32,-1012.22 383.246,-1002.44 378.036,-1007.12"/>
</g>
<!-- Node3 -->
<g id="node3" class="node"><title>Node3</title>
<g id="a_node3"><a xlink:href="Task_8h.html" target="_top" xlink:title="/home/travis/build\l/hypro/hypro/src/hypro\l/datastructures/reachability\l/Task.h">
<polygon fill="white" stroke="black" points="1040,-718 1040,-770 1188,-770 1188,-718 1040,-718"/>
<text text-anchor="start" x="1048" y="-758" font-family="Helvetica,sans-Serif" font-size="10.00">/home/travis/build</text>
<text text-anchor="start" x="1048" y="-747" font-family="Helvetica,sans-Serif" font-size="10.00">/hypro/hypro/src/hypro</text>
<text text-anchor="start" x="1048" y="-736" font-family="Helvetica,sans-Serif" font-size="10.00">/datastructures/reachability</text>
<text text-anchor="middle" x="1114" y="-725" font-family="Helvetica,sans-Serif" font-size="10.00">/Task.h</text>
</a>
</g>
</g>
<!-- Node2&#45;&gt;Node3 -->
<g id="edge2" class="edge"><title>Node2&#45;&gt;Node3</title>
<path fill="none" stroke="midnightblue" d="M862.95,-912.367C921.562,-873.292 1021.83,-806.448 1076.22,-770.185"/>
<polygon fill="midnightblue" stroke="midnightblue" points="860.994,-909.464 854.615,-917.923 864.877,-915.288 860.994,-909.464"/>
</g>
<!-- Node11 -->
<g id="node11" class="node"><title>Node11</title>
<g id="a_node11"><a xlink:href="ltiJumpHandler_8h.html" target="_top" xlink:title="/home/travis/build\l/hypro/hypro/src/hypro\l/algorithms/reachability\l/handlers/jumpHandlers/ltiJumpHandler.h">
<polygon fill="white" stroke="black" points="610,-623.5 610,-675.5 822,-675.5 822,-623.5 610,-623.5"/>
<text text-anchor="start" x="618" y="-663.5" font-family="Helvetica,sans-Serif" font-size="10.00">/home/travis/build</text>
<text text-anchor="start" x="618" y="-652.5" font-family="Helvetica,sans-Serif" font-size="10.00">/hypro/hypro/src/hypro</text>
<text text-anchor="start" x="618" y="-641.5" font-family="Helvetica,sans-Serif" font-size="10.00">/algorithms/reachability</text>
<text text-anchor="middle" x="716" y="-630.5" font-family="Helvetica,sans-Serif" font-size="10.00">/handlers/jumpHandlers/ltiJumpHandler.h</text>
</a>
</g>
</g>
<!-- Node2&#45;&gt;Node11 -->
<g id="edge32" class="edge"><title>Node2&#45;&gt;Node11</title>
<path fill="none" stroke="midnightblue" d="M827.023,-907.895C838.529,-860.177 851.683,-773.726 817,-712 808.402,-696.697 794.281,-684.756 779.285,-675.638"/>
<polygon fill="midnightblue" stroke="midnightblue" points="823.59,-907.196 824.536,-917.748 830.377,-908.909 823.59,-907.196"/>
</g>
<!-- Node14 -->
<g id="node14" class="node"><title>Node14</title>
<g id="a_node14"><a xlink:href="ReachTree_8h.html" target="_top" xlink:title="/home/travis/build\l/hypro/hypro/src/hypro\l/datastructures/reachability\l/ReachTree.h">
<polygon fill="white" stroke="black" points="622,-818 622,-870 770,-870 770,-818 622,-818"/>
<text text-anchor="start" x="630" y="-858" font-family="Helvetica,sans-Serif" font-size="10.00">/home/travis/build</text>
<text text-anchor="start" x="630" y="-847" font-family="Helvetica,sans-Serif" font-size="10.00">/hypro/hypro/src/hypro</text>
<text text-anchor="start" x="630" y="-836" font-family="Helvetica,sans-Serif" font-size="10.00">/datastructures/reachability</text>
<text text-anchor="middle" x="696" y="-825" font-family="Helvetica,sans-Serif" font-size="10.00">/ReachTree.h</text>
</a>
</g>
</g>
<!-- Node2&#45;&gt;Node14 -->
<g id="edge26" class="edge"><title>Node2&#45;&gt;Node14</title>
<path fill="none" stroke="midnightblue" d="M777.97,-911.389C761.489,-898.041 742.565,-882.714 727.055,-870.152"/>
<polygon fill="midnightblue" stroke="midnightblue" points="775.866,-914.189 785.839,-917.763 780.271,-908.749 775.866,-914.189"/>
</g>
<!-- Node15 -->
<g id="node15" class="node"><title>Node15</title>
<g id="a_node15"><a xlink:href="NodeManager_8h.html" target="_top" xlink:title="/home/travis/build\l/hypro/hypro/src/hypro\l/datastructures/reachability\l/NodeManager.h">
<polygon fill="white" stroke="black" points="660,-718 660,-770 808,-770 808,-718 660,-718"/>
<text text-anchor="start" x="668" y="-758" font-family="Helvetica,sans-Serif" font-size="10.00">/home/travis/build</text>
<text text-anchor="start" x="668" y="-747" font-family="Helvetica,sans-Serif" font-size="10.00">/hypro/hypro/src/hypro</text>
<text text-anchor="start" x="668" y="-736" font-family="Helvetica,sans-Serif" font-size="10.00">/datastructures/reachability</text>
<text text-anchor="middle" x="734" y="-725" font-family="Helvetica,sans-Serif" font-size="10.00">/NodeManager.h</text>
</a>
</g>
</g>
<!-- Node2&#45;&gt;Node15 -->
<g id="edge31" class="edge"><title>Node2&#45;&gt;Node15</title>
<path fill="none" stroke="midnightblue" d="M809.898,-907.759C803.724,-880.764 793.482,-843.012 779,-812 772.182,-797.4 762.409,-782.396 753.711,-770.298"/>
<polygon fill="midnightblue" stroke="midnightblue" points="806.485,-908.536 812.065,-917.543 813.319,-907.022 806.485,-908.536"/>
</g>
<!-- Node16 -->
<g id="node16" class="node"><title>Node16</title>
<g id="a_node16"><a xlink:href="algorithms_2reachability_2handlers_2jumpHandlers_2util_8h.html" target="_top" xlink:title="/home/travis/build\l/hypro/hypro/src/hypro\l/algorithms/reachability\l/handlers/jumpHandlers/util.h">
<polygon fill="white" stroke="black" points="864.5,-718 864.5,-770 1021.5,-770 1021.5,-718 864.5,-718"/>
<text text-anchor="start" x="872.5" y="-758" font-family="Helvetica,sans-Serif" font-size="10.00">/home/travis/build</text>
<text text-anchor="start" x="872.5" y="-747" font-family="Helvetica,sans-Serif" font-size="10.00">/hypro/hypro/src/hypro</text>
<text text-anchor="start" x="872.5" y="-736" font-family="Helvetica,sans-Serif" font-size="10.00">/algorithms/reachability</text>
<text text-anchor="middle" x="943" y="-725" font-family="Helvetica,sans-Serif" font-size="10.00">/handlers/jumpHandlers/util.h</text>
</a>
</g>
</g>
<!-- Node2&#45;&gt;Node16 -->
<g id="edge33" class="edge"><title>Node2&#45;&gt;Node16</title>
<path fill="none" stroke="midnightblue" d="M838.36,-909.435C863.44,-870.023 904.464,-805.556 926.973,-770.185"/>
<polygon fill="midnightblue" stroke="midnightblue" points="835.374,-907.607 832.958,-917.923 841.28,-911.366 835.374,-907.607"/>
</g>
<!-- Node4 -->
<g id="node4" class="node"><title>Node4</title>
<g id="a_node4"><a xlink:href="ContextFactory_8h.html" target="_top" xlink:title="/home/travis/build\l/hypro/hypro/src/hypro\l/algorithms/reachability\l/contexts/ContextFactory.h">
<polygon fill="white" stroke="black" points="946.5,-178.5 946.5,-230.5 1089.5,-230.5 1089.5,-178.5 946.5,-178.5"/>
<text text-anchor="start" x="954.5" y="-218.5" font-family="Helvetica,sans-Serif" font-size="10.00">/home/travis/build</text>
<text text-anchor="start" x="954.5" y="-207.5" font-family="Helvetica,sans-Serif" font-size="10.00">/hypro/hypro/src/hypro</text>
<text text-anchor="start" x="954.5" y="-196.5" font-family="Helvetica,sans-Serif" font-size="10.00">/algorithms/reachability</text>
<text text-anchor="middle" x="1018" y="-185.5" font-family="Helvetica,sans-Serif" font-size="10.00">/contexts/ContextFactory.h</text>
</a>
</g>
</g>
<!-- Node3&#45;&gt;Node4 -->
<g id="edge3" class="edge"><title>Node3&#45;&gt;Node4</title>
<path fill="none" stroke="midnightblue" d="M1122.13,-707.883C1133.29,-656.502 1152,-557.683 1152,-472.5 1152,-472.5 1152,-472.5 1152,-381.5 1152,-329.915 1163.06,-308.921 1133,-267 1121.92,-251.544 1105.73,-239.61 1088.97,-230.55"/>
<polygon fill="midnightblue" stroke="midnightblue" points="1118.68,-707.287 1119.94,-717.807 1125.51,-708.796 1118.68,-707.287"/>
</g>
<!-- Node5 -->
<g id="node5" class="node"><title>Node5</title>
<g id="a_node5"><a xlink:href="ContextBasedReachabilityWorker_8h.html" target="_top" xlink:title="/home/travis/build\l/hypro/hypro/src/hypro\l/algorithms/reachability\l/workers/ContextBasedReachability\lWorker.h">
<polygon fill="white" stroke="black" points="917.5,-78.5 917.5,-141.5 1100.5,-141.5 1100.5,-78.5 917.5,-78.5"/>
<text text-anchor="start" x="925.5" y="-129.5" font-family="Helvetica,sans-Serif" font-size="10.00">/home/travis/build</text>
<text text-anchor="start" x="925.5" y="-118.5" font-family="Helvetica,sans-Serif" font-size="10.00">/hypro/hypro/src/hypro</text>
<text text-anchor="start" x="925.5" y="-107.5" font-family="Helvetica,sans-Serif" font-size="10.00">/algorithms/reachability</text>
<text text-anchor="start" x="925.5" y="-96.5" font-family="Helvetica,sans-Serif" font-size="10.00">/workers/ContextBasedReachability</text>
<text text-anchor="middle" x="1009" y="-85.5" font-family="Helvetica,sans-Serif" font-size="10.00">Worker.h</text>
</a>
</g>
</g>
<!-- Node3&#45;&gt;Node5 -->
<g id="edge23" class="edge"><title>Node3&#45;&gt;Node5</title>
<path fill="none" stroke="midnightblue" d="M1137.49,-709.504C1159.82,-674.342 1190,-616.612 1190,-561.5 1190,-561.5 1190,-561.5 1190,-292.5 1190,-223.746 1124.07,-171.872 1071.8,-141.546"/>
<polygon fill="midnightblue" stroke="midnightblue" points="1134.52,-707.65 1132.01,-717.942 1140.39,-711.464 1134.52,-707.65"/>
</g>
<!-- Node3&#45;&gt;Node6 -->
<g id="edge24" class="edge"><title>Node3&#45;&gt;Node6</title>
<path fill="none" stroke="midnightblue" d="M1069.49,-711.44C1056.09,-700.924 1041.81,-688.647 1030,-676 905.667,-542.828 880,-476.691 880,-294.5 880,-294.5 880,-294.5 880,-203.5 880,-101.825 555.858,-51.1601 388.089,-31.7466"/>
<polygon fill="midnightblue" stroke="midnightblue" points="1067.64,-714.428 1077.7,-717.747 1071.9,-708.878 1067.64,-714.428"/>
</g>
<!-- Node3&#45;&gt;Node7 -->
<g id="edge25" class="edge"><title>Node3&#45;&gt;Node7</title>
<path fill="none" stroke="midnightblue" d="M1152.84,-710.865C1163.63,-700.554 1174.66,-688.536 1183,-676 1213.3,-630.483 1228,-616.178 1228,-561.5 1228,-561.5 1228,-561.5 1228,-203.5 1228,-119.923 1132.28,-67.5236 1067.4,-41.6084"/>
<polygon fill="midnightblue" stroke="midnightblue" points="1150.4,-708.351 1145.45,-717.715 1155.16,-713.485 1150.4,-708.351"/>
</g>
<!-- Node8 -->
<g id="node8" class="node"><title>Node8</title>
<g id="a_node8"><a xlink:href="IWorker_8h.html" target="_top" xlink:title="/home/travis/build\l/hypro/hypro/src/hypro\l/algorithms/reachability\l/workers/IWorker.h">
<polygon fill="white" stroke="black" points="916,-445.5 916,-497.5 1044,-497.5 1044,-445.5 916,-445.5"/>
<text text-anchor="start" x="924" y="-485.5" font-family="Helvetica,sans-Serif" font-size="10.00">/home/travis/build</text>
<text text-anchor="start" x="924" y="-474.5" font-family="Helvetica,sans-Serif" font-size="10.00">/hypro/hypro/src/hypro</text>
<text text-anchor="start" x="924" y="-463.5" font-family="Helvetica,sans-Serif" font-size="10.00">/algorithms/reachability</text>
<text text-anchor="middle" x="980" y="-452.5" font-family="Helvetica,sans-Serif" font-size="10.00">/workers/IWorker.h</text>
</a>
</g>
</g>
<!-- Node3&#45;&gt;Node8 -->
<g id="edge7" class="edge"><title>Node3&#45;&gt;Node8</title>
<path fill="none" stroke="midnightblue" d="M1083.47,-710.061C1074.83,-699.667 1065.9,-687.804 1059,-676 1023.91,-615.956 998.537,-537.433 986.977,-497.773"/>
<polygon fill="midnightblue" stroke="midnightblue" points="1080.84,-712.366 1090,-717.698 1086.16,-707.821 1080.84,-712.366"/>
</g>
<!-- Node3&#45;&gt;Node9 -->
<g id="edge15" class="edge"><title>Node3&#45;&gt;Node9</title>
<path fill="none" stroke="midnightblue" d="M1038.99,-714.785C1035.96,-713.816 1032.96,-712.883 1030,-712 961.819,-691.641 923.335,-727.276 874,-676 801.538,-600.687 878.703,-537.471 830,-445 822.852,-431.428 811.716,-418.908 800.905,-408.756"/>
<polygon fill="midnightblue" stroke="midnightblue" points="1038.1,-718.179 1048.7,-717.989 1040.3,-711.531 1038.1,-718.179"/>
</g>
<!-- Node3&#45;&gt;Node10 -->
<g id="edge22" class="edge"><title>Node3&#45;&gt;Node10</title>
<path fill="none" stroke="midnightblue" d="M1101.33,-708.278C1089.28,-672.129 1073,-613.617 1073,-561.5 1073,-561.5 1073,-561.5 1073,-470.5 1073,-416.563 1064.07,-353.863 1058.45,-319.764"/>
<polygon fill="midnightblue" stroke="midnightblue" points="1098.05,-709.522 1104.59,-717.856 1104.68,-707.262 1098.05,-709.522"/>
</g>
<!-- Node3&#45;&gt;Node11 -->
<g id="edge16" class="edge"><title>Node3&#45;&gt;Node11</title>
<path fill="none" stroke="midnightblue" d="M1039.56,-714.781C1036.34,-713.799 1033.15,-712.866 1030,-712 945.448,-688.735 922.008,-693.115 836,-676 831.509,-675.106 826.926,-674.183 822.298,-673.241"/>
<polygon fill="midnightblue" stroke="midnightblue" points="1038.65,-718.163 1049.24,-717.86 1040.77,-711.493 1038.65,-718.163"/>
</g>
<!-- Node4&#45;&gt;Node5 -->
<g id="edge4" class="edge"><title>Node4&#45;&gt;Node5</title>
<path fill="none" stroke="midnightblue" d="M1014.57,-168.232C1013.71,-159.429 1012.8,-150.063 1011.97,-141.512"/>
<polygon fill="midnightblue" stroke="midnightblue" points="1011.09,-168.61 1015.54,-178.224 1018.06,-167.932 1011.09,-168.61"/>
</g>
<!-- Node5&#45;&gt;Node6 -->
<g id="edge5" class="edge"><title>Node5&#45;&gt;Node6</title>
<path fill="none" stroke="midnightblue" d="M907.424,-80.623C902.902,-79.6744 898.412,-78.7932 894,-78 717.408,-46.2524 508.342,-31.9587 388.244,-25.9487"/>
<polygon fill="midnightblue" stroke="midnightblue" points="906.842,-84.0784 917.359,-82.7993 908.34,-77.2405 906.842,-84.0784"/>
</g>
<!-- Node5&#45;&gt;Node7 -->
<g id="edge6" class="edge"><title>Node5&#45;&gt;Node7</title>
<path fill="none" stroke="midnightblue" d="M1009,-67.913C1009,-58.7761 1009,-49.4967 1009,-41.6941"/>
<polygon fill="midnightblue" stroke="midnightblue" points="1005.5,-68.0821 1009,-78.0821 1012.5,-68.0821 1005.5,-68.0821"/>
</g>
<!-- Node8&#45;&gt;Node4 -->
<g id="edge8" class="edge"><title>Node8&#45;&gt;Node4</title>
<path fill="none" stroke="midnightblue" d="M972.405,-435.486C964.957,-394.159 957.091,-323.867 975,-267 979.148,-253.828 987.233,-241.02 995.284,-230.533"/>
<polygon fill="midnightblue" stroke="midnightblue" points="968.972,-436.17 974.273,-445.343 975.85,-434.866 968.972,-436.17"/>
</g>
<!-- Node8&#45;&gt;Node5 -->
<g id="edge14" class="edge"><title>Node8&#45;&gt;Node5</title>
<path fill="none" stroke="midnightblue" d="M963.466,-436.261C938.75,-379.973 898.937,-265.414 937,-178 943.067,-164.067 953.618,-151.724 964.801,-141.549"/>
<polygon fill="midnightblue" stroke="midnightblue" points="960.294,-437.742 967.586,-445.428 966.679,-434.872 960.294,-437.742"/>
</g>
<!-- Node8&#45;&gt;Node9 -->
<g id="edge9" class="edge"><title>Node8&#45;&gt;Node9</title>
<path fill="none" stroke="midnightblue" d="M909.852,-441.576C883.901,-430.876 854.724,-418.846 829.683,-408.521"/>
<polygon fill="midnightblue" stroke="midnightblue" points="908.674,-444.876 919.253,-445.453 911.342,-438.405 908.674,-444.876"/>
</g>
<!-- Node8&#45;&gt;Node10 -->
<g id="edge13" class="edge"><title>Node8&#45;&gt;Node10</title>
<path fill="none" stroke="midnightblue" d="M996.736,-436.048C1000.86,-427.278 1005.19,-417.834 1009,-409 1022.12,-378.606 1035.85,-343.042 1044.64,-319.711"/>
<polygon fill="midnightblue" stroke="midnightblue" points="993.5,-434.703 992.373,-445.238 999.824,-437.705 993.5,-434.703"/>
</g>
<!-- Node9&#45;&gt;Node4 -->
<g id="edge10" class="edge"><title>Node9&#45;&gt;Node4</title>
<path fill="none" stroke="midnightblue" d="M812.775,-350.559C860.987,-316.481 937.589,-262.337 982.308,-230.728"/>
<polygon fill="midnightblue" stroke="midnightblue" points="810.557,-347.84 804.411,-356.47 814.597,-353.557 810.557,-347.84"/>
</g>
<!-- Node9&#45;&gt;Node10 -->
<g id="edge11" class="edge"><title>Node9&#45;&gt;Node10</title>
<path fill="none" stroke="midnightblue" d="M842.981,-358.916C886.471,-345.64 941.137,-328.953 983.931,-315.889"/>
<polygon fill="midnightblue" stroke="midnightblue" points="841.857,-355.6 833.315,-361.867 843.901,-362.295 841.857,-355.6"/>
</g>
<!-- Node10&#45;&gt;Node4 -->
<g id="edge12" class="edge"><title>Node10&#45;&gt;Node4</title>
<path fill="none" stroke="midnightblue" d="M1039.75,-258.061C1035.96,-248.896 1031.93,-239.169 1028.39,-230.607"/>
<polygon fill="midnightblue" stroke="midnightblue" points="1036.53,-259.434 1043.59,-267.336 1043,-256.758 1036.53,-259.434"/>
</g>
<!-- Node12 -->
<g id="node12" class="node"><title>Node12</title>
<g id="a_node12"><a xlink:href="JumpHandlers_8h.html" target="_top" xlink:title="/home/travis/build\l/hypro/hypro/src/hypro\l/algorithms/reachability\l/handlers/jumpHandlers/JumpHandlers.h">
<polygon fill="white" stroke="black" points="573.5,-534.5 573.5,-586.5 782.5,-586.5 782.5,-534.5 573.5,-534.5"/>
<text text-anchor="start" x="581.5" y="-574.5" font-family="Helvetica,sans-Serif" font-size="10.00">/home/travis/build</text>
<text text-anchor="start" x="581.5" y="-563.5" font-family="Helvetica,sans-Serif" font-size="10.00">/hypro/hypro/src/hypro</text>
<text text-anchor="start" x="581.5" y="-552.5" font-family="Helvetica,sans-Serif" font-size="10.00">/algorithms/reachability</text>
<text text-anchor="middle" x="678" y="-541.5" font-family="Helvetica,sans-Serif" font-size="10.00">/handlers/jumpHandlers/JumpHandlers.h</text>
</a>
</g>
</g>
<!-- Node11&#45;&gt;Node12 -->
<g id="edge17" class="edge"><title>Node11&#45;&gt;Node12</title>
<path fill="none" stroke="midnightblue" d="M700.958,-614.061C696.954,-604.896 692.706,-595.169 688.966,-586.607"/>
<polygon fill="midnightblue" stroke="midnightblue" points="697.799,-615.573 705.009,-623.336 704.214,-612.771 697.799,-615.573"/>
</g>
<!-- Node13 -->
<g id="node13" class="node"><title>Node13</title>
<g id="a_node13"><a xlink:href="HandlerFactory_8h.html" target="_top" xlink:title="/home/travis/build\l/hypro/hypro/src/hypro\l/algorithms/reachability\l/handlers/HandlerFactory.h">
<polygon fill="white" stroke="black" points="678.5,-445.5 678.5,-497.5 821.5,-497.5 821.5,-445.5 678.5,-445.5"/>
<text text-anchor="start" x="686.5" y="-485.5" font-family="Helvetica,sans-Serif" font-size="10.00">/home/travis/build</text>
<text text-anchor="start" x="686.5" y="-474.5" font-family="Helvetica,sans-Serif" font-size="10.00">/hypro/hypro/src/hypro</text>
<text text-anchor="start" x="686.5" y="-463.5" font-family="Helvetica,sans-Serif" font-size="10.00">/algorithms/reachability</text>
<text text-anchor="middle" x="750" y="-452.5" font-family="Helvetica,sans-Serif" font-size="10.00">/handlers/HandlerFactory.h</text>
</a>
</g>
</g>
<!-- Node12&#45;&gt;Node13 -->
<g id="edge18" class="edge"><title>Node12&#45;&gt;Node13</title>
<path fill="none" stroke="midnightblue" d="M705.308,-526.503C713.236,-516.923 721.763,-506.62 729.221,-497.607"/>
<polygon fill="midnightblue" stroke="midnightblue" points="702.505,-524.401 698.825,-534.336 707.897,-528.864 702.505,-524.401"/>
</g>
<!-- Node13&#45;&gt;Node9 -->
<g id="edge19" class="edge"><title>Node13&#45;&gt;Node9</title>
<path fill="none" stroke="midnightblue" d="M757.648,-435.481C759.612,-426.487 761.686,-416.989 763.517,-408.607"/>
<polygon fill="midnightblue" stroke="midnightblue" points="754.21,-434.819 755.496,-445.336 761.049,-436.313 754.21,-434.819"/>
</g>
<!-- Node13&#45;&gt;Node10 -->
<g id="edge21" class="edge"><title>Node13&#45;&gt;Node10</title>
<path fill="none" stroke="midnightblue" d="M801.989,-440.401C860.753,-406.38 955.375,-351.599 1010.42,-319.728"/>
<polygon fill="midnightblue" stroke="midnightblue" points="800.134,-437.431 793.233,-445.47 803.641,-443.489 800.134,-437.431"/>
</g>
<!-- Node13&#45;&gt;Node11 -->
<g id="edge20" class="edge"><title>Node13&#45;&gt;Node11</title>
<path fill="none" stroke="midnightblue" d="M777.378,-505.967C782.97,-514.605 788.044,-524.236 791,-534 797.826,-556.545 801.076,-565.708 791,-587 784.158,-601.46 772.065,-613.657 759.562,-623.279"/>
<polygon fill="midnightblue" stroke="midnightblue" points="780.23,-503.938 771.673,-497.691 774.467,-507.911 780.23,-503.938"/>
</g>
<!-- Node14&#45;&gt;Node6 -->
<g id="edge29" class="edge"><title>Node14&#45;&gt;Node6</title>
<path fill="none" stroke="midnightblue" d="M647.115,-811.811C633.365,-801.523 619.14,-789.278 608,-776 587.43,-751.483 598.685,-733.523 575,-712 543.117,-683.027 522.211,-697.711 485,-676 430.384,-644.133 411.925,-637.597 374,-587 315.314,-508.706 290,-481.347 290,-383.5 290,-383.5 290,-383.5 290,-203.5 290,-144.576 290,-74.8904 290,-41.6065"/>
<polygon fill="midnightblue" stroke="midnightblue" points="645.433,-814.916 655.582,-817.957 649.545,-809.25 645.433,-814.916"/>
</g>
<!-- Node14&#45;&gt;Node7 -->
<g id="edge30" class="edge"><title>Node14&#45;&gt;Node7</title>
<path fill="none" stroke="midnightblue" d="M673.443,-809.4C647.448,-770.68 608.233,-712.282 608,-712 511.554,-595.394 366,-623.823 366,-472.5 366,-472.5 366,-472.5 366,-203.5 366,-83.8087 783.874,-39.1427 945.882,-26.3236"/>
<polygon fill="midnightblue" stroke="midnightblue" points="670.612,-811.462 679.092,-817.814 676.424,-807.561 670.612,-811.462"/>
</g>
<!-- Node14&#45;&gt;Node15 -->
<g id="edge27" class="edge"><title>Node14&#45;&gt;Node15</title>
<path fill="none" stroke="midnightblue" d="M709.542,-808.076C714.399,-795.551 719.775,-781.686 724.247,-770.152"/>
<polygon fill="midnightblue" stroke="midnightblue" points="706.138,-807.174 705.786,-817.763 712.665,-809.704 706.138,-807.174"/>
</g>
<!-- Node15&#45;&gt;Node11 -->
<g id="edge28" class="edge"><title>Node15&#45;&gt;Node11</title>
<path fill="none" stroke="midnightblue" d="M727.155,-707.824C725.077,-697.147 722.837,-685.633 720.913,-675.745"/>
<polygon fill="midnightblue" stroke="midnightblue" points="723.736,-708.577 729.081,-717.724 730.607,-707.24 723.736,-708.577"/>
</g>
<!-- Node16&#45;&gt;Node11 -->
<g id="edge34" class="edge"><title>Node16&#45;&gt;Node11</title>
<path fill="none" stroke="midnightblue" d="M872.308,-714.194C841.93,-701.815 806.757,-687.483 777.479,-675.552"/>
<polygon fill="midnightblue" stroke="midnightblue" points="870.989,-717.436 881.571,-717.968 873.631,-710.953 870.989,-717.436"/>
</g>
<!-- Node17&#45;&gt;Node6 -->
<g id="edge40" class="edge"><title>Node17&#45;&gt;Node6</title>
<path fill="none" stroke="midnightblue" d="M100.233,-807.724C93.4478,-769.234 84,-705.724 84,-650.5 84,-650.5 84,-650.5 84,-203.5 84,-121.754 176.452,-68.0787 237.484,-41.5508"/>
<polygon fill="midnightblue" stroke="midnightblue" points="96.8467,-808.669 102.066,-817.889 103.736,-807.427 96.8467,-808.669"/>
</g>
<!-- Node17&#45;&gt;Node7 -->
<g id="edge41" class="edge"><title>Node17&#45;&gt;Node7</title>
<path fill="none" stroke="midnightblue" d="M112.831,-807.632C117.922,-780.782 126.478,-743.275 139,-712 201.609,-555.628 328,-551.94 328,-383.5 328,-383.5 328,-383.5 328,-203.5 328,-137.591 350.841,-112.498 407,-78 452.166,-50.2545 800.871,-31.4282 945.972,-24.7203"/>
<polygon fill="midnightblue" stroke="midnightblue" points="109.342,-807.255 110.985,-817.722 116.228,-808.515 109.342,-807.255"/>
</g>
<!-- Node17&#45;&gt;Node9 -->
<g id="edge37" class="edge"><title>Node17&#45;&gt;Node9</title>
<path fill="none" stroke="midnightblue" d="M123.948,-808.317C138.143,-780.883 159.909,-742.289 184,-712 198.482,-693.792 205.799,-692.696 222,-676 317.794,-577.276 307.978,-512.213 428,-445 515.259,-396.135 632.997,-384.8 704.826,-382.859"/>
<polygon fill="midnightblue" stroke="midnightblue" points="120.678,-807.025 119.252,-817.524 126.914,-810.206 120.678,-807.025"/>
</g>
<!-- Node18 -->
<g id="node18" class="node"><title>Node18</title>
<g id="a_node18"><a xlink:href="timingUtil_8h.html" target="_top" xlink:title="/home/travis/build\l/hypro/hypro/src/hypro\l/algorithms/reachability\l/handlers/jumpHandlers/timingUtil.h">
<polygon fill="white" stroke="black" points="226,-718 226,-770 414,-770 414,-718 226,-718"/>
<text text-anchor="start" x="234" y="-758" font-family="Helvetica,sans-Serif" font-size="10.00">/home/travis/build</text>
<text text-anchor="start" x="234" y="-747" font-family="Helvetica,sans-Serif" font-size="10.00">/hypro/hypro/src/hypro</text>
<text text-anchor="start" x="234" y="-736" font-family="Helvetica,sans-Serif" font-size="10.00">/algorithms/reachability</text>
<text text-anchor="middle" x="320" y="-725" font-family="Helvetica,sans-Serif" font-size="10.00">/handlers/jumpHandlers/timingUtil.h</text>
</a>
</g>
</g>
<!-- Node17&#45;&gt;Node18 -->
<g id="edge38" class="edge"><title>Node17&#45;&gt;Node18</title>
<path fill="none" stroke="midnightblue" d="M170.759,-813.665C200.959,-799.77 236.657,-783.346 265.566,-770.045"/>
<polygon fill="midnightblue" stroke="midnightblue" points="169.198,-810.53 161.576,-817.89 172.124,-816.89 169.198,-810.53"/>
</g>
<!-- Node18&#45;&gt;Node11 -->
<g id="edge39" class="edge"><title>Node18&#45;&gt;Node11</title>
<path fill="none" stroke="midnightblue" d="M410.591,-715.267C414.777,-714.133 418.929,-713.038 423,-712 484.446,-696.335 553.87,-681.633 609.713,-670.535"/>
<polygon fill="midnightblue" stroke="midnightblue" points="409.491,-711.94 400.783,-717.975 411.354,-718.687 409.491,-711.94"/>
</g>
<!-- Node20 -->
<g id="node20" class="node"><title>Node20</title>
<g id="a_node20"><a xlink:href="discreteGuardHandler_8h.html" target="_top" xlink:title="/home/travis/build\l/hypro/hypro/src/hypro\l/algorithms/reachability\l/handlers/guardHandlers\l/discreteGuardHandler.h">
<polygon fill="white" stroke="black" points="432,-812.5 432,-875.5 566,-875.5 566,-812.5 432,-812.5"/>
<text text-anchor="start" x="440" y="-863.5" font-family="Helvetica,sans-Serif" font-size="10.00">/home/travis/build</text>
<text text-anchor="start" x="440" y="-852.5" font-family="Helvetica,sans-Serif" font-size="10.00">/hypro/hypro/src/hypro</text>
<text text-anchor="start" x="440" y="-841.5" font-family="Helvetica,sans-Serif" font-size="10.00">/algorithms/reachability</text>
<text text-anchor="start" x="440" y="-830.5" font-family="Helvetica,sans-Serif" font-size="10.00">/handlers/guardHandlers</text>
<text text-anchor="middle" x="499" y="-819.5" font-family="Helvetica,sans-Serif" font-size="10.00">/discreteGuardHandler.h</text>
</a>
</g>
</g>
<!-- Node19&#45;&gt;Node20 -->
<g id="edge43" class="edge"><title>Node19&#45;&gt;Node20</title>
<path fill="none" stroke="midnightblue" d="M495.504,-902.099C496.047,-893.238 496.611,-884.015 497.125,-875.63"/>
<polygon fill="midnightblue" stroke="midnightblue" points="492,-902.066 494.882,-912.261 498.987,-902.494 492,-902.066"/>
</g>
<!-- Node21 -->
<g id="node21" class="node"><title>Node21</title>
<g id="a_node21"><a xlink:href="GuardHandlers_8h.html" target="_top" xlink:title="/home/travis/build\l/hypro/hypro/src/hypro\l/algorithms/reachability\l/handlers/guardHandlers\l/GuardHandlers.h">
<polygon fill="white" stroke="black" points="432,-712.5 432,-775.5 566,-775.5 566,-712.5 432,-712.5"/>
<text text-anchor="start" x="440" y="-763.5" font-family="Helvetica,sans-Serif" font-size="10.00">/home/travis/build</text>
<text text-anchor="start" x="440" y="-752.5" font-family="Helvetica,sans-Serif" font-size="10.00">/hypro/hypro/src/hypro</text>
<text text-anchor="start" x="440" y="-741.5" font-family="Helvetica,sans-Serif" font-size="10.00">/algorithms/reachability</text>
<text text-anchor="start" x="440" y="-730.5" font-family="Helvetica,sans-Serif" font-size="10.00">/handlers/guardHandlers</text>
<text text-anchor="middle" x="499" y="-719.5" font-family="Helvetica,sans-Serif" font-size="10.00">/GuardHandlers.h</text>
</a>
</g>
</g>
<!-- Node19&#45;&gt;Node21 -->
<g id="edge47" class="edge"><title>Node19&#45;&gt;Node21</title>
<path fill="none" stroke="midnightblue" d="M552.701,-905.336C561.733,-896.846 569.768,-887.03 575,-876 587.189,-850.3 586.706,-837.924 575,-812 568.702,-798.053 557.908,-785.847 546.4,-775.81"/>
<polygon fill="midnightblue" stroke="midnightblue" points="550.135,-902.931 544.92,-912.153 554.748,-908.196 550.135,-902.931"/>
</g>
<!-- Node22 -->
<g id="node22" class="node"><title>Node22</title>
<g id="a_node22"><a xlink:href="timedGuardHandler_8h.html" target="_top" xlink:title="/home/travis/build\l/hypro/hypro/src/hypro\l/algorithms/reachability\l/handlers/guardHandlers\l/timedGuardHandler.h">
<polygon fill="white" stroke="black" points="280,-812.5 280,-875.5 414,-875.5 414,-812.5 280,-812.5"/>
<text text-anchor="start" x="288" y="-863.5" font-family="Helvetica,sans-Serif" font-size="10.00">/home/travis/build</text>
<text text-anchor="start" x="288" y="-852.5" font-family="Helvetica,sans-Serif" font-size="10.00">/hypro/hypro/src/hypro</text>
<text text-anchor="start" x="288" y="-841.5" font-family="Helvetica,sans-Serif" font-size="10.00">/algorithms/reachability</text>
<text text-anchor="start" x="288" y="-830.5" font-family="Helvetica,sans-Serif" font-size="10.00">/handlers/guardHandlers</text>
<text text-anchor="middle" x="347" y="-819.5" font-family="Helvetica,sans-Serif" font-size="10.00">/timedGuardHandler.h</text>
</a>
</g>
</g>
<!-- Node19&#45;&gt;Node22 -->
<g id="edge48" class="edge"><title>Node19&#45;&gt;Node22</title>
<path fill="none" stroke="midnightblue" d="M438.894,-906.682C423.683,-896.472 407.296,-885.473 392.632,-875.63"/>
<polygon fill="midnightblue" stroke="midnightblue" points="436.952,-909.594 447.205,-912.261 440.853,-903.782 436.952,-909.594"/>
</g>
<!-- Node20&#45;&gt;Node21 -->
<g id="edge44" class="edge"><title>Node20&#45;&gt;Node21</title>
<path fill="none" stroke="midnightblue" d="M499,-802.099C499,-793.238 499,-784.015 499,-775.63"/>
<polygon fill="midnightblue" stroke="midnightblue" points="495.5,-802.261 499,-812.261 502.5,-802.261 495.5,-802.261"/>
</g>
<!-- Node21&#45;&gt;Node9 -->
<g id="edge46" class="edge"><title>Node21&#45;&gt;Node9</title>
<path fill="none" stroke="midnightblue" d="M497.103,-702.199C497.047,-656.975 503.246,-583.854 539,-534 581.341,-474.961 654.671,-432.914 707.153,-408.53"/>
<polygon fill="midnightblue" stroke="midnightblue" points="493.604,-702.276 497.22,-712.235 500.604,-702.195 493.604,-702.276"/>
</g>
<!-- Node21&#45;&gt;Node13 -->
<g id="edge45" class="edge"><title>Node21&#45;&gt;Node13</title>
<path fill="none" stroke="midnightblue" d="M509.452,-702.524C524.552,-645.284 551.973,-546.243 564,-534 594.031,-503.429 639.559,-488.053 678.053,-480.32"/>
<polygon fill="midnightblue" stroke="midnightblue" points="506.025,-701.794 506.872,-712.355 512.796,-703.571 506.025,-701.794"/>
</g>
<!-- Node22&#45;&gt;Node21 -->
<g id="edge49" class="edge"><title>Node22&#45;&gt;Node21</title>
<path fill="none" stroke="midnightblue" d="M403.33,-806.682C419.166,-796.472 436.226,-785.473 451.492,-775.63"/>
<polygon fill="midnightblue" stroke="midnightblue" points="401.185,-803.901 394.677,-812.261 404.978,-809.784 401.185,-803.901"/>
</g>
<!-- Node23&#45;&gt;Node21 -->
<g id="edge51" class="edge"><title>Node23&#45;&gt;Node21</title>
<path fill="none" stroke="midnightblue" d="M287.138,-904.262C280.527,-895.635 274.645,-886.043 271,-876 261.297,-849.262 253.356,-834.311 271,-812 314.064,-757.546 356.883,-797.174 423,-776 425.85,-775.087 428.744,-774.116 431.655,-773.101"/>
<polygon fill="midnightblue" stroke="midnightblue" points="284.609,-906.699 293.651,-912.221 290.027,-902.265 284.609,-906.699"/>
</g>
</g>
</svg>
