<?xml version="1.0" encoding="UTF-8" standalone="no"?>
<!DOCTYPE svg PUBLIC "-//W3C//DTD SVG 1.1//EN"
 "http://www.w3.org/Graphics/SVG/1.1/DTD/svg11.dtd">
<!-- Generated by graphviz version 2.38.0 (20140413.2041)
 -->
<!-- Title: /home/travis/build/hypro/hypro/src/hypro/datastructures/reachability/Settings.h Pages: 1 -->
<!--zoomable 374 -->
<svg id="main" version="1.1" xmlns="http://www.w3.org/2000/svg" xmlns:xlink="http://www.w3.org/1999/xlink" xml:space="preserve" onload="init(evt)">
<style type="text/css"><![CDATA[
.edge:hover path { stroke: red; }
.edge:hover polygon { stroke: red; fill: red; }
]]></style>
<script type="text/javascript"><![CDATA[
var edges = document.getElementsByTagName('g');
if (edges && edges.length) {
  for (var i=0;i<edges.length;i++) {
    if (edges[i].id.substr(0,4)=='edge') {
      edges[i].setAttribute('class','edge');
    }
  }
}
]]></script>
        <defs>
                <circle id="rim" cx="0" cy="0" r="7"/>
                <circle id="rim2" cx="0" cy="0" r="3.5"/>
                <g id="zoomPlus">
                        <use xlink:href="#rim" fill="#404040">
                                <set attributeName="fill" to="#808080" begin="zoomplus.mouseover" end="zoomplus.mouseout"/>
                        </use>
                        <path d="M-4,0h8M0,-4v8" fill="none" stroke="white" stroke-width="1.5" pointer-events="none"/>
                </g>
                <g id="zoomMin">
                        <use xlink:href="#rim" fill="#404040">
                                <set attributeName="fill" to="#808080" begin="zoomminus.mouseover" end="zoomminus.mouseout"/>
                        </use>
                        <path d="M-4,0h8" fill="none" stroke="white" stroke-width="1.5" pointer-events="none"/>
                </g>
                <g id="dirArrow">
                        <path fill="none" stroke="white" stroke-width="1.5" d="M0,-3.0v7 M-2.5,-0.5L0,-3.0L2.5,-0.5"/>
                </g>
               <g id="resetDef">
                       <use xlink:href="#rim2" fill="#404040">
                               <set attributeName="fill" to="#808080" begin="reset.mouseover" end="reset.mouseout"/>
                       </use>
               </g>
        </defs>

<script type="text/javascript">
var viewWidth = 1921;
var viewHeight = 374;
var sectionId = 'dynsection-0';
</script>
<script xlink:href="svgpan.js"/>
<svg id="graph" class="graph">
<g id="viewport">
<title>/home/travis/build/hypro/hypro/src/hypro/datastructures/reachability/Settings.h</title>
<polygon fill="white" stroke="none" points="-4,4 -4,-370 1917,-370 1917,4 -4,4"/>
<!-- Node1 -->
<g id="node1" class="node"><title>Node1</title>
<polygon fill="#bfbfbf" stroke="black" points="1714,-313.5 1714,-365.5 1862,-365.5 1862,-313.5 1714,-313.5"/>
<text text-anchor="start" x="1722" y="-353.5" font-family="Helvetica,sans-Serif" font-size="10.00">/home/travis/build</text>
<text text-anchor="start" x="1722" y="-342.5" font-family="Helvetica,sans-Serif" font-size="10.00">/hypro/hypro/src/hypro</text>
<text text-anchor="start" x="1722" y="-331.5" font-family="Helvetica,sans-Serif" font-size="10.00">/datastructures/reachability</text>
<text text-anchor="middle" x="1788" y="-320.5" font-family="Helvetica,sans-Serif" font-size="10.00">/Settings.h</text>
</g>
<!-- Node2 -->
<g id="node2" class="node"><title>Node2</title>
<g id="a_node2"><a xlink:href="types_8h.html" target="_top" xlink:title="../../types.h">
<polygon fill="white" stroke="black" points="1195,-257.5 1195,-276.5 1265,-276.5 1265,-257.5 1195,-257.5"/>
<text text-anchor="middle" x="1230" y="-264.5" font-family="Helvetica,sans-Serif" font-size="10.00">../../types.h</text>
</a>
</g>
</g>
<!-- Node1&#45;&gt;Node2 -->
<g id="edge1" class="edge"><title>Node1&#45;&gt;Node2</title>
<path fill="none" stroke="midnightblue" d="M1713.9,-329.138C1596.48,-314.303 1371.16,-285.834 1275.13,-273.702"/>
<polygon fill="midnightblue" stroke="midnightblue" points="1275.52,-270.224 1265.16,-272.443 1274.65,-277.169 1275.52,-270.224"/>
</g>
<!-- Node3 -->
<g id="node3" class="node"><title>Node3</title>
<polygon fill="white" stroke="#bfbfbf" points="1641,-123.5 1641,-142.5 1775,-142.5 1775,-123.5 1641,-123.5"/>
<text text-anchor="middle" x="1708" y="-130.5" font-family="Helvetica,sans-Serif" font-size="10.00">carl/numbers/numbers.h</text>
</g>
<!-- Node1&#45;&gt;Node3 -->
<g id="edge35" class="edge"><title>Node1&#45;&gt;Node3</title>
<path fill="none" stroke="midnightblue" d="M1778.19,-313.424C1761.86,-271.683 1729.48,-188.919 1715.13,-152.236"/>
<polygon fill="midnightblue" stroke="midnightblue" points="1718.35,-150.841 1711.44,-142.803 1711.83,-153.391 1718.35,-150.841"/>
</g>
<!-- Node7 -->
<g id="node7" class="node"><title>Node7</title>
<polygon fill="white" stroke="#bfbfbf" points="1685,-0.5 1685,-19.5 1731,-19.5 1731,-0.5 1685,-0.5"/>
<text text-anchor="middle" x="1708" y="-7.5" font-family="Helvetica,sans-Serif" font-size="10.00">iosfwd</text>
</g>
<!-- Node1&#45;&gt;Node7 -->
<g id="edge36" class="edge"><title>Node1&#45;&gt;Node7</title>
<path fill="none" stroke="midnightblue" d="M1804.77,-313.403C1820.3,-287.696 1841,-246.012 1841,-206.5 1841,-206.5 1841,-206.5 1841,-132 1841,-77.7545 1779.72,-41.3994 1740.35,-23.6415"/>
<polygon fill="midnightblue" stroke="midnightblue" points="1741.43,-20.2955 1730.86,-19.5279 1738.65,-26.7176 1741.43,-20.2955"/>
</g>
<!-- Node28 -->
<g id="node28" class="node"><title>Node28</title>
<polygon fill="white" stroke="#bfbfbf" points="1869,-257.5 1869,-276.5 1913,-276.5 1913,-257.5 1869,-257.5"/>
<text text-anchor="middle" x="1891" y="-264.5" font-family="Helvetica,sans-Serif" font-size="10.00">string</text>
</g>
<!-- Node1&#45;&gt;Node28 -->
<g id="edge37" class="edge"><title>Node1&#45;&gt;Node28</title>
<path fill="none" stroke="midnightblue" d="M1824.6,-313.446C1839.83,-303.027 1856.95,-291.308 1869.99,-282.38"/>
<polygon fill="midnightblue" stroke="midnightblue" points="1872.02,-285.232 1878.3,-276.695 1868.07,-279.456 1872.02,-285.232"/>
</g>
<!-- Node2&#45;&gt;Node3 -->
<g id="edge2" class="edge"><title>Node2&#45;&gt;Node3</title>
<path fill="none" stroke="midnightblue" d="M1262.95,-257.45C1297.23,-248.515 1352.44,-234.011 1400,-221 1496.57,-194.582 1609.78,-162.253 1668.37,-145.422"/>
<polygon fill="midnightblue" stroke="midnightblue" points="1669.67,-148.689 1678.31,-142.562 1667.73,-141.961 1669.67,-148.689"/>
</g>
<!-- Node4 -->
<g id="node4" class="node"><title>Node4</title>
<polygon fill="white" stroke="#bfbfbf" points="1305,-196 1305,-215 1391,-215 1391,-196 1305,-196"/>
<text text-anchor="middle" x="1348" y="-203" font-family="Helvetica,sans-Serif" font-size="10.00">carl/util/hash.h</text>
</g>
<!-- Node2&#45;&gt;Node4 -->
<g id="edge3" class="edge"><title>Node2&#45;&gt;Node4</title>
<path fill="none" stroke="midnightblue" d="M1246.91,-257.475C1266.53,-247.578 1299.13,-231.142 1321.99,-219.615"/>
<polygon fill="midnightblue" stroke="midnightblue" points="1323.77,-222.637 1331.12,-215.009 1320.62,-216.386 1323.77,-222.637"/>
</g>
<!-- Node5 -->
<g id="node5" class="node"><title>Node5</title>
<polygon fill="white" stroke="#bfbfbf" points="613,-196 613,-215 717,-215 717,-196 613,-196"/>
<text text-anchor="middle" x="665" y="-203" font-family="Helvetica,sans-Serif" font-size="10.00">eigen3/Eigen/Core</text>
</g>
<!-- Node2&#45;&gt;Node5 -->
<g id="edge4" class="edge"><title>Node2&#45;&gt;Node5</title>
<path fill="none" stroke="midnightblue" d="M1194.73,-264.353C1112.87,-260.198 903.792,-247.663 731,-221 724.145,-219.942 716.936,-218.6 709.902,-217.16"/>
<polygon fill="midnightblue" stroke="midnightblue" points="710.293,-213.665 699.783,-215.004 708.834,-220.511 710.293,-213.665"/>
</g>
<!-- Node6 -->
<g id="node6" class="node"><title>Node6</title>
<polygon fill="white" stroke="#bfbfbf" points="773,-123.5 773,-142.5 885,-142.5 885,-123.5 773,-123.5"/>
<text text-anchor="middle" x="829" y="-130.5" font-family="Helvetica,sans-Serif" font-size="10.00">eigen3/Eigen/Dense</text>
</g>
<!-- Node2&#45;&gt;Node6 -->
<g id="edge5" class="edge"><title>Node2&#45;&gt;Node6</title>
<path fill="none" stroke="midnightblue" d="M1194.78,-262.909C1147.03,-257.941 1059.59,-246.075 989,-221 936.305,-202.282 880.054,-167.903 850.311,-148.436"/>
<polygon fill="midnightblue" stroke="midnightblue" points="851.893,-145.286 841.624,-142.678 848.026,-151.12 851.893,-145.286"/>
</g>
<!-- Node2&#45;&gt;Node7 -->
<g id="edge6" class="edge"><title>Node2&#45;&gt;Node7</title>
<path fill="none" stroke="midnightblue" d="M1265.29,-264.496C1376.79,-258.93 1718.08,-235.41 1784,-154 1817.62,-112.48 1759.46,-53.8108 1727.24,-26.3267"/>
<polygon fill="midnightblue" stroke="midnightblue" points="1729.24,-23.4369 1719.31,-19.7402 1724.77,-28.8219 1729.24,-23.4369"/>
</g>
<!-- Node8 -->
<g id="node8" class="node"><title>Node8</title>
<polygon fill="white" stroke="#bfbfbf" points="820,-0.5 820,-19.5 852,-19.5 852,-0.5 820,-0.5"/>
<text text-anchor="middle" x="836" y="-7.5" font-family="Helvetica,sans-Serif" font-size="10.00">set</text>
</g>
<!-- Node2&#45;&gt;Node8 -->
<g id="edge7" class="edge"><title>Node2&#45;&gt;Node8</title>
<path fill="none" stroke="midnightblue" d="M1194.9,-263.534C1094.76,-255.646 811.808,-227.126 764,-154 735.36,-110.193 787.804,-53.4644 817.547,-26.523"/>
<polygon fill="midnightblue" stroke="midnightblue" points="820.05,-28.9822 825.247,-19.7495 815.427,-23.7261 820.05,-28.9822"/>
</g>
<!-- Node9 -->
<g id="node9" class="node"><title>Node9</title>
<g id="a_node9"><a xlink:href="adaptions__eigen_8h.html" target="_top" xlink:title="util/adaptions_eigen\l/adaptions_eigen.h">
<polygon fill="white" stroke="black" points="1173.5,-190.5 1173.5,-220.5 1286.5,-220.5 1286.5,-190.5 1173.5,-190.5"/>
<text text-anchor="start" x="1181.5" y="-208.5" font-family="Helvetica,sans-Serif" font-size="10.00">util/adaptions_eigen</text>
<text text-anchor="middle" x="1230" y="-197.5" font-family="Helvetica,sans-Serif" font-size="10.00">/adaptions_eigen.h</text>
</a>
</g>
</g>
<!-- Node2&#45;&gt;Node9 -->
<g id="edge8" class="edge"><title>Node2&#45;&gt;Node9</title>
<path fill="none" stroke="midnightblue" d="M1225.1,-257.475C1223.57,-250.471 1222.99,-240.192 1223.36,-230.696"/>
<polygon fill="midnightblue" stroke="midnightblue" points="1226.86,-230.77 1224.17,-220.523 1219.88,-230.212 1226.86,-230.77"/>
</g>
<!-- Node9&#45;&gt;Node2 -->
<g id="edge26" class="edge"><title>Node9&#45;&gt;Node2</title>
<path fill="none" stroke="midnightblue" d="M1235.83,-220.523C1236.87,-228.586 1237.03,-238.813 1236.3,-247.526"/>
<polygon fill="midnightblue" stroke="midnightblue" points="1232.83,-247.085 1234.9,-257.475 1239.76,-248.06 1232.83,-247.085"/>
</g>
<!-- Node9&#45;&gt;Node3 -->
<g id="edge28" class="edge"><title>Node9&#45;&gt;Node3</title>
<path fill="none" stroke="midnightblue" d="M1286.81,-191.612C1289.91,-191.035 1292.99,-190.493 1296,-190 1442.03,-166.089 1481.29,-179.794 1627,-154 1640.28,-151.649 1654.62,-148.363 1667.48,-145.132"/>
<polygon fill="midnightblue" stroke="midnightblue" points="1668.62,-148.453 1677.44,-142.572 1666.88,-141.673 1668.62,-148.453"/>
</g>
<!-- Node9&#45;&gt;Node6 -->
<g id="edge29" class="edge"><title>Node9&#45;&gt;Node6</title>
<path fill="none" stroke="midnightblue" d="M1173.34,-198.6C1106.16,-191.005 991.06,-176.096 894,-154 884.003,-151.724 873.309,-148.691 863.542,-145.676"/>
<polygon fill="midnightblue" stroke="midnightblue" points="864.356,-142.263 853.766,-142.574 862.239,-148.935 864.356,-142.263"/>
</g>
<!-- Node9&#45;&gt;Node7 -->
<g id="edge32" class="edge"><title>Node9&#45;&gt;Node7</title>
<path fill="none" stroke="midnightblue" d="M1286.81,-191.655C1289.92,-191.067 1292.99,-190.511 1296,-190 1427.52,-167.661 1477.5,-219.009 1594,-154 1607.8,-146.298 1669.11,-64.0595 1695.66,-27.8981"/>
<polygon fill="midnightblue" stroke="midnightblue" points="1698.53,-29.9062 1701.62,-19.7707 1692.88,-25.7697 1698.53,-29.9062"/>
</g>
<!-- Node10 -->
<g id="node10" class="node"><title>Node10</title>
<g id="a_node10"><a xlink:href="config_8h.html" target="_top" xlink:title="../../config.h">
<polygon fill="white" stroke="black" points="903,-123.5 903,-142.5 975,-142.5 975,-123.5 903,-123.5"/>
<text text-anchor="middle" x="939" y="-130.5" font-family="Helvetica,sans-Serif" font-size="10.00">../../config.h</text>
</a>
</g>
</g>
<!-- Node9&#45;&gt;Node10 -->
<g id="edge9" class="edge"><title>Node9&#45;&gt;Node10</title>
<path fill="none" stroke="midnightblue" d="M1173.2,-190.74C1117.84,-177.328 1034.78,-157.205 983.893,-144.876"/>
<polygon fill="midnightblue" stroke="midnightblue" points="984.704,-141.472 974.161,-142.518 983.056,-148.275 984.704,-141.472"/>
</g>
<!-- Node23 -->
<g id="node23" class="node"><title>Node23</title>
<g id="a_node23"><a xlink:href="transformation_8h.html" target="_top" xlink:title="transformation.h">
<polygon fill="white" stroke="black" points="1249.5,-123.5 1249.5,-142.5 1346.5,-142.5 1346.5,-123.5 1249.5,-123.5"/>
<text text-anchor="middle" x="1298" y="-130.5" font-family="Helvetica,sans-Serif" font-size="10.00">transformation.h</text>
</a>
</g>
</g>
<!-- Node9&#45;&gt;Node23 -->
<g id="edge27" class="edge"><title>Node9&#45;&gt;Node23</title>
<path fill="none" stroke="midnightblue" d="M1243.76,-190.233C1254.97,-178.615 1270.78,-162.216 1282.45,-150.124"/>
<polygon fill="midnightblue" stroke="midnightblue" points="1285,-152.521 1289.42,-142.893 1279.96,-147.661 1285,-152.521"/>
</g>
<!-- Node24 -->
<g id="node24" class="node"><title>Node24</title>
<polygon fill="white" stroke="#bfbfbf" points="1365,-123.5 1365,-142.5 1503,-142.5 1503,-123.5 1365,-123.5"/>
<text text-anchor="middle" x="1434" y="-130.5" font-family="Helvetica,sans-Serif" font-size="10.00">eigen3/Eigen/Eigenvalues</text>
</g>
<!-- Node9&#45;&gt;Node24 -->
<g id="edge30" class="edge"><title>Node9&#45;&gt;Node24</title>
<path fill="none" stroke="midnightblue" d="M1270.79,-190.403C1308.63,-177.327 1364.3,-158.089 1399.85,-145.803"/>
<polygon fill="midnightblue" stroke="midnightblue" points="1401,-149.108 1409.31,-142.534 1398.71,-142.492 1401,-149.108"/>
</g>
<!-- Node25 -->
<g id="node25" class="node"><title>Node25</title>
<polygon fill="white" stroke="#bfbfbf" points="1521.5,-123.5 1521.5,-142.5 1584.5,-142.5 1584.5,-123.5 1521.5,-123.5"/>
<text text-anchor="middle" x="1553" y="-130.5" font-family="Helvetica,sans-Serif" font-size="10.00">functional</text>
</g>
<!-- Node9&#45;&gt;Node25 -->
<g id="edge31" class="edge"><title>Node9&#45;&gt;Node25</title>
<path fill="none" stroke="midnightblue" d="M1286.84,-191.818C1289.94,-191.188 1293.01,-190.578 1296,-190 1391.56,-171.552 1419.3,-183.643 1512,-154 1517.56,-152.221 1523.32,-149.807 1528.71,-147.272"/>
<polygon fill="midnightblue" stroke="midnightblue" points="1530.49,-150.295 1537.86,-142.688 1527.35,-144.035 1530.49,-150.295"/>
</g>
<!-- Node26 -->
<g id="node26" class="node"><title>Node26</title>
<polygon fill="white" stroke="#bfbfbf" points="1031,-123.5 1031,-142.5 1073,-142.5 1073,-123.5 1031,-123.5"/>
<text text-anchor="middle" x="1052" y="-130.5" font-family="Helvetica,sans-Serif" font-size="10.00">limits</text>
</g>
<!-- Node9&#45;&gt;Node26 -->
<g id="edge33" class="edge"><title>Node9&#45;&gt;Node26</title>
<path fill="none" stroke="midnightblue" d="M1178.34,-190.473C1149.3,-181.707 1112.8,-169.198 1082,-154 1078.54,-152.293 1075.01,-150.249 1071.64,-148.129"/>
<polygon fill="midnightblue" stroke="midnightblue" points="1073.52,-145.175 1063.26,-142.519 1069.62,-150.991 1073.52,-145.175"/>
</g>
<!-- Node27 -->
<g id="node27" class="node"><title>Node27</title>
<polygon fill="white" stroke="#bfbfbf" points="1091,-112.5 1091,-153.5 1231,-153.5 1231,-112.5 1091,-112.5"/>
<text text-anchor="start" x="1099" y="-141.5" font-family="Helvetica,sans-Serif" font-size="10.00">eigen3/unsupported</text>
<text text-anchor="start" x="1099" y="-130.5" font-family="Helvetica,sans-Serif" font-size="10.00">/Eigen/src/MatrixFunctions</text>
<text text-anchor="middle" x="1161" y="-119.5" font-family="Helvetica,sans-Serif" font-size="10.00">/MatrixExponential.h</text>
</g>
<!-- Node9&#45;&gt;Node27 -->
<g id="edge34" class="edge"><title>Node9&#45;&gt;Node27</title>
<path fill="none" stroke="midnightblue" d="M1216.04,-190.233C1207.82,-181.833 1197.15,-170.933 1187.4,-160.969"/>
<polygon fill="midnightblue" stroke="midnightblue" points="1189.67,-158.287 1180.17,-153.588 1184.66,-163.183 1189.67,-158.287"/>
</g>
<!-- Node11 -->
<g id="node11" class="node"><title>Node11</title>
<g id="a_node11"><a xlink:href="flags_8h.html" target="_top" xlink:title="flags.h">
<polygon fill="white" stroke="black" points="707,-0.5 707,-19.5 755,-19.5 755,-0.5 707,-0.5"/>
<text text-anchor="middle" x="731" y="-7.5" font-family="Helvetica,sans-Serif" font-size="10.00">flags.h</text>
</a>
</g>
</g>
<!-- Node10&#45;&gt;Node11 -->
<g id="edge10" class="edge"><title>Node10&#45;&gt;Node11</title>
<path fill="none" stroke="midnightblue" d="M924.374,-123.492C888.88,-102.844 797.924,-49.932 754.612,-24.736"/>
<polygon fill="midnightblue" stroke="midnightblue" points="756.292,-21.6641 745.888,-19.661 752.772,-27.7148 756.292,-21.6641"/>
</g>
<!-- Node12 -->
<g id="node12" class="node"><title>Node12</title>
<g id="a_node12"><a xlink:href="util_2convenienceOperators_8h.html" target="_top" xlink:title="util/convenienceOperators.h">
<polygon fill="white" stroke="black" points="895.5,-56.5 895.5,-75.5 1046.5,-75.5 1046.5,-56.5 895.5,-56.5"/>
<text text-anchor="middle" x="971" y="-63.5" font-family="Helvetica,sans-Serif" font-size="10.00">util/convenienceOperators.h</text>
</a>
</g>
</g>
<!-- Node10&#45;&gt;Node12 -->
<g id="edge11" class="edge"><title>Node10&#45;&gt;Node12</title>
<path fill="none" stroke="midnightblue" d="M943.316,-123.234C948.162,-113.39 956.152,-97.1598 962.306,-84.6594"/>
<polygon fill="midnightblue" stroke="midnightblue" points="965.476,-86.1449 966.753,-75.6273 959.196,-83.0531 965.476,-86.1449"/>
</g>
<!-- Node16 -->
<g id="node16" class="node"><title>Node16</title>
<g id="a_node16"><a xlink:href="Logger_8h.html" target="_top" xlink:title="util/logging/Logger.h">
<polygon fill="white" stroke="black" points="343.5,-56.5 343.5,-75.5 456.5,-75.5 456.5,-56.5 343.5,-56.5"/>
<text text-anchor="middle" x="400" y="-63.5" font-family="Helvetica,sans-Serif" font-size="10.00">util/logging/Logger.h</text>
</a>
</g>
</g>
<!-- Node10&#45;&gt;Node16 -->
<g id="edge18" class="edge"><title>Node10&#45;&gt;Node16</title>
<path fill="none" stroke="midnightblue" d="M923.216,-123.456C914.787,-119.292 904.094,-114.626 894,-112 744.832,-73.1899 562.779,-66.6512 466.735,-66.2298"/>
<polygon fill="midnightblue" stroke="midnightblue" points="466.592,-62.7296 456.584,-66.2069 466.576,-69.7296 466.592,-62.7296"/>
</g>
<!-- Node12&#45;&gt;Node2 -->
<g id="edge12" class="edge"><title>Node12&#45;&gt;Node2</title>
<path fill="none" stroke="midnightblue" d="M974.223,-75.6883C980.869,-92.6172 997.551,-130.422 1022,-154 1073.19,-203.363 1150.45,-237.237 1194.99,-253.959"/>
<polygon fill="midnightblue" stroke="midnightblue" points="1193.91,-257.293 1204.51,-257.458 1196.33,-250.722 1193.91,-257.293"/>
</g>
<!-- Node12&#45;&gt;Node7 -->
<g id="edge13" class="edge"><title>Node12&#45;&gt;Node7</title>
<path fill="none" stroke="midnightblue" d="M1046.75,-59.4497C1204.59,-47.885 1563.23,-21.6071 1674.46,-13.4571"/>
<polygon fill="midnightblue" stroke="midnightblue" points="1675.02,-16.926 1684.74,-12.7045 1674.51,-9.94467 1675.02,-16.926"/>
</g>
<!-- Node12&#45;&gt;Node8 -->
<g id="edge15" class="edge"><title>Node12&#45;&gt;Node8</title>
<path fill="none" stroke="midnightblue" d="M949.609,-56.4435C925.717,-46.887 887.064,-31.4255 861.589,-21.2357"/>
<polygon fill="midnightblue" stroke="midnightblue" points="862.791,-17.9469 852.207,-17.4826 860.191,-24.4463 862.791,-17.9469"/>
</g>
<!-- Node13 -->
<g id="node13" class="node"><title>Node13</title>
<polygon fill="white" stroke="#bfbfbf" points="894,-0.5 894,-19.5 932,-19.5 932,-0.5 894,-0.5"/>
<text text-anchor="middle" x="913" y="-7.5" font-family="Helvetica,sans-Serif" font-size="10.00">map</text>
</g>
<!-- Node12&#45;&gt;Node13 -->
<g id="edge14" class="edge"><title>Node12&#45;&gt;Node13</title>
<path fill="none" stroke="midnightblue" d="M961.681,-56.324C953.107,-48.3414 940.188,-36.3128 929.812,-26.6529"/>
<polygon fill="midnightblue" stroke="midnightblue" points="932.192,-24.0865 922.488,-19.8339 927.422,-29.2098 932.192,-24.0865"/>
</g>
<!-- Node14 -->
<g id="node14" class="node"><title>Node14</title>
<polygon fill="white" stroke="#bfbfbf" points="950,-0.5 950,-19.5 992,-19.5 992,-0.5 950,-0.5"/>
<text text-anchor="middle" x="971" y="-7.5" font-family="Helvetica,sans-Serif" font-size="10.00">utility</text>
</g>
<!-- Node12&#45;&gt;Node14 -->
<g id="edge16" class="edge"><title>Node12&#45;&gt;Node14</title>
<path fill="none" stroke="midnightblue" d="M971,-56.083C971,-49.0059 971,-38.8611 971,-29.9865"/>
<polygon fill="midnightblue" stroke="midnightblue" points="974.5,-29.751 971,-19.7511 967.5,-29.7511 974.5,-29.751"/>
</g>
<!-- Node15 -->
<g id="node15" class="node"><title>Node15</title>
<polygon fill="white" stroke="#bfbfbf" points="1010.5,-0.5 1010.5,-19.5 1057.5,-19.5 1057.5,-0.5 1010.5,-0.5"/>
<text text-anchor="middle" x="1034" y="-7.5" font-family="Helvetica,sans-Serif" font-size="10.00">vector</text>
</g>
<!-- Node12&#45;&gt;Node15 -->
<g id="edge17" class="edge"><title>Node12&#45;&gt;Node15</title>
<path fill="none" stroke="midnightblue" d="M981.122,-56.324C990.526,-48.2631 1004.74,-36.0765 1016.07,-26.3695"/>
<polygon fill="midnightblue" stroke="midnightblue" points="1018.38,-28.9993 1023.69,-19.8339 1013.82,-23.6844 1018.38,-28.9993"/>
</g>
<!-- Node16&#45;&gt;Node11 -->
<g id="edge19" class="edge"><title>Node16&#45;&gt;Node11</title>
<path fill="none" stroke="midnightblue" d="M456.709,-58.266C516.718,-50.7073 614.022,-37.2158 697,-20 697.101,-19.9791 697.202,-19.958 697.303,-19.9369"/>
<polygon fill="midnightblue" stroke="midnightblue" points="697.973,-23.3743 706.931,-17.7164 696.4,-16.5534 697.973,-23.3743"/>
</g>
<!-- Node17 -->
<g id="node17" class="node"><title>Node17</title>
<polygon fill="white" stroke="#bfbfbf" points="0,-0.5 0,-19.5 154,-19.5 154,-0.5 0,-0.5"/>
<text text-anchor="middle" x="77" y="-7.5" font-family="Helvetica,sans-Serif" font-size="10.00">carl/io/streamingOperators.h</text>
</g>
<!-- Node16&#45;&gt;Node17 -->
<g id="edge20" class="edge"><title>Node16&#45;&gt;Node17</title>
<path fill="none" stroke="midnightblue" d="M348.82,-56.4435C291.528,-46.8654 198.756,-31.3556 137.812,-21.1667"/>
<polygon fill="midnightblue" stroke="midnightblue" points="138.381,-17.7134 127.941,-19.5164 137.227,-24.6175 138.381,-17.7134"/>
</g>
<!-- Node18 -->
<g id="node18" class="node"><title>Node18</title>
<polygon fill="white" stroke="#bfbfbf" points="172.5,-0.5 172.5,-19.5 231.5,-19.5 231.5,-0.5 172.5,-0.5"/>
<text text-anchor="middle" x="202" y="-7.5" font-family="Helvetica,sans-Serif" font-size="10.00">iostream</text>
</g>
<!-- Node16&#45;&gt;Node18 -->
<g id="edge21" class="edge"><title>Node16&#45;&gt;Node18</title>
<path fill="none" stroke="midnightblue" d="M368.626,-56.4435C334.239,-47.0652 279,-32.0001 241.641,-21.8112"/>
<polygon fill="midnightblue" stroke="midnightblue" points="242.179,-18.33 231.61,-19.0755 240.337,-25.0834 242.179,-18.33"/>
</g>
<!-- Node19 -->
<g id="node19" class="node"><title>Node19</title>
<polygon fill="white" stroke="#bfbfbf" points="250,-0.5 250,-19.5 306,-19.5 306,-0.5 250,-0.5"/>
<text text-anchor="middle" x="278" y="-7.5" font-family="Helvetica,sans-Serif" font-size="10.00">sstream</text>
</g>
<!-- Node16&#45;&gt;Node19 -->
<g id="edge22" class="edge"><title>Node16&#45;&gt;Node19</title>
<path fill="none" stroke="midnightblue" d="M380.669,-56.4435C360.68,-47.5961 329.257,-33.6875 306.436,-23.5865"/>
<polygon fill="midnightblue" stroke="midnightblue" points="307.802,-20.3635 297.241,-19.5164 304.968,-26.7645 307.802,-20.3635"/>
</g>
<!-- Node20 -->
<g id="node20" class="node"><title>Node20</title>
<polygon fill="white" stroke="#bfbfbf" points="324,-0.5 324,-19.5 372,-19.5 372,-0.5 324,-0.5"/>
<text text-anchor="middle" x="348" y="-7.5" font-family="Helvetica,sans-Serif" font-size="10.00">thread</text>
</g>
<!-- Node16&#45;&gt;Node20 -->
<g id="edge23" class="edge"><title>Node16&#45;&gt;Node20</title>
<path fill="none" stroke="midnightblue" d="M391.413,-56.083C383.841,-48.2195 372.622,-36.5688 363.486,-27.0813"/>
<polygon fill="midnightblue" stroke="midnightblue" points="365.885,-24.5266 356.427,-19.7511 360.842,-29.3821 365.885,-24.5266"/>
</g>
<!-- Node21 -->
<g id="node21" class="node"><title>Node21</title>
<polygon fill="white" stroke="#bfbfbf" points="390.5,-0.5 390.5,-19.5 515.5,-19.5 515.5,-0.5 390.5,-0.5"/>
<text text-anchor="middle" x="453" y="-7.5" font-family="Helvetica,sans-Serif" font-size="10.00">carl/core/carlLogging.h</text>
</g>
<!-- Node16&#45;&gt;Node21 -->
<g id="edge24" class="edge"><title>Node16&#45;&gt;Node21</title>
<path fill="none" stroke="midnightblue" d="M408.752,-56.083C416.47,-48.2195 427.905,-36.5688 437.217,-27.0813"/>
<polygon fill="midnightblue" stroke="midnightblue" points="439.904,-29.3396 444.411,-19.7511 434.908,-24.4363 439.904,-29.3396"/>
</g>
<!-- Node22 -->
<g id="node22" class="node"><title>Node22</title>
<polygon fill="white" stroke="#bfbfbf" points="533.5,-0.5 533.5,-19.5 688.5,-19.5 688.5,-0.5 533.5,-0.5"/>
<text text-anchor="middle" x="611" y="-7.5" font-family="Helvetica,sans-Serif" font-size="10.00">carl/core/carlLoggingHelper.h</text>
</g>
<!-- Node16&#45;&gt;Node22 -->
<g id="edge25" class="edge"><title>Node16&#45;&gt;Node22</title>
<path fill="none" stroke="midnightblue" d="M433.434,-56.4435C469.856,-47.1221 528.23,-32.1828 568.029,-21.9972"/>
<polygon fill="midnightblue" stroke="midnightblue" points="568.903,-25.3866 577.723,-19.5164 567.167,-18.6051 568.903,-25.3866"/>
</g>
</g>
</svg>
        <g id="navigator" transform="translate(0 0)" fill="#404254">
                <rect fill="#f2f5e9" fill-opacity="0.5" stroke="#606060" stroke-width=".5" x="0" y="0" width="60" height="60"/>
                <use id="zoomplus" xlink:href="#zoomPlus" x="17" y="9" onmousedown="handleZoom(evt,'in')"/>
                <use id="zoomminus" xlink:href="#zoomMin" x="42" y="9" onmousedown="handleZoom(evt,'out')"/>
                <use id="reset" xlink:href="#resetDef" x="30" y="36" onmousedown="handleReset()"/>
                <g id="arrowUp" xlink:href="#dirArrow" transform="translate(30 24)" onmousedown="handlePan(0,-1)">
                  <use xlink:href="#rim" fill="#404040">
                        <set attributeName="fill" to="#808080" begin="arrowUp.mouseover" end="arrowUp.mouseout"/>
                  </use>
                  <path fill="none" stroke="white" stroke-width="1.5" d="M0,-3.0v7 M-2.5,-0.5L0,-3.0L2.5,-0.5"/>
                </g>
                <g id="arrowRight" xlink:href="#dirArrow" transform="rotate(90) translate(36 -43)" onmousedown="handlePan(1,0)">
                  <use xlink:href="#rim" fill="#404040">
                        <set attributeName="fill" to="#808080" begin="arrowRight.mouseover" end="arrowRight.mouseout"/>
                  </use>
                  <path fill="none" stroke="white" stroke-width="1.5" d="M0,-3.0v7 M-2.5,-0.5L0,-3.0L2.5,-0.5"/>
                </g>
                <g id="arrowDown" xlink:href="#dirArrow" transform="rotate(180) translate(-30 -48)" onmousedown="handlePan(0,1)">
                  <use xlink:href="#rim" fill="#404040">
                        <set attributeName="fill" to="#808080" begin="arrowDown.mouseover" end="arrowDown.mouseout"/>
                  </use>
                  <path fill="none" stroke="white" stroke-width="1.5" d="M0,-3.0v7 M-2.5,-0.5L0,-3.0L2.5,-0.5"/>
                </g>
                <g id="arrowLeft" xlink:href="#dirArrow" transform="rotate(270) translate(-36 17)" onmousedown="handlePan(-1,0)">
                  <use xlink:href="#rim" fill="#404040">
                        <set attributeName="fill" to="#808080" begin="arrowLeft.mouseover" end="arrowLeft.mouseout"/>
                  </use>
                  <path fill="none" stroke="white" stroke-width="1.5" d="M0,-3.0v7 M-2.5,-0.5L0,-3.0L2.5,-0.5"/>
                </g>
        </g>
        <svg viewBox="0 0 15 15" width="100%" height="30px" preserveAspectRatio="xMaxYMin meet">
         <g id="arrow_out" transform="scale(0.3 0.3)">
          <a xlink:href="Settings_8h__incl_org.svg" target="_base">
           <rect id="button" ry="5" rx="5" y="6" x="6" height="38" width="38"
                fill="#f2f5e9" fill-opacity="0.5" stroke="#606060" stroke-width="1.0"/>
           <path id="arrow"
             d="M 11.500037,31.436501 C 11.940474,20.09759 22.043105,11.32322 32.158766,21.979434 L 37.068811,17.246167 C 37.068811,17.246167 37.088388,32 37.088388,32 L 22.160133,31.978069 C 22.160133,31.978069 26.997745,27.140456 26.997745,27.140456 C 18.528582,18.264221 13.291696,25.230495 11.500037,31.436501 z"
             style="fill:#404040;"/>
          </a>
         </g>
        </svg>
</svg>
