<?xml version="1.0" encoding="UTF-8" standalone="no"?>
<!DOCTYPE svg PUBLIC "-//W3C//DTD SVG 1.1//EN"
 "http://www.w3.org/Graphics/SVG/1.1/DTD/svg11.dtd">
<!-- Generated by graphviz version 2.38.0 (20140413.2041)
 -->
<!-- Title: /home/travis/build/hypro/hypro/src/hypro/util/multithreading/Spinlock.cpp Pages: 1 -->
<svg width="178pt" height="162pt"
 viewBox="0.00 0.00 178.00 162.00" xmlns="http://www.w3.org/2000/svg" xmlns:xlink="http://www.w3.org/1999/xlink">
<g id="graph0" class="graph" transform="scale(1 1) rotate(0) translate(4 158)">
<title>/home/travis/build/hypro/hypro/src/hypro/util/multithreading/Spinlock.cpp</title>
<polygon fill="white" stroke="none" points="-4,4 -4,-158 174,-158 174,4 -4,4"/>
<!-- Node1 -->
<g id="node1" class="node"><title>Node1</title>
<polygon fill="#bfbfbf" stroke="black" points="0,-112.5 0,-153.5 170,-153.5 170,-112.5 0,-112.5"/>
<text text-anchor="start" x="8" y="-141.5" font-family="Helvetica,sans-Serif" font-size="10.00">/home/travis/build</text>
<text text-anchor="start" x="8" y="-130.5" font-family="Helvetica,sans-Serif" font-size="10.00">/hypro/hypro/src/hypro</text>
<text text-anchor="middle" x="85" y="-119.5" font-family="Helvetica,sans-Serif" font-size="10.00">/util/multithreading/Spinlock.cpp</text>
</g>
<!-- Node2 -->
<g id="node2" class="node"><title>Node2</title>
<g id="a_node2"><a xlink:href="Spinlock_8h.html" target="_top" xlink:title="Spinlock.h">
<polygon fill="white" stroke="black" points="52.5,-56.5 52.5,-75.5 117.5,-75.5 117.5,-56.5 52.5,-56.5"/>
<text text-anchor="middle" x="85" y="-63.5" font-family="Helvetica,sans-Serif" font-size="10.00">Spinlock.h</text>
</a>
</g>
</g>
<!-- Node1&#45;&gt;Node2 -->
<g id="edge1" class="edge"><title>Node1&#45;&gt;Node2</title>
<path fill="none" stroke="midnightblue" d="M85,-112.498C85,-104.065 85,-94.2351 85,-85.874"/>
<polygon fill="midnightblue" stroke="midnightblue" points="88.5001,-85.6525 85,-75.6525 81.5001,-85.6525 88.5001,-85.6525"/>
</g>
<!-- Node3 -->
<g id="node3" class="node"><title>Node3</title>
<polygon fill="white" stroke="#bfbfbf" points="25,-0.5 25,-19.5 75,-19.5 75,-0.5 25,-0.5"/>
<text text-anchor="middle" x="50" y="-7.5" font-family="Helvetica,sans-Serif" font-size="10.00">atomic</text>
</g>
<!-- Node2&#45;&gt;Node3 -->
<g id="edge2" class="edge"><title>Node2&#45;&gt;Node3</title>
<path fill="none" stroke="midnightblue" d="M79.2205,-56.083C74.3276,-48.5341 67.1726,-37.4948 61.1674,-28.2298"/>
<polygon fill="midnightblue" stroke="midnightblue" points="64.048,-26.239 55.672,-19.7511 58.174,-30.0463 64.048,-26.239"/>
</g>
<!-- Node4 -->
<g id="node4" class="node"><title>Node4</title>
<polygon fill="white" stroke="#bfbfbf" points="93.5,-0.5 93.5,-19.5 148.5,-19.5 148.5,-0.5 93.5,-0.5"/>
<text text-anchor="middle" x="121" y="-7.5" font-family="Helvetica,sans-Serif" font-size="10.00">unistd.h</text>
</g>
<!-- Node2&#45;&gt;Node4 -->
<g id="edge3" class="edge"><title>Node2&#45;&gt;Node4</title>
<path fill="none" stroke="midnightblue" d="M90.9447,-56.083C95.9773,-48.5341 103.337,-37.4948 109.513,-28.2298"/>
<polygon fill="midnightblue" stroke="midnightblue" points="112.531,-30.0131 115.166,-19.7511 106.707,-26.1301 112.531,-30.0131"/>
</g>
</g>
</svg>
