<?xml version="1.0" encoding="UTF-8" standalone="no"?>
<!DOCTYPE svg PUBLIC "-//W3C//DTD SVG 1.1//EN"
 "http://www.w3.org/Graphics/SVG/1.1/DTD/svg11.dtd">
<!-- Generated by graphviz version 2.38.0 (20140413.2041)
 -->
<!-- Title: /home/travis/build/hypro/hypro/src/hypro/datastructures/reachability/StrategyNode.h Pages: 1 -->
<svg width="1368pt" height="1251pt"
 viewBox="0.00 0.00 1368.00 1251.00" xmlns="http://www.w3.org/2000/svg" xmlns:xlink="http://www.w3.org/1999/xlink">
<g id="graph0" class="graph" transform="scale(1 1) rotate(0) translate(4 1247)">
<title>/home/travis/build/hypro/hypro/src/hypro/datastructures/reachability/StrategyNode.h</title>
<polygon fill="white" stroke="none" points="-4,4 -4,-1247 1364,-1247 1364,4 -4,4"/>
<!-- Node1 -->
<g id="node1" class="node"><title>Node1</title>
<polygon fill="#bfbfbf" stroke="black" points="359,-1190.5 359,-1242.5 507,-1242.5 507,-1190.5 359,-1190.5"/>
<text text-anchor="start" x="367" y="-1230.5" font-family="Helvetica,sans-Serif" font-size="10.00">/home/travis/build</text>
<text text-anchor="start" x="367" y="-1219.5" font-family="Helvetica,sans-Serif" font-size="10.00">/hypro/hypro/src/hypro</text>
<text text-anchor="start" x="367" y="-1208.5" font-family="Helvetica,sans-Serif" font-size="10.00">/datastructures/reachability</text>
<text text-anchor="middle" x="433" y="-1197.5" font-family="Helvetica,sans-Serif" font-size="10.00">/StrategyNode.h</text>
</g>
<!-- Node2 -->
<g id="node2" class="node"><title>Node2</title>
<g id="a_node2"><a xlink:href="datastructures_2reachability_2Strategy_8h.html" target="_top" xlink:title="/home/travis/build\l/hypro/hypro/src/hypro\l/datastructures/reachability\l/Strategy.h">
<polygon fill="white" stroke="black" points="112,-1101.5 112,-1153.5 260,-1153.5 260,-1101.5 112,-1101.5"/>
<text text-anchor="start" x="120" y="-1141.5" font-family="Helvetica,sans-Serif" font-size="10.00">/home/travis/build</text>
<text text-anchor="start" x="120" y="-1130.5" font-family="Helvetica,sans-Serif" font-size="10.00">/hypro/hypro/src/hypro</text>
<text text-anchor="start" x="120" y="-1119.5" font-family="Helvetica,sans-Serif" font-size="10.00">/datastructures/reachability</text>
<text text-anchor="middle" x="186" y="-1108.5" font-family="Helvetica,sans-Serif" font-size="10.00">/Strategy.h</text>
</a>
</g>
</g>
<!-- Node1&#45;&gt;Node2 -->
<g id="edge1" class="edge"><title>Node1&#45;&gt;Node2</title>
<path fill="none" stroke="midnightblue" d="M352.081,-1187C321.405,-1176.19 286.735,-1163.98 257.037,-1153.52"/>
<polygon fill="midnightblue" stroke="midnightblue" points="351.294,-1190.43 361.889,-1190.45 353.62,-1183.83 351.294,-1190.43"/>
</g>
<!-- Node7 -->
<g id="node7" class="node"><title>Node7</title>
<g id="a_node7"><a xlink:href="SettingsProvider_8h.html" target="_top" xlink:title="/home/travis/build\l/hypro/hypro/src/hypro\l/datastructures/reachability\l/SettingsProvider.h">
<polygon fill="white" stroke="black" points="359,-1012.5 359,-1064.5 507,-1064.5 507,-1012.5 359,-1012.5"/>
<text text-anchor="start" x="367" y="-1052.5" font-family="Helvetica,sans-Serif" font-size="10.00">/home/travis/build</text>
<text text-anchor="start" x="367" y="-1041.5" font-family="Helvetica,sans-Serif" font-size="10.00">/hypro/hypro/src/hypro</text>
<text text-anchor="start" x="367" y="-1030.5" font-family="Helvetica,sans-Serif" font-size="10.00">/datastructures/reachability</text>
<text text-anchor="middle" x="433" y="-1019.5" font-family="Helvetica,sans-Serif" font-size="10.00">/SettingsProvider.h</text>
</a>
</g>
</g>
<!-- Node1&#45;&gt;Node7 -->
<g id="edge60" class="edge"><title>Node1&#45;&gt;Node7</title>
<path fill="none" stroke="midnightblue" d="M433,-1180.25C433,-1146.04 433,-1094.97 433,-1064.67"/>
<polygon fill="midnightblue" stroke="midnightblue" points="429.5,-1180.28 433,-1190.28 436.5,-1180.28 429.5,-1180.28"/>
</g>
<!-- Node10 -->
<g id="node10" class="node"><title>Node10</title>
<g id="a_node10"><a xlink:href="IWorker_8h.html" target="_top" xlink:title="/home/travis/build\l/hypro/hypro/src/hypro\l/algorithms/reachability\l/workers/IWorker.h">
<polygon fill="white" stroke="black" points="1052,-445.5 1052,-497.5 1180,-497.5 1180,-445.5 1052,-445.5"/>
<text text-anchor="start" x="1060" y="-485.5" font-family="Helvetica,sans-Serif" font-size="10.00">/home/travis/build</text>
<text text-anchor="start" x="1060" y="-474.5" font-family="Helvetica,sans-Serif" font-size="10.00">/hypro/hypro/src/hypro</text>
<text text-anchor="start" x="1060" y="-463.5" font-family="Helvetica,sans-Serif" font-size="10.00">/algorithms/reachability</text>
<text text-anchor="middle" x="1116" y="-452.5" font-family="Helvetica,sans-Serif" font-size="10.00">/workers/IWorker.h</text>
</a>
</g>
</g>
<!-- Node1&#45;&gt;Node10 -->
<g id="edge61" class="edge"><title>Node1&#45;&gt;Node10</title>
<path fill="none" stroke="midnightblue" d="M517.319,-1215.77C732.294,-1214.19 1284,-1194.99 1284,-1039.5 1284,-1039.5 1284,-1039.5 1284,-743 1284,-639.07 1193.4,-541.905 1145.26,-497.619"/>
<polygon fill="midnightblue" stroke="midnightblue" points="517.01,-1212.27 507.032,-1215.83 517.054,-1219.27 517.01,-1212.27"/>
</g>
<!-- Node3 -->
<g id="node3" class="node"><title>Node3</title>
<g id="a_node3"><a xlink:href="ContextFactory_8h.html" target="_top" xlink:title="/home/travis/build\l/hypro/hypro/src/hypro\l/algorithms/reachability\l/contexts/ContextFactory.h">
<polygon fill="white" stroke="black" points="903.5,-178.5 903.5,-230.5 1046.5,-230.5 1046.5,-178.5 903.5,-178.5"/>
<text text-anchor="start" x="911.5" y="-218.5" font-family="Helvetica,sans-Serif" font-size="10.00">/home/travis/build</text>
<text text-anchor="start" x="911.5" y="-207.5" font-family="Helvetica,sans-Serif" font-size="10.00">/hypro/hypro/src/hypro</text>
<text text-anchor="start" x="911.5" y="-196.5" font-family="Helvetica,sans-Serif" font-size="10.00">/algorithms/reachability</text>
<text text-anchor="middle" x="975" y="-185.5" font-family="Helvetica,sans-Serif" font-size="10.00">/contexts/ContextFactory.h</text>
</a>
</g>
</g>
<!-- Node2&#45;&gt;Node3 -->
<g id="edge2" class="edge"><title>Node2&#45;&gt;Node3</title>
<path fill="none" stroke="midnightblue" d="M137.783,-1095.49C94.589,-1063.52 38,-1009.36 38,-945 38,-945 38,-945 38,-843 38,-577.747 147.237,-477.553 383,-356 557.14,-266.218 788.26,-227.64 903.421,-213.121"/>
<polygon fill="midnightblue" stroke="midnightblue" points="135.794,-1098.37 145.949,-1101.39 139.894,-1092.7 135.794,-1098.37"/>
</g>
<!-- Node2&#45;&gt;Node7 -->
<g id="edge6" class="edge"><title>Node2&#45;&gt;Node7</title>
<path fill="none" stroke="midnightblue" d="M266.919,-1098C297.595,-1087.19 332.265,-1074.98 361.963,-1064.52"/>
<polygon fill="midnightblue" stroke="midnightblue" points="265.38,-1094.83 257.111,-1101.45 267.706,-1101.43 265.38,-1094.83"/>
</g>
<!-- Node11 -->
<g id="node11" class="node"><title>Node11</title>
<g id="a_node11"><a xlink:href="LTIContext_8h.html" target="_top" xlink:title="/home/travis/build\l/hypro/hypro/src/hypro\l/algorithms/reachability\l/contexts/LTIContext.h">
<polygon fill="white" stroke="black" points="673,-356.5 673,-408.5 801,-408.5 801,-356.5 673,-356.5"/>
<text text-anchor="start" x="681" y="-396.5" font-family="Helvetica,sans-Serif" font-size="10.00">/home/travis/build</text>
<text text-anchor="start" x="681" y="-385.5" font-family="Helvetica,sans-Serif" font-size="10.00">/hypro/hypro/src/hypro</text>
<text text-anchor="start" x="681" y="-374.5" font-family="Helvetica,sans-Serif" font-size="10.00">/algorithms/reachability</text>
<text text-anchor="middle" x="737" y="-363.5" font-family="Helvetica,sans-Serif" font-size="10.00">/contexts/LTIContext.h</text>
</a>
</g>
</g>
<!-- Node2&#45;&gt;Node11 -->
<g id="edge58" class="edge"><title>Node2&#45;&gt;Node11</title>
<path fill="none" stroke="midnightblue" d="M185.495,-1091.23C185.722,-994.274 197.364,-718.632 315,-534 342.642,-490.615 344.513,-470.83 389,-445 436.222,-417.583 586.02,-398.56 672.919,-389.513"/>
<polygon fill="midnightblue" stroke="midnightblue" points="181.995,-1091.38 185.513,-1101.37 188.995,-1091.37 181.995,-1091.38"/>
</g>
<!-- Node12 -->
<g id="node12" class="node"><title>Node12</title>
<g id="a_node12"><a xlink:href="TimedContext_8h.html" target="_top" xlink:title="/home/travis/build\l/hypro/hypro/src/hypro\l/algorithms/reachability\l/contexts/TimedContext.h">
<polygon fill="white" stroke="black" points="856,-267.5 856,-319.5 996,-319.5 996,-267.5 856,-267.5"/>
<text text-anchor="start" x="864" y="-307.5" font-family="Helvetica,sans-Serif" font-size="10.00">/home/travis/build</text>
<text text-anchor="start" x="864" y="-296.5" font-family="Helvetica,sans-Serif" font-size="10.00">/hypro/hypro/src/hypro</text>
<text text-anchor="start" x="864" y="-285.5" font-family="Helvetica,sans-Serif" font-size="10.00">/algorithms/reachability</text>
<text text-anchor="middle" x="926" y="-274.5" font-family="Helvetica,sans-Serif" font-size="10.00">/contexts/TimedContext.h</text>
</a>
</g>
</g>
<!-- Node2&#45;&gt;Node12 -->
<g id="edge59" class="edge"><title>Node2&#45;&gt;Node12</title>
<path fill="none" stroke="midnightblue" d="M180.189,-1091.23C163.358,-975.297 127.977,-604.384 333,-445 490.441,-322.606 735.907,-298.789 855.6,-294.789"/>
<polygon fill="midnightblue" stroke="midnightblue" points="176.759,-1091.95 181.703,-1101.32 183.682,-1090.91 176.759,-1091.95"/>
</g>
<!-- Node4 -->
<g id="node4" class="node"><title>Node4</title>
<g id="a_node4"><a xlink:href="ContextBasedReachabilityWorker_8h.html" target="_top" xlink:title="/home/travis/build\l/hypro/hypro/src/hypro\l/algorithms/reachability\l/workers/ContextBasedReachability\lWorker.h">
<polygon fill="white" stroke="black" points="958.5,-78.5 958.5,-141.5 1141.5,-141.5 1141.5,-78.5 958.5,-78.5"/>
<text text-anchor="start" x="966.5" y="-129.5" font-family="Helvetica,sans-Serif" font-size="10.00">/home/travis/build</text>
<text text-anchor="start" x="966.5" y="-118.5" font-family="Helvetica,sans-Serif" font-size="10.00">/hypro/hypro/src/hypro</text>
<text text-anchor="start" x="966.5" y="-107.5" font-family="Helvetica,sans-Serif" font-size="10.00">/algorithms/reachability</text>
<text text-anchor="start" x="966.5" y="-96.5" font-family="Helvetica,sans-Serif" font-size="10.00">/workers/ContextBasedReachability</text>
<text text-anchor="middle" x="1050" y="-85.5" font-family="Helvetica,sans-Serif" font-size="10.00">Worker.h</text>
</a>
</g>
</g>
<!-- Node3&#45;&gt;Node4 -->
<g id="edge3" class="edge"><title>Node3&#45;&gt;Node4</title>
<path fill="none" stroke="midnightblue" d="M1001.98,-170.231C1009.57,-160.859 1017.8,-150.714 1025.26,-141.512"/>
<polygon fill="midnightblue" stroke="midnightblue" points="999.073,-168.252 995.494,-178.224 1004.51,-172.661 999.073,-168.252"/>
</g>
<!-- Node5 -->
<g id="node5" class="node"><title>Node5</title>
<g id="a_node5"><a xlink:href="example__rectangularReachability_8cpp.html" target="_top" xlink:title="/home/travis/build\l/hypro/hypro/examples\l/example_rectangularReachability.cpp">
<polygon fill="white" stroke="black" points="92,-0.5 92,-41.5 288,-41.5 288,-0.5 92,-0.5"/>
<text text-anchor="start" x="100" y="-29.5" font-family="Helvetica,sans-Serif" font-size="10.00">/home/travis/build</text>
<text text-anchor="start" x="100" y="-18.5" font-family="Helvetica,sans-Serif" font-size="10.00">/hypro/hypro/examples</text>
<text text-anchor="middle" x="190" y="-7.5" font-family="Helvetica,sans-Serif" font-size="10.00">/example_rectangularReachability.cpp</text>
</a>
</g>
</g>
<!-- Node4&#45;&gt;Node5 -->
<g id="edge4" class="edge"><title>Node4&#45;&gt;Node5</title>
<path fill="none" stroke="midnightblue" d="M948.114,-98.693C781.355,-81.8231 452.294,-48.5343 288.057,-31.9197"/>
<polygon fill="midnightblue" stroke="midnightblue" points="948.071,-102.206 958.372,-99.7307 948.775,-95.2419 948.071,-102.206"/>
</g>
<!-- Node6 -->
<g id="node6" class="node"><title>Node6</title>
<g id="a_node6"><a xlink:href="example__worker_8cpp.html" target="_top" xlink:title="/home/travis/build\l/hypro/hypro/examples\l/example_worker.cpp">
<polygon fill="white" stroke="black" points="987,-0.5 987,-41.5 1113,-41.5 1113,-0.5 987,-0.5"/>
<text text-anchor="start" x="995" y="-29.5" font-family="Helvetica,sans-Serif" font-size="10.00">/home/travis/build</text>
<text text-anchor="start" x="995" y="-18.5" font-family="Helvetica,sans-Serif" font-size="10.00">/hypro/hypro/examples</text>
<text text-anchor="middle" x="1050" y="-7.5" font-family="Helvetica,sans-Serif" font-size="10.00">/example_worker.cpp</text>
</a>
</g>
</g>
<!-- Node4&#45;&gt;Node6 -->
<g id="edge5" class="edge"><title>Node4&#45;&gt;Node6</title>
<path fill="none" stroke="midnightblue" d="M1050,-67.913C1050,-58.7761 1050,-49.4967 1050,-41.6941"/>
<polygon fill="midnightblue" stroke="midnightblue" points="1046.5,-68.0821 1050,-78.0821 1053.5,-68.0821 1046.5,-68.0821"/>
</g>
<!-- Node7&#45;&gt;Node5 -->
<g id="edge56" class="edge"><title>Node7&#45;&gt;Node5</title>
<path fill="none" stroke="midnightblue" d="M349.038,-1016.92C319.122,-1007.29 286.145,-993.916 259,-976 104.703,-874.16 0,-835.376 0,-650.5 0,-650.5 0,-650.5 0,-203.5 0,-142.952 9.93964,-120.566 53,-78 69.4464,-61.7425 91.2616,-49.9947 112.638,-41.5951"/>
<polygon fill="midnightblue" stroke="midnightblue" points="348.043,-1020.27 358.632,-1019.91 350.128,-1013.59 348.043,-1020.27"/>
</g>
<!-- Node7&#45;&gt;Node6 -->
<g id="edge57" class="edge"><title>Node7&#45;&gt;Node6</title>
<path fill="none" stroke="midnightblue" d="M517.424,-1037.42C693.186,-1036.19 1092.4,-1027.62 1217,-976 1296.63,-943.012 1360,-931.192 1360,-845 1360,-845 1360,-845 1360,-203.5 1360,-90.1509 1203.75,-46.2646 1113.11,-30.3423"/>
<polygon fill="midnightblue" stroke="midnightblue" points="517.168,-1033.92 507.19,-1037.48 517.212,-1040.92 517.168,-1033.92"/>
</g>
<!-- Node8 -->
<g id="node8" class="node"><title>Node8</title>
<g id="a_node8"><a xlink:href="ReachTreeNode_8h.html" target="_top" xlink:title="/home/travis/build\l/hypro/hypro/src/hypro\l/datastructures/reachability\l/ReachTreeNode.h">
<polygon fill="white" stroke="black" points="929,-918 929,-970 1077,-970 1077,-918 929,-918"/>
<text text-anchor="start" x="937" y="-958" font-family="Helvetica,sans-Serif" font-size="10.00">/home/travis/build</text>
<text text-anchor="start" x="937" y="-947" font-family="Helvetica,sans-Serif" font-size="10.00">/hypro/hypro/src/hypro</text>
<text text-anchor="start" x="937" y="-936" font-family="Helvetica,sans-Serif" font-size="10.00">/datastructures/reachability</text>
<text text-anchor="middle" x="1003" y="-925" font-family="Helvetica,sans-Serif" font-size="10.00">/ReachTreeNode.h</text>
</a>
</g>
</g>
<!-- Node7&#45;&gt;Node8 -->
<g id="edge7" class="edge"><title>Node7&#45;&gt;Node8</title>
<path fill="none" stroke="midnightblue" d="M517.404,-1023.8C628.726,-1005.74 822.878,-974.23 928.831,-957.036"/>
<polygon fill="midnightblue" stroke="midnightblue" points="516.535,-1020.4 507.225,-1025.45 517.657,-1027.31 516.535,-1020.4"/>
</g>
<!-- Node7&#45;&gt;Node11 -->
<g id="edge38" class="edge"><title>Node7&#45;&gt;Node11</title>
<path fill="none" stroke="midnightblue" d="M371.313,-1007.39C324.597,-980.469 264.855,-935.997 243,-876 214.361,-797.38 293.539,-634.246 299,-623 349.541,-518.909 383.685,-492.939 489,-445 548.45,-417.938 621.56,-401.661 672.947,-392.715"/>
<polygon fill="midnightblue" stroke="midnightblue" points="369.739,-1010.52 380.17,-1012.38 373.173,-1004.42 369.739,-1010.52"/>
</g>
<!-- Node7&#45;&gt;Node12 -->
<g id="edge55" class="edge"><title>Node7&#45;&gt;Node12</title>
<path fill="none" stroke="midnightblue" d="M517.562,-1037.02C739.565,-1033.48 1322,-1008.61 1322,-845 1322,-845 1322,-845 1322,-743 1322,-597.963 1292.85,-546.244 1189,-445 1130.52,-387.988 1046.24,-344.775 988.968,-319.592"/>
<polygon fill="midnightblue" stroke="midnightblue" points="517.214,-1033.52 507.267,-1037.17 517.317,-1040.52 517.214,-1033.52"/>
</g>
<!-- Node19 -->
<g id="node19" class="node"><title>Node19</title>
<g id="a_node19"><a xlink:href="EventTimingProvider_8h.html" target="_top" xlink:title="/home/travis/build\l/hypro/hypro/src/hypro\l/datastructures/reachability\l/timing/EventTimingProvider.h">
<polygon fill="white" stroke="black" points="252,-818 252,-870 410,-870 410,-818 252,-818"/>
<text text-anchor="start" x="260" y="-858" font-family="Helvetica,sans-Serif" font-size="10.00">/home/travis/build</text>
<text text-anchor="start" x="260" y="-847" font-family="Helvetica,sans-Serif" font-size="10.00">/hypro/hypro/src/hypro</text>
<text text-anchor="start" x="260" y="-836" font-family="Helvetica,sans-Serif" font-size="10.00">/datastructures/reachability</text>
<text text-anchor="middle" x="331" y="-825" font-family="Helvetica,sans-Serif" font-size="10.00">/timing/EventTimingProvider.h</text>
</a>
</g>
</g>
<!-- Node7&#45;&gt;Node19 -->
<g id="edge39" class="edge"><title>Node7&#45;&gt;Node19</title>
<path fill="none" stroke="midnightblue" d="M376.776,-1006.17C366.002,-997.717 355.934,-987.628 349,-976 329.483,-943.269 327.709,-897.904 328.873,-870.053"/>
<polygon fill="midnightblue" stroke="midnightblue" points="374.986,-1009.2 385.112,-1012.32 379.14,-1003.57 374.986,-1009.2"/>
</g>
<!-- Node21 -->
<g id="node21" class="node"><title>Node21</title>
<g id="a_node21"><a xlink:href="ltiGuardHandler_8h.html" target="_top" xlink:title="/home/travis/build\l/hypro/hypro/src/hypro\l/algorithms/reachability\l/handlers/guardHandlers\l/ltiGuardHandler.h">
<polygon fill="white" stroke="black" points="526,-912.5 526,-975.5 660,-975.5 660,-912.5 526,-912.5"/>
<text text-anchor="start" x="534" y="-963.5" font-family="Helvetica,sans-Serif" font-size="10.00">/home/travis/build</text>
<text text-anchor="start" x="534" y="-952.5" font-family="Helvetica,sans-Serif" font-size="10.00">/hypro/hypro/src/hypro</text>
<text text-anchor="start" x="534" y="-941.5" font-family="Helvetica,sans-Serif" font-size="10.00">/algorithms/reachability</text>
<text text-anchor="start" x="534" y="-930.5" font-family="Helvetica,sans-Serif" font-size="10.00">/handlers/guardHandlers</text>
<text text-anchor="middle" x="593" y="-919.5" font-family="Helvetica,sans-Serif" font-size="10.00">/ltiGuardHandler.h</text>
</a>
</g>
</g>
<!-- Node7&#45;&gt;Node21 -->
<g id="edge45" class="edge"><title>Node7&#45;&gt;Node21</title>
<path fill="none" stroke="midnightblue" d="M485.263,-1007.29C502.8,-997.147 522.366,-985.835 539.962,-975.663"/>
<polygon fill="midnightblue" stroke="midnightblue" points="483.204,-1004.43 476.298,-1012.47 486.707,-1010.49 483.204,-1004.43"/>
</g>
<!-- Node25 -->
<g id="node25" class="node"><title>Node25</title>
<g id="a_node25"><a xlink:href="rectangularGuardHandler_8h.html" target="_top" xlink:title="/home/travis/build\l/hypro/hypro/src/hypro\l/algorithms/reachability\l/handlers/guardHandlers\l/rectangularGuardHandler.h">
<polygon fill="white" stroke="black" points="358.5,-912.5 358.5,-975.5 507.5,-975.5 507.5,-912.5 358.5,-912.5"/>
<text text-anchor="start" x="366.5" y="-963.5" font-family="Helvetica,sans-Serif" font-size="10.00">/home/travis/build</text>
<text text-anchor="start" x="366.5" y="-952.5" font-family="Helvetica,sans-Serif" font-size="10.00">/hypro/hypro/src/hypro</text>
<text text-anchor="start" x="366.5" y="-941.5" font-family="Helvetica,sans-Serif" font-size="10.00">/algorithms/reachability</text>
<text text-anchor="start" x="366.5" y="-930.5" font-family="Helvetica,sans-Serif" font-size="10.00">/handlers/guardHandlers</text>
<text text-anchor="middle" x="433" y="-919.5" font-family="Helvetica,sans-Serif" font-size="10.00">/rectangularGuardHandler.h</text>
</a>
</g>
</g>
<!-- Node7&#45;&gt;Node25 -->
<g id="edge53" class="edge"><title>Node7&#45;&gt;Node25</title>
<path fill="none" stroke="midnightblue" d="M433,-1001.94C433,-993.226 433,-983.97 433,-975.512"/>
<polygon fill="midnightblue" stroke="midnightblue" points="429.5,-1002.22 433,-1012.22 436.5,-1002.22 429.5,-1002.22"/>
</g>
<!-- Node9 -->
<g id="node9" class="node"><title>Node9</title>
<g id="a_node9"><a xlink:href="Task_8h.html" target="_top" xlink:title="/home/travis/build\l/hypro/hypro/src/hypro\l/datastructures/reachability\l/Task.h">
<polygon fill="white" stroke="black" points="1108,-718 1108,-770 1256,-770 1256,-718 1108,-718"/>
<text text-anchor="start" x="1116" y="-758" font-family="Helvetica,sans-Serif" font-size="10.00">/home/travis/build</text>
<text text-anchor="start" x="1116" y="-747" font-family="Helvetica,sans-Serif" font-size="10.00">/hypro/hypro/src/hypro</text>
<text text-anchor="start" x="1116" y="-736" font-family="Helvetica,sans-Serif" font-size="10.00">/datastructures/reachability</text>
<text text-anchor="middle" x="1182" y="-725" font-family="Helvetica,sans-Serif" font-size="10.00">/Task.h</text>
</a>
</g>
</g>
<!-- Node8&#45;&gt;Node9 -->
<g id="edge8" class="edge"><title>Node8&#45;&gt;Node9</title>
<path fill="none" stroke="midnightblue" d="M1032.45,-910.423C1067.99,-871.109 1126.99,-805.853 1159.23,-770.185"/>
<polygon fill="midnightblue" stroke="midnightblue" points="1029.78,-908.158 1025.67,-917.923 1034.97,-912.852 1029.78,-908.158"/>
</g>
<!-- Node13 -->
<g id="node13" class="node"><title>Node13</title>
<g id="a_node13"><a xlink:href="ltiJumpHandler_8h.html" target="_top" xlink:title="/home/travis/build\l/hypro/hypro/src/hypro\l/algorithms/reachability\l/handlers/jumpHandlers/ltiJumpHandler.h">
<polygon fill="white" stroke="black" points="632,-623.5 632,-675.5 844,-675.5 844,-623.5 632,-623.5"/>
<text text-anchor="start" x="640" y="-663.5" font-family="Helvetica,sans-Serif" font-size="10.00">/home/travis/build</text>
<text text-anchor="start" x="640" y="-652.5" font-family="Helvetica,sans-Serif" font-size="10.00">/hypro/hypro/src/hypro</text>
<text text-anchor="start" x="640" y="-641.5" font-family="Helvetica,sans-Serif" font-size="10.00">/algorithms/reachability</text>
<text text-anchor="middle" x="738" y="-630.5" font-family="Helvetica,sans-Serif" font-size="10.00">/handlers/jumpHandlers/ltiJumpHandler.h</text>
</a>
</g>
</g>
<!-- Node8&#45;&gt;Node13 -->
<g id="edge35" class="edge"><title>Node8&#45;&gt;Node13</title>
<path fill="none" stroke="midnightblue" d="M1009.88,-907.54C1013.36,-879.328 1013.55,-840.063 995,-812 975.272,-782.154 949.194,-800.369 923,-776 898.78,-753.468 909.966,-733.703 885,-712 867.254,-696.573 845.086,-684.61 823.39,-675.512"/>
<polygon fill="midnightblue" stroke="midnightblue" points="1006.37,-907.371 1008.42,-917.765 1013.3,-908.362 1006.37,-907.371"/>
</g>
<!-- Node16 -->
<g id="node16" class="node"><title>Node16</title>
<g id="a_node16"><a xlink:href="ReachTree_8h.html" target="_top" xlink:title="/home/travis/build\l/hypro/hypro/src/hypro\l/datastructures/reachability\l/ReachTree.h">
<polygon fill="white" stroke="black" points="808,-818 808,-870 956,-870 956,-818 808,-818"/>
<text text-anchor="start" x="816" y="-858" font-family="Helvetica,sans-Serif" font-size="10.00">/home/travis/build</text>
<text text-anchor="start" x="816" y="-847" font-family="Helvetica,sans-Serif" font-size="10.00">/hypro/hypro/src/hypro</text>
<text text-anchor="start" x="816" y="-836" font-family="Helvetica,sans-Serif" font-size="10.00">/datastructures/reachability</text>
<text text-anchor="middle" x="882" y="-825" font-family="Helvetica,sans-Serif" font-size="10.00">/ReachTree.h</text>
</a>
</g>
</g>
<!-- Node8&#45;&gt;Node16 -->
<g id="edge29" class="edge"><title>Node8&#45;&gt;Node16</title>
<path fill="none" stroke="midnightblue" d="M963.97,-911.389C947.489,-898.041 928.565,-882.714 913.055,-870.152"/>
<polygon fill="midnightblue" stroke="midnightblue" points="961.866,-914.189 971.839,-917.763 966.271,-908.749 961.866,-914.189"/>
</g>
<!-- Node17 -->
<g id="node17" class="node"><title>Node17</title>
<g id="a_node17"><a xlink:href="NodeManager_8h.html" target="_top" xlink:title="/home/travis/build\l/hypro/hypro/src/hypro\l/datastructures/reachability\l/NodeManager.h">
<polygon fill="white" stroke="black" points="728,-718 728,-770 876,-770 876,-718 728,-718"/>
<text text-anchor="start" x="736" y="-758" font-family="Helvetica,sans-Serif" font-size="10.00">/home/travis/build</text>
<text text-anchor="start" x="736" y="-747" font-family="Helvetica,sans-Serif" font-size="10.00">/hypro/hypro/src/hypro</text>
<text text-anchor="start" x="736" y="-736" font-family="Helvetica,sans-Serif" font-size="10.00">/datastructures/reachability</text>
<text text-anchor="middle" x="802" y="-725" font-family="Helvetica,sans-Serif" font-size="10.00">/NodeManager.h</text>
</a>
</g>
</g>
<!-- Node8&#45;&gt;Node17 -->
<g id="edge34" class="edge"><title>Node8&#45;&gt;Node17</title>
<path fill="none" stroke="midnightblue" d="M1001.06,-907.856C997.705,-878.902 988.74,-838.444 965,-812 958.025,-804.231 912.146,-785.698 870.834,-770.089"/>
<polygon fill="midnightblue" stroke="midnightblue" points="997.591,-908.349 1002.06,-917.956 1004.56,-907.66 997.591,-908.349"/>
</g>
<!-- Node18 -->
<g id="node18" class="node"><title>Node18</title>
<g id="a_node18"><a xlink:href="algorithms_2reachability_2handlers_2jumpHandlers_2util_8h.html" target="_top" xlink:title="/home/travis/build\l/hypro/hypro/src/hypro\l/algorithms/reachability\l/handlers/jumpHandlers/util.h">
<polygon fill="white" stroke="black" points="932.5,-718 932.5,-770 1089.5,-770 1089.5,-718 932.5,-718"/>
<text text-anchor="start" x="940.5" y="-758" font-family="Helvetica,sans-Serif" font-size="10.00">/home/travis/build</text>
<text text-anchor="start" x="940.5" y="-747" font-family="Helvetica,sans-Serif" font-size="10.00">/hypro/hypro/src/hypro</text>
<text text-anchor="start" x="940.5" y="-736" font-family="Helvetica,sans-Serif" font-size="10.00">/algorithms/reachability</text>
<text text-anchor="middle" x="1011" y="-725" font-family="Helvetica,sans-Serif" font-size="10.00">/handlers/jumpHandlers/util.h</text>
</a>
</g>
</g>
<!-- Node8&#45;&gt;Node18 -->
<g id="edge36" class="edge"><title>Node8&#45;&gt;Node18</title>
<path fill="none" stroke="midnightblue" d="M1023.5,-908.947C1028.62,-898.713 1033.39,-887.216 1036,-876 1042.45,-848.297 1041.05,-839.992 1036,-812 1033.42,-797.705 1027.98,-782.482 1022.83,-770.165"/>
<polygon fill="midnightblue" stroke="midnightblue" points="1020.32,-907.468 1018.75,-917.946 1026.51,-910.733 1020.32,-907.468"/>
</g>
<!-- Node9&#45;&gt;Node3 -->
<g id="edge9" class="edge"><title>Node9&#45;&gt;Node3</title>
<path fill="none" stroke="midnightblue" d="M1129.58,-712.12C1083.59,-680.641 1024,-627.18 1024,-561.5 1024,-561.5 1024,-561.5 1024,-381.5 1024,-329.915 1020.69,-316.139 1005,-267 1001.02,-254.552 994.926,-241.446 989.264,-230.547"/>
<polygon fill="midnightblue" stroke="midnightblue" points="1127.73,-715.094 1137.99,-717.74 1131.62,-709.274 1127.73,-715.094"/>
</g>
<!-- Node9&#45;&gt;Node4 -->
<g id="edge26" class="edge"><title>Node9&#45;&gt;Node4</title>
<path fill="none" stroke="midnightblue" d="M1190.07,-707.806C1197.7,-671.395 1208,-612.781 1208,-561.5 1208,-561.5 1208,-561.5 1208,-292.5 1208,-226.701 1148.19,-173.165 1102.17,-141.709"/>
<polygon fill="midnightblue" stroke="midnightblue" points="1186.58,-707.399 1187.9,-717.911 1193.42,-708.869 1186.58,-707.399"/>
</g>
<!-- Node9&#45;&gt;Node5 -->
<g id="edge27" class="edge"><title>Node9&#45;&gt;Node5</title>
<path fill="none" stroke="midnightblue" d="M1106.45,-714.713C1103.61,-713.776 1100.78,-712.869 1098,-712 1036.67,-692.853 1007.36,-717.125 958,-676 837.613,-575.697 917.375,-470.125 810,-356 648.304,-184.139 378.023,-81.575 254.787,-41.5026"/>
<polygon fill="midnightblue" stroke="midnightblue" points="1105.59,-718.116 1116.19,-717.992 1107.83,-711.482 1105.59,-718.116"/>
</g>
<!-- Node9&#45;&gt;Node6 -->
<g id="edge28" class="edge"><title>Node9&#45;&gt;Node6</title>
<path fill="none" stroke="midnightblue" d="M1201.86,-708.86C1220.65,-673.287 1246,-615.328 1246,-561.5 1246,-561.5 1246,-561.5 1246,-203.5 1246,-123.268 1156.49,-68.5873 1098.45,-41.5639"/>
<polygon fill="midnightblue" stroke="midnightblue" points="1198.68,-707.38 1197.01,-717.841 1204.84,-710.71 1198.68,-707.38"/>
</g>
<!-- Node9&#45;&gt;Node10 -->
<g id="edge10" class="edge"><title>Node9&#45;&gt;Node10</title>
<path fill="none" stroke="midnightblue" d="M1173.42,-707.823C1159.9,-652.412 1133.97,-546.132 1122.14,-497.683"/>
<polygon fill="midnightblue" stroke="midnightblue" points="1170.02,-708.667 1175.79,-717.552 1176.82,-707.007 1170.02,-708.667"/>
</g>
<!-- Node9&#45;&gt;Node11 -->
<g id="edge18" class="edge"><title>Node9&#45;&gt;Node11</title>
<path fill="none" stroke="midnightblue" d="M1108.11,-714.916C1104.71,-713.881 1101.33,-712.903 1098,-712 1009.99,-688.12 965.227,-735.361 896,-676 813.631,-605.37 880.262,-533.154 817,-445 806.888,-430.909 792.633,-418.52 778.952,-408.622"/>
<polygon fill="midnightblue" stroke="midnightblue" points="1107.12,-718.275 1117.71,-717.965 1109.24,-711.604 1107.12,-718.275"/>
</g>
<!-- Node9&#45;&gt;Node12 -->
<g id="edge25" class="edge"><title>Node9&#45;&gt;Node12</title>
<path fill="none" stroke="midnightblue" d="M1104.94,-714.331C1061.07,-697.785 1014.03,-679.556 1010,-676 966.607,-637.711 948,-619.37 948,-561.5 948,-561.5 948,-561.5 948,-470.5 948,-416.458 937.661,-353.797 931.158,-319.733"/>
<polygon fill="midnightblue" stroke="midnightblue" points="1103.93,-717.693 1114.52,-717.94 1106.4,-711.141 1103.93,-717.693"/>
</g>
<!-- Node9&#45;&gt;Node13 -->
<g id="edge19" class="edge"><title>Node9&#45;&gt;Node13</title>
<path fill="none" stroke="midnightblue" d="M1108.37,-714.872C1104.89,-713.841 1101.42,-712.877 1098,-712 993.526,-685.188 964.134,-695.219 858,-676 853.494,-675.184 848.899,-674.325 844.26,-673.437"/>
<polygon fill="midnightblue" stroke="midnightblue" points="1107.63,-718.306 1118.22,-717.931 1109.71,-711.622 1107.63,-718.306"/>
</g>
<!-- Node10&#45;&gt;Node3 -->
<g id="edge11" class="edge"><title>Node10&#45;&gt;Node3</title>
<path fill="none" stroke="midnightblue" d="M1107.56,-435.561C1096.26,-393.225 1073.44,-320.882 1038,-267 1029.27,-253.718 1017.23,-241.078 1006.02,-230.75"/>
<polygon fill="midnightblue" stroke="midnightblue" points="1104.21,-436.598 1110.12,-445.393 1110.99,-434.834 1104.21,-436.598"/>
</g>
<!-- Node10&#45;&gt;Node4 -->
<g id="edge17" class="edge"><title>Node10&#45;&gt;Node4</title>
<path fill="none" stroke="midnightblue" d="M1113.75,-435.179C1112.03,-412.472 1109.21,-382.387 1105,-356 1092.56,-278.083 1070.22,-187.871 1058.19,-141.701"/>
<polygon fill="midnightblue" stroke="midnightblue" points="1110.28,-435.649 1114.49,-445.369 1117.26,-435.142 1110.28,-435.649"/>
</g>
<!-- Node10&#45;&gt;Node11 -->
<g id="edge12" class="edge"><title>Node10&#45;&gt;Node11</title>
<path fill="none" stroke="midnightblue" d="M1041.63,-453.428C971.61,-437.355 867.817,-413.529 801.291,-398.258"/>
<polygon fill="midnightblue" stroke="midnightblue" points="1041.18,-456.916 1051.71,-455.742 1042.74,-450.093 1041.18,-456.916"/>
</g>
<!-- Node10&#45;&gt;Node12 -->
<g id="edge16" class="edge"><title>Node10&#45;&gt;Node12</title>
<path fill="none" stroke="midnightblue" d="M1081.24,-438.299C1044.36,-404.138 986.869,-350.884 953.172,-319.67"/>
<polygon fill="midnightblue" stroke="midnightblue" points="1079.06,-441.056 1088.78,-445.283 1083.82,-435.92 1079.06,-441.056"/>
</g>
<!-- Node11&#45;&gt;Node3 -->
<g id="edge13" class="edge"><title>Node11&#45;&gt;Node3</title>
<path fill="none" stroke="midnightblue" d="M763.387,-348.167C784.169,-323.482 814.904,-290.238 847,-267 866.67,-252.758 890.153,-240.371 911.603,-230.52"/>
<polygon fill="midnightblue" stroke="midnightblue" points="760.427,-346.253 756.734,-356.183 765.813,-350.724 760.427,-346.253"/>
</g>
<!-- Node11&#45;&gt;Node12 -->
<g id="edge14" class="edge"><title>Node11&#45;&gt;Node12</title>
<path fill="none" stroke="midnightblue" d="M800.753,-352.153C823.766,-341.56 849.51,-329.71 871.644,-319.521"/>
<polygon fill="midnightblue" stroke="midnightblue" points="799.033,-349.092 791.413,-356.453 801.96,-355.451 799.033,-349.092"/>
</g>
<!-- Node12&#45;&gt;Node3 -->
<g id="edge15" class="edge"><title>Node12&#45;&gt;Node3</title>
<path fill="none" stroke="midnightblue" d="M945.234,-258.35C950.443,-249.1 955.986,-239.259 960.859,-230.607"/>
<polygon fill="midnightblue" stroke="midnightblue" points="942.031,-256.905 940.173,-267.336 948.13,-260.34 942.031,-256.905"/>
</g>
<!-- Node14 -->
<g id="node14" class="node"><title>Node14</title>
<g id="a_node14"><a xlink:href="JumpHandlers_8h.html" target="_top" xlink:title="/home/travis/build\l/hypro/hypro/src/hypro\l/algorithms/reachability\l/handlers/jumpHandlers/JumpHandlers.h">
<polygon fill="white" stroke="black" points="596.5,-534.5 596.5,-586.5 805.5,-586.5 805.5,-534.5 596.5,-534.5"/>
<text text-anchor="start" x="604.5" y="-574.5" font-family="Helvetica,sans-Serif" font-size="10.00">/home/travis/build</text>
<text text-anchor="start" x="604.5" y="-563.5" font-family="Helvetica,sans-Serif" font-size="10.00">/hypro/hypro/src/hypro</text>
<text text-anchor="start" x="604.5" y="-552.5" font-family="Helvetica,sans-Serif" font-size="10.00">/algorithms/reachability</text>
<text text-anchor="middle" x="701" y="-541.5" font-family="Helvetica,sans-Serif" font-size="10.00">/handlers/jumpHandlers/JumpHandlers.h</text>
</a>
</g>
</g>
<!-- Node13&#45;&gt;Node14 -->
<g id="edge20" class="edge"><title>Node13&#45;&gt;Node14</title>
<path fill="none" stroke="midnightblue" d="M723.353,-614.061C719.456,-604.896 715.319,-595.169 711.678,-586.607"/>
<polygon fill="midnightblue" stroke="midnightblue" points="720.164,-615.503 727.298,-623.336 726.605,-612.764 720.164,-615.503"/>
</g>
<!-- Node15 -->
<g id="node15" class="node"><title>Node15</title>
<g id="a_node15"><a xlink:href="HandlerFactory_8h.html" target="_top" xlink:title="/home/travis/build\l/hypro/hypro/src/hypro\l/algorithms/reachability\l/handlers/HandlerFactory.h">
<polygon fill="white" stroke="black" points="665.5,-445.5 665.5,-497.5 808.5,-497.5 808.5,-445.5 665.5,-445.5"/>
<text text-anchor="start" x="673.5" y="-485.5" font-family="Helvetica,sans-Serif" font-size="10.00">/home/travis/build</text>
<text text-anchor="start" x="673.5" y="-474.5" font-family="Helvetica,sans-Serif" font-size="10.00">/hypro/hypro/src/hypro</text>
<text text-anchor="start" x="673.5" y="-463.5" font-family="Helvetica,sans-Serif" font-size="10.00">/algorithms/reachability</text>
<text text-anchor="middle" x="737" y="-452.5" font-family="Helvetica,sans-Serif" font-size="10.00">/handlers/HandlerFactory.h</text>
</a>
</g>
</g>
<!-- Node14&#45;&gt;Node15 -->
<g id="edge21" class="edge"><title>Node14&#45;&gt;Node15</title>
<path fill="none" stroke="midnightblue" d="M715.251,-525.061C719.043,-515.896 723.068,-506.169 726.611,-497.607"/>
<polygon fill="midnightblue" stroke="midnightblue" points="712.002,-523.758 711.413,-534.336 718.47,-526.434 712.002,-523.758"/>
</g>
<!-- Node15&#45;&gt;Node11 -->
<g id="edge22" class="edge"><title>Node15&#45;&gt;Node11</title>
<path fill="none" stroke="midnightblue" d="M737,-435.191C737,-426.282 737,-416.899 737,-408.607"/>
<polygon fill="midnightblue" stroke="midnightblue" points="733.5,-435.336 737,-445.336 740.5,-435.336 733.5,-435.336"/>
</g>
<!-- Node15&#45;&gt;Node12 -->
<g id="edge24" class="edge"><title>Node15&#45;&gt;Node12</title>
<path fill="none" stroke="midnightblue" d="M775.937,-438.667C787.092,-429.287 799.163,-418.885 810,-409 842.614,-379.251 878.555,-343.24 901.657,-319.646"/>
<polygon fill="midnightblue" stroke="midnightblue" points="773.436,-436.195 768.007,-445.293 777.925,-441.567 773.436,-436.195"/>
</g>
<!-- Node15&#45;&gt;Node13 -->
<g id="edge23" class="edge"><title>Node15&#45;&gt;Node13</title>
<path fill="none" stroke="midnightblue" d="M790.028,-504.197C799.721,-512.593 808.498,-522.565 814,-534 824.212,-555.227 824.145,-565.741 814,-587 807.056,-601.553 794.799,-613.774 782.13,-623.39"/>
<polygon fill="midnightblue" stroke="midnightblue" points="792.083,-501.359 782.103,-497.804 787.688,-506.807 792.083,-501.359"/>
</g>
<!-- Node16&#45;&gt;Node5 -->
<g id="edge32" class="edge"><title>Node16&#45;&gt;Node5</title>
<path fill="none" stroke="midnightblue" d="M806.37,-814.492C803.888,-813.64 801.427,-812.807 799,-812 744.951,-794.023 719.94,-812.245 676,-776 651.312,-755.636 667.123,-733.03 643,-712 606.763,-680.409 585.12,-695.092 541,-676 462.007,-641.817 433.498,-643.995 369,-587 311.759,-536.417 190,-318.131 190,-294.5 190,-294.5 190,-294.5 190,-203.5 190,-144.576 190,-74.8904 190,-41.6065"/>
<polygon fill="midnightblue" stroke="midnightblue" points="805.415,-817.866 816.01,-817.86 807.723,-811.258 805.415,-817.866"/>
</g>
<!-- Node16&#45;&gt;Node6 -->
<g id="edge33" class="edge"><title>Node16&#45;&gt;Node6</title>
<path fill="none" stroke="midnightblue" d="M805.897,-814.029C767.131,-798.857 726.566,-782.176 719,-776 692.453,-754.33 700.17,-736.293 676,-712 655.916,-691.814 645.331,-693.669 623,-676 472.152,-556.644 304,-575.856 304,-383.5 304,-383.5 304,-383.5 304,-203.5 304,-63.4601 806.591,-31.0308 986.718,-23.9053"/>
<polygon fill="midnightblue" stroke="midnightblue" points="805.104,-817.477 815.693,-817.847 807.646,-810.954 805.104,-817.477"/>
</g>
<!-- Node16&#45;&gt;Node17 -->
<g id="edge30" class="edge"><title>Node16&#45;&gt;Node17</title>
<path fill="none" stroke="midnightblue" d="M855,-809.925C844.391,-796.93 832.414,-782.257 822.532,-770.152"/>
<polygon fill="midnightblue" stroke="midnightblue" points="852.363,-812.229 861.398,-817.763 857.786,-807.803 852.363,-812.229"/>
</g>
<!-- Node17&#45;&gt;Node13 -->
<g id="edge31" class="edge"><title>Node17&#45;&gt;Node13</title>
<path fill="none" stroke="midnightblue" d="M778.799,-709.468C771.099,-698.338 762.661,-686.143 755.467,-675.745"/>
<polygon fill="midnightblue" stroke="midnightblue" points="775.944,-711.492 784.512,-717.724 781.7,-707.509 775.944,-711.492"/>
</g>
<!-- Node18&#45;&gt;Node13 -->
<g id="edge37" class="edge"><title>Node18&#45;&gt;Node13</title>
<path fill="none" stroke="midnightblue" d="M927.398,-714.673C890.544,-702.186 847.604,-687.637 811.937,-675.552"/>
<polygon fill="midnightblue" stroke="midnightblue" points="926.528,-718.074 937.122,-717.968 928.774,-711.444 926.528,-718.074"/>
</g>
<!-- Node19&#45;&gt;Node5 -->
<g id="edge43" class="edge"><title>Node19&#45;&gt;Node5</title>
<path fill="none" stroke="midnightblue" d="M241.784,-827.784C206.111,-817.966 166.757,-801.961 138,-776 59.9247,-705.516 38,-666.684 38,-561.5 38,-561.5 38,-561.5 38,-203.5 38,-130.135 111.899,-70.8382 156.643,-41.6597"/>
<polygon fill="midnightblue" stroke="midnightblue" points="241.175,-831.243 251.736,-830.393 242.95,-824.472 241.175,-831.243"/>
</g>
<!-- Node19&#45;&gt;Node6 -->
<g id="edge44" class="edge"><title>Node19&#45;&gt;Node6</title>
<path fill="none" stroke="midnightblue" d="M273.984,-812.661C221.585,-780.184 152,-723.342 152,-650.5 152,-650.5 152,-650.5 152,-559.5 152,-444.633 244.74,-142.187 340,-78 392.969,-42.3092 822.967,-27.751 986.865,-23.4629"/>
<polygon fill="midnightblue" stroke="midnightblue" points="272.194,-815.669 282.56,-817.857 275.821,-809.682 272.194,-815.669"/>
</g>
<!-- Node19&#45;&gt;Node11 -->
<g id="edge40" class="edge"><title>Node19&#45;&gt;Node11</title>
<path fill="none" stroke="midnightblue" d="M302.391,-809.727C295.307,-799.556 288.691,-787.897 285,-776 276.572,-748.833 273.442,-737.99 285,-712 356.988,-550.116 430.399,-538.317 581,-445 609.335,-427.443 643.53,-413.288 672.676,-403.005"/>
<polygon fill="midnightblue" stroke="midnightblue" points="299.653,-811.911 308.398,-817.893 305.292,-807.764 299.653,-811.911"/>
</g>
<!-- Node20 -->
<g id="node20" class="node"><title>Node20</title>
<g id="a_node20"><a xlink:href="timingUtil_8h.html" target="_top" xlink:title="/home/travis/build\l/hypro/hypro/src/hypro\l/algorithms/reachability\l/handlers/jumpHandlers/timingUtil.h">
<polygon fill="white" stroke="black" points="294,-718 294,-770 482,-770 482,-718 294,-718"/>
<text text-anchor="start" x="302" y="-758" font-family="Helvetica,sans-Serif" font-size="10.00">/home/travis/build</text>
<text text-anchor="start" x="302" y="-747" font-family="Helvetica,sans-Serif" font-size="10.00">/hypro/hypro/src/hypro</text>
<text text-anchor="start" x="302" y="-736" font-family="Helvetica,sans-Serif" font-size="10.00">/algorithms/reachability</text>
<text text-anchor="middle" x="388" y="-725" font-family="Helvetica,sans-Serif" font-size="10.00">/handlers/jumpHandlers/timingUtil.h</text>
</a>
</g>
</g>
<!-- Node19&#45;&gt;Node20 -->
<g id="edge41" class="edge"><title>Node19&#45;&gt;Node20</title>
<path fill="none" stroke="midnightblue" d="M350.881,-808.818C358.278,-796.101 366.529,-781.914 373.371,-770.152"/>
<polygon fill="midnightblue" stroke="midnightblue" points="347.681,-807.359 345.679,-817.763 353.732,-810.878 347.681,-807.359"/>
</g>
<!-- Node20&#45;&gt;Node13 -->
<g id="edge42" class="edge"><title>Node20&#45;&gt;Node13</title>
<path fill="none" stroke="midnightblue" d="M479.597,-715.184C483.445,-714.094 487.258,-713.028 491,-712 537.233,-699.295 588.646,-686.312 632.542,-675.569"/>
<polygon fill="midnightblue" stroke="midnightblue" points="478.63,-711.82 469.98,-717.937 480.557,-718.55 478.63,-711.82"/>
</g>
<!-- Node22 -->
<g id="node22" class="node"><title>Node22</title>
<g id="a_node22"><a xlink:href="discreteGuardHandler_8h.html" target="_top" xlink:title="/home/travis/build\l/hypro/hypro/src/hypro\l/algorithms/reachability\l/handlers/guardHandlers\l/discreteGuardHandler.h">
<polygon fill="white" stroke="black" points="504,-812.5 504,-875.5 638,-875.5 638,-812.5 504,-812.5"/>
<text text-anchor="start" x="512" y="-863.5" font-family="Helvetica,sans-Serif" font-size="10.00">/home/travis/build</text>
<text text-anchor="start" x="512" y="-852.5" font-family="Helvetica,sans-Serif" font-size="10.00">/hypro/hypro/src/hypro</text>
<text text-anchor="start" x="512" y="-841.5" font-family="Helvetica,sans-Serif" font-size="10.00">/algorithms/reachability</text>
<text text-anchor="start" x="512" y="-830.5" font-family="Helvetica,sans-Serif" font-size="10.00">/handlers/guardHandlers</text>
<text text-anchor="middle" x="571" y="-819.5" font-family="Helvetica,sans-Serif" font-size="10.00">/discreteGuardHandler.h</text>
</a>
</g>
</g>
<!-- Node21&#45;&gt;Node22 -->
<g id="edge46" class="edge"><title>Node21&#45;&gt;Node22</title>
<path fill="none" stroke="midnightblue" d="M583.883,-902.387C581.874,-893.439 579.779,-884.106 577.876,-875.63"/>
<polygon fill="midnightblue" stroke="midnightblue" points="580.494,-903.271 586.099,-912.261 587.324,-901.737 580.494,-903.271"/>
</g>
<!-- Node23 -->
<g id="node23" class="node"><title>Node23</title>
<g id="a_node23"><a xlink:href="GuardHandlers_8h.html" target="_top" xlink:title="/home/travis/build\l/hypro/hypro/src/hypro\l/algorithms/reachability\l/handlers/guardHandlers\l/GuardHandlers.h">
<polygon fill="white" stroke="black" points="500,-712.5 500,-775.5 634,-775.5 634,-712.5 500,-712.5"/>
<text text-anchor="start" x="508" y="-763.5" font-family="Helvetica,sans-Serif" font-size="10.00">/home/travis/build</text>
<text text-anchor="start" x="508" y="-752.5" font-family="Helvetica,sans-Serif" font-size="10.00">/hypro/hypro/src/hypro</text>
<text text-anchor="start" x="508" y="-741.5" font-family="Helvetica,sans-Serif" font-size="10.00">/algorithms/reachability</text>
<text text-anchor="start" x="508" y="-730.5" font-family="Helvetica,sans-Serif" font-size="10.00">/handlers/guardHandlers</text>
<text text-anchor="middle" x="567" y="-719.5" font-family="Helvetica,sans-Serif" font-size="10.00">/GuardHandlers.h</text>
</a>
</g>
</g>
<!-- Node21&#45;&gt;Node23 -->
<g id="edge50" class="edge"><title>Node21&#45;&gt;Node23</title>
<path fill="none" stroke="midnightblue" d="M520.773,-906.214C510.402,-897.733 501.17,-887.693 495,-876 481.725,-850.843 483.644,-838.079 495,-812 501.067,-798.067 511.618,-785.724 522.801,-775.549"/>
<polygon fill="midnightblue" stroke="midnightblue" points="518.817,-909.124 528.894,-912.397 523.058,-903.554 518.817,-909.124"/>
</g>
<!-- Node24 -->
<g id="node24" class="node"><title>Node24</title>
<g id="a_node24"><a xlink:href="timedGuardHandler_8h.html" target="_top" xlink:title="/home/travis/build\l/hypro/hypro/src/hypro\l/algorithms/reachability\l/handlers/guardHandlers\l/timedGuardHandler.h">
<polygon fill="white" stroke="black" points="656,-812.5 656,-875.5 790,-875.5 790,-812.5 656,-812.5"/>
<text text-anchor="start" x="664" y="-863.5" font-family="Helvetica,sans-Serif" font-size="10.00">/home/travis/build</text>
<text text-anchor="start" x="664" y="-852.5" font-family="Helvetica,sans-Serif" font-size="10.00">/hypro/hypro/src/hypro</text>
<text text-anchor="start" x="664" y="-841.5" font-family="Helvetica,sans-Serif" font-size="10.00">/algorithms/reachability</text>
<text text-anchor="start" x="664" y="-830.5" font-family="Helvetica,sans-Serif" font-size="10.00">/handlers/guardHandlers</text>
<text text-anchor="middle" x="723" y="-819.5" font-family="Helvetica,sans-Serif" font-size="10.00">/timedGuardHandler.h</text>
</a>
</g>
</g>
<!-- Node21&#45;&gt;Node24 -->
<g id="edge51" class="edge"><title>Node21&#45;&gt;Node24</title>
<path fill="none" stroke="midnightblue" d="M641.93,-906.114C655.261,-896.065 669.553,-885.29 682.369,-875.63"/>
<polygon fill="midnightblue" stroke="midnightblue" points="639.654,-903.447 633.776,-912.261 643.868,-909.036 639.654,-903.447"/>
</g>
<!-- Node22&#45;&gt;Node23 -->
<g id="edge47" class="edge"><title>Node22&#45;&gt;Node23</title>
<path fill="none" stroke="midnightblue" d="M569.331,-802.099C568.969,-793.238 568.592,-784.015 568.25,-775.63"/>
<polygon fill="midnightblue" stroke="midnightblue" points="565.84,-802.412 569.745,-812.261 572.835,-802.127 565.84,-802.412"/>
</g>
<!-- Node23&#45;&gt;Node11 -->
<g id="edge49" class="edge"><title>Node23&#45;&gt;Node11</title>
<path fill="none" stroke="midnightblue" d="M554.902,-702.67C544.096,-658.768 533.65,-587.664 560,-534 587.734,-477.518 647.394,-433.987 689.771,-408.597"/>
<polygon fill="midnightblue" stroke="midnightblue" points="551.529,-703.605 557.417,-712.413 558.307,-701.856 551.529,-703.605"/>
</g>
<!-- Node23&#45;&gt;Node15 -->
<g id="edge48" class="edge"><title>Node23&#45;&gt;Node15</title>
<path fill="none" stroke="midnightblue" d="M559.363,-702.118C553.248,-656.508 550.821,-582.74 587,-534 605.705,-508.801 636.571,-493.886 665.457,-485.077"/>
<polygon fill="midnightblue" stroke="midnightblue" points="555.933,-702.85 560.843,-712.239 562.86,-701.837 555.933,-702.85"/>
</g>
<!-- Node24&#45;&gt;Node23 -->
<g id="edge52" class="edge"><title>Node24&#45;&gt;Node23</title>
<path fill="none" stroke="midnightblue" d="M665.188,-806.682C648.935,-796.472 631.426,-785.473 615.758,-775.63"/>
<polygon fill="midnightblue" stroke="midnightblue" points="663.739,-809.905 674.069,-812.261 667.463,-803.978 663.739,-809.905"/>
</g>
<!-- Node25&#45;&gt;Node23 -->
<g id="edge54" class="edge"><title>Node25&#45;&gt;Node23</title>
<path fill="none" stroke="midnightblue" d="M441.961,-902.704C449.456,-875.274 462.172,-839.161 482,-812 491.971,-798.341 505.437,-786.005 518.708,-775.75"/>
<polygon fill="midnightblue" stroke="midnightblue" points="438.573,-901.824 439.432,-912.384 445.346,-903.593 438.573,-901.824"/>
</g>
</g>
</svg>
