<?xml version="1.0" encoding="UTF-8" standalone="no"?>
<!DOCTYPE svg PUBLIC "-//W3C//DTD SVG 1.1//EN"
 "http://www.w3.org/Graphics/SVG/1.1/DTD/svg11.dtd">
<!-- Generated by graphviz version 2.38.0 (20140413.2041)
 -->
<!-- Title: /home/travis/build/hypro/hypro/src/hypro/datastructures/reachability/Task.h Pages: 1 -->
<svg width="564pt" height="773pt"
 viewBox="0.00 0.00 564.00 773.00" xmlns="http://www.w3.org/2000/svg" xmlns:xlink="http://www.w3.org/1999/xlink">
<g id="graph0" class="graph" transform="scale(1 1) rotate(0) translate(4 769)">
<title>/home/travis/build/hypro/hypro/src/hypro/datastructures/reachability/Task.h</title>
<polygon fill="white" stroke="none" points="-4,4 -4,-769 560,-769 560,4 -4,4"/>
<!-- Node1 -->
<g id="node1" class="node"><title>Node1</title>
<polygon fill="#bfbfbf" stroke="black" points="120,-712.5 120,-764.5 268,-764.5 268,-712.5 120,-712.5"/>
<text text-anchor="start" x="128" y="-752.5" font-family="Helvetica,sans-Serif" font-size="10.00">/home/travis/build</text>
<text text-anchor="start" x="128" y="-741.5" font-family="Helvetica,sans-Serif" font-size="10.00">/hypro/hypro/src/hypro</text>
<text text-anchor="start" x="128" y="-730.5" font-family="Helvetica,sans-Serif" font-size="10.00">/datastructures/reachability</text>
<text text-anchor="middle" x="194" y="-719.5" font-family="Helvetica,sans-Serif" font-size="10.00">/Task.h</text>
</g>
<!-- Node2 -->
<g id="node2" class="node"><title>Node2</title>
<g id="a_node2"><a xlink:href="ContextFactory_8h.html" target="_top" xlink:title="/home/travis/build\l/hypro/hypro/src/hypro\l/algorithms/reachability\l/contexts/ContextFactory.h">
<polygon fill="white" stroke="black" points="200.5,-178.5 200.5,-230.5 343.5,-230.5 343.5,-178.5 200.5,-178.5"/>
<text text-anchor="start" x="208.5" y="-218.5" font-family="Helvetica,sans-Serif" font-size="10.00">/home/travis/build</text>
<text text-anchor="start" x="208.5" y="-207.5" font-family="Helvetica,sans-Serif" font-size="10.00">/hypro/hypro/src/hypro</text>
<text text-anchor="start" x="208.5" y="-196.5" font-family="Helvetica,sans-Serif" font-size="10.00">/algorithms/reachability</text>
<text text-anchor="middle" x="272" y="-185.5" font-family="Helvetica,sans-Serif" font-size="10.00">/contexts/ContextFactory.h</text>
</a>
</g>
</g>
<!-- Node1&#45;&gt;Node2 -->
<g id="edge1" class="edge"><title>Node1&#45;&gt;Node2</title>
<path fill="none" stroke="midnightblue" d="M151.748,-705.584C142.261,-696.83 132.957,-686.758 126,-676 96.9584,-631.092 89,-614.98 89,-561.5 89,-561.5 89,-561.5 89,-381.5 89,-325.045 104.082,-306.922 144,-267 159.776,-251.222 180.395,-238.914 200.46,-229.594"/>
<polygon fill="midnightblue" stroke="midnightblue" points="149.545,-708.308 159.355,-712.311 154.182,-703.064 149.545,-708.308"/>
</g>
<!-- Node3 -->
<g id="node3" class="node"><title>Node3</title>
<g id="a_node3"><a xlink:href="ContextBasedReachabilityWorker_8h.html" target="_top" xlink:title="/home/travis/build\l/hypro/hypro/src/hypro\l/algorithms/reachability\l/workers/ContextBasedReachability\lWorker.h">
<polygon fill="white" stroke="black" points="180.5,-78.5 180.5,-141.5 363.5,-141.5 363.5,-78.5 180.5,-78.5"/>
<text text-anchor="start" x="188.5" y="-129.5" font-family="Helvetica,sans-Serif" font-size="10.00">/home/travis/build</text>
<text text-anchor="start" x="188.5" y="-118.5" font-family="Helvetica,sans-Serif" font-size="10.00">/hypro/hypro/src/hypro</text>
<text text-anchor="start" x="188.5" y="-107.5" font-family="Helvetica,sans-Serif" font-size="10.00">/algorithms/reachability</text>
<text text-anchor="start" x="188.5" y="-96.5" font-family="Helvetica,sans-Serif" font-size="10.00">/workers/ContextBasedReachability</text>
<text text-anchor="middle" x="272" y="-85.5" font-family="Helvetica,sans-Serif" font-size="10.00">Worker.h</text>
</a>
</g>
</g>
<!-- Node1&#45;&gt;Node3 -->
<g id="edge21" class="edge"><title>Node1&#45;&gt;Node3</title>
<path fill="none" stroke="midnightblue" d="M130.183,-707.006C116.904,-698.418 103.943,-688.063 94,-676 59.4263,-634.053 51,-615.859 51,-561.5 51,-561.5 51,-561.5 51,-292.5 51,-219.144 124.615,-170.005 186.872,-141.564"/>
<polygon fill="midnightblue" stroke="midnightblue" points="128.576,-710.128 138.926,-712.395 132.249,-704.168 128.576,-710.128"/>
</g>
<!-- Node4 -->
<g id="node4" class="node"><title>Node4</title>
<g id="a_node4"><a xlink:href="example__rectangularReachability_8cpp.html" target="_top" xlink:title="/home/travis/build\l/hypro/hypro/examples\l/example_rectangularReachability.cpp">
<polygon fill="white" stroke="black" points="0,-0.5 0,-41.5 196,-41.5 196,-0.5 0,-0.5"/>
<text text-anchor="start" x="8" y="-29.5" font-family="Helvetica,sans-Serif" font-size="10.00">/home/travis/build</text>
<text text-anchor="start" x="8" y="-18.5" font-family="Helvetica,sans-Serif" font-size="10.00">/hypro/hypro/examples</text>
<text text-anchor="middle" x="98" y="-7.5" font-family="Helvetica,sans-Serif" font-size="10.00">/example_rectangularReachability.cpp</text>
</a>
</g>
</g>
<!-- Node1&#45;&gt;Node4 -->
<g id="edge22" class="edge"><title>Node1&#45;&gt;Node4</title>
<path fill="none" stroke="midnightblue" d="M110.471,-712.875C90.6198,-703.849 70.9032,-691.825 56,-676 18.7322,-636.427 13,-615.859 13,-561.5 13,-561.5 13,-561.5 13,-203.5 13,-139.304 57.1501,-73.3669 81.8121,-41.5427"/>
<polygon fill="midnightblue" stroke="midnightblue" points="109.326,-716.193 119.895,-716.941 112.099,-709.766 109.326,-716.193"/>
</g>
<!-- Node5 -->
<g id="node5" class="node"><title>Node5</title>
<g id="a_node5"><a xlink:href="example__worker_8cpp.html" target="_top" xlink:title="/home/travis/build\l/hypro/hypro/examples\l/example_worker.cpp">
<polygon fill="white" stroke="black" points="298,-0.5 298,-41.5 424,-41.5 424,-0.5 298,-0.5"/>
<text text-anchor="start" x="306" y="-29.5" font-family="Helvetica,sans-Serif" font-size="10.00">/home/travis/build</text>
<text text-anchor="start" x="306" y="-18.5" font-family="Helvetica,sans-Serif" font-size="10.00">/hypro/hypro/examples</text>
<text text-anchor="middle" x="361" y="-7.5" font-family="Helvetica,sans-Serif" font-size="10.00">/example_worker.cpp</text>
</a>
</g>
</g>
<!-- Node1&#45;&gt;Node5 -->
<g id="edge23" class="edge"><title>Node1&#45;&gt;Node5</title>
<path fill="none" stroke="midnightblue" d="M278.273,-732.68C385.232,-721.485 556,-684.371 556,-561.5 556,-561.5 556,-561.5 556,-203.5 556,-123.488 466.947,-68.73 409.202,-41.6333"/>
<polygon fill="midnightblue" stroke="midnightblue" points="277.736,-729.216 268.13,-733.684 278.426,-736.181 277.736,-729.216"/>
</g>
<!-- Node6 -->
<g id="node6" class="node"><title>Node6</title>
<g id="a_node6"><a xlink:href="IWorker_8h.html" target="_top" xlink:title="/home/travis/build\l/hypro/hypro/src/hypro\l/algorithms/reachability\l/workers/IWorker.h">
<polygon fill="white" stroke="black" points="400,-445.5 400,-497.5 528,-497.5 528,-445.5 400,-445.5"/>
<text text-anchor="start" x="408" y="-485.5" font-family="Helvetica,sans-Serif" font-size="10.00">/home/travis/build</text>
<text text-anchor="start" x="408" y="-474.5" font-family="Helvetica,sans-Serif" font-size="10.00">/hypro/hypro/src/hypro</text>
<text text-anchor="start" x="408" y="-463.5" font-family="Helvetica,sans-Serif" font-size="10.00">/algorithms/reachability</text>
<text text-anchor="middle" x="464" y="-452.5" font-family="Helvetica,sans-Serif" font-size="10.00">/workers/IWorker.h</text>
</a>
</g>
</g>
<!-- Node1&#45;&gt;Node6 -->
<g id="edge5" class="edge"><title>Node1&#45;&gt;Node6</title>
<path fill="none" stroke="midnightblue" d="M278.337,-727.382C342.467,-717.837 423.267,-701.192 445,-676 488.458,-625.623 478.449,-539.875 469.982,-497.593"/>
<polygon fill="midnightblue" stroke="midnightblue" points="277.593,-723.953 268.199,-728.853 278.598,-730.881 277.593,-723.953"/>
</g>
<!-- Node7 -->
<g id="node7" class="node"><title>Node7</title>
<g id="a_node7"><a xlink:href="LTIContext_8h.html" target="_top" xlink:title="/home/travis/build\l/hypro/hypro/src/hypro\l/algorithms/reachability\l/contexts/LTIContext.h">
<polygon fill="white" stroke="black" points="251,-356.5 251,-408.5 379,-408.5 379,-356.5 251,-356.5"/>
<text text-anchor="start" x="259" y="-396.5" font-family="Helvetica,sans-Serif" font-size="10.00">/home/travis/build</text>
<text text-anchor="start" x="259" y="-385.5" font-family="Helvetica,sans-Serif" font-size="10.00">/hypro/hypro/src/hypro</text>
<text text-anchor="start" x="259" y="-374.5" font-family="Helvetica,sans-Serif" font-size="10.00">/algorithms/reachability</text>
<text text-anchor="middle" x="315" y="-363.5" font-family="Helvetica,sans-Serif" font-size="10.00">/contexts/LTIContext.h</text>
</a>
</g>
</g>
<!-- Node1&#45;&gt;Node7 -->
<g id="edge13" class="edge"><title>Node1&#45;&gt;Node7</title>
<path fill="none" stroke="midnightblue" d="M277.995,-728.067C313.126,-719.844 351.418,-704.518 376,-676 443.398,-597.81 369.153,-464.434 332.75,-408.916"/>
<polygon fill="midnightblue" stroke="midnightblue" points="277.211,-724.656 268.184,-730.203 278.7,-731.495 277.211,-724.656"/>
</g>
<!-- Node8 -->
<g id="node8" class="node"><title>Node8</title>
<g id="a_node8"><a xlink:href="TimedContext_8h.html" target="_top" xlink:title="/home/travis/build\l/hypro/hypro/src/hypro\l/algorithms/reachability\l/contexts/TimedContext.h">
<polygon fill="white" stroke="black" points="153,-267.5 153,-319.5 293,-319.5 293,-267.5 153,-267.5"/>
<text text-anchor="start" x="161" y="-307.5" font-family="Helvetica,sans-Serif" font-size="10.00">/home/travis/build</text>
<text text-anchor="start" x="161" y="-296.5" font-family="Helvetica,sans-Serif" font-size="10.00">/hypro/hypro/src/hypro</text>
<text text-anchor="start" x="161" y="-285.5" font-family="Helvetica,sans-Serif" font-size="10.00">/algorithms/reachability</text>
<text text-anchor="middle" x="223" y="-274.5" font-family="Helvetica,sans-Serif" font-size="10.00">/contexts/TimedContext.h</text>
</a>
</g>
</g>
<!-- Node1&#45;&gt;Node8 -->
<g id="edge20" class="edge"><title>Node1&#45;&gt;Node8</title>
<path fill="none" stroke="midnightblue" d="M163.389,-704.439C156.727,-695.728 150.373,-685.962 146,-676 125.268,-628.765 127,-613.085 127,-561.5 127,-561.5 127,-561.5 127,-470.5 127,-410.635 170.336,-351.764 198.775,-319.576"/>
<polygon fill="midnightblue" stroke="midnightblue" points="160.825,-706.836 169.816,-712.441 166.282,-702.452 160.825,-706.836"/>
</g>
<!-- Node9 -->
<g id="node9" class="node"><title>Node9</title>
<g id="a_node9"><a xlink:href="ltiJumpHandler_8h.html" target="_top" xlink:title="/home/travis/build\l/hypro/hypro/src/hypro\l/algorithms/reachability\l/handlers/jumpHandlers/ltiJumpHandler.h">
<polygon fill="white" stroke="black" points="155,-623.5 155,-675.5 367,-675.5 367,-623.5 155,-623.5"/>
<text text-anchor="start" x="163" y="-663.5" font-family="Helvetica,sans-Serif" font-size="10.00">/home/travis/build</text>
<text text-anchor="start" x="163" y="-652.5" font-family="Helvetica,sans-Serif" font-size="10.00">/hypro/hypro/src/hypro</text>
<text text-anchor="start" x="163" y="-641.5" font-family="Helvetica,sans-Serif" font-size="10.00">/algorithms/reachability</text>
<text text-anchor="middle" x="261" y="-630.5" font-family="Helvetica,sans-Serif" font-size="10.00">/handlers/jumpHandlers/ltiJumpHandler.h</text>
</a>
</g>
</g>
<!-- Node1&#45;&gt;Node9 -->
<g id="edge14" class="edge"><title>Node1&#45;&gt;Node9</title>
<path fill="none" stroke="midnightblue" d="M219.633,-704.215C226.948,-694.717 234.793,-684.529 241.664,-675.607"/>
<polygon fill="midnightblue" stroke="midnightblue" points="216.708,-702.278 213.379,-712.336 222.254,-706.549 216.708,-702.278"/>
</g>
<!-- Node2&#45;&gt;Node3 -->
<g id="edge2" class="edge"><title>Node2&#45;&gt;Node3</title>
<path fill="none" stroke="midnightblue" d="M272,-167.945C272,-159.226 272,-149.97 272,-141.512"/>
<polygon fill="midnightblue" stroke="midnightblue" points="268.5,-168.224 272,-178.224 275.5,-168.224 268.5,-168.224"/>
</g>
<!-- Node3&#45;&gt;Node4 -->
<g id="edge3" class="edge"><title>Node3&#45;&gt;Node4</title>
<path fill="none" stroke="midnightblue" d="M201.653,-73.8264C179.634,-62.8171 156.137,-51.0686 137.091,-41.5457"/>
<polygon fill="midnightblue" stroke="midnightblue" points="200.145,-76.9854 210.654,-78.3271 203.275,-70.7244 200.145,-76.9854"/>
</g>
<!-- Node3&#45;&gt;Node5 -->
<g id="edge4" class="edge"><title>Node3&#45;&gt;Node5</title>
<path fill="none" stroke="midnightblue" d="M310.547,-71.3196C321.048,-61.0544 331.999,-50.3491 341.005,-41.5457"/>
<polygon fill="midnightblue" stroke="midnightblue" points="308.082,-68.8339 303.378,-78.3271 312.976,-73.8396 308.082,-68.8339"/>
</g>
<!-- Node6&#45;&gt;Node2 -->
<g id="edge6" class="edge"><title>Node6&#45;&gt;Node2</title>
<path fill="none" stroke="midnightblue" d="M455.415,-435.46C448.629,-411.818 437.668,-380.571 422,-356 389.67,-305.3 337.699,-258.149 304.205,-230.582"/>
<polygon fill="midnightblue" stroke="midnightblue" points="452.126,-436.698 458.155,-445.409 458.874,-434.839 452.126,-436.698"/>
</g>
<!-- Node6&#45;&gt;Node3 -->
<g id="edge12" class="edge"><title>Node6&#45;&gt;Node3</title>
<path fill="none" stroke="midnightblue" d="M462.738,-435.335C461.104,-412.298 457.393,-381.79 449,-356 421.121,-270.327 409.09,-247.698 352,-178 341.209,-164.826 327.557,-152.293 314.599,-141.707"/>
<polygon fill="midnightblue" stroke="midnightblue" points="459.247,-435.582 463.352,-445.35 466.233,-435.154 459.247,-435.582"/>
</g>
<!-- Node6&#45;&gt;Node7 -->
<g id="edge7" class="edge"><title>Node6&#45;&gt;Node7</title>
<path fill="none" stroke="midnightblue" d="M411.885,-440.07C394.274,-429.788 374.824,-418.431 358,-408.607"/>
<polygon fill="midnightblue" stroke="midnightblue" points="410.503,-443.316 420.903,-445.336 414.032,-437.271 410.503,-443.316"/>
</g>
<!-- Node6&#45;&gt;Node8 -->
<g id="edge11" class="edge"><title>Node6&#45;&gt;Node8</title>
<path fill="none" stroke="midnightblue" d="M444.75,-436.703C427.425,-407.26 402.524,-367.525 388,-356 360.581,-334.241 324.681,-319.644 293.372,-310.154"/>
<polygon fill="midnightblue" stroke="midnightblue" points="441.801,-438.594 449.864,-445.467 447.847,-435.066 441.801,-438.594"/>
</g>
<!-- Node7&#45;&gt;Node2 -->
<g id="edge8" class="edge"><title>Node7&#45;&gt;Node2</title>
<path fill="none" stroke="midnightblue" d="M314.103,-346.464C312.769,-323.481 309.569,-292.985 302,-267 298.379,-254.568 292.402,-241.573 286.733,-230.749"/>
<polygon fill="midnightblue" stroke="midnightblue" points="310.608,-346.636 314.594,-356.452 317.599,-346.292 310.608,-346.636"/>
</g>
<!-- Node7&#45;&gt;Node8 -->
<g id="edge9" class="edge"><title>Node7&#45;&gt;Node8</title>
<path fill="none" stroke="midnightblue" d="M281.016,-349.363C270.631,-339.542 259.366,-328.89 249.55,-319.607"/>
<polygon fill="midnightblue" stroke="midnightblue" points="278.719,-352.008 288.39,-356.336 283.529,-346.922 278.719,-352.008"/>
</g>
<!-- Node8&#45;&gt;Node2 -->
<g id="edge10" class="edge"><title>Node8&#45;&gt;Node2</title>
<path fill="none" stroke="midnightblue" d="M242.234,-258.35C247.443,-249.1 252.986,-239.259 257.859,-230.607"/>
<polygon fill="midnightblue" stroke="midnightblue" points="239.031,-256.905 237.173,-267.336 245.13,-260.34 239.031,-256.905"/>
</g>
<!-- Node10 -->
<g id="node10" class="node"><title>Node10</title>
<g id="a_node10"><a xlink:href="JumpHandlers_8h.html" target="_top" xlink:title="/home/travis/build\l/hypro/hypro/src/hypro\l/algorithms/reachability\l/handlers/jumpHandlers/JumpHandlers.h">
<polygon fill="white" stroke="black" points="155.5,-534.5 155.5,-586.5 364.5,-586.5 364.5,-534.5 155.5,-534.5"/>
<text text-anchor="start" x="163.5" y="-574.5" font-family="Helvetica,sans-Serif" font-size="10.00">/home/travis/build</text>
<text text-anchor="start" x="163.5" y="-563.5" font-family="Helvetica,sans-Serif" font-size="10.00">/hypro/hypro/src/hypro</text>
<text text-anchor="start" x="163.5" y="-552.5" font-family="Helvetica,sans-Serif" font-size="10.00">/algorithms/reachability</text>
<text text-anchor="middle" x="260" y="-541.5" font-family="Helvetica,sans-Serif" font-size="10.00">/handlers/jumpHandlers/JumpHandlers.h</text>
</a>
</g>
</g>
<!-- Node9&#45;&gt;Node10 -->
<g id="edge15" class="edge"><title>Node9&#45;&gt;Node10</title>
<path fill="none" stroke="midnightblue" d="M260.594,-613.191C260.492,-604.282 260.384,-594.899 260.289,-586.607"/>
<polygon fill="midnightblue" stroke="midnightblue" points="257.096,-613.377 260.711,-623.336 264.095,-613.296 257.096,-613.377"/>
</g>
<!-- Node11 -->
<g id="node11" class="node"><title>Node11</title>
<g id="a_node11"><a xlink:href="HandlerFactory_8h.html" target="_top" xlink:title="/home/travis/build\l/hypro/hypro/src/hypro\l/algorithms/reachability\l/handlers/HandlerFactory.h">
<polygon fill="white" stroke="black" points="192.5,-445.5 192.5,-497.5 335.5,-497.5 335.5,-445.5 192.5,-445.5"/>
<text text-anchor="start" x="200.5" y="-485.5" font-family="Helvetica,sans-Serif" font-size="10.00">/home/travis/build</text>
<text text-anchor="start" x="200.5" y="-474.5" font-family="Helvetica,sans-Serif" font-size="10.00">/hypro/hypro/src/hypro</text>
<text text-anchor="start" x="200.5" y="-463.5" font-family="Helvetica,sans-Serif" font-size="10.00">/algorithms/reachability</text>
<text text-anchor="middle" x="264" y="-452.5" font-family="Helvetica,sans-Serif" font-size="10.00">/handlers/HandlerFactory.h</text>
</a>
</g>
</g>
<!-- Node10&#45;&gt;Node11 -->
<g id="edge16" class="edge"><title>Node10&#45;&gt;Node11</title>
<path fill="none" stroke="midnightblue" d="M261.623,-524.191C262.033,-515.282 262.464,-505.899 262.846,-497.607"/>
<polygon fill="midnightblue" stroke="midnightblue" points="258.12,-524.186 261.157,-534.336 265.113,-524.507 258.12,-524.186"/>
</g>
<!-- Node11&#45;&gt;Node7 -->
<g id="edge17" class="edge"><title>Node11&#45;&gt;Node7</title>
<path fill="none" stroke="midnightblue" d="M283.85,-436.639C289.321,-427.306 295.157,-417.349 300.282,-408.607"/>
<polygon fill="midnightblue" stroke="midnightblue" points="280.789,-434.939 278.751,-445.336 286.828,-438.479 280.789,-434.939"/>
</g>
<!-- Node11&#45;&gt;Node8 -->
<g id="edge19" class="edge"><title>Node11&#45;&gt;Node8</title>
<path fill="none" stroke="midnightblue" d="M250.409,-435.925C247.331,-427.23 244.298,-417.852 242,-409 234.152,-378.769 228.842,-343.171 225.874,-319.788"/>
<polygon fill="midnightblue" stroke="midnightblue" points="247.146,-437.194 253.865,-445.386 253.721,-434.792 247.146,-437.194"/>
</g>
<!-- Node11&#45;&gt;Node9 -->
<g id="edge18" class="edge"><title>Node11&#45;&gt;Node9</title>
<path fill="none" stroke="midnightblue" d="M342.488,-503C354.684,-511.216 365.655,-521.423 373,-534 384.879,-554.341 384.996,-566.728 373,-587 363.793,-602.559 349.097,-614.445 333.34,-623.419"/>
<polygon fill="midnightblue" stroke="midnightblue" points="344.216,-499.952 333.879,-497.625 340.509,-505.89 344.216,-499.952"/>
</g>
</g>
</svg>
