<?xml version="1.0" encoding="UTF-8" standalone="no"?>
<!DOCTYPE svg PUBLIC "-//W3C//DTD SVG 1.1//EN"
 "http://www.w3.org/Graphics/SVG/1.1/DTD/svg11.dtd">
<!-- Generated by graphviz version 2.38.0 (20140413.2041)
 -->
<!-- Title: /home/travis/build/hypro/hypro/src/hypro/representations/TaylorModel/TaylorModel.h Pages: 1 -->
<svg width="796pt" height="117pt"
 viewBox="0.00 0.00 796.00 117.00" xmlns="http://www.w3.org/2000/svg" xmlns:xlink="http://www.w3.org/1999/xlink">
<g id="graph0" class="graph" transform="scale(1 1) rotate(0) translate(4 113)">
<title>/home/travis/build/hypro/hypro/src/hypro/representations/TaylorModel/TaylorModel.h</title>
<polygon fill="white" stroke="none" points="-4,4 -4,-113 792,-113 792,4 -4,4"/>
<!-- Node1 -->
<g id="node1" class="node"><title>Node1</title>
<polygon fill="#bfbfbf" stroke="black" points="396.5,-56.5 396.5,-108.5 550.5,-108.5 550.5,-56.5 396.5,-56.5"/>
<text text-anchor="start" x="404.5" y="-96.5" font-family="Helvetica,sans-Serif" font-size="10.00">/home/travis/build</text>
<text text-anchor="start" x="404.5" y="-85.5" font-family="Helvetica,sans-Serif" font-size="10.00">/hypro/hypro/src/hypro</text>
<text text-anchor="start" x="404.5" y="-74.5" font-family="Helvetica,sans-Serif" font-size="10.00">/representations/TaylorModel</text>
<text text-anchor="middle" x="473.5" y="-63.5" font-family="Helvetica,sans-Serif" font-size="10.00">/TaylorModel.h</text>
</g>
<!-- Node2 -->
<g id="node2" class="node"><title>Node2</title>
<polygon fill="white" stroke="#bfbfbf" points="0,-0.5 0,-19.5 177,-19.5 177,-0.5 0,-0.5"/>
<text text-anchor="middle" x="88.5" y="-7.5" font-family="Helvetica,sans-Serif" font-size="10.00">carl/core/MultivariatePolynomial.h</text>
</g>
<!-- Node1&#45;&gt;Node2 -->
<g id="edge1" class="edge"><title>Node1&#45;&gt;Node2</title>
<path fill="none" stroke="midnightblue" d="M396.053,-67.3181C321.698,-53.7025 211.171,-33.4631 144.84,-21.3168"/>
<polygon fill="midnightblue" stroke="midnightblue" points="145.452,-17.8707 134.985,-19.5122 144.191,-24.7562 145.452,-17.8707"/>
</g>
<!-- Node3 -->
<g id="node3" class="node"><title>Node3</title>
<polygon fill="white" stroke="#bfbfbf" points="195.5,-0.5 195.5,-19.5 323.5,-19.5 323.5,-0.5 195.5,-0.5"/>
<text text-anchor="middle" x="259.5" y="-7.5" font-family="Helvetica,sans-Serif" font-size="10.00">carl/core/VariablePool.h</text>
</g>
<!-- Node1&#45;&gt;Node3 -->
<g id="edge2" class="edge"><title>Node1&#45;&gt;Node3</title>
<path fill="none" stroke="midnightblue" d="M397.449,-56.4458C362.568,-44.9547 322.886,-31.882 295.066,-22.7167"/>
<polygon fill="midnightblue" stroke="midnightblue" points="295.976,-19.3318 285.383,-19.527 293.786,-25.9803 295.976,-19.3318"/>
</g>
<!-- Node4 -->
<g id="node4" class="node"><title>Node4</title>
<polygon fill="white" stroke="#bfbfbf" points="342,-0.5 342,-19.5 461,-19.5 461,-0.5 342,-0.5"/>
<text text-anchor="middle" x="401.5" y="-7.5" font-family="Helvetica,sans-Serif" font-size="10.00">carl/interval/Interval.h</text>
</g>
<!-- Node1&#45;&gt;Node4 -->
<g id="edge3" class="edge"><title>Node1&#45;&gt;Node4</title>
<path fill="none" stroke="midnightblue" d="M447.913,-56.4458C437.886,-46.6281 426.68,-35.6559 417.792,-26.9524"/>
<polygon fill="midnightblue" stroke="midnightblue" points="419.974,-24.191 410.38,-19.6955 415.077,-29.1926 419.974,-24.191"/>
</g>
<!-- Node5 -->
<g id="node5" class="node"><title>Node5</title>
<polygon fill="white" stroke="#bfbfbf" points="479.5,-0.5 479.5,-19.5 613.5,-19.5 613.5,-0.5 479.5,-0.5"/>
<text text-anchor="middle" x="546.5" y="-7.5" font-family="Helvetica,sans-Serif" font-size="10.00">carl/interval/set_theory.h</text>
</g>
<!-- Node1&#45;&gt;Node5 -->
<g id="edge4" class="edge"><title>Node1&#45;&gt;Node5</title>
<path fill="none" stroke="midnightblue" d="M499.443,-56.4458C509.712,-46.5279 521.202,-35.4318 530.257,-26.6867"/>
<polygon fill="midnightblue" stroke="midnightblue" points="532.734,-29.16 537.496,-19.6955 527.872,-24.1247 532.734,-29.16"/>
</g>
<!-- Node6 -->
<g id="node6" class="node"><title>Node6</title>
<polygon fill="white" stroke="#bfbfbf" points="632,-0.5 632,-19.5 679,-19.5 679,-0.5 632,-0.5"/>
<text text-anchor="middle" x="655.5" y="-7.5" font-family="Helvetica,sans-Serif" font-size="10.00">vector</text>
</g>
<!-- Node1&#45;&gt;Node6 -->
<g id="edge5" class="edge"><title>Node1&#45;&gt;Node6</title>
<path fill="none" stroke="midnightblue" d="M538.179,-56.4458C567.323,-45.1563 600.409,-32.3402 623.998,-23.2027"/>
<polygon fill="midnightblue" stroke="midnightblue" points="625.427,-26.4028 633.487,-19.527 622.898,-19.8754 625.427,-26.4028"/>
</g>
<!-- Node7 -->
<g id="node7" class="node"><title>Node7</title>
<polygon fill="white" stroke="#bfbfbf" points="697,-0.5 697,-19.5 788,-19.5 788,-0.5 697,-0.5"/>
<text text-anchor="middle" x="742.5" y="-7.5" font-family="Helvetica,sans-Serif" font-size="10.00">TaylorModel.tpp</text>
</g>
<!-- Node1&#45;&gt;Node7 -->
<g id="edge6" class="edge"><title>Node1&#45;&gt;Node7</title>
<path fill="none" stroke="midnightblue" d="M550.585,-61.2975C599.246,-48.5442 660.252,-32.5557 700.251,-22.0726"/>
<polygon fill="midnightblue" stroke="midnightblue" points="701.162,-25.4523 709.948,-19.5314 699.387,-18.681 701.162,-25.4523"/>
</g>
</g>
</svg>
