<?xml version="1.0" encoding="UTF-8" standalone="no"?>
<!DOCTYPE svg PUBLIC "-//W3C//DTD SVG 1.1//EN"
 "http://www.w3.org/Graphics/SVG/1.1/DTD/svg11.dtd">
<!-- Generated by graphviz version 2.38.0 (20140413.2041)
 -->
<!-- Title: /home/travis/build/hypro/hypro/src/hypro/util/templateDirections.h Pages: 1 -->
<!--zoomable 419 -->
<svg id="main" version="1.1" xmlns="http://www.w3.org/2000/svg" xmlns:xlink="http://www.w3.org/1999/xlink" xml:space="preserve" onload="init(evt)">
<style type="text/css"><![CDATA[
.edge:hover path { stroke: red; }
.edge:hover polygon { stroke: red; fill: red; }
]]></style>
<script type="text/javascript"><![CDATA[
var edges = document.getElementsByTagName('g');
if (edges && edges.length) {
  for (var i=0;i<edges.length;i++) {
    if (edges[i].id.substr(0,4)=='edge') {
      edges[i].setAttribute('class','edge');
    }
  }
}
]]></script>
        <defs>
                <circle id="rim" cx="0" cy="0" r="7"/>
                <circle id="rim2" cx="0" cy="0" r="3.5"/>
                <g id="zoomPlus">
                        <use xlink:href="#rim" fill="#404040">
                                <set attributeName="fill" to="#808080" begin="zoomplus.mouseover" end="zoomplus.mouseout"/>
                        </use>
                        <path d="M-4,0h8M0,-4v8" fill="none" stroke="white" stroke-width="1.5" pointer-events="none"/>
                </g>
                <g id="zoomMin">
                        <use xlink:href="#rim" fill="#404040">
                                <set attributeName="fill" to="#808080" begin="zoomminus.mouseover" end="zoomminus.mouseout"/>
                        </use>
                        <path d="M-4,0h8" fill="none" stroke="white" stroke-width="1.5" pointer-events="none"/>
                </g>
                <g id="dirArrow">
                        <path fill="none" stroke="white" stroke-width="1.5" d="M0,-3.0v7 M-2.5,-0.5L0,-3.0L2.5,-0.5"/>
                </g>
               <g id="resetDef">
                       <use xlink:href="#rim2" fill="#404040">
                               <set attributeName="fill" to="#808080" begin="reset.mouseover" end="reset.mouseout"/>
                       </use>
               </g>
        </defs>

<script type="text/javascript">
var viewWidth = 1332;
var viewHeight = 419;
var sectionId = 'dynsection-0';
</script>
<script xlink:href="svgpan.js"/>
<svg id="graph" class="graph">
<g id="viewport">
<title>/home/travis/build/hypro/hypro/src/hypro/util/templateDirections.h</title>
<polygon fill="white" stroke="none" points="-4,4 -4,-415 1327.5,-415 1327.5,4 -4,4"/>
<!-- Node1 -->
<g id="node1" class="node"><title>Node1</title>
<polygon fill="#bfbfbf" stroke="black" points="512.5,-369.5 512.5,-410.5 649.5,-410.5 649.5,-369.5 512.5,-369.5"/>
<text text-anchor="start" x="520.5" y="-398.5" font-family="Helvetica,sans-Serif" font-size="10.00">/home/travis/build</text>
<text text-anchor="start" x="520.5" y="-387.5" font-family="Helvetica,sans-Serif" font-size="10.00">/hypro/hypro/src/hypro</text>
<text text-anchor="middle" x="581" y="-376.5" font-family="Helvetica,sans-Serif" font-size="10.00">/util/templateDirections.h</text>
</g>
<!-- Node2 -->
<g id="node2" class="node"><title>Node2</title>
<g id="a_node2"><a xlink:href="Permutator_8h.html" target="_top" xlink:title="Permutator.h">
<polygon fill="white" stroke="black" points="541,-313.5 541,-332.5 621,-332.5 621,-313.5 541,-313.5"/>
<text text-anchor="middle" x="581" y="-320.5" font-family="Helvetica,sans-Serif" font-size="10.00">Permutator.h</text>
</a>
</g>
</g>
<!-- Node1&#45;&gt;Node2 -->
<g id="edge1" class="edge"><title>Node1&#45;&gt;Node2</title>
<path fill="none" stroke="midnightblue" d="M581,-369.498C581,-361.065 581,-351.235 581,-342.874"/>
<polygon fill="midnightblue" stroke="midnightblue" points="584.5,-342.652 581,-332.652 577.5,-342.653 584.5,-342.652"/>
</g>
<!-- Node3 -->
<g id="node3" class="node"><title>Node3</title>
<g id="a_node3"><a xlink:href="config_8h.html" target="_top" xlink:title="../config.h">
<polygon fill="white" stroke="black" points="549.5,-257.5 549.5,-276.5 612.5,-276.5 612.5,-257.5 549.5,-257.5"/>
<text text-anchor="middle" x="581" y="-264.5" font-family="Helvetica,sans-Serif" font-size="10.00">../config.h</text>
</a>
</g>
</g>
<!-- Node2&#45;&gt;Node3 -->
<g id="edge2" class="edge"><title>Node2&#45;&gt;Node3</title>
<path fill="none" stroke="midnightblue" d="M581,-313.083C581,-306.006 581,-295.861 581,-286.986"/>
<polygon fill="midnightblue" stroke="midnightblue" points="584.5,-286.751 581,-276.751 577.5,-286.751 584.5,-286.751"/>
</g>
<!-- Node4 -->
<g id="node4" class="node"><title>Node4</title>
<g id="a_node4"><a xlink:href="flags_8h.html" target="_top" xlink:title="flags.h">
<polygon fill="white" stroke="black" points="0,-145.5 0,-164.5 48,-164.5 48,-145.5 0,-145.5"/>
<text text-anchor="middle" x="24" y="-152.5" font-family="Helvetica,sans-Serif" font-size="10.00">flags.h</text>
</a>
</g>
</g>
<!-- Node3&#45;&gt;Node4 -->
<g id="edge3" class="edge"><title>Node3&#45;&gt;Node4</title>
<path fill="none" stroke="midnightblue" d="M549.143,-261.168C498.843,-253.423 398.002,-237.423 313,-221 201.774,-199.51 171.733,-193.123 57.9151,-165.141"/>
<polygon fill="midnightblue" stroke="midnightblue" points="58.6604,-161.72 48.1137,-162.729 56.9877,-168.517 58.6604,-161.72"/>
</g>
<!-- Node5 -->
<g id="node5" class="node"><title>Node5</title>
<g id="a_node5"><a xlink:href="util_2convenienceOperators_8h.html" target="_top" xlink:title="util/convenienceOperators.h">
<polygon fill="white" stroke="black" points="1056.5,-201.5 1056.5,-220.5 1207.5,-220.5 1207.5,-201.5 1056.5,-201.5"/>
<text text-anchor="middle" x="1132" y="-208.5" font-family="Helvetica,sans-Serif" font-size="10.00">util/convenienceOperators.h</text>
</a>
</g>
</g>
<!-- Node3&#45;&gt;Node5 -->
<g id="edge4" class="edge"><title>Node3&#45;&gt;Node5</title>
<path fill="none" stroke="midnightblue" d="M612.603,-262.903C695.455,-254.783 921.141,-232.665 1046.02,-220.426"/>
<polygon fill="midnightblue" stroke="midnightblue" points="1046.7,-223.877 1056.31,-219.418 1046.01,-216.91 1046.7,-223.877"/>
</g>
<!-- Node22 -->
<g id="node22" class="node"><title>Node22</title>
<g id="a_node22"><a xlink:href="Logger_8h.html" target="_top" xlink:title="util/logging/Logger.h">
<polygon fill="white" stroke="black" points="322.5,-201.5 322.5,-220.5 435.5,-220.5 435.5,-201.5 322.5,-201.5"/>
<text text-anchor="middle" x="379" y="-208.5" font-family="Helvetica,sans-Serif" font-size="10.00">util/logging/Logger.h</text>
</a>
</g>
</g>
<!-- Node3&#45;&gt;Node22 -->
<g id="edge28" class="edge"><title>Node3&#45;&gt;Node22</title>
<path fill="none" stroke="midnightblue" d="M549.438,-257.562C514.805,-248.304 459.062,-233.403 420.814,-223.178"/>
<polygon fill="midnightblue" stroke="midnightblue" points="421.572,-219.758 411.008,-220.556 419.764,-226.52 421.572,-219.758"/>
</g>
<!-- Node6 -->
<g id="node6" class="node"><title>Node6</title>
<g id="a_node6"><a xlink:href="types_8h.html" target="_top" xlink:title="../types.h">
<polygon fill="white" stroke="black" points="937.5,-145.5 937.5,-164.5 998.5,-164.5 998.5,-145.5 937.5,-145.5"/>
<text text-anchor="middle" x="968" y="-152.5" font-family="Helvetica,sans-Serif" font-size="10.00">../types.h</text>
</a>
</g>
</g>
<!-- Node5&#45;&gt;Node6 -->
<g id="edge5" class="edge"><title>Node5&#45;&gt;Node6</title>
<path fill="none" stroke="midnightblue" d="M1106.01,-201.444C1078.3,-192.32 1034.25,-177.813 1003.38,-167.651"/>
<polygon fill="midnightblue" stroke="midnightblue" points="1004.46,-164.32 993.865,-164.516 1002.27,-170.968 1004.46,-164.32"/>
</g>
<!-- Node11 -->
<g id="node11" class="node"><title>Node11</title>
<polygon fill="white" stroke="#bfbfbf" points="1095,-11.5 1095,-30.5 1141,-30.5 1141,-11.5 1095,-11.5"/>
<text text-anchor="middle" x="1118" y="-18.5" font-family="Helvetica,sans-Serif" font-size="10.00">iosfwd</text>
</g>
<!-- Node5&#45;&gt;Node11 -->
<g id="edge23" class="edge"><title>Node5&#45;&gt;Node11</title>
<path fill="none" stroke="midnightblue" d="M1131.36,-201.434C1129.24,-172.928 1122.38,-80.8218 1119.4,-40.8263"/>
<polygon fill="midnightblue" stroke="midnightblue" points="1122.87,-40.3292 1118.64,-30.6168 1115.89,-40.8491 1122.87,-40.3292"/>
</g>
<!-- Node12 -->
<g id="node12" class="node"><title>Node12</title>
<polygon fill="white" stroke="#bfbfbf" points="1072,-84 1072,-103 1104,-103 1104,-84 1072,-84"/>
<text text-anchor="middle" x="1088" y="-91" font-family="Helvetica,sans-Serif" font-size="10.00">set</text>
</g>
<!-- Node5&#45;&gt;Node12 -->
<g id="edge25" class="edge"><title>Node5&#45;&gt;Node12</title>
<path fill="none" stroke="midnightblue" d="M1128.69,-201.319C1121.56,-182.59 1104.59,-138.046 1094.97,-112.792"/>
<polygon fill="midnightblue" stroke="midnightblue" points="1098.18,-111.381 1091.35,-103.282 1091.63,-113.873 1098.18,-111.381"/>
</g>
<!-- Node19 -->
<g id="node19" class="node"><title>Node19</title>
<polygon fill="white" stroke="#bfbfbf" points="1160,-145.5 1160,-164.5 1198,-164.5 1198,-145.5 1160,-145.5"/>
<text text-anchor="middle" x="1179" y="-152.5" font-family="Helvetica,sans-Serif" font-size="10.00">map</text>
</g>
<!-- Node5&#45;&gt;Node19 -->
<g id="edge24" class="edge"><title>Node5&#45;&gt;Node19</title>
<path fill="none" stroke="midnightblue" d="M1139.76,-201.083C1146.54,-193.298 1156.54,-181.801 1164.76,-172.367"/>
<polygon fill="midnightblue" stroke="midnightblue" points="1167.46,-174.592 1171.38,-164.751 1162.18,-169.996 1167.46,-174.592"/>
</g>
<!-- Node20 -->
<g id="node20" class="node"><title>Node20</title>
<polygon fill="white" stroke="#bfbfbf" points="1216,-145.5 1216,-164.5 1258,-164.5 1258,-145.5 1216,-145.5"/>
<text text-anchor="middle" x="1237" y="-152.5" font-family="Helvetica,sans-Serif" font-size="10.00">utility</text>
</g>
<!-- Node5&#45;&gt;Node20 -->
<g id="edge26" class="edge"><title>Node5&#45;&gt;Node20</title>
<path fill="none" stroke="midnightblue" d="M1148.87,-201.324C1165.71,-192.664 1191.81,-179.242 1211.24,-169.249"/>
<polygon fill="midnightblue" stroke="midnightblue" points="1212.88,-172.341 1220.17,-164.655 1209.68,-166.116 1212.88,-172.341"/>
</g>
<!-- Node21 -->
<g id="node21" class="node"><title>Node21</title>
<polygon fill="white" stroke="#bfbfbf" points="1276.5,-145.5 1276.5,-164.5 1323.5,-164.5 1323.5,-145.5 1276.5,-145.5"/>
<text text-anchor="middle" x="1300" y="-152.5" font-family="Helvetica,sans-Serif" font-size="10.00">vector</text>
</g>
<!-- Node5&#45;&gt;Node21 -->
<g id="edge27" class="edge"><title>Node5&#45;&gt;Node21</title>
<path fill="none" stroke="midnightblue" d="M1158.62,-201.444C1187.92,-192.024 1235.07,-176.869 1266.78,-166.679"/>
<polygon fill="midnightblue" stroke="midnightblue" points="1268.04,-169.95 1276.49,-163.558 1265.89,-163.286 1268.04,-169.95"/>
</g>
<!-- Node7 -->
<g id="node7" class="node"><title>Node7</title>
<polygon fill="white" stroke="#bfbfbf" points="813,-11.5 813,-30.5 947,-30.5 947,-11.5 813,-11.5"/>
<text text-anchor="middle" x="880" y="-18.5" font-family="Helvetica,sans-Serif" font-size="10.00">carl/numbers/numbers.h</text>
</g>
<!-- Node6&#45;&gt;Node7 -->
<g id="edge6" class="edge"><title>Node6&#45;&gt;Node7</title>
<path fill="none" stroke="midnightblue" d="M967.597,-145.327C966.543,-130.445 962.733,-99.5678 949,-78 937.883,-60.5413 919.469,-46.0019 904.458,-36.1167"/>
<polygon fill="midnightblue" stroke="midnightblue" points="905.976,-32.9372 895.647,-30.5788 902.251,-38.8637 905.976,-32.9372"/>
</g>
<!-- Node8 -->
<g id="node8" class="node"><title>Node8</title>
<polygon fill="white" stroke="#bfbfbf" points="732,-84 732,-103 818,-103 818,-84 732,-84"/>
<text text-anchor="middle" x="775" y="-91" font-family="Helvetica,sans-Serif" font-size="10.00">carl/util/hash.h</text>
</g>
<!-- Node6&#45;&gt;Node8 -->
<g id="edge7" class="edge"><title>Node6&#45;&gt;Node8</title>
<path fill="none" stroke="midnightblue" d="M940.348,-145.475C906.812,-135.136 850.127,-117.661 812.632,-106.102"/>
<polygon fill="midnightblue" stroke="midnightblue" points="813.188,-102.611 802.601,-103.009 811.126,-109.3 813.188,-102.611"/>
</g>
<!-- Node9 -->
<g id="node9" class="node"><title>Node9</title>
<polygon fill="white" stroke="#bfbfbf" points="836,-84 836,-103 940,-103 940,-84 836,-84"/>
<text text-anchor="middle" x="888" y="-91" font-family="Helvetica,sans-Serif" font-size="10.00">eigen3/Eigen/Core</text>
</g>
<!-- Node6&#45;&gt;Node9 -->
<g id="edge8" class="edge"><title>Node6&#45;&gt;Node9</title>
<path fill="none" stroke="midnightblue" d="M956.538,-145.475C943.825,-136.02 923.087,-120.596 907.747,-109.187"/>
<polygon fill="midnightblue" stroke="midnightblue" points="909.554,-106.169 899.441,-103.009 905.376,-111.785 909.554,-106.169"/>
</g>
<!-- Node10 -->
<g id="node10" class="node"><title>Node10</title>
<polygon fill="white" stroke="#bfbfbf" points="965,-11.5 965,-30.5 1077,-30.5 1077,-11.5 965,-11.5"/>
<text text-anchor="middle" x="1021" y="-18.5" font-family="Helvetica,sans-Serif" font-size="10.00">eigen3/Eigen/Dense</text>
</g>
<!-- Node6&#45;&gt;Node10 -->
<g id="edge9" class="edge"><title>Node6&#45;&gt;Node10</title>
<path fill="none" stroke="midnightblue" d="M971.477,-145.339C980.013,-124.08 1002.14,-68.9632 1013.71,-40.1506"/>
<polygon fill="midnightblue" stroke="midnightblue" points="1017.1,-41.1052 1017.58,-30.5212 1010.6,-38.497 1017.1,-41.1052"/>
</g>
<!-- Node6&#45;&gt;Node11 -->
<g id="edge10" class="edge"><title>Node6&#45;&gt;Node11</title>
<path fill="none" stroke="midnightblue" d="M977.842,-145.339C1002.85,-123.331 1069.1,-65.0363 1100.72,-37.2049"/>
<polygon fill="midnightblue" stroke="midnightblue" points="1103.12,-39.755 1108.32,-30.5212 1098.5,-34.5 1103.12,-39.755"/>
</g>
<!-- Node6&#45;&gt;Node12 -->
<g id="edge11" class="edge"><title>Node6&#45;&gt;Node12</title>
<path fill="none" stroke="midnightblue" d="M985.193,-145.475C1005.49,-135.409 1039.44,-118.579 1062.73,-107.03"/>
<polygon fill="midnightblue" stroke="midnightblue" points="1064.58,-110.017 1071.99,-102.439 1061.48,-103.745 1064.58,-110.017"/>
</g>
<!-- Node13 -->
<g id="node13" class="node"><title>Node13</title>
<g id="a_node13"><a xlink:href="adaptions__eigen_8h.html" target="_top" xlink:title="util/adaptions_eigen\l/adaptions_eigen.h">
<polygon fill="white" stroke="black" points="600.5,-78.5 600.5,-108.5 713.5,-108.5 713.5,-78.5 600.5,-78.5"/>
<text text-anchor="start" x="608.5" y="-96.5" font-family="Helvetica,sans-Serif" font-size="10.00">util/adaptions_eigen</text>
<text text-anchor="middle" x="657" y="-85.5" font-family="Helvetica,sans-Serif" font-size="10.00">/adaptions_eigen.h</text>
</a>
</g>
</g>
<!-- Node6&#45;&gt;Node13 -->
<g id="edge12" class="edge"><title>Node6&#45;&gt;Node13</title>
<path fill="none" stroke="midnightblue" d="M937.143,-149.625C890.95,-142.212 801.63,-126.473 721.762,-110.551"/>
<polygon fill="midnightblue" stroke="midnightblue" points="722.063,-107.042 711.57,-108.507 720.687,-113.905 722.063,-107.042"/>
</g>
<!-- Node13&#45;&gt;Node3 -->
<g id="edge13" class="edge"><title>Node13&#45;&gt;Node3</title>
<path fill="none" stroke="midnightblue" d="M713.47,-108.531C746.823,-119.875 779.719,-138.371 764,-165 733.624,-216.461 666.606,-243.508 622.655,-256.257"/>
<polygon fill="midnightblue" stroke="midnightblue" points="621.534,-252.936 612.833,-258.981 623.404,-259.681 621.534,-252.936"/>
</g>
<!-- Node13&#45;&gt;Node6 -->
<g id="edge14" class="edge"><title>Node13&#45;&gt;Node6</title>
<path fill="none" stroke="midnightblue" d="M713.831,-105.228C719.987,-106.531 726.135,-107.817 732,-109 800.524,-122.816 880.19,-137.125 927.344,-145.797"/>
<polygon fill="midnightblue" stroke="midnightblue" points="926.712,-149.239 937.181,-147.612 927.982,-142.355 926.712,-149.239"/>
</g>
<!-- Node13&#45;&gt;Node7 -->
<g id="edge16" class="edge"><title>Node13&#45;&gt;Node7</title>
<path fill="none" stroke="midnightblue" d="M701.324,-78.4872C742.834,-65.3643 804.146,-45.9808 843.071,-33.6749"/>
<polygon fill="midnightblue" stroke="midnightblue" points="844.46,-36.9066 852.94,-30.555 842.35,-30.2322 844.46,-36.9066"/>
</g>
<!-- Node13&#45;&gt;Node10 -->
<g id="edge17" class="edge"><title>Node13&#45;&gt;Node10</title>
<path fill="none" stroke="midnightblue" d="M713.835,-79.7754C716.932,-79.1566 720.002,-78.5604 723,-78 826.001,-58.7482 853.878,-65.4696 956,-42 965.992,-39.7036 976.684,-36.664 986.452,-33.6495"/>
<polygon fill="midnightblue" stroke="midnightblue" points="987.754,-36.9084 996.228,-30.5494 985.638,-30.2359 987.754,-36.9084"/>
</g>
<!-- Node13&#45;&gt;Node11 -->
<g id="edge20" class="edge"><title>Node13&#45;&gt;Node11</title>
<path fill="none" stroke="midnightblue" d="M713.801,-79.5773C716.906,-79.0095 719.988,-78.4786 723,-78 883.117,-52.5619 932.556,-94.3398 1086,-42 1090.26,-40.5486 1094.53,-38.4381 1098.5,-36.1262"/>
<polygon fill="midnightblue" stroke="midnightblue" points="1100.59,-38.9457 1107.09,-30.5817 1096.79,-33.0646 1100.59,-38.9457"/>
</g>
<!-- Node14 -->
<g id="node14" class="node"><title>Node14</title>
<g id="a_node14"><a xlink:href="transformation_8h.html" target="_top" xlink:title="transformation.h">
<polygon fill="white" stroke="black" points="541.5,-11.5 541.5,-30.5 638.5,-30.5 638.5,-11.5 541.5,-11.5"/>
<text text-anchor="middle" x="590" y="-18.5" font-family="Helvetica,sans-Serif" font-size="10.00">transformation.h</text>
</a>
</g>
</g>
<!-- Node13&#45;&gt;Node14 -->
<g id="edge15" class="edge"><title>Node13&#45;&gt;Node14</title>
<path fill="none" stroke="midnightblue" d="M643.442,-78.2333C632.506,-66.7261 617.112,-50.5283 605.653,-38.4707"/>
<polygon fill="midnightblue" stroke="midnightblue" points="607.878,-35.7308 598.452,-30.8932 602.803,-40.553 607.878,-35.7308"/>
</g>
<!-- Node15 -->
<g id="node15" class="node"><title>Node15</title>
<polygon fill="white" stroke="#bfbfbf" points="657,-11.5 657,-30.5 795,-30.5 795,-11.5 657,-11.5"/>
<text text-anchor="middle" x="726" y="-18.5" font-family="Helvetica,sans-Serif" font-size="10.00">eigen3/Eigen/Eigenvalues</text>
</g>
<!-- Node13&#45;&gt;Node15 -->
<g id="edge18" class="edge"><title>Node13&#45;&gt;Node15</title>
<path fill="none" stroke="midnightblue" d="M670.963,-78.2333C682.334,-66.6154 698.384,-50.2163 710.219,-38.1241"/>
<polygon fill="midnightblue" stroke="midnightblue" points="712.803,-40.488 717.296,-30.8932 707.8,-35.5917 712.803,-40.488"/>
</g>
<!-- Node16 -->
<g id="node16" class="node"><title>Node16</title>
<polygon fill="white" stroke="#bfbfbf" points="241.5,-11.5 241.5,-30.5 304.5,-30.5 304.5,-11.5 241.5,-11.5"/>
<text text-anchor="middle" x="273" y="-18.5" font-family="Helvetica,sans-Serif" font-size="10.00">functional</text>
</g>
<!-- Node13&#45;&gt;Node16 -->
<g id="edge19" class="edge"><title>Node13&#45;&gt;Node16</title>
<path fill="none" stroke="midnightblue" d="M600.281,-89.4913C531.284,-84.6232 411.897,-72.2844 314,-42 308.325,-40.2446 302.457,-37.8011 296.995,-35.2234"/>
<polygon fill="midnightblue" stroke="midnightblue" points="298.238,-31.9306 287.732,-30.5582 295.089,-38.1825 298.238,-31.9306"/>
</g>
<!-- Node17 -->
<g id="node17" class="node"><title>Node17</title>
<polygon fill="white" stroke="#bfbfbf" points="323,-11.5 323,-30.5 365,-30.5 365,-11.5 323,-11.5"/>
<text text-anchor="middle" x="344" y="-18.5" font-family="Helvetica,sans-Serif" font-size="10.00">limits</text>
</g>
<!-- Node13&#45;&gt;Node17 -->
<g id="edge21" class="edge"><title>Node13&#45;&gt;Node17</title>
<path fill="none" stroke="midnightblue" d="M600.352,-89.2281C541.84,-84.2971 448.783,-72.0684 374,-42 370.189,-40.4676 366.36,-38.4065 362.773,-36.1886"/>
<polygon fill="midnightblue" stroke="midnightblue" points="364.741,-33.2939 354.504,-30.5637 360.804,-39.0819 364.741,-33.2939"/>
</g>
<!-- Node18 -->
<g id="node18" class="node"><title>Node18</title>
<polygon fill="white" stroke="#bfbfbf" points="383,-0.5 383,-41.5 523,-41.5 523,-0.5 383,-0.5"/>
<text text-anchor="start" x="391" y="-29.5" font-family="Helvetica,sans-Serif" font-size="10.00">eigen3/unsupported</text>
<text text-anchor="start" x="391" y="-18.5" font-family="Helvetica,sans-Serif" font-size="10.00">/Eigen/src/MatrixFunctions</text>
<text text-anchor="middle" x="453" y="-7.5" font-family="Helvetica,sans-Serif" font-size="10.00">/MatrixExponential.h</text>
</g>
<!-- Node13&#45;&gt;Node18 -->
<g id="edge22" class="edge"><title>Node13&#45;&gt;Node18</title>
<path fill="none" stroke="midnightblue" d="M616.208,-78.4027C588.495,-68.8253 551.215,-55.9421 519.282,-44.9063"/>
<polygon fill="midnightblue" stroke="midnightblue" points="520.155,-41.5048 509.56,-41.5464 517.868,-48.1208 520.155,-41.5048"/>
</g>
<!-- Node22&#45;&gt;Node4 -->
<g id="edge29" class="edge"><title>Node22&#45;&gt;Node4</title>
<path fill="none" stroke="midnightblue" d="M322.496,-204.309C259.987,-197.521 156.16,-184.789 57.8647,-164.949"/>
<polygon fill="midnightblue" stroke="midnightblue" points="58.564,-161.52 48.0652,-162.944 57.1603,-168.378 58.564,-161.52"/>
</g>
<!-- Node23 -->
<g id="node23" class="node"><title>Node23</title>
<polygon fill="white" stroke="#bfbfbf" points="66,-145.5 66,-164.5 220,-164.5 220,-145.5 66,-145.5"/>
<text text-anchor="middle" x="143" y="-152.5" font-family="Helvetica,sans-Serif" font-size="10.00">carl/io/streamingOperators.h</text>
</g>
<!-- Node22&#45;&gt;Node23 -->
<g id="edge30" class="edge"><title>Node22&#45;&gt;Node23</title>
<path fill="none" stroke="midnightblue" d="M341.605,-201.444C300.608,-192.063 234.746,-176.993 190.216,-166.804"/>
<polygon fill="midnightblue" stroke="midnightblue" points="190.749,-163.335 180.22,-164.516 189.187,-170.159 190.749,-163.335"/>
</g>
<!-- Node24 -->
<g id="node24" class="node"><title>Node24</title>
<polygon fill="white" stroke="#bfbfbf" points="238.5,-145.5 238.5,-164.5 297.5,-164.5 297.5,-145.5 238.5,-145.5"/>
<text text-anchor="middle" x="268" y="-152.5" font-family="Helvetica,sans-Serif" font-size="10.00">iostream</text>
</g>
<!-- Node22&#45;&gt;Node24 -->
<g id="edge31" class="edge"><title>Node22&#45;&gt;Node24</title>
<path fill="none" stroke="midnightblue" d="M361.166,-201.324C343.284,-192.625 315.525,-179.12 294.954,-169.113"/>
<polygon fill="midnightblue" stroke="midnightblue" points="296.313,-165.882 285.79,-164.655 293.251,-172.177 296.313,-165.882"/>
</g>
<!-- Node25 -->
<g id="node25" class="node"><title>Node25</title>
<polygon fill="white" stroke="#bfbfbf" points="316,-145.5 316,-164.5 372,-164.5 372,-145.5 316,-145.5"/>
<text text-anchor="middle" x="344" y="-152.5" font-family="Helvetica,sans-Serif" font-size="10.00">sstream</text>
</g>
<!-- Node22&#45;&gt;Node25 -->
<g id="edge32" class="edge"><title>Node22&#45;&gt;Node25</title>
<path fill="none" stroke="midnightblue" d="M373.22,-201.083C368.328,-193.534 361.173,-182.495 355.167,-173.23"/>
<polygon fill="midnightblue" stroke="midnightblue" points="358.048,-171.239 349.672,-164.751 352.174,-175.046 358.048,-171.239"/>
</g>
<!-- Node26 -->
<g id="node26" class="node"><title>Node26</title>
<polygon fill="white" stroke="#bfbfbf" points="390,-145.5 390,-164.5 438,-164.5 438,-145.5 390,-145.5"/>
<text text-anchor="middle" x="414" y="-152.5" font-family="Helvetica,sans-Serif" font-size="10.00">thread</text>
</g>
<!-- Node22&#45;&gt;Node26 -->
<g id="edge33" class="edge"><title>Node22&#45;&gt;Node26</title>
<path fill="none" stroke="midnightblue" d="M384.78,-201.083C389.672,-193.534 396.827,-182.495 402.833,-173.23"/>
<polygon fill="midnightblue" stroke="midnightblue" points="405.826,-175.046 408.328,-164.751 399.952,-171.239 405.826,-175.046"/>
</g>
<!-- Node27 -->
<g id="node27" class="node"><title>Node27</title>
<polygon fill="white" stroke="#bfbfbf" points="456.5,-145.5 456.5,-164.5 581.5,-164.5 581.5,-145.5 456.5,-145.5"/>
<text text-anchor="middle" x="519" y="-152.5" font-family="Helvetica,sans-Serif" font-size="10.00">carl/core/carlLogging.h</text>
</g>
<!-- Node22&#45;&gt;Node27 -->
<g id="edge34" class="edge"><title>Node22&#45;&gt;Node27</title>
<path fill="none" stroke="midnightblue" d="M401.183,-201.444C424.428,-192.478 461.149,-178.314 487.415,-168.183"/>
<polygon fill="midnightblue" stroke="midnightblue" points="488.85,-171.381 496.92,-164.516 486.331,-164.85 488.85,-171.381"/>
</g>
<!-- Node28 -->
<g id="node28" class="node"><title>Node28</title>
<polygon fill="white" stroke="#bfbfbf" points="599.5,-145.5 599.5,-164.5 754.5,-164.5 754.5,-145.5 599.5,-145.5"/>
<text text-anchor="middle" x="677" y="-152.5" font-family="Helvetica,sans-Serif" font-size="10.00">carl/core/carlLoggingHelper.h</text>
</g>
<!-- Node22&#45;&gt;Node28 -->
<g id="edge35" class="edge"><title>Node22&#45;&gt;Node28</title>
<path fill="none" stroke="midnightblue" d="M426.219,-201.444C478.749,-191.925 563.61,-176.547 619.848,-166.356"/>
<polygon fill="midnightblue" stroke="midnightblue" points="620.786,-169.743 630.002,-164.516 619.538,-162.856 620.786,-169.743"/>
</g>
</g>
</svg>
        <g id="navigator" transform="translate(0 0)" fill="#404254">
                <rect fill="#f2f5e9" fill-opacity="0.5" stroke="#606060" stroke-width=".5" x="0" y="0" width="60" height="60"/>
                <use id="zoomplus" xlink:href="#zoomPlus" x="17" y="9" onmousedown="handleZoom(evt,'in')"/>
                <use id="zoomminus" xlink:href="#zoomMin" x="42" y="9" onmousedown="handleZoom(evt,'out')"/>
                <use id="reset" xlink:href="#resetDef" x="30" y="36" onmousedown="handleReset()"/>
                <g id="arrowUp" xlink:href="#dirArrow" transform="translate(30 24)" onmousedown="handlePan(0,-1)">
                  <use xlink:href="#rim" fill="#404040">
                        <set attributeName="fill" to="#808080" begin="arrowUp.mouseover" end="arrowUp.mouseout"/>
                  </use>
                  <path fill="none" stroke="white" stroke-width="1.5" d="M0,-3.0v7 M-2.5,-0.5L0,-3.0L2.5,-0.5"/>
                </g>
                <g id="arrowRight" xlink:href="#dirArrow" transform="rotate(90) translate(36 -43)" onmousedown="handlePan(1,0)">
                  <use xlink:href="#rim" fill="#404040">
                        <set attributeName="fill" to="#808080" begin="arrowRight.mouseover" end="arrowRight.mouseout"/>
                  </use>
                  <path fill="none" stroke="white" stroke-width="1.5" d="M0,-3.0v7 M-2.5,-0.5L0,-3.0L2.5,-0.5"/>
                </g>
                <g id="arrowDown" xlink:href="#dirArrow" transform="rotate(180) translate(-30 -48)" onmousedown="handlePan(0,1)">
                  <use xlink:href="#rim" fill="#404040">
                        <set attributeName="fill" to="#808080" begin="arrowDown.mouseover" end="arrowDown.mouseout"/>
                  </use>
                  <path fill="none" stroke="white" stroke-width="1.5" d="M0,-3.0v7 M-2.5,-0.5L0,-3.0L2.5,-0.5"/>
                </g>
                <g id="arrowLeft" xlink:href="#dirArrow" transform="rotate(270) translate(-36 17)" onmousedown="handlePan(-1,0)">
                  <use xlink:href="#rim" fill="#404040">
                        <set attributeName="fill" to="#808080" begin="arrowLeft.mouseover" end="arrowLeft.mouseout"/>
                  </use>
                  <path fill="none" stroke="white" stroke-width="1.5" d="M0,-3.0v7 M-2.5,-0.5L0,-3.0L2.5,-0.5"/>
                </g>
        </g>
        <svg viewBox="0 0 15 15" width="100%" height="30px" preserveAspectRatio="xMaxYMin meet">
         <g id="arrow_out" transform="scale(0.3 0.3)">
          <a xlink:href="templateDirections_8h__incl_org.svg" target="_base">
           <rect id="button" ry="5" rx="5" y="6" x="6" height="38" width="38"
                fill="#f2f5e9" fill-opacity="0.5" stroke="#606060" stroke-width="1.0"/>
           <path id="arrow"
             d="M 11.500037,31.436501 C 11.940474,20.09759 22.043105,11.32322 32.158766,21.979434 L 37.068811,17.246167 C 37.068811,17.246167 37.088388,32 37.088388,32 L 22.160133,31.978069 C 22.160133,31.978069 26.997745,27.140456 26.997745,27.140456 C 18.528582,18.264221 13.291696,25.230495 11.500037,31.436501 z"
             style="fill:#404040;"/>
          </a>
         </g>
        </svg>
</svg>
