<?xml version="1.0" encoding="UTF-8" standalone="no"?>
<!DOCTYPE svg PUBLIC "-//W3C//DTD SVG 1.1//EN"
 "http://www.w3.org/Graphics/SVG/1.1/DTD/svg11.dtd">
<!-- Generated by graphviz version 2.38.0 (20140413.2041)
 -->
<!-- Title: /home/travis/build/hypro/hypro/src/hypro/algorithms/reachability/handlers/timeEvolutionHandlers/timedElapseAfterTickTimeEvolutionHandler.h Pages: 1 -->
<svg width="579pt" height="706pt"
 viewBox="0.00 0.00 578.50 706.00" xmlns="http://www.w3.org/2000/svg" xmlns:xlink="http://www.w3.org/1999/xlink">
<g id="graph0" class="graph" transform="scale(1 1) rotate(0) translate(4 702)">
<title>/home/travis/build/hypro/hypro/src/hypro/algorithms/reachability/handlers/timeEvolutionHandlers/timedElapseAfterTickTimeEvolutionHandler.h</title>
<polygon fill="white" stroke="none" points="-4,4 -4,-702 574.5,-702 574.5,4 -4,4"/>
<!-- Node1 -->
<g id="node1" class="node"><title>Node1</title>
<polygon fill="#bfbfbf" stroke="black" points="186.5,-634.5 186.5,-697.5 419.5,-697.5 419.5,-634.5 186.5,-634.5"/>
<text text-anchor="start" x="194.5" y="-685.5" font-family="Helvetica,sans-Serif" font-size="10.00">/home/travis/build</text>
<text text-anchor="start" x="194.5" y="-674.5" font-family="Helvetica,sans-Serif" font-size="10.00">/hypro/hypro/src/hypro</text>
<text text-anchor="start" x="194.5" y="-663.5" font-family="Helvetica,sans-Serif" font-size="10.00">/algorithms/reachability</text>
<text text-anchor="start" x="194.5" y="-652.5" font-family="Helvetica,sans-Serif" font-size="10.00">/handlers/timeEvolutionHandlers</text>
<text text-anchor="middle" x="303" y="-641.5" font-family="Helvetica,sans-Serif" font-size="10.00">/timedElapseAfterTickTimeEvolutionHandler.h</text>
</g>
<!-- Node2 -->
<g id="node2" class="node"><title>Node2</title>
<g id="a_node2"><a xlink:href="TimeEvolutionHandlers_8h.html" target="_top" xlink:title="/home/travis/build\l/hypro/hypro/src/hypro\l/algorithms/reachability\l/handlers/timeEvolutionHandlers\l/TimeEvolutionHandlers.h">
<polygon fill="white" stroke="black" points="217,-534.5 217,-597.5 389,-597.5 389,-534.5 217,-534.5"/>
<text text-anchor="start" x="225" y="-585.5" font-family="Helvetica,sans-Serif" font-size="10.00">/home/travis/build</text>
<text text-anchor="start" x="225" y="-574.5" font-family="Helvetica,sans-Serif" font-size="10.00">/hypro/hypro/src/hypro</text>
<text text-anchor="start" x="225" y="-563.5" font-family="Helvetica,sans-Serif" font-size="10.00">/algorithms/reachability</text>
<text text-anchor="start" x="225" y="-552.5" font-family="Helvetica,sans-Serif" font-size="10.00">/handlers/timeEvolutionHandlers</text>
<text text-anchor="middle" x="303" y="-541.5" font-family="Helvetica,sans-Serif" font-size="10.00">/TimeEvolutionHandlers.h</text>
</a>
</g>
</g>
<!-- Node1&#45;&gt;Node2 -->
<g id="edge1" class="edge"><title>Node1&#45;&gt;Node2</title>
<path fill="none" stroke="midnightblue" d="M303,-624.099C303,-615.238 303,-606.015 303,-597.63"/>
<polygon fill="midnightblue" stroke="midnightblue" points="299.5,-624.261 303,-634.261 306.5,-624.261 299.5,-624.261"/>
</g>
<!-- Node3 -->
<g id="node3" class="node"><title>Node3</title>
<g id="a_node3"><a xlink:href="HandlerFactory_8h.html" target="_top" xlink:title="/home/travis/build\l/hypro/hypro/src/hypro\l/algorithms/reachability\l/handlers/HandlerFactory.h">
<polygon fill="white" stroke="black" points="231.5,-445.5 231.5,-497.5 374.5,-497.5 374.5,-445.5 231.5,-445.5"/>
<text text-anchor="start" x="239.5" y="-485.5" font-family="Helvetica,sans-Serif" font-size="10.00">/home/travis/build</text>
<text text-anchor="start" x="239.5" y="-474.5" font-family="Helvetica,sans-Serif" font-size="10.00">/hypro/hypro/src/hypro</text>
<text text-anchor="start" x="239.5" y="-463.5" font-family="Helvetica,sans-Serif" font-size="10.00">/algorithms/reachability</text>
<text text-anchor="middle" x="303" y="-452.5" font-family="Helvetica,sans-Serif" font-size="10.00">/handlers/HandlerFactory.h</text>
</a>
</g>
</g>
<!-- Node2&#45;&gt;Node3 -->
<g id="edge2" class="edge"><title>Node2&#45;&gt;Node3</title>
<path fill="none" stroke="midnightblue" d="M303,-524.423C303,-515.359 303,-505.999 303,-497.766"/>
<polygon fill="midnightblue" stroke="midnightblue" points="299.5,-524.456 303,-534.456 306.5,-524.456 299.5,-524.456"/>
</g>
<!-- Node4 -->
<g id="node4" class="node"><title>Node4</title>
<g id="a_node4"><a xlink:href="LTIContext_8h.html" target="_top" xlink:title="/home/travis/build\l/hypro/hypro/src/hypro\l/algorithms/reachability\l/contexts/LTIContext.h">
<polygon fill="white" stroke="black" points="80,-356.5 80,-408.5 208,-408.5 208,-356.5 80,-356.5"/>
<text text-anchor="start" x="88" y="-396.5" font-family="Helvetica,sans-Serif" font-size="10.00">/home/travis/build</text>
<text text-anchor="start" x="88" y="-385.5" font-family="Helvetica,sans-Serif" font-size="10.00">/hypro/hypro/src/hypro</text>
<text text-anchor="start" x="88" y="-374.5" font-family="Helvetica,sans-Serif" font-size="10.00">/algorithms/reachability</text>
<text text-anchor="middle" x="144" y="-363.5" font-family="Helvetica,sans-Serif" font-size="10.00">/contexts/LTIContext.h</text>
</a>
</g>
</g>
<!-- Node3&#45;&gt;Node4 -->
<g id="edge3" class="edge"><title>Node3&#45;&gt;Node4</title>
<path fill="none" stroke="midnightblue" d="M248.162,-440.494C229.166,-430.101 208.086,-418.566 189.886,-408.607"/>
<polygon fill="midnightblue" stroke="midnightblue" points="246.558,-443.606 257.011,-445.336 249.918,-437.465 246.558,-443.606"/>
</g>
<!-- Node9 -->
<g id="node9" class="node"><title>Node9</title>
<g id="a_node9"><a xlink:href="TimedContext_8h.html" target="_top" xlink:title="/home/travis/build\l/hypro/hypro/src/hypro\l/algorithms/reachability\l/contexts/TimedContext.h">
<polygon fill="white" stroke="black" points="166,-267.5 166,-319.5 306,-319.5 306,-267.5 166,-267.5"/>
<text text-anchor="start" x="174" y="-307.5" font-family="Helvetica,sans-Serif" font-size="10.00">/home/travis/build</text>
<text text-anchor="start" x="174" y="-296.5" font-family="Helvetica,sans-Serif" font-size="10.00">/hypro/hypro/src/hypro</text>
<text text-anchor="start" x="174" y="-285.5" font-family="Helvetica,sans-Serif" font-size="10.00">/algorithms/reachability</text>
<text text-anchor="middle" x="236" y="-274.5" font-family="Helvetica,sans-Serif" font-size="10.00">/contexts/TimedContext.h</text>
</a>
</g>
</g>
<!-- Node3&#45;&gt;Node9 -->
<g id="edge13" class="edge"><title>Node3&#45;&gt;Node9</title>
<path fill="none" stroke="midnightblue" d="M272.389,-437.439C265.727,-428.728 259.373,-418.962 255,-409 242.286,-380.031 238.02,-343.53 236.622,-319.63"/>
<polygon fill="midnightblue" stroke="midnightblue" points="269.825,-439.836 278.816,-445.441 275.282,-435.452 269.825,-439.836"/>
</g>
<!-- Node10 -->
<g id="node10" class="node"><title>Node10</title>
<g id="a_node10"><a xlink:href="ltiJumpHandler_8h.html" target="_top" xlink:title="/home/travis/build\l/hypro/hypro/src/hypro\l/algorithms/reachability\l/handlers/jumpHandlers/ltiJumpHandler.h">
<polygon fill="white" stroke="black" points="264,-356.5 264,-408.5 476,-408.5 476,-356.5 264,-356.5"/>
<text text-anchor="start" x="272" y="-396.5" font-family="Helvetica,sans-Serif" font-size="10.00">/home/travis/build</text>
<text text-anchor="start" x="272" y="-385.5" font-family="Helvetica,sans-Serif" font-size="10.00">/hypro/hypro/src/hypro</text>
<text text-anchor="start" x="272" y="-374.5" font-family="Helvetica,sans-Serif" font-size="10.00">/algorithms/reachability</text>
<text text-anchor="middle" x="370" y="-363.5" font-family="Helvetica,sans-Serif" font-size="10.00">/handlers/jumpHandlers/ltiJumpHandler.h</text>
</a>
</g>
</g>
<!-- Node3&#45;&gt;Node10 -->
<g id="edge10" class="edge"><title>Node3&#45;&gt;Node10</title>
<path fill="none" stroke="midnightblue" d="M328.633,-437.215C335.948,-427.717 343.793,-417.529 350.664,-408.607"/>
<polygon fill="midnightblue" stroke="midnightblue" points="325.708,-435.278 322.379,-445.336 331.254,-439.549 325.708,-435.278"/>
</g>
<!-- Node5 -->
<g id="node5" class="node"><title>Node5</title>
<g id="a_node5"><a xlink:href="ContextFactory_8h.html" target="_top" xlink:title="/home/travis/build\l/hypro/hypro/src/hypro\l/algorithms/reachability\l/contexts/ContextFactory.h">
<polygon fill="white" stroke="black" points="115.5,-178.5 115.5,-230.5 258.5,-230.5 258.5,-178.5 115.5,-178.5"/>
<text text-anchor="start" x="123.5" y="-218.5" font-family="Helvetica,sans-Serif" font-size="10.00">/home/travis/build</text>
<text text-anchor="start" x="123.5" y="-207.5" font-family="Helvetica,sans-Serif" font-size="10.00">/hypro/hypro/src/hypro</text>
<text text-anchor="start" x="123.5" y="-196.5" font-family="Helvetica,sans-Serif" font-size="10.00">/algorithms/reachability</text>
<text text-anchor="middle" x="187" y="-185.5" font-family="Helvetica,sans-Serif" font-size="10.00">/contexts/ContextFactory.h</text>
</a>
</g>
</g>
<!-- Node4&#45;&gt;Node5 -->
<g id="edge4" class="edge"><title>Node4&#45;&gt;Node5</title>
<path fill="none" stroke="midnightblue" d="M144.897,-346.464C146.231,-323.481 149.431,-292.985 157,-267 160.621,-254.568 166.598,-241.573 172.267,-230.749"/>
<polygon fill="midnightblue" stroke="midnightblue" points="141.401,-346.292 144.406,-356.452 148.392,-346.636 141.401,-346.292"/>
</g>
<!-- Node4&#45;&gt;Node9 -->
<g id="edge8" class="edge"><title>Node4&#45;&gt;Node9</title>
<path fill="none" stroke="midnightblue" d="M177.984,-349.363C188.369,-339.542 199.634,-328.89 209.45,-319.607"/>
<polygon fill="midnightblue" stroke="midnightblue" points="175.471,-346.922 170.61,-356.336 180.281,-352.008 175.471,-346.922"/>
</g>
<!-- Node6 -->
<g id="node6" class="node"><title>Node6</title>
<g id="a_node6"><a xlink:href="ContextBasedReachabilityWorker_8h.html" target="_top" xlink:title="/home/travis/build\l/hypro/hypro/src/hypro\l/algorithms/reachability\l/workers/ContextBasedReachability\lWorker.h">
<polygon fill="white" stroke="black" points="95.5,-78.5 95.5,-141.5 278.5,-141.5 278.5,-78.5 95.5,-78.5"/>
<text text-anchor="start" x="103.5" y="-129.5" font-family="Helvetica,sans-Serif" font-size="10.00">/home/travis/build</text>
<text text-anchor="start" x="103.5" y="-118.5" font-family="Helvetica,sans-Serif" font-size="10.00">/hypro/hypro/src/hypro</text>
<text text-anchor="start" x="103.5" y="-107.5" font-family="Helvetica,sans-Serif" font-size="10.00">/algorithms/reachability</text>
<text text-anchor="start" x="103.5" y="-96.5" font-family="Helvetica,sans-Serif" font-size="10.00">/workers/ContextBasedReachability</text>
<text text-anchor="middle" x="187" y="-85.5" font-family="Helvetica,sans-Serif" font-size="10.00">Worker.h</text>
</a>
</g>
</g>
<!-- Node5&#45;&gt;Node6 -->
<g id="edge5" class="edge"><title>Node5&#45;&gt;Node6</title>
<path fill="none" stroke="midnightblue" d="M187,-167.945C187,-159.226 187,-149.97 187,-141.512"/>
<polygon fill="midnightblue" stroke="midnightblue" points="183.5,-168.224 187,-178.224 190.5,-168.224 183.5,-168.224"/>
</g>
<!-- Node7 -->
<g id="node7" class="node"><title>Node7</title>
<g id="a_node7"><a xlink:href="example__rectangularReachability_8cpp.html" target="_top" xlink:title="/home/travis/build\l/hypro/hypro/examples\l/example_rectangularReachability.cpp">
<polygon fill="white" stroke="black" points="0,-0.5 0,-41.5 196,-41.5 196,-0.5 0,-0.5"/>
<text text-anchor="start" x="8" y="-29.5" font-family="Helvetica,sans-Serif" font-size="10.00">/home/travis/build</text>
<text text-anchor="start" x="8" y="-18.5" font-family="Helvetica,sans-Serif" font-size="10.00">/hypro/hypro/examples</text>
<text text-anchor="middle" x="98" y="-7.5" font-family="Helvetica,sans-Serif" font-size="10.00">/example_rectangularReachability.cpp</text>
</a>
</g>
</g>
<!-- Node6&#45;&gt;Node7 -->
<g id="edge6" class="edge"><title>Node6&#45;&gt;Node7</title>
<path fill="none" stroke="midnightblue" d="M148.453,-71.3196C137.952,-61.0544 127.001,-50.3491 117.995,-41.5457"/>
<polygon fill="midnightblue" stroke="midnightblue" points="146.024,-73.8396 155.622,-78.3271 150.918,-68.8339 146.024,-73.8396"/>
</g>
<!-- Node8 -->
<g id="node8" class="node"><title>Node8</title>
<g id="a_node8"><a xlink:href="example__worker_8cpp.html" target="_top" xlink:title="/home/travis/build\l/hypro/hypro/examples\l/example_worker.cpp">
<polygon fill="white" stroke="black" points="214,-0.5 214,-41.5 340,-41.5 340,-0.5 214,-0.5"/>
<text text-anchor="start" x="222" y="-29.5" font-family="Helvetica,sans-Serif" font-size="10.00">/home/travis/build</text>
<text text-anchor="start" x="222" y="-18.5" font-family="Helvetica,sans-Serif" font-size="10.00">/hypro/hypro/examples</text>
<text text-anchor="middle" x="277" y="-7.5" font-family="Helvetica,sans-Serif" font-size="10.00">/example_worker.cpp</text>
</a>
</g>
</g>
<!-- Node6&#45;&gt;Node8 -->
<g id="edge7" class="edge"><title>Node6&#45;&gt;Node8</title>
<path fill="none" stroke="midnightblue" d="M225.98,-71.3196C236.599,-61.0544 247.673,-50.3491 256.78,-41.5457"/>
<polygon fill="midnightblue" stroke="midnightblue" points="223.488,-68.8603 218.731,-78.3271 228.353,-73.8933 223.488,-68.8603"/>
</g>
<!-- Node9&#45;&gt;Node5 -->
<g id="edge9" class="edge"><title>Node9&#45;&gt;Node5</title>
<path fill="none" stroke="midnightblue" d="M216.766,-258.35C211.557,-249.1 206.014,-239.259 201.141,-230.607"/>
<polygon fill="midnightblue" stroke="midnightblue" points="213.87,-260.34 221.827,-267.336 219.969,-256.905 213.87,-260.34"/>
</g>
<!-- Node11 -->
<g id="node11" class="node"><title>Node11</title>
<g id="a_node11"><a xlink:href="JumpHandlers_8h.html" target="_top" xlink:title="/home/travis/build\l/hypro/hypro/src/hypro\l/algorithms/reachability\l/handlers/jumpHandlers/JumpHandlers.h">
<polygon fill="white" stroke="black" points="361.5,-267.5 361.5,-319.5 570.5,-319.5 570.5,-267.5 361.5,-267.5"/>
<text text-anchor="start" x="369.5" y="-307.5" font-family="Helvetica,sans-Serif" font-size="10.00">/home/travis/build</text>
<text text-anchor="start" x="369.5" y="-296.5" font-family="Helvetica,sans-Serif" font-size="10.00">/hypro/hypro/src/hypro</text>
<text text-anchor="start" x="369.5" y="-285.5" font-family="Helvetica,sans-Serif" font-size="10.00">/algorithms/reachability</text>
<text text-anchor="middle" x="466" y="-274.5" font-family="Helvetica,sans-Serif" font-size="10.00">/handlers/jumpHandlers/JumpHandlers.h</text>
</a>
</g>
</g>
<!-- Node10&#45;&gt;Node11 -->
<g id="edge11" class="edge"><title>Node10&#45;&gt;Node11</title>
<path fill="none" stroke="midnightblue" d="M405.461,-349.363C416.298,-339.542 428.052,-328.89 438.295,-319.607"/>
<polygon fill="midnightblue" stroke="midnightblue" points="402.827,-347.027 397.767,-356.336 407.527,-352.214 402.827,-347.027"/>
</g>
<!-- Node11&#45;&gt;Node3 -->
<g id="edge12" class="edge"><title>Node11&#45;&gt;Node3</title>
<path fill="none" stroke="midnightblue" d="M484.033,-328.954C494.093,-353.412 501.595,-385.876 485,-409 460.012,-443.82 414.254,-459.179 374.872,-465.841"/>
<polygon fill="midnightblue" stroke="midnightblue" points="487.18,-327.415 479.942,-319.678 480.775,-330.24 487.18,-327.415"/>
</g>
</g>
</svg>
