<?xml version="1.0" encoding="UTF-8" standalone="no"?>
<!DOCTYPE svg PUBLIC "-//W3C//DTD SVG 1.1//EN"
 "http://www.w3.org/Graphics/SVG/1.1/DTD/svg11.dtd">
<!-- Generated by graphviz version 2.38.0 (20140413.2041)
 -->
<!-- Title: /home/travis/build/hypro/hypro/src/hypro/algorithms/reachability/TrafoParameters.h Pages: 1 -->
<svg width="1959pt" height="441pt"
 viewBox="0.00 0.00 1958.50 441.00" xmlns="http://www.w3.org/2000/svg" xmlns:xlink="http://www.w3.org/1999/xlink">
<g id="graph0" class="graph" transform="scale(1 1) rotate(0) translate(4 437)">
<title>/home/travis/build/hypro/hypro/src/hypro/algorithms/reachability/TrafoParameters.h</title>
<polygon fill="white" stroke="none" points="-4,4 -4,-437 1954.5,-437 1954.5,4 -4,4"/>
<!-- Node1 -->
<g id="node1" class="node"><title>Node1</title>
<polygon fill="#bfbfbf" stroke="black" points="486.5,-380.5 486.5,-432.5 614.5,-432.5 614.5,-380.5 486.5,-380.5"/>
<text text-anchor="start" x="494.5" y="-420.5" font-family="Helvetica,sans-Serif" font-size="10.00">/home/travis/build</text>
<text text-anchor="start" x="494.5" y="-409.5" font-family="Helvetica,sans-Serif" font-size="10.00">/hypro/hypro/src/hypro</text>
<text text-anchor="start" x="494.5" y="-398.5" font-family="Helvetica,sans-Serif" font-size="10.00">/algorithms/reachability</text>
<text text-anchor="middle" x="550.5" y="-387.5" font-family="Helvetica,sans-Serif" font-size="10.00">/TrafoParameters.h</text>
</g>
<!-- Node2 -->
<g id="node2" class="node"><title>Node2</title>
<g id="a_node2"><a xlink:href="representations_2SupportFunction_2util_8h.html" target="_top" xlink:title="../../representations\l/SupportFunction/util.h">
<polygon fill="white" stroke="black" points="533.5,-313.5 533.5,-343.5 657.5,-343.5 657.5,-313.5 533.5,-313.5"/>
<text text-anchor="start" x="541.5" y="-331.5" font-family="Helvetica,sans-Serif" font-size="10.00">../../representations</text>
<text text-anchor="middle" x="595.5" y="-320.5" font-family="Helvetica,sans-Serif" font-size="10.00">/SupportFunction/util.h</text>
</a>
</g>
</g>
<!-- Node1&#45;&gt;Node2 -->
<g id="edge1" class="edge"><title>Node1&#45;&gt;Node2</title>
<path fill="none" stroke="midnightblue" d="M565.484,-380.193C570.742,-371.314 576.617,-361.391 581.767,-352.694"/>
<polygon fill="midnightblue" stroke="midnightblue" points="584.923,-354.233 587.006,-343.845 578.899,-350.667 584.923,-354.233"/>
</g>
<!-- Node6 -->
<g id="node6" class="node"><title>Node6</title>
<g id="a_node6"><a xlink:href="types_8h.html" target="_top" xlink:title="../types.h">
<polygon fill="white" stroke="black" points="649,-145.5 649,-164.5 710,-164.5 710,-145.5 649,-145.5"/>
<text text-anchor="middle" x="679.5" y="-152.5" font-family="Helvetica,sans-Serif" font-size="10.00">../types.h</text>
</a>
</g>
</g>
<!-- Node1&#45;&gt;Node6 -->
<g id="edge38" class="edge"><title>Node1&#45;&gt;Node6</title>
<path fill="none" stroke="midnightblue" d="M534.48,-380.242C524.616,-361.344 515.442,-335.068 524.5,-313 551.45,-247.343 620.592,-194.479 656.729,-170.287"/>
<polygon fill="midnightblue" stroke="midnightblue" points="658.712,-173.172 665.159,-164.764 654.876,-167.317 658.712,-173.172"/>
</g>
<!-- Node3 -->
<g id="node3" class="node"><title>Node3</title>
<g id="a_node3"><a xlink:href="config_8h.html" target="_top" xlink:title="../../config.h">
<polygon fill="white" stroke="black" points="972.5,-257.5 972.5,-276.5 1044.5,-276.5 1044.5,-257.5 972.5,-257.5"/>
<text text-anchor="middle" x="1008.5" y="-264.5" font-family="Helvetica,sans-Serif" font-size="10.00">../../config.h</text>
</a>
</g>
</g>
<!-- Node2&#45;&gt;Node3 -->
<g id="edge2" class="edge"><title>Node2&#45;&gt;Node3</title>
<path fill="none" stroke="midnightblue" d="M657.777,-318.528C741.39,-306.482 888.012,-285.358 962.404,-274.641"/>
<polygon fill="midnightblue" stroke="midnightblue" points="963.009,-278.09 972.407,-273.2 962.01,-271.162 963.009,-278.09"/>
</g>
<!-- Node2&#45;&gt;Node6 -->
<g id="edge36" class="edge"><title>Node2&#45;&gt;Node6</title>
<path fill="none" stroke="midnightblue" d="M602.374,-313.465C617.572,-282.436 654.006,-208.049 670.779,-173.806"/>
<polygon fill="midnightblue" stroke="midnightblue" points="674.052,-175.08 675.307,-164.56 667.766,-172.001 674.052,-175.08"/>
</g>
<!-- Node13 -->
<g id="node13" class="node"><title>Node13</title>
<g id="a_node13"><a xlink:href="adaptions__eigen_8h.html" target="_top" xlink:title="util/adaptions_eigen\l/adaptions_eigen.h">
<polygon fill="white" stroke="black" points="456,-78.5 456,-108.5 569,-108.5 569,-78.5 456,-78.5"/>
<text text-anchor="start" x="464" y="-96.5" font-family="Helvetica,sans-Serif" font-size="10.00">util/adaptions_eigen</text>
<text text-anchor="middle" x="512.5" y="-85.5" font-family="Helvetica,sans-Serif" font-size="10.00">/adaptions_eigen.h</text>
</a>
</g>
</g>
<!-- Node2&#45;&gt;Node13 -->
<g id="edge37" class="edge"><title>Node2&#45;&gt;Node13</title>
<path fill="none" stroke="midnightblue" d="M590.433,-313.276C576.595,-274.43 538.057,-166.244 520.911,-118.112"/>
<polygon fill="midnightblue" stroke="midnightblue" points="524.154,-116.784 517.501,-108.538 517.559,-119.133 524.154,-116.784"/>
</g>
<!-- Node4 -->
<g id="node4" class="node"><title>Node4</title>
<g id="a_node4"><a xlink:href="flags_8h.html" target="_top" xlink:title="flags.h">
<polygon fill="white" stroke="black" points="1195.5,-145.5 1195.5,-164.5 1243.5,-164.5 1243.5,-145.5 1195.5,-145.5"/>
<text text-anchor="middle" x="1219.5" y="-152.5" font-family="Helvetica,sans-Serif" font-size="10.00">flags.h</text>
</a>
</g>
</g>
<!-- Node3&#45;&gt;Node4 -->
<g id="edge3" class="edge"><title>Node3&#45;&gt;Node4</title>
<path fill="none" stroke="midnightblue" d="M1025.06,-257.368C1061.8,-238.211 1150.38,-192.036 1194.15,-169.217"/>
<polygon fill="midnightblue" stroke="midnightblue" points="1195.77,-172.318 1203.02,-164.591 1192.53,-166.111 1195.77,-172.318"/>
</g>
<!-- Node5 -->
<g id="node5" class="node"><title>Node5</title>
<g id="a_node5"><a xlink:href="util_2convenienceOperators_8h.html" target="_top" xlink:title="util/convenienceOperators.h">
<polygon fill="white" stroke="black" points="933,-201.5 933,-220.5 1084,-220.5 1084,-201.5 933,-201.5"/>
<text text-anchor="middle" x="1008.5" y="-208.5" font-family="Helvetica,sans-Serif" font-size="10.00">util/convenienceOperators.h</text>
</a>
</g>
</g>
<!-- Node3&#45;&gt;Node5 -->
<g id="edge4" class="edge"><title>Node3&#45;&gt;Node5</title>
<path fill="none" stroke="midnightblue" d="M1008.5,-257.083C1008.5,-250.006 1008.5,-239.861 1008.5,-230.986"/>
<polygon fill="midnightblue" stroke="midnightblue" points="1012,-230.751 1008.5,-220.751 1005,-230.751 1012,-230.751"/>
</g>
<!-- Node22 -->
<g id="node22" class="node"><title>Node22</title>
<g id="a_node22"><a xlink:href="Logger_8h.html" target="_top" xlink:title="util/logging/Logger.h">
<polygon fill="white" stroke="black" points="1413,-201.5 1413,-220.5 1526,-220.5 1526,-201.5 1413,-201.5"/>
<text text-anchor="middle" x="1469.5" y="-208.5" font-family="Helvetica,sans-Serif" font-size="10.00">util/logging/Logger.h</text>
</a>
</g>
</g>
<!-- Node3&#45;&gt;Node22 -->
<g id="edge28" class="edge"><title>Node3&#45;&gt;Node22</title>
<path fill="none" stroke="midnightblue" d="M1044.67,-261.763C1121.86,-252.722 1303.69,-231.422 1402.6,-219.837"/>
<polygon fill="midnightblue" stroke="midnightblue" points="1403.25,-223.284 1412.78,-218.644 1402.44,-216.332 1403.25,-223.284"/>
</g>
<!-- Node5&#45;&gt;Node6 -->
<g id="edge5" class="edge"><title>Node5&#45;&gt;Node6</title>
<path fill="none" stroke="midnightblue" d="M956.369,-201.444C890.904,-190.699 779.958,-172.489 720.321,-162.7"/>
<polygon fill="midnightblue" stroke="midnightblue" points="720.59,-159.197 710.155,-161.032 719.456,-166.105 720.59,-159.197"/>
</g>
<!-- Node11 -->
<g id="node11" class="node"><title>Node11</title>
<polygon fill="white" stroke="#bfbfbf" points="853.5,-11.5 853.5,-30.5 899.5,-30.5 899.5,-11.5 853.5,-11.5"/>
<text text-anchor="middle" x="876.5" y="-18.5" font-family="Helvetica,sans-Serif" font-size="10.00">iosfwd</text>
</g>
<!-- Node5&#45;&gt;Node11 -->
<g id="edge23" class="edge"><title>Node5&#45;&gt;Node11</title>
<path fill="none" stroke="midnightblue" d="M1007.98,-201.323C1006.2,-178.706 998.71,-116.995 968.5,-78 953.246,-58.3103 928.959,-43.9493 909.168,-34.7025"/>
<polygon fill="midnightblue" stroke="midnightblue" points="910.432,-31.4346 899.873,-30.5731 907.59,-37.8317 910.432,-31.4346"/>
</g>
<!-- Node12 -->
<g id="node12" class="node"><title>Node12</title>
<polygon fill="white" stroke="#bfbfbf" points="927.5,-84 927.5,-103 959.5,-103 959.5,-84 927.5,-84"/>
<text text-anchor="middle" x="943.5" y="-91" font-family="Helvetica,sans-Serif" font-size="10.00">set</text>
</g>
<!-- Node5&#45;&gt;Node12 -->
<g id="edge25" class="edge"><title>Node5&#45;&gt;Node12</title>
<path fill="none" stroke="midnightblue" d="M999.955,-201.316C991.812,-192.679 979.621,-178.763 971.5,-165 961.687,-148.37 953.929,-127.662 949.092,-113.003"/>
<polygon fill="midnightblue" stroke="midnightblue" points="952.326,-111.622 945.976,-103.141 945.651,-113.731 952.326,-111.622"/>
</g>
<!-- Node19 -->
<g id="node19" class="node"><title>Node19</title>
<polygon fill="white" stroke="#bfbfbf" points="1013.5,-145.5 1013.5,-164.5 1051.5,-164.5 1051.5,-145.5 1013.5,-145.5"/>
<text text-anchor="middle" x="1032.5" y="-152.5" font-family="Helvetica,sans-Serif" font-size="10.00">map</text>
</g>
<!-- Node5&#45;&gt;Node19 -->
<g id="edge24" class="edge"><title>Node5&#45;&gt;Node19</title>
<path fill="none" stroke="midnightblue" d="M1012.46,-201.083C1015.71,-193.77 1020.42,-183.181 1024.45,-174.103"/>
<polygon fill="midnightblue" stroke="midnightblue" points="1027.75,-175.311 1028.61,-164.751 1021.35,-172.468 1027.75,-175.311"/>
</g>
<!-- Node20 -->
<g id="node20" class="node"><title>Node20</title>
<polygon fill="white" stroke="#bfbfbf" points="1069.5,-145.5 1069.5,-164.5 1111.5,-164.5 1111.5,-145.5 1069.5,-145.5"/>
<text text-anchor="middle" x="1090.5" y="-152.5" font-family="Helvetica,sans-Serif" font-size="10.00">utility</text>
</g>
<!-- Node5&#45;&gt;Node20 -->
<g id="edge26" class="edge"><title>Node5&#45;&gt;Node20</title>
<path fill="none" stroke="midnightblue" d="M1021.67,-201.324C1034.35,-192.979 1053.73,-180.212 1068.71,-170.352"/>
<polygon fill="midnightblue" stroke="midnightblue" points="1070.93,-173.078 1077.36,-164.655 1067.08,-167.231 1070.93,-173.078"/>
</g>
<!-- Node21 -->
<g id="node21" class="node"><title>Node21</title>
<polygon fill="white" stroke="#bfbfbf" points="1130,-145.5 1130,-164.5 1177,-164.5 1177,-145.5 1130,-145.5"/>
<text text-anchor="middle" x="1153.5" y="-152.5" font-family="Helvetica,sans-Serif" font-size="10.00">vector</text>
</g>
<!-- Node5&#45;&gt;Node21 -->
<g id="edge27" class="edge"><title>Node5&#45;&gt;Node21</title>
<path fill="none" stroke="midnightblue" d="M1031.48,-201.444C1055.66,-192.438 1093.92,-178.189 1121.15,-168.049"/>
<polygon fill="midnightblue" stroke="midnightblue" points="1122.48,-171.286 1130.63,-164.516 1120.04,-164.727 1122.48,-171.286"/>
</g>
<!-- Node7 -->
<g id="node7" class="node"><title>Node7</title>
<polygon fill="white" stroke="#bfbfbf" points="701.5,-11.5 701.5,-30.5 835.5,-30.5 835.5,-11.5 701.5,-11.5"/>
<text text-anchor="middle" x="768.5" y="-18.5" font-family="Helvetica,sans-Serif" font-size="10.00">carl/numbers/numbers.h</text>
</g>
<!-- Node6&#45;&gt;Node7 -->
<g id="edge6" class="edge"><title>Node6&#45;&gt;Node7</title>
<path fill="none" stroke="midnightblue" d="M673.187,-145.396C663.186,-130.618 646.135,-99.8928 659.5,-78 672.983,-55.9147 698.258,-42.1745 721.076,-33.8351"/>
<polygon fill="midnightblue" stroke="midnightblue" points="722.318,-37.1098 730.664,-30.5831 720.07,-30.4808 722.318,-37.1098"/>
</g>
<!-- Node8 -->
<g id="node8" class="node"><title>Node8</title>
<polygon fill="white" stroke="#bfbfbf" points="701.5,-84 701.5,-103 787.5,-103 787.5,-84 701.5,-84"/>
<text text-anchor="middle" x="744.5" y="-91" font-family="Helvetica,sans-Serif" font-size="10.00">carl/util/hash.h</text>
</g>
<!-- Node6&#45;&gt;Node8 -->
<g id="edge7" class="edge"><title>Node6&#45;&gt;Node8</title>
<path fill="none" stroke="midnightblue" d="M688.813,-145.475C698.949,-136.197 715.364,-121.171 727.752,-109.831"/>
<polygon fill="midnightblue" stroke="midnightblue" points="730.191,-112.343 735.204,-103.009 725.465,-107.18 730.191,-112.343"/>
</g>
<!-- Node9 -->
<g id="node9" class="node"><title>Node9</title>
<polygon fill="white" stroke="#bfbfbf" points="805.5,-84 805.5,-103 909.5,-103 909.5,-84 805.5,-84"/>
<text text-anchor="middle" x="857.5" y="-91" font-family="Helvetica,sans-Serif" font-size="10.00">eigen3/Eigen/Core</text>
</g>
<!-- Node6&#45;&gt;Node9 -->
<g id="edge8" class="edge"><title>Node6&#45;&gt;Node9</title>
<path fill="none" stroke="midnightblue" d="M705.003,-145.475C735.801,-135.18 787.765,-117.81 822.348,-106.25"/>
<polygon fill="midnightblue" stroke="midnightblue" points="823.67,-109.499 832.044,-103.009 821.45,-102.86 823.67,-109.499"/>
</g>
<!-- Node10 -->
<g id="node10" class="node"><title>Node10</title>
<polygon fill="white" stroke="#bfbfbf" points="571.5,-11.5 571.5,-30.5 683.5,-30.5 683.5,-11.5 571.5,-11.5"/>
<text text-anchor="middle" x="627.5" y="-18.5" font-family="Helvetica,sans-Serif" font-size="10.00">eigen3/Eigen/Dense</text>
</g>
<!-- Node6&#45;&gt;Node10 -->
<g id="edge9" class="edge"><title>Node6&#45;&gt;Node10</title>
<path fill="none" stroke="midnightblue" d="M661.111,-145.471C647.399,-137.997 629.685,-125.71 621.5,-109 610.861,-87.2795 615.836,-58.7889 621.081,-40.4358"/>
<polygon fill="midnightblue" stroke="midnightblue" points="624.483,-41.2891 624.165,-30.699 617.809,-39.1757 624.483,-41.2891"/>
</g>
<!-- Node6&#45;&gt;Node11 -->
<g id="edge10" class="edge"><title>Node6&#45;&gt;Node11</title>
<path fill="none" stroke="midnightblue" d="M678.204,-145.394C676.377,-129.772 675.001,-96.6406 692.5,-78 740.016,-27.3843 780.437,-68.7521 844.5,-42 848.401,-40.3709 852.369,-38.2923 856.122,-36.0943"/>
<polygon fill="midnightblue" stroke="midnightblue" points="858.269,-38.8775 864.848,-30.5726 854.526,-32.9623 858.269,-38.8775"/>
</g>
<!-- Node6&#45;&gt;Node12 -->
<g id="edge11" class="edge"><title>Node6&#45;&gt;Node12</title>
<path fill="none" stroke="midnightblue" d="M710.191,-151.568C756.556,-147.159 846.668,-135.698 918.5,-109 919.535,-108.615 920.576,-108.19 921.616,-107.733"/>
<polygon fill="midnightblue" stroke="midnightblue" points="923.401,-110.75 930.679,-103.05 920.188,-104.531 923.401,-110.75"/>
</g>
<!-- Node6&#45;&gt;Node13 -->
<g id="edge12" class="edge"><title>Node6&#45;&gt;Node13</title>
<path fill="none" stroke="midnightblue" d="M650.672,-145.475C624.474,-136.814 585.668,-123.145 555.788,-112.141"/>
<polygon fill="midnightblue" stroke="midnightblue" points="556.622,-108.718 546.029,-108.523 554.188,-115.281 556.622,-108.718"/>
</g>
<!-- Node13&#45;&gt;Node3 -->
<g id="edge13" class="edge"><title>Node13&#45;&gt;Node3</title>
<path fill="none" stroke="midnightblue" d="M534.179,-108.656C558.842,-124.249 600.733,-149.202 639.5,-165 751.766,-210.75 891.524,-242.605 962.501,-257.122"/>
<polygon fill="midnightblue" stroke="midnightblue" points="961.967,-260.585 972.462,-259.137 963.355,-253.724 961.967,-260.585"/>
</g>
<!-- Node13&#45;&gt;Node6 -->
<g id="edge14" class="edge"><title>Node13&#45;&gt;Node6</title>
<path fill="none" stroke="midnightblue" d="M557.689,-108.523C587.413,-118.647 625.313,-132.182 650.957,-141.847"/>
<polygon fill="midnightblue" stroke="midnightblue" points="649.883,-145.184 660.474,-145.475 652.376,-138.643 649.883,-145.184"/>
</g>
<!-- Node13&#45;&gt;Node7 -->
<g id="edge16" class="edge"><title>Node13&#45;&gt;Node7</title>
<path fill="none" stroke="midnightblue" d="M563.383,-78.4872C611.542,-65.2247 682.921,-45.5677 727.523,-33.2846"/>
<polygon fill="midnightblue" stroke="midnightblue" points="728.723,-36.5845 737.435,-30.555 726.865,-29.8357 728.723,-36.5845"/>
</g>
<!-- Node13&#45;&gt;Node10 -->
<g id="edge17" class="edge"><title>Node13&#45;&gt;Node10</title>
<path fill="none" stroke="midnightblue" d="M535.496,-78.4027C555.64,-66.0533 584.75,-48.2075 604.805,-35.9132"/>
<polygon fill="midnightblue" stroke="midnightblue" points="606.884,-38.744 613.58,-30.5336 603.225,-32.7762 606.884,-38.744"/>
</g>
<!-- Node13&#45;&gt;Node11 -->
<g id="edge20" class="edge"><title>Node13&#45;&gt;Node11</title>
<path fill="none" stroke="midnightblue" d="M569.223,-86.683C650.348,-77.8866 795.159,-60.2782 844.5,-42 848.647,-40.4638 852.832,-38.3473 856.746,-36.0632"/>
<polygon fill="midnightblue" stroke="midnightblue" points="858.708,-38.9629 865.244,-30.624 854.934,-33.0672 858.708,-38.9629"/>
</g>
<!-- Node14 -->
<g id="node14" class="node"><title>Node14</title>
<g id="a_node14"><a xlink:href="transformation_8h.html" target="_top" xlink:title="transformation.h">
<polygon fill="white" stroke="black" points="0,-11.5 0,-30.5 97,-30.5 97,-11.5 0,-11.5"/>
<text text-anchor="middle" x="48.5" y="-18.5" font-family="Helvetica,sans-Serif" font-size="10.00">transformation.h</text>
</a>
</g>
</g>
<!-- Node13&#45;&gt;Node14 -->
<g id="edge15" class="edge"><title>Node13&#45;&gt;Node14</title>
<path fill="none" stroke="midnightblue" d="M455.696,-89.179C376.589,-83.7099 229.144,-70.4452 106.5,-42 97.6254,-39.9417 88.2065,-37.0262 79.5978,-34.0561"/>
<polygon fill="midnightblue" stroke="midnightblue" points="80.5396,-30.6756 69.9451,-30.5925 78.1753,-37.2643 80.5396,-30.6756"/>
</g>
<!-- Node15 -->
<g id="node15" class="node"><title>Node15</title>
<polygon fill="white" stroke="#bfbfbf" points="115.5,-11.5 115.5,-30.5 253.5,-30.5 253.5,-11.5 115.5,-11.5"/>
<text text-anchor="middle" x="184.5" y="-18.5" font-family="Helvetica,sans-Serif" font-size="10.00">eigen3/Eigen/Eigenvalues</text>
</g>
<!-- Node13&#45;&gt;Node15 -->
<g id="edge18" class="edge"><title>Node13&#45;&gt;Node15</title>
<path fill="none" stroke="midnightblue" d="M455.726,-81.899C404.938,-72.2095 328.537,-57.1255 262.5,-42 250.696,-39.2963 237.949,-36.1323 226.249,-33.1292"/>
<polygon fill="midnightblue" stroke="midnightblue" points="226.846,-29.6682 216.287,-30.5471 225.089,-36.4442 226.846,-29.6682"/>
</g>
<!-- Node16 -->
<g id="node16" class="node"><title>Node16</title>
<polygon fill="white" stroke="#bfbfbf" points="272,-11.5 272,-30.5 335,-30.5 335,-11.5 272,-11.5"/>
<text text-anchor="middle" x="303.5" y="-18.5" font-family="Helvetica,sans-Serif" font-size="10.00">functional</text>
</g>
<!-- Node13&#45;&gt;Node16 -->
<g id="edge19" class="edge"><title>Node13&#45;&gt;Node16</title>
<path fill="none" stroke="midnightblue" d="M457.647,-78.43C424.447,-69.3208 381.513,-56.4806 344.5,-42 339.376,-39.9955 334.014,-37.6061 328.921,-35.1884"/>
<polygon fill="midnightblue" stroke="midnightblue" points="330.107,-31.8715 319.589,-30.5978 327.017,-38.1526 330.107,-31.8715"/>
</g>
<!-- Node17 -->
<g id="node17" class="node"><title>Node17</title>
<polygon fill="white" stroke="#bfbfbf" points="353.5,-11.5 353.5,-30.5 395.5,-30.5 395.5,-11.5 353.5,-11.5"/>
<text text-anchor="middle" x="374.5" y="-18.5" font-family="Helvetica,sans-Serif" font-size="10.00">limits</text>
</g>
<!-- Node13&#45;&gt;Node17 -->
<g id="edge21" class="edge"><title>Node13&#45;&gt;Node17</title>
<path fill="none" stroke="midnightblue" d="M478.762,-78.2939C457.128,-68.8039 428.67,-55.6053 404.5,-42 401.35,-40.2268 398.094,-38.2358 394.941,-36.2155"/>
<polygon fill="midnightblue" stroke="midnightblue" points="396.764,-33.2243 386.499,-30.6009 392.887,-39.053 396.764,-33.2243"/>
</g>
<!-- Node18 -->
<g id="node18" class="node"><title>Node18</title>
<polygon fill="white" stroke="#bfbfbf" points="413.5,-0.5 413.5,-41.5 553.5,-41.5 553.5,-0.5 413.5,-0.5"/>
<text text-anchor="start" x="421.5" y="-29.5" font-family="Helvetica,sans-Serif" font-size="10.00">eigen3/unsupported</text>
<text text-anchor="start" x="421.5" y="-18.5" font-family="Helvetica,sans-Serif" font-size="10.00">/Eigen/src/MatrixFunctions</text>
<text text-anchor="middle" x="483.5" y="-7.5" font-family="Helvetica,sans-Serif" font-size="10.00">/MatrixExponential.h</text>
</g>
<!-- Node13&#45;&gt;Node18 -->
<g id="edge22" class="edge"><title>Node13&#45;&gt;Node18</title>
<path fill="none" stroke="midnightblue" d="M506.631,-78.2333C503.413,-70.4095 499.303,-60.4173 495.442,-51.0324"/>
<polygon fill="midnightblue" stroke="midnightblue" points="498.599,-49.5051 491.558,-41.5884 492.125,-52.1681 498.599,-49.5051"/>
</g>
<!-- Node22&#45;&gt;Node4 -->
<g id="edge29" class="edge"><title>Node22&#45;&gt;Node4</title>
<path fill="none" stroke="midnightblue" d="M1424.44,-201.498C1382.57,-193.41 1318.27,-180.513 1253.57,-165.145"/>
<polygon fill="midnightblue" stroke="midnightblue" points="1254.15,-161.684 1243.61,-162.759 1252.52,-168.491 1254.15,-161.684"/>
</g>
<!-- Node23 -->
<g id="node23" class="node"><title>Node23</title>
<polygon fill="white" stroke="#bfbfbf" points="1644.5,-145.5 1644.5,-164.5 1798.5,-164.5 1798.5,-145.5 1644.5,-145.5"/>
<text text-anchor="middle" x="1721.5" y="-152.5" font-family="Helvetica,sans-Serif" font-size="10.00">carl/io/streamingOperators.h</text>
</g>
<!-- Node22&#45;&gt;Node23 -->
<g id="edge30" class="edge"><title>Node22&#45;&gt;Node23</title>
<path fill="none" stroke="midnightblue" d="M1509.43,-201.444C1553.39,-192.023 1624.13,-176.866 1671.68,-166.675"/>
<polygon fill="midnightblue" stroke="midnightblue" points="1672.71,-170.034 1681.76,-164.516 1671.25,-163.189 1672.71,-170.034"/>
</g>
<!-- Node24 -->
<g id="node24" class="node"><title>Node24</title>
<polygon fill="white" stroke="#bfbfbf" points="1817,-145.5 1817,-164.5 1876,-164.5 1876,-145.5 1817,-145.5"/>
<text text-anchor="middle" x="1846.5" y="-152.5" font-family="Helvetica,sans-Serif" font-size="10.00">iostream</text>
</g>
<!-- Node22&#45;&gt;Node24 -->
<g id="edge31" class="edge"><title>Node22&#45;&gt;Node24</title>
<path fill="none" stroke="midnightblue" d="M1526.27,-204.1C1591.53,-196.947 1702.03,-183.704 1806.65,-164.998"/>
<polygon fill="midnightblue" stroke="midnightblue" points="1807.53,-168.394 1816.75,-163.17 1806.29,-161.506 1807.53,-168.394"/>
</g>
<!-- Node25 -->
<g id="node25" class="node"><title>Node25</title>
<polygon fill="white" stroke="#bfbfbf" points="1894.5,-145.5 1894.5,-164.5 1950.5,-164.5 1950.5,-145.5 1894.5,-145.5"/>
<text text-anchor="middle" x="1922.5" y="-152.5" font-family="Helvetica,sans-Serif" font-size="10.00">sstream</text>
</g>
<!-- Node22&#45;&gt;Node25 -->
<g id="edge32" class="edge"><title>Node22&#45;&gt;Node25</title>
<path fill="none" stroke="midnightblue" d="M1526.01,-206.243C1604.38,-200.514 1750.59,-187.946 1884.29,-165.004"/>
<polygon fill="midnightblue" stroke="midnightblue" points="1885.05,-168.425 1894.3,-163.263 1883.85,-161.528 1885.05,-168.425"/>
</g>
<!-- Node26 -->
<g id="node26" class="node"><title>Node26</title>
<polygon fill="white" stroke="#bfbfbf" points="1261.5,-145.5 1261.5,-164.5 1309.5,-164.5 1309.5,-145.5 1261.5,-145.5"/>
<text text-anchor="middle" x="1285.5" y="-152.5" font-family="Helvetica,sans-Serif" font-size="10.00">thread</text>
</g>
<!-- Node22&#45;&gt;Node26 -->
<g id="edge33" class="edge"><title>Node22&#45;&gt;Node26</title>
<path fill="none" stroke="midnightblue" d="M1440.34,-201.444C1407.42,-191.78 1353.92,-176.08 1319.22,-165.897"/>
<polygon fill="midnightblue" stroke="midnightblue" points="1320.12,-162.511 1309.53,-163.054 1318.14,-169.228 1320.12,-162.511"/>
</g>
<!-- Node27 -->
<g id="node27" class="node"><title>Node27</title>
<polygon fill="white" stroke="#bfbfbf" points="1328,-145.5 1328,-164.5 1453,-164.5 1453,-145.5 1328,-145.5"/>
<text text-anchor="middle" x="1390.5" y="-152.5" font-family="Helvetica,sans-Serif" font-size="10.00">carl/core/carlLogging.h</text>
</g>
<!-- Node22&#45;&gt;Node27 -->
<g id="edge34" class="edge"><title>Node22&#45;&gt;Node27</title>
<path fill="none" stroke="midnightblue" d="M1456.81,-201.324C1444.6,-192.979 1425.92,-180.212 1411.5,-170.352"/>
<polygon fill="midnightblue" stroke="midnightblue" points="1413.39,-167.408 1403.16,-164.655 1409.44,-173.187 1413.39,-167.408"/>
</g>
<!-- Node28 -->
<g id="node28" class="node"><title>Node28</title>
<polygon fill="white" stroke="#bfbfbf" points="1471,-145.5 1471,-164.5 1626,-164.5 1626,-145.5 1471,-145.5"/>
<text text-anchor="middle" x="1548.5" y="-152.5" font-family="Helvetica,sans-Serif" font-size="10.00">carl/core/carlLoggingHelper.h</text>
</g>
<!-- Node22&#45;&gt;Node28 -->
<g id="edge35" class="edge"><title>Node22&#45;&gt;Node28</title>
<path fill="none" stroke="midnightblue" d="M1482.19,-201.324C1494.4,-192.979 1513.08,-180.212 1527.5,-170.352"/>
<polygon fill="midnightblue" stroke="midnightblue" points="1529.56,-173.187 1535.84,-164.655 1525.61,-167.408 1529.56,-173.187"/>
</g>
</g>
</svg>
