<?xml version="1.0" encoding="UTF-8" standalone="no"?>
<!DOCTYPE svg PUBLIC "-//W3C//DTD SVG 1.1//EN"
 "http://www.w3.org/Graphics/SVG/1.1/DTD/svg11.dtd">
<!-- Generated by graphviz version 2.38.0 (20140413.2041)
 -->
<!-- Title: /home/travis/build/hypro/hypro/src/hypro/algorithms/eigendecomposition/Transformation.h Pages: 1 -->
<svg width="178pt" height="139pt"
 viewBox="0.00 0.00 178.00 139.00" xmlns="http://www.w3.org/2000/svg" xmlns:xlink="http://www.w3.org/1999/xlink">
<g id="graph0" class="graph" transform="scale(1 1) rotate(0) translate(4 135)">
<title>/home/travis/build/hypro/hypro/src/hypro/algorithms/eigendecomposition/Transformation.h</title>
<polygon fill="white" stroke="none" points="-4,4 -4,-135 174,-135 174,4 -4,4"/>
<!-- Node1 -->
<g id="node1" class="node"><title>Node1</title>
<polygon fill="#bfbfbf" stroke="black" points="0,-78.5 0,-130.5 170,-130.5 170,-78.5 0,-78.5"/>
<text text-anchor="start" x="8" y="-118.5" font-family="Helvetica,sans-Serif" font-size="10.00">/home/travis/build</text>
<text text-anchor="start" x="8" y="-107.5" font-family="Helvetica,sans-Serif" font-size="10.00">/hypro/hypro/src/hypro</text>
<text text-anchor="start" x="8" y="-96.5" font-family="Helvetica,sans-Serif" font-size="10.00">/algorithms/eigendecomposition</text>
<text text-anchor="middle" x="85" y="-85.5" font-family="Helvetica,sans-Serif" font-size="10.00">/Transformation.h</text>
</g>
<!-- Node2 -->
<g id="node2" class="node"><title>Node2</title>
<g id="a_node2"><a xlink:href="example__eigenSimpleFlow_8cpp.html" target="_top" xlink:title="/home/travis/build\l/hypro/hypro/examples\l/example_eigenSimpleFlow.cpp">
<polygon fill="white" stroke="black" points="2.5,-0.5 2.5,-41.5 167.5,-41.5 167.5,-0.5 2.5,-0.5"/>
<text text-anchor="start" x="10.5" y="-29.5" font-family="Helvetica,sans-Serif" font-size="10.00">/home/travis/build</text>
<text text-anchor="start" x="10.5" y="-18.5" font-family="Helvetica,sans-Serif" font-size="10.00">/hypro/hypro/examples</text>
<text text-anchor="middle" x="85" y="-7.5" font-family="Helvetica,sans-Serif" font-size="10.00">/example_eigenSimpleFlow.cpp</text>
</a>
</g>
</g>
<!-- Node1&#45;&gt;Node2 -->
<g id="edge1" class="edge"><title>Node1&#45;&gt;Node2</title>
<path fill="none" stroke="midnightblue" d="M85,-68.1474C85,-59.0546 85,-49.5968 85,-41.6282"/>
<polygon fill="midnightblue" stroke="midnightblue" points="81.5001,-68.1596 85,-78.1596 88.5001,-68.1597 81.5001,-68.1596"/>
</g>
</g>
</svg>
