<?xml version="1.0" encoding="UTF-8" standalone="no"?>
<!DOCTYPE svg PUBLIC "-//W3C//DTD SVG 1.1//EN"
 "http://www.w3.org/Graphics/SVG/1.1/DTD/svg11.dtd">
<!-- Generated by graphviz version 2.38.0 (20140413.2041)
 -->
<!-- Title: /home/travis/build/hypro/hypro/src/hypro/datastructures/reachability/TreeNode.h Pages: 1 -->
<!--zoomable 1040 -->
<svg id="main" version="1.1" xmlns="http://www.w3.org/2000/svg" xmlns:xlink="http://www.w3.org/1999/xlink" xml:space="preserve" onload="init(evt)">
<style type="text/css"><![CDATA[
.edge:hover path { stroke: red; }
.edge:hover polygon { stroke: red; fill: red; }
]]></style>
<script type="text/javascript"><![CDATA[
var edges = document.getElementsByTagName('g');
if (edges && edges.length) {
  for (var i=0;i<edges.length;i++) {
    if (edges[i].id.substr(0,4)=='edge') {
      edges[i].setAttribute('class','edge');
    }
  }
}
]]></script>
        <defs>
                <circle id="rim" cx="0" cy="0" r="7"/>
                <circle id="rim2" cx="0" cy="0" r="3.5"/>
                <g id="zoomPlus">
                        <use xlink:href="#rim" fill="#404040">
                                <set attributeName="fill" to="#808080" begin="zoomplus.mouseover" end="zoomplus.mouseout"/>
                        </use>
                        <path d="M-4,0h8M0,-4v8" fill="none" stroke="white" stroke-width="1.5" pointer-events="none"/>
                </g>
                <g id="zoomMin">
                        <use xlink:href="#rim" fill="#404040">
                                <set attributeName="fill" to="#808080" begin="zoomminus.mouseover" end="zoomminus.mouseout"/>
                        </use>
                        <path d="M-4,0h8" fill="none" stroke="white" stroke-width="1.5" pointer-events="none"/>
                </g>
                <g id="dirArrow">
                        <path fill="none" stroke="white" stroke-width="1.5" d="M0,-3.0v7 M-2.5,-0.5L0,-3.0L2.5,-0.5"/>
                </g>
               <g id="resetDef">
                       <use xlink:href="#rim2" fill="#404040">
                               <set attributeName="fill" to="#808080" begin="reset.mouseover" end="reset.mouseout"/>
                       </use>
               </g>
        </defs>

<script type="text/javascript">
var viewWidth = 783;
var viewHeight = 1040;
var sectionId = 'dynsection-1';
</script>
<script xlink:href="svgpan.js"/>
<svg id="graph" class="graph">
<g id="viewport">
<title>/home/travis/build/hypro/hypro/src/hypro/datastructures/reachability/TreeNode.h</title>
<polygon fill="white" stroke="none" points="-4,4 -4,-1036 779.301,-1036 779.301,4 -4,4"/>
<!-- Node1 -->
<g id="node1" class="node"><title>Node1</title>
<polygon fill="#bfbfbf" stroke="black" points="190.301,-979.5 190.301,-1031.5 338.301,-1031.5 338.301,-979.5 190.301,-979.5"/>
<text text-anchor="start" x="198.301" y="-1019.5" font-family="Helvetica,sans-Serif" font-size="10.00">/home/travis/build</text>
<text text-anchor="start" x="198.301" y="-1008.5" font-family="Helvetica,sans-Serif" font-size="10.00">/hypro/hypro/src/hypro</text>
<text text-anchor="start" x="198.301" y="-997.5" font-family="Helvetica,sans-Serif" font-size="10.00">/datastructures/reachability</text>
<text text-anchor="middle" x="264.301" y="-986.5" font-family="Helvetica,sans-Serif" font-size="10.00">/TreeNode.h</text>
</g>
<!-- Node2 -->
<g id="node2" class="node"><title>Node2</title>
<g id="a_node2"><a xlink:href="ReachTreeNode_8h.html" target="_top" xlink:title="/home/travis/build\l/hypro/hypro/src/hypro\l/datastructures/reachability\l/ReachTreeNode.h">
<polygon fill="white" stroke="black" points="190.301,-890.5 190.301,-942.5 338.301,-942.5 338.301,-890.5 190.301,-890.5"/>
<text text-anchor="start" x="198.301" y="-930.5" font-family="Helvetica,sans-Serif" font-size="10.00">/home/travis/build</text>
<text text-anchor="start" x="198.301" y="-919.5" font-family="Helvetica,sans-Serif" font-size="10.00">/hypro/hypro/src/hypro</text>
<text text-anchor="start" x="198.301" y="-908.5" font-family="Helvetica,sans-Serif" font-size="10.00">/datastructures/reachability</text>
<text text-anchor="middle" x="264.301" y="-897.5" font-family="Helvetica,sans-Serif" font-size="10.00">/ReachTreeNode.h</text>
</a>
</g>
</g>
<!-- Node1&#45;&gt;Node2 -->
<g id="edge1" class="edge"><title>Node1&#45;&gt;Node2</title>
<path fill="none" stroke="midnightblue" d="M264.301,-969.191C264.301,-960.282 264.301,-950.899 264.301,-942.607"/>
<polygon fill="midnightblue" stroke="midnightblue" points="260.801,-969.336 264.301,-979.336 267.801,-969.336 260.801,-969.336"/>
</g>
<!-- Node3 -->
<g id="node3" class="node"><title>Node3</title>
<g id="a_node3"><a xlink:href="Task_8h.html" target="_top" xlink:title="/home/travis/build\l/hypro/hypro/src/hypro\l/datastructures/reachability\l/Task.h">
<polygon fill="white" stroke="black" points="399.301,-712.5 399.301,-764.5 547.301,-764.5 547.301,-712.5 399.301,-712.5"/>
<text text-anchor="start" x="407.301" y="-752.5" font-family="Helvetica,sans-Serif" font-size="10.00">/home/travis/build</text>
<text text-anchor="start" x="407.301" y="-741.5" font-family="Helvetica,sans-Serif" font-size="10.00">/hypro/hypro/src/hypro</text>
<text text-anchor="start" x="407.301" y="-730.5" font-family="Helvetica,sans-Serif" font-size="10.00">/datastructures/reachability</text>
<text text-anchor="middle" x="473.301" y="-719.5" font-family="Helvetica,sans-Serif" font-size="10.00">/Task.h</text>
</a>
</g>
</g>
<!-- Node2&#45;&gt;Node3 -->
<g id="edge2" class="edge"><title>Node2&#45;&gt;Node3</title>
<path fill="none" stroke="midnightblue" d="M335.563,-885.912C352.784,-877.023 370.479,-866.305 385.301,-854 416.165,-828.377 442.824,-790.056 458.478,-764.919"/>
<polygon fill="midnightblue" stroke="midnightblue" points="333.992,-882.784 326.618,-890.393 337.127,-889.043 333.992,-882.784"/>
</g>
<!-- Node11 -->
<g id="node11" class="node"><title>Node11</title>
<g id="a_node11"><a xlink:href="ltiJumpHandler_8h.html" target="_top" xlink:title="/home/travis/build\l/hypro/hypro/src/hypro\l/algorithms/reachability\l/handlers/jumpHandlers/ltiJumpHandler.h">
<polygon fill="white" stroke="black" points="101.301,-623.5 101.301,-675.5 313.301,-675.5 313.301,-623.5 101.301,-623.5"/>
<text text-anchor="start" x="109.301" y="-663.5" font-family="Helvetica,sans-Serif" font-size="10.00">/home/travis/build</text>
<text text-anchor="start" x="109.301" y="-652.5" font-family="Helvetica,sans-Serif" font-size="10.00">/hypro/hypro/src/hypro</text>
<text text-anchor="start" x="109.301" y="-641.5" font-family="Helvetica,sans-Serif" font-size="10.00">/algorithms/reachability</text>
<text text-anchor="middle" x="207.301" y="-630.5" font-family="Helvetica,sans-Serif" font-size="10.00">/handlers/jumpHandlers/ltiJumpHandler.h</text>
</a>
</g>
</g>
<!-- Node2&#45;&gt;Node11 -->
<g id="edge32" class="edge"><title>Node2&#45;&gt;Node11</title>
<path fill="none" stroke="midnightblue" d="M324.809,-884.365C335.48,-876.009 345.134,-865.911 351.301,-854 362.131,-833.082 360.075,-822.861 351.301,-801 329.818,-747.472 279.205,-702.222 244.101,-675.715"/>
<polygon fill="midnightblue" stroke="midnightblue" points="322.519,-881.703 316.492,-890.417 326.638,-887.364 322.519,-881.703"/>
</g>
<!-- Node14 -->
<g id="node14" class="node"><title>Node14</title>
<g id="a_node14"><a xlink:href="ReachTree_8h.html" target="_top" xlink:title="/home/travis/build\l/hypro/hypro/src/hypro\l/datastructures/reachability\l/ReachTree.h">
<polygon fill="white" stroke="black" points="19.3009,-801.5 19.3009,-853.5 167.301,-853.5 167.301,-801.5 19.3009,-801.5"/>
<text text-anchor="start" x="27.3009" y="-841.5" font-family="Helvetica,sans-Serif" font-size="10.00">/home/travis/build</text>
<text text-anchor="start" x="27.3009" y="-830.5" font-family="Helvetica,sans-Serif" font-size="10.00">/hypro/hypro/src/hypro</text>
<text text-anchor="start" x="27.3009" y="-819.5" font-family="Helvetica,sans-Serif" font-size="10.00">/datastructures/reachability</text>
<text text-anchor="middle" x="93.3009" y="-808.5" font-family="Helvetica,sans-Serif" font-size="10.00">/ReachTree.h</text>
</a>
</g>
</g>
<!-- Node2&#45;&gt;Node14 -->
<g id="edge26" class="edge"><title>Node2&#45;&gt;Node14</title>
<path fill="none" stroke="midnightblue" d="M205.878,-885.776C185.306,-875.309 162.401,-863.656 142.65,-853.607"/>
<polygon fill="midnightblue" stroke="midnightblue" points="204.341,-888.921 214.841,-890.336 207.515,-882.682 204.341,-888.921"/>
</g>
<!-- Node15 -->
<g id="node15" class="node"><title>Node15</title>
<g id="a_node15"><a xlink:href="NodeManager_8h.html" target="_top" xlink:title="/home/travis/build\l/hypro/hypro/src/hypro\l/datastructures/reachability\l/NodeManager.h">
<polygon fill="white" stroke="black" points="65.3009,-712.5 65.3009,-764.5 213.301,-764.5 213.301,-712.5 65.3009,-712.5"/>
<text text-anchor="start" x="73.3009" y="-752.5" font-family="Helvetica,sans-Serif" font-size="10.00">/home/travis/build</text>
<text text-anchor="start" x="73.3009" y="-741.5" font-family="Helvetica,sans-Serif" font-size="10.00">/hypro/hypro/src/hypro</text>
<text text-anchor="start" x="73.3009" y="-730.5" font-family="Helvetica,sans-Serif" font-size="10.00">/datastructures/reachability</text>
<text text-anchor="middle" x="139.301" y="-719.5" font-family="Helvetica,sans-Serif" font-size="10.00">/NodeManager.h</text>
</a>
</g>
</g>
<!-- Node2&#45;&gt;Node15 -->
<g id="edge31" class="edge"><title>Node2&#45;&gt;Node15</title>
<path fill="none" stroke="midnightblue" d="M180.293,-906.32C114.717,-897.219 31.3152,-880.71 10.3009,-854 -4.26434,-835.487 -2.27061,-820.92 10.3009,-801 22.8139,-781.172 43.667,-767.602 64.9977,-758.373"/>
<polygon fill="midnightblue" stroke="midnightblue" points="179.862,-909.794 190.24,-907.664 180.799,-902.857 179.862,-909.794"/>
</g>
<!-- Node16 -->
<g id="node16" class="node"><title>Node16</title>
<g id="a_node16"><a xlink:href="algorithms_2reachability_2handlers_2jumpHandlers_2util_8h.html" target="_top" xlink:title="/home/travis/build\l/hypro/hypro/src/hypro\l/algorithms/reachability\l/handlers/jumpHandlers/util.h">
<polygon fill="white" stroke="black" points="185.801,-801.5 185.801,-853.5 342.801,-853.5 342.801,-801.5 185.801,-801.5"/>
<text text-anchor="start" x="193.801" y="-841.5" font-family="Helvetica,sans-Serif" font-size="10.00">/home/travis/build</text>
<text text-anchor="start" x="193.801" y="-830.5" font-family="Helvetica,sans-Serif" font-size="10.00">/hypro/hypro/src/hypro</text>
<text text-anchor="start" x="193.801" y="-819.5" font-family="Helvetica,sans-Serif" font-size="10.00">/algorithms/reachability</text>
<text text-anchor="middle" x="264.301" y="-808.5" font-family="Helvetica,sans-Serif" font-size="10.00">/handlers/jumpHandlers/util.h</text>
</a>
</g>
</g>
<!-- Node2&#45;&gt;Node16 -->
<g id="edge33" class="edge"><title>Node2&#45;&gt;Node16</title>
<path fill="none" stroke="midnightblue" d="M264.301,-880.191C264.301,-871.282 264.301,-861.899 264.301,-853.607"/>
<polygon fill="midnightblue" stroke="midnightblue" points="260.801,-880.336 264.301,-890.336 267.801,-880.336 260.801,-880.336"/>
</g>
<!-- Node4 -->
<g id="node4" class="node"><title>Node4</title>
<g id="a_node4"><a xlink:href="ContextFactory_8h.html" target="_top" xlink:title="/home/travis/build\l/hypro/hypro/src/hypro\l/algorithms/reachability\l/contexts/ContextFactory.h">
<polygon fill="white" stroke="black" points="429.801,-178.5 429.801,-230.5 572.801,-230.5 572.801,-178.5 429.801,-178.5"/>
<text text-anchor="start" x="437.801" y="-218.5" font-family="Helvetica,sans-Serif" font-size="10.00">/home/travis/build</text>
<text text-anchor="start" x="437.801" y="-207.5" font-family="Helvetica,sans-Serif" font-size="10.00">/hypro/hypro/src/hypro</text>
<text text-anchor="start" x="437.801" y="-196.5" font-family="Helvetica,sans-Serif" font-size="10.00">/algorithms/reachability</text>
<text text-anchor="middle" x="501.301" y="-185.5" font-family="Helvetica,sans-Serif" font-size="10.00">/contexts/ContextFactory.h</text>
</a>
</g>
</g>
<!-- Node3&#45;&gt;Node4 -->
<g id="edge3" class="edge"><title>Node3&#45;&gt;Node4</title>
<path fill="none" stroke="midnightblue" d="M494.496,-703.444C521.148,-658.42 565.454,-575.689 582.301,-498 604.021,-397.841 545.98,-281.033 516.84,-230.691"/>
<polygon fill="midnightblue" stroke="midnightblue" points="491.388,-701.821 489.254,-712.199 497.394,-705.417 491.388,-701.821"/>
</g>
<!-- Node5 -->
<g id="node5" class="node"><title>Node5</title>
<g id="a_node5"><a xlink:href="ContextBasedReachabilityWorker_8h.html" target="_top" xlink:title="/home/travis/build\l/hypro/hypro/src/hypro\l/algorithms/reachability\l/workers/ContextBasedReachability\lWorker.h">
<polygon fill="white" stroke="black" points="465.801,-78.5 465.801,-141.5 648.801,-141.5 648.801,-78.5 465.801,-78.5"/>
<text text-anchor="start" x="473.801" y="-129.5" font-family="Helvetica,sans-Serif" font-size="10.00">/home/travis/build</text>
<text text-anchor="start" x="473.801" y="-118.5" font-family="Helvetica,sans-Serif" font-size="10.00">/hypro/hypro/src/hypro</text>
<text text-anchor="start" x="473.801" y="-107.5" font-family="Helvetica,sans-Serif" font-size="10.00">/algorithms/reachability</text>
<text text-anchor="start" x="473.801" y="-96.5" font-family="Helvetica,sans-Serif" font-size="10.00">/workers/ContextBasedReachability</text>
<text text-anchor="middle" x="557.301" y="-85.5" font-family="Helvetica,sans-Serif" font-size="10.00">Worker.h</text>
</a>
</g>
</g>
<!-- Node3&#45;&gt;Node5 -->
<g id="edge23" class="edge"><title>Node3&#45;&gt;Node5</title>
<path fill="none" stroke="midnightblue" d="M530.996,-706.978C578.924,-676.992 639.301,-626.348 639.301,-561.5 639.301,-561.5 639.301,-561.5 639.301,-292.5 639.301,-235.275 605.03,-176.184 580.799,-141.556"/>
<polygon fill="midnightblue" stroke="midnightblue" points="528.925,-704.141 522.208,-712.335 532.569,-710.118 528.925,-704.141"/>
</g>
<!-- Node6 -->
<g id="node6" class="node"><title>Node6</title>
<g id="a_node6"><a xlink:href="example__rectangularReachability_8cpp.html" target="_top" xlink:title="/home/travis/build\l/hypro/hypro/examples\l/example_rectangularReachability.cpp">
<polygon fill="white" stroke="black" points="579.301,-0.5 579.301,-41.5 775.301,-41.5 775.301,-0.5 579.301,-0.5"/>
<text text-anchor="start" x="587.301" y="-29.5" font-family="Helvetica,sans-Serif" font-size="10.00">/home/travis/build</text>
<text text-anchor="start" x="587.301" y="-18.5" font-family="Helvetica,sans-Serif" font-size="10.00">/hypro/hypro/examples</text>
<text text-anchor="middle" x="677.301" y="-7.5" font-family="Helvetica,sans-Serif" font-size="10.00">/example_rectangularReachability.cpp</text>
</a>
</g>
</g>
<!-- Node3&#45;&gt;Node6 -->
<g id="edge24" class="edge"><title>Node3&#45;&gt;Node6</title>
<path fill="none" stroke="midnightblue" d="M556.721,-710.872C576.434,-701.928 596.338,-690.444 612.301,-676 655.69,-636.737 677.301,-620.017 677.301,-561.5 677.301,-561.5 677.301,-561.5 677.301,-203.5 677.301,-144.576 677.301,-74.8904 677.301,-41.6065"/>
<polygon fill="midnightblue" stroke="midnightblue" points="555.16,-707.733 547.385,-714.931 557.952,-714.153 555.16,-707.733"/>
</g>
<!-- Node7 -->
<g id="node7" class="node"><title>Node7</title>
<g id="a_node7"><a xlink:href="example__worker_8cpp.html" target="_top" xlink:title="/home/travis/build\l/hypro/hypro/examples\l/example_worker.cpp">
<polygon fill="white" stroke="black" points="148.301,-0.5 148.301,-41.5 274.301,-41.5 274.301,-0.5 148.301,-0.5"/>
<text text-anchor="start" x="156.301" y="-29.5" font-family="Helvetica,sans-Serif" font-size="10.00">/home/travis/build</text>
<text text-anchor="start" x="156.301" y="-18.5" font-family="Helvetica,sans-Serif" font-size="10.00">/hypro/hypro/examples</text>
<text text-anchor="middle" x="211.301" y="-7.5" font-family="Helvetica,sans-Serif" font-size="10.00">/example_worker.cpp</text>
</a>
</g>
</g>
<!-- Node3&#45;&gt;Node7 -->
<g id="edge25" class="edge"><title>Node3&#45;&gt;Node7</title>
<path fill="none" stroke="midnightblue" d="M409.097,-706.776C396.701,-698.312 384.911,-688.067 376.301,-676 315.003,-590.09 381.234,-531.868 321.301,-445 305.13,-421.562 287.035,-430.445 268.301,-409 230.902,-366.189 211.301,-351.346 211.301,-294.5 211.301,-294.5 211.301,-294.5 211.301,-203.5 211.301,-144.576 211.301,-74.8904 211.301,-41.6065"/>
<polygon fill="midnightblue" stroke="midnightblue" points="407.444,-709.874 417.745,-712.351 411.237,-703.991 407.444,-709.874"/>
</g>
<!-- Node8 -->
<g id="node8" class="node"><title>Node8</title>
<g id="a_node8"><a xlink:href="IWorker_8h.html" target="_top" xlink:title="/home/travis/build\l/hypro/hypro/src/hypro\l/algorithms/reachability\l/workers/IWorker.h">
<polygon fill="white" stroke="black" points="445.301,-445.5 445.301,-497.5 573.301,-497.5 573.301,-445.5 445.301,-445.5"/>
<text text-anchor="start" x="453.301" y="-485.5" font-family="Helvetica,sans-Serif" font-size="10.00">/home/travis/build</text>
<text text-anchor="start" x="453.301" y="-474.5" font-family="Helvetica,sans-Serif" font-size="10.00">/hypro/hypro/src/hypro</text>
<text text-anchor="start" x="453.301" y="-463.5" font-family="Helvetica,sans-Serif" font-size="10.00">/algorithms/reachability</text>
<text text-anchor="middle" x="509.301" y="-452.5" font-family="Helvetica,sans-Serif" font-size="10.00">/workers/IWorker.h</text>
</a>
</g>
</g>
<!-- Node3&#45;&gt;Node8 -->
<g id="edge7" class="edge"><title>Node3&#45;&gt;Node8</title>
<path fill="none" stroke="midnightblue" d="M478.138,-701.893C485.52,-647.555 499.417,-545.26 505.859,-497.832"/>
<polygon fill="midnightblue" stroke="midnightblue" points="474.631,-701.711 476.753,-712.091 481.567,-702.653 474.631,-701.711"/>
</g>
<!-- Node9 -->
<g id="node9" class="node"><title>Node9</title>
<g id="a_node9"><a xlink:href="LTIContext_8h.html" target="_top" xlink:title="/home/travis/build\l/hypro/hypro/src/hypro\l/algorithms/reachability\l/contexts/LTIContext.h">
<polygon fill="white" stroke="black" points="277.301,-356.5 277.301,-408.5 405.301,-408.5 405.301,-356.5 277.301,-356.5"/>
<text text-anchor="start" x="285.301" y="-396.5" font-family="Helvetica,sans-Serif" font-size="10.00">/home/travis/build</text>
<text text-anchor="start" x="285.301" y="-385.5" font-family="Helvetica,sans-Serif" font-size="10.00">/hypro/hypro/src/hypro</text>
<text text-anchor="start" x="285.301" y="-374.5" font-family="Helvetica,sans-Serif" font-size="10.00">/algorithms/reachability</text>
<text text-anchor="middle" x="341.301" y="-363.5" font-family="Helvetica,sans-Serif" font-size="10.00">/contexts/LTIContext.h</text>
</a>
</g>
</g>
<!-- Node3&#45;&gt;Node9 -->
<g id="edge15" class="edge"><title>Node3&#45;&gt;Node9</title>
<path fill="none" stroke="midnightblue" d="M428.375,-705.762C418.84,-697.103 409.725,-687.03 403.301,-676 350.525,-585.389 377.606,-547.46 355.301,-445 352.692,-433.016 349.686,-419.747 347.13,-408.611"/>
<polygon fill="midnightblue" stroke="midnightblue" points="426.21,-708.516 436.07,-712.393 430.78,-703.214 426.21,-708.516"/>
</g>
<!-- Node10 -->
<g id="node10" class="node"><title>Node10</title>
<g id="a_node10"><a xlink:href="TimedContext_8h.html" target="_top" xlink:title="/home/travis/build\l/hypro/hypro/src/hypro\l/algorithms/reachability\l/contexts/TimedContext.h">
<polygon fill="white" stroke="black" points="357.301,-267.5 357.301,-319.5 497.301,-319.5 497.301,-267.5 357.301,-267.5"/>
<text text-anchor="start" x="365.301" y="-307.5" font-family="Helvetica,sans-Serif" font-size="10.00">/home/travis/build</text>
<text text-anchor="start" x="365.301" y="-296.5" font-family="Helvetica,sans-Serif" font-size="10.00">/hypro/hypro/src/hypro</text>
<text text-anchor="start" x="365.301" y="-285.5" font-family="Helvetica,sans-Serif" font-size="10.00">/algorithms/reachability</text>
<text text-anchor="middle" x="427.301" y="-274.5" font-family="Helvetica,sans-Serif" font-size="10.00">/contexts/TimedContext.h</text>
</a>
</g>
</g>
<!-- Node3&#45;&gt;Node10 -->
<g id="edge22" class="edge"><title>Node3&#45;&gt;Node10</title>
<path fill="none" stroke="midnightblue" d="M466.68,-702.573C458.147,-656.072 443.55,-571.178 436.301,-498 429.956,-433.95 428.084,-358.116 427.532,-319.626"/>
<polygon fill="midnightblue" stroke="midnightblue" points="463.245,-703.247 468.506,-712.443 470.129,-701.973 463.245,-703.247"/>
</g>
<!-- Node3&#45;&gt;Node11 -->
<g id="edge16" class="edge"><title>Node3&#45;&gt;Node11</title>
<path fill="none" stroke="midnightblue" d="M389.345,-710.041C355.531,-698.981 316.798,-686.313 283.776,-675.513"/>
<polygon fill="midnightblue" stroke="midnightblue" points="388.612,-713.484 399.205,-713.266 390.789,-706.83 388.612,-713.484"/>
</g>
<!-- Node4&#45;&gt;Node5 -->
<g id="edge4" class="edge"><title>Node4&#45;&gt;Node5</title>
<path fill="none" stroke="midnightblue" d="M521.787,-169.662C527.364,-160.45 533.37,-150.528 538.829,-141.512"/>
<polygon fill="midnightblue" stroke="midnightblue" points="518.788,-167.857 516.603,-178.224 524.776,-171.482 518.788,-167.857"/>
</g>
<!-- Node5&#45;&gt;Node6 -->
<g id="edge5" class="edge"><title>Node5&#45;&gt;Node6</title>
<path fill="none" stroke="midnightblue" d="M608.05,-72.2067C622.579,-61.6736 637.848,-50.603 650.341,-41.5457"/>
<polygon fill="midnightblue" stroke="midnightblue" points="605.65,-69.6237 599.608,-78.3271 609.759,-75.291 605.65,-69.6237"/>
</g>
<!-- Node5&#45;&gt;Node7 -->
<g id="edge6" class="edge"><title>Node5&#45;&gt;Node7</title>
<path fill="none" stroke="midnightblue" d="M455.455,-83.3914C396.847,-68.6548 325.046,-50.6006 274.525,-37.8974"/>
<polygon fill="midnightblue" stroke="midnightblue" points="454.936,-86.8697 465.488,-85.914 456.643,-80.081 454.936,-86.8697"/>
</g>
<!-- Node8&#45;&gt;Node4 -->
<g id="edge8" class="edge"><title>Node8&#45;&gt;Node4</title>
<path fill="none" stroke="midnightblue" d="M509.49,-435.236C509.544,-394.639 509.129,-325.964 506.301,-267 505.726,-255.016 504.697,-241.747 503.722,-230.61"/>
<polygon fill="midnightblue" stroke="midnightblue" points="505.99,-435.412 509.466,-445.42 512.99,-435.429 505.99,-435.412"/>
</g>
<!-- Node8&#45;&gt;Node5 -->
<g id="edge14" class="edge"><title>Node8&#45;&gt;Node5</title>
<path fill="none" stroke="midnightblue" d="M523.281,-435.702C540.924,-389.734 570.295,-305.837 581.301,-231 584.728,-207.695 585.332,-201.208 581.301,-178 579.186,-165.827 575.062,-152.94 570.82,-141.756"/>
<polygon fill="midnightblue" stroke="midnightblue" points="519.954,-434.6 519.598,-445.189 526.48,-437.133 519.954,-434.6"/>
</g>
<!-- Node8&#45;&gt;Node9 -->
<g id="edge9" class="edge"><title>Node8&#45;&gt;Node9</title>
<path fill="none" stroke="midnightblue" d="M451.631,-440.635C431.49,-430.205 409.101,-418.611 389.784,-408.607"/>
<polygon fill="midnightblue" stroke="midnightblue" points="450.219,-443.845 460.708,-445.336 453.438,-437.629 450.219,-443.845"/>
</g>
<!-- Node8&#45;&gt;Node10 -->
<g id="edge13" class="edge"><title>Node8&#45;&gt;Node10</title>
<path fill="none" stroke="midnightblue" d="M493.288,-436.13C477.349,-401.92 453.266,-350.231 439.028,-319.67"/>
<polygon fill="midnightblue" stroke="midnightblue" points="490.156,-437.697 497.552,-445.283 496.502,-434.741 490.156,-437.697"/>
</g>
<!-- Node9&#45;&gt;Node4 -->
<g id="edge10" class="edge"><title>Node9&#45;&gt;Node4</title>
<path fill="none" stroke="midnightblue" d="M334.264,-346.207C331.427,-321.738 331.991,-289.614 348.301,-267 367.308,-240.646 399.536,-225.572 429.525,-216.956"/>
<polygon fill="midnightblue" stroke="midnightblue" points="330.806,-346.753 335.652,-356.175 337.739,-345.787 330.806,-346.753"/>
</g>
<!-- Node9&#45;&gt;Node10 -->
<g id="edge11" class="edge"><title>Node9&#45;&gt;Node10</title>
<path fill="none" stroke="midnightblue" d="M373.351,-349.077C382.981,-339.335 393.395,-328.8 402.482,-319.607"/>
<polygon fill="midnightblue" stroke="midnightblue" points="370.717,-346.764 366.176,-356.336 375.695,-351.685 370.717,-346.764"/>
</g>
<!-- Node10&#45;&gt;Node4 -->
<g id="edge12" class="edge"><title>Node10&#45;&gt;Node4</title>
<path fill="none" stroke="midnightblue" d="M455.367,-259.503C463.516,-249.923 472.28,-239.62 479.945,-230.607"/>
<polygon fill="midnightblue" stroke="midnightblue" points="452.518,-257.451 448.705,-267.336 457.85,-261.986 452.518,-257.451"/>
</g>
<!-- Node12 -->
<g id="node12" class="node"><title>Node12</title>
<g id="a_node12"><a xlink:href="JumpHandlers_8h.html" target="_top" xlink:title="/home/travis/build\l/hypro/hypro/src/hypro\l/algorithms/reachability\l/handlers/jumpHandlers/JumpHandlers.h">
<polygon fill="white" stroke="black" points="65.8009,-534.5 65.8009,-586.5 274.801,-586.5 274.801,-534.5 65.8009,-534.5"/>
<text text-anchor="start" x="73.8009" y="-574.5" font-family="Helvetica,sans-Serif" font-size="10.00">/home/travis/build</text>
<text text-anchor="start" x="73.8009" y="-563.5" font-family="Helvetica,sans-Serif" font-size="10.00">/hypro/hypro/src/hypro</text>
<text text-anchor="start" x="73.8009" y="-552.5" font-family="Helvetica,sans-Serif" font-size="10.00">/algorithms/reachability</text>
<text text-anchor="middle" x="170.301" y="-541.5" font-family="Helvetica,sans-Serif" font-size="10.00">/handlers/jumpHandlers/JumpHandlers.h</text>
</a>
</g>
</g>
<!-- Node11&#45;&gt;Node12 -->
<g id="edge17" class="edge"><title>Node11&#45;&gt;Node12</title>
<path fill="none" stroke="midnightblue" d="M192.654,-614.061C188.756,-604.896 184.62,-595.169 180.979,-586.607"/>
<polygon fill="midnightblue" stroke="midnightblue" points="189.464,-615.503 196.599,-623.336 195.906,-612.764 189.464,-615.503"/>
</g>
<!-- Node13 -->
<g id="node13" class="node"><title>Node13</title>
<g id="a_node13"><a xlink:href="HandlerFactory_8h.html" target="_top" xlink:title="/home/travis/build\l/hypro/hypro/src/hypro\l/algorithms/reachability\l/handlers/HandlerFactory.h">
<polygon fill="white" stroke="black" points="169.801,-445.5 169.801,-497.5 312.801,-497.5 312.801,-445.5 169.801,-445.5"/>
<text text-anchor="start" x="177.801" y="-485.5" font-family="Helvetica,sans-Serif" font-size="10.00">/home/travis/build</text>
<text text-anchor="start" x="177.801" y="-474.5" font-family="Helvetica,sans-Serif" font-size="10.00">/hypro/hypro/src/hypro</text>
<text text-anchor="start" x="177.801" y="-463.5" font-family="Helvetica,sans-Serif" font-size="10.00">/algorithms/reachability</text>
<text text-anchor="middle" x="241.301" y="-452.5" font-family="Helvetica,sans-Serif" font-size="10.00">/handlers/HandlerFactory.h</text>
</a>
</g>
</g>
<!-- Node12&#45;&gt;Node13 -->
<g id="edge18" class="edge"><title>Node12&#45;&gt;Node13</title>
<path fill="none" stroke="midnightblue" d="M197.23,-526.503C205.048,-516.923 213.456,-506.62 220.811,-497.607"/>
<polygon fill="midnightblue" stroke="midnightblue" points="194.448,-524.376 190.837,-534.336 199.871,-528.801 194.448,-524.376"/>
</g>
<!-- Node13&#45;&gt;Node9 -->
<g id="edge19" class="edge"><title>Node13&#45;&gt;Node9</title>
<path fill="none" stroke="midnightblue" d="M277.911,-438.649C289.291,-428.749 301.669,-417.98 312.442,-408.607"/>
<polygon fill="midnightblue" stroke="midnightblue" points="275.472,-436.132 270.225,-445.336 280.067,-441.413 275.472,-436.132"/>
</g>
<!-- Node13&#45;&gt;Node10 -->
<g id="edge21" class="edge"><title>Node13&#45;&gt;Node10</title>
<path fill="none" stroke="midnightblue" d="M241.305,-435.021C243.126,-410.185 249.402,-377.694 268.301,-356 290.95,-330.001 325.913,-314.929 357.292,-306.223"/>
<polygon fill="midnightblue" stroke="midnightblue" points="237.802,-434.972 240.773,-445.142 244.793,-435.34 237.802,-434.972"/>
</g>
<!-- Node13&#45;&gt;Node11 -->
<g id="edge20" class="edge"><title>Node13&#45;&gt;Node11</title>
<path fill="none" stroke="midnightblue" d="M269.339,-505.886C275.067,-514.527 280.267,-524.179 283.301,-534 290.253,-556.506 293.445,-565.741 283.301,-587 276.356,-601.553 264.1,-613.774 251.431,-623.39"/>
<polygon fill="midnightblue" stroke="midnightblue" points="272.124,-503.761 263.496,-497.613 266.406,-507.8 272.124,-503.761"/>
</g>
<!-- Node14&#45;&gt;Node6 -->
<g id="edge29" class="edge"><title>Node14&#45;&gt;Node6</title>
<path fill="none" stroke="midnightblue" d="M177.346,-801.048C427.973,-756.298 715.301,-895.94 715.301,-650.5 715.301,-650.5 715.301,-650.5 715.301,-203.5 715.301,-143.459 695.133,-74.5711 684.182,-41.5925"/>
<polygon fill="midnightblue" stroke="midnightblue" points="176.498,-797.646 167.321,-802.942 177.797,-804.524 176.498,-797.646"/>
</g>
<!-- Node14&#45;&gt;Node7 -->
<g id="edge30" class="edge"><title>Node14&#45;&gt;Node7</title>
<path fill="none" stroke="midnightblue" d="M69.7994,-792.578C64.6722,-783.904 59.7541,-774.372 56.3009,-765 38.4659,-716.596 37.3009,-702.085 37.3009,-650.5 37.3009,-650.5 37.3009,-650.5 37.3009,-203.5 37.3009,-126.673 119.543,-69.6963 170.944,-41.5882"/>
<polygon fill="midnightblue" stroke="midnightblue" points="66.9317,-794.595 75.1654,-801.263 72.8868,-790.916 66.9317,-794.595"/>
</g>
<!-- Node14&#45;&gt;Node15 -->
<g id="edge27" class="edge"><title>Node14&#45;&gt;Node15</title>
<path fill="none" stroke="midnightblue" d="M111.357,-792.35C116.248,-783.1 121.451,-773.259 126.026,-764.607"/>
<polygon fill="midnightblue" stroke="midnightblue" points="108.186,-790.86 106.606,-801.336 114.374,-794.132 108.186,-790.86"/>
</g>
<!-- Node15&#45;&gt;Node11 -->
<g id="edge28" class="edge"><title>Node15&#45;&gt;Node11</title>
<path fill="none" stroke="midnightblue" d="M165.317,-704.215C172.741,-694.717 180.703,-684.529 187.677,-675.607"/>
<polygon fill="midnightblue" stroke="midnightblue" points="162.37,-702.302 158.969,-712.336 167.885,-706.612 162.37,-702.302"/>
</g>
<!-- Node16&#45;&gt;Node11 -->
<g id="edge34" class="edge"><title>Node16&#45;&gt;Node11</title>
<path fill="none" stroke="midnightblue" d="M253.027,-791.69C241.947,-757.478 225.308,-706.1 215.452,-675.67"/>
<polygon fill="midnightblue" stroke="midnightblue" points="249.723,-792.848 256.134,-801.283 256.383,-790.692 249.723,-792.848"/>
</g>
</g>
</svg>
        <g id="navigator" transform="translate(0 0)" fill="#404254">
                <rect fill="#f2f5e9" fill-opacity="0.5" stroke="#606060" stroke-width=".5" x="0" y="0" width="60" height="60"/>
                <use id="zoomplus" xlink:href="#zoomPlus" x="17" y="9" onmousedown="handleZoom(evt,'in')"/>
                <use id="zoomminus" xlink:href="#zoomMin" x="42" y="9" onmousedown="handleZoom(evt,'out')"/>
                <use id="reset" xlink:href="#resetDef" x="30" y="36" onmousedown="handleReset()"/>
                <g id="arrowUp" xlink:href="#dirArrow" transform="translate(30 24)" onmousedown="handlePan(0,-1)">
                  <use xlink:href="#rim" fill="#404040">
                        <set attributeName="fill" to="#808080" begin="arrowUp.mouseover" end="arrowUp.mouseout"/>
                  </use>
                  <path fill="none" stroke="white" stroke-width="1.5" d="M0,-3.0v7 M-2.5,-0.5L0,-3.0L2.5,-0.5"/>
                </g>
                <g id="arrowRight" xlink:href="#dirArrow" transform="rotate(90) translate(36 -43)" onmousedown="handlePan(1,0)">
                  <use xlink:href="#rim" fill="#404040">
                        <set attributeName="fill" to="#808080" begin="arrowRight.mouseover" end="arrowRight.mouseout"/>
                  </use>
                  <path fill="none" stroke="white" stroke-width="1.5" d="M0,-3.0v7 M-2.5,-0.5L0,-3.0L2.5,-0.5"/>
                </g>
                <g id="arrowDown" xlink:href="#dirArrow" transform="rotate(180) translate(-30 -48)" onmousedown="handlePan(0,1)">
                  <use xlink:href="#rim" fill="#404040">
                        <set attributeName="fill" to="#808080" begin="arrowDown.mouseover" end="arrowDown.mouseout"/>
                  </use>
                  <path fill="none" stroke="white" stroke-width="1.5" d="M0,-3.0v7 M-2.5,-0.5L0,-3.0L2.5,-0.5"/>
                </g>
                <g id="arrowLeft" xlink:href="#dirArrow" transform="rotate(270) translate(-36 17)" onmousedown="handlePan(-1,0)">
                  <use xlink:href="#rim" fill="#404040">
                        <set attributeName="fill" to="#808080" begin="arrowLeft.mouseover" end="arrowLeft.mouseout"/>
                  </use>
                  <path fill="none" stroke="white" stroke-width="1.5" d="M0,-3.0v7 M-2.5,-0.5L0,-3.0L2.5,-0.5"/>
                </g>
        </g>
        <svg viewBox="0 0 15 15" width="100%" height="30px" preserveAspectRatio="xMaxYMin meet">
         <g id="arrow_out" transform="scale(0.3 0.3)">
          <a xlink:href="TreeNode_8h__dep__incl_org.svg" target="_base">
           <rect id="button" ry="5" rx="5" y="6" x="6" height="38" width="38"
                fill="#f2f5e9" fill-opacity="0.5" stroke="#606060" stroke-width="1.0"/>
           <path id="arrow"
             d="M 11.500037,31.436501 C 11.940474,20.09759 22.043105,11.32322 32.158766,21.979434 L 37.068811,17.246167 C 37.068811,17.246167 37.088388,32 37.088388,32 L 22.160133,31.978069 C 22.160133,31.978069 26.997745,27.140456 26.997745,27.140456 C 18.528582,18.264221 13.291696,25.230495 11.500037,31.436501 z"
             style="fill:#404040;"/>
          </a>
         </g>
        </svg>
</svg>
