<?xml version="1.0" encoding="UTF-8" standalone="no"?>
<!DOCTYPE svg PUBLIC "-//W3C//DTD SVG 1.1//EN"
 "http://www.w3.org/Graphics/SVG/1.1/DTD/svg11.dtd">
<!-- Generated by graphviz version 2.38.0 (20140413.2041)
 -->
<!-- Title: /home/travis/build/hypro/hypro/src/hypro/types.h Pages: 1 -->
<!--zoomable 307 -->
<svg id="main" version="1.1" xmlns="http://www.w3.org/2000/svg" xmlns:xlink="http://www.w3.org/1999/xlink" xml:space="preserve" onload="init(evt)">
<style type="text/css"><![CDATA[
.edge:hover path { stroke: red; }
.edge:hover polygon { stroke: red; fill: red; }
]]></style>
<script type="text/javascript"><![CDATA[
var edges = document.getElementsByTagName('g');
if (edges && edges.length) {
  for (var i=0;i<edges.length;i++) {
    if (edges[i].id.substr(0,4)=='edge') {
      edges[i].setAttribute('class','edge');
    }
  }
}
]]></script>
        <defs>
                <circle id="rim" cx="0" cy="0" r="7"/>
                <circle id="rim2" cx="0" cy="0" r="3.5"/>
                <g id="zoomPlus">
                        <use xlink:href="#rim" fill="#404040">
                                <set attributeName="fill" to="#808080" begin="zoomplus.mouseover" end="zoomplus.mouseout"/>
                        </use>
                        <path d="M-4,0h8M0,-4v8" fill="none" stroke="white" stroke-width="1.5" pointer-events="none"/>
                </g>
                <g id="zoomMin">
                        <use xlink:href="#rim" fill="#404040">
                                <set attributeName="fill" to="#808080" begin="zoomminus.mouseover" end="zoomminus.mouseout"/>
                        </use>
                        <path d="M-4,0h8" fill="none" stroke="white" stroke-width="1.5" pointer-events="none"/>
                </g>
                <g id="dirArrow">
                        <path fill="none" stroke="white" stroke-width="1.5" d="M0,-3.0v7 M-2.5,-0.5L0,-3.0L2.5,-0.5"/>
                </g>
               <g id="resetDef">
                       <use xlink:href="#rim2" fill="#404040">
                               <set attributeName="fill" to="#808080" begin="reset.mouseover" end="reset.mouseout"/>
                       </use>
               </g>
        </defs>

<script type="text/javascript">
var viewWidth = 1701;
var viewHeight = 307;
var sectionId = 'dynsection-0';
</script>
<script xlink:href="svgpan.js"/>
<svg id="graph" class="graph">
<g id="viewport">
<title>/home/travis/build/hypro/hypro/src/hypro/types.h</title>
<polygon fill="white" stroke="none" points="-4,4 -4,-303 1696.84,-303 1696.84,4 -4,4"/>
<!-- Node1 -->
<g id="node1" class="node"><title>Node1</title>
<polygon fill="#bfbfbf" stroke="black" points="275.338,-257.5 275.338,-298.5 399.338,-298.5 399.338,-257.5 275.338,-257.5"/>
<text text-anchor="start" x="283.338" y="-286.5" font-family="Helvetica,sans-Serif" font-size="10.00">/home/travis/build</text>
<text text-anchor="start" x="283.338" y="-275.5" font-family="Helvetica,sans-Serif" font-size="10.00">/hypro/hypro/src/hypro</text>
<text text-anchor="middle" x="337.338" y="-264.5" font-family="Helvetica,sans-Serif" font-size="10.00">/types.h</text>
</g>
<!-- Node2 -->
<g id="node2" class="node"><title>Node2</title>
<polygon fill="white" stroke="#bfbfbf" points="45.3379,-123.5 45.3379,-142.5 179.338,-142.5 179.338,-123.5 45.3379,-123.5"/>
<text text-anchor="middle" x="112.338" y="-130.5" font-family="Helvetica,sans-Serif" font-size="10.00">carl/numbers/numbers.h</text>
</g>
<!-- Node1&#45;&gt;Node2 -->
<g id="edge1" class="edge"><title>Node1&#45;&gt;Node2</title>
<path fill="none" stroke="midnightblue" d="M306.524,-257.416C260.41,-228.108 174.565,-173.549 134.28,-147.945"/>
<polygon fill="midnightblue" stroke="midnightblue" points="136.053,-144.925 125.736,-142.515 132.298,-150.833 136.053,-144.925"/>
</g>
<!-- Node3 -->
<g id="node3" class="node"><title>Node3</title>
<polygon fill="white" stroke="#bfbfbf" points="509.338,-196 509.338,-215 595.338,-215 595.338,-196 509.338,-196"/>
<text text-anchor="middle" x="552.338" y="-203" font-family="Helvetica,sans-Serif" font-size="10.00">carl/util/hash.h</text>
</g>
<!-- Node1&#45;&gt;Node3 -->
<g id="edge2" class="edge"><title>Node1&#45;&gt;Node3</title>
<path fill="none" stroke="midnightblue" d="M396.942,-257.455C435.459,-244.825 484.288,-228.814 516.829,-218.143"/>
<polygon fill="midnightblue" stroke="midnightblue" points="517.965,-221.455 526.376,-215.013 515.784,-214.803 517.965,-221.455"/>
</g>
<!-- Node4 -->
<g id="node4" class="node"><title>Node4</title>
<polygon fill="white" stroke="#bfbfbf" points="613.338,-196 613.338,-215 717.338,-215 717.338,-196 613.338,-196"/>
<text text-anchor="middle" x="665.338" y="-203" font-family="Helvetica,sans-Serif" font-size="10.00">eigen3/Eigen/Core</text>
</g>
<!-- Node1&#45;&gt;Node4 -->
<g id="edge3" class="edge"><title>Node1&#45;&gt;Node4</title>
<path fill="none" stroke="midnightblue" d="M399.482,-264.454C453.66,-253.4 534.314,-236.663 604.338,-221 609.452,-219.856 614.8,-218.63 620.112,-217.392"/>
<polygon fill="midnightblue" stroke="midnightblue" points="621.281,-220.713 630.215,-215.018 619.679,-213.899 621.281,-220.713"/>
</g>
<!-- Node5 -->
<g id="node5" class="node"><title>Node5</title>
<polygon fill="white" stroke="#bfbfbf" points="197.338,-123.5 197.338,-142.5 309.338,-142.5 309.338,-123.5 197.338,-123.5"/>
<text text-anchor="middle" x="253.338" y="-130.5" font-family="Helvetica,sans-Serif" font-size="10.00">eigen3/Eigen/Dense</text>
</g>
<!-- Node1&#45;&gt;Node5 -->
<g id="edge4" class="edge"><title>Node1&#45;&gt;Node5</title>
<path fill="none" stroke="midnightblue" d="M325.834,-257.416C309.347,-229.348 279.256,-178.122 263.528,-151.348"/>
<polygon fill="midnightblue" stroke="midnightblue" points="266.518,-149.528 258.436,-142.678 260.483,-153.073 266.518,-149.528"/>
</g>
<!-- Node6 -->
<g id="node6" class="node"><title>Node6</title>
<polygon fill="white" stroke="#bfbfbf" points="642.338,-0.5 642.338,-19.5 688.338,-19.5 688.338,-0.5 642.338,-0.5"/>
<text text-anchor="middle" x="665.338" y="-7.5" font-family="Helvetica,sans-Serif" font-size="10.00">iosfwd</text>
</g>
<!-- Node1&#45;&gt;Node6 -->
<g id="edge5" class="edge"><title>Node1&#45;&gt;Node6</title>
<path fill="none" stroke="midnightblue" d="M275.163,-271.674C200.571,-264.168 81.1884,-248.259 46.3379,-221 6.66649,-189.97 -16.9337,-150.668 15.3379,-112 95.1584,-16.3581 511.001,-10.3777 632.173,-10.699"/>
<polygon fill="midnightblue" stroke="midnightblue" points="632.306,-14.1995 642.321,-10.743 632.337,-7.1996 632.306,-14.1995"/>
</g>
<!-- Node7 -->
<g id="node7" class="node"><title>Node7</title>
<polygon fill="white" stroke="#bfbfbf" points="706.338,-0.5 706.338,-19.5 738.338,-19.5 738.338,-0.5 706.338,-0.5"/>
<text text-anchor="middle" x="722.338" y="-7.5" font-family="Helvetica,sans-Serif" font-size="10.00">set</text>
</g>
<!-- Node1&#45;&gt;Node7 -->
<g id="edge6" class="edge"><title>Node1&#45;&gt;Node7</title>
<path fill="none" stroke="midnightblue" d="M333.253,-257.496C327.366,-223.55 320.774,-153.295 356.338,-112 456.673,4.50575 543.938,-64.1146 696.591,-19.9315"/>
<polygon fill="midnightblue" stroke="midnightblue" points="697.707,-23.2504 706.266,-17.0052 695.681,-16.5502 697.707,-23.2504"/>
</g>
<!-- Node8 -->
<g id="node8" class="node"><title>Node8</title>
<g id="a_node8"><a xlink:href="adaptions__eigen_8h.html" target="_top" xlink:title="util/adaptions_eigen\l/adaptions_eigen.h">
<polygon fill="white" stroke="black" points="377.838,-190.5 377.838,-220.5 490.838,-220.5 490.838,-190.5 377.838,-190.5"/>
<text text-anchor="start" x="385.838" y="-208.5" font-family="Helvetica,sans-Serif" font-size="10.00">util/adaptions_eigen</text>
<text text-anchor="middle" x="434.338" y="-197.5" font-family="Helvetica,sans-Serif" font-size="10.00">/adaptions_eigen.h</text>
</a>
</g>
</g>
<!-- Node1&#45;&gt;Node8 -->
<g id="edge7" class="edge"><title>Node1&#45;&gt;Node8</title>
<path fill="none" stroke="midnightblue" d="M358.234,-257.362C370.684,-247.712 386.644,-236.106 400.784,-226.419"/>
<polygon fill="midnightblue" stroke="midnightblue" points="402.973,-229.164 409.306,-220.67 399.058,-223.361 402.973,-229.164"/>
</g>
<!-- Node8&#45;&gt;Node1 -->
<g id="edge25" class="edge"><title>Node8&#45;&gt;Node1</title>
<path fill="none" stroke="midnightblue" d="M420.378,-220.67C409.424,-229.476 393.818,-241.057 379.043,-251.426"/>
<polygon fill="midnightblue" stroke="midnightblue" points="376.705,-248.788 370.481,-257.362 380.694,-254.541 376.705,-248.788"/>
</g>
<!-- Node8&#45;&gt;Node2 -->
<g id="edge27" class="edge"><title>Node8&#45;&gt;Node2</title>
<path fill="none" stroke="midnightblue" d="M377.475,-193.745C327.491,-184.073 252.865,-169.102 188.338,-154 176.83,-151.307 164.408,-148.146 153.009,-145.143"/>
<polygon fill="midnightblue" stroke="midnightblue" points="153.866,-141.749 143.303,-142.56 152.066,-148.514 153.866,-141.749"/>
</g>
<!-- Node8&#45;&gt;Node5 -->
<g id="edge28" class="edge"><title>Node8&#45;&gt;Node5</title>
<path fill="none" stroke="midnightblue" d="M398.145,-190.403C365.005,-177.495 316.447,-158.581 284.864,-146.279"/>
<polygon fill="midnightblue" stroke="midnightblue" points="285.835,-142.902 275.247,-142.534 283.295,-149.424 285.835,-142.902"/>
</g>
<!-- Node8&#45;&gt;Node6 -->
<g id="edge31" class="edge"><title>Node8&#45;&gt;Node6</title>
<path fill="none" stroke="midnightblue" d="M491.149,-191.636C494.251,-191.053 497.329,-190.503 500.338,-190 569.177,-178.497 765.901,-206.103 812.338,-154 824.758,-140.065 821.283,-128.384 812.338,-112 798.16,-86.0301 780.828,-92.6038 756.338,-76 731.48,-59.1468 703.437,-38.9281 685.134,-25.5645"/>
<polygon fill="midnightblue" stroke="midnightblue" points="687.125,-22.6837 676.989,-19.5996 682.989,-28.3315 687.125,-22.6837"/>
</g>
<!-- Node9 -->
<g id="node9" class="node"><title>Node9</title>
<g id="a_node9"><a xlink:href="config_8h.html" target="_top" xlink:title="../../config.h">
<polygon fill="white" stroke="black" points="859.338,-123.5 859.338,-142.5 931.338,-142.5 931.338,-123.5 859.338,-123.5"/>
<text text-anchor="middle" x="895.338" y="-130.5" font-family="Helvetica,sans-Serif" font-size="10.00">../../config.h</text>
</a>
</g>
</g>
<!-- Node8&#45;&gt;Node9 -->
<g id="edge8" class="edge"><title>Node8&#45;&gt;Node9</title>
<path fill="none" stroke="midnightblue" d="M491.142,-191.596C494.246,-191.023 497.327,-190.486 500.338,-190 652.532,-165.421 695.673,-190.981 845.338,-154 852.826,-152.15 860.68,-149.415 867.887,-146.558"/>
<polygon fill="midnightblue" stroke="midnightblue" points="869.342,-149.743 877.219,-142.658 866.643,-143.285 869.342,-149.743"/>
</g>
<!-- Node22 -->
<g id="node22" class="node"><title>Node22</title>
<g id="a_node22"><a xlink:href="transformation_8h.html" target="_top" xlink:title="transformation.h">
<polygon fill="white" stroke="black" points="949.838,-123.5 949.838,-142.5 1046.84,-142.5 1046.84,-123.5 949.838,-123.5"/>
<text text-anchor="middle" x="998.338" y="-130.5" font-family="Helvetica,sans-Serif" font-size="10.00">transformation.h</text>
</a>
</g>
</g>
<!-- Node8&#45;&gt;Node22 -->
<g id="edge26" class="edge"><title>Node8&#45;&gt;Node22</title>
<path fill="none" stroke="midnightblue" d="M491.129,-191.514C494.237,-190.963 497.321,-190.453 500.338,-190 694.374,-160.883 748.311,-194.297 940.338,-154 949.578,-152.061 959.373,-149.067 968.231,-145.981"/>
<polygon fill="midnightblue" stroke="midnightblue" points="969.557,-149.223 977.754,-142.509 967.16,-142.646 969.557,-149.223"/>
</g>
<!-- Node23 -->
<g id="node23" class="node"><title>Node23</title>
<polygon fill="white" stroke="#bfbfbf" points="365.338,-123.5 365.338,-142.5 503.338,-142.5 503.338,-123.5 365.338,-123.5"/>
<text text-anchor="middle" x="434.338" y="-130.5" font-family="Helvetica,sans-Serif" font-size="10.00">eigen3/Eigen/Eigenvalues</text>
</g>
<!-- Node8&#45;&gt;Node23 -->
<g id="edge29" class="edge"><title>Node8&#45;&gt;Node23</title>
<path fill="none" stroke="midnightblue" d="M434.338,-190.233C434.338,-179.501 434.338,-164.687 434.338,-152.959"/>
<polygon fill="midnightblue" stroke="midnightblue" points="437.838,-152.893 434.338,-142.893 430.838,-152.893 437.838,-152.893"/>
</g>
<!-- Node24 -->
<g id="node24" class="node"><title>Node24</title>
<polygon fill="white" stroke="#bfbfbf" points="521.838,-123.5 521.838,-142.5 584.838,-142.5 584.838,-123.5 521.838,-123.5"/>
<text text-anchor="middle" x="553.338" y="-130.5" font-family="Helvetica,sans-Serif" font-size="10.00">functional</text>
</g>
<!-- Node8&#45;&gt;Node24 -->
<g id="edge30" class="edge"><title>Node8&#45;&gt;Node24</title>
<path fill="none" stroke="midnightblue" d="M458.133,-190.403C479.073,-177.997 509.374,-160.046 530.134,-147.747"/>
<polygon fill="midnightblue" stroke="midnightblue" points="532.114,-150.642 538.934,-142.534 528.546,-144.619 532.114,-150.642"/>
</g>
<!-- Node25 -->
<g id="node25" class="node"><title>Node25</title>
<polygon fill="white" stroke="#bfbfbf" points="603.338,-123.5 603.338,-142.5 645.338,-142.5 645.338,-123.5 603.338,-123.5"/>
<text text-anchor="middle" x="624.338" y="-130.5" font-family="Helvetica,sans-Serif" font-size="10.00">limits</text>
</g>
<!-- Node8&#45;&gt;Node25 -->
<g id="edge32" class="edge"><title>Node8&#45;&gt;Node25</title>
<path fill="none" stroke="midnightblue" d="M490.981,-190.826C522.275,-182.243 561.371,-169.797 594.338,-154 597.817,-152.333 601.359,-150.31 604.733,-148.198"/>
<polygon fill="midnightblue" stroke="midnightblue" points="606.749,-151.06 613.11,-142.587 602.854,-145.244 606.749,-151.06"/>
</g>
<!-- Node26 -->
<g id="node26" class="node"><title>Node26</title>
<polygon fill="white" stroke="#bfbfbf" points="663.338,-112.5 663.338,-153.5 803.338,-153.5 803.338,-112.5 663.338,-112.5"/>
<text text-anchor="start" x="671.338" y="-141.5" font-family="Helvetica,sans-Serif" font-size="10.00">eigen3/unsupported</text>
<text text-anchor="start" x="671.338" y="-130.5" font-family="Helvetica,sans-Serif" font-size="10.00">/Eigen/src/MatrixFunctions</text>
<text text-anchor="middle" x="733.338" y="-119.5" font-family="Helvetica,sans-Serif" font-size="10.00">/MatrixExponential.h</text>
</g>
<!-- Node8&#45;&gt;Node26 -->
<g id="edge33" class="edge"><title>Node8&#45;&gt;Node26</title>
<path fill="none" stroke="midnightblue" d="M490.939,-191.872C533.163,-182.369 592.512,-168.835 653.369,-154.212"/>
<polygon fill="midnightblue" stroke="midnightblue" points="654.245,-157.601 663.147,-151.856 652.605,-150.796 654.245,-157.601"/>
</g>
<!-- Node10 -->
<g id="node10" class="node"><title>Node10</title>
<g id="a_node10"><a xlink:href="flags_8h.html" target="_top" xlink:title="flags.h">
<polygon fill="white" stroke="black" points="938.338,-0.5 938.338,-19.5 986.338,-19.5 986.338,-0.5 938.338,-0.5"/>
<text text-anchor="middle" x="962.338" y="-7.5" font-family="Helvetica,sans-Serif" font-size="10.00">flags.h</text>
</a>
</g>
</g>
<!-- Node9&#45;&gt;Node10 -->
<g id="edge9" class="edge"><title>Node9&#45;&gt;Node10</title>
<path fill="none" stroke="midnightblue" d="M900.156,-123.298C911.118,-103.502 938.095,-54.782 952.652,-28.4932"/>
<polygon fill="midnightblue" stroke="midnightblue" points="955.781,-30.067 957.563,-19.6232 949.657,-26.6761 955.781,-30.067"/>
</g>
<!-- Node11 -->
<g id="node11" class="node"><title>Node11</title>
<g id="a_node11"><a xlink:href="util_2convenienceOperators_8h.html" target="_top" xlink:title="util/convenienceOperators.h">
<polygon fill="white" stroke="black" points="764.838,-56.5 764.838,-75.5 915.838,-75.5 915.838,-56.5 764.838,-56.5"/>
<text text-anchor="middle" x="840.338" y="-63.5" font-family="Helvetica,sans-Serif" font-size="10.00">util/convenienceOperators.h</text>
</a>
</g>
</g>
<!-- Node9&#45;&gt;Node11 -->
<g id="edge10" class="edge"><title>Node9&#45;&gt;Node11</title>
<path fill="none" stroke="midnightblue" d="M887.92,-123.234C879.344,-113.098 865.037,-96.1899 854.347,-83.5556"/>
<polygon fill="midnightblue" stroke="midnightblue" points="856.769,-81.0004 847.638,-75.6273 851.426,-85.522 856.769,-81.0004"/>
</g>
<!-- Node15 -->
<g id="node15" class="node"><title>Node15</title>
<g id="a_node15"><a xlink:href="Logger_8h.html" target="_top" xlink:title="util/logging/Logger.h">
<polygon fill="white" stroke="black" points="1187.84,-56.5 1187.84,-75.5 1300.84,-75.5 1300.84,-56.5 1187.84,-56.5"/>
<text text-anchor="middle" x="1244.34" y="-63.5" font-family="Helvetica,sans-Serif" font-size="10.00">util/logging/Logger.h</text>
</a>
</g>
</g>
<!-- Node9&#45;&gt;Node15 -->
<g id="edge17" class="edge"><title>Node9&#45;&gt;Node15</title>
<path fill="none" stroke="midnightblue" d="M911.985,-123.498C920.556,-119.45 931.291,-114.876 941.338,-112 1020.89,-89.2302 1115.66,-77.5157 1177.77,-71.8292"/>
<polygon fill="midnightblue" stroke="midnightblue" points="1178.19,-75.3066 1187.84,-70.9346 1177.57,-68.3341 1178.19,-75.3066"/>
</g>
<!-- Node11&#45;&gt;Node1 -->
<g id="edge11" class="edge"><title>Node11&#45;&gt;Node1</title>
<path fill="none" stroke="midnightblue" d="M764.564,-68.4558C569.064,-72.5801 61.1316,-85.7798 36.3379,-112 -39.8731,-192.596 153.861,-243.219 265.285,-264.848"/>
<polygon fill="midnightblue" stroke="midnightblue" points="264.661,-268.292 275.139,-266.727 265.972,-261.416 264.661,-268.292"/>
</g>
<!-- Node11&#45;&gt;Node6 -->
<g id="edge12" class="edge"><title>Node11&#45;&gt;Node6</title>
<path fill="none" stroke="midnightblue" d="M812.609,-56.4435C781.515,-46.8489 731.132,-31.3021 698.115,-21.1141"/>
<polygon fill="midnightblue" stroke="midnightblue" points="699.054,-17.741 688.467,-18.1368 696.99,-24.4298 699.054,-17.741"/>
</g>
<!-- Node11&#45;&gt;Node7 -->
<g id="edge14" class="edge"><title>Node11&#45;&gt;Node7</title>
<path fill="none" stroke="midnightblue" d="M821.64,-56.4435C801.714,-47.3247 770.039,-32.8295 747.835,-22.668"/>
<polygon fill="midnightblue" stroke="midnightblue" points="749.217,-19.4517 738.668,-18.473 746.304,-25.8169 749.217,-19.4517"/>
</g>
<!-- Node12 -->
<g id="node12" class="node"><title>Node12</title>
<polygon fill="white" stroke="#bfbfbf" points="756.338,-0.5 756.338,-19.5 794.338,-19.5 794.338,-0.5 756.338,-0.5"/>
<text text-anchor="middle" x="775.338" y="-7.5" font-family="Helvetica,sans-Serif" font-size="10.00">map</text>
</g>
<!-- Node11&#45;&gt;Node12 -->
<g id="edge13" class="edge"><title>Node11&#45;&gt;Node12</title>
<path fill="none" stroke="midnightblue" d="M829.895,-56.324C820.192,-48.2631 805.523,-36.0765 793.838,-26.3695"/>
<polygon fill="midnightblue" stroke="midnightblue" points="795.9,-23.532 785.971,-19.8339 791.427,-28.9163 795.9,-23.532"/>
</g>
<!-- Node13 -->
<g id="node13" class="node"><title>Node13</title>
<polygon fill="white" stroke="#bfbfbf" points="812.338,-0.5 812.338,-19.5 854.338,-19.5 854.338,-0.5 812.338,-0.5"/>
<text text-anchor="middle" x="833.338" y="-7.5" font-family="Helvetica,sans-Serif" font-size="10.00">utility</text>
</g>
<!-- Node11&#45;&gt;Node13 -->
<g id="edge15" class="edge"><title>Node11&#45;&gt;Node13</title>
<path fill="none" stroke="midnightblue" d="M839.182,-56.083C838.254,-48.9272 836.92,-38.6353 835.761,-29.6911"/>
<polygon fill="midnightblue" stroke="midnightblue" points="839.229,-29.2181 834.472,-19.7511 832.287,-30.1181 839.229,-29.2181"/>
</g>
<!-- Node14 -->
<g id="node14" class="node"><title>Node14</title>
<polygon fill="white" stroke="#bfbfbf" points="872.838,-0.5 872.838,-19.5 919.838,-19.5 919.838,-0.5 872.838,-0.5"/>
<text text-anchor="middle" x="896.338" y="-7.5" font-family="Helvetica,sans-Serif" font-size="10.00">vector</text>
</g>
<!-- Node11&#45;&gt;Node14 -->
<g id="edge16" class="edge"><title>Node11&#45;&gt;Node14</title>
<path fill="none" stroke="midnightblue" d="M849.335,-56.324C857.532,-48.4196 869.843,-36.5482 879.81,-26.9377"/>
<polygon fill="midnightblue" stroke="midnightblue" points="882.408,-29.2947 887.177,-19.8339 877.549,-24.2558 882.408,-29.2947"/>
</g>
<!-- Node15&#45;&gt;Node10 -->
<g id="edge18" class="edge"><title>Node15&#45;&gt;Node10</title>
<path fill="none" stroke="midnightblue" d="M1189.17,-56.4513C1140.8,-48.6355 1068.4,-36.1622 996.558,-20.1186"/>
<polygon fill="midnightblue" stroke="midnightblue" points="996.953,-16.6197 986.427,-17.8312 995.411,-23.4478 996.953,-16.6197"/>
</g>
<!-- Node16 -->
<g id="node16" class="node"><title>Node16</title>
<polygon fill="white" stroke="#bfbfbf" points="1004.34,-0.5 1004.34,-19.5 1158.34,-19.5 1158.34,-0.5 1004.34,-0.5"/>
<text text-anchor="middle" x="1081.34" y="-7.5" font-family="Helvetica,sans-Serif" font-size="10.00">carl/io/streamingOperators.h</text>
</g>
<!-- Node15&#45;&gt;Node16 -->
<g id="edge19" class="edge"><title>Node15&#45;&gt;Node16</title>
<path fill="none" stroke="midnightblue" d="M1218.51,-56.4435C1191.09,-47.3591 1147.56,-32.9388 1116.91,-22.7831"/>
<polygon fill="midnightblue" stroke="midnightblue" points="1117.64,-19.3389 1107.04,-19.5164 1115.44,-25.9837 1117.64,-19.3389"/>
</g>
<!-- Node17 -->
<g id="node17" class="node"><title>Node17</title>
<polygon fill="white" stroke="#bfbfbf" points="1176.84,-0.5 1176.84,-19.5 1235.84,-19.5 1235.84,-0.5 1176.84,-0.5"/>
<text text-anchor="middle" x="1206.34" y="-7.5" font-family="Helvetica,sans-Serif" font-size="10.00">iostream</text>
</g>
<!-- Node15&#45;&gt;Node17 -->
<g id="edge20" class="edge"><title>Node15&#45;&gt;Node17</title>
<path fill="none" stroke="midnightblue" d="M1238.06,-56.083C1232.7,-48.4554 1224.82,-37.2645 1218.26,-27.9408"/>
<polygon fill="midnightblue" stroke="midnightblue" points="1221.11,-25.9149 1212.5,-19.7511 1215.39,-29.9434 1221.11,-25.9149"/>
</g>
<!-- Node18 -->
<g id="node18" class="node"><title>Node18</title>
<polygon fill="white" stroke="#bfbfbf" points="1254.34,-0.5 1254.34,-19.5 1310.34,-19.5 1310.34,-0.5 1254.34,-0.5"/>
<text text-anchor="middle" x="1282.34" y="-7.5" font-family="Helvetica,sans-Serif" font-size="10.00">sstream</text>
</g>
<!-- Node15&#45;&gt;Node18 -->
<g id="edge21" class="edge"><title>Node15&#45;&gt;Node18</title>
<path fill="none" stroke="midnightblue" d="M1250.61,-56.083C1255.98,-48.4554 1263.86,-37.2645 1270.42,-27.9408"/>
<polygon fill="midnightblue" stroke="midnightblue" points="1273.29,-29.9434 1276.18,-19.7511 1267.56,-25.9149 1273.29,-29.9434"/>
</g>
<!-- Node19 -->
<g id="node19" class="node"><title>Node19</title>
<polygon fill="white" stroke="#bfbfbf" points="1328.34,-0.5 1328.34,-19.5 1376.34,-19.5 1376.34,-0.5 1328.34,-0.5"/>
<text text-anchor="middle" x="1352.34" y="-7.5" font-family="Helvetica,sans-Serif" font-size="10.00">thread</text>
</g>
<!-- Node15&#45;&gt;Node19 -->
<g id="edge22" class="edge"><title>Node15&#45;&gt;Node19</title>
<path fill="none" stroke="midnightblue" d="M1261.69,-56.324C1279.01,-47.6641 1305.85,-34.2424 1325.84,-24.249"/>
<polygon fill="midnightblue" stroke="midnightblue" points="1327.65,-27.2572 1335.03,-19.6545 1324.52,-20.9962 1327.65,-27.2572"/>
</g>
<!-- Node20 -->
<g id="node20" class="node"><title>Node20</title>
<polygon fill="white" stroke="#bfbfbf" points="1394.84,-0.5 1394.84,-19.5 1519.84,-19.5 1519.84,-0.5 1394.84,-0.5"/>
<text text-anchor="middle" x="1457.34" y="-7.5" font-family="Helvetica,sans-Serif" font-size="10.00">carl/core/carlLogging.h</text>
</g>
<!-- Node15&#45;&gt;Node20 -->
<g id="edge23" class="edge"><title>Node15&#45;&gt;Node20</title>
<path fill="none" stroke="midnightblue" d="M1278.09,-56.4435C1314.86,-47.1221 1373.78,-32.1828 1413.96,-21.9972"/>
<polygon fill="midnightblue" stroke="midnightblue" points="1414.91,-25.3666 1423.75,-19.5164 1413.19,-18.5813 1414.91,-25.3666"/>
</g>
<!-- Node21 -->
<g id="node21" class="node"><title>Node21</title>
<polygon fill="white" stroke="#bfbfbf" points="1537.84,-0.5 1537.84,-19.5 1692.84,-19.5 1692.84,-0.5 1537.84,-0.5"/>
<text text-anchor="middle" x="1615.34" y="-7.5" font-family="Helvetica,sans-Serif" font-size="10.00">carl/core/carlLoggingHelper.h</text>
</g>
<!-- Node15&#45;&gt;Node21 -->
<g id="edge24" class="edge"><title>Node15&#45;&gt;Node21</title>
<path fill="none" stroke="midnightblue" d="M1301.09,-56.7398C1367.06,-47.1372 1475.91,-31.2944 1546.61,-21.0034"/>
<polygon fill="midnightblue" stroke="midnightblue" points="1547.36,-24.4307 1556.76,-19.5268 1546.36,-17.5037 1547.36,-24.4307"/>
</g>
</g>
</svg>
        <g id="navigator" transform="translate(0 0)" fill="#404254">
                <rect fill="#f2f5e9" fill-opacity="0.5" stroke="#606060" stroke-width=".5" x="0" y="0" width="60" height="60"/>
                <use id="zoomplus" xlink:href="#zoomPlus" x="17" y="9" onmousedown="handleZoom(evt,'in')"/>
                <use id="zoomminus" xlink:href="#zoomMin" x="42" y="9" onmousedown="handleZoom(evt,'out')"/>
                <use id="reset" xlink:href="#resetDef" x="30" y="36" onmousedown="handleReset()"/>
                <g id="arrowUp" xlink:href="#dirArrow" transform="translate(30 24)" onmousedown="handlePan(0,-1)">
                  <use xlink:href="#rim" fill="#404040">
                        <set attributeName="fill" to="#808080" begin="arrowUp.mouseover" end="arrowUp.mouseout"/>
                  </use>
                  <path fill="none" stroke="white" stroke-width="1.5" d="M0,-3.0v7 M-2.5,-0.5L0,-3.0L2.5,-0.5"/>
                </g>
                <g id="arrowRight" xlink:href="#dirArrow" transform="rotate(90) translate(36 -43)" onmousedown="handlePan(1,0)">
                  <use xlink:href="#rim" fill="#404040">
                        <set attributeName="fill" to="#808080" begin="arrowRight.mouseover" end="arrowRight.mouseout"/>
                  </use>
                  <path fill="none" stroke="white" stroke-width="1.5" d="M0,-3.0v7 M-2.5,-0.5L0,-3.0L2.5,-0.5"/>
                </g>
                <g id="arrowDown" xlink:href="#dirArrow" transform="rotate(180) translate(-30 -48)" onmousedown="handlePan(0,1)">
                  <use xlink:href="#rim" fill="#404040">
                        <set attributeName="fill" to="#808080" begin="arrowDown.mouseover" end="arrowDown.mouseout"/>
                  </use>
                  <path fill="none" stroke="white" stroke-width="1.5" d="M0,-3.0v7 M-2.5,-0.5L0,-3.0L2.5,-0.5"/>
                </g>
                <g id="arrowLeft" xlink:href="#dirArrow" transform="rotate(270) translate(-36 17)" onmousedown="handlePan(-1,0)">
                  <use xlink:href="#rim" fill="#404040">
                        <set attributeName="fill" to="#808080" begin="arrowLeft.mouseover" end="arrowLeft.mouseout"/>
                  </use>
                  <path fill="none" stroke="white" stroke-width="1.5" d="M0,-3.0v7 M-2.5,-0.5L0,-3.0L2.5,-0.5"/>
                </g>
        </g>
        <svg viewBox="0 0 15 15" width="100%" height="30px" preserveAspectRatio="xMaxYMin meet">
         <g id="arrow_out" transform="scale(0.3 0.3)">
          <a xlink:href="types_8h__incl_org.svg" target="_base">
           <rect id="button" ry="5" rx="5" y="6" x="6" height="38" width="38"
                fill="#f2f5e9" fill-opacity="0.5" stroke="#606060" stroke-width="1.0"/>
           <path id="arrow"
             d="M 11.500037,31.436501 C 11.940474,20.09759 22.043105,11.32322 32.158766,21.979434 L 37.068811,17.246167 C 37.068811,17.246167 37.088388,32 37.088388,32 L 22.160133,31.978069 C 22.160133,31.978069 26.997745,27.140456 26.997745,27.140456 C 18.528582,18.264221 13.291696,25.230495 11.500037,31.436501 z"
             style="fill:#404040;"/>
          </a>
         </g>
        </svg>
</svg>
