<?xml version="1.0" encoding="UTF-8" standalone="no"?>
<!DOCTYPE svg PUBLIC "-//W3C//DTD SVG 1.1//EN"
 "http://www.w3.org/Graphics/SVG/1.1/DTD/svg11.dtd">
<!-- Generated by graphviz version 2.38.0 (20140413.2041)
 -->
<!-- Title: /home/travis/build/hypro/hypro/src/hypro/util/convenienceOperators.h Pages: 1 -->
<!--zoomable 363 -->
<svg id="main" version="1.1" xmlns="http://www.w3.org/2000/svg" xmlns:xlink="http://www.w3.org/1999/xlink" xml:space="preserve" onload="init(evt)">
<style type="text/css"><![CDATA[
.edge:hover path { stroke: red; }
.edge:hover polygon { stroke: red; fill: red; }
]]></style>
<script type="text/javascript"><![CDATA[
var edges = document.getElementsByTagName('g');
if (edges && edges.length) {
  for (var i=0;i<edges.length;i++) {
    if (edges[i].id.substr(0,4)=='edge') {
      edges[i].setAttribute('class','edge');
    }
  }
}
]]></script>
        <defs>
                <circle id="rim" cx="0" cy="0" r="7"/>
                <circle id="rim2" cx="0" cy="0" r="3.5"/>
                <g id="zoomPlus">
                        <use xlink:href="#rim" fill="#404040">
                                <set attributeName="fill" to="#808080" begin="zoomplus.mouseover" end="zoomplus.mouseout"/>
                        </use>
                        <path d="M-4,0h8M0,-4v8" fill="none" stroke="white" stroke-width="1.5" pointer-events="none"/>
                </g>
                <g id="zoomMin">
                        <use xlink:href="#rim" fill="#404040">
                                <set attributeName="fill" to="#808080" begin="zoomminus.mouseover" end="zoomminus.mouseout"/>
                        </use>
                        <path d="M-4,0h8" fill="none" stroke="white" stroke-width="1.5" pointer-events="none"/>
                </g>
                <g id="dirArrow">
                        <path fill="none" stroke="white" stroke-width="1.5" d="M0,-3.0v7 M-2.5,-0.5L0,-3.0L2.5,-0.5"/>
                </g>
               <g id="resetDef">
                       <use xlink:href="#rim2" fill="#404040">
                               <set attributeName="fill" to="#808080" begin="reset.mouseover" end="reset.mouseout"/>
                       </use>
               </g>
        </defs>

<script type="text/javascript">
var viewWidth = 1528;
var viewHeight = 363;
var sectionId = 'dynsection-0';
</script>
<script xlink:href="svgpan.js"/>
<svg id="graph" class="graph">
<g id="viewport">
<title>/home/travis/build/hypro/hypro/src/hypro/util/convenienceOperators.h</title>
<polygon fill="white" stroke="none" points="-4,4 -4,-359 1524,-359 1524,4 -4,4"/>
<!-- Node1 -->
<g id="node1" class="node"><title>Node1</title>
<polygon fill="#bfbfbf" stroke="black" points="565,-313.5 565,-354.5 719,-354.5 719,-313.5 565,-313.5"/>
<text text-anchor="start" x="573" y="-342.5" font-family="Helvetica,sans-Serif" font-size="10.00">/home/travis/build</text>
<text text-anchor="start" x="573" y="-331.5" font-family="Helvetica,sans-Serif" font-size="10.00">/hypro/hypro/src/hypro</text>
<text text-anchor="middle" x="642" y="-320.5" font-family="Helvetica,sans-Serif" font-size="10.00">/util/convenienceOperators.h</text>
</g>
<!-- Node2 -->
<g id="node2" class="node"><title>Node2</title>
<g id="a_node2"><a xlink:href="types_8h.html" target="_top" xlink:title="../types.h">
<polygon fill="white" stroke="black" points="504.5,-257.5 504.5,-276.5 565.5,-276.5 565.5,-257.5 504.5,-257.5"/>
<text text-anchor="middle" x="535" y="-264.5" font-family="Helvetica,sans-Serif" font-size="10.00">../types.h</text>
</a>
</g>
</g>
<!-- Node1&#45;&gt;Node2 -->
<g id="edge1" class="edge"><title>Node1&#45;&gt;Node2</title>
<path fill="none" stroke="midnightblue" d="M609.896,-313.498C593.176,-303.34 573.117,-291.155 557.968,-281.952"/>
<polygon fill="midnightblue" stroke="midnightblue" points="559.607,-278.853 549.243,-276.652 555.973,-284.836 559.607,-278.853"/>
</g>
<!-- Node7 -->
<g id="node7" class="node"><title>Node7</title>
<polygon fill="white" stroke="#bfbfbf" points="0,-123.5 0,-142.5 46,-142.5 46,-123.5 0,-123.5"/>
<text text-anchor="middle" x="23" y="-130.5" font-family="Helvetica,sans-Serif" font-size="10.00">iosfwd</text>
</g>
<!-- Node1&#45;&gt;Node7 -->
<g id="edge29" class="edge"><title>Node1&#45;&gt;Node7</title>
<path fill="none" stroke="midnightblue" d="M564.985,-324.306C466.096,-311.168 290.712,-281.129 152,-221 108.735,-202.246 64.4929,-168.616 40.7229,-149.117"/>
<polygon fill="midnightblue" stroke="midnightblue" points="42.855,-146.338 32.9315,-142.627 38.3746,-151.717 42.855,-146.338"/>
</g>
<!-- Node8 -->
<g id="node8" class="node"><title>Node8</title>
<polygon fill="white" stroke="#bfbfbf" points="756,-196 756,-215 788,-215 788,-196 756,-196"/>
<text text-anchor="middle" x="772" y="-203" font-family="Helvetica,sans-Serif" font-size="10.00">set</text>
</g>
<!-- Node1&#45;&gt;Node8 -->
<g id="edge31" class="edge"><title>Node1&#45;&gt;Node8</title>
<path fill="none" stroke="midnightblue" d="M625.023,-313.348C613.066,-297.015 601.264,-273.813 614,-257 649.685,-209.894 686.738,-241.939 742,-221 743.42,-220.462 744.864,-219.882 746.313,-219.274"/>
<polygon fill="midnightblue" stroke="midnightblue" points="748.06,-222.325 755.724,-215.009 745.171,-215.949 748.06,-222.325"/>
</g>
<!-- Node24 -->
<g id="node24" class="node"><title>Node24</title>
<polygon fill="white" stroke="#bfbfbf" points="623,-257.5 623,-276.5 661,-276.5 661,-257.5 623,-257.5"/>
<text text-anchor="middle" x="642" y="-264.5" font-family="Helvetica,sans-Serif" font-size="10.00">map</text>
</g>
<!-- Node1&#45;&gt;Node24 -->
<g id="edge30" class="edge"><title>Node1&#45;&gt;Node24</title>
<path fill="none" stroke="midnightblue" d="M642,-313.498C642,-305.065 642,-295.235 642,-286.874"/>
<polygon fill="midnightblue" stroke="midnightblue" points="645.5,-286.652 642,-276.652 638.5,-286.653 645.5,-286.652"/>
</g>
<!-- Node25 -->
<g id="node25" class="node"><title>Node25</title>
<polygon fill="white" stroke="#bfbfbf" points="679,-257.5 679,-276.5 721,-276.5 721,-257.5 679,-257.5"/>
<text text-anchor="middle" x="700" y="-264.5" font-family="Helvetica,sans-Serif" font-size="10.00">utility</text>
</g>
<!-- Node1&#45;&gt;Node25 -->
<g id="edge32" class="edge"><title>Node1&#45;&gt;Node25</title>
<path fill="none" stroke="midnightblue" d="M659.402,-313.498C667.696,-304.203 677.505,-293.21 685.404,-284.358"/>
<polygon fill="midnightblue" stroke="midnightblue" points="688.233,-286.444 692.279,-276.652 683.01,-281.784 688.233,-286.444"/>
</g>
<!-- Node26 -->
<g id="node26" class="node"><title>Node26</title>
<polygon fill="white" stroke="#bfbfbf" points="739.5,-257.5 739.5,-276.5 786.5,-276.5 786.5,-257.5 739.5,-257.5"/>
<text text-anchor="middle" x="763" y="-264.5" font-family="Helvetica,sans-Serif" font-size="10.00">vector</text>
</g>
<!-- Node1&#45;&gt;Node26 -->
<g id="edge33" class="edge"><title>Node1&#45;&gt;Node26</title>
<path fill="none" stroke="midnightblue" d="M678.304,-313.498C697.569,-303.149 720.753,-290.695 737.991,-281.435"/>
<polygon fill="midnightblue" stroke="midnightblue" points="739.74,-284.468 746.893,-276.652 736.427,-278.302 739.74,-284.468"/>
</g>
<!-- Node3 -->
<g id="node3" class="node"><title>Node3</title>
<polygon fill="white" stroke="#bfbfbf" points="766,-123.5 766,-142.5 900,-142.5 900,-123.5 766,-123.5"/>
<text text-anchor="middle" x="833" y="-130.5" font-family="Helvetica,sans-Serif" font-size="10.00">carl/numbers/numbers.h</text>
</g>
<!-- Node2&#45;&gt;Node3 -->
<g id="edge2" class="edge"><title>Node2&#45;&gt;Node3</title>
<path fill="none" stroke="midnightblue" d="M565.647,-262.146C601.553,-256.73 662.094,-244.749 709,-221 728.446,-211.154 729.398,-202.854 747,-190 767.639,-174.928 792.148,-159.165 809.712,-148.218"/>
<polygon fill="midnightblue" stroke="midnightblue" points="812.023,-150.903 818.686,-142.666 808.34,-144.95 812.023,-150.903"/>
</g>
<!-- Node4 -->
<g id="node4" class="node"><title>Node4</title>
<polygon fill="white" stroke="#bfbfbf" points="492,-196 492,-215 578,-215 578,-196 492,-196"/>
<text text-anchor="middle" x="535" y="-203" font-family="Helvetica,sans-Serif" font-size="10.00">carl/util/hash.h</text>
</g>
<!-- Node2&#45;&gt;Node4 -->
<g id="edge3" class="edge"><title>Node2&#45;&gt;Node4</title>
<path fill="none" stroke="midnightblue" d="M535,-257.475C535,-249.08 535,-235.981 535,-225.163"/>
<polygon fill="midnightblue" stroke="midnightblue" points="538.5,-225.009 535,-215.009 531.5,-225.009 538.5,-225.009"/>
</g>
<!-- Node5 -->
<g id="node5" class="node"><title>Node5</title>
<polygon fill="white" stroke="#bfbfbf" points="596,-196 596,-215 700,-215 700,-196 596,-196"/>
<text text-anchor="middle" x="648" y="-203" font-family="Helvetica,sans-Serif" font-size="10.00">eigen3/Eigen/Core</text>
</g>
<!-- Node2&#45;&gt;Node5 -->
<g id="edge4" class="edge"><title>Node2&#45;&gt;Node5</title>
<path fill="none" stroke="midnightblue" d="M551.19,-257.475C569.902,-247.622 600.923,-231.288 622.799,-219.77"/>
<polygon fill="midnightblue" stroke="midnightblue" points="624.622,-222.765 631.84,-215.009 621.361,-216.571 624.622,-222.765"/>
</g>
<!-- Node6 -->
<g id="node6" class="node"><title>Node6</title>
<polygon fill="white" stroke="#bfbfbf" points="64,-123.5 64,-142.5 176,-142.5 176,-123.5 64,-123.5"/>
<text text-anchor="middle" x="120" y="-130.5" font-family="Helvetica,sans-Serif" font-size="10.00">eigen3/Eigen/Dense</text>
</g>
<!-- Node2&#45;&gt;Node6 -->
<g id="edge5" class="edge"><title>Node2&#45;&gt;Node6</title>
<path fill="none" stroke="midnightblue" d="M504.414,-259.702C467.65,-251.86 404.252,-237.474 351,-221 277.316,-198.205 193.061,-164.46 149.519,-146.429"/>
<polygon fill="midnightblue" stroke="midnightblue" points="150.686,-143.124 140.109,-142.514 147.997,-149.586 150.686,-143.124"/>
</g>
<!-- Node2&#45;&gt;Node7 -->
<g id="edge6" class="edge"><title>Node2&#45;&gt;Node7</title>
<path fill="none" stroke="midnightblue" d="M504.348,-263.308C426.076,-255.508 213.811,-228.512 55,-154 51.2375,-152.235 47.3747,-150.116 43.6924,-147.928"/>
<polygon fill="midnightblue" stroke="midnightblue" points="45.3991,-144.867 35.0706,-142.506 41.6726,-150.792 45.3991,-144.867"/>
</g>
<!-- Node2&#45;&gt;Node8 -->
<g id="edge7" class="edge"><title>Node2&#45;&gt;Node8</title>
<path fill="none" stroke="midnightblue" d="M565.889,-259.705C619.46,-248.725 725.486,-226.696 742,-221 743.617,-220.442 745.26,-219.82 746.902,-219.156"/>
<polygon fill="midnightblue" stroke="midnightblue" points="748.402,-222.319 756.104,-215.044 745.546,-215.928 748.402,-222.319"/>
</g>
<!-- Node9 -->
<g id="node9" class="node"><title>Node9</title>
<g id="a_node9"><a xlink:href="adaptions__eigen_8h.html" target="_top" xlink:title="util/adaptions_eigen\l/adaptions_eigen.h">
<polygon fill="white" stroke="black" points="360.5,-190.5 360.5,-220.5 473.5,-220.5 473.5,-190.5 360.5,-190.5"/>
<text text-anchor="start" x="368.5" y="-208.5" font-family="Helvetica,sans-Serif" font-size="10.00">util/adaptions_eigen</text>
<text text-anchor="middle" x="417" y="-197.5" font-family="Helvetica,sans-Serif" font-size="10.00">/adaptions_eigen.h</text>
</a>
</g>
</g>
<!-- Node2&#45;&gt;Node9 -->
<g id="edge8" class="edge"><title>Node2&#45;&gt;Node9</title>
<path fill="none" stroke="midnightblue" d="M513.193,-257.475C494.791,-249.115 468.484,-236.09 447.956,-225.299"/>
<polygon fill="midnightblue" stroke="midnightblue" points="449.453,-222.131 438.98,-220.523 446.164,-228.31 449.453,-222.131"/>
</g>
<!-- Node9&#45;&gt;Node2 -->
<g id="edge20" class="edge"><title>Node9&#45;&gt;Node2</title>
<path fill="none" stroke="midnightblue" d="M450.64,-220.523C471.081,-230.199 496.424,-242.991 514.066,-252.542"/>
<polygon fill="midnightblue" stroke="midnightblue" points="512.549,-255.703 522.994,-257.475 515.934,-249.576 512.549,-255.703"/>
</g>
<!-- Node9&#45;&gt;Node3 -->
<g id="edge22" class="edge"><title>Node9&#45;&gt;Node3</title>
<path fill="none" stroke="midnightblue" d="M473.821,-191.695C476.921,-191.097 479.996,-190.527 483,-190 603.542,-168.85 635.88,-177.428 756,-154 768.391,-151.583 781.75,-148.343 793.806,-145.174"/>
<polygon fill="midnightblue" stroke="midnightblue" points="794.828,-148.524 803.577,-142.55 793.012,-141.764 794.828,-148.524"/>
</g>
<!-- Node9&#45;&gt;Node6 -->
<g id="edge23" class="edge"><title>Node9&#45;&gt;Node6</title>
<path fill="none" stroke="midnightblue" d="M360.428,-193.572C313.256,-184.129 244.411,-169.577 185,-154 175.523,-151.515 165.359,-148.54 155.951,-145.653"/>
<polygon fill="midnightblue" stroke="midnightblue" points="156.695,-142.219 146.106,-142.582 154.611,-148.901 156.695,-142.219"/>
</g>
<!-- Node9&#45;&gt;Node7 -->
<g id="edge26" class="edge"><title>Node9&#45;&gt;Node7</title>
<path fill="none" stroke="midnightblue" d="M360.223,-199.495C272.873,-191.306 109.868,-173.942 55,-154 50.8438,-152.489 46.6546,-150.385 42.7388,-148.105"/>
<polygon fill="midnightblue" stroke="midnightblue" points="44.5506,-145.109 34.2421,-142.663 40.7751,-151.004 44.5506,-145.109"/>
</g>
<!-- Node10 -->
<g id="node10" class="node"><title>Node10</title>
<g id="a_node10"><a xlink:href="config_8h.html" target="_top" xlink:title="../../config.h">
<polygon fill="white" stroke="black" points="918,-123.5 918,-142.5 990,-142.5 990,-123.5 918,-123.5"/>
<text text-anchor="middle" x="954" y="-130.5" font-family="Helvetica,sans-Serif" font-size="10.00">../../config.h</text>
</a>
</g>
</g>
<!-- Node9&#45;&gt;Node10 -->
<g id="edge9" class="edge"><title>Node9&#45;&gt;Node10</title>
<path fill="none" stroke="midnightblue" d="M473.793,-191.524C476.9,-190.97 479.984,-190.457 483,-190 670.867,-161.552 724.958,-201.242 909,-154 915.63,-152.298 922.514,-149.705 928.845,-146.944"/>
<polygon fill="midnightblue" stroke="midnightblue" points="930.639,-149.969 938.223,-142.571 927.681,-143.625 930.639,-149.969"/>
</g>
<!-- Node19 -->
<g id="node19" class="node"><title>Node19</title>
<g id="a_node19"><a xlink:href="transformation_8h.html" target="_top" xlink:title="transformation.h">
<polygon fill="white" stroke="black" points="650.5,-123.5 650.5,-142.5 747.5,-142.5 747.5,-123.5 650.5,-123.5"/>
<text text-anchor="middle" x="699" y="-130.5" font-family="Helvetica,sans-Serif" font-size="10.00">transformation.h</text>
</a>
</g>
</g>
<!-- Node9&#45;&gt;Node19 -->
<g id="edge21" class="edge"><title>Node9&#45;&gt;Node19</title>
<path fill="none" stroke="midnightblue" d="M473.657,-191.89C537.31,-177.699 632.875,-156.309 641,-154 649.304,-151.64 658.163,-148.77 666.394,-145.949"/>
<polygon fill="midnightblue" stroke="midnightblue" points="667.761,-149.179 676.042,-142.57 665.447,-142.572 667.761,-149.179"/>
</g>
<!-- Node20 -->
<g id="node20" class="node"><title>Node20</title>
<polygon fill="white" stroke="#bfbfbf" points="194,-123.5 194,-142.5 332,-142.5 332,-123.5 194,-123.5"/>
<text text-anchor="middle" x="263" y="-130.5" font-family="Helvetica,sans-Serif" font-size="10.00">eigen3/Eigen/Eigenvalues</text>
</g>
<!-- Node9&#45;&gt;Node20 -->
<g id="edge24" class="edge"><title>Node9&#45;&gt;Node20</title>
<path fill="none" stroke="midnightblue" d="M386.206,-190.403C358.376,-177.662 317.766,-159.071 290.877,-146.762"/>
<polygon fill="midnightblue" stroke="midnightblue" points="292.19,-143.514 281.641,-142.534 289.276,-149.878 292.19,-143.514"/>
</g>
<!-- Node21 -->
<g id="node21" class="node"><title>Node21</title>
<polygon fill="white" stroke="#bfbfbf" points="350.5,-123.5 350.5,-142.5 413.5,-142.5 413.5,-123.5 350.5,-123.5"/>
<text text-anchor="middle" x="382" y="-130.5" font-family="Helvetica,sans-Serif" font-size="10.00">functional</text>
</g>
<!-- Node9&#45;&gt;Node21 -->
<g id="edge25" class="edge"><title>Node9&#45;&gt;Node21</title>
<path fill="none" stroke="midnightblue" d="M409.917,-190.233C404.424,-179.169 396.778,-163.767 390.877,-151.88"/>
<polygon fill="midnightblue" stroke="midnightblue" points="393.997,-150.294 386.415,-142.893 387.727,-153.406 393.997,-150.294"/>
</g>
<!-- Node22 -->
<g id="node22" class="node"><title>Node22</title>
<polygon fill="white" stroke="#bfbfbf" points="432,-123.5 432,-142.5 474,-142.5 474,-123.5 432,-123.5"/>
<text text-anchor="middle" x="453" y="-130.5" font-family="Helvetica,sans-Serif" font-size="10.00">limits</text>
</g>
<!-- Node9&#45;&gt;Node22 -->
<g id="edge27" class="edge"><title>Node9&#45;&gt;Node22</title>
<path fill="none" stroke="midnightblue" d="M424.285,-190.233C429.935,-179.169 437.8,-163.767 443.87,-151.88"/>
<polygon fill="midnightblue" stroke="midnightblue" points="447.028,-153.391 448.459,-142.893 440.794,-150.207 447.028,-153.391"/>
</g>
<!-- Node23 -->
<g id="node23" class="node"><title>Node23</title>
<polygon fill="white" stroke="#bfbfbf" points="492,-112.5 492,-153.5 632,-153.5 632,-112.5 492,-112.5"/>
<text text-anchor="start" x="500" y="-141.5" font-family="Helvetica,sans-Serif" font-size="10.00">eigen3/unsupported</text>
<text text-anchor="start" x="500" y="-130.5" font-family="Helvetica,sans-Serif" font-size="10.00">/Eigen/src/MatrixFunctions</text>
<text text-anchor="middle" x="562" y="-119.5" font-family="Helvetica,sans-Serif" font-size="10.00">/MatrixExponential.h</text>
</g>
<!-- Node9&#45;&gt;Node23 -->
<g id="edge28" class="edge"><title>Node9&#45;&gt;Node23</title>
<path fill="none" stroke="midnightblue" d="M445.994,-190.403C465.013,-181.156 490.371,-168.827 512.527,-158.054"/>
<polygon fill="midnightblue" stroke="midnightblue" points="514.335,-161.067 521.798,-153.546 511.274,-154.771 514.335,-161.067"/>
</g>
<!-- Node10&#45;&gt;Node1 -->
<g id="edge11" class="edge"><title>Node10&#45;&gt;Node1</title>
<path fill="none" stroke="midnightblue" d="M946.613,-142.645C925.389,-166.999 861.486,-236.996 795,-277 772.641,-290.454 746.527,-301.483 722.269,-310.089"/>
<polygon fill="midnightblue" stroke="midnightblue" points="721.029,-306.814 712.72,-313.387 723.315,-313.43 721.029,-306.814"/>
</g>
<!-- Node11 -->
<g id="node11" class="node"><title>Node11</title>
<g id="a_node11"><a xlink:href="flags_8h.html" target="_top" xlink:title="flags.h">
<polygon fill="white" stroke="black" points="765,-0.5 765,-19.5 813,-19.5 813,-0.5 765,-0.5"/>
<text text-anchor="middle" x="789" y="-7.5" font-family="Helvetica,sans-Serif" font-size="10.00">flags.h</text>
</a>
</g>
</g>
<!-- Node10&#45;&gt;Node11 -->
<g id="edge10" class="edge"><title>Node10&#45;&gt;Node11</title>
<path fill="none" stroke="midnightblue" d="M942.398,-123.492C914.655,-103.147 844.197,-51.478 809.268,-25.8629"/>
<polygon fill="midnightblue" stroke="midnightblue" points="810.944,-22.7523 800.811,-19.661 806.805,-28.3971 810.944,-22.7523"/>
</g>
<!-- Node12 -->
<g id="node12" class="node"><title>Node12</title>
<g id="a_node12"><a xlink:href="Logger_8h.html" target="_top" xlink:title="util/logging/Logger.h">
<polygon fill="white" stroke="black" points="982.5,-56.5 982.5,-75.5 1095.5,-75.5 1095.5,-56.5 982.5,-56.5"/>
<text text-anchor="middle" x="1039" y="-63.5" font-family="Helvetica,sans-Serif" font-size="10.00">util/logging/Logger.h</text>
</a>
</g>
</g>
<!-- Node10&#45;&gt;Node12 -->
<g id="edge12" class="edge"><title>Node10&#45;&gt;Node12</title>
<path fill="none" stroke="midnightblue" d="M965.463,-123.234C979.355,-112.611 1002.98,-94.5485 1019.69,-81.7642"/>
<polygon fill="midnightblue" stroke="midnightblue" points="1021.9,-84.4821 1027.72,-75.6273 1017.65,-78.9216 1021.9,-84.4821"/>
</g>
<!-- Node12&#45;&gt;Node11 -->
<g id="edge13" class="edge"><title>Node12&#45;&gt;Node11</title>
<path fill="none" stroke="midnightblue" d="M993.935,-56.4977C952.069,-48.4102 887.775,-35.513 823.071,-20.145"/>
<polygon fill="midnightblue" stroke="midnightblue" points="823.646,-16.6839 813.106,-17.7591 822.016,-23.4915 823.646,-16.6839"/>
</g>
<!-- Node13 -->
<g id="node13" class="node"><title>Node13</title>
<polygon fill="white" stroke="#bfbfbf" points="1214,-0.5 1214,-19.5 1368,-19.5 1368,-0.5 1214,-0.5"/>
<text text-anchor="middle" x="1291" y="-7.5" font-family="Helvetica,sans-Serif" font-size="10.00">carl/io/streamingOperators.h</text>
</g>
<!-- Node12&#45;&gt;Node13 -->
<g id="edge14" class="edge"><title>Node12&#45;&gt;Node13</title>
<path fill="none" stroke="midnightblue" d="M1078.93,-56.4435C1122.89,-47.0234 1193.63,-31.8656 1241.18,-21.6752"/>
<polygon fill="midnightblue" stroke="midnightblue" points="1242.21,-25.0341 1251.26,-19.5164 1240.75,-18.1895 1242.21,-25.0341"/>
</g>
<!-- Node14 -->
<g id="node14" class="node"><title>Node14</title>
<polygon fill="white" stroke="#bfbfbf" points="1386.5,-0.5 1386.5,-19.5 1445.5,-19.5 1445.5,-0.5 1386.5,-0.5"/>
<text text-anchor="middle" x="1416" y="-7.5" font-family="Helvetica,sans-Serif" font-size="10.00">iostream</text>
</g>
<!-- Node12&#45;&gt;Node14 -->
<g id="edge15" class="edge"><title>Node12&#45;&gt;Node14</title>
<path fill="none" stroke="midnightblue" d="M1095.77,-59.0995C1161.03,-51.9466 1271.53,-38.7038 1376.15,-19.9976"/>
<polygon fill="midnightblue" stroke="midnightblue" points="1377.03,-23.3941 1386.25,-18.1702 1375.79,-16.5059 1377.03,-23.3941"/>
</g>
<!-- Node15 -->
<g id="node15" class="node"><title>Node15</title>
<polygon fill="white" stroke="#bfbfbf" points="1464,-0.5 1464,-19.5 1520,-19.5 1520,-0.5 1464,-0.5"/>
<text text-anchor="middle" x="1492" y="-7.5" font-family="Helvetica,sans-Serif" font-size="10.00">sstream</text>
</g>
<!-- Node12&#45;&gt;Node15 -->
<g id="edge16" class="edge"><title>Node12&#45;&gt;Node15</title>
<path fill="none" stroke="midnightblue" d="M1095.51,-61.2433C1173.88,-55.5135 1320.09,-42.9462 1453.79,-20.0044"/>
<polygon fill="midnightblue" stroke="midnightblue" points="1454.55,-23.4248 1463.8,-18.2626 1453.35,-16.5284 1454.55,-23.4248"/>
</g>
<!-- Node16 -->
<g id="node16" class="node"><title>Node16</title>
<polygon fill="white" stroke="#bfbfbf" points="831,-0.5 831,-19.5 879,-19.5 879,-0.5 831,-0.5"/>
<text text-anchor="middle" x="855" y="-7.5" font-family="Helvetica,sans-Serif" font-size="10.00">thread</text>
</g>
<!-- Node12&#45;&gt;Node16 -->
<g id="edge17" class="edge"><title>Node12&#45;&gt;Node16</title>
<path fill="none" stroke="midnightblue" d="M1009.84,-56.4435C976.919,-46.7805 923.421,-31.0801 888.723,-20.8969"/>
<polygon fill="midnightblue" stroke="midnightblue" points="889.616,-17.5114 879.035,-18.0537 887.645,-24.2282 889.616,-17.5114"/>
</g>
<!-- Node17 -->
<g id="node17" class="node"><title>Node17</title>
<polygon fill="white" stroke="#bfbfbf" points="897.5,-0.5 897.5,-19.5 1022.5,-19.5 1022.5,-0.5 897.5,-0.5"/>
<text text-anchor="middle" x="960" y="-7.5" font-family="Helvetica,sans-Serif" font-size="10.00">carl/core/carlLogging.h</text>
</g>
<!-- Node12&#45;&gt;Node17 -->
<g id="edge18" class="edge"><title>Node12&#45;&gt;Node17</title>
<path fill="none" stroke="midnightblue" d="M1026.31,-56.324C1014.1,-47.979 995.422,-35.2122 980.997,-25.3524"/>
<polygon fill="midnightblue" stroke="midnightblue" points="982.892,-22.4082 972.661,-19.6545 978.942,-28.1871 982.892,-22.4082"/>
</g>
<!-- Node18 -->
<g id="node18" class="node"><title>Node18</title>
<polygon fill="white" stroke="#bfbfbf" points="1040.5,-0.5 1040.5,-19.5 1195.5,-19.5 1195.5,-0.5 1040.5,-0.5"/>
<text text-anchor="middle" x="1118" y="-7.5" font-family="Helvetica,sans-Serif" font-size="10.00">carl/core/carlLoggingHelper.h</text>
</g>
<!-- Node12&#45;&gt;Node18 -->
<g id="edge19" class="edge"><title>Node12&#45;&gt;Node18</title>
<path fill="none" stroke="midnightblue" d="M1051.69,-56.324C1063.9,-47.979 1082.58,-35.2122 1097,-25.3524"/>
<polygon fill="midnightblue" stroke="midnightblue" points="1099.06,-28.1871 1105.34,-19.6545 1095.11,-22.4082 1099.06,-28.1871"/>
</g>
</g>
</svg>
        <g id="navigator" transform="translate(0 0)" fill="#404254">
                <rect fill="#f2f5e9" fill-opacity="0.5" stroke="#606060" stroke-width=".5" x="0" y="0" width="60" height="60"/>
                <use id="zoomplus" xlink:href="#zoomPlus" x="17" y="9" onmousedown="handleZoom(evt,'in')"/>
                <use id="zoomminus" xlink:href="#zoomMin" x="42" y="9" onmousedown="handleZoom(evt,'out')"/>
                <use id="reset" xlink:href="#resetDef" x="30" y="36" onmousedown="handleReset()"/>
                <g id="arrowUp" xlink:href="#dirArrow" transform="translate(30 24)" onmousedown="handlePan(0,-1)">
                  <use xlink:href="#rim" fill="#404040">
                        <set attributeName="fill" to="#808080" begin="arrowUp.mouseover" end="arrowUp.mouseout"/>
                  </use>
                  <path fill="none" stroke="white" stroke-width="1.5" d="M0,-3.0v7 M-2.5,-0.5L0,-3.0L2.5,-0.5"/>
                </g>
                <g id="arrowRight" xlink:href="#dirArrow" transform="rotate(90) translate(36 -43)" onmousedown="handlePan(1,0)">
                  <use xlink:href="#rim" fill="#404040">
                        <set attributeName="fill" to="#808080" begin="arrowRight.mouseover" end="arrowRight.mouseout"/>
                  </use>
                  <path fill="none" stroke="white" stroke-width="1.5" d="M0,-3.0v7 M-2.5,-0.5L0,-3.0L2.5,-0.5"/>
                </g>
                <g id="arrowDown" xlink:href="#dirArrow" transform="rotate(180) translate(-30 -48)" onmousedown="handlePan(0,1)">
                  <use xlink:href="#rim" fill="#404040">
                        <set attributeName="fill" to="#808080" begin="arrowDown.mouseover" end="arrowDown.mouseout"/>
                  </use>
                  <path fill="none" stroke="white" stroke-width="1.5" d="M0,-3.0v7 M-2.5,-0.5L0,-3.0L2.5,-0.5"/>
                </g>
                <g id="arrowLeft" xlink:href="#dirArrow" transform="rotate(270) translate(-36 17)" onmousedown="handlePan(-1,0)">
                  <use xlink:href="#rim" fill="#404040">
                        <set attributeName="fill" to="#808080" begin="arrowLeft.mouseover" end="arrowLeft.mouseout"/>
                  </use>
                  <path fill="none" stroke="white" stroke-width="1.5" d="M0,-3.0v7 M-2.5,-0.5L0,-3.0L2.5,-0.5"/>
                </g>
        </g>
        <svg viewBox="0 0 15 15" width="100%" height="30px" preserveAspectRatio="xMaxYMin meet">
         <g id="arrow_out" transform="scale(0.3 0.3)">
          <a xlink:href="util_2convenienceOperators_8h__incl_org.svg" target="_base">
           <rect id="button" ry="5" rx="5" y="6" x="6" height="38" width="38"
                fill="#f2f5e9" fill-opacity="0.5" stroke="#606060" stroke-width="1.0"/>
           <path id="arrow"
             d="M 11.500037,31.436501 C 11.940474,20.09759 22.043105,11.32322 32.158766,21.979434 L 37.068811,17.246167 C 37.068811,17.246167 37.088388,32 37.088388,32 L 22.160133,31.978069 C 22.160133,31.978069 26.997745,27.140456 26.997745,27.140456 C 18.528582,18.264221 13.291696,25.230495 11.500037,31.436501 z"
             style="fill:#404040;"/>
          </a>
         </g>
        </svg>
</svg>
