<?xml version="1.0" encoding="UTF-8" standalone="no"?>
<!DOCTYPE svg PUBLIC "-//W3C//DTD SVG 1.1//EN"
 "http://www.w3.org/Graphics/SVG/1.1/DTD/svg11.dtd">
<!-- Generated by graphviz version 2.38.0 (20140413.2041)
 -->
<!-- Title: /home/travis/build/hypro/hypro/src/hypro/util/typetraits.h Pages: 1 -->
<svg width="1723pt" height="673pt"
 viewBox="0.00 0.00 1723.07 673.00" xmlns="http://www.w3.org/2000/svg" xmlns:xlink="http://www.w3.org/1999/xlink">
<g id="graph0" class="graph" transform="scale(1 1) rotate(0) translate(4 669)">
<title>/home/travis/build/hypro/hypro/src/hypro/util/typetraits.h</title>
<polygon fill="white" stroke="none" points="-4,4 -4,-669 1719.07,-669 1719.07,4 -4,4"/>
<!-- Node1 -->
<g id="node1" class="node"><title>Node1</title>
<polygon fill="#bfbfbf" stroke="black" points="1028.07,-623.5 1028.07,-664.5 1152.07,-664.5 1152.07,-623.5 1028.07,-623.5"/>
<text text-anchor="start" x="1036.07" y="-652.5" font-family="Helvetica,sans-Serif" font-size="10.00">/home/travis/build</text>
<text text-anchor="start" x="1036.07" y="-641.5" font-family="Helvetica,sans-Serif" font-size="10.00">/hypro/hypro/src/hypro</text>
<text text-anchor="middle" x="1090.07" y="-630.5" font-family="Helvetica,sans-Serif" font-size="10.00">/util/typetraits.h</text>
</g>
<!-- Node2 -->
<g id="node2" class="node"><title>Node2</title>
<g id="a_node2"><a xlink:href="WorkQueue_8h.html" target="_top" xlink:title="/home/travis/build\l/hypro/hypro/src/hypro\l/datastructures/reachability\l/workQueue/WorkQueue.h">
<polygon fill="white" stroke="black" points="457.072,-534.5 457.072,-586.5 605.072,-586.5 605.072,-534.5 457.072,-534.5"/>
<text text-anchor="start" x="465.072" y="-574.5" font-family="Helvetica,sans-Serif" font-size="10.00">/home/travis/build</text>
<text text-anchor="start" x="465.072" y="-563.5" font-family="Helvetica,sans-Serif" font-size="10.00">/hypro/hypro/src/hypro</text>
<text text-anchor="start" x="465.072" y="-552.5" font-family="Helvetica,sans-Serif" font-size="10.00">/datastructures/reachability</text>
<text text-anchor="middle" x="531.072" y="-541.5" font-family="Helvetica,sans-Serif" font-size="10.00">/workQueue/WorkQueue.h</text>
</a>
</g>
</g>
<!-- Node1&#45;&gt;Node2 -->
<g id="edge1" class="edge"><title>Node1&#45;&gt;Node2</title>
<path fill="none" stroke="midnightblue" d="M1017.82,-632.466C911.22,-616.924 712.83,-588 605.177,-572.304"/>
<polygon fill="midnightblue" stroke="midnightblue" points="1017.44,-635.948 1027.84,-633.927 1018.45,-629.021 1017.44,-635.948"/>
</g>
<!-- Node19 -->
<g id="node19" class="node"><title>Node19</title>
<g id="a_node19"><a xlink:href="WorkQueueManager_8h.html" target="_top" xlink:title="/home/travis/build\l/hypro/hypro/src/hypro\l/datastructures/reachability\l/workQueue/WorkQueueManager.h">
<polygon fill="white" stroke="black" points="1527.07,-178.5 1527.07,-230.5 1707.07,-230.5 1707.07,-178.5 1527.07,-178.5"/>
<text text-anchor="start" x="1535.07" y="-218.5" font-family="Helvetica,sans-Serif" font-size="10.00">/home/travis/build</text>
<text text-anchor="start" x="1535.07" y="-207.5" font-family="Helvetica,sans-Serif" font-size="10.00">/hypro/hypro/src/hypro</text>
<text text-anchor="start" x="1535.07" y="-196.5" font-family="Helvetica,sans-Serif" font-size="10.00">/datastructures/reachability</text>
<text text-anchor="middle" x="1617.07" y="-185.5" font-family="Helvetica,sans-Serif" font-size="10.00">/workQueue/WorkQueueManager.h</text>
</a>
</g>
</g>
<!-- Node1&#45;&gt;Node19 -->
<g id="edge33" class="edge"><title>Node1&#45;&gt;Node19</title>
<path fill="none" stroke="midnightblue" d="M1162.3,-634.824C1306.01,-616.539 1614.07,-566.392 1614.07,-472.5 1614.07,-472.5 1614.07,-472.5 1614.07,-381.5 1614.07,-327.714 1615.49,-264.697 1616.38,-230.563"/>
<polygon fill="midnightblue" stroke="midnightblue" points="1161.73,-631.368 1152.24,-636.085 1162.6,-638.313 1161.73,-631.368"/>
</g>
<!-- Node3 -->
<g id="node3" class="node"><title>Node3</title>
<g id="a_node3"><a xlink:href="ContextFactory_8h.html" target="_top" xlink:title="/home/travis/build\l/hypro/hypro/src/hypro\l/algorithms/reachability\l/contexts/ContextFactory.h">
<polygon fill="white" stroke="black" points="391.572,-178.5 391.572,-230.5 534.572,-230.5 534.572,-178.5 391.572,-178.5"/>
<text text-anchor="start" x="399.572" y="-218.5" font-family="Helvetica,sans-Serif" font-size="10.00">/home/travis/build</text>
<text text-anchor="start" x="399.572" y="-207.5" font-family="Helvetica,sans-Serif" font-size="10.00">/hypro/hypro/src/hypro</text>
<text text-anchor="start" x="399.572" y="-196.5" font-family="Helvetica,sans-Serif" font-size="10.00">/algorithms/reachability</text>
<text text-anchor="middle" x="463.072" y="-185.5" font-family="Helvetica,sans-Serif" font-size="10.00">/contexts/ContextFactory.h</text>
</a>
</g>
</g>
<!-- Node2&#45;&gt;Node3 -->
<g id="edge2" class="edge"><title>Node2&#45;&gt;Node3</title>
<path fill="none" stroke="midnightblue" d="M446.725,-554.35C370.626,-547.632 256.613,-532.359 163.072,-498 90.6656,-471.404 52.1433,-476.087 14.072,-409 -19.176,-350.413 11.2425,-304.695 67.072,-267 118.751,-232.107 292.207,-215.926 391.569,-209.36"/>
<polygon fill="midnightblue" stroke="midnightblue" points="446.479,-557.842 456.741,-555.204 447.074,-550.867 446.479,-557.842"/>
</g>
<!-- Node4 -->
<g id="node4" class="node"><title>Node4</title>
<g id="a_node4"><a xlink:href="ContextBasedReachabilityWorker_8h.html" target="_top" xlink:title="/home/travis/build\l/hypro/hypro/src/hypro\l/algorithms/reachability\l/workers/ContextBasedReachability\lWorker.h">
<polygon fill="white" stroke="black" points="1346.57,-78.5 1346.57,-141.5 1529.57,-141.5 1529.57,-78.5 1346.57,-78.5"/>
<text text-anchor="start" x="1354.57" y="-129.5" font-family="Helvetica,sans-Serif" font-size="10.00">/home/travis/build</text>
<text text-anchor="start" x="1354.57" y="-118.5" font-family="Helvetica,sans-Serif" font-size="10.00">/hypro/hypro/src/hypro</text>
<text text-anchor="start" x="1354.57" y="-107.5" font-family="Helvetica,sans-Serif" font-size="10.00">/algorithms/reachability</text>
<text text-anchor="start" x="1354.57" y="-96.5" font-family="Helvetica,sans-Serif" font-size="10.00">/workers/ContextBasedReachability</text>
<text text-anchor="middle" x="1438.07" y="-85.5" font-family="Helvetica,sans-Serif" font-size="10.00">Worker.h</text>
</a>
</g>
</g>
<!-- Node2&#45;&gt;Node4 -->
<g id="edge29" class="edge"><title>Node2&#45;&gt;Node4</title>
<path fill="none" stroke="midnightblue" d="M615.596,-559.785C828.552,-558.5 1377.99,-542.093 1488.07,-409 1552.77,-330.779 1491.1,-200.552 1457.13,-141.627"/>
<polygon fill="midnightblue" stroke="midnightblue" points="615.389,-556.286 605.407,-559.836 615.425,-563.286 615.389,-556.286"/>
</g>
<!-- Node7 -->
<g id="node7" class="node"><title>Node7</title>
<g id="a_node7"><a xlink:href="IWorker_8h.html" target="_top" xlink:title="/home/travis/build\l/hypro/hypro/src/hypro\l/algorithms/reachability\l/workers/IWorker.h">
<polygon fill="white" stroke="black" points="513.072,-445.5 513.072,-497.5 641.072,-497.5 641.072,-445.5 513.072,-445.5"/>
<text text-anchor="start" x="521.072" y="-485.5" font-family="Helvetica,sans-Serif" font-size="10.00">/home/travis/build</text>
<text text-anchor="start" x="521.072" y="-474.5" font-family="Helvetica,sans-Serif" font-size="10.00">/hypro/hypro/src/hypro</text>
<text text-anchor="start" x="521.072" y="-463.5" font-family="Helvetica,sans-Serif" font-size="10.00">/algorithms/reachability</text>
<text text-anchor="middle" x="577.072" y="-452.5" font-family="Helvetica,sans-Serif" font-size="10.00">/workers/IWorker.h</text>
</a>
</g>
</g>
<!-- Node2&#45;&gt;Node7 -->
<g id="edge6" class="edge"><title>Node2&#45;&gt;Node7</title>
<path fill="none" stroke="midnightblue" d="M549.128,-525.35C554.019,-516.1 559.222,-506.259 563.797,-497.607"/>
<polygon fill="midnightblue" stroke="midnightblue" points="545.957,-523.86 544.377,-534.336 552.145,-527.132 545.957,-523.86"/>
</g>
<!-- Node8 -->
<g id="node8" class="node"><title>Node8</title>
<g id="a_node8"><a xlink:href="LTIContext_8h.html" target="_top" xlink:title="/home/travis/build\l/hypro/hypro/src/hypro\l/algorithms/reachability\l/contexts/LTIContext.h">
<polygon fill="white" stroke="black" points="329.072,-356.5 329.072,-408.5 457.072,-408.5 457.072,-356.5 329.072,-356.5"/>
<text text-anchor="start" x="337.072" y="-396.5" font-family="Helvetica,sans-Serif" font-size="10.00">/home/travis/build</text>
<text text-anchor="start" x="337.072" y="-385.5" font-family="Helvetica,sans-Serif" font-size="10.00">/hypro/hypro/src/hypro</text>
<text text-anchor="start" x="337.072" y="-374.5" font-family="Helvetica,sans-Serif" font-size="10.00">/algorithms/reachability</text>
<text text-anchor="middle" x="393.072" y="-363.5" font-family="Helvetica,sans-Serif" font-size="10.00">/contexts/LTIContext.h</text>
</a>
</g>
</g>
<!-- Node2&#45;&gt;Node8 -->
<g id="edge14" class="edge"><title>Node2&#45;&gt;Node8</title>
<path fill="none" stroke="midnightblue" d="M497.583,-527.298C488.631,-518.131 479.194,-507.931 471.072,-498 447.165,-468.769 423.245,-432.326 408.319,-408.512"/>
<polygon fill="midnightblue" stroke="midnightblue" points="495.099,-529.763 504.623,-534.403 500.071,-524.836 495.099,-529.763"/>
</g>
<!-- Node9 -->
<g id="node9" class="node"><title>Node9</title>
<g id="a_node9"><a xlink:href="TimedContext_8h.html" target="_top" xlink:title="/home/travis/build\l/hypro/hypro/src/hypro\l/algorithms/reachability\l/contexts/TimedContext.h">
<polygon fill="white" stroke="black" points="393.072,-267.5 393.072,-319.5 533.072,-319.5 533.072,-267.5 393.072,-267.5"/>
<text text-anchor="start" x="401.072" y="-307.5" font-family="Helvetica,sans-Serif" font-size="10.00">/home/travis/build</text>
<text text-anchor="start" x="401.072" y="-296.5" font-family="Helvetica,sans-Serif" font-size="10.00">/hypro/hypro/src/hypro</text>
<text text-anchor="start" x="401.072" y="-285.5" font-family="Helvetica,sans-Serif" font-size="10.00">/algorithms/reachability</text>
<text text-anchor="middle" x="463.072" y="-274.5" font-family="Helvetica,sans-Serif" font-size="10.00">/contexts/TimedContext.h</text>
</a>
</g>
</g>
<!-- Node2&#45;&gt;Node9 -->
<g id="edge22" class="edge"><title>Node2&#45;&gt;Node9</title>
<path fill="none" stroke="midnightblue" d="M514.311,-524.851C510.569,-516.218 506.882,-506.886 504.072,-498 484.242,-435.288 471.849,-358.568 466.367,-319.684"/>
<polygon fill="midnightblue" stroke="midnightblue" points="511.235,-526.544 518.516,-534.24 517.623,-523.683 511.235,-526.544"/>
</g>
<!-- Node10 -->
<g id="node10" class="node"><title>Node10</title>
<g id="a_node10"><a xlink:href="HandlerFactory_8h.html" target="_top" xlink:title="/home/travis/build\l/hypro/hypro/src/hypro\l/algorithms/reachability\l/handlers/HandlerFactory.h">
<polygon fill="white" stroke="black" points="229.572,-445.5 229.572,-497.5 372.572,-497.5 372.572,-445.5 229.572,-445.5"/>
<text text-anchor="start" x="237.572" y="-485.5" font-family="Helvetica,sans-Serif" font-size="10.00">/home/travis/build</text>
<text text-anchor="start" x="237.572" y="-474.5" font-family="Helvetica,sans-Serif" font-size="10.00">/hypro/hypro/src/hypro</text>
<text text-anchor="start" x="237.572" y="-463.5" font-family="Helvetica,sans-Serif" font-size="10.00">/algorithms/reachability</text>
<text text-anchor="middle" x="301.072" y="-452.5" font-family="Helvetica,sans-Serif" font-size="10.00">/handlers/HandlerFactory.h</text>
</a>
</g>
</g>
<!-- Node2&#45;&gt;Node10 -->
<g id="edge15" class="edge"><title>Node2&#45;&gt;Node10</title>
<path fill="none" stroke="midnightblue" d="M455.351,-530.858C426.878,-520.087 394.754,-507.936 367.22,-497.521"/>
<polygon fill="midnightblue" stroke="midnightblue" points="454.263,-534.188 464.855,-534.453 456.74,-527.641 454.263,-534.188"/>
</g>
<!-- Node11 -->
<g id="node11" class="node"><title>Node11</title>
<g id="a_node11"><a xlink:href="ltiJumpHandler_8h.html" target="_top" xlink:title="/home/travis/build\l/hypro/hypro/src/hypro\l/algorithms/reachability\l/handlers/jumpHandlers/ltiJumpHandler.h">
<polygon fill="white" stroke="black" points="23.072,-356.5 23.072,-408.5 235.072,-408.5 235.072,-356.5 23.072,-356.5"/>
<text text-anchor="start" x="31.072" y="-396.5" font-family="Helvetica,sans-Serif" font-size="10.00">/home/travis/build</text>
<text text-anchor="start" x="31.072" y="-385.5" font-family="Helvetica,sans-Serif" font-size="10.00">/hypro/hypro/src/hypro</text>
<text text-anchor="start" x="31.072" y="-374.5" font-family="Helvetica,sans-Serif" font-size="10.00">/algorithms/reachability</text>
<text text-anchor="middle" x="129.072" y="-363.5" font-family="Helvetica,sans-Serif" font-size="10.00">/handlers/jumpHandlers/ltiJumpHandler.h</text>
</a>
</g>
</g>
<!-- Node2&#45;&gt;Node11 -->
<g id="edge21" class="edge"><title>Node2&#45;&gt;Node11</title>
<path fill="none" stroke="midnightblue" d="M446.409,-558.369C380.423,-553.97 288.778,-539.864 220.072,-498 184.511,-476.332 157.166,-435.435 142.105,-408.839"/>
<polygon fill="midnightblue" stroke="midnightblue" points="446.579,-561.886 456.771,-558.995 447,-554.899 446.579,-561.886"/>
</g>
<!-- Node13 -->
<g id="node13" class="node"><title>Node13</title>
<g id="a_node13"><a xlink:href="Reach_8h.html" target="_top" xlink:title="/home/travis/build\l/hypro/hypro/src/hypro\l/algorithms/reachability\l/Reach.h">
<polygon fill="white" stroke="black" points="885.072,-445.5 885.072,-497.5 1013.07,-497.5 1013.07,-445.5 885.072,-445.5"/>
<text text-anchor="start" x="893.072" y="-485.5" font-family="Helvetica,sans-Serif" font-size="10.00">/home/travis/build</text>
<text text-anchor="start" x="893.072" y="-474.5" font-family="Helvetica,sans-Serif" font-size="10.00">/hypro/hypro/src/hypro</text>
<text text-anchor="start" x="893.072" y="-463.5" font-family="Helvetica,sans-Serif" font-size="10.00">/algorithms/reachability</text>
<text text-anchor="middle" x="949.072" y="-452.5" font-family="Helvetica,sans-Serif" font-size="10.00">/Reach.h</text>
</a>
</g>
</g>
<!-- Node2&#45;&gt;Node13 -->
<g id="edge23" class="edge"><title>Node2&#45;&gt;Node13</title>
<path fill="none" stroke="midnightblue" d="M615.314,-541.966C694.876,-525.407 812.485,-500.928 884.762,-485.885"/>
<polygon fill="midnightblue" stroke="midnightblue" points="614.397,-538.582 605.32,-544.046 615.824,-545.435 614.397,-538.582"/>
</g>
<!-- Node2&#45;&gt;Node19 -->
<g id="edge30" class="edge"><title>Node2&#45;&gt;Node19</title>
<path fill="none" stroke="midnightblue" d="M615.594,-559.598C842.08,-559.119 1450.28,-552.7 1521.07,-498 1532.12,-489.463 1589.11,-299.908 1609.67,-230.594"/>
<polygon fill="midnightblue" stroke="midnightblue" points="615.418,-556.098 605.425,-559.616 615.431,-563.098 615.418,-556.098"/>
</g>
<!-- Node3&#45;&gt;Node4 -->
<g id="edge3" class="edge"><title>Node3&#45;&gt;Node4</title>
<path fill="none" stroke="midnightblue" d="M544.875,-184.905C558.257,-182.295 572.014,-179.87 585.072,-178 860.601,-138.549 1189.77,-120.955 1346.44,-114.358"/>
<polygon fill="midnightblue" stroke="midnightblue" points="543.852,-181.54 534.732,-186.931 545.223,-188.404 543.852,-181.54"/>
</g>
<!-- Node5 -->
<g id="node5" class="node"><title>Node5</title>
<g id="a_node5"><a xlink:href="example__rectangularReachability_8cpp.html" target="_top" xlink:title="/home/travis/build\l/hypro/hypro/examples\l/example_rectangularReachability.cpp">
<polygon fill="white" stroke="black" points="1519.07,-0.5 1519.07,-41.5 1715.07,-41.5 1715.07,-0.5 1519.07,-0.5"/>
<text text-anchor="start" x="1527.07" y="-29.5" font-family="Helvetica,sans-Serif" font-size="10.00">/home/travis/build</text>
<text text-anchor="start" x="1527.07" y="-18.5" font-family="Helvetica,sans-Serif" font-size="10.00">/hypro/hypro/examples</text>
<text text-anchor="middle" x="1617.07" y="-7.5" font-family="Helvetica,sans-Serif" font-size="10.00">/example_rectangularReachability.cpp</text>
</a>
</g>
</g>
<!-- Node4&#45;&gt;Node5 -->
<g id="edge4" class="edge"><title>Node4&#45;&gt;Node5</title>
<path fill="none" stroke="midnightblue" d="M1510.2,-73.9443C1532.88,-62.9224 1557.1,-51.1482 1576.74,-41.6012"/>
<polygon fill="midnightblue" stroke="midnightblue" points="1508.39,-70.9301 1500.93,-78.4494 1511.45,-77.2259 1508.39,-70.9301"/>
</g>
<!-- Node6 -->
<g id="node6" class="node"><title>Node6</title>
<g id="a_node6"><a xlink:href="example__worker_8cpp.html" target="_top" xlink:title="/home/travis/build\l/hypro/hypro/examples\l/example_worker.cpp">
<polygon fill="white" stroke="black" points="1375.07,-0.5 1375.07,-41.5 1501.07,-41.5 1501.07,-0.5 1375.07,-0.5"/>
<text text-anchor="start" x="1383.07" y="-29.5" font-family="Helvetica,sans-Serif" font-size="10.00">/home/travis/build</text>
<text text-anchor="start" x="1383.07" y="-18.5" font-family="Helvetica,sans-Serif" font-size="10.00">/hypro/hypro/examples</text>
<text text-anchor="middle" x="1438.07" y="-7.5" font-family="Helvetica,sans-Serif" font-size="10.00">/example_worker.cpp</text>
</a>
</g>
</g>
<!-- Node4&#45;&gt;Node6 -->
<g id="edge5" class="edge"><title>Node4&#45;&gt;Node6</title>
<path fill="none" stroke="midnightblue" d="M1438.07,-67.913C1438.07,-58.7761 1438.07,-49.4967 1438.07,-41.6941"/>
<polygon fill="midnightblue" stroke="midnightblue" points="1434.57,-68.0821 1438.07,-78.0821 1441.57,-68.0821 1434.57,-68.0821"/>
</g>
<!-- Node7&#45;&gt;Node3 -->
<g id="edge7" class="edge"><title>Node7&#45;&gt;Node3</title>
<path fill="none" stroke="midnightblue" d="M578.48,-435.144C578.585,-392.33 573.496,-319.445 542.072,-267 533.496,-252.687 520.242,-240.46 507.026,-230.768"/>
<polygon fill="midnightblue" stroke="midnightblue" points="574.978,-435.309 578.355,-445.351 581.977,-435.395 574.978,-435.309"/>
</g>
<!-- Node7&#45;&gt;Node4 -->
<g id="edge13" class="edge"><title>Node7&#45;&gt;Node4</title>
<path fill="none" stroke="midnightblue" d="M581.238,-435.08C586.022,-409.777 596.253,-376.682 618.072,-356 824.171,-160.645 1179.59,-120.428 1346.49,-112.59"/>
<polygon fill="midnightblue" stroke="midnightblue" points="577.77,-434.599 579.555,-445.042 584.672,-435.765 577.77,-434.599"/>
</g>
<!-- Node7&#45;&gt;Node8 -->
<g id="edge8" class="edge"><title>Node7&#45;&gt;Node8</title>
<path fill="none" stroke="midnightblue" d="M514.803,-441.058C492.514,-430.519 467.615,-418.746 446.173,-408.607"/>
<polygon fill="midnightblue" stroke="midnightblue" points="513.315,-444.226 523.852,-445.336 516.307,-437.897 513.315,-444.226"/>
</g>
<!-- Node7&#45;&gt;Node9 -->
<g id="edge12" class="edge"><title>Node7&#45;&gt;Node9</title>
<path fill="none" stroke="midnightblue" d="M555.093,-436.568C532.937,-402.362 499.255,-350.361 479.375,-319.67"/>
<polygon fill="midnightblue" stroke="midnightblue" points="552.364,-438.793 560.739,-445.283 558.24,-434.988 552.364,-438.793"/>
</g>
<!-- Node8&#45;&gt;Node3 -->
<g id="edge9" class="edge"><title>Node8&#45;&gt;Node3</title>
<path fill="none" stroke="midnightblue" d="M381.349,-346.514C375.528,-322.896 372.02,-291.656 384.072,-267 391.247,-252.321 403.804,-240.131 416.824,-230.58"/>
<polygon fill="midnightblue" stroke="midnightblue" points="378.049,-347.716 384.042,-356.452 384.805,-345.885 378.049,-347.716"/>
</g>
<!-- Node8&#45;&gt;Node9 -->
<g id="edge10" class="edge"><title>Node8&#45;&gt;Node9</title>
<path fill="none" stroke="midnightblue" d="M419.621,-348.503C427.33,-338.923 435.619,-328.62 442.871,-319.607"/>
<polygon fill="midnightblue" stroke="midnightblue" points="416.861,-346.351 413.319,-356.336 422.315,-350.739 416.861,-346.351"/>
</g>
<!-- Node9&#45;&gt;Node3 -->
<g id="edge11" class="edge"><title>Node9&#45;&gt;Node3</title>
<path fill="none" stroke="midnightblue" d="M463.072,-257.191C463.072,-248.282 463.072,-238.899 463.072,-230.607"/>
<polygon fill="midnightblue" stroke="midnightblue" points="459.572,-257.336 463.072,-267.336 466.572,-257.336 459.572,-257.336"/>
</g>
<!-- Node10&#45;&gt;Node8 -->
<g id="edge16" class="edge"><title>Node10&#45;&gt;Node8</title>
<path fill="none" stroke="midnightblue" d="M335.056,-438.363C345.441,-428.542 356.706,-417.89 366.522,-408.607"/>
<polygon fill="midnightblue" stroke="midnightblue" points="332.543,-435.922 327.682,-445.336 337.353,-441.008 332.543,-435.922"/>
</g>
<!-- Node10&#45;&gt;Node9 -->
<g id="edge20" class="edge"><title>Node10&#45;&gt;Node9</title>
<path fill="none" stroke="midnightblue" d="M298.522,-435.416C298.573,-410.772 302.566,-378.346 320.072,-356 338.071,-333.024 366.335,-318.488 392.998,-309.361"/>
<polygon fill="midnightblue" stroke="midnightblue" points="295.024,-435.519 298.714,-445.45 302.022,-435.385 295.024,-435.519"/>
</g>
<!-- Node10&#45;&gt;Node11 -->
<g id="edge17" class="edge"><title>Node10&#45;&gt;Node11</title>
<path fill="none" stroke="midnightblue" d="M242.308,-440.776C221.615,-430.309 198.576,-418.656 178.71,-408.607"/>
<polygon fill="midnightblue" stroke="midnightblue" points="240.819,-443.946 251.322,-445.336 243.979,-437.699 240.819,-443.946"/>
</g>
<!-- Node12 -->
<g id="node12" class="node"><title>Node12</title>
<g id="a_node12"><a xlink:href="JumpHandlers_8h.html" target="_top" xlink:title="/home/travis/build\l/hypro/hypro/src/hypro\l/algorithms/reachability\l/handlers/jumpHandlers/JumpHandlers.h">
<polygon fill="white" stroke="black" points="76.572,-267.5 76.572,-319.5 285.572,-319.5 285.572,-267.5 76.572,-267.5"/>
<text text-anchor="start" x="84.572" y="-307.5" font-family="Helvetica,sans-Serif" font-size="10.00">/home/travis/build</text>
<text text-anchor="start" x="84.572" y="-296.5" font-family="Helvetica,sans-Serif" font-size="10.00">/hypro/hypro/src/hypro</text>
<text text-anchor="start" x="84.572" y="-285.5" font-family="Helvetica,sans-Serif" font-size="10.00">/algorithms/reachability</text>
<text text-anchor="middle" x="181.072" y="-274.5" font-family="Helvetica,sans-Serif" font-size="10.00">/handlers/jumpHandlers/JumpHandlers.h</text>
</a>
</g>
</g>
<!-- Node11&#45;&gt;Node12 -->
<g id="edge18" class="edge"><title>Node11&#45;&gt;Node12</title>
<path fill="none" stroke="midnightblue" d="M149.311,-347.639C154.889,-338.306 160.84,-328.349 166.065,-319.607"/>
<polygon fill="midnightblue" stroke="midnightblue" points="146.239,-345.957 144.113,-356.336 152.247,-349.548 146.239,-345.957"/>
</g>
<!-- Node12&#45;&gt;Node10 -->
<g id="edge19" class="edge"><title>Node12&#45;&gt;Node10</title>
<path fill="none" stroke="midnightblue" d="M218.053,-326.544C227.209,-335.522 236.543,-345.667 244.072,-356 264.733,-384.356 281.603,-421.326 291.491,-445.475"/>
<polygon fill="midnightblue" stroke="midnightblue" points="220.438,-323.982 210.786,-319.612 215.607,-329.047 220.438,-323.982"/>
</g>
<!-- Node14 -->
<g id="node14" class="node"><title>Node14</title>
<g id="a_node14"><a xlink:href="example__backwardsAnalysis_8cpp.html" target="_top" xlink:title="/home/travis/build\l/hypro/hypro/examples\l/example_backwardsAnalysis.cpp">
<polygon fill="white" stroke="black" points="1303.07,-362 1303.07,-403 1479.07,-403 1479.07,-362 1303.07,-362"/>
<text text-anchor="start" x="1311.07" y="-391" font-family="Helvetica,sans-Serif" font-size="10.00">/home/travis/build</text>
<text text-anchor="start" x="1311.07" y="-380" font-family="Helvetica,sans-Serif" font-size="10.00">/hypro/hypro/examples</text>
<text text-anchor="middle" x="1391.07" y="-369" font-family="Helvetica,sans-Serif" font-size="10.00">/example_backwardsAnalysis.cpp</text>
</a>
</g>
</g>
<!-- Node13&#45;&gt;Node14 -->
<g id="edge24" class="edge"><title>Node13&#45;&gt;Node14</title>
<path fill="none" stroke="midnightblue" d="M1023.34,-459.038C1093.44,-447.8 1201.34,-429.42 1294.07,-409 1302.32,-407.184 1310.92,-405.141 1319.45,-403.022"/>
<polygon fill="midnightblue" stroke="midnightblue" points="1022.6,-455.611 1013.28,-460.644 1023.71,-462.524 1022.6,-455.611"/>
</g>
<!-- Node15 -->
<g id="node15" class="node"><title>Node15</title>
<g id="a_node15"><a xlink:href="example__benchmark_8cpp.html" target="_top" xlink:title="/home/travis/build\l/hypro/hypro/examples\l/example_benchmark.cpp">
<polygon fill="white" stroke="black" points="627.072,-362 627.072,-403 767.072,-403 767.072,-362 627.072,-362"/>
<text text-anchor="start" x="635.072" y="-391" font-family="Helvetica,sans-Serif" font-size="10.00">/home/travis/build</text>
<text text-anchor="start" x="635.072" y="-380" font-family="Helvetica,sans-Serif" font-size="10.00">/hypro/hypro/examples</text>
<text text-anchor="middle" x="697.072" y="-369" font-family="Helvetica,sans-Serif" font-size="10.00">/example_benchmark.cpp</text>
</a>
</g>
</g>
<!-- Node13&#45;&gt;Node15 -->
<g id="edge25" class="edge"><title>Node13&#45;&gt;Node15</title>
<path fill="none" stroke="midnightblue" d="M875.168,-444.986C836.445,-431.617 789.755,-415.498 753.897,-403.118"/>
<polygon fill="midnightblue" stroke="midnightblue" points="874.235,-448.366 884.83,-448.321 876.519,-441.749 874.235,-448.366"/>
</g>
<!-- Node16 -->
<g id="node16" class="node"><title>Node16</title>
<g id="a_node16"><a xlink:href="example__bouncingBall_8cpp.html" target="_top" xlink:title="/home/travis/build\l/hypro/hypro/examples\l/example_bouncingBall.cpp">
<polygon fill="white" stroke="black" points="785.572,-362 785.572,-403 932.572,-403 932.572,-362 785.572,-362"/>
<text text-anchor="start" x="793.572" y="-391" font-family="Helvetica,sans-Serif" font-size="10.00">/home/travis/build</text>
<text text-anchor="start" x="793.572" y="-380" font-family="Helvetica,sans-Serif" font-size="10.00">/hypro/hypro/examples</text>
<text text-anchor="middle" x="859.072" y="-369" font-family="Helvetica,sans-Serif" font-size="10.00">/example_bouncingBall.cpp</text>
</a>
</g>
</g>
<!-- Node13&#45;&gt;Node16 -->
<g id="edge26" class="edge"><title>Node13&#45;&gt;Node16</title>
<path fill="none" stroke="midnightblue" d="M915.639,-438.181C903.443,-426.392 890.032,-413.428 879.329,-403.082"/>
<polygon fill="midnightblue" stroke="midnightblue" points="913.418,-440.902 923.04,-445.336 918.283,-435.869 913.418,-440.902"/>
</g>
<!-- Node17 -->
<g id="node17" class="node"><title>Node17</title>
<g id="a_node17"><a xlink:href="example__dynamicStrategies_8cpp.html" target="_top" xlink:title="/home/travis/build\l/hypro/hypro/examples\l/example_dynamicStrategies.cpp">
<polygon fill="white" stroke="black" points="951.072,-362 951.072,-403 1127.07,-403 1127.07,-362 951.072,-362"/>
<text text-anchor="start" x="959.072" y="-391" font-family="Helvetica,sans-Serif" font-size="10.00">/home/travis/build</text>
<text text-anchor="start" x="959.072" y="-380" font-family="Helvetica,sans-Serif" font-size="10.00">/hypro/hypro/examples</text>
<text text-anchor="middle" x="1039.07" y="-369" font-family="Helvetica,sans-Serif" font-size="10.00">/example_dynamicStrategies.cpp</text>
</a>
</g>
</g>
<!-- Node13&#45;&gt;Node17 -->
<g id="edge27" class="edge"><title>Node13&#45;&gt;Node17</title>
<path fill="none" stroke="midnightblue" d="M982.505,-438.181C994.701,-426.392 1008.11,-413.428 1018.81,-403.082"/>
<polygon fill="midnightblue" stroke="midnightblue" points="979.861,-435.869 975.104,-445.336 984.726,-440.902 979.861,-435.869"/>
</g>
<!-- Node18 -->
<g id="node18" class="node"><title>Node18</title>
<g id="a_node18"><a xlink:href="example__reachability_8cpp.html" target="_top" xlink:title="/home/travis/build\l/hypro/hypro/examples\l/example_reachability.cpp">
<polygon fill="white" stroke="black" points="1145.07,-362 1145.07,-403 1285.07,-403 1285.07,-362 1145.07,-362"/>
<text text-anchor="start" x="1153.07" y="-391" font-family="Helvetica,sans-Serif" font-size="10.00">/home/travis/build</text>
<text text-anchor="start" x="1153.07" y="-380" font-family="Helvetica,sans-Serif" font-size="10.00">/hypro/hypro/examples</text>
<text text-anchor="middle" x="1215.07" y="-369" font-family="Helvetica,sans-Serif" font-size="10.00">/example_reachability.cpp</text>
</a>
</g>
</g>
<!-- Node13&#45;&gt;Node18 -->
<g id="edge28" class="edge"><title>Node13&#45;&gt;Node18</title>
<path fill="none" stroke="midnightblue" d="M1022.69,-446.422C1064.43,-432.77 1115.99,-415.907 1155.22,-403.075"/>
<polygon fill="midnightblue" stroke="midnightblue" points="1021.54,-443.115 1013.12,-449.551 1023.72,-449.769 1021.54,-443.115"/>
</g>
<!-- Node19&#45;&gt;Node5 -->
<g id="edge31" class="edge"><title>Node19&#45;&gt;Node5</title>
<path fill="none" stroke="midnightblue" d="M1617.07,-168.215C1617.07,-130.496 1617.07,-72.04 1617.07,-41.7313"/>
<polygon fill="midnightblue" stroke="midnightblue" points="1613.57,-168.263 1617.07,-178.263 1620.57,-168.263 1613.57,-168.263"/>
</g>
<!-- Node19&#45;&gt;Node6 -->
<g id="edge32" class="edge"><title>Node19&#45;&gt;Node6</title>
<path fill="none" stroke="midnightblue" d="M1601.72,-169.088C1588.23,-141.821 1566.5,-104.099 1539.07,-78 1523.38,-63.0748 1502.96,-50.7759 1484.58,-41.5438"/>
<polygon fill="midnightblue" stroke="midnightblue" points="1598.64,-170.771 1606.14,-178.26 1604.95,-167.732 1598.64,-170.771"/>
</g>
</g>
</svg>
