<?xml version="1.0" encoding="UTF-8" standalone="no"?>
<!DOCTYPE svg PUBLIC "-//W3C//DTD SVG 1.1//EN"
 "http://www.w3.org/Graphics/SVG/1.1/DTD/svg11.dtd">
<!-- Generated by graphviz version 2.38.0 (20140413.2041)
 -->
<!-- Title: /home/travis/build/hypro/hypro/src/hypro/util/VariablePool.h Pages: 1 -->
<svg width="735pt" height="106pt"
 viewBox="0.00 0.00 735.00 106.00" xmlns="http://www.w3.org/2000/svg" xmlns:xlink="http://www.w3.org/1999/xlink">
<g id="graph0" class="graph" transform="scale(1 1) rotate(0) translate(4 102)">
<title>/home/travis/build/hypro/hypro/src/hypro/util/VariablePool.h</title>
<polygon fill="white" stroke="none" points="-4,4 -4,-102 731,-102 731,4 -4,4"/>
<!-- Node1 -->
<g id="node1" class="node"><title>Node1</title>
<polygon fill="#bfbfbf" stroke="black" points="351.5,-56.5 351.5,-97.5 475.5,-97.5 475.5,-56.5 351.5,-56.5"/>
<text text-anchor="start" x="359.5" y="-85.5" font-family="Helvetica,sans-Serif" font-size="10.00">/home/travis/build</text>
<text text-anchor="start" x="359.5" y="-74.5" font-family="Helvetica,sans-Serif" font-size="10.00">/hypro/hypro/src/hypro</text>
<text text-anchor="middle" x="413.5" y="-63.5" font-family="Helvetica,sans-Serif" font-size="10.00">/util/VariablePool.h</text>
</g>
<!-- Node2 -->
<g id="node2" class="node"><title>Node2</title>
<g id="a_node2"><a xlink:href="flags_8h.html" target="_top" xlink:title="../flags.h">
<polygon fill="white" stroke="black" points="0,-0.5 0,-19.5 57,-19.5 57,-0.5 0,-0.5"/>
<text text-anchor="middle" x="28.5" y="-7.5" font-family="Helvetica,sans-Serif" font-size="10.00">../flags.h</text>
</a>
</g>
</g>
<!-- Node1&#45;&gt;Node2 -->
<g id="edge1" class="edge"><title>Node1&#45;&gt;Node2</title>
<path fill="none" stroke="midnightblue" d="M351.201,-67.337C283.668,-57.6332 172.534,-40.7565 66.9556,-19.9636"/>
<polygon fill="midnightblue" stroke="midnightblue" points="67.5753,-16.5184 57.0852,-18.0048 66.2127,-23.3845 67.5753,-16.5184"/>
</g>
<!-- Node3 -->
<g id="node3" class="node"><title>Node3</title>
<polygon fill="white" stroke="#bfbfbf" points="75.5,-0.5 75.5,-19.5 137.5,-19.5 137.5,-0.5 75.5,-0.5"/>
<text text-anchor="middle" x="106.5" y="-7.5" font-family="Helvetica,sans-Serif" font-size="10.00">algorithm</text>
</g>
<!-- Node1&#45;&gt;Node3 -->
<g id="edge2" class="edge"><title>Node1&#45;&gt;Node3</title>
<path fill="none" stroke="midnightblue" d="M351.403,-63.2429C299.581,-52.5357 223.498,-36.6751 148.085,-20.323"/>
<polygon fill="midnightblue" stroke="midnightblue" points="148.448,-16.8204 137.933,-18.1179 146.962,-23.6609 148.448,-16.8204"/>
</g>
<!-- Node4 -->
<g id="node4" class="node"><title>Node4</title>
<polygon fill="white" stroke="#bfbfbf" points="155.5,-0.5 155.5,-19.5 263.5,-19.5 263.5,-0.5 155.5,-0.5"/>
<text text-anchor="middle" x="209.5" y="-7.5" font-family="Helvetica,sans-Serif" font-size="10.00">carl/core/Variable.h</text>
</g>
<!-- Node1&#45;&gt;Node4 -->
<g id="edge3" class="edge"><title>Node1&#45;&gt;Node4</title>
<path fill="none" stroke="midnightblue" d="M352.293,-56.4979C317.753,-45.4925 275.742,-32.1065 246.26,-22.7128"/>
<polygon fill="midnightblue" stroke="midnightblue" points="246.978,-19.2682 236.387,-19.5671 244.853,-25.9378 246.978,-19.2682"/>
</g>
<!-- Node5 -->
<g id="node5" class="node"><title>Node5</title>
<polygon fill="white" stroke="#bfbfbf" points="281.5,-0.5 281.5,-19.5 409.5,-19.5 409.5,-0.5 281.5,-0.5"/>
<text text-anchor="middle" x="345.5" y="-7.5" font-family="Helvetica,sans-Serif" font-size="10.00">carl/core/VariablePool.h</text>
</g>
<!-- Node1&#45;&gt;Node5 -->
<g id="edge4" class="edge"><title>Node1&#45;&gt;Node5</title>
<path fill="none" stroke="midnightblue" d="M393.098,-56.4979C383.173,-47.0113 371.398,-35.7557 362.043,-26.8131"/>
<polygon fill="midnightblue" stroke="midnightblue" points="364.199,-24.0323 354.552,-19.6525 359.362,-29.0924 364.199,-24.0323"/>
</g>
<!-- Node6 -->
<g id="node6" class="node"><title>Node6</title>
<polygon fill="white" stroke="#bfbfbf" points="427.5,-0.5 427.5,-19.5 535.5,-19.5 535.5,-0.5 427.5,-0.5"/>
<text text-anchor="middle" x="481.5" y="-7.5" font-family="Helvetica,sans-Serif" font-size="10.00">carl/util/Singleton.h</text>
</g>
<!-- Node1&#45;&gt;Node6 -->
<g id="edge5" class="edge"><title>Node1&#45;&gt;Node6</title>
<path fill="none" stroke="midnightblue" d="M433.902,-56.4979C443.827,-47.0113 455.602,-35.7557 464.957,-26.8131"/>
<polygon fill="midnightblue" stroke="midnightblue" points="467.638,-29.0924 472.448,-19.6525 462.801,-24.0323 467.638,-29.0924"/>
</g>
<!-- Node7 -->
<g id="node7" class="node"><title>Node7</title>
<polygon fill="white" stroke="#bfbfbf" points="553.5,-0.5 553.5,-19.5 605.5,-19.5 605.5,-0.5 553.5,-0.5"/>
<text text-anchor="middle" x="579.5" y="-7.5" font-family="Helvetica,sans-Serif" font-size="10.00">cassert</text>
</g>
<!-- Node1&#45;&gt;Node7 -->
<g id="edge6" class="edge"><title>Node1&#45;&gt;Node7</title>
<path fill="none" stroke="midnightblue" d="M463.305,-56.4979C490.714,-45.7655 523.905,-32.7691 547.783,-23.4192"/>
<polygon fill="midnightblue" stroke="midnightblue" points="549.367,-26.5577 557.403,-19.6525 546.815,-20.0396 549.367,-26.5577"/>
</g>
<!-- Node8 -->
<g id="node8" class="node"><title>Node8</title>
<polygon fill="white" stroke="#bfbfbf" points="623.5,-0.5 623.5,-19.5 661.5,-19.5 661.5,-0.5 623.5,-0.5"/>
<text text-anchor="middle" x="642.5" y="-7.5" font-family="Helvetica,sans-Serif" font-size="10.00">map</text>
</g>
<!-- Node1&#45;&gt;Node8 -->
<g id="edge7" class="edge"><title>Node1&#45;&gt;Node8</title>
<path fill="none" stroke="midnightblue" d="M475.706,-59.3462C513.175,-49.1578 562.05,-35.5932 613.597,-20.1932"/>
<polygon fill="midnightblue" stroke="midnightblue" points="614.679,-23.5229 623.251,-17.2967 612.667,-16.8182 614.679,-23.5229"/>
</g>
<!-- Node9 -->
<g id="node9" class="node"><title>Node9</title>
<polygon fill="white" stroke="#bfbfbf" points="680,-0.5 680,-19.5 727,-19.5 727,-0.5 680,-0.5"/>
<text text-anchor="middle" x="703.5" y="-7.5" font-family="Helvetica,sans-Serif" font-size="10.00">vector</text>
</g>
<!-- Node1&#45;&gt;Node9 -->
<g id="edge8" class="edge"><title>Node1&#45;&gt;Node9</title>
<path fill="none" stroke="midnightblue" d="M475.502,-63.4276C525.442,-53.0864 597.664,-37.6505 670.003,-20.0235"/>
<polygon fill="midnightblue" stroke="midnightblue" points="670.865,-23.4157 679.745,-17.6362 669.199,-16.6169 670.865,-23.4157"/>
</g>
</g>
</svg>
