<?xml version="1.0" encoding="UTF-8" standalone="no"?>
<!DOCTYPE svg PUBLIC "-//W3C//DTD SVG 1.1//EN"
 "http://www.w3.org/Graphics/SVG/1.1/DTD/svg11.dtd">
<!-- Generated by graphviz version 2.38.0 (20140413.2041)
 -->
<!-- Title: /home/travis/build/hypro/hypro/src/hypro/representations/volumeApproximation.h Pages: 1 -->
<svg width="284pt" height="128pt"
 viewBox="0.00 0.00 284.00 128.00" xmlns="http://www.w3.org/2000/svg" xmlns:xlink="http://www.w3.org/1999/xlink">
<g id="graph0" class="graph" transform="scale(1 1) rotate(0) translate(4 124)">
<title>/home/travis/build/hypro/hypro/src/hypro/representations/volumeApproximation.h</title>
<polygon fill="white" stroke="none" points="-4,4 -4,-124 280,-124 280,4 -4,4"/>
<!-- Node1 -->
<g id="node1" class="node"><title>Node1</title>
<polygon fill="#bfbfbf" stroke="black" points="30.5,-78.5 30.5,-119.5 242.5,-119.5 242.5,-78.5 30.5,-78.5"/>
<text text-anchor="start" x="38.5" y="-107.5" font-family="Helvetica,sans-Serif" font-size="10.00">/home/travis/build</text>
<text text-anchor="start" x="38.5" y="-96.5" font-family="Helvetica,sans-Serif" font-size="10.00">/hypro/hypro/src/hypro</text>
<text text-anchor="middle" x="136.5" y="-85.5" font-family="Helvetica,sans-Serif" font-size="10.00">/representations/volumeApproximation.h</text>
</g>
<!-- Node2 -->
<g id="node2" class="node"><title>Node2</title>
<g id="a_node2"><a xlink:href="example__heuristic_8cpp.html" target="_top" xlink:title="/home/travis/build\l/hypro/hypro/examples\l/example_heuristic.cpp">
<polygon fill="white" stroke="black" points="0,-0.5 0,-41.5 127,-41.5 127,-0.5 0,-0.5"/>
<text text-anchor="start" x="8" y="-29.5" font-family="Helvetica,sans-Serif" font-size="10.00">/home/travis/build</text>
<text text-anchor="start" x="8" y="-18.5" font-family="Helvetica,sans-Serif" font-size="10.00">/hypro/hypro/examples</text>
<text text-anchor="middle" x="63.5" y="-7.5" font-family="Helvetica,sans-Serif" font-size="10.00">/example_heuristic.cpp</text>
</a>
</g>
</g>
<!-- Node1&#45;&gt;Node2 -->
<g id="edge1" class="edge"><title>Node1&#45;&gt;Node2</title>
<path fill="none" stroke="midnightblue" d="M110.762,-71.204C101.36,-61.416 90.9122,-50.5388 82.2356,-41.5056"/>
<polygon fill="midnightblue" stroke="midnightblue" points="108.249,-73.6407 117.701,-78.4281 113.298,-68.7915 108.249,-73.6407"/>
</g>
<!-- Node3 -->
<g id="node3" class="node"><title>Node3</title>
<g id="a_node3"><a xlink:href="example__reduction_8cpp.html" target="_top" xlink:title="/home/travis/build\l/hypro/hypro/examples\l/example_reduction.cpp">
<polygon fill="white" stroke="black" points="145,-0.5 145,-41.5 276,-41.5 276,-0.5 145,-0.5"/>
<text text-anchor="start" x="153" y="-29.5" font-family="Helvetica,sans-Serif" font-size="10.00">/home/travis/build</text>
<text text-anchor="start" x="153" y="-18.5" font-family="Helvetica,sans-Serif" font-size="10.00">/hypro/hypro/examples</text>
<text text-anchor="middle" x="210.5" y="-7.5" font-family="Helvetica,sans-Serif" font-size="10.00">/example_reduction.cpp</text>
</a>
</g>
</g>
<!-- Node1&#45;&gt;Node3 -->
<g id="edge2" class="edge"><title>Node1&#45;&gt;Node3</title>
<path fill="none" stroke="midnightblue" d="M162.591,-71.204C172.121,-61.416 182.712,-50.5388 191.508,-41.5056"/>
<polygon fill="midnightblue" stroke="midnightblue" points="160.025,-68.8217 155.557,-78.4281 165.041,-73.705 160.025,-68.8217"/>
</g>
</g>
</svg>
