<?xml version="1.0" encoding="UTF-8" standalone="no"?>
<!DOCTYPE svg PUBLIC "-//W3C//DTD SVG 1.1//EN"
 "http://www.w3.org/Graphics/SVG/1.1/DTD/svg11.dtd">
<!-- Generated by graphviz version 2.38.0 (20140413.2041)
 -->
<!-- Title: /home/travis/build/hypro/hypro/src/hypro/datastructures/reachability/workQueue/WorkQueueManager.h Pages: 1 -->
<svg width="1493pt" height="240pt"
 viewBox="0.00 0.00 1493.00 240.00" xmlns="http://www.w3.org/2000/svg" xmlns:xlink="http://www.w3.org/1999/xlink">
<g id="graph0" class="graph" transform="scale(1 1) rotate(0) translate(4 236)">
<title>/home/travis/build/hypro/hypro/src/hypro/datastructures/reachability/workQueue/WorkQueueManager.h</title>
<polygon fill="white" stroke="none" points="-4,4 -4,-236 1489,-236 1489,4 -4,4"/>
<!-- Node1 -->
<g id="node1" class="node"><title>Node1</title>
<polygon fill="#bfbfbf" stroke="black" points="884.5,-179.5 884.5,-231.5 1064.5,-231.5 1064.5,-179.5 884.5,-179.5"/>
<text text-anchor="start" x="892.5" y="-219.5" font-family="Helvetica,sans-Serif" font-size="10.00">/home/travis/build</text>
<text text-anchor="start" x="892.5" y="-208.5" font-family="Helvetica,sans-Serif" font-size="10.00">/hypro/hypro/src/hypro</text>
<text text-anchor="start" x="892.5" y="-197.5" font-family="Helvetica,sans-Serif" font-size="10.00">/datastructures/reachability</text>
<text text-anchor="middle" x="974.5" y="-186.5" font-family="Helvetica,sans-Serif" font-size="10.00">/workQueue/WorkQueueManager.h</text>
</g>
<!-- Node1&#45;&gt;Node1 -->
<g id="edge27" class="edge"><title>Node1&#45;&gt;Node1</title>
<path fill="none" stroke="midnightblue" d="M1064.7,-217.102C1075.47,-214.992 1082.5,-211.125 1082.5,-205.5 1082.5,-201.809 1079.47,-198.874 1074.35,-196.697"/>
<polygon fill="midnightblue" stroke="midnightblue" points="1075.28,-193.324 1064.7,-193.898 1073.33,-200.046 1075.28,-193.324"/>
</g>
<!-- Node2 -->
<g id="node2" class="node"><title>Node2</title>
<g id="a_node2"><a xlink:href="util_2typetraits_8h.html" target="_top" xlink:title="../../../util/typetraits.h">
<polygon fill="white" stroke="black" points="196.5,-62 196.5,-81 312.5,-81 312.5,-62 196.5,-62"/>
<text text-anchor="middle" x="254.5" y="-69" font-family="Helvetica,sans-Serif" font-size="10.00">../../../util/typetraits.h</text>
</a>
</g>
</g>
<!-- Node1&#45;&gt;Node2 -->
<g id="edge1" class="edge"><title>Node1&#45;&gt;Node2</title>
<path fill="none" stroke="midnightblue" d="M884.404,-187.982C733.929,-160.395 435.721,-105.724 311.201,-82.8952"/>
<polygon fill="midnightblue" stroke="midnightblue" points="311.586,-79.4074 301.118,-81.0467 310.323,-86.2927 311.586,-79.4074"/>
</g>
<!-- Node5 -->
<g id="node5" class="node"><title>Node5</title>
<g id="a_node5"><a xlink:href="WorkQueue_8h.html" target="_top" xlink:title="WorkQueue.h">
<polygon fill="white" stroke="black" points="934.5,-123.5 934.5,-142.5 1014.5,-142.5 1014.5,-123.5 934.5,-123.5"/>
<text text-anchor="middle" x="974.5" y="-130.5" font-family="Helvetica,sans-Serif" font-size="10.00">WorkQueue.h</text>
</a>
</g>
</g>
<!-- Node1&#45;&gt;Node5 -->
<g id="edge4" class="edge"><title>Node1&#45;&gt;Node5</title>
<path fill="none" stroke="midnightblue" d="M974.5,-179.446C974.5,-170.73 974.5,-161.104 974.5,-152.964"/>
<polygon fill="midnightblue" stroke="midnightblue" points="978,-152.695 974.5,-142.695 971,-152.696 978,-152.695"/>
</g>
<!-- Node26 -->
<g id="node26" class="node"><title>Node26</title>
<polygon fill="white" stroke="#bfbfbf" points="1033,-123.5 1033,-142.5 1164,-142.5 1164,-123.5 1033,-123.5"/>
<text text-anchor="middle" x="1098.5" y="-130.5" font-family="Helvetica,sans-Serif" font-size="10.00">WorkQueueManager.tpp</text>
</g>
<!-- Node1&#45;&gt;Node26 -->
<g id="edge26" class="edge"><title>Node1&#45;&gt;Node26</title>
<path fill="none" stroke="midnightblue" d="M1018.57,-179.446C1037.36,-168.761 1058.56,-156.709 1074.4,-147.702"/>
<polygon fill="midnightblue" stroke="midnightblue" points="1076.54,-150.512 1083.5,-142.527 1073.08,-144.427 1076.54,-150.512"/>
</g>
<!-- Node3 -->
<g id="node3" class="node"><title>Node3</title>
<polygon fill="white" stroke="#bfbfbf" points="0,-0.5 0,-19.5 57,-19.5 57,-0.5 0,-0.5"/>
<text text-anchor="middle" x="28.5" y="-7.5" font-family="Helvetica,sans-Serif" font-size="10.00">memory</text>
</g>
<!-- Node2&#45;&gt;Node3 -->
<g id="edge2" class="edge"><title>Node2&#45;&gt;Node3</title>
<path fill="none" stroke="midnightblue" d="M222.12,-61.9751C181.13,-51.1834 110.608,-32.6169 66.9323,-21.1182"/>
<polygon fill="midnightblue" stroke="midnightblue" points="67.8029,-17.7283 57.2413,-18.5669 66.0207,-24.4976 67.8029,-17.7283"/>
</g>
<!-- Node4 -->
<g id="node4" class="node"><title>Node4</title>
<polygon fill="white" stroke="#bfbfbf" points="75.5,-0.5 75.5,-19.5 143.5,-19.5 143.5,-0.5 75.5,-0.5"/>
<text text-anchor="middle" x="109.5" y="-7.5" font-family="Helvetica,sans-Serif" font-size="10.00">type_traits</text>
</g>
<!-- Node2&#45;&gt;Node4 -->
<g id="edge3" class="edge"><title>Node2&#45;&gt;Node4</title>
<path fill="none" stroke="midnightblue" d="M233.725,-61.9751C209.068,-51.8571 167.755,-34.9046 139.598,-23.3507"/>
<polygon fill="midnightblue" stroke="midnightblue" points="140.817,-20.0674 130.236,-19.5091 138.159,-26.5434 140.817,-20.0674"/>
</g>
<!-- Node5&#45;&gt;Node2 -->
<g id="edge16" class="edge"><title>Node5&#45;&gt;Node2</title>
<path fill="none" stroke="midnightblue" d="M934.247,-128.674C816.323,-118.928 470.678,-90.3647 322.845,-78.1479"/>
<polygon fill="midnightblue" stroke="midnightblue" points="322.803,-74.6326 312.549,-77.2971 322.226,-81.6089 322.803,-74.6326"/>
</g>
<!-- Node6 -->
<g id="node6" class="node"><title>Node6</title>
<g id="a_node6"><a xlink:href="Logger_8h.html" target="_top" xlink:title="../../../util/logging\l/Logger.h">
<polygon fill="white" stroke="black" points="476,-56.5 476,-86.5 571,-86.5 571,-56.5 476,-56.5"/>
<text text-anchor="start" x="484" y="-74.5" font-family="Helvetica,sans-Serif" font-size="10.00">../../../util/logging</text>
<text text-anchor="middle" x="523.5" y="-63.5" font-family="Helvetica,sans-Serif" font-size="10.00">/Logger.h</text>
</a>
</g>
</g>
<!-- Node5&#45;&gt;Node6 -->
<g id="edge5" class="edge"><title>Node5&#45;&gt;Node6</title>
<path fill="none" stroke="midnightblue" d="M934.419,-129.297C864.5,-124.178 715.601,-111.493 581.125,-87.1469"/>
<polygon fill="midnightblue" stroke="midnightblue" points="581.525,-83.662 571.057,-85.2972 580.26,-90.5468 581.525,-83.662"/>
</g>
<!-- Node14 -->
<g id="node14" class="node"><title>Node14</title>
<g id="a_node14"><a xlink:href="Spinlock_8h.html" target="_top" xlink:title="../../../util/multithreading\l/Spinlock.h">
<polygon fill="white" stroke="black" points="589,-56.5 589,-86.5 720,-86.5 720,-56.5 589,-56.5"/>
<text text-anchor="start" x="597" y="-74.5" font-family="Helvetica,sans-Serif" font-size="10.00">../../../util/multithreading</text>
<text text-anchor="middle" x="654.5" y="-63.5" font-family="Helvetica,sans-Serif" font-size="10.00">/Spinlock.h</text>
</a>
</g>
</g>
<!-- Node5&#45;&gt;Node14 -->
<g id="edge13" class="edge"><title>Node5&#45;&gt;Node14</title>
<path fill="none" stroke="midnightblue" d="M934.16,-124.71C887.577,-116.265 808.369,-101.824 730.345,-87.1495"/>
<polygon fill="midnightblue" stroke="midnightblue" points="730.819,-83.6772 720.343,-85.2657 729.523,-90.5562 730.819,-83.6772"/>
</g>
<!-- Node17 -->
<g id="node17" class="node"><title>Node17</title>
<g id="a_node17"><a xlink:href="WorkQueueSettings_8h.html" target="_top" xlink:title="WorkQueueSettings.h">
<polygon fill="white" stroke="black" points="738,-62 738,-81 857,-81 857,-62 738,-62"/>
<text text-anchor="middle" x="797.5" y="-69" font-family="Helvetica,sans-Serif" font-size="10.00">WorkQueueSettings.h</text>
</a>
</g>
</g>
<!-- Node5&#45;&gt;Node17 -->
<g id="edge17" class="edge"><title>Node5&#45;&gt;Node17</title>
<path fill="none" stroke="midnightblue" d="M949.14,-123.475C918.516,-113.18 866.843,-95.8103 832.454,-84.2502"/>
<polygon fill="midnightblue" stroke="midnightblue" points="833.407,-80.8779 822.813,-81.0091 831.176,-87.5131 833.407,-80.8779"/>
</g>
<!-- Node18 -->
<g id="node18" class="node"><title>Node18</title>
<polygon fill="white" stroke="#bfbfbf" points="875.5,-62 875.5,-81 931.5,-81 931.5,-62 875.5,-62"/>
<text text-anchor="middle" x="903.5" y="-69" font-family="Helvetica,sans-Serif" font-size="10.00">assert.h</text>
</g>
<!-- Node5&#45;&gt;Node18 -->
<g id="edge18" class="edge"><title>Node5&#45;&gt;Node18</title>
<path fill="none" stroke="midnightblue" d="M964.327,-123.475C953.15,-114.108 934.983,-98.8839 921.409,-87.5081"/>
<polygon fill="midnightblue" stroke="midnightblue" points="923.566,-84.7496 913.654,-81.0091 919.07,-90.1148 923.566,-84.7496"/>
</g>
<!-- Node19 -->
<g id="node19" class="node"><title>Node19</title>
<polygon fill="white" stroke="#bfbfbf" points="949.5,-62 949.5,-81 999.5,-81 999.5,-62 949.5,-62"/>
<text text-anchor="middle" x="974.5" y="-69" font-family="Helvetica,sans-Serif" font-size="10.00">chrono</text>
</g>
<!-- Node5&#45;&gt;Node19 -->
<g id="edge19" class="edge"><title>Node5&#45;&gt;Node19</title>
<path fill="none" stroke="midnightblue" d="M974.5,-123.475C974.5,-115.08 974.5,-101.981 974.5,-91.1631"/>
<polygon fill="midnightblue" stroke="midnightblue" points="978,-91.0091 974.5,-81.0091 971,-91.0091 978,-91.0091"/>
</g>
<!-- Node20 -->
<g id="node20" class="node"><title>Node20</title>
<polygon fill="white" stroke="#bfbfbf" points="1018,-62 1018,-81 1121,-81 1121,-62 1018,-62"/>
<text text-anchor="middle" x="1069.5" y="-69" font-family="Helvetica,sans-Serif" font-size="10.00">condition_variable</text>
</g>
<!-- Node5&#45;&gt;Node20 -->
<g id="edge20" class="edge"><title>Node5&#45;&gt;Node20</title>
<path fill="none" stroke="midnightblue" d="M988.111,-123.475C1003.56,-113.799 1028.99,-97.8721 1047.32,-86.3941"/>
<polygon fill="midnightblue" stroke="midnightblue" points="1049.3,-89.2834 1055.91,-81.0091 1045.58,-83.3509 1049.3,-89.2834"/>
</g>
<!-- Node21 -->
<g id="node21" class="node"><title>Node21</title>
<polygon fill="white" stroke="#bfbfbf" points="1139.5,-62 1139.5,-81 1185.5,-81 1185.5,-62 1139.5,-62"/>
<text text-anchor="middle" x="1162.5" y="-69" font-family="Helvetica,sans-Serif" font-size="10.00">iosfwd</text>
</g>
<!-- Node5&#45;&gt;Node21 -->
<g id="edge21" class="edge"><title>Node5&#45;&gt;Node21</title>
<path fill="none" stroke="midnightblue" d="M1009.35,-123.491C1041.28,-115.334 1089.64,-102.062 1130.5,-87 1132.11,-86.4054 1133.76,-85.766 1135.41,-85.0987"/>
<polygon fill="midnightblue" stroke="midnightblue" points="1136.94,-88.2514 1144.75,-81.0927 1134.18,-81.8183 1136.94,-88.2514"/>
</g>
<!-- Node22 -->
<g id="node22" class="node"><title>Node22</title>
<polygon fill="white" stroke="#bfbfbf" points="1204,-62 1204,-81 1251,-81 1251,-62 1204,-62"/>
<text text-anchor="middle" x="1227.5" y="-69" font-family="Helvetica,sans-Serif" font-size="10.00">mutex</text>
</g>
<!-- Node5&#45;&gt;Node22 -->
<g id="edge22" class="edge"><title>Node5&#45;&gt;Node22</title>
<path fill="none" stroke="midnightblue" d="M1014.78,-124.241C1073.53,-112.852 1177.6,-92.3754 1194.5,-87 1196.42,-86.3884 1198.39,-85.7008 1200.35,-84.966"/>
<polygon fill="midnightblue" stroke="midnightblue" points="1202.03,-88.0604 1209.96,-81.0327 1199.37,-81.5821 1202.03,-88.0604"/>
</g>
<!-- Node23 -->
<g id="node23" class="node"><title>Node23</title>
<polygon fill="white" stroke="#bfbfbf" points="1269,-62 1269,-81 1316,-81 1316,-62 1269,-62"/>
<text text-anchor="middle" x="1292.5" y="-69" font-family="Helvetica,sans-Serif" font-size="10.00">queue</text>
</g>
<!-- Node5&#45;&gt;Node23 -->
<g id="edge23" class="edge"><title>Node5&#45;&gt;Node23</title>
<path fill="none" stroke="midnightblue" d="M1014.6,-124.685C1017.95,-124.104 1021.28,-123.535 1024.5,-123 1129.17,-105.6 1158.78,-117.179 1260.5,-87 1262.43,-86.4275 1264.39,-85.7617 1266.35,-85.0361"/>
<polygon fill="midnightblue" stroke="midnightblue" points="1268,-88.1389 1275.89,-81.0654 1265.32,-81.6761 1268,-88.1389"/>
</g>
<!-- Node24 -->
<g id="node24" class="node"><title>Node24</title>
<polygon fill="white" stroke="#bfbfbf" points="1334.5,-62 1334.5,-81 1378.5,-81 1378.5,-62 1334.5,-62"/>
<text text-anchor="middle" x="1356.5" y="-69" font-family="Helvetica,sans-Serif" font-size="10.00">string</text>
</g>
<!-- Node5&#45;&gt;Node24 -->
<g id="edge24" class="edge"><title>Node5&#45;&gt;Node24</title>
<path fill="none" stroke="midnightblue" d="M1014.58,-124.57C1017.93,-124.014 1021.27,-123.483 1024.5,-123 1157.75,-103.057 1195.95,-124.01 1325.5,-87 1327.43,-86.4492 1329.39,-85.7915 1331.33,-85.0649"/>
<polygon fill="midnightblue" stroke="midnightblue" points="1332.96,-88.1753 1340.79,-81.0308 1330.21,-81.7371 1332.96,-88.1753"/>
</g>
<!-- Node25 -->
<g id="node25" class="node"><title>Node25</title>
<polygon fill="white" stroke="#bfbfbf" points="1396,-62 1396,-81 1485,-81 1485,-62 1396,-62"/>
<text text-anchor="middle" x="1440.5" y="-69" font-family="Helvetica,sans-Serif" font-size="10.00">WorkQueue.tpp</text>
</g>
<!-- Node5&#45;&gt;Node25 -->
<g id="edge25" class="edge"><title>Node5&#45;&gt;Node25</title>
<path fill="none" stroke="midnightblue" d="M1014.57,-124.499C1017.93,-123.959 1021.27,-123.45 1024.5,-123 1185.07,-100.622 1228.08,-116.496 1387.5,-87 1392.53,-86.0693 1397.78,-84.8923 1402.93,-83.613"/>
<polygon fill="midnightblue" stroke="midnightblue" points="1403.86,-86.9876 1412.65,-81.0646 1402.09,-80.2167 1403.86,-86.9876"/>
</g>
<!-- Node7 -->
<g id="node7" class="node"><title>Node7</title>
<g id="a_node7"><a xlink:href="flags_8h.html" target="_top" xlink:title="../../flags.h">
<polygon fill="white" stroke="black" points="161.5,-0.5 161.5,-19.5 227.5,-19.5 227.5,-0.5 161.5,-0.5"/>
<text text-anchor="middle" x="194.5" y="-7.5" font-family="Helvetica,sans-Serif" font-size="10.00">../../flags.h</text>
</a>
</g>
</g>
<!-- Node6&#45;&gt;Node7 -->
<g id="edge6" class="edge"><title>Node6&#45;&gt;Node7</title>
<path fill="none" stroke="midnightblue" d="M475.918,-62.6805C420.966,-53.5265 327.597,-37.5967 238.005,-20.2413"/>
<polygon fill="midnightblue" stroke="midnightblue" points="238.432,-16.7588 227.948,-18.2838 237.095,-23.6299 238.432,-16.7588"/>
</g>
<!-- Node8 -->
<g id="node8" class="node"><title>Node8</title>
<polygon fill="white" stroke="#bfbfbf" points="245.5,-0.5 245.5,-19.5 399.5,-19.5 399.5,-0.5 245.5,-0.5"/>
<text text-anchor="middle" x="322.5" y="-7.5" font-family="Helvetica,sans-Serif" font-size="10.00">carl/io/streamingOperators.h</text>
</g>
<!-- Node6&#45;&gt;Node8 -->
<g id="edge7" class="edge"><title>Node6&#45;&gt;Node8</title>
<path fill="none" stroke="midnightblue" d="M476.12,-56.4747C440.989,-46.0752 393.706,-32.0783 360.917,-22.3722"/>
<polygon fill="midnightblue" stroke="midnightblue" points="361.818,-18.9888 351.236,-19.5064 359.831,-25.7009 361.818,-18.9888"/>
</g>
<!-- Node9 -->
<g id="node9" class="node"><title>Node9</title>
<polygon fill="white" stroke="#bfbfbf" points="418,-0.5 418,-19.5 477,-19.5 477,-0.5 418,-0.5"/>
<text text-anchor="middle" x="447.5" y="-7.5" font-family="Helvetica,sans-Serif" font-size="10.00">iostream</text>
</g>
<!-- Node6&#45;&gt;Node9 -->
<g id="edge8" class="edge"><title>Node6&#45;&gt;Node9</title>
<path fill="none" stroke="midnightblue" d="M505.489,-56.3993C493.762,-47.2185 478.485,-35.2579 466.555,-25.9182"/>
<polygon fill="midnightblue" stroke="midnightblue" points="468.59,-23.0664 458.559,-19.6578 464.275,-28.5782 468.59,-23.0664"/>
</g>
<!-- Node10 -->
<g id="node10" class="node"><title>Node10</title>
<polygon fill="white" stroke="#bfbfbf" points="495.5,-0.5 495.5,-19.5 551.5,-19.5 551.5,-0.5 495.5,-0.5"/>
<text text-anchor="middle" x="523.5" y="-7.5" font-family="Helvetica,sans-Serif" font-size="10.00">sstream</text>
</g>
<!-- Node6&#45;&gt;Node10 -->
<g id="edge9" class="edge"><title>Node6&#45;&gt;Node10</title>
<path fill="none" stroke="midnightblue" d="M523.5,-56.3993C523.5,-48.4664 523.5,-38.458 523.5,-29.8583"/>
<polygon fill="midnightblue" stroke="midnightblue" points="527,-29.6577 523.5,-19.6578 520,-29.6578 527,-29.6577"/>
</g>
<!-- Node11 -->
<g id="node11" class="node"><title>Node11</title>
<polygon fill="white" stroke="#bfbfbf" points="569.5,-0.5 569.5,-19.5 617.5,-19.5 617.5,-0.5 569.5,-0.5"/>
<text text-anchor="middle" x="593.5" y="-7.5" font-family="Helvetica,sans-Serif" font-size="10.00">thread</text>
</g>
<!-- Node6&#45;&gt;Node11 -->
<g id="edge10" class="edge"><title>Node6&#45;&gt;Node11</title>
<path fill="none" stroke="midnightblue" d="M540.089,-56.3993C550.785,-47.3076 564.688,-35.4899 575.628,-26.1909"/>
<polygon fill="midnightblue" stroke="midnightblue" points="577.962,-28.8011 583.314,-19.6578 573.428,-23.4675 577.962,-28.8011"/>
</g>
<!-- Node12 -->
<g id="node12" class="node"><title>Node12</title>
<polygon fill="white" stroke="#bfbfbf" points="636,-0.5 636,-19.5 761,-19.5 761,-0.5 636,-0.5"/>
<text text-anchor="middle" x="698.5" y="-7.5" font-family="Helvetica,sans-Serif" font-size="10.00">carl/core/carlLogging.h</text>
</g>
<!-- Node6&#45;&gt;Node12 -->
<g id="edge11" class="edge"><title>Node6&#45;&gt;Node12</title>
<path fill="none" stroke="midnightblue" d="M564.973,-56.3993C595.08,-46.1627 635.352,-32.4703 663.77,-22.8082"/>
<polygon fill="midnightblue" stroke="midnightblue" points="664.95,-26.1037 673.291,-19.5709 662.697,-19.4763 664.95,-26.1037"/>
</g>
<!-- Node13 -->
<g id="node13" class="node"><title>Node13</title>
<polygon fill="white" stroke="#bfbfbf" points="779,-0.5 779,-19.5 934,-19.5 934,-0.5 779,-0.5"/>
<text text-anchor="middle" x="856.5" y="-7.5" font-family="Helvetica,sans-Serif" font-size="10.00">carl/core/carlLoggingHelper.h</text>
</g>
<!-- Node6&#45;&gt;Node13 -->
<g id="edge12" class="edge"><title>Node6&#45;&gt;Node13</title>
<path fill="none" stroke="midnightblue" d="M571.088,-57.8591C573.928,-57.2039 576.748,-56.5785 579.5,-56 648.286,-41.5396 727.517,-29.0858 783.573,-20.9696"/>
<polygon fill="midnightblue" stroke="midnightblue" points="784.363,-24.3922 793.763,-19.5051 783.367,-17.4634 784.363,-24.3922"/>
</g>
<!-- Node15 -->
<g id="node15" class="node"><title>Node15</title>
<polygon fill="white" stroke="#bfbfbf" points="952.5,-0.5 952.5,-19.5 1002.5,-19.5 1002.5,-0.5 952.5,-0.5"/>
<text text-anchor="middle" x="977.5" y="-7.5" font-family="Helvetica,sans-Serif" font-size="10.00">atomic</text>
</g>
<!-- Node14&#45;&gt;Node15 -->
<g id="edge14" class="edge"><title>Node14&#45;&gt;Node15</title>
<path fill="none" stroke="midnightblue" d="M720.333,-57.6784C723.431,-57.1046 726.498,-56.5425 729.5,-56 821.258,-39.4146 847.501,-40.2816 942.297,-20.0994"/>
<polygon fill="midnightblue" stroke="midnightblue" points="943.272,-23.4698 952.311,-17.944 941.799,-16.6265 943.272,-23.4698"/>
</g>
<!-- Node16 -->
<g id="node16" class="node"><title>Node16</title>
<polygon fill="white" stroke="#bfbfbf" points="1021,-0.5 1021,-19.5 1076,-19.5 1076,-0.5 1021,-0.5"/>
<text text-anchor="middle" x="1048.5" y="-7.5" font-family="Helvetica,sans-Serif" font-size="10.00">unistd.h</text>
</g>
<!-- Node14&#45;&gt;Node16 -->
<g id="edge15" class="edge"><title>Node14&#45;&gt;Node16</title>
<path fill="none" stroke="midnightblue" d="M720.308,-57.5301C723.412,-56.996 726.488,-56.4829 729.5,-56 851.09,-36.5058 885.52,-42.6308 1010.72,-19.9491"/>
<polygon fill="midnightblue" stroke="midnightblue" points="1011.49,-23.3663 1020.69,-18.1167 1010.22,-16.4815 1011.49,-23.3663"/>
</g>
</g>
</svg>
