<?xml version="1.0" encoding="UTF-8" standalone="no"?>
<!DOCTYPE svg PUBLIC "-//W3C//DTD SVG 1.1//EN"
 "http://www.w3.org/Graphics/SVG/1.1/DTD/svg11.dtd">
<!-- Generated by graphviz version 2.38.0 (20140413.2041)
 -->
<!-- Title: /home/travis/build/hypro/hypro/src/hypro/datastructures/reachability/workQueue/WorkQueue.h Pages: 1 -->
<!--zoomable 184 -->
<svg id="main" version="1.1" xmlns="http://www.w3.org/2000/svg" xmlns:xlink="http://www.w3.org/1999/xlink" xml:space="preserve" onload="init(evt)">
<style type="text/css"><![CDATA[
.edge:hover path { stroke: red; }
.edge:hover polygon { stroke: red; fill: red; }
]]></style>
<script type="text/javascript"><![CDATA[
var edges = document.getElementsByTagName('g');
if (edges && edges.length) {
  for (var i=0;i<edges.length;i++) {
    if (edges[i].id.substr(0,4)=='edge') {
      edges[i].setAttribute('class','edge');
    }
  }
}
]]></script>
        <defs>
                <circle id="rim" cx="0" cy="0" r="7"/>
                <circle id="rim2" cx="0" cy="0" r="3.5"/>
                <g id="zoomPlus">
                        <use xlink:href="#rim" fill="#404040">
                                <set attributeName="fill" to="#808080" begin="zoomplus.mouseover" end="zoomplus.mouseout"/>
                        </use>
                        <path d="M-4,0h8M0,-4v8" fill="none" stroke="white" stroke-width="1.5" pointer-events="none"/>
                </g>
                <g id="zoomMin">
                        <use xlink:href="#rim" fill="#404040">
                                <set attributeName="fill" to="#808080" begin="zoomminus.mouseover" end="zoomminus.mouseout"/>
                        </use>
                        <path d="M-4,0h8" fill="none" stroke="white" stroke-width="1.5" pointer-events="none"/>
                </g>
                <g id="dirArrow">
                        <path fill="none" stroke="white" stroke-width="1.5" d="M0,-3.0v7 M-2.5,-0.5L0,-3.0L2.5,-0.5"/>
                </g>
               <g id="resetDef">
                       <use xlink:href="#rim2" fill="#404040">
                               <set attributeName="fill" to="#808080" begin="reset.mouseover" end="reset.mouseout"/>
                       </use>
               </g>
        </defs>

<script type="text/javascript">
var viewWidth = 1793;
var viewHeight = 184;
var sectionId = 'dynsection-0';
</script>
<script xlink:href="svgpan.js"/>
<svg id="graph" class="graph">
<g id="viewport">
<title>/home/travis/build/hypro/hypro/src/hypro/datastructures/reachability/workQueue/WorkQueue.h</title>
<polygon fill="white" stroke="none" points="-4,4 -4,-180 1788.5,-180 1788.5,4 -4,4"/>
<!-- Node1 -->
<g id="node1" class="node"><title>Node1</title>
<polygon fill="#bfbfbf" stroke="black" points="1247,-123.5 1247,-175.5 1395,-175.5 1395,-123.5 1247,-123.5"/>
<text text-anchor="start" x="1255" y="-163.5" font-family="Helvetica,sans-Serif" font-size="10.00">/home/travis/build</text>
<text text-anchor="start" x="1255" y="-152.5" font-family="Helvetica,sans-Serif" font-size="10.00">/hypro/hypro/src/hypro</text>
<text text-anchor="start" x="1255" y="-141.5" font-family="Helvetica,sans-Serif" font-size="10.00">/datastructures/reachability</text>
<text text-anchor="middle" x="1321" y="-130.5" font-family="Helvetica,sans-Serif" font-size="10.00">/workQueue/WorkQueue.h</text>
</g>
<!-- Node2 -->
<g id="node2" class="node"><title>Node2</title>
<g id="a_node2"><a xlink:href="Logger_8h.html" target="_top" xlink:title="../../../util/logging\l/Logger.h">
<polygon fill="white" stroke="black" points="349.5,-56.5 349.5,-86.5 444.5,-86.5 444.5,-56.5 349.5,-56.5"/>
<text text-anchor="start" x="357.5" y="-74.5" font-family="Helvetica,sans-Serif" font-size="10.00">../../../util/logging</text>
<text text-anchor="middle" x="397" y="-63.5" font-family="Helvetica,sans-Serif" font-size="10.00">/Logger.h</text>
</a>
</g>
</g>
<!-- Node1&#45;&gt;Node2 -->
<g id="edge1" class="edge"><title>Node1&#45;&gt;Node2</title>
<path fill="none" stroke="midnightblue" d="M1246.95,-142.409C1068.12,-127.7 615.619,-90.4817 454.809,-77.2548"/>
<polygon fill="midnightblue" stroke="midnightblue" points="454.897,-73.7504 444.644,-76.4188 454.323,-80.7268 454.897,-73.7504"/>
</g>
<!-- Node10 -->
<g id="node10" class="node"><title>Node10</title>
<g id="a_node10"><a xlink:href="Spinlock_8h.html" target="_top" xlink:title="../../../util/multithreading\l/Spinlock.h">
<polygon fill="white" stroke="black" points="753.5,-56.5 753.5,-86.5 884.5,-86.5 884.5,-56.5 753.5,-56.5"/>
<text text-anchor="start" x="761.5" y="-74.5" font-family="Helvetica,sans-Serif" font-size="10.00">../../../util/multithreading</text>
<text text-anchor="middle" x="819" y="-63.5" font-family="Helvetica,sans-Serif" font-size="10.00">/Spinlock.h</text>
</a>
</g>
</g>
<!-- Node1&#45;&gt;Node10 -->
<g id="edge9" class="edge"><title>Node1&#45;&gt;Node10</title>
<path fill="none" stroke="midnightblue" d="M1246.78,-138.908C1163.64,-127.915 1024.62,-108.794 894.933,-87.1097"/>
<polygon fill="midnightblue" stroke="midnightblue" points="895.26,-83.6155 884.818,-85.4098 894.099,-90.5187 895.26,-83.6155"/>
</g>
<!-- Node13 -->
<g id="node13" class="node"><title>Node13</title>
<g id="a_node13"><a xlink:href="util_2typetraits_8h.html" target="_top" xlink:title="../../../util/typetraits.h">
<polygon fill="white" stroke="black" points="903,-62 903,-81 1019,-81 1019,-62 903,-62"/>
<text text-anchor="middle" x="961" y="-69" font-family="Helvetica,sans-Serif" font-size="10.00">../../../util/typetraits.h</text>
</a>
</g>
</g>
<!-- Node1&#45;&gt;Node13 -->
<g id="edge12" class="edge"><title>Node1&#45;&gt;Node13</title>
<path fill="none" stroke="midnightblue" d="M1246.88,-132.943C1187.85,-120.54 1103.12,-102.708 1029,-87 1023.17,-85.7655 1017.07,-84.4684 1011.01,-83.1787"/>
<polygon fill="midnightblue" stroke="midnightblue" points="1011.42,-79.6873 1000.91,-81.0274 1009.96,-86.5338 1011.42,-79.6873"/>
</g>
<!-- Node16 -->
<g id="node16" class="node"><title>Node16</title>
<g id="a_node16"><a xlink:href="WorkQueueSettings_8h.html" target="_top" xlink:title="WorkQueueSettings.h">
<polygon fill="white" stroke="black" points="1037.5,-62 1037.5,-81 1156.5,-81 1156.5,-62 1037.5,-62"/>
<text text-anchor="middle" x="1097" y="-69" font-family="Helvetica,sans-Serif" font-size="10.00">WorkQueueSettings.h</text>
</a>
</g>
</g>
<!-- Node1&#45;&gt;Node16 -->
<g id="edge15" class="edge"><title>Node1&#45;&gt;Node16</title>
<path fill="none" stroke="midnightblue" d="M1247.03,-123.404C1208.34,-110.274 1162.76,-94.8124 1132.08,-84.4035"/>
<polygon fill="midnightblue" stroke="midnightblue" points="1132.88,-80.9765 1122.28,-81.0779 1130.63,-87.6054 1132.88,-80.9765"/>
</g>
<!-- Node17 -->
<g id="node17" class="node"><title>Node17</title>
<polygon fill="white" stroke="#bfbfbf" points="1175,-62 1175,-81 1231,-81 1231,-62 1175,-62"/>
<text text-anchor="middle" x="1203" y="-69" font-family="Helvetica,sans-Serif" font-size="10.00">assert.h</text>
</g>
<!-- Node1&#45;&gt;Node17 -->
<g id="edge16" class="edge"><title>Node1&#45;&gt;Node17</title>
<path fill="none" stroke="midnightblue" d="M1282.04,-123.404C1263.07,-111.188 1240.97,-96.9524 1224.96,-86.6467"/>
<polygon fill="midnightblue" stroke="midnightblue" points="1226.62,-83.5502 1216.32,-81.0779 1222.83,-89.4352 1226.62,-83.5502"/>
</g>
<!-- Node18 -->
<g id="node18" class="node"><title>Node18</title>
<polygon fill="white" stroke="#bfbfbf" points="1249,-62 1249,-81 1299,-81 1299,-62 1249,-62"/>
<text text-anchor="middle" x="1274" y="-69" font-family="Helvetica,sans-Serif" font-size="10.00">chrono</text>
</g>
<!-- Node1&#45;&gt;Node18 -->
<g id="edge17" class="edge"><title>Node1&#45;&gt;Node18</title>
<path fill="none" stroke="midnightblue" d="M1305.35,-123.193C1298.55,-112.198 1290.76,-99.6017 1284.65,-89.7158"/>
<polygon fill="midnightblue" stroke="midnightblue" points="1287.62,-87.873 1279.39,-81.2089 1281.67,-91.5549 1287.62,-87.873"/>
</g>
<!-- Node19 -->
<g id="node19" class="node"><title>Node19</title>
<polygon fill="white" stroke="#bfbfbf" points="1317.5,-62 1317.5,-81 1420.5,-81 1420.5,-62 1317.5,-62"/>
<text text-anchor="middle" x="1369" y="-69" font-family="Helvetica,sans-Serif" font-size="10.00">condition_variable</text>
</g>
<!-- Node1&#45;&gt;Node19 -->
<g id="edge18" class="edge"><title>Node1&#45;&gt;Node19</title>
<path fill="none" stroke="midnightblue" d="M1336.98,-123.193C1343.93,-112.198 1351.88,-99.6017 1358.13,-89.7158"/>
<polygon fill="midnightblue" stroke="midnightblue" points="1361.12,-91.5328 1363.5,-81.2089 1355.2,-87.7948 1361.12,-91.5328"/>
</g>
<!-- Node20 -->
<g id="node20" class="node"><title>Node20</title>
<polygon fill="white" stroke="#bfbfbf" points="1439,-62 1439,-81 1485,-81 1485,-62 1439,-62"/>
<text text-anchor="middle" x="1462" y="-69" font-family="Helvetica,sans-Serif" font-size="10.00">iosfwd</text>
</g>
<!-- Node1&#45;&gt;Node20 -->
<g id="edge19" class="edge"><title>Node1&#45;&gt;Node20</title>
<path fill="none" stroke="midnightblue" d="M1367.56,-123.404C1390.75,-110.902 1417.87,-96.2861 1437.08,-85.9308"/>
<polygon fill="midnightblue" stroke="midnightblue" points="1438.94,-88.9036 1446.09,-81.0779 1435.62,-82.7417 1438.94,-88.9036"/>
</g>
<!-- Node21 -->
<g id="node21" class="node"><title>Node21</title>
<polygon fill="white" stroke="#bfbfbf" points="1503.5,-62 1503.5,-81 1550.5,-81 1550.5,-62 1503.5,-62"/>
<text text-anchor="middle" x="1527" y="-69" font-family="Helvetica,sans-Serif" font-size="10.00">mutex</text>
</g>
<!-- Node1&#45;&gt;Node21 -->
<g id="edge20" class="edge"><title>Node1&#45;&gt;Node21</title>
<path fill="none" stroke="midnightblue" d="M1395.1,-123.483C1425.88,-112.748 1461.85,-99.7571 1494,-87 1495.6,-86.3652 1497.24,-85.6995 1498.88,-85.0168"/>
<polygon fill="midnightblue" stroke="midnightblue" points="1500.43,-88.163 1508.25,-81.0185 1497.68,-81.7249 1500.43,-88.163"/>
</g>
<!-- Node22 -->
<g id="node22" class="node"><title>Node22</title>
<polygon fill="white" stroke="#bfbfbf" points="1568.5,-62 1568.5,-81 1615.5,-81 1615.5,-62 1568.5,-62"/>
<text text-anchor="middle" x="1592" y="-69" font-family="Helvetica,sans-Serif" font-size="10.00">queue</text>
</g>
<!-- Node1&#45;&gt;Node22 -->
<g id="edge21" class="edge"><title>Node1&#45;&gt;Node22</title>
<path fill="none" stroke="midnightblue" d="M1395.21,-132.906C1442.9,-122.029 1505.85,-106.073 1560,-87 1561.66,-86.4149 1563.35,-85.7773 1565.05,-85.1066"/>
<polygon fill="midnightblue" stroke="midnightblue" points="1566.79,-88.1718 1574.62,-81.036 1564.05,-81.7306 1566.79,-88.1718"/>
</g>
<!-- Node23 -->
<g id="node23" class="node"><title>Node23</title>
<polygon fill="white" stroke="#bfbfbf" points="1634,-62 1634,-81 1678,-81 1678,-62 1634,-62"/>
<text text-anchor="middle" x="1656" y="-69" font-family="Helvetica,sans-Serif" font-size="10.00">string</text>
</g>
<!-- Node1&#45;&gt;Node23 -->
<g id="edge22" class="edge"><title>Node1&#45;&gt;Node23</title>
<path fill="none" stroke="midnightblue" d="M1395.06,-138.563C1457.41,-129.008 1548.42,-112.255 1625,-87 1626.67,-86.4499 1628.36,-85.8334 1630.06,-85.1734"/>
<polygon fill="midnightblue" stroke="midnightblue" points="1631.77,-88.2479 1639.56,-81.0731 1629,-81.8205 1631.77,-88.2479"/>
</g>
<!-- Node24 -->
<g id="node24" class="node"><title>Node24</title>
<polygon fill="white" stroke="#bfbfbf" points="1695.5,-62 1695.5,-81 1784.5,-81 1784.5,-62 1695.5,-62"/>
<text text-anchor="middle" x="1740" y="-69" font-family="Helvetica,sans-Serif" font-size="10.00">WorkQueue.tpp</text>
</g>
<!-- Node1&#45;&gt;Node24 -->
<g id="edge23" class="edge"><title>Node1&#45;&gt;Node24</title>
<path fill="none" stroke="midnightblue" d="M1395.03,-138.294C1469.26,-127.537 1586.64,-109.103 1687,-87 1691.65,-85.9767 1696.49,-84.8018 1701.29,-83.5732"/>
<polygon fill="midnightblue" stroke="midnightblue" points="1702.2,-86.9519 1710.97,-81.0071 1700.41,-80.1854 1702.2,-86.9519"/>
</g>
<!-- Node3 -->
<g id="node3" class="node"><title>Node3</title>
<g id="a_node3"><a xlink:href="flags_8h.html" target="_top" xlink:title="../../flags.h">
<polygon fill="white" stroke="black" points="0,-0.5 0,-19.5 66,-19.5 66,-0.5 0,-0.5"/>
<text text-anchor="middle" x="33" y="-7.5" font-family="Helvetica,sans-Serif" font-size="10.00">../../flags.h</text>
</a>
</g>
</g>
<!-- Node2&#45;&gt;Node3 -->
<g id="edge2" class="edge"><title>Node2&#45;&gt;Node3</title>
<path fill="none" stroke="midnightblue" d="M349.393,-63.8774C288.398,-55.2055 179.184,-39.0512 76.3655,-20.1752"/>
<polygon fill="midnightblue" stroke="midnightblue" points="76.9067,-16.716 66.4371,-18.3401 75.6344,-23.5994 76.9067,-16.716"/>
</g>
<!-- Node4 -->
<g id="node4" class="node"><title>Node4</title>
<polygon fill="white" stroke="#bfbfbf" points="84,-0.5 84,-19.5 238,-19.5 238,-0.5 84,-0.5"/>
<text text-anchor="middle" x="161" y="-7.5" font-family="Helvetica,sans-Serif" font-size="10.00">carl/io/streamingOperators.h</text>
</g>
<!-- Node2&#45;&gt;Node4 -->
<g id="edge3" class="edge"><title>Node2&#45;&gt;Node4</title>
<path fill="none" stroke="midnightblue" d="M349.242,-58.4593C306.936,-47.7933 245.692,-32.3524 204.668,-22.0094"/>
<polygon fill="midnightblue" stroke="midnightblue" points="205.507,-18.6115 194.954,-19.5605 203.795,-25.3991 205.507,-18.6115"/>
</g>
<!-- Node5 -->
<g id="node5" class="node"><title>Node5</title>
<polygon fill="white" stroke="#bfbfbf" points="256.5,-0.5 256.5,-19.5 315.5,-19.5 315.5,-0.5 256.5,-0.5"/>
<text text-anchor="middle" x="286" y="-7.5" font-family="Helvetica,sans-Serif" font-size="10.00">iostream</text>
</g>
<!-- Node2&#45;&gt;Node5 -->
<g id="edge4" class="edge"><title>Node2&#45;&gt;Node5</title>
<path fill="none" stroke="midnightblue" d="M370.695,-56.3993C352.736,-46.7728 329.076,-34.0902 311.329,-24.5772"/>
<polygon fill="midnightblue" stroke="midnightblue" points="312.619,-21.2975 302.151,-19.6578 309.312,-27.467 312.619,-21.2975"/>
</g>
<!-- Node6 -->
<g id="node6" class="node"><title>Node6</title>
<polygon fill="white" stroke="#bfbfbf" points="334,-0.5 334,-19.5 390,-19.5 390,-0.5 334,-0.5"/>
<text text-anchor="middle" x="362" y="-7.5" font-family="Helvetica,sans-Serif" font-size="10.00">sstream</text>
</g>
<!-- Node2&#45;&gt;Node6 -->
<g id="edge5" class="edge"><title>Node2&#45;&gt;Node6</title>
<path fill="none" stroke="midnightblue" d="M388.705,-56.3993C383.777,-48.0207 377.486,-37.3269 372.249,-28.4229"/>
<polygon fill="midnightblue" stroke="midnightblue" points="375.18,-26.5025 367.093,-19.6578 369.146,-30.0517 375.18,-26.5025"/>
</g>
<!-- Node7 -->
<g id="node7" class="node"><title>Node7</title>
<polygon fill="white" stroke="#bfbfbf" points="408,-0.5 408,-19.5 456,-19.5 456,-0.5 408,-0.5"/>
<text text-anchor="middle" x="432" y="-7.5" font-family="Helvetica,sans-Serif" font-size="10.00">thread</text>
</g>
<!-- Node2&#45;&gt;Node7 -->
<g id="edge6" class="edge"><title>Node2&#45;&gt;Node7</title>
<path fill="none" stroke="midnightblue" d="M405.295,-56.3993C410.223,-48.0207 416.514,-37.3269 421.751,-28.4229"/>
<polygon fill="midnightblue" stroke="midnightblue" points="424.854,-30.0517 426.907,-19.6578 418.82,-26.5025 424.854,-30.0517"/>
</g>
<!-- Node8 -->
<g id="node8" class="node"><title>Node8</title>
<polygon fill="white" stroke="#bfbfbf" points="474.5,-0.5 474.5,-19.5 599.5,-19.5 599.5,-0.5 474.5,-0.5"/>
<text text-anchor="middle" x="537" y="-7.5" font-family="Helvetica,sans-Serif" font-size="10.00">carl/core/carlLogging.h</text>
</g>
<!-- Node2&#45;&gt;Node8 -->
<g id="edge7" class="edge"><title>Node2&#45;&gt;Node8</title>
<path fill="none" stroke="midnightblue" d="M430.178,-56.3993C453.563,-46.4608 484.612,-33.2649 507.206,-23.6625"/>
<polygon fill="midnightblue" stroke="midnightblue" points="508.794,-26.7904 516.629,-19.6578 506.056,-20.3481 508.794,-26.7904"/>
</g>
<!-- Node9 -->
<g id="node9" class="node"><title>Node9</title>
<polygon fill="white" stroke="#bfbfbf" points="617.5,-0.5 617.5,-19.5 772.5,-19.5 772.5,-0.5 617.5,-0.5"/>
<text text-anchor="middle" x="695" y="-7.5" font-family="Helvetica,sans-Serif" font-size="10.00">carl/core/carlLoggingHelper.h</text>
</g>
<!-- Node2&#45;&gt;Node9 -->
<g id="edge8" class="edge"><title>Node2&#45;&gt;Node9</title>
<path fill="none" stroke="midnightblue" d="M444.548,-61.0063C498.382,-50.2576 585.864,-32.7905 641.893,-21.6035"/>
<polygon fill="midnightblue" stroke="midnightblue" points="642.853,-24.9811 651.974,-19.5907 641.482,-18.1166 642.853,-24.9811"/>
</g>
<!-- Node11 -->
<g id="node11" class="node"><title>Node11</title>
<polygon fill="white" stroke="#bfbfbf" points="791,-0.5 791,-19.5 841,-19.5 841,-0.5 791,-0.5"/>
<text text-anchor="middle" x="816" y="-7.5" font-family="Helvetica,sans-Serif" font-size="10.00">atomic</text>
</g>
<!-- Node10&#45;&gt;Node11 -->
<g id="edge10" class="edge"><title>Node10&#45;&gt;Node11</title>
<path fill="none" stroke="midnightblue" d="M818.289,-56.3993C817.889,-48.4664 817.384,-38.458 816.951,-29.8583"/>
<polygon fill="midnightblue" stroke="midnightblue" points="820.436,-29.4688 816.437,-19.6578 813.445,-29.8214 820.436,-29.4688"/>
</g>
<!-- Node12 -->
<g id="node12" class="node"><title>Node12</title>
<polygon fill="white" stroke="#bfbfbf" points="859.5,-0.5 859.5,-19.5 914.5,-19.5 914.5,-0.5 859.5,-0.5"/>
<text text-anchor="middle" x="887" y="-7.5" font-family="Helvetica,sans-Serif" font-size="10.00">unistd.h</text>
</g>
<!-- Node10&#45;&gt;Node12 -->
<g id="edge11" class="edge"><title>Node10&#45;&gt;Node12</title>
<path fill="none" stroke="midnightblue" d="M835.115,-56.3993C845.404,-47.3967 858.747,-35.7214 869.326,-26.4652"/>
<polygon fill="midnightblue" stroke="midnightblue" points="871.884,-28.8769 877.105,-19.6578 867.275,-23.6088 871.884,-28.8769"/>
</g>
<!-- Node14 -->
<g id="node14" class="node"><title>Node14</title>
<polygon fill="white" stroke="#bfbfbf" points="932.5,-0.5 932.5,-19.5 989.5,-19.5 989.5,-0.5 932.5,-0.5"/>
<text text-anchor="middle" x="961" y="-7.5" font-family="Helvetica,sans-Serif" font-size="10.00">memory</text>
</g>
<!-- Node13&#45;&gt;Node14 -->
<g id="edge13" class="edge"><title>Node13&#45;&gt;Node14</title>
<path fill="none" stroke="midnightblue" d="M961,-61.9751C961,-53.5803 961,-40.4806 961,-29.6631"/>
<polygon fill="midnightblue" stroke="midnightblue" points="964.5,-29.5091 961,-19.5091 957.5,-29.5091 964.5,-29.5091"/>
</g>
<!-- Node15 -->
<g id="node15" class="node"><title>Node15</title>
<polygon fill="white" stroke="#bfbfbf" points="1008,-0.5 1008,-19.5 1076,-19.5 1076,-0.5 1008,-0.5"/>
<text text-anchor="middle" x="1042" y="-7.5" font-family="Helvetica,sans-Serif" font-size="10.00">type_traits</text>
</g>
<!-- Node13&#45;&gt;Node15 -->
<g id="edge14" class="edge"><title>Node13&#45;&gt;Node15</title>
<path fill="none" stroke="midnightblue" d="M972.605,-61.9751C985.477,-52.5199 1006.47,-37.0961 1022.01,-25.6871"/>
<polygon fill="midnightblue" stroke="midnightblue" points="1024.43,-28.25 1030.42,-19.5091 1020.28,-22.6085 1024.43,-28.25"/>
</g>
</g>
</svg>
        <g id="navigator" transform="translate(0 0)" fill="#404254">
                <rect fill="#f2f5e9" fill-opacity="0.5" stroke="#606060" stroke-width=".5" x="0" y="0" width="60" height="60"/>
                <use id="zoomplus" xlink:href="#zoomPlus" x="17" y="9" onmousedown="handleZoom(evt,'in')"/>
                <use id="zoomminus" xlink:href="#zoomMin" x="42" y="9" onmousedown="handleZoom(evt,'out')"/>
                <use id="reset" xlink:href="#resetDef" x="30" y="36" onmousedown="handleReset()"/>
                <g id="arrowUp" xlink:href="#dirArrow" transform="translate(30 24)" onmousedown="handlePan(0,-1)">
                  <use xlink:href="#rim" fill="#404040">
                        <set attributeName="fill" to="#808080" begin="arrowUp.mouseover" end="arrowUp.mouseout"/>
                  </use>
                  <path fill="none" stroke="white" stroke-width="1.5" d="M0,-3.0v7 M-2.5,-0.5L0,-3.0L2.5,-0.5"/>
                </g>
                <g id="arrowRight" xlink:href="#dirArrow" transform="rotate(90) translate(36 -43)" onmousedown="handlePan(1,0)">
                  <use xlink:href="#rim" fill="#404040">
                        <set attributeName="fill" to="#808080" begin="arrowRight.mouseover" end="arrowRight.mouseout"/>
                  </use>
                  <path fill="none" stroke="white" stroke-width="1.5" d="M0,-3.0v7 M-2.5,-0.5L0,-3.0L2.5,-0.5"/>
                </g>
                <g id="arrowDown" xlink:href="#dirArrow" transform="rotate(180) translate(-30 -48)" onmousedown="handlePan(0,1)">
                  <use xlink:href="#rim" fill="#404040">
                        <set attributeName="fill" to="#808080" begin="arrowDown.mouseover" end="arrowDown.mouseout"/>
                  </use>
                  <path fill="none" stroke="white" stroke-width="1.5" d="M0,-3.0v7 M-2.5,-0.5L0,-3.0L2.5,-0.5"/>
                </g>
                <g id="arrowLeft" xlink:href="#dirArrow" transform="rotate(270) translate(-36 17)" onmousedown="handlePan(-1,0)">
                  <use xlink:href="#rim" fill="#404040">
                        <set attributeName="fill" to="#808080" begin="arrowLeft.mouseover" end="arrowLeft.mouseout"/>
                  </use>
                  <path fill="none" stroke="white" stroke-width="1.5" d="M0,-3.0v7 M-2.5,-0.5L0,-3.0L2.5,-0.5"/>
                </g>
        </g>
        <svg viewBox="0 0 15 15" width="100%" height="30px" preserveAspectRatio="xMaxYMin meet">
         <g id="arrow_out" transform="scale(0.3 0.3)">
          <a xlink:href="WorkQueue_8h__incl_org.svg" target="_base">
           <rect id="button" ry="5" rx="5" y="6" x="6" height="38" width="38"
                fill="#f2f5e9" fill-opacity="0.5" stroke="#606060" stroke-width="1.0"/>
           <path id="arrow"
             d="M 11.500037,31.436501 C 11.940474,20.09759 22.043105,11.32322 32.158766,21.979434 L 37.068811,17.246167 C 37.068811,17.246167 37.088388,32 37.088388,32 L 22.160133,31.978069 C 22.160133,31.978069 26.997745,27.140456 26.997745,27.140456 C 18.528582,18.264221 13.291696,25.230495 11.500037,31.436501 z"
             style="fill:#404040;"/>
          </a>
         </g>
        </svg>
</svg>
