<?xml version="1.0" encoding="UTF-8" standalone="no"?>
<!DOCTYPE svg PUBLIC "-//W3C//DTD SVG 1.1//EN"
 "http://www.w3.org/Graphics/SVG/1.1/DTD/svg11.dtd">
<!-- Generated by graphviz version 2.38.0 (20140413.2041)
 -->
<!-- Title: /home/travis/build/hypro/hypro/src/hypro/util/linearOptimization/z3/z3Convenience.h Pages: 1 -->
<!--zoomable 441 -->
<svg id="main" version="1.1" xmlns="http://www.w3.org/2000/svg" xmlns:xlink="http://www.w3.org/1999/xlink" xml:space="preserve" onload="init(evt)">
<style type="text/css"><![CDATA[
.edge:hover path { stroke: red; }
.edge:hover polygon { stroke: red; fill: red; }
]]></style>
<script type="text/javascript"><![CDATA[
var edges = document.getElementsByTagName('g');
if (edges && edges.length) {
  for (var i=0;i<edges.length;i++) {
    if (edges[i].id.substr(0,4)=='edge') {
      edges[i].setAttribute('class','edge');
    }
  }
}
]]></script>
        <defs>
                <circle id="rim" cx="0" cy="0" r="7"/>
                <circle id="rim2" cx="0" cy="0" r="3.5"/>
                <g id="zoomPlus">
                        <use xlink:href="#rim" fill="#404040">
                                <set attributeName="fill" to="#808080" begin="zoomplus.mouseover" end="zoomplus.mouseout"/>
                        </use>
                        <path d="M-4,0h8M0,-4v8" fill="none" stroke="white" stroke-width="1.5" pointer-events="none"/>
                </g>
                <g id="zoomMin">
                        <use xlink:href="#rim" fill="#404040">
                                <set attributeName="fill" to="#808080" begin="zoomminus.mouseover" end="zoomminus.mouseout"/>
                        </use>
                        <path d="M-4,0h8" fill="none" stroke="white" stroke-width="1.5" pointer-events="none"/>
                </g>
                <g id="dirArrow">
                        <path fill="none" stroke="white" stroke-width="1.5" d="M0,-3.0v7 M-2.5,-0.5L0,-3.0L2.5,-0.5"/>
                </g>
               <g id="resetDef">
                       <use xlink:href="#rim2" fill="#404040">
                               <set attributeName="fill" to="#808080" begin="reset.mouseover" end="reset.mouseout"/>
                       </use>
               </g>
        </defs>

<script type="text/javascript">
var viewWidth = 1725;
var viewHeight = 441;
var sectionId = 'dynsection-0';
</script>
<script xlink:href="svgpan.js"/>
<svg id="graph" class="graph">
<g id="viewport">
<title>/home/travis/build/hypro/hypro/src/hypro/util/linearOptimization/z3/z3Convenience.h</title>
<polygon fill="white" stroke="none" points="-4,4 -4,-437 1721,-437 1721,4 -4,4"/>
<!-- Node1 -->
<g id="node1" class="node"><title>Node1</title>
<polygon fill="#bfbfbf" stroke="black" points="879,-380.5 879,-432.5 1003,-432.5 1003,-380.5 879,-380.5"/>
<text text-anchor="start" x="887" y="-420.5" font-family="Helvetica,sans-Serif" font-size="10.00">/home/travis/build</text>
<text text-anchor="start" x="887" y="-409.5" font-family="Helvetica,sans-Serif" font-size="10.00">/hypro/hypro/src/hypro</text>
<text text-anchor="start" x="887" y="-398.5" font-family="Helvetica,sans-Serif" font-size="10.00">/util/linearOptimization</text>
<text text-anchor="middle" x="941" y="-387.5" font-family="Helvetica,sans-Serif" font-size="10.00">/z3/z3Convenience.h</text>
</g>
<!-- Node2 -->
<g id="node2" class="node"><title>Node2</title>
<g id="a_node2"><a xlink:href="Point_8h.html" target="_top" xlink:title="datastructures/Point.h">
<polygon fill="white" stroke="black" points="834.5,-324.5 834.5,-343.5 957.5,-343.5 957.5,-324.5 834.5,-324.5"/>
<text text-anchor="middle" x="896" y="-331.5" font-family="Helvetica,sans-Serif" font-size="10.00">datastructures/Point.h</text>
</a>
</g>
</g>
<!-- Node1&#45;&gt;Node2 -->
<g id="edge1" class="edge"><title>Node1&#45;&gt;Node2</title>
<path fill="none" stroke="midnightblue" d="M925.008,-380.446C919.061,-371.129 912.451,-360.772 907.044,-352.302"/>
<polygon fill="midnightblue" stroke="midnightblue" points="909.881,-350.242 901.55,-343.695 903.98,-354.008 909.881,-350.242"/>
</g>
<!-- Node4 -->
<g id="node4" class="node"><title>Node4</title>
<g id="a_node4"><a xlink:href="flags_8h.html" target="_top" xlink:title="flags.h">
<polygon fill="white" stroke="black" points="0,-145.5 0,-164.5 48,-164.5 48,-145.5 0,-145.5"/>
<text text-anchor="middle" x="24" y="-152.5" font-family="Helvetica,sans-Serif" font-size="10.00">flags.h</text>
</a>
</g>
</g>
<!-- Node1&#45;&gt;Node4 -->
<g id="edge49" class="edge"><title>Node1&#45;&gt;Node4</title>
<path fill="none" stroke="midnightblue" d="M878.69,-392.21C750.872,-364.446 450.231,-296.571 203,-221 150.338,-204.903 90.4301,-182.237 54.9971,-168.364"/>
<polygon fill="midnightblue" stroke="midnightblue" points="55.8371,-164.933 45.25,-164.527 53.2732,-171.447 55.8371,-164.933"/>
</g>
<!-- Node36 -->
<g id="node36" class="node"><title>Node36</title>
<polygon fill="white" stroke="#bfbfbf" points="1014,-324.5 1014,-343.5 1066,-343.5 1066,-324.5 1014,-324.5"/>
<text text-anchor="middle" x="1040" y="-331.5" font-family="Helvetica,sans-Serif" font-size="10.00">types.h</text>
</g>
<!-- Node1&#45;&gt;Node36 -->
<g id="edge50" class="edge"><title>Node1&#45;&gt;Node36</title>
<path fill="none" stroke="midnightblue" d="M976.182,-380.446C990.672,-370.127 1006.95,-358.533 1019.44,-349.638"/>
<polygon fill="midnightblue" stroke="midnightblue" points="1021.67,-352.347 1027.79,-343.695 1017.61,-346.645 1021.67,-352.347"/>
</g>
<!-- Node37 -->
<g id="node37" class="node"><title>Node37</title>
<g id="a_node37"><a xlink:href="EvaluationResult_8h.html" target="_top" xlink:title="util/linearOptimization\l/EvaluationResult.h">
<polygon fill="white" stroke="black" points="925.5,-257.5 925.5,-287.5 1046.5,-287.5 1046.5,-257.5 925.5,-257.5"/>
<text text-anchor="start" x="933.5" y="-275.5" font-family="Helvetica,sans-Serif" font-size="10.00">util/linearOptimization</text>
<text text-anchor="middle" x="986" y="-264.5" font-family="Helvetica,sans-Serif" font-size="10.00">/EvaluationResult.h</text>
</a>
</g>
</g>
<!-- Node1&#45;&gt;Node37 -->
<g id="edge51" class="edge"><title>Node1&#45;&gt;Node37</title>
<path fill="none" stroke="midnightblue" d="M951.971,-380.304C956.586,-369.267 961.839,-356.098 966,-344 971.276,-328.661 976.257,-311.113 979.929,-297.362"/>
<polygon fill="midnightblue" stroke="midnightblue" points="983.316,-298.246 982.465,-287.686 976.544,-296.472 983.316,-298.246"/>
</g>
<!-- Node3 -->
<g id="node3" class="node"><title>Node3</title>
<g id="a_node3"><a xlink:href="config_8h.html" target="_top" xlink:title="../config.h">
<polygon fill="white" stroke="black" points="750.5,-263 750.5,-282 813.5,-282 813.5,-263 750.5,-263"/>
<text text-anchor="middle" x="782" y="-270" font-family="Helvetica,sans-Serif" font-size="10.00">../config.h</text>
</a>
</g>
</g>
<!-- Node2&#45;&gt;Node3 -->
<g id="edge2" class="edge"><title>Node2&#45;&gt;Node3</title>
<path fill="none" stroke="midnightblue" d="M879.667,-324.475C860.789,-314.622 829.493,-298.288 807.424,-286.77"/>
<polygon fill="midnightblue" stroke="midnightblue" points="808.788,-283.533 798.303,-282.009 805.549,-289.739 808.788,-283.533"/>
</g>
<!-- Node6 -->
<g id="node6" class="node"><title>Node6</title>
<g id="a_node6"><a xlink:href="types_8h.html" target="_top" xlink:title="../types.h">
<polygon fill="white" stroke="black" points="811.5,-145.5 811.5,-164.5 872.5,-164.5 872.5,-145.5 811.5,-145.5"/>
<text text-anchor="middle" x="842" y="-152.5" font-family="Helvetica,sans-Serif" font-size="10.00">../types.h</text>
</a>
</g>
</g>
<!-- Node2&#45;&gt;Node6 -->
<g id="edge36" class="edge"><title>Node2&#45;&gt;Node6</title>
<path fill="none" stroke="midnightblue" d="M893.395,-324.463C885.112,-297.311 859.241,-212.512 847.68,-174.618"/>
<polygon fill="midnightblue" stroke="midnightblue" points="850.971,-173.412 844.706,-164.868 844.276,-175.454 850.971,-173.412"/>
</g>
<!-- Node12 -->
<g id="node12" class="node"><title>Node12</title>
<polygon fill="white" stroke="#bfbfbf" points="1063,-84 1063,-103 1095,-103 1095,-84 1063,-84"/>
<text text-anchor="middle" x="1079" y="-91" font-family="Helvetica,sans-Serif" font-size="10.00">set</text>
</g>
<!-- Node2&#45;&gt;Node12 -->
<g id="edge46" class="edge"><title>Node2&#45;&gt;Node12</title>
<path fill="none" stroke="midnightblue" d="M957.649,-330.67C991.02,-326.108 1030.34,-314.824 1055,-288 1099.84,-239.215 1090.14,-151.9 1083.09,-113.502"/>
<polygon fill="midnightblue" stroke="midnightblue" points="1086.43,-112.378 1081.05,-103.253 1079.57,-113.744 1086.43,-112.378"/>
</g>
<!-- Node21 -->
<g id="node21" class="node"><title>Node21</title>
<polygon fill="white" stroke="#bfbfbf" points="1121.5,-145.5 1121.5,-164.5 1168.5,-164.5 1168.5,-145.5 1121.5,-145.5"/>
<text text-anchor="middle" x="1145" y="-152.5" font-family="Helvetica,sans-Serif" font-size="10.00">vector</text>
</g>
<!-- Node2&#45;&gt;Node21 -->
<g id="edge47" class="edge"><title>Node2&#45;&gt;Node21</title>
<path fill="none" stroke="midnightblue" d="M957.652,-326.884C1011.95,-320.274 1085.63,-307.921 1107,-288 1138.89,-258.273 1144.61,-203.689 1145.28,-174.908"/>
<polygon fill="midnightblue" stroke="midnightblue" points="1148.78,-174.629 1145.32,-164.614 1141.78,-174.6 1148.78,-174.629"/>
</g>
<!-- Node29 -->
<g id="node29" class="node"><title>Node29</title>
<g id="a_node29"><a xlink:href="VariablePool_8h.html" target="_top" xlink:title="../util/VariablePool.h">
<polygon fill="white" stroke="black" points="1163,-201.5 1163,-220.5 1273,-220.5 1273,-201.5 1163,-201.5"/>
<text text-anchor="middle" x="1218" y="-208.5" font-family="Helvetica,sans-Serif" font-size="10.00">../util/VariablePool.h</text>
</a>
</g>
</g>
<!-- Node2&#45;&gt;Node29 -->
<g id="edge37" class="edge"><title>Node2&#45;&gt;Node29</title>
<path fill="none" stroke="midnightblue" d="M895.467,-324.403C894.996,-308.491 896.492,-274.483 916,-257 933.337,-241.463 1069.09,-226.059 1152.58,-217.922"/>
<polygon fill="midnightblue" stroke="midnightblue" points="1153.12,-221.386 1162.74,-216.942 1152.45,-214.418 1153.12,-221.386"/>
</g>
<!-- Node35 -->
<g id="node35" class="node"><title>Node35</title>
<polygon fill="white" stroke="#bfbfbf" points="1159.5,-263 1159.5,-282 1218.5,-282 1218.5,-263 1159.5,-263"/>
<text text-anchor="middle" x="1189" y="-270" font-family="Helvetica,sans-Serif" font-size="10.00">Point.tpp</text>
</g>
<!-- Node2&#45;&gt;Node35 -->
<g id="edge48" class="edge"><title>Node2&#45;&gt;Node35</title>
<path fill="none" stroke="midnightblue" d="M956.631,-324.466C1007.37,-316.747 1081.45,-304.13 1145,-288 1148.38,-287.143 1151.87,-286.161 1155.34,-285.121"/>
<polygon fill="midnightblue" stroke="midnightblue" points="1156.48,-288.431 1164.97,-282.09 1154.38,-281.754 1156.48,-288.431"/>
</g>
<!-- Node3&#45;&gt;Node4 -->
<g id="edge3" class="edge"><title>Node3&#45;&gt;Node4</title>
<path fill="none" stroke="midnightblue" d="M750.415,-269.247C674.85,-263.604 477.807,-247.395 315,-221 202.343,-202.735 172.582,-193.408 57.9825,-165.161"/>
<polygon fill="midnightblue" stroke="midnightblue" points="58.6592,-161.723 48.1126,-162.733 56.9871,-168.52 58.6592,-161.723"/>
</g>
<!-- Node5 -->
<g id="node5" class="node"><title>Node5</title>
<g id="a_node5"><a xlink:href="util_2convenienceOperators_8h.html" target="_top" xlink:title="util/convenienceOperators.h">
<polygon fill="white" stroke="black" points="908.5,-201.5 908.5,-220.5 1059.5,-220.5 1059.5,-201.5 908.5,-201.5"/>
<text text-anchor="middle" x="984" y="-208.5" font-family="Helvetica,sans-Serif" font-size="10.00">util/convenienceOperators.h</text>
</a>
</g>
</g>
<!-- Node3&#45;&gt;Node5 -->
<g id="edge4" class="edge"><title>Node3&#45;&gt;Node5</title>
<path fill="none" stroke="midnightblue" d="M810.942,-262.975C846.267,-252.57 906.131,-234.937 945.365,-223.38"/>
<polygon fill="midnightblue" stroke="midnightblue" points="946.508,-226.692 955.112,-220.509 944.531,-219.977 946.508,-226.692"/>
</g>
<!-- Node22 -->
<g id="node22" class="node"><title>Node22</title>
<g id="a_node22"><a xlink:href="Logger_8h.html" target="_top" xlink:title="util/logging/Logger.h">
<polygon fill="white" stroke="black" points="324.5,-201.5 324.5,-220.5 437.5,-220.5 437.5,-201.5 324.5,-201.5"/>
<text text-anchor="middle" x="381" y="-208.5" font-family="Helvetica,sans-Serif" font-size="10.00">util/logging/Logger.h</text>
</a>
</g>
</g>
<!-- Node3&#45;&gt;Node22 -->
<g id="edge28" class="edge"><title>Node3&#45;&gt;Node22</title>
<path fill="none" stroke="midnightblue" d="M750.199,-266.781C685.071,-257.118 535.299,-234.895 447.84,-221.918"/>
<polygon fill="midnightblue" stroke="midnightblue" points="448.159,-218.427 437.753,-220.421 447.131,-225.351 448.159,-218.427"/>
</g>
<!-- Node5&#45;&gt;Node6 -->
<g id="edge5" class="edge"><title>Node5&#45;&gt;Node6</title>
<path fill="none" stroke="midnightblue" d="M961.5,-201.444C937.923,-192.478 900.678,-178.314 874.036,-168.183"/>
<polygon fill="midnightblue" stroke="midnightblue" points="874.986,-164.8 864.395,-164.516 872.498,-171.342 874.986,-164.8"/>
</g>
<!-- Node11 -->
<g id="node11" class="node"><title>Node11</title>
<polygon fill="white" stroke="#bfbfbf" points="1043,-11.5 1043,-30.5 1089,-30.5 1089,-11.5 1043,-11.5"/>
<text text-anchor="middle" x="1066" y="-18.5" font-family="Helvetica,sans-Serif" font-size="10.00">iosfwd</text>
</g>
<!-- Node5&#45;&gt;Node11 -->
<g id="edge23" class="edge"><title>Node5&#45;&gt;Node11</title>
<path fill="none" stroke="midnightblue" d="M973.696,-201.427C959.861,-188.839 938.298,-164.712 950,-145 967.056,-116.268 992.112,-132.362 1016,-109 1036.39,-89.062 1051.14,-59.052 1059.14,-40.0016"/>
<polygon fill="midnightblue" stroke="midnightblue" points="1062.4,-41.2634 1062.87,-30.6791 1055.9,-38.6589 1062.4,-41.2634"/>
</g>
<!-- Node5&#45;&gt;Node12 -->
<g id="edge25" class="edge"><title>Node5&#45;&gt;Node12</title>
<path fill="none" stroke="midnightblue" d="M975.621,-201.432C963.952,-188.429 945.564,-163.294 958,-145 982.452,-109.03 1009.17,-126.475 1049,-109 1050.57,-108.313 1052.17,-107.591 1053.78,-106.852"/>
<polygon fill="midnightblue" stroke="midnightblue" points="1055.36,-109.979 1062.91,-102.546 1052.37,-103.648 1055.36,-109.979"/>
</g>
<!-- Node19 -->
<g id="node19" class="node"><title>Node19</title>
<polygon fill="white" stroke="#bfbfbf" points="1027,-145.5 1027,-164.5 1065,-164.5 1065,-145.5 1027,-145.5"/>
<text text-anchor="middle" x="1046" y="-152.5" font-family="Helvetica,sans-Serif" font-size="10.00">map</text>
</g>
<!-- Node5&#45;&gt;Node19 -->
<g id="edge24" class="edge"><title>Node5&#45;&gt;Node19</title>
<path fill="none" stroke="midnightblue" d="M993.961,-201.324C1003.13,-193.341 1016.94,-181.313 1028.03,-171.653"/>
<polygon fill="midnightblue" stroke="midnightblue" points="1030.62,-174.041 1035.86,-164.834 1026.02,-168.762 1030.62,-174.041"/>
</g>
<!-- Node20 -->
<g id="node20" class="node"><title>Node20</title>
<polygon fill="white" stroke="#bfbfbf" points="967,-145.5 967,-164.5 1009,-164.5 1009,-145.5 967,-145.5"/>
<text text-anchor="middle" x="988" y="-152.5" font-family="Helvetica,sans-Serif" font-size="10.00">utility</text>
</g>
<!-- Node5&#45;&gt;Node20 -->
<g id="edge26" class="edge"><title>Node5&#45;&gt;Node20</title>
<path fill="none" stroke="midnightblue" d="M984.661,-201.083C985.185,-194.006 985.936,-183.861 986.594,-174.986"/>
<polygon fill="midnightblue" stroke="midnightblue" points="990.103,-174.982 987.352,-164.751 983.123,-174.465 990.103,-174.982"/>
</g>
<!-- Node5&#45;&gt;Node21 -->
<g id="edge27" class="edge"><title>Node5&#45;&gt;Node21</title>
<path fill="none" stroke="midnightblue" d="M1009.51,-201.444C1037.15,-192.172 1081.37,-177.343 1111.72,-167.161"/>
<polygon fill="midnightblue" stroke="midnightblue" points="1113.07,-170.4 1121.44,-163.902 1110.85,-163.763 1113.07,-170.4"/>
</g>
<!-- Node7 -->
<g id="node7" class="node"><title>Node7</title>
<polygon fill="white" stroke="#bfbfbf" points="190,-11.5 190,-30.5 324,-30.5 324,-11.5 190,-11.5"/>
<text text-anchor="middle" x="257" y="-18.5" font-family="Helvetica,sans-Serif" font-size="10.00">carl/numbers/numbers.h</text>
</g>
<!-- Node6&#45;&gt;Node7 -->
<g id="edge6" class="edge"><title>Node6&#45;&gt;Node7</title>
<path fill="none" stroke="midnightblue" d="M811.399,-150.242C743.765,-141.828 583.337,-121.257 530,-109 441.144,-88.5812 339.587,-52.8059 289.061,-34.1289"/>
<polygon fill="midnightblue" stroke="midnightblue" points="290.247,-30.8362 279.655,-30.6311 287.808,-37.3972 290.247,-30.8362"/>
</g>
<!-- Node8 -->
<g id="node8" class="node"><title>Node8</title>
<polygon fill="white" stroke="#bfbfbf" points="799,-84 799,-103 885,-103 885,-84 799,-84"/>
<text text-anchor="middle" x="842" y="-91" font-family="Helvetica,sans-Serif" font-size="10.00">carl/util/hash.h</text>
</g>
<!-- Node6&#45;&gt;Node8 -->
<g id="edge7" class="edge"><title>Node6&#45;&gt;Node8</title>
<path fill="none" stroke="midnightblue" d="M842,-145.475C842,-137.08 842,-123.981 842,-113.163"/>
<polygon fill="midnightblue" stroke="midnightblue" points="845.5,-113.009 842,-103.009 838.5,-113.009 845.5,-113.009"/>
</g>
<!-- Node9 -->
<g id="node9" class="node"><title>Node9</title>
<polygon fill="white" stroke="#bfbfbf" points="903,-84 903,-103 1007,-103 1007,-84 903,-84"/>
<text text-anchor="middle" x="955" y="-91" font-family="Helvetica,sans-Serif" font-size="10.00">eigen3/Eigen/Core</text>
</g>
<!-- Node6&#45;&gt;Node9 -->
<g id="edge8" class="edge"><title>Node6&#45;&gt;Node9</title>
<path fill="none" stroke="midnightblue" d="M858.19,-145.475C876.902,-135.622 907.923,-119.288 929.799,-107.77"/>
<polygon fill="midnightblue" stroke="midnightblue" points="931.622,-110.765 938.84,-103.009 928.361,-104.571 931.622,-110.765"/>
</g>
<!-- Node10 -->
<g id="node10" class="node"><title>Node10</title>
<polygon fill="white" stroke="#bfbfbf" points="342,-11.5 342,-30.5 454,-30.5 454,-11.5 342,-11.5"/>
<text text-anchor="middle" x="398" y="-18.5" font-family="Helvetica,sans-Serif" font-size="10.00">eigen3/Eigen/Dense</text>
</g>
<!-- Node6&#45;&gt;Node10 -->
<g id="edge9" class="edge"><title>Node6&#45;&gt;Node10</title>
<path fill="none" stroke="midnightblue" d="M811.43,-149.527C768.242,-142.82 687.141,-128.798 620,-109 548.321,-87.8639 467.338,-53.2736 425.819,-34.7153"/>
<polygon fill="midnightblue" stroke="midnightblue" points="427.175,-31.4874 416.619,-30.5762 424.302,-37.8711 427.175,-31.4874"/>
</g>
<!-- Node6&#45;&gt;Node11 -->
<g id="edge10" class="edge"><title>Node6&#45;&gt;Node11</title>
<path fill="none" stroke="midnightblue" d="M828.446,-145.345C807.215,-130.751 770.464,-100.63 790,-78 825.816,-36.5119 982.562,-60.9248 1034,-42 1038.15,-40.4731 1042.34,-38.3609 1046.25,-36.0783"/>
<polygon fill="midnightblue" stroke="midnightblue" points="1048.21,-38.9776 1054.75,-30.638 1044.44,-33.0823 1048.21,-38.9776"/>
</g>
<!-- Node6&#45;&gt;Node12 -->
<g id="edge11" class="edge"><title>Node6&#45;&gt;Node12</title>
<path fill="none" stroke="midnightblue" d="M872.984,-146.221C920.045,-134.406 1008.71,-112.145 1052.78,-101.084"/>
<polygon fill="midnightblue" stroke="midnightblue" points="1053.87,-104.418 1062.72,-98.5882 1052.16,-97.6286 1053.87,-104.418"/>
</g>
<!-- Node13 -->
<g id="node13" class="node"><title>Node13</title>
<g id="a_node13"><a xlink:href="adaptions__eigen_8h.html" target="_top" xlink:title="util/adaptions_eigen\l/adaptions_eigen.h">
<polygon fill="white" stroke="black" points="629.5,-78.5 629.5,-108.5 742.5,-108.5 742.5,-78.5 629.5,-78.5"/>
<text text-anchor="start" x="637.5" y="-96.5" font-family="Helvetica,sans-Serif" font-size="10.00">util/adaptions_eigen</text>
<text text-anchor="middle" x="686" y="-85.5" font-family="Helvetica,sans-Serif" font-size="10.00">/adaptions_eigen.h</text>
</a>
</g>
</g>
<!-- Node6&#45;&gt;Node13 -->
<g id="edge12" class="edge"><title>Node6&#45;&gt;Node13</title>
<path fill="none" stroke="midnightblue" d="M814.748,-145.475C790.259,-136.852 754.188,-123.264 726.391,-112.285"/>
<polygon fill="midnightblue" stroke="midnightblue" points="727.522,-108.968 716.936,-108.523 724.934,-115.472 727.522,-108.968"/>
</g>
<!-- Node13&#45;&gt;Node3 -->
<g id="edge13" class="edge"><title>Node13&#45;&gt;Node3</title>
<path fill="none" stroke="midnightblue" d="M719.738,-108.645C735.379,-116.942 752.739,-128.981 763,-145 784.286,-178.232 785.176,-226.281 783.729,-252.565"/>
<polygon fill="midnightblue" stroke="midnightblue" points="780.228,-252.456 782.991,-262.684 787.209,-252.965 780.228,-252.456"/>
</g>
<!-- Node13&#45;&gt;Node6 -->
<g id="edge14" class="edge"><title>Node13&#45;&gt;Node6</title>
<path fill="none" stroke="midnightblue" d="M728.596,-108.523C756.203,-118.558 791.221,-131.942 815.068,-141.59"/>
<polygon fill="midnightblue" stroke="midnightblue" points="813.969,-144.922 824.55,-145.475 816.623,-138.445 813.969,-144.922"/>
</g>
<!-- Node13&#45;&gt;Node7 -->
<g id="edge16" class="edge"><title>Node13&#45;&gt;Node7</title>
<path fill="none" stroke="midnightblue" d="M629.411,-86.441C559.405,-78.4787 436.76,-63.0018 333,-42 321.002,-39.5716 308.08,-36.3888 296.354,-33.2787"/>
<polygon fill="midnightblue" stroke="midnightblue" points="296.978,-29.8217 286.41,-30.5851 295.147,-36.5782 296.978,-29.8217"/>
</g>
<!-- Node13&#45;&gt;Node10 -->
<g id="edge17" class="edge"><title>Node13&#45;&gt;Node10</title>
<path fill="none" stroke="midnightblue" d="M629.071,-80.9984C583.609,-71.4938 518.404,-57.1445 462,-42 452.67,-39.495 442.664,-36.5124 433.4,-33.6252"/>
<polygon fill="midnightblue" stroke="midnightblue" points="434.297,-30.2379 423.707,-30.5567 432.184,-36.9115 434.297,-30.2379"/>
</g>
<!-- Node13&#45;&gt;Node11 -->
<g id="edge20" class="edge"><title>Node13&#45;&gt;Node11</title>
<path fill="none" stroke="midnightblue" d="M742.513,-80.5755C747.405,-79.6596 752.284,-78.7869 757,-78 879.453,-57.5661 917.124,-83.8597 1034,-42 1038.16,-40.5089 1042.36,-38.4137 1046.27,-36.1366"/>
<polygon fill="midnightblue" stroke="midnightblue" points="1048.24,-39.0345 1054.77,-30.6919 1044.46,-33.1409 1048.24,-39.0345"/>
</g>
<!-- Node14 -->
<g id="node14" class="node"><title>Node14</title>
<g id="a_node14"><a xlink:href="transformation_8h.html" target="_top" xlink:title="transformation.h">
<polygon fill="white" stroke="black" points="471.5,-11.5 471.5,-30.5 568.5,-30.5 568.5,-11.5 471.5,-11.5"/>
<text text-anchor="middle" x="520" y="-18.5" font-family="Helvetica,sans-Serif" font-size="10.00">transformation.h</text>
</a>
</g>
</g>
<!-- Node13&#45;&gt;Node14 -->
<g id="edge15" class="edge"><title>Node13&#45;&gt;Node14</title>
<path fill="none" stroke="midnightblue" d="M652.806,-78.4027C622.676,-65.6063 578.649,-46.9083 549.669,-34.6004"/>
<polygon fill="midnightblue" stroke="midnightblue" points="550.666,-31.2212 540.093,-30.5336 547.929,-37.6642 550.666,-31.2212"/>
</g>
<!-- Node15 -->
<g id="node15" class="node"><title>Node15</title>
<polygon fill="white" stroke="#bfbfbf" points="587,-11.5 587,-30.5 725,-30.5 725,-11.5 587,-11.5"/>
<text text-anchor="middle" x="656" y="-18.5" font-family="Helvetica,sans-Serif" font-size="10.00">eigen3/Eigen/Eigenvalues</text>
</g>
<!-- Node13&#45;&gt;Node15 -->
<g id="edge18" class="edge"><title>Node13&#45;&gt;Node15</title>
<path fill="none" stroke="midnightblue" d="M679.929,-78.2333C675.268,-67.2793 668.798,-52.0749 663.761,-40.2375"/>
<polygon fill="midnightblue" stroke="midnightblue" points="666.92,-38.7242 659.784,-30.8932 660.479,-41.4652 666.92,-38.7242"/>
</g>
<!-- Node16 -->
<g id="node16" class="node"><title>Node16</title>
<polygon fill="white" stroke="#bfbfbf" points="743.5,-11.5 743.5,-30.5 806.5,-30.5 806.5,-11.5 743.5,-11.5"/>
<text text-anchor="middle" x="775" y="-18.5" font-family="Helvetica,sans-Serif" font-size="10.00">functional</text>
</g>
<!-- Node13&#45;&gt;Node16 -->
<g id="edge19" class="edge"><title>Node13&#45;&gt;Node16</title>
<path fill="none" stroke="midnightblue" d="M704.01,-78.2333C718.956,-66.3941 740.17,-49.5899 755.511,-37.4378"/>
<polygon fill="midnightblue" stroke="midnightblue" points="758.108,-39.846 763.773,-30.8932 753.761,-34.3589 758.108,-39.846"/>
</g>
<!-- Node17 -->
<g id="node17" class="node"><title>Node17</title>
<polygon fill="white" stroke="#bfbfbf" points="825,-11.5 825,-30.5 867,-30.5 867,-11.5 825,-11.5"/>
<text text-anchor="middle" x="846" y="-18.5" font-family="Helvetica,sans-Serif" font-size="10.00">limits</text>
</g>
<!-- Node13&#45;&gt;Node17 -->
<g id="edge21" class="edge"><title>Node13&#45;&gt;Node17</title>
<path fill="none" stroke="midnightblue" d="M728.172,-78.4047C753.831,-69.2418 786.953,-56.3545 815,-42 818.453,-40.2328 822.007,-38.1823 825.421,-36.0816"/>
<polygon fill="midnightblue" stroke="midnightblue" points="827.465,-38.9286 833.967,-30.5635 823.667,-33.0481 827.465,-38.9286"/>
</g>
<!-- Node18 -->
<g id="node18" class="node"><title>Node18</title>
<polygon fill="white" stroke="#bfbfbf" points="885,-0.5 885,-41.5 1025,-41.5 1025,-0.5 885,-0.5"/>
<text text-anchor="start" x="893" y="-29.5" font-family="Helvetica,sans-Serif" font-size="10.00">eigen3/unsupported</text>
<text text-anchor="start" x="893" y="-18.5" font-family="Helvetica,sans-Serif" font-size="10.00">/Eigen/src/MatrixFunctions</text>
<text text-anchor="middle" x="955" y="-7.5" font-family="Helvetica,sans-Serif" font-size="10.00">/MatrixExponential.h</text>
</g>
<!-- Node13&#45;&gt;Node18 -->
<g id="edge22" class="edge"><title>Node13&#45;&gt;Node18</title>
<path fill="none" stroke="midnightblue" d="M739.467,-78.4872C778.213,-68.3327 831.261,-54.4296 875.033,-42.9578"/>
<polygon fill="midnightblue" stroke="midnightblue" points="876.009,-46.3203 884.795,-40.3993 874.235,-39.5489 876.009,-46.3203"/>
</g>
<!-- Node22&#45;&gt;Node4 -->
<g id="edge29" class="edge"><title>Node22&#45;&gt;Node4</title>
<path fill="none" stroke="midnightblue" d="M324.436,-204.369C261.573,-197.613 156.924,-184.893 57.9333,-164.961"/>
<polygon fill="midnightblue" stroke="midnightblue" points="58.5628,-161.518 48.0647,-162.946 57.1622,-168.376 58.5628,-161.518"/>
</g>
<!-- Node23 -->
<g id="node23" class="node"><title>Node23</title>
<polygon fill="white" stroke="#bfbfbf" points="66,-145.5 66,-164.5 220,-164.5 220,-145.5 66,-145.5"/>
<text text-anchor="middle" x="143" y="-152.5" font-family="Helvetica,sans-Serif" font-size="10.00">carl/io/streamingOperators.h</text>
</g>
<!-- Node22&#45;&gt;Node23 -->
<g id="edge30" class="edge"><title>Node22&#45;&gt;Node23</title>
<path fill="none" stroke="midnightblue" d="M343.288,-201.444C301.857,-192.043 235.243,-176.929 190.333,-166.739"/>
<polygon fill="midnightblue" stroke="midnightblue" points="191.062,-163.316 180.535,-164.516 189.513,-170.142 191.062,-163.316"/>
</g>
<!-- Node24 -->
<g id="node24" class="node"><title>Node24</title>
<polygon fill="white" stroke="#bfbfbf" points="238.5,-145.5 238.5,-164.5 297.5,-164.5 297.5,-145.5 238.5,-145.5"/>
<text text-anchor="middle" x="268" y="-152.5" font-family="Helvetica,sans-Serif" font-size="10.00">iostream</text>
</g>
<!-- Node22&#45;&gt;Node24 -->
<g id="edge31" class="edge"><title>Node22&#45;&gt;Node24</title>
<path fill="none" stroke="midnightblue" d="M363.095,-201.444C344.746,-192.675 315.995,-178.935 294.906,-168.858"/>
<polygon fill="midnightblue" stroke="midnightblue" points="296.353,-165.67 285.821,-164.516 293.335,-171.986 296.353,-165.67"/>
</g>
<!-- Node25 -->
<g id="node25" class="node"><title>Node25</title>
<polygon fill="white" stroke="#bfbfbf" points="316,-145.5 316,-164.5 372,-164.5 372,-145.5 316,-145.5"/>
<text text-anchor="middle" x="344" y="-152.5" font-family="Helvetica,sans-Serif" font-size="10.00">sstream</text>
</g>
<!-- Node22&#45;&gt;Node25 -->
<g id="edge32" class="edge"><title>Node22&#45;&gt;Node25</title>
<path fill="none" stroke="midnightblue" d="M374.89,-201.083C369.718,-193.534 362.154,-182.495 355.806,-173.23"/>
<polygon fill="midnightblue" stroke="midnightblue" points="358.536,-171.022 349.996,-164.751 352.761,-174.979 358.536,-171.022"/>
</g>
<!-- Node26 -->
<g id="node26" class="node"><title>Node26</title>
<polygon fill="white" stroke="#bfbfbf" points="390,-145.5 390,-164.5 438,-164.5 438,-145.5 390,-145.5"/>
<text text-anchor="middle" x="414" y="-152.5" font-family="Helvetica,sans-Serif" font-size="10.00">thread</text>
</g>
<!-- Node22&#45;&gt;Node26 -->
<g id="edge33" class="edge"><title>Node22&#45;&gt;Node26</title>
<path fill="none" stroke="midnightblue" d="M386.449,-201.083C391.014,-193.613 397.668,-182.724 403.293,-173.52"/>
<polygon fill="midnightblue" stroke="midnightblue" points="406.424,-175.109 408.652,-164.751 400.451,-171.459 406.424,-175.109"/>
</g>
<!-- Node27 -->
<g id="node27" class="node"><title>Node27</title>
<polygon fill="white" stroke="#bfbfbf" points="456.5,-145.5 456.5,-164.5 581.5,-164.5 581.5,-145.5 456.5,-145.5"/>
<text text-anchor="middle" x="519" y="-152.5" font-family="Helvetica,sans-Serif" font-size="10.00">carl/core/carlLogging.h</text>
</g>
<!-- Node22&#45;&gt;Node27 -->
<g id="edge34" class="edge"><title>Node22&#45;&gt;Node27</title>
<path fill="none" stroke="midnightblue" d="M402.867,-201.444C425.779,-192.478 461.975,-178.314 487.866,-168.183"/>
<polygon fill="midnightblue" stroke="midnightblue" points="489.199,-171.42 497.236,-164.516 486.648,-164.901 489.199,-171.42"/>
</g>
<!-- Node28 -->
<g id="node28" class="node"><title>Node28</title>
<polygon fill="white" stroke="#bfbfbf" points="599.5,-145.5 599.5,-164.5 754.5,-164.5 754.5,-145.5 599.5,-145.5"/>
<text text-anchor="middle" x="677" y="-152.5" font-family="Helvetica,sans-Serif" font-size="10.00">carl/core/carlLoggingHelper.h</text>
</g>
<!-- Node22&#45;&gt;Node28 -->
<g id="edge35" class="edge"><title>Node22&#45;&gt;Node28</title>
<path fill="none" stroke="midnightblue" d="M427.902,-201.444C480.08,-191.925 564.371,-176.547 620.232,-166.356"/>
<polygon fill="midnightblue" stroke="midnightblue" points="621.108,-169.754 630.317,-164.516 619.852,-162.868 621.108,-169.754"/>
</g>
<!-- Node29&#45;&gt;Node4 -->
<g id="edge38" class="edge"><title>Node29&#45;&gt;Node4</title>
<path fill="none" stroke="midnightblue" d="M1162.81,-206.366C1134.47,-204.583 1099.4,-202.501 1068,-201 622.184,-179.691 503.245,-231.827 57.9235,-164.741"/>
<polygon fill="midnightblue" stroke="midnightblue" points="58.4249,-161.278 48.0129,-163.237 57.3743,-168.198 58.4249,-161.278"/>
</g>
<!-- Node29&#45;&gt;Node19 -->
<g id="edge44" class="edge"><title>Node29&#45;&gt;Node19</title>
<path fill="none" stroke="midnightblue" d="M1190.75,-201.444C1159.12,-191.515 1107.19,-175.211 1074.89,-165.069"/>
<polygon fill="midnightblue" stroke="midnightblue" points="1075.73,-161.665 1065.14,-162.008 1073.63,-168.343 1075.73,-161.665"/>
</g>
<!-- Node29&#45;&gt;Node21 -->
<g id="edge45" class="edge"><title>Node29&#45;&gt;Node21</title>
<path fill="none" stroke="midnightblue" d="M1206.27,-201.324C1195.16,-193.107 1178.26,-180.602 1165.02,-170.807"/>
<polygon fill="midnightblue" stroke="midnightblue" points="1167.06,-167.967 1156.94,-164.834 1162.9,-173.595 1167.06,-167.967"/>
</g>
<!-- Node30 -->
<g id="node30" class="node"><title>Node30</title>
<polygon fill="white" stroke="#bfbfbf" points="1187,-145.5 1187,-164.5 1249,-164.5 1249,-145.5 1187,-145.5"/>
<text text-anchor="middle" x="1218" y="-152.5" font-family="Helvetica,sans-Serif" font-size="10.00">algorithm</text>
</g>
<!-- Node29&#45;&gt;Node30 -->
<g id="edge39" class="edge"><title>Node29&#45;&gt;Node30</title>
<path fill="none" stroke="midnightblue" d="M1218,-201.083C1218,-194.006 1218,-183.861 1218,-174.986"/>
<polygon fill="midnightblue" stroke="midnightblue" points="1221.5,-174.751 1218,-164.751 1214.5,-174.751 1221.5,-174.751"/>
</g>
<!-- Node31 -->
<g id="node31" class="node"><title>Node31</title>
<polygon fill="white" stroke="#bfbfbf" points="1267,-145.5 1267,-164.5 1375,-164.5 1375,-145.5 1267,-145.5"/>
<text text-anchor="middle" x="1321" y="-152.5" font-family="Helvetica,sans-Serif" font-size="10.00">carl/core/Variable.h</text>
</g>
<!-- Node29&#45;&gt;Node31 -->
<g id="edge40" class="edge"><title>Node29&#45;&gt;Node31</title>
<path fill="none" stroke="midnightblue" d="M1234.55,-201.324C1250.99,-192.703 1276.43,-179.364 1295.47,-169.386"/>
<polygon fill="midnightblue" stroke="midnightblue" points="1297.26,-172.398 1304.49,-164.655 1294.01,-166.198 1297.26,-172.398"/>
</g>
<!-- Node32 -->
<g id="node32" class="node"><title>Node32</title>
<polygon fill="white" stroke="#bfbfbf" points="1393,-145.5 1393,-164.5 1521,-164.5 1521,-145.5 1393,-145.5"/>
<text text-anchor="middle" x="1457" y="-152.5" font-family="Helvetica,sans-Serif" font-size="10.00">carl/core/VariablePool.h</text>
</g>
<!-- Node29&#45;&gt;Node32 -->
<g id="edge41" class="edge"><title>Node29&#45;&gt;Node32</title>
<path fill="none" stroke="midnightblue" d="M1255.87,-201.444C1297.48,-192.043 1364.37,-176.929 1409.47,-166.739"/>
<polygon fill="midnightblue" stroke="midnightblue" points="1410.32,-170.134 1419.31,-164.516 1408.78,-163.306 1410.32,-170.134"/>
</g>
<!-- Node33 -->
<g id="node33" class="node"><title>Node33</title>
<polygon fill="white" stroke="#bfbfbf" points="1539,-145.5 1539,-164.5 1647,-164.5 1647,-145.5 1539,-145.5"/>
<text text-anchor="middle" x="1593" y="-152.5" font-family="Helvetica,sans-Serif" font-size="10.00">carl/util/Singleton.h</text>
</g>
<!-- Node29&#45;&gt;Node33 -->
<g id="edge42" class="edge"><title>Node29&#45;&gt;Node33</title>
<path fill="none" stroke="midnightblue" d="M1273.33,-202.032C1341.39,-192.231 1456.73,-175.623 1528.67,-165.263"/>
<polygon fill="midnightblue" stroke="midnightblue" points="1529.56,-168.671 1538.96,-163.781 1528.57,-161.742 1529.56,-168.671"/>
</g>
<!-- Node34 -->
<g id="node34" class="node"><title>Node34</title>
<polygon fill="white" stroke="#bfbfbf" points="1665,-145.5 1665,-164.5 1717,-164.5 1717,-145.5 1665,-145.5"/>
<text text-anchor="middle" x="1691" y="-152.5" font-family="Helvetica,sans-Serif" font-size="10.00">cassert</text>
</g>
<!-- Node29&#45;&gt;Node34 -->
<g id="edge43" class="edge"><title>Node29&#45;&gt;Node34</title>
<path fill="none" stroke="midnightblue" d="M1273.34,-206.972C1354.84,-201.928 1512.03,-189.978 1654.49,-165.026"/>
<polygon fill="midnightblue" stroke="midnightblue" points="1655.49,-168.403 1664.72,-163.207 1654.26,-161.511 1655.49,-168.403"/>
</g>
<!-- Node37&#45;&gt;Node6 -->
<g id="edge52" class="edge"><title>Node37&#45;&gt;Node6</title>
<path fill="none" stroke="midnightblue" d="M956.262,-257.324C938.694,-248.221 916.533,-235.424 899,-221 881.695,-206.764 865.188,-187.025 854.434,-173.044"/>
<polygon fill="midnightblue" stroke="midnightblue" points="857.05,-170.699 848.247,-164.803 851.452,-174.902 857.05,-170.699"/>
</g>
</g>
</svg>
        <g id="navigator" transform="translate(0 0)" fill="#404254">
                <rect fill="#f2f5e9" fill-opacity="0.5" stroke="#606060" stroke-width=".5" x="0" y="0" width="60" height="60"/>
                <use id="zoomplus" xlink:href="#zoomPlus" x="17" y="9" onmousedown="handleZoom(evt,'in')"/>
                <use id="zoomminus" xlink:href="#zoomMin" x="42" y="9" onmousedown="handleZoom(evt,'out')"/>
                <use id="reset" xlink:href="#resetDef" x="30" y="36" onmousedown="handleReset()"/>
                <g id="arrowUp" xlink:href="#dirArrow" transform="translate(30 24)" onmousedown="handlePan(0,-1)">
                  <use xlink:href="#rim" fill="#404040">
                        <set attributeName="fill" to="#808080" begin="arrowUp.mouseover" end="arrowUp.mouseout"/>
                  </use>
                  <path fill="none" stroke="white" stroke-width="1.5" d="M0,-3.0v7 M-2.5,-0.5L0,-3.0L2.5,-0.5"/>
                </g>
                <g id="arrowRight" xlink:href="#dirArrow" transform="rotate(90) translate(36 -43)" onmousedown="handlePan(1,0)">
                  <use xlink:href="#rim" fill="#404040">
                        <set attributeName="fill" to="#808080" begin="arrowRight.mouseover" end="arrowRight.mouseout"/>
                  </use>
                  <path fill="none" stroke="white" stroke-width="1.5" d="M0,-3.0v7 M-2.5,-0.5L0,-3.0L2.5,-0.5"/>
                </g>
                <g id="arrowDown" xlink:href="#dirArrow" transform="rotate(180) translate(-30 -48)" onmousedown="handlePan(0,1)">
                  <use xlink:href="#rim" fill="#404040">
                        <set attributeName="fill" to="#808080" begin="arrowDown.mouseover" end="arrowDown.mouseout"/>
                  </use>
                  <path fill="none" stroke="white" stroke-width="1.5" d="M0,-3.0v7 M-2.5,-0.5L0,-3.0L2.5,-0.5"/>
                </g>
                <g id="arrowLeft" xlink:href="#dirArrow" transform="rotate(270) translate(-36 17)" onmousedown="handlePan(-1,0)">
                  <use xlink:href="#rim" fill="#404040">
                        <set attributeName="fill" to="#808080" begin="arrowLeft.mouseover" end="arrowLeft.mouseout"/>
                  </use>
                  <path fill="none" stroke="white" stroke-width="1.5" d="M0,-3.0v7 M-2.5,-0.5L0,-3.0L2.5,-0.5"/>
                </g>
        </g>
        <svg viewBox="0 0 15 15" width="100%" height="30px" preserveAspectRatio="xMaxYMin meet">
         <g id="arrow_out" transform="scale(0.3 0.3)">
          <a xlink:href="z3Convenience_8h__incl_org.svg" target="_base">
           <rect id="button" ry="5" rx="5" y="6" x="6" height="38" width="38"
                fill="#f2f5e9" fill-opacity="0.5" stroke="#606060" stroke-width="1.0"/>
           <path id="arrow"
             d="M 11.500037,31.436501 C 11.940474,20.09759 22.043105,11.32322 32.158766,21.979434 L 37.068811,17.246167 C 37.068811,17.246167 37.088388,32 37.088388,32 L 22.160133,31.978069 C 22.160133,31.978069 26.997745,27.140456 26.997745,27.140456 C 18.528582,18.264221 13.291696,25.230495 11.500037,31.436501 z"
             style="fill:#404040;"/>
          </a>
         </g>
        </svg>
</svg>
