<?xml version="1.0" encoding="UTF-8" standalone="no"?>
<!DOCTYPE svg PUBLIC "-//W3C//DTD SVG 1.1//EN"
 "http://www.w3.org/Graphics/SVG/1.1/DTD/svg11.dtd">
<!-- Generated by graphviz version 2.38.0 (20140413.2041)
 -->
<!-- Title: /home/travis/build/hypro/hypro/src/hypro/representations/Zonotope/Zonotope.h Pages: 1 -->
<!--zoomable 497 -->
<svg id="main" version="1.1" xmlns="http://www.w3.org/2000/svg" xmlns:xlink="http://www.w3.org/1999/xlink" xml:space="preserve" onload="init(evt)">
<style type="text/css"><![CDATA[
.edge:hover path { stroke: red; }
.edge:hover polygon { stroke: red; fill: red; }
]]></style>
<script type="text/javascript"><![CDATA[
var edges = document.getElementsByTagName('g');
if (edges && edges.length) {
  for (var i=0;i<edges.length;i++) {
    if (edges[i].id.substr(0,4)=='edge') {
      edges[i].setAttribute('class','edge');
    }
  }
}
]]></script>
        <defs>
                <circle id="rim" cx="0" cy="0" r="7"/>
                <circle id="rim2" cx="0" cy="0" r="3.5"/>
                <g id="zoomPlus">
                        <use xlink:href="#rim" fill="#404040">
                                <set attributeName="fill" to="#808080" begin="zoomplus.mouseover" end="zoomplus.mouseout"/>
                        </use>
                        <path d="M-4,0h8M0,-4v8" fill="none" stroke="white" stroke-width="1.5" pointer-events="none"/>
                </g>
                <g id="zoomMin">
                        <use xlink:href="#rim" fill="#404040">
                                <set attributeName="fill" to="#808080" begin="zoomminus.mouseover" end="zoomminus.mouseout"/>
                        </use>
                        <path d="M-4,0h8" fill="none" stroke="white" stroke-width="1.5" pointer-events="none"/>
                </g>
                <g id="dirArrow">
                        <path fill="none" stroke="white" stroke-width="1.5" d="M0,-3.0v7 M-2.5,-0.5L0,-3.0L2.5,-0.5"/>
                </g>
               <g id="resetDef">
                       <use xlink:href="#rim2" fill="#404040">
                               <set attributeName="fill" to="#808080" begin="reset.mouseover" end="reset.mouseout"/>
                       </use>
               </g>
        </defs>

<script type="text/javascript">
var viewWidth = 1929;
var viewHeight = 497;
var sectionId = 'dynsection-0';
</script>
<script xlink:href="svgpan.js"/>
<svg id="graph" class="graph">
<g id="viewport">
<title>/home/travis/build/hypro/hypro/src/hypro/representations/Zonotope/Zonotope.h</title>
<polygon fill="white" stroke="none" points="-4,4 -4,-493 1924.5,-493 1924.5,4 -4,4"/>
<!-- Node1 -->
<g id="node1" class="node"><title>Node1</title>
<polygon fill="#bfbfbf" stroke="black" points="1188,-436.5 1188,-488.5 1334,-488.5 1334,-436.5 1188,-436.5"/>
<text text-anchor="start" x="1196" y="-476.5" font-family="Helvetica,sans-Serif" font-size="10.00">/home/travis/build</text>
<text text-anchor="start" x="1196" y="-465.5" font-family="Helvetica,sans-Serif" font-size="10.00">/hypro/hypro/src/hypro</text>
<text text-anchor="start" x="1196" y="-454.5" font-family="Helvetica,sans-Serif" font-size="10.00">/representations/Zonotope</text>
<text text-anchor="middle" x="1261" y="-443.5" font-family="Helvetica,sans-Serif" font-size="10.00">/Zonotope.h</text>
</g>
<!-- Node2 -->
<g id="node2" class="node"><title>Node2</title>
<g id="a_node2"><a xlink:href="Halfspace_8h.html" target="_top" xlink:title="../../datastructures\l/Halfspace.h">
<polygon fill="white" stroke="black" points="551.5,-313.5 551.5,-343.5 656.5,-343.5 656.5,-313.5 551.5,-313.5"/>
<text text-anchor="start" x="559.5" y="-331.5" font-family="Helvetica,sans-Serif" font-size="10.00">../../datastructures</text>
<text text-anchor="middle" x="604" y="-320.5" font-family="Helvetica,sans-Serif" font-size="10.00">/Halfspace.h</text>
</a>
</g>
</g>
<!-- Node1&#45;&gt;Node2 -->
<g id="edge1" class="edge"><title>Node1&#45;&gt;Node2</title>
<path fill="none" stroke="midnightblue" d="M1187.66,-450.687C1113.76,-439.429 996.572,-420.587 896,-400 816.309,-383.687 725.329,-361.081 666.399,-345.906"/>
<polygon fill="midnightblue" stroke="midnightblue" points="667.06,-342.462 656.502,-343.35 665.309,-349.24 667.06,-342.462"/>
</g>
<!-- Node6 -->
<g id="node6" class="node"><title>Node6</title>
<polygon fill="white" stroke="#bfbfbf" points="648,-112.5 648,-131.5 710,-131.5 710,-112.5 648,-112.5"/>
<text text-anchor="middle" x="679" y="-119.5" font-family="Helvetica,sans-Serif" font-size="10.00">algorithm</text>
</g>
<!-- Node1&#45;&gt;Node6 -->
<g id="edge68" class="edge"><title>Node1&#45;&gt;Node6</title>
<path fill="none" stroke="midnightblue" d="M1217.73,-436.334C1102.59,-369.366 791.439,-188.396 702.837,-136.864"/>
<polygon fill="midnightblue" stroke="midnightblue" points="704.463,-133.761 694.059,-131.758 700.943,-139.811 704.463,-133.761"/>
</g>
<!-- Node12 -->
<g id="node12" class="node"><title>Node12</title>
<polygon fill="white" stroke="#bfbfbf" points="78.5,-56.5 78.5,-75.5 125.5,-75.5 125.5,-56.5 78.5,-56.5"/>
<text text-anchor="middle" x="102" y="-63.5" font-family="Helvetica,sans-Serif" font-size="10.00">vector</text>
</g>
<!-- Node1&#45;&gt;Node12 -->
<g id="edge72" class="edge"><title>Node1&#45;&gt;Node12</title>
<path fill="none" stroke="midnightblue" d="M1187.75,-461.573C918.625,-460.887 0,-449.74 0,-329.5 0,-329.5 0,-329.5 0,-188 0,-139.944 47.6136,-101.072 77.7789,-81.2665"/>
<polygon fill="midnightblue" stroke="midnightblue" points="79.9293,-84.0477 86.5084,-75.743 76.1865,-78.1323 79.9293,-84.0477"/>
</g>
<!-- Node13 -->
<g id="node13" class="node"><title>Node13</title>
<g id="a_node13"><a xlink:href="adaptions__eigen_8h.html" target="_top" xlink:title="../util/adaptions_eigen\l/adaptions_eigen.h">
<polygon fill="white" stroke="black" points="1283,-246.5 1283,-276.5 1405,-276.5 1405,-246.5 1283,-246.5"/>
<text text-anchor="start" x="1291" y="-264.5" font-family="Helvetica,sans-Serif" font-size="10.00">../util/adaptions_eigen</text>
<text text-anchor="middle" x="1344" y="-253.5" font-family="Helvetica,sans-Serif" font-size="10.00">/adaptions_eigen.h</text>
</a>
</g>
</g>
<!-- Node1&#45;&gt;Node13 -->
<g id="edge58" class="edge"><title>Node1&#45;&gt;Node13</title>
<path fill="none" stroke="midnightblue" d="M1278.5,-436.226C1285.49,-425.398 1293.24,-412.407 1299,-400 1316.83,-361.622 1330.68,-314.205 1338.07,-286.269"/>
<polygon fill="midnightblue" stroke="midnightblue" points="1341.46,-287.133 1340.58,-276.575 1334.68,-285.378 1341.46,-287.133"/>
</g>
<!-- Node20 -->
<g id="node20" class="node"><title>Node20</title>
<polygon fill="white" stroke="#bfbfbf" points="1741,-0.5 1741,-19.5 1853,-19.5 1853,-0.5 1741,-0.5"/>
<text text-anchor="middle" x="1797" y="-7.5" font-family="Helvetica,sans-Serif" font-size="10.00">eigen3/Eigen/Dense</text>
</g>
<!-- Node1&#45;&gt;Node20 -->
<g id="edge70" class="edge"><title>Node1&#45;&gt;Node20</title>
<path fill="none" stroke="midnightblue" d="M1334.15,-446.131C1462.74,-418.823 1719.32,-362.938 1757,-344 1807.31,-318.715 1854,-318.808 1854,-262.5 1854,-262.5 1854,-262.5 1854,-121 1854,-84.3005 1828.68,-47.6567 1811.79,-27.2973"/>
<polygon fill="midnightblue" stroke="midnightblue" points="1814.35,-24.9037 1805.17,-19.6161 1809.05,-29.475 1814.35,-24.9037"/>
</g>
<!-- Node41 -->
<g id="node41" class="node"><title>Node41</title>
<g id="a_node41"><a xlink:href="pca_8h.html" target="_top" xlink:title="../../util/pca.h">
<polygon fill="white" stroke="black" points="525,-380.5 525,-399.5 603,-399.5 603,-380.5 525,-380.5"/>
<text text-anchor="middle" x="564" y="-387.5" font-family="Helvetica,sans-Serif" font-size="10.00">../../util/pca.h</text>
</a>
</g>
</g>
<!-- Node1&#45;&gt;Node41 -->
<g id="edge59" class="edge"><title>Node1&#45;&gt;Node41</title>
<path fill="none" stroke="midnightblue" d="M1187.73,-454.089C1045.26,-439.678 734.302,-408.226 613.436,-396"/>
<polygon fill="midnightblue" stroke="midnightblue" points="613.663,-392.506 603.361,-394.981 612.958,-399.47 613.663,-392.506"/>
</g>
<!-- Node43 -->
<g id="node43" class="node"><title>Node43</title>
<g id="a_node43"><a xlink:href="ZUtility_8h.html" target="_top" xlink:title="ZUtility.h">
<polygon fill="white" stroke="black" points="1231.5,-380.5 1231.5,-399.5 1290.5,-399.5 1290.5,-380.5 1231.5,-380.5"/>
<text text-anchor="middle" x="1261" y="-387.5" font-family="Helvetica,sans-Serif" font-size="10.00">ZUtility.h</text>
</a>
</g>
</g>
<!-- Node1&#45;&gt;Node43 -->
<g id="edge63" class="edge"><title>Node1&#45;&gt;Node43</title>
<path fill="none" stroke="midnightblue" d="M1261,-436.446C1261,-427.73 1261,-418.104 1261,-409.964"/>
<polygon fill="midnightblue" stroke="midnightblue" points="1264.5,-409.695 1261,-399.695 1257.5,-409.696 1264.5,-409.695"/>
</g>
<!-- Node44 -->
<g id="node44" class="node"><title>Node44</title>
<polygon fill="white" stroke="#bfbfbf" points="1179.5,-319 1179.5,-338 1226.5,-338 1226.5,-319 1179.5,-319"/>
<text text-anchor="middle" x="1203" y="-326" font-family="Helvetica,sans-Serif" font-size="10.00">cmath</text>
</g>
<!-- Node1&#45;&gt;Node44 -->
<g id="edge69" class="edge"><title>Node1&#45;&gt;Node44</title>
<path fill="none" stroke="midnightblue" d="M1242.68,-436.433C1235.44,-425.637 1227.55,-412.615 1222,-400 1214.59,-383.152 1209.48,-362.738 1206.43,-348.222"/>
<polygon fill="midnightblue" stroke="midnightblue" points="1209.79,-347.166 1204.44,-338.026 1202.92,-348.513 1209.79,-347.166"/>
</g>
<!-- Node45 -->
<g id="node45" class="node"><title>Node45</title>
<g id="a_node45"><a xlink:href="ZonotopeSetting_8h.html" target="_top" xlink:title="ZonotopeSetting.h">
<polygon fill="white" stroke="black" points="1639.5,-380.5 1639.5,-399.5 1746.5,-399.5 1746.5,-380.5 1639.5,-380.5"/>
<text text-anchor="middle" x="1693" y="-387.5" font-family="Helvetica,sans-Serif" font-size="10.00">ZonotopeSetting.h</text>
</a>
</g>
</g>
<!-- Node1&#45;&gt;Node45 -->
<g id="edge67" class="edge"><title>Node1&#45;&gt;Node45</title>
<path fill="none" stroke="midnightblue" d="M1334.28,-449.541C1417.57,-435.949 1552.09,-413.997 1630.57,-401.188"/>
<polygon fill="midnightblue" stroke="midnightblue" points="1631.49,-404.585 1640.79,-399.52 1630.36,-397.676 1631.49,-404.585"/>
</g>
<!-- Node46 -->
<g id="node46" class="node"><title>Node46</title>
<polygon fill="white" stroke="#bfbfbf" points="1764.5,-380.5 1764.5,-399.5 1819.5,-399.5 1819.5,-380.5 1764.5,-380.5"/>
<text text-anchor="middle" x="1792" y="-387.5" font-family="Helvetica,sans-Serif" font-size="10.00">valarray</text>
</g>
<!-- Node1&#45;&gt;Node46 -->
<g id="edge71" class="edge"><title>Node1&#45;&gt;Node46</title>
<path fill="none" stroke="midnightblue" d="M1334.4,-455.189C1429.33,-446.4 1599.92,-428.483 1754.04,-400.192"/>
<polygon fill="midnightblue" stroke="midnightblue" points="1754.97,-403.579 1764.17,-398.313 1753.69,-396.696 1754.97,-403.579"/>
</g>
<!-- Node47 -->
<g id="node47" class="node"><title>Node47</title>
<polygon fill="white" stroke="#bfbfbf" points="1837.5,-380.5 1837.5,-399.5 1920.5,-399.5 1920.5,-380.5 1837.5,-380.5"/>
<text text-anchor="middle" x="1879" y="-387.5" font-family="Helvetica,sans-Serif" font-size="10.00">Zonotope.tpp</text>
</g>
<!-- Node1&#45;&gt;Node47 -->
<g id="edge73" class="edge"><title>Node1&#45;&gt;Node47</title>
<path fill="none" stroke="midnightblue" d="M1334.28,-455.224C1440.73,-445.739 1644.51,-426.197 1827.23,-400.176"/>
<polygon fill="midnightblue" stroke="midnightblue" points="1827.89,-403.617 1837.29,-398.733 1826.9,-396.688 1827.89,-403.617"/>
</g>
<!-- Node3 -->
<g id="node3" class="node"><title>Node3</title>
<g id="a_node3"><a xlink:href="representations_2types_8h.html" target="_top" xlink:title="../representations\l/types.h">
<polygon fill="white" stroke="black" points="780.5,-246.5 780.5,-276.5 881.5,-276.5 881.5,-246.5 780.5,-246.5"/>
<text text-anchor="start" x="788.5" y="-264.5" font-family="Helvetica,sans-Serif" font-size="10.00">../representations</text>
<text text-anchor="middle" x="831" y="-253.5" font-family="Helvetica,sans-Serif" font-size="10.00">/types.h</text>
</a>
</g>
</g>
<!-- Node2&#45;&gt;Node3 -->
<g id="edge2" class="edge"><title>Node2&#45;&gt;Node3</title>
<path fill="none" stroke="midnightblue" d="M652.976,-313.476C687.912,-303.472 735.061,-289.971 772.061,-279.377"/>
<polygon fill="midnightblue" stroke="midnightblue" points="773.07,-282.729 781.72,-276.611 771.143,-275.999 773.07,-282.729"/>
</g>
<!-- Node4 -->
<g id="node4" class="node"><title>Node4</title>
<g id="a_node4"><a xlink:href="VariablePool_8h.html" target="_top" xlink:title="../util/VariablePool.h">
<polygon fill="white" stroke="black" points="330,-179.5 330,-198.5 440,-198.5 440,-179.5 330,-179.5"/>
<text text-anchor="middle" x="385" y="-186.5" font-family="Helvetica,sans-Serif" font-size="10.00">../util/VariablePool.h</text>
</a>
</g>
</g>
<!-- Node2&#45;&gt;Node4 -->
<g id="edge3" class="edge"><title>Node2&#45;&gt;Node4</title>
<path fill="none" stroke="midnightblue" d="M551.374,-315.575C500.6,-303.669 429.983,-285.9 420,-277 399.996,-259.167 391.246,-228.296 387.549,-208.528"/>
<polygon fill="midnightblue" stroke="midnightblue" points="390.994,-207.91 385.941,-198.598 384.084,-209.028 390.994,-207.91"/>
</g>
<!-- Node10 -->
<g id="node10" class="node"><title>Node10</title>
<polygon fill="white" stroke="#bfbfbf" points="578,-112.5 578,-131.5 630,-131.5 630,-112.5 578,-112.5"/>
<text text-anchor="middle" x="604" y="-119.5" font-family="Helvetica,sans-Serif" font-size="10.00">cassert</text>
</g>
<!-- Node2&#45;&gt;Node10 -->
<g id="edge55" class="edge"><title>Node2&#45;&gt;Node10</title>
<path fill="none" stroke="midnightblue" d="M604,-313.444C604,-277.558 604,-182.525 604,-141.876"/>
<polygon fill="midnightblue" stroke="midnightblue" points="607.5,-141.742 604,-131.742 600.5,-141.742 607.5,-141.742"/>
</g>
<!-- Node2&#45;&gt;Node13 -->
<g id="edge12" class="edge"><title>Node2&#45;&gt;Node13</title>
<path fill="none" stroke="midnightblue" d="M656.626,-322.877C786.898,-311.435 1124.55,-281.776 1272.63,-268.769"/>
<polygon fill="midnightblue" stroke="midnightblue" points="1273.3,-272.224 1282.96,-267.862 1272.69,-265.25 1273.3,-272.224"/>
</g>
<!-- Node36 -->
<g id="node36" class="node"><title>Node36</title>
<g id="a_node36"><a xlink:href="EvaluationResult_8h.html" target="_top" xlink:title="../util/linearOptimization\l/EvaluationResult.h">
<polygon fill="white" stroke="black" points="632,-246.5 632,-276.5 762,-276.5 762,-246.5 632,-246.5"/>
<text text-anchor="start" x="640" y="-264.5" font-family="Helvetica,sans-Serif" font-size="10.00">../util/linearOptimization</text>
<text text-anchor="middle" x="697" y="-253.5" font-family="Helvetica,sans-Serif" font-size="10.00">/EvaluationResult.h</text>
</a>
</g>
</g>
<!-- Node2&#45;&gt;Node36 -->
<g id="edge46" class="edge"><title>Node2&#45;&gt;Node36</title>
<path fill="none" stroke="midnightblue" d="M624.18,-313.396C637.098,-304.367 654.057,-292.514 668.358,-282.518"/>
<polygon fill="midnightblue" stroke="midnightblue" points="670.668,-285.174 676.86,-276.577 666.658,-279.436 670.668,-285.174"/>
</g>
<!-- Node37 -->
<g id="node37" class="node"><title>Node37</title>
<g id="a_node37"><a xlink:href="Point_8h.html" target="_top" xlink:title="Point.h">
<polygon fill="white" stroke="black" points="323,-252 323,-271 373,-271 373,-252 323,-252"/>
<text text-anchor="middle" x="348" y="-259" font-family="Helvetica,sans-Serif" font-size="10.00">Point.h</text>
</a>
</g>
</g>
<!-- Node2&#45;&gt;Node37 -->
<g id="edge48" class="edge"><title>Node2&#45;&gt;Node37</title>
<path fill="none" stroke="midnightblue" d="M551.34,-316.054C497.397,-304.184 417.28,-286.112 387,-277 384.43,-276.227 381.784,-275.372 379.139,-274.477"/>
<polygon fill="midnightblue" stroke="midnightblue" points="380.293,-271.172 369.698,-271.124 377.95,-277.769 380.293,-271.172"/>
</g>
<!-- Node39 -->
<g id="node39" class="node"><title>Node39</title>
<polygon fill="white" stroke="#bfbfbf" points="429.5,-252 429.5,-271 474.5,-271 474.5,-252 429.5,-252"/>
<text text-anchor="middle" x="452" y="-259" font-family="Helvetica,sans-Serif" font-size="10.00">glpk.h</text>
</g>
<!-- Node2&#45;&gt;Node39 -->
<g id="edge56" class="edge"><title>Node2&#45;&gt;Node39</title>
<path fill="none" stroke="midnightblue" d="M569.15,-313.41C544.884,-303.488 511.832,-289.753 483,-277 481.808,-276.473 480.593,-275.929 479.367,-275.377"/>
<polygon fill="midnightblue" stroke="midnightblue" points="480.521,-272.055 469.973,-271.063 477.6,-278.417 480.521,-272.055"/>
</g>
<!-- Node40 -->
<g id="node40" class="node"><title>Node40</title>
<polygon fill="white" stroke="#bfbfbf" points="492.5,-252 492.5,-271 575.5,-271 575.5,-252 492.5,-252"/>
<text text-anchor="middle" x="534" y="-259" font-family="Helvetica,sans-Serif" font-size="10.00">Halfspace.tpp</text>
</g>
<!-- Node2&#45;&gt;Node40 -->
<g id="edge57" class="edge"><title>Node2&#45;&gt;Node40</title>
<path fill="none" stroke="midnightblue" d="M588.811,-313.396C577.68,-303.06 562.564,-289.024 551.025,-278.309"/>
<polygon fill="midnightblue" stroke="midnightblue" points="553.073,-275.434 543.363,-271.195 548.31,-280.564 553.073,-275.434"/>
</g>
<!-- Node5 -->
<g id="node5" class="node"><title>Node5</title>
<g id="a_node5"><a xlink:href="flags_8h.html" target="_top" xlink:title="../flags.h">
<polygon fill="white" stroke="black" points="910.5,-56.5 910.5,-75.5 967.5,-75.5 967.5,-56.5 910.5,-56.5"/>
<text text-anchor="middle" x="939" y="-63.5" font-family="Helvetica,sans-Serif" font-size="10.00">../flags.h</text>
</a>
</g>
</g>
<!-- Node4&#45;&gt;Node5 -->
<g id="edge4" class="edge"><title>Node4&#45;&gt;Node5</title>
<path fill="none" stroke="midnightblue" d="M440.353,-187.168C554.63,-184.6 812.294,-174.167 888,-132 907.325,-121.236 921.875,-99.852 930.39,-84.5496"/>
<polygon fill="midnightblue" stroke="midnightblue" points="933.567,-86.0275 935.103,-75.5447 927.365,-82.7813 933.567,-86.0275"/>
</g>
<!-- Node4&#45;&gt;Node6 -->
<g id="edge5" class="edge"><title>Node4&#45;&gt;Node6</title>
<path fill="none" stroke="midnightblue" d="M424.173,-179.418C472.125,-168.901 556.083,-150.448 638.015,-132.212"/>
<polygon fill="midnightblue" stroke="midnightblue" points="638.994,-135.58 647.994,-129.99 637.472,-128.748 638.994,-135.58"/>
</g>
<!-- Node7 -->
<g id="node7" class="node"><title>Node7</title>
<polygon fill="white" stroke="#bfbfbf" points="180,-112.5 180,-131.5 288,-131.5 288,-112.5 180,-112.5"/>
<text text-anchor="middle" x="234" y="-119.5" font-family="Helvetica,sans-Serif" font-size="10.00">carl/core/Variable.h</text>
</g>
<!-- Node4&#45;&gt;Node7 -->
<g id="edge6" class="edge"><title>Node4&#45;&gt;Node7</title>
<path fill="none" stroke="midnightblue" d="M364.948,-179.369C339.001,-168.199 293.579,-148.647 263.643,-135.76"/>
<polygon fill="midnightblue" stroke="midnightblue" points="264.704,-132.406 254.135,-131.667 261.936,-138.836 264.704,-132.406"/>
</g>
<!-- Node8 -->
<g id="node8" class="node"><title>Node8</title>
<polygon fill="white" stroke="#bfbfbf" points="306,-112.5 306,-131.5 434,-131.5 434,-112.5 306,-112.5"/>
<text text-anchor="middle" x="370" y="-119.5" font-family="Helvetica,sans-Serif" font-size="10.00">carl/core/VariablePool.h</text>
</g>
<!-- Node4&#45;&gt;Node8 -->
<g id="edge7" class="edge"><title>Node4&#45;&gt;Node8</title>
<path fill="none" stroke="midnightblue" d="M382.977,-179.234C380.75,-169.585 377.108,-153.8 374.248,-141.406"/>
<polygon fill="midnightblue" stroke="midnightblue" points="377.65,-140.584 371.991,-131.627 370.829,-142.158 377.65,-140.584"/>
</g>
<!-- Node9 -->
<g id="node9" class="node"><title>Node9</title>
<polygon fill="white" stroke="#bfbfbf" points="452,-112.5 452,-131.5 560,-131.5 560,-112.5 452,-112.5"/>
<text text-anchor="middle" x="506" y="-119.5" font-family="Helvetica,sans-Serif" font-size="10.00">carl/util/Singleton.h</text>
</g>
<!-- Node4&#45;&gt;Node9 -->
<g id="edge8" class="edge"><title>Node4&#45;&gt;Node9</title>
<path fill="none" stroke="midnightblue" d="M401.319,-179.234C421.82,-168.221 457.204,-149.213 481.095,-136.379"/>
<polygon fill="midnightblue" stroke="midnightblue" points="482.787,-139.443 489.94,-131.627 479.474,-133.276 482.787,-139.443"/>
</g>
<!-- Node4&#45;&gt;Node10 -->
<g id="edge9" class="edge"><title>Node4&#45;&gt;Node10</title>
<path fill="none" stroke="midnightblue" d="M414.082,-179.369C453.829,-167.571 525.083,-146.423 568.106,-133.653"/>
<polygon fill="midnightblue" stroke="midnightblue" points="569.287,-136.954 577.878,-130.753 567.296,-130.243 569.287,-136.954"/>
</g>
<!-- Node11 -->
<g id="node11" class="node"><title>Node11</title>
<polygon fill="white" stroke="#bfbfbf" points="396,-56.5 396,-75.5 434,-75.5 434,-56.5 396,-56.5"/>
<text text-anchor="middle" x="415" y="-63.5" font-family="Helvetica,sans-Serif" font-size="10.00">map</text>
</g>
<!-- Node4&#45;&gt;Node11 -->
<g id="edge10" class="edge"><title>Node4&#45;&gt;Node11</title>
<path fill="none" stroke="midnightblue" d="M329.866,-186.427C252.272,-182.254 125.155,-167.073 171,-112 198.047,-79.5092 327.06,-70.3873 385.778,-67.8996"/>
<polygon fill="midnightblue" stroke="midnightblue" points="386.027,-71.3927 395.884,-67.5082 385.756,-64.398 386.027,-71.3927"/>
</g>
<!-- Node4&#45;&gt;Node12 -->
<g id="edge11" class="edge"><title>Node4&#45;&gt;Node12</title>
<path fill="none" stroke="midnightblue" d="M329.555,-183.826C281.206,-178.067 210.748,-164.395 158,-132 138.634,-120.106 122.46,-99.3005 112.552,-84.4308"/>
<polygon fill="midnightblue" stroke="midnightblue" points="115.298,-82.2266 106.976,-75.6698 109.393,-85.9853 115.298,-82.2266"/>
</g>
<!-- Node14 -->
<g id="node14" class="node"><title>Node14</title>
<g id="a_node14"><a xlink:href="config_8h.html" target="_top" xlink:title="../../config.h">
<polygon fill="white" stroke="black" points="974,-179.5 974,-198.5 1046,-198.5 1046,-179.5 974,-179.5"/>
<text text-anchor="middle" x="1010" y="-186.5" font-family="Helvetica,sans-Serif" font-size="10.00">../../config.h</text>
</a>
</g>
</g>
<!-- Node13&#45;&gt;Node14 -->
<g id="edge13" class="edge"><title>Node13&#45;&gt;Node14</title>
<path fill="none" stroke="midnightblue" d="M1282.63,-248.509C1278.02,-247.647 1273.44,-246.802 1269,-246 1174.09,-228.845 1147.35,-237.805 1055,-210 1048.66,-208.091 1042.04,-205.507 1035.89,-202.831"/>
<polygon fill="midnightblue" stroke="midnightblue" points="1037.26,-199.611 1026.71,-198.634 1034.35,-205.977 1037.26,-199.611"/>
</g>
<!-- Node16 -->
<g id="node16" class="node"><title>Node16</title>
<g id="a_node16"><a xlink:href="types_8h.html" target="_top" xlink:title="../types.h">
<polygon fill="white" stroke="black" points="831.5,-56.5 831.5,-75.5 892.5,-75.5 892.5,-56.5 831.5,-56.5"/>
<text text-anchor="middle" x="862" y="-63.5" font-family="Helvetica,sans-Serif" font-size="10.00">../types.h</text>
</a>
</g>
</g>
<!-- Node13&#45;&gt;Node16 -->
<g id="edge37" class="edge"><title>Node13&#45;&gt;Node16</title>
<path fill="none" stroke="midnightblue" d="M1331.37,-246.493C1317.47,-225.98 1294.68,-188.037 1264,-168 1256.2,-162.908 1002.87,-102.508 902.357,-77.618"/>
<polygon fill="midnightblue" stroke="midnightblue" points="903.107,-74.198 892.558,-75.1829 901.419,-80.9914 903.107,-74.198"/>
</g>
<!-- Node17 -->
<g id="node17" class="node"><title>Node17</title>
<polygon fill="white" stroke="#bfbfbf" points="1317,-0.5 1317,-19.5 1451,-19.5 1451,-0.5 1317,-0.5"/>
<text text-anchor="middle" x="1384" y="-7.5" font-family="Helvetica,sans-Serif" font-size="10.00">carl/numbers/numbers.h</text>
</g>
<!-- Node13&#45;&gt;Node17 -->
<g id="edge39" class="edge"><title>Node13&#45;&gt;Node17</title>
<path fill="none" stroke="midnightblue" d="M1405.2,-261.48C1500.21,-261.542 1676.39,-255.345 1716,-210 1761.02,-158.45 1761.03,-107.545 1716,-56 1683.61,-18.92 1548.86,-11.203 1461.3,-10.229"/>
<polygon fill="midnightblue" stroke="midnightblue" points="1461.17,-6.7278 1451.14,-10.1436 1461.11,-13.7276 1461.17,-6.7278"/>
</g>
<!-- Node13&#45;&gt;Node20 -->
<g id="edge40" class="edge"><title>Node13&#45;&gt;Node20</title>
<path fill="none" stroke="midnightblue" d="M1405.39,-260.803C1504.56,-260.003 1693.87,-252.73 1743,-210 1796.46,-163.501 1799.53,-69.9478 1798.18,-29.8965"/>
<polygon fill="midnightblue" stroke="midnightblue" points="1801.67,-29.7216 1797.7,-19.8988 1794.68,-30.0536 1801.67,-29.7216"/>
</g>
<!-- Node21 -->
<g id="node21" class="node"><title>Node21</title>
<polygon fill="white" stroke="#bfbfbf" points="840,-0.5 840,-19.5 886,-19.5 886,-0.5 840,-0.5"/>
<text text-anchor="middle" x="863" y="-7.5" font-family="Helvetica,sans-Serif" font-size="10.00">iosfwd</text>
</g>
<!-- Node13&#45;&gt;Node21 -->
<g id="edge43" class="edge"><title>Node13&#45;&gt;Node21</title>
<path fill="none" stroke="midnightblue" d="M1405.19,-260.539C1492.93,-259.143 1647.84,-250.787 1683,-210 1727.69,-158.159 1730.28,-105.49 1683,-56 1654,-25.6435 997.062,-26.8147 896.234,-19.2589"/>
<polygon fill="midnightblue" stroke="midnightblue" points="896.592,-15.7773 886.281,-18.2116 895.86,-22.7389 896.592,-15.7773"/>
</g>
<!-- Node31 -->
<g id="node31" class="node"><title>Node31</title>
<g id="a_node31"><a xlink:href="transformation_8h.html" target="_top" xlink:title="transformation.h">
<polygon fill="white" stroke="black" points="1338.5,-179.5 1338.5,-198.5 1435.5,-198.5 1435.5,-179.5 1338.5,-179.5"/>
<text text-anchor="middle" x="1387" y="-186.5" font-family="Helvetica,sans-Serif" font-size="10.00">transformation.h</text>
</a>
</g>
</g>
<!-- Node13&#45;&gt;Node31 -->
<g id="edge38" class="edge"><title>Node13&#45;&gt;Node31</title>
<path fill="none" stroke="midnightblue" d="M1352.7,-246.233C1359.52,-235.058 1369.03,-219.459 1376.31,-207.524"/>
<polygon fill="midnightblue" stroke="midnightblue" points="1379.36,-209.253 1381.58,-198.893 1373.38,-205.608 1379.36,-209.253"/>
</g>
<!-- Node32 -->
<g id="node32" class="node"><title>Node32</title>
<polygon fill="white" stroke="#bfbfbf" points="1454,-179.5 1454,-198.5 1592,-198.5 1592,-179.5 1454,-179.5"/>
<text text-anchor="middle" x="1523" y="-186.5" font-family="Helvetica,sans-Serif" font-size="10.00">eigen3/Eigen/Eigenvalues</text>
</g>
<!-- Node13&#45;&gt;Node32 -->
<g id="edge41" class="edge"><title>Node13&#45;&gt;Node32</title>
<path fill="none" stroke="midnightblue" d="M1379.79,-246.403C1412.57,-233.495 1460.59,-214.581 1491.82,-202.279"/>
<polygon fill="midnightblue" stroke="midnightblue" points="1493.31,-205.455 1501.33,-198.534 1490.75,-198.942 1493.31,-205.455"/>
</g>
<!-- Node33 -->
<g id="node33" class="node"><title>Node33</title>
<polygon fill="white" stroke="#bfbfbf" points="1610.5,-179.5 1610.5,-198.5 1673.5,-198.5 1673.5,-179.5 1610.5,-179.5"/>
<text text-anchor="middle" x="1642" y="-186.5" font-family="Helvetica,sans-Serif" font-size="10.00">functional</text>
</g>
<!-- Node13&#45;&gt;Node33 -->
<g id="edge42" class="edge"><title>Node13&#45;&gt;Node33</title>
<path fill="none" stroke="midnightblue" d="M1405.13,-253.05C1457.93,-245.543 1535.8,-231.891 1601,-210 1606.54,-208.141 1612.29,-205.693 1617.67,-203.15"/>
<polygon fill="midnightblue" stroke="midnightblue" points="1619.44,-206.175 1626.83,-198.576 1616.32,-199.913 1619.44,-206.175"/>
</g>
<!-- Node34 -->
<g id="node34" class="node"><title>Node34</title>
<polygon fill="white" stroke="#bfbfbf" points="1064,-179.5 1064,-198.5 1106,-198.5 1106,-179.5 1064,-179.5"/>
<text text-anchor="middle" x="1085" y="-186.5" font-family="Helvetica,sans-Serif" font-size="10.00">limits</text>
</g>
<!-- Node13&#45;&gt;Node34 -->
<g id="edge44" class="edge"><title>Node13&#45;&gt;Node34</title>
<path fill="none" stroke="midnightblue" d="M1282.77,-248.213C1220.29,-235.483 1130.38,-216.549 1115,-210 1111.39,-208.463 1107.75,-206.479 1104.31,-204.36"/>
<polygon fill="midnightblue" stroke="midnightblue" points="1106.08,-201.332 1095.83,-198.647 1102.17,-207.138 1106.08,-201.332"/>
</g>
<!-- Node35 -->
<g id="node35" class="node"><title>Node35</title>
<polygon fill="white" stroke="#bfbfbf" points="1124,-168.5 1124,-209.5 1264,-209.5 1264,-168.5 1124,-168.5"/>
<text text-anchor="start" x="1132" y="-197.5" font-family="Helvetica,sans-Serif" font-size="10.00">eigen3/unsupported</text>
<text text-anchor="start" x="1132" y="-186.5" font-family="Helvetica,sans-Serif" font-size="10.00">/Eigen/src/MatrixFunctions</text>
<text text-anchor="middle" x="1194" y="-175.5" font-family="Helvetica,sans-Serif" font-size="10.00">/MatrixExponential.h</text>
</g>
<!-- Node13&#45;&gt;Node35 -->
<g id="edge45" class="edge"><title>Node13&#45;&gt;Node35</title>
<path fill="none" stroke="midnightblue" d="M1314.01,-246.403C1294.24,-237.114 1267.86,-224.717 1244.87,-213.91"/>
<polygon fill="midnightblue" stroke="midnightblue" points="1246.13,-210.632 1235.59,-209.546 1243.15,-216.968 1246.13,-210.632"/>
</g>
<!-- Node14&#45;&gt;Node5 -->
<g id="edge14" class="edge"><title>Node14&#45;&gt;Node5</title>
<path fill="none" stroke="midnightblue" d="M1010.63,-179.327C1011.31,-164.445 1010.87,-133.567 998,-112 990.216,-98.9524 977.082,-88.3759 965.179,-80.763"/>
<polygon fill="midnightblue" stroke="midnightblue" points="966.805,-77.657 956.427,-75.5271 963.212,-83.6643 966.805,-77.657"/>
</g>
<!-- Node15 -->
<g id="node15" class="node"><title>Node15</title>
<g id="a_node15"><a xlink:href="util_2convenienceOperators_8h.html" target="_top" xlink:title="util/convenienceOperators.h">
<polygon fill="white" stroke="black" points="728.5,-112.5 728.5,-131.5 879.5,-131.5 879.5,-112.5 728.5,-112.5"/>
<text text-anchor="middle" x="804" y="-119.5" font-family="Helvetica,sans-Serif" font-size="10.00">util/convenienceOperators.h</text>
</a>
</g>
</g>
<!-- Node14&#45;&gt;Node15 -->
<g id="edge15" class="edge"><title>Node14&#45;&gt;Node15</title>
<path fill="none" stroke="midnightblue" d="M982.645,-179.369C946.145,-167.851 881.399,-147.422 840.69,-134.577"/>
<polygon fill="midnightblue" stroke="midnightblue" points="841.73,-131.235 831.14,-131.564 839.624,-137.911 841.73,-131.235"/>
</g>
<!-- Node24 -->
<g id="node24" class="node"><title>Node24</title>
<g id="a_node24"><a xlink:href="Logger_8h.html" target="_top" xlink:title="util/logging/Logger.h">
<polygon fill="white" stroke="black" points="1322.5,-112.5 1322.5,-131.5 1435.5,-131.5 1435.5,-112.5 1322.5,-112.5"/>
<text text-anchor="middle" x="1379" y="-119.5" font-family="Helvetica,sans-Serif" font-size="10.00">util/logging/Logger.h</text>
</a>
</g>
</g>
<!-- Node14&#45;&gt;Node24 -->
<g id="edge29" class="edge"><title>Node14&#45;&gt;Node24</title>
<path fill="none" stroke="midnightblue" d="M1026.25,-179.448C1034.63,-175.387 1045.13,-170.817 1055,-168 1067.24,-164.506 1221.24,-143.836 1312.44,-131.761"/>
<polygon fill="midnightblue" stroke="midnightblue" points="1312.97,-135.222 1322.42,-130.441 1312.05,-128.282 1312.97,-135.222"/>
</g>
<!-- Node15&#45;&gt;Node11 -->
<g id="edge25" class="edge"><title>Node15&#45;&gt;Node11</title>
<path fill="none" stroke="midnightblue" d="M742.362,-112.444C657.304,-100.636 507.312,-79.8145 444.24,-71.059"/>
<polygon fill="midnightblue" stroke="midnightblue" points="444.581,-67.5729 434.195,-69.6646 443.619,-74.5065 444.581,-67.5729"/>
</g>
<!-- Node15&#45;&gt;Node12 -->
<g id="edge28" class="edge"><title>Node15&#45;&gt;Node12</title>
<path fill="none" stroke="midnightblue" d="M728.469,-112.873C725.271,-112.57 722.104,-112.277 719,-112 496.732,-92.1328 228.827,-74.8723 135.776,-69.0741"/>
<polygon fill="midnightblue" stroke="midnightblue" points="135.757,-65.5663 125.559,-68.4398 135.323,-72.5528 135.757,-65.5663"/>
</g>
<!-- Node15&#45;&gt;Node16 -->
<g id="edge16" class="edge"><title>Node15&#45;&gt;Node16</title>
<path fill="none" stroke="midnightblue" d="M813.319,-112.324C821.893,-104.341 834.812,-92.3128 845.188,-82.6529"/>
<polygon fill="midnightblue" stroke="midnightblue" points="847.578,-85.2098 852.512,-75.8339 842.808,-80.0865 847.578,-85.2098"/>
</g>
<!-- Node15&#45;&gt;Node21 -->
<g id="edge24" class="edge"><title>Node15&#45;&gt;Node21</title>
<path fill="none" stroke="midnightblue" d="M805.123,-112.094C807.052,-99.0901 811.811,-74.4507 822,-56 828.04,-45.0624 837.245,-34.6302 845.403,-26.5692"/>
<polygon fill="midnightblue" stroke="midnightblue" points="847.891,-29.0339 852.768,-19.628 843.09,-23.94 847.891,-29.0339"/>
</g>
<!-- Node22 -->
<g id="node22" class="node"><title>Node22</title>
<polygon fill="white" stroke="#bfbfbf" points="686,-0.5 686,-19.5 718,-19.5 718,-0.5 686,-0.5"/>
<text text-anchor="middle" x="702" y="-7.5" font-family="Helvetica,sans-Serif" font-size="10.00">set</text>
</g>
<!-- Node15&#45;&gt;Node22 -->
<g id="edge26" class="edge"><title>Node15&#45;&gt;Node22</title>
<path fill="none" stroke="midnightblue" d="M778.756,-112.386C761.156,-105.19 738.344,-93.2949 724,-76 712.958,-62.686 707.365,-43.5668 704.591,-29.5094"/>
<polygon fill="midnightblue" stroke="midnightblue" points="708.023,-28.8139 702.921,-19.5286 701.119,-29.9691 708.023,-28.8139"/>
</g>
<!-- Node23 -->
<g id="node23" class="node"><title>Node23</title>
<polygon fill="white" stroke="#bfbfbf" points="733,-56.5 733,-75.5 775,-75.5 775,-56.5 733,-56.5"/>
<text text-anchor="middle" x="754" y="-63.5" font-family="Helvetica,sans-Serif" font-size="10.00">utility</text>
</g>
<!-- Node15&#45;&gt;Node23 -->
<g id="edge27" class="edge"><title>Node15&#45;&gt;Node23</title>
<path fill="none" stroke="midnightblue" d="M795.744,-112.083C788.535,-104.298 777.89,-92.8015 769.154,-83.3665"/>
<polygon fill="midnightblue" stroke="midnightblue" points="771.465,-80.7108 762.103,-75.7511 766.329,-85.4666 771.465,-80.7108"/>
</g>
<!-- Node16&#45;&gt;Node13 -->
<g id="edge23" class="edge"><title>Node16&#45;&gt;Node13</title>
<path fill="none" stroke="midnightblue" d="M892.614,-73.3774C988.135,-94.7169 1273.71,-162.588 1282,-168 1308.48,-185.297 1329.09,-215.94 1339.08,-237.193"/>
<polygon fill="midnightblue" stroke="midnightblue" points="1335.89,-238.643 1343.01,-246.493 1342.34,-235.919 1335.89,-238.643"/>
</g>
<!-- Node16&#45;&gt;Node17 -->
<g id="edge17" class="edge"><title>Node16&#45;&gt;Node17</title>
<path fill="none" stroke="midnightblue" d="M892.58,-57.5354C895.417,-56.9663 898.256,-56.4424 901,-56 1043.19,-33.0753 1210.96,-20.6973 1306.67,-15.0056"/>
<polygon fill="midnightblue" stroke="midnightblue" points="1307.06,-18.4887 1316.84,-14.4099 1306.65,-11.5007 1307.06,-18.4887"/>
</g>
<!-- Node18 -->
<g id="node18" class="node"><title>Node18</title>
<polygon fill="white" stroke="#bfbfbf" points="736,-0.5 736,-19.5 822,-19.5 822,-0.5 736,-0.5"/>
<text text-anchor="middle" x="779" y="-7.5" font-family="Helvetica,sans-Serif" font-size="10.00">carl/util/hash.h</text>
</g>
<!-- Node16&#45;&gt;Node18 -->
<g id="edge18" class="edge"><title>Node16&#45;&gt;Node18</title>
<path fill="none" stroke="midnightblue" d="M848.665,-56.324C835.838,-47.979 816.215,-35.2122 801.06,-25.3524"/>
<polygon fill="midnightblue" stroke="midnightblue" points="802.593,-22.1742 792.302,-19.6545 798.776,-28.0417 802.593,-22.1742"/>
</g>
<!-- Node19 -->
<g id="node19" class="node"><title>Node19</title>
<polygon fill="white" stroke="#bfbfbf" points="904,-0.5 904,-19.5 1008,-19.5 1008,-0.5 904,-0.5"/>
<text text-anchor="middle" x="956" y="-7.5" font-family="Helvetica,sans-Serif" font-size="10.00">eigen3/Eigen/Core</text>
</g>
<!-- Node16&#45;&gt;Node19 -->
<g id="edge19" class="edge"><title>Node16&#45;&gt;Node19</title>
<path fill="none" stroke="midnightblue" d="M877.103,-56.324C891.903,-47.8215 914.694,-34.7288 931.982,-24.7975"/>
<polygon fill="midnightblue" stroke="midnightblue" points="934.007,-27.6707 940.935,-19.6545 930.52,-21.6009 934.007,-27.6707"/>
</g>
<!-- Node16&#45;&gt;Node20 -->
<g id="edge20" class="edge"><title>Node16&#45;&gt;Node20</title>
<path fill="none" stroke="midnightblue" d="M892.562,-57.41C895.402,-56.8672 898.247,-56.3837 901,-56 1061.31,-33.656 1551.91,-17.9317 1730.82,-12.8062"/>
<polygon fill="midnightblue" stroke="midnightblue" points="1730.99,-16.303 1740.88,-12.5197 1730.79,-9.30584 1730.99,-16.303"/>
</g>
<!-- Node16&#45;&gt;Node21 -->
<g id="edge21" class="edge"><title>Node16&#45;&gt;Node21</title>
<path fill="none" stroke="midnightblue" d="M862.165,-56.083C862.296,-49.0059 862.484,-38.8611 862.648,-29.9865"/>
<polygon fill="midnightblue" stroke="midnightblue" points="866.152,-29.8142 862.838,-19.7511 859.153,-29.6845 866.152,-29.8142"/>
</g>
<!-- Node16&#45;&gt;Node22 -->
<g id="edge22" class="edge"><title>Node16&#45;&gt;Node22</title>
<path fill="none" stroke="midnightblue" d="M835.805,-56.473C810.422,-48.1658 770.618,-35.0217 727.628,-20.1633"/>
<polygon fill="midnightblue" stroke="midnightblue" points="728.713,-16.835 718.118,-16.8661 726.42,-23.4488 728.713,-16.835"/>
</g>
<!-- Node24&#45;&gt;Node5 -->
<g id="edge30" class="edge"><title>Node24&#45;&gt;Node5</title>
<path fill="none" stroke="midnightblue" d="M1322.43,-113.736C1317.55,-113.137 1312.69,-112.551 1308,-112 1163.91,-95.0564 1123.98,-101.295 977.849,-76.1338"/>
<polygon fill="midnightblue" stroke="midnightblue" points="978.058,-72.6175 967.605,-74.349 976.856,-79.5136 978.058,-72.6175"/>
</g>
<!-- Node25 -->
<g id="node25" class="node"><title>Node25</title>
<polygon fill="white" stroke="#bfbfbf" points="1302,-56.5 1302,-75.5 1456,-75.5 1456,-56.5 1302,-56.5"/>
<text text-anchor="middle" x="1379" y="-63.5" font-family="Helvetica,sans-Serif" font-size="10.00">carl/io/streamingOperators.h</text>
</g>
<!-- Node24&#45;&gt;Node25 -->
<g id="edge31" class="edge"><title>Node24&#45;&gt;Node25</title>
<path fill="none" stroke="midnightblue" d="M1379,-112.083C1379,-105.006 1379,-94.8611 1379,-85.9865"/>
<polygon fill="midnightblue" stroke="midnightblue" points="1382.5,-85.751 1379,-75.7511 1375.5,-85.7511 1382.5,-85.751"/>
</g>
<!-- Node26 -->
<g id="node26" class="node"><title>Node26</title>
<polygon fill="white" stroke="#bfbfbf" points="1474.5,-56.5 1474.5,-75.5 1533.5,-75.5 1533.5,-56.5 1474.5,-56.5"/>
<text text-anchor="middle" x="1504" y="-63.5" font-family="Helvetica,sans-Serif" font-size="10.00">iostream</text>
</g>
<!-- Node24&#45;&gt;Node26 -->
<g id="edge32" class="edge"><title>Node24&#45;&gt;Node26</title>
<path fill="none" stroke="midnightblue" d="M1398.81,-112.444C1419.29,-103.596 1451.48,-89.6875 1474.86,-79.5865"/>
<polygon fill="midnightblue" stroke="midnightblue" points="1476.49,-82.6953 1484.29,-75.5164 1473.72,-76.2692 1476.49,-82.6953"/>
</g>
<!-- Node27 -->
<g id="node27" class="node"><title>Node27</title>
<polygon fill="white" stroke="#bfbfbf" points="1552,-56.5 1552,-75.5 1608,-75.5 1608,-56.5 1552,-56.5"/>
<text text-anchor="middle" x="1580" y="-63.5" font-family="Helvetica,sans-Serif" font-size="10.00">sstream</text>
</g>
<!-- Node24&#45;&gt;Node27 -->
<g id="edge33" class="edge"><title>Node24&#45;&gt;Node27</title>
<path fill="none" stroke="midnightblue" d="M1410.85,-112.444C1446.52,-102.861 1504.28,-87.3424 1542.21,-77.1537"/>
<polygon fill="midnightblue" stroke="midnightblue" points="1543.12,-80.5328 1551.87,-74.558 1541.3,-73.7725 1543.12,-80.5328"/>
</g>
<!-- Node28 -->
<g id="node28" class="node"><title>Node28</title>
<polygon fill="white" stroke="#bfbfbf" points="1626,-56.5 1626,-75.5 1674,-75.5 1674,-56.5 1626,-56.5"/>
<text text-anchor="middle" x="1650" y="-63.5" font-family="Helvetica,sans-Serif" font-size="10.00">thread</text>
</g>
<!-- Node24&#45;&gt;Node28 -->
<g id="edge34" class="edge"><title>Node24&#45;&gt;Node28</title>
<path fill="none" stroke="midnightblue" d="M1430.78,-112.431C1476.98,-104.509 1546.67,-91.8862 1616.11,-76.0624"/>
<polygon fill="midnightblue" stroke="midnightblue" points="1616.94,-79.4622 1625.91,-73.8085 1615.38,-72.6405 1616.94,-79.4622"/>
</g>
<!-- Node29 -->
<g id="node29" class="node"><title>Node29</title>
<polygon fill="white" stroke="#bfbfbf" points="985.5,-56.5 985.5,-75.5 1110.5,-75.5 1110.5,-56.5 985.5,-56.5"/>
<text text-anchor="middle" x="1048" y="-63.5" font-family="Helvetica,sans-Serif" font-size="10.00">carl/core/carlLogging.h</text>
</g>
<!-- Node24&#45;&gt;Node29 -->
<g id="edge35" class="edge"><title>Node24&#45;&gt;Node29</title>
<path fill="none" stroke="midnightblue" d="M1326.55,-112.444C1267.84,-102.865 1172.77,-87.3556 1110.32,-77.1667"/>
<polygon fill="midnightblue" stroke="midnightblue" points="1110.64,-73.6723 1100.2,-75.5164 1109.51,-80.581 1110.64,-73.6723"/>
</g>
<!-- Node30 -->
<g id="node30" class="node"><title>Node30</title>
<polygon fill="white" stroke="#bfbfbf" points="1128.5,-56.5 1128.5,-75.5 1283.5,-75.5 1283.5,-56.5 1128.5,-56.5"/>
<text text-anchor="middle" x="1206" y="-63.5" font-family="Helvetica,sans-Serif" font-size="10.00">carl/core/carlLoggingHelper.h</text>
</g>
<!-- Node24&#45;&gt;Node30 -->
<g id="edge36" class="edge"><title>Node24&#45;&gt;Node30</title>
<path fill="none" stroke="midnightblue" d="M1351.59,-112.444C1322.23,-103.28 1275.48,-88.6876 1242.9,-78.5192"/>
<polygon fill="midnightblue" stroke="midnightblue" points="1243.87,-75.1551 1233.28,-75.5164 1241.79,-81.8371 1243.87,-75.1551"/>
</g>
<!-- Node36&#45;&gt;Node16 -->
<g id="edge47" class="edge"><title>Node36&#45;&gt;Node16</title>
<path fill="none" stroke="midnightblue" d="M759.137,-246.416C809.649,-234.524 874.117,-218.167 884,-210 920.011,-180.242 942.892,-153.783 922,-112 915.272,-98.5432 902.394,-88.0665 890.288,-80.6212"/>
<polygon fill="midnightblue" stroke="midnightblue" points="891.721,-77.4101 881.296,-75.5195 888.267,-83.4985 891.721,-77.4101"/>
</g>
<!-- Node37&#45;&gt;Node4 -->
<g id="edge51" class="edge"><title>Node37&#45;&gt;Node4</title>
<path fill="none" stroke="midnightblue" d="M352.537,-251.855C358.251,-240.967 368.215,-221.983 375.601,-207.909"/>
<polygon fill="midnightblue" stroke="midnightblue" points="378.878,-209.197 380.426,-198.715 372.68,-205.944 378.878,-209.197"/>
</g>
<!-- Node37&#45;&gt;Node12 -->
<g id="edge53" class="edge"><title>Node37&#45;&gt;Node12</title>
<path fill="none" stroke="midnightblue" d="M323.896,-251.929C280.048,-235.235 186.637,-194.433 131,-132 119.064,-118.606 111.339,-99.4975 106.888,-85.4645"/>
<polygon fill="midnightblue" stroke="midnightblue" points="110.147,-84.1354 104.002,-75.5045 103.423,-86.0835 110.147,-84.1354"/>
</g>
<!-- Node37&#45;&gt;Node14 -->
<g id="edge49" class="edge"><title>Node37&#45;&gt;Node14</title>
<path fill="none" stroke="midnightblue" d="M373.196,-254.646C386.957,-251.646 404.339,-248.176 420,-246 624.873,-217.53 678.582,-234.232 884,-210 910.538,-206.869 940.047,-202.248 963.833,-198.235"/>
<polygon fill="midnightblue" stroke="midnightblue" points="964.72,-201.635 973.988,-196.501 963.542,-194.734 964.72,-201.635"/>
</g>
<!-- Node37&#45;&gt;Node16 -->
<g id="edge50" class="edge"><title>Node37&#45;&gt;Node16</title>
<path fill="none" stroke="midnightblue" d="M373.168,-255.413C477.509,-234.208 871.423,-152.984 888,-132 899.355,-117.626 888.328,-97.6466 877.337,-83.6448"/>
<polygon fill="midnightblue" stroke="midnightblue" points="879.831,-81.174 870.699,-75.8026 874.488,-85.6966 879.831,-81.174"/>
</g>
<!-- Node37&#45;&gt;Node22 -->
<g id="edge52" class="edge"><title>Node37&#45;&gt;Node22</title>
<path fill="none" stroke="midnightblue" d="M322.925,-260.098C258.711,-258.486 91.003,-250.412 57,-210 33.8117,-182.441 24.7992,-98.6476 69,-56 113.216,-13.3382 561.007,-10.857 675.47,-10.9245"/>
<polygon fill="midnightblue" stroke="midnightblue" points="675.765,-14.4248 685.769,-10.9384 675.774,-7.42484 675.765,-14.4248"/>
</g>
<!-- Node38 -->
<g id="node38" class="node"><title>Node38</title>
<polygon fill="white" stroke="#bfbfbf" points="66.5,-179.5 66.5,-198.5 125.5,-198.5 125.5,-179.5 66.5,-179.5"/>
<text text-anchor="middle" x="96" y="-186.5" font-family="Helvetica,sans-Serif" font-size="10.00">Point.tpp</text>
</g>
<!-- Node37&#45;&gt;Node38 -->
<g id="edge54" class="edge"><title>Node37&#45;&gt;Node38</title>
<path fill="none" stroke="midnightblue" d="M322.911,-255.997C283.378,-248.55 204.456,-232.251 140,-210 134.106,-207.965 127.926,-205.426 122.123,-202.848"/>
<polygon fill="midnightblue" stroke="midnightblue" points="123.375,-199.571 112.83,-198.552 120.438,-205.925 123.375,-199.571"/>
</g>
<!-- Node41&#45;&gt;Node2 -->
<g id="edge60" class="edge"><title>Node41&#45;&gt;Node2</title>
<path fill="none" stroke="midnightblue" d="M569.731,-380.475C574.743,-373.019 582.251,-361.852 588.962,-351.869"/>
<polygon fill="midnightblue" stroke="midnightblue" points="591.898,-353.775 594.573,-343.523 586.089,-349.869 591.898,-353.775"/>
</g>
<!-- Node41&#45;&gt;Node37 -->
<g id="edge61" class="edge"><title>Node41&#45;&gt;Node37</title>
<path fill="none" stroke="midnightblue" d="M559.366,-380.306C550.521,-364.54 529.713,-331.185 503,-313 458.377,-282.623 438.096,-294.413 387,-277 384.75,-276.233 382.434,-275.424 380.106,-274.596"/>
<polygon fill="midnightblue" stroke="midnightblue" points="381.203,-271.271 370.609,-271.146 378.813,-277.85 381.203,-271.271"/>
</g>
<!-- Node42 -->
<g id="node42" class="node"><title>Node42</title>
<polygon fill="white" stroke="#bfbfbf" points="441.5,-319 441.5,-338 494.5,-338 494.5,-319 441.5,-319"/>
<text text-anchor="middle" x="468" y="-326" font-family="Helvetica,sans-Serif" font-size="10.00">pca.tpp</text>
</g>
<!-- Node41&#45;&gt;Node42 -->
<g id="edge62" class="edge"><title>Node41&#45;&gt;Node42</title>
<path fill="none" stroke="midnightblue" d="M550.246,-380.475C534.634,-370.799 508.937,-354.872 490.417,-343.394"/>
<polygon fill="midnightblue" stroke="midnightblue" points="492.073,-340.302 481.729,-338.009 488.385,-346.252 492.073,-340.302"/>
</g>
<!-- Node43&#45;&gt;Node14 -->
<g id="edge64" class="edge"><title>Node43&#45;&gt;Node14</title>
<path fill="none" stroke="midnightblue" d="M1260.11,-380.491C1258.12,-365.313 1252.07,-333.264 1235,-313 1220.73,-296.062 1092.7,-231.14 1036.38,-203.064"/>
<polygon fill="midnightblue" stroke="midnightblue" points="1037.88,-199.898 1027.37,-198.577 1034.76,-206.165 1037.88,-199.898"/>
</g>
<!-- Node43&#45;&gt;Node20 -->
<g id="edge66" class="edge"><title>Node43&#45;&gt;Node20</title>
<path fill="none" stroke="midnightblue" d="M1290.84,-388.648C1406.12,-386.498 1816,-371.208 1816,-262.5 1816,-262.5 1816,-262.5 1816,-121 1816,-88.4885 1807.84,-51.3503 1802.22,-29.6103"/>
<polygon fill="midnightblue" stroke="midnightblue" points="1805.54,-28.498 1799.56,-19.7514 1798.78,-30.3175 1805.54,-28.498"/>
</g>
<!-- Node43&#45;&gt;Node44 -->
<g id="edge65" class="edge"><title>Node43&#45;&gt;Node44</title>
<path fill="none" stroke="midnightblue" d="M1252.69,-380.475C1243.82,-371.373 1229.55,-356.741 1218.58,-345.483"/>
<polygon fill="midnightblue" stroke="midnightblue" points="1220.78,-342.727 1211.29,-338.009 1215.77,-347.613 1220.78,-342.727"/>
</g>
</g>
</svg>
        <g id="navigator" transform="translate(0 0)" fill="#404254">
                <rect fill="#f2f5e9" fill-opacity="0.5" stroke="#606060" stroke-width=".5" x="0" y="0" width="60" height="60"/>
                <use id="zoomplus" xlink:href="#zoomPlus" x="17" y="9" onmousedown="handleZoom(evt,'in')"/>
                <use id="zoomminus" xlink:href="#zoomMin" x="42" y="9" onmousedown="handleZoom(evt,'out')"/>
                <use id="reset" xlink:href="#resetDef" x="30" y="36" onmousedown="handleReset()"/>
                <g id="arrowUp" xlink:href="#dirArrow" transform="translate(30 24)" onmousedown="handlePan(0,-1)">
                  <use xlink:href="#rim" fill="#404040">
                        <set attributeName="fill" to="#808080" begin="arrowUp.mouseover" end="arrowUp.mouseout"/>
                  </use>
                  <path fill="none" stroke="white" stroke-width="1.5" d="M0,-3.0v7 M-2.5,-0.5L0,-3.0L2.5,-0.5"/>
                </g>
                <g id="arrowRight" xlink:href="#dirArrow" transform="rotate(90) translate(36 -43)" onmousedown="handlePan(1,0)">
                  <use xlink:href="#rim" fill="#404040">
                        <set attributeName="fill" to="#808080" begin="arrowRight.mouseover" end="arrowRight.mouseout"/>
                  </use>
                  <path fill="none" stroke="white" stroke-width="1.5" d="M0,-3.0v7 M-2.5,-0.5L0,-3.0L2.5,-0.5"/>
                </g>
                <g id="arrowDown" xlink:href="#dirArrow" transform="rotate(180) translate(-30 -48)" onmousedown="handlePan(0,1)">
                  <use xlink:href="#rim" fill="#404040">
                        <set attributeName="fill" to="#808080" begin="arrowDown.mouseover" end="arrowDown.mouseout"/>
                  </use>
                  <path fill="none" stroke="white" stroke-width="1.5" d="M0,-3.0v7 M-2.5,-0.5L0,-3.0L2.5,-0.5"/>
                </g>
                <g id="arrowLeft" xlink:href="#dirArrow" transform="rotate(270) translate(-36 17)" onmousedown="handlePan(-1,0)">
                  <use xlink:href="#rim" fill="#404040">
                        <set attributeName="fill" to="#808080" begin="arrowLeft.mouseover" end="arrowLeft.mouseout"/>
                  </use>
                  <path fill="none" stroke="white" stroke-width="1.5" d="M0,-3.0v7 M-2.5,-0.5L0,-3.0L2.5,-0.5"/>
                </g>
        </g>
        <svg viewBox="0 0 15 15" width="100%" height="30px" preserveAspectRatio="xMaxYMin meet">
         <g id="arrow_out" transform="scale(0.3 0.3)">
          <a xlink:href="Zonotope_8h__incl_org.svg" target="_base">
           <rect id="button" ry="5" rx="5" y="6" x="6" height="38" width="38"
                fill="#f2f5e9" fill-opacity="0.5" stroke="#606060" stroke-width="1.0"/>
           <path id="arrow"
             d="M 11.500037,31.436501 C 11.940474,20.09759 22.043105,11.32322 32.158766,21.979434 L 37.068811,17.246167 C 37.068811,17.246167 37.088388,32 37.088388,32 L 22.160133,31.978069 C 22.160133,31.978069 26.997745,27.140456 26.997745,27.140456 C 18.528582,18.264221 13.291696,25.230495 11.500037,31.436501 z"
             style="fill:#404040;"/>
          </a>
         </g>
        </svg>
</svg>
