<?xml version="1.0" encoding="UTF-8" standalone="no"?>
<!DOCTYPE svg PUBLIC "-//W3C//DTD SVG 1.1//EN"
 "http://www.w3.org/Graphics/SVG/1.1/DTD/svg11.dtd">
<!-- Generated by graphviz version 2.38.0 (20140413.2041)
 -->
<!-- Title: /home/travis/build/hypro/hypro/src/hypro/representations/Zonotope/ZUtility.h Pages: 1 -->
<svg width="1309pt" height="374pt"
 viewBox="0.00 0.00 1308.50 374.00" xmlns="http://www.w3.org/2000/svg" xmlns:xlink="http://www.w3.org/1999/xlink">
<g id="graph0" class="graph" transform="scale(1 1) rotate(0) translate(4 370)">
<title>/home/travis/build/hypro/hypro/src/hypro/representations/Zonotope/ZUtility.h</title>
<polygon fill="white" stroke="none" points="-4,4 -4,-370 1304.5,-370 1304.5,4 -4,4"/>
<!-- Node1 -->
<g id="node1" class="node"><title>Node1</title>
<polygon fill="#bfbfbf" stroke="black" points="1152,-313.5 1152,-365.5 1298,-365.5 1298,-313.5 1152,-313.5"/>
<text text-anchor="start" x="1160" y="-353.5" font-family="Helvetica,sans-Serif" font-size="10.00">/home/travis/build</text>
<text text-anchor="start" x="1160" y="-342.5" font-family="Helvetica,sans-Serif" font-size="10.00">/hypro/hypro/src/hypro</text>
<text text-anchor="start" x="1160" y="-331.5" font-family="Helvetica,sans-Serif" font-size="10.00">/representations/Zonotope</text>
<text text-anchor="middle" x="1225" y="-320.5" font-family="Helvetica,sans-Serif" font-size="10.00">/ZUtility.h</text>
</g>
<!-- Node2 -->
<g id="node2" class="node"><title>Node2</title>
<g id="a_node2"><a xlink:href="config_8h.html" target="_top" xlink:title="../../config.h">
<polygon fill="white" stroke="black" points="767,-257.5 767,-276.5 839,-276.5 839,-257.5 767,-257.5"/>
<text text-anchor="middle" x="803" y="-264.5" font-family="Helvetica,sans-Serif" font-size="10.00">../../config.h</text>
</a>
</g>
</g>
<!-- Node1&#45;&gt;Node2 -->
<g id="edge1" class="edge"><title>Node1&#45;&gt;Node2</title>
<path fill="none" stroke="midnightblue" d="M1151.97,-326.3C1065.07,-311.782 922.566,-287.975 849.457,-275.761"/>
<polygon fill="midnightblue" stroke="midnightblue" points="849.629,-272.241 839.189,-274.046 848.475,-279.146 849.629,-272.241"/>
</g>
<!-- Node9 -->
<g id="node9" class="node"><title>Node9</title>
<polygon fill="white" stroke="#bfbfbf" points="787,-11.5 787,-30.5 899,-30.5 899,-11.5 787,-11.5"/>
<text text-anchor="middle" x="843" y="-18.5" font-family="Helvetica,sans-Serif" font-size="10.00">eigen3/Eigen/Dense</text>
</g>
<!-- Node1&#45;&gt;Node9 -->
<g id="edge36" class="edge"><title>Node1&#45;&gt;Node9</title>
<path fill="none" stroke="midnightblue" d="M1225,-313.299C1225,-287.768 1225,-247.139 1225,-212 1225,-212 1225,-212 1225,-154 1225,-87.9982 1018.71,-47.7174 909.318,-30.9976"/>
<polygon fill="midnightblue" stroke="midnightblue" points="909.775,-27.5271 899.365,-29.5005 908.734,-34.4492 909.775,-27.5271"/>
</g>
<!-- Node28 -->
<g id="node28" class="node"><title>Node28</title>
<polygon fill="white" stroke="#bfbfbf" points="1253.5,-257.5 1253.5,-276.5 1300.5,-276.5 1300.5,-257.5 1253.5,-257.5"/>
<text text-anchor="middle" x="1277" y="-264.5" font-family="Helvetica,sans-Serif" font-size="10.00">cmath</text>
</g>
<!-- Node1&#45;&gt;Node28 -->
<g id="edge35" class="edge"><title>Node1&#45;&gt;Node28</title>
<path fill="none" stroke="midnightblue" d="M1243.48,-313.446C1250.5,-303.929 1258.32,-293.327 1264.64,-284.758"/>
<polygon fill="midnightblue" stroke="midnightblue" points="1267.47,-286.821 1270.59,-276.695 1261.83,-282.666 1267.47,-286.821"/>
</g>
<!-- Node3 -->
<g id="node3" class="node"><title>Node3</title>
<g id="a_node3"><a xlink:href="flags_8h.html" target="_top" xlink:title="flags.h">
<polygon fill="white" stroke="black" points="1149,-145.5 1149,-164.5 1197,-164.5 1197,-145.5 1149,-145.5"/>
<text text-anchor="middle" x="1173" y="-152.5" font-family="Helvetica,sans-Serif" font-size="10.00">flags.h</text>
</a>
</g>
</g>
<!-- Node2&#45;&gt;Node3 -->
<g id="edge2" class="edge"><title>Node2&#45;&gt;Node3</title>
<path fill="none" stroke="midnightblue" d="M831.725,-257.46C899.048,-237.445 1066.77,-187.583 1139.01,-166.105"/>
<polygon fill="midnightblue" stroke="midnightblue" points="1140.37,-169.353 1148.96,-163.149 1138.37,-162.643 1140.37,-169.353"/>
</g>
<!-- Node4 -->
<g id="node4" class="node"><title>Node4</title>
<g id="a_node4"><a xlink:href="util_2convenienceOperators_8h.html" target="_top" xlink:title="util/convenienceOperators.h">
<polygon fill="white" stroke="black" points="169.5,-201.5 169.5,-220.5 320.5,-220.5 320.5,-201.5 169.5,-201.5"/>
<text text-anchor="middle" x="245" y="-208.5" font-family="Helvetica,sans-Serif" font-size="10.00">util/convenienceOperators.h</text>
</a>
</g>
</g>
<!-- Node2&#45;&gt;Node4 -->
<g id="edge3" class="edge"><title>Node2&#45;&gt;Node4</title>
<path fill="none" stroke="midnightblue" d="M766.818,-262.499C679.435,-254.042 454.953,-232.318 330.787,-220.302"/>
<polygon fill="midnightblue" stroke="midnightblue" points="330.849,-216.792 320.558,-219.312 330.174,-223.759 330.849,-216.792"/>
</g>
<!-- Node21 -->
<g id="node21" class="node"><title>Node21</title>
<g id="a_node21"><a xlink:href="Logger_8h.html" target="_top" xlink:title="util/logging/Logger.h">
<polygon fill="white" stroke="black" points="746.5,-201.5 746.5,-220.5 859.5,-220.5 859.5,-201.5 746.5,-201.5"/>
<text text-anchor="middle" x="803" y="-208.5" font-family="Helvetica,sans-Serif" font-size="10.00">util/logging/Logger.h</text>
</a>
</g>
</g>
<!-- Node2&#45;&gt;Node21 -->
<g id="edge27" class="edge"><title>Node2&#45;&gt;Node21</title>
<path fill="none" stroke="midnightblue" d="M803,-257.083C803,-250.006 803,-239.861 803,-230.986"/>
<polygon fill="midnightblue" stroke="midnightblue" points="806.5,-230.751 803,-220.751 799.5,-230.751 806.5,-230.751"/>
</g>
<!-- Node5 -->
<g id="node5" class="node"><title>Node5</title>
<g id="a_node5"><a xlink:href="types_8h.html" target="_top" xlink:title="../types.h">
<polygon fill="white" stroke="black" points="286.5,-145.5 286.5,-164.5 347.5,-164.5 347.5,-145.5 286.5,-145.5"/>
<text text-anchor="middle" x="317" y="-152.5" font-family="Helvetica,sans-Serif" font-size="10.00">../types.h</text>
</a>
</g>
</g>
<!-- Node4&#45;&gt;Node5 -->
<g id="edge4" class="edge"><title>Node4&#45;&gt;Node5</title>
<path fill="none" stroke="midnightblue" d="M256.568,-201.324C267.42,-193.185 283.881,-180.839 296.883,-171.087"/>
<polygon fill="midnightblue" stroke="midnightblue" points="299.321,-173.634 305.221,-164.834 295.121,-168.034 299.321,-173.634"/>
</g>
<!-- Node10 -->
<g id="node10" class="node"><title>Node10</title>
<polygon fill="white" stroke="#bfbfbf" points="0,-11.5 0,-30.5 46,-30.5 46,-11.5 0,-11.5"/>
<text text-anchor="middle" x="23" y="-18.5" font-family="Helvetica,sans-Serif" font-size="10.00">iosfwd</text>
</g>
<!-- Node4&#45;&gt;Node10 -->
<g id="edge22" class="edge"><title>Node4&#45;&gt;Node10</title>
<path fill="none" stroke="midnightblue" d="M180.197,-201.452C151.999,-195.115 119.993,-184.105 96,-165 55.217,-132.525 35.0607,-71.1736 27.1602,-40.4736"/>
<polygon fill="midnightblue" stroke="midnightblue" points="30.5397,-39.5581 24.7885,-30.6602 23.7356,-41.2025 30.5397,-39.5581"/>
</g>
<!-- Node11 -->
<g id="node11" class="node"><title>Node11</title>
<polygon fill="white" stroke="#bfbfbf" points="523,-84 523,-103 555,-103 555,-84 523,-84"/>
<text text-anchor="middle" x="539" y="-91" font-family="Helvetica,sans-Serif" font-size="10.00">set</text>
</g>
<!-- Node4&#45;&gt;Node11 -->
<g id="edge24" class="edge"><title>Node4&#45;&gt;Node11</title>
<path fill="none" stroke="midnightblue" d="M269.299,-201.485C316.156,-184.894 422.056,-146.562 509,-109 510.57,-108.322 512.177,-107.607 513.793,-106.873"/>
<polygon fill="midnightblue" stroke="midnightblue" points="515.363,-110.002 522.924,-102.58 512.385,-103.667 515.363,-110.002"/>
</g>
<!-- Node18 -->
<g id="node18" class="node"><title>Node18</title>
<polygon fill="white" stroke="#bfbfbf" points="105,-145.5 105,-164.5 143,-164.5 143,-145.5 105,-145.5"/>
<text text-anchor="middle" x="124" y="-152.5" font-family="Helvetica,sans-Serif" font-size="10.00">map</text>
</g>
<!-- Node4&#45;&gt;Node18 -->
<g id="edge23" class="edge"><title>Node4&#45;&gt;Node18</title>
<path fill="none" stroke="midnightblue" d="M225.827,-201.444C206.091,-192.636 175.115,-178.812 152.507,-168.722"/>
<polygon fill="midnightblue" stroke="midnightblue" points="153.641,-165.396 143.083,-164.516 150.789,-171.788 153.641,-165.396"/>
</g>
<!-- Node19 -->
<g id="node19" class="node"><title>Node19</title>
<polygon fill="white" stroke="#bfbfbf" points="161,-145.5 161,-164.5 203,-164.5 203,-145.5 161,-145.5"/>
<text text-anchor="middle" x="182" y="-152.5" font-family="Helvetica,sans-Serif" font-size="10.00">utility</text>
</g>
<!-- Node4&#45;&gt;Node19 -->
<g id="edge25" class="edge"><title>Node4&#45;&gt;Node19</title>
<path fill="none" stroke="midnightblue" d="M234.878,-201.324C225.474,-193.263 211.256,-181.077 199.931,-171.369"/>
<polygon fill="midnightblue" stroke="midnightblue" points="202.177,-168.684 192.306,-164.834 197.621,-173.999 202.177,-168.684"/>
</g>
<!-- Node20 -->
<g id="node20" class="node"><title>Node20</title>
<polygon fill="white" stroke="#bfbfbf" points="221.5,-145.5 221.5,-164.5 268.5,-164.5 268.5,-145.5 221.5,-145.5"/>
<text text-anchor="middle" x="245" y="-152.5" font-family="Helvetica,sans-Serif" font-size="10.00">vector</text>
</g>
<!-- Node4&#45;&gt;Node20 -->
<g id="edge26" class="edge"><title>Node4&#45;&gt;Node20</title>
<path fill="none" stroke="midnightblue" d="M245,-201.083C245,-194.006 245,-183.861 245,-174.986"/>
<polygon fill="midnightblue" stroke="midnightblue" points="248.5,-174.751 245,-164.751 241.5,-174.751 248.5,-174.751"/>
</g>
<!-- Node6 -->
<g id="node6" class="node"><title>Node6</title>
<polygon fill="white" stroke="#bfbfbf" points="64,-11.5 64,-30.5 198,-30.5 198,-11.5 64,-11.5"/>
<text text-anchor="middle" x="131" y="-18.5" font-family="Helvetica,sans-Serif" font-size="10.00">carl/numbers/numbers.h</text>
</g>
<!-- Node5&#45;&gt;Node6 -->
<g id="edge5" class="edge"><title>Node5&#45;&gt;Node6</title>
<path fill="none" stroke="midnightblue" d="M286.373,-147.106C230.604,-134.548 118.166,-109.208 118,-109 102.241,-89.2798 112.252,-58.7553 121.325,-39.5999"/>
<polygon fill="midnightblue" stroke="midnightblue" points="124.54,-41 125.971,-30.5023 118.306,-37.8165 124.54,-41"/>
</g>
<!-- Node7 -->
<g id="node7" class="node"><title>Node7</title>
<polygon fill="white" stroke="#bfbfbf" points="127,-84 127,-103 213,-103 213,-84 127,-84"/>
<text text-anchor="middle" x="170" y="-91" font-family="Helvetica,sans-Serif" font-size="10.00">carl/util/hash.h</text>
</g>
<!-- Node5&#45;&gt;Node7 -->
<g id="edge6" class="edge"><title>Node5&#45;&gt;Node7</title>
<path fill="none" stroke="midnightblue" d="M295.938,-145.475C270.941,-135.357 229.058,-118.405 200.513,-106.851"/>
<polygon fill="midnightblue" stroke="midnightblue" points="201.605,-103.517 191.022,-103.009 198.979,-110.005 201.605,-103.517"/>
</g>
<!-- Node8 -->
<g id="node8" class="node"><title>Node8</title>
<polygon fill="white" stroke="#bfbfbf" points="231,-84 231,-103 335,-103 335,-84 231,-84"/>
<text text-anchor="middle" x="283" y="-91" font-family="Helvetica,sans-Serif" font-size="10.00">eigen3/Eigen/Core</text>
</g>
<!-- Node5&#45;&gt;Node8 -->
<g id="edge7" class="edge"><title>Node5&#45;&gt;Node8</title>
<path fill="none" stroke="midnightblue" d="M312.129,-145.475C307.13,-136.727 299.211,-122.869 292.891,-111.809"/>
<polygon fill="midnightblue" stroke="midnightblue" points="295.863,-109.955 287.862,-103.009 289.785,-113.428 295.863,-109.955"/>
</g>
<!-- Node5&#45;&gt;Node9 -->
<g id="edge8" class="edge"><title>Node5&#45;&gt;Node9</title>
<path fill="none" stroke="midnightblue" d="M347.731,-148.966C380.576,-142.754 433.52,-130.308 475,-109 494.695,-98.8827 493.634,-86.6901 514,-78 623.323,-31.3513 662.978,-67.8173 779,-42 788.952,-39.7856 799.584,-36.7456 809.268,-33.7041"/>
<polygon fill="midnightblue" stroke="midnightblue" points="810.512,-36.9801 818.947,-30.5684 808.355,-30.3208 810.512,-36.9801"/>
</g>
<!-- Node5&#45;&gt;Node10 -->
<g id="edge9" class="edge"><title>Node5&#45;&gt;Node10</title>
<path fill="none" stroke="midnightblue" d="M286.435,-147.077C283.25,-146.37 280.06,-145.666 277,-145 201.112,-128.475 173.85,-146.793 106,-109 74.985,-91.7243 48.5481,-59.0067 34.2942,-38.9882"/>
<polygon fill="midnightblue" stroke="midnightblue" points="37.0285,-36.7881 28.4689,-30.5444 31.2667,-40.7632 37.0285,-36.7881"/>
</g>
<!-- Node5&#45;&gt;Node11 -->
<g id="edge10" class="edge"><title>Node5&#45;&gt;Node11</title>
<path fill="none" stroke="midnightblue" d="M347.52,-148.992C385.899,-142.209 453.488,-128.65 509,-109 510.431,-108.493 511.885,-107.938 513.34,-107.349"/>
<polygon fill="midnightblue" stroke="midnightblue" points="515.065,-110.413 522.774,-103.145 512.215,-104.019 515.065,-110.413"/>
</g>
<!-- Node12 -->
<g id="node12" class="node"><title>Node12</title>
<g id="a_node12"><a xlink:href="adaptions__eigen_8h.html" target="_top" xlink:title="util/adaptions_eigen\l/adaptions_eigen.h">
<polygon fill="white" stroke="black" points="353.5,-78.5 353.5,-108.5 466.5,-108.5 466.5,-78.5 353.5,-78.5"/>
<text text-anchor="start" x="361.5" y="-96.5" font-family="Helvetica,sans-Serif" font-size="10.00">util/adaptions_eigen</text>
<text text-anchor="middle" x="410" y="-85.5" font-family="Helvetica,sans-Serif" font-size="10.00">/adaptions_eigen.h</text>
</a>
</g>
</g>
<!-- Node5&#45;&gt;Node12 -->
<g id="edge11" class="edge"><title>Node5&#45;&gt;Node12</title>
<path fill="none" stroke="midnightblue" d="M325.424,-145.475C336.465,-137.266 355.837,-124.558 373.33,-113.885"/>
<polygon fill="midnightblue" stroke="midnightblue" points="375.483,-116.674 382.252,-108.523 371.878,-110.674 375.483,-116.674"/>
</g>
<!-- Node12&#45;&gt;Node2 -->
<g id="edge12" class="edge"><title>Node12&#45;&gt;Node2</title>
<path fill="none" stroke="midnightblue" d="M410.761,-108.762C412.386,-124.689 417.43,-150.173 433,-165 523.151,-250.849 678.962,-265.174 756.449,-266.657"/>
<polygon fill="midnightblue" stroke="midnightblue" points="756.805,-270.161 766.849,-266.787 756.893,-263.162 756.805,-270.161"/>
</g>
<!-- Node12&#45;&gt;Node5 -->
<g id="edge13" class="edge"><title>Node12&#45;&gt;Node5</title>
<path fill="none" stroke="midnightblue" d="M393.912,-108.523C380.167,-118.11 360.391,-130.754 344.241,-140.276"/>
<polygon fill="midnightblue" stroke="midnightblue" points="342.14,-137.448 335.225,-145.475 345.637,-143.512 342.14,-137.448"/>
</g>
<!-- Node12&#45;&gt;Node6 -->
<g id="edge15" class="edge"><title>Node12&#45;&gt;Node6</title>
<path fill="none" stroke="midnightblue" d="M353.072,-78.556C312.35,-68.5284 256.256,-54.6072 207,-42 195.97,-39.1767 184.054,-36.0688 173.003,-33.1618"/>
<polygon fill="midnightblue" stroke="midnightblue" points="173.709,-29.7285 163.147,-30.5626 171.924,-36.497 173.709,-29.7285"/>
</g>
<!-- Node12&#45;&gt;Node9 -->
<g id="edge16" class="edge"><title>Node12&#45;&gt;Node9</title>
<path fill="none" stroke="midnightblue" d="M466.505,-80.5292C471.399,-79.6234 476.281,-78.7656 481,-78 612.686,-56.6353 648.567,-70.0128 779,-42 789.052,-39.8411 799.786,-36.7914 809.535,-33.7224"/>
<polygon fill="midnightblue" stroke="midnightblue" points="810.842,-36.9776 819.267,-30.5538 808.675,-30.3215 810.842,-36.9776"/>
</g>
<!-- Node12&#45;&gt;Node10 -->
<g id="edge19" class="edge"><title>Node12&#45;&gt;Node10</title>
<path fill="none" stroke="midnightblue" d="M353.184,-79.6686C350.083,-79.0773 347.006,-78.5163 344,-78 216.431,-56.0894 176.973,-85.3199 55,-42 50.7634,-40.4953 46.4987,-38.3602 42.5253,-36.0407"/>
<polygon fill="midnightblue" stroke="midnightblue" points="44.2351,-32.9787 33.9334,-30.5039 40.4433,-38.8628 44.2351,-32.9787"/>
</g>
<!-- Node13 -->
<g id="node13" class="node"><title>Node13</title>
<g id="a_node13"><a xlink:href="transformation_8h.html" target="_top" xlink:title="transformation.h">
<polygon fill="white" stroke="black" points="672.5,-11.5 672.5,-30.5 769.5,-30.5 769.5,-11.5 672.5,-11.5"/>
<text text-anchor="middle" x="721" y="-18.5" font-family="Helvetica,sans-Serif" font-size="10.00">transformation.h</text>
</a>
</g>
</g>
<!-- Node12&#45;&gt;Node13 -->
<g id="edge14" class="edge"><title>Node12&#45;&gt;Node13</title>
<path fill="none" stroke="midnightblue" d="M466.575,-80.9132C471.453,-79.9241 476.313,-78.9421 481,-78 561.839,-61.7504 583.394,-63.4902 663,-42 671.574,-39.6855 680.715,-36.7572 689.144,-33.8604"/>
<polygon fill="midnightblue" stroke="midnightblue" points="690.37,-37.1396 698.636,-30.5129 688.041,-30.5381 690.37,-37.1396"/>
</g>
<!-- Node14 -->
<g id="node14" class="node"><title>Node14</title>
<polygon fill="white" stroke="#bfbfbf" points="216,-11.5 216,-30.5 354,-30.5 354,-11.5 216,-11.5"/>
<text text-anchor="middle" x="285" y="-18.5" font-family="Helvetica,sans-Serif" font-size="10.00">eigen3/Eigen/Eigenvalues</text>
</g>
<!-- Node12&#45;&gt;Node14 -->
<g id="edge17" class="edge"><title>Node12&#45;&gt;Node14</title>
<path fill="none" stroke="midnightblue" d="M385.005,-78.4027C362.911,-65.9416 330.894,-47.884 309.079,-35.5807"/>
<polygon fill="midnightblue" stroke="midnightblue" points="310.56,-32.3976 300.13,-30.5336 307.121,-38.4947 310.56,-32.3976"/>
</g>
<!-- Node15 -->
<g id="node15" class="node"><title>Node15</title>
<polygon fill="white" stroke="#bfbfbf" points="372.5,-11.5 372.5,-30.5 435.5,-30.5 435.5,-11.5 372.5,-11.5"/>
<text text-anchor="middle" x="404" y="-18.5" font-family="Helvetica,sans-Serif" font-size="10.00">functional</text>
</g>
<!-- Node12&#45;&gt;Node15 -->
<g id="edge18" class="edge"><title>Node12&#45;&gt;Node15</title>
<path fill="none" stroke="midnightblue" d="M408.786,-78.2333C407.872,-67.5006 406.612,-52.6875 405.614,-40.959"/>
<polygon fill="midnightblue" stroke="midnightblue" points="409.092,-40.5603 404.757,-30.8932 402.118,-41.154 409.092,-40.5603"/>
</g>
<!-- Node16 -->
<g id="node16" class="node"><title>Node16</title>
<polygon fill="white" stroke="#bfbfbf" points="454,-11.5 454,-30.5 496,-30.5 496,-11.5 454,-11.5"/>
<text text-anchor="middle" x="475" y="-18.5" font-family="Helvetica,sans-Serif" font-size="10.00">limits</text>
</g>
<!-- Node12&#45;&gt;Node16 -->
<g id="edge20" class="edge"><title>Node12&#45;&gt;Node16</title>
<path fill="none" stroke="midnightblue" d="M423.154,-78.2333C433.763,-66.7261 448.697,-50.5283 459.814,-38.4707"/>
<polygon fill="midnightblue" stroke="midnightblue" points="462.595,-40.6177 466.801,-30.8932 457.449,-35.8727 462.595,-40.6177"/>
</g>
<!-- Node17 -->
<g id="node17" class="node"><title>Node17</title>
<polygon fill="white" stroke="#bfbfbf" points="514,-0.5 514,-41.5 654,-41.5 654,-0.5 514,-0.5"/>
<text text-anchor="start" x="522" y="-29.5" font-family="Helvetica,sans-Serif" font-size="10.00">eigen3/unsupported</text>
<text text-anchor="start" x="522" y="-18.5" font-family="Helvetica,sans-Serif" font-size="10.00">/Eigen/src/MatrixFunctions</text>
<text text-anchor="middle" x="584" y="-7.5" font-family="Helvetica,sans-Serif" font-size="10.00">/MatrixExponential.h</text>
</g>
<!-- Node12&#45;&gt;Node17 -->
<g id="edge21" class="edge"><title>Node12&#45;&gt;Node17</title>
<path fill="none" stroke="midnightblue" d="M444.793,-78.4027C468.125,-68.9492 499.407,-56.2747 526.406,-45.3353"/>
<polygon fill="midnightblue" stroke="midnightblue" points="527.804,-48.5455 535.758,-41.5464 525.175,-42.0578 527.804,-48.5455"/>
</g>
<!-- Node21&#45;&gt;Node3 -->
<g id="edge28" class="edge"><title>Node21&#45;&gt;Node3</title>
<path fill="none" stroke="midnightblue" d="M859.731,-204.761C924.915,-198.22 1035.21,-185.563 1138.92,-164.978"/>
<polygon fill="midnightblue" stroke="midnightblue" points="1139.83,-168.367 1148.94,-162.961 1138.44,-161.504 1139.83,-168.367"/>
</g>
<!-- Node22 -->
<g id="node22" class="node"><title>Node22</title>
<polygon fill="white" stroke="#bfbfbf" points="899,-145.5 899,-164.5 1053,-164.5 1053,-145.5 899,-145.5"/>
<text text-anchor="middle" x="976" y="-152.5" font-family="Helvetica,sans-Serif" font-size="10.00">carl/io/streamingOperators.h</text>
</g>
<!-- Node21&#45;&gt;Node22 -->
<g id="edge29" class="edge"><title>Node21&#45;&gt;Node22</title>
<path fill="none" stroke="midnightblue" d="M830.412,-201.444C859.769,-192.28 906.519,-177.688 939.096,-167.519"/>
<polygon fill="midnightblue" stroke="midnightblue" points="940.213,-170.837 948.716,-164.516 938.127,-164.155 940.213,-170.837"/>
</g>
<!-- Node23 -->
<g id="node23" class="node"><title>Node23</title>
<polygon fill="white" stroke="#bfbfbf" points="1071.5,-145.5 1071.5,-164.5 1130.5,-164.5 1130.5,-145.5 1071.5,-145.5"/>
<text text-anchor="middle" x="1101" y="-152.5" font-family="Helvetica,sans-Serif" font-size="10.00">iostream</text>
</g>
<!-- Node21&#45;&gt;Node23 -->
<g id="edge30" class="edge"><title>Node21&#45;&gt;Node23</title>
<path fill="none" stroke="midnightblue" d="M857.232,-201.465C907.592,-193.338 984.883,-180.358 1061.41,-165.028"/>
<polygon fill="midnightblue" stroke="midnightblue" points="1062.12,-168.456 1071.23,-163.048 1060.73,-161.595 1062.12,-168.456"/>
</g>
<!-- Node24 -->
<g id="node24" class="node"><title>Node24</title>
<polygon fill="white" stroke="#bfbfbf" points="442,-145.5 442,-164.5 498,-164.5 498,-145.5 442,-145.5"/>
<text text-anchor="middle" x="470" y="-152.5" font-family="Helvetica,sans-Serif" font-size="10.00">sstream</text>
</g>
<!-- Node21&#45;&gt;Node24 -->
<g id="edge31" class="edge"><title>Node21&#45;&gt;Node24</title>
<path fill="none" stroke="midnightblue" d="M746.274,-202.881C688.662,-195.313 596.686,-182.303 508.164,-165.089"/>
<polygon fill="midnightblue" stroke="midnightblue" points="508.713,-161.63 498.225,-163.136 507.362,-168.499 508.713,-161.63"/>
</g>
<!-- Node25 -->
<g id="node25" class="node"><title>Node25</title>
<polygon fill="white" stroke="#bfbfbf" points="516,-145.5 516,-164.5 564,-164.5 564,-145.5 516,-145.5"/>
<text text-anchor="middle" x="540" y="-152.5" font-family="Helvetica,sans-Serif" font-size="10.00">thread</text>
</g>
<!-- Node21&#45;&gt;Node25 -->
<g id="edge32" class="edge"><title>Node21&#45;&gt;Node25</title>
<path fill="none" stroke="midnightblue" d="M754.558,-201.422C708.075,-192.969 635.989,-179.279 574,-165 573.9,-164.977 573.799,-164.954 573.698,-164.93"/>
<polygon fill="midnightblue" stroke="midnightblue" points="574.643,-161.558 564.098,-162.585 572.982,-168.358 574.643,-161.558"/>
</g>
<!-- Node26 -->
<g id="node26" class="node"><title>Node26</title>
<polygon fill="white" stroke="#bfbfbf" points="582.5,-145.5 582.5,-164.5 707.5,-164.5 707.5,-145.5 582.5,-145.5"/>
<text text-anchor="middle" x="645" y="-152.5" font-family="Helvetica,sans-Serif" font-size="10.00">carl/core/carlLogging.h</text>
</g>
<!-- Node21&#45;&gt;Node26 -->
<g id="edge33" class="edge"><title>Node21&#45;&gt;Node26</title>
<path fill="none" stroke="midnightblue" d="M777.964,-201.444C751.384,-192.359 709.191,-177.939 679.477,-167.783"/>
<polygon fill="midnightblue" stroke="midnightblue" points="680.513,-164.439 669.918,-164.516 678.249,-171.062 680.513,-164.439"/>
</g>
<!-- Node27 -->
<g id="node27" class="node"><title>Node27</title>
<polygon fill="white" stroke="#bfbfbf" points="725.5,-145.5 725.5,-164.5 880.5,-164.5 880.5,-145.5 725.5,-145.5"/>
<text text-anchor="middle" x="803" y="-152.5" font-family="Helvetica,sans-Serif" font-size="10.00">carl/core/carlLoggingHelper.h</text>
</g>
<!-- Node21&#45;&gt;Node27 -->
<g id="edge34" class="edge"><title>Node21&#45;&gt;Node27</title>
<path fill="none" stroke="midnightblue" d="M803,-201.083C803,-194.006 803,-183.861 803,-174.986"/>
<polygon fill="midnightblue" stroke="midnightblue" points="806.5,-174.751 803,-164.751 799.5,-174.751 806.5,-174.751"/>
</g>
</g>
</svg>
